%TF.GenerationSoftware,KiCad,Pcbnew,7.0.5*%
%TF.CreationDate,2024-08-11T23:03:57-04:00*%
%TF.ProjectId,card_for_74_series,63617264-5f66-46f7-925f-37345f736572,rev?*%
%TF.SameCoordinates,Original*%
%TF.FileFunction,Paste,Top*%
%TF.FilePolarity,Positive*%
%FSLAX46Y46*%
G04 Gerber Fmt 4.6, Leading zero omitted, Abs format (unit mm)*
G04 Created by KiCad (PCBNEW 7.0.5) date 2024-08-11 23:03:57*
%MOMM*%
%LPD*%
G01*
G04 APERTURE LIST*
G04 Aperture macros list*
%AMRoundRect*
0 Rectangle with rounded corners*
0 $1 Rounding radius*
0 $2 $3 $4 $5 $6 $7 $8 $9 X,Y pos of 4 corners*
0 Add a 4 corners polygon primitive as box body*
4,1,4,$2,$3,$4,$5,$6,$7,$8,$9,$2,$3,0*
0 Add four circle primitives for the rounded corners*
1,1,$1+$1,$2,$3*
1,1,$1+$1,$4,$5*
1,1,$1+$1,$6,$7*
1,1,$1+$1,$8,$9*
0 Add four rect primitives between the rounded corners*
20,1,$1+$1,$2,$3,$4,$5,0*
20,1,$1+$1,$4,$5,$6,$7,0*
20,1,$1+$1,$6,$7,$8,$9,0*
20,1,$1+$1,$8,$9,$2,$3,0*%
G04 Aperture macros list end*
%ADD10RoundRect,0.237500X-0.250000X-0.237500X0.250000X-0.237500X0.250000X0.237500X-0.250000X0.237500X0*%
%ADD11RoundRect,0.237500X-0.287500X-0.237500X0.287500X-0.237500X0.287500X0.237500X-0.287500X0.237500X0*%
%ADD12R,1.560000X0.650000*%
%ADD13RoundRect,0.250000X-0.325000X-0.650000X0.325000X-0.650000X0.325000X0.650000X-0.325000X0.650000X0*%
%ADD14RoundRect,0.250000X-0.312500X-0.625000X0.312500X-0.625000X0.312500X0.625000X-0.312500X0.625000X0*%
G04 APERTURE END LIST*
D10*
%TO.C,r4*%
X259080000Y-63380000D03*
X260905000Y-63380000D03*
%TD*%
%TO.C,r3*%
X259080000Y-60870000D03*
X260905000Y-60870000D03*
%TD*%
%TO.C,r2*%
X259080000Y-58360000D03*
X260905000Y-58360000D03*
%TD*%
%TO.C,r1*%
X259080000Y-55850000D03*
X260905000Y-55850000D03*
%TD*%
%TO.C,r0*%
X259080000Y-53340000D03*
X260905000Y-53340000D03*
%TD*%
%TO.C,r44*%
X249635000Y-75990000D03*
X251460000Y-75990000D03*
%TD*%
%TO.C,r43*%
X249635000Y-73480000D03*
X251460000Y-73480000D03*
%TD*%
%TO.C,r42*%
X249635000Y-70970000D03*
X251460000Y-70970000D03*
%TD*%
%TO.C,r41*%
X249635000Y-68460000D03*
X251460000Y-68460000D03*
%TD*%
%TO.C,r40*%
X249635000Y-65950000D03*
X251460000Y-65950000D03*
%TD*%
%TO.C,r39*%
X249635000Y-63440000D03*
X251460000Y-63440000D03*
%TD*%
%TO.C,r38*%
X249635000Y-60930000D03*
X251460000Y-60930000D03*
%TD*%
%TO.C,r37*%
X249635000Y-58420000D03*
X251460000Y-58420000D03*
%TD*%
%TO.C,r36*%
X162560000Y-58420000D03*
X164385000Y-58420000D03*
%TD*%
%TO.C,r35*%
X168355000Y-60960000D03*
X170180000Y-60960000D03*
%TD*%
%TO.C,r34*%
X175975000Y-58420000D03*
X177800000Y-58420000D03*
%TD*%
%TO.C,r33*%
X181055000Y-60960000D03*
X182880000Y-60960000D03*
%TD*%
%TO.C,r32*%
X186135000Y-58420000D03*
X187960000Y-58420000D03*
%TD*%
%TO.C,r31*%
X193040000Y-60960000D03*
X191215000Y-60960000D03*
%TD*%
%TO.C,r30*%
X196295000Y-58420000D03*
X198120000Y-58420000D03*
%TD*%
%TO.C,r29*%
X201375000Y-60960000D03*
X203200000Y-60960000D03*
%TD*%
%TO.C,r28*%
X207367500Y-58420000D03*
X209192500Y-58420000D03*
%TD*%
%TO.C,r27*%
X212447500Y-60960000D03*
X214272500Y-60960000D03*
%TD*%
%TO.C,r26*%
X217527500Y-58420000D03*
X219352500Y-58420000D03*
%TD*%
%TO.C,r25*%
X222607500Y-60960000D03*
X224432500Y-60960000D03*
%TD*%
%TO.C,r24*%
X225147500Y-58420000D03*
X226972500Y-58420000D03*
%TD*%
%TO.C,r23*%
X232767500Y-60960000D03*
X234592500Y-60960000D03*
%TD*%
%TO.C,r22*%
X235307500Y-58420000D03*
X237132500Y-58420000D03*
%TD*%
%TO.C,r21*%
X150772500Y-142240000D03*
X148947500Y-142240000D03*
%TD*%
%TO.C,r20*%
X149860000Y-134620000D03*
X151685000Y-134620000D03*
%TD*%
%TO.C,r19*%
X149860000Y-129540000D03*
X151685000Y-129540000D03*
%TD*%
%TO.C,r18*%
X139700000Y-131990000D03*
X141525000Y-131990000D03*
%TD*%
%TO.C,r17*%
X139700000Y-129480000D03*
X141525000Y-129480000D03*
%TD*%
%TO.C,r16*%
X139700000Y-126970000D03*
X141525000Y-126970000D03*
%TD*%
%TO.C,r15*%
X139700000Y-124460000D03*
X141525000Y-124460000D03*
%TD*%
%TO.C,r14*%
X149860000Y-139700000D03*
X151685000Y-139700000D03*
%TD*%
%TO.C,r13*%
X175260000Y-119380000D03*
X177085000Y-119380000D03*
%TD*%
%TO.C,r12*%
X182880000Y-111760000D03*
X184705000Y-111760000D03*
%TD*%
%TO.C,r11*%
X175260000Y-111760000D03*
X177085000Y-111760000D03*
%TD*%
%TO.C,r10*%
X175975000Y-116840000D03*
X177800000Y-116840000D03*
%TD*%
%TO.C,r9*%
X182880000Y-114300000D03*
X184705000Y-114300000D03*
%TD*%
%TO.C,r8*%
X175260000Y-114300000D03*
X177085000Y-114300000D03*
%TD*%
%TO.C,r7*%
X182880000Y-116840000D03*
X184705000Y-116840000D03*
%TD*%
%TO.C,r6*%
X182880000Y-119380000D03*
X184705000Y-119380000D03*
%TD*%
%TO.C,r5*%
X241300000Y-58420000D03*
X243125000Y-58420000D03*
%TD*%
D11*
%TO.C,D29*%
X253125000Y-76200000D03*
X254875000Y-76200000D03*
%TD*%
%TO.C,D28*%
X253125000Y-73610000D03*
X254875000Y-73610000D03*
%TD*%
%TO.C,D27*%
X253125000Y-71020000D03*
X254875000Y-71020000D03*
%TD*%
%TO.C,D26*%
X253125000Y-68430000D03*
X254875000Y-68430000D03*
%TD*%
%TO.C,D25*%
X253125000Y-65840000D03*
X254875000Y-65840000D03*
%TD*%
%TO.C,D24*%
X253125000Y-63250000D03*
X254875000Y-63250000D03*
%TD*%
%TO.C,D23*%
X254000000Y-60960000D03*
X255750000Y-60960000D03*
%TD*%
%TO.C,D22*%
X254000000Y-58420000D03*
X255750000Y-58420000D03*
%TD*%
%TO.C,D21*%
X161685000Y-53340000D03*
X163435000Y-53340000D03*
%TD*%
%TO.C,D20*%
X167640000Y-53340000D03*
X169390000Y-53340000D03*
%TD*%
%TO.C,D19*%
X174385000Y-53340000D03*
X176135000Y-53340000D03*
%TD*%
%TO.C,D18*%
X181215000Y-53340000D03*
X179465000Y-53340000D03*
%TD*%
%TO.C,D17*%
X185420000Y-53340000D03*
X187170000Y-53340000D03*
%TD*%
%TO.C,D16*%
X190500000Y-53340000D03*
X192250000Y-53340000D03*
%TD*%
%TO.C,D15*%
X195580000Y-53340000D03*
X197330000Y-53340000D03*
%TD*%
%TO.C,D14*%
X200660000Y-53340000D03*
X202410000Y-53340000D03*
%TD*%
%TO.C,D13*%
X205740000Y-53340000D03*
X207490000Y-53340000D03*
%TD*%
%TO.C,D12*%
X211610000Y-53340000D03*
X213360000Y-53340000D03*
%TD*%
%TO.C,D11*%
X216690000Y-53340000D03*
X218440000Y-53340000D03*
%TD*%
%TO.C,D10*%
X221770000Y-53340000D03*
X223520000Y-53340000D03*
%TD*%
%TO.C,D9*%
X226850000Y-53340000D03*
X228600000Y-53340000D03*
%TD*%
%TO.C,D8*%
X233680000Y-53340000D03*
X231930000Y-53340000D03*
%TD*%
%TO.C,D7*%
X238760000Y-53340000D03*
X237010000Y-53340000D03*
%TD*%
%TO.C,D6*%
X243840000Y-53340000D03*
X242090000Y-53340000D03*
%TD*%
%TO.C,D5*%
X236220000Y-68580000D03*
X237970000Y-68580000D03*
%TD*%
%TO.C,D4*%
X243840000Y-68580000D03*
X245590000Y-68580000D03*
%TD*%
%TO.C,D3*%
X239550000Y-68580000D03*
X241300000Y-68580000D03*
%TD*%
%TO.C,D2*%
X232890000Y-68580000D03*
X231140000Y-68580000D03*
%TD*%
%TO.C,D1*%
X226850000Y-68580000D03*
X228600000Y-68580000D03*
%TD*%
D12*
%TO.C,U3*%
X260270000Y-131810000D03*
X260270000Y-132760000D03*
X260270000Y-133710000D03*
X262970000Y-133710000D03*
X262970000Y-132760000D03*
X262970000Y-131810000D03*
%TD*%
D13*
%TO.C,C2*%
X254395000Y-135460000D03*
X257345000Y-135460000D03*
%TD*%
%TO.C,C1*%
X254395000Y-132110000D03*
X257345000Y-132110000D03*
%TD*%
D14*
%TO.C,5V_rsns1*%
X265887500Y-132080000D03*
X268812500Y-132080000D03*
%TD*%
M02*
