M48
; DRILL file {KiCad 7.0.5} date Sun Aug 11 23:04:01 2024
; FORMAT={-:-/ absolute / inch / decimal}
; #@! TF.CreationDate,2024-08-11T23:04:01-04:00
; #@! TF.GenerationSoftware,Kicad,Pcbnew,7.0.5
; #@! TF.FileFunction,Plated,1,2,PTH
FMAT,2
INCH
; #@! TA.AperFunction,Plated,PTH,ComponentDrill
T1C0.0315
; #@! TA.AperFunction,Plated,PTH,ComponentDrill
T2C0.0394
%
G90
G05
T1
X5.3Y-2.3
X5.3Y-2.4
X5.3Y-2.5
X5.3Y-2.6
X5.3Y-2.7
X5.3Y-2.8
X5.3Y-2.9
X5.3Y-3.0
X5.6Y-2.3
X5.6Y-2.4
X5.6Y-2.5
X5.6Y-2.6
X5.6Y-2.7
X5.6Y-2.8
X5.6Y-2.9
X5.6Y-3.0
X5.8504Y-2.2504
X5.8504Y-2.3504
X5.8504Y-2.4504
X5.8504Y-2.5504
X6.1504Y-2.2504
X6.1504Y-2.3504
X6.1504Y-2.4504
X6.1504Y-2.5504
X6.2Y-4.9
X6.2Y-5.0
X6.2Y-5.1
X6.2Y-5.2
X6.2Y-5.3
X6.2Y-5.4
X6.2Y-5.5
X6.2Y-5.6
X6.2Y-5.7
X6.2Y-5.8
X6.5Y-4.9
X6.5Y-5.0
X6.5Y-5.1
X6.5Y-5.2
X6.5Y-5.3
X6.5Y-5.4
X6.5Y-5.5
X6.5Y-5.6
X6.5Y-5.7
X6.5Y-5.8
X6.9496Y-4.9
X6.9496Y-5.0
X6.9496Y-5.1
X6.9496Y-5.2
X6.9496Y-5.3
X6.9496Y-5.4
X6.9496Y-5.5
X6.9496Y-5.6
X6.9496Y-5.7
X6.9496Y-5.8
X7.2496Y-4.9
X7.2496Y-5.0
X7.2496Y-5.1
X7.2496Y-5.2
X7.2496Y-5.3
X7.2496Y-5.4
X7.2496Y-5.5
X7.2496Y-5.6
X7.2496Y-5.7
X7.2496Y-5.8
X7.8Y-4.9
X7.8Y-5.0
X7.8Y-5.1
X7.8Y-5.2
X7.8Y-5.3
X7.8Y-5.4
X7.8Y-5.5
X7.8Y-5.6
X7.8Y-5.7
X7.8Y-5.8
X8.1Y-4.9
X8.1Y-5.0
X8.1Y-5.1
X8.1Y-5.2
X8.1Y-5.3
X8.1Y-5.4
X8.1Y-5.5
X8.1Y-5.6
X8.1Y-5.7
X8.1Y-5.8
X8.3Y-5.5
X8.3Y-5.8
X8.4Y-5.5
X8.4Y-5.8
X8.5Y-5.5
X8.5Y-5.8
X8.6Y-5.5
X8.6Y-5.8
X8.7Y-5.5
X8.7Y-5.8
X8.8Y-5.5
X8.8Y-5.8
X8.9Y-5.5
X8.9Y-5.8
X9.0Y-5.5
X9.0Y-5.8
X9.1Y-5.5
X9.1Y-5.8
X9.2Y-5.5
X9.2Y-5.8
X9.5Y-4.9
X9.5Y-5.0
X9.5Y-5.1
X9.5Y-5.2
X9.5Y-5.3
X9.5Y-5.4
X9.5Y-5.5
X9.8Y-4.9
X9.8Y-5.0
X9.8Y-5.1
X9.8Y-5.2
X9.8Y-5.3
X9.8Y-5.4
X9.8Y-5.5
T2
X5.2Y-6.3
X5.3Y-6.3
X5.4Y-6.3
X5.5Y-6.3
X5.6Y-6.3
X5.7Y-6.3
X5.8Y-6.3
X5.9Y-6.3
X6.0Y-6.3
X6.1Y-6.3
X6.2Y-6.3
X6.3Y-6.3
X6.4Y-6.3
X6.5Y-6.3
X6.6Y-6.3
X6.7Y-6.3
X6.8Y-6.3
X6.9Y-6.3
X7.0Y-6.3
X7.1Y-6.3
X7.2Y-6.3
X7.3Y-6.3
X7.4Y-6.3
X7.5Y-6.3
X7.6Y-6.3
X7.7Y-6.3
X7.8Y-6.3
X7.9Y-6.3
X8.0Y-6.3
X8.1Y-6.3
X8.2Y-6.3
X8.3Y-6.3
X8.4Y-6.3
X8.5Y-6.3
X8.6Y-6.3
X8.7Y-6.3
X8.8Y-6.3
X8.9Y-6.3
X9.0Y-6.3
X9.1Y-6.3
X10.7Y-2.1
X10.7Y-2.2
X10.7Y-2.3
X10.7Y-2.4
X10.7Y-2.5
X10.7Y-2.6
X10.7Y-2.7
X10.7Y-2.8
X10.7Y-2.9
X10.7Y-3.0
X10.7Y-3.1
X10.7Y-3.2
X10.7Y-3.3
X10.7Y-3.4
X10.7Y-3.5
X10.7Y-3.6
X10.7Y-3.7
X10.7Y-3.8
X10.7Y-3.9
X10.7Y-4.0
X10.7Y-4.1
X10.7Y-4.2
X10.7Y-4.3
X10.7Y-4.4
X10.7Y-4.5
X10.7Y-4.6
X10.7Y-4.7
X10.7Y-4.8
X10.7Y-4.9
X10.7Y-5.0
X10.7Y-5.1
X10.7Y-5.2
X10.7Y-5.3
X10.7Y-5.4
X10.7Y-5.5
X10.7Y-5.6
X10.7Y-5.7
X10.7Y-5.8
X10.7Y-5.9
X10.7Y-6.0
X10.8Y-2.1
X10.8Y-2.2
X10.8Y-2.3
X10.8Y-2.4
X10.8Y-2.5
X10.8Y-2.6
X10.8Y-2.7
X10.8Y-2.8
X10.8Y-2.9
X10.8Y-3.0
X10.8Y-3.1
X10.8Y-3.2
X10.8Y-3.3
X10.8Y-3.4
X10.8Y-3.5
X10.8Y-3.6
X10.8Y-3.7
X10.8Y-3.8
X10.8Y-3.9
X10.8Y-4.0
X10.8Y-4.1
X10.8Y-4.2
X10.8Y-4.3
X10.8Y-4.4
X10.8Y-4.5
X10.8Y-4.6
X10.8Y-4.7
X10.8Y-4.8
X10.8Y-4.9
X10.8Y-5.0
X10.8Y-5.1
X10.8Y-5.2
X10.8Y-5.3
X10.8Y-5.4
X10.8Y-5.5
X10.8Y-5.6
X10.8Y-5.7
X10.8Y-5.8
X10.8Y-5.9
X10.8Y-6.0
X10.9Y-2.1
X10.9Y-2.2
X10.9Y-2.3
X10.9Y-2.4
X10.9Y-2.5
X10.9Y-2.6
X10.9Y-2.7
X10.9Y-2.8
X10.9Y-2.9
X10.9Y-3.0
X10.9Y-3.1
X10.9Y-3.2
X10.9Y-3.3
X10.9Y-3.4
X10.9Y-3.5
X10.9Y-3.6
X10.9Y-3.7
X10.9Y-3.8
X10.9Y-3.9
X10.9Y-4.0
X10.9Y-4.1
X10.9Y-4.2
X10.9Y-4.3
X10.9Y-4.4
X10.9Y-4.5
X10.9Y-4.6
X10.9Y-4.7
X10.9Y-4.8
X10.9Y-4.9
X10.9Y-5.0
X10.9Y-5.1
X10.9Y-5.2
X10.9Y-5.3
X10.9Y-5.4
X10.9Y-5.5
X10.9Y-5.6
X10.9Y-5.7
X10.9Y-5.8
X10.9Y-5.9
X10.9Y-6.0
X11.0Y-2.1
X11.0Y-2.2
X11.0Y-2.3
X11.0Y-2.4
X11.0Y-2.5
X11.0Y-2.6
X11.0Y-2.7
X11.0Y-2.8
X11.0Y-2.9
X11.0Y-3.0
X11.0Y-3.1
X11.0Y-3.2
X11.0Y-3.3
X11.0Y-3.4
X11.0Y-3.5
X11.0Y-3.6
X11.0Y-3.7
X11.0Y-3.8
X11.0Y-3.9
X11.0Y-4.0
X11.0Y-4.1
X11.0Y-4.2
X11.0Y-4.3
X11.0Y-4.4
X11.0Y-4.5
X11.0Y-4.6
X11.0Y-4.7
X11.0Y-4.8
X11.0Y-4.9
X11.0Y-5.0
X11.0Y-5.1
X11.0Y-5.2
X11.0Y-5.3
X11.0Y-5.4
X11.0Y-5.5
X11.0Y-5.6
X11.0Y-5.7
X11.0Y-5.8
X11.0Y-5.9
X11.0Y-6.0
X11.1Y-2.1
X11.1Y-2.2
X11.1Y-2.3
X11.1Y-2.4
X11.1Y-2.5
X11.1Y-2.6
X11.1Y-2.7
X11.1Y-2.8
X11.1Y-2.9
X11.1Y-3.0
X11.1Y-3.1
X11.1Y-3.2
X11.1Y-3.3
X11.1Y-3.4
X11.1Y-3.5
X11.1Y-3.6
X11.1Y-3.7
X11.1Y-3.8
X11.1Y-3.9
X11.1Y-4.0
X11.1Y-4.1
X11.1Y-4.2
X11.1Y-4.3
X11.1Y-4.4
X11.1Y-4.5
X11.1Y-4.6
X11.1Y-4.7
X11.1Y-4.8
X11.1Y-4.9
X11.1Y-5.0
X11.1Y-5.1
X11.1Y-5.2
X11.1Y-5.3
X11.1Y-5.4
X11.1Y-5.5
X11.1Y-5.6
X11.1Y-5.7
X11.1Y-5.8
X11.1Y-5.9
X11.1Y-6.0
X11.2Y-2.1
X11.2Y-2.2
X11.2Y-2.3
X11.2Y-2.4
X11.2Y-2.5
X11.2Y-2.6
X11.2Y-2.7
X11.2Y-2.8
X11.2Y-2.9
X11.2Y-3.0
X11.2Y-3.1
X11.2Y-3.2
X11.2Y-3.3
X11.2Y-3.4
X11.2Y-3.5
X11.2Y-3.6
X11.2Y-3.7
X11.2Y-3.8
X11.2Y-3.9
X11.2Y-4.0
X11.2Y-4.1
X11.2Y-4.2
X11.2Y-4.3
X11.2Y-4.4
X11.2Y-4.5
X11.2Y-4.6
X11.2Y-4.7
X11.2Y-4.8
X11.2Y-4.9
X11.2Y-5.0
X11.2Y-5.1
X11.2Y-5.2
X11.2Y-5.3
X11.2Y-5.4
X11.2Y-5.5
X11.2Y-5.6
X11.2Y-5.7
X11.2Y-5.8
X11.2Y-5.9
X11.2Y-6.0
X11.3Y-2.1
X11.3Y-2.2
X11.3Y-2.3
X11.3Y-2.4
X11.3Y-2.5
X11.3Y-2.6
X11.3Y-2.7
X11.3Y-2.8
X11.3Y-2.9
X11.3Y-3.0
X11.3Y-3.1
X11.3Y-3.2
X11.3Y-3.3
X11.3Y-3.4
X11.3Y-3.5
X11.3Y-3.6
X11.3Y-3.7
X11.3Y-3.8
X11.3Y-3.9
X11.3Y-4.0
X11.3Y-4.1
X11.3Y-4.2
X11.3Y-4.3
X11.3Y-4.4
X11.3Y-4.5
X11.3Y-4.6
X11.3Y-4.7
X11.3Y-4.8
X11.3Y-4.9
X11.3Y-5.0
X11.3Y-5.1
X11.3Y-5.2
X11.3Y-5.3
X11.3Y-5.4
X11.3Y-5.5
X11.3Y-5.6
X11.3Y-5.7
X11.3Y-5.8
X11.3Y-5.9
X11.3Y-6.0
X11.4Y-2.1
X11.4Y-2.2
X11.4Y-2.3
X11.4Y-2.4
X11.4Y-2.5
X11.4Y-2.6
X11.4Y-2.7
X11.4Y-2.8
X11.4Y-2.9
X11.4Y-3.0
X11.4Y-3.1
X11.4Y-3.2
X11.4Y-3.3
X11.4Y-3.4
X11.4Y-3.5
X11.4Y-3.6
X11.4Y-3.7
X11.4Y-3.8
X11.4Y-3.9
X11.4Y-4.0
X11.4Y-4.1
X11.4Y-4.2
X11.4Y-4.3
X11.4Y-4.4
X11.4Y-4.5
X11.4Y-4.6
X11.4Y-4.7
X11.4Y-4.8
X11.4Y-4.9
X11.4Y-5.0
X11.4Y-5.1
X11.4Y-5.2
X11.4Y-5.3
X11.4Y-5.4
X11.4Y-5.5
X11.4Y-5.6
X11.4Y-5.7
X11.4Y-5.8
X11.4Y-5.9
X11.4Y-6.0
X11.5Y-2.1
X11.5Y-2.2
X11.5Y-2.3
X11.5Y-2.4
X11.5Y-2.5
X11.5Y-2.6
X11.5Y-2.7
X11.5Y-2.8
X11.5Y-2.9
X11.5Y-3.0
X11.5Y-3.1
X11.5Y-3.2
X11.5Y-3.3
X11.5Y-3.4
X11.5Y-3.5
X11.5Y-3.6
X11.5Y-3.7
X11.5Y-3.8
X11.5Y-3.9
X11.5Y-4.0
X11.5Y-4.1
X11.5Y-4.2
X11.5Y-4.3
X11.5Y-4.4
X11.5Y-4.5
X11.5Y-4.6
X11.5Y-4.7
X11.5Y-4.8
X11.5Y-4.9
X11.5Y-5.0
X11.5Y-5.1
X11.5Y-5.2
X11.5Y-5.3
X11.5Y-5.4
X11.5Y-5.5
X11.5Y-5.6
X11.5Y-5.7
X11.5Y-5.8
X11.5Y-5.9
X11.5Y-6.0
X11.6Y-2.1
X11.6Y-2.2
X11.6Y-2.3
X11.6Y-2.4
X11.6Y-2.5
X11.6Y-2.6
X11.6Y-2.7
X11.6Y-2.8
X11.6Y-2.9
X11.6Y-3.0
X11.6Y-3.1
X11.6Y-3.2
X11.6Y-3.3
X11.6Y-3.4
X11.6Y-3.5
X11.6Y-3.6
X11.6Y-3.7
X11.6Y-3.8
X11.6Y-3.9
X11.6Y-4.0
X11.6Y-4.1
X11.6Y-4.2
X11.6Y-4.3
X11.6Y-4.4
X11.6Y-4.5
X11.6Y-4.6
X11.6Y-4.7
X11.6Y-4.8
X11.6Y-4.9
X11.6Y-5.0
X11.6Y-5.1
X11.6Y-5.2
X11.6Y-5.3
X11.6Y-5.4
X11.6Y-5.5
X11.6Y-5.6
X11.6Y-5.7
X11.6Y-5.8
X11.6Y-5.9
X11.6Y-6.0
X11.7Y-2.1
X11.7Y-2.2
X11.7Y-2.3
X11.7Y-2.4
X11.7Y-2.5
X11.7Y-2.6
X11.7Y-2.7
X11.7Y-2.8
X11.7Y-2.9
X11.7Y-3.0
X11.7Y-3.1
X11.7Y-3.2
X11.7Y-3.3
X11.7Y-3.4
X11.7Y-3.5
X11.7Y-3.6
X11.7Y-3.7
X11.7Y-3.8
X11.7Y-3.9
X11.7Y-4.0
X11.7Y-4.1
X11.7Y-4.2
X11.7Y-4.3
X11.7Y-4.4
X11.7Y-4.5
X11.7Y-4.6
X11.7Y-4.7
X11.7Y-4.8
X11.7Y-4.9
X11.7Y-5.0
X11.7Y-5.1
X11.7Y-5.2
X11.7Y-5.3
X11.7Y-5.4
X11.7Y-5.5
X11.7Y-5.6
X11.7Y-5.7
X11.7Y-5.8
X11.7Y-5.9
X11.7Y-6.0
X11.8Y-2.1
X11.8Y-2.2
X11.8Y-2.3
X11.8Y-2.4
X11.8Y-2.5
X11.8Y-2.6
X11.8Y-2.7
X11.8Y-2.8
X11.8Y-2.9
X11.8Y-3.0
X11.8Y-3.1
X11.8Y-3.2
X11.8Y-3.3
X11.8Y-3.4
X11.8Y-3.5
X11.8Y-3.6
X11.8Y-3.7
X11.8Y-3.8
X11.8Y-3.9
X11.8Y-4.0
X11.8Y-4.1
X11.8Y-4.2
X11.8Y-4.3
X11.8Y-4.4
X11.8Y-4.5
X11.8Y-4.6
X11.8Y-4.7
X11.8Y-4.8
X11.8Y-4.9
X11.8Y-5.0
X11.8Y-5.1
X11.8Y-5.2
X11.8Y-5.3
X11.8Y-5.4
X11.8Y-5.5
X11.8Y-5.6
X11.8Y-5.7
X11.8Y-5.8
X11.8Y-5.9
X11.8Y-6.0
X11.9Y-2.1
X11.9Y-2.2
X11.9Y-2.3
X11.9Y-2.4
X11.9Y-2.5
X11.9Y-2.6
X11.9Y-2.7
X11.9Y-2.8
X11.9Y-2.9
X11.9Y-3.0
X11.9Y-3.1
X11.9Y-3.2
X11.9Y-3.3
X11.9Y-3.4
X11.9Y-3.5
X11.9Y-3.6
X11.9Y-3.7
X11.9Y-3.8
X11.9Y-3.9
X11.9Y-4.0
X11.9Y-4.1
X11.9Y-4.2
X11.9Y-4.3
X11.9Y-4.4
X11.9Y-4.5
X11.9Y-4.6
X11.9Y-4.7
X11.9Y-4.8
X11.9Y-4.9
X11.9Y-5.0
X11.9Y-5.1
X11.9Y-5.2
X11.9Y-5.3
X11.9Y-5.4
X11.9Y-5.5
X11.9Y-5.6
X11.9Y-5.7
X11.9Y-5.8
X11.9Y-5.9
X11.9Y-6.0
X12.0Y-2.1
X12.0Y-2.2
X12.0Y-2.3
X12.0Y-2.4
X12.0Y-2.5
X12.0Y-2.6
X12.0Y-2.7
X12.0Y-2.8
X12.0Y-2.9
X12.0Y-3.0
X12.0Y-3.1
X12.0Y-3.2
X12.0Y-3.3
X12.0Y-3.4
X12.0Y-3.5
X12.0Y-3.6
X12.0Y-3.7
X12.0Y-3.8
X12.0Y-3.9
X12.0Y-4.0
X12.0Y-4.1
X12.0Y-4.2
X12.0Y-4.3
X12.0Y-4.4
X12.0Y-4.5
X12.0Y-4.6
X12.0Y-4.7
X12.0Y-4.8
X12.0Y-4.9
X12.0Y-5.0
X12.0Y-5.1
X12.0Y-5.2
X12.0Y-5.3
X12.0Y-5.4
X12.0Y-5.5
X12.0Y-5.6
X12.0Y-5.7
X12.0Y-5.8
X12.0Y-5.9
X12.0Y-6.0
X12.1Y-2.1
X12.1Y-2.2
X12.1Y-2.3
X12.1Y-2.4
X12.1Y-2.5
X12.1Y-2.6
X12.1Y-2.7
X12.1Y-2.8
X12.1Y-2.9
X12.1Y-3.0
X12.1Y-3.1
X12.1Y-3.2
X12.1Y-3.3
X12.1Y-3.4
X12.1Y-3.5
X12.1Y-3.6
X12.1Y-3.7
X12.1Y-3.8
X12.1Y-3.9
X12.1Y-4.0
X12.1Y-4.1
X12.1Y-4.2
X12.1Y-4.3
X12.1Y-4.4
X12.1Y-4.5
X12.1Y-4.6
X12.1Y-4.7
X12.1Y-4.8
X12.1Y-4.9
X12.1Y-5.0
X12.1Y-5.1
X12.1Y-5.2
X12.1Y-5.3
X12.1Y-5.4
X12.1Y-5.5
X12.1Y-5.6
X12.1Y-5.7
X12.1Y-5.8
X12.1Y-5.9
X12.1Y-6.0
X12.2Y-2.1
X12.2Y-2.2
X12.2Y-2.3
X12.2Y-2.4
X12.2Y-2.5
X12.2Y-2.6
X12.2Y-2.7
X12.2Y-2.8
X12.2Y-2.9
X12.2Y-3.0
X12.2Y-3.1
X12.2Y-3.2
X12.2Y-3.3
X12.2Y-3.4
X12.2Y-3.5
X12.2Y-3.6
X12.2Y-3.7
X12.2Y-3.8
X12.2Y-3.9
X12.2Y-4.0
X12.2Y-4.1
X12.2Y-4.2
X12.2Y-4.3
X12.2Y-4.4
X12.2Y-4.5
X12.2Y-4.6
X12.2Y-4.7
X12.2Y-4.8
X12.2Y-4.9
X12.2Y-5.0
X12.2Y-5.1
X12.2Y-5.2
X12.2Y-5.3
X12.2Y-5.4
X12.2Y-5.5
X12.2Y-5.6
X12.2Y-5.7
X12.2Y-5.8
X12.2Y-5.9
X12.2Y-6.0
X12.3Y-2.1
X12.3Y-2.2
X12.3Y-2.3
X12.3Y-2.4
X12.3Y-2.5
X12.3Y-2.6
X12.3Y-2.7
X12.3Y-2.8
X12.3Y-2.9
X12.3Y-3.0
X12.3Y-3.1
X12.3Y-3.2
X12.3Y-3.3
X12.3Y-3.4
X12.3Y-3.5
X12.3Y-3.6
X12.3Y-3.7
X12.3Y-3.8
X12.3Y-3.9
X12.3Y-4.0
X12.3Y-4.1
X12.3Y-4.2
X12.3Y-4.3
X12.3Y-4.4
X12.3Y-4.5
X12.3Y-4.6
X12.3Y-4.7
X12.3Y-4.8
X12.3Y-4.9
X12.3Y-5.0
X12.3Y-5.1
X12.3Y-5.2
X12.3Y-5.3
X12.3Y-5.4
X12.3Y-5.5
X12.3Y-5.6
X12.3Y-5.7
X12.3Y-5.8
X12.3Y-5.9
X12.3Y-6.0
X12.4Y-2.1
X12.4Y-2.2
X12.4Y-2.3
X12.4Y-2.4
X12.4Y-2.5
X12.4Y-2.6
X12.4Y-2.7
X12.4Y-2.8
X12.4Y-2.9
X12.4Y-3.0
X12.4Y-3.1
X12.4Y-3.2
X12.4Y-3.3
X12.4Y-3.4
X12.4Y-3.5
X12.4Y-3.6
X12.4Y-3.7
X12.4Y-3.8
X12.4Y-3.9
X12.4Y-4.0
X12.4Y-4.1
X12.4Y-4.2
X12.4Y-4.3
X12.4Y-4.4
X12.4Y-4.5
X12.4Y-4.6
X12.4Y-4.7
X12.4Y-4.8
X12.4Y-4.9
X12.4Y-5.0
X12.4Y-5.1
X12.4Y-5.2
X12.4Y-5.3
X12.4Y-5.4
X12.4Y-5.5
X12.4Y-5.6
X12.4Y-5.7
X12.4Y-5.8
X12.4Y-5.9
X12.4Y-6.0
X12.5Y-2.1
X12.5Y-2.2
X12.5Y-2.3
X12.5Y-2.4
X12.5Y-2.5
X12.5Y-2.6
X12.5Y-2.7
X12.5Y-2.8
X12.5Y-2.9
X12.5Y-3.0
X12.5Y-3.1
X12.5Y-3.2
X12.5Y-3.3
X12.5Y-3.4
X12.5Y-3.5
X12.5Y-3.6
X12.5Y-3.7
X12.5Y-3.8
X12.5Y-3.9
X12.5Y-4.0
X12.5Y-4.1
X12.5Y-4.2
X12.5Y-4.3
X12.5Y-4.4
X12.5Y-4.5
X12.5Y-4.6
X12.5Y-4.7
X12.5Y-4.8
X12.5Y-4.9
X12.5Y-5.0
X12.5Y-5.1
X12.5Y-5.2
X12.5Y-5.3
X12.5Y-5.4
X12.5Y-5.5
X12.5Y-5.6
X12.5Y-5.7
X12.5Y-5.8
X12.5Y-5.9
X12.5Y-6.0
X12.6Y-2.1
X12.6Y-2.2
X12.6Y-2.3
X12.6Y-2.4
X12.6Y-2.5
X12.6Y-2.6
X12.6Y-2.7
X12.6Y-2.8
X12.6Y-2.9
X12.6Y-3.0
X12.6Y-3.1
X12.6Y-3.2
X12.6Y-3.3
X12.6Y-3.4
X12.6Y-3.5
X12.6Y-3.6
X12.6Y-3.7
X12.6Y-3.8
X12.6Y-3.9
X12.6Y-4.0
X12.6Y-4.1
X12.6Y-4.2
X12.6Y-4.3
X12.6Y-4.4
X12.6Y-4.5
X12.6Y-4.6
X12.6Y-4.7
X12.6Y-4.8
X12.6Y-4.9
X12.6Y-5.0
X12.6Y-5.1
X12.6Y-5.2
X12.6Y-5.3
X12.6Y-5.4
X12.6Y-5.5
X12.6Y-5.6
X12.6Y-5.7
X12.6Y-5.8
X12.6Y-5.9
X12.6Y-6.0
X12.7Y-2.1
X12.7Y-2.2
X12.7Y-2.3
X12.7Y-2.4
X12.7Y-2.5
X12.7Y-2.6
X12.7Y-2.7
X12.7Y-2.8
X12.7Y-2.9
X12.7Y-3.0
X12.7Y-3.1
X12.7Y-3.2
X12.7Y-3.3
X12.7Y-3.4
X12.7Y-3.5
X12.7Y-3.6
X12.7Y-3.7
X12.7Y-3.8
X12.7Y-3.9
X12.7Y-4.0
X12.7Y-4.1
X12.7Y-4.2
X12.7Y-4.3
X12.7Y-4.4
X12.7Y-4.5
X12.7Y-4.6
X12.7Y-4.7
X12.7Y-4.8
X12.7Y-4.9
X12.7Y-5.0
X12.7Y-5.1
X12.7Y-5.2
X12.7Y-5.3
X12.7Y-5.4
X12.7Y-5.5
X12.7Y-5.6
X12.7Y-5.7
X12.7Y-5.8
X12.7Y-5.9
X12.7Y-6.0
X12.8Y-2.1
X12.8Y-2.2
X12.8Y-2.3
X12.8Y-2.4
X12.8Y-2.5
X12.8Y-2.6
X12.8Y-2.7
X12.8Y-2.8
X12.8Y-2.9
X12.8Y-3.0
X12.8Y-3.1
X12.8Y-3.2
X12.8Y-3.3
X12.8Y-3.4
X12.8Y-3.5
X12.8Y-3.6
X12.8Y-3.7
X12.8Y-3.8
X12.8Y-3.9
X12.8Y-4.0
X12.8Y-4.1
X12.8Y-4.2
X12.8Y-4.3
X12.8Y-4.4
X12.8Y-4.5
X12.8Y-4.6
X12.8Y-4.7
X12.8Y-4.8
X12.8Y-4.9
X12.8Y-5.0
X12.8Y-5.1
X12.8Y-5.2
X12.8Y-5.3
X12.8Y-5.4
X12.8Y-5.5
X12.8Y-5.6
X12.8Y-5.7
X12.8Y-5.8
X12.8Y-5.9
X12.8Y-6.0
X12.9Y-2.1
X12.9Y-2.2
X12.9Y-2.3
X12.9Y-2.4
X12.9Y-2.5
X12.9Y-2.6
X12.9Y-2.7
X12.9Y-2.8
X12.9Y-2.9
X12.9Y-3.0
X12.9Y-3.1
X12.9Y-3.2
X12.9Y-3.3
X12.9Y-3.4
X12.9Y-3.5
X12.9Y-3.6
X12.9Y-3.7
X12.9Y-3.8
X12.9Y-3.9
X12.9Y-4.0
X12.9Y-4.1
X12.9Y-4.2
X12.9Y-4.3
X12.9Y-4.4
X12.9Y-4.5
X12.9Y-4.6
X12.9Y-4.7
X12.9Y-4.8
X12.9Y-4.9
X12.9Y-5.0
X12.9Y-5.1
X12.9Y-5.2
X12.9Y-5.3
X12.9Y-5.4
X12.9Y-5.5
X12.9Y-5.6
X12.9Y-5.7
X12.9Y-5.8
X12.9Y-5.9
X12.9Y-6.0
X13.0Y-2.1
X13.0Y-2.2
X13.0Y-2.3
X13.0Y-2.4
X13.0Y-2.5
X13.0Y-2.6
X13.0Y-2.7
X13.0Y-2.8
X13.0Y-2.9
X13.0Y-3.0
X13.0Y-3.1
X13.0Y-3.2
X13.0Y-3.3
X13.0Y-3.4
X13.0Y-3.5
X13.0Y-3.6
X13.0Y-3.7
X13.0Y-3.8
X13.0Y-3.9
X13.0Y-4.0
X13.0Y-4.1
X13.0Y-4.2
X13.0Y-4.3
X13.0Y-4.4
X13.0Y-4.5
X13.0Y-4.6
X13.0Y-4.7
X13.0Y-4.8
X13.0Y-4.9
X13.0Y-5.0
X13.0Y-5.1
X13.0Y-5.2
X13.0Y-5.3
X13.0Y-5.4
X13.0Y-5.5
X13.0Y-5.6
X13.0Y-5.7
X13.0Y-5.8
X13.0Y-5.9
X13.0Y-6.0
X13.1Y-2.1
X13.1Y-2.2
X13.1Y-2.3
X13.1Y-2.4
X13.1Y-2.5
X13.1Y-2.6
X13.1Y-2.7
X13.1Y-2.8
X13.1Y-2.9
X13.1Y-3.0
X13.1Y-3.1
X13.1Y-3.2
X13.1Y-3.3
X13.1Y-3.4
X13.1Y-3.5
X13.1Y-3.6
X13.1Y-3.7
X13.1Y-3.8
X13.1Y-3.9
X13.1Y-4.0
X13.1Y-4.1
X13.1Y-4.2
X13.1Y-4.3
X13.1Y-4.4
X13.1Y-4.5
X13.1Y-4.6
X13.1Y-4.7
X13.1Y-4.8
X13.1Y-4.9
X13.1Y-5.0
X13.1Y-5.1
X13.1Y-5.2
X13.1Y-5.3
X13.1Y-5.4
X13.1Y-5.5
X13.1Y-5.6
X13.1Y-5.7
X13.1Y-5.8
X13.1Y-5.9
X13.1Y-6.0
X13.2Y-2.1
X13.2Y-2.2
X13.2Y-2.3
X13.2Y-2.4
X13.2Y-2.5
X13.2Y-2.6
X13.2Y-2.7
X13.2Y-2.8
X13.2Y-2.9
X13.2Y-3.0
X13.2Y-3.1
X13.2Y-3.2
X13.2Y-3.3
X13.2Y-3.4
X13.2Y-3.5
X13.2Y-3.6
X13.2Y-3.7
X13.2Y-3.8
X13.2Y-3.9
X13.2Y-4.0
X13.2Y-4.1
X13.2Y-4.2
X13.2Y-4.3
X13.2Y-4.4
X13.2Y-4.5
X13.2Y-4.6
X13.2Y-4.7
X13.2Y-4.8
X13.2Y-4.9
X13.2Y-5.0
X13.2Y-5.1
X13.2Y-5.2
X13.2Y-5.3
X13.2Y-5.4
X13.2Y-5.5
X13.2Y-5.6
X13.2Y-5.7
X13.2Y-5.8
X13.2Y-5.9
X13.2Y-6.0
X13.3Y-2.1
X13.3Y-2.2
X13.3Y-2.3
X13.3Y-2.4
X13.3Y-2.5
X13.3Y-2.6
X13.3Y-2.7
X13.3Y-2.8
X13.3Y-2.9
X13.3Y-3.0
X13.3Y-3.1
X13.3Y-3.2
X13.3Y-3.3
X13.3Y-3.4
X13.3Y-3.5
X13.3Y-3.6
X13.3Y-3.7
X13.3Y-3.8
X13.3Y-3.9
X13.3Y-4.0
X13.3Y-4.1
X13.3Y-4.2
X13.3Y-4.3
X13.3Y-4.4
X13.3Y-4.5
X13.3Y-4.6
X13.3Y-4.7
X13.3Y-4.8
X13.3Y-4.9
X13.3Y-5.0
X13.3Y-5.1
X13.3Y-5.2
X13.3Y-5.3
X13.3Y-5.4
X13.3Y-5.5
X13.3Y-5.6
X13.3Y-5.7
X13.3Y-5.8
X13.3Y-5.9
X13.3Y-6.0
X13.4Y-2.1
X13.4Y-2.2
X13.4Y-2.3
X13.4Y-2.4
X13.4Y-2.5
X13.4Y-2.6
X13.4Y-2.7
X13.4Y-2.8
X13.4Y-2.9
X13.4Y-3.0
X13.4Y-3.1
X13.4Y-3.2
X13.4Y-3.3
X13.4Y-3.4
X13.4Y-3.5
X13.4Y-3.6
X13.4Y-3.7
X13.4Y-3.8
X13.4Y-3.9
X13.4Y-4.0
X13.4Y-4.1
X13.4Y-4.2
X13.4Y-4.3
X13.4Y-4.4
X13.4Y-4.5
X13.4Y-4.6
X13.4Y-4.7
X13.4Y-4.8
X13.4Y-4.9
X13.4Y-5.0
X13.4Y-5.1
X13.4Y-5.2
X13.4Y-5.3
X13.4Y-5.4
X13.4Y-5.5
X13.4Y-5.6
X13.4Y-5.7
X13.4Y-5.8
X13.4Y-5.9
X13.4Y-6.0
X13.5Y-2.1
X13.5Y-2.2
X13.5Y-2.3
X13.5Y-2.4
X13.5Y-2.5
X13.5Y-2.6
X13.5Y-2.7
X13.5Y-2.8
X13.5Y-2.9
X13.5Y-3.0
X13.5Y-3.1
X13.5Y-3.2
X13.5Y-3.3
X13.5Y-3.4
X13.5Y-3.5
X13.5Y-3.6
X13.5Y-3.7
X13.5Y-3.8
X13.5Y-3.9
X13.5Y-4.0
X13.5Y-4.1
X13.5Y-4.2
X13.5Y-4.3
X13.5Y-4.4
X13.5Y-4.5
X13.5Y-4.6
X13.5Y-4.7
X13.5Y-4.8
X13.5Y-4.9
X13.5Y-5.0
X13.5Y-5.1
X13.5Y-5.2
X13.5Y-5.3
X13.5Y-5.4
X13.5Y-5.5
X13.5Y-5.6
X13.5Y-5.7
X13.5Y-5.8
X13.5Y-5.9
X13.5Y-6.0
X13.6Y-2.1
X13.6Y-2.2
X13.6Y-2.3
X13.6Y-2.4
X13.6Y-2.5
X13.6Y-2.6
X13.6Y-2.7
X13.6Y-2.8
X13.6Y-2.9
X13.6Y-3.0
X13.6Y-3.1
X13.6Y-3.2
X13.6Y-3.3
X13.6Y-3.4
X13.6Y-3.5
X13.6Y-3.6
X13.6Y-3.7
X13.6Y-3.8
X13.6Y-3.9
X13.6Y-4.0
X13.6Y-4.1
X13.6Y-4.2
X13.6Y-4.3
X13.6Y-4.4
X13.6Y-4.5
X13.6Y-4.6
X13.6Y-4.7
X13.6Y-4.8
X13.6Y-4.9
X13.6Y-5.0
X13.6Y-5.1
X13.6Y-5.2
X13.6Y-5.3
X13.6Y-5.4
X13.6Y-5.5
X13.6Y-5.6
X13.6Y-5.7
X13.6Y-5.8
X13.6Y-5.9
X13.6Y-6.0
X13.7Y-2.1
X13.7Y-2.2
X13.7Y-2.3
X13.7Y-2.4
X13.7Y-2.5
X13.7Y-2.6
X13.7Y-2.7
X13.7Y-2.8
X13.7Y-2.9
X13.7Y-3.0
X13.7Y-3.1
X13.7Y-3.2
X13.7Y-3.3
X13.7Y-3.4
X13.7Y-3.5
X13.7Y-3.6
X13.7Y-3.7
X13.7Y-3.8
X13.7Y-3.9
X13.7Y-4.0
X13.7Y-4.1
X13.7Y-4.2
X13.7Y-4.3
X13.7Y-4.4
X13.7Y-4.5
X13.7Y-4.6
X13.7Y-4.7
X13.7Y-4.8
X13.7Y-4.9
X13.7Y-5.0
X13.7Y-5.1
X13.7Y-5.2
X13.7Y-5.3
X13.7Y-5.4
X13.7Y-5.5
X13.7Y-5.6
X13.7Y-5.7
X13.7Y-5.8
X13.7Y-5.9
X13.7Y-6.0
X13.8Y-2.1
X13.8Y-2.2
X13.8Y-2.3
X13.8Y-2.4
X13.8Y-2.5
X13.8Y-2.6
X13.8Y-2.7
X13.8Y-2.8
X13.8Y-2.9
X13.8Y-3.0
X13.8Y-3.1
X13.8Y-3.2
X13.8Y-3.3
X13.8Y-3.4
X13.8Y-3.5
X13.8Y-3.6
X13.8Y-3.7
X13.8Y-3.8
X13.8Y-3.9
X13.8Y-4.0
X13.8Y-4.1
X13.8Y-4.2
X13.8Y-4.3
X13.8Y-4.4
X13.8Y-4.5
X13.8Y-4.6
X13.8Y-4.7
X13.8Y-4.8
X13.8Y-4.9
X13.8Y-5.0
X13.8Y-5.1
X13.8Y-5.2
X13.8Y-5.3
X13.8Y-5.4
X13.8Y-5.5
X13.8Y-5.6
X13.8Y-5.7
X13.8Y-5.8
X13.8Y-5.9
X13.8Y-6.0
X13.9Y-2.1
X13.9Y-2.2
X13.9Y-2.3
X13.9Y-2.4
X13.9Y-2.5
X13.9Y-2.6
X13.9Y-2.7
X13.9Y-2.8
X13.9Y-2.9
X13.9Y-3.0
X13.9Y-3.1
X13.9Y-3.2
X13.9Y-3.3
X13.9Y-3.4
X13.9Y-3.5
X13.9Y-3.6
X13.9Y-3.7
X13.9Y-3.8
X13.9Y-3.9
X13.9Y-4.0
X13.9Y-4.1
X13.9Y-4.2
X13.9Y-4.3
X13.9Y-4.4
X13.9Y-4.5
X13.9Y-4.6
X13.9Y-4.7
X13.9Y-4.8
X13.9Y-4.9
X13.9Y-5.0
X13.9Y-5.1
X13.9Y-5.2
X13.9Y-5.3
X13.9Y-5.4
X13.9Y-5.5
X13.9Y-5.6
X13.9Y-5.7
X13.9Y-5.8
X13.9Y-5.9
X13.9Y-6.0
X14.0Y-2.1
X14.0Y-2.2
X14.0Y-2.3
X14.0Y-2.4
X14.0Y-2.5
X14.0Y-2.6
X14.0Y-2.7
X14.0Y-2.8
X14.0Y-2.9
X14.0Y-3.0
X14.0Y-3.1
X14.0Y-3.2
X14.0Y-3.3
X14.0Y-3.4
X14.0Y-3.5
X14.0Y-3.6
X14.0Y-3.7
X14.0Y-3.8
X14.0Y-3.9
X14.0Y-4.0
X14.0Y-4.1
X14.0Y-4.2
X14.0Y-4.3
X14.0Y-4.4
X14.0Y-4.5
X14.0Y-4.6
X14.0Y-4.7
X14.0Y-4.8
X14.0Y-4.9
X14.0Y-5.0
X14.0Y-5.1
X14.0Y-5.2
X14.0Y-5.3
X14.0Y-5.4
X14.0Y-5.5
X14.0Y-5.6
X14.0Y-5.7
X14.0Y-5.8
X14.0Y-5.9
X14.0Y-6.0
X14.1Y-2.1
X14.1Y-2.2
X14.1Y-2.3
X14.1Y-2.4
X14.1Y-2.5
X14.1Y-2.6
X14.1Y-2.7
X14.1Y-2.8
X14.1Y-2.9
X14.1Y-3.0
X14.1Y-3.1
X14.1Y-3.2
X14.1Y-3.3
X14.1Y-3.4
X14.1Y-3.5
X14.1Y-3.6
X14.1Y-3.7
X14.1Y-3.8
X14.1Y-3.9
X14.1Y-4.0
X14.1Y-4.1
X14.1Y-4.2
X14.1Y-4.3
X14.1Y-4.4
X14.1Y-4.5
X14.1Y-4.6
X14.1Y-4.7
X14.1Y-4.8
X14.1Y-4.9
X14.1Y-5.0
X14.1Y-5.1
X14.1Y-5.2
X14.1Y-5.3
X14.1Y-5.4
X14.1Y-5.5
X14.1Y-5.6
X14.1Y-5.7
X14.1Y-5.8
X14.1Y-5.9
X14.1Y-6.0
X14.2Y-2.1
X14.2Y-2.2
X14.2Y-2.3
X14.2Y-2.4
X14.2Y-2.5
X14.2Y-2.6
X14.2Y-2.7
X14.2Y-2.8
X14.2Y-2.9
X14.2Y-3.0
X14.2Y-3.1
X14.2Y-3.2
X14.2Y-3.3
X14.2Y-3.4
X14.2Y-3.5
X14.2Y-3.6
X14.2Y-3.7
X14.2Y-3.8
X14.2Y-3.9
X14.2Y-4.0
X14.2Y-4.1
X14.2Y-4.2
X14.2Y-4.3
X14.2Y-4.4
X14.2Y-4.5
X14.2Y-4.6
X14.2Y-4.7
X14.2Y-4.8
X14.2Y-4.9
X14.2Y-5.0
X14.2Y-5.1
X14.2Y-5.2
X14.2Y-5.3
X14.2Y-5.4
X14.2Y-5.5
X14.2Y-5.6
X14.2Y-5.7
X14.2Y-5.8
X14.2Y-5.9
X14.2Y-6.0
X14.3Y-2.1
X14.3Y-2.2
X14.3Y-2.3
X14.3Y-2.4
X14.3Y-2.5
X14.3Y-2.6
X14.3Y-2.7
X14.3Y-2.8
X14.3Y-2.9
X14.3Y-3.0
X14.3Y-3.1
X14.3Y-3.2
X14.3Y-3.3
X14.3Y-3.4
X14.3Y-3.5
X14.3Y-3.6
X14.3Y-3.7
X14.3Y-3.8
X14.3Y-3.9
X14.3Y-4.0
X14.3Y-4.1
X14.3Y-4.2
X14.3Y-4.3
X14.3Y-4.4
X14.3Y-4.5
X14.3Y-4.6
X14.3Y-4.7
X14.3Y-4.8
X14.3Y-4.9
X14.3Y-5.0
X14.3Y-5.1
X14.3Y-5.2
X14.3Y-5.3
X14.3Y-5.4
X14.3Y-5.5
X14.3Y-5.6
X14.3Y-5.7
X14.3Y-5.8
X14.3Y-5.9
X14.3Y-6.0
X14.4Y-2.1
X14.4Y-2.2
X14.4Y-2.3
X14.4Y-2.4
X14.4Y-2.5
X14.4Y-2.6
X14.4Y-2.7
X14.4Y-2.8
X14.4Y-2.9
X14.4Y-3.0
X14.4Y-3.1
X14.4Y-3.2
X14.4Y-3.3
X14.4Y-3.4
X14.4Y-3.5
X14.4Y-3.6
X14.4Y-3.7
X14.4Y-3.8
X14.4Y-3.9
X14.4Y-4.0
X14.4Y-4.1
X14.4Y-4.2
X14.4Y-4.3
X14.4Y-4.4
X14.4Y-4.5
X14.4Y-4.6
X14.4Y-4.7
X14.4Y-4.8
X14.4Y-4.9
X14.4Y-5.0
X14.4Y-5.1
X14.4Y-5.2
X14.4Y-5.3
X14.4Y-5.4
X14.4Y-5.5
X14.4Y-5.6
X14.4Y-5.7
X14.4Y-5.8
X14.4Y-5.9
X14.4Y-6.0
X14.5Y-2.1
X14.5Y-2.2
X14.5Y-2.3
X14.5Y-2.4
X14.5Y-2.5
X14.5Y-2.6
X14.5Y-2.7
X14.5Y-2.8
X14.5Y-2.9
X14.5Y-3.0
X14.5Y-3.1
X14.5Y-3.2
X14.5Y-3.3
X14.5Y-3.4
X14.5Y-3.5
X14.5Y-3.6
X14.5Y-3.7
X14.5Y-3.8
X14.5Y-3.9
X14.5Y-4.0
X14.5Y-4.1
X14.5Y-4.2
X14.5Y-4.3
X14.5Y-4.4
X14.5Y-4.5
X14.5Y-4.6
X14.5Y-4.7
X14.5Y-4.8
X14.5Y-4.9
X14.5Y-5.0
X14.5Y-5.1
X14.5Y-5.2
X14.5Y-5.3
X14.5Y-5.4
X14.5Y-5.5
X14.5Y-5.6
X14.5Y-5.7
X14.5Y-5.8
X14.5Y-5.9
X14.5Y-6.0
X14.6Y-2.1
X14.6Y-2.2
X14.6Y-2.3
X14.6Y-2.4
X14.6Y-2.5
X14.6Y-2.6
X14.6Y-2.7
X14.6Y-2.8
X14.6Y-2.9
X14.6Y-3.0
X14.6Y-3.1
X14.6Y-3.2
X14.6Y-3.3
X14.6Y-3.4
X14.6Y-3.5
X14.6Y-3.6
X14.6Y-3.7
X14.6Y-3.8
X14.6Y-3.9
X14.6Y-4.0
X14.6Y-4.1
X14.6Y-4.2
X14.6Y-4.3
X14.6Y-4.4
X14.6Y-4.5
X14.6Y-4.6
X14.6Y-4.7
X14.6Y-4.8
X14.6Y-4.9
X14.6Y-5.0
X14.6Y-5.1
X14.6Y-5.2
X14.6Y-5.3
X14.6Y-5.4
X14.6Y-5.5
X14.6Y-5.6
X14.6Y-5.7
X14.6Y-5.8
X14.6Y-5.9
X14.6Y-6.0
X14.7Y-2.1
X14.7Y-2.2
X14.7Y-2.3
X14.7Y-2.4
X14.7Y-2.5
X14.7Y-2.6
X14.7Y-2.7
X14.7Y-2.8
X14.7Y-2.9
X14.7Y-3.0
X14.7Y-3.1
X14.7Y-3.2
X14.7Y-3.3
X14.7Y-3.4
X14.7Y-3.5
X14.7Y-3.6
X14.7Y-3.7
X14.7Y-3.8
X14.7Y-3.9
X14.7Y-4.0
X14.7Y-4.1
X14.7Y-4.2
X14.7Y-4.3
X14.7Y-4.4
X14.7Y-4.5
X14.7Y-4.6
X14.7Y-4.7
X14.7Y-4.8
X14.7Y-4.9
X14.7Y-5.0
X14.7Y-5.1
X14.7Y-5.2
X14.7Y-5.3
X14.7Y-5.4
X14.7Y-5.5
X14.7Y-5.6
X14.7Y-5.7
X14.7Y-5.8
X14.7Y-5.9
X14.7Y-6.0
X14.8Y-2.1
X14.8Y-2.2
X14.8Y-2.3
X14.8Y-2.4
X14.8Y-2.5
X14.8Y-2.6
X14.8Y-2.7
X14.8Y-2.8
X14.8Y-2.9
X14.8Y-3.0
X14.8Y-3.1
X14.8Y-3.2
X14.8Y-3.3
X14.8Y-3.4
X14.8Y-3.5
X14.8Y-3.6
X14.8Y-3.7
X14.8Y-3.8
X14.8Y-3.9
X14.8Y-4.0
X14.8Y-4.1
X14.8Y-4.2
X14.8Y-4.3
X14.8Y-4.4
X14.8Y-4.5
X14.8Y-4.6
X14.8Y-4.7
X14.8Y-4.8
X14.8Y-4.9
X14.8Y-5.0
X14.8Y-5.1
X14.8Y-5.2
X14.8Y-5.3
X14.8Y-5.4
X14.8Y-5.5
X14.8Y-5.6
X14.8Y-5.7
X14.8Y-5.8
X14.8Y-5.9
X14.8Y-6.0
X14.9Y-2.1
X14.9Y-2.2
X14.9Y-2.3
X14.9Y-2.4
X14.9Y-2.5
X14.9Y-2.6
X14.9Y-2.7
X14.9Y-2.8
X14.9Y-2.9
X14.9Y-3.0
X14.9Y-3.1
X14.9Y-3.2
X14.9Y-3.3
X14.9Y-3.4
X14.9Y-3.5
X14.9Y-3.6
X14.9Y-3.7
X14.9Y-3.8
X14.9Y-3.9
X14.9Y-4.0
X14.9Y-4.1
X14.9Y-4.2
X14.9Y-4.3
X14.9Y-4.4
X14.9Y-4.5
X14.9Y-4.6
X14.9Y-4.7
X14.9Y-4.8
X14.9Y-4.9
X14.9Y-5.0
X14.9Y-5.1
X14.9Y-5.2
X14.9Y-5.3
X14.9Y-5.4
X14.9Y-5.5
X14.9Y-5.6
X14.9Y-5.7
X14.9Y-5.8
X14.9Y-5.9
X14.9Y-6.0
X15.0Y-2.1
X15.0Y-2.2
X15.0Y-2.3
X15.0Y-2.4
X15.0Y-2.5
X15.0Y-2.6
X15.0Y-2.7
X15.0Y-2.8
X15.0Y-2.9
X15.0Y-3.0
X15.0Y-3.1
X15.0Y-3.2
X15.0Y-3.3
X15.0Y-3.4
X15.0Y-3.5
X15.0Y-3.6
X15.0Y-3.7
X15.0Y-3.8
X15.0Y-3.9
X15.0Y-4.0
X15.0Y-4.1
X15.0Y-4.2
X15.0Y-4.3
X15.0Y-4.4
X15.0Y-4.5
X15.0Y-4.6
X15.0Y-4.7
X15.0Y-4.8
X15.0Y-4.9
X15.0Y-5.0
X15.0Y-5.1
X15.0Y-5.2
X15.0Y-5.3
X15.0Y-5.4
X15.0Y-5.5
X15.0Y-5.6
X15.0Y-5.7
X15.0Y-5.8
X15.0Y-5.9
X15.0Y-6.0
X15.1Y-2.1
X15.1Y-2.2
X15.1Y-2.3
X15.1Y-2.4
X15.1Y-2.5
X15.1Y-2.6
X15.1Y-2.7
X15.1Y-2.8
X15.1Y-2.9
X15.1Y-3.0
X15.1Y-3.1
X15.1Y-3.2
X15.1Y-3.3
X15.1Y-3.4
X15.1Y-3.5
X15.1Y-3.6
X15.1Y-3.7
X15.1Y-3.8
X15.1Y-3.9
X15.1Y-4.0
X15.1Y-4.1
X15.1Y-4.2
X15.1Y-4.3
X15.1Y-4.4
X15.1Y-4.5
X15.1Y-4.6
X15.1Y-4.7
X15.1Y-4.8
X15.1Y-4.9
X15.1Y-5.0
X15.1Y-5.1
X15.1Y-5.2
X15.1Y-5.3
X15.1Y-5.4
X15.1Y-5.5
X15.1Y-5.6
X15.1Y-5.7
X15.1Y-5.8
X15.1Y-5.9
X15.1Y-6.0
X15.2Y-2.1
X15.2Y-2.2
X15.2Y-2.3
X15.2Y-2.4
X15.2Y-2.5
X15.2Y-2.6
X15.2Y-2.7
X15.2Y-2.8
X15.2Y-2.9
X15.2Y-3.0
X15.2Y-3.1
X15.2Y-3.2
X15.2Y-3.3
X15.2Y-3.4
X15.2Y-3.5
X15.2Y-3.6
X15.2Y-3.7
X15.2Y-3.8
X15.2Y-3.9
X15.2Y-4.0
X15.2Y-4.1
X15.2Y-4.2
X15.2Y-4.3
X15.2Y-4.4
X15.2Y-4.5
X15.2Y-4.6
X15.2Y-4.7
X15.2Y-4.8
X15.2Y-4.9
X15.2Y-5.0
X15.2Y-5.1
X15.2Y-5.2
X15.2Y-5.3
X15.2Y-5.4
X15.2Y-5.5
X15.2Y-5.6
X15.2Y-5.7
X15.2Y-5.8
X15.2Y-5.9
X15.2Y-6.0
X15.3Y-2.1
X15.3Y-2.2
X15.3Y-2.3
X15.3Y-2.4
X15.3Y-2.5
X15.3Y-2.6
X15.3Y-2.7
X15.3Y-2.8
X15.3Y-2.9
X15.3Y-3.0
X15.3Y-3.1
X15.3Y-3.2
X15.3Y-3.3
X15.3Y-3.4
X15.3Y-3.5
X15.3Y-3.6
X15.3Y-3.7
X15.3Y-3.8
X15.3Y-3.9
X15.3Y-4.0
X15.3Y-4.1
X15.3Y-4.2
X15.3Y-4.3
X15.3Y-4.4
X15.3Y-4.5
X15.3Y-4.6
X15.3Y-4.7
X15.3Y-4.8
X15.3Y-4.9
X15.3Y-5.0
X15.3Y-5.1
X15.3Y-5.2
X15.3Y-5.3
X15.3Y-5.4
X15.3Y-5.5
X15.3Y-5.6
X15.3Y-5.7
X15.3Y-5.8
X15.3Y-5.9
X15.3Y-6.0
X15.4Y-2.1
X15.4Y-2.2
X15.4Y-2.3
X15.4Y-2.4
X15.4Y-2.5
X15.4Y-2.6
X15.4Y-2.7
X15.4Y-2.8
X15.4Y-2.9
X15.4Y-3.0
X15.4Y-3.1
X15.4Y-3.2
X15.4Y-3.3
X15.4Y-3.4
X15.4Y-3.5
X15.4Y-3.6
X15.4Y-3.7
X15.4Y-3.8
X15.4Y-3.9
X15.4Y-4.0
X15.4Y-4.1
X15.4Y-4.2
X15.4Y-4.3
X15.4Y-4.4
X15.4Y-4.5
X15.4Y-4.6
X15.4Y-4.7
X15.4Y-4.8
X15.4Y-4.9
X15.4Y-5.0
X15.4Y-5.1
X15.4Y-5.2
X15.4Y-5.3
X15.4Y-5.4
X15.4Y-5.5
X15.4Y-5.6
X15.4Y-5.7
X15.4Y-5.8
X15.4Y-5.9
X15.4Y-6.0
X15.5Y-2.1
X15.5Y-2.2
X15.5Y-2.3
X15.5Y-2.4
X15.5Y-2.5
X15.5Y-2.6
X15.5Y-2.7
X15.5Y-2.8
X15.5Y-2.9
X15.5Y-3.0
X15.5Y-3.1
X15.5Y-3.2
X15.5Y-3.3
X15.5Y-3.4
X15.5Y-3.5
X15.5Y-3.6
X15.5Y-3.7
X15.5Y-3.8
X15.5Y-3.9
X15.5Y-4.0
X15.5Y-4.1
X15.5Y-4.2
X15.5Y-4.3
X15.5Y-4.4
X15.5Y-4.5
X15.5Y-4.6
X15.5Y-4.7
X15.5Y-4.8
X15.5Y-4.9
X15.5Y-5.0
X15.5Y-5.1
X15.5Y-5.2
X15.5Y-5.3
X15.5Y-5.4
X15.5Y-5.5
X15.5Y-5.6
X15.5Y-5.7
X15.5Y-5.8
X15.5Y-5.9
X15.5Y-6.0
X15.6Y-2.1
X15.6Y-2.2
X15.6Y-2.3
X15.6Y-2.4
X15.6Y-2.5
X15.6Y-2.6
X15.6Y-2.7
X15.6Y-2.8
X15.6Y-2.9
X15.6Y-3.0
X15.6Y-3.1
X15.6Y-3.2
X15.6Y-3.3
X15.6Y-3.4
X15.6Y-3.5
X15.6Y-3.6
X15.6Y-3.7
X15.6Y-3.8
X15.6Y-3.9
X15.6Y-4.0
X15.6Y-4.1
X15.6Y-4.2
X15.6Y-4.3
X15.6Y-4.4
X15.6Y-4.5
X15.6Y-4.6
X15.6Y-4.7
X15.6Y-4.8
X15.6Y-4.9
X15.6Y-5.0
X15.6Y-5.1
X15.6Y-5.2
X15.6Y-5.3
X15.6Y-5.4
X15.6Y-5.5
X15.6Y-5.6
X15.6Y-5.7
X15.6Y-5.8
X15.6Y-5.9
X15.6Y-6.0
X15.7Y-2.1
X15.7Y-2.2
X15.7Y-2.3
X15.7Y-2.4
X15.7Y-2.5
X15.7Y-2.6
X15.7Y-2.7
X15.7Y-2.8
X15.7Y-2.9
X15.7Y-3.0
X15.7Y-3.1
X15.7Y-3.2
X15.7Y-3.3
X15.7Y-3.4
X15.7Y-3.5
X15.7Y-3.6
X15.7Y-3.7
X15.7Y-3.8
X15.7Y-3.9
X15.7Y-4.0
X15.7Y-4.1
X15.7Y-4.2
X15.7Y-4.3
X15.7Y-4.4
X15.7Y-4.5
X15.7Y-4.6
X15.7Y-4.7
X15.7Y-4.8
X15.7Y-4.9
X15.7Y-5.0
X15.7Y-5.1
X15.7Y-5.2
X15.7Y-5.3
X15.7Y-5.4
X15.7Y-5.5
X15.7Y-5.6
X15.7Y-5.7
X15.7Y-5.8
X15.7Y-5.9
X15.7Y-6.0
X15.8Y-2.1
X15.8Y-2.2
X15.8Y-2.3
X15.8Y-2.4
X15.8Y-2.5
X15.8Y-2.6
X15.8Y-2.7
X15.8Y-2.8
X15.8Y-2.9
X15.8Y-3.0
X15.8Y-3.1
X15.8Y-3.2
X15.8Y-3.3
X15.8Y-3.4
X15.8Y-3.5
X15.8Y-3.6
X15.8Y-3.7
X15.8Y-3.8
X15.8Y-3.9
X15.8Y-4.0
X15.8Y-4.1
X15.8Y-4.2
X15.8Y-4.3
X15.8Y-4.4
X15.8Y-4.5
X15.8Y-4.6
X15.8Y-4.7
X15.8Y-4.8
X15.8Y-4.9
X15.8Y-5.0
X15.8Y-5.1
X15.8Y-5.2
X15.8Y-5.3
X15.8Y-5.4
X15.8Y-5.5
X15.8Y-5.6
X15.8Y-5.7
X15.8Y-5.8
X15.8Y-5.9
X15.8Y-6.0
X15.9Y-2.1
X15.9Y-2.2
X15.9Y-2.3
X15.9Y-2.4
X15.9Y-2.5
X15.9Y-2.6
X15.9Y-2.7
X15.9Y-2.8
X15.9Y-2.9
X15.9Y-3.0
X15.9Y-3.1
X15.9Y-3.2
X15.9Y-3.3
X15.9Y-3.4
X15.9Y-3.5
X15.9Y-3.6
X15.9Y-3.7
X15.9Y-3.8
X15.9Y-3.9
X15.9Y-4.0
X15.9Y-4.1
X15.9Y-4.2
X15.9Y-4.3
X15.9Y-4.4
X15.9Y-4.5
X15.9Y-4.6
X15.9Y-4.7
X15.9Y-4.8
X15.9Y-4.9
X15.9Y-5.0
X15.9Y-5.1
X15.9Y-5.2
X15.9Y-5.3
X15.9Y-5.4
X15.9Y-5.5
X15.9Y-5.6
X15.9Y-5.7
X15.9Y-5.8
X15.9Y-5.9
X15.9Y-6.0
X16.0Y-2.1
X16.0Y-2.2
X16.0Y-2.3
X16.0Y-2.4
X16.0Y-2.5
X16.0Y-2.6
X16.0Y-2.7
X16.0Y-2.8
X16.0Y-2.9
X16.0Y-3.0
X16.0Y-3.1
X16.0Y-3.2
X16.0Y-3.3
X16.0Y-3.4
X16.0Y-3.5
X16.0Y-3.6
X16.0Y-3.7
X16.0Y-3.8
X16.0Y-3.9
X16.0Y-4.0
X16.0Y-4.1
X16.0Y-4.2
X16.0Y-4.3
X16.0Y-4.4
X16.0Y-4.5
X16.0Y-4.6
X16.0Y-4.7
X16.0Y-4.8
X16.0Y-4.9
X16.0Y-5.0
X16.0Y-5.1
X16.0Y-5.2
X16.0Y-5.3
X16.0Y-5.4
X16.0Y-5.5
X16.0Y-5.6
X16.0Y-5.7
X16.0Y-5.8
X16.0Y-5.9
X16.0Y-6.0
X16.1Y-2.1
X16.1Y-2.2
X16.1Y-2.3
X16.1Y-2.4
X16.1Y-2.5
X16.1Y-2.6
X16.1Y-2.7
X16.1Y-2.8
X16.1Y-2.9
X16.1Y-3.0
X16.1Y-3.1
X16.1Y-3.2
X16.1Y-3.3
X16.1Y-3.4
X16.1Y-3.5
X16.1Y-3.6
X16.1Y-3.7
X16.1Y-3.8
X16.1Y-3.9
X16.1Y-4.0
X16.1Y-4.1
X16.1Y-4.2
X16.1Y-4.3
X16.1Y-4.4
X16.1Y-4.5
X16.1Y-4.6
X16.1Y-4.7
X16.1Y-4.8
X16.1Y-4.9
X16.1Y-5.0
X16.1Y-5.1
X16.1Y-5.2
X16.1Y-5.3
X16.1Y-5.4
X16.1Y-5.5
X16.1Y-5.6
X16.1Y-5.7
X16.1Y-5.8
X16.1Y-5.9
X16.1Y-6.0
X16.2Y-2.1
X16.2Y-2.2
X16.2Y-2.3
X16.2Y-2.4
X16.2Y-2.5
X16.2Y-2.6
X16.2Y-2.7
X16.2Y-2.8
X16.2Y-2.9
X16.2Y-3.0
X16.2Y-3.1
X16.2Y-3.2
X16.2Y-3.3
X16.2Y-3.4
X16.2Y-3.5
X16.2Y-3.6
X16.2Y-3.7
X16.2Y-3.8
X16.2Y-3.9
X16.2Y-4.0
X16.2Y-4.1
X16.2Y-4.2
X16.2Y-4.3
X16.2Y-4.4
X16.2Y-4.5
X16.2Y-4.6
X16.2Y-4.7
X16.2Y-4.8
X16.2Y-4.9
X16.2Y-5.0
X16.2Y-5.1
X16.2Y-5.2
X16.2Y-5.3
X16.2Y-5.4
X16.2Y-5.5
X16.2Y-5.6
X16.2Y-5.7
X16.2Y-5.8
X16.2Y-5.9
X16.2Y-6.0
X16.3Y-2.1
X16.3Y-2.2
X16.3Y-2.3
X16.3Y-2.4
X16.3Y-2.5
X16.3Y-2.6
X16.3Y-2.7
X16.3Y-2.8
X16.3Y-2.9
X16.3Y-3.0
X16.3Y-3.1
X16.3Y-3.2
X16.3Y-3.3
X16.3Y-3.4
X16.3Y-3.5
X16.3Y-3.6
X16.3Y-3.7
X16.3Y-3.8
X16.3Y-3.9
X16.3Y-4.0
X16.3Y-4.1
X16.3Y-4.2
X16.3Y-4.3
X16.3Y-4.4
X16.3Y-4.5
X16.3Y-4.6
X16.3Y-4.7
X16.3Y-4.8
X16.3Y-4.9
X16.3Y-5.0
X16.3Y-5.1
X16.3Y-5.2
X16.3Y-5.3
X16.3Y-5.4
X16.3Y-5.5
X16.3Y-5.6
X16.3Y-5.7
X16.3Y-5.8
X16.3Y-5.9
X16.3Y-6.0
X16.4Y-2.1
X16.4Y-2.2
X16.4Y-2.3
X16.4Y-2.4
X16.4Y-2.5
X16.4Y-2.6
X16.4Y-2.7
X16.4Y-2.8
X16.4Y-2.9
X16.4Y-3.0
X16.4Y-3.1
X16.4Y-3.2
X16.4Y-3.3
X16.4Y-3.4
X16.4Y-3.5
X16.4Y-3.6
X16.4Y-3.7
X16.4Y-3.8
X16.4Y-3.9
X16.4Y-4.0
X16.4Y-4.1
X16.4Y-4.2
X16.4Y-4.3
X16.4Y-4.4
X16.4Y-4.5
X16.4Y-4.6
X16.4Y-4.7
X16.4Y-4.8
X16.4Y-4.9
X16.4Y-5.0
X16.4Y-5.1
X16.4Y-5.2
X16.4Y-5.3
X16.4Y-5.4
X16.4Y-5.5
X16.4Y-5.6
X16.4Y-5.7
X16.4Y-5.8
X16.4Y-5.9
X16.4Y-6.0
X16.5Y-2.1
X16.5Y-2.2
X16.5Y-2.3
X16.5Y-2.4
X16.5Y-2.5
X16.5Y-2.6
X16.5Y-2.7
X16.5Y-2.8
X16.5Y-2.9
X16.5Y-3.0
X16.5Y-3.1
X16.5Y-3.2
X16.5Y-3.3
X16.5Y-3.4
X16.5Y-3.5
X16.5Y-3.6
X16.5Y-3.7
X16.5Y-3.8
X16.5Y-3.9
X16.5Y-4.0
X16.5Y-4.1
X16.5Y-4.2
X16.5Y-4.3
X16.5Y-4.4
X16.5Y-4.5
X16.5Y-4.6
X16.5Y-4.7
X16.5Y-4.8
X16.5Y-4.9
X16.5Y-5.0
X16.5Y-5.1
X16.5Y-5.2
X16.5Y-5.3
X16.5Y-5.4
X16.5Y-5.5
X16.5Y-5.6
X16.5Y-5.7
X16.5Y-5.8
X16.5Y-5.9
X16.5Y-6.0
X16.6Y-2.1
X16.6Y-2.2
X16.6Y-2.3
X16.6Y-2.4
X16.6Y-2.5
X16.6Y-2.6
X16.6Y-2.7
X16.6Y-2.8
X16.6Y-2.9
X16.6Y-3.0
X16.6Y-3.1
X16.6Y-3.2
X16.6Y-3.3
X16.6Y-3.4
X16.6Y-3.5
X16.6Y-3.6
X16.6Y-3.7
X16.6Y-3.8
X16.6Y-3.9
X16.6Y-4.0
X16.6Y-4.1
X16.6Y-4.2
X16.6Y-4.3
X16.6Y-4.4
X16.6Y-4.5
X16.6Y-4.6
X16.6Y-4.7
X16.6Y-4.8
X16.6Y-4.9
X16.6Y-5.0
X16.6Y-5.1
X16.6Y-5.2
X16.6Y-5.3
X16.6Y-5.4
X16.6Y-5.5
X16.6Y-5.6
X16.6Y-5.7
X16.6Y-5.8
X16.6Y-5.9
X16.6Y-6.0
X16.7Y-2.1
X16.7Y-2.2
X16.7Y-2.3
X16.7Y-2.4
X16.7Y-2.5
X16.7Y-2.6
X16.7Y-2.7
X16.7Y-2.8
X16.7Y-2.9
X16.7Y-3.0
X16.7Y-3.1
X16.7Y-3.2
X16.7Y-3.3
X16.7Y-3.4
X16.7Y-3.5
X16.7Y-3.6
X16.7Y-3.7
X16.7Y-3.8
X16.7Y-3.9
X16.7Y-4.0
X16.7Y-4.1
X16.7Y-4.2
X16.7Y-4.3
X16.7Y-4.4
X16.7Y-4.5
X16.7Y-4.6
X16.7Y-4.7
X16.7Y-4.8
X16.7Y-4.9
X16.7Y-5.0
X16.7Y-5.1
X16.7Y-5.2
X16.7Y-5.3
X16.7Y-5.4
X16.7Y-5.5
X16.7Y-5.6
X16.7Y-5.7
X16.7Y-5.8
X16.7Y-5.9
X16.7Y-6.0
X16.8Y-2.1
X16.8Y-2.2
X16.8Y-2.3
X16.8Y-2.4
X16.8Y-2.5
X16.8Y-2.6
X16.8Y-2.7
X16.8Y-2.8
X16.8Y-2.9
X16.8Y-3.0
X16.8Y-3.1
X16.8Y-3.2
X16.8Y-3.3
X16.8Y-3.4
X16.8Y-3.5
X16.8Y-3.6
X16.8Y-3.7
X16.8Y-3.8
X16.8Y-3.9
X16.8Y-4.0
X16.8Y-4.1
X16.8Y-4.2
X16.8Y-4.3
X16.8Y-4.4
X16.8Y-4.5
X16.8Y-4.6
X16.8Y-4.7
X16.8Y-4.8
X16.8Y-4.9
X16.8Y-5.0
X16.8Y-5.1
X16.8Y-5.2
X16.8Y-5.3
X16.8Y-5.4
X16.8Y-5.5
X16.8Y-5.6
X16.8Y-5.7
X16.8Y-5.8
X16.8Y-5.9
X16.8Y-6.0
X16.9Y-2.1
X16.9Y-2.2
X16.9Y-2.3
X16.9Y-2.4
X16.9Y-2.5
X16.9Y-2.6
X16.9Y-2.7
X16.9Y-2.8
X16.9Y-2.9
X16.9Y-3.0
X16.9Y-3.1
X16.9Y-3.2
X16.9Y-3.3
X16.9Y-3.4
X16.9Y-3.5
X16.9Y-3.6
X16.9Y-3.7
X16.9Y-3.8
X16.9Y-3.9
X16.9Y-4.0
X16.9Y-4.1
X16.9Y-4.2
X16.9Y-4.3
X16.9Y-4.4
X16.9Y-4.5
X16.9Y-4.6
X16.9Y-4.7
X16.9Y-4.8
X16.9Y-4.9
X16.9Y-5.0
X16.9Y-5.1
X16.9Y-5.2
X16.9Y-5.3
X16.9Y-5.4
X16.9Y-5.5
X16.9Y-5.6
X16.9Y-5.7
X16.9Y-5.8
X16.9Y-5.9
X16.9Y-6.0
X17.0Y-2.1
X17.0Y-2.2
X17.0Y-2.3
X17.0Y-2.4
X17.0Y-2.5
X17.0Y-2.6
X17.0Y-2.7
X17.0Y-2.8
X17.0Y-2.9
X17.0Y-3.0
X17.0Y-3.1
X17.0Y-3.2
X17.0Y-3.3
X17.0Y-3.4
X17.0Y-3.5
X17.0Y-3.6
X17.0Y-3.7
X17.0Y-3.8
X17.0Y-3.9
X17.0Y-4.0
X17.0Y-4.1
X17.0Y-4.2
X17.0Y-4.3
X17.0Y-4.4
X17.0Y-4.5
X17.0Y-4.6
X17.0Y-4.7
X17.0Y-4.8
X17.0Y-4.9
X17.0Y-5.0
X17.0Y-5.1
X17.0Y-5.2
X17.0Y-5.3
X17.0Y-5.4
X17.0Y-5.5
X17.0Y-5.6
X17.0Y-5.7
X17.0Y-5.8
X17.0Y-5.9
X17.0Y-6.0
T0
M30
