%TF.GenerationSoftware,KiCad,Pcbnew,7.0.5*%
%TF.CreationDate,2025-04-03T03:30:23-04:00*%
%TF.ProjectId,fuck_it_stepper_2,6675636b-5f69-4745-9f73-746570706572,rev?*%
%TF.SameCoordinates,Original*%
%TF.FileFunction,Copper,L2,Bot*%
%TF.FilePolarity,Positive*%
%FSLAX46Y46*%
G04 Gerber Fmt 4.6, Leading zero omitted, Abs format (unit mm)*
G04 Created by KiCad (PCBNEW 7.0.5) date 2025-04-03 03:30:23*
%MOMM*%
%LPD*%
G01*
G04 APERTURE LIST*
%TA.AperFunction,ComponentPad*%
%ADD10R,1.700000X1.700000*%
%TD*%
%TA.AperFunction,ComponentPad*%
%ADD11O,1.700000X1.700000*%
%TD*%
%TA.AperFunction,ViaPad*%
%ADD12C,0.800000*%
%TD*%
%TA.AperFunction,ViaPad*%
%ADD13C,6.000000*%
%TD*%
G04 APERTURE END LIST*
D10*
%TO.P,J2,1,Pin_1*%
%TO.N,/H-bridge/input_i_sns_1*%
X190443000Y-56144000D03*
D11*
%TO.P,J2,2,Pin_2*%
%TO.N,/H-bridge/inject_OC_thresh_1*%
X190443000Y-58684000D03*
%TO.P,J2,3,Pin_3*%
%TO.N,/H-bridge/enable_n_1_cmos*%
X190443000Y-61224000D03*
%TO.P,J2,4,Pin_4*%
%TO.N,/H-bridge/v_sns_1*%
X190443000Y-63764000D03*
%TD*%
D10*
%TO.P,J1,1,Pin_1*%
%TO.N,/H-bridge/input_i_sns_0*%
X190443000Y-30744000D03*
D11*
%TO.P,J1,2,Pin_2*%
%TO.N,/H-bridge/inject_OC_thresh_0*%
X190443000Y-33284000D03*
%TO.P,J1,3,Pin_3*%
%TO.N,/H-bridge/enable_n_0_cmos*%
X190443000Y-35824000D03*
%TO.P,J1,4,Pin_4*%
%TO.N,/H-bridge/v_sns_0*%
X190443000Y-38364000D03*
%TD*%
D12*
%TO.N,GND*%
X177038000Y-64516000D03*
X176022000Y-64516000D03*
X175006000Y-64516000D03*
X177292000Y-39116000D03*
X176276000Y-39116000D03*
X175260000Y-39116000D03*
X155956000Y-71374000D03*
X157988000Y-71374000D03*
X156972000Y-71374000D03*
X158750000Y-70358000D03*
X158750000Y-68326000D03*
X158750000Y-69342000D03*
X155956000Y-45974000D03*
X157988000Y-45974000D03*
X156972000Y-45974000D03*
X159258000Y-44958000D03*
X159258000Y-43942000D03*
X159258000Y-42926000D03*
X162306000Y-38608000D03*
X162306000Y-64008000D03*
X175260000Y-68580000D03*
X175006000Y-43180000D03*
X175006000Y-33020000D03*
X175006000Y-57912000D03*
D13*
X193040000Y-43180000D03*
%TO.N,/H-bridge/5v_1*%
X40640000Y-68580000D03*
%TO.N,+12V*%
X193040000Y-50800000D03*
%TO.N,GND*%
X40640000Y-50800000D03*
X40640000Y-25400000D03*
%TO.N,/H-bridge/5v_0*%
X40640000Y-43180000D03*
%TO.N,+12V*%
X193040000Y-25400000D03*
%TO.N,GND*%
X193040001Y-68580000D03*
%TD*%
%TA.AperFunction,Conductor*%
%TO.N,GND*%
G36*
X195581736Y-20320598D02*
G01*
X195616351Y-20322541D01*
X195695549Y-20326989D01*
X195867691Y-20337401D01*
X195874299Y-20338161D01*
X196010416Y-20361288D01*
X196159232Y-20388561D01*
X196165198Y-20389963D01*
X196301426Y-20429209D01*
X196302624Y-20429569D01*
X196442830Y-20473259D01*
X196448092Y-20475164D01*
X196580617Y-20530058D01*
X196582227Y-20530754D01*
X196714609Y-20590334D01*
X196719147Y-20592605D01*
X196845385Y-20662374D01*
X196847451Y-20663568D01*
X196891408Y-20690141D01*
X196970934Y-20738217D01*
X196974738Y-20740711D01*
X197092726Y-20824427D01*
X197095072Y-20826176D01*
X197190416Y-20900874D01*
X197208332Y-20914910D01*
X197211409Y-20917486D01*
X197319430Y-21014018D01*
X197321957Y-21016408D01*
X197423590Y-21118041D01*
X197425980Y-21120568D01*
X197522512Y-21228589D01*
X197525088Y-21231666D01*
X197613811Y-21344912D01*
X197615571Y-21347272D01*
X197699287Y-21465260D01*
X197701781Y-21469064D01*
X197776419Y-21592528D01*
X197777624Y-21594613D01*
X197847393Y-21720851D01*
X197849668Y-21725398D01*
X197909216Y-21857707D01*
X197909959Y-21859426D01*
X197964831Y-21991899D01*
X197966744Y-21997183D01*
X198010413Y-22137322D01*
X198010798Y-22138604D01*
X198050032Y-22274789D01*
X198051440Y-22280780D01*
X198078722Y-22429655D01*
X198101835Y-22565683D01*
X198102599Y-22572330D01*
X198113013Y-22744508D01*
X198119402Y-22858263D01*
X198119500Y-22861740D01*
X198119500Y-71118259D01*
X198119402Y-71121736D01*
X198113013Y-71235490D01*
X198102599Y-71407668D01*
X198101835Y-71414315D01*
X198078722Y-71550343D01*
X198051440Y-71699218D01*
X198050032Y-71705209D01*
X198010798Y-71841394D01*
X198010413Y-71842676D01*
X197966744Y-71982815D01*
X197964831Y-71988099D01*
X197909959Y-72120572D01*
X197909216Y-72122291D01*
X197849668Y-72254600D01*
X197847393Y-72259147D01*
X197777624Y-72385385D01*
X197776419Y-72387470D01*
X197701781Y-72510934D01*
X197699287Y-72514738D01*
X197615571Y-72632726D01*
X197613811Y-72635086D01*
X197525088Y-72748332D01*
X197522512Y-72751409D01*
X197425980Y-72859430D01*
X197423590Y-72861957D01*
X197321957Y-72963590D01*
X197319430Y-72965980D01*
X197211409Y-73062512D01*
X197208332Y-73065088D01*
X197095086Y-73153811D01*
X197092726Y-73155571D01*
X196974738Y-73239287D01*
X196970934Y-73241781D01*
X196847470Y-73316419D01*
X196845385Y-73317624D01*
X196719147Y-73387393D01*
X196714600Y-73389668D01*
X196582291Y-73449216D01*
X196580572Y-73449959D01*
X196448099Y-73504831D01*
X196442815Y-73506744D01*
X196302676Y-73550413D01*
X196301394Y-73550798D01*
X196165209Y-73590032D01*
X196159218Y-73591440D01*
X196010343Y-73618722D01*
X195874315Y-73641835D01*
X195867668Y-73642599D01*
X195695490Y-73653013D01*
X195581736Y-73659402D01*
X195578259Y-73659500D01*
X38101741Y-73659500D01*
X38098264Y-73659402D01*
X37984508Y-73653013D01*
X37812330Y-73642599D01*
X37805683Y-73641835D01*
X37669655Y-73618722D01*
X37520780Y-73591440D01*
X37514789Y-73590032D01*
X37378604Y-73550798D01*
X37377322Y-73550413D01*
X37237183Y-73506744D01*
X37231899Y-73504831D01*
X37099426Y-73449959D01*
X37097707Y-73449216D01*
X36965398Y-73389668D01*
X36960851Y-73387393D01*
X36834613Y-73317624D01*
X36832528Y-73316419D01*
X36709064Y-73241781D01*
X36705260Y-73239287D01*
X36587272Y-73155571D01*
X36584912Y-73153811D01*
X36471666Y-73065088D01*
X36468589Y-73062512D01*
X36360568Y-72965980D01*
X36358041Y-72963590D01*
X36256408Y-72861957D01*
X36254018Y-72859430D01*
X36157486Y-72751409D01*
X36154910Y-72748332D01*
X36140874Y-72730416D01*
X36066176Y-72635072D01*
X36064427Y-72632726D01*
X35980711Y-72514738D01*
X35978217Y-72510934D01*
X35903579Y-72387470D01*
X35902374Y-72385385D01*
X35832605Y-72259147D01*
X35830330Y-72254600D01*
X35770754Y-72122227D01*
X35770058Y-72120617D01*
X35715164Y-71988092D01*
X35713259Y-71982830D01*
X35669569Y-71842624D01*
X35669200Y-71841394D01*
X35664307Y-71824409D01*
X35629963Y-71705198D01*
X35628561Y-71699232D01*
X35601288Y-71550416D01*
X35578161Y-71414299D01*
X35577401Y-71407691D01*
X35566986Y-71235490D01*
X35562686Y-71158927D01*
X35560598Y-71121735D01*
X35560500Y-71118259D01*
X35560500Y-68580000D01*
X36884680Y-68580000D01*
X36903946Y-68959918D01*
X36961551Y-69335935D01*
X37056904Y-69704212D01*
X37189016Y-70060925D01*
X37189022Y-70060940D01*
X37356548Y-70402463D01*
X37356553Y-70402472D01*
X37557771Y-70725295D01*
X37790620Y-71026112D01*
X38052709Y-71301829D01*
X38341343Y-71549614D01*
X38411476Y-71598428D01*
X38653571Y-71766931D01*
X38986179Y-71951543D01*
X39335758Y-72101559D01*
X39335761Y-72101560D01*
X39335766Y-72101562D01*
X39698709Y-72215436D01*
X39698712Y-72215436D01*
X39698720Y-72215439D01*
X40071340Y-72292015D01*
X40374104Y-72322803D01*
X40449795Y-72330500D01*
X40449796Y-72330500D01*
X40830205Y-72330500D01*
X40893279Y-72324085D01*
X41208660Y-72292015D01*
X41581280Y-72215439D01*
X41581290Y-72215436D01*
X41944233Y-72101562D01*
X41944234Y-72101561D01*
X41944242Y-72101559D01*
X42293821Y-71951543D01*
X42626429Y-71766931D01*
X42938654Y-71549616D01*
X43227291Y-71301829D01*
X43489380Y-71026112D01*
X43722229Y-70725295D01*
X43923451Y-70402464D01*
X44090981Y-70060932D01*
X44223098Y-69704204D01*
X44318448Y-69335940D01*
X44376053Y-68959919D01*
X44395320Y-68580000D01*
X44376053Y-68200081D01*
X44318448Y-67824060D01*
X44223098Y-67455796D01*
X44090981Y-67099068D01*
X43923451Y-66757536D01*
X43923446Y-66757527D01*
X43722228Y-66434704D01*
X43489384Y-66133893D01*
X43489383Y-66133892D01*
X43489380Y-66133888D01*
X43227291Y-65858171D01*
X43227290Y-65858170D01*
X42938656Y-65610385D01*
X42626429Y-65393069D01*
X42626424Y-65393066D01*
X42293820Y-65208456D01*
X41944233Y-65058437D01*
X41581290Y-64944563D01*
X41581284Y-64944562D01*
X41581281Y-64944561D01*
X41581280Y-64944561D01*
X41208660Y-64867985D01*
X41208659Y-64867984D01*
X41208655Y-64867984D01*
X40830205Y-64829500D01*
X40830204Y-64829500D01*
X40449796Y-64829500D01*
X40449795Y-64829500D01*
X40071344Y-64867984D01*
X39698715Y-64944562D01*
X39698709Y-64944563D01*
X39335766Y-65058437D01*
X38986179Y-65208456D01*
X38653575Y-65393066D01*
X38653570Y-65393069D01*
X38341343Y-65610385D01*
X38052709Y-65858170D01*
X37790615Y-66133893D01*
X37557771Y-66434704D01*
X37356553Y-66757527D01*
X37356548Y-66757536D01*
X37189022Y-67099059D01*
X37189016Y-67099074D01*
X37056904Y-67455787D01*
X36961551Y-67824064D01*
X36903946Y-68200081D01*
X36884680Y-68580000D01*
X35560500Y-68580000D01*
X35560500Y-63764000D01*
X188837551Y-63764000D01*
X188857317Y-64015151D01*
X188916126Y-64260110D01*
X189012533Y-64492859D01*
X189144160Y-64707653D01*
X189144161Y-64707656D01*
X189144164Y-64707659D01*
X189307776Y-64899224D01*
X189456066Y-65025875D01*
X189499343Y-65062838D01*
X189499346Y-65062839D01*
X189714140Y-65194466D01*
X189747918Y-65208457D01*
X189946889Y-65290873D01*
X190191852Y-65349683D01*
X190443000Y-65369449D01*
X190694148Y-65349683D01*
X190939111Y-65290873D01*
X191171859Y-65194466D01*
X191386659Y-65062836D01*
X191578224Y-64899224D01*
X191741836Y-64707659D01*
X191873466Y-64492859D01*
X191969873Y-64260111D01*
X192028683Y-64015148D01*
X192048449Y-63764000D01*
X192028683Y-63512852D01*
X191969873Y-63267889D01*
X191873466Y-63035141D01*
X191873466Y-63035140D01*
X191741839Y-62820346D01*
X191741838Y-62820343D01*
X191578224Y-62628776D01*
X191530819Y-62588289D01*
X191492627Y-62529784D01*
X191492128Y-62459916D01*
X191529482Y-62400870D01*
X191530756Y-62399764D01*
X191578224Y-62359224D01*
X191741836Y-62167659D01*
X191873466Y-61952859D01*
X191969873Y-61720111D01*
X192028683Y-61475148D01*
X192048449Y-61224000D01*
X192028683Y-60972852D01*
X191969873Y-60727889D01*
X191873466Y-60495141D01*
X191873466Y-60495140D01*
X191741839Y-60280346D01*
X191741838Y-60280343D01*
X191704875Y-60237066D01*
X191578224Y-60088776D01*
X191530820Y-60048289D01*
X191492627Y-59989782D01*
X191492129Y-59919914D01*
X191529483Y-59860868D01*
X191530669Y-59859839D01*
X191578224Y-59819224D01*
X191741836Y-59627659D01*
X191873466Y-59412859D01*
X191969873Y-59180111D01*
X192028683Y-58935148D01*
X192048449Y-58684000D01*
X192028683Y-58432852D01*
X191969873Y-58187889D01*
X191873466Y-57955141D01*
X191873466Y-57955140D01*
X191742070Y-57740722D01*
X191723825Y-57673276D01*
X191744941Y-57606674D01*
X191760116Y-57588250D01*
X191761650Y-57586715D01*
X191761656Y-57586712D01*
X191885712Y-57462656D01*
X191977814Y-57313334D01*
X192032999Y-57146797D01*
X192043500Y-57044009D01*
X192043499Y-55243992D01*
X192032999Y-55141203D01*
X191977814Y-54974666D01*
X191885712Y-54825344D01*
X191761656Y-54701288D01*
X191612334Y-54609186D01*
X191445797Y-54554001D01*
X191445795Y-54554000D01*
X191343010Y-54543500D01*
X189542998Y-54543500D01*
X189542981Y-54543501D01*
X189440203Y-54554000D01*
X189440200Y-54554001D01*
X189273668Y-54609185D01*
X189273663Y-54609187D01*
X189124342Y-54701289D01*
X189000289Y-54825342D01*
X188908187Y-54974663D01*
X188908185Y-54974666D01*
X188908186Y-54974666D01*
X188853001Y-55141203D01*
X188853001Y-55141204D01*
X188853000Y-55141204D01*
X188842500Y-55243983D01*
X188842500Y-57044001D01*
X188842501Y-57044018D01*
X188853000Y-57146796D01*
X188853001Y-57146799D01*
X188908185Y-57313331D01*
X188908187Y-57313336D01*
X189000289Y-57462657D01*
X189125883Y-57588251D01*
X189159368Y-57649574D01*
X189154384Y-57719266D01*
X189143930Y-57740722D01*
X189012531Y-57955145D01*
X188916126Y-58187889D01*
X188857317Y-58432848D01*
X188837551Y-58683999D01*
X188857317Y-58935151D01*
X188916126Y-59180110D01*
X189012533Y-59412859D01*
X189144160Y-59627653D01*
X189144161Y-59627656D01*
X189144164Y-59627659D01*
X189307776Y-59819224D01*
X189355179Y-59859710D01*
X189393371Y-59918215D01*
X189393871Y-59988083D01*
X189356517Y-60047129D01*
X189355180Y-60048288D01*
X189307777Y-60088775D01*
X189144161Y-60280343D01*
X189144160Y-60280346D01*
X189012533Y-60495140D01*
X188916126Y-60727889D01*
X188857317Y-60972848D01*
X188837551Y-61223999D01*
X188857317Y-61475151D01*
X188916126Y-61720110D01*
X189012533Y-61952859D01*
X189144160Y-62167653D01*
X189144161Y-62167656D01*
X189144164Y-62167659D01*
X189307776Y-62359224D01*
X189355178Y-62399709D01*
X189355179Y-62399710D01*
X189393372Y-62458217D01*
X189393870Y-62528085D01*
X189356516Y-62587131D01*
X189355179Y-62588290D01*
X189307776Y-62628776D01*
X189144161Y-62820343D01*
X189144160Y-62820346D01*
X189012533Y-63035140D01*
X188916126Y-63267889D01*
X188857317Y-63512848D01*
X188837551Y-63764000D01*
X35560500Y-63764000D01*
X35560500Y-50800000D01*
X189284680Y-50800000D01*
X189303946Y-51179918D01*
X189361551Y-51555935D01*
X189456904Y-51924212D01*
X189589016Y-52280925D01*
X189589022Y-52280940D01*
X189756548Y-52622463D01*
X189756553Y-52622472D01*
X189957770Y-52945294D01*
X189957771Y-52945295D01*
X190190620Y-53246112D01*
X190452708Y-53521828D01*
X190452709Y-53521829D01*
X190741343Y-53769614D01*
X190741346Y-53769616D01*
X191053571Y-53986931D01*
X191386179Y-54171543D01*
X191735758Y-54321559D01*
X191735761Y-54321560D01*
X191735766Y-54321562D01*
X192098709Y-54435436D01*
X192098712Y-54435436D01*
X192098720Y-54435439D01*
X192471340Y-54512015D01*
X192774104Y-54542802D01*
X192849795Y-54550500D01*
X192849796Y-54550500D01*
X193230205Y-54550500D01*
X193299041Y-54543500D01*
X193608660Y-54512015D01*
X193981280Y-54435439D01*
X193981290Y-54435436D01*
X194344233Y-54321562D01*
X194344234Y-54321561D01*
X194344242Y-54321559D01*
X194693821Y-54171543D01*
X195026429Y-53986931D01*
X195338654Y-53769616D01*
X195627291Y-53521829D01*
X195889380Y-53246112D01*
X196122229Y-52945295D01*
X196323451Y-52622464D01*
X196490981Y-52280932D01*
X196623098Y-51924204D01*
X196718448Y-51555940D01*
X196776053Y-51179919D01*
X196795320Y-50800000D01*
X196776053Y-50420081D01*
X196718448Y-50044060D01*
X196623098Y-49675796D01*
X196490981Y-49319068D01*
X196323451Y-48977536D01*
X196323446Y-48977527D01*
X196122228Y-48654704D01*
X195889384Y-48353893D01*
X195889383Y-48353892D01*
X195889380Y-48353888D01*
X195627291Y-48078171D01*
X195627290Y-48078170D01*
X195338656Y-47830385D01*
X195026429Y-47613069D01*
X195026424Y-47613066D01*
X194693820Y-47428456D01*
X194344233Y-47278437D01*
X193981290Y-47164563D01*
X193981284Y-47164562D01*
X193981281Y-47164561D01*
X193981280Y-47164561D01*
X193608660Y-47087985D01*
X193608659Y-47087984D01*
X193608655Y-47087984D01*
X193230205Y-47049500D01*
X193230204Y-47049500D01*
X192849796Y-47049500D01*
X192849795Y-47049500D01*
X192471344Y-47087984D01*
X192098715Y-47164562D01*
X192098709Y-47164563D01*
X191735766Y-47278437D01*
X191386179Y-47428456D01*
X191053575Y-47613066D01*
X191053570Y-47613069D01*
X190741343Y-47830385D01*
X190452709Y-48078170D01*
X190190615Y-48353893D01*
X189957771Y-48654704D01*
X189756553Y-48977527D01*
X189756548Y-48977536D01*
X189589022Y-49319059D01*
X189589016Y-49319074D01*
X189456904Y-49675787D01*
X189361551Y-50044064D01*
X189303946Y-50420081D01*
X189284680Y-50800000D01*
X35560500Y-50800000D01*
X35560500Y-43180000D01*
X36884680Y-43180000D01*
X36903946Y-43559918D01*
X36961551Y-43935935D01*
X37056904Y-44304212D01*
X37189016Y-44660925D01*
X37189022Y-44660940D01*
X37356548Y-45002463D01*
X37356553Y-45002472D01*
X37557771Y-45325295D01*
X37790620Y-45626112D01*
X38052708Y-45901828D01*
X38052709Y-45901829D01*
X38341343Y-46149614D01*
X38341346Y-46149616D01*
X38653571Y-46366931D01*
X38986179Y-46551543D01*
X39335758Y-46701559D01*
X39335761Y-46701560D01*
X39335766Y-46701562D01*
X39698709Y-46815436D01*
X39698712Y-46815436D01*
X39698720Y-46815439D01*
X40071340Y-46892015D01*
X40374104Y-46922802D01*
X40449795Y-46930500D01*
X40449796Y-46930500D01*
X40830205Y-46930500D01*
X40893280Y-46924085D01*
X41208660Y-46892015D01*
X41581280Y-46815439D01*
X41581290Y-46815436D01*
X41944233Y-46701562D01*
X41944234Y-46701561D01*
X41944242Y-46701559D01*
X42293821Y-46551543D01*
X42626429Y-46366931D01*
X42938654Y-46149616D01*
X43227291Y-45901829D01*
X43489380Y-45626112D01*
X43722229Y-45325295D01*
X43923451Y-45002464D01*
X44090981Y-44660932D01*
X44223098Y-44304204D01*
X44318448Y-43935940D01*
X44376053Y-43559919D01*
X44395320Y-43180000D01*
X44376053Y-42800081D01*
X44318448Y-42424060D01*
X44223098Y-42055796D01*
X44090981Y-41699068D01*
X43923451Y-41357536D01*
X43923446Y-41357527D01*
X43722228Y-41034704D01*
X43489384Y-40733893D01*
X43489383Y-40733892D01*
X43489380Y-40733888D01*
X43227291Y-40458171D01*
X43227290Y-40458170D01*
X42938656Y-40210385D01*
X42626429Y-39993069D01*
X42626424Y-39993066D01*
X42293820Y-39808456D01*
X41944233Y-39658437D01*
X41581290Y-39544563D01*
X41581284Y-39544562D01*
X41581281Y-39544561D01*
X41581280Y-39544561D01*
X41208660Y-39467985D01*
X41208659Y-39467984D01*
X41208655Y-39467984D01*
X40830205Y-39429500D01*
X40830204Y-39429500D01*
X40449796Y-39429500D01*
X40449795Y-39429500D01*
X40071344Y-39467984D01*
X39698715Y-39544562D01*
X39698709Y-39544563D01*
X39335766Y-39658437D01*
X38986179Y-39808456D01*
X38653575Y-39993066D01*
X38653570Y-39993069D01*
X38341343Y-40210385D01*
X38052709Y-40458170D01*
X37790615Y-40733893D01*
X37557771Y-41034704D01*
X37356553Y-41357527D01*
X37356548Y-41357536D01*
X37189022Y-41699059D01*
X37189016Y-41699074D01*
X37056904Y-42055787D01*
X36961551Y-42424064D01*
X36903946Y-42800081D01*
X36884680Y-43180000D01*
X35560500Y-43180000D01*
X35560500Y-38364000D01*
X188837551Y-38364000D01*
X188857317Y-38615151D01*
X188916126Y-38860110D01*
X189012533Y-39092859D01*
X189144160Y-39307653D01*
X189144161Y-39307656D01*
X189144164Y-39307659D01*
X189307776Y-39499224D01*
X189456066Y-39625875D01*
X189499343Y-39662838D01*
X189499346Y-39662839D01*
X189714140Y-39794466D01*
X189747918Y-39808457D01*
X189946889Y-39890873D01*
X190191852Y-39949683D01*
X190443000Y-39969449D01*
X190694148Y-39949683D01*
X190939111Y-39890873D01*
X191171859Y-39794466D01*
X191386659Y-39662836D01*
X191578224Y-39499224D01*
X191741836Y-39307659D01*
X191873466Y-39092859D01*
X191969873Y-38860111D01*
X192028683Y-38615148D01*
X192048449Y-38364000D01*
X192028683Y-38112852D01*
X191969873Y-37867889D01*
X191873466Y-37635141D01*
X191873466Y-37635140D01*
X191741839Y-37420346D01*
X191741838Y-37420343D01*
X191578224Y-37228776D01*
X191578215Y-37228768D01*
X191530819Y-37188289D01*
X191492627Y-37129784D01*
X191492128Y-37059916D01*
X191529482Y-37000870D01*
X191530756Y-36999764D01*
X191578224Y-36959224D01*
X191741836Y-36767659D01*
X191873466Y-36552859D01*
X191969873Y-36320111D01*
X192028683Y-36075148D01*
X192048449Y-35824000D01*
X192028683Y-35572852D01*
X191969873Y-35327889D01*
X191873466Y-35095141D01*
X191873466Y-35095140D01*
X191741839Y-34880346D01*
X191741838Y-34880343D01*
X191578224Y-34688776D01*
X191578223Y-34688775D01*
X191530819Y-34648288D01*
X191492627Y-34589784D01*
X191492128Y-34519916D01*
X191529482Y-34460870D01*
X191530769Y-34459753D01*
X191578224Y-34419224D01*
X191741836Y-34227659D01*
X191873466Y-34012859D01*
X191969873Y-33780111D01*
X192028683Y-33535148D01*
X192048449Y-33284000D01*
X192028683Y-33032852D01*
X191969873Y-32787889D01*
X191873466Y-32555141D01*
X191873466Y-32555140D01*
X191742070Y-32340722D01*
X191723825Y-32273276D01*
X191744941Y-32206674D01*
X191760116Y-32188250D01*
X191761650Y-32186715D01*
X191761656Y-32186712D01*
X191885712Y-32062656D01*
X191977814Y-31913334D01*
X192032999Y-31746797D01*
X192043500Y-31644009D01*
X192043499Y-29843992D01*
X192032999Y-29741203D01*
X191977814Y-29574666D01*
X191885712Y-29425344D01*
X191761656Y-29301288D01*
X191612334Y-29209186D01*
X191445797Y-29154001D01*
X191445795Y-29154000D01*
X191343010Y-29143500D01*
X189542998Y-29143500D01*
X189542981Y-29143501D01*
X189440203Y-29154000D01*
X189440200Y-29154001D01*
X189273668Y-29209185D01*
X189273663Y-29209187D01*
X189124342Y-29301289D01*
X189000289Y-29425342D01*
X188908187Y-29574663D01*
X188908185Y-29574666D01*
X188908186Y-29574666D01*
X188853001Y-29741203D01*
X188853001Y-29741204D01*
X188853000Y-29741204D01*
X188842500Y-29843983D01*
X188842500Y-31644001D01*
X188842501Y-31644018D01*
X188853000Y-31746796D01*
X188853001Y-31746799D01*
X188908185Y-31913331D01*
X188908187Y-31913336D01*
X189000289Y-32062657D01*
X189125883Y-32188251D01*
X189159368Y-32249574D01*
X189154384Y-32319266D01*
X189143930Y-32340722D01*
X189012531Y-32555145D01*
X188916126Y-32787889D01*
X188857317Y-33032848D01*
X188837551Y-33283999D01*
X188857317Y-33535151D01*
X188916126Y-33780110D01*
X189012533Y-34012859D01*
X189144160Y-34227653D01*
X189144161Y-34227656D01*
X189144164Y-34227659D01*
X189307776Y-34419224D01*
X189355179Y-34459710D01*
X189393371Y-34518215D01*
X189393871Y-34588083D01*
X189356517Y-34647129D01*
X189355180Y-34648288D01*
X189307777Y-34688775D01*
X189144161Y-34880343D01*
X189144160Y-34880346D01*
X189012533Y-35095140D01*
X188916126Y-35327889D01*
X188857317Y-35572848D01*
X188837551Y-35824000D01*
X188857317Y-36075151D01*
X188916126Y-36320110D01*
X189012533Y-36552859D01*
X189144160Y-36767653D01*
X189144161Y-36767656D01*
X189144164Y-36767659D01*
X189307776Y-36959224D01*
X189352507Y-36997428D01*
X189355178Y-36999709D01*
X189393371Y-37058216D01*
X189393869Y-37128084D01*
X189356515Y-37187130D01*
X189355179Y-37188288D01*
X189307783Y-37228768D01*
X189307776Y-37228776D01*
X189144161Y-37420343D01*
X189144160Y-37420346D01*
X189012533Y-37635140D01*
X188916126Y-37867889D01*
X188857317Y-38112848D01*
X188837551Y-38364000D01*
X35560500Y-38364000D01*
X35560500Y-25400000D01*
X189284680Y-25400000D01*
X189303946Y-25779918D01*
X189361551Y-26155935D01*
X189456904Y-26524212D01*
X189589016Y-26880925D01*
X189589022Y-26880940D01*
X189756548Y-27222463D01*
X189756553Y-27222472D01*
X189957770Y-27545294D01*
X189957771Y-27545295D01*
X190190620Y-27846112D01*
X190452709Y-28121828D01*
X190452709Y-28121829D01*
X190741343Y-28369614D01*
X190741346Y-28369616D01*
X191053571Y-28586931D01*
X191386179Y-28771543D01*
X191735758Y-28921559D01*
X191735761Y-28921560D01*
X191735766Y-28921562D01*
X192098709Y-29035436D01*
X192098712Y-29035436D01*
X192098720Y-29035439D01*
X192471340Y-29112015D01*
X192774104Y-29142803D01*
X192849795Y-29150500D01*
X192849796Y-29150500D01*
X193230205Y-29150500D01*
X193299041Y-29143500D01*
X193608660Y-29112015D01*
X193981280Y-29035439D01*
X193981290Y-29035436D01*
X194344233Y-28921562D01*
X194344234Y-28921561D01*
X194344242Y-28921559D01*
X194693821Y-28771543D01*
X195026429Y-28586931D01*
X195338654Y-28369616D01*
X195627291Y-28121829D01*
X195889380Y-27846112D01*
X196122229Y-27545295D01*
X196323451Y-27222464D01*
X196490981Y-26880932D01*
X196623098Y-26524204D01*
X196718448Y-26155940D01*
X196776053Y-25779919D01*
X196795320Y-25400000D01*
X196776053Y-25020081D01*
X196718448Y-24644060D01*
X196623098Y-24275796D01*
X196490981Y-23919068D01*
X196323451Y-23577536D01*
X196323446Y-23577527D01*
X196122228Y-23254704D01*
X195889384Y-22953893D01*
X195889383Y-22953892D01*
X195889380Y-22953888D01*
X195627291Y-22678171D01*
X195627290Y-22678170D01*
X195338656Y-22430385D01*
X195026429Y-22213069D01*
X195026424Y-22213066D01*
X194693820Y-22028456D01*
X194344233Y-21878437D01*
X193981290Y-21764563D01*
X193981284Y-21764562D01*
X193981281Y-21764561D01*
X193981280Y-21764561D01*
X193608660Y-21687985D01*
X193608659Y-21687984D01*
X193608655Y-21687984D01*
X193230205Y-21649500D01*
X193230204Y-21649500D01*
X192849796Y-21649500D01*
X192849795Y-21649500D01*
X192471344Y-21687984D01*
X192098715Y-21764562D01*
X192098709Y-21764563D01*
X191735766Y-21878437D01*
X191386179Y-22028456D01*
X191053575Y-22213066D01*
X191053570Y-22213069D01*
X190741343Y-22430385D01*
X190452709Y-22678170D01*
X190190615Y-22953893D01*
X189957771Y-23254704D01*
X189756553Y-23577527D01*
X189756548Y-23577536D01*
X189589022Y-23919059D01*
X189589016Y-23919074D01*
X189456904Y-24275787D01*
X189361551Y-24644064D01*
X189303946Y-25020081D01*
X189284680Y-25400000D01*
X35560500Y-25400000D01*
X35560500Y-22861740D01*
X35560598Y-22858264D01*
X35561875Y-22835501D01*
X35566998Y-22744288D01*
X35577401Y-22572304D01*
X35578160Y-22565704D01*
X35601281Y-22429623D01*
X35628562Y-22280758D01*
X35629960Y-22274810D01*
X35669225Y-22138518D01*
X35669552Y-22137428D01*
X35713264Y-21997155D01*
X35715159Y-21991921D01*
X35770080Y-21859330D01*
X35770732Y-21857820D01*
X35830343Y-21725370D01*
X35832599Y-21720861D01*
X35902393Y-21594579D01*
X35903542Y-21592591D01*
X35978221Y-21469057D01*
X35980701Y-21465274D01*
X36064461Y-21347226D01*
X36066145Y-21344967D01*
X36154932Y-21231638D01*
X36157472Y-21228605D01*
X36254052Y-21120531D01*
X36256373Y-21118077D01*
X36358077Y-21016373D01*
X36360531Y-21014052D01*
X36468605Y-20917472D01*
X36471638Y-20914932D01*
X36584967Y-20826145D01*
X36587226Y-20824461D01*
X36705274Y-20740701D01*
X36709057Y-20738221D01*
X36832591Y-20663542D01*
X36834579Y-20662393D01*
X36960861Y-20592599D01*
X36965370Y-20590343D01*
X37097820Y-20530732D01*
X37099330Y-20530080D01*
X37231921Y-20475159D01*
X37237155Y-20473264D01*
X37377428Y-20429552D01*
X37378518Y-20429225D01*
X37514810Y-20389960D01*
X37520758Y-20388562D01*
X37669626Y-20361281D01*
X37805704Y-20338160D01*
X37812304Y-20337401D01*
X37984288Y-20326998D01*
X38075501Y-20321875D01*
X38098264Y-20320598D01*
X38101740Y-20320500D01*
X195578260Y-20320500D01*
X195581736Y-20320598D01*
G37*
%TD.AperFunction*%
%TD*%
M02*
