M48
; DRILL file {KiCad 7.0.5} date Thu Apr  3 03:30:26 2025
; FORMAT={-:-/ absolute / inch / decimal}
; #@! TF.CreationDate,2025-04-03T03:30:26-04:00
; #@! TF.GenerationSoftware,Kicad,Pcbnew,7.0.5
; #@! TF.FileFunction,Plated,1,2,PTH
FMAT,2
INCH
; #@! TA.AperFunction,Plated,PTH,ViaDrill
T1C0.0157
; #@! TA.AperFunction,Plated,PTH,ComponentDrill
T2C0.0394
; #@! TA.AperFunction,Plated,PTH,ViaDrill
T3C0.1575
%
G90
G05
T1
X6.14Y-1.81
X6.14Y-2.81
X6.18Y-1.81
X6.18Y-2.81
X6.22Y-1.81
X6.22Y-2.81
X6.25Y-2.69
X6.25Y-2.73
X6.25Y-2.77
X6.27Y-1.69
X6.27Y-1.73
X6.27Y-1.77
X6.39Y-1.52
X6.39Y-2.52
X6.89Y-1.3
X6.89Y-1.7
X6.89Y-2.28
X6.89Y-2.54
X6.9Y-1.54
X6.9Y-2.7
X6.93Y-2.54
X6.94Y-1.54
X6.97Y-2.54
X6.98Y-1.54
T2
X7.4978Y-1.2104
X7.4978Y-1.3104
X7.4978Y-1.4104
X7.4978Y-1.5104
X7.4978Y-2.2104
X7.4978Y-2.3104
X7.4978Y-2.4104
X7.4978Y-2.5104
T3
X1.6Y-1.0
X1.6Y-1.7
X1.6Y-2.0
X1.6Y-2.7
X7.6Y-1.0
X7.6Y-1.7
X7.6Y-2.0
X7.6Y-2.7
T0
M30
