%TF.GenerationSoftware,KiCad,Pcbnew,7.0.5*%
%TF.CreationDate,2025-04-03T03:30:24-04:00*%
%TF.ProjectId,fuck_it_stepper_2,6675636b-5f69-4745-9f73-746570706572,rev?*%
%TF.SameCoordinates,Original*%
%TF.FileFunction,Soldermask,Bot*%
%TF.FilePolarity,Negative*%
%FSLAX46Y46*%
G04 Gerber Fmt 4.6, Leading zero omitted, Abs format (unit mm)*
G04 Created by KiCad (PCBNEW 7.0.5) date 2025-04-03 03:30:24*
%MOMM*%
%LPD*%
G01*
G04 APERTURE LIST*
%ADD10C,3.556945*%
%ADD11R,1.700000X1.700000*%
%ADD12O,1.700000X1.700000*%
G04 APERTURE END LIST*
D10*
X42455109Y-68535429D02*
G75*
G03*
X42455109Y-68535429I-1778472J0D01*
G01*
X42425012Y-50687530D02*
G75*
G03*
X42425012Y-50687530I-1778472J0D01*
G01*
X42399047Y-43041615D02*
G75*
G03*
X42399047Y-43041615I-1778472J0D01*
G01*
X42492527Y-25400000D02*
G75*
G03*
X42492527Y-25400000I-1778472J0D01*
G01*
X194892527Y-25400000D02*
G75*
G03*
X194892527Y-25400000I-1778472J0D01*
G01*
X194892527Y-43180000D02*
G75*
G03*
X194892527Y-43180000I-1778472J0D01*
G01*
X194892527Y-50800000D02*
G75*
G03*
X194892527Y-50800000I-1778472J0D01*
G01*
X194892527Y-68580000D02*
G75*
G03*
X194892527Y-68580000I-1778472J0D01*
G01*
D11*
%TO.C,J2*%
X190443000Y-56144000D03*
D12*
X190443000Y-58684000D03*
X190443000Y-61224000D03*
X190443000Y-63764000D03*
%TD*%
D11*
%TO.C,J1*%
X190443000Y-30744000D03*
D12*
X190443000Y-33284000D03*
X190443000Y-35824000D03*
X190443000Y-38364000D03*
%TD*%
G36*
X185363039Y-20339685D02*
G01*
X185408794Y-20392489D01*
X185420000Y-20444000D01*
X185420000Y-73536000D01*
X185400315Y-73603039D01*
X185347511Y-73648794D01*
X185296000Y-73660000D01*
X48384000Y-73660000D01*
X48316961Y-73640315D01*
X48271206Y-73587511D01*
X48260000Y-73536000D01*
X48260000Y-20444000D01*
X48279685Y-20376961D01*
X48332489Y-20331206D01*
X48384000Y-20320000D01*
X185296000Y-20320000D01*
X185363039Y-20339685D01*
G37*
M02*
