%TF.GenerationSoftware,KiCad,Pcbnew,7.0.5*%
%TF.CreationDate,2025-04-03T03:30:24-04:00*%
%TF.ProjectId,fuck_it_stepper_2,6675636b-5f69-4745-9f73-746570706572,rev?*%
%TF.SameCoordinates,Original*%
%TF.FileFunction,Legend,Top*%
%TF.FilePolarity,Positive*%
%FSLAX46Y46*%
G04 Gerber Fmt 4.6, Leading zero omitted, Abs format (unit mm)*
G04 Created by KiCad (PCBNEW 7.0.5) date 2025-04-03 03:30:24*
%MOMM*%
%LPD*%
G01*
G04 APERTURE LIST*
%ADD10C,0.150000*%
%ADD11C,0.300000*%
%ADD12C,0.500000*%
%ADD13C,0.100000*%
%ADD14C,0.120000*%
G04 APERTURE END LIST*
D10*
X169918255Y-60767819D02*
X170108731Y-60767819D01*
X170108731Y-60767819D02*
X170203969Y-60815438D01*
X170203969Y-60815438D02*
X170299207Y-60910676D01*
X170299207Y-60910676D02*
X170346826Y-61101152D01*
X170346826Y-61101152D02*
X170346826Y-61434485D01*
X170346826Y-61434485D02*
X170299207Y-61624961D01*
X170299207Y-61624961D02*
X170203969Y-61720200D01*
X170203969Y-61720200D02*
X170108731Y-61767819D01*
X170108731Y-61767819D02*
X169918255Y-61767819D01*
X169918255Y-61767819D02*
X169823017Y-61720200D01*
X169823017Y-61720200D02*
X169727779Y-61624961D01*
X169727779Y-61624961D02*
X169680160Y-61434485D01*
X169680160Y-61434485D02*
X169680160Y-61101152D01*
X169680160Y-61101152D02*
X169727779Y-60910676D01*
X169727779Y-60910676D02*
X169823017Y-60815438D01*
X169823017Y-60815438D02*
X169918255Y-60767819D01*
X171346826Y-61672580D02*
X171299207Y-61720200D01*
X171299207Y-61720200D02*
X171156350Y-61767819D01*
X171156350Y-61767819D02*
X171061112Y-61767819D01*
X171061112Y-61767819D02*
X170918255Y-61720200D01*
X170918255Y-61720200D02*
X170823017Y-61624961D01*
X170823017Y-61624961D02*
X170775398Y-61529723D01*
X170775398Y-61529723D02*
X170727779Y-61339247D01*
X170727779Y-61339247D02*
X170727779Y-61196390D01*
X170727779Y-61196390D02*
X170775398Y-61005914D01*
X170775398Y-61005914D02*
X170823017Y-60910676D01*
X170823017Y-60910676D02*
X170918255Y-60815438D01*
X170918255Y-60815438D02*
X171061112Y-60767819D01*
X171061112Y-60767819D02*
X171156350Y-60767819D01*
X171156350Y-60767819D02*
X171299207Y-60815438D01*
X171299207Y-60815438D02*
X171346826Y-60863057D01*
X171775398Y-61767819D02*
X171775398Y-60767819D01*
X171775398Y-60767819D02*
X172156350Y-60767819D01*
X172156350Y-60767819D02*
X172251588Y-60815438D01*
X172251588Y-60815438D02*
X172299207Y-60863057D01*
X172299207Y-60863057D02*
X172346826Y-60958295D01*
X172346826Y-60958295D02*
X172346826Y-61101152D01*
X172346826Y-61101152D02*
X172299207Y-61196390D01*
X172299207Y-61196390D02*
X172251588Y-61244009D01*
X172251588Y-61244009D02*
X172156350Y-61291628D01*
X172156350Y-61291628D02*
X171775398Y-61291628D01*
X170172255Y-35367819D02*
X170362731Y-35367819D01*
X170362731Y-35367819D02*
X170457969Y-35415438D01*
X170457969Y-35415438D02*
X170553207Y-35510676D01*
X170553207Y-35510676D02*
X170600826Y-35701152D01*
X170600826Y-35701152D02*
X170600826Y-36034485D01*
X170600826Y-36034485D02*
X170553207Y-36224961D01*
X170553207Y-36224961D02*
X170457969Y-36320200D01*
X170457969Y-36320200D02*
X170362731Y-36367819D01*
X170362731Y-36367819D02*
X170172255Y-36367819D01*
X170172255Y-36367819D02*
X170077017Y-36320200D01*
X170077017Y-36320200D02*
X169981779Y-36224961D01*
X169981779Y-36224961D02*
X169934160Y-36034485D01*
X169934160Y-36034485D02*
X169934160Y-35701152D01*
X169934160Y-35701152D02*
X169981779Y-35510676D01*
X169981779Y-35510676D02*
X170077017Y-35415438D01*
X170077017Y-35415438D02*
X170172255Y-35367819D01*
X171600826Y-36272580D02*
X171553207Y-36320200D01*
X171553207Y-36320200D02*
X171410350Y-36367819D01*
X171410350Y-36367819D02*
X171315112Y-36367819D01*
X171315112Y-36367819D02*
X171172255Y-36320200D01*
X171172255Y-36320200D02*
X171077017Y-36224961D01*
X171077017Y-36224961D02*
X171029398Y-36129723D01*
X171029398Y-36129723D02*
X170981779Y-35939247D01*
X170981779Y-35939247D02*
X170981779Y-35796390D01*
X170981779Y-35796390D02*
X171029398Y-35605914D01*
X171029398Y-35605914D02*
X171077017Y-35510676D01*
X171077017Y-35510676D02*
X171172255Y-35415438D01*
X171172255Y-35415438D02*
X171315112Y-35367819D01*
X171315112Y-35367819D02*
X171410350Y-35367819D01*
X171410350Y-35367819D02*
X171553207Y-35415438D01*
X171553207Y-35415438D02*
X171600826Y-35463057D01*
X172029398Y-36367819D02*
X172029398Y-35367819D01*
X172029398Y-35367819D02*
X172410350Y-35367819D01*
X172410350Y-35367819D02*
X172505588Y-35415438D01*
X172505588Y-35415438D02*
X172553207Y-35463057D01*
X172553207Y-35463057D02*
X172600826Y-35558295D01*
X172600826Y-35558295D02*
X172600826Y-35701152D01*
X172600826Y-35701152D02*
X172553207Y-35796390D01*
X172553207Y-35796390D02*
X172505588Y-35844009D01*
X172505588Y-35844009D02*
X172410350Y-35891628D01*
X172410350Y-35891628D02*
X172029398Y-35891628D01*
X183860779Y-39705009D02*
X184194112Y-39705009D01*
X184336969Y-40228819D02*
X183860779Y-40228819D01*
X183860779Y-40228819D02*
X183860779Y-39228819D01*
X183860779Y-39228819D02*
X184336969Y-39228819D01*
X184765541Y-40228819D02*
X184765541Y-39228819D01*
X184765541Y-39228819D02*
X185336969Y-40228819D01*
X185336969Y-40228819D02*
X185336969Y-39228819D01*
X183352779Y-65359009D02*
X183686112Y-65359009D01*
X183828969Y-65882819D02*
X183352779Y-65882819D01*
X183352779Y-65882819D02*
X183352779Y-64882819D01*
X183352779Y-64882819D02*
X183828969Y-64882819D01*
X184257541Y-65882819D02*
X184257541Y-64882819D01*
X184257541Y-64882819D02*
X184828969Y-65882819D01*
X184828969Y-65882819D02*
X184828969Y-64882819D01*
X185699777Y-63448439D02*
X185937872Y-64115106D01*
X185937872Y-64115106D02*
X186175967Y-63448439D01*
X186509301Y-64067487D02*
X186604539Y-64115106D01*
X186604539Y-64115106D02*
X186795015Y-64115106D01*
X186795015Y-64115106D02*
X186890253Y-64067487D01*
X186890253Y-64067487D02*
X186937872Y-63972248D01*
X186937872Y-63972248D02*
X186937872Y-63924629D01*
X186937872Y-63924629D02*
X186890253Y-63829391D01*
X186890253Y-63829391D02*
X186795015Y-63781772D01*
X186795015Y-63781772D02*
X186652158Y-63781772D01*
X186652158Y-63781772D02*
X186556920Y-63734153D01*
X186556920Y-63734153D02*
X186509301Y-63638915D01*
X186509301Y-63638915D02*
X186509301Y-63591296D01*
X186509301Y-63591296D02*
X186556920Y-63496058D01*
X186556920Y-63496058D02*
X186652158Y-63448439D01*
X186652158Y-63448439D02*
X186795015Y-63448439D01*
X186795015Y-63448439D02*
X186890253Y-63496058D01*
X187366444Y-63448439D02*
X187366444Y-64115106D01*
X187366444Y-63543677D02*
X187414063Y-63496058D01*
X187414063Y-63496058D02*
X187509301Y-63448439D01*
X187509301Y-63448439D02*
X187652158Y-63448439D01*
X187652158Y-63448439D02*
X187747396Y-63496058D01*
X187747396Y-63496058D02*
X187795015Y-63591296D01*
X187795015Y-63591296D02*
X187795015Y-64115106D01*
X188223587Y-64067487D02*
X188318825Y-64115106D01*
X188318825Y-64115106D02*
X188509301Y-64115106D01*
X188509301Y-64115106D02*
X188604539Y-64067487D01*
X188604539Y-64067487D02*
X188652158Y-63972248D01*
X188652158Y-63972248D02*
X188652158Y-63924629D01*
X188652158Y-63924629D02*
X188604539Y-63829391D01*
X188604539Y-63829391D02*
X188509301Y-63781772D01*
X188509301Y-63781772D02*
X188366444Y-63781772D01*
X188366444Y-63781772D02*
X188271206Y-63734153D01*
X188271206Y-63734153D02*
X188223587Y-63638915D01*
X188223587Y-63638915D02*
X188223587Y-63591296D01*
X188223587Y-63591296D02*
X188271206Y-63496058D01*
X188271206Y-63496058D02*
X188366444Y-63448439D01*
X188366444Y-63448439D02*
X188509301Y-63448439D01*
X188509301Y-63448439D02*
X188604539Y-63496058D01*
X185969586Y-61527487D02*
X185874348Y-61575106D01*
X185874348Y-61575106D02*
X185683872Y-61575106D01*
X185683872Y-61575106D02*
X185588634Y-61527487D01*
X185588634Y-61527487D02*
X185541015Y-61479867D01*
X185541015Y-61479867D02*
X185493396Y-61384629D01*
X185493396Y-61384629D02*
X185493396Y-61098915D01*
X185493396Y-61098915D02*
X185541015Y-61003677D01*
X185541015Y-61003677D02*
X185588634Y-60956058D01*
X185588634Y-60956058D02*
X185683872Y-60908439D01*
X185683872Y-60908439D02*
X185874348Y-60908439D01*
X185874348Y-60908439D02*
X185969586Y-60956058D01*
X186398158Y-61575106D02*
X186398158Y-60908439D01*
X186398158Y-61003677D02*
X186445777Y-60956058D01*
X186445777Y-60956058D02*
X186541015Y-60908439D01*
X186541015Y-60908439D02*
X186683872Y-60908439D01*
X186683872Y-60908439D02*
X186779110Y-60956058D01*
X186779110Y-60956058D02*
X186826729Y-61051296D01*
X186826729Y-61051296D02*
X186826729Y-61575106D01*
X186826729Y-61051296D02*
X186874348Y-60956058D01*
X186874348Y-60956058D02*
X186969586Y-60908439D01*
X186969586Y-60908439D02*
X187112443Y-60908439D01*
X187112443Y-60908439D02*
X187207682Y-60956058D01*
X187207682Y-60956058D02*
X187255301Y-61051296D01*
X187255301Y-61051296D02*
X187255301Y-61575106D01*
X187874348Y-61575106D02*
X187779110Y-61527487D01*
X187779110Y-61527487D02*
X187731491Y-61479867D01*
X187731491Y-61479867D02*
X187683872Y-61384629D01*
X187683872Y-61384629D02*
X187683872Y-61098915D01*
X187683872Y-61098915D02*
X187731491Y-61003677D01*
X187731491Y-61003677D02*
X187779110Y-60956058D01*
X187779110Y-60956058D02*
X187874348Y-60908439D01*
X187874348Y-60908439D02*
X188017205Y-60908439D01*
X188017205Y-60908439D02*
X188112443Y-60956058D01*
X188112443Y-60956058D02*
X188160062Y-61003677D01*
X188160062Y-61003677D02*
X188207681Y-61098915D01*
X188207681Y-61098915D02*
X188207681Y-61384629D01*
X188207681Y-61384629D02*
X188160062Y-61479867D01*
X188160062Y-61479867D02*
X188112443Y-61527487D01*
X188112443Y-61527487D02*
X188017205Y-61575106D01*
X188017205Y-61575106D02*
X187874348Y-61575106D01*
X188588634Y-61527487D02*
X188683872Y-61575106D01*
X188683872Y-61575106D02*
X188874348Y-61575106D01*
X188874348Y-61575106D02*
X188969586Y-61527487D01*
X188969586Y-61527487D02*
X189017205Y-61432248D01*
X189017205Y-61432248D02*
X189017205Y-61384629D01*
X189017205Y-61384629D02*
X188969586Y-61289391D01*
X188969586Y-61289391D02*
X188874348Y-61241772D01*
X188874348Y-61241772D02*
X188731491Y-61241772D01*
X188731491Y-61241772D02*
X188636253Y-61194153D01*
X188636253Y-61194153D02*
X188588634Y-61098915D01*
X188588634Y-61098915D02*
X188588634Y-61051296D01*
X188588634Y-61051296D02*
X188636253Y-60956058D01*
X188636253Y-60956058D02*
X188731491Y-60908439D01*
X188731491Y-60908439D02*
X188874348Y-60908439D01*
X188874348Y-60908439D02*
X188969586Y-60956058D01*
X185795015Y-59035106D02*
X185795015Y-58368439D01*
X185795015Y-58035106D02*
X185747396Y-58082725D01*
X185747396Y-58082725D02*
X185795015Y-58130344D01*
X185795015Y-58130344D02*
X185842634Y-58082725D01*
X185842634Y-58082725D02*
X185795015Y-58035106D01*
X185795015Y-58035106D02*
X185795015Y-58130344D01*
X186223586Y-58987487D02*
X186318824Y-59035106D01*
X186318824Y-59035106D02*
X186509300Y-59035106D01*
X186509300Y-59035106D02*
X186604538Y-58987487D01*
X186604538Y-58987487D02*
X186652157Y-58892248D01*
X186652157Y-58892248D02*
X186652157Y-58844629D01*
X186652157Y-58844629D02*
X186604538Y-58749391D01*
X186604538Y-58749391D02*
X186509300Y-58701772D01*
X186509300Y-58701772D02*
X186366443Y-58701772D01*
X186366443Y-58701772D02*
X186271205Y-58654153D01*
X186271205Y-58654153D02*
X186223586Y-58558915D01*
X186223586Y-58558915D02*
X186223586Y-58511296D01*
X186223586Y-58511296D02*
X186271205Y-58416058D01*
X186271205Y-58416058D02*
X186366443Y-58368439D01*
X186366443Y-58368439D02*
X186509300Y-58368439D01*
X186509300Y-58368439D02*
X186604538Y-58416058D01*
X187461681Y-58987487D02*
X187366443Y-59035106D01*
X187366443Y-59035106D02*
X187175967Y-59035106D01*
X187175967Y-59035106D02*
X187080729Y-58987487D01*
X187080729Y-58987487D02*
X187033110Y-58892248D01*
X187033110Y-58892248D02*
X187033110Y-58511296D01*
X187033110Y-58511296D02*
X187080729Y-58416058D01*
X187080729Y-58416058D02*
X187175967Y-58368439D01*
X187175967Y-58368439D02*
X187366443Y-58368439D01*
X187366443Y-58368439D02*
X187461681Y-58416058D01*
X187461681Y-58416058D02*
X187509300Y-58511296D01*
X187509300Y-58511296D02*
X187509300Y-58606534D01*
X187509300Y-58606534D02*
X187033110Y-58701772D01*
X187795015Y-58368439D02*
X188175967Y-58368439D01*
X187937872Y-58035106D02*
X187937872Y-58892248D01*
X187937872Y-58892248D02*
X187985491Y-58987487D01*
X187985491Y-58987487D02*
X188080729Y-59035106D01*
X188080729Y-59035106D02*
X188175967Y-59035106D01*
X185795015Y-56495106D02*
X185795015Y-55828439D01*
X185795015Y-55495106D02*
X185747396Y-55542725D01*
X185747396Y-55542725D02*
X185795015Y-55590344D01*
X185795015Y-55590344D02*
X185842634Y-55542725D01*
X185842634Y-55542725D02*
X185795015Y-55495106D01*
X185795015Y-55495106D02*
X185795015Y-55590344D01*
X186223586Y-56447487D02*
X186318824Y-56495106D01*
X186318824Y-56495106D02*
X186509300Y-56495106D01*
X186509300Y-56495106D02*
X186604538Y-56447487D01*
X186604538Y-56447487D02*
X186652157Y-56352248D01*
X186652157Y-56352248D02*
X186652157Y-56304629D01*
X186652157Y-56304629D02*
X186604538Y-56209391D01*
X186604538Y-56209391D02*
X186509300Y-56161772D01*
X186509300Y-56161772D02*
X186366443Y-56161772D01*
X186366443Y-56161772D02*
X186271205Y-56114153D01*
X186271205Y-56114153D02*
X186223586Y-56018915D01*
X186223586Y-56018915D02*
X186223586Y-55971296D01*
X186223586Y-55971296D02*
X186271205Y-55876058D01*
X186271205Y-55876058D02*
X186366443Y-55828439D01*
X186366443Y-55828439D02*
X186509300Y-55828439D01*
X186509300Y-55828439D02*
X186604538Y-55876058D01*
X187080729Y-55828439D02*
X187080729Y-56495106D01*
X187080729Y-55923677D02*
X187128348Y-55876058D01*
X187128348Y-55876058D02*
X187223586Y-55828439D01*
X187223586Y-55828439D02*
X187366443Y-55828439D01*
X187366443Y-55828439D02*
X187461681Y-55876058D01*
X187461681Y-55876058D02*
X187509300Y-55971296D01*
X187509300Y-55971296D02*
X187509300Y-56495106D01*
X187937872Y-56447487D02*
X188033110Y-56495106D01*
X188033110Y-56495106D02*
X188223586Y-56495106D01*
X188223586Y-56495106D02*
X188318824Y-56447487D01*
X188318824Y-56447487D02*
X188366443Y-56352248D01*
X188366443Y-56352248D02*
X188366443Y-56304629D01*
X188366443Y-56304629D02*
X188318824Y-56209391D01*
X188318824Y-56209391D02*
X188223586Y-56161772D01*
X188223586Y-56161772D02*
X188080729Y-56161772D01*
X188080729Y-56161772D02*
X187985491Y-56114153D01*
X187985491Y-56114153D02*
X187937872Y-56018915D01*
X187937872Y-56018915D02*
X187937872Y-55971296D01*
X187937872Y-55971296D02*
X187985491Y-55876058D01*
X187985491Y-55876058D02*
X188080729Y-55828439D01*
X188080729Y-55828439D02*
X188223586Y-55828439D01*
X188223586Y-55828439D02*
X188318824Y-55876058D01*
X185915541Y-38065152D02*
X186153636Y-38731819D01*
X186153636Y-38731819D02*
X186391731Y-38065152D01*
X186725065Y-38684200D02*
X186820303Y-38731819D01*
X186820303Y-38731819D02*
X187010779Y-38731819D01*
X187010779Y-38731819D02*
X187106017Y-38684200D01*
X187106017Y-38684200D02*
X187153636Y-38588961D01*
X187153636Y-38588961D02*
X187153636Y-38541342D01*
X187153636Y-38541342D02*
X187106017Y-38446104D01*
X187106017Y-38446104D02*
X187010779Y-38398485D01*
X187010779Y-38398485D02*
X186867922Y-38398485D01*
X186867922Y-38398485D02*
X186772684Y-38350866D01*
X186772684Y-38350866D02*
X186725065Y-38255628D01*
X186725065Y-38255628D02*
X186725065Y-38208009D01*
X186725065Y-38208009D02*
X186772684Y-38112771D01*
X186772684Y-38112771D02*
X186867922Y-38065152D01*
X186867922Y-38065152D02*
X187010779Y-38065152D01*
X187010779Y-38065152D02*
X187106017Y-38112771D01*
X187582208Y-38065152D02*
X187582208Y-38731819D01*
X187582208Y-38160390D02*
X187629827Y-38112771D01*
X187629827Y-38112771D02*
X187725065Y-38065152D01*
X187725065Y-38065152D02*
X187867922Y-38065152D01*
X187867922Y-38065152D02*
X187963160Y-38112771D01*
X187963160Y-38112771D02*
X188010779Y-38208009D01*
X188010779Y-38208009D02*
X188010779Y-38731819D01*
X188439351Y-38684200D02*
X188534589Y-38731819D01*
X188534589Y-38731819D02*
X188725065Y-38731819D01*
X188725065Y-38731819D02*
X188820303Y-38684200D01*
X188820303Y-38684200D02*
X188867922Y-38588961D01*
X188867922Y-38588961D02*
X188867922Y-38541342D01*
X188867922Y-38541342D02*
X188820303Y-38446104D01*
X188820303Y-38446104D02*
X188725065Y-38398485D01*
X188725065Y-38398485D02*
X188582208Y-38398485D01*
X188582208Y-38398485D02*
X188486970Y-38350866D01*
X188486970Y-38350866D02*
X188439351Y-38255628D01*
X188439351Y-38255628D02*
X188439351Y-38208009D01*
X188439351Y-38208009D02*
X188486970Y-38112771D01*
X188486970Y-38112771D02*
X188582208Y-38065152D01*
X188582208Y-38065152D02*
X188725065Y-38065152D01*
X188725065Y-38065152D02*
X188820303Y-38112771D01*
X186185350Y-36144200D02*
X186090112Y-36191819D01*
X186090112Y-36191819D02*
X185899636Y-36191819D01*
X185899636Y-36191819D02*
X185804398Y-36144200D01*
X185804398Y-36144200D02*
X185756779Y-36096580D01*
X185756779Y-36096580D02*
X185709160Y-36001342D01*
X185709160Y-36001342D02*
X185709160Y-35715628D01*
X185709160Y-35715628D02*
X185756779Y-35620390D01*
X185756779Y-35620390D02*
X185804398Y-35572771D01*
X185804398Y-35572771D02*
X185899636Y-35525152D01*
X185899636Y-35525152D02*
X186090112Y-35525152D01*
X186090112Y-35525152D02*
X186185350Y-35572771D01*
X186613922Y-36191819D02*
X186613922Y-35525152D01*
X186613922Y-35620390D02*
X186661541Y-35572771D01*
X186661541Y-35572771D02*
X186756779Y-35525152D01*
X186756779Y-35525152D02*
X186899636Y-35525152D01*
X186899636Y-35525152D02*
X186994874Y-35572771D01*
X186994874Y-35572771D02*
X187042493Y-35668009D01*
X187042493Y-35668009D02*
X187042493Y-36191819D01*
X187042493Y-35668009D02*
X187090112Y-35572771D01*
X187090112Y-35572771D02*
X187185350Y-35525152D01*
X187185350Y-35525152D02*
X187328207Y-35525152D01*
X187328207Y-35525152D02*
X187423446Y-35572771D01*
X187423446Y-35572771D02*
X187471065Y-35668009D01*
X187471065Y-35668009D02*
X187471065Y-36191819D01*
X188090112Y-36191819D02*
X187994874Y-36144200D01*
X187994874Y-36144200D02*
X187947255Y-36096580D01*
X187947255Y-36096580D02*
X187899636Y-36001342D01*
X187899636Y-36001342D02*
X187899636Y-35715628D01*
X187899636Y-35715628D02*
X187947255Y-35620390D01*
X187947255Y-35620390D02*
X187994874Y-35572771D01*
X187994874Y-35572771D02*
X188090112Y-35525152D01*
X188090112Y-35525152D02*
X188232969Y-35525152D01*
X188232969Y-35525152D02*
X188328207Y-35572771D01*
X188328207Y-35572771D02*
X188375826Y-35620390D01*
X188375826Y-35620390D02*
X188423445Y-35715628D01*
X188423445Y-35715628D02*
X188423445Y-36001342D01*
X188423445Y-36001342D02*
X188375826Y-36096580D01*
X188375826Y-36096580D02*
X188328207Y-36144200D01*
X188328207Y-36144200D02*
X188232969Y-36191819D01*
X188232969Y-36191819D02*
X188090112Y-36191819D01*
X188804398Y-36144200D02*
X188899636Y-36191819D01*
X188899636Y-36191819D02*
X189090112Y-36191819D01*
X189090112Y-36191819D02*
X189185350Y-36144200D01*
X189185350Y-36144200D02*
X189232969Y-36048961D01*
X189232969Y-36048961D02*
X189232969Y-36001342D01*
X189232969Y-36001342D02*
X189185350Y-35906104D01*
X189185350Y-35906104D02*
X189090112Y-35858485D01*
X189090112Y-35858485D02*
X188947255Y-35858485D01*
X188947255Y-35858485D02*
X188852017Y-35810866D01*
X188852017Y-35810866D02*
X188804398Y-35715628D01*
X188804398Y-35715628D02*
X188804398Y-35668009D01*
X188804398Y-35668009D02*
X188852017Y-35572771D01*
X188852017Y-35572771D02*
X188947255Y-35525152D01*
X188947255Y-35525152D02*
X189090112Y-35525152D01*
X189090112Y-35525152D02*
X189185350Y-35572771D01*
X186010779Y-33651819D02*
X186010779Y-32985152D01*
X186010779Y-32651819D02*
X185963160Y-32699438D01*
X185963160Y-32699438D02*
X186010779Y-32747057D01*
X186010779Y-32747057D02*
X186058398Y-32699438D01*
X186058398Y-32699438D02*
X186010779Y-32651819D01*
X186010779Y-32651819D02*
X186010779Y-32747057D01*
X186439350Y-33604200D02*
X186534588Y-33651819D01*
X186534588Y-33651819D02*
X186725064Y-33651819D01*
X186725064Y-33651819D02*
X186820302Y-33604200D01*
X186820302Y-33604200D02*
X186867921Y-33508961D01*
X186867921Y-33508961D02*
X186867921Y-33461342D01*
X186867921Y-33461342D02*
X186820302Y-33366104D01*
X186820302Y-33366104D02*
X186725064Y-33318485D01*
X186725064Y-33318485D02*
X186582207Y-33318485D01*
X186582207Y-33318485D02*
X186486969Y-33270866D01*
X186486969Y-33270866D02*
X186439350Y-33175628D01*
X186439350Y-33175628D02*
X186439350Y-33128009D01*
X186439350Y-33128009D02*
X186486969Y-33032771D01*
X186486969Y-33032771D02*
X186582207Y-32985152D01*
X186582207Y-32985152D02*
X186725064Y-32985152D01*
X186725064Y-32985152D02*
X186820302Y-33032771D01*
X187677445Y-33604200D02*
X187582207Y-33651819D01*
X187582207Y-33651819D02*
X187391731Y-33651819D01*
X187391731Y-33651819D02*
X187296493Y-33604200D01*
X187296493Y-33604200D02*
X187248874Y-33508961D01*
X187248874Y-33508961D02*
X187248874Y-33128009D01*
X187248874Y-33128009D02*
X187296493Y-33032771D01*
X187296493Y-33032771D02*
X187391731Y-32985152D01*
X187391731Y-32985152D02*
X187582207Y-32985152D01*
X187582207Y-32985152D02*
X187677445Y-33032771D01*
X187677445Y-33032771D02*
X187725064Y-33128009D01*
X187725064Y-33128009D02*
X187725064Y-33223247D01*
X187725064Y-33223247D02*
X187248874Y-33318485D01*
X188010779Y-32985152D02*
X188391731Y-32985152D01*
X188153636Y-32651819D02*
X188153636Y-33508961D01*
X188153636Y-33508961D02*
X188201255Y-33604200D01*
X188201255Y-33604200D02*
X188296493Y-33651819D01*
X188296493Y-33651819D02*
X188391731Y-33651819D01*
X186010779Y-31111819D02*
X186010779Y-30445152D01*
X186010779Y-30111819D02*
X185963160Y-30159438D01*
X185963160Y-30159438D02*
X186010779Y-30207057D01*
X186010779Y-30207057D02*
X186058398Y-30159438D01*
X186058398Y-30159438D02*
X186010779Y-30111819D01*
X186010779Y-30111819D02*
X186010779Y-30207057D01*
X186439350Y-31064200D02*
X186534588Y-31111819D01*
X186534588Y-31111819D02*
X186725064Y-31111819D01*
X186725064Y-31111819D02*
X186820302Y-31064200D01*
X186820302Y-31064200D02*
X186867921Y-30968961D01*
X186867921Y-30968961D02*
X186867921Y-30921342D01*
X186867921Y-30921342D02*
X186820302Y-30826104D01*
X186820302Y-30826104D02*
X186725064Y-30778485D01*
X186725064Y-30778485D02*
X186582207Y-30778485D01*
X186582207Y-30778485D02*
X186486969Y-30730866D01*
X186486969Y-30730866D02*
X186439350Y-30635628D01*
X186439350Y-30635628D02*
X186439350Y-30588009D01*
X186439350Y-30588009D02*
X186486969Y-30492771D01*
X186486969Y-30492771D02*
X186582207Y-30445152D01*
X186582207Y-30445152D02*
X186725064Y-30445152D01*
X186725064Y-30445152D02*
X186820302Y-30492771D01*
X187296493Y-30445152D02*
X187296493Y-31111819D01*
X187296493Y-30540390D02*
X187344112Y-30492771D01*
X187344112Y-30492771D02*
X187439350Y-30445152D01*
X187439350Y-30445152D02*
X187582207Y-30445152D01*
X187582207Y-30445152D02*
X187677445Y-30492771D01*
X187677445Y-30492771D02*
X187725064Y-30588009D01*
X187725064Y-30588009D02*
X187725064Y-31111819D01*
X188153636Y-31064200D02*
X188248874Y-31111819D01*
X188248874Y-31111819D02*
X188439350Y-31111819D01*
X188439350Y-31111819D02*
X188534588Y-31064200D01*
X188534588Y-31064200D02*
X188582207Y-30968961D01*
X188582207Y-30968961D02*
X188582207Y-30921342D01*
X188582207Y-30921342D02*
X188534588Y-30826104D01*
X188534588Y-30826104D02*
X188439350Y-30778485D01*
X188439350Y-30778485D02*
X188296493Y-30778485D01*
X188296493Y-30778485D02*
X188201255Y-30730866D01*
X188201255Y-30730866D02*
X188153636Y-30635628D01*
X188153636Y-30635628D02*
X188153636Y-30588009D01*
X188153636Y-30588009D02*
X188201255Y-30492771D01*
X188201255Y-30492771D02*
X188296493Y-30445152D01*
X188296493Y-30445152D02*
X188439350Y-30445152D01*
X188439350Y-30445152D02*
X188534588Y-30492771D01*
D11*
X74777939Y-67589638D02*
X73825558Y-67589638D01*
X73825558Y-67589638D02*
X73730320Y-68542019D01*
X73730320Y-68542019D02*
X73825558Y-68446780D01*
X73825558Y-68446780D02*
X74016034Y-68351542D01*
X74016034Y-68351542D02*
X74492225Y-68351542D01*
X74492225Y-68351542D02*
X74682701Y-68446780D01*
X74682701Y-68446780D02*
X74777939Y-68542019D01*
X74777939Y-68542019D02*
X74873177Y-68732495D01*
X74873177Y-68732495D02*
X74873177Y-69208685D01*
X74873177Y-69208685D02*
X74777939Y-69399161D01*
X74777939Y-69399161D02*
X74682701Y-69494400D01*
X74682701Y-69494400D02*
X74492225Y-69589638D01*
X74492225Y-69589638D02*
X74016034Y-69589638D01*
X74016034Y-69589638D02*
X73825558Y-69494400D01*
X73825558Y-69494400D02*
X73730320Y-69399161D01*
X75444606Y-67589638D02*
X76111272Y-69589638D01*
X76111272Y-69589638D02*
X76777939Y-67589638D01*
X79920797Y-69589638D02*
X78968416Y-69589638D01*
X78968416Y-69589638D02*
X78968416Y-67589638D01*
X80587464Y-69589638D02*
X80587464Y-68256304D01*
X80587464Y-67589638D02*
X80492226Y-67684876D01*
X80492226Y-67684876D02*
X80587464Y-67780114D01*
X80587464Y-67780114D02*
X80682702Y-67684876D01*
X80682702Y-67684876D02*
X80587464Y-67589638D01*
X80587464Y-67589638D02*
X80587464Y-67780114D01*
X81539845Y-68256304D02*
X81539845Y-69589638D01*
X81539845Y-68446780D02*
X81635083Y-68351542D01*
X81635083Y-68351542D02*
X81825559Y-68256304D01*
X81825559Y-68256304D02*
X82111274Y-68256304D01*
X82111274Y-68256304D02*
X82301750Y-68351542D01*
X82301750Y-68351542D02*
X82396988Y-68542019D01*
X82396988Y-68542019D02*
X82396988Y-69589638D01*
X84111274Y-69494400D02*
X83920798Y-69589638D01*
X83920798Y-69589638D02*
X83539845Y-69589638D01*
X83539845Y-69589638D02*
X83349369Y-69494400D01*
X83349369Y-69494400D02*
X83254131Y-69303923D01*
X83254131Y-69303923D02*
X83254131Y-68542019D01*
X83254131Y-68542019D02*
X83349369Y-68351542D01*
X83349369Y-68351542D02*
X83539845Y-68256304D01*
X83539845Y-68256304D02*
X83920798Y-68256304D01*
X83920798Y-68256304D02*
X84111274Y-68351542D01*
X84111274Y-68351542D02*
X84206512Y-68542019D01*
X84206512Y-68542019D02*
X84206512Y-68732495D01*
X84206512Y-68732495D02*
X83254131Y-68922971D01*
X85920798Y-69589638D02*
X85920798Y-68542019D01*
X85920798Y-68542019D02*
X85825560Y-68351542D01*
X85825560Y-68351542D02*
X85635084Y-68256304D01*
X85635084Y-68256304D02*
X85254131Y-68256304D01*
X85254131Y-68256304D02*
X85063655Y-68351542D01*
X85920798Y-69494400D02*
X85730322Y-69589638D01*
X85730322Y-69589638D02*
X85254131Y-69589638D01*
X85254131Y-69589638D02*
X85063655Y-69494400D01*
X85063655Y-69494400D02*
X84968417Y-69303923D01*
X84968417Y-69303923D02*
X84968417Y-69113447D01*
X84968417Y-69113447D02*
X85063655Y-68922971D01*
X85063655Y-68922971D02*
X85254131Y-68827733D01*
X85254131Y-68827733D02*
X85730322Y-68827733D01*
X85730322Y-68827733D02*
X85920798Y-68732495D01*
X86873179Y-69589638D02*
X86873179Y-68256304D01*
X86873179Y-68637257D02*
X86968417Y-68446780D01*
X86968417Y-68446780D02*
X87063655Y-68351542D01*
X87063655Y-68351542D02*
X87254131Y-68256304D01*
X87254131Y-68256304D02*
X87444608Y-68256304D01*
X89635084Y-69589638D02*
X89635084Y-67589638D01*
X89635084Y-67589638D02*
X90111274Y-67589638D01*
X90111274Y-67589638D02*
X90396989Y-67684876D01*
X90396989Y-67684876D02*
X90587465Y-67875352D01*
X90587465Y-67875352D02*
X90682703Y-68065828D01*
X90682703Y-68065828D02*
X90777941Y-68446780D01*
X90777941Y-68446780D02*
X90777941Y-68732495D01*
X90777941Y-68732495D02*
X90682703Y-69113447D01*
X90682703Y-69113447D02*
X90587465Y-69303923D01*
X90587465Y-69303923D02*
X90396989Y-69494400D01*
X90396989Y-69494400D02*
X90111274Y-69589638D01*
X90111274Y-69589638D02*
X89635084Y-69589638D01*
X91635084Y-69589638D02*
X91635084Y-68256304D01*
X91635084Y-68637257D02*
X91730322Y-68446780D01*
X91730322Y-68446780D02*
X91825560Y-68351542D01*
X91825560Y-68351542D02*
X92016036Y-68256304D01*
X92016036Y-68256304D02*
X92206513Y-68256304D01*
X93158893Y-69589638D02*
X92968417Y-69494400D01*
X92968417Y-69494400D02*
X92873179Y-69399161D01*
X92873179Y-69399161D02*
X92777941Y-69208685D01*
X92777941Y-69208685D02*
X92777941Y-68637257D01*
X92777941Y-68637257D02*
X92873179Y-68446780D01*
X92873179Y-68446780D02*
X92968417Y-68351542D01*
X92968417Y-68351542D02*
X93158893Y-68256304D01*
X93158893Y-68256304D02*
X93444608Y-68256304D01*
X93444608Y-68256304D02*
X93635084Y-68351542D01*
X93635084Y-68351542D02*
X93730322Y-68446780D01*
X93730322Y-68446780D02*
X93825560Y-68637257D01*
X93825560Y-68637257D02*
X93825560Y-69208685D01*
X93825560Y-69208685D02*
X93730322Y-69399161D01*
X93730322Y-69399161D02*
X93635084Y-69494400D01*
X93635084Y-69494400D02*
X93444608Y-69589638D01*
X93444608Y-69589638D02*
X93158893Y-69589638D01*
X94682703Y-68256304D02*
X94682703Y-70256304D01*
X94682703Y-68351542D02*
X94873179Y-68256304D01*
X94873179Y-68256304D02*
X95254132Y-68256304D01*
X95254132Y-68256304D02*
X95444608Y-68351542D01*
X95444608Y-68351542D02*
X95539846Y-68446780D01*
X95539846Y-68446780D02*
X95635084Y-68637257D01*
X95635084Y-68637257D02*
X95635084Y-69208685D01*
X95635084Y-69208685D02*
X95539846Y-69399161D01*
X95539846Y-69399161D02*
X95444608Y-69494400D01*
X95444608Y-69494400D02*
X95254132Y-69589638D01*
X95254132Y-69589638D02*
X94873179Y-69589638D01*
X94873179Y-69589638D02*
X94682703Y-69494400D01*
X96777941Y-69589638D02*
X96587465Y-69494400D01*
X96587465Y-69494400D02*
X96492227Y-69399161D01*
X96492227Y-69399161D02*
X96396989Y-69208685D01*
X96396989Y-69208685D02*
X96396989Y-68637257D01*
X96396989Y-68637257D02*
X96492227Y-68446780D01*
X96492227Y-68446780D02*
X96587465Y-68351542D01*
X96587465Y-68351542D02*
X96777941Y-68256304D01*
X96777941Y-68256304D02*
X97063656Y-68256304D01*
X97063656Y-68256304D02*
X97254132Y-68351542D01*
X97254132Y-68351542D02*
X97349370Y-68446780D01*
X97349370Y-68446780D02*
X97444608Y-68637257D01*
X97444608Y-68637257D02*
X97444608Y-69208685D01*
X97444608Y-69208685D02*
X97349370Y-69399161D01*
X97349370Y-69399161D02*
X97254132Y-69494400D01*
X97254132Y-69494400D02*
X97063656Y-69589638D01*
X97063656Y-69589638D02*
X96777941Y-69589638D01*
X99158894Y-68256304D02*
X99158894Y-69589638D01*
X98301751Y-68256304D02*
X98301751Y-69303923D01*
X98301751Y-69303923D02*
X98396989Y-69494400D01*
X98396989Y-69494400D02*
X98587465Y-69589638D01*
X98587465Y-69589638D02*
X98873180Y-69589638D01*
X98873180Y-69589638D02*
X99063656Y-69494400D01*
X99063656Y-69494400D02*
X99158894Y-69399161D01*
X99825561Y-68256304D02*
X100587465Y-68256304D01*
X100111275Y-67589638D02*
X100111275Y-69303923D01*
X100111275Y-69303923D02*
X100206513Y-69494400D01*
X100206513Y-69494400D02*
X100396989Y-69589638D01*
X100396989Y-69589638D02*
X100587465Y-69589638D01*
X103920799Y-69589638D02*
X103254132Y-68637257D01*
X102777942Y-69589638D02*
X102777942Y-67589638D01*
X102777942Y-67589638D02*
X103539847Y-67589638D01*
X103539847Y-67589638D02*
X103730323Y-67684876D01*
X103730323Y-67684876D02*
X103825561Y-67780114D01*
X103825561Y-67780114D02*
X103920799Y-67970590D01*
X103920799Y-67970590D02*
X103920799Y-68256304D01*
X103920799Y-68256304D02*
X103825561Y-68446780D01*
X103825561Y-68446780D02*
X103730323Y-68542019D01*
X103730323Y-68542019D02*
X103539847Y-68637257D01*
X103539847Y-68637257D02*
X102777942Y-68637257D01*
X105539847Y-69494400D02*
X105349371Y-69589638D01*
X105349371Y-69589638D02*
X104968418Y-69589638D01*
X104968418Y-69589638D02*
X104777942Y-69494400D01*
X104777942Y-69494400D02*
X104682704Y-69303923D01*
X104682704Y-69303923D02*
X104682704Y-68542019D01*
X104682704Y-68542019D02*
X104777942Y-68351542D01*
X104777942Y-68351542D02*
X104968418Y-68256304D01*
X104968418Y-68256304D02*
X105349371Y-68256304D01*
X105349371Y-68256304D02*
X105539847Y-68351542D01*
X105539847Y-68351542D02*
X105635085Y-68542019D01*
X105635085Y-68542019D02*
X105635085Y-68732495D01*
X105635085Y-68732495D02*
X104682704Y-68922971D01*
X107349371Y-68256304D02*
X107349371Y-69875352D01*
X107349371Y-69875352D02*
X107254133Y-70065828D01*
X107254133Y-70065828D02*
X107158895Y-70161066D01*
X107158895Y-70161066D02*
X106968418Y-70256304D01*
X106968418Y-70256304D02*
X106682704Y-70256304D01*
X106682704Y-70256304D02*
X106492228Y-70161066D01*
X107349371Y-69494400D02*
X107158895Y-69589638D01*
X107158895Y-69589638D02*
X106777942Y-69589638D01*
X106777942Y-69589638D02*
X106587466Y-69494400D01*
X106587466Y-69494400D02*
X106492228Y-69399161D01*
X106492228Y-69399161D02*
X106396990Y-69208685D01*
X106396990Y-69208685D02*
X106396990Y-68637257D01*
X106396990Y-68637257D02*
X106492228Y-68446780D01*
X106492228Y-68446780D02*
X106587466Y-68351542D01*
X106587466Y-68351542D02*
X106777942Y-68256304D01*
X106777942Y-68256304D02*
X107158895Y-68256304D01*
X107158895Y-68256304D02*
X107349371Y-68351542D01*
X109158895Y-68256304D02*
X109158895Y-69589638D01*
X108301752Y-68256304D02*
X108301752Y-69303923D01*
X108301752Y-69303923D02*
X108396990Y-69494400D01*
X108396990Y-69494400D02*
X108587466Y-69589638D01*
X108587466Y-69589638D02*
X108873181Y-69589638D01*
X108873181Y-69589638D02*
X109063657Y-69494400D01*
X109063657Y-69494400D02*
X109158895Y-69399161D01*
X110396990Y-69589638D02*
X110206514Y-69494400D01*
X110206514Y-69494400D02*
X110111276Y-69303923D01*
X110111276Y-69303923D02*
X110111276Y-67589638D01*
X112016038Y-69589638D02*
X112016038Y-68542019D01*
X112016038Y-68542019D02*
X111920800Y-68351542D01*
X111920800Y-68351542D02*
X111730324Y-68256304D01*
X111730324Y-68256304D02*
X111349371Y-68256304D01*
X111349371Y-68256304D02*
X111158895Y-68351542D01*
X112016038Y-69494400D02*
X111825562Y-69589638D01*
X111825562Y-69589638D02*
X111349371Y-69589638D01*
X111349371Y-69589638D02*
X111158895Y-69494400D01*
X111158895Y-69494400D02*
X111063657Y-69303923D01*
X111063657Y-69303923D02*
X111063657Y-69113447D01*
X111063657Y-69113447D02*
X111158895Y-68922971D01*
X111158895Y-68922971D02*
X111349371Y-68827733D01*
X111349371Y-68827733D02*
X111825562Y-68827733D01*
X111825562Y-68827733D02*
X112016038Y-68732495D01*
X112682705Y-68256304D02*
X113444609Y-68256304D01*
X112968419Y-67589638D02*
X112968419Y-69303923D01*
X112968419Y-69303923D02*
X113063657Y-69494400D01*
X113063657Y-69494400D02*
X113254133Y-69589638D01*
X113254133Y-69589638D02*
X113444609Y-69589638D01*
X114396990Y-69589638D02*
X114206514Y-69494400D01*
X114206514Y-69494400D02*
X114111276Y-69399161D01*
X114111276Y-69399161D02*
X114016038Y-69208685D01*
X114016038Y-69208685D02*
X114016038Y-68637257D01*
X114016038Y-68637257D02*
X114111276Y-68446780D01*
X114111276Y-68446780D02*
X114206514Y-68351542D01*
X114206514Y-68351542D02*
X114396990Y-68256304D01*
X114396990Y-68256304D02*
X114682705Y-68256304D01*
X114682705Y-68256304D02*
X114873181Y-68351542D01*
X114873181Y-68351542D02*
X114968419Y-68446780D01*
X114968419Y-68446780D02*
X115063657Y-68637257D01*
X115063657Y-68637257D02*
X115063657Y-69208685D01*
X115063657Y-69208685D02*
X114968419Y-69399161D01*
X114968419Y-69399161D02*
X114873181Y-69494400D01*
X114873181Y-69494400D02*
X114682705Y-69589638D01*
X114682705Y-69589638D02*
X114396990Y-69589638D01*
X115920800Y-69589638D02*
X115920800Y-68256304D01*
X115920800Y-68637257D02*
X116016038Y-68446780D01*
X116016038Y-68446780D02*
X116111276Y-68351542D01*
X116111276Y-68351542D02*
X116301752Y-68256304D01*
X116301752Y-68256304D02*
X116492229Y-68256304D01*
X129349367Y-68542019D02*
X130016034Y-68542019D01*
X130301748Y-69589638D02*
X129349367Y-69589638D01*
X129349367Y-69589638D02*
X129349367Y-67589638D01*
X129349367Y-67589638D02*
X130301748Y-67589638D01*
X131158891Y-69589638D02*
X131158891Y-67589638D01*
X131158891Y-67589638D02*
X131920796Y-67589638D01*
X131920796Y-67589638D02*
X132111272Y-67684876D01*
X132111272Y-67684876D02*
X132206510Y-67780114D01*
X132206510Y-67780114D02*
X132301748Y-67970590D01*
X132301748Y-67970590D02*
X132301748Y-68256304D01*
X132301748Y-68256304D02*
X132206510Y-68446780D01*
X132206510Y-68446780D02*
X132111272Y-68542019D01*
X132111272Y-68542019D02*
X131920796Y-68637257D01*
X131920796Y-68637257D02*
X131158891Y-68637257D01*
X134301748Y-69589638D02*
X133635081Y-68637257D01*
X133158891Y-69589638D02*
X133158891Y-67589638D01*
X133158891Y-67589638D02*
X133920796Y-67589638D01*
X133920796Y-67589638D02*
X134111272Y-67684876D01*
X134111272Y-67684876D02*
X134206510Y-67780114D01*
X134206510Y-67780114D02*
X134301748Y-67970590D01*
X134301748Y-67970590D02*
X134301748Y-68256304D01*
X134301748Y-68256304D02*
X134206510Y-68446780D01*
X134206510Y-68446780D02*
X134111272Y-68542019D01*
X134111272Y-68542019D02*
X133920796Y-68637257D01*
X133920796Y-68637257D02*
X133158891Y-68637257D01*
X135158891Y-69589638D02*
X135158891Y-67589638D01*
X135825558Y-67589638D02*
X136968415Y-67589638D01*
X136396986Y-69589638D02*
X136396986Y-67589638D01*
X138777939Y-69399161D02*
X138682701Y-69494400D01*
X138682701Y-69494400D02*
X138396987Y-69589638D01*
X138396987Y-69589638D02*
X138206511Y-69589638D01*
X138206511Y-69589638D02*
X137920796Y-69494400D01*
X137920796Y-69494400D02*
X137730320Y-69303923D01*
X137730320Y-69303923D02*
X137635082Y-69113447D01*
X137635082Y-69113447D02*
X137539844Y-68732495D01*
X137539844Y-68732495D02*
X137539844Y-68446780D01*
X137539844Y-68446780D02*
X137635082Y-68065828D01*
X137635082Y-68065828D02*
X137730320Y-67875352D01*
X137730320Y-67875352D02*
X137920796Y-67684876D01*
X137920796Y-67684876D02*
X138206511Y-67589638D01*
X138206511Y-67589638D02*
X138396987Y-67589638D01*
X138396987Y-67589638D02*
X138682701Y-67684876D01*
X138682701Y-67684876D02*
X138777939Y-67780114D01*
X139635082Y-69589638D02*
X139635082Y-67589638D01*
X139635082Y-68542019D02*
X140777939Y-68542019D01*
X140777939Y-69589638D02*
X140777939Y-67589638D01*
X141635082Y-69018209D02*
X142587463Y-69018209D01*
X141444606Y-69589638D02*
X142111272Y-67589638D01*
X142111272Y-67589638D02*
X142777939Y-69589638D01*
X144587463Y-69589638D02*
X143920796Y-68637257D01*
X143444606Y-69589638D02*
X143444606Y-67589638D01*
X143444606Y-67589638D02*
X144206511Y-67589638D01*
X144206511Y-67589638D02*
X144396987Y-67684876D01*
X144396987Y-67684876D02*
X144492225Y-67780114D01*
X144492225Y-67780114D02*
X144587463Y-67970590D01*
X144587463Y-67970590D02*
X144587463Y-68256304D01*
X144587463Y-68256304D02*
X144492225Y-68446780D01*
X144492225Y-68446780D02*
X144396987Y-68542019D01*
X144396987Y-68542019D02*
X144206511Y-68637257D01*
X144206511Y-68637257D02*
X143444606Y-68637257D01*
X145444606Y-69589638D02*
X145444606Y-67589638D01*
X145444606Y-67589638D02*
X145920796Y-67589638D01*
X145920796Y-67589638D02*
X146206511Y-67684876D01*
X146206511Y-67684876D02*
X146396987Y-67875352D01*
X146396987Y-67875352D02*
X146492225Y-68065828D01*
X146492225Y-68065828D02*
X146587463Y-68446780D01*
X146587463Y-68446780D02*
X146587463Y-68732495D01*
X146587463Y-68732495D02*
X146492225Y-69113447D01*
X146492225Y-69113447D02*
X146396987Y-69303923D01*
X146396987Y-69303923D02*
X146206511Y-69494400D01*
X146206511Y-69494400D02*
X145920796Y-69589638D01*
X145920796Y-69589638D02*
X145444606Y-69589638D01*
X147539844Y-67589638D02*
X147349368Y-67970590D01*
X148301749Y-67780114D02*
X148396987Y-67684876D01*
X148396987Y-67684876D02*
X148587463Y-67589638D01*
X148587463Y-67589638D02*
X149063654Y-67589638D01*
X149063654Y-67589638D02*
X149254130Y-67684876D01*
X149254130Y-67684876D02*
X149349368Y-67780114D01*
X149349368Y-67780114D02*
X149444606Y-67970590D01*
X149444606Y-67970590D02*
X149444606Y-68161066D01*
X149444606Y-68161066D02*
X149349368Y-68446780D01*
X149349368Y-68446780D02*
X148206511Y-69589638D01*
X148206511Y-69589638D02*
X149444606Y-69589638D01*
X151254130Y-67589638D02*
X150301749Y-67589638D01*
X150301749Y-67589638D02*
X150206511Y-68542019D01*
X150206511Y-68542019D02*
X150301749Y-68446780D01*
X150301749Y-68446780D02*
X150492225Y-68351542D01*
X150492225Y-68351542D02*
X150968416Y-68351542D01*
X150968416Y-68351542D02*
X151158892Y-68446780D01*
X151158892Y-68446780D02*
X151254130Y-68542019D01*
X151254130Y-68542019D02*
X151349368Y-68732495D01*
X151349368Y-68732495D02*
X151349368Y-69208685D01*
X151349368Y-69208685D02*
X151254130Y-69399161D01*
X151254130Y-69399161D02*
X151158892Y-69494400D01*
X151158892Y-69494400D02*
X150968416Y-69589638D01*
X150968416Y-69589638D02*
X150492225Y-69589638D01*
X150492225Y-69589638D02*
X150301749Y-69494400D01*
X150301749Y-69494400D02*
X150206511Y-69399161D01*
D12*
X75584280Y-44757667D02*
X75584280Y-41257667D01*
X75584280Y-41257667D02*
X76417613Y-41257667D01*
X76417613Y-41257667D02*
X76917613Y-41424334D01*
X76917613Y-41424334D02*
X77250947Y-41757667D01*
X77250947Y-41757667D02*
X77417613Y-42091001D01*
X77417613Y-42091001D02*
X77584280Y-42757667D01*
X77584280Y-42757667D02*
X77584280Y-43257667D01*
X77584280Y-43257667D02*
X77417613Y-43924334D01*
X77417613Y-43924334D02*
X77250947Y-44257667D01*
X77250947Y-44257667D02*
X76917613Y-44591001D01*
X76917613Y-44591001D02*
X76417613Y-44757667D01*
X76417613Y-44757667D02*
X75584280Y-44757667D01*
X79084280Y-44757667D02*
X79084280Y-42424334D01*
X79084280Y-41257667D02*
X78917613Y-41424334D01*
X78917613Y-41424334D02*
X79084280Y-41591001D01*
X79084280Y-41591001D02*
X79250947Y-41424334D01*
X79250947Y-41424334D02*
X79084280Y-41257667D01*
X79084280Y-41257667D02*
X79084280Y-41591001D01*
X80584280Y-44591001D02*
X80917614Y-44757667D01*
X80917614Y-44757667D02*
X81584280Y-44757667D01*
X81584280Y-44757667D02*
X81917614Y-44591001D01*
X81917614Y-44591001D02*
X82084280Y-44257667D01*
X82084280Y-44257667D02*
X82084280Y-44091001D01*
X82084280Y-44091001D02*
X81917614Y-43757667D01*
X81917614Y-43757667D02*
X81584280Y-43591001D01*
X81584280Y-43591001D02*
X81084280Y-43591001D01*
X81084280Y-43591001D02*
X80750947Y-43424334D01*
X80750947Y-43424334D02*
X80584280Y-43091001D01*
X80584280Y-43091001D02*
X80584280Y-42924334D01*
X80584280Y-42924334D02*
X80750947Y-42591001D01*
X80750947Y-42591001D02*
X81084280Y-42424334D01*
X81084280Y-42424334D02*
X81584280Y-42424334D01*
X81584280Y-42424334D02*
X81917614Y-42591001D01*
X83750947Y-41257667D02*
X83417613Y-41924334D01*
X87750947Y-44591001D02*
X88250947Y-44757667D01*
X88250947Y-44757667D02*
X89084281Y-44757667D01*
X89084281Y-44757667D02*
X89417614Y-44591001D01*
X89417614Y-44591001D02*
X89584281Y-44424334D01*
X89584281Y-44424334D02*
X89750947Y-44091001D01*
X89750947Y-44091001D02*
X89750947Y-43757667D01*
X89750947Y-43757667D02*
X89584281Y-43424334D01*
X89584281Y-43424334D02*
X89417614Y-43257667D01*
X89417614Y-43257667D02*
X89084281Y-43091001D01*
X89084281Y-43091001D02*
X88417614Y-42924334D01*
X88417614Y-42924334D02*
X88084281Y-42757667D01*
X88084281Y-42757667D02*
X87917614Y-42591001D01*
X87917614Y-42591001D02*
X87750947Y-42257667D01*
X87750947Y-42257667D02*
X87750947Y-41924334D01*
X87750947Y-41924334D02*
X87917614Y-41591001D01*
X87917614Y-41591001D02*
X88084281Y-41424334D01*
X88084281Y-41424334D02*
X88417614Y-41257667D01*
X88417614Y-41257667D02*
X89250947Y-41257667D01*
X89250947Y-41257667D02*
X89750947Y-41424334D01*
X91250947Y-44757667D02*
X91250947Y-41257667D01*
X92750947Y-44757667D02*
X92750947Y-42924334D01*
X92750947Y-42924334D02*
X92584280Y-42591001D01*
X92584280Y-42591001D02*
X92250947Y-42424334D01*
X92250947Y-42424334D02*
X91750947Y-42424334D01*
X91750947Y-42424334D02*
X91417614Y-42591001D01*
X91417614Y-42591001D02*
X91250947Y-42757667D01*
X94417614Y-44757667D02*
X94417614Y-42424334D01*
X94417614Y-41257667D02*
X94250947Y-41424334D01*
X94250947Y-41424334D02*
X94417614Y-41591001D01*
X94417614Y-41591001D02*
X94584281Y-41424334D01*
X94584281Y-41424334D02*
X94417614Y-41257667D01*
X94417614Y-41257667D02*
X94417614Y-41591001D01*
X100584281Y-41424334D02*
X100250948Y-41257667D01*
X100250948Y-41257667D02*
X99750948Y-41257667D01*
X99750948Y-41257667D02*
X99250948Y-41424334D01*
X99250948Y-41424334D02*
X98917615Y-41757667D01*
X98917615Y-41757667D02*
X98750948Y-42091001D01*
X98750948Y-42091001D02*
X98584281Y-42757667D01*
X98584281Y-42757667D02*
X98584281Y-43257667D01*
X98584281Y-43257667D02*
X98750948Y-43924334D01*
X98750948Y-43924334D02*
X98917615Y-44257667D01*
X98917615Y-44257667D02*
X99250948Y-44591001D01*
X99250948Y-44591001D02*
X99750948Y-44757667D01*
X99750948Y-44757667D02*
X100084281Y-44757667D01*
X100084281Y-44757667D02*
X100584281Y-44591001D01*
X100584281Y-44591001D02*
X100750948Y-44424334D01*
X100750948Y-44424334D02*
X100750948Y-43257667D01*
X100750948Y-43257667D02*
X100084281Y-43257667D01*
X103750948Y-42424334D02*
X103750948Y-44757667D01*
X102250948Y-42424334D02*
X102250948Y-44257667D01*
X102250948Y-44257667D02*
X102417615Y-44591001D01*
X102417615Y-44591001D02*
X102750948Y-44757667D01*
X102750948Y-44757667D02*
X103250948Y-44757667D01*
X103250948Y-44757667D02*
X103584281Y-44591001D01*
X103584281Y-44591001D02*
X103750948Y-44424334D01*
X105417615Y-42424334D02*
X105417615Y-44757667D01*
X105417615Y-42757667D02*
X105584282Y-42591001D01*
X105584282Y-42591001D02*
X105917615Y-42424334D01*
X105917615Y-42424334D02*
X106417615Y-42424334D01*
X106417615Y-42424334D02*
X106750948Y-42591001D01*
X106750948Y-42591001D02*
X106917615Y-42924334D01*
X106917615Y-42924334D02*
X106917615Y-44757667D01*
X108584282Y-42424334D02*
X108584282Y-44757667D01*
X108584282Y-42757667D02*
X108750949Y-42591001D01*
X108750949Y-42591001D02*
X109084282Y-42424334D01*
X109084282Y-42424334D02*
X109584282Y-42424334D01*
X109584282Y-42424334D02*
X109917615Y-42591001D01*
X109917615Y-42591001D02*
X110084282Y-42924334D01*
X110084282Y-42924334D02*
X110084282Y-44757667D01*
X113250949Y-44757667D02*
X113250949Y-42924334D01*
X113250949Y-42924334D02*
X113084282Y-42591001D01*
X113084282Y-42591001D02*
X112750949Y-42424334D01*
X112750949Y-42424334D02*
X112084282Y-42424334D01*
X112084282Y-42424334D02*
X111750949Y-42591001D01*
X113250949Y-44591001D02*
X112917616Y-44757667D01*
X112917616Y-44757667D02*
X112084282Y-44757667D01*
X112084282Y-44757667D02*
X111750949Y-44591001D01*
X111750949Y-44591001D02*
X111584282Y-44257667D01*
X111584282Y-44257667D02*
X111584282Y-43924334D01*
X111584282Y-43924334D02*
X111750949Y-43591001D01*
X111750949Y-43591001D02*
X112084282Y-43424334D01*
X112084282Y-43424334D02*
X112917616Y-43424334D01*
X112917616Y-43424334D02*
X113250949Y-43257667D01*
X119417616Y-41424334D02*
X119084283Y-41257667D01*
X119084283Y-41257667D02*
X118584283Y-41257667D01*
X118584283Y-41257667D02*
X118084283Y-41424334D01*
X118084283Y-41424334D02*
X117750950Y-41757667D01*
X117750950Y-41757667D02*
X117584283Y-42091001D01*
X117584283Y-42091001D02*
X117417616Y-42757667D01*
X117417616Y-42757667D02*
X117417616Y-43257667D01*
X117417616Y-43257667D02*
X117584283Y-43924334D01*
X117584283Y-43924334D02*
X117750950Y-44257667D01*
X117750950Y-44257667D02*
X118084283Y-44591001D01*
X118084283Y-44591001D02*
X118584283Y-44757667D01*
X118584283Y-44757667D02*
X118917616Y-44757667D01*
X118917616Y-44757667D02*
X119417616Y-44591001D01*
X119417616Y-44591001D02*
X119584283Y-44424334D01*
X119584283Y-44424334D02*
X119584283Y-43257667D01*
X119584283Y-43257667D02*
X118917616Y-43257667D01*
X122417616Y-44591001D02*
X122084283Y-44757667D01*
X122084283Y-44757667D02*
X121417616Y-44757667D01*
X121417616Y-44757667D02*
X121084283Y-44591001D01*
X121084283Y-44591001D02*
X120917616Y-44257667D01*
X120917616Y-44257667D02*
X120917616Y-42924334D01*
X120917616Y-42924334D02*
X121084283Y-42591001D01*
X121084283Y-42591001D02*
X121417616Y-42424334D01*
X121417616Y-42424334D02*
X122084283Y-42424334D01*
X122084283Y-42424334D02*
X122417616Y-42591001D01*
X122417616Y-42591001D02*
X122584283Y-42924334D01*
X122584283Y-42924334D02*
X122584283Y-43257667D01*
X122584283Y-43257667D02*
X120917616Y-43591001D01*
X123584283Y-42424334D02*
X124917616Y-42424334D01*
X124084283Y-41257667D02*
X124084283Y-44257667D01*
X124084283Y-44257667D02*
X124250950Y-44591001D01*
X124250950Y-44591001D02*
X124584283Y-44757667D01*
X124584283Y-44757667D02*
X124917616Y-44757667D01*
X128750950Y-44757667D02*
X128750950Y-41257667D01*
X128750950Y-42924334D02*
X130750950Y-42924334D01*
X130750950Y-44757667D02*
X130750950Y-41257667D01*
X132917617Y-44757667D02*
X132584284Y-44591001D01*
X132584284Y-44591001D02*
X132417617Y-44424334D01*
X132417617Y-44424334D02*
X132250950Y-44091001D01*
X132250950Y-44091001D02*
X132250950Y-43091001D01*
X132250950Y-43091001D02*
X132417617Y-42757667D01*
X132417617Y-42757667D02*
X132584284Y-42591001D01*
X132584284Y-42591001D02*
X132917617Y-42424334D01*
X132917617Y-42424334D02*
X133417617Y-42424334D01*
X133417617Y-42424334D02*
X133750950Y-42591001D01*
X133750950Y-42591001D02*
X133917617Y-42757667D01*
X133917617Y-42757667D02*
X134084284Y-43091001D01*
X134084284Y-43091001D02*
X134084284Y-44091001D01*
X134084284Y-44091001D02*
X133917617Y-44424334D01*
X133917617Y-44424334D02*
X133750950Y-44591001D01*
X133750950Y-44591001D02*
X133417617Y-44757667D01*
X133417617Y-44757667D02*
X132917617Y-44757667D01*
X135084284Y-42424334D02*
X136417617Y-42424334D01*
X135584284Y-41257667D02*
X135584284Y-44257667D01*
X135584284Y-44257667D02*
X135750951Y-44591001D01*
X135750951Y-44591001D02*
X136084284Y-44757667D01*
X136084284Y-44757667D02*
X136417617Y-44757667D01*
D11*
X37820361Y-41186510D02*
X37820361Y-41567463D01*
X37820361Y-41567463D02*
X37725123Y-41757939D01*
X37725123Y-41757939D02*
X37534647Y-41948415D01*
X37534647Y-41948415D02*
X37153695Y-42043653D01*
X37153695Y-42043653D02*
X36487028Y-42043653D01*
X36487028Y-42043653D02*
X36106076Y-41948415D01*
X36106076Y-41948415D02*
X35915600Y-41757939D01*
X35915600Y-41757939D02*
X35820361Y-41567463D01*
X35820361Y-41567463D02*
X35820361Y-41186510D01*
X35820361Y-41186510D02*
X35915600Y-40996034D01*
X35915600Y-40996034D02*
X36106076Y-40805558D01*
X36106076Y-40805558D02*
X36487028Y-40710320D01*
X36487028Y-40710320D02*
X37153695Y-40710320D01*
X37153695Y-40710320D02*
X37534647Y-40805558D01*
X37534647Y-40805558D02*
X37725123Y-40996034D01*
X37725123Y-40996034D02*
X37820361Y-41186510D01*
X37820361Y-42900796D02*
X36201314Y-42900796D01*
X36201314Y-42900796D02*
X36010838Y-42996034D01*
X36010838Y-42996034D02*
X35915600Y-43091272D01*
X35915600Y-43091272D02*
X35820361Y-43281748D01*
X35820361Y-43281748D02*
X35820361Y-43662701D01*
X35820361Y-43662701D02*
X35915600Y-43853177D01*
X35915600Y-43853177D02*
X36010838Y-43948415D01*
X36010838Y-43948415D02*
X36201314Y-44043653D01*
X36201314Y-44043653D02*
X37820361Y-44043653D01*
X37820361Y-44710320D02*
X37820361Y-45853177D01*
X35820361Y-45281748D02*
X37820361Y-45281748D01*
X37820361Y-66586510D02*
X37820361Y-66967463D01*
X37820361Y-66967463D02*
X37725123Y-67157939D01*
X37725123Y-67157939D02*
X37534647Y-67348415D01*
X37534647Y-67348415D02*
X37153695Y-67443653D01*
X37153695Y-67443653D02*
X36487028Y-67443653D01*
X36487028Y-67443653D02*
X36106076Y-67348415D01*
X36106076Y-67348415D02*
X35915600Y-67157939D01*
X35915600Y-67157939D02*
X35820361Y-66967463D01*
X35820361Y-66967463D02*
X35820361Y-66586510D01*
X35820361Y-66586510D02*
X35915600Y-66396034D01*
X35915600Y-66396034D02*
X36106076Y-66205558D01*
X36106076Y-66205558D02*
X36487028Y-66110320D01*
X36487028Y-66110320D02*
X37153695Y-66110320D01*
X37153695Y-66110320D02*
X37534647Y-66205558D01*
X37534647Y-66205558D02*
X37725123Y-66396034D01*
X37725123Y-66396034D02*
X37820361Y-66586510D01*
X37820361Y-68300796D02*
X36201314Y-68300796D01*
X36201314Y-68300796D02*
X36010838Y-68396034D01*
X36010838Y-68396034D02*
X35915600Y-68491272D01*
X35915600Y-68491272D02*
X35820361Y-68681748D01*
X35820361Y-68681748D02*
X35820361Y-69062701D01*
X35820361Y-69062701D02*
X35915600Y-69253177D01*
X35915600Y-69253177D02*
X36010838Y-69348415D01*
X36010838Y-69348415D02*
X36201314Y-69443653D01*
X36201314Y-69443653D02*
X37820361Y-69443653D01*
X37820361Y-70110320D02*
X37820361Y-71253177D01*
X35820361Y-70681748D02*
X37820361Y-70681748D01*
X37725123Y-49219177D02*
X37820361Y-49028701D01*
X37820361Y-49028701D02*
X37820361Y-48742987D01*
X37820361Y-48742987D02*
X37725123Y-48457272D01*
X37725123Y-48457272D02*
X37534647Y-48266796D01*
X37534647Y-48266796D02*
X37344171Y-48171558D01*
X37344171Y-48171558D02*
X36963219Y-48076320D01*
X36963219Y-48076320D02*
X36677504Y-48076320D01*
X36677504Y-48076320D02*
X36296552Y-48171558D01*
X36296552Y-48171558D02*
X36106076Y-48266796D01*
X36106076Y-48266796D02*
X35915600Y-48457272D01*
X35915600Y-48457272D02*
X35820361Y-48742987D01*
X35820361Y-48742987D02*
X35820361Y-48933463D01*
X35820361Y-48933463D02*
X35915600Y-49219177D01*
X35915600Y-49219177D02*
X36010838Y-49314415D01*
X36010838Y-49314415D02*
X36677504Y-49314415D01*
X36677504Y-49314415D02*
X36677504Y-48933463D01*
X35820361Y-50171558D02*
X37820361Y-50171558D01*
X37820361Y-50171558D02*
X35820361Y-51314415D01*
X35820361Y-51314415D02*
X37820361Y-51314415D01*
X35820361Y-52266796D02*
X37820361Y-52266796D01*
X37820361Y-52266796D02*
X37820361Y-52742986D01*
X37820361Y-52742986D02*
X37725123Y-53028701D01*
X37725123Y-53028701D02*
X37534647Y-53219177D01*
X37534647Y-53219177D02*
X37344171Y-53314415D01*
X37344171Y-53314415D02*
X36963219Y-53409653D01*
X36963219Y-53409653D02*
X36677504Y-53409653D01*
X36677504Y-53409653D02*
X36296552Y-53314415D01*
X36296552Y-53314415D02*
X36106076Y-53219177D01*
X36106076Y-53219177D02*
X35915600Y-53028701D01*
X35915600Y-53028701D02*
X35820361Y-52742986D01*
X35820361Y-52742986D02*
X35820361Y-52266796D01*
X37725123Y-23819177D02*
X37820361Y-23628701D01*
X37820361Y-23628701D02*
X37820361Y-23342987D01*
X37820361Y-23342987D02*
X37725123Y-23057272D01*
X37725123Y-23057272D02*
X37534647Y-22866796D01*
X37534647Y-22866796D02*
X37344171Y-22771558D01*
X37344171Y-22771558D02*
X36963219Y-22676320D01*
X36963219Y-22676320D02*
X36677504Y-22676320D01*
X36677504Y-22676320D02*
X36296552Y-22771558D01*
X36296552Y-22771558D02*
X36106076Y-22866796D01*
X36106076Y-22866796D02*
X35915600Y-23057272D01*
X35915600Y-23057272D02*
X35820361Y-23342987D01*
X35820361Y-23342987D02*
X35820361Y-23533463D01*
X35820361Y-23533463D02*
X35915600Y-23819177D01*
X35915600Y-23819177D02*
X36010838Y-23914415D01*
X36010838Y-23914415D02*
X36677504Y-23914415D01*
X36677504Y-23914415D02*
X36677504Y-23533463D01*
X35820361Y-24771558D02*
X37820361Y-24771558D01*
X37820361Y-24771558D02*
X35820361Y-25914415D01*
X35820361Y-25914415D02*
X37820361Y-25914415D01*
X35820361Y-26866796D02*
X37820361Y-26866796D01*
X37820361Y-26866796D02*
X37820361Y-27342986D01*
X37820361Y-27342986D02*
X37725123Y-27628701D01*
X37725123Y-27628701D02*
X37534647Y-27819177D01*
X37534647Y-27819177D02*
X37344171Y-27914415D01*
X37344171Y-27914415D02*
X36963219Y-28009653D01*
X36963219Y-28009653D02*
X36677504Y-28009653D01*
X36677504Y-28009653D02*
X36296552Y-27914415D01*
X36296552Y-27914415D02*
X36106076Y-27819177D01*
X36106076Y-27819177D02*
X35915600Y-27628701D01*
X35915600Y-27628701D02*
X35820361Y-27342986D01*
X35820361Y-27342986D02*
X35820361Y-26866796D01*
X187318876Y-44252822D02*
X187223638Y-44443298D01*
X187223638Y-44443298D02*
X187223638Y-44729012D01*
X187223638Y-44729012D02*
X187318876Y-45014727D01*
X187318876Y-45014727D02*
X187509352Y-45205203D01*
X187509352Y-45205203D02*
X187699828Y-45300441D01*
X187699828Y-45300441D02*
X188080780Y-45395679D01*
X188080780Y-45395679D02*
X188366495Y-45395679D01*
X188366495Y-45395679D02*
X188747447Y-45300441D01*
X188747447Y-45300441D02*
X188937923Y-45205203D01*
X188937923Y-45205203D02*
X189128400Y-45014727D01*
X189128400Y-45014727D02*
X189223638Y-44729012D01*
X189223638Y-44729012D02*
X189223638Y-44538536D01*
X189223638Y-44538536D02*
X189128400Y-44252822D01*
X189128400Y-44252822D02*
X189033161Y-44157584D01*
X189033161Y-44157584D02*
X188366495Y-44157584D01*
X188366495Y-44157584D02*
X188366495Y-44538536D01*
X189223638Y-43300441D02*
X187223638Y-43300441D01*
X187223638Y-43300441D02*
X189223638Y-42157584D01*
X189223638Y-42157584D02*
X187223638Y-42157584D01*
X189223638Y-41205203D02*
X187223638Y-41205203D01*
X187223638Y-41205203D02*
X187223638Y-40729013D01*
X187223638Y-40729013D02*
X187318876Y-40443298D01*
X187318876Y-40443298D02*
X187509352Y-40252822D01*
X187509352Y-40252822D02*
X187699828Y-40157584D01*
X187699828Y-40157584D02*
X188080780Y-40062346D01*
X188080780Y-40062346D02*
X188366495Y-40062346D01*
X188366495Y-40062346D02*
X188747447Y-40157584D01*
X188747447Y-40157584D02*
X188937923Y-40252822D01*
X188937923Y-40252822D02*
X189128400Y-40443298D01*
X189128400Y-40443298D02*
X189223638Y-40729013D01*
X189223638Y-40729013D02*
X189223638Y-41205203D01*
X187064876Y-69652822D02*
X186969638Y-69843298D01*
X186969638Y-69843298D02*
X186969638Y-70129012D01*
X186969638Y-70129012D02*
X187064876Y-70414727D01*
X187064876Y-70414727D02*
X187255352Y-70605203D01*
X187255352Y-70605203D02*
X187445828Y-70700441D01*
X187445828Y-70700441D02*
X187826780Y-70795679D01*
X187826780Y-70795679D02*
X188112495Y-70795679D01*
X188112495Y-70795679D02*
X188493447Y-70700441D01*
X188493447Y-70700441D02*
X188683923Y-70605203D01*
X188683923Y-70605203D02*
X188874400Y-70414727D01*
X188874400Y-70414727D02*
X188969638Y-70129012D01*
X188969638Y-70129012D02*
X188969638Y-69938536D01*
X188969638Y-69938536D02*
X188874400Y-69652822D01*
X188874400Y-69652822D02*
X188779161Y-69557584D01*
X188779161Y-69557584D02*
X188112495Y-69557584D01*
X188112495Y-69557584D02*
X188112495Y-69938536D01*
X188969638Y-68700441D02*
X186969638Y-68700441D01*
X186969638Y-68700441D02*
X188969638Y-67557584D01*
X188969638Y-67557584D02*
X186969638Y-67557584D01*
X188969638Y-66605203D02*
X186969638Y-66605203D01*
X186969638Y-66605203D02*
X186969638Y-66129013D01*
X186969638Y-66129013D02*
X187064876Y-65843298D01*
X187064876Y-65843298D02*
X187255352Y-65652822D01*
X187255352Y-65652822D02*
X187445828Y-65557584D01*
X187445828Y-65557584D02*
X187826780Y-65462346D01*
X187826780Y-65462346D02*
X188112495Y-65462346D01*
X188112495Y-65462346D02*
X188493447Y-65557584D01*
X188493447Y-65557584D02*
X188683923Y-65652822D01*
X188683923Y-65652822D02*
X188874400Y-65843298D01*
X188874400Y-65843298D02*
X188969638Y-66129013D01*
X188969638Y-66129013D02*
X188969638Y-66605203D01*
X187223638Y-52698155D02*
X189223638Y-52031489D01*
X189223638Y-52031489D02*
X187223638Y-51364822D01*
X189223638Y-50698155D02*
X187223638Y-50698155D01*
X189223638Y-49745774D02*
X187223638Y-49745774D01*
X187223638Y-49745774D02*
X189223638Y-48602917D01*
X189223638Y-48602917D02*
X187223638Y-48602917D01*
X187223638Y-27298155D02*
X189223638Y-26631489D01*
X189223638Y-26631489D02*
X187223638Y-25964822D01*
X189223638Y-25298155D02*
X187223638Y-25298155D01*
X189223638Y-24345774D02*
X187223638Y-24345774D01*
X187223638Y-24345774D02*
X189223638Y-23202917D01*
X189223638Y-23202917D02*
X187223638Y-23202917D01*
D10*
%TO.C,R11*%
X163591642Y-35920819D02*
X163258309Y-35444628D01*
X163020214Y-35920819D02*
X163020214Y-34920819D01*
X163020214Y-34920819D02*
X163401166Y-34920819D01*
X163401166Y-34920819D02*
X163496404Y-34968438D01*
X163496404Y-34968438D02*
X163544023Y-35016057D01*
X163544023Y-35016057D02*
X163591642Y-35111295D01*
X163591642Y-35111295D02*
X163591642Y-35254152D01*
X163591642Y-35254152D02*
X163544023Y-35349390D01*
X163544023Y-35349390D02*
X163496404Y-35397009D01*
X163496404Y-35397009D02*
X163401166Y-35444628D01*
X163401166Y-35444628D02*
X163020214Y-35444628D01*
X164544023Y-35920819D02*
X163972595Y-35920819D01*
X164258309Y-35920819D02*
X164258309Y-34920819D01*
X164258309Y-34920819D02*
X164163071Y-35063676D01*
X164163071Y-35063676D02*
X164067833Y-35158914D01*
X164067833Y-35158914D02*
X163972595Y-35206533D01*
X165496404Y-35920819D02*
X164924976Y-35920819D01*
X165210690Y-35920819D02*
X165210690Y-34920819D01*
X165210690Y-34920819D02*
X165115452Y-35063676D01*
X165115452Y-35063676D02*
X165020214Y-35158914D01*
X165020214Y-35158914D02*
X164924976Y-35206533D01*
%TO.C,C12*%
X37095580Y-60332857D02*
X37143200Y-60380476D01*
X37143200Y-60380476D02*
X37190819Y-60523333D01*
X37190819Y-60523333D02*
X37190819Y-60618571D01*
X37190819Y-60618571D02*
X37143200Y-60761428D01*
X37143200Y-60761428D02*
X37047961Y-60856666D01*
X37047961Y-60856666D02*
X36952723Y-60904285D01*
X36952723Y-60904285D02*
X36762247Y-60951904D01*
X36762247Y-60951904D02*
X36619390Y-60951904D01*
X36619390Y-60951904D02*
X36428914Y-60904285D01*
X36428914Y-60904285D02*
X36333676Y-60856666D01*
X36333676Y-60856666D02*
X36238438Y-60761428D01*
X36238438Y-60761428D02*
X36190819Y-60618571D01*
X36190819Y-60618571D02*
X36190819Y-60523333D01*
X36190819Y-60523333D02*
X36238438Y-60380476D01*
X36238438Y-60380476D02*
X36286057Y-60332857D01*
X37190819Y-59380476D02*
X37190819Y-59951904D01*
X37190819Y-59666190D02*
X36190819Y-59666190D01*
X36190819Y-59666190D02*
X36333676Y-59761428D01*
X36333676Y-59761428D02*
X36428914Y-59856666D01*
X36428914Y-59856666D02*
X36476533Y-59951904D01*
X36286057Y-58999523D02*
X36238438Y-58951904D01*
X36238438Y-58951904D02*
X36190819Y-58856666D01*
X36190819Y-58856666D02*
X36190819Y-58618571D01*
X36190819Y-58618571D02*
X36238438Y-58523333D01*
X36238438Y-58523333D02*
X36286057Y-58475714D01*
X36286057Y-58475714D02*
X36381295Y-58428095D01*
X36381295Y-58428095D02*
X36476533Y-58428095D01*
X36476533Y-58428095D02*
X36619390Y-58475714D01*
X36619390Y-58475714D02*
X37190819Y-59047142D01*
X37190819Y-59047142D02*
X37190819Y-58428095D01*
%TO.C,C5*%
X37349580Y-34456666D02*
X37397200Y-34504285D01*
X37397200Y-34504285D02*
X37444819Y-34647142D01*
X37444819Y-34647142D02*
X37444819Y-34742380D01*
X37444819Y-34742380D02*
X37397200Y-34885237D01*
X37397200Y-34885237D02*
X37301961Y-34980475D01*
X37301961Y-34980475D02*
X37206723Y-35028094D01*
X37206723Y-35028094D02*
X37016247Y-35075713D01*
X37016247Y-35075713D02*
X36873390Y-35075713D01*
X36873390Y-35075713D02*
X36682914Y-35028094D01*
X36682914Y-35028094D02*
X36587676Y-34980475D01*
X36587676Y-34980475D02*
X36492438Y-34885237D01*
X36492438Y-34885237D02*
X36444819Y-34742380D01*
X36444819Y-34742380D02*
X36444819Y-34647142D01*
X36444819Y-34647142D02*
X36492438Y-34504285D01*
X36492438Y-34504285D02*
X36540057Y-34456666D01*
X36444819Y-33551904D02*
X36444819Y-34028094D01*
X36444819Y-34028094D02*
X36921009Y-34075713D01*
X36921009Y-34075713D02*
X36873390Y-34028094D01*
X36873390Y-34028094D02*
X36825771Y-33932856D01*
X36825771Y-33932856D02*
X36825771Y-33694761D01*
X36825771Y-33694761D02*
X36873390Y-33599523D01*
X36873390Y-33599523D02*
X36921009Y-33551904D01*
X36921009Y-33551904D02*
X37016247Y-33504285D01*
X37016247Y-33504285D02*
X37254342Y-33504285D01*
X37254342Y-33504285D02*
X37349580Y-33551904D01*
X37349580Y-33551904D02*
X37397200Y-33599523D01*
X37397200Y-33599523D02*
X37444819Y-33694761D01*
X37444819Y-33694761D02*
X37444819Y-33932856D01*
X37444819Y-33932856D02*
X37397200Y-34028094D01*
X37397200Y-34028094D02*
X37349580Y-34075713D01*
%TO.C,C4*%
X155281333Y-67851580D02*
X155233714Y-67899200D01*
X155233714Y-67899200D02*
X155090857Y-67946819D01*
X155090857Y-67946819D02*
X154995619Y-67946819D01*
X154995619Y-67946819D02*
X154852762Y-67899200D01*
X154852762Y-67899200D02*
X154757524Y-67803961D01*
X154757524Y-67803961D02*
X154709905Y-67708723D01*
X154709905Y-67708723D02*
X154662286Y-67518247D01*
X154662286Y-67518247D02*
X154662286Y-67375390D01*
X154662286Y-67375390D02*
X154709905Y-67184914D01*
X154709905Y-67184914D02*
X154757524Y-67089676D01*
X154757524Y-67089676D02*
X154852762Y-66994438D01*
X154852762Y-66994438D02*
X154995619Y-66946819D01*
X154995619Y-66946819D02*
X155090857Y-66946819D01*
X155090857Y-66946819D02*
X155233714Y-66994438D01*
X155233714Y-66994438D02*
X155281333Y-67042057D01*
X156138476Y-67280152D02*
X156138476Y-67946819D01*
X155900381Y-66899200D02*
X155662286Y-67613485D01*
X155662286Y-67613485D02*
X156281333Y-67613485D01*
%TO.C,C3*%
X155281333Y-42451580D02*
X155233714Y-42499200D01*
X155233714Y-42499200D02*
X155090857Y-42546819D01*
X155090857Y-42546819D02*
X154995619Y-42546819D01*
X154995619Y-42546819D02*
X154852762Y-42499200D01*
X154852762Y-42499200D02*
X154757524Y-42403961D01*
X154757524Y-42403961D02*
X154709905Y-42308723D01*
X154709905Y-42308723D02*
X154662286Y-42118247D01*
X154662286Y-42118247D02*
X154662286Y-41975390D01*
X154662286Y-41975390D02*
X154709905Y-41784914D01*
X154709905Y-41784914D02*
X154757524Y-41689676D01*
X154757524Y-41689676D02*
X154852762Y-41594438D01*
X154852762Y-41594438D02*
X154995619Y-41546819D01*
X154995619Y-41546819D02*
X155090857Y-41546819D01*
X155090857Y-41546819D02*
X155233714Y-41594438D01*
X155233714Y-41594438D02*
X155281333Y-41642057D01*
X155614667Y-41546819D02*
X156233714Y-41546819D01*
X156233714Y-41546819D02*
X155900381Y-41927771D01*
X155900381Y-41927771D02*
X156043238Y-41927771D01*
X156043238Y-41927771D02*
X156138476Y-41975390D01*
X156138476Y-41975390D02*
X156186095Y-42023009D01*
X156186095Y-42023009D02*
X156233714Y-42118247D01*
X156233714Y-42118247D02*
X156233714Y-42356342D01*
X156233714Y-42356342D02*
X156186095Y-42451580D01*
X156186095Y-42451580D02*
X156138476Y-42499200D01*
X156138476Y-42499200D02*
X156043238Y-42546819D01*
X156043238Y-42546819D02*
X155757524Y-42546819D01*
X155757524Y-42546819D02*
X155662286Y-42499200D01*
X155662286Y-42499200D02*
X155614667Y-42451580D01*
%TO.C,C2*%
X172807333Y-56399580D02*
X172759714Y-56447200D01*
X172759714Y-56447200D02*
X172616857Y-56494819D01*
X172616857Y-56494819D02*
X172521619Y-56494819D01*
X172521619Y-56494819D02*
X172378762Y-56447200D01*
X172378762Y-56447200D02*
X172283524Y-56351961D01*
X172283524Y-56351961D02*
X172235905Y-56256723D01*
X172235905Y-56256723D02*
X172188286Y-56066247D01*
X172188286Y-56066247D02*
X172188286Y-55923390D01*
X172188286Y-55923390D02*
X172235905Y-55732914D01*
X172235905Y-55732914D02*
X172283524Y-55637676D01*
X172283524Y-55637676D02*
X172378762Y-55542438D01*
X172378762Y-55542438D02*
X172521619Y-55494819D01*
X172521619Y-55494819D02*
X172616857Y-55494819D01*
X172616857Y-55494819D02*
X172759714Y-55542438D01*
X172759714Y-55542438D02*
X172807333Y-55590057D01*
X173188286Y-55590057D02*
X173235905Y-55542438D01*
X173235905Y-55542438D02*
X173331143Y-55494819D01*
X173331143Y-55494819D02*
X173569238Y-55494819D01*
X173569238Y-55494819D02*
X173664476Y-55542438D01*
X173664476Y-55542438D02*
X173712095Y-55590057D01*
X173712095Y-55590057D02*
X173759714Y-55685295D01*
X173759714Y-55685295D02*
X173759714Y-55780533D01*
X173759714Y-55780533D02*
X173712095Y-55923390D01*
X173712095Y-55923390D02*
X173140667Y-56494819D01*
X173140667Y-56494819D02*
X173759714Y-56494819D01*
%TO.C,C1*%
X172613577Y-31707804D02*
X172565958Y-31755424D01*
X172565958Y-31755424D02*
X172423101Y-31803043D01*
X172423101Y-31803043D02*
X172327863Y-31803043D01*
X172327863Y-31803043D02*
X172185006Y-31755424D01*
X172185006Y-31755424D02*
X172089768Y-31660185D01*
X172089768Y-31660185D02*
X172042149Y-31564947D01*
X172042149Y-31564947D02*
X171994530Y-31374471D01*
X171994530Y-31374471D02*
X171994530Y-31231614D01*
X171994530Y-31231614D02*
X172042149Y-31041138D01*
X172042149Y-31041138D02*
X172089768Y-30945900D01*
X172089768Y-30945900D02*
X172185006Y-30850662D01*
X172185006Y-30850662D02*
X172327863Y-30803043D01*
X172327863Y-30803043D02*
X172423101Y-30803043D01*
X172423101Y-30803043D02*
X172565958Y-30850662D01*
X172565958Y-30850662D02*
X172613577Y-30898281D01*
X173565958Y-31803043D02*
X172994530Y-31803043D01*
X173280244Y-31803043D02*
X173280244Y-30803043D01*
X173280244Y-30803043D02*
X173185006Y-30945900D01*
X173185006Y-30945900D02*
X173089768Y-31041138D01*
X173089768Y-31041138D02*
X172994530Y-31088757D01*
%TO.C,R3*%
X160314819Y-62396666D02*
X159838628Y-62729999D01*
X160314819Y-62968094D02*
X159314819Y-62968094D01*
X159314819Y-62968094D02*
X159314819Y-62587142D01*
X159314819Y-62587142D02*
X159362438Y-62491904D01*
X159362438Y-62491904D02*
X159410057Y-62444285D01*
X159410057Y-62444285D02*
X159505295Y-62396666D01*
X159505295Y-62396666D02*
X159648152Y-62396666D01*
X159648152Y-62396666D02*
X159743390Y-62444285D01*
X159743390Y-62444285D02*
X159791009Y-62491904D01*
X159791009Y-62491904D02*
X159838628Y-62587142D01*
X159838628Y-62587142D02*
X159838628Y-62968094D01*
X159314819Y-62063332D02*
X159314819Y-61444285D01*
X159314819Y-61444285D02*
X159695771Y-61777618D01*
X159695771Y-61777618D02*
X159695771Y-61634761D01*
X159695771Y-61634761D02*
X159743390Y-61539523D01*
X159743390Y-61539523D02*
X159791009Y-61491904D01*
X159791009Y-61491904D02*
X159886247Y-61444285D01*
X159886247Y-61444285D02*
X160124342Y-61444285D01*
X160124342Y-61444285D02*
X160219580Y-61491904D01*
X160219580Y-61491904D02*
X160267200Y-61539523D01*
X160267200Y-61539523D02*
X160314819Y-61634761D01*
X160314819Y-61634761D02*
X160314819Y-61920475D01*
X160314819Y-61920475D02*
X160267200Y-62015713D01*
X160267200Y-62015713D02*
X160219580Y-62063332D01*
%TO.C,R1*%
X160314819Y-36742666D02*
X159838628Y-37075999D01*
X160314819Y-37314094D02*
X159314819Y-37314094D01*
X159314819Y-37314094D02*
X159314819Y-36933142D01*
X159314819Y-36933142D02*
X159362438Y-36837904D01*
X159362438Y-36837904D02*
X159410057Y-36790285D01*
X159410057Y-36790285D02*
X159505295Y-36742666D01*
X159505295Y-36742666D02*
X159648152Y-36742666D01*
X159648152Y-36742666D02*
X159743390Y-36790285D01*
X159743390Y-36790285D02*
X159791009Y-36837904D01*
X159791009Y-36837904D02*
X159838628Y-36933142D01*
X159838628Y-36933142D02*
X159838628Y-37314094D01*
X160314819Y-35790285D02*
X160314819Y-36361713D01*
X160314819Y-36075999D02*
X159314819Y-36075999D01*
X159314819Y-36075999D02*
X159457676Y-36171237D01*
X159457676Y-36171237D02*
X159552914Y-36266475D01*
X159552914Y-36266475D02*
X159600533Y-36361713D01*
%TO.C,R22*%
X180192819Y-66936857D02*
X179716628Y-67270190D01*
X180192819Y-67508285D02*
X179192819Y-67508285D01*
X179192819Y-67508285D02*
X179192819Y-67127333D01*
X179192819Y-67127333D02*
X179240438Y-67032095D01*
X179240438Y-67032095D02*
X179288057Y-66984476D01*
X179288057Y-66984476D02*
X179383295Y-66936857D01*
X179383295Y-66936857D02*
X179526152Y-66936857D01*
X179526152Y-66936857D02*
X179621390Y-66984476D01*
X179621390Y-66984476D02*
X179669009Y-67032095D01*
X179669009Y-67032095D02*
X179716628Y-67127333D01*
X179716628Y-67127333D02*
X179716628Y-67508285D01*
X179288057Y-66555904D02*
X179240438Y-66508285D01*
X179240438Y-66508285D02*
X179192819Y-66413047D01*
X179192819Y-66413047D02*
X179192819Y-66174952D01*
X179192819Y-66174952D02*
X179240438Y-66079714D01*
X179240438Y-66079714D02*
X179288057Y-66032095D01*
X179288057Y-66032095D02*
X179383295Y-65984476D01*
X179383295Y-65984476D02*
X179478533Y-65984476D01*
X179478533Y-65984476D02*
X179621390Y-66032095D01*
X179621390Y-66032095D02*
X180192819Y-66603523D01*
X180192819Y-66603523D02*
X180192819Y-65984476D01*
X179288057Y-65603523D02*
X179240438Y-65555904D01*
X179240438Y-65555904D02*
X179192819Y-65460666D01*
X179192819Y-65460666D02*
X179192819Y-65222571D01*
X179192819Y-65222571D02*
X179240438Y-65127333D01*
X179240438Y-65127333D02*
X179288057Y-65079714D01*
X179288057Y-65079714D02*
X179383295Y-65032095D01*
X179383295Y-65032095D02*
X179478533Y-65032095D01*
X179478533Y-65032095D02*
X179621390Y-65079714D01*
X179621390Y-65079714D02*
X180192819Y-65651142D01*
X180192819Y-65651142D02*
X180192819Y-65032095D01*
%TO.C,R21*%
X160314819Y-68968857D02*
X159838628Y-69302190D01*
X160314819Y-69540285D02*
X159314819Y-69540285D01*
X159314819Y-69540285D02*
X159314819Y-69159333D01*
X159314819Y-69159333D02*
X159362438Y-69064095D01*
X159362438Y-69064095D02*
X159410057Y-69016476D01*
X159410057Y-69016476D02*
X159505295Y-68968857D01*
X159505295Y-68968857D02*
X159648152Y-68968857D01*
X159648152Y-68968857D02*
X159743390Y-69016476D01*
X159743390Y-69016476D02*
X159791009Y-69064095D01*
X159791009Y-69064095D02*
X159838628Y-69159333D01*
X159838628Y-69159333D02*
X159838628Y-69540285D01*
X159410057Y-68587904D02*
X159362438Y-68540285D01*
X159362438Y-68540285D02*
X159314819Y-68445047D01*
X159314819Y-68445047D02*
X159314819Y-68206952D01*
X159314819Y-68206952D02*
X159362438Y-68111714D01*
X159362438Y-68111714D02*
X159410057Y-68064095D01*
X159410057Y-68064095D02*
X159505295Y-68016476D01*
X159505295Y-68016476D02*
X159600533Y-68016476D01*
X159600533Y-68016476D02*
X159743390Y-68064095D01*
X159743390Y-68064095D02*
X160314819Y-68635523D01*
X160314819Y-68635523D02*
X160314819Y-68016476D01*
X160314819Y-67064095D02*
X160314819Y-67635523D01*
X160314819Y-67349809D02*
X159314819Y-67349809D01*
X159314819Y-67349809D02*
X159457676Y-67445047D01*
X159457676Y-67445047D02*
X159552914Y-67540285D01*
X159552914Y-67540285D02*
X159600533Y-67635523D01*
%TO.C,R20*%
X180700819Y-41028857D02*
X180224628Y-41362190D01*
X180700819Y-41600285D02*
X179700819Y-41600285D01*
X179700819Y-41600285D02*
X179700819Y-41219333D01*
X179700819Y-41219333D02*
X179748438Y-41124095D01*
X179748438Y-41124095D02*
X179796057Y-41076476D01*
X179796057Y-41076476D02*
X179891295Y-41028857D01*
X179891295Y-41028857D02*
X180034152Y-41028857D01*
X180034152Y-41028857D02*
X180129390Y-41076476D01*
X180129390Y-41076476D02*
X180177009Y-41124095D01*
X180177009Y-41124095D02*
X180224628Y-41219333D01*
X180224628Y-41219333D02*
X180224628Y-41600285D01*
X179796057Y-40647904D02*
X179748438Y-40600285D01*
X179748438Y-40600285D02*
X179700819Y-40505047D01*
X179700819Y-40505047D02*
X179700819Y-40266952D01*
X179700819Y-40266952D02*
X179748438Y-40171714D01*
X179748438Y-40171714D02*
X179796057Y-40124095D01*
X179796057Y-40124095D02*
X179891295Y-40076476D01*
X179891295Y-40076476D02*
X179986533Y-40076476D01*
X179986533Y-40076476D02*
X180129390Y-40124095D01*
X180129390Y-40124095D02*
X180700819Y-40695523D01*
X180700819Y-40695523D02*
X180700819Y-40076476D01*
X179700819Y-39457428D02*
X179700819Y-39362190D01*
X179700819Y-39362190D02*
X179748438Y-39266952D01*
X179748438Y-39266952D02*
X179796057Y-39219333D01*
X179796057Y-39219333D02*
X179891295Y-39171714D01*
X179891295Y-39171714D02*
X180081771Y-39124095D01*
X180081771Y-39124095D02*
X180319866Y-39124095D01*
X180319866Y-39124095D02*
X180510342Y-39171714D01*
X180510342Y-39171714D02*
X180605580Y-39219333D01*
X180605580Y-39219333D02*
X180653200Y-39266952D01*
X180653200Y-39266952D02*
X180700819Y-39362190D01*
X180700819Y-39362190D02*
X180700819Y-39457428D01*
X180700819Y-39457428D02*
X180653200Y-39552666D01*
X180653200Y-39552666D02*
X180605580Y-39600285D01*
X180605580Y-39600285D02*
X180510342Y-39647904D01*
X180510342Y-39647904D02*
X180319866Y-39695523D01*
X180319866Y-39695523D02*
X180081771Y-39695523D01*
X180081771Y-39695523D02*
X179891295Y-39647904D01*
X179891295Y-39647904D02*
X179796057Y-39600285D01*
X179796057Y-39600285D02*
X179748438Y-39552666D01*
X179748438Y-39552666D02*
X179700819Y-39457428D01*
%TO.C,R19*%
X160314819Y-43568857D02*
X159838628Y-43902190D01*
X160314819Y-44140285D02*
X159314819Y-44140285D01*
X159314819Y-44140285D02*
X159314819Y-43759333D01*
X159314819Y-43759333D02*
X159362438Y-43664095D01*
X159362438Y-43664095D02*
X159410057Y-43616476D01*
X159410057Y-43616476D02*
X159505295Y-43568857D01*
X159505295Y-43568857D02*
X159648152Y-43568857D01*
X159648152Y-43568857D02*
X159743390Y-43616476D01*
X159743390Y-43616476D02*
X159791009Y-43664095D01*
X159791009Y-43664095D02*
X159838628Y-43759333D01*
X159838628Y-43759333D02*
X159838628Y-44140285D01*
X160314819Y-42616476D02*
X160314819Y-43187904D01*
X160314819Y-42902190D02*
X159314819Y-42902190D01*
X159314819Y-42902190D02*
X159457676Y-42997428D01*
X159457676Y-42997428D02*
X159552914Y-43092666D01*
X159552914Y-43092666D02*
X159600533Y-43187904D01*
X160314819Y-42140285D02*
X160314819Y-41949809D01*
X160314819Y-41949809D02*
X160267200Y-41854571D01*
X160267200Y-41854571D02*
X160219580Y-41806952D01*
X160219580Y-41806952D02*
X160076723Y-41711714D01*
X160076723Y-41711714D02*
X159886247Y-41664095D01*
X159886247Y-41664095D02*
X159505295Y-41664095D01*
X159505295Y-41664095D02*
X159410057Y-41711714D01*
X159410057Y-41711714D02*
X159362438Y-41759333D01*
X159362438Y-41759333D02*
X159314819Y-41854571D01*
X159314819Y-41854571D02*
X159314819Y-42045047D01*
X159314819Y-42045047D02*
X159362438Y-42140285D01*
X159362438Y-42140285D02*
X159410057Y-42187904D01*
X159410057Y-42187904D02*
X159505295Y-42235523D01*
X159505295Y-42235523D02*
X159743390Y-42235523D01*
X159743390Y-42235523D02*
X159838628Y-42187904D01*
X159838628Y-42187904D02*
X159886247Y-42140285D01*
X159886247Y-42140285D02*
X159933866Y-42045047D01*
X159933866Y-42045047D02*
X159933866Y-41854571D01*
X159933866Y-41854571D02*
X159886247Y-41759333D01*
X159886247Y-41759333D02*
X159838628Y-41711714D01*
X159838628Y-41711714D02*
X159743390Y-41664095D01*
%TO.C,R18*%
X181221142Y-36870819D02*
X180887809Y-36394628D01*
X180649714Y-36870819D02*
X180649714Y-35870819D01*
X180649714Y-35870819D02*
X181030666Y-35870819D01*
X181030666Y-35870819D02*
X181125904Y-35918438D01*
X181125904Y-35918438D02*
X181173523Y-35966057D01*
X181173523Y-35966057D02*
X181221142Y-36061295D01*
X181221142Y-36061295D02*
X181221142Y-36204152D01*
X181221142Y-36204152D02*
X181173523Y-36299390D01*
X181173523Y-36299390D02*
X181125904Y-36347009D01*
X181125904Y-36347009D02*
X181030666Y-36394628D01*
X181030666Y-36394628D02*
X180649714Y-36394628D01*
X182173523Y-36870819D02*
X181602095Y-36870819D01*
X181887809Y-36870819D02*
X181887809Y-35870819D01*
X181887809Y-35870819D02*
X181792571Y-36013676D01*
X181792571Y-36013676D02*
X181697333Y-36108914D01*
X181697333Y-36108914D02*
X181602095Y-36156533D01*
X182744952Y-36299390D02*
X182649714Y-36251771D01*
X182649714Y-36251771D02*
X182602095Y-36204152D01*
X182602095Y-36204152D02*
X182554476Y-36108914D01*
X182554476Y-36108914D02*
X182554476Y-36061295D01*
X182554476Y-36061295D02*
X182602095Y-35966057D01*
X182602095Y-35966057D02*
X182649714Y-35918438D01*
X182649714Y-35918438D02*
X182744952Y-35870819D01*
X182744952Y-35870819D02*
X182935428Y-35870819D01*
X182935428Y-35870819D02*
X183030666Y-35918438D01*
X183030666Y-35918438D02*
X183078285Y-35966057D01*
X183078285Y-35966057D02*
X183125904Y-36061295D01*
X183125904Y-36061295D02*
X183125904Y-36108914D01*
X183125904Y-36108914D02*
X183078285Y-36204152D01*
X183078285Y-36204152D02*
X183030666Y-36251771D01*
X183030666Y-36251771D02*
X182935428Y-36299390D01*
X182935428Y-36299390D02*
X182744952Y-36299390D01*
X182744952Y-36299390D02*
X182649714Y-36347009D01*
X182649714Y-36347009D02*
X182602095Y-36394628D01*
X182602095Y-36394628D02*
X182554476Y-36489866D01*
X182554476Y-36489866D02*
X182554476Y-36680342D01*
X182554476Y-36680342D02*
X182602095Y-36775580D01*
X182602095Y-36775580D02*
X182649714Y-36823200D01*
X182649714Y-36823200D02*
X182744952Y-36870819D01*
X182744952Y-36870819D02*
X182935428Y-36870819D01*
X182935428Y-36870819D02*
X183030666Y-36823200D01*
X183030666Y-36823200D02*
X183078285Y-36775580D01*
X183078285Y-36775580D02*
X183125904Y-36680342D01*
X183125904Y-36680342D02*
X183125904Y-36489866D01*
X183125904Y-36489866D02*
X183078285Y-36394628D01*
X183078285Y-36394628D02*
X183030666Y-36347009D01*
X183030666Y-36347009D02*
X182935428Y-36299390D01*
%TO.C,R17*%
X180713142Y-62270819D02*
X180379809Y-61794628D01*
X180141714Y-62270819D02*
X180141714Y-61270819D01*
X180141714Y-61270819D02*
X180522666Y-61270819D01*
X180522666Y-61270819D02*
X180617904Y-61318438D01*
X180617904Y-61318438D02*
X180665523Y-61366057D01*
X180665523Y-61366057D02*
X180713142Y-61461295D01*
X180713142Y-61461295D02*
X180713142Y-61604152D01*
X180713142Y-61604152D02*
X180665523Y-61699390D01*
X180665523Y-61699390D02*
X180617904Y-61747009D01*
X180617904Y-61747009D02*
X180522666Y-61794628D01*
X180522666Y-61794628D02*
X180141714Y-61794628D01*
X181665523Y-62270819D02*
X181094095Y-62270819D01*
X181379809Y-62270819D02*
X181379809Y-61270819D01*
X181379809Y-61270819D02*
X181284571Y-61413676D01*
X181284571Y-61413676D02*
X181189333Y-61508914D01*
X181189333Y-61508914D02*
X181094095Y-61556533D01*
X181998857Y-61270819D02*
X182665523Y-61270819D01*
X182665523Y-61270819D02*
X182236952Y-62270819D01*
%TO.C,R16*%
X168582121Y-60951540D02*
X168105930Y-61284873D01*
X168582121Y-61522968D02*
X167582121Y-61522968D01*
X167582121Y-61522968D02*
X167582121Y-61142016D01*
X167582121Y-61142016D02*
X167629740Y-61046778D01*
X167629740Y-61046778D02*
X167677359Y-60999159D01*
X167677359Y-60999159D02*
X167772597Y-60951540D01*
X167772597Y-60951540D02*
X167915454Y-60951540D01*
X167915454Y-60951540D02*
X168010692Y-60999159D01*
X168010692Y-60999159D02*
X168058311Y-61046778D01*
X168058311Y-61046778D02*
X168105930Y-61142016D01*
X168105930Y-61142016D02*
X168105930Y-61522968D01*
X168582121Y-59999159D02*
X168582121Y-60570587D01*
X168582121Y-60284873D02*
X167582121Y-60284873D01*
X167582121Y-60284873D02*
X167724978Y-60380111D01*
X167724978Y-60380111D02*
X167820216Y-60475349D01*
X167820216Y-60475349D02*
X167867835Y-60570587D01*
X167582121Y-59142016D02*
X167582121Y-59332492D01*
X167582121Y-59332492D02*
X167629740Y-59427730D01*
X167629740Y-59427730D02*
X167677359Y-59475349D01*
X167677359Y-59475349D02*
X167820216Y-59570587D01*
X167820216Y-59570587D02*
X168010692Y-59618206D01*
X168010692Y-59618206D02*
X168391644Y-59618206D01*
X168391644Y-59618206D02*
X168486882Y-59570587D01*
X168486882Y-59570587D02*
X168534502Y-59522968D01*
X168534502Y-59522968D02*
X168582121Y-59427730D01*
X168582121Y-59427730D02*
X168582121Y-59237254D01*
X168582121Y-59237254D02*
X168534502Y-59142016D01*
X168534502Y-59142016D02*
X168486882Y-59094397D01*
X168486882Y-59094397D02*
X168391644Y-59046778D01*
X168391644Y-59046778D02*
X168153549Y-59046778D01*
X168153549Y-59046778D02*
X168058311Y-59094397D01*
X168058311Y-59094397D02*
X168010692Y-59142016D01*
X168010692Y-59142016D02*
X167963073Y-59237254D01*
X167963073Y-59237254D02*
X167963073Y-59427730D01*
X167963073Y-59427730D02*
X168010692Y-59522968D01*
X168010692Y-59522968D02*
X168058311Y-59570587D01*
X168058311Y-59570587D02*
X168153549Y-59618206D01*
%TO.C,R15*%
X168898164Y-35627499D02*
X168421973Y-35960832D01*
X168898164Y-36198927D02*
X167898164Y-36198927D01*
X167898164Y-36198927D02*
X167898164Y-35817975D01*
X167898164Y-35817975D02*
X167945783Y-35722737D01*
X167945783Y-35722737D02*
X167993402Y-35675118D01*
X167993402Y-35675118D02*
X168088640Y-35627499D01*
X168088640Y-35627499D02*
X168231497Y-35627499D01*
X168231497Y-35627499D02*
X168326735Y-35675118D01*
X168326735Y-35675118D02*
X168374354Y-35722737D01*
X168374354Y-35722737D02*
X168421973Y-35817975D01*
X168421973Y-35817975D02*
X168421973Y-36198927D01*
X168898164Y-34675118D02*
X168898164Y-35246546D01*
X168898164Y-34960832D02*
X167898164Y-34960832D01*
X167898164Y-34960832D02*
X168041021Y-35056070D01*
X168041021Y-35056070D02*
X168136259Y-35151308D01*
X168136259Y-35151308D02*
X168183878Y-35246546D01*
X167898164Y-33770356D02*
X167898164Y-34246546D01*
X167898164Y-34246546D02*
X168374354Y-34294165D01*
X168374354Y-34294165D02*
X168326735Y-34246546D01*
X168326735Y-34246546D02*
X168279116Y-34151308D01*
X168279116Y-34151308D02*
X168279116Y-33913213D01*
X168279116Y-33913213D02*
X168326735Y-33817975D01*
X168326735Y-33817975D02*
X168374354Y-33770356D01*
X168374354Y-33770356D02*
X168469592Y-33722737D01*
X168469592Y-33722737D02*
X168707687Y-33722737D01*
X168707687Y-33722737D02*
X168802925Y-33770356D01*
X168802925Y-33770356D02*
X168850545Y-33817975D01*
X168850545Y-33817975D02*
X168898164Y-33913213D01*
X168898164Y-33913213D02*
X168898164Y-34151308D01*
X168898164Y-34151308D02*
X168850545Y-34246546D01*
X168850545Y-34246546D02*
X168802925Y-34294165D01*
%TO.C,R14*%
X163441142Y-61320819D02*
X163107809Y-60844628D01*
X162869714Y-61320819D02*
X162869714Y-60320819D01*
X162869714Y-60320819D02*
X163250666Y-60320819D01*
X163250666Y-60320819D02*
X163345904Y-60368438D01*
X163345904Y-60368438D02*
X163393523Y-60416057D01*
X163393523Y-60416057D02*
X163441142Y-60511295D01*
X163441142Y-60511295D02*
X163441142Y-60654152D01*
X163441142Y-60654152D02*
X163393523Y-60749390D01*
X163393523Y-60749390D02*
X163345904Y-60797009D01*
X163345904Y-60797009D02*
X163250666Y-60844628D01*
X163250666Y-60844628D02*
X162869714Y-60844628D01*
X164393523Y-61320819D02*
X163822095Y-61320819D01*
X164107809Y-61320819D02*
X164107809Y-60320819D01*
X164107809Y-60320819D02*
X164012571Y-60463676D01*
X164012571Y-60463676D02*
X163917333Y-60558914D01*
X163917333Y-60558914D02*
X163822095Y-60606533D01*
X165250666Y-60654152D02*
X165250666Y-61320819D01*
X165012571Y-60273200D02*
X164774476Y-60987485D01*
X164774476Y-60987485D02*
X165393523Y-60987485D01*
%TO.C,R10*%
X167934819Y-65666857D02*
X167458628Y-66000190D01*
X167934819Y-66238285D02*
X166934819Y-66238285D01*
X166934819Y-66238285D02*
X166934819Y-65857333D01*
X166934819Y-65857333D02*
X166982438Y-65762095D01*
X166982438Y-65762095D02*
X167030057Y-65714476D01*
X167030057Y-65714476D02*
X167125295Y-65666857D01*
X167125295Y-65666857D02*
X167268152Y-65666857D01*
X167268152Y-65666857D02*
X167363390Y-65714476D01*
X167363390Y-65714476D02*
X167411009Y-65762095D01*
X167411009Y-65762095D02*
X167458628Y-65857333D01*
X167458628Y-65857333D02*
X167458628Y-66238285D01*
X167934819Y-64714476D02*
X167934819Y-65285904D01*
X167934819Y-65000190D02*
X166934819Y-65000190D01*
X166934819Y-65000190D02*
X167077676Y-65095428D01*
X167077676Y-65095428D02*
X167172914Y-65190666D01*
X167172914Y-65190666D02*
X167220533Y-65285904D01*
X166934819Y-64095428D02*
X166934819Y-64000190D01*
X166934819Y-64000190D02*
X166982438Y-63904952D01*
X166982438Y-63904952D02*
X167030057Y-63857333D01*
X167030057Y-63857333D02*
X167125295Y-63809714D01*
X167125295Y-63809714D02*
X167315771Y-63762095D01*
X167315771Y-63762095D02*
X167553866Y-63762095D01*
X167553866Y-63762095D02*
X167744342Y-63809714D01*
X167744342Y-63809714D02*
X167839580Y-63857333D01*
X167839580Y-63857333D02*
X167887200Y-63904952D01*
X167887200Y-63904952D02*
X167934819Y-64000190D01*
X167934819Y-64000190D02*
X167934819Y-64095428D01*
X167934819Y-64095428D02*
X167887200Y-64190666D01*
X167887200Y-64190666D02*
X167839580Y-64238285D01*
X167839580Y-64238285D02*
X167744342Y-64285904D01*
X167744342Y-64285904D02*
X167553866Y-64333523D01*
X167553866Y-64333523D02*
X167315771Y-64333523D01*
X167315771Y-64333523D02*
X167125295Y-64285904D01*
X167125295Y-64285904D02*
X167030057Y-64238285D01*
X167030057Y-64238285D02*
X166982438Y-64190666D01*
X166982438Y-64190666D02*
X166934819Y-64095428D01*
%TO.C,R9*%
X167934819Y-39790666D02*
X167458628Y-40123999D01*
X167934819Y-40362094D02*
X166934819Y-40362094D01*
X166934819Y-40362094D02*
X166934819Y-39981142D01*
X166934819Y-39981142D02*
X166982438Y-39885904D01*
X166982438Y-39885904D02*
X167030057Y-39838285D01*
X167030057Y-39838285D02*
X167125295Y-39790666D01*
X167125295Y-39790666D02*
X167268152Y-39790666D01*
X167268152Y-39790666D02*
X167363390Y-39838285D01*
X167363390Y-39838285D02*
X167411009Y-39885904D01*
X167411009Y-39885904D02*
X167458628Y-39981142D01*
X167458628Y-39981142D02*
X167458628Y-40362094D01*
X167934819Y-39314475D02*
X167934819Y-39123999D01*
X167934819Y-39123999D02*
X167887200Y-39028761D01*
X167887200Y-39028761D02*
X167839580Y-38981142D01*
X167839580Y-38981142D02*
X167696723Y-38885904D01*
X167696723Y-38885904D02*
X167506247Y-38838285D01*
X167506247Y-38838285D02*
X167125295Y-38838285D01*
X167125295Y-38838285D02*
X167030057Y-38885904D01*
X167030057Y-38885904D02*
X166982438Y-38933523D01*
X166982438Y-38933523D02*
X166934819Y-39028761D01*
X166934819Y-39028761D02*
X166934819Y-39219237D01*
X166934819Y-39219237D02*
X166982438Y-39314475D01*
X166982438Y-39314475D02*
X167030057Y-39362094D01*
X167030057Y-39362094D02*
X167125295Y-39409713D01*
X167125295Y-39409713D02*
X167363390Y-39409713D01*
X167363390Y-39409713D02*
X167458628Y-39362094D01*
X167458628Y-39362094D02*
X167506247Y-39314475D01*
X167506247Y-39314475D02*
X167553866Y-39219237D01*
X167553866Y-39219237D02*
X167553866Y-39028761D01*
X167553866Y-39028761D02*
X167506247Y-38933523D01*
X167506247Y-38933523D02*
X167458628Y-38885904D01*
X167458628Y-38885904D02*
X167363390Y-38838285D01*
%TO.C,R6*%
X177332819Y-62396666D02*
X176856628Y-62729999D01*
X177332819Y-62968094D02*
X176332819Y-62968094D01*
X176332819Y-62968094D02*
X176332819Y-62587142D01*
X176332819Y-62587142D02*
X176380438Y-62491904D01*
X176380438Y-62491904D02*
X176428057Y-62444285D01*
X176428057Y-62444285D02*
X176523295Y-62396666D01*
X176523295Y-62396666D02*
X176666152Y-62396666D01*
X176666152Y-62396666D02*
X176761390Y-62444285D01*
X176761390Y-62444285D02*
X176809009Y-62491904D01*
X176809009Y-62491904D02*
X176856628Y-62587142D01*
X176856628Y-62587142D02*
X176856628Y-62968094D01*
X176332819Y-61539523D02*
X176332819Y-61729999D01*
X176332819Y-61729999D02*
X176380438Y-61825237D01*
X176380438Y-61825237D02*
X176428057Y-61872856D01*
X176428057Y-61872856D02*
X176570914Y-61968094D01*
X176570914Y-61968094D02*
X176761390Y-62015713D01*
X176761390Y-62015713D02*
X177142342Y-62015713D01*
X177142342Y-62015713D02*
X177237580Y-61968094D01*
X177237580Y-61968094D02*
X177285200Y-61920475D01*
X177285200Y-61920475D02*
X177332819Y-61825237D01*
X177332819Y-61825237D02*
X177332819Y-61634761D01*
X177332819Y-61634761D02*
X177285200Y-61539523D01*
X177285200Y-61539523D02*
X177237580Y-61491904D01*
X177237580Y-61491904D02*
X177142342Y-61444285D01*
X177142342Y-61444285D02*
X176904247Y-61444285D01*
X176904247Y-61444285D02*
X176809009Y-61491904D01*
X176809009Y-61491904D02*
X176761390Y-61539523D01*
X176761390Y-61539523D02*
X176713771Y-61634761D01*
X176713771Y-61634761D02*
X176713771Y-61825237D01*
X176713771Y-61825237D02*
X176761390Y-61920475D01*
X176761390Y-61920475D02*
X176809009Y-61968094D01*
X176809009Y-61968094D02*
X176904247Y-62015713D01*
%TO.C,R5*%
X177840819Y-37147166D02*
X177364628Y-37480499D01*
X177840819Y-37718594D02*
X176840819Y-37718594D01*
X176840819Y-37718594D02*
X176840819Y-37337642D01*
X176840819Y-37337642D02*
X176888438Y-37242404D01*
X176888438Y-37242404D02*
X176936057Y-37194785D01*
X176936057Y-37194785D02*
X177031295Y-37147166D01*
X177031295Y-37147166D02*
X177174152Y-37147166D01*
X177174152Y-37147166D02*
X177269390Y-37194785D01*
X177269390Y-37194785D02*
X177317009Y-37242404D01*
X177317009Y-37242404D02*
X177364628Y-37337642D01*
X177364628Y-37337642D02*
X177364628Y-37718594D01*
X176840819Y-36242404D02*
X176840819Y-36718594D01*
X176840819Y-36718594D02*
X177317009Y-36766213D01*
X177317009Y-36766213D02*
X177269390Y-36718594D01*
X177269390Y-36718594D02*
X177221771Y-36623356D01*
X177221771Y-36623356D02*
X177221771Y-36385261D01*
X177221771Y-36385261D02*
X177269390Y-36290023D01*
X177269390Y-36290023D02*
X177317009Y-36242404D01*
X177317009Y-36242404D02*
X177412247Y-36194785D01*
X177412247Y-36194785D02*
X177650342Y-36194785D01*
X177650342Y-36194785D02*
X177745580Y-36242404D01*
X177745580Y-36242404D02*
X177793200Y-36290023D01*
X177793200Y-36290023D02*
X177840819Y-36385261D01*
X177840819Y-36385261D02*
X177840819Y-36623356D01*
X177840819Y-36623356D02*
X177793200Y-36718594D01*
X177793200Y-36718594D02*
X177745580Y-36766213D01*
%TO.C,D8*%
X181125905Y-41508819D02*
X181125905Y-40508819D01*
X181125905Y-40508819D02*
X181364000Y-40508819D01*
X181364000Y-40508819D02*
X181506857Y-40556438D01*
X181506857Y-40556438D02*
X181602095Y-40651676D01*
X181602095Y-40651676D02*
X181649714Y-40746914D01*
X181649714Y-40746914D02*
X181697333Y-40937390D01*
X181697333Y-40937390D02*
X181697333Y-41080247D01*
X181697333Y-41080247D02*
X181649714Y-41270723D01*
X181649714Y-41270723D02*
X181602095Y-41365961D01*
X181602095Y-41365961D02*
X181506857Y-41461200D01*
X181506857Y-41461200D02*
X181364000Y-41508819D01*
X181364000Y-41508819D02*
X181125905Y-41508819D01*
X182268762Y-40937390D02*
X182173524Y-40889771D01*
X182173524Y-40889771D02*
X182125905Y-40842152D01*
X182125905Y-40842152D02*
X182078286Y-40746914D01*
X182078286Y-40746914D02*
X182078286Y-40699295D01*
X182078286Y-40699295D02*
X182125905Y-40604057D01*
X182125905Y-40604057D02*
X182173524Y-40556438D01*
X182173524Y-40556438D02*
X182268762Y-40508819D01*
X182268762Y-40508819D02*
X182459238Y-40508819D01*
X182459238Y-40508819D02*
X182554476Y-40556438D01*
X182554476Y-40556438D02*
X182602095Y-40604057D01*
X182602095Y-40604057D02*
X182649714Y-40699295D01*
X182649714Y-40699295D02*
X182649714Y-40746914D01*
X182649714Y-40746914D02*
X182602095Y-40842152D01*
X182602095Y-40842152D02*
X182554476Y-40889771D01*
X182554476Y-40889771D02*
X182459238Y-40937390D01*
X182459238Y-40937390D02*
X182268762Y-40937390D01*
X182268762Y-40937390D02*
X182173524Y-40985009D01*
X182173524Y-40985009D02*
X182125905Y-41032628D01*
X182125905Y-41032628D02*
X182078286Y-41127866D01*
X182078286Y-41127866D02*
X182078286Y-41318342D01*
X182078286Y-41318342D02*
X182125905Y-41413580D01*
X182125905Y-41413580D02*
X182173524Y-41461200D01*
X182173524Y-41461200D02*
X182268762Y-41508819D01*
X182268762Y-41508819D02*
X182459238Y-41508819D01*
X182459238Y-41508819D02*
X182554476Y-41461200D01*
X182554476Y-41461200D02*
X182602095Y-41413580D01*
X182602095Y-41413580D02*
X182649714Y-41318342D01*
X182649714Y-41318342D02*
X182649714Y-41127866D01*
X182649714Y-41127866D02*
X182602095Y-41032628D01*
X182602095Y-41032628D02*
X182554476Y-40985009D01*
X182554476Y-40985009D02*
X182459238Y-40937390D01*
%TO.C,D7*%
X180617905Y-67162819D02*
X180617905Y-66162819D01*
X180617905Y-66162819D02*
X180856000Y-66162819D01*
X180856000Y-66162819D02*
X180998857Y-66210438D01*
X180998857Y-66210438D02*
X181094095Y-66305676D01*
X181094095Y-66305676D02*
X181141714Y-66400914D01*
X181141714Y-66400914D02*
X181189333Y-66591390D01*
X181189333Y-66591390D02*
X181189333Y-66734247D01*
X181189333Y-66734247D02*
X181141714Y-66924723D01*
X181141714Y-66924723D02*
X181094095Y-67019961D01*
X181094095Y-67019961D02*
X180998857Y-67115200D01*
X180998857Y-67115200D02*
X180856000Y-67162819D01*
X180856000Y-67162819D02*
X180617905Y-67162819D01*
X181522667Y-66162819D02*
X182189333Y-66162819D01*
X182189333Y-66162819D02*
X181760762Y-67162819D01*
%TO.C,D6*%
X167680819Y-62206094D02*
X166680819Y-62206094D01*
X166680819Y-62206094D02*
X166680819Y-61967999D01*
X166680819Y-61967999D02*
X166728438Y-61825142D01*
X166728438Y-61825142D02*
X166823676Y-61729904D01*
X166823676Y-61729904D02*
X166918914Y-61682285D01*
X166918914Y-61682285D02*
X167109390Y-61634666D01*
X167109390Y-61634666D02*
X167252247Y-61634666D01*
X167252247Y-61634666D02*
X167442723Y-61682285D01*
X167442723Y-61682285D02*
X167537961Y-61729904D01*
X167537961Y-61729904D02*
X167633200Y-61825142D01*
X167633200Y-61825142D02*
X167680819Y-61967999D01*
X167680819Y-61967999D02*
X167680819Y-62206094D01*
X166680819Y-60777523D02*
X166680819Y-60967999D01*
X166680819Y-60967999D02*
X166728438Y-61063237D01*
X166728438Y-61063237D02*
X166776057Y-61110856D01*
X166776057Y-61110856D02*
X166918914Y-61206094D01*
X166918914Y-61206094D02*
X167109390Y-61253713D01*
X167109390Y-61253713D02*
X167490342Y-61253713D01*
X167490342Y-61253713D02*
X167585580Y-61206094D01*
X167585580Y-61206094D02*
X167633200Y-61158475D01*
X167633200Y-61158475D02*
X167680819Y-61063237D01*
X167680819Y-61063237D02*
X167680819Y-60872761D01*
X167680819Y-60872761D02*
X167633200Y-60777523D01*
X167633200Y-60777523D02*
X167585580Y-60729904D01*
X167585580Y-60729904D02*
X167490342Y-60682285D01*
X167490342Y-60682285D02*
X167252247Y-60682285D01*
X167252247Y-60682285D02*
X167157009Y-60729904D01*
X167157009Y-60729904D02*
X167109390Y-60777523D01*
X167109390Y-60777523D02*
X167061771Y-60872761D01*
X167061771Y-60872761D02*
X167061771Y-61063237D01*
X167061771Y-61063237D02*
X167109390Y-61158475D01*
X167109390Y-61158475D02*
X167157009Y-61206094D01*
X167157009Y-61206094D02*
X167252247Y-61253713D01*
%TO.C,D5*%
X167934819Y-36806094D02*
X166934819Y-36806094D01*
X166934819Y-36806094D02*
X166934819Y-36567999D01*
X166934819Y-36567999D02*
X166982438Y-36425142D01*
X166982438Y-36425142D02*
X167077676Y-36329904D01*
X167077676Y-36329904D02*
X167172914Y-36282285D01*
X167172914Y-36282285D02*
X167363390Y-36234666D01*
X167363390Y-36234666D02*
X167506247Y-36234666D01*
X167506247Y-36234666D02*
X167696723Y-36282285D01*
X167696723Y-36282285D02*
X167791961Y-36329904D01*
X167791961Y-36329904D02*
X167887200Y-36425142D01*
X167887200Y-36425142D02*
X167934819Y-36567999D01*
X167934819Y-36567999D02*
X167934819Y-36806094D01*
X166934819Y-35329904D02*
X166934819Y-35806094D01*
X166934819Y-35806094D02*
X167411009Y-35853713D01*
X167411009Y-35853713D02*
X167363390Y-35806094D01*
X167363390Y-35806094D02*
X167315771Y-35710856D01*
X167315771Y-35710856D02*
X167315771Y-35472761D01*
X167315771Y-35472761D02*
X167363390Y-35377523D01*
X167363390Y-35377523D02*
X167411009Y-35329904D01*
X167411009Y-35329904D02*
X167506247Y-35282285D01*
X167506247Y-35282285D02*
X167744342Y-35282285D01*
X167744342Y-35282285D02*
X167839580Y-35329904D01*
X167839580Y-35329904D02*
X167887200Y-35377523D01*
X167887200Y-35377523D02*
X167934819Y-35472761D01*
X167934819Y-35472761D02*
X167934819Y-35710856D01*
X167934819Y-35710856D02*
X167887200Y-35806094D01*
X167887200Y-35806094D02*
X167839580Y-35853713D01*
%TO.C,D4*%
X163345905Y-63098819D02*
X163345905Y-62098819D01*
X163345905Y-62098819D02*
X163584000Y-62098819D01*
X163584000Y-62098819D02*
X163726857Y-62146438D01*
X163726857Y-62146438D02*
X163822095Y-62241676D01*
X163822095Y-62241676D02*
X163869714Y-62336914D01*
X163869714Y-62336914D02*
X163917333Y-62527390D01*
X163917333Y-62527390D02*
X163917333Y-62670247D01*
X163917333Y-62670247D02*
X163869714Y-62860723D01*
X163869714Y-62860723D02*
X163822095Y-62955961D01*
X163822095Y-62955961D02*
X163726857Y-63051200D01*
X163726857Y-63051200D02*
X163584000Y-63098819D01*
X163584000Y-63098819D02*
X163345905Y-63098819D01*
X164774476Y-62432152D02*
X164774476Y-63098819D01*
X164536381Y-62051200D02*
X164298286Y-62765485D01*
X164298286Y-62765485D02*
X164917333Y-62765485D01*
%TO.C,D3*%
X163599905Y-37698819D02*
X163599905Y-36698819D01*
X163599905Y-36698819D02*
X163838000Y-36698819D01*
X163838000Y-36698819D02*
X163980857Y-36746438D01*
X163980857Y-36746438D02*
X164076095Y-36841676D01*
X164076095Y-36841676D02*
X164123714Y-36936914D01*
X164123714Y-36936914D02*
X164171333Y-37127390D01*
X164171333Y-37127390D02*
X164171333Y-37270247D01*
X164171333Y-37270247D02*
X164123714Y-37460723D01*
X164123714Y-37460723D02*
X164076095Y-37555961D01*
X164076095Y-37555961D02*
X163980857Y-37651200D01*
X163980857Y-37651200D02*
X163838000Y-37698819D01*
X163838000Y-37698819D02*
X163599905Y-37698819D01*
X164504667Y-36698819D02*
X165123714Y-36698819D01*
X165123714Y-36698819D02*
X164790381Y-37079771D01*
X164790381Y-37079771D02*
X164933238Y-37079771D01*
X164933238Y-37079771D02*
X165028476Y-37127390D01*
X165028476Y-37127390D02*
X165076095Y-37175009D01*
X165076095Y-37175009D02*
X165123714Y-37270247D01*
X165123714Y-37270247D02*
X165123714Y-37508342D01*
X165123714Y-37508342D02*
X165076095Y-37603580D01*
X165076095Y-37603580D02*
X165028476Y-37651200D01*
X165028476Y-37651200D02*
X164933238Y-37698819D01*
X164933238Y-37698819D02*
X164647524Y-37698819D01*
X164647524Y-37698819D02*
X164552286Y-37651200D01*
X164552286Y-37651200D02*
X164504667Y-37603580D01*
%TO.C,D2*%
X172173805Y-63525094D02*
X172173805Y-62525094D01*
X172173805Y-62525094D02*
X172411900Y-62525094D01*
X172411900Y-62525094D02*
X172554757Y-62572713D01*
X172554757Y-62572713D02*
X172649995Y-62667951D01*
X172649995Y-62667951D02*
X172697614Y-62763189D01*
X172697614Y-62763189D02*
X172745233Y-62953665D01*
X172745233Y-62953665D02*
X172745233Y-63096522D01*
X172745233Y-63096522D02*
X172697614Y-63286998D01*
X172697614Y-63286998D02*
X172649995Y-63382236D01*
X172649995Y-63382236D02*
X172554757Y-63477475D01*
X172554757Y-63477475D02*
X172411900Y-63525094D01*
X172411900Y-63525094D02*
X172173805Y-63525094D01*
X173126186Y-62620332D02*
X173173805Y-62572713D01*
X173173805Y-62572713D02*
X173269043Y-62525094D01*
X173269043Y-62525094D02*
X173507138Y-62525094D01*
X173507138Y-62525094D02*
X173602376Y-62572713D01*
X173602376Y-62572713D02*
X173649995Y-62620332D01*
X173649995Y-62620332D02*
X173697614Y-62715570D01*
X173697614Y-62715570D02*
X173697614Y-62810808D01*
X173697614Y-62810808D02*
X173649995Y-62953665D01*
X173649995Y-62953665D02*
X173078567Y-63525094D01*
X173078567Y-63525094D02*
X173697614Y-63525094D01*
%TO.C,D1*%
X171967875Y-38141884D02*
X171967875Y-37141884D01*
X171967875Y-37141884D02*
X172205970Y-37141884D01*
X172205970Y-37141884D02*
X172348827Y-37189503D01*
X172348827Y-37189503D02*
X172444065Y-37284741D01*
X172444065Y-37284741D02*
X172491684Y-37379979D01*
X172491684Y-37379979D02*
X172539303Y-37570455D01*
X172539303Y-37570455D02*
X172539303Y-37713312D01*
X172539303Y-37713312D02*
X172491684Y-37903788D01*
X172491684Y-37903788D02*
X172444065Y-37999026D01*
X172444065Y-37999026D02*
X172348827Y-38094265D01*
X172348827Y-38094265D02*
X172205970Y-38141884D01*
X172205970Y-38141884D02*
X171967875Y-38141884D01*
X173491684Y-38141884D02*
X172920256Y-38141884D01*
X173205970Y-38141884D02*
X173205970Y-37141884D01*
X173205970Y-37141884D02*
X173110732Y-37284741D01*
X173110732Y-37284741D02*
X173015494Y-37379979D01*
X173015494Y-37379979D02*
X172920256Y-37427598D01*
%TO.C,J2*%
X194494666Y-53328819D02*
X194494666Y-54043104D01*
X194494666Y-54043104D02*
X194447047Y-54185961D01*
X194447047Y-54185961D02*
X194351809Y-54281200D01*
X194351809Y-54281200D02*
X194208952Y-54328819D01*
X194208952Y-54328819D02*
X194113714Y-54328819D01*
X194923238Y-53424057D02*
X194970857Y-53376438D01*
X194970857Y-53376438D02*
X195066095Y-53328819D01*
X195066095Y-53328819D02*
X195304190Y-53328819D01*
X195304190Y-53328819D02*
X195399428Y-53376438D01*
X195399428Y-53376438D02*
X195447047Y-53424057D01*
X195447047Y-53424057D02*
X195494666Y-53519295D01*
X195494666Y-53519295D02*
X195494666Y-53614533D01*
X195494666Y-53614533D02*
X195447047Y-53757390D01*
X195447047Y-53757390D02*
X194875619Y-54328819D01*
X194875619Y-54328819D02*
X195494666Y-54328819D01*
%TO.C,J1*%
X194494666Y-27928819D02*
X194494666Y-28643104D01*
X194494666Y-28643104D02*
X194447047Y-28785961D01*
X194447047Y-28785961D02*
X194351809Y-28881200D01*
X194351809Y-28881200D02*
X194208952Y-28928819D01*
X194208952Y-28928819D02*
X194113714Y-28928819D01*
X195494666Y-28928819D02*
X194923238Y-28928819D01*
X195208952Y-28928819D02*
X195208952Y-27928819D01*
X195208952Y-27928819D02*
X195113714Y-28071676D01*
X195113714Y-28071676D02*
X195018476Y-28166914D01*
X195018476Y-28166914D02*
X194923238Y-28214533D01*
%TO.C,U10*%
X119513485Y-55794122D02*
X120323008Y-55794122D01*
X120323008Y-55794122D02*
X120418246Y-55746503D01*
X120418246Y-55746503D02*
X120465866Y-55698884D01*
X120465866Y-55698884D02*
X120513485Y-55603646D01*
X120513485Y-55603646D02*
X120513485Y-55413170D01*
X120513485Y-55413170D02*
X120465866Y-55317932D01*
X120465866Y-55317932D02*
X120418246Y-55270313D01*
X120418246Y-55270313D02*
X120323008Y-55222694D01*
X120323008Y-55222694D02*
X119513485Y-55222694D01*
X120513485Y-54222694D02*
X120513485Y-54794122D01*
X120513485Y-54508408D02*
X119513485Y-54508408D01*
X119513485Y-54508408D02*
X119656342Y-54603646D01*
X119656342Y-54603646D02*
X119751580Y-54698884D01*
X119751580Y-54698884D02*
X119799199Y-54794122D01*
X119513485Y-53603646D02*
X119513485Y-53508408D01*
X119513485Y-53508408D02*
X119561104Y-53413170D01*
X119561104Y-53413170D02*
X119608723Y-53365551D01*
X119608723Y-53365551D02*
X119703961Y-53317932D01*
X119703961Y-53317932D02*
X119894437Y-53270313D01*
X119894437Y-53270313D02*
X120132532Y-53270313D01*
X120132532Y-53270313D02*
X120323008Y-53317932D01*
X120323008Y-53317932D02*
X120418246Y-53365551D01*
X120418246Y-53365551D02*
X120465866Y-53413170D01*
X120465866Y-53413170D02*
X120513485Y-53508408D01*
X120513485Y-53508408D02*
X120513485Y-53603646D01*
X120513485Y-53603646D02*
X120465866Y-53698884D01*
X120465866Y-53698884D02*
X120418246Y-53746503D01*
X120418246Y-53746503D02*
X120323008Y-53794122D01*
X120323008Y-53794122D02*
X120132532Y-53841741D01*
X120132532Y-53841741D02*
X119894437Y-53841741D01*
X119894437Y-53841741D02*
X119703961Y-53794122D01*
X119703961Y-53794122D02*
X119608723Y-53746503D01*
X119608723Y-53746503D02*
X119561104Y-53698884D01*
X119561104Y-53698884D02*
X119513485Y-53603646D01*
%TO.C,U11*%
X132213485Y-55794122D02*
X133023008Y-55794122D01*
X133023008Y-55794122D02*
X133118246Y-55746503D01*
X133118246Y-55746503D02*
X133165866Y-55698884D01*
X133165866Y-55698884D02*
X133213485Y-55603646D01*
X133213485Y-55603646D02*
X133213485Y-55413170D01*
X133213485Y-55413170D02*
X133165866Y-55317932D01*
X133165866Y-55317932D02*
X133118246Y-55270313D01*
X133118246Y-55270313D02*
X133023008Y-55222694D01*
X133023008Y-55222694D02*
X132213485Y-55222694D01*
X133213485Y-54222694D02*
X133213485Y-54794122D01*
X133213485Y-54508408D02*
X132213485Y-54508408D01*
X132213485Y-54508408D02*
X132356342Y-54603646D01*
X132356342Y-54603646D02*
X132451580Y-54698884D01*
X132451580Y-54698884D02*
X132499199Y-54794122D01*
X133213485Y-53270313D02*
X133213485Y-53841741D01*
X133213485Y-53556027D02*
X132213485Y-53556027D01*
X132213485Y-53556027D02*
X132356342Y-53651265D01*
X132356342Y-53651265D02*
X132451580Y-53746503D01*
X132451580Y-53746503D02*
X132499199Y-53841741D01*
%TO.C,U8*%
X106813485Y-55317932D02*
X107623008Y-55317932D01*
X107623008Y-55317932D02*
X107718246Y-55270313D01*
X107718246Y-55270313D02*
X107765866Y-55222694D01*
X107765866Y-55222694D02*
X107813485Y-55127456D01*
X107813485Y-55127456D02*
X107813485Y-54936980D01*
X107813485Y-54936980D02*
X107765866Y-54841742D01*
X107765866Y-54841742D02*
X107718246Y-54794123D01*
X107718246Y-54794123D02*
X107623008Y-54746504D01*
X107623008Y-54746504D02*
X106813485Y-54746504D01*
X107242056Y-54127456D02*
X107194437Y-54222694D01*
X107194437Y-54222694D02*
X107146818Y-54270313D01*
X107146818Y-54270313D02*
X107051580Y-54317932D01*
X107051580Y-54317932D02*
X107003961Y-54317932D01*
X107003961Y-54317932D02*
X106908723Y-54270313D01*
X106908723Y-54270313D02*
X106861104Y-54222694D01*
X106861104Y-54222694D02*
X106813485Y-54127456D01*
X106813485Y-54127456D02*
X106813485Y-53936980D01*
X106813485Y-53936980D02*
X106861104Y-53841742D01*
X106861104Y-53841742D02*
X106908723Y-53794123D01*
X106908723Y-53794123D02*
X107003961Y-53746504D01*
X107003961Y-53746504D02*
X107051580Y-53746504D01*
X107051580Y-53746504D02*
X107146818Y-53794123D01*
X107146818Y-53794123D02*
X107194437Y-53841742D01*
X107194437Y-53841742D02*
X107242056Y-53936980D01*
X107242056Y-53936980D02*
X107242056Y-54127456D01*
X107242056Y-54127456D02*
X107289675Y-54222694D01*
X107289675Y-54222694D02*
X107337294Y-54270313D01*
X107337294Y-54270313D02*
X107432532Y-54317932D01*
X107432532Y-54317932D02*
X107623008Y-54317932D01*
X107623008Y-54317932D02*
X107718246Y-54270313D01*
X107718246Y-54270313D02*
X107765866Y-54222694D01*
X107765866Y-54222694D02*
X107813485Y-54127456D01*
X107813485Y-54127456D02*
X107813485Y-53936980D01*
X107813485Y-53936980D02*
X107765866Y-53841742D01*
X107765866Y-53841742D02*
X107718246Y-53794123D01*
X107718246Y-53794123D02*
X107623008Y-53746504D01*
X107623008Y-53746504D02*
X107432532Y-53746504D01*
X107432532Y-53746504D02*
X107337294Y-53794123D01*
X107337294Y-53794123D02*
X107289675Y-53841742D01*
X107289675Y-53841742D02*
X107242056Y-53936980D01*
%TO.C,U12*%
X144913485Y-55794122D02*
X145723008Y-55794122D01*
X145723008Y-55794122D02*
X145818246Y-55746503D01*
X145818246Y-55746503D02*
X145865866Y-55698884D01*
X145865866Y-55698884D02*
X145913485Y-55603646D01*
X145913485Y-55603646D02*
X145913485Y-55413170D01*
X145913485Y-55413170D02*
X145865866Y-55317932D01*
X145865866Y-55317932D02*
X145818246Y-55270313D01*
X145818246Y-55270313D02*
X145723008Y-55222694D01*
X145723008Y-55222694D02*
X144913485Y-55222694D01*
X145913485Y-54222694D02*
X145913485Y-54794122D01*
X145913485Y-54508408D02*
X144913485Y-54508408D01*
X144913485Y-54508408D02*
X145056342Y-54603646D01*
X145056342Y-54603646D02*
X145151580Y-54698884D01*
X145151580Y-54698884D02*
X145199199Y-54794122D01*
X145008723Y-53841741D02*
X144961104Y-53794122D01*
X144961104Y-53794122D02*
X144913485Y-53698884D01*
X144913485Y-53698884D02*
X144913485Y-53460789D01*
X144913485Y-53460789D02*
X144961104Y-53365551D01*
X144961104Y-53365551D02*
X145008723Y-53317932D01*
X145008723Y-53317932D02*
X145103961Y-53270313D01*
X145103961Y-53270313D02*
X145199199Y-53270313D01*
X145199199Y-53270313D02*
X145342056Y-53317932D01*
X145342056Y-53317932D02*
X145913485Y-53889360D01*
X145913485Y-53889360D02*
X145913485Y-53270313D01*
%TO.C,U6*%
X144969819Y-30086904D02*
X145779342Y-30086904D01*
X145779342Y-30086904D02*
X145874580Y-30039285D01*
X145874580Y-30039285D02*
X145922200Y-29991666D01*
X145922200Y-29991666D02*
X145969819Y-29896428D01*
X145969819Y-29896428D02*
X145969819Y-29705952D01*
X145969819Y-29705952D02*
X145922200Y-29610714D01*
X145922200Y-29610714D02*
X145874580Y-29563095D01*
X145874580Y-29563095D02*
X145779342Y-29515476D01*
X145779342Y-29515476D02*
X144969819Y-29515476D01*
X144969819Y-28610714D02*
X144969819Y-28801190D01*
X144969819Y-28801190D02*
X145017438Y-28896428D01*
X145017438Y-28896428D02*
X145065057Y-28944047D01*
X145065057Y-28944047D02*
X145207914Y-29039285D01*
X145207914Y-29039285D02*
X145398390Y-29086904D01*
X145398390Y-29086904D02*
X145779342Y-29086904D01*
X145779342Y-29086904D02*
X145874580Y-29039285D01*
X145874580Y-29039285D02*
X145922200Y-28991666D01*
X145922200Y-28991666D02*
X145969819Y-28896428D01*
X145969819Y-28896428D02*
X145969819Y-28705952D01*
X145969819Y-28705952D02*
X145922200Y-28610714D01*
X145922200Y-28610714D02*
X145874580Y-28563095D01*
X145874580Y-28563095D02*
X145779342Y-28515476D01*
X145779342Y-28515476D02*
X145541247Y-28515476D01*
X145541247Y-28515476D02*
X145446009Y-28563095D01*
X145446009Y-28563095D02*
X145398390Y-28610714D01*
X145398390Y-28610714D02*
X145350771Y-28705952D01*
X145350771Y-28705952D02*
X145350771Y-28896428D01*
X145350771Y-28896428D02*
X145398390Y-28991666D01*
X145398390Y-28991666D02*
X145446009Y-29039285D01*
X145446009Y-29039285D02*
X145541247Y-29086904D01*
%TO.C,U2*%
X106869819Y-30086904D02*
X107679342Y-30086904D01*
X107679342Y-30086904D02*
X107774580Y-30039285D01*
X107774580Y-30039285D02*
X107822200Y-29991666D01*
X107822200Y-29991666D02*
X107869819Y-29896428D01*
X107869819Y-29896428D02*
X107869819Y-29705952D01*
X107869819Y-29705952D02*
X107822200Y-29610714D01*
X107822200Y-29610714D02*
X107774580Y-29563095D01*
X107774580Y-29563095D02*
X107679342Y-29515476D01*
X107679342Y-29515476D02*
X106869819Y-29515476D01*
X106965057Y-29086904D02*
X106917438Y-29039285D01*
X106917438Y-29039285D02*
X106869819Y-28944047D01*
X106869819Y-28944047D02*
X106869819Y-28705952D01*
X106869819Y-28705952D02*
X106917438Y-28610714D01*
X106917438Y-28610714D02*
X106965057Y-28563095D01*
X106965057Y-28563095D02*
X107060295Y-28515476D01*
X107060295Y-28515476D02*
X107155533Y-28515476D01*
X107155533Y-28515476D02*
X107298390Y-28563095D01*
X107298390Y-28563095D02*
X107869819Y-29134523D01*
X107869819Y-29134523D02*
X107869819Y-28515476D01*
%TO.C,U4*%
X119569819Y-30086904D02*
X120379342Y-30086904D01*
X120379342Y-30086904D02*
X120474580Y-30039285D01*
X120474580Y-30039285D02*
X120522200Y-29991666D01*
X120522200Y-29991666D02*
X120569819Y-29896428D01*
X120569819Y-29896428D02*
X120569819Y-29705952D01*
X120569819Y-29705952D02*
X120522200Y-29610714D01*
X120522200Y-29610714D02*
X120474580Y-29563095D01*
X120474580Y-29563095D02*
X120379342Y-29515476D01*
X120379342Y-29515476D02*
X119569819Y-29515476D01*
X119903152Y-28610714D02*
X120569819Y-28610714D01*
X119522200Y-28848809D02*
X120236485Y-29086904D01*
X120236485Y-29086904D02*
X120236485Y-28467857D01*
%TO.C,U5*%
X132269819Y-30086904D02*
X133079342Y-30086904D01*
X133079342Y-30086904D02*
X133174580Y-30039285D01*
X133174580Y-30039285D02*
X133222200Y-29991666D01*
X133222200Y-29991666D02*
X133269819Y-29896428D01*
X133269819Y-29896428D02*
X133269819Y-29705952D01*
X133269819Y-29705952D02*
X133222200Y-29610714D01*
X133222200Y-29610714D02*
X133174580Y-29563095D01*
X133174580Y-29563095D02*
X133079342Y-29515476D01*
X133079342Y-29515476D02*
X132269819Y-29515476D01*
X132269819Y-28563095D02*
X132269819Y-29039285D01*
X132269819Y-29039285D02*
X132746009Y-29086904D01*
X132746009Y-29086904D02*
X132698390Y-29039285D01*
X132698390Y-29039285D02*
X132650771Y-28944047D01*
X132650771Y-28944047D02*
X132650771Y-28705952D01*
X132650771Y-28705952D02*
X132698390Y-28610714D01*
X132698390Y-28610714D02*
X132746009Y-28563095D01*
X132746009Y-28563095D02*
X132841247Y-28515476D01*
X132841247Y-28515476D02*
X133079342Y-28515476D01*
X133079342Y-28515476D02*
X133174580Y-28563095D01*
X133174580Y-28563095D02*
X133222200Y-28610714D01*
X133222200Y-28610714D02*
X133269819Y-28705952D01*
X133269819Y-28705952D02*
X133269819Y-28944047D01*
X133269819Y-28944047D02*
X133222200Y-29039285D01*
X133222200Y-29039285D02*
X133174580Y-29086904D01*
%TO.C,U16*%
X167954819Y-41878094D02*
X168764342Y-41878094D01*
X168764342Y-41878094D02*
X168859580Y-41830475D01*
X168859580Y-41830475D02*
X168907200Y-41782856D01*
X168907200Y-41782856D02*
X168954819Y-41687618D01*
X168954819Y-41687618D02*
X168954819Y-41497142D01*
X168954819Y-41497142D02*
X168907200Y-41401904D01*
X168907200Y-41401904D02*
X168859580Y-41354285D01*
X168859580Y-41354285D02*
X168764342Y-41306666D01*
X168764342Y-41306666D02*
X167954819Y-41306666D01*
X168954819Y-40306666D02*
X168954819Y-40878094D01*
X168954819Y-40592380D02*
X167954819Y-40592380D01*
X167954819Y-40592380D02*
X168097676Y-40687618D01*
X168097676Y-40687618D02*
X168192914Y-40782856D01*
X168192914Y-40782856D02*
X168240533Y-40878094D01*
X167954819Y-39449523D02*
X167954819Y-39639999D01*
X167954819Y-39639999D02*
X168002438Y-39735237D01*
X168002438Y-39735237D02*
X168050057Y-39782856D01*
X168050057Y-39782856D02*
X168192914Y-39878094D01*
X168192914Y-39878094D02*
X168383390Y-39925713D01*
X168383390Y-39925713D02*
X168764342Y-39925713D01*
X168764342Y-39925713D02*
X168859580Y-39878094D01*
X168859580Y-39878094D02*
X168907200Y-39830475D01*
X168907200Y-39830475D02*
X168954819Y-39735237D01*
X168954819Y-39735237D02*
X168954819Y-39544761D01*
X168954819Y-39544761D02*
X168907200Y-39449523D01*
X168907200Y-39449523D02*
X168859580Y-39401904D01*
X168859580Y-39401904D02*
X168764342Y-39354285D01*
X168764342Y-39354285D02*
X168526247Y-39354285D01*
X168526247Y-39354285D02*
X168431009Y-39401904D01*
X168431009Y-39401904D02*
X168383390Y-39449523D01*
X168383390Y-39449523D02*
X168335771Y-39544761D01*
X168335771Y-39544761D02*
X168335771Y-39735237D01*
X168335771Y-39735237D02*
X168383390Y-39830475D01*
X168383390Y-39830475D02*
X168431009Y-39878094D01*
X168431009Y-39878094D02*
X168526247Y-39925713D01*
%TO.C,U15*%
X169499977Y-58993632D02*
X170309500Y-58993632D01*
X170309500Y-58993632D02*
X170404738Y-58946013D01*
X170404738Y-58946013D02*
X170452358Y-58898394D01*
X170452358Y-58898394D02*
X170499977Y-58803156D01*
X170499977Y-58803156D02*
X170499977Y-58612680D01*
X170499977Y-58612680D02*
X170452358Y-58517442D01*
X170452358Y-58517442D02*
X170404738Y-58469823D01*
X170404738Y-58469823D02*
X170309500Y-58422204D01*
X170309500Y-58422204D02*
X169499977Y-58422204D01*
X170499977Y-57422204D02*
X170499977Y-57993632D01*
X170499977Y-57707918D02*
X169499977Y-57707918D01*
X169499977Y-57707918D02*
X169642834Y-57803156D01*
X169642834Y-57803156D02*
X169738072Y-57898394D01*
X169738072Y-57898394D02*
X169785691Y-57993632D01*
X169499977Y-56517442D02*
X169499977Y-56993632D01*
X169499977Y-56993632D02*
X169976167Y-57041251D01*
X169976167Y-57041251D02*
X169928548Y-56993632D01*
X169928548Y-56993632D02*
X169880929Y-56898394D01*
X169880929Y-56898394D02*
X169880929Y-56660299D01*
X169880929Y-56660299D02*
X169928548Y-56565061D01*
X169928548Y-56565061D02*
X169976167Y-56517442D01*
X169976167Y-56517442D02*
X170071405Y-56469823D01*
X170071405Y-56469823D02*
X170309500Y-56469823D01*
X170309500Y-56469823D02*
X170404738Y-56517442D01*
X170404738Y-56517442D02*
X170452358Y-56565061D01*
X170452358Y-56565061D02*
X170499977Y-56660299D01*
X170499977Y-56660299D02*
X170499977Y-56898394D01*
X170499977Y-56898394D02*
X170452358Y-56993632D01*
X170452358Y-56993632D02*
X170404738Y-57041251D01*
%TO.C,U14*%
X170028819Y-68802094D02*
X170838342Y-68802094D01*
X170838342Y-68802094D02*
X170933580Y-68754475D01*
X170933580Y-68754475D02*
X170981200Y-68706856D01*
X170981200Y-68706856D02*
X171028819Y-68611618D01*
X171028819Y-68611618D02*
X171028819Y-68421142D01*
X171028819Y-68421142D02*
X170981200Y-68325904D01*
X170981200Y-68325904D02*
X170933580Y-68278285D01*
X170933580Y-68278285D02*
X170838342Y-68230666D01*
X170838342Y-68230666D02*
X170028819Y-68230666D01*
X171028819Y-67230666D02*
X171028819Y-67802094D01*
X171028819Y-67516380D02*
X170028819Y-67516380D01*
X170028819Y-67516380D02*
X170171676Y-67611618D01*
X170171676Y-67611618D02*
X170266914Y-67706856D01*
X170266914Y-67706856D02*
X170314533Y-67802094D01*
X170362152Y-66373523D02*
X171028819Y-66373523D01*
X169981200Y-66611618D02*
X170695485Y-66849713D01*
X170695485Y-66849713D02*
X170695485Y-66230666D01*
%TO.C,U13*%
X169774819Y-43402094D02*
X170584342Y-43402094D01*
X170584342Y-43402094D02*
X170679580Y-43354475D01*
X170679580Y-43354475D02*
X170727200Y-43306856D01*
X170727200Y-43306856D02*
X170774819Y-43211618D01*
X170774819Y-43211618D02*
X170774819Y-43021142D01*
X170774819Y-43021142D02*
X170727200Y-42925904D01*
X170727200Y-42925904D02*
X170679580Y-42878285D01*
X170679580Y-42878285D02*
X170584342Y-42830666D01*
X170584342Y-42830666D02*
X169774819Y-42830666D01*
X170774819Y-41830666D02*
X170774819Y-42402094D01*
X170774819Y-42116380D02*
X169774819Y-42116380D01*
X169774819Y-42116380D02*
X169917676Y-42211618D01*
X169917676Y-42211618D02*
X170012914Y-42306856D01*
X170012914Y-42306856D02*
X170060533Y-42402094D01*
X169774819Y-41497332D02*
X169774819Y-40878285D01*
X169774819Y-40878285D02*
X170155771Y-41211618D01*
X170155771Y-41211618D02*
X170155771Y-41068761D01*
X170155771Y-41068761D02*
X170203390Y-40973523D01*
X170203390Y-40973523D02*
X170251009Y-40925904D01*
X170251009Y-40925904D02*
X170346247Y-40878285D01*
X170346247Y-40878285D02*
X170584342Y-40878285D01*
X170584342Y-40878285D02*
X170679580Y-40925904D01*
X170679580Y-40925904D02*
X170727200Y-40973523D01*
X170727200Y-40973523D02*
X170774819Y-41068761D01*
X170774819Y-41068761D02*
X170774819Y-41354475D01*
X170774819Y-41354475D02*
X170727200Y-41449713D01*
X170727200Y-41449713D02*
X170679580Y-41497332D01*
%TO.C,U12*%
X94113485Y-55794122D02*
X94923008Y-55794122D01*
X94923008Y-55794122D02*
X95018246Y-55746503D01*
X95018246Y-55746503D02*
X95065866Y-55698884D01*
X95065866Y-55698884D02*
X95113485Y-55603646D01*
X95113485Y-55603646D02*
X95113485Y-55413170D01*
X95113485Y-55413170D02*
X95065866Y-55317932D01*
X95065866Y-55317932D02*
X95018246Y-55270313D01*
X95018246Y-55270313D02*
X94923008Y-55222694D01*
X94923008Y-55222694D02*
X94113485Y-55222694D01*
X95113485Y-54222694D02*
X95113485Y-54794122D01*
X95113485Y-54508408D02*
X94113485Y-54508408D01*
X94113485Y-54508408D02*
X94256342Y-54603646D01*
X94256342Y-54603646D02*
X94351580Y-54698884D01*
X94351580Y-54698884D02*
X94399199Y-54794122D01*
X94208723Y-53841741D02*
X94161104Y-53794122D01*
X94161104Y-53794122D02*
X94113485Y-53698884D01*
X94113485Y-53698884D02*
X94113485Y-53460789D01*
X94113485Y-53460789D02*
X94161104Y-53365551D01*
X94161104Y-53365551D02*
X94208723Y-53317932D01*
X94208723Y-53317932D02*
X94303961Y-53270313D01*
X94303961Y-53270313D02*
X94399199Y-53270313D01*
X94399199Y-53270313D02*
X94542056Y-53317932D01*
X94542056Y-53317932D02*
X95113485Y-53889360D01*
X95113485Y-53889360D02*
X95113485Y-53270313D01*
%TO.C,U11*%
X81413485Y-55794122D02*
X82223008Y-55794122D01*
X82223008Y-55794122D02*
X82318246Y-55746503D01*
X82318246Y-55746503D02*
X82365866Y-55698884D01*
X82365866Y-55698884D02*
X82413485Y-55603646D01*
X82413485Y-55603646D02*
X82413485Y-55413170D01*
X82413485Y-55413170D02*
X82365866Y-55317932D01*
X82365866Y-55317932D02*
X82318246Y-55270313D01*
X82318246Y-55270313D02*
X82223008Y-55222694D01*
X82223008Y-55222694D02*
X81413485Y-55222694D01*
X82413485Y-54222694D02*
X82413485Y-54794122D01*
X82413485Y-54508408D02*
X81413485Y-54508408D01*
X81413485Y-54508408D02*
X81556342Y-54603646D01*
X81556342Y-54603646D02*
X81651580Y-54698884D01*
X81651580Y-54698884D02*
X81699199Y-54794122D01*
X82413485Y-53270313D02*
X82413485Y-53841741D01*
X82413485Y-53556027D02*
X81413485Y-53556027D01*
X81413485Y-53556027D02*
X81556342Y-53651265D01*
X81556342Y-53651265D02*
X81651580Y-53746503D01*
X81651580Y-53746503D02*
X81699199Y-53841741D01*
%TO.C,U10*%
X68713485Y-55794122D02*
X69523008Y-55794122D01*
X69523008Y-55794122D02*
X69618246Y-55746503D01*
X69618246Y-55746503D02*
X69665866Y-55698884D01*
X69665866Y-55698884D02*
X69713485Y-55603646D01*
X69713485Y-55603646D02*
X69713485Y-55413170D01*
X69713485Y-55413170D02*
X69665866Y-55317932D01*
X69665866Y-55317932D02*
X69618246Y-55270313D01*
X69618246Y-55270313D02*
X69523008Y-55222694D01*
X69523008Y-55222694D02*
X68713485Y-55222694D01*
X69713485Y-54222694D02*
X69713485Y-54794122D01*
X69713485Y-54508408D02*
X68713485Y-54508408D01*
X68713485Y-54508408D02*
X68856342Y-54603646D01*
X68856342Y-54603646D02*
X68951580Y-54698884D01*
X68951580Y-54698884D02*
X68999199Y-54794122D01*
X68713485Y-53603646D02*
X68713485Y-53508408D01*
X68713485Y-53508408D02*
X68761104Y-53413170D01*
X68761104Y-53413170D02*
X68808723Y-53365551D01*
X68808723Y-53365551D02*
X68903961Y-53317932D01*
X68903961Y-53317932D02*
X69094437Y-53270313D01*
X69094437Y-53270313D02*
X69332532Y-53270313D01*
X69332532Y-53270313D02*
X69523008Y-53317932D01*
X69523008Y-53317932D02*
X69618246Y-53365551D01*
X69618246Y-53365551D02*
X69665866Y-53413170D01*
X69665866Y-53413170D02*
X69713485Y-53508408D01*
X69713485Y-53508408D02*
X69713485Y-53603646D01*
X69713485Y-53603646D02*
X69665866Y-53698884D01*
X69665866Y-53698884D02*
X69618246Y-53746503D01*
X69618246Y-53746503D02*
X69523008Y-53794122D01*
X69523008Y-53794122D02*
X69332532Y-53841741D01*
X69332532Y-53841741D02*
X69094437Y-53841741D01*
X69094437Y-53841741D02*
X68903961Y-53794122D01*
X68903961Y-53794122D02*
X68808723Y-53746503D01*
X68808723Y-53746503D02*
X68761104Y-53698884D01*
X68761104Y-53698884D02*
X68713485Y-53603646D01*
%TO.C,U9*%
X55578485Y-58981050D02*
X56388008Y-58981050D01*
X56388008Y-58981050D02*
X56483246Y-58933431D01*
X56483246Y-58933431D02*
X56530866Y-58885812D01*
X56530866Y-58885812D02*
X56578485Y-58790574D01*
X56578485Y-58790574D02*
X56578485Y-58600098D01*
X56578485Y-58600098D02*
X56530866Y-58504860D01*
X56530866Y-58504860D02*
X56483246Y-58457241D01*
X56483246Y-58457241D02*
X56388008Y-58409622D01*
X56388008Y-58409622D02*
X55578485Y-58409622D01*
X56578485Y-57885812D02*
X56578485Y-57695336D01*
X56578485Y-57695336D02*
X56530866Y-57600098D01*
X56530866Y-57600098D02*
X56483246Y-57552479D01*
X56483246Y-57552479D02*
X56340389Y-57457241D01*
X56340389Y-57457241D02*
X56149913Y-57409622D01*
X56149913Y-57409622D02*
X55768961Y-57409622D01*
X55768961Y-57409622D02*
X55673723Y-57457241D01*
X55673723Y-57457241D02*
X55626104Y-57504860D01*
X55626104Y-57504860D02*
X55578485Y-57600098D01*
X55578485Y-57600098D02*
X55578485Y-57790574D01*
X55578485Y-57790574D02*
X55626104Y-57885812D01*
X55626104Y-57885812D02*
X55673723Y-57933431D01*
X55673723Y-57933431D02*
X55768961Y-57981050D01*
X55768961Y-57981050D02*
X56007056Y-57981050D01*
X56007056Y-57981050D02*
X56102294Y-57933431D01*
X56102294Y-57933431D02*
X56149913Y-57885812D01*
X56149913Y-57885812D02*
X56197532Y-57790574D01*
X56197532Y-57790574D02*
X56197532Y-57600098D01*
X56197532Y-57600098D02*
X56149913Y-57504860D01*
X56149913Y-57504860D02*
X56102294Y-57457241D01*
X56102294Y-57457241D02*
X56007056Y-57409622D01*
%TO.C,U8*%
X56013485Y-55317932D02*
X56823008Y-55317932D01*
X56823008Y-55317932D02*
X56918246Y-55270313D01*
X56918246Y-55270313D02*
X56965866Y-55222694D01*
X56965866Y-55222694D02*
X57013485Y-55127456D01*
X57013485Y-55127456D02*
X57013485Y-54936980D01*
X57013485Y-54936980D02*
X56965866Y-54841742D01*
X56965866Y-54841742D02*
X56918246Y-54794123D01*
X56918246Y-54794123D02*
X56823008Y-54746504D01*
X56823008Y-54746504D02*
X56013485Y-54746504D01*
X56442056Y-54127456D02*
X56394437Y-54222694D01*
X56394437Y-54222694D02*
X56346818Y-54270313D01*
X56346818Y-54270313D02*
X56251580Y-54317932D01*
X56251580Y-54317932D02*
X56203961Y-54317932D01*
X56203961Y-54317932D02*
X56108723Y-54270313D01*
X56108723Y-54270313D02*
X56061104Y-54222694D01*
X56061104Y-54222694D02*
X56013485Y-54127456D01*
X56013485Y-54127456D02*
X56013485Y-53936980D01*
X56013485Y-53936980D02*
X56061104Y-53841742D01*
X56061104Y-53841742D02*
X56108723Y-53794123D01*
X56108723Y-53794123D02*
X56203961Y-53746504D01*
X56203961Y-53746504D02*
X56251580Y-53746504D01*
X56251580Y-53746504D02*
X56346818Y-53794123D01*
X56346818Y-53794123D02*
X56394437Y-53841742D01*
X56394437Y-53841742D02*
X56442056Y-53936980D01*
X56442056Y-53936980D02*
X56442056Y-54127456D01*
X56442056Y-54127456D02*
X56489675Y-54222694D01*
X56489675Y-54222694D02*
X56537294Y-54270313D01*
X56537294Y-54270313D02*
X56632532Y-54317932D01*
X56632532Y-54317932D02*
X56823008Y-54317932D01*
X56823008Y-54317932D02*
X56918246Y-54270313D01*
X56918246Y-54270313D02*
X56965866Y-54222694D01*
X56965866Y-54222694D02*
X57013485Y-54127456D01*
X57013485Y-54127456D02*
X57013485Y-53936980D01*
X57013485Y-53936980D02*
X56965866Y-53841742D01*
X56965866Y-53841742D02*
X56918246Y-53794123D01*
X56918246Y-53794123D02*
X56823008Y-53746504D01*
X56823008Y-53746504D02*
X56632532Y-53746504D01*
X56632532Y-53746504D02*
X56537294Y-53794123D01*
X56537294Y-53794123D02*
X56489675Y-53841742D01*
X56489675Y-53841742D02*
X56442056Y-53936980D01*
%TO.C,U7*%
X169274819Y-33781904D02*
X170084342Y-33781904D01*
X170084342Y-33781904D02*
X170179580Y-33734285D01*
X170179580Y-33734285D02*
X170227200Y-33686666D01*
X170227200Y-33686666D02*
X170274819Y-33591428D01*
X170274819Y-33591428D02*
X170274819Y-33400952D01*
X170274819Y-33400952D02*
X170227200Y-33305714D01*
X170227200Y-33305714D02*
X170179580Y-33258095D01*
X170179580Y-33258095D02*
X170084342Y-33210476D01*
X170084342Y-33210476D02*
X169274819Y-33210476D01*
X169274819Y-32829523D02*
X169274819Y-32162857D01*
X169274819Y-32162857D02*
X170274819Y-32591428D01*
%TO.C,U6*%
X94169819Y-30086904D02*
X94979342Y-30086904D01*
X94979342Y-30086904D02*
X95074580Y-30039285D01*
X95074580Y-30039285D02*
X95122200Y-29991666D01*
X95122200Y-29991666D02*
X95169819Y-29896428D01*
X95169819Y-29896428D02*
X95169819Y-29705952D01*
X95169819Y-29705952D02*
X95122200Y-29610714D01*
X95122200Y-29610714D02*
X95074580Y-29563095D01*
X95074580Y-29563095D02*
X94979342Y-29515476D01*
X94979342Y-29515476D02*
X94169819Y-29515476D01*
X94169819Y-28610714D02*
X94169819Y-28801190D01*
X94169819Y-28801190D02*
X94217438Y-28896428D01*
X94217438Y-28896428D02*
X94265057Y-28944047D01*
X94265057Y-28944047D02*
X94407914Y-29039285D01*
X94407914Y-29039285D02*
X94598390Y-29086904D01*
X94598390Y-29086904D02*
X94979342Y-29086904D01*
X94979342Y-29086904D02*
X95074580Y-29039285D01*
X95074580Y-29039285D02*
X95122200Y-28991666D01*
X95122200Y-28991666D02*
X95169819Y-28896428D01*
X95169819Y-28896428D02*
X95169819Y-28705952D01*
X95169819Y-28705952D02*
X95122200Y-28610714D01*
X95122200Y-28610714D02*
X95074580Y-28563095D01*
X95074580Y-28563095D02*
X94979342Y-28515476D01*
X94979342Y-28515476D02*
X94741247Y-28515476D01*
X94741247Y-28515476D02*
X94646009Y-28563095D01*
X94646009Y-28563095D02*
X94598390Y-28610714D01*
X94598390Y-28610714D02*
X94550771Y-28705952D01*
X94550771Y-28705952D02*
X94550771Y-28896428D01*
X94550771Y-28896428D02*
X94598390Y-28991666D01*
X94598390Y-28991666D02*
X94646009Y-29039285D01*
X94646009Y-29039285D02*
X94741247Y-29086904D01*
%TO.C,U5*%
X81469819Y-30086904D02*
X82279342Y-30086904D01*
X82279342Y-30086904D02*
X82374580Y-30039285D01*
X82374580Y-30039285D02*
X82422200Y-29991666D01*
X82422200Y-29991666D02*
X82469819Y-29896428D01*
X82469819Y-29896428D02*
X82469819Y-29705952D01*
X82469819Y-29705952D02*
X82422200Y-29610714D01*
X82422200Y-29610714D02*
X82374580Y-29563095D01*
X82374580Y-29563095D02*
X82279342Y-29515476D01*
X82279342Y-29515476D02*
X81469819Y-29515476D01*
X81469819Y-28563095D02*
X81469819Y-29039285D01*
X81469819Y-29039285D02*
X81946009Y-29086904D01*
X81946009Y-29086904D02*
X81898390Y-29039285D01*
X81898390Y-29039285D02*
X81850771Y-28944047D01*
X81850771Y-28944047D02*
X81850771Y-28705952D01*
X81850771Y-28705952D02*
X81898390Y-28610714D01*
X81898390Y-28610714D02*
X81946009Y-28563095D01*
X81946009Y-28563095D02*
X82041247Y-28515476D01*
X82041247Y-28515476D02*
X82279342Y-28515476D01*
X82279342Y-28515476D02*
X82374580Y-28563095D01*
X82374580Y-28563095D02*
X82422200Y-28610714D01*
X82422200Y-28610714D02*
X82469819Y-28705952D01*
X82469819Y-28705952D02*
X82469819Y-28944047D01*
X82469819Y-28944047D02*
X82422200Y-29039285D01*
X82422200Y-29039285D02*
X82374580Y-29086904D01*
%TO.C,U4*%
X68769819Y-30086904D02*
X69579342Y-30086904D01*
X69579342Y-30086904D02*
X69674580Y-30039285D01*
X69674580Y-30039285D02*
X69722200Y-29991666D01*
X69722200Y-29991666D02*
X69769819Y-29896428D01*
X69769819Y-29896428D02*
X69769819Y-29705952D01*
X69769819Y-29705952D02*
X69722200Y-29610714D01*
X69722200Y-29610714D02*
X69674580Y-29563095D01*
X69674580Y-29563095D02*
X69579342Y-29515476D01*
X69579342Y-29515476D02*
X68769819Y-29515476D01*
X69103152Y-28610714D02*
X69769819Y-28610714D01*
X68722200Y-28848809D02*
X69436485Y-29086904D01*
X69436485Y-29086904D02*
X69436485Y-28467857D01*
%TO.C,U3*%
X56161094Y-33811904D02*
X56970617Y-33811904D01*
X56970617Y-33811904D02*
X57065855Y-33764285D01*
X57065855Y-33764285D02*
X57113475Y-33716666D01*
X57113475Y-33716666D02*
X57161094Y-33621428D01*
X57161094Y-33621428D02*
X57161094Y-33430952D01*
X57161094Y-33430952D02*
X57113475Y-33335714D01*
X57113475Y-33335714D02*
X57065855Y-33288095D01*
X57065855Y-33288095D02*
X56970617Y-33240476D01*
X56970617Y-33240476D02*
X56161094Y-33240476D01*
X56161094Y-32859523D02*
X56161094Y-32240476D01*
X56161094Y-32240476D02*
X56542046Y-32573809D01*
X56542046Y-32573809D02*
X56542046Y-32430952D01*
X56542046Y-32430952D02*
X56589665Y-32335714D01*
X56589665Y-32335714D02*
X56637284Y-32288095D01*
X56637284Y-32288095D02*
X56732522Y-32240476D01*
X56732522Y-32240476D02*
X56970617Y-32240476D01*
X56970617Y-32240476D02*
X57065855Y-32288095D01*
X57065855Y-32288095D02*
X57113475Y-32335714D01*
X57113475Y-32335714D02*
X57161094Y-32430952D01*
X57161094Y-32430952D02*
X57161094Y-32716666D01*
X57161094Y-32716666D02*
X57113475Y-32811904D01*
X57113475Y-32811904D02*
X57065855Y-32859523D01*
%TO.C,U2*%
X56069819Y-30086904D02*
X56879342Y-30086904D01*
X56879342Y-30086904D02*
X56974580Y-30039285D01*
X56974580Y-30039285D02*
X57022200Y-29991666D01*
X57022200Y-29991666D02*
X57069819Y-29896428D01*
X57069819Y-29896428D02*
X57069819Y-29705952D01*
X57069819Y-29705952D02*
X57022200Y-29610714D01*
X57022200Y-29610714D02*
X56974580Y-29563095D01*
X56974580Y-29563095D02*
X56879342Y-29515476D01*
X56879342Y-29515476D02*
X56069819Y-29515476D01*
X56165057Y-29086904D02*
X56117438Y-29039285D01*
X56117438Y-29039285D02*
X56069819Y-28944047D01*
X56069819Y-28944047D02*
X56069819Y-28705952D01*
X56069819Y-28705952D02*
X56117438Y-28610714D01*
X56117438Y-28610714D02*
X56165057Y-28563095D01*
X56165057Y-28563095D02*
X56260295Y-28515476D01*
X56260295Y-28515476D02*
X56355533Y-28515476D01*
X56355533Y-28515476D02*
X56498390Y-28563095D01*
X56498390Y-28563095D02*
X57069819Y-29134523D01*
X57069819Y-29134523D02*
X57069819Y-28515476D01*
%TO.C,U1*%
X167898485Y-66801904D02*
X168708008Y-66801904D01*
X168708008Y-66801904D02*
X168803246Y-66754285D01*
X168803246Y-66754285D02*
X168850866Y-66706666D01*
X168850866Y-66706666D02*
X168898485Y-66611428D01*
X168898485Y-66611428D02*
X168898485Y-66420952D01*
X168898485Y-66420952D02*
X168850866Y-66325714D01*
X168850866Y-66325714D02*
X168803246Y-66278095D01*
X168803246Y-66278095D02*
X168708008Y-66230476D01*
X168708008Y-66230476D02*
X167898485Y-66230476D01*
X168898485Y-65230476D02*
X168898485Y-65801904D01*
X168898485Y-65516190D02*
X167898485Y-65516190D01*
X167898485Y-65516190D02*
X168041342Y-65611428D01*
X168041342Y-65611428D02*
X168136580Y-65706666D01*
X168136580Y-65706666D02*
X168184199Y-65801904D01*
D13*
%TO.C,R13*%
X174022541Y-46606644D02*
X173689208Y-46130453D01*
X173451113Y-46606644D02*
X173451113Y-45606644D01*
X173451113Y-45606644D02*
X173832065Y-45606644D01*
X173832065Y-45606644D02*
X173927303Y-45654263D01*
X173927303Y-45654263D02*
X173974922Y-45701882D01*
X173974922Y-45701882D02*
X174022541Y-45797120D01*
X174022541Y-45797120D02*
X174022541Y-45939977D01*
X174022541Y-45939977D02*
X173974922Y-46035215D01*
X173974922Y-46035215D02*
X173927303Y-46082834D01*
X173927303Y-46082834D02*
X173832065Y-46130453D01*
X173832065Y-46130453D02*
X173451113Y-46130453D01*
X174974922Y-46606644D02*
X174403494Y-46606644D01*
X174689208Y-46606644D02*
X174689208Y-45606644D01*
X174689208Y-45606644D02*
X174593970Y-45749501D01*
X174593970Y-45749501D02*
X174498732Y-45844739D01*
X174498732Y-45844739D02*
X174403494Y-45892358D01*
X175308256Y-45606644D02*
X175927303Y-45606644D01*
X175927303Y-45606644D02*
X175593970Y-45987596D01*
X175593970Y-45987596D02*
X175736827Y-45987596D01*
X175736827Y-45987596D02*
X175832065Y-46035215D01*
X175832065Y-46035215D02*
X175879684Y-46082834D01*
X175879684Y-46082834D02*
X175927303Y-46178072D01*
X175927303Y-46178072D02*
X175927303Y-46416167D01*
X175927303Y-46416167D02*
X175879684Y-46511405D01*
X175879684Y-46511405D02*
X175832065Y-46559025D01*
X175832065Y-46559025D02*
X175736827Y-46606644D01*
X175736827Y-46606644D02*
X175451113Y-46606644D01*
X175451113Y-46606644D02*
X175355875Y-46559025D01*
X175355875Y-46559025D02*
X175308256Y-46511405D01*
%TO.C,R12*%
X174022540Y-22107418D02*
X173689207Y-21631227D01*
X173451112Y-22107418D02*
X173451112Y-21107418D01*
X173451112Y-21107418D02*
X173832064Y-21107418D01*
X173832064Y-21107418D02*
X173927302Y-21155037D01*
X173927302Y-21155037D02*
X173974921Y-21202656D01*
X173974921Y-21202656D02*
X174022540Y-21297894D01*
X174022540Y-21297894D02*
X174022540Y-21440751D01*
X174022540Y-21440751D02*
X173974921Y-21535989D01*
X173974921Y-21535989D02*
X173927302Y-21583608D01*
X173927302Y-21583608D02*
X173832064Y-21631227D01*
X173832064Y-21631227D02*
X173451112Y-21631227D01*
X174974921Y-22107418D02*
X174403493Y-22107418D01*
X174689207Y-22107418D02*
X174689207Y-21107418D01*
X174689207Y-21107418D02*
X174593969Y-21250275D01*
X174593969Y-21250275D02*
X174498731Y-21345513D01*
X174498731Y-21345513D02*
X174403493Y-21393132D01*
X175355874Y-21202656D02*
X175403493Y-21155037D01*
X175403493Y-21155037D02*
X175498731Y-21107418D01*
X175498731Y-21107418D02*
X175736826Y-21107418D01*
X175736826Y-21107418D02*
X175832064Y-21155037D01*
X175832064Y-21155037D02*
X175879683Y-21202656D01*
X175879683Y-21202656D02*
X175927302Y-21297894D01*
X175927302Y-21297894D02*
X175927302Y-21393132D01*
X175927302Y-21393132D02*
X175879683Y-21535989D01*
X175879683Y-21535989D02*
X175308255Y-22107418D01*
X175308255Y-22107418D02*
X175927302Y-22107418D01*
%TO.C,R8*%
X159258732Y-46606644D02*
X158925399Y-46130453D01*
X158687304Y-46606644D02*
X158687304Y-45606644D01*
X158687304Y-45606644D02*
X159068256Y-45606644D01*
X159068256Y-45606644D02*
X159163494Y-45654263D01*
X159163494Y-45654263D02*
X159211113Y-45701882D01*
X159211113Y-45701882D02*
X159258732Y-45797120D01*
X159258732Y-45797120D02*
X159258732Y-45939977D01*
X159258732Y-45939977D02*
X159211113Y-46035215D01*
X159211113Y-46035215D02*
X159163494Y-46082834D01*
X159163494Y-46082834D02*
X159068256Y-46130453D01*
X159068256Y-46130453D02*
X158687304Y-46130453D01*
X159830161Y-46035215D02*
X159734923Y-45987596D01*
X159734923Y-45987596D02*
X159687304Y-45939977D01*
X159687304Y-45939977D02*
X159639685Y-45844739D01*
X159639685Y-45844739D02*
X159639685Y-45797120D01*
X159639685Y-45797120D02*
X159687304Y-45701882D01*
X159687304Y-45701882D02*
X159734923Y-45654263D01*
X159734923Y-45654263D02*
X159830161Y-45606644D01*
X159830161Y-45606644D02*
X160020637Y-45606644D01*
X160020637Y-45606644D02*
X160115875Y-45654263D01*
X160115875Y-45654263D02*
X160163494Y-45701882D01*
X160163494Y-45701882D02*
X160211113Y-45797120D01*
X160211113Y-45797120D02*
X160211113Y-45844739D01*
X160211113Y-45844739D02*
X160163494Y-45939977D01*
X160163494Y-45939977D02*
X160115875Y-45987596D01*
X160115875Y-45987596D02*
X160020637Y-46035215D01*
X160020637Y-46035215D02*
X159830161Y-46035215D01*
X159830161Y-46035215D02*
X159734923Y-46082834D01*
X159734923Y-46082834D02*
X159687304Y-46130453D01*
X159687304Y-46130453D02*
X159639685Y-46225691D01*
X159639685Y-46225691D02*
X159639685Y-46416167D01*
X159639685Y-46416167D02*
X159687304Y-46511405D01*
X159687304Y-46511405D02*
X159734923Y-46559025D01*
X159734923Y-46559025D02*
X159830161Y-46606644D01*
X159830161Y-46606644D02*
X160020637Y-46606644D01*
X160020637Y-46606644D02*
X160115875Y-46559025D01*
X160115875Y-46559025D02*
X160163494Y-46511405D01*
X160163494Y-46511405D02*
X160211113Y-46416167D01*
X160211113Y-46416167D02*
X160211113Y-46225691D01*
X160211113Y-46225691D02*
X160163494Y-46130453D01*
X160163494Y-46130453D02*
X160115875Y-46082834D01*
X160115875Y-46082834D02*
X160020637Y-46035215D01*
%TO.C,R7*%
X159258731Y-22107418D02*
X158925398Y-21631227D01*
X158687303Y-22107418D02*
X158687303Y-21107418D01*
X158687303Y-21107418D02*
X159068255Y-21107418D01*
X159068255Y-21107418D02*
X159163493Y-21155037D01*
X159163493Y-21155037D02*
X159211112Y-21202656D01*
X159211112Y-21202656D02*
X159258731Y-21297894D01*
X159258731Y-21297894D02*
X159258731Y-21440751D01*
X159258731Y-21440751D02*
X159211112Y-21535989D01*
X159211112Y-21535989D02*
X159163493Y-21583608D01*
X159163493Y-21583608D02*
X159068255Y-21631227D01*
X159068255Y-21631227D02*
X158687303Y-21631227D01*
X159592065Y-21107418D02*
X160258731Y-21107418D01*
X160258731Y-21107418D02*
X159830160Y-22107418D01*
D10*
%TO.C,R4*%
X158028819Y-62396666D02*
X157552628Y-62729999D01*
X158028819Y-62968094D02*
X157028819Y-62968094D01*
X157028819Y-62968094D02*
X157028819Y-62587142D01*
X157028819Y-62587142D02*
X157076438Y-62491904D01*
X157076438Y-62491904D02*
X157124057Y-62444285D01*
X157124057Y-62444285D02*
X157219295Y-62396666D01*
X157219295Y-62396666D02*
X157362152Y-62396666D01*
X157362152Y-62396666D02*
X157457390Y-62444285D01*
X157457390Y-62444285D02*
X157505009Y-62491904D01*
X157505009Y-62491904D02*
X157552628Y-62587142D01*
X157552628Y-62587142D02*
X157552628Y-62968094D01*
X157362152Y-61539523D02*
X158028819Y-61539523D01*
X156981200Y-61777618D02*
X157695485Y-62015713D01*
X157695485Y-62015713D02*
X157695485Y-61396666D01*
%TO.C,R2*%
X158028819Y-36742666D02*
X157552628Y-37075999D01*
X158028819Y-37314094D02*
X157028819Y-37314094D01*
X157028819Y-37314094D02*
X157028819Y-36933142D01*
X157028819Y-36933142D02*
X157076438Y-36837904D01*
X157076438Y-36837904D02*
X157124057Y-36790285D01*
X157124057Y-36790285D02*
X157219295Y-36742666D01*
X157219295Y-36742666D02*
X157362152Y-36742666D01*
X157362152Y-36742666D02*
X157457390Y-36790285D01*
X157457390Y-36790285D02*
X157505009Y-36837904D01*
X157505009Y-36837904D02*
X157552628Y-36933142D01*
X157552628Y-36933142D02*
X157552628Y-37314094D01*
X157124057Y-36361713D02*
X157076438Y-36314094D01*
X157076438Y-36314094D02*
X157028819Y-36218856D01*
X157028819Y-36218856D02*
X157028819Y-35980761D01*
X157028819Y-35980761D02*
X157076438Y-35885523D01*
X157076438Y-35885523D02*
X157124057Y-35837904D01*
X157124057Y-35837904D02*
X157219295Y-35790285D01*
X157219295Y-35790285D02*
X157314533Y-35790285D01*
X157314533Y-35790285D02*
X157457390Y-35837904D01*
X157457390Y-35837904D02*
X158028819Y-36409332D01*
X158028819Y-36409332D02*
X158028819Y-35790285D01*
D14*
%TO.C,R11*%
X164489224Y-34558500D02*
X163979776Y-34558500D01*
X164489224Y-33513500D02*
X163979776Y-33513500D01*
%TO.C,C12*%
X42996000Y-61105748D02*
X42996000Y-58274252D01*
X37776000Y-61105748D02*
X37776000Y-58274252D01*
%TO.C,C5*%
X38030000Y-35705748D02*
X38030000Y-32874252D01*
X43250000Y-35705748D02*
X43250000Y-32874252D01*
%TO.C,C4*%
X154736748Y-70252000D02*
X156159252Y-70252000D01*
X154736748Y-68432000D02*
X156159252Y-68432000D01*
%TO.C,C3*%
X154736748Y-44852000D02*
X156159252Y-44852000D01*
X154736748Y-43032000D02*
X156159252Y-43032000D01*
%TO.C,C2*%
X173120267Y-55120000D02*
X172827733Y-55120000D01*
X173120267Y-54100000D02*
X172827733Y-54100000D01*
%TO.C,C1*%
X172926511Y-30428224D02*
X172633977Y-30428224D01*
X172926511Y-29408224D02*
X172633977Y-29408224D01*
%TO.C,R3*%
X160767500Y-62484724D02*
X160767500Y-61975276D01*
X161812500Y-62484724D02*
X161812500Y-61975276D01*
%TO.C,R1*%
X161812500Y-36830724D02*
X161812500Y-36321276D01*
X160767500Y-36830724D02*
X160767500Y-36321276D01*
%TO.C,R22*%
X178830500Y-66039276D02*
X178830500Y-66548724D01*
X177785500Y-66039276D02*
X177785500Y-66548724D01*
%TO.C,R21*%
X160767500Y-68580724D02*
X160767500Y-68071276D01*
X161812500Y-68580724D02*
X161812500Y-68071276D01*
%TO.C,R20*%
X179338500Y-40131276D02*
X179338500Y-40640724D01*
X178293500Y-40131276D02*
X178293500Y-40640724D01*
%TO.C,R19*%
X160767500Y-43180724D02*
X160767500Y-42671276D01*
X161812500Y-43180724D02*
X161812500Y-42671276D01*
%TO.C,R18*%
X181609276Y-38368500D02*
X182118724Y-38368500D01*
X181609276Y-37323500D02*
X182118724Y-37323500D01*
%TO.C,R17*%
X181101276Y-62723500D02*
X181610724Y-62723500D01*
X181101276Y-63768500D02*
X181610724Y-63768500D01*
%TO.C,R16*%
X167219802Y-60053959D02*
X167219802Y-60563407D01*
X166174802Y-60053959D02*
X166174802Y-60563407D01*
%TO.C,R15*%
X167535845Y-34729918D02*
X167535845Y-35239366D01*
X166490845Y-34729918D02*
X166490845Y-35239366D01*
%TO.C,R14*%
X164338724Y-59958500D02*
X163829276Y-59958500D01*
X164338724Y-58913500D02*
X163829276Y-58913500D01*
%TO.C,R10*%
X168387500Y-65278724D02*
X168387500Y-64769276D01*
X169432500Y-65278724D02*
X169432500Y-64769276D01*
%TO.C,R9*%
X168387500Y-39878724D02*
X168387500Y-39369276D01*
X169432500Y-39878724D02*
X169432500Y-39369276D01*
%TO.C,R6*%
X177785500Y-62484724D02*
X177785500Y-61975276D01*
X178830500Y-62484724D02*
X178830500Y-61975276D01*
%TO.C,R5*%
X178293500Y-37235224D02*
X178293500Y-36725776D01*
X179338500Y-37235224D02*
X179338500Y-36725776D01*
%TO.C,D8*%
X181064000Y-40359000D02*
X183524000Y-40359000D01*
X183524000Y-38889000D02*
X181064000Y-38889000D01*
X183524000Y-40359000D02*
X183524000Y-38889000D01*
%TO.C,D7*%
X180556000Y-66013000D02*
X183016000Y-66013000D01*
X183016000Y-64543000D02*
X180556000Y-64543000D01*
X183016000Y-66013000D02*
X183016000Y-64543000D01*
%TO.C,D6*%
X167921000Y-60668000D02*
X167921000Y-63128000D01*
X169391000Y-63128000D02*
X169391000Y-60668000D01*
X167921000Y-63128000D02*
X169391000Y-63128000D01*
%TO.C,D5*%
X168175000Y-35268000D02*
X168175000Y-37728000D01*
X169645000Y-37728000D02*
X169645000Y-35268000D01*
X168175000Y-37728000D02*
X169645000Y-37728000D01*
%TO.C,D4*%
X165744000Y-60479000D02*
X163284000Y-60479000D01*
X165744000Y-61949000D02*
X165744000Y-60479000D01*
X163284000Y-61949000D02*
X165744000Y-61949000D01*
%TO.C,D3*%
X165998000Y-35079000D02*
X163538000Y-35079000D01*
X165998000Y-36549000D02*
X165998000Y-35079000D01*
X163538000Y-36549000D02*
X165998000Y-36549000D01*
%TO.C,D2*%
X171251900Y-65235275D02*
X173711900Y-65235275D01*
X171251900Y-63765275D02*
X171251900Y-65235275D01*
X173711900Y-63765275D02*
X171251900Y-63765275D01*
%TO.C,D1*%
X171045970Y-39852065D02*
X173505970Y-39852065D01*
X171045970Y-38382065D02*
X171045970Y-39852065D01*
X173505970Y-38382065D02*
X171045970Y-38382065D01*
%TO.C,J2*%
X200543000Y-55764000D02*
X200543000Y-56524000D01*
X191883000Y-54814000D02*
X191883000Y-65094000D01*
X194543000Y-55824000D02*
X200543000Y-55824000D01*
X194543000Y-58304000D02*
X200543000Y-58304000D01*
X191485929Y-61604000D02*
X191883000Y-61604000D01*
X200543000Y-63384000D02*
X200543000Y-64144000D01*
X200543000Y-56524000D02*
X194543000Y-56524000D01*
X191883000Y-59954000D02*
X194543000Y-59954000D01*
X194543000Y-55764000D02*
X200543000Y-55764000D01*
X194543000Y-65094000D02*
X194543000Y-54814000D01*
X200543000Y-64144000D02*
X194543000Y-64144000D01*
X189173000Y-54874000D02*
X190443000Y-54874000D01*
X191553000Y-55764000D02*
X191883000Y-55764000D01*
X191883000Y-65094000D02*
X194543000Y-65094000D01*
X194543000Y-56424000D02*
X200543000Y-56424000D01*
X194543000Y-54814000D02*
X191883000Y-54814000D01*
X200543000Y-60844000D02*
X200543000Y-61604000D01*
X194543000Y-63384000D02*
X200543000Y-63384000D01*
X191553000Y-56524000D02*
X191883000Y-56524000D01*
X191485929Y-60844000D02*
X191883000Y-60844000D01*
X191485929Y-64144000D02*
X191883000Y-64144000D01*
X194543000Y-55944000D02*
X200543000Y-55944000D01*
X191485929Y-59064000D02*
X191883000Y-59064000D01*
X200543000Y-61604000D02*
X194543000Y-61604000D01*
X191883000Y-62494000D02*
X194543000Y-62494000D01*
X191485929Y-63384000D02*
X191883000Y-63384000D01*
X194543000Y-56304000D02*
X200543000Y-56304000D01*
X191485929Y-58304000D02*
X191883000Y-58304000D01*
X194543000Y-60844000D02*
X200543000Y-60844000D01*
X194543000Y-56064000D02*
X200543000Y-56064000D01*
X200543000Y-59064000D02*
X194543000Y-59064000D01*
X194543000Y-56184000D02*
X200543000Y-56184000D01*
X191883000Y-57414000D02*
X194543000Y-57414000D01*
X200543000Y-58304000D02*
X200543000Y-59064000D01*
X189173000Y-56144000D02*
X189173000Y-54874000D01*
%TO.C,J1*%
X200543000Y-30364000D02*
X200543000Y-31124000D01*
X191883000Y-29414000D02*
X191883000Y-39694000D01*
X194543000Y-30424000D02*
X200543000Y-30424000D01*
X194543000Y-32904000D02*
X200543000Y-32904000D01*
X191485929Y-36204000D02*
X191883000Y-36204000D01*
X200543000Y-37984000D02*
X200543000Y-38744000D01*
X200543000Y-31124000D02*
X194543000Y-31124000D01*
X191883000Y-34554000D02*
X194543000Y-34554000D01*
X194543000Y-30364000D02*
X200543000Y-30364000D01*
X194543000Y-39694000D02*
X194543000Y-29414000D01*
X200543000Y-38744000D02*
X194543000Y-38744000D01*
X189173000Y-29474000D02*
X190443000Y-29474000D01*
X191553000Y-30364000D02*
X191883000Y-30364000D01*
X191883000Y-39694000D02*
X194543000Y-39694000D01*
X194543000Y-31024000D02*
X200543000Y-31024000D01*
X194543000Y-29414000D02*
X191883000Y-29414000D01*
X200543000Y-35444000D02*
X200543000Y-36204000D01*
X194543000Y-37984000D02*
X200543000Y-37984000D01*
X191553000Y-31124000D02*
X191883000Y-31124000D01*
X191485929Y-35444000D02*
X191883000Y-35444000D01*
X191485929Y-38744000D02*
X191883000Y-38744000D01*
X194543000Y-30544000D02*
X200543000Y-30544000D01*
X191485929Y-33664000D02*
X191883000Y-33664000D01*
X200543000Y-36204000D02*
X194543000Y-36204000D01*
X191883000Y-37094000D02*
X194543000Y-37094000D01*
X191485929Y-37984000D02*
X191883000Y-37984000D01*
X194543000Y-30904000D02*
X200543000Y-30904000D01*
X191485929Y-32904000D02*
X191883000Y-32904000D01*
X194543000Y-35444000D02*
X200543000Y-35444000D01*
X194543000Y-30664000D02*
X200543000Y-30664000D01*
X200543000Y-33664000D02*
X194543000Y-33664000D01*
X194543000Y-30784000D02*
X200543000Y-30784000D01*
X191883000Y-32014000D02*
X194543000Y-32014000D01*
X200543000Y-32904000D02*
X200543000Y-33664000D01*
X189173000Y-30744000D02*
X189173000Y-29474000D01*
%TO.C,U10*%
X121508666Y-59381028D02*
X122198666Y-59381028D01*
X122198666Y-59381028D02*
X122198666Y-64506028D01*
X131218666Y-59381028D02*
X131218666Y-60481028D01*
X131908666Y-59381028D02*
X131218666Y-59381028D01*
X121508666Y-57881028D02*
X121508666Y-59381028D01*
X131908666Y-57881028D02*
X131908666Y-59381028D01*
%TO.C,U11*%
X134208666Y-59381028D02*
X134898666Y-59381028D01*
X134898666Y-59381028D02*
X134898666Y-64506028D01*
X143918666Y-59381028D02*
X143918666Y-60481028D01*
X144608666Y-59381028D02*
X143918666Y-59381028D01*
X134208666Y-57881028D02*
X134208666Y-59381028D01*
X144608666Y-57881028D02*
X144608666Y-59381028D01*
%TO.C,U8*%
X108808666Y-59381028D02*
X109498666Y-59381028D01*
X109498666Y-59381028D02*
X109498666Y-64506028D01*
X118518666Y-59381028D02*
X118518666Y-60481028D01*
X119208666Y-59381028D02*
X118518666Y-59381028D01*
X108808666Y-57881028D02*
X108808666Y-59381028D01*
X119208666Y-57881028D02*
X119208666Y-59381028D01*
%TO.C,U12*%
X146908666Y-59381028D02*
X147598666Y-59381028D01*
X147598666Y-59381028D02*
X147598666Y-64506028D01*
X156618666Y-59381028D02*
X156618666Y-60481028D01*
X157308666Y-59381028D02*
X156618666Y-59381028D01*
X146908666Y-57881028D02*
X146908666Y-59381028D01*
X157308666Y-57881028D02*
X157308666Y-59381028D01*
%TO.C,U6*%
X146965000Y-34150000D02*
X147655000Y-34150000D01*
X147655000Y-34150000D02*
X147655000Y-39275000D01*
X156675000Y-34150000D02*
X156675000Y-35250000D01*
X157365000Y-34150000D02*
X156675000Y-34150000D01*
X146965000Y-32650000D02*
X146965000Y-34150000D01*
X157365000Y-32650000D02*
X157365000Y-34150000D01*
%TO.C,U2*%
X108865000Y-34150000D02*
X109555000Y-34150000D01*
X109555000Y-34150000D02*
X109555000Y-39275000D01*
X118575000Y-34150000D02*
X118575000Y-35250000D01*
X119265000Y-34150000D02*
X118575000Y-34150000D01*
X108865000Y-32650000D02*
X108865000Y-34150000D01*
X119265000Y-32650000D02*
X119265000Y-34150000D01*
%TO.C,U4*%
X121565000Y-34150000D02*
X122255000Y-34150000D01*
X122255000Y-34150000D02*
X122255000Y-39275000D01*
X131275000Y-34150000D02*
X131275000Y-35250000D01*
X131965000Y-34150000D02*
X131275000Y-34150000D01*
X121565000Y-32650000D02*
X121565000Y-34150000D01*
X131965000Y-32650000D02*
X131965000Y-34150000D01*
%TO.C,U5*%
X134265000Y-34150000D02*
X134955000Y-34150000D01*
X134955000Y-34150000D02*
X134955000Y-39275000D01*
X143975000Y-34150000D02*
X143975000Y-35250000D01*
X144665000Y-34150000D02*
X143975000Y-34150000D01*
X134265000Y-32650000D02*
X134265000Y-34150000D01*
X144665000Y-32650000D02*
X144665000Y-34150000D01*
%TO.C,U16*%
X167660000Y-40640000D02*
X167660000Y-42590000D01*
X162540000Y-40640000D02*
X162540000Y-42590000D01*
X167660000Y-40640000D02*
X167660000Y-37190000D01*
X162540000Y-40640000D02*
X162540000Y-38690000D01*
%TO.C,U15*%
X171335158Y-56855538D02*
X171335158Y-59305538D01*
X174555158Y-58655538D02*
X174555158Y-56855538D01*
%TO.C,U14*%
X174534000Y-67564000D02*
X174534000Y-68364000D01*
X171414000Y-67564000D02*
X171414000Y-69364000D01*
X171414000Y-67564000D02*
X171414000Y-66764000D01*
X174534000Y-67564000D02*
X174534000Y-66764000D01*
%TO.C,U13*%
X174280000Y-42164000D02*
X174280000Y-42964000D01*
X171160000Y-42164000D02*
X171160000Y-43964000D01*
X171160000Y-42164000D02*
X171160000Y-41364000D01*
X174280000Y-42164000D02*
X174280000Y-41364000D01*
%TO.C,U12*%
X96108666Y-57881028D02*
X96108666Y-59381028D01*
X96108666Y-59381028D02*
X96798666Y-59381028D01*
X96798666Y-59381028D02*
X96798666Y-64506028D01*
X106508666Y-57881028D02*
X106508666Y-59381028D01*
X106508666Y-59381028D02*
X105818666Y-59381028D01*
X105818666Y-59381028D02*
X105818666Y-60481028D01*
%TO.C,U11*%
X83408666Y-57881028D02*
X83408666Y-59381028D01*
X83408666Y-59381028D02*
X84098666Y-59381028D01*
X84098666Y-59381028D02*
X84098666Y-64506028D01*
X93808666Y-57881028D02*
X93808666Y-59381028D01*
X93808666Y-59381028D02*
X93118666Y-59381028D01*
X93118666Y-59381028D02*
X93118666Y-60481028D01*
%TO.C,U10*%
X70708666Y-57881028D02*
X70708666Y-59381028D01*
X70708666Y-59381028D02*
X71398666Y-59381028D01*
X71398666Y-59381028D02*
X71398666Y-64506028D01*
X81108666Y-57881028D02*
X81108666Y-59381028D01*
X81108666Y-59381028D02*
X80418666Y-59381028D01*
X80418666Y-59381028D02*
X80418666Y-60481028D01*
%TO.C,U9*%
X54673666Y-54894146D02*
X54673666Y-53394146D01*
X54673666Y-53394146D02*
X53983666Y-53394146D01*
X53983666Y-53394146D02*
X53983666Y-48269146D01*
X44273666Y-54894146D02*
X44273666Y-53394146D01*
X44273666Y-53394146D02*
X44963666Y-53394146D01*
X44963666Y-53394146D02*
X44963666Y-52294146D01*
%TO.C,U8*%
X58008666Y-57881028D02*
X58008666Y-59381028D01*
X58008666Y-59381028D02*
X58698666Y-59381028D01*
X58698666Y-59381028D02*
X58698666Y-64506028D01*
X68408666Y-57881028D02*
X68408666Y-59381028D01*
X68408666Y-59381028D02*
X67718666Y-59381028D01*
X67718666Y-59381028D02*
X67718666Y-60481028D01*
%TO.C,U7*%
X171110000Y-32120000D02*
X171110000Y-34570000D01*
X174330000Y-33920000D02*
X174330000Y-32120000D01*
%TO.C,U6*%
X96165000Y-32650000D02*
X96165000Y-34150000D01*
X96165000Y-34150000D02*
X96855000Y-34150000D01*
X96855000Y-34150000D02*
X96855000Y-39275000D01*
X106565000Y-32650000D02*
X106565000Y-34150000D01*
X106565000Y-34150000D02*
X105875000Y-34150000D01*
X105875000Y-34150000D02*
X105875000Y-35250000D01*
%TO.C,U5*%
X83465000Y-32650000D02*
X83465000Y-34150000D01*
X83465000Y-34150000D02*
X84155000Y-34150000D01*
X84155000Y-34150000D02*
X84155000Y-39275000D01*
X93865000Y-32650000D02*
X93865000Y-34150000D01*
X93865000Y-34150000D02*
X93175000Y-34150000D01*
X93175000Y-34150000D02*
X93175000Y-35250000D01*
%TO.C,U4*%
X70765000Y-32650000D02*
X70765000Y-34150000D01*
X70765000Y-34150000D02*
X71455000Y-34150000D01*
X71455000Y-34150000D02*
X71455000Y-39275000D01*
X81165000Y-32650000D02*
X81165000Y-34150000D01*
X81165000Y-34150000D02*
X80475000Y-34150000D01*
X80475000Y-34150000D02*
X80475000Y-35250000D01*
%TO.C,U3*%
X55256275Y-29725000D02*
X55256275Y-28225000D01*
X55256275Y-28225000D02*
X54566275Y-28225000D01*
X54566275Y-28225000D02*
X54566275Y-23100000D01*
X44856275Y-29725000D02*
X44856275Y-28225000D01*
X44856275Y-28225000D02*
X45546275Y-28225000D01*
X45546275Y-28225000D02*
X45546275Y-27125000D01*
%TO.C,U2*%
X58065000Y-32650000D02*
X58065000Y-34150000D01*
X58065000Y-34150000D02*
X58755000Y-34150000D01*
X58755000Y-34150000D02*
X58755000Y-39275000D01*
X68465000Y-32650000D02*
X68465000Y-34150000D01*
X68465000Y-34150000D02*
X67775000Y-34150000D01*
X67775000Y-34150000D02*
X67775000Y-35250000D01*
%TO.C,U1*%
X167603666Y-66040000D02*
X167603666Y-67990000D01*
X162483666Y-66040000D02*
X162483666Y-67990000D01*
X167603666Y-66040000D02*
X167603666Y-62590000D01*
X162483666Y-66040000D02*
X162483666Y-64090000D01*
%TO.C,R4*%
X158481500Y-62484724D02*
X158481500Y-61975276D01*
X159526500Y-62484724D02*
X159526500Y-61975276D01*
%TO.C,R2*%
X158481500Y-36830724D02*
X158481500Y-36321276D01*
X159526500Y-36830724D02*
X159526500Y-36321276D01*
%TD*%
M02*
