M48
; DRILL file {KiCad 7.0.5} date Fri Aug 16 02:05:41 2024
; FORMAT={-:-/ absolute / inch / decimal}
; #@! TF.CreationDate,2024-08-16T02:05:41-04:00
; #@! TF.GenerationSoftware,Kicad,Pcbnew,7.0.5
; #@! TF.FileFunction,Plated,1,2,PTH
FMAT,2
INCH
; #@! TA.AperFunction,Plated,PTH,ViaDrill
T1C0.0157
; #@! TA.AperFunction,Plated,PTH,ComponentDrill
T2C0.0315
%
G90
G05
T1
X1.925Y-1.0
X1.93Y-1.475
X2.025Y-0.9
X2.1Y-1.1
X2.12Y-1.475
X2.15Y-1.24
X2.2Y-0.9
X2.2Y-1.24
X2.205Y-1.475
X2.25Y-1.1
X2.35Y-0.9
X2.35Y-1.24
X2.395Y-1.475
X2.4Y-1.24
X2.4564Y-1.0635
X2.48Y-1.475
X2.55Y-1.1
X2.6Y-1.24
X2.65Y-0.9
X2.65Y-1.24
X2.67Y-1.475
X2.7Y-1.1
X2.75Y-1.2409
X2.755Y-1.475
X2.8Y-0.9
X2.8108Y-1.237
X2.945Y-1.475
T2
X2.0Y-1.0
X2.0Y-1.3
X2.1Y-1.0
X2.1Y-1.3
X2.2Y-1.0
X2.2Y-1.3
X2.3Y-1.0
X2.3Y-1.3
X2.4Y-1.0
X2.4Y-1.3
X2.5Y-1.0
X2.5Y-1.3
X2.6Y-1.0
X2.6Y-1.3
X2.7Y-1.0
X2.7Y-1.3
X2.8Y-1.0
X2.8Y-1.3
X2.9Y-1.0
X2.9Y-1.3
T0
M30
