M48
; DRILL file {KiCad 7.0.5} date Tue Feb 11 02:47:13 2025
; FORMAT={-:-/ absolute / inch / decimal}
; #@! TF.CreationDate,2025-02-11T02:47:13-05:00
; #@! TF.GenerationSoftware,Kicad,Pcbnew,7.0.5
; #@! TF.FileFunction,Plated,1,2,PTH
FMAT,2
INCH
; #@! TA.AperFunction,Plated,PTH,ViaDrill
T1C0.0157
; #@! TA.AperFunction,Plated,PTH,ComponentDrill
T2C0.0295
; #@! TA.AperFunction,Plated,PTH,ComponentDrill
T3C0.0315
; #@! TA.AperFunction,Plated,PTH,ComponentDrill
T4C0.0394
; #@! TA.AperFunction,Plated,PTH,ViaDrill
T5C0.0591
%
G90
G05
T1
X1.0153Y-1.4833
X1.1403Y-2.5083
X1.2404Y-1.9163
X1.2728Y-1.534
X1.2822Y-1.7331
X1.3276Y-1.2597
X1.3903Y-0.7333
X1.3903Y-0.7833
X1.3903Y-0.8333
X1.3903Y-0.8833
X1.3903Y-0.9333
X1.3903Y-0.9833
X1.3903Y-1.0333
X1.3903Y-1.0833
X1.3903Y-1.1333
X1.3903Y-1.1833
X1.3903Y-1.2333
X1.3903Y-1.2833
X1.3903Y-1.3333
X1.3903Y-1.3833
X1.3903Y-1.4333
X1.3903Y-1.4833
X1.3903Y-1.5333
X1.3903Y-1.5833
X1.3903Y-1.6333
X1.3903Y-1.6833
X1.3903Y-1.7333
X1.3903Y-1.7833
X1.3903Y-1.8333
X1.3903Y-1.8833
X1.3903Y-1.9333
X1.3903Y-1.9833
X1.3903Y-2.0333
X1.3903Y-2.0833
X1.3903Y-2.1333
X1.3903Y-2.1833
X1.3903Y-2.2333
X1.3903Y-2.2833
X1.3903Y-2.3333
X1.3903Y-2.3833
X1.3903Y-2.4333
X1.3903Y-2.4833
X1.3903Y-2.5333
X1.8653Y-1.4833
X1.9903Y-2.5083
X2.0904Y-1.9163
X2.1228Y-1.534
X2.1322Y-1.7331
X2.1776Y-1.2597
X2.2403Y-0.7333
X2.2403Y-0.7833
X2.2403Y-0.8333
X2.2403Y-0.8833
X2.2403Y-0.9333
X2.2403Y-0.9833
X2.2403Y-1.0333
X2.2403Y-1.0833
X2.2403Y-1.1333
X2.2403Y-1.1833
X2.2403Y-1.2333
X2.2403Y-1.2833
X2.2403Y-1.3333
X2.2403Y-1.3833
X2.2403Y-1.4333
X2.2403Y-1.4833
X2.2403Y-1.5333
X2.2403Y-1.5833
X2.2403Y-1.6333
X2.2403Y-1.6833
X2.2403Y-1.7333
X2.2403Y-1.7833
X2.2403Y-1.8333
X2.2403Y-1.8833
X2.2403Y-1.9333
X2.2403Y-1.9833
X2.2403Y-2.0333
X2.2403Y-2.0833
X2.2403Y-2.1333
X2.2403Y-2.1833
X2.2403Y-2.2333
X2.2403Y-2.2833
X2.2403Y-2.3333
X2.2403Y-2.3833
X2.2403Y-2.4333
X2.2403Y-2.4833
X2.2403Y-2.5333
X2.7153Y-1.4833
X2.8403Y-2.5083
X2.9404Y-1.9163
X2.9728Y-1.534
X2.9822Y-1.7331
X3.0276Y-1.2597
X3.0903Y-0.7333
X3.0903Y-0.7833
X3.0903Y-0.8333
X3.0903Y-0.8833
X3.0903Y-0.9333
X3.0903Y-0.9833
X3.0903Y-1.0333
X3.0903Y-1.0833
X3.0903Y-1.1333
X3.0903Y-1.1833
X3.0903Y-1.2333
X3.0903Y-1.2833
X3.0903Y-1.3333
X3.0903Y-1.3833
X3.0903Y-1.4333
X3.0903Y-1.4833
X3.0903Y-1.5333
X3.0903Y-1.5833
X3.0903Y-1.6333
X3.0903Y-1.6833
X3.0903Y-1.7333
X3.0903Y-1.7833
X3.0903Y-1.8333
X3.0903Y-1.8833
X3.0903Y-1.9333
X3.0903Y-1.9833
X3.0903Y-2.0333
X3.0903Y-2.0833
X3.0903Y-2.1333
X3.0903Y-2.1833
X3.0903Y-2.2333
X3.0903Y-2.2833
X3.0903Y-2.3333
X3.0903Y-2.3833
X3.0903Y-2.4333
X3.0903Y-2.4833
X3.0903Y-2.5333
X3.5653Y-1.4833
X3.6903Y-2.5083
X3.7904Y-1.9163
X3.8228Y-1.534
X3.8322Y-1.7331
X3.8776Y-1.2597
T2
X0.6903Y-1.0333
X0.7403Y-1.0333
X0.7903Y-1.0333
X1.5403Y-1.0333
X1.5903Y-1.0333
X1.6403Y-1.0333
X2.3903Y-1.0333
X2.4403Y-1.0333
X2.4903Y-1.0333
X3.2403Y-1.0333
X3.2903Y-1.0333
X3.3403Y-1.0333
T3
X0.6403Y-2.0018
X0.6403Y-2.3018
X0.6407Y-1.4018
X0.6407Y-1.7018
X0.7403Y-2.0018
X0.7403Y-2.3018
X0.7407Y-1.4018
X0.7407Y-1.7018
X0.8403Y-2.0018
X0.8403Y-2.3018
X0.8407Y-1.4018
X0.8407Y-1.7018
X0.9403Y-1.0018
X0.9403Y-1.1018
X0.9403Y-1.2018
X0.9403Y-2.0018
X0.9403Y-2.3018
X0.9407Y-1.4018
X0.9407Y-1.7018
X1.0403Y-2.0018
X1.0403Y-2.3018
X1.1403Y-2.0018
X1.1403Y-2.3018
X1.2403Y-1.0018
X1.2403Y-1.1018
X1.2403Y-1.2018
X1.2403Y-2.0018
X1.2403Y-2.3018
X1.4903Y-2.0018
X1.4903Y-2.3018
X1.4907Y-1.4018
X1.4907Y-1.7018
X1.5903Y-2.0018
X1.5903Y-2.3018
X1.5907Y-1.4018
X1.5907Y-1.7018
X1.6903Y-2.0018
X1.6903Y-2.3018
X1.6907Y-1.4018
X1.6907Y-1.7018
X1.7903Y-1.0018
X1.7903Y-1.1018
X1.7903Y-1.2018
X1.7903Y-2.0018
X1.7903Y-2.3018
X1.7907Y-1.4018
X1.7907Y-1.7018
X1.8903Y-2.0018
X1.8903Y-2.3018
X1.9903Y-2.0018
X1.9903Y-2.3018
X2.0903Y-1.0018
X2.0903Y-1.1018
X2.0903Y-1.2018
X2.0903Y-2.0018
X2.0903Y-2.3018
X2.3403Y-2.0018
X2.3403Y-2.3018
X2.3407Y-1.4018
X2.3407Y-1.7018
X2.4403Y-2.0018
X2.4403Y-2.3018
X2.4407Y-1.4018
X2.4407Y-1.7018
X2.5403Y-2.0018
X2.5403Y-2.3018
X2.5407Y-1.4018
X2.5407Y-1.7018
X2.6403Y-1.0018
X2.6403Y-1.1018
X2.6403Y-1.2018
X2.6403Y-2.0018
X2.6403Y-2.3018
X2.6407Y-1.4018
X2.6407Y-1.7018
X2.7403Y-2.0018
X2.7403Y-2.3018
X2.8403Y-2.0018
X2.8403Y-2.3018
X2.9403Y-1.0018
X2.9403Y-1.1018
X2.9403Y-1.2018
X2.9403Y-2.0018
X2.9403Y-2.3018
X3.1903Y-2.0018
X3.1903Y-2.3018
X3.1907Y-1.4018
X3.1907Y-1.7018
X3.2903Y-2.0018
X3.2903Y-2.3018
X3.2907Y-1.4018
X3.2907Y-1.7018
X3.3903Y-2.0018
X3.3903Y-2.3018
X3.3907Y-1.4018
X3.3907Y-1.7018
X3.4903Y-1.0018
X3.4903Y-1.1018
X3.4903Y-1.2018
X3.4903Y-2.0018
X3.4903Y-2.3018
X3.4907Y-1.4018
X3.4907Y-1.7018
X3.5903Y-2.0018
X3.5903Y-2.3018
X3.6903Y-2.0018
X3.6903Y-2.3018
X3.7903Y-1.0018
X3.7903Y-1.1018
X3.7903Y-1.2018
X3.7903Y-2.0018
X3.7903Y-2.3018
T4
X0.9403Y-0.6833
X1.0403Y-0.6833
X1.1403Y-0.6833
X1.2403Y-0.6833
X1.7903Y-0.6833
X1.8903Y-0.6833
X1.9903Y-0.6833
X2.0903Y-0.6833
X2.6403Y-0.6833
X2.7403Y-0.6833
X2.8403Y-0.6833
X2.9403Y-0.6833
X3.4903Y-0.6833
X3.5903Y-0.6833
X3.6903Y-0.6833
X3.7903Y-0.6833
T5
X0.5903Y-0.6833
X0.5903Y-2.5833
X1.3403Y-0.6833
X1.3403Y-2.5833
X1.4403Y-0.6833
X1.4403Y-2.5833
X2.1903Y-0.6833
X2.1903Y-2.5833
X2.2903Y-0.6833
X2.2903Y-2.5833
X3.0403Y-0.6833
X3.0403Y-2.5833
X3.1403Y-0.6833
X3.1403Y-2.5833
X3.8903Y-0.6833
X3.8903Y-2.5833
T0
M30
