%TF.GenerationSoftware,KiCad,Pcbnew,7.0.5*%
%TF.CreationDate,2025-02-11T02:47:10-05:00*%
%TF.ProjectId,ssr_load_switch,7373725f-6c6f-4616-945f-737769746368,rev?*%
%TF.SameCoordinates,Original*%
%TF.FileFunction,Soldermask,Bot*%
%TF.FilePolarity,Negative*%
%FSLAX46Y46*%
G04 Gerber Fmt 4.6, Leading zero omitted, Abs format (unit mm)*
G04 Created by KiCad (PCBNEW 7.0.5) date 2025-02-11 02:47:10*
%MOMM*%
%LPD*%
G01*
G04 APERTURE LIST*
%ADD10R,1.600000X1.600000*%
%ADD11O,1.600000X1.600000*%
%ADD12R,1.050000X1.500000*%
%ADD13O,1.050000X1.500000*%
%ADD14R,1.700000X1.700000*%
%ADD15O,1.700000X1.700000*%
G04 APERTURE END LIST*
D10*
%TO.C,U4*%
X31504074Y-50845000D03*
D11*
X28964074Y-50845000D03*
X26424074Y-50845000D03*
X23884074Y-50845000D03*
X21344074Y-50845000D03*
X18804074Y-50845000D03*
X16264074Y-50845000D03*
X16264074Y-58465000D03*
X18804074Y-58465000D03*
X21344074Y-58465000D03*
X23884074Y-58465000D03*
X26424074Y-58465000D03*
X28964074Y-58465000D03*
X31504074Y-58465000D03*
%TD*%
D10*
%TO.C,U2*%
X16274074Y-43225000D03*
D11*
X18814074Y-43225000D03*
X21354074Y-43225000D03*
X23894074Y-43225000D03*
X23894074Y-35605000D03*
X21354074Y-35605000D03*
X18814074Y-35605000D03*
X16274074Y-35605000D03*
%TD*%
D10*
%TO.C,U1*%
X23884074Y-25445000D03*
D11*
X23884074Y-27985000D03*
X23884074Y-30525000D03*
X31504074Y-30525000D03*
X31504074Y-27985000D03*
X31504074Y-25445000D03*
%TD*%
D12*
%TO.C,Q1*%
X17534074Y-26245000D03*
D13*
X18804074Y-26245000D03*
X20074074Y-26245000D03*
%TD*%
D14*
%TO.C,J1*%
X31504074Y-17355000D03*
D15*
X28964074Y-17355000D03*
X26424074Y-17355000D03*
X23884074Y-17355000D03*
%TD*%
D10*
%TO.C,U4*%
X53094074Y-50845000D03*
D11*
X50554074Y-50845000D03*
X48014074Y-50845000D03*
X45474074Y-50845000D03*
X42934074Y-50845000D03*
X40394074Y-50845000D03*
X37854074Y-50845000D03*
X37854074Y-58465000D03*
X40394074Y-58465000D03*
X42934074Y-58465000D03*
X45474074Y-58465000D03*
X48014074Y-58465000D03*
X50554074Y-58465000D03*
X53094074Y-58465000D03*
%TD*%
D10*
%TO.C,U2*%
X37864074Y-43225000D03*
D11*
X40404074Y-43225000D03*
X42944074Y-43225000D03*
X45484074Y-43225000D03*
X45484074Y-35605000D03*
X42944074Y-35605000D03*
X40404074Y-35605000D03*
X37864074Y-35605000D03*
%TD*%
D10*
%TO.C,U1*%
X45474074Y-25445000D03*
D11*
X45474074Y-27985000D03*
X45474074Y-30525000D03*
X53094074Y-30525000D03*
X53094074Y-27985000D03*
X53094074Y-25445000D03*
%TD*%
D12*
%TO.C,Q1*%
X39124074Y-26245000D03*
D13*
X40394074Y-26245000D03*
X41664074Y-26245000D03*
%TD*%
D14*
%TO.C,J1*%
X53094074Y-17355000D03*
D15*
X50554074Y-17355000D03*
X48014074Y-17355000D03*
X45474074Y-17355000D03*
%TD*%
D10*
%TO.C,U4*%
X74684074Y-50845000D03*
D11*
X72144074Y-50845000D03*
X69604074Y-50845000D03*
X67064074Y-50845000D03*
X64524074Y-50845000D03*
X61984074Y-50845000D03*
X59444074Y-50845000D03*
X59444074Y-58465000D03*
X61984074Y-58465000D03*
X64524074Y-58465000D03*
X67064074Y-58465000D03*
X69604074Y-58465000D03*
X72144074Y-58465000D03*
X74684074Y-58465000D03*
%TD*%
D10*
%TO.C,U2*%
X59454074Y-43225000D03*
D11*
X61994074Y-43225000D03*
X64534074Y-43225000D03*
X67074074Y-43225000D03*
X67074074Y-35605000D03*
X64534074Y-35605000D03*
X61994074Y-35605000D03*
X59454074Y-35605000D03*
%TD*%
D10*
%TO.C,U1*%
X67064074Y-25445000D03*
D11*
X67064074Y-27985000D03*
X67064074Y-30525000D03*
X74684074Y-30525000D03*
X74684074Y-27985000D03*
X74684074Y-25445000D03*
%TD*%
D12*
%TO.C,Q1*%
X60714074Y-26245000D03*
D13*
X61984074Y-26245000D03*
X63254074Y-26245000D03*
%TD*%
D14*
%TO.C,J1*%
X74684074Y-17355000D03*
D15*
X72144074Y-17355000D03*
X69604074Y-17355000D03*
X67064074Y-17355000D03*
%TD*%
D10*
%TO.C,U4*%
X96274074Y-50845000D03*
D11*
X93734074Y-50845000D03*
X91194074Y-50845000D03*
X88654074Y-50845000D03*
X86114074Y-50845000D03*
X83574074Y-50845000D03*
X81034074Y-50845000D03*
X81034074Y-58465000D03*
X83574074Y-58465000D03*
X86114074Y-58465000D03*
X88654074Y-58465000D03*
X91194074Y-58465000D03*
X93734074Y-58465000D03*
X96274074Y-58465000D03*
%TD*%
D10*
%TO.C,U2*%
X81044074Y-43225000D03*
D11*
X83584074Y-43225000D03*
X86124074Y-43225000D03*
X88664074Y-43225000D03*
X88664074Y-35605000D03*
X86124074Y-35605000D03*
X83584074Y-35605000D03*
X81044074Y-35605000D03*
%TD*%
D10*
%TO.C,U1*%
X88654074Y-25445000D03*
D11*
X88654074Y-27985000D03*
X88654074Y-30525000D03*
X96274074Y-30525000D03*
X96274074Y-27985000D03*
X96274074Y-25445000D03*
%TD*%
D12*
%TO.C,Q1*%
X82304074Y-26245000D03*
D13*
X83574074Y-26245000D03*
X84844074Y-26245000D03*
%TD*%
D14*
%TO.C,J1*%
X96274074Y-17355000D03*
D15*
X93734074Y-17355000D03*
X91194074Y-17355000D03*
X88654074Y-17355000D03*
%TD*%
M02*
