%TF.GenerationSoftware,KiCad,Pcbnew,7.0.5*%
%TF.CreationDate,2024-08-20T05:02:14-04:00*%
%TF.ProjectId,processor_attempt_1,70726f63-6573-4736-9f72-5f617474656d,rev?*%
%TF.SameCoordinates,Original*%
%TF.FileFunction,Soldermask,Top*%
%TF.FilePolarity,Negative*%
%FSLAX46Y46*%
G04 Gerber Fmt 4.6, Leading zero omitted, Abs format (unit mm)*
G04 Created by KiCad (PCBNEW 7.0.5) date 2024-08-20 05:02:14*
%MOMM*%
%LPD*%
G01*
G04 APERTURE LIST*
G04 Aperture macros list*
%AMRoundRect*
0 Rectangle with rounded corners*
0 $1 Rounding radius*
0 $2 $3 $4 $5 $6 $7 $8 $9 X,Y pos of 4 corners*
0 Add a 4 corners polygon primitive as box body*
4,1,4,$2,$3,$4,$5,$6,$7,$8,$9,$2,$3,0*
0 Add four circle primitives for the rounded corners*
1,1,$1+$1,$2,$3*
1,1,$1+$1,$4,$5*
1,1,$1+$1,$6,$7*
1,1,$1+$1,$8,$9*
0 Add four rect primitives between the rounded corners*
20,1,$1+$1,$2,$3,$4,$5,0*
20,1,$1+$1,$4,$5,$6,$7,0*
20,1,$1+$1,$6,$7,$8,$9,0*
20,1,$1+$1,$8,$9,$2,$3,0*%
G04 Aperture macros list end*
%ADD10R,1.700000X1.700000*%
%ADD11O,1.700000X1.700000*%
%ADD12R,1.600000X1.600000*%
%ADD13O,1.600000X1.600000*%
%ADD14RoundRect,0.237500X-0.250000X-0.237500X0.250000X-0.237500X0.250000X0.237500X-0.250000X0.237500X0*%
%ADD15RoundRect,0.237500X-0.287500X-0.237500X0.287500X-0.237500X0.287500X0.237500X-0.287500X0.237500X0*%
%ADD16RoundRect,0.150000X-0.825000X-0.150000X0.825000X-0.150000X0.825000X0.150000X-0.825000X0.150000X0*%
%ADD17RoundRect,0.250000X0.625000X-0.312500X0.625000X0.312500X-0.625000X0.312500X-0.625000X-0.312500X0*%
%ADD18RoundRect,0.237500X-0.237500X0.250000X-0.237500X-0.250000X0.237500X-0.250000X0.237500X0.250000X0*%
%ADD19C,1.600000*%
%ADD20C,4.000000*%
%ADD21RoundRect,0.237500X-0.237500X0.287500X-0.237500X-0.287500X0.237500X-0.287500X0.237500X0.287500X0*%
%ADD22RoundRect,0.250000X-0.650000X0.325000X-0.650000X-0.325000X0.650000X-0.325000X0.650000X0.325000X0*%
%ADD23RoundRect,0.237500X0.250000X0.237500X-0.250000X0.237500X-0.250000X-0.237500X0.250000X-0.237500X0*%
%ADD24RoundRect,0.237500X0.237500X-0.250000X0.237500X0.250000X-0.237500X0.250000X-0.237500X-0.250000X0*%
%ADD25RoundRect,0.237500X0.287500X0.237500X-0.287500X0.237500X-0.287500X-0.237500X0.287500X-0.237500X0*%
%ADD26RoundRect,0.150000X0.150000X-0.750000X0.150000X0.750000X-0.150000X0.750000X-0.150000X-0.750000X0*%
%ADD27R,1.560000X0.650000*%
%ADD28RoundRect,0.250000X0.325000X0.650000X-0.325000X0.650000X-0.325000X-0.650000X0.325000X-0.650000X0*%
G04 APERTURE END LIST*
D10*
%TO.C,J31*%
X116840000Y-108585000D03*
D11*
X119380000Y-108585000D03*
X121920000Y-108585000D03*
%TD*%
D10*
%TO.C,J41*%
X119380000Y-102235000D03*
%TD*%
%TO.C,J61*%
X150495000Y-66675000D03*
%TD*%
%TO.C,J60*%
X213995000Y-55245000D03*
%TD*%
%TO.C,J59*%
X187960000Y-79375000D03*
%TD*%
%TO.C,J58*%
X148590000Y-79375000D03*
%TD*%
%TO.C,J56*%
X180975000Y-97790000D03*
%TD*%
%TO.C,J54*%
X178435000Y-87630000D03*
%TD*%
%TO.C,J51*%
X132080000Y-82550000D03*
%TD*%
%TO.C,J50*%
X124460000Y-102235000D03*
%TD*%
%TO.C,J49*%
X118110000Y-81915000D03*
%TD*%
%TO.C,J46*%
X171450000Y-79375000D03*
%TD*%
%TO.C,J45*%
X178435000Y-93980000D03*
%TD*%
%TO.C,J43*%
X121920000Y-102235000D03*
%TD*%
%TO.C,J64*%
X224790000Y-79375000D03*
%TD*%
%TO.C,J74*%
X242056657Y-33153573D03*
%TD*%
%TO.C,J73*%
X248285000Y-79375000D03*
%TD*%
%TO.C,J63*%
X178435000Y-97790000D03*
%TD*%
%TO.C,J62*%
X222250000Y-79375000D03*
%TD*%
%TO.C,J57*%
X198120000Y-79375000D03*
%TD*%
%TO.C,J52*%
X116840000Y-102235000D03*
%TD*%
%TO.C,J48*%
X128270000Y-81915000D03*
%TD*%
%TO.C,J47*%
X134620000Y-82550000D03*
%TD*%
%TO.C,J39*%
X29117036Y-104773313D03*
%TD*%
%TO.C,J44*%
X125730000Y-81915000D03*
%TD*%
%TO.C,J35*%
X26670000Y-99695000D03*
%TD*%
%TO.C,J72*%
X49530000Y-86995000D03*
%TD*%
%TO.C,J71*%
X49530000Y-99695000D03*
%TD*%
%TO.C,J70*%
X213995000Y-46990000D03*
%TD*%
%TO.C,J67*%
X213995000Y-49530000D03*
%TD*%
D12*
%TO.C,U23*%
X153670000Y-44450000D03*
D13*
X156210000Y-44450000D03*
X158750000Y-44450000D03*
X161290000Y-44450000D03*
X163830000Y-44450000D03*
X166370000Y-44450000D03*
X168910000Y-44450000D03*
X171450000Y-44450000D03*
X173990000Y-44450000D03*
X176530000Y-44450000D03*
X176530000Y-36830000D03*
X173990000Y-36830000D03*
X171450000Y-36830000D03*
X168910000Y-36830000D03*
X166370000Y-36830000D03*
X163830000Y-36830000D03*
X161290000Y-36830000D03*
X158750000Y-36830000D03*
X156210000Y-36830000D03*
X153670000Y-36830000D03*
%TD*%
D10*
%TO.C,J69*%
X156225000Y-32385000D03*
D11*
X158765000Y-32385000D03*
X161305000Y-32385000D03*
%TD*%
D10*
%TO.C,J68*%
X161290000Y-34798000D03*
%TD*%
%TO.C,J65*%
X158750000Y-34798000D03*
%TD*%
%TO.C,J36*%
X156210000Y-34798000D03*
%TD*%
D14*
%TO.C,r140*%
X146915500Y-25908000D03*
X148740500Y-25908000D03*
%TD*%
D15*
%TO.C,D82*%
X143270000Y-25908000D03*
X145020000Y-25908000D03*
%TD*%
D10*
%TO.C,J34*%
X144399000Y-49403000D03*
D11*
X144399000Y-51943000D03*
X144399000Y-54483000D03*
%TD*%
D10*
%TO.C,J33*%
X141478000Y-49403000D03*
D11*
X141478000Y-51943000D03*
X141478000Y-54483000D03*
%TD*%
D10*
%TO.C,J32*%
X138430000Y-49388000D03*
D11*
X138430000Y-51928000D03*
X138430000Y-54468000D03*
%TD*%
D16*
%TO.C,U1*%
X140843000Y-28956000D03*
X140843000Y-30226000D03*
X140843000Y-31496000D03*
X140843000Y-32766000D03*
X145793000Y-32766000D03*
X145793000Y-31496000D03*
X145793000Y-30226000D03*
X145793000Y-28956000D03*
%TD*%
D10*
%TO.C,J42*%
X55880000Y-46482000D03*
%TD*%
%TO.C,J40*%
X39243000Y-34036000D03*
%TD*%
%TO.C,J30*%
X26797000Y-104394000D03*
%TD*%
D17*
%TO.C,5V_rsns1*%
X134620000Y-109285500D03*
X134620000Y-106360500D03*
%TD*%
D12*
%TO.C,U44*%
X153670000Y-89535000D03*
D13*
X156210000Y-89535000D03*
X158750000Y-89535000D03*
X161290000Y-89535000D03*
X163830000Y-89535000D03*
X166370000Y-89535000D03*
X168910000Y-89535000D03*
X171450000Y-89535000D03*
X173990000Y-89535000D03*
X176530000Y-89535000D03*
X176530000Y-81915000D03*
X173990000Y-81915000D03*
X171450000Y-81915000D03*
X168910000Y-81915000D03*
X166370000Y-81915000D03*
X163830000Y-81915000D03*
X161290000Y-81915000D03*
X158750000Y-81915000D03*
X156210000Y-81915000D03*
X153670000Y-81915000D03*
%TD*%
D14*
%TO.C,r77*%
X28170500Y-68580000D03*
X29995500Y-68580000D03*
%TD*%
D11*
%TO.C,J26*%
X221615000Y-36830000D03*
X221615000Y-39370000D03*
X221615000Y-41910000D03*
X221615000Y-44450000D03*
X221615000Y-46990000D03*
X221615000Y-49530000D03*
X221615000Y-52070000D03*
D10*
X221615000Y-54610000D03*
%TD*%
D18*
%TO.C,r107*%
X219710000Y-33250500D03*
X219710000Y-35075500D03*
%TD*%
D12*
%TO.C,U19*%
X100330000Y-59690000D03*
D13*
X102870000Y-59690000D03*
X105410000Y-59690000D03*
X107950000Y-59690000D03*
X110490000Y-59690000D03*
X113030000Y-59690000D03*
X115570000Y-59690000D03*
X118110000Y-59690000D03*
X120650000Y-59690000D03*
X123190000Y-59690000D03*
X125730000Y-59690000D03*
X128270000Y-59690000D03*
X130810000Y-59690000D03*
X133350000Y-59690000D03*
X133350000Y-44450000D03*
X130810000Y-44450000D03*
X128270000Y-44450000D03*
X125730000Y-44450000D03*
X123190000Y-44450000D03*
X120650000Y-44450000D03*
X118110000Y-44450000D03*
X115570000Y-44450000D03*
X113030000Y-44450000D03*
X110490000Y-44450000D03*
X107950000Y-44450000D03*
X105410000Y-44450000D03*
X102870000Y-44450000D03*
X100330000Y-44450000D03*
%TD*%
D10*
%TO.C,J18*%
X144780000Y-65405000D03*
D11*
X142240000Y-65405000D03*
X139700000Y-65405000D03*
X137160000Y-65405000D03*
X134620000Y-65405000D03*
X132080000Y-65405000D03*
X129540000Y-65405000D03*
X127000000Y-65405000D03*
X124460000Y-65405000D03*
X121920000Y-65405000D03*
%TD*%
D10*
%TO.C,J4*%
X53340000Y-108585000D03*
D11*
X50800000Y-108585000D03*
X48260000Y-108585000D03*
X45720000Y-108585000D03*
X43180000Y-108585000D03*
X40640000Y-108585000D03*
X38100000Y-108585000D03*
X35560000Y-108585000D03*
%TD*%
D12*
%TO.C,U3*%
X72390000Y-43815000D03*
D13*
X72390000Y-46355000D03*
X72390000Y-48895000D03*
X72390000Y-51435000D03*
X72390000Y-53975000D03*
X72390000Y-56515000D03*
X72390000Y-59055000D03*
X72390000Y-61595000D03*
X80010000Y-61595000D03*
X80010000Y-59055000D03*
X80010000Y-56515000D03*
X80010000Y-53975000D03*
X80010000Y-51435000D03*
X80010000Y-48895000D03*
X80010000Y-46355000D03*
X80010000Y-43815000D03*
%TD*%
D15*
%TO.C,D29*%
X25160000Y-72390000D03*
X26910000Y-72390000D03*
%TD*%
%TO.C,D26*%
X25160000Y-66675000D03*
X26910000Y-66675000D03*
%TD*%
D13*
%TO.C,U52*%
X243845000Y-89545000D03*
X241305000Y-89545000D03*
X238765000Y-89545000D03*
X236225000Y-89545000D03*
X233685000Y-89545000D03*
X231145000Y-89545000D03*
X228605000Y-89545000D03*
X228605000Y-81925000D03*
X231145000Y-81925000D03*
X233685000Y-81925000D03*
X236225000Y-81925000D03*
X238765000Y-81925000D03*
X241305000Y-81925000D03*
D12*
X243845000Y-81925000D03*
%TD*%
D19*
%TO.C,J21*%
X247703669Y-55453000D03*
X247703669Y-52683000D03*
X247703669Y-49913000D03*
X247703669Y-47143000D03*
X244863669Y-56838000D03*
X244863669Y-54068000D03*
X244863669Y-51298000D03*
X244863669Y-48528000D03*
D12*
X244863669Y-45758000D03*
D20*
X245163669Y-38798000D03*
X245163669Y-63798000D03*
%TD*%
D21*
%TO.C,D69*%
X200787000Y-32498000D03*
X200787000Y-30748000D03*
%TD*%
D12*
%TO.C,U24*%
X153670000Y-54610000D03*
D13*
X156210000Y-54610000D03*
X158750000Y-54610000D03*
X161290000Y-54610000D03*
X163830000Y-54610000D03*
X166370000Y-54610000D03*
X168910000Y-54610000D03*
X171450000Y-54610000D03*
X173990000Y-54610000D03*
X176530000Y-54610000D03*
X176530000Y-46990000D03*
X173990000Y-46990000D03*
X171450000Y-46990000D03*
X168910000Y-46990000D03*
X166370000Y-46990000D03*
X163830000Y-46990000D03*
X161290000Y-46990000D03*
X158750000Y-46990000D03*
X156210000Y-46990000D03*
X153670000Y-46990000D03*
%TD*%
D12*
%TO.C,U29*%
X41910000Y-40005000D03*
D13*
X44450000Y-40005000D03*
X46990000Y-40005000D03*
X49530000Y-40005000D03*
X52070000Y-40005000D03*
X54610000Y-40005000D03*
X57150000Y-40005000D03*
X59690000Y-40005000D03*
X62230000Y-40005000D03*
X64770000Y-40005000D03*
X64770000Y-32385000D03*
X62230000Y-32385000D03*
X59690000Y-32385000D03*
X57150000Y-32385000D03*
X54610000Y-32385000D03*
X52070000Y-32385000D03*
X49530000Y-32385000D03*
X46990000Y-32385000D03*
X44450000Y-32385000D03*
X41910000Y-32385000D03*
%TD*%
D18*
%TO.C,r108*%
X218440000Y-33250500D03*
X218440000Y-35075500D03*
%TD*%
D21*
%TO.C,D51*%
X217170000Y-32498000D03*
X217170000Y-30748000D03*
%TD*%
%TO.C,D70*%
X202057000Y-32498000D03*
X202057000Y-30748000D03*
%TD*%
D22*
%TO.C,C2*%
X137160000Y-32971000D03*
X137160000Y-30021000D03*
%TD*%
D21*
%TO.C,D66*%
X196977000Y-32498000D03*
X196977000Y-30748000D03*
%TD*%
D12*
%TO.C,U6*%
X91440000Y-67945000D03*
D13*
X88900000Y-67945000D03*
X86360000Y-67945000D03*
X83820000Y-67945000D03*
X81280000Y-67945000D03*
X78740000Y-67945000D03*
X76200000Y-67945000D03*
X73660000Y-67945000D03*
X71120000Y-67945000D03*
X68580000Y-67945000D03*
X68580000Y-75565000D03*
X71120000Y-75565000D03*
X73660000Y-75565000D03*
X76200000Y-75565000D03*
X78740000Y-75565000D03*
X81280000Y-75565000D03*
X83820000Y-75565000D03*
X86360000Y-75565000D03*
X88900000Y-75565000D03*
X91440000Y-75565000D03*
%TD*%
D10*
%TO.C,J3*%
X134620000Y-111125000D03*
D11*
X132080000Y-111125000D03*
X129540000Y-111125000D03*
X127000000Y-111125000D03*
X124460000Y-111125000D03*
X121920000Y-111125000D03*
X119380000Y-111125000D03*
X116840000Y-111125000D03*
X114300000Y-111125000D03*
X111760000Y-111125000D03*
X109220000Y-111125000D03*
X106680000Y-111125000D03*
X104140000Y-111125000D03*
X101600000Y-111125000D03*
X99060000Y-111125000D03*
X96520000Y-111125000D03*
X93980000Y-111125000D03*
X91440000Y-111125000D03*
X88900000Y-111125000D03*
X86360000Y-111125000D03*
X83820000Y-111125000D03*
X81280000Y-111125000D03*
X78740000Y-111125000D03*
X76200000Y-111125000D03*
X73660000Y-111125000D03*
X71120000Y-111125000D03*
X68580000Y-111125000D03*
X66040000Y-111125000D03*
X63500000Y-111125000D03*
X60960000Y-111125000D03*
X58420000Y-111125000D03*
X55880000Y-111125000D03*
X53340000Y-111125000D03*
X50800000Y-111125000D03*
X48260000Y-111125000D03*
X45720000Y-111125000D03*
X43180000Y-111125000D03*
X40640000Y-111125000D03*
X38100000Y-111125000D03*
X35560000Y-111125000D03*
%TD*%
D14*
%TO.C,r75*%
X28170500Y-64770000D03*
X29995500Y-64770000D03*
%TD*%
D12*
%TO.C,U25*%
X26670000Y-92075000D03*
D13*
X29210000Y-92075000D03*
X31750000Y-92075000D03*
X34290000Y-92075000D03*
X36830000Y-92075000D03*
X39370000Y-92075000D03*
X41910000Y-92075000D03*
X44450000Y-92075000D03*
X46990000Y-92075000D03*
X49530000Y-92075000D03*
X49530000Y-84455000D03*
X46990000Y-84455000D03*
X44450000Y-84455000D03*
X41910000Y-84455000D03*
X39370000Y-84455000D03*
X36830000Y-84455000D03*
X34290000Y-84455000D03*
X31750000Y-84455000D03*
X29210000Y-84455000D03*
X26670000Y-84455000D03*
%TD*%
D18*
%TO.C,r118*%
X231140000Y-34948500D03*
X231140000Y-33123500D03*
%TD*%
%TO.C,r123*%
X195707000Y-35075500D03*
X195707000Y-33250500D03*
%TD*%
D21*
%TO.C,D71*%
X203327000Y-32498000D03*
X203327000Y-30748000D03*
%TD*%
D23*
%TO.C,r88*%
X247927500Y-93599000D03*
X246102500Y-93599000D03*
%TD*%
D18*
%TO.C,r122*%
X226060000Y-34948500D03*
X226060000Y-33123500D03*
%TD*%
D13*
%TO.C,U55*%
X222250000Y-66548000D03*
X219710000Y-66548000D03*
X217170000Y-66548000D03*
X214630000Y-66548000D03*
X212090000Y-66548000D03*
X209550000Y-66548000D03*
X207010000Y-66548000D03*
X207010000Y-58928000D03*
X209550000Y-58928000D03*
X212090000Y-58928000D03*
X214630000Y-58928000D03*
X217170000Y-58928000D03*
X219710000Y-58928000D03*
D12*
X222250000Y-58928000D03*
%TD*%
%TO.C,U54*%
X176530000Y-58928000D03*
D13*
X173990000Y-58928000D03*
X171450000Y-58928000D03*
X168910000Y-58928000D03*
X166370000Y-58928000D03*
X163830000Y-58928000D03*
X161290000Y-58928000D03*
X158750000Y-58928000D03*
X156210000Y-58928000D03*
X153670000Y-58928000D03*
X153670000Y-66548000D03*
X156210000Y-66548000D03*
X158750000Y-66548000D03*
X161290000Y-66548000D03*
X163830000Y-66548000D03*
X166370000Y-66548000D03*
X168910000Y-66548000D03*
X171450000Y-66548000D03*
X173990000Y-66548000D03*
X176530000Y-66548000D03*
%TD*%
D11*
%TO.C,J22*%
X208915000Y-36830000D03*
X208915000Y-39370000D03*
X208915000Y-41910000D03*
X208915000Y-44450000D03*
X208915000Y-46990000D03*
X208915000Y-49530000D03*
X208915000Y-52070000D03*
D10*
X208915000Y-54610000D03*
%TD*%
%TO.C,J17*%
X148590000Y-22987000D03*
D11*
X146050000Y-22987000D03*
X143510000Y-22987000D03*
X140970000Y-22987000D03*
X138430000Y-22987000D03*
X135890000Y-22987000D03*
%TD*%
D18*
%TO.C,r138*%
X189230000Y-35076948D03*
X189230000Y-33251948D03*
%TD*%
D12*
%TO.C,U41*%
X203200000Y-92075000D03*
D13*
X200660000Y-92075000D03*
X198120000Y-92075000D03*
X195580000Y-92075000D03*
X193040000Y-92075000D03*
X190500000Y-92075000D03*
X187960000Y-92075000D03*
X185420000Y-92075000D03*
X182880000Y-92075000D03*
X180340000Y-92075000D03*
X180340000Y-99695000D03*
X182880000Y-99695000D03*
X185420000Y-99695000D03*
X187960000Y-99695000D03*
X190500000Y-99695000D03*
X193040000Y-99695000D03*
X195580000Y-99695000D03*
X198120000Y-99695000D03*
X200660000Y-99695000D03*
X203200000Y-99695000D03*
%TD*%
D19*
%TO.C,C16*%
X67290000Y-106045000D03*
X64790000Y-106045000D03*
%TD*%
D24*
%TO.C,R13*%
X73660000Y-104417500D03*
X73660000Y-102592500D03*
%TD*%
D21*
%TO.C,D57*%
X234950000Y-32371000D03*
X234950000Y-30621000D03*
%TD*%
%TO.C,D65*%
X195707000Y-32498000D03*
X195707000Y-30748000D03*
%TD*%
%TO.C,D59*%
X232410000Y-32371000D03*
X232410000Y-30621000D03*
%TD*%
D18*
%TO.C,r121*%
X227330000Y-34948500D03*
X227330000Y-33123500D03*
%TD*%
D24*
%TO.C,R11*%
X78740000Y-104417500D03*
X78740000Y-102592500D03*
%TD*%
D25*
%TO.C,D40*%
X250557000Y-97409000D03*
X248807000Y-97409000D03*
%TD*%
D24*
%TO.C,R19*%
X68580000Y-104417500D03*
X68580000Y-102592500D03*
%TD*%
D19*
%TO.C,C4*%
X92690000Y-106045000D03*
X90190000Y-106045000D03*
%TD*%
%TO.C,C10*%
X77450000Y-106045000D03*
X74950000Y-106045000D03*
%TD*%
D21*
%TO.C,D77*%
X185420000Y-32499448D03*
X185420000Y-30749448D03*
%TD*%
%TO.C,D79*%
X187960000Y-32499448D03*
X187960000Y-30749448D03*
%TD*%
D10*
%TO.C,J28*%
X224155000Y-54610000D03*
D11*
X224155000Y-52070000D03*
X224155000Y-49530000D03*
X224155000Y-46990000D03*
X224155000Y-44450000D03*
X224155000Y-41910000D03*
X224155000Y-39370000D03*
X224155000Y-36830000D03*
%TD*%
D24*
%TO.C,R20*%
X71120000Y-104417500D03*
X71120000Y-102592500D03*
%TD*%
D15*
%TO.C,D27*%
X25160000Y-68580000D03*
X26910000Y-68580000D03*
%TD*%
D25*
%TO.C,D37*%
X250557000Y-91694000D03*
X248807000Y-91694000D03*
%TD*%
D10*
%TO.C,J19*%
X121920000Y-78105000D03*
D11*
X124460000Y-78105000D03*
X127000000Y-78105000D03*
X129540000Y-78105000D03*
X132080000Y-78105000D03*
X134620000Y-78105000D03*
X137160000Y-78105000D03*
X139700000Y-78105000D03*
X142240000Y-78105000D03*
X144780000Y-78105000D03*
%TD*%
D14*
%TO.C,r80*%
X28170500Y-74295000D03*
X29995500Y-74295000D03*
%TD*%
%TO.C,r81*%
X28170500Y-76200000D03*
X29995500Y-76200000D03*
%TD*%
D12*
%TO.C,U45*%
X153670000Y-99695000D03*
D13*
X156210000Y-99695000D03*
X158750000Y-99695000D03*
X161290000Y-99695000D03*
X163830000Y-99695000D03*
X166370000Y-99695000D03*
X168910000Y-99695000D03*
X171450000Y-99695000D03*
X173990000Y-99695000D03*
X176530000Y-99695000D03*
X176530000Y-92075000D03*
X173990000Y-92075000D03*
X171450000Y-92075000D03*
X168910000Y-92075000D03*
X166370000Y-92075000D03*
X163830000Y-92075000D03*
X161290000Y-92075000D03*
X158750000Y-92075000D03*
X156210000Y-92075000D03*
X153670000Y-92075000D03*
%TD*%
D10*
%TO.C,J20*%
X201930000Y-79248000D03*
D11*
X204470000Y-79248000D03*
X207010000Y-79248000D03*
X209550000Y-79248000D03*
X212090000Y-79248000D03*
X214630000Y-79248000D03*
X217170000Y-79248000D03*
X219710000Y-79248000D03*
%TD*%
D21*
%TO.C,D73*%
X180340000Y-32499448D03*
X180340000Y-30749448D03*
%TD*%
D11*
%TO.C,J24*%
X206375000Y-36830000D03*
X206375000Y-39370000D03*
X206375000Y-41910000D03*
X206375000Y-44450000D03*
X206375000Y-46990000D03*
X206375000Y-49530000D03*
X206375000Y-52070000D03*
D10*
X206375000Y-54610000D03*
%TD*%
D19*
%TO.C,C7*%
X112976305Y-106154911D03*
X110476305Y-106154911D03*
%TD*%
D21*
%TO.C,D75*%
X182880000Y-32499448D03*
X182880000Y-30749448D03*
%TD*%
%TO.C,D56*%
X210820000Y-32498000D03*
X210820000Y-30748000D03*
%TD*%
D15*
%TO.C,D32*%
X25160000Y-78105000D03*
X26910000Y-78105000D03*
%TD*%
D23*
%TO.C,r87*%
X247927500Y-91694000D03*
X246102500Y-91694000D03*
%TD*%
D15*
%TO.C,D81*%
X25795000Y-33020000D03*
X27545000Y-33020000D03*
%TD*%
D12*
%TO.C,U50*%
X250825000Y-69215000D03*
D13*
X248285000Y-69215000D03*
X245745000Y-69215000D03*
X243205000Y-69215000D03*
X240665000Y-69215000D03*
X238125000Y-69215000D03*
X235585000Y-69215000D03*
X233045000Y-69215000D03*
X230505000Y-69215000D03*
X227965000Y-69215000D03*
X227965000Y-76835000D03*
X230505000Y-76835000D03*
X233045000Y-76835000D03*
X235585000Y-76835000D03*
X238125000Y-76835000D03*
X240665000Y-76835000D03*
X243205000Y-76835000D03*
X245745000Y-76835000D03*
X248285000Y-76835000D03*
X250825000Y-76835000D03*
%TD*%
D12*
%TO.C,U18*%
X100315000Y-38235000D03*
D13*
X102855000Y-38235000D03*
X105395000Y-38235000D03*
X107935000Y-38235000D03*
X110475000Y-38235000D03*
X113015000Y-38235000D03*
X115555000Y-38235000D03*
X118095000Y-38235000D03*
X120635000Y-38235000D03*
X123175000Y-38235000D03*
X125715000Y-38235000D03*
X128255000Y-38235000D03*
X130795000Y-38235000D03*
X133335000Y-38235000D03*
X133335000Y-22995000D03*
X130795000Y-22995000D03*
X128255000Y-22995000D03*
X125715000Y-22995000D03*
X123175000Y-22995000D03*
X120635000Y-22995000D03*
X118095000Y-22995000D03*
X115555000Y-22995000D03*
X113015000Y-22995000D03*
X110475000Y-22995000D03*
X107935000Y-22995000D03*
X105395000Y-22995000D03*
X102855000Y-22995000D03*
X100315000Y-22995000D03*
%TD*%
D21*
%TO.C,D53*%
X214630000Y-32498000D03*
X214630000Y-30748000D03*
%TD*%
D24*
%TO.C,R14*%
X76200000Y-104417500D03*
X76200000Y-102592500D03*
%TD*%
D19*
%TO.C,C17*%
X72370000Y-106045000D03*
X69870000Y-106045000D03*
%TD*%
D12*
%TO.C,U60*%
X226695000Y-36830000D03*
D13*
X226695000Y-39370000D03*
X226695000Y-41910000D03*
X226695000Y-44450000D03*
X226695000Y-46990000D03*
X226695000Y-49530000D03*
X226695000Y-52070000D03*
X226695000Y-54610000D03*
X234315000Y-54610000D03*
X234315000Y-52070000D03*
X234315000Y-49530000D03*
X234315000Y-46990000D03*
X234315000Y-44450000D03*
X234315000Y-41910000D03*
X234315000Y-39370000D03*
X234315000Y-36830000D03*
%TD*%
D11*
%TO.C,J27*%
X193675000Y-36830000D03*
X193675000Y-39370000D03*
X193675000Y-41910000D03*
X193675000Y-44450000D03*
X193675000Y-46990000D03*
X193675000Y-49530000D03*
X193675000Y-52070000D03*
D10*
X193675000Y-54610000D03*
%TD*%
%TO.C,J10*%
X64770000Y-78105000D03*
D11*
X62230000Y-78105000D03*
X59690000Y-78105000D03*
X57150000Y-78105000D03*
X54610000Y-78105000D03*
X52070000Y-78105000D03*
X49530000Y-78105000D03*
X46990000Y-78105000D03*
X44450000Y-78105000D03*
X41910000Y-78105000D03*
%TD*%
D10*
%TO.C,J15*%
X148590000Y-44450000D03*
D11*
X146050000Y-44450000D03*
X143510000Y-44450000D03*
X140970000Y-44450000D03*
X138430000Y-44450000D03*
X135890000Y-44450000D03*
%TD*%
%TO.C,J25*%
X236855000Y-36830000D03*
X236855000Y-39370000D03*
X236855000Y-41910000D03*
X236855000Y-44450000D03*
X236855000Y-46990000D03*
X236855000Y-49530000D03*
X236855000Y-52070000D03*
D10*
X236855000Y-54610000D03*
%TD*%
D14*
%TO.C,r82*%
X28170500Y-78105000D03*
X29995500Y-78105000D03*
%TD*%
D18*
%TO.C,r129*%
X203327000Y-35075500D03*
X203327000Y-33250500D03*
%TD*%
D12*
%TO.C,U59*%
X211455000Y-36830000D03*
D13*
X211455000Y-39370000D03*
X211455000Y-41910000D03*
X211455000Y-44450000D03*
X211455000Y-46990000D03*
X211455000Y-49530000D03*
X211455000Y-52070000D03*
X211455000Y-54610000D03*
X219075000Y-54610000D03*
X219075000Y-52070000D03*
X219075000Y-49530000D03*
X219075000Y-46990000D03*
X219075000Y-44450000D03*
X219075000Y-41910000D03*
X219075000Y-39370000D03*
X219075000Y-36830000D03*
%TD*%
D10*
%TO.C,J14*%
X148590000Y-59690000D03*
D11*
X146050000Y-59690000D03*
X143510000Y-59690000D03*
X140970000Y-59690000D03*
X138430000Y-59690000D03*
X135890000Y-59690000D03*
%TD*%
D18*
%TO.C,r131*%
X180340000Y-35076948D03*
X180340000Y-33251948D03*
%TD*%
D10*
%TO.C,J29*%
X239395000Y-54610000D03*
D11*
X239395000Y-52070000D03*
X239395000Y-49530000D03*
X239395000Y-46990000D03*
X239395000Y-44450000D03*
X239395000Y-41910000D03*
X239395000Y-39370000D03*
X239395000Y-36830000D03*
%TD*%
D26*
%TO.C,U46*%
X123190000Y-96875000D03*
X124460000Y-96875000D03*
X125730000Y-96875000D03*
X127000000Y-96875000D03*
X128270000Y-96875000D03*
X129540000Y-96875000D03*
X130810000Y-96875000D03*
X132080000Y-96875000D03*
X133350000Y-96875000D03*
X134620000Y-96875000D03*
X135890000Y-96875000D03*
X137160000Y-96875000D03*
X138430000Y-96875000D03*
X139700000Y-96875000D03*
X139700000Y-87275000D03*
X138430000Y-87275000D03*
X137160000Y-87275000D03*
X135890000Y-87275000D03*
X134620000Y-87275000D03*
X133350000Y-87275000D03*
X132080000Y-87275000D03*
X130810000Y-87275000D03*
X129540000Y-87275000D03*
X128270000Y-87275000D03*
X127000000Y-87275000D03*
X125730000Y-87275000D03*
X124460000Y-87275000D03*
X123190000Y-87275000D03*
%TD*%
D24*
%TO.C,R22*%
X66040000Y-104417500D03*
X66040000Y-102592500D03*
%TD*%
D12*
%TO.C,U26*%
X26670468Y-102626722D03*
D13*
X29210468Y-102626722D03*
X31750468Y-102626722D03*
X34290468Y-102626722D03*
X36830468Y-102626722D03*
X39370468Y-102626722D03*
X41910468Y-102626722D03*
X44450468Y-102626722D03*
X46990468Y-102626722D03*
X49530468Y-102626722D03*
X49530468Y-95006722D03*
X46990468Y-95006722D03*
X44450468Y-95006722D03*
X41910468Y-95006722D03*
X39370468Y-95006722D03*
X36830468Y-95006722D03*
X34290468Y-95006722D03*
X31750468Y-95006722D03*
X29210468Y-95006722D03*
X26670468Y-95006722D03*
%TD*%
D21*
%TO.C,D64*%
X226060000Y-32371000D03*
X226060000Y-30621000D03*
%TD*%
D13*
%TO.C,U53*%
X243840000Y-99695000D03*
X241300000Y-99695000D03*
X238760000Y-99695000D03*
X236220000Y-99695000D03*
X233680000Y-99695000D03*
X231140000Y-99695000D03*
X228600000Y-99695000D03*
X228600000Y-92075000D03*
X231140000Y-92075000D03*
X233680000Y-92075000D03*
X236220000Y-92075000D03*
X238760000Y-92075000D03*
X241300000Y-92075000D03*
D12*
X243840000Y-92075000D03*
%TD*%
D19*
%TO.C,C18*%
X87610000Y-106045000D03*
X85110000Y-106045000D03*
%TD*%
D18*
%TO.C,r126*%
X199517000Y-35075500D03*
X199517000Y-33250500D03*
%TD*%
D12*
%TO.C,U36*%
X53350000Y-81905000D03*
D13*
X53350000Y-84445000D03*
X53350000Y-86985000D03*
X53350000Y-89525000D03*
X53350000Y-92065000D03*
X53350000Y-94605000D03*
X53350000Y-97145000D03*
X53350000Y-99685000D03*
X60970000Y-99685000D03*
X60970000Y-97145000D03*
X60970000Y-94605000D03*
X60970000Y-92065000D03*
X60970000Y-89525000D03*
X60970000Y-86985000D03*
X60970000Y-84445000D03*
X60970000Y-81905000D03*
%TD*%
D25*
%TO.C,D35*%
X250557000Y-87884000D03*
X248807000Y-87884000D03*
%TD*%
D21*
%TO.C,D49*%
X219710000Y-32498000D03*
X219710000Y-30748000D03*
%TD*%
D25*
%TO.C,D34*%
X250557000Y-85979000D03*
X248807000Y-85979000D03*
%TD*%
D12*
%TO.C,U4*%
X58410000Y-43815000D03*
D13*
X58410000Y-46355000D03*
X58410000Y-48895000D03*
X58410000Y-51435000D03*
X58410000Y-53975000D03*
X58410000Y-56515000D03*
X58410000Y-59055000D03*
X58410000Y-61595000D03*
X66030000Y-61595000D03*
X66030000Y-59055000D03*
X66030000Y-56515000D03*
X66030000Y-53975000D03*
X66030000Y-51435000D03*
X66030000Y-48895000D03*
X66030000Y-46355000D03*
X66030000Y-43815000D03*
%TD*%
D24*
%TO.C,R21*%
X63500000Y-104417500D03*
X63500000Y-102592500D03*
%TD*%
D18*
%TO.C,r128*%
X202057000Y-35075500D03*
X202057000Y-33250500D03*
%TD*%
D24*
%TO.C,R3*%
X83820000Y-104417500D03*
X83820000Y-102592500D03*
%TD*%
D18*
%TO.C,r111*%
X214630000Y-33250500D03*
X214630000Y-35075500D03*
%TD*%
D21*
%TO.C,D80*%
X189230000Y-32499448D03*
X189230000Y-30749448D03*
%TD*%
D12*
%TO.C,U33*%
X83830000Y-81905000D03*
D13*
X83830000Y-84445000D03*
X83830000Y-86985000D03*
X83830000Y-89525000D03*
X83830000Y-92065000D03*
X83830000Y-94605000D03*
X83830000Y-97145000D03*
X83830000Y-99685000D03*
X91450000Y-99685000D03*
X91450000Y-97145000D03*
X91450000Y-94605000D03*
X91450000Y-92065000D03*
X91450000Y-89525000D03*
X91450000Y-86985000D03*
X91450000Y-84445000D03*
X91450000Y-81905000D03*
%TD*%
D23*
%TO.C,r90*%
X247927500Y-97409000D03*
X246102500Y-97409000D03*
%TD*%
D18*
%TO.C,R1*%
X148209000Y-28424500D03*
X148209000Y-30249500D03*
%TD*%
D19*
%TO.C,C15*%
X57130000Y-106045000D03*
X54630000Y-106045000D03*
%TD*%
D21*
%TO.C,D58*%
X233680000Y-32371000D03*
X233680000Y-30621000D03*
%TD*%
D18*
%TO.C,r125*%
X198247000Y-35075500D03*
X198247000Y-33250500D03*
%TD*%
D21*
%TO.C,D55*%
X212090000Y-32498000D03*
X212090000Y-30748000D03*
%TD*%
D23*
%TO.C,r86*%
X247927500Y-89789000D03*
X246102500Y-89789000D03*
%TD*%
D21*
%TO.C,D76*%
X184150000Y-32499448D03*
X184150000Y-30749448D03*
%TD*%
D23*
%TO.C,r83*%
X247927500Y-84074000D03*
X246102500Y-84074000D03*
%TD*%
D21*
%TO.C,D62*%
X228600000Y-32371000D03*
X228600000Y-30621000D03*
%TD*%
D18*
%TO.C,r120*%
X228600000Y-34948500D03*
X228600000Y-33123500D03*
%TD*%
D12*
%TO.C,U37*%
X93966305Y-81897911D03*
D13*
X93966305Y-84437911D03*
X93966305Y-86977911D03*
X93966305Y-89517911D03*
X93966305Y-92057911D03*
X93966305Y-94597911D03*
X93966305Y-97137911D03*
X93966305Y-99677911D03*
X101586305Y-99677911D03*
X101586305Y-97137911D03*
X101586305Y-94597911D03*
X101586305Y-92057911D03*
X101586305Y-89517911D03*
X101586305Y-86977911D03*
X101586305Y-84437911D03*
X101586305Y-81897911D03*
%TD*%
D18*
%TO.C,r132*%
X181610000Y-35076948D03*
X181610000Y-33251948D03*
%TD*%
D10*
%TO.C,J7*%
X117971105Y-65420169D03*
D11*
X115431105Y-65420169D03*
X112891105Y-65420169D03*
X110351105Y-65420169D03*
X107811105Y-65420169D03*
X105271105Y-65420169D03*
X102731105Y-65420169D03*
X100191105Y-65420169D03*
X97651105Y-65420169D03*
X95111105Y-65420169D03*
%TD*%
D12*
%TO.C,U42*%
X240670000Y-58430000D03*
D13*
X238130000Y-58430000D03*
X235590000Y-58430000D03*
X233050000Y-58430000D03*
X230510000Y-58430000D03*
X227970000Y-58430000D03*
X225430000Y-58430000D03*
X225430000Y-66050000D03*
X227970000Y-66050000D03*
X230510000Y-66050000D03*
X233050000Y-66050000D03*
X235590000Y-66050000D03*
X238130000Y-66050000D03*
X240670000Y-66050000D03*
%TD*%
D21*
%TO.C,D54*%
X213360000Y-32498000D03*
X213360000Y-30748000D03*
%TD*%
D19*
%TO.C,C9*%
X62210000Y-106045000D03*
X59710000Y-106045000D03*
%TD*%
D27*
%TO.C,U61*%
X141765000Y-104140000D03*
X141765000Y-105090000D03*
X141765000Y-106040000D03*
X139065000Y-106040000D03*
X139065000Y-105090000D03*
X139065000Y-104140000D03*
%TD*%
D13*
%TO.C,U57*%
X188595000Y-36830000D03*
X188595000Y-39370000D03*
X188595000Y-41910000D03*
X188595000Y-44450000D03*
X188595000Y-46990000D03*
X188595000Y-49530000D03*
X188595000Y-52070000D03*
X188595000Y-54610000D03*
X180975000Y-54610000D03*
X180975000Y-52070000D03*
X180975000Y-49530000D03*
X180975000Y-46990000D03*
X180975000Y-44450000D03*
X180975000Y-41910000D03*
X180975000Y-39370000D03*
D12*
X180975000Y-36830000D03*
%TD*%
D24*
%TO.C,R6*%
X86360000Y-104417500D03*
X86360000Y-102592500D03*
%TD*%
%TO.C,R4*%
X88900000Y-104417500D03*
X88900000Y-102592500D03*
%TD*%
D10*
%TO.C,J13*%
X64770000Y-65405000D03*
D11*
X62230000Y-65405000D03*
X59690000Y-65405000D03*
X57150000Y-65405000D03*
X54610000Y-65405000D03*
X52070000Y-65405000D03*
X49530000Y-65405000D03*
X46990000Y-65405000D03*
X44450000Y-65405000D03*
X41910000Y-65405000D03*
%TD*%
D14*
%TO.C,r78*%
X28170500Y-70485000D03*
X29995500Y-70485000D03*
%TD*%
D25*
%TO.C,D39*%
X250557000Y-95504000D03*
X248807000Y-95504000D03*
%TD*%
D18*
%TO.C,r115*%
X234950000Y-34948500D03*
X234950000Y-33123500D03*
%TD*%
D21*
%TO.C,D61*%
X229870000Y-32371000D03*
X229870000Y-30621000D03*
%TD*%
D15*
%TO.C,D30*%
X25160000Y-74295000D03*
X26910000Y-74295000D03*
%TD*%
D12*
%TO.C,U30*%
X68580000Y-40005000D03*
D13*
X71120000Y-40005000D03*
X73660000Y-40005000D03*
X76200000Y-40005000D03*
X78740000Y-40005000D03*
X81280000Y-40005000D03*
X83820000Y-40005000D03*
X86360000Y-40005000D03*
X88900000Y-40005000D03*
X91440000Y-40005000D03*
X91440000Y-32385000D03*
X88900000Y-32385000D03*
X86360000Y-32385000D03*
X83820000Y-32385000D03*
X81280000Y-32385000D03*
X78740000Y-32385000D03*
X76200000Y-32385000D03*
X73660000Y-32385000D03*
X71120000Y-32385000D03*
X68580000Y-32385000D03*
%TD*%
D28*
%TO.C,C1*%
X146001000Y-34671000D03*
X143051000Y-34671000D03*
%TD*%
D15*
%TO.C,D28*%
X25160000Y-70485000D03*
X26910000Y-70485000D03*
%TD*%
D25*
%TO.C,D36*%
X250557000Y-89789000D03*
X248807000Y-89789000D03*
%TD*%
D23*
%TO.C,r89*%
X247927500Y-95504000D03*
X246102500Y-95504000D03*
%TD*%
D24*
%TO.C,R7*%
X91440000Y-104417500D03*
X91440000Y-102592500D03*
%TD*%
D21*
%TO.C,D74*%
X181610000Y-32499448D03*
X181610000Y-30749448D03*
%TD*%
D12*
%TO.C,U32*%
X224790000Y-81915000D03*
D13*
X222250000Y-81915000D03*
X219710000Y-81915000D03*
X217170000Y-81915000D03*
X214630000Y-81915000D03*
X212090000Y-81915000D03*
X209550000Y-81915000D03*
X207010000Y-81915000D03*
X207010000Y-89535000D03*
X209550000Y-89535000D03*
X212090000Y-89535000D03*
X214630000Y-89535000D03*
X217170000Y-89535000D03*
X219710000Y-89535000D03*
X222250000Y-89535000D03*
X224790000Y-89535000D03*
%TD*%
D10*
%TO.C,J8*%
X49530000Y-81915000D03*
D11*
X46990000Y-81915000D03*
X44450000Y-81915000D03*
X41910000Y-81915000D03*
X39370000Y-81915000D03*
X36830000Y-81915000D03*
X34290000Y-81915000D03*
X31750000Y-81915000D03*
X29210000Y-81915000D03*
X26670000Y-81915000D03*
%TD*%
D24*
%TO.C,R28*%
X60960000Y-104417500D03*
X60960000Y-102592500D03*
%TD*%
D12*
%TO.C,U47*%
X171450000Y-69215000D03*
D13*
X168910000Y-69215000D03*
X166370000Y-69215000D03*
X163830000Y-69215000D03*
X161290000Y-69215000D03*
X158750000Y-69215000D03*
X156210000Y-69215000D03*
X153670000Y-69215000D03*
X151130000Y-69215000D03*
X148590000Y-69215000D03*
X148590000Y-76835000D03*
X151130000Y-76835000D03*
X153670000Y-76835000D03*
X156210000Y-76835000D03*
X158750000Y-76835000D03*
X161290000Y-76835000D03*
X163830000Y-76835000D03*
X166370000Y-76835000D03*
X168910000Y-76835000D03*
X171450000Y-76835000D03*
%TD*%
D25*
%TO.C,D33*%
X250557000Y-84074000D03*
X248807000Y-84074000D03*
%TD*%
D10*
%TO.C,J1*%
X152400000Y-26685000D03*
D11*
X152400000Y-29225000D03*
X152400000Y-31765000D03*
%TD*%
D18*
%TO.C,R2*%
X149987000Y-30329500D03*
X149987000Y-32154500D03*
%TD*%
D12*
%TO.C,U34*%
X63510000Y-81905000D03*
D13*
X63510000Y-84445000D03*
X63510000Y-86985000D03*
X63510000Y-89525000D03*
X63510000Y-92065000D03*
X63510000Y-94605000D03*
X63510000Y-97145000D03*
X63510000Y-99685000D03*
X71130000Y-99685000D03*
X71130000Y-97145000D03*
X71130000Y-94605000D03*
X71130000Y-92065000D03*
X71130000Y-89525000D03*
X71130000Y-86985000D03*
X71130000Y-84445000D03*
X71130000Y-81905000D03*
%TD*%
D18*
%TO.C,r135*%
X185420000Y-35076948D03*
X185420000Y-33251948D03*
%TD*%
D13*
%TO.C,U58*%
X203835000Y-36820000D03*
X203835000Y-39360000D03*
X203835000Y-41900000D03*
X203835000Y-44440000D03*
X203835000Y-46980000D03*
X203835000Y-49520000D03*
X203835000Y-52060000D03*
X203835000Y-54600000D03*
X196215000Y-54600000D03*
X196215000Y-52060000D03*
X196215000Y-49520000D03*
X196215000Y-46980000D03*
X196215000Y-44440000D03*
X196215000Y-41900000D03*
X196215000Y-39360000D03*
D12*
X196215000Y-36820000D03*
%TD*%
D23*
%TO.C,r85*%
X247927500Y-87884000D03*
X246102500Y-87884000D03*
%TD*%
D12*
%TO.C,U39*%
X224790000Y-92075000D03*
D13*
X222250000Y-92075000D03*
X219710000Y-92075000D03*
X217170000Y-92075000D03*
X214630000Y-92075000D03*
X212090000Y-92075000D03*
X209550000Y-92075000D03*
X207010000Y-92075000D03*
X207010000Y-99695000D03*
X209550000Y-99695000D03*
X212090000Y-99695000D03*
X214630000Y-99695000D03*
X217170000Y-99695000D03*
X219710000Y-99695000D03*
X222250000Y-99695000D03*
X224790000Y-99695000D03*
%TD*%
D18*
%TO.C,r113*%
X212090000Y-33250500D03*
X212090000Y-35075500D03*
%TD*%
D12*
%TO.C,U49*%
X224785000Y-69225000D03*
D13*
X222245000Y-69225000D03*
X219705000Y-69225000D03*
X217165000Y-69225000D03*
X214625000Y-69225000D03*
X212085000Y-69225000D03*
X209545000Y-69225000D03*
X207005000Y-69225000D03*
X204465000Y-69225000D03*
X201925000Y-69225000D03*
X201925000Y-76845000D03*
X204465000Y-76845000D03*
X207005000Y-76845000D03*
X209545000Y-76845000D03*
X212085000Y-76845000D03*
X214625000Y-76845000D03*
X217165000Y-76845000D03*
X219705000Y-76845000D03*
X222245000Y-76845000D03*
X224785000Y-76845000D03*
%TD*%
D18*
%TO.C,r127*%
X200787000Y-35075500D03*
X200787000Y-33250500D03*
%TD*%
D24*
%TO.C,R12*%
X81280000Y-104417500D03*
X81280000Y-102592500D03*
%TD*%
D18*
%TO.C,r117*%
X232410000Y-34948500D03*
X232410000Y-33123500D03*
%TD*%
D12*
%TO.C,U7*%
X64770000Y-67945000D03*
D13*
X62230000Y-67945000D03*
X59690000Y-67945000D03*
X57150000Y-67945000D03*
X54610000Y-67945000D03*
X52070000Y-67945000D03*
X49530000Y-67945000D03*
X46990000Y-67945000D03*
X44450000Y-67945000D03*
X41910000Y-67945000D03*
X41910000Y-75565000D03*
X44450000Y-75565000D03*
X46990000Y-75565000D03*
X49530000Y-75565000D03*
X52070000Y-75565000D03*
X54610000Y-75565000D03*
X57150000Y-75565000D03*
X59690000Y-75565000D03*
X62230000Y-75565000D03*
X64770000Y-75565000D03*
%TD*%
D18*
%TO.C,r109*%
X217170000Y-33250500D03*
X217170000Y-35075500D03*
%TD*%
%TO.C,r136*%
X186690000Y-35076948D03*
X186690000Y-33251948D03*
%TD*%
D19*
%TO.C,C5*%
X97776305Y-106154911D03*
X95276305Y-106154911D03*
%TD*%
D23*
%TO.C,r84*%
X247927500Y-85979000D03*
X246102500Y-85979000D03*
%TD*%
D12*
%TO.C,U38*%
X104126305Y-81897911D03*
D13*
X104126305Y-84437911D03*
X104126305Y-86977911D03*
X104126305Y-89517911D03*
X104126305Y-92057911D03*
X104126305Y-94597911D03*
X104126305Y-97137911D03*
X104126305Y-99677911D03*
X111746305Y-99677911D03*
X111746305Y-97137911D03*
X111746305Y-94597911D03*
X111746305Y-92057911D03*
X111746305Y-89517911D03*
X111746305Y-86977911D03*
X111746305Y-84437911D03*
X111746305Y-81897911D03*
%TD*%
D18*
%TO.C,r124*%
X196977000Y-35075500D03*
X196977000Y-33250500D03*
%TD*%
%TO.C,r110*%
X215900000Y-33250500D03*
X215900000Y-35075500D03*
%TD*%
D12*
%TO.C,U35*%
X73660000Y-81915000D03*
D13*
X73660000Y-84455000D03*
X73660000Y-86995000D03*
X73660000Y-89535000D03*
X73660000Y-92075000D03*
X73660000Y-94615000D03*
X73660000Y-97155000D03*
X73660000Y-99695000D03*
X81280000Y-99695000D03*
X81280000Y-97155000D03*
X81280000Y-94615000D03*
X81280000Y-92075000D03*
X81280000Y-89535000D03*
X81280000Y-86995000D03*
X81280000Y-84455000D03*
X81280000Y-81915000D03*
%TD*%
D12*
%TO.C,U2*%
X85090000Y-43815000D03*
D13*
X85090000Y-46355000D03*
X85090000Y-48895000D03*
X85090000Y-51435000D03*
X85090000Y-53975000D03*
X85090000Y-56515000D03*
X85090000Y-59055000D03*
X85090000Y-61595000D03*
X92710000Y-61595000D03*
X92710000Y-59055000D03*
X92710000Y-56515000D03*
X92710000Y-53975000D03*
X92710000Y-51435000D03*
X92710000Y-48895000D03*
X92710000Y-46355000D03*
X92710000Y-43815000D03*
%TD*%
D21*
%TO.C,D72*%
X204597000Y-32498000D03*
X204597000Y-30748000D03*
%TD*%
D10*
%TO.C,J9*%
X91440000Y-78105000D03*
D11*
X88900000Y-78105000D03*
X86360000Y-78105000D03*
X83820000Y-78105000D03*
X81280000Y-78105000D03*
X78740000Y-78105000D03*
X76200000Y-78105000D03*
X73660000Y-78105000D03*
X71120000Y-78105000D03*
X68580000Y-78105000D03*
%TD*%
D21*
%TO.C,D52*%
X215900000Y-32498000D03*
X215900000Y-30748000D03*
%TD*%
D19*
%TO.C,C3*%
X107936305Y-106154911D03*
X105436305Y-106154911D03*
%TD*%
D12*
%TO.C,U48*%
X198120000Y-69215000D03*
D13*
X195580000Y-69215000D03*
X193040000Y-69215000D03*
X190500000Y-69215000D03*
X187960000Y-69215000D03*
X185420000Y-69215000D03*
X182880000Y-69215000D03*
X180340000Y-69215000D03*
X177800000Y-69215000D03*
X175260000Y-69215000D03*
X175260000Y-76835000D03*
X177800000Y-76835000D03*
X180340000Y-76835000D03*
X182880000Y-76835000D03*
X185420000Y-76835000D03*
X187960000Y-76835000D03*
X190500000Y-76835000D03*
X193040000Y-76835000D03*
X195580000Y-76835000D03*
X198120000Y-76835000D03*
%TD*%
%TO.C,U56*%
X43190000Y-43810000D03*
X43190000Y-46350000D03*
X43190000Y-48890000D03*
X43190000Y-51430000D03*
X43190000Y-53970000D03*
X43190000Y-56510000D03*
X43190000Y-59050000D03*
X35570000Y-59050000D03*
X35570000Y-56510000D03*
X35570000Y-53970000D03*
X35570000Y-51430000D03*
X35570000Y-48890000D03*
X35570000Y-46350000D03*
D12*
X35570000Y-43810000D03*
%TD*%
D18*
%TO.C,r137*%
X187960000Y-35076948D03*
X187960000Y-33251948D03*
%TD*%
D24*
%TO.C,R30*%
X55880000Y-104417500D03*
X55880000Y-102592500D03*
%TD*%
D21*
%TO.C,D63*%
X227330000Y-32371000D03*
X227330000Y-30621000D03*
%TD*%
D18*
%TO.C,r114*%
X210820000Y-33250500D03*
X210820000Y-35075500D03*
%TD*%
D10*
%TO.C,J16*%
X148590000Y-38303200D03*
D11*
X146050000Y-38303200D03*
X143510000Y-38303200D03*
X140970000Y-38303200D03*
X138430000Y-38303200D03*
X135890000Y-38303200D03*
%TD*%
D21*
%TO.C,D67*%
X198247000Y-32498000D03*
X198247000Y-30748000D03*
%TD*%
D19*
%TO.C,C11*%
X82530000Y-106045000D03*
X80030000Y-106045000D03*
%TD*%
D12*
%TO.C,U27*%
X95173238Y-75548224D03*
D13*
X97713238Y-75548224D03*
X100253238Y-75548224D03*
X102793238Y-75548224D03*
X105333238Y-75548224D03*
X107873238Y-75548224D03*
X110413238Y-75548224D03*
X112953238Y-75548224D03*
X115493238Y-75548224D03*
X118033238Y-75548224D03*
X118033238Y-67928224D03*
X115493238Y-67928224D03*
X112953238Y-67928224D03*
X110413238Y-67928224D03*
X107873238Y-67928224D03*
X105333238Y-67928224D03*
X102793238Y-67928224D03*
X100253238Y-67928224D03*
X97713238Y-67928224D03*
X95173238Y-67928224D03*
%TD*%
D18*
%TO.C,r112*%
X213360000Y-33250500D03*
X213360000Y-35075500D03*
%TD*%
D19*
%TO.C,C6*%
X102856305Y-106154911D03*
X100356305Y-106154911D03*
%TD*%
D12*
%TO.C,U31*%
X144780000Y-67945000D03*
D13*
X142240000Y-67945000D03*
X139700000Y-67945000D03*
X137160000Y-67945000D03*
X134620000Y-67945000D03*
X132080000Y-67945000D03*
X129540000Y-67945000D03*
X127000000Y-67945000D03*
X124460000Y-67945000D03*
X121920000Y-67945000D03*
X121920000Y-75565000D03*
X124460000Y-75565000D03*
X127000000Y-75565000D03*
X129540000Y-75565000D03*
X132080000Y-75565000D03*
X134620000Y-75565000D03*
X137160000Y-75565000D03*
X139700000Y-75565000D03*
X142240000Y-75565000D03*
X144780000Y-75565000D03*
%TD*%
D10*
%TO.C,J11*%
X118110000Y-78105000D03*
D11*
X115570000Y-78105000D03*
X113030000Y-78105000D03*
X110490000Y-78105000D03*
X107950000Y-78105000D03*
X105410000Y-78105000D03*
X102870000Y-78105000D03*
X100330000Y-78105000D03*
X97790000Y-78105000D03*
X95250000Y-78105000D03*
%TD*%
D18*
%TO.C,r134*%
X184150000Y-35076948D03*
X184150000Y-33251948D03*
%TD*%
D24*
%TO.C,R27*%
X58420000Y-104417500D03*
X58420000Y-102592500D03*
%TD*%
D14*
%TO.C,r79*%
X28170500Y-72390000D03*
X29995500Y-72390000D03*
%TD*%
D13*
%TO.C,U28*%
X115570000Y-84455000D03*
X118110000Y-84455000D03*
X120650000Y-84455000D03*
X123190000Y-84455000D03*
X125730000Y-84455000D03*
X128270000Y-84455000D03*
X130810000Y-84455000D03*
X133350000Y-84455000D03*
X135890000Y-84455000D03*
X138430000Y-84455000D03*
X140970000Y-84455000D03*
X143510000Y-84455000D03*
X146050000Y-84455000D03*
X148590000Y-84455000D03*
X148590000Y-99695000D03*
X146050000Y-99695000D03*
X143510000Y-99695000D03*
X140970000Y-99695000D03*
X138430000Y-99695000D03*
X135890000Y-99695000D03*
X133350000Y-99695000D03*
X130810000Y-99695000D03*
X128270000Y-99695000D03*
X125730000Y-99695000D03*
X123190000Y-99695000D03*
X120650000Y-99695000D03*
X118110000Y-99695000D03*
D12*
X115570000Y-99695000D03*
%TD*%
D11*
%TO.C,J23*%
X191135000Y-36830000D03*
X191135000Y-39370000D03*
X191135000Y-41910000D03*
X191135000Y-44450000D03*
X191135000Y-46990000D03*
X191135000Y-49530000D03*
X191135000Y-52070000D03*
D10*
X191135000Y-54610000D03*
%TD*%
D15*
%TO.C,D25*%
X25160000Y-64770000D03*
X26910000Y-64770000D03*
%TD*%
D14*
%TO.C,r139*%
X29567500Y-33020000D03*
X31392500Y-33020000D03*
%TD*%
D12*
%TO.C,U43*%
X202946000Y-58938000D03*
D13*
X200406000Y-58938000D03*
X197866000Y-58938000D03*
X195326000Y-58938000D03*
X192786000Y-58938000D03*
X190246000Y-58938000D03*
X187706000Y-58938000D03*
X185166000Y-58938000D03*
X182626000Y-58938000D03*
X180086000Y-58938000D03*
X180086000Y-66558000D03*
X182626000Y-66558000D03*
X185166000Y-66558000D03*
X187706000Y-66558000D03*
X190246000Y-66558000D03*
X192786000Y-66558000D03*
X195326000Y-66558000D03*
X197866000Y-66558000D03*
X200406000Y-66558000D03*
X202946000Y-66558000D03*
%TD*%
D10*
%TO.C,J12*%
X91440000Y-65405000D03*
D11*
X88900000Y-65405000D03*
X86360000Y-65405000D03*
X83820000Y-65405000D03*
X81280000Y-65405000D03*
X78740000Y-65405000D03*
X76200000Y-65405000D03*
X73660000Y-65405000D03*
X71120000Y-65405000D03*
X68580000Y-65405000D03*
%TD*%
D21*
%TO.C,D68*%
X199517000Y-32498000D03*
X199517000Y-30748000D03*
%TD*%
%TO.C,D60*%
X231140000Y-32371000D03*
X231140000Y-30621000D03*
%TD*%
D18*
%TO.C,r116*%
X233680000Y-34948500D03*
X233680000Y-33123500D03*
%TD*%
D21*
%TO.C,D50*%
X218440000Y-32498000D03*
X218440000Y-30748000D03*
%TD*%
D12*
%TO.C,U5*%
X45720000Y-43815000D03*
D13*
X45720000Y-46355000D03*
X45720000Y-48895000D03*
X45720000Y-51435000D03*
X45720000Y-53975000D03*
X45720000Y-56515000D03*
X45720000Y-59055000D03*
X45720000Y-61595000D03*
X53340000Y-61595000D03*
X53340000Y-59055000D03*
X53340000Y-56515000D03*
X53340000Y-53975000D03*
X53340000Y-51435000D03*
X53340000Y-48895000D03*
X53340000Y-46355000D03*
X53340000Y-43815000D03*
%TD*%
D14*
%TO.C,r76*%
X28170500Y-66675000D03*
X29995500Y-66675000D03*
%TD*%
D18*
%TO.C,r130*%
X204597000Y-35075500D03*
X204597000Y-33250500D03*
%TD*%
D25*
%TO.C,D38*%
X250557000Y-93599000D03*
X248807000Y-93599000D03*
%TD*%
D12*
%TO.C,U40*%
X203200000Y-81915000D03*
D13*
X200660000Y-81915000D03*
X198120000Y-81915000D03*
X195580000Y-81915000D03*
X193040000Y-81915000D03*
X190500000Y-81915000D03*
X187960000Y-81915000D03*
X185420000Y-81915000D03*
X182880000Y-81915000D03*
X180340000Y-81915000D03*
X180340000Y-89535000D03*
X182880000Y-89535000D03*
X185420000Y-89535000D03*
X187960000Y-89535000D03*
X190500000Y-89535000D03*
X193040000Y-89535000D03*
X195580000Y-89535000D03*
X198120000Y-89535000D03*
X200660000Y-89535000D03*
X203200000Y-89535000D03*
%TD*%
D18*
%TO.C,r133*%
X182880000Y-35076948D03*
X182880000Y-33251948D03*
%TD*%
D24*
%TO.C,R29*%
X53340000Y-104417500D03*
X53340000Y-102592500D03*
%TD*%
D18*
%TO.C,r119*%
X229870000Y-34948500D03*
X229870000Y-33123500D03*
%TD*%
D10*
%TO.C,J4*%
X50785000Y-106045000D03*
D11*
X48245000Y-106045000D03*
X45705000Y-106045000D03*
X43165000Y-106045000D03*
X40625000Y-106045000D03*
X38085000Y-106045000D03*
X35545000Y-106045000D03*
X33005000Y-106045000D03*
%TD*%
D15*
%TO.C,D31*%
X25160000Y-76200000D03*
X26910000Y-76200000D03*
%TD*%
D21*
%TO.C,D78*%
X186690000Y-32499448D03*
X186690000Y-30749448D03*
%TD*%
D12*
%TO.C,U21*%
X49530000Y-97155000D03*
D13*
X46990000Y-97155000D03*
X44450000Y-97155000D03*
X41910000Y-97155000D03*
X39370000Y-97155000D03*
X36830000Y-97155000D03*
X34290000Y-97155000D03*
X31750000Y-97155000D03*
X29210000Y-97155000D03*
X26670000Y-97155000D03*
X26670000Y-89535000D03*
X29210000Y-89535000D03*
X31750000Y-89535000D03*
X34290000Y-89535000D03*
X36830000Y-89535000D03*
X39370000Y-89535000D03*
X41910000Y-89535000D03*
X44450000Y-89535000D03*
X46990000Y-89535000D03*
X49530000Y-89535000D03*
%TD*%
M02*
