M48
; DRILL file {KiCad 7.0.5} date Tue Aug 20 05:02:17 2024
; FORMAT={-:-/ absolute / inch / decimal}
; #@! TF.CreationDate,2024-08-20T05:02:17-04:00
; #@! TF.GenerationSoftware,Kicad,Pcbnew,7.0.5
; #@! TF.FileFunction,Plated,1,2,PTH
FMAT,2
INCH
; #@! TA.AperFunction,Plated,PTH,ViaDrill
T1C0.0157
; #@! TA.AperFunction,Plated,PTH,ComponentDrill
T2C0.0315
; #@! TA.AperFunction,Plated,PTH,ComponentDrill
T3C0.0394
; #@! TA.AperFunction,Plated,PTH,ViaDrill
T4C0.1181
; #@! TA.AperFunction,Plated,PTH,ComponentDrill
T5C0.1260
%
G90
G05
T1
X0.95Y-1.325
X1.0Y-3.15
X1.225Y-2.55
X1.225Y-2.625
X1.225Y-2.7
X1.225Y-2.775
X1.225Y-2.85
X1.225Y-2.925
X1.225Y-3.0
X1.225Y-3.075
X1.5072Y-2.6178
X1.5131Y-2.7454
X1.5167Y-2.5786
X1.521Y-2.6594
X1.5311Y-2.6976
X1.5324Y-2.7926
X1.5532Y-2.8412
X1.575Y-2.875
X1.75Y-2.8679
X1.85Y-2.8482
X1.95Y-2.8285
X1.975Y-1.71
X1.975Y-1.81
X1.975Y-2.225
X2.0Y-2.45
X2.05Y-2.8088
X2.15Y-2.7892
X2.15Y-4.075
X2.175Y-2.505
X2.225Y-3.775
X2.25Y-2.7695
X2.25Y-4.075
X2.3Y-3.875
X2.35Y-2.7498
X2.35Y-4.075
X2.435Y-1.995
X2.45Y-4.075
X2.455Y-2.23
X2.55Y-4.075
X2.6226Y-1.275
X2.625Y-2.9
X2.625Y-3.775
X2.65Y-4.075
X2.7Y-3.875
X2.7079Y-2.115
X2.7275Y-1.995
X2.7472Y-1.8535
X2.75Y-1.52
X2.75Y-4.075
X2.775Y-1.775
X2.8Y-2.8679
X2.85Y-4.075
X2.9Y-2.8482
X2.95Y-4.075
X3.0Y-2.8285
X3.025Y-3.775
X3.05Y-4.075
X3.1Y-2.8088
X3.1Y-3.875
X3.15Y-4.075
X3.2Y-2.7892
X3.25Y-4.075
X3.3Y-2.7695
X3.35Y-4.075
X3.4Y-2.7498
X3.425Y-3.8
X3.45Y-4.075
X3.5Y-3.875
X3.525Y-2.325
X3.525Y-2.375
X3.55Y-3.575
X3.55Y-4.075
X3.575Y-1.875
X3.625Y-2.825
X3.65Y-4.075
X3.662Y-1.574
X3.725Y-2.325
X3.725Y-2.45
X3.7495Y-4.0793
X3.7677Y-3.575
X3.8309Y-4.0803
X3.847Y-2.8679
X3.925Y-3.65
X3.947Y-2.8482
X3.9475Y-0.9992
X3.95Y-2.225
X3.9715Y-4.0783
X4.047Y-2.8285
X4.0494Y-0.9848
X4.0495Y-4.0793
X4.147Y-2.8088
X4.1494Y-0.9803
X4.1494Y-1.1386
X4.1495Y-4.0793
X4.1856Y-2.9072
X4.2069Y-3.1277
X4.2071Y-3.625
X4.2309Y-4.0793
X4.247Y-2.7892
X4.2494Y-1.1189
X4.2494Y-1.1582
X4.2962Y-3.8625
X4.347Y-2.7695
X4.3494Y-1.0992
X4.3494Y-1.1553
X4.3715Y-4.0783
X4.447Y-2.7498
X4.4493Y-4.0801
X4.4494Y-1.0402
X4.4494Y-1.1803
X4.45Y-3.875
X4.475Y-3.675
X4.5107Y-4.036
X4.5386Y-3.789
X4.5494Y-1.3053
X4.6494Y-1.0553
X4.6494Y-1.2803
X4.675Y-3.7
X4.705Y-3.775
X4.715Y-3.39
X4.7494Y-1.2803
X4.7696Y-3.7344
X4.77Y-3.53
X4.8494Y-1.2303
X4.85Y-1.595
X4.9Y-2.9002
X4.9Y-3.5565
X4.95Y-1.61
X4.95Y-3.725
X5.0Y-1.7
X5.0Y-2.8805
X5.0Y-3.6727
X5.05Y-1.615
X5.05Y-3.6435
X5.0972Y-1.6855
X5.1Y-2.8608
X5.1Y-3.5815
X5.15Y-1.64
X5.15Y-4.025
X5.15Y-4.075
X5.15Y-4.125
X5.15Y-4.175
X5.2Y-1.6664
X5.2Y-2.8412
X5.2Y-3.6199
X5.2Y-4.025
X5.2Y-4.075
X5.2Y-4.125
X5.2Y-4.175
X5.25Y-4.025
X5.25Y-4.075
X5.25Y-4.125
X5.25Y-4.175
X5.2944Y-1.6374
X5.3Y-2.8205
X5.3Y-3.436
X5.3Y-4.025
X5.3Y-4.075
X5.3Y-4.125
X5.3Y-4.175
X5.3Y-4.3
X5.325Y-3.5
X5.3458Y-3.4489
X5.36Y-1.13
X5.3864Y-3.5018
X5.4Y-2.8008
X5.4Y-4.125
X5.4Y-4.2
X5.45Y-2.45
X5.451Y-3.5005
X5.4847Y-3.15
X5.5Y-2.45
X5.5Y-2.775
X5.5412Y-3.2592
X5.55Y-2.45
X5.575Y-4.025
X5.6Y-2.45
X5.6011Y-3.1677
X5.65Y-2.45
X5.745Y-1.105
X5.79Y-3.11
X5.8Y-1.825
X5.8683Y-2.2457
X5.9Y-2.125
X5.9Y-3.275
X5.9013Y-2.1742
X5.9083Y-1.925
X5.925Y-1.025
X5.9397Y-2.1829
X5.9435Y-3.3045
X5.95Y-2.9497
X5.975Y-2.4541
X6.05Y-2.93
X6.15Y-2.9103
X6.25Y-2.8906
X6.35Y-2.87
X6.4Y-3.18
X6.45Y-2.8503
X6.45Y-3.15
X6.55Y-2.8245
X6.55Y-3.12
X6.5544Y-2.4944
X6.5917Y-2.5405
X6.65Y-2.8
X6.67Y-2.56
X6.8638Y-1.2702
X6.8654Y-1.5268
X6.9Y-1.2856
X6.9Y-1.325
X6.9Y-1.385
X6.9Y-2.9526
X6.9328Y-1.5778
X6.9623Y-1.6163
X6.9797Y-1.1947
X6.98Y-1.244
X7.0Y-2.9329
X7.0017Y-1.7295
X7.02Y-2.2747
X7.0394Y-2.0356
X7.1Y-2.9132
X7.2Y-2.8936
X7.295Y-2.2
X7.3Y-2.8729
X7.325Y-1.8
X7.4Y-2.8532
X7.5Y-2.8274
X7.52Y-3.11
X7.575Y-1.2
X7.575Y-1.35
X7.6Y-2.81
X7.7Y-3.15
X7.8Y-2.225
X7.834Y-2.7896
X7.835Y-2.02
X7.8663Y-2.2663
X7.88Y-3.135
X8.0079Y-3.7045
X8.06Y-2.94
X8.07Y-2.5
X8.1003Y-3.6971
X8.16Y-2.92
X8.175Y-1.2
X8.1907Y-3.4701
X8.1995Y-2.4943
X8.2Y-1.33
X8.26Y-2.9
X8.261Y-3.7065
X8.284Y-3.3943
X8.29Y-3.351
X8.34Y-3.68
X8.36Y-2.88
X8.39Y-1.445
X8.4Y-3.2863
X8.4268Y-3.4463
X8.4495Y-3.3037
X8.46Y-2.86
X8.56Y-2.84
X8.63Y-3.3273
X8.6652Y-3.7652
X8.67Y-2.82
X8.69Y-3.39
X8.7096Y-3.3538
X8.75Y-3.775
X8.775Y-1.2
X8.775Y-1.3023
X8.975Y-3.1
X9.016Y-3.122
X9.016Y-3.1726
X9.0746Y-2.95
X9.18Y-2.92
X9.2213Y-3.3529
X9.2336Y-3.6849
X9.28Y-2.9
X9.28Y-3.85
X9.36Y-3.46
X9.39Y-2.88
X9.4603Y-3.2817
X9.49Y-2.86
X9.52Y-3.79
X9.59Y-2.83
X9.6Y-3.73
X9.68Y-2.82
X9.835Y-3.1455
X9.865Y-3.21
T2
X1.05Y-3.325
X1.05Y-3.525
X1.05Y-3.625
X1.05Y-3.825
X1.05Y-3.7404
X1.05Y-4.0404
X1.15Y-3.325
X1.15Y-3.525
X1.15Y-3.625
X1.15Y-3.825
X1.15Y-3.7404
X1.15Y-4.0404
X1.25Y-3.325
X1.25Y-3.525
X1.25Y-3.625
X1.25Y-3.825
X1.25Y-3.7404
X1.25Y-4.0404
X1.35Y-3.325
X1.35Y-3.525
X1.35Y-3.625
X1.35Y-3.825
X1.35Y-3.7404
X1.35Y-4.0404
X1.4004Y-1.7248
X1.4004Y-1.8248
X1.4004Y-1.9248
X1.4004Y-2.0248
X1.4004Y-2.1248
X1.4004Y-2.2248
X1.4004Y-2.3248
X1.45Y-3.325
X1.45Y-3.525
X1.45Y-3.625
X1.45Y-3.825
X1.45Y-3.7404
X1.45Y-4.0404
X1.55Y-3.325
X1.55Y-3.525
X1.55Y-3.625
X1.55Y-3.825
X1.55Y-3.7404
X1.55Y-4.0404
X1.65Y-1.275
X1.65Y-1.575
X1.65Y-2.675
X1.65Y-2.975
X1.65Y-3.325
X1.65Y-3.525
X1.65Y-3.625
X1.65Y-3.825
X1.65Y-3.7404
X1.65Y-4.0404
X1.7004Y-1.7248
X1.7004Y-1.8248
X1.7004Y-1.9248
X1.7004Y-2.0248
X1.7004Y-2.1248
X1.7004Y-2.2248
X1.7004Y-2.3248
X1.75Y-1.275
X1.75Y-1.575
X1.75Y-2.675
X1.75Y-2.975
X1.75Y-3.325
X1.75Y-3.525
X1.75Y-3.625
X1.75Y-3.825
X1.75Y-3.7404
X1.75Y-4.0404
X1.8Y-1.725
X1.8Y-1.825
X1.8Y-1.925
X1.8Y-2.025
X1.8Y-2.125
X1.8Y-2.225
X1.8Y-2.325
X1.8Y-2.425
X1.85Y-1.275
X1.85Y-1.575
X1.85Y-2.675
X1.85Y-2.975
X1.85Y-3.325
X1.85Y-3.525
X1.85Y-3.625
X1.85Y-3.825
X1.85Y-3.7404
X1.85Y-4.0404
X1.95Y-1.275
X1.95Y-1.575
X1.95Y-2.675
X1.95Y-2.975
X1.95Y-3.325
X1.95Y-3.525
X1.95Y-3.625
X1.95Y-3.825
X1.95Y-3.7404
X1.95Y-4.0404
X2.05Y-1.275
X2.05Y-1.575
X2.05Y-2.675
X2.05Y-2.975
X2.1Y-1.725
X2.1Y-1.825
X2.1Y-1.925
X2.1Y-2.025
X2.1Y-2.125
X2.1Y-2.225
X2.1Y-2.325
X2.1Y-2.425
X2.1004Y-3.2246
X2.1004Y-3.3246
X2.1004Y-3.4246
X2.1004Y-3.5246
X2.1004Y-3.6246
X2.1004Y-3.7246
X2.1004Y-3.8246
X2.1004Y-3.9246
X2.15Y-1.275
X2.15Y-1.575
X2.15Y-2.675
X2.15Y-2.975
X2.1508Y-4.175
X2.2492Y-4.175
X2.25Y-1.275
X2.25Y-1.575
X2.25Y-2.675
X2.25Y-2.975
X2.2996Y-1.725
X2.2996Y-1.825
X2.2996Y-1.925
X2.2996Y-2.025
X2.2996Y-2.125
X2.2996Y-2.225
X2.2996Y-2.325
X2.2996Y-2.425
X2.35Y-1.275
X2.35Y-1.575
X2.35Y-2.675
X2.35Y-2.975
X2.3508Y-4.175
X2.4004Y-3.2246
X2.4004Y-3.3246
X2.4004Y-3.4246
X2.4004Y-3.5246
X2.4004Y-3.6246
X2.4004Y-3.7246
X2.4004Y-3.8246
X2.4004Y-3.9246
X2.4492Y-4.175
X2.45Y-1.275
X2.45Y-1.575
X2.45Y-2.675
X2.45Y-2.975
X2.5004Y-3.2246
X2.5004Y-3.3246
X2.5004Y-3.4246
X2.5004Y-3.5246
X2.5004Y-3.6246
X2.5004Y-3.7246
X2.5004Y-3.8246
X2.5004Y-3.9246
X2.55Y-1.275
X2.55Y-1.575
X2.55Y-2.675
X2.55Y-2.975
X2.5508Y-4.175
X2.5996Y-1.725
X2.5996Y-1.825
X2.5996Y-1.925
X2.5996Y-2.025
X2.5996Y-2.125
X2.5996Y-2.225
X2.5996Y-2.325
X2.5996Y-2.425
X2.6492Y-4.175
X2.7Y-1.275
X2.7Y-1.575
X2.7Y-2.675
X2.7Y-2.975
X2.7508Y-4.175
X2.8Y-1.275
X2.8Y-1.575
X2.8Y-2.675
X2.8Y-2.975
X2.8004Y-3.2246
X2.8004Y-3.3246
X2.8004Y-3.4246
X2.8004Y-3.5246
X2.8004Y-3.6246
X2.8004Y-3.7246
X2.8004Y-3.8246
X2.8004Y-3.9246
X2.8492Y-4.175
X2.85Y-1.725
X2.85Y-1.825
X2.85Y-1.925
X2.85Y-2.025
X2.85Y-2.125
X2.85Y-2.225
X2.85Y-2.325
X2.85Y-2.425
X2.9Y-1.275
X2.9Y-1.575
X2.9Y-2.675
X2.9Y-2.975
X2.9Y-3.225
X2.9Y-3.325
X2.9Y-3.425
X2.9Y-3.525
X2.9Y-3.625
X2.9Y-3.725
X2.9Y-3.825
X2.9Y-3.925
X2.9508Y-4.175
X3.0Y-1.275
X3.0Y-1.575
X3.0Y-2.675
X3.0Y-2.975
X3.0492Y-4.175
X3.1Y-1.275
X3.1Y-1.575
X3.1Y-2.675
X3.1Y-2.975
X3.15Y-1.725
X3.15Y-1.825
X3.15Y-1.925
X3.15Y-2.025
X3.15Y-2.125
X3.15Y-2.225
X3.15Y-2.325
X3.15Y-2.425
X3.1508Y-4.175
X3.2Y-1.275
X3.2Y-1.575
X3.2Y-2.675
X3.2Y-2.975
X3.2Y-3.225
X3.2Y-3.325
X3.2Y-3.425
X3.2Y-3.525
X3.2Y-3.625
X3.2Y-3.725
X3.2Y-3.825
X3.2Y-3.925
X3.2492Y-4.175
X3.3Y-1.275
X3.3Y-1.575
X3.3Y-2.675
X3.3Y-2.975
X3.3004Y-3.2246
X3.3004Y-3.3246
X3.3004Y-3.4246
X3.3004Y-3.5246
X3.3004Y-3.6246
X3.3004Y-3.7246
X3.3004Y-3.8246
X3.3004Y-3.9246
X3.35Y-1.725
X3.35Y-1.825
X3.35Y-1.925
X3.35Y-2.025
X3.35Y-2.125
X3.35Y-2.225
X3.35Y-2.325
X3.35Y-2.425
X3.3508Y-4.175
X3.4Y-1.275
X3.4Y-1.575
X3.4Y-2.675
X3.4Y-2.975
X3.4492Y-4.175
X3.5Y-1.275
X3.5Y-1.575
X3.5Y-2.675
X3.5Y-2.975
X3.5508Y-4.175
X3.6Y-1.275
X3.6Y-1.575
X3.6Y-2.675
X3.6Y-2.975
X3.6004Y-3.2246
X3.6004Y-3.3246
X3.6004Y-3.4246
X3.6004Y-3.5246
X3.6004Y-3.6246
X3.6004Y-3.7246
X3.6004Y-3.8246
X3.6004Y-3.9246
X3.6492Y-4.175
X3.65Y-1.725
X3.65Y-1.825
X3.65Y-1.925
X3.65Y-2.025
X3.65Y-2.125
X3.65Y-2.225
X3.65Y-2.325
X3.65Y-2.425
X3.6995Y-3.2243
X3.6995Y-3.3243
X3.6995Y-3.4243
X3.6995Y-3.5243
X3.6995Y-3.6243
X3.6995Y-3.7243
X3.6995Y-3.8243
X3.6995Y-3.9243
X3.747Y-2.6743
X3.747Y-2.9743
X3.751Y-4.1793
X3.847Y-2.6743
X3.847Y-2.9743
X3.8495Y-4.1793
X3.947Y-2.6743
X3.947Y-2.9743
X3.9494Y-0.9053
X3.9494Y-1.5053
X3.95Y-1.75
X3.95Y-2.35
X3.951Y-4.1793
X3.9995Y-3.2243
X3.9995Y-3.3243
X3.9995Y-3.4243
X3.9995Y-3.5243
X3.9995Y-3.6243
X3.9995Y-3.7243
X3.9995Y-3.8243
X3.9995Y-3.9243
X4.047Y-2.6743
X4.047Y-2.9743
X4.0494Y-0.9053
X4.0494Y-1.5053
X4.0495Y-4.1793
X4.05Y-1.75
X4.05Y-2.35
X4.0995Y-3.2243
X4.0995Y-3.3243
X4.0995Y-3.4243
X4.0995Y-3.5243
X4.0995Y-3.6243
X4.0995Y-3.7243
X4.0995Y-3.8243
X4.0995Y-3.9243
X4.147Y-2.6743
X4.147Y-2.9743
X4.1494Y-0.9053
X4.1494Y-1.5053
X4.15Y-1.75
X4.15Y-2.35
X4.151Y-4.1793
X4.247Y-2.6743
X4.247Y-2.9743
X4.2494Y-0.9053
X4.2494Y-1.5053
X4.2495Y-4.1793
X4.25Y-1.75
X4.25Y-2.35
X4.347Y-2.6743
X4.347Y-2.9743
X4.3494Y-0.9053
X4.3494Y-1.5053
X4.3495Y-4.1793
X4.35Y-1.75
X4.35Y-2.35
X4.3995Y-3.2243
X4.3995Y-3.3243
X4.3995Y-3.4243
X4.3995Y-3.5243
X4.3995Y-3.6243
X4.3995Y-3.7243
X4.3995Y-3.8243
X4.3995Y-3.9243
X4.447Y-2.6743
X4.447Y-2.9743
X4.4479Y-4.1793
X4.4494Y-0.9053
X4.4494Y-1.5053
X4.45Y-1.75
X4.45Y-2.35
X4.547Y-2.6743
X4.547Y-2.9743
X4.5494Y-0.9053
X4.5494Y-1.5053
X4.55Y-1.75
X4.55Y-2.35
X4.55Y-3.325
X4.55Y-3.925
X4.647Y-2.6743
X4.647Y-2.9743
X4.6494Y-0.9053
X4.6494Y-1.5053
X4.65Y-1.75
X4.65Y-2.35
X4.65Y-3.325
X4.65Y-3.925
X4.7494Y-0.9053
X4.7494Y-1.5053
X4.75Y-1.75
X4.75Y-2.35
X4.75Y-3.325
X4.75Y-3.925
X4.8Y-2.675
X4.8Y-2.975
X4.8494Y-0.9053
X4.8494Y-1.5053
X4.85Y-1.75
X4.85Y-2.35
X4.85Y-3.325
X4.85Y-3.925
X4.9Y-2.675
X4.9Y-2.975
X4.9494Y-0.9053
X4.9494Y-1.5053
X4.95Y-1.75
X4.95Y-2.35
X4.95Y-3.325
X4.95Y-3.925
X5.0Y-2.675
X5.0Y-2.975
X5.0494Y-0.9053
X5.0494Y-1.5053
X5.05Y-1.75
X5.05Y-2.35
X5.05Y-3.325
X5.05Y-3.925
X5.1Y-2.675
X5.1Y-2.975
X5.1494Y-0.9053
X5.1494Y-1.5053
X5.15Y-1.75
X5.15Y-2.35
X5.15Y-3.325
X5.15Y-3.925
X5.2Y-2.675
X5.2Y-2.975
X5.2494Y-0.9053
X5.2494Y-1.5053
X5.25Y-1.75
X5.25Y-2.35
X5.25Y-3.325
X5.25Y-3.925
X5.3Y-2.675
X5.3Y-2.975
X5.35Y-3.325
X5.35Y-3.925
X5.4Y-2.675
X5.4Y-2.975
X5.45Y-3.325
X5.45Y-3.925
X5.5Y-2.675
X5.5Y-2.975
X5.55Y-3.325
X5.55Y-3.925
X5.6Y-2.675
X5.6Y-2.975
X5.65Y-3.325
X5.65Y-3.925
X5.7Y-2.675
X5.7Y-2.975
X5.75Y-3.325
X5.75Y-3.925
X5.85Y-2.725
X5.85Y-3.025
X5.85Y-3.325
X5.85Y-3.925
X5.95Y-2.725
X5.95Y-3.025
X6.05Y-1.45
X6.05Y-1.75
X6.05Y-1.85
X6.05Y-2.15
X6.05Y-2.32
X6.05Y-2.62
X6.05Y-2.725
X6.05Y-3.025
X6.05Y-3.225
X6.05Y-3.525
X6.05Y-3.625
X6.05Y-3.925
X6.15Y-1.45
X6.15Y-1.75
X6.15Y-1.85
X6.15Y-2.15
X6.15Y-2.32
X6.15Y-2.62
X6.15Y-2.725
X6.15Y-3.025
X6.15Y-3.225
X6.15Y-3.525
X6.15Y-3.625
X6.15Y-3.925
X6.25Y-1.45
X6.25Y-1.75
X6.25Y-1.85
X6.25Y-2.15
X6.25Y-2.32
X6.25Y-2.62
X6.25Y-2.725
X6.25Y-3.025
X6.25Y-3.225
X6.25Y-3.525
X6.25Y-3.625
X6.25Y-3.925
X6.35Y-1.45
X6.35Y-1.75
X6.35Y-1.85
X6.35Y-2.15
X6.35Y-2.32
X6.35Y-2.62
X6.35Y-2.725
X6.35Y-3.025
X6.35Y-3.225
X6.35Y-3.525
X6.35Y-3.625
X6.35Y-3.925
X6.45Y-1.45
X6.45Y-1.75
X6.45Y-1.85
X6.45Y-2.15
X6.45Y-2.32
X6.45Y-2.62
X6.45Y-2.725
X6.45Y-3.025
X6.45Y-3.225
X6.45Y-3.525
X6.45Y-3.625
X6.45Y-3.925
X6.55Y-1.45
X6.55Y-1.75
X6.55Y-1.85
X6.55Y-2.15
X6.55Y-2.32
X6.55Y-2.62
X6.55Y-2.725
X6.55Y-3.025
X6.55Y-3.225
X6.55Y-3.525
X6.55Y-3.625
X6.55Y-3.925
X6.65Y-1.45
X6.65Y-1.75
X6.65Y-1.85
X6.65Y-2.15
X6.65Y-2.32
X6.65Y-2.62
X6.65Y-2.725
X6.65Y-3.025
X6.65Y-3.225
X6.65Y-3.525
X6.65Y-3.625
X6.65Y-3.925
X6.75Y-1.45
X6.75Y-1.75
X6.75Y-1.85
X6.75Y-2.15
X6.75Y-2.32
X6.75Y-2.62
X6.75Y-2.725
X6.75Y-3.025
X6.75Y-3.225
X6.75Y-3.525
X6.75Y-3.625
X6.75Y-3.925
X6.85Y-1.45
X6.85Y-1.75
X6.85Y-1.85
X6.85Y-2.15
X6.85Y-2.32
X6.85Y-2.62
X6.85Y-3.225
X6.85Y-3.525
X6.85Y-3.625
X6.85Y-3.925
X6.9Y-2.725
X6.9Y-3.025
X6.95Y-1.45
X6.95Y-1.75
X6.95Y-1.85
X6.95Y-2.15
X6.95Y-2.32
X6.95Y-2.62
X6.95Y-3.225
X6.95Y-3.525
X6.95Y-3.625
X6.95Y-3.925
X7.0Y-2.725
X7.0Y-3.025
X7.09Y-2.3204
X7.09Y-2.6204
X7.1Y-2.725
X7.1Y-3.025
X7.1Y-3.225
X7.1Y-3.525
X7.1Y-3.625
X7.1Y-3.925
X7.125Y-1.45
X7.125Y-1.55
X7.125Y-1.65
X7.125Y-1.75
X7.125Y-1.85
X7.125Y-1.95
X7.125Y-2.05
X7.125Y-2.15
X7.19Y-2.3204
X7.19Y-2.6204
X7.2Y-2.725
X7.2Y-3.025
X7.2Y-3.225
X7.2Y-3.525
X7.2Y-3.625
X7.2Y-3.925
X7.29Y-2.3204
X7.29Y-2.6204
X7.3Y-2.725
X7.3Y-3.025
X7.3Y-3.225
X7.3Y-3.525
X7.3Y-3.625
X7.3Y-3.925
X7.39Y-2.3204
X7.39Y-2.6204
X7.4Y-2.725
X7.4Y-3.025
X7.4Y-3.225
X7.4Y-3.525
X7.4Y-3.625
X7.4Y-3.925
X7.425Y-1.45
X7.425Y-1.55
X7.425Y-1.65
X7.425Y-1.75
X7.425Y-1.85
X7.425Y-1.95
X7.425Y-2.05
X7.425Y-2.15
X7.49Y-2.3204
X7.49Y-2.6204
X7.5Y-2.725
X7.5Y-3.025
X7.5Y-3.225
X7.5Y-3.525
X7.5Y-3.625
X7.5Y-3.925
X7.59Y-2.3204
X7.59Y-2.6204
X7.6Y-2.725
X7.6Y-3.025
X7.6Y-3.225
X7.6Y-3.525
X7.6Y-3.625
X7.6Y-3.925
X7.69Y-2.3204
X7.69Y-2.6204
X7.7Y-2.725
X7.7Y-3.025
X7.7Y-3.225
X7.7Y-3.525
X7.7Y-3.625
X7.7Y-3.925
X7.725Y-1.4496
X7.725Y-1.5496
X7.725Y-1.6496
X7.725Y-1.7496
X7.725Y-1.8496
X7.725Y-1.9496
X7.725Y-2.0496
X7.725Y-2.1496
X7.79Y-2.3204
X7.79Y-2.6204
X7.8Y-2.725
X7.8Y-3.025
X7.8Y-3.225
X7.8Y-3.525
X7.8Y-3.625
X7.8Y-3.925
X7.89Y-2.3204
X7.89Y-2.6204
X7.9Y-3.225
X7.9Y-3.525
X7.9Y-3.625
X7.9Y-3.925
X7.9498Y-2.7254
X7.9498Y-3.0254
X7.99Y-2.3204
X7.99Y-2.6204
X8.0Y-3.225
X8.0Y-3.525
X8.0Y-3.625
X8.0Y-3.925
X8.025Y-1.4496
X8.025Y-1.5496
X8.025Y-1.6496
X8.025Y-1.7496
X8.025Y-1.8496
X8.025Y-1.9496
X8.025Y-2.0496
X8.025Y-2.1496
X8.0498Y-2.7254
X8.0498Y-3.0254
X8.1498Y-2.7254
X8.1498Y-3.0254
X8.15Y-2.32
X8.15Y-2.62
X8.15Y-3.225
X8.15Y-3.525
X8.15Y-3.625
X8.15Y-3.925
X8.2498Y-2.7254
X8.2498Y-3.0254
X8.25Y-2.32
X8.25Y-2.62
X8.25Y-3.225
X8.25Y-3.525
X8.25Y-3.625
X8.25Y-3.925
X8.325Y-1.45
X8.325Y-1.55
X8.325Y-1.65
X8.325Y-1.75
X8.325Y-1.85
X8.325Y-1.95
X8.325Y-2.05
X8.325Y-2.15
X8.3498Y-2.7254
X8.3498Y-3.0254
X8.35Y-2.32
X8.35Y-2.62
X8.35Y-3.225
X8.35Y-3.525
X8.35Y-3.625
X8.35Y-3.925
X8.4498Y-2.7254
X8.4498Y-3.0254
X8.45Y-2.32
X8.45Y-2.62
X8.45Y-3.225
X8.45Y-3.525
X8.45Y-3.625
X8.45Y-3.925
X8.5498Y-2.7254
X8.5498Y-3.0254
X8.55Y-2.32
X8.55Y-2.62
X8.55Y-3.225
X8.55Y-3.525
X8.55Y-3.625
X8.55Y-3.925
X8.625Y-1.45
X8.625Y-1.55
X8.625Y-1.65
X8.625Y-1.75
X8.625Y-1.85
X8.625Y-1.95
X8.625Y-2.05
X8.625Y-2.15
X8.6498Y-2.7254
X8.6498Y-3.0254
X8.65Y-2.32
X8.65Y-2.62
X8.65Y-3.225
X8.65Y-3.525
X8.65Y-3.625
X8.65Y-3.925
X8.7498Y-2.7254
X8.7498Y-3.0254
X8.75Y-2.32
X8.75Y-2.62
X8.75Y-3.225
X8.75Y-3.525
X8.75Y-3.625
X8.75Y-3.925
X8.8498Y-2.7254
X8.8498Y-3.0254
X8.85Y-3.225
X8.85Y-3.525
X8.85Y-3.625
X8.85Y-3.925
X8.8752Y-2.3004
X8.8752Y-2.6004
X8.925Y-1.45
X8.925Y-1.55
X8.925Y-1.65
X8.925Y-1.75
X8.925Y-1.85
X8.925Y-1.95
X8.925Y-2.05
X8.925Y-2.15
X8.975Y-2.725
X8.975Y-3.025
X8.9752Y-2.3004
X8.9752Y-2.6004
X9.0Y-3.625
X9.0Y-3.925
X9.0002Y-3.2254
X9.0002Y-3.5254
X9.075Y-2.725
X9.075Y-3.025
X9.0752Y-2.3004
X9.0752Y-2.6004
X9.1Y-3.625
X9.1Y-3.925
X9.1002Y-3.2254
X9.1002Y-3.5254
X9.175Y-2.725
X9.175Y-3.025
X9.1752Y-2.3004
X9.1752Y-2.6004
X9.2Y-3.625
X9.2Y-3.925
X9.2002Y-3.2254
X9.2002Y-3.5254
X9.225Y-1.45
X9.225Y-1.55
X9.225Y-1.65
X9.225Y-1.75
X9.225Y-1.85
X9.225Y-1.95
X9.225Y-2.05
X9.225Y-2.15
X9.275Y-2.725
X9.275Y-3.025
X9.2752Y-2.3004
X9.2752Y-2.6004
X9.3Y-3.625
X9.3Y-3.925
X9.3002Y-3.2254
X9.3002Y-3.5254
X9.375Y-2.725
X9.375Y-3.025
X9.3752Y-2.3004
X9.3752Y-2.6004
X9.4Y-3.625
X9.4Y-3.925
X9.4002Y-3.2254
X9.4002Y-3.5254
X9.475Y-2.725
X9.475Y-3.025
X9.4752Y-2.3004
X9.4752Y-2.6004
X9.5Y-3.625
X9.5Y-3.925
X9.5002Y-3.2254
X9.5002Y-3.5254
X9.575Y-2.725
X9.575Y-3.025
X9.6Y-3.625
X9.6Y-3.925
X9.6002Y-3.2254
X9.6002Y-3.5254
X9.675Y-2.725
X9.675Y-3.025
X9.775Y-2.725
X9.775Y-3.025
X9.875Y-2.725
X9.875Y-3.025
T3
X1.05Y-3.225
X1.05Y-3.925
X1.055Y-4.11
X1.1463Y-4.1249
X1.15Y-3.225
X1.25Y-3.225
X1.2994Y-4.175
X1.35Y-3.225
X1.3994Y-4.175
X1.4Y-4.275
X1.4Y-4.375
X1.45Y-3.225
X1.4994Y-4.175
X1.5Y-4.275
X1.5Y-4.375
X1.545Y-1.34
X1.55Y-3.225
X1.5994Y-4.175
X1.6Y-4.275
X1.6Y-4.375
X1.65Y-2.575
X1.65Y-3.075
X1.65Y-3.225
X1.6994Y-4.175
X1.7Y-4.275
X1.7Y-4.375
X1.75Y-2.575
X1.75Y-3.075
X1.75Y-3.225
X1.7994Y-4.175
X1.8Y-4.275
X1.8Y-4.375
X1.85Y-2.575
X1.85Y-3.075
X1.85Y-3.225
X1.8994Y-4.175
X1.9Y-4.275
X1.9Y-4.375
X1.95Y-2.575
X1.95Y-3.075
X1.95Y-3.225
X1.95Y-3.425
X1.95Y-3.925
X1.9994Y-4.175
X2.0Y-4.275
X2.0Y-4.375
X2.05Y-2.575
X2.05Y-3.075
X2.1Y-4.275
X2.1Y-4.375
X2.15Y-2.575
X2.15Y-3.075
X2.2Y-1.83
X2.2Y-4.375
X2.25Y-2.575
X2.25Y-3.075
X2.3Y-4.375
X2.35Y-2.575
X2.35Y-3.075
X2.4Y-4.375
X2.45Y-2.575
X2.45Y-3.075
X2.5Y-4.375
X2.55Y-2.575
X2.55Y-3.075
X2.6Y-4.375
X2.7Y-2.575
X2.7Y-3.075
X2.7Y-4.375
X2.8Y-2.575
X2.8Y-3.075
X2.8Y-4.375
X2.9Y-2.575
X2.9Y-3.075
X2.9Y-4.375
X3.0Y-2.575
X3.0Y-3.075
X3.0Y-4.375
X3.1Y-2.575
X3.1Y-3.075
X3.1Y-4.375
X3.2Y-2.575
X3.2Y-3.075
X3.2Y-4.375
X3.3Y-2.575
X3.3Y-3.075
X3.3Y-4.375
X3.4Y-2.575
X3.4Y-3.075
X3.4Y-4.375
X3.5Y-2.575
X3.5Y-3.075
X3.5Y-4.375
X3.6Y-2.575
X3.6Y-3.075
X3.6Y-4.375
X3.7Y-4.375
X3.7445Y-2.5756
X3.75Y-3.075
X3.8Y-4.375
X3.8445Y-2.5756
X3.85Y-3.075
X3.9Y-4.375
X3.9445Y-2.5756
X3.95Y-3.075
X4.0Y-4.375
X4.0445Y-2.5756
X4.05Y-3.075
X4.1Y-4.375
X4.1445Y-2.5756
X4.15Y-3.075
X4.2Y-4.375
X4.2445Y-2.5756
X4.25Y-3.075
X4.3Y-4.375
X4.3445Y-2.5756
X4.35Y-3.075
X4.4Y-4.375
X4.4445Y-2.5756
X4.45Y-3.075
X4.5Y-4.375
X4.5445Y-2.5756
X4.55Y-3.075
X4.6Y-4.025
X4.6Y-4.275
X4.6Y-4.375
X4.6445Y-2.5756
X4.65Y-3.075
X4.65Y-3.225
X4.7Y-4.025
X4.7Y-4.275
X4.7Y-4.375
X4.8Y-2.575
X4.8Y-3.075
X4.8Y-4.025
X4.8Y-4.275
X4.8Y-4.375
X4.9Y-2.575
X4.9Y-3.075
X4.9Y-4.025
X4.9Y-4.375
X4.95Y-3.225
X5.0Y-2.575
X5.0Y-3.075
X5.0Y-4.375
X5.05Y-3.225
X5.1Y-2.575
X5.1Y-3.075
X5.1Y-4.375
X5.2Y-2.575
X5.2Y-3.075
X5.2Y-3.25
X5.2Y-4.375
X5.3Y-2.575
X5.3Y-3.075
X5.3Y-3.25
X5.3Y-4.375
X5.35Y-0.905
X5.35Y-1.508
X5.35Y-1.75
X5.35Y-2.35
X5.4Y-2.575
X5.4Y-3.075
X5.45Y-0.905
X5.45Y-1.508
X5.45Y-1.75
X5.45Y-1.9444
X5.45Y-2.0444
X5.45Y-2.1444
X5.45Y-2.35
X5.5Y-2.575
X5.5Y-3.075
X5.55Y-0.905
X5.55Y-1.508
X5.55Y-1.75
X5.55Y-2.35
X5.57Y-1.945
X5.57Y-2.045
X5.57Y-2.145
X5.6Y-2.575
X5.6Y-3.075
X5.65Y-0.905
X5.65Y-1.508
X5.65Y-1.75
X5.65Y-2.35
X5.685Y-1.945
X5.685Y-2.045
X5.685Y-2.145
X5.7Y-2.575
X5.7Y-3.075
X5.75Y-0.905
X5.75Y-1.508
X5.75Y-1.75
X5.75Y-2.35
X5.85Y-0.905
X5.85Y-1.508
X5.85Y-1.75
X5.85Y-2.35
X5.85Y-3.125
X5.925Y-2.625
X6.0Y-1.0506
X6.0Y-1.1506
X6.0Y-1.2506
X6.15Y-1.37
X6.1506Y-1.275
X6.25Y-1.37
X6.2506Y-1.275
X6.35Y-1.37
X6.3506Y-1.275
X6.75Y-3.125
X7.025Y-3.45
X7.025Y-3.7
X7.025Y-3.85
X7.125Y-3.85
X7.4Y-3.125
X7.525Y-1.45
X7.525Y-1.55
X7.525Y-1.65
X7.525Y-1.75
X7.525Y-1.85
X7.525Y-1.95
X7.525Y-2.05
X7.525Y-2.15
X7.625Y-1.45
X7.625Y-1.55
X7.625Y-1.65
X7.625Y-1.75
X7.625Y-1.85
X7.625Y-1.95
X7.625Y-2.05
X7.625Y-2.15
X7.8Y-3.125
X7.95Y-3.12
X8.05Y-3.12
X8.125Y-1.45
X8.125Y-1.55
X8.125Y-1.65
X8.125Y-1.75
X8.125Y-1.85
X8.125Y-1.95
X8.125Y-2.05
X8.125Y-2.15
X8.15Y-3.12
X8.225Y-1.45
X8.225Y-1.55
X8.225Y-1.65
X8.225Y-1.75
X8.225Y-1.85
X8.225Y-1.95
X8.225Y-2.05
X8.225Y-2.15
X8.25Y-3.12
X8.35Y-3.12
X8.425Y-1.85
X8.425Y-1.95
X8.425Y-2.175
X8.45Y-3.12
X8.55Y-3.12
X8.65Y-3.12
X8.725Y-1.45
X8.725Y-1.55
X8.725Y-1.65
X8.725Y-1.75
X8.725Y-1.85
X8.725Y-1.95
X8.725Y-2.05
X8.725Y-2.15
X8.75Y-3.125
X8.825Y-1.45
X8.825Y-1.55
X8.825Y-1.65
X8.825Y-1.75
X8.825Y-1.85
X8.825Y-1.95
X8.825Y-2.05
X8.825Y-2.15
X8.85Y-3.125
X9.325Y-1.45
X9.325Y-1.55
X9.325Y-1.65
X9.325Y-1.75
X9.325Y-1.85
X9.325Y-1.95
X9.325Y-2.05
X9.325Y-2.15
X9.425Y-1.45
X9.425Y-1.55
X9.425Y-1.65
X9.425Y-1.75
X9.425Y-1.85
X9.425Y-1.95
X9.425Y-2.05
X9.425Y-2.15
X9.5298Y-1.3053
X9.6403Y-1.8015
X9.6403Y-1.9106
X9.6403Y-2.0196
X9.6403Y-2.1287
X9.6403Y-2.2377
X9.7521Y-1.856
X9.7521Y-1.9651
X9.7521Y-2.0741
X9.7521Y-2.1832
X9.775Y-3.125
T4
X1.15Y-4.325
X5.55Y-4.325
T5
X9.6521Y-1.5275
X9.6521Y-2.5117
T0
M30
