%TF.GenerationSoftware,KiCad,Pcbnew,7.0.5*%
%TF.CreationDate,2024-09-25T18:33:36-04:00*%
%TF.ProjectId,stepper_motor_controller_3_for_cnc,73746570-7065-4725-9f6d-6f746f725f63,rev?*%
%TF.SameCoordinates,Original*%
%TF.FileFunction,Legend,Top*%
%TF.FilePolarity,Positive*%
%FSLAX46Y46*%
G04 Gerber Fmt 4.6, Leading zero omitted, Abs format (unit mm)*
G04 Created by KiCad (PCBNEW 7.0.5) date 2024-09-25 18:33:36*
%MOMM*%
%LPD*%
G01*
G04 APERTURE LIST*
%ADD10C,0.150000*%
%ADD11C,0.120000*%
%ADD12C,0.127000*%
G04 APERTURE END LIST*
D10*
%TO.C,R37*%
X93400942Y28825180D02*
X93067609Y29301371D01*
X92829514Y28825180D02*
X92829514Y29825180D01*
X92829514Y29825180D02*
X93210466Y29825180D01*
X93210466Y29825180D02*
X93305704Y29777561D01*
X93305704Y29777561D02*
X93353323Y29729942D01*
X93353323Y29729942D02*
X93400942Y29634704D01*
X93400942Y29634704D02*
X93400942Y29491847D01*
X93400942Y29491847D02*
X93353323Y29396609D01*
X93353323Y29396609D02*
X93305704Y29348990D01*
X93305704Y29348990D02*
X93210466Y29301371D01*
X93210466Y29301371D02*
X92829514Y29301371D01*
X93734276Y29825180D02*
X94353323Y29825180D01*
X94353323Y29825180D02*
X94019990Y29444228D01*
X94019990Y29444228D02*
X94162847Y29444228D01*
X94162847Y29444228D02*
X94258085Y29396609D01*
X94258085Y29396609D02*
X94305704Y29348990D01*
X94305704Y29348990D02*
X94353323Y29253752D01*
X94353323Y29253752D02*
X94353323Y29015657D01*
X94353323Y29015657D02*
X94305704Y28920419D01*
X94305704Y28920419D02*
X94258085Y28872800D01*
X94258085Y28872800D02*
X94162847Y28825180D01*
X94162847Y28825180D02*
X93877133Y28825180D01*
X93877133Y28825180D02*
X93781895Y28872800D01*
X93781895Y28872800D02*
X93734276Y28920419D01*
X94686657Y29825180D02*
X95353323Y29825180D01*
X95353323Y29825180D02*
X94924752Y28825180D01*
%TO.C,J2*%
X121507865Y15667532D02*
X122070295Y15667532D01*
X122070295Y15667532D02*
X122182781Y15630037D01*
X122182781Y15630037D02*
X122257772Y15555046D01*
X122257772Y15555046D02*
X122295267Y15442560D01*
X122295267Y15442560D02*
X122295267Y15367570D01*
X121582856Y16004990D02*
X121545360Y16042485D01*
X121545360Y16042485D02*
X121507865Y16117476D01*
X121507865Y16117476D02*
X121507865Y16304953D01*
X121507865Y16304953D02*
X121545360Y16379943D01*
X121545360Y16379943D02*
X121582856Y16417439D01*
X121582856Y16417439D02*
X121657846Y16454934D01*
X121657846Y16454934D02*
X121732837Y16454934D01*
X121732837Y16454934D02*
X121845323Y16417439D01*
X121845323Y16417439D02*
X122295267Y15967495D01*
X122295267Y15967495D02*
X122295267Y16454934D01*
%TO.C,U24*%
X74228619Y19761905D02*
X75038142Y19761905D01*
X75038142Y19761905D02*
X75133380Y19809524D01*
X75133380Y19809524D02*
X75181000Y19857143D01*
X75181000Y19857143D02*
X75228619Y19952381D01*
X75228619Y19952381D02*
X75228619Y20142857D01*
X75228619Y20142857D02*
X75181000Y20238095D01*
X75181000Y20238095D02*
X75133380Y20285714D01*
X75133380Y20285714D02*
X75038142Y20333333D01*
X75038142Y20333333D02*
X74228619Y20333333D01*
X74323857Y20761905D02*
X74276238Y20809524D01*
X74276238Y20809524D02*
X74228619Y20904762D01*
X74228619Y20904762D02*
X74228619Y21142857D01*
X74228619Y21142857D02*
X74276238Y21238095D01*
X74276238Y21238095D02*
X74323857Y21285714D01*
X74323857Y21285714D02*
X74419095Y21333333D01*
X74419095Y21333333D02*
X74514333Y21333333D01*
X74514333Y21333333D02*
X74657190Y21285714D01*
X74657190Y21285714D02*
X75228619Y20714286D01*
X75228619Y20714286D02*
X75228619Y21333333D01*
X74561952Y22190476D02*
X75228619Y22190476D01*
X74181000Y21952381D02*
X74895285Y21714286D01*
X74895285Y21714286D02*
X74895285Y22333333D01*
%TO.C,U27*%
X72128619Y9621905D02*
X72938142Y9621905D01*
X72938142Y9621905D02*
X73033380Y9669524D01*
X73033380Y9669524D02*
X73081000Y9717143D01*
X73081000Y9717143D02*
X73128619Y9812381D01*
X73128619Y9812381D02*
X73128619Y10002857D01*
X73128619Y10002857D02*
X73081000Y10098095D01*
X73081000Y10098095D02*
X73033380Y10145714D01*
X73033380Y10145714D02*
X72938142Y10193333D01*
X72938142Y10193333D02*
X72128619Y10193333D01*
X72223857Y10621905D02*
X72176238Y10669524D01*
X72176238Y10669524D02*
X72128619Y10764762D01*
X72128619Y10764762D02*
X72128619Y11002857D01*
X72128619Y11002857D02*
X72176238Y11098095D01*
X72176238Y11098095D02*
X72223857Y11145714D01*
X72223857Y11145714D02*
X72319095Y11193333D01*
X72319095Y11193333D02*
X72414333Y11193333D01*
X72414333Y11193333D02*
X72557190Y11145714D01*
X72557190Y11145714D02*
X73128619Y10574286D01*
X73128619Y10574286D02*
X73128619Y11193333D01*
X72128619Y11526667D02*
X72128619Y12193333D01*
X72128619Y12193333D02*
X73128619Y11764762D01*
%TO.C,U26*%
X84388619Y19761905D02*
X85198142Y19761905D01*
X85198142Y19761905D02*
X85293380Y19809524D01*
X85293380Y19809524D02*
X85341000Y19857143D01*
X85341000Y19857143D02*
X85388619Y19952381D01*
X85388619Y19952381D02*
X85388619Y20142857D01*
X85388619Y20142857D02*
X85341000Y20238095D01*
X85341000Y20238095D02*
X85293380Y20285714D01*
X85293380Y20285714D02*
X85198142Y20333333D01*
X85198142Y20333333D02*
X84388619Y20333333D01*
X84483857Y20761905D02*
X84436238Y20809524D01*
X84436238Y20809524D02*
X84388619Y20904762D01*
X84388619Y20904762D02*
X84388619Y21142857D01*
X84388619Y21142857D02*
X84436238Y21238095D01*
X84436238Y21238095D02*
X84483857Y21285714D01*
X84483857Y21285714D02*
X84579095Y21333333D01*
X84579095Y21333333D02*
X84674333Y21333333D01*
X84674333Y21333333D02*
X84817190Y21285714D01*
X84817190Y21285714D02*
X85388619Y20714286D01*
X85388619Y20714286D02*
X85388619Y21333333D01*
X84388619Y22190476D02*
X84388619Y22000000D01*
X84388619Y22000000D02*
X84436238Y21904762D01*
X84436238Y21904762D02*
X84483857Y21857143D01*
X84483857Y21857143D02*
X84626714Y21761905D01*
X84626714Y21761905D02*
X84817190Y21714286D01*
X84817190Y21714286D02*
X85198142Y21714286D01*
X85198142Y21714286D02*
X85293380Y21761905D01*
X85293380Y21761905D02*
X85341000Y21809524D01*
X85341000Y21809524D02*
X85388619Y21904762D01*
X85388619Y21904762D02*
X85388619Y22095238D01*
X85388619Y22095238D02*
X85341000Y22190476D01*
X85341000Y22190476D02*
X85293380Y22238095D01*
X85293380Y22238095D02*
X85198142Y22285714D01*
X85198142Y22285714D02*
X84960047Y22285714D01*
X84960047Y22285714D02*
X84864809Y22238095D01*
X84864809Y22238095D02*
X84817190Y22190476D01*
X84817190Y22190476D02*
X84769571Y22095238D01*
X84769571Y22095238D02*
X84769571Y21904762D01*
X84769571Y21904762D02*
X84817190Y21809524D01*
X84817190Y21809524D02*
X84864809Y21761905D01*
X84864809Y21761905D02*
X84960047Y21714286D01*
%TO.C,R38*%
X93400942Y27525180D02*
X93067609Y28001371D01*
X92829514Y27525180D02*
X92829514Y28525180D01*
X92829514Y28525180D02*
X93210466Y28525180D01*
X93210466Y28525180D02*
X93305704Y28477561D01*
X93305704Y28477561D02*
X93353323Y28429942D01*
X93353323Y28429942D02*
X93400942Y28334704D01*
X93400942Y28334704D02*
X93400942Y28191847D01*
X93400942Y28191847D02*
X93353323Y28096609D01*
X93353323Y28096609D02*
X93305704Y28048990D01*
X93305704Y28048990D02*
X93210466Y28001371D01*
X93210466Y28001371D02*
X92829514Y28001371D01*
X93734276Y28525180D02*
X94353323Y28525180D01*
X94353323Y28525180D02*
X94019990Y28144228D01*
X94019990Y28144228D02*
X94162847Y28144228D01*
X94162847Y28144228D02*
X94258085Y28096609D01*
X94258085Y28096609D02*
X94305704Y28048990D01*
X94305704Y28048990D02*
X94353323Y27953752D01*
X94353323Y27953752D02*
X94353323Y27715657D01*
X94353323Y27715657D02*
X94305704Y27620419D01*
X94305704Y27620419D02*
X94258085Y27572800D01*
X94258085Y27572800D02*
X94162847Y27525180D01*
X94162847Y27525180D02*
X93877133Y27525180D01*
X93877133Y27525180D02*
X93781895Y27572800D01*
X93781895Y27572800D02*
X93734276Y27620419D01*
X94924752Y28096609D02*
X94829514Y28144228D01*
X94829514Y28144228D02*
X94781895Y28191847D01*
X94781895Y28191847D02*
X94734276Y28287085D01*
X94734276Y28287085D02*
X94734276Y28334704D01*
X94734276Y28334704D02*
X94781895Y28429942D01*
X94781895Y28429942D02*
X94829514Y28477561D01*
X94829514Y28477561D02*
X94924752Y28525180D01*
X94924752Y28525180D02*
X95115228Y28525180D01*
X95115228Y28525180D02*
X95210466Y28477561D01*
X95210466Y28477561D02*
X95258085Y28429942D01*
X95258085Y28429942D02*
X95305704Y28334704D01*
X95305704Y28334704D02*
X95305704Y28287085D01*
X95305704Y28287085D02*
X95258085Y28191847D01*
X95258085Y28191847D02*
X95210466Y28144228D01*
X95210466Y28144228D02*
X95115228Y28096609D01*
X95115228Y28096609D02*
X94924752Y28096609D01*
X94924752Y28096609D02*
X94829514Y28048990D01*
X94829514Y28048990D02*
X94781895Y28001371D01*
X94781895Y28001371D02*
X94734276Y27906133D01*
X94734276Y27906133D02*
X94734276Y27715657D01*
X94734276Y27715657D02*
X94781895Y27620419D01*
X94781895Y27620419D02*
X94829514Y27572800D01*
X94829514Y27572800D02*
X94924752Y27525180D01*
X94924752Y27525180D02*
X95115228Y27525180D01*
X95115228Y27525180D02*
X95210466Y27572800D01*
X95210466Y27572800D02*
X95258085Y27620419D01*
X95258085Y27620419D02*
X95305704Y27715657D01*
X95305704Y27715657D02*
X95305704Y27906133D01*
X95305704Y27906133D02*
X95258085Y28001371D01*
X95258085Y28001371D02*
X95210466Y28048990D01*
X95210466Y28048990D02*
X95115228Y28096609D01*
%TO.C,U10*%
X51808619Y9621905D02*
X52618142Y9621905D01*
X52618142Y9621905D02*
X52713380Y9669524D01*
X52713380Y9669524D02*
X52761000Y9717143D01*
X52761000Y9717143D02*
X52808619Y9812381D01*
X52808619Y9812381D02*
X52808619Y10002857D01*
X52808619Y10002857D02*
X52761000Y10098095D01*
X52761000Y10098095D02*
X52713380Y10145714D01*
X52713380Y10145714D02*
X52618142Y10193333D01*
X52618142Y10193333D02*
X51808619Y10193333D01*
X52808619Y11193333D02*
X52808619Y10621905D01*
X52808619Y10907619D02*
X51808619Y10907619D01*
X51808619Y10907619D02*
X51951476Y10812381D01*
X51951476Y10812381D02*
X52046714Y10717143D01*
X52046714Y10717143D02*
X52094333Y10621905D01*
X51808619Y11812381D02*
X51808619Y11907619D01*
X51808619Y11907619D02*
X51856238Y12002857D01*
X51856238Y12002857D02*
X51903857Y12050476D01*
X51903857Y12050476D02*
X51999095Y12098095D01*
X51999095Y12098095D02*
X52189571Y12145714D01*
X52189571Y12145714D02*
X52427666Y12145714D01*
X52427666Y12145714D02*
X52618142Y12098095D01*
X52618142Y12098095D02*
X52713380Y12050476D01*
X52713380Y12050476D02*
X52761000Y12002857D01*
X52761000Y12002857D02*
X52808619Y11907619D01*
X52808619Y11907619D02*
X52808619Y11812381D01*
X52808619Y11812381D02*
X52761000Y11717143D01*
X52761000Y11717143D02*
X52713380Y11669524D01*
X52713380Y11669524D02*
X52618142Y11621905D01*
X52618142Y11621905D02*
X52427666Y11574286D01*
X52427666Y11574286D02*
X52189571Y11574286D01*
X52189571Y11574286D02*
X51999095Y11621905D01*
X51999095Y11621905D02*
X51903857Y11669524D01*
X51903857Y11669524D02*
X51856238Y11717143D01*
X51856238Y11717143D02*
X51808619Y11812381D01*
%TO.C,U1*%
X94551895Y26425180D02*
X94551895Y25615657D01*
X94551895Y25615657D02*
X94599514Y25520419D01*
X94599514Y25520419D02*
X94647133Y25472800D01*
X94647133Y25472800D02*
X94742371Y25425180D01*
X94742371Y25425180D02*
X94932847Y25425180D01*
X94932847Y25425180D02*
X95028085Y25472800D01*
X95028085Y25472800D02*
X95075704Y25520419D01*
X95075704Y25520419D02*
X95123323Y25615657D01*
X95123323Y25615657D02*
X95123323Y26425180D01*
X96123323Y25425180D02*
X95551895Y25425180D01*
X95837609Y25425180D02*
X95837609Y26425180D01*
X95837609Y26425180D02*
X95742371Y26282323D01*
X95742371Y26282323D02*
X95647133Y26187085D01*
X95647133Y26187085D02*
X95551895Y26139466D01*
%TO.C,U8*%
X41638619Y10088095D02*
X42448142Y10088095D01*
X42448142Y10088095D02*
X42543380Y10135714D01*
X42543380Y10135714D02*
X42591000Y10183333D01*
X42591000Y10183333D02*
X42638619Y10278571D01*
X42638619Y10278571D02*
X42638619Y10469047D01*
X42638619Y10469047D02*
X42591000Y10564285D01*
X42591000Y10564285D02*
X42543380Y10611904D01*
X42543380Y10611904D02*
X42448142Y10659523D01*
X42448142Y10659523D02*
X41638619Y10659523D01*
X42067190Y11278571D02*
X42019571Y11183333D01*
X42019571Y11183333D02*
X41971952Y11135714D01*
X41971952Y11135714D02*
X41876714Y11088095D01*
X41876714Y11088095D02*
X41829095Y11088095D01*
X41829095Y11088095D02*
X41733857Y11135714D01*
X41733857Y11135714D02*
X41686238Y11183333D01*
X41686238Y11183333D02*
X41638619Y11278571D01*
X41638619Y11278571D02*
X41638619Y11469047D01*
X41638619Y11469047D02*
X41686238Y11564285D01*
X41686238Y11564285D02*
X41733857Y11611904D01*
X41733857Y11611904D02*
X41829095Y11659523D01*
X41829095Y11659523D02*
X41876714Y11659523D01*
X41876714Y11659523D02*
X41971952Y11611904D01*
X41971952Y11611904D02*
X42019571Y11564285D01*
X42019571Y11564285D02*
X42067190Y11469047D01*
X42067190Y11469047D02*
X42067190Y11278571D01*
X42067190Y11278571D02*
X42114809Y11183333D01*
X42114809Y11183333D02*
X42162428Y11135714D01*
X42162428Y11135714D02*
X42257666Y11088095D01*
X42257666Y11088095D02*
X42448142Y11088095D01*
X42448142Y11088095D02*
X42543380Y11135714D01*
X42543380Y11135714D02*
X42591000Y11183333D01*
X42591000Y11183333D02*
X42638619Y11278571D01*
X42638619Y11278571D02*
X42638619Y11469047D01*
X42638619Y11469047D02*
X42591000Y11564285D01*
X42591000Y11564285D02*
X42543380Y11611904D01*
X42543380Y11611904D02*
X42448142Y11659523D01*
X42448142Y11659523D02*
X42257666Y11659523D01*
X42257666Y11659523D02*
X42162428Y11611904D01*
X42162428Y11611904D02*
X42114809Y11564285D01*
X42114809Y11564285D02*
X42067190Y11469047D01*
%TO.C,U5*%
X43738619Y20238095D02*
X44548142Y20238095D01*
X44548142Y20238095D02*
X44643380Y20285714D01*
X44643380Y20285714D02*
X44691000Y20333333D01*
X44691000Y20333333D02*
X44738619Y20428571D01*
X44738619Y20428571D02*
X44738619Y20619047D01*
X44738619Y20619047D02*
X44691000Y20714285D01*
X44691000Y20714285D02*
X44643380Y20761904D01*
X44643380Y20761904D02*
X44548142Y20809523D01*
X44548142Y20809523D02*
X43738619Y20809523D01*
X43738619Y21761904D02*
X43738619Y21285714D01*
X43738619Y21285714D02*
X44214809Y21238095D01*
X44214809Y21238095D02*
X44167190Y21285714D01*
X44167190Y21285714D02*
X44119571Y21380952D01*
X44119571Y21380952D02*
X44119571Y21619047D01*
X44119571Y21619047D02*
X44167190Y21714285D01*
X44167190Y21714285D02*
X44214809Y21761904D01*
X44214809Y21761904D02*
X44310047Y21809523D01*
X44310047Y21809523D02*
X44548142Y21809523D01*
X44548142Y21809523D02*
X44643380Y21761904D01*
X44643380Y21761904D02*
X44691000Y21714285D01*
X44691000Y21714285D02*
X44738619Y21619047D01*
X44738619Y21619047D02*
X44738619Y21380952D01*
X44738619Y21380952D02*
X44691000Y21285714D01*
X44691000Y21285714D02*
X44643380Y21238095D01*
%TO.C,U7*%
X53898619Y20238095D02*
X54708142Y20238095D01*
X54708142Y20238095D02*
X54803380Y20285714D01*
X54803380Y20285714D02*
X54851000Y20333333D01*
X54851000Y20333333D02*
X54898619Y20428571D01*
X54898619Y20428571D02*
X54898619Y20619047D01*
X54898619Y20619047D02*
X54851000Y20714285D01*
X54851000Y20714285D02*
X54803380Y20761904D01*
X54803380Y20761904D02*
X54708142Y20809523D01*
X54708142Y20809523D02*
X53898619Y20809523D01*
X53898619Y21190476D02*
X53898619Y21857142D01*
X53898619Y21857142D02*
X54898619Y21428571D01*
%TO.C,U6*%
X31488619Y10098095D02*
X32298142Y10098095D01*
X32298142Y10098095D02*
X32393380Y10145714D01*
X32393380Y10145714D02*
X32441000Y10193333D01*
X32441000Y10193333D02*
X32488619Y10288571D01*
X32488619Y10288571D02*
X32488619Y10479047D01*
X32488619Y10479047D02*
X32441000Y10574285D01*
X32441000Y10574285D02*
X32393380Y10621904D01*
X32393380Y10621904D02*
X32298142Y10669523D01*
X32298142Y10669523D02*
X31488619Y10669523D01*
X31488619Y11574285D02*
X31488619Y11383809D01*
X31488619Y11383809D02*
X31536238Y11288571D01*
X31536238Y11288571D02*
X31583857Y11240952D01*
X31583857Y11240952D02*
X31726714Y11145714D01*
X31726714Y11145714D02*
X31917190Y11098095D01*
X31917190Y11098095D02*
X32298142Y11098095D01*
X32298142Y11098095D02*
X32393380Y11145714D01*
X32393380Y11145714D02*
X32441000Y11193333D01*
X32441000Y11193333D02*
X32488619Y11288571D01*
X32488619Y11288571D02*
X32488619Y11479047D01*
X32488619Y11479047D02*
X32441000Y11574285D01*
X32441000Y11574285D02*
X32393380Y11621904D01*
X32393380Y11621904D02*
X32298142Y11669523D01*
X32298142Y11669523D02*
X32060047Y11669523D01*
X32060047Y11669523D02*
X31964809Y11621904D01*
X31964809Y11621904D02*
X31917190Y11574285D01*
X31917190Y11574285D02*
X31869571Y11479047D01*
X31869571Y11479047D02*
X31869571Y11288571D01*
X31869571Y11288571D02*
X31917190Y11193333D01*
X31917190Y11193333D02*
X31964809Y11145714D01*
X31964809Y11145714D02*
X32060047Y11098095D01*
%TO.C,U4*%
X21328619Y10098095D02*
X22138142Y10098095D01*
X22138142Y10098095D02*
X22233380Y10145714D01*
X22233380Y10145714D02*
X22281000Y10193333D01*
X22281000Y10193333D02*
X22328619Y10288571D01*
X22328619Y10288571D02*
X22328619Y10479047D01*
X22328619Y10479047D02*
X22281000Y10574285D01*
X22281000Y10574285D02*
X22233380Y10621904D01*
X22233380Y10621904D02*
X22138142Y10669523D01*
X22138142Y10669523D02*
X21328619Y10669523D01*
X21661952Y11574285D02*
X22328619Y11574285D01*
X21281000Y11336190D02*
X21995285Y11098095D01*
X21995285Y11098095D02*
X21995285Y11717142D01*
%TO.C,R18*%
X91338619Y17827142D02*
X90862428Y17493809D01*
X91338619Y17255714D02*
X90338619Y17255714D01*
X90338619Y17255714D02*
X90338619Y17636666D01*
X90338619Y17636666D02*
X90386238Y17731904D01*
X90386238Y17731904D02*
X90433857Y17779523D01*
X90433857Y17779523D02*
X90529095Y17827142D01*
X90529095Y17827142D02*
X90671952Y17827142D01*
X90671952Y17827142D02*
X90767190Y17779523D01*
X90767190Y17779523D02*
X90814809Y17731904D01*
X90814809Y17731904D02*
X90862428Y17636666D01*
X90862428Y17636666D02*
X90862428Y17255714D01*
X91338619Y18779523D02*
X91338619Y18208095D01*
X91338619Y18493809D02*
X90338619Y18493809D01*
X90338619Y18493809D02*
X90481476Y18398571D01*
X90481476Y18398571D02*
X90576714Y18303333D01*
X90576714Y18303333D02*
X90624333Y18208095D01*
X90767190Y19350952D02*
X90719571Y19255714D01*
X90719571Y19255714D02*
X90671952Y19208095D01*
X90671952Y19208095D02*
X90576714Y19160476D01*
X90576714Y19160476D02*
X90529095Y19160476D01*
X90529095Y19160476D02*
X90433857Y19208095D01*
X90433857Y19208095D02*
X90386238Y19255714D01*
X90386238Y19255714D02*
X90338619Y19350952D01*
X90338619Y19350952D02*
X90338619Y19541428D01*
X90338619Y19541428D02*
X90386238Y19636666D01*
X90386238Y19636666D02*
X90433857Y19684285D01*
X90433857Y19684285D02*
X90529095Y19731904D01*
X90529095Y19731904D02*
X90576714Y19731904D01*
X90576714Y19731904D02*
X90671952Y19684285D01*
X90671952Y19684285D02*
X90719571Y19636666D01*
X90719571Y19636666D02*
X90767190Y19541428D01*
X90767190Y19541428D02*
X90767190Y19350952D01*
X90767190Y19350952D02*
X90814809Y19255714D01*
X90814809Y19255714D02*
X90862428Y19208095D01*
X90862428Y19208095D02*
X90957666Y19160476D01*
X90957666Y19160476D02*
X91148142Y19160476D01*
X91148142Y19160476D02*
X91243380Y19208095D01*
X91243380Y19208095D02*
X91291000Y19255714D01*
X91291000Y19255714D02*
X91338619Y19350952D01*
X91338619Y19350952D02*
X91338619Y19541428D01*
X91338619Y19541428D02*
X91291000Y19636666D01*
X91291000Y19636666D02*
X91243380Y19684285D01*
X91243380Y19684285D02*
X91148142Y19731904D01*
X91148142Y19731904D02*
X90957666Y19731904D01*
X90957666Y19731904D02*
X90862428Y19684285D01*
X90862428Y19684285D02*
X90814809Y19636666D01*
X90814809Y19636666D02*
X90767190Y19541428D01*
%TO.C,U3*%
X107251895Y26425180D02*
X107251895Y25615657D01*
X107251895Y25615657D02*
X107299514Y25520419D01*
X107299514Y25520419D02*
X107347133Y25472800D01*
X107347133Y25472800D02*
X107442371Y25425180D01*
X107442371Y25425180D02*
X107632847Y25425180D01*
X107632847Y25425180D02*
X107728085Y25472800D01*
X107728085Y25472800D02*
X107775704Y25520419D01*
X107775704Y25520419D02*
X107823323Y25615657D01*
X107823323Y25615657D02*
X107823323Y26425180D01*
X108204276Y26425180D02*
X108823323Y26425180D01*
X108823323Y26425180D02*
X108489990Y26044228D01*
X108489990Y26044228D02*
X108632847Y26044228D01*
X108632847Y26044228D02*
X108728085Y25996609D01*
X108728085Y25996609D02*
X108775704Y25948990D01*
X108775704Y25948990D02*
X108823323Y25853752D01*
X108823323Y25853752D02*
X108823323Y25615657D01*
X108823323Y25615657D02*
X108775704Y25520419D01*
X108775704Y25520419D02*
X108728085Y25472800D01*
X108728085Y25472800D02*
X108632847Y25425180D01*
X108632847Y25425180D02*
X108347133Y25425180D01*
X108347133Y25425180D02*
X108251895Y25472800D01*
X108251895Y25472800D02*
X108204276Y25520419D01*
%TO.C,U25*%
X61968619Y9621905D02*
X62778142Y9621905D01*
X62778142Y9621905D02*
X62873380Y9669524D01*
X62873380Y9669524D02*
X62921000Y9717143D01*
X62921000Y9717143D02*
X62968619Y9812381D01*
X62968619Y9812381D02*
X62968619Y10002857D01*
X62968619Y10002857D02*
X62921000Y10098095D01*
X62921000Y10098095D02*
X62873380Y10145714D01*
X62873380Y10145714D02*
X62778142Y10193333D01*
X62778142Y10193333D02*
X61968619Y10193333D01*
X62063857Y10621905D02*
X62016238Y10669524D01*
X62016238Y10669524D02*
X61968619Y10764762D01*
X61968619Y10764762D02*
X61968619Y11002857D01*
X61968619Y11002857D02*
X62016238Y11098095D01*
X62016238Y11098095D02*
X62063857Y11145714D01*
X62063857Y11145714D02*
X62159095Y11193333D01*
X62159095Y11193333D02*
X62254333Y11193333D01*
X62254333Y11193333D02*
X62397190Y11145714D01*
X62397190Y11145714D02*
X62968619Y10574286D01*
X62968619Y10574286D02*
X62968619Y11193333D01*
X61968619Y12098095D02*
X61968619Y11621905D01*
X61968619Y11621905D02*
X62444809Y11574286D01*
X62444809Y11574286D02*
X62397190Y11621905D01*
X62397190Y11621905D02*
X62349571Y11717143D01*
X62349571Y11717143D02*
X62349571Y11955238D01*
X62349571Y11955238D02*
X62397190Y12050476D01*
X62397190Y12050476D02*
X62444809Y12098095D01*
X62444809Y12098095D02*
X62540047Y12145714D01*
X62540047Y12145714D02*
X62778142Y12145714D01*
X62778142Y12145714D02*
X62873380Y12098095D01*
X62873380Y12098095D02*
X62921000Y12050476D01*
X62921000Y12050476D02*
X62968619Y11955238D01*
X62968619Y11955238D02*
X62968619Y11717143D01*
X62968619Y11717143D02*
X62921000Y11621905D01*
X62921000Y11621905D02*
X62873380Y11574286D01*
%TO.C,R17*%
X100198619Y20367142D02*
X99722428Y20033809D01*
X100198619Y19795714D02*
X99198619Y19795714D01*
X99198619Y19795714D02*
X99198619Y20176666D01*
X99198619Y20176666D02*
X99246238Y20271904D01*
X99246238Y20271904D02*
X99293857Y20319523D01*
X99293857Y20319523D02*
X99389095Y20367142D01*
X99389095Y20367142D02*
X99531952Y20367142D01*
X99531952Y20367142D02*
X99627190Y20319523D01*
X99627190Y20319523D02*
X99674809Y20271904D01*
X99674809Y20271904D02*
X99722428Y20176666D01*
X99722428Y20176666D02*
X99722428Y19795714D01*
X100198619Y21319523D02*
X100198619Y20748095D01*
X100198619Y21033809D02*
X99198619Y21033809D01*
X99198619Y21033809D02*
X99341476Y20938571D01*
X99341476Y20938571D02*
X99436714Y20843333D01*
X99436714Y20843333D02*
X99484333Y20748095D01*
X99198619Y21652857D02*
X99198619Y22319523D01*
X99198619Y22319523D02*
X100198619Y21890952D01*
%TO.C,U9*%
X64058619Y20238095D02*
X64868142Y20238095D01*
X64868142Y20238095D02*
X64963380Y20285714D01*
X64963380Y20285714D02*
X65011000Y20333333D01*
X65011000Y20333333D02*
X65058619Y20428571D01*
X65058619Y20428571D02*
X65058619Y20619047D01*
X65058619Y20619047D02*
X65011000Y20714285D01*
X65011000Y20714285D02*
X64963380Y20761904D01*
X64963380Y20761904D02*
X64868142Y20809523D01*
X64868142Y20809523D02*
X64058619Y20809523D01*
X65058619Y21333333D02*
X65058619Y21523809D01*
X65058619Y21523809D02*
X65011000Y21619047D01*
X65011000Y21619047D02*
X64963380Y21666666D01*
X64963380Y21666666D02*
X64820523Y21761904D01*
X64820523Y21761904D02*
X64630047Y21809523D01*
X64630047Y21809523D02*
X64249095Y21809523D01*
X64249095Y21809523D02*
X64153857Y21761904D01*
X64153857Y21761904D02*
X64106238Y21714285D01*
X64106238Y21714285D02*
X64058619Y21619047D01*
X64058619Y21619047D02*
X64058619Y21428571D01*
X64058619Y21428571D02*
X64106238Y21333333D01*
X64106238Y21333333D02*
X64153857Y21285714D01*
X64153857Y21285714D02*
X64249095Y21238095D01*
X64249095Y21238095D02*
X64487190Y21238095D01*
X64487190Y21238095D02*
X64582428Y21285714D01*
X64582428Y21285714D02*
X64630047Y21333333D01*
X64630047Y21333333D02*
X64677666Y21428571D01*
X64677666Y21428571D02*
X64677666Y21619047D01*
X64677666Y21619047D02*
X64630047Y21714285D01*
X64630047Y21714285D02*
X64582428Y21761904D01*
X64582428Y21761904D02*
X64487190Y21809523D01*
%TO.C,U11*%
X101060705Y33135180D02*
X101060705Y32325657D01*
X101060705Y32325657D02*
X101108324Y32230419D01*
X101108324Y32230419D02*
X101155943Y32182800D01*
X101155943Y32182800D02*
X101251181Y32135180D01*
X101251181Y32135180D02*
X101441657Y32135180D01*
X101441657Y32135180D02*
X101536895Y32182800D01*
X101536895Y32182800D02*
X101584514Y32230419D01*
X101584514Y32230419D02*
X101632133Y32325657D01*
X101632133Y32325657D02*
X101632133Y33135180D01*
X102632133Y32135180D02*
X102060705Y32135180D01*
X102346419Y32135180D02*
X102346419Y33135180D01*
X102346419Y33135180D02*
X102251181Y32992323D01*
X102251181Y32992323D02*
X102155943Y32897085D01*
X102155943Y32897085D02*
X102060705Y32849466D01*
X103584514Y32135180D02*
X103013086Y32135180D01*
X103298800Y32135180D02*
X103298800Y33135180D01*
X103298800Y33135180D02*
X103203562Y32992323D01*
X103203562Y32992323D02*
X103108324Y32897085D01*
X103108324Y32897085D02*
X103013086Y32849466D01*
%TO.C,U2*%
X33578619Y20238095D02*
X34388142Y20238095D01*
X34388142Y20238095D02*
X34483380Y20285714D01*
X34483380Y20285714D02*
X34531000Y20333333D01*
X34531000Y20333333D02*
X34578619Y20428571D01*
X34578619Y20428571D02*
X34578619Y20619047D01*
X34578619Y20619047D02*
X34531000Y20714285D01*
X34531000Y20714285D02*
X34483380Y20761904D01*
X34483380Y20761904D02*
X34388142Y20809523D01*
X34388142Y20809523D02*
X33578619Y20809523D01*
X33673857Y21238095D02*
X33626238Y21285714D01*
X33626238Y21285714D02*
X33578619Y21380952D01*
X33578619Y21380952D02*
X33578619Y21619047D01*
X33578619Y21619047D02*
X33626238Y21714285D01*
X33626238Y21714285D02*
X33673857Y21761904D01*
X33673857Y21761904D02*
X33769095Y21809523D01*
X33769095Y21809523D02*
X33864333Y21809523D01*
X33864333Y21809523D02*
X34007190Y21761904D01*
X34007190Y21761904D02*
X34578619Y21190476D01*
X34578619Y21190476D02*
X34578619Y21809523D01*
D11*
%TO.C,R37*%
X92123800Y28280000D02*
X95963800Y28280000D01*
X92123800Y26440000D02*
X95963800Y26440000D01*
D12*
%TO.C,J2*%
X114408800Y640000D02*
X114408800Y31220000D01*
X134018800Y640000D02*
X114408800Y640000D01*
X134018800Y640000D02*
X134018800Y4500000D01*
X134018800Y4500000D02*
X134018800Y27360000D01*
X138448800Y4500000D02*
X134018800Y4500000D01*
X139718800Y5630000D02*
X139718800Y5770000D01*
X139718800Y5770000D02*
X139718800Y26090000D01*
X139718800Y26090000D02*
X139718800Y26230000D01*
X134018800Y27360000D02*
X134018800Y31220000D01*
X138448800Y27360000D02*
X134018800Y27360000D01*
X114408800Y31220000D02*
X134018800Y31220000D01*
X138448800Y4500000D02*
G75*
G03*
X139718800Y5770000I1J1269999D01*
G01*
X139718800Y26090000D02*
G75*
G03*
X138448800Y27360000I-1270000J0D01*
G01*
D11*
%TO.C,U24*%
X73773800Y23650000D02*
X63493800Y23650000D01*
X63493800Y23650000D02*
X63493800Y18350000D01*
X73773800Y22000000D02*
X73773800Y23650000D01*
X73773800Y18350000D02*
X73773800Y20000000D01*
X63493800Y18350000D02*
X73773800Y18350000D01*
X73773800Y22000000D02*
G75*
G03*
X73773800Y20000000I0J-1000000D01*
G01*
%TO.C,U27*%
X73673800Y8210000D02*
X83953800Y8210000D01*
X83953800Y8210000D02*
X83953800Y13510000D01*
X73673800Y9860000D02*
X73673800Y8210000D01*
X73673800Y13510000D02*
X73673800Y11860000D01*
X83953800Y13510000D02*
X73673800Y13510000D01*
X73673800Y9860000D02*
G75*
G03*
X73673800Y11860000I0J1000000D01*
G01*
%TO.C,U26*%
X83933800Y23650000D02*
X73653800Y23650000D01*
X73653800Y23650000D02*
X73653800Y18350000D01*
X83933800Y22000000D02*
X83933800Y23650000D01*
X83933800Y18350000D02*
X83933800Y20000000D01*
X73653800Y18350000D02*
X83933800Y18350000D01*
X83933800Y22000000D02*
G75*
G03*
X83933800Y20000000I0J-1000000D01*
G01*
%TO.C,R38*%
X95963800Y28980000D02*
X92123800Y28980000D01*
X95963800Y30820000D02*
X92123800Y30820000D01*
%TO.C,U10*%
X53353800Y8210000D02*
X63633800Y8210000D01*
X63633800Y8210000D02*
X63633800Y13510000D01*
X53353800Y9860000D02*
X53353800Y8210000D01*
X53353800Y13510000D02*
X53353800Y11860000D01*
X63633800Y13510000D02*
X53353800Y13510000D01*
X53353800Y9860000D02*
G75*
G03*
X53353800Y11860000I0J1000000D01*
G01*
%TO.C,U1*%
X92663800Y24880000D02*
X92663800Y6980000D01*
X92663800Y6980000D02*
X97963800Y6980000D01*
X94313800Y24880000D02*
X92663800Y24880000D01*
X97963800Y24880000D02*
X96313800Y24880000D01*
X97963800Y6980000D02*
X97963800Y24880000D01*
X94313800Y24880000D02*
G75*
G03*
X96313800Y24880000I1000000J0D01*
G01*
%TO.C,U8*%
X43183800Y8200000D02*
X53463800Y8200000D01*
X53463800Y8200000D02*
X53463800Y13500000D01*
X43183800Y9850000D02*
X43183800Y8200000D01*
X43183800Y13500000D02*
X43183800Y11850000D01*
X53463800Y13500000D02*
X43183800Y13500000D01*
X43183800Y9850000D02*
G75*
G03*
X43183800Y11850000I0J1000000D01*
G01*
%TO.C,U5*%
X43283800Y23650000D02*
X33003800Y23650000D01*
X33003800Y23650000D02*
X33003800Y18350000D01*
X43283800Y22000000D02*
X43283800Y23650000D01*
X43283800Y18350000D02*
X43283800Y20000000D01*
X33003800Y18350000D02*
X43283800Y18350000D01*
X43283800Y22000000D02*
G75*
G03*
X43283800Y20000000I0J-1000000D01*
G01*
%TO.C,U7*%
X53443800Y23650000D02*
X43163800Y23650000D01*
X43163800Y23650000D02*
X43163800Y18350000D01*
X53443800Y22000000D02*
X53443800Y23650000D01*
X53443800Y18350000D02*
X53443800Y20000000D01*
X43163800Y18350000D02*
X53443800Y18350000D01*
X53443800Y22000000D02*
G75*
G03*
X53443800Y20000000I0J-1000000D01*
G01*
%TO.C,U6*%
X33033800Y8210000D02*
X43313800Y8210000D01*
X43313800Y8210000D02*
X43313800Y13510000D01*
X33033800Y9860000D02*
X33033800Y8210000D01*
X33033800Y13510000D02*
X33033800Y11860000D01*
X43313800Y13510000D02*
X33033800Y13510000D01*
X33033800Y9860000D02*
G75*
G03*
X33033800Y11860000I0J1000000D01*
G01*
%TO.C,U4*%
X22873800Y8210000D02*
X33153800Y8210000D01*
X33153800Y8210000D02*
X33153800Y13510000D01*
X22873800Y9860000D02*
X22873800Y8210000D01*
X22873800Y13510000D02*
X22873800Y11860000D01*
X33153800Y13510000D02*
X22873800Y13510000D01*
X22873800Y9860000D02*
G75*
G03*
X22873800Y11860000I0J1000000D01*
G01*
%TO.C,R18*%
X89883800Y20390000D02*
X89883800Y16550000D01*
X88043800Y20390000D02*
X88043800Y16550000D01*
%TO.C,U3*%
X105363800Y24880000D02*
X105363800Y6980000D01*
X105363800Y6980000D02*
X110663800Y6980000D01*
X107013800Y24880000D02*
X105363800Y24880000D01*
X110663800Y24880000D02*
X109013800Y24880000D01*
X110663800Y6980000D02*
X110663800Y24880000D01*
X107013800Y24880000D02*
G75*
G03*
X109013800Y24880000I1000000J0D01*
G01*
%TO.C,U25*%
X63513800Y8210000D02*
X73793800Y8210000D01*
X73793800Y8210000D02*
X73793800Y13510000D01*
X63513800Y9860000D02*
X63513800Y8210000D01*
X63513800Y13510000D02*
X63513800Y11860000D01*
X73793800Y13510000D02*
X63513800Y13510000D01*
X63513800Y9860000D02*
G75*
G03*
X63513800Y11860000I0J1000000D01*
G01*
%TO.C,R17*%
X100743800Y19090000D02*
X100743800Y22930000D01*
X102583800Y19090000D02*
X102583800Y22930000D01*
%TO.C,U9*%
X63603800Y23650000D02*
X53323800Y23650000D01*
X53323800Y23650000D02*
X53323800Y18350000D01*
X63603800Y22000000D02*
X63603800Y23650000D01*
X63603800Y18350000D02*
X63603800Y20000000D01*
X53323800Y18350000D02*
X63603800Y18350000D01*
X63603800Y22000000D02*
G75*
G03*
X63603800Y20000000I0J-1000000D01*
G01*
%TO.C,U11*%
X97178800Y31590000D02*
X97178800Y26949000D01*
X97178800Y31590000D02*
X107418800Y31590000D01*
X97178800Y30080000D02*
X107418800Y30080000D01*
X97178800Y26949000D02*
X107418800Y26949000D01*
X100448800Y31590000D02*
X100448800Y30080000D01*
X104149800Y31590000D02*
X104149800Y30080000D01*
X107418800Y31590000D02*
X107418800Y26949000D01*
%TO.C,U2*%
X33123800Y23650000D02*
X22843800Y23650000D01*
X22843800Y23650000D02*
X22843800Y18350000D01*
X33123800Y22000000D02*
X33123800Y23650000D01*
X33123800Y18350000D02*
X33123800Y20000000D01*
X22843800Y18350000D02*
X33123800Y18350000D01*
X33123800Y22000000D02*
G75*
G03*
X33123800Y20000000I0J-1000000D01*
G01*
%TD*%
M02*
