%TF.GenerationSoftware,KiCad,Pcbnew,7.0.5*%
%TF.CreationDate,2024-09-25T18:44:15-04:00*%
%TF.ProjectId,stepper_motor_controller_3_for_cnc,73746570-7065-4725-9f6d-6f746f725f63,rev?*%
%TF.SameCoordinates,Original*%
%TF.FileFunction,Paste,Bot*%
%TF.FilePolarity,Positive*%
%FSLAX46Y46*%
G04 Gerber Fmt 4.6, Leading zero omitted, Abs format (unit mm)*
G04 Created by KiCad (PCBNEW 7.0.5) date 2024-09-25 18:44:15*
%MOMM*%
%LPD*%
G01*
G04 APERTURE LIST*
G04 Aperture macros list*
%AMRoundRect*
0 Rectangle with rounded corners*
0 $1 Rounding radius*
0 $2 $3 $4 $5 $6 $7 $8 $9 X,Y pos of 4 corners*
0 Add a 4 corners polygon primitive as box body*
4,1,4,$2,$3,$4,$5,$6,$7,$8,$9,$2,$3,0*
0 Add four circle primitives for the rounded corners*
1,1,$1+$1,$2,$3*
1,1,$1+$1,$4,$5*
1,1,$1+$1,$6,$7*
1,1,$1+$1,$8,$9*
0 Add four rect primitives between the rounded corners*
20,1,$1+$1,$2,$3,$4,$5,0*
20,1,$1+$1,$4,$5,$6,$7,0*
20,1,$1+$1,$6,$7,$8,$9,0*
20,1,$1+$1,$8,$9,$2,$3,0*%
G04 Aperture macros list end*
%ADD10RoundRect,0.250000X-0.625000X0.312500X-0.625000X-0.312500X0.625000X-0.312500X0.625000X0.312500X0*%
%ADD11RoundRect,0.250000X0.625000X-0.312500X0.625000X0.312500X-0.625000X0.312500X-0.625000X-0.312500X0*%
G04 APERTURE END LIST*
D10*
%TO.C,R70*%
X64833800Y22472500D03*
X64833800Y19547500D03*
%TD*%
D11*
%TO.C,R55*%
X44513800Y44947500D03*
X44513800Y47872500D03*
%TD*%
D10*
%TO.C,R12*%
X54673800Y22472500D03*
X54673800Y19547500D03*
%TD*%
%TO.C,R3*%
X82613800Y22472500D03*
X82613800Y19547500D03*
%TD*%
D11*
%TO.C,R6*%
X72453800Y44947500D03*
X72453800Y47872500D03*
%TD*%
%TO.C,R60*%
X31813800Y44947500D03*
X31813800Y47872500D03*
%TD*%
%TO.C,R57*%
X34353800Y44947500D03*
X34353800Y47872500D03*
%TD*%
%TO.C,R39*%
X74993800Y44947500D03*
X74993800Y47872500D03*
%TD*%
D10*
%TO.C,R72*%
X74993800Y22472500D03*
X74993800Y19547500D03*
%TD*%
%TO.C,R69*%
X72453800Y22472500D03*
X72453800Y19547500D03*
%TD*%
%TO.C,R46*%
X34353800Y22472500D03*
X34353800Y19547500D03*
%TD*%
D11*
%TO.C,R2*%
X82613800Y44947500D03*
X82613800Y47872500D03*
%TD*%
%TO.C,R47*%
X24193800Y44755000D03*
X24193800Y47680000D03*
%TD*%
D10*
%TO.C,R62*%
X24193800Y22472500D03*
X24193800Y19547500D03*
%TD*%
D11*
%TO.C,R54*%
X62293800Y44947500D03*
X62293800Y47872500D03*
%TD*%
D10*
%TO.C,R63*%
X41973800Y22472500D03*
X41973800Y19547500D03*
%TD*%
D11*
%TO.C,R44*%
X41973800Y44947500D03*
X41973800Y47872500D03*
%TD*%
%TO.C,R14*%
X52133800Y44947500D03*
X52133800Y47872500D03*
%TD*%
D10*
%TO.C,R49*%
X31813800Y22472500D03*
X31813800Y19547500D03*
%TD*%
%TO.C,R65*%
X52133800Y22472500D03*
X52133800Y19547500D03*
%TD*%
%TO.C,R66*%
X44513800Y22472500D03*
X44513800Y19547500D03*
%TD*%
D11*
%TO.C,R5*%
X64833800Y44947500D03*
X64833800Y47872500D03*
%TD*%
%TO.C,R9*%
X54673800Y44947500D03*
X54673800Y47872500D03*
%TD*%
D10*
%TO.C,R67*%
X62293800Y22472500D03*
X62293800Y19547500D03*
%TD*%
M02*
