%TF.GenerationSoftware,KiCad,Pcbnew,7.0.5*%
%TF.CreationDate,2024-09-25T18:26:52-04:00*%
%TF.ProjectId,stepper_motor_controller_3_for_cnc,73746570-7065-4725-9f6d-6f746f725f63,rev?*%
%TF.SameCoordinates,Original*%
%TF.FileFunction,Legend,Bot*%
%TF.FilePolarity,Positive*%
%FSLAX46Y46*%
G04 Gerber Fmt 4.6, Leading zero omitted, Abs format (unit mm)*
G04 Created by KiCad (PCBNEW 7.0.5) date 2024-09-25 18:26:52*
%MOMM*%
%LPD*%
G01*
G04 APERTURE LIST*
%ADD10C,0.150000*%
%ADD11C,0.120000*%
G04 APERTURE END LIST*
D10*
%TO.C,R70*%
X180244819Y-81217142D02*
X179768628Y-80883809D01*
X180244819Y-80645714D02*
X179244819Y-80645714D01*
X179244819Y-80645714D02*
X179244819Y-81026666D01*
X179244819Y-81026666D02*
X179292438Y-81121904D01*
X179292438Y-81121904D02*
X179340057Y-81169523D01*
X179340057Y-81169523D02*
X179435295Y-81217142D01*
X179435295Y-81217142D02*
X179578152Y-81217142D01*
X179578152Y-81217142D02*
X179673390Y-81169523D01*
X179673390Y-81169523D02*
X179721009Y-81121904D01*
X179721009Y-81121904D02*
X179768628Y-81026666D01*
X179768628Y-81026666D02*
X179768628Y-80645714D01*
X179244819Y-81550476D02*
X179244819Y-82217142D01*
X179244819Y-82217142D02*
X180244819Y-81788571D01*
X179244819Y-82788571D02*
X179244819Y-82883809D01*
X179244819Y-82883809D02*
X179292438Y-82979047D01*
X179292438Y-82979047D02*
X179340057Y-83026666D01*
X179340057Y-83026666D02*
X179435295Y-83074285D01*
X179435295Y-83074285D02*
X179625771Y-83121904D01*
X179625771Y-83121904D02*
X179863866Y-83121904D01*
X179863866Y-83121904D02*
X180054342Y-83074285D01*
X180054342Y-83074285D02*
X180149580Y-83026666D01*
X180149580Y-83026666D02*
X180197200Y-82979047D01*
X180197200Y-82979047D02*
X180244819Y-82883809D01*
X180244819Y-82883809D02*
X180244819Y-82788571D01*
X180244819Y-82788571D02*
X180197200Y-82693333D01*
X180197200Y-82693333D02*
X180149580Y-82645714D01*
X180149580Y-82645714D02*
X180054342Y-82598095D01*
X180054342Y-82598095D02*
X179863866Y-82550476D01*
X179863866Y-82550476D02*
X179625771Y-82550476D01*
X179625771Y-82550476D02*
X179435295Y-82598095D01*
X179435295Y-82598095D02*
X179340057Y-82645714D01*
X179340057Y-82645714D02*
X179292438Y-82693333D01*
X179292438Y-82693333D02*
X179244819Y-82788571D01*
%TO.C,R55*%
X163564819Y-55817142D02*
X163088628Y-55483809D01*
X163564819Y-55245714D02*
X162564819Y-55245714D01*
X162564819Y-55245714D02*
X162564819Y-55626666D01*
X162564819Y-55626666D02*
X162612438Y-55721904D01*
X162612438Y-55721904D02*
X162660057Y-55769523D01*
X162660057Y-55769523D02*
X162755295Y-55817142D01*
X162755295Y-55817142D02*
X162898152Y-55817142D01*
X162898152Y-55817142D02*
X162993390Y-55769523D01*
X162993390Y-55769523D02*
X163041009Y-55721904D01*
X163041009Y-55721904D02*
X163088628Y-55626666D01*
X163088628Y-55626666D02*
X163088628Y-55245714D01*
X162564819Y-56721904D02*
X162564819Y-56245714D01*
X162564819Y-56245714D02*
X163041009Y-56198095D01*
X163041009Y-56198095D02*
X162993390Y-56245714D01*
X162993390Y-56245714D02*
X162945771Y-56340952D01*
X162945771Y-56340952D02*
X162945771Y-56579047D01*
X162945771Y-56579047D02*
X162993390Y-56674285D01*
X162993390Y-56674285D02*
X163041009Y-56721904D01*
X163041009Y-56721904D02*
X163136247Y-56769523D01*
X163136247Y-56769523D02*
X163374342Y-56769523D01*
X163374342Y-56769523D02*
X163469580Y-56721904D01*
X163469580Y-56721904D02*
X163517200Y-56674285D01*
X163517200Y-56674285D02*
X163564819Y-56579047D01*
X163564819Y-56579047D02*
X163564819Y-56340952D01*
X163564819Y-56340952D02*
X163517200Y-56245714D01*
X163517200Y-56245714D02*
X163469580Y-56198095D01*
X162564819Y-57674285D02*
X162564819Y-57198095D01*
X162564819Y-57198095D02*
X163041009Y-57150476D01*
X163041009Y-57150476D02*
X162993390Y-57198095D01*
X162993390Y-57198095D02*
X162945771Y-57293333D01*
X162945771Y-57293333D02*
X162945771Y-57531428D01*
X162945771Y-57531428D02*
X162993390Y-57626666D01*
X162993390Y-57626666D02*
X163041009Y-57674285D01*
X163041009Y-57674285D02*
X163136247Y-57721904D01*
X163136247Y-57721904D02*
X163374342Y-57721904D01*
X163374342Y-57721904D02*
X163469580Y-57674285D01*
X163469580Y-57674285D02*
X163517200Y-57626666D01*
X163517200Y-57626666D02*
X163564819Y-57531428D01*
X163564819Y-57531428D02*
X163564819Y-57293333D01*
X163564819Y-57293333D02*
X163517200Y-57198095D01*
X163517200Y-57198095D02*
X163469580Y-57150476D01*
%TO.C,R12*%
X170084819Y-81217142D02*
X169608628Y-80883809D01*
X170084819Y-80645714D02*
X169084819Y-80645714D01*
X169084819Y-80645714D02*
X169084819Y-81026666D01*
X169084819Y-81026666D02*
X169132438Y-81121904D01*
X169132438Y-81121904D02*
X169180057Y-81169523D01*
X169180057Y-81169523D02*
X169275295Y-81217142D01*
X169275295Y-81217142D02*
X169418152Y-81217142D01*
X169418152Y-81217142D02*
X169513390Y-81169523D01*
X169513390Y-81169523D02*
X169561009Y-81121904D01*
X169561009Y-81121904D02*
X169608628Y-81026666D01*
X169608628Y-81026666D02*
X169608628Y-80645714D01*
X170084819Y-82169523D02*
X170084819Y-81598095D01*
X170084819Y-81883809D02*
X169084819Y-81883809D01*
X169084819Y-81883809D02*
X169227676Y-81788571D01*
X169227676Y-81788571D02*
X169322914Y-81693333D01*
X169322914Y-81693333D02*
X169370533Y-81598095D01*
X169180057Y-82550476D02*
X169132438Y-82598095D01*
X169132438Y-82598095D02*
X169084819Y-82693333D01*
X169084819Y-82693333D02*
X169084819Y-82931428D01*
X169084819Y-82931428D02*
X169132438Y-83026666D01*
X169132438Y-83026666D02*
X169180057Y-83074285D01*
X169180057Y-83074285D02*
X169275295Y-83121904D01*
X169275295Y-83121904D02*
X169370533Y-83121904D01*
X169370533Y-83121904D02*
X169513390Y-83074285D01*
X169513390Y-83074285D02*
X170084819Y-82502857D01*
X170084819Y-82502857D02*
X170084819Y-83121904D01*
%TO.C,R3*%
X198024819Y-81693333D02*
X197548628Y-81360000D01*
X198024819Y-81121905D02*
X197024819Y-81121905D01*
X197024819Y-81121905D02*
X197024819Y-81502857D01*
X197024819Y-81502857D02*
X197072438Y-81598095D01*
X197072438Y-81598095D02*
X197120057Y-81645714D01*
X197120057Y-81645714D02*
X197215295Y-81693333D01*
X197215295Y-81693333D02*
X197358152Y-81693333D01*
X197358152Y-81693333D02*
X197453390Y-81645714D01*
X197453390Y-81645714D02*
X197501009Y-81598095D01*
X197501009Y-81598095D02*
X197548628Y-81502857D01*
X197548628Y-81502857D02*
X197548628Y-81121905D01*
X197024819Y-82026667D02*
X197024819Y-82645714D01*
X197024819Y-82645714D02*
X197405771Y-82312381D01*
X197405771Y-82312381D02*
X197405771Y-82455238D01*
X197405771Y-82455238D02*
X197453390Y-82550476D01*
X197453390Y-82550476D02*
X197501009Y-82598095D01*
X197501009Y-82598095D02*
X197596247Y-82645714D01*
X197596247Y-82645714D02*
X197834342Y-82645714D01*
X197834342Y-82645714D02*
X197929580Y-82598095D01*
X197929580Y-82598095D02*
X197977200Y-82550476D01*
X197977200Y-82550476D02*
X198024819Y-82455238D01*
X198024819Y-82455238D02*
X198024819Y-82169524D01*
X198024819Y-82169524D02*
X197977200Y-82074286D01*
X197977200Y-82074286D02*
X197929580Y-82026667D01*
%TO.C,R6*%
X191504819Y-56293333D02*
X191028628Y-55960000D01*
X191504819Y-55721905D02*
X190504819Y-55721905D01*
X190504819Y-55721905D02*
X190504819Y-56102857D01*
X190504819Y-56102857D02*
X190552438Y-56198095D01*
X190552438Y-56198095D02*
X190600057Y-56245714D01*
X190600057Y-56245714D02*
X190695295Y-56293333D01*
X190695295Y-56293333D02*
X190838152Y-56293333D01*
X190838152Y-56293333D02*
X190933390Y-56245714D01*
X190933390Y-56245714D02*
X190981009Y-56198095D01*
X190981009Y-56198095D02*
X191028628Y-56102857D01*
X191028628Y-56102857D02*
X191028628Y-55721905D01*
X190504819Y-57150476D02*
X190504819Y-56960000D01*
X190504819Y-56960000D02*
X190552438Y-56864762D01*
X190552438Y-56864762D02*
X190600057Y-56817143D01*
X190600057Y-56817143D02*
X190742914Y-56721905D01*
X190742914Y-56721905D02*
X190933390Y-56674286D01*
X190933390Y-56674286D02*
X191314342Y-56674286D01*
X191314342Y-56674286D02*
X191409580Y-56721905D01*
X191409580Y-56721905D02*
X191457200Y-56769524D01*
X191457200Y-56769524D02*
X191504819Y-56864762D01*
X191504819Y-56864762D02*
X191504819Y-57055238D01*
X191504819Y-57055238D02*
X191457200Y-57150476D01*
X191457200Y-57150476D02*
X191409580Y-57198095D01*
X191409580Y-57198095D02*
X191314342Y-57245714D01*
X191314342Y-57245714D02*
X191076247Y-57245714D01*
X191076247Y-57245714D02*
X190981009Y-57198095D01*
X190981009Y-57198095D02*
X190933390Y-57150476D01*
X190933390Y-57150476D02*
X190885771Y-57055238D01*
X190885771Y-57055238D02*
X190885771Y-56864762D01*
X190885771Y-56864762D02*
X190933390Y-56769524D01*
X190933390Y-56769524D02*
X190981009Y-56721905D01*
X190981009Y-56721905D02*
X191076247Y-56674286D01*
%TO.C,R60*%
X150864819Y-55817142D02*
X150388628Y-55483809D01*
X150864819Y-55245714D02*
X149864819Y-55245714D01*
X149864819Y-55245714D02*
X149864819Y-55626666D01*
X149864819Y-55626666D02*
X149912438Y-55721904D01*
X149912438Y-55721904D02*
X149960057Y-55769523D01*
X149960057Y-55769523D02*
X150055295Y-55817142D01*
X150055295Y-55817142D02*
X150198152Y-55817142D01*
X150198152Y-55817142D02*
X150293390Y-55769523D01*
X150293390Y-55769523D02*
X150341009Y-55721904D01*
X150341009Y-55721904D02*
X150388628Y-55626666D01*
X150388628Y-55626666D02*
X150388628Y-55245714D01*
X149864819Y-56674285D02*
X149864819Y-56483809D01*
X149864819Y-56483809D02*
X149912438Y-56388571D01*
X149912438Y-56388571D02*
X149960057Y-56340952D01*
X149960057Y-56340952D02*
X150102914Y-56245714D01*
X150102914Y-56245714D02*
X150293390Y-56198095D01*
X150293390Y-56198095D02*
X150674342Y-56198095D01*
X150674342Y-56198095D02*
X150769580Y-56245714D01*
X150769580Y-56245714D02*
X150817200Y-56293333D01*
X150817200Y-56293333D02*
X150864819Y-56388571D01*
X150864819Y-56388571D02*
X150864819Y-56579047D01*
X150864819Y-56579047D02*
X150817200Y-56674285D01*
X150817200Y-56674285D02*
X150769580Y-56721904D01*
X150769580Y-56721904D02*
X150674342Y-56769523D01*
X150674342Y-56769523D02*
X150436247Y-56769523D01*
X150436247Y-56769523D02*
X150341009Y-56721904D01*
X150341009Y-56721904D02*
X150293390Y-56674285D01*
X150293390Y-56674285D02*
X150245771Y-56579047D01*
X150245771Y-56579047D02*
X150245771Y-56388571D01*
X150245771Y-56388571D02*
X150293390Y-56293333D01*
X150293390Y-56293333D02*
X150341009Y-56245714D01*
X150341009Y-56245714D02*
X150436247Y-56198095D01*
X149864819Y-57388571D02*
X149864819Y-57483809D01*
X149864819Y-57483809D02*
X149912438Y-57579047D01*
X149912438Y-57579047D02*
X149960057Y-57626666D01*
X149960057Y-57626666D02*
X150055295Y-57674285D01*
X150055295Y-57674285D02*
X150245771Y-57721904D01*
X150245771Y-57721904D02*
X150483866Y-57721904D01*
X150483866Y-57721904D02*
X150674342Y-57674285D01*
X150674342Y-57674285D02*
X150769580Y-57626666D01*
X150769580Y-57626666D02*
X150817200Y-57579047D01*
X150817200Y-57579047D02*
X150864819Y-57483809D01*
X150864819Y-57483809D02*
X150864819Y-57388571D01*
X150864819Y-57388571D02*
X150817200Y-57293333D01*
X150817200Y-57293333D02*
X150769580Y-57245714D01*
X150769580Y-57245714D02*
X150674342Y-57198095D01*
X150674342Y-57198095D02*
X150483866Y-57150476D01*
X150483866Y-57150476D02*
X150245771Y-57150476D01*
X150245771Y-57150476D02*
X150055295Y-57198095D01*
X150055295Y-57198095D02*
X149960057Y-57245714D01*
X149960057Y-57245714D02*
X149912438Y-57293333D01*
X149912438Y-57293333D02*
X149864819Y-57388571D01*
%TO.C,R57*%
X153404819Y-55817142D02*
X152928628Y-55483809D01*
X153404819Y-55245714D02*
X152404819Y-55245714D01*
X152404819Y-55245714D02*
X152404819Y-55626666D01*
X152404819Y-55626666D02*
X152452438Y-55721904D01*
X152452438Y-55721904D02*
X152500057Y-55769523D01*
X152500057Y-55769523D02*
X152595295Y-55817142D01*
X152595295Y-55817142D02*
X152738152Y-55817142D01*
X152738152Y-55817142D02*
X152833390Y-55769523D01*
X152833390Y-55769523D02*
X152881009Y-55721904D01*
X152881009Y-55721904D02*
X152928628Y-55626666D01*
X152928628Y-55626666D02*
X152928628Y-55245714D01*
X152404819Y-56721904D02*
X152404819Y-56245714D01*
X152404819Y-56245714D02*
X152881009Y-56198095D01*
X152881009Y-56198095D02*
X152833390Y-56245714D01*
X152833390Y-56245714D02*
X152785771Y-56340952D01*
X152785771Y-56340952D02*
X152785771Y-56579047D01*
X152785771Y-56579047D02*
X152833390Y-56674285D01*
X152833390Y-56674285D02*
X152881009Y-56721904D01*
X152881009Y-56721904D02*
X152976247Y-56769523D01*
X152976247Y-56769523D02*
X153214342Y-56769523D01*
X153214342Y-56769523D02*
X153309580Y-56721904D01*
X153309580Y-56721904D02*
X153357200Y-56674285D01*
X153357200Y-56674285D02*
X153404819Y-56579047D01*
X153404819Y-56579047D02*
X153404819Y-56340952D01*
X153404819Y-56340952D02*
X153357200Y-56245714D01*
X153357200Y-56245714D02*
X153309580Y-56198095D01*
X152404819Y-57102857D02*
X152404819Y-57769523D01*
X152404819Y-57769523D02*
X153404819Y-57340952D01*
%TO.C,R39*%
X194044819Y-55817142D02*
X193568628Y-55483809D01*
X194044819Y-55245714D02*
X193044819Y-55245714D01*
X193044819Y-55245714D02*
X193044819Y-55626666D01*
X193044819Y-55626666D02*
X193092438Y-55721904D01*
X193092438Y-55721904D02*
X193140057Y-55769523D01*
X193140057Y-55769523D02*
X193235295Y-55817142D01*
X193235295Y-55817142D02*
X193378152Y-55817142D01*
X193378152Y-55817142D02*
X193473390Y-55769523D01*
X193473390Y-55769523D02*
X193521009Y-55721904D01*
X193521009Y-55721904D02*
X193568628Y-55626666D01*
X193568628Y-55626666D02*
X193568628Y-55245714D01*
X193044819Y-56150476D02*
X193044819Y-56769523D01*
X193044819Y-56769523D02*
X193425771Y-56436190D01*
X193425771Y-56436190D02*
X193425771Y-56579047D01*
X193425771Y-56579047D02*
X193473390Y-56674285D01*
X193473390Y-56674285D02*
X193521009Y-56721904D01*
X193521009Y-56721904D02*
X193616247Y-56769523D01*
X193616247Y-56769523D02*
X193854342Y-56769523D01*
X193854342Y-56769523D02*
X193949580Y-56721904D01*
X193949580Y-56721904D02*
X193997200Y-56674285D01*
X193997200Y-56674285D02*
X194044819Y-56579047D01*
X194044819Y-56579047D02*
X194044819Y-56293333D01*
X194044819Y-56293333D02*
X193997200Y-56198095D01*
X193997200Y-56198095D02*
X193949580Y-56150476D01*
X194044819Y-57245714D02*
X194044819Y-57436190D01*
X194044819Y-57436190D02*
X193997200Y-57531428D01*
X193997200Y-57531428D02*
X193949580Y-57579047D01*
X193949580Y-57579047D02*
X193806723Y-57674285D01*
X193806723Y-57674285D02*
X193616247Y-57721904D01*
X193616247Y-57721904D02*
X193235295Y-57721904D01*
X193235295Y-57721904D02*
X193140057Y-57674285D01*
X193140057Y-57674285D02*
X193092438Y-57626666D01*
X193092438Y-57626666D02*
X193044819Y-57531428D01*
X193044819Y-57531428D02*
X193044819Y-57340952D01*
X193044819Y-57340952D02*
X193092438Y-57245714D01*
X193092438Y-57245714D02*
X193140057Y-57198095D01*
X193140057Y-57198095D02*
X193235295Y-57150476D01*
X193235295Y-57150476D02*
X193473390Y-57150476D01*
X193473390Y-57150476D02*
X193568628Y-57198095D01*
X193568628Y-57198095D02*
X193616247Y-57245714D01*
X193616247Y-57245714D02*
X193663866Y-57340952D01*
X193663866Y-57340952D02*
X193663866Y-57531428D01*
X193663866Y-57531428D02*
X193616247Y-57626666D01*
X193616247Y-57626666D02*
X193568628Y-57674285D01*
X193568628Y-57674285D02*
X193473390Y-57721904D01*
%TO.C,R72*%
X190404819Y-81217142D02*
X189928628Y-80883809D01*
X190404819Y-80645714D02*
X189404819Y-80645714D01*
X189404819Y-80645714D02*
X189404819Y-81026666D01*
X189404819Y-81026666D02*
X189452438Y-81121904D01*
X189452438Y-81121904D02*
X189500057Y-81169523D01*
X189500057Y-81169523D02*
X189595295Y-81217142D01*
X189595295Y-81217142D02*
X189738152Y-81217142D01*
X189738152Y-81217142D02*
X189833390Y-81169523D01*
X189833390Y-81169523D02*
X189881009Y-81121904D01*
X189881009Y-81121904D02*
X189928628Y-81026666D01*
X189928628Y-81026666D02*
X189928628Y-80645714D01*
X189404819Y-81550476D02*
X189404819Y-82217142D01*
X189404819Y-82217142D02*
X190404819Y-81788571D01*
X189500057Y-82550476D02*
X189452438Y-82598095D01*
X189452438Y-82598095D02*
X189404819Y-82693333D01*
X189404819Y-82693333D02*
X189404819Y-82931428D01*
X189404819Y-82931428D02*
X189452438Y-83026666D01*
X189452438Y-83026666D02*
X189500057Y-83074285D01*
X189500057Y-83074285D02*
X189595295Y-83121904D01*
X189595295Y-83121904D02*
X189690533Y-83121904D01*
X189690533Y-83121904D02*
X189833390Y-83074285D01*
X189833390Y-83074285D02*
X190404819Y-82502857D01*
X190404819Y-82502857D02*
X190404819Y-83121904D01*
%TO.C,R69*%
X187864819Y-81217142D02*
X187388628Y-80883809D01*
X187864819Y-80645714D02*
X186864819Y-80645714D01*
X186864819Y-80645714D02*
X186864819Y-81026666D01*
X186864819Y-81026666D02*
X186912438Y-81121904D01*
X186912438Y-81121904D02*
X186960057Y-81169523D01*
X186960057Y-81169523D02*
X187055295Y-81217142D01*
X187055295Y-81217142D02*
X187198152Y-81217142D01*
X187198152Y-81217142D02*
X187293390Y-81169523D01*
X187293390Y-81169523D02*
X187341009Y-81121904D01*
X187341009Y-81121904D02*
X187388628Y-81026666D01*
X187388628Y-81026666D02*
X187388628Y-80645714D01*
X186864819Y-82074285D02*
X186864819Y-81883809D01*
X186864819Y-81883809D02*
X186912438Y-81788571D01*
X186912438Y-81788571D02*
X186960057Y-81740952D01*
X186960057Y-81740952D02*
X187102914Y-81645714D01*
X187102914Y-81645714D02*
X187293390Y-81598095D01*
X187293390Y-81598095D02*
X187674342Y-81598095D01*
X187674342Y-81598095D02*
X187769580Y-81645714D01*
X187769580Y-81645714D02*
X187817200Y-81693333D01*
X187817200Y-81693333D02*
X187864819Y-81788571D01*
X187864819Y-81788571D02*
X187864819Y-81979047D01*
X187864819Y-81979047D02*
X187817200Y-82074285D01*
X187817200Y-82074285D02*
X187769580Y-82121904D01*
X187769580Y-82121904D02*
X187674342Y-82169523D01*
X187674342Y-82169523D02*
X187436247Y-82169523D01*
X187436247Y-82169523D02*
X187341009Y-82121904D01*
X187341009Y-82121904D02*
X187293390Y-82074285D01*
X187293390Y-82074285D02*
X187245771Y-81979047D01*
X187245771Y-81979047D02*
X187245771Y-81788571D01*
X187245771Y-81788571D02*
X187293390Y-81693333D01*
X187293390Y-81693333D02*
X187341009Y-81645714D01*
X187341009Y-81645714D02*
X187436247Y-81598095D01*
X187864819Y-82645714D02*
X187864819Y-82836190D01*
X187864819Y-82836190D02*
X187817200Y-82931428D01*
X187817200Y-82931428D02*
X187769580Y-82979047D01*
X187769580Y-82979047D02*
X187626723Y-83074285D01*
X187626723Y-83074285D02*
X187436247Y-83121904D01*
X187436247Y-83121904D02*
X187055295Y-83121904D01*
X187055295Y-83121904D02*
X186960057Y-83074285D01*
X186960057Y-83074285D02*
X186912438Y-83026666D01*
X186912438Y-83026666D02*
X186864819Y-82931428D01*
X186864819Y-82931428D02*
X186864819Y-82740952D01*
X186864819Y-82740952D02*
X186912438Y-82645714D01*
X186912438Y-82645714D02*
X186960057Y-82598095D01*
X186960057Y-82598095D02*
X187055295Y-82550476D01*
X187055295Y-82550476D02*
X187293390Y-82550476D01*
X187293390Y-82550476D02*
X187388628Y-82598095D01*
X187388628Y-82598095D02*
X187436247Y-82645714D01*
X187436247Y-82645714D02*
X187483866Y-82740952D01*
X187483866Y-82740952D02*
X187483866Y-82931428D01*
X187483866Y-82931428D02*
X187436247Y-83026666D01*
X187436247Y-83026666D02*
X187388628Y-83074285D01*
X187388628Y-83074285D02*
X187293390Y-83121904D01*
%TO.C,R46*%
X149764819Y-81217142D02*
X149288628Y-80883809D01*
X149764819Y-80645714D02*
X148764819Y-80645714D01*
X148764819Y-80645714D02*
X148764819Y-81026666D01*
X148764819Y-81026666D02*
X148812438Y-81121904D01*
X148812438Y-81121904D02*
X148860057Y-81169523D01*
X148860057Y-81169523D02*
X148955295Y-81217142D01*
X148955295Y-81217142D02*
X149098152Y-81217142D01*
X149098152Y-81217142D02*
X149193390Y-81169523D01*
X149193390Y-81169523D02*
X149241009Y-81121904D01*
X149241009Y-81121904D02*
X149288628Y-81026666D01*
X149288628Y-81026666D02*
X149288628Y-80645714D01*
X149098152Y-82074285D02*
X149764819Y-82074285D01*
X148717200Y-81836190D02*
X149431485Y-81598095D01*
X149431485Y-81598095D02*
X149431485Y-82217142D01*
X148764819Y-83026666D02*
X148764819Y-82836190D01*
X148764819Y-82836190D02*
X148812438Y-82740952D01*
X148812438Y-82740952D02*
X148860057Y-82693333D01*
X148860057Y-82693333D02*
X149002914Y-82598095D01*
X149002914Y-82598095D02*
X149193390Y-82550476D01*
X149193390Y-82550476D02*
X149574342Y-82550476D01*
X149574342Y-82550476D02*
X149669580Y-82598095D01*
X149669580Y-82598095D02*
X149717200Y-82645714D01*
X149717200Y-82645714D02*
X149764819Y-82740952D01*
X149764819Y-82740952D02*
X149764819Y-82931428D01*
X149764819Y-82931428D02*
X149717200Y-83026666D01*
X149717200Y-83026666D02*
X149669580Y-83074285D01*
X149669580Y-83074285D02*
X149574342Y-83121904D01*
X149574342Y-83121904D02*
X149336247Y-83121904D01*
X149336247Y-83121904D02*
X149241009Y-83074285D01*
X149241009Y-83074285D02*
X149193390Y-83026666D01*
X149193390Y-83026666D02*
X149145771Y-82931428D01*
X149145771Y-82931428D02*
X149145771Y-82740952D01*
X149145771Y-82740952D02*
X149193390Y-82645714D01*
X149193390Y-82645714D02*
X149241009Y-82598095D01*
X149241009Y-82598095D02*
X149336247Y-82550476D01*
%TO.C,R2*%
X201664819Y-56293333D02*
X201188628Y-55960000D01*
X201664819Y-55721905D02*
X200664819Y-55721905D01*
X200664819Y-55721905D02*
X200664819Y-56102857D01*
X200664819Y-56102857D02*
X200712438Y-56198095D01*
X200712438Y-56198095D02*
X200760057Y-56245714D01*
X200760057Y-56245714D02*
X200855295Y-56293333D01*
X200855295Y-56293333D02*
X200998152Y-56293333D01*
X200998152Y-56293333D02*
X201093390Y-56245714D01*
X201093390Y-56245714D02*
X201141009Y-56198095D01*
X201141009Y-56198095D02*
X201188628Y-56102857D01*
X201188628Y-56102857D02*
X201188628Y-55721905D01*
X200760057Y-56674286D02*
X200712438Y-56721905D01*
X200712438Y-56721905D02*
X200664819Y-56817143D01*
X200664819Y-56817143D02*
X200664819Y-57055238D01*
X200664819Y-57055238D02*
X200712438Y-57150476D01*
X200712438Y-57150476D02*
X200760057Y-57198095D01*
X200760057Y-57198095D02*
X200855295Y-57245714D01*
X200855295Y-57245714D02*
X200950533Y-57245714D01*
X200950533Y-57245714D02*
X201093390Y-57198095D01*
X201093390Y-57198095D02*
X201664819Y-56626667D01*
X201664819Y-56626667D02*
X201664819Y-57245714D01*
%TO.C,R47*%
X143244819Y-56009642D02*
X142768628Y-55676309D01*
X143244819Y-55438214D02*
X142244819Y-55438214D01*
X142244819Y-55438214D02*
X142244819Y-55819166D01*
X142244819Y-55819166D02*
X142292438Y-55914404D01*
X142292438Y-55914404D02*
X142340057Y-55962023D01*
X142340057Y-55962023D02*
X142435295Y-56009642D01*
X142435295Y-56009642D02*
X142578152Y-56009642D01*
X142578152Y-56009642D02*
X142673390Y-55962023D01*
X142673390Y-55962023D02*
X142721009Y-55914404D01*
X142721009Y-55914404D02*
X142768628Y-55819166D01*
X142768628Y-55819166D02*
X142768628Y-55438214D01*
X142578152Y-56866785D02*
X143244819Y-56866785D01*
X142197200Y-56628690D02*
X142911485Y-56390595D01*
X142911485Y-56390595D02*
X142911485Y-57009642D01*
X142244819Y-57295357D02*
X142244819Y-57962023D01*
X142244819Y-57962023D02*
X143244819Y-57533452D01*
%TO.C,R62*%
X139604819Y-81217142D02*
X139128628Y-80883809D01*
X139604819Y-80645714D02*
X138604819Y-80645714D01*
X138604819Y-80645714D02*
X138604819Y-81026666D01*
X138604819Y-81026666D02*
X138652438Y-81121904D01*
X138652438Y-81121904D02*
X138700057Y-81169523D01*
X138700057Y-81169523D02*
X138795295Y-81217142D01*
X138795295Y-81217142D02*
X138938152Y-81217142D01*
X138938152Y-81217142D02*
X139033390Y-81169523D01*
X139033390Y-81169523D02*
X139081009Y-81121904D01*
X139081009Y-81121904D02*
X139128628Y-81026666D01*
X139128628Y-81026666D02*
X139128628Y-80645714D01*
X138604819Y-82074285D02*
X138604819Y-81883809D01*
X138604819Y-81883809D02*
X138652438Y-81788571D01*
X138652438Y-81788571D02*
X138700057Y-81740952D01*
X138700057Y-81740952D02*
X138842914Y-81645714D01*
X138842914Y-81645714D02*
X139033390Y-81598095D01*
X139033390Y-81598095D02*
X139414342Y-81598095D01*
X139414342Y-81598095D02*
X139509580Y-81645714D01*
X139509580Y-81645714D02*
X139557200Y-81693333D01*
X139557200Y-81693333D02*
X139604819Y-81788571D01*
X139604819Y-81788571D02*
X139604819Y-81979047D01*
X139604819Y-81979047D02*
X139557200Y-82074285D01*
X139557200Y-82074285D02*
X139509580Y-82121904D01*
X139509580Y-82121904D02*
X139414342Y-82169523D01*
X139414342Y-82169523D02*
X139176247Y-82169523D01*
X139176247Y-82169523D02*
X139081009Y-82121904D01*
X139081009Y-82121904D02*
X139033390Y-82074285D01*
X139033390Y-82074285D02*
X138985771Y-81979047D01*
X138985771Y-81979047D02*
X138985771Y-81788571D01*
X138985771Y-81788571D02*
X139033390Y-81693333D01*
X139033390Y-81693333D02*
X139081009Y-81645714D01*
X139081009Y-81645714D02*
X139176247Y-81598095D01*
X138700057Y-82550476D02*
X138652438Y-82598095D01*
X138652438Y-82598095D02*
X138604819Y-82693333D01*
X138604819Y-82693333D02*
X138604819Y-82931428D01*
X138604819Y-82931428D02*
X138652438Y-83026666D01*
X138652438Y-83026666D02*
X138700057Y-83074285D01*
X138700057Y-83074285D02*
X138795295Y-83121904D01*
X138795295Y-83121904D02*
X138890533Y-83121904D01*
X138890533Y-83121904D02*
X139033390Y-83074285D01*
X139033390Y-83074285D02*
X139604819Y-82502857D01*
X139604819Y-82502857D02*
X139604819Y-83121904D01*
%TO.C,R54*%
X181344819Y-55817142D02*
X180868628Y-55483809D01*
X181344819Y-55245714D02*
X180344819Y-55245714D01*
X180344819Y-55245714D02*
X180344819Y-55626666D01*
X180344819Y-55626666D02*
X180392438Y-55721904D01*
X180392438Y-55721904D02*
X180440057Y-55769523D01*
X180440057Y-55769523D02*
X180535295Y-55817142D01*
X180535295Y-55817142D02*
X180678152Y-55817142D01*
X180678152Y-55817142D02*
X180773390Y-55769523D01*
X180773390Y-55769523D02*
X180821009Y-55721904D01*
X180821009Y-55721904D02*
X180868628Y-55626666D01*
X180868628Y-55626666D02*
X180868628Y-55245714D01*
X180344819Y-56721904D02*
X180344819Y-56245714D01*
X180344819Y-56245714D02*
X180821009Y-56198095D01*
X180821009Y-56198095D02*
X180773390Y-56245714D01*
X180773390Y-56245714D02*
X180725771Y-56340952D01*
X180725771Y-56340952D02*
X180725771Y-56579047D01*
X180725771Y-56579047D02*
X180773390Y-56674285D01*
X180773390Y-56674285D02*
X180821009Y-56721904D01*
X180821009Y-56721904D02*
X180916247Y-56769523D01*
X180916247Y-56769523D02*
X181154342Y-56769523D01*
X181154342Y-56769523D02*
X181249580Y-56721904D01*
X181249580Y-56721904D02*
X181297200Y-56674285D01*
X181297200Y-56674285D02*
X181344819Y-56579047D01*
X181344819Y-56579047D02*
X181344819Y-56340952D01*
X181344819Y-56340952D02*
X181297200Y-56245714D01*
X181297200Y-56245714D02*
X181249580Y-56198095D01*
X180678152Y-57626666D02*
X181344819Y-57626666D01*
X180297200Y-57388571D02*
X181011485Y-57150476D01*
X181011485Y-57150476D02*
X181011485Y-57769523D01*
%TO.C,R63*%
X157384819Y-81217142D02*
X156908628Y-80883809D01*
X157384819Y-80645714D02*
X156384819Y-80645714D01*
X156384819Y-80645714D02*
X156384819Y-81026666D01*
X156384819Y-81026666D02*
X156432438Y-81121904D01*
X156432438Y-81121904D02*
X156480057Y-81169523D01*
X156480057Y-81169523D02*
X156575295Y-81217142D01*
X156575295Y-81217142D02*
X156718152Y-81217142D01*
X156718152Y-81217142D02*
X156813390Y-81169523D01*
X156813390Y-81169523D02*
X156861009Y-81121904D01*
X156861009Y-81121904D02*
X156908628Y-81026666D01*
X156908628Y-81026666D02*
X156908628Y-80645714D01*
X156384819Y-82074285D02*
X156384819Y-81883809D01*
X156384819Y-81883809D02*
X156432438Y-81788571D01*
X156432438Y-81788571D02*
X156480057Y-81740952D01*
X156480057Y-81740952D02*
X156622914Y-81645714D01*
X156622914Y-81645714D02*
X156813390Y-81598095D01*
X156813390Y-81598095D02*
X157194342Y-81598095D01*
X157194342Y-81598095D02*
X157289580Y-81645714D01*
X157289580Y-81645714D02*
X157337200Y-81693333D01*
X157337200Y-81693333D02*
X157384819Y-81788571D01*
X157384819Y-81788571D02*
X157384819Y-81979047D01*
X157384819Y-81979047D02*
X157337200Y-82074285D01*
X157337200Y-82074285D02*
X157289580Y-82121904D01*
X157289580Y-82121904D02*
X157194342Y-82169523D01*
X157194342Y-82169523D02*
X156956247Y-82169523D01*
X156956247Y-82169523D02*
X156861009Y-82121904D01*
X156861009Y-82121904D02*
X156813390Y-82074285D01*
X156813390Y-82074285D02*
X156765771Y-81979047D01*
X156765771Y-81979047D02*
X156765771Y-81788571D01*
X156765771Y-81788571D02*
X156813390Y-81693333D01*
X156813390Y-81693333D02*
X156861009Y-81645714D01*
X156861009Y-81645714D02*
X156956247Y-81598095D01*
X156384819Y-82502857D02*
X156384819Y-83121904D01*
X156384819Y-83121904D02*
X156765771Y-82788571D01*
X156765771Y-82788571D02*
X156765771Y-82931428D01*
X156765771Y-82931428D02*
X156813390Y-83026666D01*
X156813390Y-83026666D02*
X156861009Y-83074285D01*
X156861009Y-83074285D02*
X156956247Y-83121904D01*
X156956247Y-83121904D02*
X157194342Y-83121904D01*
X157194342Y-83121904D02*
X157289580Y-83074285D01*
X157289580Y-83074285D02*
X157337200Y-83026666D01*
X157337200Y-83026666D02*
X157384819Y-82931428D01*
X157384819Y-82931428D02*
X157384819Y-82645714D01*
X157384819Y-82645714D02*
X157337200Y-82550476D01*
X157337200Y-82550476D02*
X157289580Y-82502857D01*
%TO.C,R44*%
X161024819Y-55817142D02*
X160548628Y-55483809D01*
X161024819Y-55245714D02*
X160024819Y-55245714D01*
X160024819Y-55245714D02*
X160024819Y-55626666D01*
X160024819Y-55626666D02*
X160072438Y-55721904D01*
X160072438Y-55721904D02*
X160120057Y-55769523D01*
X160120057Y-55769523D02*
X160215295Y-55817142D01*
X160215295Y-55817142D02*
X160358152Y-55817142D01*
X160358152Y-55817142D02*
X160453390Y-55769523D01*
X160453390Y-55769523D02*
X160501009Y-55721904D01*
X160501009Y-55721904D02*
X160548628Y-55626666D01*
X160548628Y-55626666D02*
X160548628Y-55245714D01*
X160358152Y-56674285D02*
X161024819Y-56674285D01*
X159977200Y-56436190D02*
X160691485Y-56198095D01*
X160691485Y-56198095D02*
X160691485Y-56817142D01*
X160358152Y-57626666D02*
X161024819Y-57626666D01*
X159977200Y-57388571D02*
X160691485Y-57150476D01*
X160691485Y-57150476D02*
X160691485Y-57769523D01*
%TO.C,R14*%
X171184819Y-55817142D02*
X170708628Y-55483809D01*
X171184819Y-55245714D02*
X170184819Y-55245714D01*
X170184819Y-55245714D02*
X170184819Y-55626666D01*
X170184819Y-55626666D02*
X170232438Y-55721904D01*
X170232438Y-55721904D02*
X170280057Y-55769523D01*
X170280057Y-55769523D02*
X170375295Y-55817142D01*
X170375295Y-55817142D02*
X170518152Y-55817142D01*
X170518152Y-55817142D02*
X170613390Y-55769523D01*
X170613390Y-55769523D02*
X170661009Y-55721904D01*
X170661009Y-55721904D02*
X170708628Y-55626666D01*
X170708628Y-55626666D02*
X170708628Y-55245714D01*
X171184819Y-56769523D02*
X171184819Y-56198095D01*
X171184819Y-56483809D02*
X170184819Y-56483809D01*
X170184819Y-56483809D02*
X170327676Y-56388571D01*
X170327676Y-56388571D02*
X170422914Y-56293333D01*
X170422914Y-56293333D02*
X170470533Y-56198095D01*
X170518152Y-57626666D02*
X171184819Y-57626666D01*
X170137200Y-57388571D02*
X170851485Y-57150476D01*
X170851485Y-57150476D02*
X170851485Y-57769523D01*
%TO.C,R49*%
X147224819Y-81217142D02*
X146748628Y-80883809D01*
X147224819Y-80645714D02*
X146224819Y-80645714D01*
X146224819Y-80645714D02*
X146224819Y-81026666D01*
X146224819Y-81026666D02*
X146272438Y-81121904D01*
X146272438Y-81121904D02*
X146320057Y-81169523D01*
X146320057Y-81169523D02*
X146415295Y-81217142D01*
X146415295Y-81217142D02*
X146558152Y-81217142D01*
X146558152Y-81217142D02*
X146653390Y-81169523D01*
X146653390Y-81169523D02*
X146701009Y-81121904D01*
X146701009Y-81121904D02*
X146748628Y-81026666D01*
X146748628Y-81026666D02*
X146748628Y-80645714D01*
X146558152Y-82074285D02*
X147224819Y-82074285D01*
X146177200Y-81836190D02*
X146891485Y-81598095D01*
X146891485Y-81598095D02*
X146891485Y-82217142D01*
X147224819Y-82645714D02*
X147224819Y-82836190D01*
X147224819Y-82836190D02*
X147177200Y-82931428D01*
X147177200Y-82931428D02*
X147129580Y-82979047D01*
X147129580Y-82979047D02*
X146986723Y-83074285D01*
X146986723Y-83074285D02*
X146796247Y-83121904D01*
X146796247Y-83121904D02*
X146415295Y-83121904D01*
X146415295Y-83121904D02*
X146320057Y-83074285D01*
X146320057Y-83074285D02*
X146272438Y-83026666D01*
X146272438Y-83026666D02*
X146224819Y-82931428D01*
X146224819Y-82931428D02*
X146224819Y-82740952D01*
X146224819Y-82740952D02*
X146272438Y-82645714D01*
X146272438Y-82645714D02*
X146320057Y-82598095D01*
X146320057Y-82598095D02*
X146415295Y-82550476D01*
X146415295Y-82550476D02*
X146653390Y-82550476D01*
X146653390Y-82550476D02*
X146748628Y-82598095D01*
X146748628Y-82598095D02*
X146796247Y-82645714D01*
X146796247Y-82645714D02*
X146843866Y-82740952D01*
X146843866Y-82740952D02*
X146843866Y-82931428D01*
X146843866Y-82931428D02*
X146796247Y-83026666D01*
X146796247Y-83026666D02*
X146748628Y-83074285D01*
X146748628Y-83074285D02*
X146653390Y-83121904D01*
%TO.C,R65*%
X167544819Y-81217142D02*
X167068628Y-80883809D01*
X167544819Y-80645714D02*
X166544819Y-80645714D01*
X166544819Y-80645714D02*
X166544819Y-81026666D01*
X166544819Y-81026666D02*
X166592438Y-81121904D01*
X166592438Y-81121904D02*
X166640057Y-81169523D01*
X166640057Y-81169523D02*
X166735295Y-81217142D01*
X166735295Y-81217142D02*
X166878152Y-81217142D01*
X166878152Y-81217142D02*
X166973390Y-81169523D01*
X166973390Y-81169523D02*
X167021009Y-81121904D01*
X167021009Y-81121904D02*
X167068628Y-81026666D01*
X167068628Y-81026666D02*
X167068628Y-80645714D01*
X166544819Y-82074285D02*
X166544819Y-81883809D01*
X166544819Y-81883809D02*
X166592438Y-81788571D01*
X166592438Y-81788571D02*
X166640057Y-81740952D01*
X166640057Y-81740952D02*
X166782914Y-81645714D01*
X166782914Y-81645714D02*
X166973390Y-81598095D01*
X166973390Y-81598095D02*
X167354342Y-81598095D01*
X167354342Y-81598095D02*
X167449580Y-81645714D01*
X167449580Y-81645714D02*
X167497200Y-81693333D01*
X167497200Y-81693333D02*
X167544819Y-81788571D01*
X167544819Y-81788571D02*
X167544819Y-81979047D01*
X167544819Y-81979047D02*
X167497200Y-82074285D01*
X167497200Y-82074285D02*
X167449580Y-82121904D01*
X167449580Y-82121904D02*
X167354342Y-82169523D01*
X167354342Y-82169523D02*
X167116247Y-82169523D01*
X167116247Y-82169523D02*
X167021009Y-82121904D01*
X167021009Y-82121904D02*
X166973390Y-82074285D01*
X166973390Y-82074285D02*
X166925771Y-81979047D01*
X166925771Y-81979047D02*
X166925771Y-81788571D01*
X166925771Y-81788571D02*
X166973390Y-81693333D01*
X166973390Y-81693333D02*
X167021009Y-81645714D01*
X167021009Y-81645714D02*
X167116247Y-81598095D01*
X166544819Y-83074285D02*
X166544819Y-82598095D01*
X166544819Y-82598095D02*
X167021009Y-82550476D01*
X167021009Y-82550476D02*
X166973390Y-82598095D01*
X166973390Y-82598095D02*
X166925771Y-82693333D01*
X166925771Y-82693333D02*
X166925771Y-82931428D01*
X166925771Y-82931428D02*
X166973390Y-83026666D01*
X166973390Y-83026666D02*
X167021009Y-83074285D01*
X167021009Y-83074285D02*
X167116247Y-83121904D01*
X167116247Y-83121904D02*
X167354342Y-83121904D01*
X167354342Y-83121904D02*
X167449580Y-83074285D01*
X167449580Y-83074285D02*
X167497200Y-83026666D01*
X167497200Y-83026666D02*
X167544819Y-82931428D01*
X167544819Y-82931428D02*
X167544819Y-82693333D01*
X167544819Y-82693333D02*
X167497200Y-82598095D01*
X167497200Y-82598095D02*
X167449580Y-82550476D01*
%TO.C,R66*%
X159924819Y-81217142D02*
X159448628Y-80883809D01*
X159924819Y-80645714D02*
X158924819Y-80645714D01*
X158924819Y-80645714D02*
X158924819Y-81026666D01*
X158924819Y-81026666D02*
X158972438Y-81121904D01*
X158972438Y-81121904D02*
X159020057Y-81169523D01*
X159020057Y-81169523D02*
X159115295Y-81217142D01*
X159115295Y-81217142D02*
X159258152Y-81217142D01*
X159258152Y-81217142D02*
X159353390Y-81169523D01*
X159353390Y-81169523D02*
X159401009Y-81121904D01*
X159401009Y-81121904D02*
X159448628Y-81026666D01*
X159448628Y-81026666D02*
X159448628Y-80645714D01*
X158924819Y-82074285D02*
X158924819Y-81883809D01*
X158924819Y-81883809D02*
X158972438Y-81788571D01*
X158972438Y-81788571D02*
X159020057Y-81740952D01*
X159020057Y-81740952D02*
X159162914Y-81645714D01*
X159162914Y-81645714D02*
X159353390Y-81598095D01*
X159353390Y-81598095D02*
X159734342Y-81598095D01*
X159734342Y-81598095D02*
X159829580Y-81645714D01*
X159829580Y-81645714D02*
X159877200Y-81693333D01*
X159877200Y-81693333D02*
X159924819Y-81788571D01*
X159924819Y-81788571D02*
X159924819Y-81979047D01*
X159924819Y-81979047D02*
X159877200Y-82074285D01*
X159877200Y-82074285D02*
X159829580Y-82121904D01*
X159829580Y-82121904D02*
X159734342Y-82169523D01*
X159734342Y-82169523D02*
X159496247Y-82169523D01*
X159496247Y-82169523D02*
X159401009Y-82121904D01*
X159401009Y-82121904D02*
X159353390Y-82074285D01*
X159353390Y-82074285D02*
X159305771Y-81979047D01*
X159305771Y-81979047D02*
X159305771Y-81788571D01*
X159305771Y-81788571D02*
X159353390Y-81693333D01*
X159353390Y-81693333D02*
X159401009Y-81645714D01*
X159401009Y-81645714D02*
X159496247Y-81598095D01*
X158924819Y-83026666D02*
X158924819Y-82836190D01*
X158924819Y-82836190D02*
X158972438Y-82740952D01*
X158972438Y-82740952D02*
X159020057Y-82693333D01*
X159020057Y-82693333D02*
X159162914Y-82598095D01*
X159162914Y-82598095D02*
X159353390Y-82550476D01*
X159353390Y-82550476D02*
X159734342Y-82550476D01*
X159734342Y-82550476D02*
X159829580Y-82598095D01*
X159829580Y-82598095D02*
X159877200Y-82645714D01*
X159877200Y-82645714D02*
X159924819Y-82740952D01*
X159924819Y-82740952D02*
X159924819Y-82931428D01*
X159924819Y-82931428D02*
X159877200Y-83026666D01*
X159877200Y-83026666D02*
X159829580Y-83074285D01*
X159829580Y-83074285D02*
X159734342Y-83121904D01*
X159734342Y-83121904D02*
X159496247Y-83121904D01*
X159496247Y-83121904D02*
X159401009Y-83074285D01*
X159401009Y-83074285D02*
X159353390Y-83026666D01*
X159353390Y-83026666D02*
X159305771Y-82931428D01*
X159305771Y-82931428D02*
X159305771Y-82740952D01*
X159305771Y-82740952D02*
X159353390Y-82645714D01*
X159353390Y-82645714D02*
X159401009Y-82598095D01*
X159401009Y-82598095D02*
X159496247Y-82550476D01*
%TO.C,R5*%
X183884819Y-56293333D02*
X183408628Y-55960000D01*
X183884819Y-55721905D02*
X182884819Y-55721905D01*
X182884819Y-55721905D02*
X182884819Y-56102857D01*
X182884819Y-56102857D02*
X182932438Y-56198095D01*
X182932438Y-56198095D02*
X182980057Y-56245714D01*
X182980057Y-56245714D02*
X183075295Y-56293333D01*
X183075295Y-56293333D02*
X183218152Y-56293333D01*
X183218152Y-56293333D02*
X183313390Y-56245714D01*
X183313390Y-56245714D02*
X183361009Y-56198095D01*
X183361009Y-56198095D02*
X183408628Y-56102857D01*
X183408628Y-56102857D02*
X183408628Y-55721905D01*
X182884819Y-57198095D02*
X182884819Y-56721905D01*
X182884819Y-56721905D02*
X183361009Y-56674286D01*
X183361009Y-56674286D02*
X183313390Y-56721905D01*
X183313390Y-56721905D02*
X183265771Y-56817143D01*
X183265771Y-56817143D02*
X183265771Y-57055238D01*
X183265771Y-57055238D02*
X183313390Y-57150476D01*
X183313390Y-57150476D02*
X183361009Y-57198095D01*
X183361009Y-57198095D02*
X183456247Y-57245714D01*
X183456247Y-57245714D02*
X183694342Y-57245714D01*
X183694342Y-57245714D02*
X183789580Y-57198095D01*
X183789580Y-57198095D02*
X183837200Y-57150476D01*
X183837200Y-57150476D02*
X183884819Y-57055238D01*
X183884819Y-57055238D02*
X183884819Y-56817143D01*
X183884819Y-56817143D02*
X183837200Y-56721905D01*
X183837200Y-56721905D02*
X183789580Y-56674286D01*
%TO.C,R9*%
X173724819Y-56293333D02*
X173248628Y-55960000D01*
X173724819Y-55721905D02*
X172724819Y-55721905D01*
X172724819Y-55721905D02*
X172724819Y-56102857D01*
X172724819Y-56102857D02*
X172772438Y-56198095D01*
X172772438Y-56198095D02*
X172820057Y-56245714D01*
X172820057Y-56245714D02*
X172915295Y-56293333D01*
X172915295Y-56293333D02*
X173058152Y-56293333D01*
X173058152Y-56293333D02*
X173153390Y-56245714D01*
X173153390Y-56245714D02*
X173201009Y-56198095D01*
X173201009Y-56198095D02*
X173248628Y-56102857D01*
X173248628Y-56102857D02*
X173248628Y-55721905D01*
X173724819Y-56769524D02*
X173724819Y-56960000D01*
X173724819Y-56960000D02*
X173677200Y-57055238D01*
X173677200Y-57055238D02*
X173629580Y-57102857D01*
X173629580Y-57102857D02*
X173486723Y-57198095D01*
X173486723Y-57198095D02*
X173296247Y-57245714D01*
X173296247Y-57245714D02*
X172915295Y-57245714D01*
X172915295Y-57245714D02*
X172820057Y-57198095D01*
X172820057Y-57198095D02*
X172772438Y-57150476D01*
X172772438Y-57150476D02*
X172724819Y-57055238D01*
X172724819Y-57055238D02*
X172724819Y-56864762D01*
X172724819Y-56864762D02*
X172772438Y-56769524D01*
X172772438Y-56769524D02*
X172820057Y-56721905D01*
X172820057Y-56721905D02*
X172915295Y-56674286D01*
X172915295Y-56674286D02*
X173153390Y-56674286D01*
X173153390Y-56674286D02*
X173248628Y-56721905D01*
X173248628Y-56721905D02*
X173296247Y-56769524D01*
X173296247Y-56769524D02*
X173343866Y-56864762D01*
X173343866Y-56864762D02*
X173343866Y-57055238D01*
X173343866Y-57055238D02*
X173296247Y-57150476D01*
X173296247Y-57150476D02*
X173248628Y-57198095D01*
X173248628Y-57198095D02*
X173153390Y-57245714D01*
%TO.C,R67*%
X177704819Y-81217142D02*
X177228628Y-80883809D01*
X177704819Y-80645714D02*
X176704819Y-80645714D01*
X176704819Y-80645714D02*
X176704819Y-81026666D01*
X176704819Y-81026666D02*
X176752438Y-81121904D01*
X176752438Y-81121904D02*
X176800057Y-81169523D01*
X176800057Y-81169523D02*
X176895295Y-81217142D01*
X176895295Y-81217142D02*
X177038152Y-81217142D01*
X177038152Y-81217142D02*
X177133390Y-81169523D01*
X177133390Y-81169523D02*
X177181009Y-81121904D01*
X177181009Y-81121904D02*
X177228628Y-81026666D01*
X177228628Y-81026666D02*
X177228628Y-80645714D01*
X176704819Y-82074285D02*
X176704819Y-81883809D01*
X176704819Y-81883809D02*
X176752438Y-81788571D01*
X176752438Y-81788571D02*
X176800057Y-81740952D01*
X176800057Y-81740952D02*
X176942914Y-81645714D01*
X176942914Y-81645714D02*
X177133390Y-81598095D01*
X177133390Y-81598095D02*
X177514342Y-81598095D01*
X177514342Y-81598095D02*
X177609580Y-81645714D01*
X177609580Y-81645714D02*
X177657200Y-81693333D01*
X177657200Y-81693333D02*
X177704819Y-81788571D01*
X177704819Y-81788571D02*
X177704819Y-81979047D01*
X177704819Y-81979047D02*
X177657200Y-82074285D01*
X177657200Y-82074285D02*
X177609580Y-82121904D01*
X177609580Y-82121904D02*
X177514342Y-82169523D01*
X177514342Y-82169523D02*
X177276247Y-82169523D01*
X177276247Y-82169523D02*
X177181009Y-82121904D01*
X177181009Y-82121904D02*
X177133390Y-82074285D01*
X177133390Y-82074285D02*
X177085771Y-81979047D01*
X177085771Y-81979047D02*
X177085771Y-81788571D01*
X177085771Y-81788571D02*
X177133390Y-81693333D01*
X177133390Y-81693333D02*
X177181009Y-81645714D01*
X177181009Y-81645714D02*
X177276247Y-81598095D01*
X176704819Y-82502857D02*
X176704819Y-83169523D01*
X176704819Y-83169523D02*
X177704819Y-82740952D01*
D11*
%TO.C,R70*%
X182520000Y-81132936D02*
X182520000Y-82587064D01*
X180700000Y-81132936D02*
X180700000Y-82587064D01*
%TO.C,R55*%
X160380000Y-57187064D02*
X160380000Y-55732936D01*
X162200000Y-57187064D02*
X162200000Y-55732936D01*
%TO.C,R12*%
X172360000Y-81132936D02*
X172360000Y-82587064D01*
X170540000Y-81132936D02*
X170540000Y-82587064D01*
%TO.C,R3*%
X200300000Y-81132936D02*
X200300000Y-82587064D01*
X198480000Y-81132936D02*
X198480000Y-82587064D01*
%TO.C,R6*%
X188320000Y-57187064D02*
X188320000Y-55732936D01*
X190140000Y-57187064D02*
X190140000Y-55732936D01*
%TO.C,R60*%
X147680000Y-57187064D02*
X147680000Y-55732936D01*
X149500000Y-57187064D02*
X149500000Y-55732936D01*
%TO.C,R57*%
X150220000Y-57187064D02*
X150220000Y-55732936D01*
X152040000Y-57187064D02*
X152040000Y-55732936D01*
%TO.C,R39*%
X190860000Y-57187064D02*
X190860000Y-55732936D01*
X192680000Y-57187064D02*
X192680000Y-55732936D01*
%TO.C,R72*%
X192680000Y-81132936D02*
X192680000Y-82587064D01*
X190860000Y-81132936D02*
X190860000Y-82587064D01*
%TO.C,R69*%
X190140000Y-81132936D02*
X190140000Y-82587064D01*
X188320000Y-81132936D02*
X188320000Y-82587064D01*
%TO.C,R46*%
X152040000Y-81132936D02*
X152040000Y-82587064D01*
X150220000Y-81132936D02*
X150220000Y-82587064D01*
%TO.C,R2*%
X198480000Y-57187064D02*
X198480000Y-55732936D01*
X200300000Y-57187064D02*
X200300000Y-55732936D01*
%TO.C,R47*%
X140060000Y-57379564D02*
X140060000Y-55925436D01*
X141880000Y-57379564D02*
X141880000Y-55925436D01*
%TO.C,R62*%
X141880000Y-81132936D02*
X141880000Y-82587064D01*
X140060000Y-81132936D02*
X140060000Y-82587064D01*
%TO.C,R54*%
X178160000Y-57187064D02*
X178160000Y-55732936D01*
X179980000Y-57187064D02*
X179980000Y-55732936D01*
%TO.C,R63*%
X159660000Y-81132936D02*
X159660000Y-82587064D01*
X157840000Y-81132936D02*
X157840000Y-82587064D01*
%TO.C,R44*%
X157840000Y-57187064D02*
X157840000Y-55732936D01*
X159660000Y-57187064D02*
X159660000Y-55732936D01*
%TO.C,R14*%
X168000000Y-57187064D02*
X168000000Y-55732936D01*
X169820000Y-57187064D02*
X169820000Y-55732936D01*
%TO.C,R49*%
X149500000Y-81132936D02*
X149500000Y-82587064D01*
X147680000Y-81132936D02*
X147680000Y-82587064D01*
%TO.C,R65*%
X169820000Y-81132936D02*
X169820000Y-82587064D01*
X168000000Y-81132936D02*
X168000000Y-82587064D01*
%TO.C,R66*%
X162200000Y-81132936D02*
X162200000Y-82587064D01*
X160380000Y-81132936D02*
X160380000Y-82587064D01*
%TO.C,R5*%
X180700000Y-57187064D02*
X180700000Y-55732936D01*
X182520000Y-57187064D02*
X182520000Y-55732936D01*
%TO.C,R9*%
X170540000Y-57187064D02*
X170540000Y-55732936D01*
X172360000Y-57187064D02*
X172360000Y-55732936D01*
%TO.C,R67*%
X179980000Y-81132936D02*
X179980000Y-82587064D01*
X178160000Y-81132936D02*
X178160000Y-82587064D01*
%TD*%
M02*
