%TF.GenerationSoftware,KiCad,Pcbnew,7.0.5*%
%TF.CreationDate,2024-09-25T18:26:52-04:00*%
%TF.ProjectId,stepper_motor_controller_3_for_cnc,73746570-7065-4725-9f6d-6f746f725f63,rev?*%
%TF.SameCoordinates,Original*%
%TF.FileFunction,Legend,Top*%
%TF.FilePolarity,Positive*%
%FSLAX46Y46*%
G04 Gerber Fmt 4.6, Leading zero omitted, Abs format (unit mm)*
G04 Created by KiCad (PCBNEW 7.0.5) date 2024-09-25 18:26:52*
%MOMM*%
%LPD*%
G01*
G04 APERTURE LIST*
%ADD10C,0.150000*%
%ADD11C,0.120000*%
%ADD12C,0.127000*%
G04 APERTURE END LIST*
D10*
%TO.C,R37*%
X210177142Y-56264819D02*
X209843809Y-55788628D01*
X209605714Y-56264819D02*
X209605714Y-55264819D01*
X209605714Y-55264819D02*
X209986666Y-55264819D01*
X209986666Y-55264819D02*
X210081904Y-55312438D01*
X210081904Y-55312438D02*
X210129523Y-55360057D01*
X210129523Y-55360057D02*
X210177142Y-55455295D01*
X210177142Y-55455295D02*
X210177142Y-55598152D01*
X210177142Y-55598152D02*
X210129523Y-55693390D01*
X210129523Y-55693390D02*
X210081904Y-55741009D01*
X210081904Y-55741009D02*
X209986666Y-55788628D01*
X209986666Y-55788628D02*
X209605714Y-55788628D01*
X210510476Y-55264819D02*
X211129523Y-55264819D01*
X211129523Y-55264819D02*
X210796190Y-55645771D01*
X210796190Y-55645771D02*
X210939047Y-55645771D01*
X210939047Y-55645771D02*
X211034285Y-55693390D01*
X211034285Y-55693390D02*
X211081904Y-55741009D01*
X211081904Y-55741009D02*
X211129523Y-55836247D01*
X211129523Y-55836247D02*
X211129523Y-56074342D01*
X211129523Y-56074342D02*
X211081904Y-56169580D01*
X211081904Y-56169580D02*
X211034285Y-56217200D01*
X211034285Y-56217200D02*
X210939047Y-56264819D01*
X210939047Y-56264819D02*
X210653333Y-56264819D01*
X210653333Y-56264819D02*
X210558095Y-56217200D01*
X210558095Y-56217200D02*
X210510476Y-56169580D01*
X211462857Y-55264819D02*
X212129523Y-55264819D01*
X212129523Y-55264819D02*
X211700952Y-56264819D01*
%TO.C,J2*%
X238284065Y-69422467D02*
X238846495Y-69422467D01*
X238846495Y-69422467D02*
X238958981Y-69459962D01*
X238958981Y-69459962D02*
X239033972Y-69534953D01*
X239033972Y-69534953D02*
X239071467Y-69647439D01*
X239071467Y-69647439D02*
X239071467Y-69722430D01*
X238359056Y-69085009D02*
X238321560Y-69047514D01*
X238321560Y-69047514D02*
X238284065Y-68972523D01*
X238284065Y-68972523D02*
X238284065Y-68785047D01*
X238284065Y-68785047D02*
X238321560Y-68710056D01*
X238321560Y-68710056D02*
X238359056Y-68672561D01*
X238359056Y-68672561D02*
X238434046Y-68635065D01*
X238434046Y-68635065D02*
X238509037Y-68635065D01*
X238509037Y-68635065D02*
X238621523Y-68672561D01*
X238621523Y-68672561D02*
X239071467Y-69122505D01*
X239071467Y-69122505D02*
X239071467Y-68635065D01*
%TO.C,U24*%
X191004819Y-65328094D02*
X191814342Y-65328094D01*
X191814342Y-65328094D02*
X191909580Y-65280475D01*
X191909580Y-65280475D02*
X191957200Y-65232856D01*
X191957200Y-65232856D02*
X192004819Y-65137618D01*
X192004819Y-65137618D02*
X192004819Y-64947142D01*
X192004819Y-64947142D02*
X191957200Y-64851904D01*
X191957200Y-64851904D02*
X191909580Y-64804285D01*
X191909580Y-64804285D02*
X191814342Y-64756666D01*
X191814342Y-64756666D02*
X191004819Y-64756666D01*
X191100057Y-64328094D02*
X191052438Y-64280475D01*
X191052438Y-64280475D02*
X191004819Y-64185237D01*
X191004819Y-64185237D02*
X191004819Y-63947142D01*
X191004819Y-63947142D02*
X191052438Y-63851904D01*
X191052438Y-63851904D02*
X191100057Y-63804285D01*
X191100057Y-63804285D02*
X191195295Y-63756666D01*
X191195295Y-63756666D02*
X191290533Y-63756666D01*
X191290533Y-63756666D02*
X191433390Y-63804285D01*
X191433390Y-63804285D02*
X192004819Y-64375713D01*
X192004819Y-64375713D02*
X192004819Y-63756666D01*
X191338152Y-62899523D02*
X192004819Y-62899523D01*
X190957200Y-63137618D02*
X191671485Y-63375713D01*
X191671485Y-63375713D02*
X191671485Y-62756666D01*
%TO.C,U27*%
X188904819Y-75468094D02*
X189714342Y-75468094D01*
X189714342Y-75468094D02*
X189809580Y-75420475D01*
X189809580Y-75420475D02*
X189857200Y-75372856D01*
X189857200Y-75372856D02*
X189904819Y-75277618D01*
X189904819Y-75277618D02*
X189904819Y-75087142D01*
X189904819Y-75087142D02*
X189857200Y-74991904D01*
X189857200Y-74991904D02*
X189809580Y-74944285D01*
X189809580Y-74944285D02*
X189714342Y-74896666D01*
X189714342Y-74896666D02*
X188904819Y-74896666D01*
X189000057Y-74468094D02*
X188952438Y-74420475D01*
X188952438Y-74420475D02*
X188904819Y-74325237D01*
X188904819Y-74325237D02*
X188904819Y-74087142D01*
X188904819Y-74087142D02*
X188952438Y-73991904D01*
X188952438Y-73991904D02*
X189000057Y-73944285D01*
X189000057Y-73944285D02*
X189095295Y-73896666D01*
X189095295Y-73896666D02*
X189190533Y-73896666D01*
X189190533Y-73896666D02*
X189333390Y-73944285D01*
X189333390Y-73944285D02*
X189904819Y-74515713D01*
X189904819Y-74515713D02*
X189904819Y-73896666D01*
X188904819Y-73563332D02*
X188904819Y-72896666D01*
X188904819Y-72896666D02*
X189904819Y-73325237D01*
%TO.C,U26*%
X201164819Y-65328094D02*
X201974342Y-65328094D01*
X201974342Y-65328094D02*
X202069580Y-65280475D01*
X202069580Y-65280475D02*
X202117200Y-65232856D01*
X202117200Y-65232856D02*
X202164819Y-65137618D01*
X202164819Y-65137618D02*
X202164819Y-64947142D01*
X202164819Y-64947142D02*
X202117200Y-64851904D01*
X202117200Y-64851904D02*
X202069580Y-64804285D01*
X202069580Y-64804285D02*
X201974342Y-64756666D01*
X201974342Y-64756666D02*
X201164819Y-64756666D01*
X201260057Y-64328094D02*
X201212438Y-64280475D01*
X201212438Y-64280475D02*
X201164819Y-64185237D01*
X201164819Y-64185237D02*
X201164819Y-63947142D01*
X201164819Y-63947142D02*
X201212438Y-63851904D01*
X201212438Y-63851904D02*
X201260057Y-63804285D01*
X201260057Y-63804285D02*
X201355295Y-63756666D01*
X201355295Y-63756666D02*
X201450533Y-63756666D01*
X201450533Y-63756666D02*
X201593390Y-63804285D01*
X201593390Y-63804285D02*
X202164819Y-64375713D01*
X202164819Y-64375713D02*
X202164819Y-63756666D01*
X201164819Y-62899523D02*
X201164819Y-63089999D01*
X201164819Y-63089999D02*
X201212438Y-63185237D01*
X201212438Y-63185237D02*
X201260057Y-63232856D01*
X201260057Y-63232856D02*
X201402914Y-63328094D01*
X201402914Y-63328094D02*
X201593390Y-63375713D01*
X201593390Y-63375713D02*
X201974342Y-63375713D01*
X201974342Y-63375713D02*
X202069580Y-63328094D01*
X202069580Y-63328094D02*
X202117200Y-63280475D01*
X202117200Y-63280475D02*
X202164819Y-63185237D01*
X202164819Y-63185237D02*
X202164819Y-62994761D01*
X202164819Y-62994761D02*
X202117200Y-62899523D01*
X202117200Y-62899523D02*
X202069580Y-62851904D01*
X202069580Y-62851904D02*
X201974342Y-62804285D01*
X201974342Y-62804285D02*
X201736247Y-62804285D01*
X201736247Y-62804285D02*
X201641009Y-62851904D01*
X201641009Y-62851904D02*
X201593390Y-62899523D01*
X201593390Y-62899523D02*
X201545771Y-62994761D01*
X201545771Y-62994761D02*
X201545771Y-63185237D01*
X201545771Y-63185237D02*
X201593390Y-63280475D01*
X201593390Y-63280475D02*
X201641009Y-63328094D01*
X201641009Y-63328094D02*
X201736247Y-63375713D01*
%TO.C,R38*%
X210177142Y-57564819D02*
X209843809Y-57088628D01*
X209605714Y-57564819D02*
X209605714Y-56564819D01*
X209605714Y-56564819D02*
X209986666Y-56564819D01*
X209986666Y-56564819D02*
X210081904Y-56612438D01*
X210081904Y-56612438D02*
X210129523Y-56660057D01*
X210129523Y-56660057D02*
X210177142Y-56755295D01*
X210177142Y-56755295D02*
X210177142Y-56898152D01*
X210177142Y-56898152D02*
X210129523Y-56993390D01*
X210129523Y-56993390D02*
X210081904Y-57041009D01*
X210081904Y-57041009D02*
X209986666Y-57088628D01*
X209986666Y-57088628D02*
X209605714Y-57088628D01*
X210510476Y-56564819D02*
X211129523Y-56564819D01*
X211129523Y-56564819D02*
X210796190Y-56945771D01*
X210796190Y-56945771D02*
X210939047Y-56945771D01*
X210939047Y-56945771D02*
X211034285Y-56993390D01*
X211034285Y-56993390D02*
X211081904Y-57041009D01*
X211081904Y-57041009D02*
X211129523Y-57136247D01*
X211129523Y-57136247D02*
X211129523Y-57374342D01*
X211129523Y-57374342D02*
X211081904Y-57469580D01*
X211081904Y-57469580D02*
X211034285Y-57517200D01*
X211034285Y-57517200D02*
X210939047Y-57564819D01*
X210939047Y-57564819D02*
X210653333Y-57564819D01*
X210653333Y-57564819D02*
X210558095Y-57517200D01*
X210558095Y-57517200D02*
X210510476Y-57469580D01*
X211700952Y-56993390D02*
X211605714Y-56945771D01*
X211605714Y-56945771D02*
X211558095Y-56898152D01*
X211558095Y-56898152D02*
X211510476Y-56802914D01*
X211510476Y-56802914D02*
X211510476Y-56755295D01*
X211510476Y-56755295D02*
X211558095Y-56660057D01*
X211558095Y-56660057D02*
X211605714Y-56612438D01*
X211605714Y-56612438D02*
X211700952Y-56564819D01*
X211700952Y-56564819D02*
X211891428Y-56564819D01*
X211891428Y-56564819D02*
X211986666Y-56612438D01*
X211986666Y-56612438D02*
X212034285Y-56660057D01*
X212034285Y-56660057D02*
X212081904Y-56755295D01*
X212081904Y-56755295D02*
X212081904Y-56802914D01*
X212081904Y-56802914D02*
X212034285Y-56898152D01*
X212034285Y-56898152D02*
X211986666Y-56945771D01*
X211986666Y-56945771D02*
X211891428Y-56993390D01*
X211891428Y-56993390D02*
X211700952Y-56993390D01*
X211700952Y-56993390D02*
X211605714Y-57041009D01*
X211605714Y-57041009D02*
X211558095Y-57088628D01*
X211558095Y-57088628D02*
X211510476Y-57183866D01*
X211510476Y-57183866D02*
X211510476Y-57374342D01*
X211510476Y-57374342D02*
X211558095Y-57469580D01*
X211558095Y-57469580D02*
X211605714Y-57517200D01*
X211605714Y-57517200D02*
X211700952Y-57564819D01*
X211700952Y-57564819D02*
X211891428Y-57564819D01*
X211891428Y-57564819D02*
X211986666Y-57517200D01*
X211986666Y-57517200D02*
X212034285Y-57469580D01*
X212034285Y-57469580D02*
X212081904Y-57374342D01*
X212081904Y-57374342D02*
X212081904Y-57183866D01*
X212081904Y-57183866D02*
X212034285Y-57088628D01*
X212034285Y-57088628D02*
X211986666Y-57041009D01*
X211986666Y-57041009D02*
X211891428Y-56993390D01*
%TO.C,U10*%
X168584819Y-75468094D02*
X169394342Y-75468094D01*
X169394342Y-75468094D02*
X169489580Y-75420475D01*
X169489580Y-75420475D02*
X169537200Y-75372856D01*
X169537200Y-75372856D02*
X169584819Y-75277618D01*
X169584819Y-75277618D02*
X169584819Y-75087142D01*
X169584819Y-75087142D02*
X169537200Y-74991904D01*
X169537200Y-74991904D02*
X169489580Y-74944285D01*
X169489580Y-74944285D02*
X169394342Y-74896666D01*
X169394342Y-74896666D02*
X168584819Y-74896666D01*
X169584819Y-73896666D02*
X169584819Y-74468094D01*
X169584819Y-74182380D02*
X168584819Y-74182380D01*
X168584819Y-74182380D02*
X168727676Y-74277618D01*
X168727676Y-74277618D02*
X168822914Y-74372856D01*
X168822914Y-74372856D02*
X168870533Y-74468094D01*
X168584819Y-73277618D02*
X168584819Y-73182380D01*
X168584819Y-73182380D02*
X168632438Y-73087142D01*
X168632438Y-73087142D02*
X168680057Y-73039523D01*
X168680057Y-73039523D02*
X168775295Y-72991904D01*
X168775295Y-72991904D02*
X168965771Y-72944285D01*
X168965771Y-72944285D02*
X169203866Y-72944285D01*
X169203866Y-72944285D02*
X169394342Y-72991904D01*
X169394342Y-72991904D02*
X169489580Y-73039523D01*
X169489580Y-73039523D02*
X169537200Y-73087142D01*
X169537200Y-73087142D02*
X169584819Y-73182380D01*
X169584819Y-73182380D02*
X169584819Y-73277618D01*
X169584819Y-73277618D02*
X169537200Y-73372856D01*
X169537200Y-73372856D02*
X169489580Y-73420475D01*
X169489580Y-73420475D02*
X169394342Y-73468094D01*
X169394342Y-73468094D02*
X169203866Y-73515713D01*
X169203866Y-73515713D02*
X168965771Y-73515713D01*
X168965771Y-73515713D02*
X168775295Y-73468094D01*
X168775295Y-73468094D02*
X168680057Y-73420475D01*
X168680057Y-73420475D02*
X168632438Y-73372856D01*
X168632438Y-73372856D02*
X168584819Y-73277618D01*
%TO.C,U1*%
X211328095Y-58664819D02*
X211328095Y-59474342D01*
X211328095Y-59474342D02*
X211375714Y-59569580D01*
X211375714Y-59569580D02*
X211423333Y-59617200D01*
X211423333Y-59617200D02*
X211518571Y-59664819D01*
X211518571Y-59664819D02*
X211709047Y-59664819D01*
X211709047Y-59664819D02*
X211804285Y-59617200D01*
X211804285Y-59617200D02*
X211851904Y-59569580D01*
X211851904Y-59569580D02*
X211899523Y-59474342D01*
X211899523Y-59474342D02*
X211899523Y-58664819D01*
X212899523Y-59664819D02*
X212328095Y-59664819D01*
X212613809Y-59664819D02*
X212613809Y-58664819D01*
X212613809Y-58664819D02*
X212518571Y-58807676D01*
X212518571Y-58807676D02*
X212423333Y-58902914D01*
X212423333Y-58902914D02*
X212328095Y-58950533D01*
%TO.C,U8*%
X158414819Y-75001904D02*
X159224342Y-75001904D01*
X159224342Y-75001904D02*
X159319580Y-74954285D01*
X159319580Y-74954285D02*
X159367200Y-74906666D01*
X159367200Y-74906666D02*
X159414819Y-74811428D01*
X159414819Y-74811428D02*
X159414819Y-74620952D01*
X159414819Y-74620952D02*
X159367200Y-74525714D01*
X159367200Y-74525714D02*
X159319580Y-74478095D01*
X159319580Y-74478095D02*
X159224342Y-74430476D01*
X159224342Y-74430476D02*
X158414819Y-74430476D01*
X158843390Y-73811428D02*
X158795771Y-73906666D01*
X158795771Y-73906666D02*
X158748152Y-73954285D01*
X158748152Y-73954285D02*
X158652914Y-74001904D01*
X158652914Y-74001904D02*
X158605295Y-74001904D01*
X158605295Y-74001904D02*
X158510057Y-73954285D01*
X158510057Y-73954285D02*
X158462438Y-73906666D01*
X158462438Y-73906666D02*
X158414819Y-73811428D01*
X158414819Y-73811428D02*
X158414819Y-73620952D01*
X158414819Y-73620952D02*
X158462438Y-73525714D01*
X158462438Y-73525714D02*
X158510057Y-73478095D01*
X158510057Y-73478095D02*
X158605295Y-73430476D01*
X158605295Y-73430476D02*
X158652914Y-73430476D01*
X158652914Y-73430476D02*
X158748152Y-73478095D01*
X158748152Y-73478095D02*
X158795771Y-73525714D01*
X158795771Y-73525714D02*
X158843390Y-73620952D01*
X158843390Y-73620952D02*
X158843390Y-73811428D01*
X158843390Y-73811428D02*
X158891009Y-73906666D01*
X158891009Y-73906666D02*
X158938628Y-73954285D01*
X158938628Y-73954285D02*
X159033866Y-74001904D01*
X159033866Y-74001904D02*
X159224342Y-74001904D01*
X159224342Y-74001904D02*
X159319580Y-73954285D01*
X159319580Y-73954285D02*
X159367200Y-73906666D01*
X159367200Y-73906666D02*
X159414819Y-73811428D01*
X159414819Y-73811428D02*
X159414819Y-73620952D01*
X159414819Y-73620952D02*
X159367200Y-73525714D01*
X159367200Y-73525714D02*
X159319580Y-73478095D01*
X159319580Y-73478095D02*
X159224342Y-73430476D01*
X159224342Y-73430476D02*
X159033866Y-73430476D01*
X159033866Y-73430476D02*
X158938628Y-73478095D01*
X158938628Y-73478095D02*
X158891009Y-73525714D01*
X158891009Y-73525714D02*
X158843390Y-73620952D01*
%TO.C,U5*%
X160514819Y-64851904D02*
X161324342Y-64851904D01*
X161324342Y-64851904D02*
X161419580Y-64804285D01*
X161419580Y-64804285D02*
X161467200Y-64756666D01*
X161467200Y-64756666D02*
X161514819Y-64661428D01*
X161514819Y-64661428D02*
X161514819Y-64470952D01*
X161514819Y-64470952D02*
X161467200Y-64375714D01*
X161467200Y-64375714D02*
X161419580Y-64328095D01*
X161419580Y-64328095D02*
X161324342Y-64280476D01*
X161324342Y-64280476D02*
X160514819Y-64280476D01*
X160514819Y-63328095D02*
X160514819Y-63804285D01*
X160514819Y-63804285D02*
X160991009Y-63851904D01*
X160991009Y-63851904D02*
X160943390Y-63804285D01*
X160943390Y-63804285D02*
X160895771Y-63709047D01*
X160895771Y-63709047D02*
X160895771Y-63470952D01*
X160895771Y-63470952D02*
X160943390Y-63375714D01*
X160943390Y-63375714D02*
X160991009Y-63328095D01*
X160991009Y-63328095D02*
X161086247Y-63280476D01*
X161086247Y-63280476D02*
X161324342Y-63280476D01*
X161324342Y-63280476D02*
X161419580Y-63328095D01*
X161419580Y-63328095D02*
X161467200Y-63375714D01*
X161467200Y-63375714D02*
X161514819Y-63470952D01*
X161514819Y-63470952D02*
X161514819Y-63709047D01*
X161514819Y-63709047D02*
X161467200Y-63804285D01*
X161467200Y-63804285D02*
X161419580Y-63851904D01*
%TO.C,U7*%
X170674819Y-64851904D02*
X171484342Y-64851904D01*
X171484342Y-64851904D02*
X171579580Y-64804285D01*
X171579580Y-64804285D02*
X171627200Y-64756666D01*
X171627200Y-64756666D02*
X171674819Y-64661428D01*
X171674819Y-64661428D02*
X171674819Y-64470952D01*
X171674819Y-64470952D02*
X171627200Y-64375714D01*
X171627200Y-64375714D02*
X171579580Y-64328095D01*
X171579580Y-64328095D02*
X171484342Y-64280476D01*
X171484342Y-64280476D02*
X170674819Y-64280476D01*
X170674819Y-63899523D02*
X170674819Y-63232857D01*
X170674819Y-63232857D02*
X171674819Y-63661428D01*
%TO.C,U6*%
X148264819Y-74991904D02*
X149074342Y-74991904D01*
X149074342Y-74991904D02*
X149169580Y-74944285D01*
X149169580Y-74944285D02*
X149217200Y-74896666D01*
X149217200Y-74896666D02*
X149264819Y-74801428D01*
X149264819Y-74801428D02*
X149264819Y-74610952D01*
X149264819Y-74610952D02*
X149217200Y-74515714D01*
X149217200Y-74515714D02*
X149169580Y-74468095D01*
X149169580Y-74468095D02*
X149074342Y-74420476D01*
X149074342Y-74420476D02*
X148264819Y-74420476D01*
X148264819Y-73515714D02*
X148264819Y-73706190D01*
X148264819Y-73706190D02*
X148312438Y-73801428D01*
X148312438Y-73801428D02*
X148360057Y-73849047D01*
X148360057Y-73849047D02*
X148502914Y-73944285D01*
X148502914Y-73944285D02*
X148693390Y-73991904D01*
X148693390Y-73991904D02*
X149074342Y-73991904D01*
X149074342Y-73991904D02*
X149169580Y-73944285D01*
X149169580Y-73944285D02*
X149217200Y-73896666D01*
X149217200Y-73896666D02*
X149264819Y-73801428D01*
X149264819Y-73801428D02*
X149264819Y-73610952D01*
X149264819Y-73610952D02*
X149217200Y-73515714D01*
X149217200Y-73515714D02*
X149169580Y-73468095D01*
X149169580Y-73468095D02*
X149074342Y-73420476D01*
X149074342Y-73420476D02*
X148836247Y-73420476D01*
X148836247Y-73420476D02*
X148741009Y-73468095D01*
X148741009Y-73468095D02*
X148693390Y-73515714D01*
X148693390Y-73515714D02*
X148645771Y-73610952D01*
X148645771Y-73610952D02*
X148645771Y-73801428D01*
X148645771Y-73801428D02*
X148693390Y-73896666D01*
X148693390Y-73896666D02*
X148741009Y-73944285D01*
X148741009Y-73944285D02*
X148836247Y-73991904D01*
%TO.C,U4*%
X138104819Y-74991904D02*
X138914342Y-74991904D01*
X138914342Y-74991904D02*
X139009580Y-74944285D01*
X139009580Y-74944285D02*
X139057200Y-74896666D01*
X139057200Y-74896666D02*
X139104819Y-74801428D01*
X139104819Y-74801428D02*
X139104819Y-74610952D01*
X139104819Y-74610952D02*
X139057200Y-74515714D01*
X139057200Y-74515714D02*
X139009580Y-74468095D01*
X139009580Y-74468095D02*
X138914342Y-74420476D01*
X138914342Y-74420476D02*
X138104819Y-74420476D01*
X138438152Y-73515714D02*
X139104819Y-73515714D01*
X138057200Y-73753809D02*
X138771485Y-73991904D01*
X138771485Y-73991904D02*
X138771485Y-73372857D01*
%TO.C,R18*%
X208114819Y-67262857D02*
X207638628Y-67596190D01*
X208114819Y-67834285D02*
X207114819Y-67834285D01*
X207114819Y-67834285D02*
X207114819Y-67453333D01*
X207114819Y-67453333D02*
X207162438Y-67358095D01*
X207162438Y-67358095D02*
X207210057Y-67310476D01*
X207210057Y-67310476D02*
X207305295Y-67262857D01*
X207305295Y-67262857D02*
X207448152Y-67262857D01*
X207448152Y-67262857D02*
X207543390Y-67310476D01*
X207543390Y-67310476D02*
X207591009Y-67358095D01*
X207591009Y-67358095D02*
X207638628Y-67453333D01*
X207638628Y-67453333D02*
X207638628Y-67834285D01*
X208114819Y-66310476D02*
X208114819Y-66881904D01*
X208114819Y-66596190D02*
X207114819Y-66596190D01*
X207114819Y-66596190D02*
X207257676Y-66691428D01*
X207257676Y-66691428D02*
X207352914Y-66786666D01*
X207352914Y-66786666D02*
X207400533Y-66881904D01*
X207543390Y-65739047D02*
X207495771Y-65834285D01*
X207495771Y-65834285D02*
X207448152Y-65881904D01*
X207448152Y-65881904D02*
X207352914Y-65929523D01*
X207352914Y-65929523D02*
X207305295Y-65929523D01*
X207305295Y-65929523D02*
X207210057Y-65881904D01*
X207210057Y-65881904D02*
X207162438Y-65834285D01*
X207162438Y-65834285D02*
X207114819Y-65739047D01*
X207114819Y-65739047D02*
X207114819Y-65548571D01*
X207114819Y-65548571D02*
X207162438Y-65453333D01*
X207162438Y-65453333D02*
X207210057Y-65405714D01*
X207210057Y-65405714D02*
X207305295Y-65358095D01*
X207305295Y-65358095D02*
X207352914Y-65358095D01*
X207352914Y-65358095D02*
X207448152Y-65405714D01*
X207448152Y-65405714D02*
X207495771Y-65453333D01*
X207495771Y-65453333D02*
X207543390Y-65548571D01*
X207543390Y-65548571D02*
X207543390Y-65739047D01*
X207543390Y-65739047D02*
X207591009Y-65834285D01*
X207591009Y-65834285D02*
X207638628Y-65881904D01*
X207638628Y-65881904D02*
X207733866Y-65929523D01*
X207733866Y-65929523D02*
X207924342Y-65929523D01*
X207924342Y-65929523D02*
X208019580Y-65881904D01*
X208019580Y-65881904D02*
X208067200Y-65834285D01*
X208067200Y-65834285D02*
X208114819Y-65739047D01*
X208114819Y-65739047D02*
X208114819Y-65548571D01*
X208114819Y-65548571D02*
X208067200Y-65453333D01*
X208067200Y-65453333D02*
X208019580Y-65405714D01*
X208019580Y-65405714D02*
X207924342Y-65358095D01*
X207924342Y-65358095D02*
X207733866Y-65358095D01*
X207733866Y-65358095D02*
X207638628Y-65405714D01*
X207638628Y-65405714D02*
X207591009Y-65453333D01*
X207591009Y-65453333D02*
X207543390Y-65548571D01*
%TO.C,U3*%
X224028095Y-58664819D02*
X224028095Y-59474342D01*
X224028095Y-59474342D02*
X224075714Y-59569580D01*
X224075714Y-59569580D02*
X224123333Y-59617200D01*
X224123333Y-59617200D02*
X224218571Y-59664819D01*
X224218571Y-59664819D02*
X224409047Y-59664819D01*
X224409047Y-59664819D02*
X224504285Y-59617200D01*
X224504285Y-59617200D02*
X224551904Y-59569580D01*
X224551904Y-59569580D02*
X224599523Y-59474342D01*
X224599523Y-59474342D02*
X224599523Y-58664819D01*
X224980476Y-58664819D02*
X225599523Y-58664819D01*
X225599523Y-58664819D02*
X225266190Y-59045771D01*
X225266190Y-59045771D02*
X225409047Y-59045771D01*
X225409047Y-59045771D02*
X225504285Y-59093390D01*
X225504285Y-59093390D02*
X225551904Y-59141009D01*
X225551904Y-59141009D02*
X225599523Y-59236247D01*
X225599523Y-59236247D02*
X225599523Y-59474342D01*
X225599523Y-59474342D02*
X225551904Y-59569580D01*
X225551904Y-59569580D02*
X225504285Y-59617200D01*
X225504285Y-59617200D02*
X225409047Y-59664819D01*
X225409047Y-59664819D02*
X225123333Y-59664819D01*
X225123333Y-59664819D02*
X225028095Y-59617200D01*
X225028095Y-59617200D02*
X224980476Y-59569580D01*
%TO.C,U25*%
X178744819Y-75468094D02*
X179554342Y-75468094D01*
X179554342Y-75468094D02*
X179649580Y-75420475D01*
X179649580Y-75420475D02*
X179697200Y-75372856D01*
X179697200Y-75372856D02*
X179744819Y-75277618D01*
X179744819Y-75277618D02*
X179744819Y-75087142D01*
X179744819Y-75087142D02*
X179697200Y-74991904D01*
X179697200Y-74991904D02*
X179649580Y-74944285D01*
X179649580Y-74944285D02*
X179554342Y-74896666D01*
X179554342Y-74896666D02*
X178744819Y-74896666D01*
X178840057Y-74468094D02*
X178792438Y-74420475D01*
X178792438Y-74420475D02*
X178744819Y-74325237D01*
X178744819Y-74325237D02*
X178744819Y-74087142D01*
X178744819Y-74087142D02*
X178792438Y-73991904D01*
X178792438Y-73991904D02*
X178840057Y-73944285D01*
X178840057Y-73944285D02*
X178935295Y-73896666D01*
X178935295Y-73896666D02*
X179030533Y-73896666D01*
X179030533Y-73896666D02*
X179173390Y-73944285D01*
X179173390Y-73944285D02*
X179744819Y-74515713D01*
X179744819Y-74515713D02*
X179744819Y-73896666D01*
X178744819Y-72991904D02*
X178744819Y-73468094D01*
X178744819Y-73468094D02*
X179221009Y-73515713D01*
X179221009Y-73515713D02*
X179173390Y-73468094D01*
X179173390Y-73468094D02*
X179125771Y-73372856D01*
X179125771Y-73372856D02*
X179125771Y-73134761D01*
X179125771Y-73134761D02*
X179173390Y-73039523D01*
X179173390Y-73039523D02*
X179221009Y-72991904D01*
X179221009Y-72991904D02*
X179316247Y-72944285D01*
X179316247Y-72944285D02*
X179554342Y-72944285D01*
X179554342Y-72944285D02*
X179649580Y-72991904D01*
X179649580Y-72991904D02*
X179697200Y-73039523D01*
X179697200Y-73039523D02*
X179744819Y-73134761D01*
X179744819Y-73134761D02*
X179744819Y-73372856D01*
X179744819Y-73372856D02*
X179697200Y-73468094D01*
X179697200Y-73468094D02*
X179649580Y-73515713D01*
%TO.C,R17*%
X216974819Y-64722857D02*
X216498628Y-65056190D01*
X216974819Y-65294285D02*
X215974819Y-65294285D01*
X215974819Y-65294285D02*
X215974819Y-64913333D01*
X215974819Y-64913333D02*
X216022438Y-64818095D01*
X216022438Y-64818095D02*
X216070057Y-64770476D01*
X216070057Y-64770476D02*
X216165295Y-64722857D01*
X216165295Y-64722857D02*
X216308152Y-64722857D01*
X216308152Y-64722857D02*
X216403390Y-64770476D01*
X216403390Y-64770476D02*
X216451009Y-64818095D01*
X216451009Y-64818095D02*
X216498628Y-64913333D01*
X216498628Y-64913333D02*
X216498628Y-65294285D01*
X216974819Y-63770476D02*
X216974819Y-64341904D01*
X216974819Y-64056190D02*
X215974819Y-64056190D01*
X215974819Y-64056190D02*
X216117676Y-64151428D01*
X216117676Y-64151428D02*
X216212914Y-64246666D01*
X216212914Y-64246666D02*
X216260533Y-64341904D01*
X215974819Y-63437142D02*
X215974819Y-62770476D01*
X215974819Y-62770476D02*
X216974819Y-63199047D01*
%TO.C,U9*%
X180834819Y-64851904D02*
X181644342Y-64851904D01*
X181644342Y-64851904D02*
X181739580Y-64804285D01*
X181739580Y-64804285D02*
X181787200Y-64756666D01*
X181787200Y-64756666D02*
X181834819Y-64661428D01*
X181834819Y-64661428D02*
X181834819Y-64470952D01*
X181834819Y-64470952D02*
X181787200Y-64375714D01*
X181787200Y-64375714D02*
X181739580Y-64328095D01*
X181739580Y-64328095D02*
X181644342Y-64280476D01*
X181644342Y-64280476D02*
X180834819Y-64280476D01*
X181834819Y-63756666D02*
X181834819Y-63566190D01*
X181834819Y-63566190D02*
X181787200Y-63470952D01*
X181787200Y-63470952D02*
X181739580Y-63423333D01*
X181739580Y-63423333D02*
X181596723Y-63328095D01*
X181596723Y-63328095D02*
X181406247Y-63280476D01*
X181406247Y-63280476D02*
X181025295Y-63280476D01*
X181025295Y-63280476D02*
X180930057Y-63328095D01*
X180930057Y-63328095D02*
X180882438Y-63375714D01*
X180882438Y-63375714D02*
X180834819Y-63470952D01*
X180834819Y-63470952D02*
X180834819Y-63661428D01*
X180834819Y-63661428D02*
X180882438Y-63756666D01*
X180882438Y-63756666D02*
X180930057Y-63804285D01*
X180930057Y-63804285D02*
X181025295Y-63851904D01*
X181025295Y-63851904D02*
X181263390Y-63851904D01*
X181263390Y-63851904D02*
X181358628Y-63804285D01*
X181358628Y-63804285D02*
X181406247Y-63756666D01*
X181406247Y-63756666D02*
X181453866Y-63661428D01*
X181453866Y-63661428D02*
X181453866Y-63470952D01*
X181453866Y-63470952D02*
X181406247Y-63375714D01*
X181406247Y-63375714D02*
X181358628Y-63328095D01*
X181358628Y-63328095D02*
X181263390Y-63280476D01*
%TO.C,U11*%
X217836905Y-51954819D02*
X217836905Y-52764342D01*
X217836905Y-52764342D02*
X217884524Y-52859580D01*
X217884524Y-52859580D02*
X217932143Y-52907200D01*
X217932143Y-52907200D02*
X218027381Y-52954819D01*
X218027381Y-52954819D02*
X218217857Y-52954819D01*
X218217857Y-52954819D02*
X218313095Y-52907200D01*
X218313095Y-52907200D02*
X218360714Y-52859580D01*
X218360714Y-52859580D02*
X218408333Y-52764342D01*
X218408333Y-52764342D02*
X218408333Y-51954819D01*
X219408333Y-52954819D02*
X218836905Y-52954819D01*
X219122619Y-52954819D02*
X219122619Y-51954819D01*
X219122619Y-51954819D02*
X219027381Y-52097676D01*
X219027381Y-52097676D02*
X218932143Y-52192914D01*
X218932143Y-52192914D02*
X218836905Y-52240533D01*
X220360714Y-52954819D02*
X219789286Y-52954819D01*
X220075000Y-52954819D02*
X220075000Y-51954819D01*
X220075000Y-51954819D02*
X219979762Y-52097676D01*
X219979762Y-52097676D02*
X219884524Y-52192914D01*
X219884524Y-52192914D02*
X219789286Y-52240533D01*
%TO.C,U2*%
X150354819Y-64851904D02*
X151164342Y-64851904D01*
X151164342Y-64851904D02*
X151259580Y-64804285D01*
X151259580Y-64804285D02*
X151307200Y-64756666D01*
X151307200Y-64756666D02*
X151354819Y-64661428D01*
X151354819Y-64661428D02*
X151354819Y-64470952D01*
X151354819Y-64470952D02*
X151307200Y-64375714D01*
X151307200Y-64375714D02*
X151259580Y-64328095D01*
X151259580Y-64328095D02*
X151164342Y-64280476D01*
X151164342Y-64280476D02*
X150354819Y-64280476D01*
X150450057Y-63851904D02*
X150402438Y-63804285D01*
X150402438Y-63804285D02*
X150354819Y-63709047D01*
X150354819Y-63709047D02*
X150354819Y-63470952D01*
X150354819Y-63470952D02*
X150402438Y-63375714D01*
X150402438Y-63375714D02*
X150450057Y-63328095D01*
X150450057Y-63328095D02*
X150545295Y-63280476D01*
X150545295Y-63280476D02*
X150640533Y-63280476D01*
X150640533Y-63280476D02*
X150783390Y-63328095D01*
X150783390Y-63328095D02*
X151354819Y-63899523D01*
X151354819Y-63899523D02*
X151354819Y-63280476D01*
D11*
%TO.C,R37*%
X208900000Y-56810000D02*
X212740000Y-56810000D01*
X208900000Y-58650000D02*
X212740000Y-58650000D01*
D12*
%TO.C,J2*%
X231185000Y-84450000D02*
X231185000Y-53870000D01*
X250795000Y-84450000D02*
X231185000Y-84450000D01*
X250795000Y-84450000D02*
X250795000Y-80590000D01*
X250795000Y-80590000D02*
X250795000Y-57730000D01*
X255225000Y-80590000D02*
X250795000Y-80590000D01*
X256495000Y-79460000D02*
X256495000Y-79320000D01*
X256495000Y-79320000D02*
X256495000Y-59000000D01*
X256495000Y-59000000D02*
X256495000Y-58860000D01*
X250795000Y-57730000D02*
X250795000Y-53870000D01*
X255225000Y-57730000D02*
X250795000Y-57730000D01*
X231185000Y-53870000D02*
X250795000Y-53870000D01*
X255225000Y-80590000D02*
G75*
G03*
X256495000Y-79320000I1J1269999D01*
G01*
X256495000Y-59000000D02*
G75*
G03*
X255225000Y-57730000I-1270000J0D01*
G01*
D11*
%TO.C,U24*%
X190550000Y-61440000D02*
X180270000Y-61440000D01*
X180270000Y-61440000D02*
X180270000Y-66740000D01*
X190550000Y-63090000D02*
X190550000Y-61440000D01*
X190550000Y-66740000D02*
X190550000Y-65090000D01*
X180270000Y-66740000D02*
X190550000Y-66740000D01*
X190550000Y-63090000D02*
G75*
G03*
X190550000Y-65090000I0J-1000000D01*
G01*
%TO.C,U27*%
X190450000Y-76880000D02*
X200730000Y-76880000D01*
X200730000Y-76880000D02*
X200730000Y-71580000D01*
X190450000Y-75230000D02*
X190450000Y-76880000D01*
X190450000Y-71580000D02*
X190450000Y-73230000D01*
X200730000Y-71580000D02*
X190450000Y-71580000D01*
X190450000Y-75230000D02*
G75*
G03*
X190450000Y-73230000I0J1000000D01*
G01*
%TO.C,U26*%
X200710000Y-61440000D02*
X190430000Y-61440000D01*
X190430000Y-61440000D02*
X190430000Y-66740000D01*
X200710000Y-63090000D02*
X200710000Y-61440000D01*
X200710000Y-66740000D02*
X200710000Y-65090000D01*
X190430000Y-66740000D02*
X200710000Y-66740000D01*
X200710000Y-63090000D02*
G75*
G03*
X200710000Y-65090000I0J-1000000D01*
G01*
%TO.C,R38*%
X212740000Y-56110000D02*
X208900000Y-56110000D01*
X212740000Y-54270000D02*
X208900000Y-54270000D01*
%TO.C,U10*%
X170130000Y-76880000D02*
X180410000Y-76880000D01*
X180410000Y-76880000D02*
X180410000Y-71580000D01*
X170130000Y-75230000D02*
X170130000Y-76880000D01*
X170130000Y-71580000D02*
X170130000Y-73230000D01*
X180410000Y-71580000D02*
X170130000Y-71580000D01*
X170130000Y-75230000D02*
G75*
G03*
X170130000Y-73230000I0J1000000D01*
G01*
%TO.C,U1*%
X209440000Y-60210000D02*
X209440000Y-78110000D01*
X209440000Y-78110000D02*
X214740000Y-78110000D01*
X211090000Y-60210000D02*
X209440000Y-60210000D01*
X214740000Y-60210000D02*
X213090000Y-60210000D01*
X214740000Y-78110000D02*
X214740000Y-60210000D01*
X211090000Y-60210000D02*
G75*
G03*
X213090000Y-60210000I1000000J0D01*
G01*
%TO.C,U8*%
X159960000Y-76890000D02*
X170240000Y-76890000D01*
X170240000Y-76890000D02*
X170240000Y-71590000D01*
X159960000Y-75240000D02*
X159960000Y-76890000D01*
X159960000Y-71590000D02*
X159960000Y-73240000D01*
X170240000Y-71590000D02*
X159960000Y-71590000D01*
X159960000Y-75240000D02*
G75*
G03*
X159960000Y-73240000I0J1000000D01*
G01*
%TO.C,U5*%
X160060000Y-61440000D02*
X149780000Y-61440000D01*
X149780000Y-61440000D02*
X149780000Y-66740000D01*
X160060000Y-63090000D02*
X160060000Y-61440000D01*
X160060000Y-66740000D02*
X160060000Y-65090000D01*
X149780000Y-66740000D02*
X160060000Y-66740000D01*
X160060000Y-63090000D02*
G75*
G03*
X160060000Y-65090000I0J-1000000D01*
G01*
%TO.C,U7*%
X170220000Y-61440000D02*
X159940000Y-61440000D01*
X159940000Y-61440000D02*
X159940000Y-66740000D01*
X170220000Y-63090000D02*
X170220000Y-61440000D01*
X170220000Y-66740000D02*
X170220000Y-65090000D01*
X159940000Y-66740000D02*
X170220000Y-66740000D01*
X170220000Y-63090000D02*
G75*
G03*
X170220000Y-65090000I0J-1000000D01*
G01*
%TO.C,U6*%
X149810000Y-76880000D02*
X160090000Y-76880000D01*
X160090000Y-76880000D02*
X160090000Y-71580000D01*
X149810000Y-75230000D02*
X149810000Y-76880000D01*
X149810000Y-71580000D02*
X149810000Y-73230000D01*
X160090000Y-71580000D02*
X149810000Y-71580000D01*
X149810000Y-75230000D02*
G75*
G03*
X149810000Y-73230000I0J1000000D01*
G01*
%TO.C,U4*%
X139650000Y-76880000D02*
X149930000Y-76880000D01*
X149930000Y-76880000D02*
X149930000Y-71580000D01*
X139650000Y-75230000D02*
X139650000Y-76880000D01*
X139650000Y-71580000D02*
X139650000Y-73230000D01*
X149930000Y-71580000D02*
X139650000Y-71580000D01*
X139650000Y-75230000D02*
G75*
G03*
X139650000Y-73230000I0J1000000D01*
G01*
%TO.C,R18*%
X206660000Y-64700000D02*
X206660000Y-68540000D01*
X204820000Y-64700000D02*
X204820000Y-68540000D01*
%TO.C,U3*%
X222140000Y-60210000D02*
X222140000Y-78110000D01*
X222140000Y-78110000D02*
X227440000Y-78110000D01*
X223790000Y-60210000D02*
X222140000Y-60210000D01*
X227440000Y-60210000D02*
X225790000Y-60210000D01*
X227440000Y-78110000D02*
X227440000Y-60210000D01*
X223790000Y-60210000D02*
G75*
G03*
X225790000Y-60210000I1000000J0D01*
G01*
%TO.C,U25*%
X180290000Y-76880000D02*
X190570000Y-76880000D01*
X190570000Y-76880000D02*
X190570000Y-71580000D01*
X180290000Y-75230000D02*
X180290000Y-76880000D01*
X180290000Y-71580000D02*
X180290000Y-73230000D01*
X190570000Y-71580000D02*
X180290000Y-71580000D01*
X180290000Y-75230000D02*
G75*
G03*
X180290000Y-73230000I0J1000000D01*
G01*
%TO.C,R17*%
X217520000Y-66000000D02*
X217520000Y-62160000D01*
X219360000Y-66000000D02*
X219360000Y-62160000D01*
%TO.C,U9*%
X180380000Y-61440000D02*
X170100000Y-61440000D01*
X170100000Y-61440000D02*
X170100000Y-66740000D01*
X180380000Y-63090000D02*
X180380000Y-61440000D01*
X180380000Y-66740000D02*
X180380000Y-65090000D01*
X170100000Y-66740000D02*
X180380000Y-66740000D01*
X180380000Y-63090000D02*
G75*
G03*
X180380000Y-65090000I0J-1000000D01*
G01*
%TO.C,U11*%
X213955000Y-53500000D02*
X213955000Y-58141000D01*
X213955000Y-53500000D02*
X224195000Y-53500000D01*
X213955000Y-55010000D02*
X224195000Y-55010000D01*
X213955000Y-58141000D02*
X224195000Y-58141000D01*
X217225000Y-53500000D02*
X217225000Y-55010000D01*
X220926000Y-53500000D02*
X220926000Y-55010000D01*
X224195000Y-53500000D02*
X224195000Y-58141000D01*
%TO.C,U2*%
X149900000Y-61440000D02*
X139620000Y-61440000D01*
X139620000Y-61440000D02*
X139620000Y-66740000D01*
X149900000Y-63090000D02*
X149900000Y-61440000D01*
X149900000Y-66740000D02*
X149900000Y-65090000D01*
X139620000Y-66740000D02*
X149900000Y-66740000D01*
X149900000Y-63090000D02*
G75*
G03*
X149900000Y-65090000I0J-1000000D01*
G01*
%TD*%
M02*
