%TF.GenerationSoftware,KiCad,Pcbnew,7.0.5*%
%TF.CreationDate,2024-09-25T18:50:05-04:00*%
%TF.ProjectId,stepper_motor_controller_3_for_cnc,73746570-7065-4725-9f6d-6f746f725f63,rev?*%
%TF.SameCoordinates,Original*%
%TF.FileFunction,Copper,L1,Top*%
%TF.FilePolarity,Positive*%
%FSLAX46Y46*%
G04 Gerber Fmt 4.6, Leading zero omitted, Abs format (unit mm)*
G04 Created by KiCad (PCBNEW 7.0.5) date 2024-09-25 18:50:05*
%MOMM*%
%LPD*%
G01*
G04 APERTURE LIST*
%TA.AperFunction,ComponentPad*%
%ADD10C,1.400000*%
%TD*%
%TA.AperFunction,ComponentPad*%
%ADD11O,1.400000X1.400000*%
%TD*%
%TA.AperFunction,ComponentPad*%
%ADD12C,1.800000*%
%TD*%
%TA.AperFunction,ComponentPad*%
%ADD13C,3.810000*%
%TD*%
%TA.AperFunction,ComponentPad*%
%ADD14R,1.600000X1.600000*%
%TD*%
%TA.AperFunction,ComponentPad*%
%ADD15O,1.600000X1.600000*%
%TD*%
%TA.AperFunction,ComponentPad*%
%ADD16R,1.905000X2.000000*%
%TD*%
%TA.AperFunction,ComponentPad*%
%ADD17O,1.905000X2.000000*%
%TD*%
%TA.AperFunction,ViaPad*%
%ADD18C,3.000000*%
%TD*%
%TA.AperFunction,ViaPad*%
%ADD19C,0.800000*%
%TD*%
%TA.AperFunction,ViaPad*%
%ADD20C,4.500000*%
%TD*%
G04 APERTURE END LIST*
D10*
%TO.P,R37,1*%
%TO.N,+5V*%
X91503800Y45140000D03*
D11*
%TO.P,R37,2*%
%TO.N,Net-(U11-ADJ)*%
X96583800Y45140000D03*
%TD*%
D12*
%TO.P,J2,1A*%
%TO.N,GND*%
X123098800Y28170000D03*
%TO.P,J2,1B*%
X116348800Y28170000D03*
%TO.P,J2,2A*%
X123098800Y30940000D03*
%TO.P,J2,2B*%
X116348800Y30940000D03*
%TO.P,J2,3A*%
X123098800Y33710000D03*
%TO.P,J2,3B*%
X116348800Y33710000D03*
%TO.P,J2,4A*%
%TO.N,VCC*%
X123098800Y36480000D03*
%TO.P,J2,4B*%
X116348800Y36480000D03*
%TO.P,J2,5A*%
%TO.N,+5V*%
X123098800Y39250000D03*
%TO.P,J2,5B*%
X116348800Y39250000D03*
%TO.P,J2,6A*%
%TO.N,/CLOCK_upper*%
X125938800Y29555000D03*
%TO.P,J2,6B*%
X119188800Y29555000D03*
%TO.P,J2,7A*%
%TO.N,/DIRECTION_upper*%
X125938800Y32325000D03*
%TO.P,J2,7B*%
X119188800Y32325000D03*
%TO.P,J2,8A*%
%TO.N,unconnected-(J2-Pad8A)*%
X125938800Y35095000D03*
%TO.P,J2,8B*%
%TO.N,unconnected-(J2-Pad8B)*%
X119188800Y35095000D03*
%TO.P,J2,9A*%
%TO.N,unconnected-(J2-Pad9A)*%
X125938800Y37865000D03*
%TO.P,J2,9B*%
%TO.N,unconnected-(J2-Pad9B)*%
X119188800Y37865000D03*
D13*
%TO.P,J2,MH1*%
%TO.N,N/C*%
X117938800Y21220000D03*
%TO.P,J2,MH2*%
X125938800Y21220000D03*
%TO.P,J2,MH3*%
X117938800Y46200000D03*
%TO.P,J2,MH4*%
X125938800Y46200000D03*
%TD*%
D14*
%TO.P,U24,1,OA*%
%TO.N,Net-(R57-Pad1)*%
X72443800Y42590000D03*
D15*
%TO.P,U24,2,VCC*%
%TO.N,VCC*%
X69903800Y42590000D03*
%TO.P,U24,3,VCC*%
X67363800Y42590000D03*
%TO.P,U24,4,OA*%
%TO.N,Net-(R44-Pad1)*%
X64823800Y42590000D03*
%TO.P,U24,5,GND*%
%TO.N,GND*%
X64823800Y34970000D03*
%TO.P,U24,6,IA*%
%TO.N,/A_logic*%
X67363800Y34970000D03*
%TO.P,U24,7,IB*%
%TO.N,/A_n_logic*%
X69903800Y34970000D03*
%TO.P,U24,8,GND*%
%TO.N,GND*%
X72443800Y34970000D03*
%TD*%
D14*
%TO.P,U27,1,OA*%
%TO.N,Net-(R49-Pad1)*%
X75003800Y24830000D03*
D15*
%TO.P,U27,2,VCC*%
%TO.N,VCC*%
X77543800Y24830000D03*
%TO.P,U27,3,VCC*%
X80083800Y24830000D03*
%TO.P,U27,4,OA*%
%TO.N,Net-(R62-Pad1)*%
X82623800Y24830000D03*
%TO.P,U27,5,GND*%
%TO.N,GND*%
X82623800Y32450000D03*
%TO.P,U27,6,IA*%
%TO.N,/B_logic*%
X80083800Y32450000D03*
%TO.P,U27,7,IB*%
%TO.N,/B_n_logic*%
X77543800Y32450000D03*
%TO.P,U27,8,GND*%
%TO.N,GND*%
X75003800Y32450000D03*
%TD*%
D14*
%TO.P,U26,1,OA*%
%TO.N,Net-(R47-Pad1)*%
X82603800Y42590000D03*
D15*
%TO.P,U26,2,VCC*%
%TO.N,VCC*%
X80063800Y42590000D03*
%TO.P,U26,3,VCC*%
X77523800Y42590000D03*
%TO.P,U26,4,OA*%
%TO.N,Net-(R60-Pad1)*%
X74983800Y42590000D03*
%TO.P,U26,5,GND*%
%TO.N,GND*%
X74983800Y34970000D03*
%TO.P,U26,6,IA*%
%TO.N,/A_logic*%
X77523800Y34970000D03*
%TO.P,U26,7,IB*%
%TO.N,/A_n_logic*%
X80063800Y34970000D03*
%TO.P,U26,8,GND*%
%TO.N,GND*%
X82603800Y34970000D03*
%TD*%
D10*
%TO.P,R38,1*%
%TO.N,Net-(U11-ADJ)*%
X96583800Y47680000D03*
D11*
%TO.P,R38,2*%
%TO.N,GND*%
X96583800Y52760000D03*
%TD*%
D14*
%TO.P,U10,1,OA*%
%TO.N,Net-(R65-Pad1)*%
X54683800Y24830000D03*
D15*
%TO.P,U10,2,VCC*%
%TO.N,VCC*%
X57223800Y24830000D03*
%TO.P,U10,3,VCC*%
X59763800Y24830000D03*
%TO.P,U10,4,OA*%
%TO.N,Net-(R66-Pad1)*%
X62303800Y24830000D03*
%TO.P,U10,5,GND*%
%TO.N,GND*%
X62303800Y32450000D03*
%TO.P,U10,6,IA*%
%TO.N,/B_logic*%
X59763800Y32450000D03*
%TO.P,U10,7,IB*%
%TO.N,/B_n_logic*%
X57223800Y32450000D03*
%TO.P,U10,8,GND*%
%TO.N,GND*%
X54683800Y32450000D03*
%TD*%
D14*
%TO.P,U1,1,~{R}*%
%TO.N,+5V*%
X91503800Y41330000D03*
D15*
%TO.P,U1,2,D*%
%TO.N,Net-(U1A-D)*%
X91503800Y38790000D03*
%TO.P,U1,3,C*%
%TO.N,/CLOCK_upper*%
X91503800Y36250000D03*
%TO.P,U1,4,~{S}*%
%TO.N,+5V*%
X91503800Y33710000D03*
%TO.P,U1,5,Q*%
%TO.N,/A_logic*%
X91503800Y31170000D03*
%TO.P,U1,6,~{Q}*%
%TO.N,/A_n_logic*%
X91503800Y28630000D03*
%TO.P,U1,7,GND*%
%TO.N,GND*%
X91503800Y26090000D03*
%TO.P,U1,8,~{Q}*%
%TO.N,/B_n_logic*%
X99123800Y26090000D03*
%TO.P,U1,9,Q*%
%TO.N,/B_logic*%
X99123800Y28630000D03*
%TO.P,U1,10,~{S}*%
%TO.N,+5V*%
X99123800Y31170000D03*
%TO.P,U1,11,C*%
%TO.N,/CLOCK_upper*%
X99123800Y33710000D03*
%TO.P,U1,12,D*%
%TO.N,Net-(U1B-D)*%
X99123800Y36250000D03*
%TO.P,U1,13,~{R}*%
%TO.N,+5V*%
X99123800Y38790000D03*
%TO.P,U1,14,VCC*%
X99123800Y41330000D03*
%TD*%
D14*
%TO.P,U8,1,OA*%
%TO.N,Net-(R67-Pad1)*%
X44513800Y24820000D03*
D15*
%TO.P,U8,2,VCC*%
%TO.N,VCC*%
X47053800Y24820000D03*
%TO.P,U8,3,VCC*%
X49593800Y24820000D03*
%TO.P,U8,4,OA*%
%TO.N,Net-(R12-Pad1)*%
X52133800Y24820000D03*
%TO.P,U8,5,GND*%
%TO.N,GND*%
X52133800Y32440000D03*
%TO.P,U8,6,IA*%
%TO.N,/B_logic*%
X49593800Y32440000D03*
%TO.P,U8,7,IB*%
%TO.N,/B_n_logic*%
X47053800Y32440000D03*
%TO.P,U8,8,GND*%
%TO.N,GND*%
X44513800Y32440000D03*
%TD*%
D14*
%TO.P,U5,1,OA*%
%TO.N,Net-(R5-Pad1)*%
X41953800Y42590000D03*
D15*
%TO.P,U5,2,VCC*%
%TO.N,VCC*%
X39413800Y42590000D03*
%TO.P,U5,3,VCC*%
X36873800Y42590000D03*
%TO.P,U5,4,OA*%
%TO.N,Net-(R6-Pad1)*%
X34333800Y42590000D03*
%TO.P,U5,5,GND*%
%TO.N,GND*%
X34333800Y34970000D03*
%TO.P,U5,6,IA*%
%TO.N,/A_logic*%
X36873800Y34970000D03*
%TO.P,U5,7,IB*%
%TO.N,/A_n_logic*%
X39413800Y34970000D03*
%TO.P,U5,8,GND*%
%TO.N,GND*%
X41953800Y34970000D03*
%TD*%
D14*
%TO.P,U7,1,OA*%
%TO.N,Net-(R9-Pad1)*%
X52113800Y42590000D03*
D15*
%TO.P,U7,2,VCC*%
%TO.N,VCC*%
X49573800Y42590000D03*
%TO.P,U7,3,VCC*%
X47033800Y42590000D03*
%TO.P,U7,4,OA*%
%TO.N,Net-(R54-Pad1)*%
X44493800Y42590000D03*
%TO.P,U7,5,GND*%
%TO.N,GND*%
X44493800Y34970000D03*
%TO.P,U7,6,IA*%
%TO.N,/A_logic*%
X47033800Y34970000D03*
%TO.P,U7,7,IB*%
%TO.N,/A_n_logic*%
X49573800Y34970000D03*
%TO.P,U7,8,GND*%
%TO.N,GND*%
X52113800Y34970000D03*
%TD*%
D14*
%TO.P,U6,1,OA*%
%TO.N,Net-(R69-Pad1)*%
X34363800Y24830000D03*
D15*
%TO.P,U6,2,VCC*%
%TO.N,VCC*%
X36903800Y24830000D03*
%TO.P,U6,3,VCC*%
X39443800Y24830000D03*
%TO.P,U6,4,OA*%
%TO.N,Net-(R70-Pad1)*%
X41983800Y24830000D03*
%TO.P,U6,5,GND*%
%TO.N,GND*%
X41983800Y32450000D03*
%TO.P,U6,6,IA*%
%TO.N,/B_logic*%
X39443800Y32450000D03*
%TO.P,U6,7,IB*%
%TO.N,/B_n_logic*%
X36903800Y32450000D03*
%TO.P,U6,8,GND*%
%TO.N,GND*%
X34363800Y32450000D03*
%TD*%
D14*
%TO.P,U4,1,OA*%
%TO.N,Net-(R3-Pad1)*%
X24203800Y24830000D03*
D15*
%TO.P,U4,2,VCC*%
%TO.N,VCC*%
X26743800Y24830000D03*
%TO.P,U4,3,VCC*%
X29283800Y24830000D03*
%TO.P,U4,4,OA*%
%TO.N,Net-(R72-Pad1)*%
X31823800Y24830000D03*
%TO.P,U4,5,GND*%
%TO.N,GND*%
X31823800Y32450000D03*
%TO.P,U4,6,IA*%
%TO.N,/B_logic*%
X29283800Y32450000D03*
%TO.P,U4,7,IB*%
%TO.N,/B_n_logic*%
X26743800Y32450000D03*
%TO.P,U4,8,GND*%
%TO.N,GND*%
X24203800Y32450000D03*
%TD*%
D10*
%TO.P,R18,1*%
%TO.N,Net-(U1A-D)*%
X88963800Y38790000D03*
D11*
%TO.P,R18,2*%
%TO.N,+5V*%
X88963800Y33710000D03*
%TD*%
D14*
%TO.P,U3,1*%
%TO.N,/B_n_logic*%
X104203800Y41330000D03*
D15*
%TO.P,U3,2*%
%TO.N,/DIRECTION_upper*%
X104203800Y38790000D03*
%TO.P,U3,3*%
%TO.N,Net-(U1A-D)*%
X104203800Y36250000D03*
%TO.P,U3,4*%
%TO.N,/A_logic*%
X104203800Y33710000D03*
%TO.P,U3,5*%
%TO.N,/DIRECTION_upper*%
X104203800Y31170000D03*
%TO.P,U3,6*%
%TO.N,Net-(U1B-D)*%
X104203800Y28630000D03*
%TO.P,U3,7,GND*%
%TO.N,GND*%
X104203800Y26090000D03*
%TO.P,U3,8*%
%TO.N,N/C*%
X111823800Y26090000D03*
%TO.P,U3,9*%
X111823800Y28630000D03*
%TO.P,U3,10*%
X111823800Y31170000D03*
%TO.P,U3,11*%
X111823800Y33710000D03*
%TO.P,U3,12*%
X111823800Y36250000D03*
%TO.P,U3,13*%
X111823800Y38790000D03*
%TO.P,U3,14,VCC*%
%TO.N,+5V*%
X111823800Y41330000D03*
%TD*%
D14*
%TO.P,U25,1,OA*%
%TO.N,Net-(R63-Pad1)*%
X64843800Y24830000D03*
D15*
%TO.P,U25,2,VCC*%
%TO.N,VCC*%
X67383800Y24830000D03*
%TO.P,U25,3,VCC*%
X69923800Y24830000D03*
%TO.P,U25,4,OA*%
%TO.N,Net-(R46-Pad1)*%
X72463800Y24830000D03*
%TO.P,U25,5,GND*%
%TO.N,GND*%
X72463800Y32450000D03*
%TO.P,U25,6,IA*%
%TO.N,/B_logic*%
X69923800Y32450000D03*
%TO.P,U25,7,IB*%
%TO.N,/B_n_logic*%
X67383800Y32450000D03*
%TO.P,U25,8,GND*%
%TO.N,GND*%
X64843800Y32450000D03*
%TD*%
D10*
%TO.P,R17,1*%
%TO.N,Net-(U1B-D)*%
X101663800Y36250000D03*
D11*
%TO.P,R17,2*%
%TO.N,+5V*%
X101663800Y41330000D03*
%TD*%
D14*
%TO.P,U9,1,OA*%
%TO.N,Net-(R55-Pad1)*%
X62273800Y42590000D03*
D15*
%TO.P,U9,2,VCC*%
%TO.N,VCC*%
X59733800Y42590000D03*
%TO.P,U9,3,VCC*%
X57193800Y42590000D03*
%TO.P,U9,4,OA*%
%TO.N,Net-(R14-Pad1)*%
X54653800Y42590000D03*
%TO.P,U9,5,GND*%
%TO.N,GND*%
X54653800Y34970000D03*
%TO.P,U9,6,IA*%
%TO.N,/A_logic*%
X57193800Y34970000D03*
%TO.P,U9,7,IB*%
%TO.N,/A_n_logic*%
X59733800Y34970000D03*
%TO.P,U9,8,GND*%
%TO.N,GND*%
X62273800Y34970000D03*
%TD*%
D16*
%TO.P,U11,1,ADJ*%
%TO.N,Net-(U11-ADJ)*%
X99758800Y46100000D03*
D17*
%TO.P,U11,2,VO*%
%TO.N,+5V*%
X102298800Y46100000D03*
%TO.P,U11,3,VI*%
%TO.N,VCC*%
X104838800Y46100000D03*
%TD*%
D14*
%TO.P,U2,1,OA*%
%TO.N,Net-(R39-Pad1)*%
X31793800Y42590000D03*
D15*
%TO.P,U2,2,VCC*%
%TO.N,VCC*%
X29253800Y42590000D03*
%TO.P,U2,3,VCC*%
X26713800Y42590000D03*
%TO.P,U2,4,OA*%
%TO.N,Net-(R2-Pad1)*%
X24173800Y42590000D03*
%TO.P,U2,5,GND*%
%TO.N,GND*%
X24173800Y34970000D03*
%TO.P,U2,6,IA*%
%TO.N,/A_logic*%
X26713800Y34970000D03*
%TO.P,U2,7,IB*%
%TO.N,/A_n_logic*%
X29253800Y34970000D03*
%TO.P,U2,8,GND*%
%TO.N,GND*%
X31793800Y34970000D03*
%TD*%
D18*
%TO.N,/A*%
X33233800Y52900000D03*
%TO.N,/B*%
X42753800Y52890000D03*
%TO.N,/C*%
X42513800Y14740000D03*
%TO.N,/D*%
X32993800Y14750000D03*
D19*
%TO.N,Net-(U1B-D)*%
X102756773Y30037357D03*
%TO.N,/A_logic*%
X101663800Y33710000D03*
X88963800Y31170000D03*
%TO.N,/A_n_logic*%
X71183800Y33710000D03*
X88963800Y28630000D03*
X50863800Y33710000D03*
X40703800Y33710000D03*
X81343800Y33710000D03*
X61023800Y33710000D03*
X30543800Y33710000D03*
D18*
%TO.N,GND*%
X52043800Y14740000D03*
D20*
X61813800Y52890000D03*
D18*
X90403800Y52890000D03*
D20*
X109463800Y52890000D03*
X61573800Y14740000D03*
D18*
%TO.N,VCC*%
X99693800Y14740000D03*
D20*
%TO.N,GND*%
X23453800Y14740000D03*
X71343800Y52890000D03*
X71103800Y14740000D03*
D18*
X80873800Y52890000D03*
D20*
X109223800Y14740000D03*
D18*
X90163800Y14740000D03*
X80633800Y14740000D03*
X52283800Y52890000D03*
D20*
X23693800Y52890000D03*
D19*
%TO.N,/B_n_logic*%
X76263800Y33710000D03*
X66103800Y33710000D03*
X55943800Y33710000D03*
X25463800Y33710000D03*
X101663800Y26090000D03*
X35623800Y33710000D03*
X45783800Y33710000D03*
%TO.N,/B_logic*%
X48323800Y33710000D03*
X58483800Y33710000D03*
X78803800Y33710000D03*
X28003800Y33710000D03*
X38163800Y33710000D03*
X68643800Y33710000D03*
X101663800Y28630000D03*
D18*
%TO.N,VCC*%
X99933800Y52890000D03*
D19*
%TO.N,/CLOCK_upper*%
X100393800Y32440000D03*
X111823800Y22280000D03*
%TD*%
M02*
