%TF.GenerationSoftware,KiCad,Pcbnew,7.0.5*%
%TF.CreationDate,2024-09-25T18:44:15-04:00*%
%TF.ProjectId,stepper_motor_controller_3_for_cnc,73746570-7065-4725-9f6d-6f746f725f63,rev?*%
%TF.SameCoordinates,Original*%
%TF.FileFunction,Legend,Top*%
%TF.FilePolarity,Positive*%
%FSLAX46Y46*%
G04 Gerber Fmt 4.6, Leading zero omitted, Abs format (unit mm)*
G04 Created by KiCad (PCBNEW 7.0.5) date 2024-09-25 18:44:15*
%MOMM*%
%LPD*%
G01*
G04 APERTURE LIST*
%ADD10C,0.150000*%
%ADD11C,0.120000*%
%ADD12C,0.127000*%
G04 APERTURE END LIST*
D10*
%TO.C,R37*%
X93400942Y46605180D02*
X93067609Y47081371D01*
X92829514Y46605180D02*
X92829514Y47605180D01*
X92829514Y47605180D02*
X93210466Y47605180D01*
X93210466Y47605180D02*
X93305704Y47557561D01*
X93305704Y47557561D02*
X93353323Y47509942D01*
X93353323Y47509942D02*
X93400942Y47414704D01*
X93400942Y47414704D02*
X93400942Y47271847D01*
X93400942Y47271847D02*
X93353323Y47176609D01*
X93353323Y47176609D02*
X93305704Y47128990D01*
X93305704Y47128990D02*
X93210466Y47081371D01*
X93210466Y47081371D02*
X92829514Y47081371D01*
X93734276Y47605180D02*
X94353323Y47605180D01*
X94353323Y47605180D02*
X94019990Y47224228D01*
X94019990Y47224228D02*
X94162847Y47224228D01*
X94162847Y47224228D02*
X94258085Y47176609D01*
X94258085Y47176609D02*
X94305704Y47128990D01*
X94305704Y47128990D02*
X94353323Y47033752D01*
X94353323Y47033752D02*
X94353323Y46795657D01*
X94353323Y46795657D02*
X94305704Y46700419D01*
X94305704Y46700419D02*
X94258085Y46652800D01*
X94258085Y46652800D02*
X94162847Y46605180D01*
X94162847Y46605180D02*
X93877133Y46605180D01*
X93877133Y46605180D02*
X93781895Y46652800D01*
X93781895Y46652800D02*
X93734276Y46700419D01*
X94686657Y47605180D02*
X95353323Y47605180D01*
X95353323Y47605180D02*
X94924752Y46605180D01*
%TO.C,J2*%
X121507865Y33447532D02*
X122070295Y33447532D01*
X122070295Y33447532D02*
X122182781Y33410037D01*
X122182781Y33410037D02*
X122257772Y33335046D01*
X122257772Y33335046D02*
X122295267Y33222560D01*
X122295267Y33222560D02*
X122295267Y33147570D01*
X121582856Y33784990D02*
X121545360Y33822485D01*
X121545360Y33822485D02*
X121507865Y33897476D01*
X121507865Y33897476D02*
X121507865Y34084953D01*
X121507865Y34084953D02*
X121545360Y34159943D01*
X121545360Y34159943D02*
X121582856Y34197439D01*
X121582856Y34197439D02*
X121657846Y34234934D01*
X121657846Y34234934D02*
X121732837Y34234934D01*
X121732837Y34234934D02*
X121845323Y34197439D01*
X121845323Y34197439D02*
X122295267Y33747495D01*
X122295267Y33747495D02*
X122295267Y34234934D01*
%TO.C,U24*%
X74228619Y37541905D02*
X75038142Y37541905D01*
X75038142Y37541905D02*
X75133380Y37589524D01*
X75133380Y37589524D02*
X75181000Y37637143D01*
X75181000Y37637143D02*
X75228619Y37732381D01*
X75228619Y37732381D02*
X75228619Y37922857D01*
X75228619Y37922857D02*
X75181000Y38018095D01*
X75181000Y38018095D02*
X75133380Y38065714D01*
X75133380Y38065714D02*
X75038142Y38113333D01*
X75038142Y38113333D02*
X74228619Y38113333D01*
X74323857Y38541905D02*
X74276238Y38589524D01*
X74276238Y38589524D02*
X74228619Y38684762D01*
X74228619Y38684762D02*
X74228619Y38922857D01*
X74228619Y38922857D02*
X74276238Y39018095D01*
X74276238Y39018095D02*
X74323857Y39065714D01*
X74323857Y39065714D02*
X74419095Y39113333D01*
X74419095Y39113333D02*
X74514333Y39113333D01*
X74514333Y39113333D02*
X74657190Y39065714D01*
X74657190Y39065714D02*
X75228619Y38494286D01*
X75228619Y38494286D02*
X75228619Y39113333D01*
X74561952Y39970476D02*
X75228619Y39970476D01*
X74181000Y39732381D02*
X74895285Y39494286D01*
X74895285Y39494286D02*
X74895285Y40113333D01*
%TO.C,U27*%
X72128619Y27401905D02*
X72938142Y27401905D01*
X72938142Y27401905D02*
X73033380Y27449524D01*
X73033380Y27449524D02*
X73081000Y27497143D01*
X73081000Y27497143D02*
X73128619Y27592381D01*
X73128619Y27592381D02*
X73128619Y27782857D01*
X73128619Y27782857D02*
X73081000Y27878095D01*
X73081000Y27878095D02*
X73033380Y27925714D01*
X73033380Y27925714D02*
X72938142Y27973333D01*
X72938142Y27973333D02*
X72128619Y27973333D01*
X72223857Y28401905D02*
X72176238Y28449524D01*
X72176238Y28449524D02*
X72128619Y28544762D01*
X72128619Y28544762D02*
X72128619Y28782857D01*
X72128619Y28782857D02*
X72176238Y28878095D01*
X72176238Y28878095D02*
X72223857Y28925714D01*
X72223857Y28925714D02*
X72319095Y28973333D01*
X72319095Y28973333D02*
X72414333Y28973333D01*
X72414333Y28973333D02*
X72557190Y28925714D01*
X72557190Y28925714D02*
X73128619Y28354286D01*
X73128619Y28354286D02*
X73128619Y28973333D01*
X72128619Y29306667D02*
X72128619Y29973333D01*
X72128619Y29973333D02*
X73128619Y29544762D01*
%TO.C,U26*%
X84388619Y37541905D02*
X85198142Y37541905D01*
X85198142Y37541905D02*
X85293380Y37589524D01*
X85293380Y37589524D02*
X85341000Y37637143D01*
X85341000Y37637143D02*
X85388619Y37732381D01*
X85388619Y37732381D02*
X85388619Y37922857D01*
X85388619Y37922857D02*
X85341000Y38018095D01*
X85341000Y38018095D02*
X85293380Y38065714D01*
X85293380Y38065714D02*
X85198142Y38113333D01*
X85198142Y38113333D02*
X84388619Y38113333D01*
X84483857Y38541905D02*
X84436238Y38589524D01*
X84436238Y38589524D02*
X84388619Y38684762D01*
X84388619Y38684762D02*
X84388619Y38922857D01*
X84388619Y38922857D02*
X84436238Y39018095D01*
X84436238Y39018095D02*
X84483857Y39065714D01*
X84483857Y39065714D02*
X84579095Y39113333D01*
X84579095Y39113333D02*
X84674333Y39113333D01*
X84674333Y39113333D02*
X84817190Y39065714D01*
X84817190Y39065714D02*
X85388619Y38494286D01*
X85388619Y38494286D02*
X85388619Y39113333D01*
X84388619Y39970476D02*
X84388619Y39780000D01*
X84388619Y39780000D02*
X84436238Y39684762D01*
X84436238Y39684762D02*
X84483857Y39637143D01*
X84483857Y39637143D02*
X84626714Y39541905D01*
X84626714Y39541905D02*
X84817190Y39494286D01*
X84817190Y39494286D02*
X85198142Y39494286D01*
X85198142Y39494286D02*
X85293380Y39541905D01*
X85293380Y39541905D02*
X85341000Y39589524D01*
X85341000Y39589524D02*
X85388619Y39684762D01*
X85388619Y39684762D02*
X85388619Y39875238D01*
X85388619Y39875238D02*
X85341000Y39970476D01*
X85341000Y39970476D02*
X85293380Y40018095D01*
X85293380Y40018095D02*
X85198142Y40065714D01*
X85198142Y40065714D02*
X84960047Y40065714D01*
X84960047Y40065714D02*
X84864809Y40018095D01*
X84864809Y40018095D02*
X84817190Y39970476D01*
X84817190Y39970476D02*
X84769571Y39875238D01*
X84769571Y39875238D02*
X84769571Y39684762D01*
X84769571Y39684762D02*
X84817190Y39589524D01*
X84817190Y39589524D02*
X84864809Y39541905D01*
X84864809Y39541905D02*
X84960047Y39494286D01*
%TO.C,R38*%
X93400942Y45305180D02*
X93067609Y45781371D01*
X92829514Y45305180D02*
X92829514Y46305180D01*
X92829514Y46305180D02*
X93210466Y46305180D01*
X93210466Y46305180D02*
X93305704Y46257561D01*
X93305704Y46257561D02*
X93353323Y46209942D01*
X93353323Y46209942D02*
X93400942Y46114704D01*
X93400942Y46114704D02*
X93400942Y45971847D01*
X93400942Y45971847D02*
X93353323Y45876609D01*
X93353323Y45876609D02*
X93305704Y45828990D01*
X93305704Y45828990D02*
X93210466Y45781371D01*
X93210466Y45781371D02*
X92829514Y45781371D01*
X93734276Y46305180D02*
X94353323Y46305180D01*
X94353323Y46305180D02*
X94019990Y45924228D01*
X94019990Y45924228D02*
X94162847Y45924228D01*
X94162847Y45924228D02*
X94258085Y45876609D01*
X94258085Y45876609D02*
X94305704Y45828990D01*
X94305704Y45828990D02*
X94353323Y45733752D01*
X94353323Y45733752D02*
X94353323Y45495657D01*
X94353323Y45495657D02*
X94305704Y45400419D01*
X94305704Y45400419D02*
X94258085Y45352800D01*
X94258085Y45352800D02*
X94162847Y45305180D01*
X94162847Y45305180D02*
X93877133Y45305180D01*
X93877133Y45305180D02*
X93781895Y45352800D01*
X93781895Y45352800D02*
X93734276Y45400419D01*
X94924752Y45876609D02*
X94829514Y45924228D01*
X94829514Y45924228D02*
X94781895Y45971847D01*
X94781895Y45971847D02*
X94734276Y46067085D01*
X94734276Y46067085D02*
X94734276Y46114704D01*
X94734276Y46114704D02*
X94781895Y46209942D01*
X94781895Y46209942D02*
X94829514Y46257561D01*
X94829514Y46257561D02*
X94924752Y46305180D01*
X94924752Y46305180D02*
X95115228Y46305180D01*
X95115228Y46305180D02*
X95210466Y46257561D01*
X95210466Y46257561D02*
X95258085Y46209942D01*
X95258085Y46209942D02*
X95305704Y46114704D01*
X95305704Y46114704D02*
X95305704Y46067085D01*
X95305704Y46067085D02*
X95258085Y45971847D01*
X95258085Y45971847D02*
X95210466Y45924228D01*
X95210466Y45924228D02*
X95115228Y45876609D01*
X95115228Y45876609D02*
X94924752Y45876609D01*
X94924752Y45876609D02*
X94829514Y45828990D01*
X94829514Y45828990D02*
X94781895Y45781371D01*
X94781895Y45781371D02*
X94734276Y45686133D01*
X94734276Y45686133D02*
X94734276Y45495657D01*
X94734276Y45495657D02*
X94781895Y45400419D01*
X94781895Y45400419D02*
X94829514Y45352800D01*
X94829514Y45352800D02*
X94924752Y45305180D01*
X94924752Y45305180D02*
X95115228Y45305180D01*
X95115228Y45305180D02*
X95210466Y45352800D01*
X95210466Y45352800D02*
X95258085Y45400419D01*
X95258085Y45400419D02*
X95305704Y45495657D01*
X95305704Y45495657D02*
X95305704Y45686133D01*
X95305704Y45686133D02*
X95258085Y45781371D01*
X95258085Y45781371D02*
X95210466Y45828990D01*
X95210466Y45828990D02*
X95115228Y45876609D01*
%TO.C,U10*%
X51808619Y27401905D02*
X52618142Y27401905D01*
X52618142Y27401905D02*
X52713380Y27449524D01*
X52713380Y27449524D02*
X52761000Y27497143D01*
X52761000Y27497143D02*
X52808619Y27592381D01*
X52808619Y27592381D02*
X52808619Y27782857D01*
X52808619Y27782857D02*
X52761000Y27878095D01*
X52761000Y27878095D02*
X52713380Y27925714D01*
X52713380Y27925714D02*
X52618142Y27973333D01*
X52618142Y27973333D02*
X51808619Y27973333D01*
X52808619Y28973333D02*
X52808619Y28401905D01*
X52808619Y28687619D02*
X51808619Y28687619D01*
X51808619Y28687619D02*
X51951476Y28592381D01*
X51951476Y28592381D02*
X52046714Y28497143D01*
X52046714Y28497143D02*
X52094333Y28401905D01*
X51808619Y29592381D02*
X51808619Y29687619D01*
X51808619Y29687619D02*
X51856238Y29782857D01*
X51856238Y29782857D02*
X51903857Y29830476D01*
X51903857Y29830476D02*
X51999095Y29878095D01*
X51999095Y29878095D02*
X52189571Y29925714D01*
X52189571Y29925714D02*
X52427666Y29925714D01*
X52427666Y29925714D02*
X52618142Y29878095D01*
X52618142Y29878095D02*
X52713380Y29830476D01*
X52713380Y29830476D02*
X52761000Y29782857D01*
X52761000Y29782857D02*
X52808619Y29687619D01*
X52808619Y29687619D02*
X52808619Y29592381D01*
X52808619Y29592381D02*
X52761000Y29497143D01*
X52761000Y29497143D02*
X52713380Y29449524D01*
X52713380Y29449524D02*
X52618142Y29401905D01*
X52618142Y29401905D02*
X52427666Y29354286D01*
X52427666Y29354286D02*
X52189571Y29354286D01*
X52189571Y29354286D02*
X51999095Y29401905D01*
X51999095Y29401905D02*
X51903857Y29449524D01*
X51903857Y29449524D02*
X51856238Y29497143D01*
X51856238Y29497143D02*
X51808619Y29592381D01*
%TO.C,U1*%
X94551895Y44205180D02*
X94551895Y43395657D01*
X94551895Y43395657D02*
X94599514Y43300419D01*
X94599514Y43300419D02*
X94647133Y43252800D01*
X94647133Y43252800D02*
X94742371Y43205180D01*
X94742371Y43205180D02*
X94932847Y43205180D01*
X94932847Y43205180D02*
X95028085Y43252800D01*
X95028085Y43252800D02*
X95075704Y43300419D01*
X95075704Y43300419D02*
X95123323Y43395657D01*
X95123323Y43395657D02*
X95123323Y44205180D01*
X96123323Y43205180D02*
X95551895Y43205180D01*
X95837609Y43205180D02*
X95837609Y44205180D01*
X95837609Y44205180D02*
X95742371Y44062323D01*
X95742371Y44062323D02*
X95647133Y43967085D01*
X95647133Y43967085D02*
X95551895Y43919466D01*
%TO.C,U8*%
X41638619Y27868095D02*
X42448142Y27868095D01*
X42448142Y27868095D02*
X42543380Y27915714D01*
X42543380Y27915714D02*
X42591000Y27963333D01*
X42591000Y27963333D02*
X42638619Y28058571D01*
X42638619Y28058571D02*
X42638619Y28249047D01*
X42638619Y28249047D02*
X42591000Y28344285D01*
X42591000Y28344285D02*
X42543380Y28391904D01*
X42543380Y28391904D02*
X42448142Y28439523D01*
X42448142Y28439523D02*
X41638619Y28439523D01*
X42067190Y29058571D02*
X42019571Y28963333D01*
X42019571Y28963333D02*
X41971952Y28915714D01*
X41971952Y28915714D02*
X41876714Y28868095D01*
X41876714Y28868095D02*
X41829095Y28868095D01*
X41829095Y28868095D02*
X41733857Y28915714D01*
X41733857Y28915714D02*
X41686238Y28963333D01*
X41686238Y28963333D02*
X41638619Y29058571D01*
X41638619Y29058571D02*
X41638619Y29249047D01*
X41638619Y29249047D02*
X41686238Y29344285D01*
X41686238Y29344285D02*
X41733857Y29391904D01*
X41733857Y29391904D02*
X41829095Y29439523D01*
X41829095Y29439523D02*
X41876714Y29439523D01*
X41876714Y29439523D02*
X41971952Y29391904D01*
X41971952Y29391904D02*
X42019571Y29344285D01*
X42019571Y29344285D02*
X42067190Y29249047D01*
X42067190Y29249047D02*
X42067190Y29058571D01*
X42067190Y29058571D02*
X42114809Y28963333D01*
X42114809Y28963333D02*
X42162428Y28915714D01*
X42162428Y28915714D02*
X42257666Y28868095D01*
X42257666Y28868095D02*
X42448142Y28868095D01*
X42448142Y28868095D02*
X42543380Y28915714D01*
X42543380Y28915714D02*
X42591000Y28963333D01*
X42591000Y28963333D02*
X42638619Y29058571D01*
X42638619Y29058571D02*
X42638619Y29249047D01*
X42638619Y29249047D02*
X42591000Y29344285D01*
X42591000Y29344285D02*
X42543380Y29391904D01*
X42543380Y29391904D02*
X42448142Y29439523D01*
X42448142Y29439523D02*
X42257666Y29439523D01*
X42257666Y29439523D02*
X42162428Y29391904D01*
X42162428Y29391904D02*
X42114809Y29344285D01*
X42114809Y29344285D02*
X42067190Y29249047D01*
%TO.C,U5*%
X43738619Y38018095D02*
X44548142Y38018095D01*
X44548142Y38018095D02*
X44643380Y38065714D01*
X44643380Y38065714D02*
X44691000Y38113333D01*
X44691000Y38113333D02*
X44738619Y38208571D01*
X44738619Y38208571D02*
X44738619Y38399047D01*
X44738619Y38399047D02*
X44691000Y38494285D01*
X44691000Y38494285D02*
X44643380Y38541904D01*
X44643380Y38541904D02*
X44548142Y38589523D01*
X44548142Y38589523D02*
X43738619Y38589523D01*
X43738619Y39541904D02*
X43738619Y39065714D01*
X43738619Y39065714D02*
X44214809Y39018095D01*
X44214809Y39018095D02*
X44167190Y39065714D01*
X44167190Y39065714D02*
X44119571Y39160952D01*
X44119571Y39160952D02*
X44119571Y39399047D01*
X44119571Y39399047D02*
X44167190Y39494285D01*
X44167190Y39494285D02*
X44214809Y39541904D01*
X44214809Y39541904D02*
X44310047Y39589523D01*
X44310047Y39589523D02*
X44548142Y39589523D01*
X44548142Y39589523D02*
X44643380Y39541904D01*
X44643380Y39541904D02*
X44691000Y39494285D01*
X44691000Y39494285D02*
X44738619Y39399047D01*
X44738619Y39399047D02*
X44738619Y39160952D01*
X44738619Y39160952D02*
X44691000Y39065714D01*
X44691000Y39065714D02*
X44643380Y39018095D01*
%TO.C,U7*%
X53898619Y38018095D02*
X54708142Y38018095D01*
X54708142Y38018095D02*
X54803380Y38065714D01*
X54803380Y38065714D02*
X54851000Y38113333D01*
X54851000Y38113333D02*
X54898619Y38208571D01*
X54898619Y38208571D02*
X54898619Y38399047D01*
X54898619Y38399047D02*
X54851000Y38494285D01*
X54851000Y38494285D02*
X54803380Y38541904D01*
X54803380Y38541904D02*
X54708142Y38589523D01*
X54708142Y38589523D02*
X53898619Y38589523D01*
X53898619Y38970476D02*
X53898619Y39637142D01*
X53898619Y39637142D02*
X54898619Y39208571D01*
%TO.C,U6*%
X31488619Y27878095D02*
X32298142Y27878095D01*
X32298142Y27878095D02*
X32393380Y27925714D01*
X32393380Y27925714D02*
X32441000Y27973333D01*
X32441000Y27973333D02*
X32488619Y28068571D01*
X32488619Y28068571D02*
X32488619Y28259047D01*
X32488619Y28259047D02*
X32441000Y28354285D01*
X32441000Y28354285D02*
X32393380Y28401904D01*
X32393380Y28401904D02*
X32298142Y28449523D01*
X32298142Y28449523D02*
X31488619Y28449523D01*
X31488619Y29354285D02*
X31488619Y29163809D01*
X31488619Y29163809D02*
X31536238Y29068571D01*
X31536238Y29068571D02*
X31583857Y29020952D01*
X31583857Y29020952D02*
X31726714Y28925714D01*
X31726714Y28925714D02*
X31917190Y28878095D01*
X31917190Y28878095D02*
X32298142Y28878095D01*
X32298142Y28878095D02*
X32393380Y28925714D01*
X32393380Y28925714D02*
X32441000Y28973333D01*
X32441000Y28973333D02*
X32488619Y29068571D01*
X32488619Y29068571D02*
X32488619Y29259047D01*
X32488619Y29259047D02*
X32441000Y29354285D01*
X32441000Y29354285D02*
X32393380Y29401904D01*
X32393380Y29401904D02*
X32298142Y29449523D01*
X32298142Y29449523D02*
X32060047Y29449523D01*
X32060047Y29449523D02*
X31964809Y29401904D01*
X31964809Y29401904D02*
X31917190Y29354285D01*
X31917190Y29354285D02*
X31869571Y29259047D01*
X31869571Y29259047D02*
X31869571Y29068571D01*
X31869571Y29068571D02*
X31917190Y28973333D01*
X31917190Y28973333D02*
X31964809Y28925714D01*
X31964809Y28925714D02*
X32060047Y28878095D01*
%TO.C,U4*%
X21328619Y27878095D02*
X22138142Y27878095D01*
X22138142Y27878095D02*
X22233380Y27925714D01*
X22233380Y27925714D02*
X22281000Y27973333D01*
X22281000Y27973333D02*
X22328619Y28068571D01*
X22328619Y28068571D02*
X22328619Y28259047D01*
X22328619Y28259047D02*
X22281000Y28354285D01*
X22281000Y28354285D02*
X22233380Y28401904D01*
X22233380Y28401904D02*
X22138142Y28449523D01*
X22138142Y28449523D02*
X21328619Y28449523D01*
X21661952Y29354285D02*
X22328619Y29354285D01*
X21281000Y29116190D02*
X21995285Y28878095D01*
X21995285Y28878095D02*
X21995285Y29497142D01*
%TO.C,R18*%
X91338619Y35607142D02*
X90862428Y35273809D01*
X91338619Y35035714D02*
X90338619Y35035714D01*
X90338619Y35035714D02*
X90338619Y35416666D01*
X90338619Y35416666D02*
X90386238Y35511904D01*
X90386238Y35511904D02*
X90433857Y35559523D01*
X90433857Y35559523D02*
X90529095Y35607142D01*
X90529095Y35607142D02*
X90671952Y35607142D01*
X90671952Y35607142D02*
X90767190Y35559523D01*
X90767190Y35559523D02*
X90814809Y35511904D01*
X90814809Y35511904D02*
X90862428Y35416666D01*
X90862428Y35416666D02*
X90862428Y35035714D01*
X91338619Y36559523D02*
X91338619Y35988095D01*
X91338619Y36273809D02*
X90338619Y36273809D01*
X90338619Y36273809D02*
X90481476Y36178571D01*
X90481476Y36178571D02*
X90576714Y36083333D01*
X90576714Y36083333D02*
X90624333Y35988095D01*
X90767190Y37130952D02*
X90719571Y37035714D01*
X90719571Y37035714D02*
X90671952Y36988095D01*
X90671952Y36988095D02*
X90576714Y36940476D01*
X90576714Y36940476D02*
X90529095Y36940476D01*
X90529095Y36940476D02*
X90433857Y36988095D01*
X90433857Y36988095D02*
X90386238Y37035714D01*
X90386238Y37035714D02*
X90338619Y37130952D01*
X90338619Y37130952D02*
X90338619Y37321428D01*
X90338619Y37321428D02*
X90386238Y37416666D01*
X90386238Y37416666D02*
X90433857Y37464285D01*
X90433857Y37464285D02*
X90529095Y37511904D01*
X90529095Y37511904D02*
X90576714Y37511904D01*
X90576714Y37511904D02*
X90671952Y37464285D01*
X90671952Y37464285D02*
X90719571Y37416666D01*
X90719571Y37416666D02*
X90767190Y37321428D01*
X90767190Y37321428D02*
X90767190Y37130952D01*
X90767190Y37130952D02*
X90814809Y37035714D01*
X90814809Y37035714D02*
X90862428Y36988095D01*
X90862428Y36988095D02*
X90957666Y36940476D01*
X90957666Y36940476D02*
X91148142Y36940476D01*
X91148142Y36940476D02*
X91243380Y36988095D01*
X91243380Y36988095D02*
X91291000Y37035714D01*
X91291000Y37035714D02*
X91338619Y37130952D01*
X91338619Y37130952D02*
X91338619Y37321428D01*
X91338619Y37321428D02*
X91291000Y37416666D01*
X91291000Y37416666D02*
X91243380Y37464285D01*
X91243380Y37464285D02*
X91148142Y37511904D01*
X91148142Y37511904D02*
X90957666Y37511904D01*
X90957666Y37511904D02*
X90862428Y37464285D01*
X90862428Y37464285D02*
X90814809Y37416666D01*
X90814809Y37416666D02*
X90767190Y37321428D01*
%TO.C,U3*%
X107251895Y44205180D02*
X107251895Y43395657D01*
X107251895Y43395657D02*
X107299514Y43300419D01*
X107299514Y43300419D02*
X107347133Y43252800D01*
X107347133Y43252800D02*
X107442371Y43205180D01*
X107442371Y43205180D02*
X107632847Y43205180D01*
X107632847Y43205180D02*
X107728085Y43252800D01*
X107728085Y43252800D02*
X107775704Y43300419D01*
X107775704Y43300419D02*
X107823323Y43395657D01*
X107823323Y43395657D02*
X107823323Y44205180D01*
X108204276Y44205180D02*
X108823323Y44205180D01*
X108823323Y44205180D02*
X108489990Y43824228D01*
X108489990Y43824228D02*
X108632847Y43824228D01*
X108632847Y43824228D02*
X108728085Y43776609D01*
X108728085Y43776609D02*
X108775704Y43728990D01*
X108775704Y43728990D02*
X108823323Y43633752D01*
X108823323Y43633752D02*
X108823323Y43395657D01*
X108823323Y43395657D02*
X108775704Y43300419D01*
X108775704Y43300419D02*
X108728085Y43252800D01*
X108728085Y43252800D02*
X108632847Y43205180D01*
X108632847Y43205180D02*
X108347133Y43205180D01*
X108347133Y43205180D02*
X108251895Y43252800D01*
X108251895Y43252800D02*
X108204276Y43300419D01*
%TO.C,U25*%
X61968619Y27401905D02*
X62778142Y27401905D01*
X62778142Y27401905D02*
X62873380Y27449524D01*
X62873380Y27449524D02*
X62921000Y27497143D01*
X62921000Y27497143D02*
X62968619Y27592381D01*
X62968619Y27592381D02*
X62968619Y27782857D01*
X62968619Y27782857D02*
X62921000Y27878095D01*
X62921000Y27878095D02*
X62873380Y27925714D01*
X62873380Y27925714D02*
X62778142Y27973333D01*
X62778142Y27973333D02*
X61968619Y27973333D01*
X62063857Y28401905D02*
X62016238Y28449524D01*
X62016238Y28449524D02*
X61968619Y28544762D01*
X61968619Y28544762D02*
X61968619Y28782857D01*
X61968619Y28782857D02*
X62016238Y28878095D01*
X62016238Y28878095D02*
X62063857Y28925714D01*
X62063857Y28925714D02*
X62159095Y28973333D01*
X62159095Y28973333D02*
X62254333Y28973333D01*
X62254333Y28973333D02*
X62397190Y28925714D01*
X62397190Y28925714D02*
X62968619Y28354286D01*
X62968619Y28354286D02*
X62968619Y28973333D01*
X61968619Y29878095D02*
X61968619Y29401905D01*
X61968619Y29401905D02*
X62444809Y29354286D01*
X62444809Y29354286D02*
X62397190Y29401905D01*
X62397190Y29401905D02*
X62349571Y29497143D01*
X62349571Y29497143D02*
X62349571Y29735238D01*
X62349571Y29735238D02*
X62397190Y29830476D01*
X62397190Y29830476D02*
X62444809Y29878095D01*
X62444809Y29878095D02*
X62540047Y29925714D01*
X62540047Y29925714D02*
X62778142Y29925714D01*
X62778142Y29925714D02*
X62873380Y29878095D01*
X62873380Y29878095D02*
X62921000Y29830476D01*
X62921000Y29830476D02*
X62968619Y29735238D01*
X62968619Y29735238D02*
X62968619Y29497143D01*
X62968619Y29497143D02*
X62921000Y29401905D01*
X62921000Y29401905D02*
X62873380Y29354286D01*
%TO.C,R17*%
X100198619Y38147142D02*
X99722428Y37813809D01*
X100198619Y37575714D02*
X99198619Y37575714D01*
X99198619Y37575714D02*
X99198619Y37956666D01*
X99198619Y37956666D02*
X99246238Y38051904D01*
X99246238Y38051904D02*
X99293857Y38099523D01*
X99293857Y38099523D02*
X99389095Y38147142D01*
X99389095Y38147142D02*
X99531952Y38147142D01*
X99531952Y38147142D02*
X99627190Y38099523D01*
X99627190Y38099523D02*
X99674809Y38051904D01*
X99674809Y38051904D02*
X99722428Y37956666D01*
X99722428Y37956666D02*
X99722428Y37575714D01*
X100198619Y39099523D02*
X100198619Y38528095D01*
X100198619Y38813809D02*
X99198619Y38813809D01*
X99198619Y38813809D02*
X99341476Y38718571D01*
X99341476Y38718571D02*
X99436714Y38623333D01*
X99436714Y38623333D02*
X99484333Y38528095D01*
X99198619Y39432857D02*
X99198619Y40099523D01*
X99198619Y40099523D02*
X100198619Y39670952D01*
%TO.C,U9*%
X64058619Y38018095D02*
X64868142Y38018095D01*
X64868142Y38018095D02*
X64963380Y38065714D01*
X64963380Y38065714D02*
X65011000Y38113333D01*
X65011000Y38113333D02*
X65058619Y38208571D01*
X65058619Y38208571D02*
X65058619Y38399047D01*
X65058619Y38399047D02*
X65011000Y38494285D01*
X65011000Y38494285D02*
X64963380Y38541904D01*
X64963380Y38541904D02*
X64868142Y38589523D01*
X64868142Y38589523D02*
X64058619Y38589523D01*
X65058619Y39113333D02*
X65058619Y39303809D01*
X65058619Y39303809D02*
X65011000Y39399047D01*
X65011000Y39399047D02*
X64963380Y39446666D01*
X64963380Y39446666D02*
X64820523Y39541904D01*
X64820523Y39541904D02*
X64630047Y39589523D01*
X64630047Y39589523D02*
X64249095Y39589523D01*
X64249095Y39589523D02*
X64153857Y39541904D01*
X64153857Y39541904D02*
X64106238Y39494285D01*
X64106238Y39494285D02*
X64058619Y39399047D01*
X64058619Y39399047D02*
X64058619Y39208571D01*
X64058619Y39208571D02*
X64106238Y39113333D01*
X64106238Y39113333D02*
X64153857Y39065714D01*
X64153857Y39065714D02*
X64249095Y39018095D01*
X64249095Y39018095D02*
X64487190Y39018095D01*
X64487190Y39018095D02*
X64582428Y39065714D01*
X64582428Y39065714D02*
X64630047Y39113333D01*
X64630047Y39113333D02*
X64677666Y39208571D01*
X64677666Y39208571D02*
X64677666Y39399047D01*
X64677666Y39399047D02*
X64630047Y39494285D01*
X64630047Y39494285D02*
X64582428Y39541904D01*
X64582428Y39541904D02*
X64487190Y39589523D01*
%TO.C,U11*%
X101060705Y50915180D02*
X101060705Y50105657D01*
X101060705Y50105657D02*
X101108324Y50010419D01*
X101108324Y50010419D02*
X101155943Y49962800D01*
X101155943Y49962800D02*
X101251181Y49915180D01*
X101251181Y49915180D02*
X101441657Y49915180D01*
X101441657Y49915180D02*
X101536895Y49962800D01*
X101536895Y49962800D02*
X101584514Y50010419D01*
X101584514Y50010419D02*
X101632133Y50105657D01*
X101632133Y50105657D02*
X101632133Y50915180D01*
X102632133Y49915180D02*
X102060705Y49915180D01*
X102346419Y49915180D02*
X102346419Y50915180D01*
X102346419Y50915180D02*
X102251181Y50772323D01*
X102251181Y50772323D02*
X102155943Y50677085D01*
X102155943Y50677085D02*
X102060705Y50629466D01*
X103584514Y49915180D02*
X103013086Y49915180D01*
X103298800Y49915180D02*
X103298800Y50915180D01*
X103298800Y50915180D02*
X103203562Y50772323D01*
X103203562Y50772323D02*
X103108324Y50677085D01*
X103108324Y50677085D02*
X103013086Y50629466D01*
%TO.C,U2*%
X33578619Y38018095D02*
X34388142Y38018095D01*
X34388142Y38018095D02*
X34483380Y38065714D01*
X34483380Y38065714D02*
X34531000Y38113333D01*
X34531000Y38113333D02*
X34578619Y38208571D01*
X34578619Y38208571D02*
X34578619Y38399047D01*
X34578619Y38399047D02*
X34531000Y38494285D01*
X34531000Y38494285D02*
X34483380Y38541904D01*
X34483380Y38541904D02*
X34388142Y38589523D01*
X34388142Y38589523D02*
X33578619Y38589523D01*
X33673857Y39018095D02*
X33626238Y39065714D01*
X33626238Y39065714D02*
X33578619Y39160952D01*
X33578619Y39160952D02*
X33578619Y39399047D01*
X33578619Y39399047D02*
X33626238Y39494285D01*
X33626238Y39494285D02*
X33673857Y39541904D01*
X33673857Y39541904D02*
X33769095Y39589523D01*
X33769095Y39589523D02*
X33864333Y39589523D01*
X33864333Y39589523D02*
X34007190Y39541904D01*
X34007190Y39541904D02*
X34578619Y38970476D01*
X34578619Y38970476D02*
X34578619Y39589523D01*
D11*
%TO.C,R37*%
X92123800Y46060000D02*
X95963800Y46060000D01*
X92123800Y44220000D02*
X95963800Y44220000D01*
D12*
%TO.C,J2*%
X114408800Y18420000D02*
X114408800Y49000000D01*
X134018800Y18420000D02*
X114408800Y18420000D01*
X134018800Y18420000D02*
X134018800Y22280000D01*
X134018800Y22280000D02*
X134018800Y45140000D01*
X138448800Y22280000D02*
X134018800Y22280000D01*
X139718800Y23410000D02*
X139718800Y23550000D01*
X139718800Y23550000D02*
X139718800Y43870000D01*
X139718800Y43870000D02*
X139718800Y44010000D01*
X134018800Y45140000D02*
X134018800Y49000000D01*
X138448800Y45140000D02*
X134018800Y45140000D01*
X114408800Y49000000D02*
X134018800Y49000000D01*
X138448800Y22280000D02*
G75*
G03*
X139718800Y23550000I1J1269999D01*
G01*
X139718800Y43870000D02*
G75*
G03*
X138448800Y45140000I-1270000J0D01*
G01*
D11*
%TO.C,U24*%
X73773800Y41430000D02*
X63493800Y41430000D01*
X63493800Y41430000D02*
X63493800Y36130000D01*
X73773800Y39780000D02*
X73773800Y41430000D01*
X73773800Y36130000D02*
X73773800Y37780000D01*
X63493800Y36130000D02*
X73773800Y36130000D01*
X73773800Y39780000D02*
G75*
G03*
X73773800Y37780000I0J-1000000D01*
G01*
%TO.C,U27*%
X73673800Y25990000D02*
X83953800Y25990000D01*
X83953800Y25990000D02*
X83953800Y31290000D01*
X73673800Y27640000D02*
X73673800Y25990000D01*
X73673800Y31290000D02*
X73673800Y29640000D01*
X83953800Y31290000D02*
X73673800Y31290000D01*
X73673800Y27640000D02*
G75*
G03*
X73673800Y29640000I0J1000000D01*
G01*
%TO.C,U26*%
X83933800Y41430000D02*
X73653800Y41430000D01*
X73653800Y41430000D02*
X73653800Y36130000D01*
X83933800Y39780000D02*
X83933800Y41430000D01*
X83933800Y36130000D02*
X83933800Y37780000D01*
X73653800Y36130000D02*
X83933800Y36130000D01*
X83933800Y39780000D02*
G75*
G03*
X83933800Y37780000I0J-1000000D01*
G01*
%TO.C,R38*%
X95963800Y46760000D02*
X92123800Y46760000D01*
X95963800Y48600000D02*
X92123800Y48600000D01*
%TO.C,U10*%
X53353800Y25990000D02*
X63633800Y25990000D01*
X63633800Y25990000D02*
X63633800Y31290000D01*
X53353800Y27640000D02*
X53353800Y25990000D01*
X53353800Y31290000D02*
X53353800Y29640000D01*
X63633800Y31290000D02*
X53353800Y31290000D01*
X53353800Y27640000D02*
G75*
G03*
X53353800Y29640000I0J1000000D01*
G01*
%TO.C,U1*%
X92663800Y42660000D02*
X92663800Y24760000D01*
X92663800Y24760000D02*
X97963800Y24760000D01*
X94313800Y42660000D02*
X92663800Y42660000D01*
X97963800Y42660000D02*
X96313800Y42660000D01*
X97963800Y24760000D02*
X97963800Y42660000D01*
X94313800Y42660000D02*
G75*
G03*
X96313800Y42660000I1000000J0D01*
G01*
%TO.C,U8*%
X43183800Y25980000D02*
X53463800Y25980000D01*
X53463800Y25980000D02*
X53463800Y31280000D01*
X43183800Y27630000D02*
X43183800Y25980000D01*
X43183800Y31280000D02*
X43183800Y29630000D01*
X53463800Y31280000D02*
X43183800Y31280000D01*
X43183800Y27630000D02*
G75*
G03*
X43183800Y29630000I0J1000000D01*
G01*
%TO.C,U5*%
X43283800Y41430000D02*
X33003800Y41430000D01*
X33003800Y41430000D02*
X33003800Y36130000D01*
X43283800Y39780000D02*
X43283800Y41430000D01*
X43283800Y36130000D02*
X43283800Y37780000D01*
X33003800Y36130000D02*
X43283800Y36130000D01*
X43283800Y39780000D02*
G75*
G03*
X43283800Y37780000I0J-1000000D01*
G01*
%TO.C,U7*%
X53443800Y41430000D02*
X43163800Y41430000D01*
X43163800Y41430000D02*
X43163800Y36130000D01*
X53443800Y39780000D02*
X53443800Y41430000D01*
X53443800Y36130000D02*
X53443800Y37780000D01*
X43163800Y36130000D02*
X53443800Y36130000D01*
X53443800Y39780000D02*
G75*
G03*
X53443800Y37780000I0J-1000000D01*
G01*
%TO.C,U6*%
X33033800Y25990000D02*
X43313800Y25990000D01*
X43313800Y25990000D02*
X43313800Y31290000D01*
X33033800Y27640000D02*
X33033800Y25990000D01*
X33033800Y31290000D02*
X33033800Y29640000D01*
X43313800Y31290000D02*
X33033800Y31290000D01*
X33033800Y27640000D02*
G75*
G03*
X33033800Y29640000I0J1000000D01*
G01*
%TO.C,U4*%
X22873800Y25990000D02*
X33153800Y25990000D01*
X33153800Y25990000D02*
X33153800Y31290000D01*
X22873800Y27640000D02*
X22873800Y25990000D01*
X22873800Y31290000D02*
X22873800Y29640000D01*
X33153800Y31290000D02*
X22873800Y31290000D01*
X22873800Y27640000D02*
G75*
G03*
X22873800Y29640000I0J1000000D01*
G01*
%TO.C,R18*%
X89883800Y38170000D02*
X89883800Y34330000D01*
X88043800Y38170000D02*
X88043800Y34330000D01*
%TO.C,U3*%
X105363800Y42660000D02*
X105363800Y24760000D01*
X105363800Y24760000D02*
X110663800Y24760000D01*
X107013800Y42660000D02*
X105363800Y42660000D01*
X110663800Y42660000D02*
X109013800Y42660000D01*
X110663800Y24760000D02*
X110663800Y42660000D01*
X107013800Y42660000D02*
G75*
G03*
X109013800Y42660000I1000000J0D01*
G01*
%TO.C,U25*%
X63513800Y25990000D02*
X73793800Y25990000D01*
X73793800Y25990000D02*
X73793800Y31290000D01*
X63513800Y27640000D02*
X63513800Y25990000D01*
X63513800Y31290000D02*
X63513800Y29640000D01*
X73793800Y31290000D02*
X63513800Y31290000D01*
X63513800Y27640000D02*
G75*
G03*
X63513800Y29640000I0J1000000D01*
G01*
%TO.C,R17*%
X100743800Y36870000D02*
X100743800Y40710000D01*
X102583800Y36870000D02*
X102583800Y40710000D01*
%TO.C,U9*%
X63603800Y41430000D02*
X53323800Y41430000D01*
X53323800Y41430000D02*
X53323800Y36130000D01*
X63603800Y39780000D02*
X63603800Y41430000D01*
X63603800Y36130000D02*
X63603800Y37780000D01*
X53323800Y36130000D02*
X63603800Y36130000D01*
X63603800Y39780000D02*
G75*
G03*
X63603800Y37780000I0J-1000000D01*
G01*
%TO.C,U11*%
X97178800Y49370000D02*
X97178800Y44729000D01*
X97178800Y49370000D02*
X107418800Y49370000D01*
X97178800Y47860000D02*
X107418800Y47860000D01*
X97178800Y44729000D02*
X107418800Y44729000D01*
X100448800Y49370000D02*
X100448800Y47860000D01*
X104149800Y49370000D02*
X104149800Y47860000D01*
X107418800Y49370000D02*
X107418800Y44729000D01*
%TO.C,U2*%
X33123800Y41430000D02*
X22843800Y41430000D01*
X22843800Y41430000D02*
X22843800Y36130000D01*
X33123800Y39780000D02*
X33123800Y41430000D01*
X33123800Y36130000D02*
X33123800Y37780000D01*
X22843800Y36130000D02*
X33123800Y36130000D01*
X33123800Y39780000D02*
G75*
G03*
X33123800Y37780000I0J-1000000D01*
G01*
%TD*%
M02*
