M48
; DRILL file {KiCad 7.0.5} date Wed Sep 25 19:50:03 2024
; FORMAT={-:-/ absolute / inch / decimal}
; #@! TF.CreationDate,2024-09-25T19:50:03-04:00
; #@! TF.GenerationSoftware,Kicad,Pcbnew,7.0.5
; #@! TF.FileFunction,Plated,1,2,PTH
FMAT,2
INCH
; #@! TA.AperFunction,Plated,PTH,ViaDrill
T1C0.0157
; #@! TA.AperFunction,Plated,PTH,ComponentDrill
T2C0.0276
; #@! TA.AperFunction,Plated,PTH,ComponentDrill
T3C0.0315
; #@! TA.AperFunction,Plated,PTH,ComponentDrill
T4C0.0433
; #@! TA.AperFunction,Plated,PTH,ComponentDrill
T5C0.0472
; #@! TA.AperFunction,Plated,PTH,ViaDrill
T6C0.0945
; #@! TA.AperFunction,Plated,PTH,ComponentDrill
T7C0.1250
; #@! TA.AperFunction,Plated,PTH,ViaDrill
T8C0.1575
%
G90
G05
T1
X1.0025Y1.3272
X1.1025Y1.3272
X1.2025Y1.3272
X1.4025Y1.3272
X1.5025Y1.3272
X1.6025Y1.3272
X1.8025Y1.3272
X1.9025Y1.3272
X2.0025Y1.3272
X2.2025Y1.3272
X2.3025Y1.3272
X2.4025Y1.3272
X2.6025Y1.3272
X2.7025Y1.3272
X2.8025Y1.3272
X3.0025Y1.3272
X3.1025Y1.3272
X3.2025Y1.3272
X3.5025Y1.2272
X3.5325Y1.1272
X3.9525Y1.2772
X4.0025Y1.3272
X4.0025Y1.1272
X4.0025Y1.0272
X4.0455Y1.1826
X4.4025Y0.8772
T2
X3.5025Y1.5272
X3.5025Y1.3272
X3.6025Y1.7772
X3.8025Y2.0772
X3.8025Y1.8772
X3.8025Y1.7772
X4.0025Y1.6272
X4.0025Y1.4272
T3
X0.9517Y1.6768
X0.9517Y1.3768
X0.9529Y1.2776
X0.9529Y0.9776
X1.0517Y1.6768
X1.0517Y1.3768
X1.0529Y1.2776
X1.0529Y0.9776
X1.1517Y1.6768
X1.1517Y1.3768
X1.1529Y1.2776
X1.1529Y0.9776
X1.2517Y1.6768
X1.2517Y1.3768
X1.2529Y1.2776
X1.2529Y0.9776
X1.3517Y1.6768
X1.3517Y1.3768
X1.3529Y1.2776
X1.3529Y0.9776
X1.4517Y1.6768
X1.4517Y1.3768
X1.4529Y1.2776
X1.4529Y0.9776
X1.5517Y1.6768
X1.5517Y1.3768
X1.5529Y1.2776
X1.5529Y0.9776
X1.6517Y1.6768
X1.6517Y1.3768
X1.6529Y1.2776
X1.6529Y0.9776
X1.7517Y1.6768
X1.7517Y1.3768
X1.7525Y1.2772
X1.7525Y0.9772
X1.8517Y1.6768
X1.8517Y1.3768
X1.8525Y1.2772
X1.8525Y0.9772
X1.9517Y1.6768
X1.9517Y1.3768
X1.9525Y1.2772
X1.9525Y0.9772
X2.0517Y1.6768
X2.0517Y1.3768
X2.0525Y1.2772
X2.0525Y0.9772
X2.1517Y1.6768
X2.1517Y1.3768
X2.1529Y1.2776
X2.1529Y0.9776
X2.2517Y1.6768
X2.2517Y1.3768
X2.2529Y1.2776
X2.2529Y0.9776
X2.3517Y1.6768
X2.3517Y1.3768
X2.3529Y1.2776
X2.3529Y0.9776
X2.4517Y1.6768
X2.4517Y1.3768
X2.4529Y1.2776
X2.4529Y0.9776
X2.5521Y1.6768
X2.5521Y1.3768
X2.5529Y1.2776
X2.5529Y0.9776
X2.6521Y1.6768
X2.6521Y1.3768
X2.6529Y1.2776
X2.6529Y0.9776
X2.7521Y1.6768
X2.7521Y1.3768
X2.7529Y1.2776
X2.7529Y0.9776
X2.8521Y1.6768
X2.8521Y1.3768
X2.8529Y1.2776
X2.8529Y0.9776
X2.9521Y1.6768
X2.9521Y1.3768
X2.9529Y1.2776
X2.9529Y0.9776
X3.0521Y1.6768
X3.0521Y1.3768
X3.0529Y1.2776
X3.0529Y0.9776
X3.1521Y1.6768
X3.1521Y1.3768
X3.1529Y1.2776
X3.1529Y0.9776
X3.2521Y1.6768
X3.2521Y1.3768
X3.2529Y1.2776
X3.2529Y0.9776
X3.6025Y1.6272
X3.6025Y1.5272
X3.6025Y1.4272
X3.6025Y1.3272
X3.6025Y1.2272
X3.6025Y1.1272
X3.6025Y1.0272
X3.9025Y1.6272
X3.9025Y1.5272
X3.9025Y1.4272
X3.9025Y1.3272
X3.9025Y1.2272
X3.9025Y1.1272
X3.9025Y1.0272
X4.1025Y1.6272
X4.1025Y1.5272
X4.1025Y1.4272
X4.1025Y1.3272
X4.1025Y1.2272
X4.1025Y1.1272
X4.1025Y1.0272
X4.4025Y1.6272
X4.4025Y1.5272
X4.4025Y1.4272
X4.4025Y1.3272
X4.4025Y1.2272
X4.4025Y1.1272
X4.4025Y1.0272
T4
X3.9275Y1.815
X4.0275Y1.815
X4.1275Y1.815
T5
X4.5807Y1.5453
X4.5807Y1.4362
X4.5807Y1.3272
X4.5807Y1.2181
X4.5807Y1.1091
X4.6925Y1.4907
X4.6925Y1.3817
X4.6925Y1.2726
X4.6925Y1.1636
X4.8464Y1.5453
X4.8464Y1.4362
X4.8464Y1.3272
X4.8464Y1.2181
X4.8464Y1.1091
X4.9582Y1.4907
X4.9582Y1.3817
X4.9582Y1.2726
X4.9582Y1.1636
T6
X1.299Y0.5807
X1.3084Y2.0827
X1.6738Y0.5803
X1.6832Y2.0823
X2.049Y0.5803
X2.0584Y2.0823
X3.1746Y0.5803
X3.184Y2.0823
X3.5498Y0.5803
X3.5592Y2.0823
X3.925Y0.5803
X3.9344Y2.0823
T7
X4.6433Y1.8189
X4.6433Y0.8354
X4.9582Y1.8189
X4.9582Y0.8354
T8
X0.9234Y0.5803
X0.9328Y2.0823
X2.4242Y0.5803
X2.4336Y2.0823
X2.7994Y0.5803
X2.8088Y2.0823
X4.3001Y0.5803
X4.3096Y2.0823
T0
M30
