%TF.GenerationSoftware,KiCad,Pcbnew,7.0.5*%
%TF.CreationDate,2024-09-25T18:44:15-04:00*%
%TF.ProjectId,stepper_motor_controller_3_for_cnc,73746570-7065-4725-9f6d-6f746f725f63,rev?*%
%TF.SameCoordinates,Original*%
%TF.FileFunction,Soldermask,Top*%
%TF.FilePolarity,Negative*%
%FSLAX46Y46*%
G04 Gerber Fmt 4.6, Leading zero omitted, Abs format (unit mm)*
G04 Created by KiCad (PCBNEW 7.0.5) date 2024-09-25 18:44:15*
%MOMM*%
%LPD*%
G01*
G04 APERTURE LIST*
%ADD10C,1.400000*%
%ADD11O,1.400000X1.400000*%
%ADD12C,2.004000*%
%ADD13C,4.014000*%
%ADD14R,1.600000X1.600000*%
%ADD15O,1.600000X1.600000*%
%ADD16R,1.905000X2.000000*%
%ADD17O,1.905000X2.000000*%
G04 APERTURE END LIST*
D10*
%TO.C,R37*%
X91503800Y45140000D03*
D11*
X96583800Y45140000D03*
%TD*%
D12*
%TO.C,J2*%
X123098800Y28170000D03*
X116348800Y28170000D03*
X123098800Y30940000D03*
X116348800Y30940000D03*
X123098800Y33710000D03*
X116348800Y33710000D03*
X123098800Y36480000D03*
X116348800Y36480000D03*
X123098800Y39250000D03*
X116348800Y39250000D03*
X125938800Y29555000D03*
X119188800Y29555000D03*
X125938800Y32325000D03*
X119188800Y32325000D03*
X125938800Y35095000D03*
X119188800Y35095000D03*
X125938800Y37865000D03*
X119188800Y37865000D03*
D13*
X117938800Y21220000D03*
X125938800Y21220000D03*
X117938800Y46200000D03*
X125938800Y46200000D03*
%TD*%
D14*
%TO.C,U24*%
X72443800Y42590000D03*
D15*
X69903800Y42590000D03*
X67363800Y42590000D03*
X64823800Y42590000D03*
X64823800Y34970000D03*
X67363800Y34970000D03*
X69903800Y34970000D03*
X72443800Y34970000D03*
%TD*%
D14*
%TO.C,U27*%
X75003800Y24830000D03*
D15*
X77543800Y24830000D03*
X80083800Y24830000D03*
X82623800Y24830000D03*
X82623800Y32450000D03*
X80083800Y32450000D03*
X77543800Y32450000D03*
X75003800Y32450000D03*
%TD*%
D14*
%TO.C,U26*%
X82603800Y42590000D03*
D15*
X80063800Y42590000D03*
X77523800Y42590000D03*
X74983800Y42590000D03*
X74983800Y34970000D03*
X77523800Y34970000D03*
X80063800Y34970000D03*
X82603800Y34970000D03*
%TD*%
D10*
%TO.C,R38*%
X96583800Y47680000D03*
D11*
X91503800Y47680000D03*
%TD*%
D14*
%TO.C,U10*%
X54683800Y24830000D03*
D15*
X57223800Y24830000D03*
X59763800Y24830000D03*
X62303800Y24830000D03*
X62303800Y32450000D03*
X59763800Y32450000D03*
X57223800Y32450000D03*
X54683800Y32450000D03*
%TD*%
D14*
%TO.C,U1*%
X91503800Y41330000D03*
D15*
X91503800Y38790000D03*
X91503800Y36250000D03*
X91503800Y33710000D03*
X91503800Y31170000D03*
X91503800Y28630000D03*
X91503800Y26090000D03*
X99123800Y26090000D03*
X99123800Y28630000D03*
X99123800Y31170000D03*
X99123800Y33710000D03*
X99123800Y36250000D03*
X99123800Y38790000D03*
X99123800Y41330000D03*
%TD*%
D14*
%TO.C,U8*%
X44513800Y24820000D03*
D15*
X47053800Y24820000D03*
X49593800Y24820000D03*
X52133800Y24820000D03*
X52133800Y32440000D03*
X49593800Y32440000D03*
X47053800Y32440000D03*
X44513800Y32440000D03*
%TD*%
D14*
%TO.C,U5*%
X41953800Y42590000D03*
D15*
X39413800Y42590000D03*
X36873800Y42590000D03*
X34333800Y42590000D03*
X34333800Y34970000D03*
X36873800Y34970000D03*
X39413800Y34970000D03*
X41953800Y34970000D03*
%TD*%
D14*
%TO.C,U7*%
X52113800Y42590000D03*
D15*
X49573800Y42590000D03*
X47033800Y42590000D03*
X44493800Y42590000D03*
X44493800Y34970000D03*
X47033800Y34970000D03*
X49573800Y34970000D03*
X52113800Y34970000D03*
%TD*%
D14*
%TO.C,U6*%
X34363800Y24830000D03*
D15*
X36903800Y24830000D03*
X39443800Y24830000D03*
X41983800Y24830000D03*
X41983800Y32450000D03*
X39443800Y32450000D03*
X36903800Y32450000D03*
X34363800Y32450000D03*
%TD*%
D14*
%TO.C,U4*%
X24203800Y24830000D03*
D15*
X26743800Y24830000D03*
X29283800Y24830000D03*
X31823800Y24830000D03*
X31823800Y32450000D03*
X29283800Y32450000D03*
X26743800Y32450000D03*
X24203800Y32450000D03*
%TD*%
D10*
%TO.C,R18*%
X88963800Y38790000D03*
D11*
X88963800Y33710000D03*
%TD*%
D14*
%TO.C,U3*%
X104203800Y41330000D03*
D15*
X104203800Y38790000D03*
X104203800Y36250000D03*
X104203800Y33710000D03*
X104203800Y31170000D03*
X104203800Y28630000D03*
X104203800Y26090000D03*
X111823800Y26090000D03*
X111823800Y28630000D03*
X111823800Y31170000D03*
X111823800Y33710000D03*
X111823800Y36250000D03*
X111823800Y38790000D03*
X111823800Y41330000D03*
%TD*%
D14*
%TO.C,U25*%
X64843800Y24830000D03*
D15*
X67383800Y24830000D03*
X69923800Y24830000D03*
X72463800Y24830000D03*
X72463800Y32450000D03*
X69923800Y32450000D03*
X67383800Y32450000D03*
X64843800Y32450000D03*
%TD*%
D10*
%TO.C,R17*%
X101663800Y36250000D03*
D11*
X101663800Y41330000D03*
%TD*%
D14*
%TO.C,U9*%
X62273800Y42590000D03*
D15*
X59733800Y42590000D03*
X57193800Y42590000D03*
X54653800Y42590000D03*
X54653800Y34970000D03*
X57193800Y34970000D03*
X59733800Y34970000D03*
X62273800Y34970000D03*
%TD*%
D16*
%TO.C,U11*%
X99758800Y46100000D03*
D17*
X102298800Y46100000D03*
X104838800Y46100000D03*
%TD*%
D14*
%TO.C,U2*%
X31793800Y42590000D03*
D15*
X29253800Y42590000D03*
X26713800Y42590000D03*
X24173800Y42590000D03*
X24173800Y34970000D03*
X26713800Y34970000D03*
X29253800Y34970000D03*
X31793800Y34970000D03*
%TD*%
M02*
