%TF.GenerationSoftware,KiCad,Pcbnew,7.0.5*%
%TF.CreationDate,2024-09-25T18:26:52-04:00*%
%TF.ProjectId,stepper_motor_controller_3_for_cnc,73746570-7065-4725-9f6d-6f746f725f63,rev?*%
%TF.SameCoordinates,Original*%
%TF.FileFunction,Soldermask,Top*%
%TF.FilePolarity,Negative*%
%FSLAX46Y46*%
G04 Gerber Fmt 4.6, Leading zero omitted, Abs format (unit mm)*
G04 Created by KiCad (PCBNEW 7.0.5) date 2024-09-25 18:26:52*
%MOMM*%
%LPD*%
G01*
G04 APERTURE LIST*
%ADD10C,1.400000*%
%ADD11O,1.400000X1.400000*%
%ADD12C,2.004000*%
%ADD13C,4.014000*%
%ADD14R,1.600000X1.600000*%
%ADD15O,1.600000X1.600000*%
%ADD16R,1.905000X2.000000*%
%ADD17O,1.905000X2.000000*%
G04 APERTURE END LIST*
D10*
%TO.C,R37*%
X208280000Y-57730000D03*
D11*
X213360000Y-57730000D03*
%TD*%
D12*
%TO.C,J2*%
X239875000Y-74700000D03*
X233125000Y-74700000D03*
X239875000Y-71930000D03*
X233125000Y-71930000D03*
X239875000Y-69160000D03*
X233125000Y-69160000D03*
X239875000Y-66390000D03*
X233125000Y-66390000D03*
X239875000Y-63620000D03*
X233125000Y-63620000D03*
X242715000Y-73315000D03*
X235965000Y-73315000D03*
X242715000Y-70545000D03*
X235965000Y-70545000D03*
X242715000Y-67775000D03*
X235965000Y-67775000D03*
X242715000Y-65005000D03*
X235965000Y-65005000D03*
D13*
X234715000Y-81650000D03*
X242715000Y-81650000D03*
X234715000Y-56670000D03*
X242715000Y-56670000D03*
%TD*%
D14*
%TO.C,U24*%
X189220000Y-60280000D03*
D15*
X186680000Y-60280000D03*
X184140000Y-60280000D03*
X181600000Y-60280000D03*
X181600000Y-67900000D03*
X184140000Y-67900000D03*
X186680000Y-67900000D03*
X189220000Y-67900000D03*
%TD*%
D14*
%TO.C,U27*%
X191780000Y-78040000D03*
D15*
X194320000Y-78040000D03*
X196860000Y-78040000D03*
X199400000Y-78040000D03*
X199400000Y-70420000D03*
X196860000Y-70420000D03*
X194320000Y-70420000D03*
X191780000Y-70420000D03*
%TD*%
D14*
%TO.C,U26*%
X199380000Y-60280000D03*
D15*
X196840000Y-60280000D03*
X194300000Y-60280000D03*
X191760000Y-60280000D03*
X191760000Y-67900000D03*
X194300000Y-67900000D03*
X196840000Y-67900000D03*
X199380000Y-67900000D03*
%TD*%
D10*
%TO.C,R38*%
X213360000Y-55190000D03*
D11*
X208280000Y-55190000D03*
%TD*%
D14*
%TO.C,U10*%
X171460000Y-78040000D03*
D15*
X174000000Y-78040000D03*
X176540000Y-78040000D03*
X179080000Y-78040000D03*
X179080000Y-70420000D03*
X176540000Y-70420000D03*
X174000000Y-70420000D03*
X171460000Y-70420000D03*
%TD*%
D14*
%TO.C,U1*%
X208280000Y-61540000D03*
D15*
X208280000Y-64080000D03*
X208280000Y-66620000D03*
X208280000Y-69160000D03*
X208280000Y-71700000D03*
X208280000Y-74240000D03*
X208280000Y-76780000D03*
X215900000Y-76780000D03*
X215900000Y-74240000D03*
X215900000Y-71700000D03*
X215900000Y-69160000D03*
X215900000Y-66620000D03*
X215900000Y-64080000D03*
X215900000Y-61540000D03*
%TD*%
D14*
%TO.C,U8*%
X161290000Y-78050000D03*
D15*
X163830000Y-78050000D03*
X166370000Y-78050000D03*
X168910000Y-78050000D03*
X168910000Y-70430000D03*
X166370000Y-70430000D03*
X163830000Y-70430000D03*
X161290000Y-70430000D03*
%TD*%
D14*
%TO.C,U5*%
X158730000Y-60280000D03*
D15*
X156190000Y-60280000D03*
X153650000Y-60280000D03*
X151110000Y-60280000D03*
X151110000Y-67900000D03*
X153650000Y-67900000D03*
X156190000Y-67900000D03*
X158730000Y-67900000D03*
%TD*%
D14*
%TO.C,U7*%
X168890000Y-60280000D03*
D15*
X166350000Y-60280000D03*
X163810000Y-60280000D03*
X161270000Y-60280000D03*
X161270000Y-67900000D03*
X163810000Y-67900000D03*
X166350000Y-67900000D03*
X168890000Y-67900000D03*
%TD*%
D14*
%TO.C,U6*%
X151140000Y-78040000D03*
D15*
X153680000Y-78040000D03*
X156220000Y-78040000D03*
X158760000Y-78040000D03*
X158760000Y-70420000D03*
X156220000Y-70420000D03*
X153680000Y-70420000D03*
X151140000Y-70420000D03*
%TD*%
D14*
%TO.C,U4*%
X140980000Y-78040000D03*
D15*
X143520000Y-78040000D03*
X146060000Y-78040000D03*
X148600000Y-78040000D03*
X148600000Y-70420000D03*
X146060000Y-70420000D03*
X143520000Y-70420000D03*
X140980000Y-70420000D03*
%TD*%
D10*
%TO.C,R18*%
X205740000Y-64080000D03*
D11*
X205740000Y-69160000D03*
%TD*%
D14*
%TO.C,U3*%
X220980000Y-61540000D03*
D15*
X220980000Y-64080000D03*
X220980000Y-66620000D03*
X220980000Y-69160000D03*
X220980000Y-71700000D03*
X220980000Y-74240000D03*
X220980000Y-76780000D03*
X228600000Y-76780000D03*
X228600000Y-74240000D03*
X228600000Y-71700000D03*
X228600000Y-69160000D03*
X228600000Y-66620000D03*
X228600000Y-64080000D03*
X228600000Y-61540000D03*
%TD*%
D14*
%TO.C,U25*%
X181620000Y-78040000D03*
D15*
X184160000Y-78040000D03*
X186700000Y-78040000D03*
X189240000Y-78040000D03*
X189240000Y-70420000D03*
X186700000Y-70420000D03*
X184160000Y-70420000D03*
X181620000Y-70420000D03*
%TD*%
D10*
%TO.C,R17*%
X218440000Y-66620000D03*
D11*
X218440000Y-61540000D03*
%TD*%
D14*
%TO.C,U9*%
X179050000Y-60280000D03*
D15*
X176510000Y-60280000D03*
X173970000Y-60280000D03*
X171430000Y-60280000D03*
X171430000Y-67900000D03*
X173970000Y-67900000D03*
X176510000Y-67900000D03*
X179050000Y-67900000D03*
%TD*%
D16*
%TO.C,U11*%
X216535000Y-56770000D03*
D17*
X219075000Y-56770000D03*
X221615000Y-56770000D03*
%TD*%
D14*
%TO.C,U2*%
X148570000Y-60280000D03*
D15*
X146030000Y-60280000D03*
X143490000Y-60280000D03*
X140950000Y-60280000D03*
X140950000Y-67900000D03*
X143490000Y-67900000D03*
X146030000Y-67900000D03*
X148570000Y-67900000D03*
%TD*%
M02*
