%TF.GenerationSoftware,KiCad,Pcbnew,7.0.5*%
%TF.CreationDate,2024-09-25T18:44:15-04:00*%
%TF.ProjectId,stepper_motor_controller_3_for_cnc,73746570-7065-4725-9f6d-6f746f725f63,rev?*%
%TF.SameCoordinates,Original*%
%TF.FileFunction,Legend,Bot*%
%TF.FilePolarity,Positive*%
%FSLAX46Y46*%
G04 Gerber Fmt 4.6, Leading zero omitted, Abs format (unit mm)*
G04 Created by KiCad (PCBNEW 7.0.5) date 2024-09-25 18:44:15*
%MOMM*%
%LPD*%
G01*
G04 APERTURE LIST*
%ADD10C,0.150000*%
%ADD11C,0.120000*%
G04 APERTURE END LIST*
D10*
%TO.C,R70*%
X63468619Y21652857D02*
X62992428Y21986190D01*
X63468619Y22224285D02*
X62468619Y22224285D01*
X62468619Y22224285D02*
X62468619Y21843333D01*
X62468619Y21843333D02*
X62516238Y21748095D01*
X62516238Y21748095D02*
X62563857Y21700476D01*
X62563857Y21700476D02*
X62659095Y21652857D01*
X62659095Y21652857D02*
X62801952Y21652857D01*
X62801952Y21652857D02*
X62897190Y21700476D01*
X62897190Y21700476D02*
X62944809Y21748095D01*
X62944809Y21748095D02*
X62992428Y21843333D01*
X62992428Y21843333D02*
X62992428Y22224285D01*
X62468619Y21319523D02*
X62468619Y20652857D01*
X62468619Y20652857D02*
X63468619Y21081428D01*
X62468619Y20081428D02*
X62468619Y19986190D01*
X62468619Y19986190D02*
X62516238Y19890952D01*
X62516238Y19890952D02*
X62563857Y19843333D01*
X62563857Y19843333D02*
X62659095Y19795714D01*
X62659095Y19795714D02*
X62849571Y19748095D01*
X62849571Y19748095D02*
X63087666Y19748095D01*
X63087666Y19748095D02*
X63278142Y19795714D01*
X63278142Y19795714D02*
X63373380Y19843333D01*
X63373380Y19843333D02*
X63421000Y19890952D01*
X63421000Y19890952D02*
X63468619Y19986190D01*
X63468619Y19986190D02*
X63468619Y20081428D01*
X63468619Y20081428D02*
X63421000Y20176666D01*
X63421000Y20176666D02*
X63373380Y20224285D01*
X63373380Y20224285D02*
X63278142Y20271904D01*
X63278142Y20271904D02*
X63087666Y20319523D01*
X63087666Y20319523D02*
X62849571Y20319523D01*
X62849571Y20319523D02*
X62659095Y20271904D01*
X62659095Y20271904D02*
X62563857Y20224285D01*
X62563857Y20224285D02*
X62516238Y20176666D01*
X62516238Y20176666D02*
X62468619Y20081428D01*
%TO.C,R55*%
X46788619Y47052857D02*
X46312428Y47386190D01*
X46788619Y47624285D02*
X45788619Y47624285D01*
X45788619Y47624285D02*
X45788619Y47243333D01*
X45788619Y47243333D02*
X45836238Y47148095D01*
X45836238Y47148095D02*
X45883857Y47100476D01*
X45883857Y47100476D02*
X45979095Y47052857D01*
X45979095Y47052857D02*
X46121952Y47052857D01*
X46121952Y47052857D02*
X46217190Y47100476D01*
X46217190Y47100476D02*
X46264809Y47148095D01*
X46264809Y47148095D02*
X46312428Y47243333D01*
X46312428Y47243333D02*
X46312428Y47624285D01*
X45788619Y46148095D02*
X45788619Y46624285D01*
X45788619Y46624285D02*
X46264809Y46671904D01*
X46264809Y46671904D02*
X46217190Y46624285D01*
X46217190Y46624285D02*
X46169571Y46529047D01*
X46169571Y46529047D02*
X46169571Y46290952D01*
X46169571Y46290952D02*
X46217190Y46195714D01*
X46217190Y46195714D02*
X46264809Y46148095D01*
X46264809Y46148095D02*
X46360047Y46100476D01*
X46360047Y46100476D02*
X46598142Y46100476D01*
X46598142Y46100476D02*
X46693380Y46148095D01*
X46693380Y46148095D02*
X46741000Y46195714D01*
X46741000Y46195714D02*
X46788619Y46290952D01*
X46788619Y46290952D02*
X46788619Y46529047D01*
X46788619Y46529047D02*
X46741000Y46624285D01*
X46741000Y46624285D02*
X46693380Y46671904D01*
X45788619Y45195714D02*
X45788619Y45671904D01*
X45788619Y45671904D02*
X46264809Y45719523D01*
X46264809Y45719523D02*
X46217190Y45671904D01*
X46217190Y45671904D02*
X46169571Y45576666D01*
X46169571Y45576666D02*
X46169571Y45338571D01*
X46169571Y45338571D02*
X46217190Y45243333D01*
X46217190Y45243333D02*
X46264809Y45195714D01*
X46264809Y45195714D02*
X46360047Y45148095D01*
X46360047Y45148095D02*
X46598142Y45148095D01*
X46598142Y45148095D02*
X46693380Y45195714D01*
X46693380Y45195714D02*
X46741000Y45243333D01*
X46741000Y45243333D02*
X46788619Y45338571D01*
X46788619Y45338571D02*
X46788619Y45576666D01*
X46788619Y45576666D02*
X46741000Y45671904D01*
X46741000Y45671904D02*
X46693380Y45719523D01*
%TO.C,R12*%
X53308619Y21652857D02*
X52832428Y21986190D01*
X53308619Y22224285D02*
X52308619Y22224285D01*
X52308619Y22224285D02*
X52308619Y21843333D01*
X52308619Y21843333D02*
X52356238Y21748095D01*
X52356238Y21748095D02*
X52403857Y21700476D01*
X52403857Y21700476D02*
X52499095Y21652857D01*
X52499095Y21652857D02*
X52641952Y21652857D01*
X52641952Y21652857D02*
X52737190Y21700476D01*
X52737190Y21700476D02*
X52784809Y21748095D01*
X52784809Y21748095D02*
X52832428Y21843333D01*
X52832428Y21843333D02*
X52832428Y22224285D01*
X53308619Y20700476D02*
X53308619Y21271904D01*
X53308619Y20986190D02*
X52308619Y20986190D01*
X52308619Y20986190D02*
X52451476Y21081428D01*
X52451476Y21081428D02*
X52546714Y21176666D01*
X52546714Y21176666D02*
X52594333Y21271904D01*
X52403857Y20319523D02*
X52356238Y20271904D01*
X52356238Y20271904D02*
X52308619Y20176666D01*
X52308619Y20176666D02*
X52308619Y19938571D01*
X52308619Y19938571D02*
X52356238Y19843333D01*
X52356238Y19843333D02*
X52403857Y19795714D01*
X52403857Y19795714D02*
X52499095Y19748095D01*
X52499095Y19748095D02*
X52594333Y19748095D01*
X52594333Y19748095D02*
X52737190Y19795714D01*
X52737190Y19795714D02*
X53308619Y20367142D01*
X53308619Y20367142D02*
X53308619Y19748095D01*
%TO.C,R3*%
X81248619Y21176666D02*
X80772428Y21509999D01*
X81248619Y21748094D02*
X80248619Y21748094D01*
X80248619Y21748094D02*
X80248619Y21367142D01*
X80248619Y21367142D02*
X80296238Y21271904D01*
X80296238Y21271904D02*
X80343857Y21224285D01*
X80343857Y21224285D02*
X80439095Y21176666D01*
X80439095Y21176666D02*
X80581952Y21176666D01*
X80581952Y21176666D02*
X80677190Y21224285D01*
X80677190Y21224285D02*
X80724809Y21271904D01*
X80724809Y21271904D02*
X80772428Y21367142D01*
X80772428Y21367142D02*
X80772428Y21748094D01*
X80248619Y20843332D02*
X80248619Y20224285D01*
X80248619Y20224285D02*
X80629571Y20557618D01*
X80629571Y20557618D02*
X80629571Y20414761D01*
X80629571Y20414761D02*
X80677190Y20319523D01*
X80677190Y20319523D02*
X80724809Y20271904D01*
X80724809Y20271904D02*
X80820047Y20224285D01*
X80820047Y20224285D02*
X81058142Y20224285D01*
X81058142Y20224285D02*
X81153380Y20271904D01*
X81153380Y20271904D02*
X81201000Y20319523D01*
X81201000Y20319523D02*
X81248619Y20414761D01*
X81248619Y20414761D02*
X81248619Y20700475D01*
X81248619Y20700475D02*
X81201000Y20795713D01*
X81201000Y20795713D02*
X81153380Y20843332D01*
%TO.C,R6*%
X74728619Y46576666D02*
X74252428Y46909999D01*
X74728619Y47148094D02*
X73728619Y47148094D01*
X73728619Y47148094D02*
X73728619Y46767142D01*
X73728619Y46767142D02*
X73776238Y46671904D01*
X73776238Y46671904D02*
X73823857Y46624285D01*
X73823857Y46624285D02*
X73919095Y46576666D01*
X73919095Y46576666D02*
X74061952Y46576666D01*
X74061952Y46576666D02*
X74157190Y46624285D01*
X74157190Y46624285D02*
X74204809Y46671904D01*
X74204809Y46671904D02*
X74252428Y46767142D01*
X74252428Y46767142D02*
X74252428Y47148094D01*
X73728619Y45719523D02*
X73728619Y45909999D01*
X73728619Y45909999D02*
X73776238Y46005237D01*
X73776238Y46005237D02*
X73823857Y46052856D01*
X73823857Y46052856D02*
X73966714Y46148094D01*
X73966714Y46148094D02*
X74157190Y46195713D01*
X74157190Y46195713D02*
X74538142Y46195713D01*
X74538142Y46195713D02*
X74633380Y46148094D01*
X74633380Y46148094D02*
X74681000Y46100475D01*
X74681000Y46100475D02*
X74728619Y46005237D01*
X74728619Y46005237D02*
X74728619Y45814761D01*
X74728619Y45814761D02*
X74681000Y45719523D01*
X74681000Y45719523D02*
X74633380Y45671904D01*
X74633380Y45671904D02*
X74538142Y45624285D01*
X74538142Y45624285D02*
X74300047Y45624285D01*
X74300047Y45624285D02*
X74204809Y45671904D01*
X74204809Y45671904D02*
X74157190Y45719523D01*
X74157190Y45719523D02*
X74109571Y45814761D01*
X74109571Y45814761D02*
X74109571Y46005237D01*
X74109571Y46005237D02*
X74157190Y46100475D01*
X74157190Y46100475D02*
X74204809Y46148094D01*
X74204809Y46148094D02*
X74300047Y46195713D01*
%TO.C,R60*%
X34088619Y47052857D02*
X33612428Y47386190D01*
X34088619Y47624285D02*
X33088619Y47624285D01*
X33088619Y47624285D02*
X33088619Y47243333D01*
X33088619Y47243333D02*
X33136238Y47148095D01*
X33136238Y47148095D02*
X33183857Y47100476D01*
X33183857Y47100476D02*
X33279095Y47052857D01*
X33279095Y47052857D02*
X33421952Y47052857D01*
X33421952Y47052857D02*
X33517190Y47100476D01*
X33517190Y47100476D02*
X33564809Y47148095D01*
X33564809Y47148095D02*
X33612428Y47243333D01*
X33612428Y47243333D02*
X33612428Y47624285D01*
X33088619Y46195714D02*
X33088619Y46386190D01*
X33088619Y46386190D02*
X33136238Y46481428D01*
X33136238Y46481428D02*
X33183857Y46529047D01*
X33183857Y46529047D02*
X33326714Y46624285D01*
X33326714Y46624285D02*
X33517190Y46671904D01*
X33517190Y46671904D02*
X33898142Y46671904D01*
X33898142Y46671904D02*
X33993380Y46624285D01*
X33993380Y46624285D02*
X34041000Y46576666D01*
X34041000Y46576666D02*
X34088619Y46481428D01*
X34088619Y46481428D02*
X34088619Y46290952D01*
X34088619Y46290952D02*
X34041000Y46195714D01*
X34041000Y46195714D02*
X33993380Y46148095D01*
X33993380Y46148095D02*
X33898142Y46100476D01*
X33898142Y46100476D02*
X33660047Y46100476D01*
X33660047Y46100476D02*
X33564809Y46148095D01*
X33564809Y46148095D02*
X33517190Y46195714D01*
X33517190Y46195714D02*
X33469571Y46290952D01*
X33469571Y46290952D02*
X33469571Y46481428D01*
X33469571Y46481428D02*
X33517190Y46576666D01*
X33517190Y46576666D02*
X33564809Y46624285D01*
X33564809Y46624285D02*
X33660047Y46671904D01*
X33088619Y45481428D02*
X33088619Y45386190D01*
X33088619Y45386190D02*
X33136238Y45290952D01*
X33136238Y45290952D02*
X33183857Y45243333D01*
X33183857Y45243333D02*
X33279095Y45195714D01*
X33279095Y45195714D02*
X33469571Y45148095D01*
X33469571Y45148095D02*
X33707666Y45148095D01*
X33707666Y45148095D02*
X33898142Y45195714D01*
X33898142Y45195714D02*
X33993380Y45243333D01*
X33993380Y45243333D02*
X34041000Y45290952D01*
X34041000Y45290952D02*
X34088619Y45386190D01*
X34088619Y45386190D02*
X34088619Y45481428D01*
X34088619Y45481428D02*
X34041000Y45576666D01*
X34041000Y45576666D02*
X33993380Y45624285D01*
X33993380Y45624285D02*
X33898142Y45671904D01*
X33898142Y45671904D02*
X33707666Y45719523D01*
X33707666Y45719523D02*
X33469571Y45719523D01*
X33469571Y45719523D02*
X33279095Y45671904D01*
X33279095Y45671904D02*
X33183857Y45624285D01*
X33183857Y45624285D02*
X33136238Y45576666D01*
X33136238Y45576666D02*
X33088619Y45481428D01*
%TO.C,R57*%
X36628619Y47052857D02*
X36152428Y47386190D01*
X36628619Y47624285D02*
X35628619Y47624285D01*
X35628619Y47624285D02*
X35628619Y47243333D01*
X35628619Y47243333D02*
X35676238Y47148095D01*
X35676238Y47148095D02*
X35723857Y47100476D01*
X35723857Y47100476D02*
X35819095Y47052857D01*
X35819095Y47052857D02*
X35961952Y47052857D01*
X35961952Y47052857D02*
X36057190Y47100476D01*
X36057190Y47100476D02*
X36104809Y47148095D01*
X36104809Y47148095D02*
X36152428Y47243333D01*
X36152428Y47243333D02*
X36152428Y47624285D01*
X35628619Y46148095D02*
X35628619Y46624285D01*
X35628619Y46624285D02*
X36104809Y46671904D01*
X36104809Y46671904D02*
X36057190Y46624285D01*
X36057190Y46624285D02*
X36009571Y46529047D01*
X36009571Y46529047D02*
X36009571Y46290952D01*
X36009571Y46290952D02*
X36057190Y46195714D01*
X36057190Y46195714D02*
X36104809Y46148095D01*
X36104809Y46148095D02*
X36200047Y46100476D01*
X36200047Y46100476D02*
X36438142Y46100476D01*
X36438142Y46100476D02*
X36533380Y46148095D01*
X36533380Y46148095D02*
X36581000Y46195714D01*
X36581000Y46195714D02*
X36628619Y46290952D01*
X36628619Y46290952D02*
X36628619Y46529047D01*
X36628619Y46529047D02*
X36581000Y46624285D01*
X36581000Y46624285D02*
X36533380Y46671904D01*
X35628619Y45767142D02*
X35628619Y45100476D01*
X35628619Y45100476D02*
X36628619Y45529047D01*
%TO.C,R39*%
X77268619Y47052857D02*
X76792428Y47386190D01*
X77268619Y47624285D02*
X76268619Y47624285D01*
X76268619Y47624285D02*
X76268619Y47243333D01*
X76268619Y47243333D02*
X76316238Y47148095D01*
X76316238Y47148095D02*
X76363857Y47100476D01*
X76363857Y47100476D02*
X76459095Y47052857D01*
X76459095Y47052857D02*
X76601952Y47052857D01*
X76601952Y47052857D02*
X76697190Y47100476D01*
X76697190Y47100476D02*
X76744809Y47148095D01*
X76744809Y47148095D02*
X76792428Y47243333D01*
X76792428Y47243333D02*
X76792428Y47624285D01*
X76268619Y46719523D02*
X76268619Y46100476D01*
X76268619Y46100476D02*
X76649571Y46433809D01*
X76649571Y46433809D02*
X76649571Y46290952D01*
X76649571Y46290952D02*
X76697190Y46195714D01*
X76697190Y46195714D02*
X76744809Y46148095D01*
X76744809Y46148095D02*
X76840047Y46100476D01*
X76840047Y46100476D02*
X77078142Y46100476D01*
X77078142Y46100476D02*
X77173380Y46148095D01*
X77173380Y46148095D02*
X77221000Y46195714D01*
X77221000Y46195714D02*
X77268619Y46290952D01*
X77268619Y46290952D02*
X77268619Y46576666D01*
X77268619Y46576666D02*
X77221000Y46671904D01*
X77221000Y46671904D02*
X77173380Y46719523D01*
X77268619Y45624285D02*
X77268619Y45433809D01*
X77268619Y45433809D02*
X77221000Y45338571D01*
X77221000Y45338571D02*
X77173380Y45290952D01*
X77173380Y45290952D02*
X77030523Y45195714D01*
X77030523Y45195714D02*
X76840047Y45148095D01*
X76840047Y45148095D02*
X76459095Y45148095D01*
X76459095Y45148095D02*
X76363857Y45195714D01*
X76363857Y45195714D02*
X76316238Y45243333D01*
X76316238Y45243333D02*
X76268619Y45338571D01*
X76268619Y45338571D02*
X76268619Y45529047D01*
X76268619Y45529047D02*
X76316238Y45624285D01*
X76316238Y45624285D02*
X76363857Y45671904D01*
X76363857Y45671904D02*
X76459095Y45719523D01*
X76459095Y45719523D02*
X76697190Y45719523D01*
X76697190Y45719523D02*
X76792428Y45671904D01*
X76792428Y45671904D02*
X76840047Y45624285D01*
X76840047Y45624285D02*
X76887666Y45529047D01*
X76887666Y45529047D02*
X76887666Y45338571D01*
X76887666Y45338571D02*
X76840047Y45243333D01*
X76840047Y45243333D02*
X76792428Y45195714D01*
X76792428Y45195714D02*
X76697190Y45148095D01*
%TO.C,R72*%
X73628619Y21652857D02*
X73152428Y21986190D01*
X73628619Y22224285D02*
X72628619Y22224285D01*
X72628619Y22224285D02*
X72628619Y21843333D01*
X72628619Y21843333D02*
X72676238Y21748095D01*
X72676238Y21748095D02*
X72723857Y21700476D01*
X72723857Y21700476D02*
X72819095Y21652857D01*
X72819095Y21652857D02*
X72961952Y21652857D01*
X72961952Y21652857D02*
X73057190Y21700476D01*
X73057190Y21700476D02*
X73104809Y21748095D01*
X73104809Y21748095D02*
X73152428Y21843333D01*
X73152428Y21843333D02*
X73152428Y22224285D01*
X72628619Y21319523D02*
X72628619Y20652857D01*
X72628619Y20652857D02*
X73628619Y21081428D01*
X72723857Y20319523D02*
X72676238Y20271904D01*
X72676238Y20271904D02*
X72628619Y20176666D01*
X72628619Y20176666D02*
X72628619Y19938571D01*
X72628619Y19938571D02*
X72676238Y19843333D01*
X72676238Y19843333D02*
X72723857Y19795714D01*
X72723857Y19795714D02*
X72819095Y19748095D01*
X72819095Y19748095D02*
X72914333Y19748095D01*
X72914333Y19748095D02*
X73057190Y19795714D01*
X73057190Y19795714D02*
X73628619Y20367142D01*
X73628619Y20367142D02*
X73628619Y19748095D01*
%TO.C,R69*%
X71088619Y21652857D02*
X70612428Y21986190D01*
X71088619Y22224285D02*
X70088619Y22224285D01*
X70088619Y22224285D02*
X70088619Y21843333D01*
X70088619Y21843333D02*
X70136238Y21748095D01*
X70136238Y21748095D02*
X70183857Y21700476D01*
X70183857Y21700476D02*
X70279095Y21652857D01*
X70279095Y21652857D02*
X70421952Y21652857D01*
X70421952Y21652857D02*
X70517190Y21700476D01*
X70517190Y21700476D02*
X70564809Y21748095D01*
X70564809Y21748095D02*
X70612428Y21843333D01*
X70612428Y21843333D02*
X70612428Y22224285D01*
X70088619Y20795714D02*
X70088619Y20986190D01*
X70088619Y20986190D02*
X70136238Y21081428D01*
X70136238Y21081428D02*
X70183857Y21129047D01*
X70183857Y21129047D02*
X70326714Y21224285D01*
X70326714Y21224285D02*
X70517190Y21271904D01*
X70517190Y21271904D02*
X70898142Y21271904D01*
X70898142Y21271904D02*
X70993380Y21224285D01*
X70993380Y21224285D02*
X71041000Y21176666D01*
X71041000Y21176666D02*
X71088619Y21081428D01*
X71088619Y21081428D02*
X71088619Y20890952D01*
X71088619Y20890952D02*
X71041000Y20795714D01*
X71041000Y20795714D02*
X70993380Y20748095D01*
X70993380Y20748095D02*
X70898142Y20700476D01*
X70898142Y20700476D02*
X70660047Y20700476D01*
X70660047Y20700476D02*
X70564809Y20748095D01*
X70564809Y20748095D02*
X70517190Y20795714D01*
X70517190Y20795714D02*
X70469571Y20890952D01*
X70469571Y20890952D02*
X70469571Y21081428D01*
X70469571Y21081428D02*
X70517190Y21176666D01*
X70517190Y21176666D02*
X70564809Y21224285D01*
X70564809Y21224285D02*
X70660047Y21271904D01*
X71088619Y20224285D02*
X71088619Y20033809D01*
X71088619Y20033809D02*
X71041000Y19938571D01*
X71041000Y19938571D02*
X70993380Y19890952D01*
X70993380Y19890952D02*
X70850523Y19795714D01*
X70850523Y19795714D02*
X70660047Y19748095D01*
X70660047Y19748095D02*
X70279095Y19748095D01*
X70279095Y19748095D02*
X70183857Y19795714D01*
X70183857Y19795714D02*
X70136238Y19843333D01*
X70136238Y19843333D02*
X70088619Y19938571D01*
X70088619Y19938571D02*
X70088619Y20129047D01*
X70088619Y20129047D02*
X70136238Y20224285D01*
X70136238Y20224285D02*
X70183857Y20271904D01*
X70183857Y20271904D02*
X70279095Y20319523D01*
X70279095Y20319523D02*
X70517190Y20319523D01*
X70517190Y20319523D02*
X70612428Y20271904D01*
X70612428Y20271904D02*
X70660047Y20224285D01*
X70660047Y20224285D02*
X70707666Y20129047D01*
X70707666Y20129047D02*
X70707666Y19938571D01*
X70707666Y19938571D02*
X70660047Y19843333D01*
X70660047Y19843333D02*
X70612428Y19795714D01*
X70612428Y19795714D02*
X70517190Y19748095D01*
%TO.C,R46*%
X32988619Y21652857D02*
X32512428Y21986190D01*
X32988619Y22224285D02*
X31988619Y22224285D01*
X31988619Y22224285D02*
X31988619Y21843333D01*
X31988619Y21843333D02*
X32036238Y21748095D01*
X32036238Y21748095D02*
X32083857Y21700476D01*
X32083857Y21700476D02*
X32179095Y21652857D01*
X32179095Y21652857D02*
X32321952Y21652857D01*
X32321952Y21652857D02*
X32417190Y21700476D01*
X32417190Y21700476D02*
X32464809Y21748095D01*
X32464809Y21748095D02*
X32512428Y21843333D01*
X32512428Y21843333D02*
X32512428Y22224285D01*
X32321952Y20795714D02*
X32988619Y20795714D01*
X31941000Y21033809D02*
X32655285Y21271904D01*
X32655285Y21271904D02*
X32655285Y20652857D01*
X31988619Y19843333D02*
X31988619Y20033809D01*
X31988619Y20033809D02*
X32036238Y20129047D01*
X32036238Y20129047D02*
X32083857Y20176666D01*
X32083857Y20176666D02*
X32226714Y20271904D01*
X32226714Y20271904D02*
X32417190Y20319523D01*
X32417190Y20319523D02*
X32798142Y20319523D01*
X32798142Y20319523D02*
X32893380Y20271904D01*
X32893380Y20271904D02*
X32941000Y20224285D01*
X32941000Y20224285D02*
X32988619Y20129047D01*
X32988619Y20129047D02*
X32988619Y19938571D01*
X32988619Y19938571D02*
X32941000Y19843333D01*
X32941000Y19843333D02*
X32893380Y19795714D01*
X32893380Y19795714D02*
X32798142Y19748095D01*
X32798142Y19748095D02*
X32560047Y19748095D01*
X32560047Y19748095D02*
X32464809Y19795714D01*
X32464809Y19795714D02*
X32417190Y19843333D01*
X32417190Y19843333D02*
X32369571Y19938571D01*
X32369571Y19938571D02*
X32369571Y20129047D01*
X32369571Y20129047D02*
X32417190Y20224285D01*
X32417190Y20224285D02*
X32464809Y20271904D01*
X32464809Y20271904D02*
X32560047Y20319523D01*
%TO.C,R2*%
X84888619Y46576666D02*
X84412428Y46909999D01*
X84888619Y47148094D02*
X83888619Y47148094D01*
X83888619Y47148094D02*
X83888619Y46767142D01*
X83888619Y46767142D02*
X83936238Y46671904D01*
X83936238Y46671904D02*
X83983857Y46624285D01*
X83983857Y46624285D02*
X84079095Y46576666D01*
X84079095Y46576666D02*
X84221952Y46576666D01*
X84221952Y46576666D02*
X84317190Y46624285D01*
X84317190Y46624285D02*
X84364809Y46671904D01*
X84364809Y46671904D02*
X84412428Y46767142D01*
X84412428Y46767142D02*
X84412428Y47148094D01*
X83983857Y46195713D02*
X83936238Y46148094D01*
X83936238Y46148094D02*
X83888619Y46052856D01*
X83888619Y46052856D02*
X83888619Y45814761D01*
X83888619Y45814761D02*
X83936238Y45719523D01*
X83936238Y45719523D02*
X83983857Y45671904D01*
X83983857Y45671904D02*
X84079095Y45624285D01*
X84079095Y45624285D02*
X84174333Y45624285D01*
X84174333Y45624285D02*
X84317190Y45671904D01*
X84317190Y45671904D02*
X84888619Y46243332D01*
X84888619Y46243332D02*
X84888619Y45624285D01*
%TO.C,R47*%
X26468619Y46860357D02*
X25992428Y47193690D01*
X26468619Y47431785D02*
X25468619Y47431785D01*
X25468619Y47431785D02*
X25468619Y47050833D01*
X25468619Y47050833D02*
X25516238Y46955595D01*
X25516238Y46955595D02*
X25563857Y46907976D01*
X25563857Y46907976D02*
X25659095Y46860357D01*
X25659095Y46860357D02*
X25801952Y46860357D01*
X25801952Y46860357D02*
X25897190Y46907976D01*
X25897190Y46907976D02*
X25944809Y46955595D01*
X25944809Y46955595D02*
X25992428Y47050833D01*
X25992428Y47050833D02*
X25992428Y47431785D01*
X25801952Y46003214D02*
X26468619Y46003214D01*
X25421000Y46241309D02*
X26135285Y46479404D01*
X26135285Y46479404D02*
X26135285Y45860357D01*
X25468619Y45574642D02*
X25468619Y44907976D01*
X25468619Y44907976D02*
X26468619Y45336547D01*
%TO.C,R62*%
X22828619Y21652857D02*
X22352428Y21986190D01*
X22828619Y22224285D02*
X21828619Y22224285D01*
X21828619Y22224285D02*
X21828619Y21843333D01*
X21828619Y21843333D02*
X21876238Y21748095D01*
X21876238Y21748095D02*
X21923857Y21700476D01*
X21923857Y21700476D02*
X22019095Y21652857D01*
X22019095Y21652857D02*
X22161952Y21652857D01*
X22161952Y21652857D02*
X22257190Y21700476D01*
X22257190Y21700476D02*
X22304809Y21748095D01*
X22304809Y21748095D02*
X22352428Y21843333D01*
X22352428Y21843333D02*
X22352428Y22224285D01*
X21828619Y20795714D02*
X21828619Y20986190D01*
X21828619Y20986190D02*
X21876238Y21081428D01*
X21876238Y21081428D02*
X21923857Y21129047D01*
X21923857Y21129047D02*
X22066714Y21224285D01*
X22066714Y21224285D02*
X22257190Y21271904D01*
X22257190Y21271904D02*
X22638142Y21271904D01*
X22638142Y21271904D02*
X22733380Y21224285D01*
X22733380Y21224285D02*
X22781000Y21176666D01*
X22781000Y21176666D02*
X22828619Y21081428D01*
X22828619Y21081428D02*
X22828619Y20890952D01*
X22828619Y20890952D02*
X22781000Y20795714D01*
X22781000Y20795714D02*
X22733380Y20748095D01*
X22733380Y20748095D02*
X22638142Y20700476D01*
X22638142Y20700476D02*
X22400047Y20700476D01*
X22400047Y20700476D02*
X22304809Y20748095D01*
X22304809Y20748095D02*
X22257190Y20795714D01*
X22257190Y20795714D02*
X22209571Y20890952D01*
X22209571Y20890952D02*
X22209571Y21081428D01*
X22209571Y21081428D02*
X22257190Y21176666D01*
X22257190Y21176666D02*
X22304809Y21224285D01*
X22304809Y21224285D02*
X22400047Y21271904D01*
X21923857Y20319523D02*
X21876238Y20271904D01*
X21876238Y20271904D02*
X21828619Y20176666D01*
X21828619Y20176666D02*
X21828619Y19938571D01*
X21828619Y19938571D02*
X21876238Y19843333D01*
X21876238Y19843333D02*
X21923857Y19795714D01*
X21923857Y19795714D02*
X22019095Y19748095D01*
X22019095Y19748095D02*
X22114333Y19748095D01*
X22114333Y19748095D02*
X22257190Y19795714D01*
X22257190Y19795714D02*
X22828619Y20367142D01*
X22828619Y20367142D02*
X22828619Y19748095D01*
%TO.C,R54*%
X64568619Y47052857D02*
X64092428Y47386190D01*
X64568619Y47624285D02*
X63568619Y47624285D01*
X63568619Y47624285D02*
X63568619Y47243333D01*
X63568619Y47243333D02*
X63616238Y47148095D01*
X63616238Y47148095D02*
X63663857Y47100476D01*
X63663857Y47100476D02*
X63759095Y47052857D01*
X63759095Y47052857D02*
X63901952Y47052857D01*
X63901952Y47052857D02*
X63997190Y47100476D01*
X63997190Y47100476D02*
X64044809Y47148095D01*
X64044809Y47148095D02*
X64092428Y47243333D01*
X64092428Y47243333D02*
X64092428Y47624285D01*
X63568619Y46148095D02*
X63568619Y46624285D01*
X63568619Y46624285D02*
X64044809Y46671904D01*
X64044809Y46671904D02*
X63997190Y46624285D01*
X63997190Y46624285D02*
X63949571Y46529047D01*
X63949571Y46529047D02*
X63949571Y46290952D01*
X63949571Y46290952D02*
X63997190Y46195714D01*
X63997190Y46195714D02*
X64044809Y46148095D01*
X64044809Y46148095D02*
X64140047Y46100476D01*
X64140047Y46100476D02*
X64378142Y46100476D01*
X64378142Y46100476D02*
X64473380Y46148095D01*
X64473380Y46148095D02*
X64521000Y46195714D01*
X64521000Y46195714D02*
X64568619Y46290952D01*
X64568619Y46290952D02*
X64568619Y46529047D01*
X64568619Y46529047D02*
X64521000Y46624285D01*
X64521000Y46624285D02*
X64473380Y46671904D01*
X63901952Y45243333D02*
X64568619Y45243333D01*
X63521000Y45481428D02*
X64235285Y45719523D01*
X64235285Y45719523D02*
X64235285Y45100476D01*
%TO.C,R63*%
X40608619Y21652857D02*
X40132428Y21986190D01*
X40608619Y22224285D02*
X39608619Y22224285D01*
X39608619Y22224285D02*
X39608619Y21843333D01*
X39608619Y21843333D02*
X39656238Y21748095D01*
X39656238Y21748095D02*
X39703857Y21700476D01*
X39703857Y21700476D02*
X39799095Y21652857D01*
X39799095Y21652857D02*
X39941952Y21652857D01*
X39941952Y21652857D02*
X40037190Y21700476D01*
X40037190Y21700476D02*
X40084809Y21748095D01*
X40084809Y21748095D02*
X40132428Y21843333D01*
X40132428Y21843333D02*
X40132428Y22224285D01*
X39608619Y20795714D02*
X39608619Y20986190D01*
X39608619Y20986190D02*
X39656238Y21081428D01*
X39656238Y21081428D02*
X39703857Y21129047D01*
X39703857Y21129047D02*
X39846714Y21224285D01*
X39846714Y21224285D02*
X40037190Y21271904D01*
X40037190Y21271904D02*
X40418142Y21271904D01*
X40418142Y21271904D02*
X40513380Y21224285D01*
X40513380Y21224285D02*
X40561000Y21176666D01*
X40561000Y21176666D02*
X40608619Y21081428D01*
X40608619Y21081428D02*
X40608619Y20890952D01*
X40608619Y20890952D02*
X40561000Y20795714D01*
X40561000Y20795714D02*
X40513380Y20748095D01*
X40513380Y20748095D02*
X40418142Y20700476D01*
X40418142Y20700476D02*
X40180047Y20700476D01*
X40180047Y20700476D02*
X40084809Y20748095D01*
X40084809Y20748095D02*
X40037190Y20795714D01*
X40037190Y20795714D02*
X39989571Y20890952D01*
X39989571Y20890952D02*
X39989571Y21081428D01*
X39989571Y21081428D02*
X40037190Y21176666D01*
X40037190Y21176666D02*
X40084809Y21224285D01*
X40084809Y21224285D02*
X40180047Y21271904D01*
X39608619Y20367142D02*
X39608619Y19748095D01*
X39608619Y19748095D02*
X39989571Y20081428D01*
X39989571Y20081428D02*
X39989571Y19938571D01*
X39989571Y19938571D02*
X40037190Y19843333D01*
X40037190Y19843333D02*
X40084809Y19795714D01*
X40084809Y19795714D02*
X40180047Y19748095D01*
X40180047Y19748095D02*
X40418142Y19748095D01*
X40418142Y19748095D02*
X40513380Y19795714D01*
X40513380Y19795714D02*
X40561000Y19843333D01*
X40561000Y19843333D02*
X40608619Y19938571D01*
X40608619Y19938571D02*
X40608619Y20224285D01*
X40608619Y20224285D02*
X40561000Y20319523D01*
X40561000Y20319523D02*
X40513380Y20367142D01*
%TO.C,R44*%
X44248619Y47052857D02*
X43772428Y47386190D01*
X44248619Y47624285D02*
X43248619Y47624285D01*
X43248619Y47624285D02*
X43248619Y47243333D01*
X43248619Y47243333D02*
X43296238Y47148095D01*
X43296238Y47148095D02*
X43343857Y47100476D01*
X43343857Y47100476D02*
X43439095Y47052857D01*
X43439095Y47052857D02*
X43581952Y47052857D01*
X43581952Y47052857D02*
X43677190Y47100476D01*
X43677190Y47100476D02*
X43724809Y47148095D01*
X43724809Y47148095D02*
X43772428Y47243333D01*
X43772428Y47243333D02*
X43772428Y47624285D01*
X43581952Y46195714D02*
X44248619Y46195714D01*
X43201000Y46433809D02*
X43915285Y46671904D01*
X43915285Y46671904D02*
X43915285Y46052857D01*
X43581952Y45243333D02*
X44248619Y45243333D01*
X43201000Y45481428D02*
X43915285Y45719523D01*
X43915285Y45719523D02*
X43915285Y45100476D01*
%TO.C,R14*%
X54408619Y47052857D02*
X53932428Y47386190D01*
X54408619Y47624285D02*
X53408619Y47624285D01*
X53408619Y47624285D02*
X53408619Y47243333D01*
X53408619Y47243333D02*
X53456238Y47148095D01*
X53456238Y47148095D02*
X53503857Y47100476D01*
X53503857Y47100476D02*
X53599095Y47052857D01*
X53599095Y47052857D02*
X53741952Y47052857D01*
X53741952Y47052857D02*
X53837190Y47100476D01*
X53837190Y47100476D02*
X53884809Y47148095D01*
X53884809Y47148095D02*
X53932428Y47243333D01*
X53932428Y47243333D02*
X53932428Y47624285D01*
X54408619Y46100476D02*
X54408619Y46671904D01*
X54408619Y46386190D02*
X53408619Y46386190D01*
X53408619Y46386190D02*
X53551476Y46481428D01*
X53551476Y46481428D02*
X53646714Y46576666D01*
X53646714Y46576666D02*
X53694333Y46671904D01*
X53741952Y45243333D02*
X54408619Y45243333D01*
X53361000Y45481428D02*
X54075285Y45719523D01*
X54075285Y45719523D02*
X54075285Y45100476D01*
%TO.C,R49*%
X30448619Y21652857D02*
X29972428Y21986190D01*
X30448619Y22224285D02*
X29448619Y22224285D01*
X29448619Y22224285D02*
X29448619Y21843333D01*
X29448619Y21843333D02*
X29496238Y21748095D01*
X29496238Y21748095D02*
X29543857Y21700476D01*
X29543857Y21700476D02*
X29639095Y21652857D01*
X29639095Y21652857D02*
X29781952Y21652857D01*
X29781952Y21652857D02*
X29877190Y21700476D01*
X29877190Y21700476D02*
X29924809Y21748095D01*
X29924809Y21748095D02*
X29972428Y21843333D01*
X29972428Y21843333D02*
X29972428Y22224285D01*
X29781952Y20795714D02*
X30448619Y20795714D01*
X29401000Y21033809D02*
X30115285Y21271904D01*
X30115285Y21271904D02*
X30115285Y20652857D01*
X30448619Y20224285D02*
X30448619Y20033809D01*
X30448619Y20033809D02*
X30401000Y19938571D01*
X30401000Y19938571D02*
X30353380Y19890952D01*
X30353380Y19890952D02*
X30210523Y19795714D01*
X30210523Y19795714D02*
X30020047Y19748095D01*
X30020047Y19748095D02*
X29639095Y19748095D01*
X29639095Y19748095D02*
X29543857Y19795714D01*
X29543857Y19795714D02*
X29496238Y19843333D01*
X29496238Y19843333D02*
X29448619Y19938571D01*
X29448619Y19938571D02*
X29448619Y20129047D01*
X29448619Y20129047D02*
X29496238Y20224285D01*
X29496238Y20224285D02*
X29543857Y20271904D01*
X29543857Y20271904D02*
X29639095Y20319523D01*
X29639095Y20319523D02*
X29877190Y20319523D01*
X29877190Y20319523D02*
X29972428Y20271904D01*
X29972428Y20271904D02*
X30020047Y20224285D01*
X30020047Y20224285D02*
X30067666Y20129047D01*
X30067666Y20129047D02*
X30067666Y19938571D01*
X30067666Y19938571D02*
X30020047Y19843333D01*
X30020047Y19843333D02*
X29972428Y19795714D01*
X29972428Y19795714D02*
X29877190Y19748095D01*
%TO.C,R65*%
X50768619Y21652857D02*
X50292428Y21986190D01*
X50768619Y22224285D02*
X49768619Y22224285D01*
X49768619Y22224285D02*
X49768619Y21843333D01*
X49768619Y21843333D02*
X49816238Y21748095D01*
X49816238Y21748095D02*
X49863857Y21700476D01*
X49863857Y21700476D02*
X49959095Y21652857D01*
X49959095Y21652857D02*
X50101952Y21652857D01*
X50101952Y21652857D02*
X50197190Y21700476D01*
X50197190Y21700476D02*
X50244809Y21748095D01*
X50244809Y21748095D02*
X50292428Y21843333D01*
X50292428Y21843333D02*
X50292428Y22224285D01*
X49768619Y20795714D02*
X49768619Y20986190D01*
X49768619Y20986190D02*
X49816238Y21081428D01*
X49816238Y21081428D02*
X49863857Y21129047D01*
X49863857Y21129047D02*
X50006714Y21224285D01*
X50006714Y21224285D02*
X50197190Y21271904D01*
X50197190Y21271904D02*
X50578142Y21271904D01*
X50578142Y21271904D02*
X50673380Y21224285D01*
X50673380Y21224285D02*
X50721000Y21176666D01*
X50721000Y21176666D02*
X50768619Y21081428D01*
X50768619Y21081428D02*
X50768619Y20890952D01*
X50768619Y20890952D02*
X50721000Y20795714D01*
X50721000Y20795714D02*
X50673380Y20748095D01*
X50673380Y20748095D02*
X50578142Y20700476D01*
X50578142Y20700476D02*
X50340047Y20700476D01*
X50340047Y20700476D02*
X50244809Y20748095D01*
X50244809Y20748095D02*
X50197190Y20795714D01*
X50197190Y20795714D02*
X50149571Y20890952D01*
X50149571Y20890952D02*
X50149571Y21081428D01*
X50149571Y21081428D02*
X50197190Y21176666D01*
X50197190Y21176666D02*
X50244809Y21224285D01*
X50244809Y21224285D02*
X50340047Y21271904D01*
X49768619Y19795714D02*
X49768619Y20271904D01*
X49768619Y20271904D02*
X50244809Y20319523D01*
X50244809Y20319523D02*
X50197190Y20271904D01*
X50197190Y20271904D02*
X50149571Y20176666D01*
X50149571Y20176666D02*
X50149571Y19938571D01*
X50149571Y19938571D02*
X50197190Y19843333D01*
X50197190Y19843333D02*
X50244809Y19795714D01*
X50244809Y19795714D02*
X50340047Y19748095D01*
X50340047Y19748095D02*
X50578142Y19748095D01*
X50578142Y19748095D02*
X50673380Y19795714D01*
X50673380Y19795714D02*
X50721000Y19843333D01*
X50721000Y19843333D02*
X50768619Y19938571D01*
X50768619Y19938571D02*
X50768619Y20176666D01*
X50768619Y20176666D02*
X50721000Y20271904D01*
X50721000Y20271904D02*
X50673380Y20319523D01*
%TO.C,R66*%
X43148619Y21652857D02*
X42672428Y21986190D01*
X43148619Y22224285D02*
X42148619Y22224285D01*
X42148619Y22224285D02*
X42148619Y21843333D01*
X42148619Y21843333D02*
X42196238Y21748095D01*
X42196238Y21748095D02*
X42243857Y21700476D01*
X42243857Y21700476D02*
X42339095Y21652857D01*
X42339095Y21652857D02*
X42481952Y21652857D01*
X42481952Y21652857D02*
X42577190Y21700476D01*
X42577190Y21700476D02*
X42624809Y21748095D01*
X42624809Y21748095D02*
X42672428Y21843333D01*
X42672428Y21843333D02*
X42672428Y22224285D01*
X42148619Y20795714D02*
X42148619Y20986190D01*
X42148619Y20986190D02*
X42196238Y21081428D01*
X42196238Y21081428D02*
X42243857Y21129047D01*
X42243857Y21129047D02*
X42386714Y21224285D01*
X42386714Y21224285D02*
X42577190Y21271904D01*
X42577190Y21271904D02*
X42958142Y21271904D01*
X42958142Y21271904D02*
X43053380Y21224285D01*
X43053380Y21224285D02*
X43101000Y21176666D01*
X43101000Y21176666D02*
X43148619Y21081428D01*
X43148619Y21081428D02*
X43148619Y20890952D01*
X43148619Y20890952D02*
X43101000Y20795714D01*
X43101000Y20795714D02*
X43053380Y20748095D01*
X43053380Y20748095D02*
X42958142Y20700476D01*
X42958142Y20700476D02*
X42720047Y20700476D01*
X42720047Y20700476D02*
X42624809Y20748095D01*
X42624809Y20748095D02*
X42577190Y20795714D01*
X42577190Y20795714D02*
X42529571Y20890952D01*
X42529571Y20890952D02*
X42529571Y21081428D01*
X42529571Y21081428D02*
X42577190Y21176666D01*
X42577190Y21176666D02*
X42624809Y21224285D01*
X42624809Y21224285D02*
X42720047Y21271904D01*
X42148619Y19843333D02*
X42148619Y20033809D01*
X42148619Y20033809D02*
X42196238Y20129047D01*
X42196238Y20129047D02*
X42243857Y20176666D01*
X42243857Y20176666D02*
X42386714Y20271904D01*
X42386714Y20271904D02*
X42577190Y20319523D01*
X42577190Y20319523D02*
X42958142Y20319523D01*
X42958142Y20319523D02*
X43053380Y20271904D01*
X43053380Y20271904D02*
X43101000Y20224285D01*
X43101000Y20224285D02*
X43148619Y20129047D01*
X43148619Y20129047D02*
X43148619Y19938571D01*
X43148619Y19938571D02*
X43101000Y19843333D01*
X43101000Y19843333D02*
X43053380Y19795714D01*
X43053380Y19795714D02*
X42958142Y19748095D01*
X42958142Y19748095D02*
X42720047Y19748095D01*
X42720047Y19748095D02*
X42624809Y19795714D01*
X42624809Y19795714D02*
X42577190Y19843333D01*
X42577190Y19843333D02*
X42529571Y19938571D01*
X42529571Y19938571D02*
X42529571Y20129047D01*
X42529571Y20129047D02*
X42577190Y20224285D01*
X42577190Y20224285D02*
X42624809Y20271904D01*
X42624809Y20271904D02*
X42720047Y20319523D01*
%TO.C,R5*%
X67108619Y46576666D02*
X66632428Y46909999D01*
X67108619Y47148094D02*
X66108619Y47148094D01*
X66108619Y47148094D02*
X66108619Y46767142D01*
X66108619Y46767142D02*
X66156238Y46671904D01*
X66156238Y46671904D02*
X66203857Y46624285D01*
X66203857Y46624285D02*
X66299095Y46576666D01*
X66299095Y46576666D02*
X66441952Y46576666D01*
X66441952Y46576666D02*
X66537190Y46624285D01*
X66537190Y46624285D02*
X66584809Y46671904D01*
X66584809Y46671904D02*
X66632428Y46767142D01*
X66632428Y46767142D02*
X66632428Y47148094D01*
X66108619Y45671904D02*
X66108619Y46148094D01*
X66108619Y46148094D02*
X66584809Y46195713D01*
X66584809Y46195713D02*
X66537190Y46148094D01*
X66537190Y46148094D02*
X66489571Y46052856D01*
X66489571Y46052856D02*
X66489571Y45814761D01*
X66489571Y45814761D02*
X66537190Y45719523D01*
X66537190Y45719523D02*
X66584809Y45671904D01*
X66584809Y45671904D02*
X66680047Y45624285D01*
X66680047Y45624285D02*
X66918142Y45624285D01*
X66918142Y45624285D02*
X67013380Y45671904D01*
X67013380Y45671904D02*
X67061000Y45719523D01*
X67061000Y45719523D02*
X67108619Y45814761D01*
X67108619Y45814761D02*
X67108619Y46052856D01*
X67108619Y46052856D02*
X67061000Y46148094D01*
X67061000Y46148094D02*
X67013380Y46195713D01*
%TO.C,R9*%
X56948619Y46576666D02*
X56472428Y46909999D01*
X56948619Y47148094D02*
X55948619Y47148094D01*
X55948619Y47148094D02*
X55948619Y46767142D01*
X55948619Y46767142D02*
X55996238Y46671904D01*
X55996238Y46671904D02*
X56043857Y46624285D01*
X56043857Y46624285D02*
X56139095Y46576666D01*
X56139095Y46576666D02*
X56281952Y46576666D01*
X56281952Y46576666D02*
X56377190Y46624285D01*
X56377190Y46624285D02*
X56424809Y46671904D01*
X56424809Y46671904D02*
X56472428Y46767142D01*
X56472428Y46767142D02*
X56472428Y47148094D01*
X56948619Y46100475D02*
X56948619Y45909999D01*
X56948619Y45909999D02*
X56901000Y45814761D01*
X56901000Y45814761D02*
X56853380Y45767142D01*
X56853380Y45767142D02*
X56710523Y45671904D01*
X56710523Y45671904D02*
X56520047Y45624285D01*
X56520047Y45624285D02*
X56139095Y45624285D01*
X56139095Y45624285D02*
X56043857Y45671904D01*
X56043857Y45671904D02*
X55996238Y45719523D01*
X55996238Y45719523D02*
X55948619Y45814761D01*
X55948619Y45814761D02*
X55948619Y46005237D01*
X55948619Y46005237D02*
X55996238Y46100475D01*
X55996238Y46100475D02*
X56043857Y46148094D01*
X56043857Y46148094D02*
X56139095Y46195713D01*
X56139095Y46195713D02*
X56377190Y46195713D01*
X56377190Y46195713D02*
X56472428Y46148094D01*
X56472428Y46148094D02*
X56520047Y46100475D01*
X56520047Y46100475D02*
X56567666Y46005237D01*
X56567666Y46005237D02*
X56567666Y45814761D01*
X56567666Y45814761D02*
X56520047Y45719523D01*
X56520047Y45719523D02*
X56472428Y45671904D01*
X56472428Y45671904D02*
X56377190Y45624285D01*
%TO.C,R67*%
X60928619Y21652857D02*
X60452428Y21986190D01*
X60928619Y22224285D02*
X59928619Y22224285D01*
X59928619Y22224285D02*
X59928619Y21843333D01*
X59928619Y21843333D02*
X59976238Y21748095D01*
X59976238Y21748095D02*
X60023857Y21700476D01*
X60023857Y21700476D02*
X60119095Y21652857D01*
X60119095Y21652857D02*
X60261952Y21652857D01*
X60261952Y21652857D02*
X60357190Y21700476D01*
X60357190Y21700476D02*
X60404809Y21748095D01*
X60404809Y21748095D02*
X60452428Y21843333D01*
X60452428Y21843333D02*
X60452428Y22224285D01*
X59928619Y20795714D02*
X59928619Y20986190D01*
X59928619Y20986190D02*
X59976238Y21081428D01*
X59976238Y21081428D02*
X60023857Y21129047D01*
X60023857Y21129047D02*
X60166714Y21224285D01*
X60166714Y21224285D02*
X60357190Y21271904D01*
X60357190Y21271904D02*
X60738142Y21271904D01*
X60738142Y21271904D02*
X60833380Y21224285D01*
X60833380Y21224285D02*
X60881000Y21176666D01*
X60881000Y21176666D02*
X60928619Y21081428D01*
X60928619Y21081428D02*
X60928619Y20890952D01*
X60928619Y20890952D02*
X60881000Y20795714D01*
X60881000Y20795714D02*
X60833380Y20748095D01*
X60833380Y20748095D02*
X60738142Y20700476D01*
X60738142Y20700476D02*
X60500047Y20700476D01*
X60500047Y20700476D02*
X60404809Y20748095D01*
X60404809Y20748095D02*
X60357190Y20795714D01*
X60357190Y20795714D02*
X60309571Y20890952D01*
X60309571Y20890952D02*
X60309571Y21081428D01*
X60309571Y21081428D02*
X60357190Y21176666D01*
X60357190Y21176666D02*
X60404809Y21224285D01*
X60404809Y21224285D02*
X60500047Y21271904D01*
X59928619Y20367142D02*
X59928619Y19700476D01*
X59928619Y19700476D02*
X60928619Y20129047D01*
D11*
%TO.C,R70*%
X65743800Y21737064D02*
X65743800Y20282936D01*
X63923800Y21737064D02*
X63923800Y20282936D01*
%TO.C,R55*%
X43603800Y45682936D02*
X43603800Y47137064D01*
X45423800Y45682936D02*
X45423800Y47137064D01*
%TO.C,R12*%
X55583800Y21737064D02*
X55583800Y20282936D01*
X53763800Y21737064D02*
X53763800Y20282936D01*
%TO.C,R3*%
X83523800Y21737064D02*
X83523800Y20282936D01*
X81703800Y21737064D02*
X81703800Y20282936D01*
%TO.C,R6*%
X71543800Y45682936D02*
X71543800Y47137064D01*
X73363800Y45682936D02*
X73363800Y47137064D01*
%TO.C,R60*%
X30903800Y45682936D02*
X30903800Y47137064D01*
X32723800Y45682936D02*
X32723800Y47137064D01*
%TO.C,R57*%
X33443800Y45682936D02*
X33443800Y47137064D01*
X35263800Y45682936D02*
X35263800Y47137064D01*
%TO.C,R39*%
X74083800Y45682936D02*
X74083800Y47137064D01*
X75903800Y45682936D02*
X75903800Y47137064D01*
%TO.C,R72*%
X75903800Y21737064D02*
X75903800Y20282936D01*
X74083800Y21737064D02*
X74083800Y20282936D01*
%TO.C,R69*%
X73363800Y21737064D02*
X73363800Y20282936D01*
X71543800Y21737064D02*
X71543800Y20282936D01*
%TO.C,R46*%
X35263800Y21737064D02*
X35263800Y20282936D01*
X33443800Y21737064D02*
X33443800Y20282936D01*
%TO.C,R2*%
X81703800Y45682936D02*
X81703800Y47137064D01*
X83523800Y45682936D02*
X83523800Y47137064D01*
%TO.C,R47*%
X23283800Y45490436D02*
X23283800Y46944564D01*
X25103800Y45490436D02*
X25103800Y46944564D01*
%TO.C,R62*%
X25103800Y21737064D02*
X25103800Y20282936D01*
X23283800Y21737064D02*
X23283800Y20282936D01*
%TO.C,R54*%
X61383800Y45682936D02*
X61383800Y47137064D01*
X63203800Y45682936D02*
X63203800Y47137064D01*
%TO.C,R63*%
X42883800Y21737064D02*
X42883800Y20282936D01*
X41063800Y21737064D02*
X41063800Y20282936D01*
%TO.C,R44*%
X41063800Y45682936D02*
X41063800Y47137064D01*
X42883800Y45682936D02*
X42883800Y47137064D01*
%TO.C,R14*%
X51223800Y45682936D02*
X51223800Y47137064D01*
X53043800Y45682936D02*
X53043800Y47137064D01*
%TO.C,R49*%
X32723800Y21737064D02*
X32723800Y20282936D01*
X30903800Y21737064D02*
X30903800Y20282936D01*
%TO.C,R65*%
X53043800Y21737064D02*
X53043800Y20282936D01*
X51223800Y21737064D02*
X51223800Y20282936D01*
%TO.C,R66*%
X45423800Y21737064D02*
X45423800Y20282936D01*
X43603800Y21737064D02*
X43603800Y20282936D01*
%TO.C,R5*%
X63923800Y45682936D02*
X63923800Y47137064D01*
X65743800Y45682936D02*
X65743800Y47137064D01*
%TO.C,R9*%
X53763800Y45682936D02*
X53763800Y47137064D01*
X55583800Y45682936D02*
X55583800Y47137064D01*
%TO.C,R67*%
X63203800Y21737064D02*
X63203800Y20282936D01*
X61383800Y21737064D02*
X61383800Y20282936D01*
%TD*%
M02*
