%TF.GenerationSoftware,KiCad,Pcbnew,7.0.5*%
%TF.CreationDate,2024-09-25T18:38:48-04:00*%
%TF.ProjectId,stepper_motor_controller_3_for_cnc,73746570-7065-4725-9f6d-6f746f725f63,rev?*%
%TF.SameCoordinates,Original*%
%TF.FileFunction,Copper,L1,Top*%
%TF.FilePolarity,Positive*%
%FSLAX46Y46*%
G04 Gerber Fmt 4.6, Leading zero omitted, Abs format (unit mm)*
G04 Created by KiCad (PCBNEW 7.0.5) date 2024-09-25 18:38:48*
%MOMM*%
%LPD*%
G01*
G04 APERTURE LIST*
%TA.AperFunction,ComponentPad*%
%ADD10C,1.400000*%
%TD*%
%TA.AperFunction,ComponentPad*%
%ADD11O,1.400000X1.400000*%
%TD*%
%TA.AperFunction,ComponentPad*%
%ADD12C,1.800000*%
%TD*%
%TA.AperFunction,ComponentPad*%
%ADD13C,3.810000*%
%TD*%
%TA.AperFunction,ComponentPad*%
%ADD14R,1.600000X1.600000*%
%TD*%
%TA.AperFunction,ComponentPad*%
%ADD15O,1.600000X1.600000*%
%TD*%
%TA.AperFunction,ComponentPad*%
%ADD16R,1.905000X2.000000*%
%TD*%
%TA.AperFunction,ComponentPad*%
%ADD17O,1.905000X2.000000*%
%TD*%
%TA.AperFunction,ViaPad*%
%ADD18C,3.000000*%
%TD*%
%TA.AperFunction,ViaPad*%
%ADD19C,0.800000*%
%TD*%
%TA.AperFunction,ViaPad*%
%ADD20C,4.500000*%
%TD*%
G04 APERTURE END LIST*
D10*
%TO.P,R37,1*%
%TO.N,+5V*%
X91503800Y27360000D03*
D11*
%TO.P,R37,2*%
%TO.N,Net-(U11-ADJ)*%
X96583800Y27360000D03*
%TD*%
D12*
%TO.P,J2,1A*%
%TO.N,GND*%
X123098800Y10390000D03*
%TO.P,J2,1B*%
X116348800Y10390000D03*
%TO.P,J2,2A*%
X123098800Y13160000D03*
%TO.P,J2,2B*%
X116348800Y13160000D03*
%TO.P,J2,3A*%
X123098800Y15930000D03*
%TO.P,J2,3B*%
X116348800Y15930000D03*
%TO.P,J2,4A*%
%TO.N,VCC*%
X123098800Y18700000D03*
%TO.P,J2,4B*%
X116348800Y18700000D03*
%TO.P,J2,5A*%
%TO.N,+5V*%
X123098800Y21470000D03*
%TO.P,J2,5B*%
X116348800Y21470000D03*
%TO.P,J2,6A*%
%TO.N,/CLOCK_upper*%
X125938800Y11775000D03*
%TO.P,J2,6B*%
X119188800Y11775000D03*
%TO.P,J2,7A*%
%TO.N,/DIRECTION_upper*%
X125938800Y14545000D03*
%TO.P,J2,7B*%
X119188800Y14545000D03*
%TO.P,J2,8A*%
%TO.N,unconnected-(J2-Pad8A)*%
X125938800Y17315000D03*
%TO.P,J2,8B*%
%TO.N,unconnected-(J2-Pad8B)*%
X119188800Y17315000D03*
%TO.P,J2,9A*%
%TO.N,unconnected-(J2-Pad9A)*%
X125938800Y20085000D03*
%TO.P,J2,9B*%
%TO.N,unconnected-(J2-Pad9B)*%
X119188800Y20085000D03*
D13*
%TO.P,J2,MH1*%
%TO.N,N/C*%
X117938800Y3440000D03*
%TO.P,J2,MH2*%
X125938800Y3440000D03*
%TO.P,J2,MH3*%
X117938800Y28420000D03*
%TO.P,J2,MH4*%
X125938800Y28420000D03*
%TD*%
D14*
%TO.P,U24,1,OA*%
%TO.N,Net-(R57-Pad1)*%
X72443800Y24810000D03*
D15*
%TO.P,U24,2,VCC*%
%TO.N,VCC*%
X69903800Y24810000D03*
%TO.P,U24,3,VCC*%
X67363800Y24810000D03*
%TO.P,U24,4,OA*%
%TO.N,Net-(R44-Pad1)*%
X64823800Y24810000D03*
%TO.P,U24,5,GND*%
%TO.N,GND*%
X64823800Y17190000D03*
%TO.P,U24,6,IA*%
%TO.N,/A_logic*%
X67363800Y17190000D03*
%TO.P,U24,7,IB*%
%TO.N,/A_n_logic*%
X69903800Y17190000D03*
%TO.P,U24,8,GND*%
%TO.N,GND*%
X72443800Y17190000D03*
%TD*%
D14*
%TO.P,U27,1,OA*%
%TO.N,Net-(R49-Pad1)*%
X75003800Y7050000D03*
D15*
%TO.P,U27,2,VCC*%
%TO.N,VCC*%
X77543800Y7050000D03*
%TO.P,U27,3,VCC*%
X80083800Y7050000D03*
%TO.P,U27,4,OA*%
%TO.N,Net-(R62-Pad1)*%
X82623800Y7050000D03*
%TO.P,U27,5,GND*%
%TO.N,GND*%
X82623800Y14670000D03*
%TO.P,U27,6,IA*%
%TO.N,/B_logic*%
X80083800Y14670000D03*
%TO.P,U27,7,IB*%
%TO.N,/B_n_logic*%
X77543800Y14670000D03*
%TO.P,U27,8,GND*%
%TO.N,GND*%
X75003800Y14670000D03*
%TD*%
D14*
%TO.P,U26,1,OA*%
%TO.N,Net-(R47-Pad1)*%
X82603800Y24810000D03*
D15*
%TO.P,U26,2,VCC*%
%TO.N,VCC*%
X80063800Y24810000D03*
%TO.P,U26,3,VCC*%
X77523800Y24810000D03*
%TO.P,U26,4,OA*%
%TO.N,Net-(R60-Pad1)*%
X74983800Y24810000D03*
%TO.P,U26,5,GND*%
%TO.N,GND*%
X74983800Y17190000D03*
%TO.P,U26,6,IA*%
%TO.N,/A_logic*%
X77523800Y17190000D03*
%TO.P,U26,7,IB*%
%TO.N,/A_n_logic*%
X80063800Y17190000D03*
%TO.P,U26,8,GND*%
%TO.N,GND*%
X82603800Y17190000D03*
%TD*%
D10*
%TO.P,R38,1*%
%TO.N,Net-(U11-ADJ)*%
X96583800Y29900000D03*
D11*
%TO.P,R38,2*%
%TO.N,GND*%
X91503800Y29900000D03*
%TD*%
D14*
%TO.P,U10,1,OA*%
%TO.N,Net-(R65-Pad1)*%
X54683800Y7050000D03*
D15*
%TO.P,U10,2,VCC*%
%TO.N,VCC*%
X57223800Y7050000D03*
%TO.P,U10,3,VCC*%
X59763800Y7050000D03*
%TO.P,U10,4,OA*%
%TO.N,Net-(R66-Pad1)*%
X62303800Y7050000D03*
%TO.P,U10,5,GND*%
%TO.N,GND*%
X62303800Y14670000D03*
%TO.P,U10,6,IA*%
%TO.N,/B_logic*%
X59763800Y14670000D03*
%TO.P,U10,7,IB*%
%TO.N,/B_n_logic*%
X57223800Y14670000D03*
%TO.P,U10,8,GND*%
%TO.N,GND*%
X54683800Y14670000D03*
%TD*%
D14*
%TO.P,U1,1,~{R}*%
%TO.N,+5V*%
X91503800Y23550000D03*
D15*
%TO.P,U1,2,D*%
%TO.N,Net-(U1A-D)*%
X91503800Y21010000D03*
%TO.P,U1,3,C*%
%TO.N,/CLOCK_upper*%
X91503800Y18470000D03*
%TO.P,U1,4,~{S}*%
%TO.N,+5V*%
X91503800Y15930000D03*
%TO.P,U1,5,Q*%
%TO.N,/A_logic*%
X91503800Y13390000D03*
%TO.P,U1,6,~{Q}*%
%TO.N,/A_n_logic*%
X91503800Y10850000D03*
%TO.P,U1,7,GND*%
%TO.N,GND*%
X91503800Y8310000D03*
%TO.P,U1,8,~{Q}*%
%TO.N,/B_n_logic*%
X99123800Y8310000D03*
%TO.P,U1,9,Q*%
%TO.N,/B_logic*%
X99123800Y10850000D03*
%TO.P,U1,10,~{S}*%
%TO.N,+5V*%
X99123800Y13390000D03*
%TO.P,U1,11,C*%
%TO.N,/CLOCK_upper*%
X99123800Y15930000D03*
%TO.P,U1,12,D*%
%TO.N,Net-(U1B-D)*%
X99123800Y18470000D03*
%TO.P,U1,13,~{R}*%
%TO.N,+5V*%
X99123800Y21010000D03*
%TO.P,U1,14,VCC*%
X99123800Y23550000D03*
%TD*%
D14*
%TO.P,U8,1,OA*%
%TO.N,Net-(R67-Pad1)*%
X44513800Y7040000D03*
D15*
%TO.P,U8,2,VCC*%
%TO.N,VCC*%
X47053800Y7040000D03*
%TO.P,U8,3,VCC*%
X49593800Y7040000D03*
%TO.P,U8,4,OA*%
%TO.N,Net-(R12-Pad1)*%
X52133800Y7040000D03*
%TO.P,U8,5,GND*%
%TO.N,GND*%
X52133800Y14660000D03*
%TO.P,U8,6,IA*%
%TO.N,/B_logic*%
X49593800Y14660000D03*
%TO.P,U8,7,IB*%
%TO.N,/B_n_logic*%
X47053800Y14660000D03*
%TO.P,U8,8,GND*%
%TO.N,GND*%
X44513800Y14660000D03*
%TD*%
D14*
%TO.P,U5,1,OA*%
%TO.N,Net-(R5-Pad1)*%
X41953800Y24810000D03*
D15*
%TO.P,U5,2,VCC*%
%TO.N,VCC*%
X39413800Y24810000D03*
%TO.P,U5,3,VCC*%
X36873800Y24810000D03*
%TO.P,U5,4,OA*%
%TO.N,Net-(R6-Pad1)*%
X34333800Y24810000D03*
%TO.P,U5,5,GND*%
%TO.N,GND*%
X34333800Y17190000D03*
%TO.P,U5,6,IA*%
%TO.N,/A_logic*%
X36873800Y17190000D03*
%TO.P,U5,7,IB*%
%TO.N,/A_n_logic*%
X39413800Y17190000D03*
%TO.P,U5,8,GND*%
%TO.N,GND*%
X41953800Y17190000D03*
%TD*%
D14*
%TO.P,U7,1,OA*%
%TO.N,Net-(R9-Pad1)*%
X52113800Y24810000D03*
D15*
%TO.P,U7,2,VCC*%
%TO.N,VCC*%
X49573800Y24810000D03*
%TO.P,U7,3,VCC*%
X47033800Y24810000D03*
%TO.P,U7,4,OA*%
%TO.N,Net-(R54-Pad1)*%
X44493800Y24810000D03*
%TO.P,U7,5,GND*%
%TO.N,GND*%
X44493800Y17190000D03*
%TO.P,U7,6,IA*%
%TO.N,/A_logic*%
X47033800Y17190000D03*
%TO.P,U7,7,IB*%
%TO.N,/A_n_logic*%
X49573800Y17190000D03*
%TO.P,U7,8,GND*%
%TO.N,GND*%
X52113800Y17190000D03*
%TD*%
D14*
%TO.P,U6,1,OA*%
%TO.N,Net-(R69-Pad1)*%
X34363800Y7050000D03*
D15*
%TO.P,U6,2,VCC*%
%TO.N,VCC*%
X36903800Y7050000D03*
%TO.P,U6,3,VCC*%
X39443800Y7050000D03*
%TO.P,U6,4,OA*%
%TO.N,Net-(R70-Pad1)*%
X41983800Y7050000D03*
%TO.P,U6,5,GND*%
%TO.N,GND*%
X41983800Y14670000D03*
%TO.P,U6,6,IA*%
%TO.N,/B_logic*%
X39443800Y14670000D03*
%TO.P,U6,7,IB*%
%TO.N,/B_n_logic*%
X36903800Y14670000D03*
%TO.P,U6,8,GND*%
%TO.N,GND*%
X34363800Y14670000D03*
%TD*%
D14*
%TO.P,U4,1,OA*%
%TO.N,Net-(R3-Pad1)*%
X24203800Y7050000D03*
D15*
%TO.P,U4,2,VCC*%
%TO.N,VCC*%
X26743800Y7050000D03*
%TO.P,U4,3,VCC*%
X29283800Y7050000D03*
%TO.P,U4,4,OA*%
%TO.N,Net-(R72-Pad1)*%
X31823800Y7050000D03*
%TO.P,U4,5,GND*%
%TO.N,GND*%
X31823800Y14670000D03*
%TO.P,U4,6,IA*%
%TO.N,/B_logic*%
X29283800Y14670000D03*
%TO.P,U4,7,IB*%
%TO.N,/B_n_logic*%
X26743800Y14670000D03*
%TO.P,U4,8,GND*%
%TO.N,GND*%
X24203800Y14670000D03*
%TD*%
D10*
%TO.P,R18,1*%
%TO.N,Net-(U1A-D)*%
X88963800Y21010000D03*
D11*
%TO.P,R18,2*%
%TO.N,+5V*%
X88963800Y15930000D03*
%TD*%
D14*
%TO.P,U3,1*%
%TO.N,/B_n_logic*%
X104203800Y23550000D03*
D15*
%TO.P,U3,2*%
%TO.N,/DIRECTION_upper*%
X104203800Y21010000D03*
%TO.P,U3,3*%
%TO.N,Net-(U1A-D)*%
X104203800Y18470000D03*
%TO.P,U3,4*%
%TO.N,/A_logic*%
X104203800Y15930000D03*
%TO.P,U3,5*%
%TO.N,/DIRECTION_upper*%
X104203800Y13390000D03*
%TO.P,U3,6*%
%TO.N,Net-(U1B-D)*%
X104203800Y10850000D03*
%TO.P,U3,7,GND*%
%TO.N,GND*%
X104203800Y8310000D03*
%TO.P,U3,8*%
%TO.N,N/C*%
X111823800Y8310000D03*
%TO.P,U3,9*%
X111823800Y10850000D03*
%TO.P,U3,10*%
X111823800Y13390000D03*
%TO.P,U3,11*%
X111823800Y15930000D03*
%TO.P,U3,12*%
X111823800Y18470000D03*
%TO.P,U3,13*%
X111823800Y21010000D03*
%TO.P,U3,14,VCC*%
%TO.N,+5V*%
X111823800Y23550000D03*
%TD*%
D14*
%TO.P,U25,1,OA*%
%TO.N,Net-(R63-Pad1)*%
X64843800Y7050000D03*
D15*
%TO.P,U25,2,VCC*%
%TO.N,VCC*%
X67383800Y7050000D03*
%TO.P,U25,3,VCC*%
X69923800Y7050000D03*
%TO.P,U25,4,OA*%
%TO.N,Net-(R46-Pad1)*%
X72463800Y7050000D03*
%TO.P,U25,5,GND*%
%TO.N,GND*%
X72463800Y14670000D03*
%TO.P,U25,6,IA*%
%TO.N,/B_logic*%
X69923800Y14670000D03*
%TO.P,U25,7,IB*%
%TO.N,/B_n_logic*%
X67383800Y14670000D03*
%TO.P,U25,8,GND*%
%TO.N,GND*%
X64843800Y14670000D03*
%TD*%
D10*
%TO.P,R17,1*%
%TO.N,Net-(U1B-D)*%
X101663800Y18470000D03*
D11*
%TO.P,R17,2*%
%TO.N,+5V*%
X101663800Y23550000D03*
%TD*%
D14*
%TO.P,U9,1,OA*%
%TO.N,Net-(R55-Pad1)*%
X62273800Y24810000D03*
D15*
%TO.P,U9,2,VCC*%
%TO.N,VCC*%
X59733800Y24810000D03*
%TO.P,U9,3,VCC*%
X57193800Y24810000D03*
%TO.P,U9,4,OA*%
%TO.N,Net-(R14-Pad1)*%
X54653800Y24810000D03*
%TO.P,U9,5,GND*%
%TO.N,GND*%
X54653800Y17190000D03*
%TO.P,U9,6,IA*%
%TO.N,/A_logic*%
X57193800Y17190000D03*
%TO.P,U9,7,IB*%
%TO.N,/A_n_logic*%
X59733800Y17190000D03*
%TO.P,U9,8,GND*%
%TO.N,GND*%
X62273800Y17190000D03*
%TD*%
D16*
%TO.P,U11,1,ADJ*%
%TO.N,Net-(U11-ADJ)*%
X99758800Y28320000D03*
D17*
%TO.P,U11,2,VO*%
%TO.N,+5V*%
X102298800Y28320000D03*
%TO.P,U11,3,VI*%
%TO.N,VCC*%
X104838800Y28320000D03*
%TD*%
D14*
%TO.P,U2,1,OA*%
%TO.N,Net-(R39-Pad1)*%
X31793800Y24810000D03*
D15*
%TO.P,U2,2,VCC*%
%TO.N,VCC*%
X29253800Y24810000D03*
%TO.P,U2,3,VCC*%
X26713800Y24810000D03*
%TO.P,U2,4,OA*%
%TO.N,Net-(R2-Pad1)*%
X24173800Y24810000D03*
%TO.P,U2,5,GND*%
%TO.N,GND*%
X24173800Y17190000D03*
%TO.P,U2,6,IA*%
%TO.N,/A_logic*%
X26713800Y17190000D03*
%TO.P,U2,7,IB*%
%TO.N,/A_n_logic*%
X29253800Y17190000D03*
%TO.P,U2,8,GND*%
%TO.N,GND*%
X31793800Y17190000D03*
%TD*%
D18*
%TO.N,/A*%
X33233800Y35120000D03*
%TO.N,/B*%
X42753800Y35110000D03*
%TO.N,/C*%
X42513800Y-3040000D03*
%TO.N,/D*%
X32993800Y-3030000D03*
D19*
%TO.N,Net-(U1B-D)*%
X102756773Y12257357D03*
%TO.N,/A_logic*%
X101663800Y15930000D03*
X88963800Y13390000D03*
%TO.N,/A_n_logic*%
X71183800Y15930000D03*
X88963800Y10850000D03*
X50863800Y15930000D03*
X40703800Y15930000D03*
X81343800Y15930000D03*
X61023800Y15930000D03*
X30543800Y15930000D03*
D18*
%TO.N,GND*%
X52043800Y-3040000D03*
D20*
X61813800Y35110000D03*
D18*
X90403800Y35110000D03*
D20*
X109463800Y35110000D03*
X61573800Y-3040000D03*
D18*
X99693800Y-3040000D03*
D20*
X23453800Y-3040000D03*
X71343800Y35110000D03*
X71103800Y-3040000D03*
D18*
X80873800Y35110000D03*
D20*
X109223800Y-3040000D03*
D18*
X90163800Y-3040000D03*
X80633800Y-3040000D03*
X52283800Y35110000D03*
D20*
X23693800Y35110000D03*
D19*
%TO.N,/B_n_logic*%
X76263800Y15930000D03*
X66103800Y15930000D03*
X55943800Y15930000D03*
X25463800Y15930000D03*
X101663800Y8310000D03*
X35623800Y15930000D03*
X45783800Y15930000D03*
%TO.N,/B_logic*%
X48323800Y15930000D03*
X58483800Y15930000D03*
X78803800Y15930000D03*
X28003800Y15930000D03*
X38163800Y15930000D03*
X68643800Y15930000D03*
X101663800Y10850000D03*
D18*
%TO.N,VCC*%
X99933800Y35110000D03*
D19*
%TO.N,/CLOCK_upper*%
X100393800Y14660000D03*
X111823800Y4500000D03*
%TD*%
M02*
