%TF.GenerationSoftware,KiCad,Pcbnew,7.0.5*%
%TF.CreationDate,2024-09-25T18:33:35-04:00*%
%TF.ProjectId,stepper_motor_controller_3_for_cnc,73746570-7065-4725-9f6d-6f746f725f63,rev?*%
%TF.SameCoordinates,Original*%
%TF.FileFunction,Copper,L2,Bot*%
%TF.FilePolarity,Positive*%
%FSLAX46Y46*%
G04 Gerber Fmt 4.6, Leading zero omitted, Abs format (unit mm)*
G04 Created by KiCad (PCBNEW 7.0.5) date 2024-09-25 18:33:35*
%MOMM*%
%LPD*%
G01*
G04 APERTURE LIST*
G04 Aperture macros list*
%AMRoundRect*
0 Rectangle with rounded corners*
0 $1 Rounding radius*
0 $2 $3 $4 $5 $6 $7 $8 $9 X,Y pos of 4 corners*
0 Add a 4 corners polygon primitive as box body*
4,1,4,$2,$3,$4,$5,$6,$7,$8,$9,$2,$3,0*
0 Add four circle primitives for the rounded corners*
1,1,$1+$1,$2,$3*
1,1,$1+$1,$4,$5*
1,1,$1+$1,$6,$7*
1,1,$1+$1,$8,$9*
0 Add four rect primitives between the rounded corners*
20,1,$1+$1,$2,$3,$4,$5,0*
20,1,$1+$1,$4,$5,$6,$7,0*
20,1,$1+$1,$6,$7,$8,$9,0*
20,1,$1+$1,$8,$9,$2,$3,0*%
G04 Aperture macros list end*
%TA.AperFunction,ComponentPad*%
%ADD10C,1.400000*%
%TD*%
%TA.AperFunction,ComponentPad*%
%ADD11O,1.400000X1.400000*%
%TD*%
%TA.AperFunction,ComponentPad*%
%ADD12C,1.800000*%
%TD*%
%TA.AperFunction,ComponentPad*%
%ADD13C,3.810000*%
%TD*%
%TA.AperFunction,ComponentPad*%
%ADD14R,1.600000X1.600000*%
%TD*%
%TA.AperFunction,ComponentPad*%
%ADD15O,1.600000X1.600000*%
%TD*%
%TA.AperFunction,ComponentPad*%
%ADD16R,1.905000X2.000000*%
%TD*%
%TA.AperFunction,ComponentPad*%
%ADD17O,1.905000X2.000000*%
%TD*%
%TA.AperFunction,SMDPad,CuDef*%
%ADD18RoundRect,0.250000X-0.625000X0.312500X-0.625000X-0.312500X0.625000X-0.312500X0.625000X0.312500X0*%
%TD*%
%TA.AperFunction,SMDPad,CuDef*%
%ADD19RoundRect,0.250000X0.625000X-0.312500X0.625000X0.312500X-0.625000X0.312500X-0.625000X-0.312500X0*%
%TD*%
%TA.AperFunction,ViaPad*%
%ADD20C,3.000000*%
%TD*%
%TA.AperFunction,ViaPad*%
%ADD21C,0.800000*%
%TD*%
%TA.AperFunction,ViaPad*%
%ADD22C,4.500000*%
%TD*%
%TA.AperFunction,Conductor*%
%ADD23C,0.500000*%
%TD*%
%TA.AperFunction,Conductor*%
%ADD24C,1.500000*%
%TD*%
%TA.AperFunction,Conductor*%
%ADD25C,1.000000*%
%TD*%
%TA.AperFunction,Conductor*%
%ADD26C,0.400000*%
%TD*%
G04 APERTURE END LIST*
D10*
%TO.P,R37,1*%
%TO.N,+5V*%
X91503800Y27360000D03*
D11*
%TO.P,R37,2*%
%TO.N,Net-(U11-ADJ)*%
X96583800Y27360000D03*
%TD*%
D12*
%TO.P,J2,1A*%
%TO.N,GND*%
X123098800Y10390000D03*
%TO.P,J2,1B*%
X116348800Y10390000D03*
%TO.P,J2,2A*%
X123098800Y13160000D03*
%TO.P,J2,2B*%
X116348800Y13160000D03*
%TO.P,J2,3A*%
X123098800Y15930000D03*
%TO.P,J2,3B*%
X116348800Y15930000D03*
%TO.P,J2,4A*%
%TO.N,VCC*%
X123098800Y18700000D03*
%TO.P,J2,4B*%
X116348800Y18700000D03*
%TO.P,J2,5A*%
%TO.N,+5V*%
X123098800Y21470000D03*
%TO.P,J2,5B*%
X116348800Y21470000D03*
%TO.P,J2,6A*%
%TO.N,/CLOCK_upper*%
X125938800Y11775000D03*
%TO.P,J2,6B*%
X119188800Y11775000D03*
%TO.P,J2,7A*%
%TO.N,/DIRECTION_upper*%
X125938800Y14545000D03*
%TO.P,J2,7B*%
X119188800Y14545000D03*
%TO.P,J2,8A*%
%TO.N,unconnected-(J2-Pad8A)*%
X125938800Y17315000D03*
%TO.P,J2,8B*%
%TO.N,unconnected-(J2-Pad8B)*%
X119188800Y17315000D03*
%TO.P,J2,9A*%
%TO.N,unconnected-(J2-Pad9A)*%
X125938800Y20085000D03*
%TO.P,J2,9B*%
%TO.N,unconnected-(J2-Pad9B)*%
X119188800Y20085000D03*
D13*
%TO.P,J2,MH1*%
%TO.N,N/C*%
X117938800Y3440000D03*
%TO.P,J2,MH2*%
X125938800Y3440000D03*
%TO.P,J2,MH3*%
X117938800Y28420000D03*
%TO.P,J2,MH4*%
X125938800Y28420000D03*
%TD*%
D14*
%TO.P,U24,1,OA*%
%TO.N,Net-(R57-Pad1)*%
X72443800Y24810000D03*
D15*
%TO.P,U24,2,VCC*%
%TO.N,VCC*%
X69903800Y24810000D03*
%TO.P,U24,3,VCC*%
X67363800Y24810000D03*
%TO.P,U24,4,OA*%
%TO.N,Net-(R44-Pad1)*%
X64823800Y24810000D03*
%TO.P,U24,5,GND*%
%TO.N,GND*%
X64823800Y17190000D03*
%TO.P,U24,6,IA*%
%TO.N,/A_logic*%
X67363800Y17190000D03*
%TO.P,U24,7,IB*%
%TO.N,/A_n_logic*%
X69903800Y17190000D03*
%TO.P,U24,8,GND*%
%TO.N,GND*%
X72443800Y17190000D03*
%TD*%
D14*
%TO.P,U27,1,OA*%
%TO.N,Net-(R49-Pad1)*%
X75003800Y7050000D03*
D15*
%TO.P,U27,2,VCC*%
%TO.N,VCC*%
X77543800Y7050000D03*
%TO.P,U27,3,VCC*%
X80083800Y7050000D03*
%TO.P,U27,4,OA*%
%TO.N,Net-(R62-Pad1)*%
X82623800Y7050000D03*
%TO.P,U27,5,GND*%
%TO.N,GND*%
X82623800Y14670000D03*
%TO.P,U27,6,IA*%
%TO.N,/B_logic*%
X80083800Y14670000D03*
%TO.P,U27,7,IB*%
%TO.N,/B_n_logic*%
X77543800Y14670000D03*
%TO.P,U27,8,GND*%
%TO.N,GND*%
X75003800Y14670000D03*
%TD*%
D14*
%TO.P,U26,1,OA*%
%TO.N,Net-(R47-Pad1)*%
X82603800Y24810000D03*
D15*
%TO.P,U26,2,VCC*%
%TO.N,VCC*%
X80063800Y24810000D03*
%TO.P,U26,3,VCC*%
X77523800Y24810000D03*
%TO.P,U26,4,OA*%
%TO.N,Net-(R60-Pad1)*%
X74983800Y24810000D03*
%TO.P,U26,5,GND*%
%TO.N,GND*%
X74983800Y17190000D03*
%TO.P,U26,6,IA*%
%TO.N,/A_logic*%
X77523800Y17190000D03*
%TO.P,U26,7,IB*%
%TO.N,/A_n_logic*%
X80063800Y17190000D03*
%TO.P,U26,8,GND*%
%TO.N,GND*%
X82603800Y17190000D03*
%TD*%
D10*
%TO.P,R38,1*%
%TO.N,Net-(U11-ADJ)*%
X96583800Y29900000D03*
D11*
%TO.P,R38,2*%
%TO.N,GND*%
X91503800Y29900000D03*
%TD*%
D14*
%TO.P,U10,1,OA*%
%TO.N,Net-(R65-Pad1)*%
X54683800Y7050000D03*
D15*
%TO.P,U10,2,VCC*%
%TO.N,VCC*%
X57223800Y7050000D03*
%TO.P,U10,3,VCC*%
X59763800Y7050000D03*
%TO.P,U10,4,OA*%
%TO.N,Net-(R66-Pad1)*%
X62303800Y7050000D03*
%TO.P,U10,5,GND*%
%TO.N,GND*%
X62303800Y14670000D03*
%TO.P,U10,6,IA*%
%TO.N,/B_logic*%
X59763800Y14670000D03*
%TO.P,U10,7,IB*%
%TO.N,/B_n_logic*%
X57223800Y14670000D03*
%TO.P,U10,8,GND*%
%TO.N,GND*%
X54683800Y14670000D03*
%TD*%
D14*
%TO.P,U1,1,~{R}*%
%TO.N,+5V*%
X91503800Y23550000D03*
D15*
%TO.P,U1,2,D*%
%TO.N,Net-(U1A-D)*%
X91503800Y21010000D03*
%TO.P,U1,3,C*%
%TO.N,/CLOCK_upper*%
X91503800Y18470000D03*
%TO.P,U1,4,~{S}*%
%TO.N,+5V*%
X91503800Y15930000D03*
%TO.P,U1,5,Q*%
%TO.N,/A_logic*%
X91503800Y13390000D03*
%TO.P,U1,6,~{Q}*%
%TO.N,/A_n_logic*%
X91503800Y10850000D03*
%TO.P,U1,7,GND*%
%TO.N,GND*%
X91503800Y8310000D03*
%TO.P,U1,8,~{Q}*%
%TO.N,/B_n_logic*%
X99123800Y8310000D03*
%TO.P,U1,9,Q*%
%TO.N,/B_logic*%
X99123800Y10850000D03*
%TO.P,U1,10,~{S}*%
%TO.N,+5V*%
X99123800Y13390000D03*
%TO.P,U1,11,C*%
%TO.N,/CLOCK_upper*%
X99123800Y15930000D03*
%TO.P,U1,12,D*%
%TO.N,Net-(U1B-D)*%
X99123800Y18470000D03*
%TO.P,U1,13,~{R}*%
%TO.N,+5V*%
X99123800Y21010000D03*
%TO.P,U1,14,VCC*%
X99123800Y23550000D03*
%TD*%
D14*
%TO.P,U8,1,OA*%
%TO.N,Net-(R67-Pad1)*%
X44513800Y7040000D03*
D15*
%TO.P,U8,2,VCC*%
%TO.N,VCC*%
X47053800Y7040000D03*
%TO.P,U8,3,VCC*%
X49593800Y7040000D03*
%TO.P,U8,4,OA*%
%TO.N,Net-(R12-Pad1)*%
X52133800Y7040000D03*
%TO.P,U8,5,GND*%
%TO.N,GND*%
X52133800Y14660000D03*
%TO.P,U8,6,IA*%
%TO.N,/B_logic*%
X49593800Y14660000D03*
%TO.P,U8,7,IB*%
%TO.N,/B_n_logic*%
X47053800Y14660000D03*
%TO.P,U8,8,GND*%
%TO.N,GND*%
X44513800Y14660000D03*
%TD*%
D14*
%TO.P,U5,1,OA*%
%TO.N,Net-(R5-Pad1)*%
X41953800Y24810000D03*
D15*
%TO.P,U5,2,VCC*%
%TO.N,VCC*%
X39413800Y24810000D03*
%TO.P,U5,3,VCC*%
X36873800Y24810000D03*
%TO.P,U5,4,OA*%
%TO.N,Net-(R6-Pad1)*%
X34333800Y24810000D03*
%TO.P,U5,5,GND*%
%TO.N,GND*%
X34333800Y17190000D03*
%TO.P,U5,6,IA*%
%TO.N,/A_logic*%
X36873800Y17190000D03*
%TO.P,U5,7,IB*%
%TO.N,/A_n_logic*%
X39413800Y17190000D03*
%TO.P,U5,8,GND*%
%TO.N,GND*%
X41953800Y17190000D03*
%TD*%
D14*
%TO.P,U7,1,OA*%
%TO.N,Net-(R9-Pad1)*%
X52113800Y24810000D03*
D15*
%TO.P,U7,2,VCC*%
%TO.N,VCC*%
X49573800Y24810000D03*
%TO.P,U7,3,VCC*%
X47033800Y24810000D03*
%TO.P,U7,4,OA*%
%TO.N,Net-(R54-Pad1)*%
X44493800Y24810000D03*
%TO.P,U7,5,GND*%
%TO.N,GND*%
X44493800Y17190000D03*
%TO.P,U7,6,IA*%
%TO.N,/A_logic*%
X47033800Y17190000D03*
%TO.P,U7,7,IB*%
%TO.N,/A_n_logic*%
X49573800Y17190000D03*
%TO.P,U7,8,GND*%
%TO.N,GND*%
X52113800Y17190000D03*
%TD*%
D14*
%TO.P,U6,1,OA*%
%TO.N,Net-(R69-Pad1)*%
X34363800Y7050000D03*
D15*
%TO.P,U6,2,VCC*%
%TO.N,VCC*%
X36903800Y7050000D03*
%TO.P,U6,3,VCC*%
X39443800Y7050000D03*
%TO.P,U6,4,OA*%
%TO.N,Net-(R70-Pad1)*%
X41983800Y7050000D03*
%TO.P,U6,5,GND*%
%TO.N,GND*%
X41983800Y14670000D03*
%TO.P,U6,6,IA*%
%TO.N,/B_logic*%
X39443800Y14670000D03*
%TO.P,U6,7,IB*%
%TO.N,/B_n_logic*%
X36903800Y14670000D03*
%TO.P,U6,8,GND*%
%TO.N,GND*%
X34363800Y14670000D03*
%TD*%
D14*
%TO.P,U4,1,OA*%
%TO.N,Net-(R3-Pad1)*%
X24203800Y7050000D03*
D15*
%TO.P,U4,2,VCC*%
%TO.N,VCC*%
X26743800Y7050000D03*
%TO.P,U4,3,VCC*%
X29283800Y7050000D03*
%TO.P,U4,4,OA*%
%TO.N,Net-(R72-Pad1)*%
X31823800Y7050000D03*
%TO.P,U4,5,GND*%
%TO.N,GND*%
X31823800Y14670000D03*
%TO.P,U4,6,IA*%
%TO.N,/B_logic*%
X29283800Y14670000D03*
%TO.P,U4,7,IB*%
%TO.N,/B_n_logic*%
X26743800Y14670000D03*
%TO.P,U4,8,GND*%
%TO.N,GND*%
X24203800Y14670000D03*
%TD*%
D10*
%TO.P,R18,1*%
%TO.N,Net-(U1A-D)*%
X88963800Y21010000D03*
D11*
%TO.P,R18,2*%
%TO.N,+5V*%
X88963800Y15930000D03*
%TD*%
D14*
%TO.P,U3,1*%
%TO.N,/B_n_logic*%
X104203800Y23550000D03*
D15*
%TO.P,U3,2*%
%TO.N,/DIRECTION_upper*%
X104203800Y21010000D03*
%TO.P,U3,3*%
%TO.N,Net-(U1A-D)*%
X104203800Y18470000D03*
%TO.P,U3,4*%
%TO.N,/A_logic*%
X104203800Y15930000D03*
%TO.P,U3,5*%
%TO.N,/DIRECTION_upper*%
X104203800Y13390000D03*
%TO.P,U3,6*%
%TO.N,Net-(U1B-D)*%
X104203800Y10850000D03*
%TO.P,U3,7,GND*%
%TO.N,GND*%
X104203800Y8310000D03*
%TO.P,U3,8*%
%TO.N,N/C*%
X111823800Y8310000D03*
%TO.P,U3,9*%
X111823800Y10850000D03*
%TO.P,U3,10*%
X111823800Y13390000D03*
%TO.P,U3,11*%
X111823800Y15930000D03*
%TO.P,U3,12*%
X111823800Y18470000D03*
%TO.P,U3,13*%
X111823800Y21010000D03*
%TO.P,U3,14,VCC*%
%TO.N,+5V*%
X111823800Y23550000D03*
%TD*%
D14*
%TO.P,U25,1,OA*%
%TO.N,Net-(R63-Pad1)*%
X64843800Y7050000D03*
D15*
%TO.P,U25,2,VCC*%
%TO.N,VCC*%
X67383800Y7050000D03*
%TO.P,U25,3,VCC*%
X69923800Y7050000D03*
%TO.P,U25,4,OA*%
%TO.N,Net-(R46-Pad1)*%
X72463800Y7050000D03*
%TO.P,U25,5,GND*%
%TO.N,GND*%
X72463800Y14670000D03*
%TO.P,U25,6,IA*%
%TO.N,/B_logic*%
X69923800Y14670000D03*
%TO.P,U25,7,IB*%
%TO.N,/B_n_logic*%
X67383800Y14670000D03*
%TO.P,U25,8,GND*%
%TO.N,GND*%
X64843800Y14670000D03*
%TD*%
D10*
%TO.P,R17,1*%
%TO.N,Net-(U1B-D)*%
X101663800Y18470000D03*
D11*
%TO.P,R17,2*%
%TO.N,+5V*%
X101663800Y23550000D03*
%TD*%
D14*
%TO.P,U9,1,OA*%
%TO.N,Net-(R55-Pad1)*%
X62273800Y24810000D03*
D15*
%TO.P,U9,2,VCC*%
%TO.N,VCC*%
X59733800Y24810000D03*
%TO.P,U9,3,VCC*%
X57193800Y24810000D03*
%TO.P,U9,4,OA*%
%TO.N,Net-(R14-Pad1)*%
X54653800Y24810000D03*
%TO.P,U9,5,GND*%
%TO.N,GND*%
X54653800Y17190000D03*
%TO.P,U9,6,IA*%
%TO.N,/A_logic*%
X57193800Y17190000D03*
%TO.P,U9,7,IB*%
%TO.N,/A_n_logic*%
X59733800Y17190000D03*
%TO.P,U9,8,GND*%
%TO.N,GND*%
X62273800Y17190000D03*
%TD*%
D16*
%TO.P,U11,1,ADJ*%
%TO.N,Net-(U11-ADJ)*%
X99758800Y28320000D03*
D17*
%TO.P,U11,2,VO*%
%TO.N,+5V*%
X102298800Y28320000D03*
%TO.P,U11,3,VI*%
%TO.N,VCC*%
X104838800Y28320000D03*
%TD*%
D14*
%TO.P,U2,1,OA*%
%TO.N,Net-(R39-Pad1)*%
X31793800Y24810000D03*
D15*
%TO.P,U2,2,VCC*%
%TO.N,VCC*%
X29253800Y24810000D03*
%TO.P,U2,3,VCC*%
X26713800Y24810000D03*
%TO.P,U2,4,OA*%
%TO.N,Net-(R2-Pad1)*%
X24173800Y24810000D03*
%TO.P,U2,5,GND*%
%TO.N,GND*%
X24173800Y17190000D03*
%TO.P,U2,6,IA*%
%TO.N,/A_logic*%
X26713800Y17190000D03*
%TO.P,U2,7,IB*%
%TO.N,/A_n_logic*%
X29253800Y17190000D03*
%TO.P,U2,8,GND*%
%TO.N,GND*%
X31793800Y17190000D03*
%TD*%
D18*
%TO.P,R70,1*%
%TO.N,Net-(R70-Pad1)*%
X64833800Y4692500D03*
%TO.P,R70,2*%
%TO.N,/D*%
X64833800Y1767500D03*
%TD*%
D19*
%TO.P,R55,1*%
%TO.N,Net-(R55-Pad1)*%
X44513800Y27167500D03*
%TO.P,R55,2*%
%TO.N,/A*%
X44513800Y30092500D03*
%TD*%
D18*
%TO.P,R12,1*%
%TO.N,Net-(R12-Pad1)*%
X54673800Y4692500D03*
%TO.P,R12,2*%
%TO.N,/D*%
X54673800Y1767500D03*
%TD*%
%TO.P,R3,1*%
%TO.N,Net-(R3-Pad1)*%
X82613800Y4692500D03*
%TO.P,R3,2*%
%TO.N,/C*%
X82613800Y1767500D03*
%TD*%
D19*
%TO.P,R6,1*%
%TO.N,Net-(R6-Pad1)*%
X72453800Y27167500D03*
%TO.P,R6,2*%
%TO.N,/B*%
X72453800Y30092500D03*
%TD*%
%TO.P,R60,1*%
%TO.N,Net-(R60-Pad1)*%
X31813800Y27167500D03*
%TO.P,R60,2*%
%TO.N,/B*%
X31813800Y30092500D03*
%TD*%
%TO.P,R57,1*%
%TO.N,Net-(R57-Pad1)*%
X34353800Y27167500D03*
%TO.P,R57,2*%
%TO.N,/A*%
X34353800Y30092500D03*
%TD*%
%TO.P,R39,1*%
%TO.N,Net-(R39-Pad1)*%
X74993800Y27167500D03*
%TO.P,R39,2*%
%TO.N,/A*%
X74993800Y30092500D03*
%TD*%
D18*
%TO.P,R72,1*%
%TO.N,Net-(R72-Pad1)*%
X74993800Y4692500D03*
%TO.P,R72,2*%
%TO.N,/D*%
X74993800Y1767500D03*
%TD*%
%TO.P,R69,1*%
%TO.N,Net-(R69-Pad1)*%
X72453800Y4692500D03*
%TO.P,R69,2*%
%TO.N,/C*%
X72453800Y1767500D03*
%TD*%
%TO.P,R46,1*%
%TO.N,Net-(R46-Pad1)*%
X34353800Y4692500D03*
%TO.P,R46,2*%
%TO.N,/D*%
X34353800Y1767500D03*
%TD*%
D19*
%TO.P,R2,1*%
%TO.N,Net-(R2-Pad1)*%
X82613800Y27167500D03*
%TO.P,R2,2*%
%TO.N,/B*%
X82613800Y30092500D03*
%TD*%
%TO.P,R47,1*%
%TO.N,Net-(R47-Pad1)*%
X24193800Y26975000D03*
%TO.P,R47,2*%
%TO.N,/A*%
X24193800Y29900000D03*
%TD*%
D18*
%TO.P,R62,1*%
%TO.N,Net-(R62-Pad1)*%
X24193800Y4692500D03*
%TO.P,R62,2*%
%TO.N,/D*%
X24193800Y1767500D03*
%TD*%
D19*
%TO.P,R54,1*%
%TO.N,Net-(R54-Pad1)*%
X62293800Y27167500D03*
%TO.P,R54,2*%
%TO.N,/B*%
X62293800Y30092500D03*
%TD*%
D18*
%TO.P,R63,1*%
%TO.N,Net-(R63-Pad1)*%
X41973800Y4692500D03*
%TO.P,R63,2*%
%TO.N,/C*%
X41973800Y1767500D03*
%TD*%
D19*
%TO.P,R44,1*%
%TO.N,Net-(R44-Pad1)*%
X41973800Y27167500D03*
%TO.P,R44,2*%
%TO.N,/B*%
X41973800Y30092500D03*
%TD*%
%TO.P,R14,1*%
%TO.N,Net-(R14-Pad1)*%
X52133800Y27167500D03*
%TO.P,R14,2*%
%TO.N,/B*%
X52133800Y30092500D03*
%TD*%
D18*
%TO.P,R49,1*%
%TO.N,Net-(R49-Pad1)*%
X31813800Y4692500D03*
%TO.P,R49,2*%
%TO.N,/C*%
X31813800Y1767500D03*
%TD*%
%TO.P,R65,1*%
%TO.N,Net-(R65-Pad1)*%
X52133800Y4692500D03*
%TO.P,R65,2*%
%TO.N,/C*%
X52133800Y1767500D03*
%TD*%
%TO.P,R66,1*%
%TO.N,Net-(R66-Pad1)*%
X44513800Y4692500D03*
%TO.P,R66,2*%
%TO.N,/D*%
X44513800Y1767500D03*
%TD*%
D19*
%TO.P,R5,1*%
%TO.N,Net-(R5-Pad1)*%
X64833800Y27167500D03*
%TO.P,R5,2*%
%TO.N,/A*%
X64833800Y30092500D03*
%TD*%
%TO.P,R9,1*%
%TO.N,Net-(R9-Pad1)*%
X54673800Y27167500D03*
%TO.P,R9,2*%
%TO.N,/A*%
X54673800Y30092500D03*
%TD*%
D18*
%TO.P,R67,1*%
%TO.N,Net-(R67-Pad1)*%
X62293800Y4692500D03*
%TO.P,R67,2*%
%TO.N,/C*%
X62293800Y1767500D03*
%TD*%
D20*
%TO.N,/A*%
X33233800Y35120000D03*
%TO.N,/B*%
X42753800Y35110000D03*
%TO.N,/C*%
X42513800Y-3040000D03*
%TO.N,/D*%
X32993800Y-3030000D03*
D21*
%TO.N,Net-(U1B-D)*%
X102756773Y12257357D03*
%TO.N,/A_logic*%
X101663800Y15930000D03*
X88963800Y13390000D03*
%TO.N,/A_n_logic*%
X71183800Y15930000D03*
X88963800Y10850000D03*
X50863800Y15930000D03*
X40703800Y15930000D03*
X81343800Y15930000D03*
X61023800Y15930000D03*
X30543800Y15930000D03*
D20*
%TO.N,GND*%
X52043800Y-3040000D03*
D22*
X61813800Y35110000D03*
D20*
X90403800Y35110000D03*
D22*
X109463800Y35110000D03*
X61573800Y-3040000D03*
D20*
X99693800Y-3040000D03*
D22*
X23453800Y-3040000D03*
X71343800Y35110000D03*
X71103800Y-3040000D03*
D20*
X80873800Y35110000D03*
D22*
X109223800Y-3040000D03*
D20*
X90163800Y-3040000D03*
X80633800Y-3040000D03*
X52283800Y35110000D03*
D22*
X23693800Y35110000D03*
D21*
%TO.N,/B_n_logic*%
X76263800Y15930000D03*
X66103800Y15930000D03*
X55943800Y15930000D03*
X25463800Y15930000D03*
X101663800Y8310000D03*
X35623800Y15930000D03*
X45783800Y15930000D03*
%TO.N,/B_logic*%
X48323800Y15930000D03*
X58483800Y15930000D03*
X78803800Y15930000D03*
X28003800Y15930000D03*
X38163800Y15930000D03*
X68643800Y15930000D03*
X101663800Y10850000D03*
D20*
%TO.N,VCC*%
X99933800Y35110000D03*
D21*
%TO.N,/CLOCK_upper*%
X100393800Y14660000D03*
X111823800Y4500000D03*
%TD*%
D23*
%TO.N,VCC*%
X106108800Y28630000D02*
X104838800Y29900000D01*
X111823800Y28630000D02*
X106108800Y28630000D01*
X114388800Y26065000D02*
X111823800Y28630000D01*
X128333800Y22280000D02*
X124548800Y26065000D01*
X128333800Y19740000D02*
X128333800Y22280000D01*
X127293800Y18700000D02*
X128333800Y19740000D01*
X123098800Y18700000D02*
X127293800Y18700000D01*
D24*
X104838800Y29900000D02*
X104838800Y30205000D01*
D23*
X124548800Y26065000D02*
X114388800Y26065000D01*
D24*
X104838800Y28320000D02*
X104838800Y29900000D01*
D23*
X116348800Y18700000D02*
X123098800Y18700000D01*
D25*
%TO.N,/A*%
X33093800Y34980000D02*
X33233800Y35120000D01*
X34353800Y28630000D02*
X34353800Y30092500D01*
X74993800Y30092500D02*
X74993800Y28630000D01*
X64833800Y28630000D02*
X54673800Y28630000D01*
X28003800Y33710000D02*
X29273800Y34980000D01*
X28003800Y28630000D02*
X28003800Y33710000D01*
X74993800Y28630000D02*
X64833800Y28630000D01*
X29273800Y34980000D02*
X33093800Y34980000D01*
X28003800Y28630000D02*
X24193800Y28630000D01*
X34353800Y28630000D02*
X28003800Y28630000D01*
X24193800Y28630000D02*
X24193800Y30092500D01*
X54673800Y30092500D02*
X54673800Y28630000D01*
X54673800Y28630000D02*
X44513800Y28630000D01*
X44513800Y30092500D02*
X44513800Y28630000D01*
X44513800Y28630000D02*
X34353800Y28630000D01*
X64833800Y30092500D02*
X64833800Y28630000D01*
D24*
%TO.N,Net-(R2-Pad1)*%
X24173800Y24810000D02*
X24173800Y27147500D01*
X24173800Y27147500D02*
X24193800Y27167500D01*
D25*
%TO.N,/B*%
X72268800Y31355000D02*
X72453800Y31170000D01*
X53396300Y31355000D02*
X43236300Y31355000D01*
X43236300Y31355000D02*
X31813800Y31355000D01*
X41973800Y34330000D02*
X42753800Y35110000D01*
X72453800Y31355000D02*
X72268800Y31355000D01*
X41973800Y30092500D02*
X41973800Y34330000D01*
X63556300Y31355000D02*
X72453800Y31355000D01*
X82730159Y30016359D02*
X82613800Y29900000D01*
X81164561Y31349239D02*
X82730159Y31349239D01*
X62293800Y30092500D02*
X62293800Y31355000D01*
X63556300Y31355000D02*
X53396300Y31355000D01*
X81158800Y31355000D02*
X72453800Y31355000D01*
X81158800Y31355000D02*
X81164561Y31349239D01*
X72453800Y31170000D02*
X72453800Y30092500D01*
X52133800Y31355000D02*
X52133800Y30092500D01*
X31813800Y31355000D02*
X31813800Y30092500D01*
X82730159Y31349239D02*
X82730159Y30016359D01*
D24*
%TO.N,Net-(R3-Pad1)*%
X24203800Y4702500D02*
X24193800Y4692500D01*
X24203800Y7050000D02*
X24203800Y4702500D01*
D25*
%TO.N,/C*%
X52133800Y505000D02*
X52133800Y1767500D01*
X41973800Y1767500D02*
X41973800Y-2500000D01*
X82613800Y593750D02*
X82525050Y505000D01*
X72453800Y690000D02*
X72638800Y505000D01*
X63556300Y505000D02*
X53396300Y505000D01*
X41973800Y-2500000D02*
X42513800Y-3040000D01*
X43236300Y505000D02*
X31813800Y505000D01*
X62293800Y505000D02*
X62293800Y1767500D01*
X31813800Y505000D02*
X31813800Y1767500D01*
X72638800Y505000D02*
X63556300Y505000D01*
X53396300Y505000D02*
X43236300Y505000D01*
X72453800Y1767500D02*
X72453800Y690000D01*
X82613800Y1767500D02*
X82613800Y593750D01*
X82525050Y505000D02*
X72638800Y505000D01*
%TO.N,/D*%
X30453800Y-3030000D02*
X32993800Y-3030000D01*
X64833800Y3230000D02*
X74993800Y3230000D01*
X44513800Y3230000D02*
X54673800Y3230000D01*
X54673800Y3230000D02*
X54673800Y1767500D01*
X24193800Y1767500D02*
X24193800Y3230000D01*
X28003800Y-580000D02*
X30453800Y-3030000D01*
X54673800Y3230000D02*
X64833800Y3230000D01*
X34353800Y3230000D02*
X44513800Y3230000D01*
X24193800Y3230000D02*
X28003800Y3230000D01*
X74993800Y3230000D02*
X74993800Y1767500D01*
X44513800Y3230000D02*
X44513800Y1767500D01*
X28003800Y3230000D02*
X34353800Y3230000D01*
X34353800Y3230000D02*
X34353800Y1767500D01*
X64833800Y3230000D02*
X64833800Y1767500D01*
X28003800Y3230000D02*
X28003800Y-580000D01*
D24*
%TO.N,Net-(R12-Pad1)*%
X52133800Y7040000D02*
X52133800Y4692500D01*
%TO.N,Net-(R14-Pad1)*%
X54673800Y24830000D02*
X54653800Y24810000D01*
X54673800Y27167500D02*
X54673800Y24830000D01*
D23*
%TO.N,Net-(U1B-D)*%
X103391854Y14660000D02*
X104701567Y14660000D01*
X102933800Y17200000D02*
X101663800Y18470000D01*
X102515576Y13783722D02*
X103391854Y14660000D01*
X104701567Y14660000D02*
X105473800Y15432233D01*
X105473800Y15432233D02*
X105473800Y16427767D01*
X104701567Y17200000D02*
X102933800Y17200000D01*
X104203800Y10850000D02*
X102515576Y12538224D01*
D24*
X99123800Y18470000D02*
X101663800Y18470000D01*
D23*
X105473800Y16427767D02*
X104701567Y17200000D01*
X102515576Y12538224D02*
X102515576Y13783722D01*
D24*
%TO.N,+5V*%
X111823800Y26090000D02*
X111823800Y23550000D01*
X86423800Y23550000D02*
X91503800Y23550000D01*
X101663800Y26090000D02*
X111823800Y26090000D01*
X99123800Y23550000D02*
X99123800Y21010000D01*
X114268800Y23550000D02*
X123253800Y23550000D01*
X88963800Y15930000D02*
X88963800Y17693298D01*
X102298800Y28320000D02*
X102298800Y26725000D01*
X88963800Y15930000D02*
X91503800Y15930000D01*
X101663800Y26090000D02*
X101663800Y23550000D01*
X91503800Y15930000D02*
X94043800Y15930000D01*
X123253800Y21625000D02*
X123098800Y21470000D01*
X86423800Y20233298D02*
X86423800Y23550000D01*
X88963800Y17693298D02*
X86423800Y20233298D01*
X102298800Y26725000D02*
X101663800Y26090000D01*
X111823800Y23550000D02*
X114268800Y23550000D01*
X94043800Y15930000D02*
X96583800Y13390000D01*
X123253800Y23550000D02*
X123253800Y21625000D01*
X116903800Y23550000D02*
X116348800Y22995000D01*
X114268800Y23550000D02*
X116903800Y23550000D01*
X91503800Y23550000D02*
X101663800Y23550000D01*
X91503800Y23550000D02*
X91503800Y27360000D01*
X96583800Y13390000D02*
X99123800Y13390000D01*
X116348800Y22995000D02*
X116348800Y21470000D01*
D23*
%TO.N,Net-(U1A-D)*%
X104203800Y18470000D02*
X102913800Y19760000D01*
X96563800Y19760000D02*
X95313800Y21010000D01*
D24*
X88963800Y21010000D02*
X91503800Y21010000D01*
D23*
X95313800Y21010000D02*
X91503800Y21010000D01*
X102913800Y19760000D02*
X96563800Y19760000D01*
D24*
%TO.N,/A_logic*%
X77523800Y19730000D02*
X77523800Y17190000D01*
X67373800Y19740000D02*
X77533800Y19740000D01*
X36893800Y19740000D02*
X47053800Y19740000D01*
X86423800Y13390000D02*
X91503800Y13390000D01*
X101663800Y15930000D02*
X104203800Y15930000D01*
X82538674Y19730000D02*
X82548674Y19740000D01*
X82548674Y19740000D02*
X83883800Y19740000D01*
X26713800Y19720000D02*
X26733800Y19740000D01*
X47053800Y19740000D02*
X57213800Y19740000D01*
X26713800Y17190000D02*
X26713800Y19720000D01*
X77523800Y19730000D02*
X82538674Y19730000D01*
D23*
X92753800Y12140000D02*
X91503800Y13390000D01*
X101663800Y15930000D02*
X101663800Y12140000D01*
D24*
X83883800Y19740000D02*
X86423800Y17200000D01*
D23*
X101663800Y12140000D02*
X92753800Y12140000D01*
D24*
X36873800Y19720000D02*
X36893800Y19740000D01*
X57213800Y19740000D02*
X57193800Y19720000D01*
X77533800Y19740000D02*
X77523800Y19730000D01*
X67373800Y19740000D02*
X67363800Y19730000D01*
X47033800Y19720000D02*
X47033800Y17190000D01*
X47053800Y19740000D02*
X47033800Y19720000D01*
X67363800Y19730000D02*
X67363800Y17190000D01*
X57213800Y19740000D02*
X67373800Y19740000D01*
X36873800Y17190000D02*
X36873800Y19720000D01*
X26733800Y19740000D02*
X36893800Y19740000D01*
X57193800Y19720000D02*
X57193800Y17190000D01*
X86423800Y17200000D02*
X86423800Y13390000D01*
%TO.N,/A_n_logic*%
X69903800Y17190000D02*
X69923800Y17190000D01*
D26*
X49553800Y17190000D02*
X50813800Y15930000D01*
D24*
X91503800Y10850000D02*
X88963800Y10850000D01*
D26*
X40703800Y15930000D02*
X40703800Y15880000D01*
X81343800Y15880000D02*
X81293800Y15930000D01*
X81343800Y15930000D02*
X81343800Y15880000D01*
X40703800Y15880000D02*
X40653800Y15930000D01*
D24*
X49573800Y17190000D02*
X50813800Y15950000D01*
D26*
X71133800Y15930000D02*
X71183800Y15930000D01*
X50863800Y15930000D02*
X50863800Y15880000D01*
X61023800Y15880000D02*
X60973800Y15930000D01*
D24*
X39413800Y17190000D02*
X39443800Y17190000D01*
X29283800Y17190000D02*
X30543800Y15930000D01*
D26*
X30543800Y15900000D02*
X30513800Y15930000D01*
X39393800Y17190000D02*
X40653800Y15930000D01*
X71183800Y15880000D02*
X71133800Y15930000D01*
X30513800Y15930000D02*
X30543800Y15930000D01*
X50863800Y15880000D02*
X50813800Y15930000D01*
X71183800Y15930000D02*
X71183800Y15880000D01*
D24*
X59763800Y17190000D02*
X61023800Y15930000D01*
X69923800Y17190000D02*
X71183800Y15930000D01*
D26*
X30543800Y15930000D02*
X30543800Y15900000D01*
X60973800Y15930000D02*
X61023800Y15930000D01*
X61023800Y15930000D02*
X61023800Y15880000D01*
X40653800Y15930000D02*
X40703800Y15930000D01*
X69873800Y17190000D02*
X71133800Y15930000D01*
D24*
X59733800Y17190000D02*
X59763800Y17190000D01*
D26*
X59713800Y17190000D02*
X60973800Y15930000D01*
D24*
X80083800Y17190000D02*
X81343800Y15930000D01*
D26*
X80033800Y17190000D02*
X81293800Y15930000D01*
X81293800Y15930000D02*
X81343800Y15930000D01*
D24*
X50813800Y15950000D02*
X50813800Y15930000D01*
X29253800Y17190000D02*
X29283800Y17190000D01*
X39443800Y17190000D02*
X40703800Y15930000D01*
X80063800Y17190000D02*
X80083800Y17190000D01*
D26*
X50813800Y15930000D02*
X50863800Y15930000D01*
D24*
%TO.N,GND*%
X54653800Y17190000D02*
X53408800Y15945000D01*
X41953800Y17190000D02*
X43228800Y15915000D01*
X53408800Y15945000D02*
X54683800Y14670000D01*
X62303800Y14670000D02*
X63548800Y15915000D01*
X52143800Y14670000D02*
X52133800Y14660000D01*
X74983800Y17190000D02*
X73733800Y15940000D01*
X82603800Y17190000D02*
X83873800Y15920000D01*
X75003800Y14670000D02*
X72463800Y14670000D01*
X64843800Y14670000D02*
X62303800Y14670000D01*
X33053800Y15930000D02*
X31793800Y17190000D01*
X72463800Y14670000D02*
X73713800Y15920000D01*
X53388800Y15915000D02*
X52113800Y17190000D01*
X33088800Y15945000D02*
X34333800Y17190000D01*
X34363800Y14670000D02*
X33088800Y15945000D01*
X33083800Y15930000D02*
X33053800Y15930000D01*
X54683800Y14670000D02*
X52143800Y14670000D01*
X73733800Y15940000D02*
X75003800Y14670000D01*
X52133800Y14660000D02*
X53388800Y15915000D01*
X63573800Y15940000D02*
X64843800Y14670000D01*
X83873800Y15920000D02*
X82623800Y14670000D01*
X43238800Y15935000D02*
X44493800Y17190000D01*
X63548800Y15915000D02*
X62273800Y17190000D01*
X22928800Y15945000D02*
X24203800Y14670000D01*
X44513800Y14660000D02*
X43238800Y15935000D01*
X24173800Y17190000D02*
X22928800Y15945000D01*
X33083800Y15930000D02*
X31823800Y14670000D01*
X44503800Y14670000D02*
X44513800Y14660000D01*
X72443800Y17190000D02*
X74983800Y17190000D01*
X52113800Y17190000D02*
X54653800Y17190000D01*
X41983800Y14670000D02*
X44503800Y14670000D01*
X73713800Y15920000D02*
X72443800Y17190000D01*
X44493800Y17190000D02*
X41953800Y17190000D01*
X34333800Y17190000D02*
X31793800Y17190000D01*
X43228800Y15915000D02*
X41983800Y14670000D01*
X64823800Y17190000D02*
X63573800Y15940000D01*
X31823800Y14670000D02*
X34363800Y14670000D01*
X62273800Y17190000D02*
X64823800Y17190000D01*
D23*
%TO.N,/B_n_logic*%
X104203800Y23550000D02*
X105473800Y23550000D01*
D26*
X47043800Y14670000D02*
X45783800Y15930000D01*
D23*
X105473800Y23550000D02*
X108013800Y21010000D01*
D26*
X25463800Y15930000D02*
X25463800Y15950000D01*
D23*
X108013800Y12120000D02*
X105453800Y9560000D01*
D24*
X77543800Y14670000D02*
X77523800Y14670000D01*
X67383800Y14670000D02*
X67363800Y14670000D01*
X57203800Y14670000D02*
X55943800Y15930000D01*
D26*
X25463800Y15950000D02*
X25483800Y15930000D01*
D24*
X77523800Y14670000D02*
X76263800Y15930000D01*
X57223800Y14670000D02*
X57203800Y14670000D01*
D23*
X102913800Y9560000D02*
X101663800Y8310000D01*
D24*
X67363800Y14670000D02*
X66103800Y15930000D01*
X99123800Y8310000D02*
X101663800Y8310000D01*
X36903800Y14670000D02*
X36883800Y14670000D01*
X26723800Y14670000D02*
X25463800Y15930000D01*
X26743800Y14670000D02*
X26723800Y14670000D01*
X36883800Y14670000D02*
X35623800Y15930000D01*
D26*
X25483800Y15930000D02*
X25463800Y15930000D01*
D23*
X105453800Y9560000D02*
X102913800Y9560000D01*
D24*
X47053800Y14660000D02*
X45783800Y15930000D01*
D23*
X108013800Y21010000D02*
X108013800Y12120000D01*
D26*
%TO.N,/B_logic*%
X28003800Y15950000D02*
X28023800Y15930000D01*
D24*
X80063800Y14670000D02*
X78803800Y15930000D01*
D26*
X49583800Y14670000D02*
X48323800Y15930000D01*
D24*
X39443800Y14670000D02*
X39423800Y14670000D01*
X69903800Y14670000D02*
X68643800Y15930000D01*
X99123800Y10850000D02*
X101663800Y10850000D01*
X80083800Y14670000D02*
X80063800Y14670000D01*
D26*
X28023800Y15930000D02*
X28003800Y15930000D01*
D24*
X29283800Y14670000D02*
X29263800Y14670000D01*
X29263800Y14670000D02*
X28003800Y15930000D01*
X69923800Y14670000D02*
X69903800Y14670000D01*
X59763800Y14670000D02*
X59743800Y14670000D01*
X59743800Y14670000D02*
X58483800Y15930000D01*
X39423800Y14670000D02*
X38163800Y15930000D01*
D26*
X28003800Y15930000D02*
X28003800Y15950000D01*
D24*
X49593800Y14660000D02*
X48323800Y15930000D01*
%TO.N,VCC*%
X49593800Y7040000D02*
X47053800Y7040000D01*
X49593800Y8800000D02*
X57213800Y8800000D01*
X46253800Y8800000D02*
X49593800Y8800000D01*
X47033800Y24810000D02*
X49573800Y24810000D01*
X77533800Y23160382D02*
X77433418Y23060000D01*
X67373800Y8800000D02*
X67383800Y8790000D01*
X77533800Y8800000D02*
X77543800Y8790000D01*
X57193800Y24810000D02*
X59733800Y24810000D01*
X36873800Y23080000D02*
X36893800Y23060000D01*
X40032430Y23060000D02*
X39413800Y23678630D01*
X39443800Y7050000D02*
X36903800Y7050000D01*
X77523800Y23170382D02*
X77533800Y23160382D01*
X36873800Y24810000D02*
X39413800Y24810000D01*
X26713800Y24810000D02*
X29253800Y24810000D01*
X39413800Y23678630D02*
X39413800Y24810000D01*
X29273800Y8310000D02*
X29273800Y8800000D01*
X67363800Y23070000D02*
X67373800Y23060000D01*
X36403800Y8800000D02*
X36903800Y8300000D01*
X49593800Y7040000D02*
X49593800Y8800000D01*
X36893800Y23060000D02*
X29872430Y23060000D01*
X29872430Y23060000D02*
X29253800Y23678630D01*
X59763800Y7050000D02*
X57223800Y7050000D01*
X104838800Y30205000D02*
X99933800Y35110000D01*
X57213800Y7060000D02*
X57223800Y7050000D01*
X77543800Y8790000D02*
X77543800Y7050000D01*
X29273800Y8800000D02*
X35623800Y8800000D01*
X60352430Y23060000D02*
X59733800Y23678630D01*
X40032430Y23060000D02*
X36893800Y23060000D01*
X80083800Y7050000D02*
X77543800Y7050000D01*
X49573800Y23678630D02*
X49573800Y24810000D01*
X77523800Y24810000D02*
X77523800Y23170382D01*
X57213800Y23060000D02*
X50192430Y23060000D01*
X70522430Y23060000D02*
X67373800Y23060000D01*
X69923800Y7050000D02*
X67383800Y7050000D01*
X29283800Y8300000D02*
X29273800Y8310000D01*
X46253800Y8800000D02*
X47053800Y8800000D01*
X67363800Y24810000D02*
X69903800Y24810000D01*
X57193800Y24810000D02*
X57193800Y23080000D01*
X36873800Y24810000D02*
X36873800Y23080000D01*
X57213800Y8800000D02*
X77533800Y8800000D01*
X35623800Y8800000D02*
X36403800Y8800000D01*
X57193800Y23080000D02*
X57213800Y23060000D01*
X69903800Y23678630D02*
X69903800Y24810000D01*
X70522430Y23060000D02*
X69903800Y23678630D01*
X77433418Y23060000D02*
X70522430Y23060000D01*
X67373800Y23060000D02*
X60352430Y23060000D01*
X50192430Y23060000D02*
X49573800Y23678630D01*
X29283800Y7050000D02*
X29283800Y8300000D01*
X67363800Y24810000D02*
X67363800Y23070000D01*
X29283800Y7050000D02*
X26743800Y7050000D01*
X59733800Y23678630D02*
X59733800Y24810000D01*
X67383800Y8790000D02*
X67383800Y7050000D01*
X35623800Y8800000D02*
X46253800Y8800000D01*
X77523800Y24810000D02*
X80063800Y24810000D01*
X50192430Y23060000D02*
X40032430Y23060000D01*
X57213800Y8800000D02*
X57213800Y7060000D01*
X47053800Y8800000D02*
X47053800Y7040000D01*
X60352430Y23060000D02*
X57213800Y23060000D01*
X36903800Y8300000D02*
X36903800Y7050000D01*
X29253800Y23678630D02*
X29253800Y24810000D01*
D23*
%TO.N,/DIRECTION_upper*%
X102953800Y24800000D02*
X106763800Y24800000D01*
X109741854Y16244179D02*
X111326033Y14660000D01*
X106763800Y24800000D02*
X109741854Y21821946D01*
X104203800Y21010000D02*
X105473800Y21010000D01*
X115633800Y14660000D02*
X115748800Y14545000D01*
X106743800Y14660000D02*
X105473800Y13390000D01*
X119188800Y14545000D02*
X125938800Y14545000D01*
X111326033Y14660000D02*
X115633800Y14660000D01*
X104203800Y21010000D02*
X102953800Y22260000D01*
X105473800Y21010000D02*
X106743800Y19740000D01*
X105473800Y13390000D02*
X104203800Y13390000D01*
X106743800Y19740000D02*
X106743800Y14660000D01*
X115748800Y14545000D02*
X119188800Y14545000D01*
X109741854Y21821946D02*
X109741854Y16244179D01*
X102953800Y22260000D02*
X102953800Y24800000D01*
%TO.N,/CLOCK_upper*%
X119188800Y11775000D02*
X119188800Y10502208D01*
D24*
X91503800Y18470000D02*
X95313800Y18470000D01*
X95313800Y18470000D02*
X97853800Y15930000D01*
D23*
X113186592Y4500000D02*
X111823800Y4500000D01*
X119188800Y10502208D02*
X113186592Y4500000D01*
X119188800Y11775000D02*
X125938800Y11775000D01*
D24*
X97853800Y15930000D02*
X99123800Y15930000D01*
X99123800Y15930000D02*
X100393800Y14660000D01*
%TO.N,Net-(R69-Pad1)*%
X34363800Y4702500D02*
X34353800Y4692500D01*
X34363800Y7050000D02*
X34363800Y4702500D01*
%TO.N,Net-(R70-Pad1)*%
X41973800Y4692500D02*
X41973800Y7040000D01*
X41973800Y7040000D02*
X41983800Y7050000D01*
%TO.N,Net-(R44-Pad1)*%
X64833800Y27167500D02*
X64833800Y24820000D01*
X64833800Y24820000D02*
X64823800Y24810000D01*
%TO.N,Net-(R46-Pad1)*%
X72463800Y4702500D02*
X72453800Y4692500D01*
X72463800Y7050000D02*
X72463800Y4702500D01*
%TO.N,Net-(R47-Pad1)*%
X82603800Y24810000D02*
X82603800Y26965000D01*
X82603800Y26965000D02*
X82613800Y26975000D01*
%TO.N,Net-(R49-Pad1)*%
X75003800Y4702500D02*
X74993800Y4692500D01*
X75003800Y7050000D02*
X75003800Y4702500D01*
%TO.N,Net-(R5-Pad1)*%
X41953800Y27147500D02*
X41973800Y27167500D01*
X41953800Y24810000D02*
X41953800Y27147500D01*
%TO.N,Net-(R6-Pad1)*%
X34353800Y27167500D02*
X34353800Y24830000D01*
X34353800Y24830000D02*
X34333800Y24810000D01*
%TO.N,Net-(R9-Pad1)*%
X52113800Y24810000D02*
X52113800Y27147500D01*
X52113800Y27147500D02*
X52133800Y27167500D01*
%TO.N,Net-(R39-Pad1)*%
X31793800Y27147500D02*
X31813800Y27167500D01*
X31793800Y24810000D02*
X31793800Y27147500D01*
%TO.N,Net-(R54-Pad1)*%
X44513800Y24830000D02*
X44493800Y24810000D01*
X44513800Y27167500D02*
X44513800Y24830000D01*
%TO.N,Net-(R55-Pad1)*%
X62293800Y24830000D02*
X62273800Y24810000D01*
X62293800Y27167500D02*
X62293800Y24830000D01*
%TO.N,Net-(R57-Pad1)*%
X72453800Y24820000D02*
X72443800Y24810000D01*
X72453800Y27167500D02*
X72453800Y24820000D01*
%TO.N,Net-(R60-Pad1)*%
X74983800Y24810000D02*
X74983800Y27157500D01*
X74983800Y27157500D02*
X74993800Y27167500D01*
%TO.N,Net-(R62-Pad1)*%
X82623800Y4702500D02*
X82613800Y4692500D01*
X82623800Y7050000D02*
X82623800Y4702500D01*
%TO.N,Net-(R63-Pad1)*%
X64843800Y7050000D02*
X64843800Y4702500D01*
X64843800Y4702500D02*
X64833800Y4692500D01*
%TO.N,Net-(R65-Pad1)*%
X54683800Y4702500D02*
X54673800Y4692500D01*
X54683800Y7050000D02*
X54683800Y4702500D01*
%TO.N,Net-(R66-Pad1)*%
X62303800Y4702500D02*
X62293800Y4692500D01*
X62303800Y7050000D02*
X62303800Y4702500D01*
%TO.N,Net-(R67-Pad1)*%
X44513800Y7040000D02*
X44513800Y4885000D01*
%TO.N,Net-(R72-Pad1)*%
X31823800Y7050000D02*
X31823800Y4702500D01*
X31823800Y4702500D02*
X31813800Y4692500D01*
%TD*%
%TA.AperFunction,Conductor*%
%TO.N,VCC*%
G36*
X37101103Y26083153D02*
G01*
X37101944Y26087381D01*
X37148133Y26078194D01*
X37172506Y26065444D01*
X37227702Y26061826D01*
X37235749Y26060767D01*
X37276019Y26052757D01*
X37324223Y26084553D01*
X37360571Y26090000D01*
X38927029Y26090000D01*
X38994068Y26070315D01*
X39009619Y26052367D01*
X39051850Y26060767D01*
X39059897Y26061826D01*
X39107003Y26064913D01*
X39112146Y26069370D01*
X39139467Y26078194D01*
X39185656Y26087381D01*
X39186466Y26083305D01*
X39209815Y26090000D01*
X40073800Y26090000D01*
X40140839Y26070315D01*
X40186594Y26017511D01*
X40197800Y25966000D01*
X40197800Y25947929D01*
X40189981Y25904594D01*
X40186079Y25894134D01*
X40174549Y25845339D01*
X40168434Y25826402D01*
X40155019Y25794017D01*
X40157104Y25775410D01*
X40157518Y25775366D01*
X40157318Y25773506D01*
X40157368Y25773061D01*
X40157104Y25771520D01*
X40153332Y25736438D01*
X40302618Y25720388D01*
X40367169Y25693650D01*
X40398210Y25648941D01*
X40429761Y25621656D01*
X40447696Y25602468D01*
X40463317Y25581728D01*
X40483089Y25580333D01*
X40544137Y25564751D01*
X40604225Y25529098D01*
X40615323Y25515328D01*
X40623048Y25504203D01*
X40645116Y25437910D01*
X40645195Y25433478D01*
X40645195Y22439000D01*
X40625510Y22371961D01*
X40572706Y22326206D01*
X40521195Y22315000D01*
X40044250Y22315000D01*
X40037187Y22314919D01*
X39968701Y22313381D01*
X39962443Y22313557D01*
X39954054Y22314219D01*
X39954049Y22314219D01*
X39954041Y22314220D01*
X39934191Y22315000D01*
X36905601Y22315000D01*
X36898537Y22314919D01*
X36830064Y22313381D01*
X36823815Y22313557D01*
X36815411Y22314220D01*
X36795561Y22315000D01*
X35689195Y22315000D01*
X35622156Y22334685D01*
X35576401Y22387489D01*
X35565195Y22439000D01*
X35565195Y24364555D01*
X35569420Y24396648D01*
X35594732Y24491115D01*
X35619435Y24583308D01*
X35634792Y24758834D01*
X35639268Y24809998D01*
X35639268Y24810001D01*
X35631031Y24904147D01*
X35619435Y25036692D01*
X35608524Y25077409D01*
X35604300Y25109501D01*
X35604300Y25403050D01*
X35623985Y25470089D01*
X35676789Y25515844D01*
X35728958Y25523345D01*
X35735039Y25526359D01*
X35786381Y25547388D01*
X35799808Y25548777D01*
X35815406Y25571055D01*
X35859886Y25618452D01*
X35920115Y25653866D01*
X35950305Y25657597D01*
X36109800Y25657597D01*
X36109800Y25966000D01*
X36129485Y26033039D01*
X36182289Y26078794D01*
X36233800Y26090000D01*
X37077785Y26090000D01*
X37101103Y26083153D01*
G37*
%TD.AperFunction*%
%TD*%
%TA.AperFunction,Conductor*%
%TO.N,Net-(U11-ADJ)*%
G36*
X100903322Y31150315D02*
G01*
X100949077Y31097511D01*
X100960283Y31046000D01*
X100960283Y28959158D01*
X100949839Y28909347D01*
X100919816Y28840902D01*
X100860704Y28607472D01*
X100845800Y28427610D01*
X100845800Y28212389D01*
X100860704Y28032527D01*
X100919817Y27799094D01*
X100949839Y27730651D01*
X100960283Y27680841D01*
X100960283Y27206319D01*
X100940598Y27139280D01*
X100923968Y27118642D01*
X100856052Y27050726D01*
X100841259Y27038092D01*
X100837722Y27035522D01*
X100837718Y27035518D01*
X100837717Y27035517D01*
X100821098Y27018136D01*
X100814936Y27012503D01*
X100796134Y26997508D01*
X100751159Y26946031D01*
X100748323Y26942997D01*
X100739855Y26934529D01*
X100739854Y26934528D01*
X100732184Y26925341D01*
X100729412Y26922239D01*
X100710419Y26902374D01*
X100682168Y26872826D01*
X100668917Y26852752D01*
X100663860Y26846111D01*
X100648038Y26828001D01*
X100648034Y26827995D01*
X100645794Y26824245D01*
X100634532Y26808373D01*
X100631732Y26805019D01*
X100618490Y26781681D01*
X100598002Y26745573D01*
X100595832Y26742031D01*
X100558167Y26684971D01*
X100558164Y26684966D01*
X100548713Y26662855D01*
X100544923Y26655416D01*
X100532587Y26634768D01*
X100532581Y26634757D01*
X100531044Y26630661D01*
X100522805Y26613050D01*
X100520647Y26609247D01*
X100498071Y26544729D01*
X100496561Y26540839D01*
X100469700Y26477996D01*
X100469695Y26477981D01*
X100464343Y26454534D01*
X100461942Y26446538D01*
X100453493Y26424024D01*
X100452712Y26419720D01*
X100447750Y26400923D01*
X100446304Y26396790D01*
X100446301Y26396779D01*
X100435609Y26329270D01*
X100434818Y26325173D01*
X100419610Y26258544D01*
X100419608Y26258532D01*
X100418530Y26234509D01*
X100417595Y26226218D01*
X100413300Y26202547D01*
X100412306Y26197070D01*
X100411124Y26197284D01*
X100387716Y26137880D01*
X100331023Y26097042D01*
X100289830Y26090000D01*
X95437800Y26090000D01*
X95370761Y26109685D01*
X95325006Y26162489D01*
X95313800Y26214000D01*
X95313800Y31046000D01*
X95333485Y31113039D01*
X95386289Y31158794D01*
X95437800Y31170000D01*
X100836283Y31170000D01*
X100903322Y31150315D01*
G37*
%TD.AperFunction*%
%TD*%
%TA.AperFunction,Conductor*%
%TO.N,VCC*%
G36*
X36473776Y9546441D02*
G01*
X36482172Y9545781D01*
X36482198Y9545779D01*
X36492263Y9545384D01*
X36502039Y9545000D01*
X36502055Y9545000D01*
X40521195Y9545000D01*
X40588234Y9525315D01*
X40633989Y9472511D01*
X40645195Y9421000D01*
X40645195Y6452689D01*
X40625510Y6385650D01*
X40572706Y6339895D01*
X40568195Y6337941D01*
X40552301Y6331431D01*
X40552301Y6331430D01*
X40541217Y6326891D01*
X40527792Y6325501D01*
X40512194Y6303224D01*
X40497725Y6287806D01*
X40467714Y6255828D01*
X40407484Y6220415D01*
X40377295Y6216684D01*
X40217800Y6216684D01*
X40217800Y5894000D01*
X40198115Y5826961D01*
X40145311Y5781206D01*
X40093800Y5770000D01*
X39239815Y5770000D01*
X39216499Y5776846D01*
X39215659Y5772619D01*
X39169470Y5781805D01*
X39145092Y5794555D01*
X39089898Y5798173D01*
X39081849Y5799233D01*
X39041579Y5807242D01*
X38993377Y5775447D01*
X38957029Y5770000D01*
X37390571Y5770000D01*
X37323532Y5789685D01*
X37307981Y5807631D01*
X37265750Y5799232D01*
X37257701Y5798173D01*
X37210597Y5795085D01*
X37205454Y5790629D01*
X37178130Y5781805D01*
X37131941Y5772619D01*
X37131130Y5776693D01*
X37107785Y5770000D01*
X36243800Y5770000D01*
X36176761Y5789685D01*
X36131006Y5842489D01*
X36119800Y5894000D01*
X36119800Y5912072D01*
X36127616Y5955399D01*
X36131520Y5965866D01*
X36143049Y6014659D01*
X36149162Y6033592D01*
X36155419Y6048695D01*
X36155418Y6048695D01*
X36162583Y6065991D01*
X36160499Y6084589D01*
X36160081Y6084635D01*
X36160283Y6086519D01*
X36160234Y6086962D01*
X36160492Y6088474D01*
X36160495Y6088487D01*
X36164266Y6123566D01*
X36014976Y6139614D01*
X35950428Y6166350D01*
X35919376Y6211071D01*
X35887840Y6238342D01*
X35869902Y6257531D01*
X35854277Y6278273D01*
X35834499Y6279668D01*
X35815616Y6284487D01*
X35815616Y6284488D01*
X35815615Y6284487D01*
X35773460Y6295247D01*
X35713370Y6330899D01*
X35710216Y6334812D01*
X35697551Y6342326D01*
X35666271Y6404803D01*
X35664299Y6426819D01*
X35664299Y7897872D01*
X35657891Y7957483D01*
X35607596Y8092331D01*
X35589929Y8115930D01*
X35565511Y8181393D01*
X35565195Y8190242D01*
X35565195Y9421000D01*
X35584880Y9488039D01*
X35637684Y9533794D01*
X35689195Y9545000D01*
X36391965Y9545000D01*
X36391980Y9545000D01*
X36397553Y9545063D01*
X36399044Y9545081D01*
X36467528Y9546616D01*
X36473776Y9546441D01*
G37*
%TD.AperFunction*%
%TD*%
%TA.AperFunction,Conductor*%
%TO.N,VCC*%
G36*
X57421103Y26083153D02*
G01*
X57421944Y26087381D01*
X57468133Y26078194D01*
X57492506Y26065444D01*
X57547702Y26061826D01*
X57555749Y26060767D01*
X57596019Y26052757D01*
X57644223Y26084553D01*
X57680571Y26090000D01*
X59247029Y26090000D01*
X59314068Y26070315D01*
X59329619Y26052367D01*
X59371850Y26060767D01*
X59379897Y26061826D01*
X59427003Y26064913D01*
X59432146Y26069370D01*
X59459467Y26078194D01*
X59505656Y26087381D01*
X59506466Y26083305D01*
X59529815Y26090000D01*
X60400539Y26090000D01*
X60467578Y26070315D01*
X60513333Y26017511D01*
X60523277Y25948353D01*
X60516721Y25922667D01*
X60506081Y25894140D01*
X60506079Y25894135D01*
X60494548Y25845339D01*
X60488434Y25826407D01*
X60475016Y25794012D01*
X60477099Y25775409D01*
X60477518Y25775365D01*
X60477315Y25773482D01*
X60477365Y25773041D01*
X60477104Y25771520D01*
X60473332Y25736433D01*
X60475165Y25734159D01*
X60532948Y25710225D01*
X60563966Y25673113D01*
X60626653Y25558340D01*
X60626657Y25558334D01*
X60728410Y25456604D01*
X60728412Y25456603D01*
X60854692Y25387668D01*
X60854696Y25387666D01*
X60854697Y25387666D01*
X60856502Y25386993D01*
X60884518Y25376547D01*
X60940456Y25334680D01*
X60964878Y25269218D01*
X60965195Y25260361D01*
X60965195Y22439000D01*
X60945510Y22371961D01*
X60892706Y22326206D01*
X60841195Y22315000D01*
X60364250Y22315000D01*
X60357187Y22314919D01*
X60288701Y22313381D01*
X60282443Y22313557D01*
X60274054Y22314219D01*
X60274049Y22314219D01*
X60274041Y22314220D01*
X60254191Y22315000D01*
X57225601Y22315000D01*
X57218537Y22314919D01*
X57150064Y22313381D01*
X57143815Y22313557D01*
X57135411Y22314220D01*
X57115561Y22315000D01*
X56009195Y22315000D01*
X55942156Y22334685D01*
X55896401Y22387489D01*
X55885195Y22439000D01*
X55885195Y24364555D01*
X55889420Y24396648D01*
X55914732Y24491115D01*
X55939435Y24583308D01*
X55954792Y24758834D01*
X55959268Y24809998D01*
X55959268Y24810001D01*
X55951031Y24904147D01*
X55939435Y25036692D01*
X55928524Y25077409D01*
X55924300Y25109501D01*
X55924300Y25403050D01*
X55943985Y25470089D01*
X55996789Y25515844D01*
X56048958Y25523345D01*
X56055039Y25526359D01*
X56106381Y25547388D01*
X56119808Y25548777D01*
X56135406Y25571055D01*
X56179886Y25618452D01*
X56240115Y25653866D01*
X56270305Y25657597D01*
X56429800Y25657597D01*
X56429800Y25966000D01*
X56449485Y26033039D01*
X56502289Y26078794D01*
X56553800Y26090000D01*
X57397785Y26090000D01*
X57421103Y26083153D01*
G37*
%TD.AperFunction*%
%TD*%
%TA.AperFunction,Conductor*%
%TO.N,VCC*%
G36*
X49600694Y9545439D02*
G01*
X49606367Y9545249D01*
X49614920Y9545060D01*
X49620413Y9545000D01*
X50681195Y9545000D01*
X50748234Y9525315D01*
X50793989Y9472511D01*
X50805195Y9421000D01*
X50805195Y6456971D01*
X50785510Y6389932D01*
X50732706Y6344177D01*
X50728195Y6342223D01*
X50712301Y6335713D01*
X50712301Y6335712D01*
X50701217Y6331173D01*
X50687792Y6329783D01*
X50672194Y6307506D01*
X50657725Y6292088D01*
X50627714Y6260110D01*
X50567484Y6224697D01*
X50537295Y6220966D01*
X50377800Y6220966D01*
X50377800Y5894000D01*
X50358115Y5826961D01*
X50305311Y5781206D01*
X50253800Y5770000D01*
X49343657Y5770000D01*
X49293797Y5784640D01*
X49239904Y5788173D01*
X49231854Y5789233D01*
X49185561Y5798441D01*
X49179437Y5795466D01*
X49174676Y5795225D01*
X49144693Y5775447D01*
X49108344Y5770000D01*
X47539256Y5770000D01*
X47472217Y5789685D01*
X47464248Y5798880D01*
X47415745Y5789233D01*
X47407695Y5788173D01*
X47359877Y5785038D01*
X47355454Y5781206D01*
X47303943Y5770000D01*
X46393800Y5770000D01*
X46326761Y5789685D01*
X46281006Y5842489D01*
X46269800Y5894000D01*
X46269800Y5902072D01*
X46277616Y5945399D01*
X46281520Y5955866D01*
X46293049Y6004659D01*
X46299162Y6023592D01*
X46305419Y6038695D01*
X46305418Y6038695D01*
X46312583Y6055991D01*
X46310499Y6074589D01*
X46310081Y6074635D01*
X46310283Y6076519D01*
X46310234Y6076962D01*
X46310492Y6078474D01*
X46310495Y6078487D01*
X46314266Y6113566D01*
X46164976Y6129614D01*
X46100428Y6156350D01*
X46069376Y6201071D01*
X46037840Y6228342D01*
X46019902Y6247531D01*
X46004277Y6268273D01*
X45984499Y6269668D01*
X45965616Y6274487D01*
X45965616Y6274488D01*
X45965615Y6274487D01*
X45923460Y6285247D01*
X45863370Y6320899D01*
X45860216Y6324812D01*
X45847551Y6332326D01*
X45816271Y6394803D01*
X45814299Y6416819D01*
X45814299Y7887872D01*
X45807891Y7947483D01*
X45757596Y8082331D01*
X45749927Y8092574D01*
X45725511Y8158038D01*
X45725195Y8166885D01*
X45725195Y9421000D01*
X45744880Y9488039D01*
X45797684Y9533794D01*
X45849195Y9545000D01*
X46973838Y9545000D01*
X46990837Y9545572D01*
X47014103Y9547141D01*
X47021057Y9547219D01*
X47060694Y9545439D01*
X47066367Y9545249D01*
X47074920Y9545060D01*
X47080413Y9545000D01*
X47080452Y9545000D01*
X49513838Y9545000D01*
X49530837Y9545572D01*
X49554103Y9547141D01*
X49561057Y9547219D01*
X49600694Y9545439D01*
G37*
%TD.AperFunction*%
%TD*%
%TA.AperFunction,Conductor*%
%TO.N,VCC*%
G36*
X67591103Y26083153D02*
G01*
X67591944Y26087381D01*
X67638133Y26078194D01*
X67662506Y26065444D01*
X67717702Y26061826D01*
X67725749Y26060767D01*
X67766019Y26052757D01*
X67814223Y26084553D01*
X67850571Y26090000D01*
X69417029Y26090000D01*
X69484068Y26070315D01*
X69499619Y26052367D01*
X69541850Y26060767D01*
X69549897Y26061826D01*
X69597003Y26064913D01*
X69602146Y26069370D01*
X69629467Y26078194D01*
X69675656Y26087381D01*
X69676466Y26083305D01*
X69699815Y26090000D01*
X70570539Y26090000D01*
X70637578Y26070315D01*
X70683333Y26017511D01*
X70693277Y25948353D01*
X70686721Y25922667D01*
X70676081Y25894140D01*
X70676079Y25894135D01*
X70664548Y25845339D01*
X70658434Y25826407D01*
X70645016Y25794012D01*
X70647099Y25775409D01*
X70647518Y25775365D01*
X70647315Y25773482D01*
X70647365Y25773041D01*
X70647104Y25771520D01*
X70643332Y25736434D01*
X70792614Y25720386D01*
X70857165Y25693648D01*
X70888199Y25648951D01*
X70919761Y25621656D01*
X70937696Y25602468D01*
X70953317Y25581728D01*
X70973088Y25580333D01*
X71031861Y25565332D01*
X71091950Y25529680D01*
X71123225Y25467200D01*
X71125195Y25445184D01*
X71125195Y22439000D01*
X71105510Y22371961D01*
X71052706Y22326206D01*
X71001195Y22315000D01*
X70534250Y22315000D01*
X70527187Y22314919D01*
X70458701Y22313381D01*
X70452443Y22313557D01*
X70444054Y22314219D01*
X70444049Y22314219D01*
X70444041Y22314220D01*
X70424191Y22315000D01*
X67385601Y22315000D01*
X67378537Y22314919D01*
X67310064Y22313381D01*
X67303815Y22313557D01*
X67295411Y22314220D01*
X67275561Y22315000D01*
X66169195Y22315000D01*
X66102156Y22334685D01*
X66056401Y22387489D01*
X66045195Y22439000D01*
X66045195Y24327234D01*
X66049420Y24359327D01*
X66084732Y24491115D01*
X66109435Y24583308D01*
X66124792Y24758834D01*
X66129268Y24809998D01*
X66129268Y24810001D01*
X66121031Y24904147D01*
X66109435Y25036692D01*
X66088524Y25114729D01*
X66084300Y25146822D01*
X66084300Y25388769D01*
X66103985Y25455808D01*
X66156789Y25501563D01*
X66208962Y25509064D01*
X66215036Y25512075D01*
X66266381Y25533106D01*
X66279807Y25534495D01*
X66295405Y25556774D01*
X66309873Y25572191D01*
X66339884Y25604170D01*
X66400114Y25639584D01*
X66430304Y25643315D01*
X66589800Y25643315D01*
X66589800Y25966000D01*
X66609485Y26033039D01*
X66662289Y26078794D01*
X66713800Y26090000D01*
X67567785Y26090000D01*
X67591103Y26083153D01*
G37*
%TD.AperFunction*%
%TD*%
%TA.AperFunction,Conductor*%
%TO.N,VCC*%
G36*
X67443776Y9546441D02*
G01*
X67452172Y9545781D01*
X67452198Y9545779D01*
X67462263Y9545384D01*
X67472039Y9545000D01*
X67472055Y9545000D01*
X71001195Y9545000D01*
X71068234Y9525315D01*
X71113989Y9472511D01*
X71125195Y9421000D01*
X71125195Y6462875D01*
X71105510Y6395836D01*
X71052706Y6350081D01*
X71048194Y6348127D01*
X71042301Y6345713D01*
X71031216Y6341173D01*
X71017792Y6339783D01*
X71002194Y6317506D01*
X70987725Y6302088D01*
X70957714Y6270110D01*
X70897484Y6234697D01*
X70867295Y6230966D01*
X70707800Y6230966D01*
X70707800Y5894000D01*
X70688115Y5826961D01*
X70635311Y5781206D01*
X70583800Y5770000D01*
X69719815Y5770000D01*
X69696499Y5776846D01*
X69695659Y5772619D01*
X69649470Y5781805D01*
X69625092Y5794555D01*
X69569898Y5798173D01*
X69561849Y5799233D01*
X69521579Y5807242D01*
X69473377Y5775447D01*
X69437029Y5770000D01*
X67870571Y5770000D01*
X67803532Y5789685D01*
X67787981Y5807631D01*
X67745750Y5799232D01*
X67737701Y5798173D01*
X67690597Y5795085D01*
X67685454Y5790629D01*
X67658130Y5781805D01*
X67611941Y5772619D01*
X67611130Y5776693D01*
X67587785Y5770000D01*
X66723800Y5770000D01*
X66656761Y5789685D01*
X66611006Y5842489D01*
X66599800Y5894000D01*
X66599800Y5912070D01*
X66607617Y5955401D01*
X66611519Y5965864D01*
X66611520Y5965866D01*
X66623049Y6014658D01*
X66629165Y6033596D01*
X66642584Y6065992D01*
X66640499Y6084589D01*
X66640080Y6084635D01*
X66640283Y6086524D01*
X66640234Y6086963D01*
X66640492Y6088474D01*
X66640495Y6088487D01*
X66644266Y6123566D01*
X66494976Y6139614D01*
X66430428Y6166350D01*
X66399376Y6211071D01*
X66367840Y6238342D01*
X66349902Y6257531D01*
X66334277Y6278273D01*
X66314499Y6279668D01*
X66295616Y6284487D01*
X66295616Y6284488D01*
X66295615Y6284487D01*
X66253460Y6295247D01*
X66193370Y6330899D01*
X66190216Y6334812D01*
X66177551Y6342326D01*
X66146271Y6404803D01*
X66144299Y6426819D01*
X66144299Y7897872D01*
X66137891Y7957483D01*
X66087596Y8092331D01*
X66069928Y8115932D01*
X66045510Y8181394D01*
X66045195Y8190214D01*
X66045195Y9421000D01*
X66064880Y9488040D01*
X66117684Y9533794D01*
X66169195Y9545000D01*
X67361965Y9545000D01*
X67361980Y9545000D01*
X67367553Y9545063D01*
X67369044Y9545081D01*
X67437528Y9546616D01*
X67443776Y9546441D01*
G37*
%TD.AperFunction*%
%TD*%
%TA.AperFunction,Conductor*%
%TO.N,VCC*%
G36*
X29280707Y9545439D02*
G01*
X29286367Y9545249D01*
X29294920Y9545060D01*
X29300413Y9545000D01*
X30361195Y9545000D01*
X30428234Y9525315D01*
X30473989Y9472511D01*
X30485195Y9421000D01*
X30485195Y6462875D01*
X30465510Y6395836D01*
X30412706Y6350081D01*
X30408194Y6348127D01*
X30402301Y6345713D01*
X30391216Y6341173D01*
X30377792Y6339783D01*
X30362194Y6317506D01*
X30347725Y6302088D01*
X30317714Y6270110D01*
X30257484Y6234697D01*
X30227295Y6230966D01*
X30067800Y6230966D01*
X30067800Y5894000D01*
X30048115Y5826961D01*
X29995311Y5781206D01*
X29943800Y5770000D01*
X29079815Y5770000D01*
X29056499Y5776846D01*
X29055659Y5772619D01*
X29009470Y5781805D01*
X28985092Y5794555D01*
X28929898Y5798173D01*
X28921849Y5799233D01*
X28881579Y5807242D01*
X28833377Y5775447D01*
X28797029Y5770000D01*
X27230571Y5770000D01*
X27163532Y5789685D01*
X27147981Y5807631D01*
X27105750Y5799232D01*
X27097701Y5798173D01*
X27050597Y5795085D01*
X27045454Y5790629D01*
X27018130Y5781805D01*
X26971941Y5772619D01*
X26971130Y5776693D01*
X26947785Y5770000D01*
X26083800Y5770000D01*
X26016761Y5789685D01*
X25971006Y5842489D01*
X25959800Y5894000D01*
X25959800Y5912072D01*
X25967616Y5955399D01*
X25971520Y5965866D01*
X25983049Y6014659D01*
X25989162Y6033592D01*
X25995419Y6048695D01*
X25995418Y6048695D01*
X26002583Y6065991D01*
X26000499Y6084589D01*
X26000081Y6084635D01*
X26000283Y6086519D01*
X26000234Y6086962D01*
X26000492Y6088474D01*
X26000495Y6088487D01*
X26004266Y6123566D01*
X25854976Y6139614D01*
X25790428Y6166350D01*
X25759376Y6211071D01*
X25727840Y6238342D01*
X25709902Y6257531D01*
X25694277Y6278273D01*
X25674499Y6279668D01*
X25655616Y6284487D01*
X25655616Y6284488D01*
X25655615Y6284487D01*
X25613460Y6295247D01*
X25553370Y6330899D01*
X25550216Y6334812D01*
X25537551Y6342326D01*
X25506271Y6404803D01*
X25504299Y6426820D01*
X25504299Y7187846D01*
X25523984Y7254885D01*
X25576788Y7300640D01*
X25633212Y7311749D01*
X25654487Y7310905D01*
X25654490Y7310905D01*
X25654496Y7310905D01*
X25723987Y7318097D01*
X25723990Y7318098D01*
X25863535Y7353124D01*
X25987563Y7426048D01*
X26042152Y7469681D01*
X26086814Y7517272D01*
X26088183Y7518685D01*
X26188378Y7618881D01*
X26223154Y7653657D01*
X26239708Y7667547D01*
X26335892Y7734894D01*
X26354608Y7745700D01*
X26461026Y7795325D01*
X26481339Y7802718D01*
X26594747Y7833105D01*
X26616032Y7836858D01*
X26732990Y7847091D01*
X26754606Y7847091D01*
X26871567Y7836858D01*
X26892850Y7833105D01*
X26970991Y7812168D01*
X26971020Y7812161D01*
X27003469Y7805708D01*
X27037179Y7801270D01*
X27068370Y7797165D01*
X27068374Y7797164D01*
X27068380Y7797164D01*
X27068399Y7797162D01*
X27101390Y7795000D01*
X27101395Y7795000D01*
X27899290Y7795000D01*
X27899300Y7795000D01*
X27908290Y7795966D01*
X28006750Y7806552D01*
X28006762Y7806554D01*
X28058272Y7817760D01*
X28160797Y7851883D01*
X28160803Y7851886D01*
X28281837Y7929671D01*
X28281848Y7929679D01*
X28334640Y7975423D01*
X28334643Y7975426D01*
X28334647Y7975430D01*
X28428867Y8084164D01*
X28488638Y8215041D01*
X28508323Y8282080D01*
X28508324Y8282084D01*
X28528800Y8424500D01*
X28528800Y8720018D01*
X28528227Y8737034D01*
X28526655Y8760326D01*
X28526578Y8767261D01*
X28528356Y8806841D01*
X28528546Y8812492D01*
X28528736Y8820917D01*
X28528800Y8826603D01*
X28528800Y8866232D01*
X28529191Y8873184D01*
X28529812Y8878695D01*
X28531583Y8894400D01*
X28532741Y8901213D01*
X28541555Y8939823D01*
X28542155Y8942595D01*
X28542753Y8945354D01*
X28543439Y8948708D01*
X28544449Y8953642D01*
X28545526Y8959217D01*
X28552599Y8998196D01*
X28554217Y9004937D01*
X28560356Y9025377D01*
X28562722Y9031906D01*
X28578289Y9068327D01*
X28580456Y9073558D01*
X28583601Y9081399D01*
X28583602Y9081403D01*
X28583619Y9081444D01*
X28585634Y9086633D01*
X28586231Y9088222D01*
X28599570Y9123765D01*
X28602370Y9130120D01*
X28612062Y9149143D01*
X28615559Y9155147D01*
X28637387Y9188216D01*
X28640366Y9192840D01*
X28640406Y9192903D01*
X28644905Y9200060D01*
X28647894Y9204937D01*
X28668227Y9238969D01*
X28672125Y9244731D01*
X28685032Y9261682D01*
X28689543Y9266964D01*
X28716923Y9295603D01*
X28720774Y9299722D01*
X28721590Y9300614D01*
X28722233Y9301318D01*
X28726474Y9305957D01*
X28730270Y9310204D01*
X28744932Y9326986D01*
X28756332Y9340034D01*
X28761195Y9345007D01*
X28776924Y9359385D01*
X28782315Y9363785D01*
X28798063Y9375227D01*
X28814407Y9387102D01*
X28819002Y9390520D01*
X28825704Y9395625D01*
X28830133Y9399078D01*
X28861077Y9423754D01*
X28866743Y9427775D01*
X28884802Y9439122D01*
X28890890Y9442487D01*
X28926561Y9459664D01*
X28927857Y9460306D01*
X28931757Y9462240D01*
X28939278Y9466075D01*
X28941548Y9467264D01*
X28944233Y9468670D01*
X28979082Y9487422D01*
X28985380Y9490369D01*
X29005151Y9498301D01*
X29011746Y9500527D01*
X29049848Y9511042D01*
X29055283Y9512607D01*
X29063267Y9515001D01*
X29068882Y9516756D01*
X29095222Y9525315D01*
X29106581Y9529006D01*
X29113301Y9530779D01*
X29122829Y9532729D01*
X29134188Y9535053D01*
X29141062Y9536063D01*
X29180389Y9539603D01*
X29185944Y9540164D01*
X29185951Y9540164D01*
X29185963Y9540166D01*
X29194355Y9541108D01*
X29194385Y9541111D01*
X29194432Y9541117D01*
X29200051Y9541812D01*
X29229183Y9545759D01*
X29251391Y9546756D01*
X29280707Y9545439D01*
G37*
%TD.AperFunction*%
%TD*%
%TA.AperFunction,Conductor*%
%TO.N,VCC*%
G36*
X77651567Y25596858D02*
G01*
X77672850Y25593105D01*
X77750991Y25572168D01*
X77751020Y25572161D01*
X77783469Y25565708D01*
X77817179Y25561270D01*
X77848370Y25557165D01*
X77848374Y25557164D01*
X77848380Y25557164D01*
X77848399Y25557162D01*
X77881390Y25555000D01*
X77881395Y25555000D01*
X79706210Y25555000D01*
X79739200Y25557162D01*
X79739219Y25557164D01*
X79739223Y25557164D01*
X79739230Y25557165D01*
X79783401Y25562979D01*
X79804130Y25565708D01*
X79804133Y25565708D01*
X79804136Y25565709D01*
X79808622Y25566601D01*
X79836594Y25572164D01*
X79914748Y25593105D01*
X79936032Y25596858D01*
X80052990Y25607091D01*
X80074606Y25607091D01*
X80191566Y25596858D01*
X80212851Y25593105D01*
X80326267Y25562716D01*
X80346574Y25555325D01*
X80382414Y25538613D01*
X80452985Y25505705D01*
X80471703Y25494898D01*
X80567886Y25427550D01*
X80584444Y25413656D01*
X80673006Y25325095D01*
X80678685Y25318562D01*
X80682556Y25313426D01*
X80682597Y25313372D01*
X80698879Y25293246D01*
X80698923Y25293194D01*
X80721916Y25266711D01*
X80721920Y25266707D01*
X80833946Y25176431D01*
X80894038Y25140776D01*
X80894047Y25140772D01*
X81026958Y25085716D01*
X81026957Y25085716D01*
X81170013Y25070334D01*
X81170022Y25070333D01*
X81174881Y25070507D01*
X81242580Y25053224D01*
X81290187Y25002084D01*
X81303300Y24946586D01*
X81303300Y24672152D01*
X81283615Y24605113D01*
X81230811Y24559358D01*
X81174386Y24548249D01*
X81153101Y24549094D01*
X81083602Y24541900D01*
X80944052Y24506870D01*
X80820024Y24433942D01*
X80813723Y24428905D01*
X80765449Y24390318D01*
X80720789Y24342730D01*
X80719420Y24341316D01*
X80706403Y24328299D01*
X80706403Y24328300D01*
X80644847Y24266744D01*
X80584448Y24206345D01*
X80567889Y24192450D01*
X80471705Y24125103D01*
X80452989Y24114297D01*
X80346571Y24064672D01*
X80326266Y24057282D01*
X80212851Y24026893D01*
X80191573Y24023141D01*
X80074605Y24012908D01*
X80053001Y24012908D01*
X79936031Y24023140D01*
X79914745Y24026894D01*
X79877399Y24036900D01*
X79836597Y24047834D01*
X79804136Y24054291D01*
X79739230Y24062835D01*
X79739200Y24062836D01*
X79739200Y24062837D01*
X79706210Y24065000D01*
X79706205Y24065000D01*
X78898300Y24065000D01*
X78790844Y24053447D01*
X78739333Y24042241D01*
X78739327Y24042239D01*
X78636802Y24008116D01*
X78636796Y24008113D01*
X78515757Y23930325D01*
X78515752Y23930321D01*
X78515751Y23930320D01*
X78462959Y23884576D01*
X78462956Y23884572D01*
X78462953Y23884570D01*
X78368733Y23775836D01*
X78368733Y23775835D01*
X78368730Y23775831D01*
X78308963Y23644963D01*
X78301646Y23620043D01*
X78289277Y23577920D01*
X78289276Y23577916D01*
X78276210Y23487034D01*
X78268800Y23435498D01*
X78268800Y23348623D01*
X78268942Y23340177D01*
X78269368Y23327493D01*
X78269795Y23319024D01*
X78271725Y23290340D01*
X78273441Y23273407D01*
X78273451Y23273319D01*
X78276579Y23250230D01*
X78277125Y23243297D01*
X78277684Y23218397D01*
X78278016Y23203634D01*
X78278207Y23197948D01*
X78278460Y23192314D01*
X78278585Y23189554D01*
X78278901Y23183916D01*
X78281565Y23144406D01*
X78281643Y23137445D01*
X78280686Y23116153D01*
X78279984Y23109234D01*
X78273778Y23070054D01*
X78272961Y23064493D01*
X78271839Y23056210D01*
X78271128Y23050482D01*
X78266697Y23011148D01*
X78265531Y23004287D01*
X78260788Y22983511D01*
X78258863Y22976827D01*
X78245759Y22939378D01*
X78243927Y22933947D01*
X78241315Y22925904D01*
X78239673Y22920649D01*
X78228279Y22882703D01*
X78225909Y22876166D01*
X78217532Y22856563D01*
X78214442Y22850326D01*
X78194911Y22815904D01*
X78192106Y22810829D01*
X78188130Y22803438D01*
X78185519Y22798454D01*
X78167531Y22763151D01*
X78164031Y22757141D01*
X78152288Y22739350D01*
X78148140Y22733772D01*
X78139122Y22722970D01*
X78122770Y22703384D01*
X78119178Y22698981D01*
X78113857Y22692309D01*
X78110422Y22687900D01*
X78092679Y22664597D01*
X78077682Y22648190D01*
X78056026Y22628396D01*
X78051808Y22624451D01*
X78045715Y22618621D01*
X78041734Y22614727D01*
X78041707Y22614700D01*
X77968779Y22541772D01*
X77968738Y22541730D01*
X77963797Y22536683D01*
X77928412Y22499674D01*
X77909404Y22483440D01*
X77867554Y22454447D01*
X77867529Y22454429D01*
X77861887Y22450430D01*
X77825687Y22424129D01*
X77820408Y22420294D01*
X77798810Y22407717D01*
X77752363Y22386620D01*
X77745984Y22383636D01*
X77699964Y22361474D01*
X77676471Y22352957D01*
X77626742Y22340427D01*
X77619985Y22338638D01*
X77570956Y22325106D01*
X77546311Y22320919D01*
X77495427Y22317489D01*
X77488390Y22316936D01*
X77467281Y22315036D01*
X77463822Y22314823D01*
X77452179Y22314430D01*
X77451859Y22314413D01*
X77443684Y22314001D01*
X77426095Y22312815D01*
X77407330Y22312973D01*
X77402091Y22313416D01*
X77380996Y22314602D01*
X77378431Y22314673D01*
X77366828Y22315000D01*
X77366808Y22315000D01*
X76387800Y22315000D01*
X76320761Y22334685D01*
X76275006Y22387489D01*
X76263800Y22439000D01*
X76263800Y24545953D01*
X76268024Y24578043D01*
X76269435Y24583308D01*
X76289268Y24810000D01*
X76283945Y24870838D01*
X76297711Y24939338D01*
X76346326Y24989521D01*
X76394704Y25004987D01*
X76454161Y25011142D01*
X76455053Y25011188D01*
X76457341Y25011470D01*
X76596899Y25046503D01*
X76720924Y25119430D01*
X76720925Y25119430D01*
X76720927Y25119432D01*
X76775501Y25163056D01*
X76844832Y25236934D01*
X76873946Y25267957D01*
X76873947Y25267959D01*
X76873954Y25267966D01*
X76906242Y25314079D01*
X76920136Y25330637D01*
X77003157Y25413658D01*
X77019709Y25427547D01*
X77115893Y25494895D01*
X77134607Y25505700D01*
X77241026Y25555325D01*
X77261339Y25562718D01*
X77374747Y25593105D01*
X77396032Y25596858D01*
X77512990Y25607091D01*
X77534606Y25607091D01*
X77651567Y25596858D01*
G37*
%TD.AperFunction*%
%TD*%
%TA.AperFunction,Conductor*%
%TO.N,VCC*%
G36*
X47261103Y26083153D02*
G01*
X47261944Y26087381D01*
X47308133Y26078194D01*
X47332506Y26065444D01*
X47387702Y26061826D01*
X47395749Y26060767D01*
X47436019Y26052757D01*
X47484223Y26084553D01*
X47520571Y26090000D01*
X49087029Y26090000D01*
X49154068Y26070315D01*
X49169619Y26052367D01*
X49211850Y26060767D01*
X49219897Y26061826D01*
X49267003Y26064913D01*
X49272146Y26069370D01*
X49299467Y26078194D01*
X49345656Y26087381D01*
X49346466Y26083305D01*
X49369815Y26090000D01*
X50233799Y26090000D01*
X50300838Y26070315D01*
X50346593Y26017511D01*
X50357799Y25966000D01*
X50357799Y25947927D01*
X50349980Y25904591D01*
X50346078Y25894131D01*
X50334548Y25845335D01*
X50328434Y25826403D01*
X50322178Y25811300D01*
X50315017Y25794012D01*
X50317101Y25775410D01*
X50317518Y25775366D01*
X50317316Y25773490D01*
X50317366Y25773047D01*
X50317104Y25771518D01*
X50313332Y25736436D01*
X50462616Y25720387D01*
X50527167Y25693649D01*
X50558202Y25648948D01*
X50589761Y25621656D01*
X50607696Y25602468D01*
X50623317Y25581728D01*
X50643089Y25580333D01*
X50704137Y25564751D01*
X50764225Y25529098D01*
X50775323Y25515328D01*
X50783048Y25504203D01*
X50805116Y25437910D01*
X50805195Y25433478D01*
X50805195Y22439000D01*
X50785510Y22371961D01*
X50732706Y22326206D01*
X50681195Y22315000D01*
X50204250Y22315000D01*
X50197187Y22314919D01*
X50128701Y22313381D01*
X50122443Y22313557D01*
X50114054Y22314219D01*
X50114049Y22314219D01*
X50114041Y22314220D01*
X50094191Y22315000D01*
X45849195Y22315000D01*
X45782156Y22334685D01*
X45736401Y22387489D01*
X45725195Y22439000D01*
X45725195Y24364555D01*
X45729420Y24396648D01*
X45754732Y24491115D01*
X45779435Y24583308D01*
X45794792Y24758834D01*
X45799268Y24809998D01*
X45799268Y24810001D01*
X45791031Y24904147D01*
X45779435Y25036692D01*
X45768524Y25077409D01*
X45764300Y25109501D01*
X45764300Y25403050D01*
X45783985Y25470089D01*
X45836789Y25515844D01*
X45888958Y25523345D01*
X45895039Y25526359D01*
X45946381Y25547388D01*
X45959808Y25548777D01*
X45975406Y25571055D01*
X46019886Y25618452D01*
X46080115Y25653866D01*
X46110305Y25657597D01*
X46269800Y25657597D01*
X46269800Y25966000D01*
X46289485Y26033039D01*
X46342289Y26078794D01*
X46393800Y26090000D01*
X47237785Y26090000D01*
X47261103Y26083153D01*
G37*
%TD.AperFunction*%
%TD*%
%TA.AperFunction,Conductor*%
%TO.N,GND*%
G36*
X124756154Y13774815D02*
G01*
X124792923Y13738322D01*
X124829815Y13681854D01*
X124829819Y13681848D01*
X124829821Y13681847D01*
X124970129Y13529431D01*
X124987019Y13511084D01*
X124987022Y13511081D01*
X125170165Y13368535D01*
X125170171Y13368531D01*
X125353987Y13269055D01*
X125403577Y13219835D01*
X125418685Y13151618D01*
X125394514Y13086063D01*
X125353987Y13050945D01*
X125335348Y13040858D01*
X125170174Y12951470D01*
X125170172Y12951468D01*
X125170171Y12951468D01*
X125170165Y12951464D01*
X124987022Y12808918D01*
X124987016Y12808913D01*
X124829821Y12638153D01*
X124829817Y12638147D01*
X124829815Y12638145D01*
X124792923Y12581678D01*
X124739777Y12536322D01*
X124689115Y12525500D01*
X120438485Y12525500D01*
X120371446Y12545185D01*
X120334677Y12581678D01*
X120297784Y12638145D01*
X120297779Y12638153D01*
X120140584Y12808913D01*
X120010469Y12910185D01*
X119957434Y12951464D01*
X119957431Y12951465D01*
X119957426Y12951470D01*
X119773611Y13050945D01*
X119724022Y13100165D01*
X119708914Y13168381D01*
X119733084Y13233937D01*
X119773611Y13269054D01*
X119957426Y13368530D01*
X119957428Y13368531D01*
X119957434Y13368535D01*
X120140577Y13511081D01*
X120140580Y13511084D01*
X120140584Y13511087D01*
X120297779Y13681847D01*
X120297784Y13681854D01*
X120334677Y13738322D01*
X120387823Y13783678D01*
X120438485Y13794500D01*
X124689115Y13794500D01*
X124756154Y13774815D01*
G37*
%TD.AperFunction*%
%TA.AperFunction,Conductor*%
G36*
X115041339Y22279815D02*
G01*
X115087094Y22227011D01*
X115098300Y22175500D01*
X115098300Y22131619D01*
X115087856Y22081810D01*
X115019932Y21926959D01*
X115019642Y21926297D01*
X114962666Y21701308D01*
X114962664Y21701297D01*
X114943500Y21470006D01*
X114943500Y21469993D01*
X114962664Y21238702D01*
X114962666Y21238691D01*
X115019642Y21013699D01*
X115112875Y20801151D01*
X115239816Y20606852D01*
X115293899Y20548102D01*
X115376847Y20457996D01*
X115397019Y20436084D01*
X115397022Y20436081D01*
X115580165Y20293535D01*
X115580171Y20293531D01*
X115763987Y20194055D01*
X115813577Y20144835D01*
X115828685Y20076618D01*
X115804514Y20011063D01*
X115763987Y19975945D01*
X115692804Y19937422D01*
X115580174Y19876470D01*
X115580172Y19876468D01*
X115580171Y19876468D01*
X115580165Y19876464D01*
X115403572Y19739016D01*
X115397016Y19733913D01*
X115239821Y19563153D01*
X115239819Y19563151D01*
X115239816Y19563147D01*
X115112875Y19368848D01*
X115019642Y19156300D01*
X114962666Y18931308D01*
X114962664Y18931297D01*
X114943500Y18700006D01*
X114943500Y18699993D01*
X114962664Y18468702D01*
X114962666Y18468691D01*
X115019642Y18243699D01*
X115112875Y18031151D01*
X115239816Y17836852D01*
X115397019Y17666084D01*
X115397022Y17666081D01*
X115580165Y17523535D01*
X115580171Y17523531D01*
X115784295Y17413064D01*
X115784304Y17413061D01*
X116003815Y17337702D01*
X116155553Y17312382D01*
X116232751Y17299500D01*
X116232752Y17299500D01*
X116464848Y17299500D01*
X116464849Y17299500D01*
X116542047Y17312382D01*
X116693784Y17337702D01*
X116913295Y17413061D01*
X116913304Y17413064D01*
X117117428Y17523531D01*
X117117434Y17523535D01*
X117300577Y17666081D01*
X117300580Y17666084D01*
X117300584Y17666087D01*
X117457779Y17836847D01*
X117457784Y17836854D01*
X117494677Y17893322D01*
X117547823Y17938678D01*
X117598485Y17949500D01*
X117748013Y17949500D01*
X117815052Y17929815D01*
X117860807Y17877011D01*
X117870751Y17807853D01*
X117861568Y17775690D01*
X117859643Y17771300D01*
X117859641Y17771295D01*
X117802666Y17546308D01*
X117802664Y17546297D01*
X117783500Y17315006D01*
X117783500Y17314993D01*
X117802664Y17083702D01*
X117802666Y17083691D01*
X117859642Y16858699D01*
X117952875Y16646151D01*
X118079816Y16451852D01*
X118237019Y16281084D01*
X118237022Y16281081D01*
X118420165Y16138535D01*
X118420171Y16138531D01*
X118603987Y16039055D01*
X118653577Y15989835D01*
X118668685Y15921618D01*
X118644514Y15856063D01*
X118603987Y15820945D01*
X118597529Y15817450D01*
X118420174Y15721470D01*
X118420172Y15721468D01*
X118420171Y15721468D01*
X118420165Y15721464D01*
X118237022Y15578918D01*
X118237016Y15578913D01*
X118079821Y15408153D01*
X118079817Y15408147D01*
X118079815Y15408145D01*
X118042923Y15351678D01*
X117989777Y15306322D01*
X117939115Y15295500D01*
X116074289Y15295500D01*
X116021886Y15307117D01*
X116014901Y15310374D01*
X115961604Y15335226D01*
X115960105Y15335952D01*
X115892233Y15370040D01*
X115892217Y15370043D01*
X115885446Y15372509D01*
X115885467Y15372567D01*
X115878346Y15375043D01*
X115878328Y15374986D01*
X115871477Y15377256D01*
X115871473Y15377256D01*
X115871473Y15377257D01*
X115797034Y15392626D01*
X115795455Y15392976D01*
X115721521Y15410500D01*
X115721512Y15410500D01*
X115714348Y15411338D01*
X115714355Y15411398D01*
X115706855Y15412164D01*
X115706850Y15412105D01*
X115699660Y15412734D01*
X115699656Y15412733D01*
X115699656Y15412734D01*
X115680068Y15412164D01*
X115623768Y15410526D01*
X115621965Y15410500D01*
X113192578Y15410500D01*
X113125539Y15430185D01*
X113079784Y15482989D01*
X113069840Y15552147D01*
X113072803Y15566593D01*
X113095315Y15650613D01*
X113109435Y15703308D01*
X113127086Y15905062D01*
X113129268Y15929998D01*
X113129268Y15930001D01*
X113124033Y15989835D01*
X113109435Y16156692D01*
X113050539Y16376496D01*
X112954368Y16582734D01*
X112823847Y16769139D01*
X112662939Y16930047D01*
X112476534Y17060568D01*
X112418524Y17087618D01*
X112366085Y17133790D01*
X112346933Y17200983D01*
X112367148Y17267865D01*
X112418525Y17312382D01*
X112424125Y17314993D01*
X112476534Y17339432D01*
X112581688Y17413061D01*
X112662941Y17469954D01*
X112823845Y17630858D01*
X112856639Y17677693D01*
X112954368Y17817266D01*
X113050539Y18023504D01*
X113052050Y18029141D01*
X113075082Y18115101D01*
X113109435Y18243308D01*
X113129119Y18468294D01*
X113129268Y18469998D01*
X113129268Y18470001D01*
X113109630Y18694462D01*
X113109435Y18696692D01*
X113050539Y18916496D01*
X112954368Y19122734D01*
X112823847Y19309139D01*
X112662939Y19470047D01*
X112476534Y19600568D01*
X112418524Y19627618D01*
X112366085Y19673790D01*
X112346933Y19740983D01*
X112367148Y19807865D01*
X112418525Y19852382D01*
X112421333Y19853691D01*
X112476534Y19879432D01*
X112662941Y20009954D01*
X112823845Y20170858D01*
X112925689Y20316308D01*
X112954368Y20357266D01*
X113050539Y20563504D01*
X113109435Y20783308D01*
X113126699Y20980640D01*
X113129268Y21009998D01*
X113129268Y21010001D01*
X113119739Y21118918D01*
X113109435Y21236692D01*
X113050539Y21456496D01*
X112954368Y21662734D01*
X112823847Y21849139D01*
X112662939Y22010047D01*
X112571711Y22073925D01*
X112528086Y22128501D01*
X112520892Y22198000D01*
X112552414Y22260355D01*
X112612644Y22295769D01*
X112642834Y22299500D01*
X114156253Y22299500D01*
X114974300Y22299500D01*
X115041339Y22279815D01*
G37*
%TD.AperFunction*%
%TA.AperFunction,Conductor*%
G36*
X121916154Y17929815D02*
G01*
X121952923Y17893322D01*
X121989815Y17836854D01*
X121989819Y17836848D01*
X121989821Y17836847D01*
X122093304Y17724434D01*
X122147019Y17666084D01*
X122147022Y17666081D01*
X122330165Y17523535D01*
X122330171Y17523531D01*
X122534295Y17413064D01*
X122534304Y17413061D01*
X122753815Y17337702D01*
X122905553Y17312382D01*
X122982751Y17299500D01*
X122982752Y17299500D01*
X123214848Y17299500D01*
X123214849Y17299500D01*
X123292047Y17312382D01*
X123443784Y17337702D01*
X123663295Y17413061D01*
X123663304Y17413064D01*
X123867428Y17523531D01*
X123867434Y17523535D01*
X124050577Y17666081D01*
X124050580Y17666084D01*
X124050584Y17666087D01*
X124207779Y17836847D01*
X124207784Y17836854D01*
X124244677Y17893322D01*
X124297823Y17938678D01*
X124348485Y17949500D01*
X124498013Y17949500D01*
X124565052Y17929815D01*
X124610807Y17877011D01*
X124620751Y17807853D01*
X124611568Y17775690D01*
X124609643Y17771300D01*
X124609641Y17771295D01*
X124552666Y17546308D01*
X124552664Y17546297D01*
X124533500Y17315006D01*
X124533500Y17314993D01*
X124552664Y17083702D01*
X124552666Y17083691D01*
X124609642Y16858699D01*
X124702875Y16646151D01*
X124829816Y16451852D01*
X124987019Y16281084D01*
X124987022Y16281081D01*
X125170165Y16138535D01*
X125170171Y16138531D01*
X125353987Y16039055D01*
X125403577Y15989835D01*
X125418685Y15921618D01*
X125394514Y15856063D01*
X125353987Y15820945D01*
X125347529Y15817450D01*
X125170174Y15721470D01*
X125170172Y15721468D01*
X125170171Y15721468D01*
X125170165Y15721464D01*
X124987022Y15578918D01*
X124987016Y15578913D01*
X124829821Y15408153D01*
X124829817Y15408147D01*
X124829815Y15408145D01*
X124792923Y15351678D01*
X124739777Y15306322D01*
X124689115Y15295500D01*
X120438485Y15295500D01*
X120371446Y15315185D01*
X120334677Y15351678D01*
X120297784Y15408145D01*
X120297779Y15408153D01*
X120140584Y15578913D01*
X120004634Y15684727D01*
X119957434Y15721464D01*
X119957431Y15721465D01*
X119957426Y15721470D01*
X119773611Y15820945D01*
X119724022Y15870165D01*
X119708914Y15938381D01*
X119733084Y16003937D01*
X119773611Y16039054D01*
X119957426Y16138530D01*
X119957428Y16138531D01*
X119957434Y16138535D01*
X120140577Y16281081D01*
X120140580Y16281084D01*
X120140584Y16281087D01*
X120297779Y16451847D01*
X120297780Y16451849D01*
X120297783Y16451852D01*
X120424724Y16646151D01*
X120517957Y16858699D01*
X120574933Y17083691D01*
X120574935Y17083702D01*
X120594100Y17314993D01*
X120594100Y17315006D01*
X120574935Y17546297D01*
X120574933Y17546308D01*
X120544602Y17666081D01*
X120517957Y17771300D01*
X120516032Y17775687D01*
X120507127Y17844984D01*
X120537101Y17908098D01*
X120596439Y17944987D01*
X120629587Y17949500D01*
X121849115Y17949500D01*
X121916154Y17929815D01*
G37*
%TD.AperFunction*%
%TA.AperFunction,Conductor*%
G36*
X121984703Y38789472D02*
G01*
X122168667Y38783914D01*
X122397127Y38777010D01*
X122599454Y38770652D01*
X122603119Y38770428D01*
X122954329Y38738513D01*
X123222749Y38713139D01*
X123226244Y38712708D01*
X123561949Y38661615D01*
X123841262Y38617375D01*
X123844576Y38616757D01*
X124171118Y38546661D01*
X124452690Y38483723D01*
X124455815Y38482939D01*
X124774731Y38394035D01*
X125054725Y38312689D01*
X125057652Y38311759D01*
X125368766Y38204400D01*
X125645043Y38104935D01*
X125647768Y38103881D01*
X125950728Y37978389D01*
X126221421Y37861250D01*
X126223940Y37860093D01*
X126518063Y37716885D01*
X126781694Y37582556D01*
X126784004Y37581317D01*
X127067859Y37421224D01*
X127068962Y37420587D01*
X127323719Y37269923D01*
X127325821Y37268622D01*
X127599099Y37091937D01*
X127600286Y37091150D01*
X127845426Y36924553D01*
X127847322Y36923212D01*
X128109223Y36730501D01*
X128110478Y36729552D01*
X128288976Y36591095D01*
X128344858Y36547749D01*
X128346536Y36546400D01*
X128596172Y36338353D01*
X128597481Y36337231D01*
X128820139Y36140931D01*
X128821635Y36139569D01*
X129058170Y35916909D01*
X129059514Y35915604D01*
X129269404Y35705714D01*
X129270709Y35704370D01*
X129493369Y35467835D01*
X129494731Y35466339D01*
X129691031Y35243681D01*
X129692153Y35242372D01*
X129900200Y34992736D01*
X129901562Y34991043D01*
X130083352Y34756678D01*
X130084301Y34755423D01*
X130277012Y34493522D01*
X130278353Y34491626D01*
X130444950Y34246486D01*
X130445737Y34245299D01*
X130622422Y33972021D01*
X130623723Y33969919D01*
X130774387Y33715162D01*
X130775024Y33714059D01*
X130935117Y33430204D01*
X130936356Y33427894D01*
X131070685Y33164263D01*
X131213893Y32870140D01*
X131215050Y32867621D01*
X131332189Y32596928D01*
X131457681Y32293968D01*
X131458735Y32291243D01*
X131558200Y32014966D01*
X131665559Y31703852D01*
X131666489Y31700925D01*
X131747835Y31420931D01*
X131836739Y31102015D01*
X131837523Y31098890D01*
X131900461Y30817318D01*
X131970557Y30490776D01*
X131971175Y30487462D01*
X132015415Y30208149D01*
X132066508Y29872444D01*
X132066939Y29868950D01*
X132092306Y29600602D01*
X132095962Y29560380D01*
X132124228Y29249319D01*
X132124452Y29245654D01*
X132130810Y29043327D01*
X132135069Y28902397D01*
X132143272Y28630903D01*
X132143300Y28629078D01*
X132143300Y3230921D01*
X132143272Y3229097D01*
X132140518Y3137925D01*
X132130812Y2816746D01*
X132130795Y2816695D01*
X132130808Y2816597D01*
X132124452Y2614344D01*
X132124228Y2610679D01*
X132092304Y2259372D01*
X132066939Y1991048D01*
X132066508Y1987554D01*
X132015415Y1651849D01*
X131971175Y1372536D01*
X131970557Y1369222D01*
X131900461Y1042680D01*
X131837523Y761108D01*
X131836739Y757983D01*
X131747835Y439067D01*
X131666489Y159073D01*
X131665559Y156145D01*
X131558200Y-154966D01*
X131458735Y-431243D01*
X131457681Y-433968D01*
X131332189Y-736928D01*
X131215050Y-1007621D01*
X131213893Y-1010140D01*
X131070685Y-1304263D01*
X130936356Y-1567894D01*
X130935117Y-1570204D01*
X130775024Y-1854059D01*
X130774387Y-1855162D01*
X130623723Y-2109919D01*
X130622422Y-2112021D01*
X130445737Y-2385299D01*
X130444950Y-2386486D01*
X130278353Y-2631626D01*
X130277012Y-2633522D01*
X130084301Y-2895423D01*
X130083352Y-2896678D01*
X129901562Y-3131043D01*
X129900200Y-3132736D01*
X129692153Y-3382372D01*
X129691031Y-3383681D01*
X129494731Y-3606339D01*
X129493369Y-3607835D01*
X129270709Y-3844370D01*
X129269404Y-3845714D01*
X129059514Y-4055604D01*
X129058170Y-4056909D01*
X128821635Y-4279569D01*
X128820139Y-4280931D01*
X128597481Y-4477231D01*
X128596172Y-4478353D01*
X128346536Y-4686400D01*
X128344858Y-4687749D01*
X128306860Y-4717224D01*
X128110478Y-4869552D01*
X128109223Y-4870501D01*
X127847322Y-5063212D01*
X127845426Y-5064553D01*
X127600286Y-5231150D01*
X127599099Y-5231937D01*
X127325821Y-5408622D01*
X127323719Y-5409923D01*
X127068962Y-5560587D01*
X127067859Y-5561224D01*
X126784004Y-5721317D01*
X126781694Y-5722556D01*
X126518063Y-5856885D01*
X126223940Y-6000093D01*
X126221421Y-6001250D01*
X125950728Y-6118389D01*
X125647768Y-6243881D01*
X125645043Y-6244935D01*
X125368766Y-6344400D01*
X125057652Y-6451759D01*
X125054725Y-6452689D01*
X124774731Y-6534035D01*
X124455815Y-6622939D01*
X124452690Y-6623723D01*
X124171118Y-6686661D01*
X123844576Y-6756757D01*
X123841262Y-6757375D01*
X123561949Y-6801615D01*
X123226244Y-6852708D01*
X123222749Y-6853139D01*
X122954329Y-6878513D01*
X122603119Y-6910428D01*
X122599454Y-6910652D01*
X122397127Y-6917010D01*
X122168667Y-6923914D01*
X121984703Y-6929472D01*
X121982878Y-6929500D01*
X21591006Y-6929500D01*
X21588977Y-6929467D01*
X21238629Y-6917996D01*
X21005467Y-6910030D01*
X21001506Y-6909767D01*
X20682119Y-6878309D01*
X20414085Y-6850754D01*
X20410325Y-6850251D01*
X20100691Y-6799129D01*
X19828007Y-6752114D01*
X19824461Y-6751395D01*
X19521668Y-6680792D01*
X19249864Y-6614555D01*
X19246546Y-6613648D01*
X18950587Y-6523869D01*
X18682195Y-6438685D01*
X18679110Y-6437616D01*
X18390609Y-6329031D01*
X18127597Y-6225312D01*
X18124753Y-6224108D01*
X17844537Y-6097143D01*
X17588492Y-5975373D01*
X17585892Y-5974061D01*
X17315571Y-5829571D01*
X17314411Y-5828935D01*
X17067319Y-5690002D01*
X17064966Y-5688609D01*
X16804960Y-5526926D01*
X16803696Y-5526119D01*
X16566396Y-5370474D01*
X16564287Y-5369027D01*
X16315609Y-5190827D01*
X16314260Y-5189832D01*
X16087960Y-5018224D01*
X16086112Y-5016767D01*
X15849737Y-4822779D01*
X15848334Y-4821591D01*
X15634074Y-4634765D01*
X15632508Y-4633349D01*
X15409430Y-4424414D01*
X15408034Y-4423063D01*
X15206921Y-4221950D01*
X15205541Y-4220523D01*
X15088045Y-4095075D01*
X14996667Y-3997512D01*
X14995209Y-3995898D01*
X14989664Y-3989539D01*
X14818340Y-3793055D01*
X14808297Y-3781537D01*
X14807132Y-3780161D01*
X14613291Y-3543965D01*
X14611856Y-3542146D01*
X14439935Y-3315433D01*
X14439042Y-3314222D01*
X14261056Y-3065843D01*
X14259636Y-3063774D01*
X14103631Y-2825924D01*
X14102845Y-2824693D01*
X14059237Y-2754566D01*
X13941474Y-2565187D01*
X13940125Y-2562909D01*
X13800780Y-2315085D01*
X13800193Y-2314014D01*
X13656032Y-2044309D01*
X13654739Y-2041749D01*
X13532523Y-1784766D01*
X13414490Y-1524261D01*
X13406003Y-1505530D01*
X13404799Y-1502687D01*
X13300542Y-1238307D01*
X13254369Y-1115631D01*
X13192466Y-951159D01*
X13191419Y-948137D01*
X13105655Y-677918D01*
X13016426Y-383772D01*
X13015536Y-380516D01*
X12948666Y-106115D01*
X12878668Y194087D01*
X12877955Y197600D01*
X12830286Y474073D01*
X12779780Y779974D01*
X12779289Y783645D01*
X12751053Y1058303D01*
X12720242Y1371121D01*
X12719982Y1375031D01*
X12718957Y1404998D01*
X22818300Y1404998D01*
X22818301Y1404980D01*
X22828800Y1302203D01*
X22828801Y1302200D01*
X22883985Y1135668D01*
X22883987Y1135663D01*
X22976089Y986342D01*
X23100142Y862289D01*
X23249463Y770187D01*
X23249468Y770185D01*
X23286292Y757983D01*
X23416003Y715001D01*
X23416004Y715000D01*
X23518789Y704500D01*
X23518791Y704500D01*
X24868801Y704500D01*
X24868818Y704501D01*
X24971596Y715000D01*
X24971599Y715001D01*
X25138131Y770185D01*
X25138134Y770186D01*
X25153929Y779928D01*
X25194688Y805068D01*
X25287456Y862288D01*
X25411512Y986344D01*
X25503614Y1135666D01*
X25558799Y1302203D01*
X25569300Y1404991D01*
X25569299Y2105500D01*
X25588983Y2172539D01*
X25641787Y2218294D01*
X25693299Y2229500D01*
X26879300Y2229500D01*
X26946339Y2209815D01*
X26992094Y2157011D01*
X27003300Y2105500D01*
X27003300Y-566506D01*
X27003280Y-568076D01*
X27001043Y-656362D01*
X27001043Y-656370D01*
X27011864Y-716739D01*
X27012518Y-721404D01*
X27018725Y-782430D01*
X27018727Y-782444D01*
X27029008Y-815213D01*
X27030879Y-822837D01*
X27036942Y-856652D01*
X27036942Y-856655D01*
X27059694Y-913612D01*
X27061274Y-918051D01*
X27079641Y-976588D01*
X27079644Y-976595D01*
X27096309Y-1006619D01*
X27099679Y-1013714D01*
X27112422Y-1045614D01*
X27112427Y-1045624D01*
X27146177Y-1096833D01*
X27148618Y-1100863D01*
X27178388Y-1154498D01*
X27178389Y-1154499D01*
X27178391Y-1154502D01*
X27200768Y-1180567D01*
X27205493Y-1186835D01*
X27217883Y-1205633D01*
X27224398Y-1215519D01*
X27267778Y-1258899D01*
X27270969Y-1262343D01*
X27310931Y-1308892D01*
X27310930Y-1308892D01*
X27338099Y-1329923D01*
X27343986Y-1335107D01*
X28550133Y-2541254D01*
X29736787Y-3727908D01*
X29737850Y-3728997D01*
X29745899Y-3737464D01*
X29798738Y-3793051D01*
X29798743Y-3793055D01*
X29829345Y-3814354D01*
X29849103Y-3828106D01*
X29852844Y-3830926D01*
X29900393Y-3869698D01*
X29930845Y-3885604D01*
X29937556Y-3889671D01*
X29965751Y-3909295D01*
X30022132Y-3933490D01*
X30026367Y-3935501D01*
X30080751Y-3963909D01*
X30113773Y-3973356D01*
X30121165Y-3975989D01*
X30152740Y-3989539D01*
X30152741Y-3989540D01*
X30165854Y-3992234D01*
X30212855Y-4001892D01*
X30217395Y-4003006D01*
X30276382Y-4019886D01*
X30310641Y-4022494D01*
X30318409Y-4023585D01*
X30352055Y-4030500D01*
X30352059Y-4030500D01*
X30413401Y-4030500D01*
X30418108Y-4030678D01*
X30454451Y-4033446D01*
X30479275Y-4035337D01*
X30479275Y-4035336D01*
X30479276Y-4035337D01*
X30513359Y-4030996D01*
X30521189Y-4030500D01*
X31187235Y-4030500D01*
X31254274Y-4050185D01*
X31296068Y-4095075D01*
X31306570Y-4114309D01*
X31306575Y-4114317D01*
X31478054Y-4343387D01*
X31478070Y-4343405D01*
X31680394Y-4545729D01*
X31680412Y-4545745D01*
X31909482Y-4717224D01*
X31909490Y-4717229D01*
X32160633Y-4854364D01*
X32160632Y-4854364D01*
X32160636Y-4854365D01*
X32160639Y-4854367D01*
X32428754Y-4954369D01*
X32428760Y-4954370D01*
X32428762Y-4954371D01*
X32708366Y-5015195D01*
X32708368Y-5015195D01*
X32708372Y-5015196D01*
X32962020Y-5033337D01*
X32993799Y-5035610D01*
X32993800Y-5035610D01*
X32993801Y-5035610D01*
X33022395Y-5033564D01*
X33279228Y-5015196D01*
X33512868Y-4964371D01*
X33558837Y-4954371D01*
X33558837Y-4954370D01*
X33558846Y-4954369D01*
X33826961Y-4854367D01*
X34078115Y-4717226D01*
X34307195Y-4545739D01*
X34509539Y-4343395D01*
X34681026Y-4114315D01*
X34818167Y-3863161D01*
X34918169Y-3595046D01*
X34978996Y-3315428D01*
X34999410Y-3030000D01*
X34995743Y-2978735D01*
X34979711Y-2754572D01*
X34978996Y-2744572D01*
X34977413Y-2737296D01*
X34918171Y-2464962D01*
X34918170Y-2464960D01*
X34918169Y-2464954D01*
X34818167Y-2196839D01*
X34695242Y-1971720D01*
X34681029Y-1945690D01*
X34681024Y-1945682D01*
X34509545Y-1716612D01*
X34509529Y-1716594D01*
X34307205Y-1514270D01*
X34307187Y-1514254D01*
X34078117Y-1342775D01*
X34078109Y-1342770D01*
X33826966Y-1205635D01*
X33826967Y-1205635D01*
X33689863Y-1154498D01*
X33558846Y-1105631D01*
X33558843Y-1105630D01*
X33558837Y-1105628D01*
X33279233Y-1044804D01*
X32993801Y-1024390D01*
X32993799Y-1024390D01*
X32708366Y-1044804D01*
X32428762Y-1105628D01*
X32160633Y-1205635D01*
X31909490Y-1342770D01*
X31909482Y-1342775D01*
X31680412Y-1514254D01*
X31680394Y-1514270D01*
X31478070Y-1716594D01*
X31478054Y-1716612D01*
X31306575Y-1945682D01*
X31306570Y-1945690D01*
X31296068Y-1964925D01*
X31246663Y-2014331D01*
X31187235Y-2029500D01*
X30919583Y-2029500D01*
X30852544Y-2009815D01*
X30831902Y-1993181D01*
X29040619Y-201898D01*
X29007134Y-140575D01*
X29004300Y-114217D01*
X29004300Y2105500D01*
X29023985Y2172539D01*
X29076789Y2218294D01*
X29128300Y2229500D01*
X30314300Y2229500D01*
X30381339Y2209815D01*
X30427094Y2157011D01*
X30438300Y2105500D01*
X30438300Y1404998D01*
X30438301Y1404980D01*
X30448800Y1302203D01*
X30448801Y1302200D01*
X30503985Y1135668D01*
X30503987Y1135663D01*
X30596089Y986342D01*
X30720146Y862285D01*
X30754399Y841158D01*
X30801122Y789210D01*
X30813300Y735621D01*
X30813300Y531928D01*
X30813220Y528788D01*
X30809431Y454065D01*
X30809431Y454058D01*
X30820757Y380124D01*
X30821154Y377010D01*
X30828725Y302566D01*
X30828727Y302557D01*
X30833549Y287187D01*
X30837803Y268858D01*
X30840244Y252929D01*
X30840245Y252926D01*
X30866225Y182773D01*
X30867241Y179802D01*
X30889640Y108412D01*
X30897461Y94322D01*
X30905318Y77220D01*
X30910911Y62118D01*
X30910915Y62110D01*
X30950494Y-1390D01*
X30952088Y-4096D01*
X30988392Y-69503D01*
X30988393Y-69504D01*
X30998878Y-81718D01*
X31010022Y-96894D01*
X31018545Y-110567D01*
X31018545Y-110568D01*
X31018548Y-110571D01*
X31070115Y-164819D01*
X31072192Y-167118D01*
X31090004Y-187866D01*
X31120932Y-223894D01*
X31120933Y-223895D01*
X31133669Y-233753D01*
X31147644Y-246379D01*
X31158740Y-258052D01*
X31220140Y-300789D01*
X31222673Y-302648D01*
X31244302Y-319390D01*
X31281842Y-348448D01*
X31296315Y-355547D01*
X31312526Y-365090D01*
X31325751Y-374295D01*
X31383588Y-399115D01*
X31394496Y-403796D01*
X31397352Y-405108D01*
X31464524Y-438058D01*
X31464526Y-438058D01*
X31464529Y-438060D01*
X31480116Y-442095D01*
X31497928Y-448182D01*
X31512742Y-454540D01*
X31586065Y-469607D01*
X31589060Y-470302D01*
X31661511Y-489062D01*
X31661515Y-489063D01*
X31677607Y-489879D01*
X31696280Y-492257D01*
X31705213Y-494093D01*
X31712058Y-495500D01*
X31712059Y-495500D01*
X31786871Y-495500D01*
X31790011Y-495580D01*
X31816642Y-496930D01*
X31864736Y-499369D01*
X31880656Y-496930D01*
X31899433Y-495500D01*
X40849300Y-495500D01*
X40916339Y-515185D01*
X40962094Y-567989D01*
X40973300Y-619500D01*
X40973300Y-1718410D01*
X40953615Y-1785449D01*
X40948567Y-1792720D01*
X40826575Y-1955682D01*
X40826570Y-1955690D01*
X40689435Y-2206833D01*
X40589428Y-2474962D01*
X40528604Y-2754566D01*
X40508190Y-3039998D01*
X40508190Y-3040001D01*
X40528604Y-3325433D01*
X40589428Y-3605037D01*
X40589430Y-3605043D01*
X40589431Y-3605046D01*
X40689433Y-3873161D01*
X40689435Y-3873166D01*
X40826570Y-4124309D01*
X40826575Y-4124317D01*
X40998054Y-4353387D01*
X40998070Y-4353405D01*
X41200394Y-4555729D01*
X41200412Y-4555745D01*
X41429482Y-4727224D01*
X41429490Y-4727229D01*
X41680633Y-4864364D01*
X41680632Y-4864364D01*
X41680636Y-4864365D01*
X41680639Y-4864367D01*
X41948754Y-4964369D01*
X41948760Y-4964370D01*
X41948762Y-4964371D01*
X42228366Y-5025195D01*
X42228368Y-5025195D01*
X42228372Y-5025196D01*
X42482020Y-5043337D01*
X42513799Y-5045610D01*
X42513800Y-5045610D01*
X42513801Y-5045610D01*
X42542395Y-5043564D01*
X42799228Y-5025196D01*
X42838059Y-5016749D01*
X43078837Y-4964371D01*
X43078837Y-4964370D01*
X43078846Y-4964369D01*
X43346961Y-4864367D01*
X43598115Y-4727226D01*
X43827195Y-4555739D01*
X44029539Y-4353395D01*
X44201026Y-4124315D01*
X44338167Y-3873161D01*
X44438169Y-3605046D01*
X44498996Y-3325428D01*
X44519410Y-3040000D01*
X44498996Y-2754572D01*
X44496819Y-2744566D01*
X44438171Y-2474962D01*
X44438170Y-2474960D01*
X44438169Y-2474954D01*
X44338167Y-2206839D01*
X44332703Y-2196833D01*
X44201029Y-1955690D01*
X44201024Y-1955682D01*
X44029545Y-1726612D01*
X44029529Y-1726594D01*
X43827205Y-1524270D01*
X43827187Y-1524254D01*
X43598117Y-1352775D01*
X43598109Y-1352770D01*
X43346966Y-1215635D01*
X43346967Y-1215635D01*
X43260949Y-1183552D01*
X43078846Y-1115631D01*
X43078842Y-1115630D01*
X43078839Y-1115629D01*
X43071935Y-1114127D01*
X43010614Y-1080639D01*
X42977132Y-1019314D01*
X42974300Y-992962D01*
X42974300Y-619500D01*
X42993985Y-552461D01*
X43046789Y-506706D01*
X43098300Y-495500D01*
X43134559Y-495500D01*
X52106871Y-495500D01*
X52110011Y-495580D01*
X52136642Y-496930D01*
X52184736Y-499369D01*
X52200656Y-496930D01*
X52219433Y-495500D01*
X53294559Y-495500D01*
X62266871Y-495500D01*
X62270011Y-495580D01*
X62296642Y-496930D01*
X62344736Y-499369D01*
X62360656Y-496930D01*
X62379433Y-495500D01*
X63454559Y-495500D01*
X72537059Y-495500D01*
X72598399Y-495500D01*
X72603105Y-495678D01*
X72630396Y-497757D01*
X72664276Y-500337D01*
X72664276Y-500336D01*
X72664277Y-500337D01*
X72698360Y-495996D01*
X72706190Y-495500D01*
X82511557Y-495500D01*
X82513119Y-495519D01*
X82550333Y-496462D01*
X82601408Y-497757D01*
X82601408Y-497756D01*
X82601413Y-497757D01*
X82661803Y-486932D01*
X82666462Y-486280D01*
X82708657Y-481988D01*
X82727488Y-480074D01*
X82760277Y-469786D01*
X82767890Y-467918D01*
X82801703Y-461858D01*
X82858671Y-439101D01*
X82863103Y-437524D01*
X82874437Y-433968D01*
X82921638Y-419159D01*
X82951677Y-402484D01*
X82958758Y-399122D01*
X82990667Y-386377D01*
X83041904Y-352608D01*
X83045901Y-350187D01*
X83099552Y-320409D01*
X83125618Y-298030D01*
X83131893Y-293300D01*
X83160569Y-274402D01*
X83203967Y-231002D01*
X83207386Y-227834D01*
X83253945Y-187866D01*
X83274981Y-160688D01*
X83280151Y-154818D01*
X83311801Y-123168D01*
X83312814Y-122181D01*
X83376853Y-61309D01*
X83411919Y-10925D01*
X83414712Y-7222D01*
X83453497Y40342D01*
X83464869Y62113D01*
X83469401Y70789D01*
X83473468Y77503D01*
X83493095Y105701D01*
X83493096Y105703D01*
X83517290Y162081D01*
X83519302Y166319D01*
X83547709Y220701D01*
X83557156Y253723D01*
X83559789Y261115D01*
X83573339Y292690D01*
X83573340Y292691D01*
X83576034Y305804D01*
X83585692Y352805D01*
X83586806Y357345D01*
X83603686Y416332D01*
X83606294Y450591D01*
X83607385Y458359D01*
X83614300Y492005D01*
X83614300Y553350D01*
X83614479Y558060D01*
X83619137Y619224D01*
X83619137Y619226D01*
X83614796Y653310D01*
X83614300Y661138D01*
X83614300Y735621D01*
X83633985Y802660D01*
X83673201Y841158D01*
X83707453Y862285D01*
X83831510Y986342D01*
X83831512Y986344D01*
X83923614Y1135666D01*
X83978799Y1302203D01*
X83989300Y1404991D01*
X83989299Y2130008D01*
X83978799Y2232797D01*
X83923614Y2399334D01*
X83831512Y2548656D01*
X83707456Y2672712D01*
X83558134Y2764814D01*
X83391597Y2819999D01*
X83288809Y2830500D01*
X81938792Y2830499D01*
X81938783Y2830498D01*
X81938781Y2830498D01*
X81836003Y2819999D01*
X81669466Y2764814D01*
X81520144Y2672712D01*
X81396088Y2548656D01*
X81303986Y2399334D01*
X81248801Y2232797D01*
X81248801Y2232795D01*
X81248800Y2232795D01*
X81238300Y2130016D01*
X81238300Y2130003D01*
X81238301Y1629500D01*
X81218617Y1562461D01*
X81165813Y1516706D01*
X81114301Y1505500D01*
X76493300Y1505500D01*
X76426261Y1525185D01*
X76380506Y1577989D01*
X76369300Y1629500D01*
X76369299Y2130001D01*
X76369298Y2130019D01*
X76358799Y2232796D01*
X76358798Y2232799D01*
X76349934Y2259549D01*
X76303614Y2399334D01*
X76211512Y2548656D01*
X76087456Y2672712D01*
X76053205Y2693837D01*
X76006480Y2745784D01*
X75994300Y2799377D01*
X75994300Y3203070D01*
X75994380Y3206210D01*
X75998169Y3280936D01*
X75986838Y3354895D01*
X75986443Y3357999D01*
X75983974Y3382281D01*
X75978874Y3432438D01*
X75974050Y3447811D01*
X75969795Y3466149D01*
X75969132Y3470473D01*
X75967356Y3482071D01*
X75941358Y3552266D01*
X75940364Y3555173D01*
X75932068Y3581615D01*
X75930783Y3651469D01*
X75967468Y3710933D01*
X75985287Y3724270D01*
X76087455Y3787287D01*
X76211510Y3911342D01*
X76211512Y3911344D01*
X76303614Y4060666D01*
X76358799Y4227203D01*
X76369300Y4329991D01*
X76369299Y5055008D01*
X76358799Y5157797D01*
X76303614Y5324334D01*
X76272760Y5374355D01*
X76254300Y5439451D01*
X76254300Y6003271D01*
X76262118Y6046604D01*
X76289570Y6120207D01*
X76297891Y6142517D01*
X76301662Y6177596D01*
X76328399Y6242144D01*
X76385791Y6281993D01*
X76455616Y6284488D01*
X76515705Y6248836D01*
X76526525Y6235464D01*
X76543754Y6210858D01*
X76704658Y6049954D01*
X76891065Y5919432D01*
X76891067Y5919431D01*
X77097302Y5823261D01*
X77097311Y5823258D01*
X77317102Y5764366D01*
X77317113Y5764364D01*
X77543798Y5744532D01*
X77543800Y5744532D01*
X77543802Y5744532D01*
X77770486Y5764364D01*
X77770497Y5764366D01*
X77885850Y5795275D01*
X77917943Y5799500D01*
X79709657Y5799500D01*
X79741750Y5795275D01*
X79857102Y5764366D01*
X79857113Y5764364D01*
X80083798Y5744532D01*
X80083800Y5744532D01*
X80083802Y5744532D01*
X80310486Y5764364D01*
X80310497Y5764366D01*
X80530288Y5823258D01*
X80530297Y5823261D01*
X80736532Y5919431D01*
X80736534Y5919432D01*
X80922941Y6049954D01*
X81083845Y6210858D01*
X81147725Y6302089D01*
X81202301Y6345714D01*
X81271800Y6352908D01*
X81334155Y6321386D01*
X81369569Y6261156D01*
X81373300Y6230966D01*
X81373300Y5471876D01*
X81354839Y5406780D01*
X81343800Y5388883D01*
X81303990Y5324340D01*
X81303986Y5324334D01*
X81248801Y5157797D01*
X81248801Y5157795D01*
X81248800Y5157795D01*
X81238300Y5055016D01*
X81238300Y4329998D01*
X81238301Y4329980D01*
X81248800Y4227203D01*
X81248801Y4227200D01*
X81303985Y4060668D01*
X81303987Y4060663D01*
X81396089Y3911342D01*
X81520142Y3787289D01*
X81669463Y3695187D01*
X81669468Y3695185D01*
X81715339Y3679985D01*
X81836003Y3640001D01*
X81836004Y3640000D01*
X81836005Y3640000D01*
X81924251Y3630985D01*
X81967943Y3618112D01*
X82146363Y3527201D01*
X82361950Y3462463D01*
X82585620Y3437262D01*
X82585631Y3437261D01*
X82626165Y3439994D01*
X115528544Y3439994D01*
X115547548Y3137925D01*
X115547549Y3137918D01*
X115604268Y2840589D01*
X115677052Y2616585D01*
X115697801Y2552726D01*
X115811987Y2310067D01*
X115826680Y2278844D01*
X115988858Y2023291D01*
X116181801Y1790064D01*
X116402443Y1582867D01*
X116402453Y1582859D01*
X116647308Y1404961D01*
X116647320Y1404954D01*
X116912570Y1259131D01*
X116912571Y1259130D01*
X117193986Y1147710D01*
X117193989Y1147709D01*
X117487159Y1072436D01*
X117487172Y1072434D01*
X117787447Y1034500D01*
X117787459Y1034500D01*
X118090152Y1034500D01*
X118390427Y1072434D01*
X118390440Y1072436D01*
X118683610Y1147709D01*
X118683613Y1147710D01*
X118965028Y1259130D01*
X118965029Y1259131D01*
X118965034Y1259133D01*
X118965037Y1259135D01*
X119230280Y1404954D01*
X119230284Y1404956D01*
X119230291Y1404961D01*
X119475146Y1582859D01*
X119475156Y1582867D01*
X119524815Y1629500D01*
X119695801Y1790066D01*
X119888738Y2023287D01*
X120050923Y2278850D01*
X120179799Y2552726D01*
X120273333Y2840594D01*
X120330050Y3137915D01*
X120331050Y3153808D01*
X120349056Y3439994D01*
X123528544Y3439994D01*
X123547548Y3137925D01*
X123547549Y3137918D01*
X123604268Y2840589D01*
X123677052Y2616585D01*
X123697801Y2552726D01*
X123811987Y2310067D01*
X123826680Y2278844D01*
X123988858Y2023291D01*
X124181801Y1790064D01*
X124402443Y1582867D01*
X124402453Y1582859D01*
X124647308Y1404961D01*
X124647320Y1404954D01*
X124912570Y1259131D01*
X124912571Y1259130D01*
X125193986Y1147710D01*
X125193989Y1147709D01*
X125487159Y1072436D01*
X125487172Y1072434D01*
X125787447Y1034500D01*
X125787459Y1034500D01*
X126090152Y1034500D01*
X126390427Y1072434D01*
X126390440Y1072436D01*
X126683610Y1147709D01*
X126683613Y1147710D01*
X126965028Y1259130D01*
X126965029Y1259131D01*
X126965034Y1259133D01*
X126965037Y1259135D01*
X127230280Y1404954D01*
X127230284Y1404956D01*
X127230291Y1404961D01*
X127475146Y1582859D01*
X127475156Y1582867D01*
X127524815Y1629500D01*
X127695801Y1790066D01*
X127888738Y2023287D01*
X128050923Y2278850D01*
X128179799Y2552726D01*
X128273333Y2840594D01*
X128330050Y3137915D01*
X128331050Y3153808D01*
X128349056Y3439994D01*
X128349056Y3440005D01*
X128330051Y3742074D01*
X128330050Y3742081D01*
X128330050Y3742085D01*
X128273333Y4039406D01*
X128179799Y4327274D01*
X128050923Y4601150D01*
X127888738Y4856713D01*
X127695801Y5089934D01*
X127475155Y5297134D01*
X127230280Y5475046D01*
X126965037Y5620865D01*
X126965028Y5620868D01*
X126965028Y5620869D01*
X126683613Y5732289D01*
X126683610Y5732290D01*
X126674878Y5734532D01*
X126390437Y5807564D01*
X126266182Y5823261D01*
X126090152Y5845499D01*
X126090144Y5845499D01*
X126090141Y5845500D01*
X125787459Y5845500D01*
X125787456Y5845499D01*
X125787447Y5845499D01*
X125550160Y5815522D01*
X125487163Y5807564D01*
X125487159Y5807563D01*
X125193989Y5732290D01*
X125193986Y5732289D01*
X124912571Y5620869D01*
X124912570Y5620868D01*
X124912568Y5620867D01*
X124912563Y5620865D01*
X124647320Y5475046D01*
X124647313Y5475040D01*
X124647308Y5475038D01*
X124439878Y5324331D01*
X124402445Y5297134D01*
X124181799Y5089934D01*
X123998429Y4868277D01*
X123988858Y4856708D01*
X123881958Y4688259D01*
X123826677Y4601150D01*
X123697801Y4327274D01*
X123604267Y4039406D01*
X123579064Y3907289D01*
X123547549Y3742081D01*
X123547548Y3742074D01*
X123528544Y3440005D01*
X123528544Y3439994D01*
X120349056Y3439994D01*
X120349056Y3440005D01*
X120330051Y3742074D01*
X120330050Y3742081D01*
X120330050Y3742085D01*
X120273333Y4039406D01*
X120179799Y4327274D01*
X120050923Y4601150D01*
X119888738Y4856713D01*
X119695801Y5089934D01*
X119475155Y5297134D01*
X119230280Y5475046D01*
X118965037Y5620865D01*
X118965028Y5620868D01*
X118965028Y5620869D01*
X118683613Y5732289D01*
X118683610Y5732290D01*
X118674878Y5734532D01*
X118390437Y5807564D01*
X118266182Y5823261D01*
X118090152Y5845499D01*
X118090144Y5845499D01*
X118090141Y5845500D01*
X117787459Y5845500D01*
X117787456Y5845499D01*
X117787447Y5845499D01*
X117550160Y5815522D01*
X117487163Y5807564D01*
X117487159Y5807563D01*
X117193989Y5732290D01*
X117193986Y5732289D01*
X116912571Y5620869D01*
X116912570Y5620868D01*
X116912568Y5620867D01*
X116912563Y5620865D01*
X116647320Y5475046D01*
X116647313Y5475040D01*
X116647308Y5475038D01*
X116439878Y5324331D01*
X116402445Y5297134D01*
X116181799Y5089934D01*
X115998429Y4868277D01*
X115988858Y4856708D01*
X115881958Y4688259D01*
X115826677Y4601150D01*
X115697801Y4327274D01*
X115604267Y4039406D01*
X115579064Y3907289D01*
X115547549Y3742081D01*
X115547548Y3742074D01*
X115528544Y3440005D01*
X115528544Y3439994D01*
X82626165Y3439994D01*
X82810207Y3452403D01*
X82810212Y3452403D01*
X83028478Y3507402D01*
X83028481Y3507403D01*
X83233422Y3600491D01*
X83233428Y3600494D01*
X83246713Y3609698D01*
X83304724Y3631126D01*
X83391597Y3640001D01*
X83391599Y3640001D01*
X83558131Y3695185D01*
X83558134Y3695186D01*
X83591638Y3715851D01*
X83645864Y3749298D01*
X83707456Y3787288D01*
X83831512Y3911344D01*
X83923614Y4060666D01*
X83978799Y4227203D01*
X83989300Y4329991D01*
X83989299Y5055008D01*
X83978799Y5157797D01*
X83923614Y5324334D01*
X83892760Y5374355D01*
X83874300Y5439451D01*
X83874300Y6675856D01*
X83878525Y6707949D01*
X83884300Y6729502D01*
X83909435Y6823308D01*
X83929268Y7050000D01*
X83928806Y7055275D01*
X83921875Y7134503D01*
X83909435Y7276692D01*
X83850539Y7496496D01*
X83754368Y7702734D01*
X83623847Y7889139D01*
X83462939Y8050047D01*
X83276534Y8180568D01*
X83070296Y8276739D01*
X82850492Y8335635D01*
X82680472Y8350509D01*
X82623802Y8355468D01*
X82623798Y8355468D01*
X82559030Y8349801D01*
X82397108Y8335635D01*
X82177304Y8276739D01*
X81971066Y8180568D01*
X81971065Y8180567D01*
X81784658Y8050045D01*
X81623754Y7889141D01*
X81493232Y7702734D01*
X81493229Y7702728D01*
X81466182Y7644725D01*
X81420010Y7592285D01*
X81352817Y7573133D01*
X81285935Y7593348D01*
X81241418Y7644725D01*
X81214368Y7702734D01*
X81083847Y7889139D01*
X80922939Y8050047D01*
X80736534Y8180568D01*
X80530296Y8276739D01*
X80310492Y8335635D01*
X80140472Y8350509D01*
X80083802Y8355468D01*
X80083798Y8355468D01*
X80019030Y8349801D01*
X79857108Y8335635D01*
X79761437Y8310000D01*
X79741750Y8304725D01*
X79709657Y8300500D01*
X78918300Y8300500D01*
X78851261Y8320185D01*
X78805506Y8372989D01*
X78794300Y8424500D01*
X78794300Y8716303D01*
X78794689Y8723241D01*
X78799037Y8761828D01*
X78794439Y8830023D01*
X78794300Y8834177D01*
X78794300Y8846149D01*
X78794300Y8846155D01*
X78790582Y8887465D01*
X78790473Y8888852D01*
X78783896Y8986412D01*
X78782828Y8990646D01*
X78779567Y9009841D01*
X78779177Y9014188D01*
X78753142Y9108517D01*
X78752804Y9109803D01*
X78746701Y9134023D01*
X78728896Y9204684D01*
X78727088Y9208662D01*
X78720452Y9226968D01*
X78719293Y9231170D01*
X78676824Y9319356D01*
X78676288Y9320500D01*
X78635807Y9409626D01*
X78633324Y9413209D01*
X78623524Y9430037D01*
X78621629Y9433973D01*
X78589677Y9477949D01*
X78585239Y9485014D01*
X78581652Y9491681D01*
X78562429Y9515784D01*
X78559972Y9519085D01*
X78507620Y9594654D01*
X78504533Y9597741D01*
X78491889Y9612544D01*
X78489322Y9616078D01*
X78463396Y9640864D01*
X78457785Y9647003D01*
X78441308Y9667666D01*
X78389839Y9712632D01*
X78386795Y9715478D01*
X78383486Y9718787D01*
X78378329Y9723945D01*
X78365506Y9734648D01*
X78362425Y9737401D01*
X78326625Y9771632D01*
X78312465Y9780978D01*
X78305825Y9786033D01*
X78271796Y9815765D01*
X78268043Y9818006D01*
X78252164Y9829274D01*
X78248819Y9832068D01*
X78163689Y9880371D01*
X78162605Y9881002D01*
X78146185Y9890812D01*
X78143849Y9892280D01*
X78138768Y9895635D01*
X78138750Y9895642D01*
X78133419Y9898512D01*
X78131023Y9899871D01*
X78078564Y9931215D01*
X78074479Y9932747D01*
X78056833Y9941003D01*
X78053045Y9943153D01*
X77960622Y9975493D01*
X77959449Y9975918D01*
X77867824Y10010307D01*
X77867819Y10010307D01*
X77867819Y10010308D01*
X77863537Y10011085D01*
X77844702Y10016056D01*
X77840583Y10017498D01*
X77743864Y10032816D01*
X77742639Y10033024D01*
X77675857Y10045144D01*
X77646348Y10050500D01*
X77646347Y10050500D01*
X77641972Y10050500D01*
X77622569Y10052028D01*
X77621234Y10052238D01*
X77618260Y10052710D01*
X77557355Y10051343D01*
X77520464Y10050516D01*
X77519073Y10050500D01*
X67481972Y10050500D01*
X67462569Y10052028D01*
X67461234Y10052238D01*
X67458260Y10052710D01*
X67397355Y10051343D01*
X67360464Y10050516D01*
X67359073Y10050500D01*
X57243248Y10050500D01*
X57240491Y10050561D01*
X57157470Y10054290D01*
X57142624Y10052279D01*
X57133636Y10051062D01*
X57125305Y10050500D01*
X49623248Y10050500D01*
X49620491Y10050561D01*
X49537470Y10054290D01*
X49522624Y10052279D01*
X49513636Y10051062D01*
X49505305Y10050500D01*
X47083248Y10050500D01*
X47080491Y10050561D01*
X46997470Y10054290D01*
X46982624Y10052279D01*
X46973636Y10051062D01*
X46965305Y10050500D01*
X36511972Y10050500D01*
X36492569Y10052028D01*
X36491234Y10052238D01*
X36488260Y10052710D01*
X36427355Y10051343D01*
X36390464Y10050516D01*
X36389073Y10050500D01*
X29303248Y10050500D01*
X29300491Y10050561D01*
X29217470Y10054290D01*
X29135113Y10043133D01*
X29132359Y10042824D01*
X29098925Y10039814D01*
X29049612Y10035377D01*
X29026420Y10028976D01*
X29018245Y10027303D01*
X28994413Y10024075D01*
X28915376Y9998393D01*
X28912718Y9997596D01*
X28832630Y9975493D01*
X28832627Y9975492D01*
X28810960Y9965058D01*
X28803216Y9961951D01*
X28780336Y9954517D01*
X28707151Y9915135D01*
X28704684Y9913877D01*
X28629827Y9877829D01*
X28610369Y9863691D01*
X28603300Y9859249D01*
X28582119Y9847852D01*
X28517154Y9796044D01*
X28514963Y9794375D01*
X28468418Y9760558D01*
X28447727Y9745526D01*
X28447718Y9745518D01*
X28431098Y9728136D01*
X28424936Y9722503D01*
X28406134Y9707508D01*
X28351469Y9644940D01*
X28349593Y9642888D01*
X28323961Y9616078D01*
X28292168Y9582825D01*
X28292166Y9582822D01*
X28292165Y9582821D01*
X28292163Y9582818D01*
X28278917Y9562752D01*
X28273860Y9556111D01*
X28258038Y9538001D01*
X28258035Y9537996D01*
X28215415Y9466662D01*
X28213934Y9464306D01*
X28168165Y9394968D01*
X28168165Y9394967D01*
X28158712Y9372853D01*
X28154924Y9365418D01*
X28142588Y9344769D01*
X28142581Y9344755D01*
X28113388Y9266973D01*
X28112353Y9264393D01*
X28079697Y9187988D01*
X28074341Y9164525D01*
X28071943Y9156540D01*
X28063492Y9134023D01*
X28048656Y9052269D01*
X28048098Y9049544D01*
X28029610Y8968545D01*
X28029609Y8968539D01*
X28029609Y8968537D01*
X28029349Y8962734D01*
X28028530Y8944509D01*
X28027594Y8936211D01*
X28023300Y8912548D01*
X28023300Y8829447D01*
X28023238Y8826692D01*
X28020325Y8761825D01*
X28019510Y8743672D01*
X28019510Y8743670D01*
X28022738Y8719836D01*
X28023300Y8711505D01*
X28023300Y8424500D01*
X28003615Y8357461D01*
X27950811Y8311706D01*
X27899300Y8300500D01*
X27117943Y8300500D01*
X27085850Y8304725D01*
X26970492Y8335635D01*
X26800472Y8350509D01*
X26743802Y8355468D01*
X26743798Y8355468D01*
X26679030Y8349801D01*
X26517108Y8335635D01*
X26297304Y8276739D01*
X26091066Y8180568D01*
X26091065Y8180567D01*
X25904658Y8050045D01*
X25743756Y7889143D01*
X25726526Y7864536D01*
X25671949Y7820912D01*
X25602450Y7813719D01*
X25540096Y7845241D01*
X25504682Y7905471D01*
X25501661Y7922409D01*
X25497891Y7957483D01*
X25463367Y8050047D01*
X25447596Y8092331D01*
X25361346Y8207546D01*
X25246131Y8293796D01*
X25111283Y8344091D01*
X25051673Y8350500D01*
X23355928Y8350499D01*
X23307557Y8345299D01*
X23296316Y8344091D01*
X23161471Y8293797D01*
X23161464Y8293793D01*
X23046255Y8207547D01*
X23046252Y8207544D01*
X22960006Y8092335D01*
X22960002Y8092328D01*
X22909708Y7957482D01*
X22903301Y7897883D01*
X22903300Y7897864D01*
X22903300Y6202129D01*
X22903301Y6202123D01*
X22909708Y6142516D01*
X22945481Y6046604D01*
X22953299Y6003272D01*
X22953299Y5471876D01*
X22934838Y5406780D01*
X22883989Y5324340D01*
X22883987Y5324336D01*
X22883986Y5324334D01*
X22828801Y5157797D01*
X22828801Y5157795D01*
X22828800Y5157795D01*
X22818300Y5055016D01*
X22818300Y4329998D01*
X22818301Y4329980D01*
X22828800Y4227203D01*
X22828801Y4227200D01*
X22883985Y4060668D01*
X22883987Y4060663D01*
X22976089Y3911342D01*
X23100142Y3787289D01*
X23198981Y3726325D01*
X23245706Y3674377D01*
X23256927Y3605414D01*
X23252047Y3585426D01*
X23252316Y3585357D01*
X23246703Y3563680D01*
X23240613Y3545864D01*
X23234261Y3531061D01*
X23234260Y3531058D01*
X23220921Y3466149D01*
X23219201Y3457777D01*
X23218490Y3454716D01*
X23199736Y3382281D01*
X23198919Y3366189D01*
X23196542Y3347523D01*
X23193300Y3331743D01*
X23193300Y3256928D01*
X23193220Y3253788D01*
X23189431Y3179064D01*
X23191870Y3163142D01*
X23193300Y3144366D01*
X23193300Y2799377D01*
X23173615Y2732338D01*
X23134394Y2693837D01*
X23100145Y2672713D01*
X23100144Y2672712D01*
X22976088Y2548656D01*
X22883986Y2399334D01*
X22828801Y2232797D01*
X22828801Y2232795D01*
X22828800Y2232795D01*
X22818300Y2130016D01*
X22818300Y1404998D01*
X12718957Y1404998D01*
X12711528Y1622243D01*
X12700512Y1958702D01*
X12700479Y1960731D01*
X12700479Y15958168D01*
X24208561Y15958168D01*
X24223703Y15733592D01*
X24223703Y15733587D01*
X24278702Y15515321D01*
X24278703Y15515318D01*
X24371791Y15310377D01*
X24371797Y15310367D01*
X24499980Y15125345D01*
X25617641Y14007682D01*
X25631535Y13991125D01*
X25743751Y13830863D01*
X25904662Y13669951D01*
X26091065Y13539432D01*
X26091067Y13539431D01*
X26297302Y13443261D01*
X26297311Y13443258D01*
X26517102Y13384366D01*
X26517113Y13384364D01*
X26743798Y13364532D01*
X26743800Y13364532D01*
X26743802Y13364532D01*
X26970486Y13384364D01*
X26970497Y13384366D01*
X27190288Y13443258D01*
X27190297Y13443261D01*
X27396532Y13539431D01*
X27396534Y13539432D01*
X27582941Y13669954D01*
X27743845Y13830858D01*
X27856064Y13991125D01*
X27874368Y14017266D01*
X27886564Y14043421D01*
X27932736Y14095860D01*
X27999930Y14115012D01*
X28066811Y14094796D01*
X28086624Y14078699D01*
X28122590Y14042734D01*
X28157641Y14007683D01*
X28171534Y13991126D01*
X28283751Y13830863D01*
X28444662Y13669951D01*
X28631065Y13539432D01*
X28631067Y13539431D01*
X28837302Y13443261D01*
X28837311Y13443258D01*
X29057102Y13384366D01*
X29057113Y13384364D01*
X29283798Y13364532D01*
X29283800Y13364532D01*
X29283802Y13364532D01*
X29510486Y13384364D01*
X29510497Y13384366D01*
X29730288Y13443258D01*
X29730297Y13443261D01*
X29936532Y13539431D01*
X29936534Y13539432D01*
X30122941Y13669954D01*
X30283845Y13830858D01*
X30396064Y13991125D01*
X30414368Y14017266D01*
X30510539Y14223504D01*
X30512050Y14229141D01*
X30566754Y14433302D01*
X30569435Y14443308D01*
X30580572Y14570615D01*
X30606024Y14635682D01*
X30662615Y14676660D01*
X30679227Y14681286D01*
X30904894Y14727491D01*
X30904901Y14727493D01*
X31113810Y14811293D01*
X31304401Y14931050D01*
X31470548Y15082914D01*
X31480067Y15095416D01*
X31606908Y15262005D01*
X31606911Y15262010D01*
X31709096Y15462560D01*
X31709096Y15462561D01*
X31709098Y15462565D01*
X31773836Y15678149D01*
X31799038Y15901828D01*
X31797690Y15921827D01*
X31783897Y16126404D01*
X31783896Y16126406D01*
X31783896Y16126412D01*
X31728896Y16344684D01*
X31635807Y16549626D01*
X31507620Y16734654D01*
X30356598Y17885674D01*
X30342715Y17902219D01*
X30253847Y18029139D01*
X30092939Y18190047D01*
X29987428Y18263925D01*
X29943804Y18318501D01*
X29936610Y18387999D01*
X29968132Y18450354D01*
X30028362Y18485769D01*
X30058552Y18489500D01*
X35499300Y18489500D01*
X35566339Y18469815D01*
X35612094Y18417011D01*
X35623300Y18365500D01*
X35623300Y17564142D01*
X35619075Y17532052D01*
X35602436Y17469953D01*
X35588165Y17416693D01*
X35588164Y17416687D01*
X35576844Y17287301D01*
X35551391Y17222232D01*
X35494800Y17181254D01*
X35478195Y17176630D01*
X35262704Y17132508D01*
X35053791Y17048707D01*
X34927947Y16969634D01*
X34863195Y16928948D01*
X34770426Y16844153D01*
X34697052Y16777086D01*
X34560692Y16597995D01*
X34560690Y16597991D01*
X34560689Y16597990D01*
X34458501Y16397436D01*
X34393763Y16181849D01*
X34368562Y15958179D01*
X34368561Y15958168D01*
X34383703Y15733592D01*
X34383703Y15733587D01*
X34438702Y15515321D01*
X34438703Y15515318D01*
X34531791Y15310377D01*
X34531797Y15310367D01*
X34659980Y15125345D01*
X35777641Y14007682D01*
X35791535Y13991125D01*
X35903751Y13830863D01*
X36064662Y13669951D01*
X36251065Y13539432D01*
X36251067Y13539431D01*
X36457302Y13443261D01*
X36457311Y13443258D01*
X36677102Y13384366D01*
X36677113Y13384364D01*
X36903798Y13364532D01*
X36903800Y13364532D01*
X36903802Y13364532D01*
X37130486Y13384364D01*
X37130497Y13384366D01*
X37350288Y13443258D01*
X37350297Y13443261D01*
X37556532Y13539431D01*
X37556534Y13539432D01*
X37742941Y13669954D01*
X37903845Y13830858D01*
X38016064Y13991125D01*
X38034368Y14017266D01*
X38046564Y14043421D01*
X38092736Y14095860D01*
X38159930Y14115012D01*
X38226811Y14094796D01*
X38246624Y14078699D01*
X38282590Y14042734D01*
X38317641Y14007683D01*
X38331534Y13991126D01*
X38443751Y13830863D01*
X38604662Y13669951D01*
X38791065Y13539432D01*
X38791067Y13539431D01*
X38997302Y13443261D01*
X38997311Y13443258D01*
X39217102Y13384366D01*
X39217113Y13384364D01*
X39443798Y13364532D01*
X39443800Y13364532D01*
X39443802Y13364532D01*
X39670486Y13384364D01*
X39670497Y13384366D01*
X39890288Y13443258D01*
X39890297Y13443261D01*
X40096532Y13539431D01*
X40096534Y13539432D01*
X40282941Y13669954D01*
X40443845Y13830858D01*
X40556064Y13991125D01*
X40574368Y14017266D01*
X40670539Y14223504D01*
X40672050Y14229141D01*
X40726754Y14433302D01*
X40729435Y14443308D01*
X40740572Y14570615D01*
X40766024Y14635682D01*
X40822615Y14676660D01*
X40839227Y14681286D01*
X41064894Y14727491D01*
X41064901Y14727493D01*
X41273810Y14811293D01*
X41464401Y14931050D01*
X41630548Y15082914D01*
X41640067Y15095416D01*
X41766908Y15262005D01*
X41766911Y15262010D01*
X41869096Y15462560D01*
X41869096Y15462561D01*
X41869098Y15462565D01*
X41933836Y15678149D01*
X41959038Y15901828D01*
X41957690Y15921827D01*
X41943897Y16126404D01*
X41943896Y16126406D01*
X41943896Y16126412D01*
X41888896Y16344684D01*
X41795807Y16549626D01*
X41667620Y16734654D01*
X40516598Y17885674D01*
X40502715Y17902219D01*
X40413847Y18029139D01*
X40252939Y18190047D01*
X40147428Y18263925D01*
X40103804Y18318501D01*
X40096610Y18387999D01*
X40128132Y18450354D01*
X40188362Y18485769D01*
X40218552Y18489500D01*
X45659300Y18489500D01*
X45726339Y18469815D01*
X45772094Y18417011D01*
X45783300Y18365500D01*
X45783300Y17564142D01*
X45779075Y17532052D01*
X45762436Y17469953D01*
X45748165Y17416693D01*
X45748164Y17416687D01*
X45736844Y17287301D01*
X45711391Y17222232D01*
X45654800Y17181254D01*
X45638195Y17176630D01*
X45422704Y17132508D01*
X45213791Y17048707D01*
X45087947Y16969634D01*
X45023195Y16928948D01*
X44930426Y16844153D01*
X44857052Y16777086D01*
X44720692Y16597995D01*
X44720690Y16597991D01*
X44720689Y16597990D01*
X44618501Y16397436D01*
X44553763Y16181849D01*
X44528562Y15958179D01*
X44528561Y15958168D01*
X44543703Y15733592D01*
X44543703Y15733587D01*
X44598702Y15515321D01*
X44598703Y15515318D01*
X44691791Y15310377D01*
X44691797Y15310367D01*
X44819980Y15125345D01*
X45894815Y14050509D01*
X45919512Y14015242D01*
X45923232Y14007264D01*
X46053754Y13820858D01*
X46214658Y13659954D01*
X46401065Y13529432D01*
X46401067Y13529431D01*
X46607302Y13433261D01*
X46607311Y13433258D01*
X46827102Y13374366D01*
X46827113Y13374364D01*
X47053798Y13354532D01*
X47053800Y13354532D01*
X47053802Y13354532D01*
X47280486Y13374364D01*
X47280497Y13374366D01*
X47500288Y13433258D01*
X47500297Y13433261D01*
X47706532Y13529431D01*
X47706534Y13529432D01*
X47892941Y13659954D01*
X48053845Y13820858D01*
X48184366Y14007263D01*
X48184368Y14007266D01*
X48202925Y14047062D01*
X48249095Y14099499D01*
X48316289Y14118652D01*
X48383170Y14098437D01*
X48402987Y14082337D01*
X48434815Y14050509D01*
X48459512Y14015242D01*
X48463232Y14007264D01*
X48593754Y13820858D01*
X48754658Y13659954D01*
X48941065Y13529432D01*
X48941067Y13529431D01*
X49147302Y13433261D01*
X49147311Y13433258D01*
X49367102Y13374366D01*
X49367113Y13374364D01*
X49593798Y13354532D01*
X49593800Y13354532D01*
X49593802Y13354532D01*
X49820486Y13374364D01*
X49820497Y13374366D01*
X50040288Y13433258D01*
X50040297Y13433261D01*
X50246532Y13529431D01*
X50246534Y13529432D01*
X50432941Y13659954D01*
X50593845Y13820858D01*
X50713066Y13991125D01*
X50724368Y14007266D01*
X50820539Y14213504D01*
X50823219Y14223504D01*
X50847387Y14313702D01*
X50879435Y14433308D01*
X50892367Y14581131D01*
X50917819Y14646198D01*
X50974410Y14687177D01*
X50999249Y14693200D01*
X51093188Y14705925D01*
X51093192Y14705926D01*
X51307265Y14775483D01*
X51505478Y14882146D01*
X51505481Y14882148D01*
X51681463Y15022489D01*
X51681466Y15022492D01*
X51829565Y15192004D01*
X51945015Y15385236D01*
X52024107Y15595976D01*
X52040214Y15684732D01*
X52041837Y15691492D01*
X52043836Y15698149D01*
X52045546Y15713332D01*
X52046152Y15717457D01*
X52046880Y15721464D01*
X52055272Y15767709D01*
X52064300Y15817450D01*
X52064300Y15876293D01*
X52064689Y15883231D01*
X52069038Y15921827D01*
X52068835Y15924845D01*
X52064441Y15990013D01*
X52064300Y15994186D01*
X52064300Y16006149D01*
X52064300Y16006155D01*
X52060582Y16047458D01*
X52060473Y16048846D01*
X52059052Y16069924D01*
X52053896Y16146412D01*
X52052828Y16150646D01*
X52049567Y16169841D01*
X52049177Y16174188D01*
X52023144Y16268510D01*
X52022799Y16269821D01*
X52015484Y16298850D01*
X51998896Y16364683D01*
X51997091Y16368655D01*
X51990454Y16386962D01*
X51989293Y16391170D01*
X51946817Y16479371D01*
X51946289Y16480499D01*
X51905807Y16569626D01*
X51903316Y16573220D01*
X51893524Y16590035D01*
X51891629Y16593973D01*
X51834059Y16673210D01*
X51833392Y16674150D01*
X51777620Y16754654D01*
X51774530Y16757743D01*
X51761888Y16772545D01*
X51759322Y16776078D01*
X51688535Y16843755D01*
X51687670Y16844602D01*
X50732782Y17799490D01*
X50708085Y17834762D01*
X50704368Y17842734D01*
X50573847Y18029139D01*
X50412939Y18190047D01*
X50307428Y18263925D01*
X50263804Y18318501D01*
X50256610Y18387999D01*
X50288132Y18450354D01*
X50348362Y18485769D01*
X50378552Y18489500D01*
X55819300Y18489500D01*
X55886339Y18469815D01*
X55932094Y18417011D01*
X55943300Y18365500D01*
X55943300Y17564142D01*
X55939075Y17532052D01*
X55922436Y17469953D01*
X55908165Y17416693D01*
X55908164Y17416687D01*
X55896844Y17287301D01*
X55871391Y17222232D01*
X55814800Y17181254D01*
X55798195Y17176630D01*
X55582704Y17132508D01*
X55373791Y17048707D01*
X55247947Y16969634D01*
X55183195Y16928948D01*
X55090426Y16844153D01*
X55017052Y16777086D01*
X54880692Y16597995D01*
X54880690Y16597991D01*
X54880689Y16597990D01*
X54778501Y16397436D01*
X54713763Y16181849D01*
X54688562Y15958179D01*
X54688561Y15958168D01*
X54703703Y15733592D01*
X54703703Y15733587D01*
X54758702Y15515321D01*
X54758703Y15515318D01*
X54851791Y15310377D01*
X54851797Y15310367D01*
X54979980Y15125345D01*
X56097641Y14007682D01*
X56111535Y13991125D01*
X56223751Y13830863D01*
X56384662Y13669951D01*
X56571065Y13539432D01*
X56571067Y13539431D01*
X56777302Y13443261D01*
X56777311Y13443258D01*
X56997102Y13384366D01*
X56997113Y13384364D01*
X57223798Y13364532D01*
X57223800Y13364532D01*
X57223802Y13364532D01*
X57450486Y13384364D01*
X57450497Y13384366D01*
X57670288Y13443258D01*
X57670297Y13443261D01*
X57876532Y13539431D01*
X57876534Y13539432D01*
X58062941Y13669954D01*
X58223845Y13830858D01*
X58336064Y13991125D01*
X58354368Y14017266D01*
X58366564Y14043421D01*
X58412736Y14095860D01*
X58479930Y14115012D01*
X58546811Y14094796D01*
X58566624Y14078699D01*
X58602590Y14042734D01*
X58637641Y14007683D01*
X58651534Y13991126D01*
X58763751Y13830863D01*
X58924662Y13669951D01*
X59111065Y13539432D01*
X59111067Y13539431D01*
X59317302Y13443261D01*
X59317311Y13443258D01*
X59537102Y13384366D01*
X59537113Y13384364D01*
X59763798Y13364532D01*
X59763800Y13364532D01*
X59763802Y13364532D01*
X59990486Y13384364D01*
X59990497Y13384366D01*
X60210288Y13443258D01*
X60210297Y13443261D01*
X60416532Y13539431D01*
X60416534Y13539432D01*
X60602941Y13669954D01*
X60763845Y13830858D01*
X60876064Y13991125D01*
X60894368Y14017266D01*
X60990539Y14223504D01*
X60992050Y14229141D01*
X61046754Y14433302D01*
X61049435Y14443308D01*
X61060572Y14570615D01*
X61086024Y14635682D01*
X61142615Y14676660D01*
X61159227Y14681286D01*
X61384894Y14727491D01*
X61384901Y14727493D01*
X61593810Y14811293D01*
X61784401Y14931050D01*
X61950548Y15082914D01*
X61960067Y15095416D01*
X62086908Y15262005D01*
X62086911Y15262010D01*
X62189096Y15462560D01*
X62189096Y15462561D01*
X62189098Y15462565D01*
X62253836Y15678149D01*
X62279038Y15901828D01*
X62277690Y15921827D01*
X62263897Y16126404D01*
X62263896Y16126406D01*
X62263896Y16126412D01*
X62208896Y16344684D01*
X62115807Y16549626D01*
X61987620Y16734654D01*
X60836598Y17885674D01*
X60822715Y17902219D01*
X60733847Y18029139D01*
X60572939Y18190047D01*
X60467428Y18263925D01*
X60423804Y18318501D01*
X60416610Y18387999D01*
X60448132Y18450354D01*
X60508362Y18485769D01*
X60538552Y18489500D01*
X65989300Y18489500D01*
X66056339Y18469815D01*
X66102094Y18417011D01*
X66113300Y18365500D01*
X66113300Y17564142D01*
X66109075Y17532052D01*
X66092436Y17469953D01*
X66078165Y17416693D01*
X66078164Y17416687D01*
X66067027Y17289386D01*
X66041574Y17224318D01*
X65984983Y17183339D01*
X65968372Y17178714D01*
X65963224Y17177660D01*
X65963222Y17177660D01*
X65742704Y17132508D01*
X65533791Y17048707D01*
X65407947Y16969634D01*
X65343195Y16928948D01*
X65250426Y16844153D01*
X65177052Y16777086D01*
X65040692Y16597995D01*
X65040690Y16597991D01*
X65040689Y16597990D01*
X64938501Y16397436D01*
X64873763Y16181849D01*
X64848562Y15958179D01*
X64848561Y15958168D01*
X64863703Y15733592D01*
X64863703Y15733587D01*
X64918702Y15515321D01*
X64918703Y15515318D01*
X65011791Y15310377D01*
X65011797Y15310367D01*
X65139980Y15125345D01*
X66257641Y14007682D01*
X66271535Y13991125D01*
X66383751Y13830863D01*
X66544662Y13669951D01*
X66731065Y13539432D01*
X66731067Y13539431D01*
X66937302Y13443261D01*
X66937311Y13443258D01*
X67157102Y13384366D01*
X67157113Y13384364D01*
X67383798Y13364532D01*
X67383800Y13364532D01*
X67383802Y13364532D01*
X67610486Y13384364D01*
X67610497Y13384366D01*
X67830288Y13443258D01*
X67830297Y13443261D01*
X68036532Y13539431D01*
X68036534Y13539432D01*
X68222941Y13669954D01*
X68383845Y13830858D01*
X68496064Y13991125D01*
X68514368Y14017266D01*
X68526564Y14043421D01*
X68572736Y14095860D01*
X68639930Y14115012D01*
X68706811Y14094796D01*
X68726624Y14078699D01*
X68762590Y14042734D01*
X68797641Y14007683D01*
X68811534Y13991126D01*
X68923751Y13830863D01*
X69084662Y13669951D01*
X69271065Y13539432D01*
X69271067Y13539431D01*
X69477302Y13443261D01*
X69477311Y13443258D01*
X69697102Y13384366D01*
X69697113Y13384364D01*
X69923798Y13364532D01*
X69923800Y13364532D01*
X69923802Y13364532D01*
X70150486Y13384364D01*
X70150497Y13384366D01*
X70370288Y13443258D01*
X70370297Y13443261D01*
X70576532Y13539431D01*
X70576534Y13539432D01*
X70762941Y13669954D01*
X70923845Y13830858D01*
X71036064Y13991125D01*
X71054368Y14017266D01*
X71150539Y14223504D01*
X71152050Y14229141D01*
X71206754Y14433302D01*
X71209435Y14443308D01*
X71220572Y14570615D01*
X71246024Y14635682D01*
X71302615Y14676660D01*
X71319227Y14681286D01*
X71544894Y14727491D01*
X71544901Y14727493D01*
X71753810Y14811293D01*
X71944401Y14931050D01*
X72110548Y15082914D01*
X72120067Y15095416D01*
X72246908Y15262005D01*
X72246911Y15262010D01*
X72349096Y15462560D01*
X72349096Y15462561D01*
X72349098Y15462565D01*
X72413836Y15678149D01*
X72439038Y15901828D01*
X72437690Y15921827D01*
X72423897Y16126404D01*
X72423896Y16126406D01*
X72423896Y16126412D01*
X72368896Y16344684D01*
X72275807Y16549626D01*
X72147620Y16734654D01*
X71029954Y17852318D01*
X71016071Y17868863D01*
X70903847Y18029139D01*
X70742939Y18190047D01*
X70637428Y18263925D01*
X70593804Y18318501D01*
X70586610Y18387999D01*
X70618132Y18450354D01*
X70678362Y18485769D01*
X70708552Y18489500D01*
X76149300Y18489500D01*
X76216339Y18469815D01*
X76262094Y18417011D01*
X76273300Y18365500D01*
X76273300Y17564142D01*
X76269075Y17532052D01*
X76252436Y17469953D01*
X76238165Y17416693D01*
X76238164Y17416687D01*
X76227027Y17289386D01*
X76201574Y17224318D01*
X76144983Y17183339D01*
X76128372Y17178714D01*
X76123224Y17177660D01*
X76123222Y17177660D01*
X75902704Y17132508D01*
X75693791Y17048707D01*
X75567947Y16969634D01*
X75503195Y16928948D01*
X75410426Y16844153D01*
X75337052Y16777086D01*
X75200692Y16597995D01*
X75200690Y16597991D01*
X75200689Y16597990D01*
X75098501Y16397436D01*
X75033763Y16181849D01*
X75008562Y15958179D01*
X75008561Y15958168D01*
X75023703Y15733592D01*
X75023703Y15733587D01*
X75078702Y15515321D01*
X75078703Y15515318D01*
X75171791Y15310377D01*
X75171797Y15310367D01*
X75299980Y15125345D01*
X76417641Y14007682D01*
X76431535Y13991125D01*
X76543751Y13830863D01*
X76704662Y13669951D01*
X76891065Y13539432D01*
X76891067Y13539431D01*
X77097302Y13443261D01*
X77097311Y13443258D01*
X77317102Y13384366D01*
X77317113Y13384364D01*
X77543798Y13364532D01*
X77543800Y13364532D01*
X77543802Y13364532D01*
X77770486Y13384364D01*
X77770497Y13384366D01*
X77990288Y13443258D01*
X77990297Y13443261D01*
X78196532Y13539431D01*
X78196534Y13539432D01*
X78382941Y13669954D01*
X78543845Y13830858D01*
X78656064Y13991125D01*
X78674368Y14017266D01*
X78686564Y14043421D01*
X78732736Y14095860D01*
X78799930Y14115012D01*
X78866811Y14094796D01*
X78886624Y14078699D01*
X78922590Y14042734D01*
X78957641Y14007683D01*
X78971534Y13991126D01*
X79083751Y13830863D01*
X79244662Y13669951D01*
X79431065Y13539432D01*
X79431067Y13539431D01*
X79637302Y13443261D01*
X79637311Y13443258D01*
X79857102Y13384366D01*
X79857113Y13384364D01*
X80083798Y13364532D01*
X80083800Y13364532D01*
X80083802Y13364532D01*
X80310486Y13384364D01*
X80310497Y13384366D01*
X80530288Y13443258D01*
X80530297Y13443261D01*
X80736532Y13539431D01*
X80736534Y13539432D01*
X80922941Y13669954D01*
X81083845Y13830858D01*
X81196064Y13991125D01*
X81214368Y14017266D01*
X81310539Y14223504D01*
X81312050Y14229141D01*
X81366754Y14433302D01*
X81369435Y14443308D01*
X81380572Y14570615D01*
X81406024Y14635682D01*
X81462615Y14676660D01*
X81479227Y14681286D01*
X81704894Y14727491D01*
X81704901Y14727493D01*
X81913810Y14811293D01*
X82104401Y14931050D01*
X82270548Y15082914D01*
X82280067Y15095416D01*
X82406908Y15262005D01*
X82406911Y15262010D01*
X82509096Y15462560D01*
X82509096Y15462561D01*
X82509098Y15462565D01*
X82573836Y15678149D01*
X82599038Y15901828D01*
X82597690Y15921827D01*
X82583897Y16126404D01*
X82583896Y16126406D01*
X82583896Y16126412D01*
X82528896Y16344684D01*
X82435807Y16549626D01*
X82307620Y16734654D01*
X81189954Y17852318D01*
X81176071Y17868863D01*
X81063847Y18029139D01*
X80902939Y18190047D01*
X80811711Y18253925D01*
X80768086Y18308501D01*
X80760892Y18378000D01*
X80792414Y18440355D01*
X80852644Y18475769D01*
X80882834Y18479500D01*
X82464967Y18479500D01*
X82471905Y18479110D01*
X82492478Y18476792D01*
X82510497Y18474762D01*
X82510504Y18474761D01*
X82556643Y18477873D01*
X82578706Y18479360D01*
X82582862Y18479500D01*
X82594830Y18479500D01*
X82636115Y18483215D01*
X82637501Y18483324D01*
X82677454Y18486018D01*
X82727026Y18489360D01*
X82731181Y18489500D01*
X83314464Y18489500D01*
X83381503Y18469815D01*
X83402145Y18453181D01*
X85136981Y16718345D01*
X85170466Y16657022D01*
X85173300Y16630664D01*
X85173300Y13419447D01*
X85173238Y13416692D01*
X85172040Y13390001D01*
X85169510Y13333672D01*
X85169510Y13333671D01*
X85180663Y13251331D01*
X85180974Y13248567D01*
X85188422Y13165814D01*
X85194821Y13142623D01*
X85196495Y13134448D01*
X85199723Y13110619D01*
X85199727Y13110604D01*
X85225405Y13031574D01*
X85226205Y13028910D01*
X85248304Y12948838D01*
X85248309Y12948825D01*
X85258743Y12927154D01*
X85261848Y12919413D01*
X85269281Y12896541D01*
X85269288Y12896524D01*
X85308654Y12823369D01*
X85309917Y12820891D01*
X85345968Y12746031D01*
X85345974Y12746020D01*
X85360106Y12726571D01*
X85364548Y12719501D01*
X85375944Y12698324D01*
X85375952Y12698312D01*
X85427759Y12633347D01*
X85429444Y12631134D01*
X85478271Y12563929D01*
X85478272Y12563928D01*
X85495664Y12547298D01*
X85501292Y12541140D01*
X85516286Y12522340D01*
X85516297Y12522328D01*
X85578858Y12467670D01*
X85580910Y12465794D01*
X85640970Y12408372D01*
X85640978Y12408366D01*
X85661052Y12395114D01*
X85667688Y12390061D01*
X85667811Y12389954D01*
X85685805Y12374233D01*
X85757125Y12331622D01*
X85759480Y12330142D01*
X85828823Y12284370D01*
X85828837Y12284362D01*
X85850953Y12274908D01*
X85858385Y12271121D01*
X85879034Y12258786D01*
X85879036Y12258785D01*
X85956825Y12229587D01*
X85959404Y12228553D01*
X86035812Y12195897D01*
X86035818Y12195895D01*
X86059266Y12190542D01*
X86067256Y12188143D01*
X86089767Y12179695D01*
X86089777Y12179692D01*
X86171529Y12164856D01*
X86174253Y12164298D01*
X86255254Y12145810D01*
X86255260Y12145809D01*
X86255263Y12145809D01*
X86279296Y12144729D01*
X86287578Y12143796D01*
X86305992Y12140454D01*
X86311252Y12139500D01*
X86311253Y12139500D01*
X86394352Y12139500D01*
X86397108Y12139438D01*
X86465031Y12136388D01*
X86480127Y12135710D01*
X86480130Y12135710D01*
X86503964Y12138938D01*
X86512295Y12139500D01*
X88229535Y12139500D01*
X88296574Y12119815D01*
X88342329Y12067011D01*
X88352273Y11997853D01*
X88323248Y11934297D01*
X88302420Y11915182D01*
X88137727Y11795526D01*
X88137725Y11795525D01*
X87982166Y11632823D01*
X87858163Y11444966D01*
X87769699Y11237995D01*
X87769695Y11237982D01*
X87719610Y11018542D01*
X87719608Y11018531D01*
X87711829Y10845314D01*
X87709510Y10793670D01*
X87739725Y10570613D01*
X87739726Y10570609D01*
X87809283Y10356534D01*
X87915946Y10158321D01*
X87915948Y10158318D01*
X88056289Y9982336D01*
X88150656Y9899890D01*
X88225804Y9834235D01*
X88306473Y9786038D01*
X88419032Y9718787D01*
X88419034Y9718786D01*
X88419036Y9718785D01*
X88461099Y9702998D01*
X88629776Y9639692D01*
X88851250Y9599500D01*
X88851253Y9599500D01*
X91129657Y9599500D01*
X91161750Y9595275D01*
X91277102Y9564366D01*
X91277113Y9564364D01*
X91503798Y9544532D01*
X91503800Y9544532D01*
X91503802Y9544532D01*
X91730486Y9564364D01*
X91730497Y9564366D01*
X91950288Y9623258D01*
X91950297Y9623261D01*
X92156532Y9719431D01*
X92156534Y9719432D01*
X92342941Y9849954D01*
X92503845Y10010858D01*
X92557155Y10086994D01*
X92634368Y10197266D01*
X92730539Y10403504D01*
X92739340Y10436348D01*
X92780735Y10590840D01*
X92789435Y10623308D01*
X92809268Y10850000D01*
X92789435Y11076692D01*
X92747444Y11233407D01*
X92749107Y11303257D01*
X92788270Y11361119D01*
X92852498Y11388623D01*
X92867219Y11389500D01*
X97760381Y11389500D01*
X97827420Y11369815D01*
X97873175Y11317011D01*
X97883119Y11247853D01*
X97880156Y11233407D01*
X97838166Y11076697D01*
X97838164Y11076686D01*
X97818332Y10850001D01*
X97818332Y10849998D01*
X97838164Y10623313D01*
X97838166Y10623302D01*
X97897058Y10403511D01*
X97897061Y10403502D01*
X97993231Y10197267D01*
X97993232Y10197265D01*
X98123754Y10010858D01*
X98284658Y9849954D01*
X98471065Y9719432D01*
X98471067Y9719431D01*
X98529075Y9692382D01*
X98581514Y9646209D01*
X98600666Y9579016D01*
X98580450Y9512135D01*
X98529075Y9467618D01*
X98471066Y9440568D01*
X98374358Y9372853D01*
X98284658Y9310045D01*
X98123754Y9149141D01*
X97993232Y8962734D01*
X97993231Y8962732D01*
X97897061Y8756497D01*
X97897058Y8756488D01*
X97838166Y8536697D01*
X97838164Y8536686D01*
X97818332Y8310001D01*
X97818332Y8309998D01*
X97838164Y8083313D01*
X97838166Y8083302D01*
X97897058Y7863511D01*
X97897061Y7863502D01*
X97993231Y7657267D01*
X97993232Y7657265D01*
X98123754Y7470858D01*
X98284658Y7309954D01*
X98471065Y7179432D01*
X98471067Y7179431D01*
X98677302Y7083261D01*
X98677311Y7083258D01*
X98897102Y7024366D01*
X98897113Y7024364D01*
X99123798Y7004532D01*
X99123800Y7004532D01*
X99123802Y7004532D01*
X99350486Y7024364D01*
X99350497Y7024366D01*
X99465850Y7055275D01*
X99497943Y7059500D01*
X101719951Y7059500D01*
X101719955Y7059500D01*
X101771216Y7064113D01*
X101887986Y7074622D01*
X101887992Y7074623D01*
X102104960Y7134503D01*
X102104973Y7134508D01*
X102307766Y7232167D01*
X102307774Y7232171D01*
X102489872Y7364473D01*
X102489874Y7364474D01*
X102591588Y7470858D01*
X102645432Y7527175D01*
X102689113Y7593348D01*
X102769436Y7715033D01*
X102857900Y7922004D01*
X102857901Y7922007D01*
X102857903Y7922012D01*
X102907991Y8141463D01*
X102918090Y8366330D01*
X102910041Y8425744D01*
X102920548Y8494819D01*
X102945238Y8530070D01*
X103188349Y8773181D01*
X103249672Y8806666D01*
X103276030Y8809500D01*
X105390095Y8809500D01*
X105408065Y8808191D01*
X105431826Y8804710D01*
X105476482Y8808617D01*
X105483868Y8809264D01*
X105489270Y8809500D01*
X105497512Y8809500D01*
X105529191Y8813202D01*
X105530959Y8813383D01*
X105561611Y8816065D01*
X105606592Y8820000D01*
X105613667Y8821461D01*
X105613678Y8821403D01*
X105621037Y8823034D01*
X105621024Y8823092D01*
X105628049Y8824757D01*
X105628054Y8824758D01*
X105628055Y8824759D01*
X105699373Y8850715D01*
X105701053Y8851299D01*
X105773126Y8875182D01*
X105779674Y8878236D01*
X105779698Y8878182D01*
X105786488Y8881470D01*
X105786463Y8881521D01*
X105792913Y8884761D01*
X105792914Y8884762D01*
X105792917Y8884763D01*
X105856367Y8926494D01*
X105857858Y8927443D01*
X105885526Y8944509D01*
X105922456Y8967288D01*
X105922457Y8967289D01*
X105928119Y8971766D01*
X105928156Y8971719D01*
X105934002Y8976482D01*
X105933964Y8976528D01*
X105939493Y8981168D01*
X105939496Y8981170D01*
X105991568Y9036363D01*
X105992825Y9037657D01*
X108499438Y11544270D01*
X108513070Y11556051D01*
X108532328Y11570388D01*
X108565911Y11610409D01*
X108569566Y11614397D01*
X108575386Y11620217D01*
X108575390Y11620222D01*
X108575391Y11620223D01*
X108595190Y11645263D01*
X108596315Y11646644D01*
X108610564Y11663626D01*
X108645102Y11704786D01*
X108645104Y11704789D01*
X108649070Y11710818D01*
X108649119Y11710785D01*
X108653172Y11717147D01*
X108653121Y11717179D01*
X108656908Y11723319D01*
X108656911Y11723323D01*
X108681005Y11774993D01*
X108689000Y11792137D01*
X108689786Y11793760D01*
X108723838Y11861562D01*
X108726311Y11868357D01*
X108726367Y11868336D01*
X108728842Y11875455D01*
X108728786Y11875474D01*
X108731056Y11882325D01*
X108731057Y11882327D01*
X108746414Y11956709D01*
X108746797Y11958432D01*
X108752044Y11980567D01*
X108764300Y12032279D01*
X108764300Y12032281D01*
X108765138Y12039452D01*
X108765197Y12039445D01*
X108765964Y12046946D01*
X108765905Y12046952D01*
X108766534Y12054148D01*
X108766160Y12067011D01*
X108764324Y12130085D01*
X108764300Y12131764D01*
X108764300Y16032436D01*
X108783985Y16099475D01*
X108836789Y16145230D01*
X108905947Y16155174D01*
X108969503Y16126149D01*
X109004823Y16074842D01*
X109032583Y15998564D01*
X109033174Y15996864D01*
X109057038Y15924847D01*
X109060089Y15918305D01*
X109060037Y15918280D01*
X109063325Y15911487D01*
X109063376Y15911513D01*
X109066614Y15905065D01*
X109108319Y15841655D01*
X109109286Y15840136D01*
X109149142Y15775523D01*
X109153623Y15769856D01*
X109153577Y15769820D01*
X109158338Y15763977D01*
X109158382Y15764014D01*
X109163018Y15758488D01*
X109218219Y15706407D01*
X109219512Y15705152D01*
X110697371Y14227293D01*
X110730856Y14165970D01*
X110725872Y14096278D01*
X110711267Y14068491D01*
X110693232Y14042734D01*
X110673310Y14000011D01*
X110597061Y13836497D01*
X110597058Y13836488D01*
X110538166Y13616697D01*
X110538164Y13616686D01*
X110518332Y13390001D01*
X110518332Y13389998D01*
X110538164Y13163313D01*
X110538166Y13163302D01*
X110597058Y12943511D01*
X110597061Y12943502D01*
X110693231Y12737267D01*
X110693232Y12737265D01*
X110823754Y12550858D01*
X110984658Y12389954D01*
X111171065Y12259432D01*
X111171067Y12259431D01*
X111229075Y12232382D01*
X111281514Y12186209D01*
X111300666Y12119016D01*
X111280450Y12052135D01*
X111229075Y12007618D01*
X111171066Y11980568D01*
X111104984Y11934297D01*
X110984658Y11850045D01*
X110823754Y11689141D01*
X110693232Y11502734D01*
X110693231Y11502732D01*
X110597061Y11296497D01*
X110597058Y11296488D01*
X110538166Y11076697D01*
X110538164Y11076686D01*
X110518332Y10850001D01*
X110518332Y10849998D01*
X110538164Y10623313D01*
X110538166Y10623302D01*
X110597058Y10403511D01*
X110597061Y10403502D01*
X110693231Y10197267D01*
X110693232Y10197265D01*
X110823754Y10010858D01*
X110984658Y9849954D01*
X111171065Y9719432D01*
X111171067Y9719431D01*
X111229075Y9692382D01*
X111281514Y9646209D01*
X111300666Y9579016D01*
X111280450Y9512135D01*
X111229075Y9467618D01*
X111171066Y9440568D01*
X111074358Y9372853D01*
X110984658Y9310045D01*
X110823754Y9149141D01*
X110693232Y8962734D01*
X110693231Y8962732D01*
X110597061Y8756497D01*
X110597058Y8756488D01*
X110538166Y8536697D01*
X110538164Y8536686D01*
X110518332Y8310001D01*
X110518332Y8309998D01*
X110538164Y8083313D01*
X110538166Y8083302D01*
X110597058Y7863511D01*
X110597061Y7863502D01*
X110693231Y7657267D01*
X110693232Y7657265D01*
X110823754Y7470858D01*
X110984658Y7309954D01*
X111171065Y7179432D01*
X111171067Y7179431D01*
X111377302Y7083261D01*
X111377311Y7083258D01*
X111597102Y7024366D01*
X111597113Y7024364D01*
X111823798Y7004532D01*
X111823800Y7004532D01*
X111823802Y7004532D01*
X112050486Y7024364D01*
X112050497Y7024366D01*
X112270288Y7083258D01*
X112270297Y7083261D01*
X112476532Y7179431D01*
X112476534Y7179432D01*
X112662941Y7309954D01*
X112823845Y7470858D01*
X112908868Y7592285D01*
X112954368Y7657266D01*
X113050539Y7863504D01*
X113109435Y8083308D01*
X113127850Y8293796D01*
X113129268Y8309998D01*
X113129268Y8310001D01*
X113123124Y8380224D01*
X113109435Y8536692D01*
X113050539Y8756496D01*
X112954368Y8962734D01*
X112823847Y9149139D01*
X112662939Y9310047D01*
X112476534Y9440568D01*
X112418524Y9467618D01*
X112366086Y9513791D01*
X112346934Y9580984D01*
X112367150Y9647865D01*
X112418525Y9692382D01*
X112476532Y9719431D01*
X112476534Y9719432D01*
X112662941Y9849954D01*
X112823845Y10010858D01*
X112877155Y10086994D01*
X112954368Y10197266D01*
X113050539Y10403504D01*
X113059340Y10436348D01*
X113100735Y10590840D01*
X113109435Y10623308D01*
X113129268Y10850000D01*
X113109435Y11076692D01*
X113050539Y11296496D01*
X112954368Y11502734D01*
X112823847Y11689139D01*
X112662939Y11850047D01*
X112476534Y11980568D01*
X112418524Y12007618D01*
X112366085Y12053790D01*
X112346933Y12120983D01*
X112367148Y12187865D01*
X112418525Y12232382D01*
X112476528Y12259429D01*
X112476534Y12259432D01*
X112662941Y12389954D01*
X112823845Y12550858D01*
X112884969Y12638153D01*
X112954368Y12737266D01*
X113050539Y12943504D01*
X113052674Y12951470D01*
X113078161Y13046593D01*
X113109435Y13163308D01*
X113129268Y13390000D01*
X113109435Y13616692D01*
X113072803Y13753407D01*
X113074466Y13823257D01*
X113113629Y13881119D01*
X113177857Y13908623D01*
X113192578Y13909500D01*
X115308310Y13909500D01*
X115360718Y13897881D01*
X115420932Y13869800D01*
X115422552Y13869016D01*
X115490369Y13834958D01*
X115497150Y13832491D01*
X115497130Y13832436D01*
X115504255Y13829959D01*
X115504274Y13830014D01*
X115511128Y13827742D01*
X115585456Y13812395D01*
X115587216Y13812005D01*
X115661083Y13794499D01*
X115668253Y13793661D01*
X115668246Y13793601D01*
X115675745Y13792835D01*
X115675751Y13792895D01*
X115682940Y13792265D01*
X115758833Y13794474D01*
X115760636Y13794500D01*
X117939115Y13794500D01*
X118006154Y13774815D01*
X118042923Y13738322D01*
X118079815Y13681854D01*
X118079819Y13681848D01*
X118079821Y13681847D01*
X118220129Y13529431D01*
X118237019Y13511084D01*
X118237022Y13511081D01*
X118420165Y13368535D01*
X118420171Y13368531D01*
X118603987Y13269055D01*
X118653577Y13219835D01*
X118668685Y13151618D01*
X118644514Y13086063D01*
X118603987Y13050945D01*
X118585348Y13040858D01*
X118420174Y12951470D01*
X118420172Y12951468D01*
X118420171Y12951468D01*
X118420165Y12951464D01*
X118237022Y12808918D01*
X118237016Y12808913D01*
X118079821Y12638153D01*
X118079819Y12638151D01*
X118079816Y12638147D01*
X117952875Y12443848D01*
X117859642Y12231300D01*
X117802666Y12006308D01*
X117802664Y12006297D01*
X117783500Y11775006D01*
X117783500Y11774993D01*
X117802664Y11543702D01*
X117802666Y11543691D01*
X117859642Y11318699D01*
X117952875Y11106151D01*
X118079819Y10911849D01*
X118218409Y10761298D01*
X118249331Y10698643D01*
X118241470Y10629217D01*
X118214860Y10589635D01*
X115547633Y7922409D01*
X112912043Y5286819D01*
X112850720Y5253334D01*
X112824362Y5250500D01*
X112363137Y5250500D01*
X112296098Y5270185D01*
X112290252Y5274182D01*
X112276534Y5284148D01*
X112276530Y5284151D01*
X112103603Y5361144D01*
X111918446Y5400500D01*
X111729154Y5400500D01*
X111606146Y5374354D01*
X111543997Y5361144D01*
X111543992Y5361142D01*
X111371070Y5284151D01*
X111371065Y5284148D01*
X111324753Y5250500D01*
X111217929Y5172888D01*
X111091267Y5032216D01*
X111091266Y5032214D01*
X110996621Y4868284D01*
X110996618Y4868277D01*
X110940092Y4694309D01*
X110938126Y4688256D01*
X110918340Y4500000D01*
X110938126Y4311744D01*
X110938126Y4311741D01*
X110938127Y4311740D01*
X110996618Y4131722D01*
X110996621Y4131715D01*
X111091266Y3967785D01*
X111217929Y3827111D01*
X111371065Y3715851D01*
X111371070Y3715848D01*
X111543992Y3638857D01*
X111543997Y3638855D01*
X111696697Y3606398D01*
X111729154Y3599500D01*
X111729155Y3599500D01*
X111918445Y3599500D01*
X111918446Y3599500D01*
X111966424Y3609698D01*
X112103602Y3638855D01*
X112103607Y3638857D01*
X112276529Y3715848D01*
X112276534Y3715851D01*
X112290252Y3725818D01*
X112356058Y3749298D01*
X112363137Y3749500D01*
X113122887Y3749500D01*
X113140857Y3748191D01*
X113164618Y3744710D01*
X113209274Y3748617D01*
X113216660Y3749264D01*
X113222062Y3749500D01*
X113230304Y3749500D01*
X113261983Y3753202D01*
X113263751Y3753383D01*
X113294403Y3756065D01*
X113339384Y3760000D01*
X113346459Y3761461D01*
X113346470Y3761403D01*
X113353829Y3763034D01*
X113353816Y3763092D01*
X113360841Y3764757D01*
X113360846Y3764758D01*
X113360847Y3764759D01*
X113432165Y3790715D01*
X113433845Y3791299D01*
X113505918Y3815182D01*
X113512466Y3818236D01*
X113512490Y3818182D01*
X113519280Y3821470D01*
X113519255Y3821521D01*
X113525705Y3824761D01*
X113525706Y3824762D01*
X113525709Y3824763D01*
X113589159Y3866494D01*
X113590650Y3867443D01*
X113595494Y3870431D01*
X113655248Y3907288D01*
X113655249Y3907289D01*
X113660911Y3911766D01*
X113660948Y3911719D01*
X113666794Y3916482D01*
X113666756Y3916528D01*
X113672285Y3921168D01*
X113672288Y3921170D01*
X113724360Y3976363D01*
X113725617Y3977657D01*
X119674438Y9926478D01*
X119688070Y9938259D01*
X119707328Y9952596D01*
X119740911Y9992617D01*
X119744566Y9996605D01*
X119750386Y10002425D01*
X119750390Y10002430D01*
X119750391Y10002431D01*
X119770190Y10027471D01*
X119771315Y10028852D01*
X119792660Y10054290D01*
X119820102Y10086994D01*
X119820104Y10086997D01*
X119824070Y10093026D01*
X119824119Y10092993D01*
X119828172Y10099355D01*
X119828121Y10099387D01*
X119831908Y10105527D01*
X119831911Y10105531D01*
X119856527Y10158319D01*
X119864000Y10174345D01*
X119864786Y10175968D01*
X119898838Y10243770D01*
X119901311Y10250565D01*
X119901367Y10250544D01*
X119903843Y10257665D01*
X119903786Y10257684D01*
X119906053Y10264527D01*
X119906057Y10264535D01*
X119921423Y10338956D01*
X119921783Y10340579D01*
X119939300Y10414487D01*
X119939301Y10414492D01*
X119940139Y10421661D01*
X119940198Y10421654D01*
X119940964Y10429153D01*
X119940905Y10429159D01*
X119941534Y10436348D01*
X119939326Y10512238D01*
X119939300Y10514041D01*
X119939300Y10523801D01*
X119958985Y10590840D01*
X119987137Y10621654D01*
X120140581Y10741085D01*
X120140584Y10741087D01*
X120297779Y10911847D01*
X120297784Y10911854D01*
X120334677Y10968322D01*
X120387823Y11013678D01*
X120438485Y11024500D01*
X124689115Y11024500D01*
X124756154Y11004815D01*
X124792923Y10968322D01*
X124829815Y10911854D01*
X124829820Y10911849D01*
X124829821Y10911847D01*
X124938610Y10793670D01*
X124987019Y10741084D01*
X124987022Y10741081D01*
X125170165Y10598535D01*
X125170171Y10598531D01*
X125374295Y10488064D01*
X125374304Y10488061D01*
X125593815Y10412702D01*
X125776964Y10382140D01*
X125822751Y10374500D01*
X125822752Y10374500D01*
X126054848Y10374500D01*
X126054849Y10374500D01*
X126112081Y10384050D01*
X126283784Y10412702D01*
X126503295Y10488061D01*
X126503304Y10488064D01*
X126707428Y10598531D01*
X126707434Y10598535D01*
X126890577Y10741081D01*
X126890580Y10741084D01*
X126890581Y10741085D01*
X126890584Y10741087D01*
X127047779Y10911847D01*
X127047780Y10911849D01*
X127047783Y10911852D01*
X127174724Y11106151D01*
X127267957Y11318699D01*
X127324933Y11543691D01*
X127324935Y11543702D01*
X127344100Y11774993D01*
X127344100Y11775006D01*
X127324935Y12006297D01*
X127324933Y12006308D01*
X127324601Y12007618D01*
X127267957Y12231300D01*
X127174724Y12443849D01*
X127047779Y12638153D01*
X126890584Y12808913D01*
X126760469Y12910185D01*
X126707434Y12951464D01*
X126707431Y12951465D01*
X126707426Y12951470D01*
X126523611Y13050945D01*
X126474022Y13100165D01*
X126458914Y13168381D01*
X126483084Y13233937D01*
X126523611Y13269054D01*
X126707426Y13368530D01*
X126707428Y13368531D01*
X126707434Y13368535D01*
X126890577Y13511081D01*
X126890580Y13511084D01*
X126890584Y13511087D01*
X127047779Y13681847D01*
X127047780Y13681849D01*
X127047783Y13681852D01*
X127174724Y13876151D01*
X127267957Y14088699D01*
X127324933Y14313691D01*
X127324935Y14313702D01*
X127344100Y14544993D01*
X127344100Y14545006D01*
X127324935Y14776297D01*
X127324933Y14776308D01*
X127294133Y14897932D01*
X127267957Y15001300D01*
X127174724Y15213849D01*
X127047779Y15408153D01*
X126890584Y15578913D01*
X126754634Y15684727D01*
X126707434Y15721464D01*
X126707431Y15721465D01*
X126707426Y15721470D01*
X126523611Y15820945D01*
X126474022Y15870165D01*
X126458914Y15938381D01*
X126483084Y16003937D01*
X126523611Y16039054D01*
X126707426Y16138530D01*
X126707428Y16138531D01*
X126707434Y16138535D01*
X126890577Y16281081D01*
X126890580Y16281084D01*
X126890584Y16281087D01*
X127047779Y16451847D01*
X127047780Y16451849D01*
X127047783Y16451852D01*
X127174724Y16646151D01*
X127267957Y16858699D01*
X127324933Y17083691D01*
X127324935Y17083702D01*
X127344100Y17314993D01*
X127344100Y17315006D01*
X127324935Y17546297D01*
X127324933Y17546308D01*
X127320417Y17564142D01*
X127267957Y17771300D01*
X127264334Y17779558D01*
X127255427Y17848854D01*
X127285399Y17911969D01*
X127344735Y17948860D01*
X127363476Y17952534D01*
X127369179Y17953201D01*
X127370980Y17953385D01*
X127446591Y17960000D01*
X127446594Y17960000D01*
X127446597Y17960001D01*
X127446598Y17960001D01*
X127453667Y17961461D01*
X127453678Y17961403D01*
X127461037Y17963034D01*
X127461024Y17963092D01*
X127468049Y17964757D01*
X127468054Y17964758D01*
X127468055Y17964759D01*
X127539373Y17990715D01*
X127541053Y17991299D01*
X127613126Y18015182D01*
X127619674Y18018236D01*
X127619698Y18018182D01*
X127626488Y18021470D01*
X127626463Y18021521D01*
X127632913Y18024761D01*
X127632914Y18024762D01*
X127632917Y18024763D01*
X127696367Y18066494D01*
X127697858Y18067443D01*
X127702702Y18070431D01*
X127762456Y18107288D01*
X127762457Y18107289D01*
X127768119Y18111766D01*
X127768155Y18111719D01*
X127774002Y18116483D01*
X127773964Y18116529D01*
X127779487Y18121164D01*
X127779496Y18121170D01*
X127831570Y18176366D01*
X127832827Y18177660D01*
X128819437Y19164269D01*
X128833068Y19176049D01*
X128852330Y19190389D01*
X128852332Y19190391D01*
X128885910Y19230409D01*
X128889566Y19234399D01*
X128895387Y19240219D01*
X128915181Y19265252D01*
X128916319Y19266649D01*
X128951975Y19309142D01*
X128965102Y19324786D01*
X128965106Y19324794D01*
X128969073Y19330824D01*
X128969123Y19330790D01*
X128973172Y19337147D01*
X128973121Y19337179D01*
X128976908Y19343319D01*
X128976911Y19343323D01*
X128994609Y19381278D01*
X129009000Y19412137D01*
X129009786Y19413760D01*
X129043838Y19481562D01*
X129046311Y19488357D01*
X129046367Y19488336D01*
X129048842Y19495455D01*
X129048786Y19495474D01*
X129051056Y19502323D01*
X129066409Y19576682D01*
X129066800Y19578445D01*
X129072043Y19600567D01*
X129084300Y19652279D01*
X129084300Y19652281D01*
X129085139Y19659452D01*
X129085197Y19659445D01*
X129085963Y19666946D01*
X129085904Y19666952D01*
X129086533Y19674141D01*
X129086396Y19678834D01*
X129084646Y19739016D01*
X129084326Y19750010D01*
X129084300Y19751813D01*
X129084300Y22216293D01*
X129085609Y22234265D01*
X129086821Y22242539D01*
X129089089Y22258023D01*
X129084535Y22310065D01*
X129084300Y22315467D01*
X129084300Y22323704D01*
X129084300Y22323709D01*
X129080594Y22355406D01*
X129080416Y22357146D01*
X129073798Y22432798D01*
X129073796Y22432802D01*
X129072337Y22439874D01*
X129072396Y22439886D01*
X129070767Y22447236D01*
X129070708Y22447222D01*
X129069042Y22454249D01*
X129069041Y22454250D01*
X129069041Y22454255D01*
X129043069Y22525612D01*
X129042507Y22527225D01*
X129018614Y22599335D01*
X129018612Y22599339D01*
X129015561Y22605882D01*
X129015616Y22605908D01*
X129012335Y22612685D01*
X129012281Y22612658D01*
X129009038Y22619114D01*
X129009037Y22619117D01*
X128967310Y22682557D01*
X128966379Y22684020D01*
X128926512Y22748656D01*
X128926507Y22748660D01*
X128922034Y22754319D01*
X128922082Y22754357D01*
X128917322Y22760200D01*
X128917275Y22760161D01*
X128912633Y22765691D01*
X128912630Y22765696D01*
X128857402Y22817799D01*
X128856173Y22818993D01*
X125872348Y25802819D01*
X125838863Y25864142D01*
X125843847Y25933834D01*
X125885719Y25989767D01*
X125951183Y26014184D01*
X125960029Y26014500D01*
X126090152Y26014500D01*
X126390427Y26052434D01*
X126390440Y26052436D01*
X126683610Y26127709D01*
X126683613Y26127710D01*
X126965028Y26239130D01*
X126965029Y26239131D01*
X126965034Y26239133D01*
X126965037Y26239135D01*
X127230280Y26384954D01*
X127230284Y26384956D01*
X127230291Y26384961D01*
X127475146Y26562859D01*
X127475156Y26562867D01*
X127695801Y26770066D01*
X127888738Y27003287D01*
X128050923Y27258850D01*
X128179799Y27532726D01*
X128273333Y27820594D01*
X128330050Y28117915D01*
X128330325Y28122285D01*
X128349056Y28419994D01*
X128349056Y28420005D01*
X128330051Y28722074D01*
X128330050Y28722081D01*
X128330050Y28722085D01*
X128273333Y29019406D01*
X128179799Y29307274D01*
X128050923Y29581150D01*
X127888738Y29836713D01*
X127695801Y30069934D01*
X127475155Y30277134D01*
X127230280Y30455046D01*
X126965037Y30600865D01*
X126965028Y30600868D01*
X126965028Y30600869D01*
X126683613Y30712289D01*
X126683610Y30712290D01*
X126595378Y30734944D01*
X126390437Y30787564D01*
X126250738Y30805212D01*
X126090152Y30825499D01*
X126090144Y30825499D01*
X126090141Y30825500D01*
X125787459Y30825500D01*
X125787456Y30825499D01*
X125787447Y30825499D01*
X125550160Y30795522D01*
X125487163Y30787564D01*
X125487159Y30787563D01*
X125193989Y30712290D01*
X125193986Y30712289D01*
X124912571Y30600869D01*
X124912570Y30600868D01*
X124912568Y30600867D01*
X124912563Y30600865D01*
X124647320Y30455046D01*
X124647313Y30455040D01*
X124647308Y30455038D01*
X124402453Y30277140D01*
X124402445Y30277134D01*
X124181799Y30069934D01*
X124015531Y29868950D01*
X123988858Y29836708D01*
X123826680Y29581155D01*
X123826677Y29581150D01*
X123697801Y29307274D01*
X123697800Y29307271D01*
X123607547Y29029500D01*
X123604267Y29019406D01*
X123581946Y28902397D01*
X123547549Y28722081D01*
X123547548Y28722074D01*
X123528544Y28420005D01*
X123528544Y28419994D01*
X123547548Y28117925D01*
X123547549Y28117918D01*
X123604268Y27820589D01*
X123697800Y27532728D01*
X123699080Y27530008D01*
X123789663Y27337508D01*
X123826680Y27258844D01*
X123987177Y27005942D01*
X124006478Y26938792D01*
X123986411Y26871866D01*
X123933346Y26826413D01*
X123882480Y26815500D01*
X119995120Y26815500D01*
X119928081Y26835185D01*
X119882326Y26887989D01*
X119872382Y26957147D01*
X119890423Y27005942D01*
X120050919Y27258844D01*
X120050923Y27258850D01*
X120179799Y27532726D01*
X120273333Y27820594D01*
X120330050Y28117915D01*
X120330325Y28122285D01*
X120349056Y28419994D01*
X120349056Y28420005D01*
X120330051Y28722074D01*
X120330050Y28722081D01*
X120330050Y28722085D01*
X120273333Y29019406D01*
X120179799Y29307274D01*
X120050923Y29581150D01*
X119888738Y29836713D01*
X119695801Y30069934D01*
X119475155Y30277134D01*
X119230280Y30455046D01*
X118965037Y30600865D01*
X118965028Y30600868D01*
X118965028Y30600869D01*
X118683613Y30712289D01*
X118683610Y30712290D01*
X118595378Y30734944D01*
X118390437Y30787564D01*
X118250738Y30805212D01*
X118090152Y30825499D01*
X118090144Y30825499D01*
X118090141Y30825500D01*
X117787459Y30825500D01*
X117787456Y30825499D01*
X117787447Y30825499D01*
X117550160Y30795522D01*
X117487163Y30787564D01*
X117487159Y30787563D01*
X117193989Y30712290D01*
X117193986Y30712289D01*
X116912571Y30600869D01*
X116912570Y30600868D01*
X116912568Y30600867D01*
X116912563Y30600865D01*
X116647320Y30455046D01*
X116647313Y30455040D01*
X116647308Y30455038D01*
X116402453Y30277140D01*
X116402445Y30277134D01*
X116181799Y30069934D01*
X116015531Y29868950D01*
X115988858Y29836708D01*
X115826680Y29581155D01*
X115826677Y29581150D01*
X115697801Y29307274D01*
X115697800Y29307271D01*
X115607547Y29029500D01*
X115604267Y29019406D01*
X115581946Y28902397D01*
X115547549Y28722081D01*
X115547548Y28722074D01*
X115528544Y28420005D01*
X115528544Y28419994D01*
X115547548Y28117925D01*
X115547549Y28117918D01*
X115604268Y27820589D01*
X115697800Y27532728D01*
X115699080Y27530008D01*
X115789663Y27337508D01*
X115826680Y27258844D01*
X115987177Y27005942D01*
X116006478Y26938792D01*
X115986411Y26871866D01*
X115933346Y26826413D01*
X115882480Y26815500D01*
X114751029Y26815500D01*
X114683990Y26835185D01*
X114663348Y26851819D01*
X113547809Y27967358D01*
X112399524Y29115642D01*
X112387747Y29129271D01*
X112387332Y29129829D01*
X112373410Y29148530D01*
X112333401Y29182101D01*
X112329406Y29185761D01*
X112323580Y29191588D01*
X112323579Y29191588D01*
X112323577Y29191591D01*
X112298547Y29211380D01*
X112297162Y29212509D01*
X112294336Y29214879D01*
X112239014Y29261302D01*
X112239007Y29261305D01*
X112232975Y29265274D01*
X112233008Y29265325D01*
X112226656Y29269372D01*
X112226624Y29269320D01*
X112220477Y29273111D01*
X112151604Y29305226D01*
X112150105Y29305952D01*
X112082233Y29340040D01*
X112082217Y29340043D01*
X112075446Y29342509D01*
X112075467Y29342567D01*
X112068346Y29345043D01*
X112068328Y29344986D01*
X112061477Y29347256D01*
X112061473Y29347256D01*
X112061473Y29347257D01*
X111987034Y29362626D01*
X111985455Y29362976D01*
X111911521Y29380500D01*
X111911512Y29380500D01*
X111904348Y29381338D01*
X111904355Y29381398D01*
X111896855Y29382164D01*
X111896850Y29382105D01*
X111889660Y29382734D01*
X111889656Y29382733D01*
X111889656Y29382734D01*
X111870068Y29382164D01*
X111813768Y29380526D01*
X111811965Y29380500D01*
X106471030Y29380500D01*
X106403991Y29400185D01*
X106383349Y29416819D01*
X106125619Y29674548D01*
X106092134Y29735871D01*
X106089300Y29762229D01*
X106089300Y29956154D01*
X106089299Y30131289D01*
X106089689Y30138239D01*
X106092084Y30159492D01*
X106094038Y30176827D01*
X106089439Y30245037D01*
X106089300Y30249191D01*
X106089300Y30261149D01*
X106089300Y30261155D01*
X106085584Y30302442D01*
X106085477Y30303805D01*
X106083775Y30329054D01*
X106078897Y30401412D01*
X106077829Y30405647D01*
X106074568Y30424833D01*
X106074177Y30429188D01*
X106048145Y30523508D01*
X106047820Y30524734D01*
X106023896Y30619683D01*
X106022090Y30623656D01*
X106015455Y30641958D01*
X106014293Y30646170D01*
X105971816Y30734372D01*
X105971280Y30735516D01*
X105930807Y30824625D01*
X105928324Y30828207D01*
X105918525Y30845033D01*
X105916629Y30848973D01*
X105859094Y30928160D01*
X105858343Y30929219D01*
X105802620Y31009654D01*
X105799530Y31012743D01*
X105786888Y31027545D01*
X105784322Y31031078D01*
X105713535Y31098755D01*
X105712670Y31099602D01*
X101963622Y34848650D01*
X101930139Y34909971D01*
X101927621Y34945175D01*
X101939410Y35109998D01*
X101939410Y35110000D01*
X101934711Y35175696D01*
X101918996Y35395428D01*
X101858169Y35675046D01*
X101758167Y35943161D01*
X101621026Y36194315D01*
X101449539Y36423395D01*
X101247195Y36625739D01*
X101018115Y36797226D01*
X100766966Y36934364D01*
X100766965Y36934364D01*
X100766961Y36934367D01*
X100498846Y37034369D01*
X100452877Y37044369D01*
X100219233Y37095195D01*
X100219232Y37095195D01*
X100219228Y37095196D01*
X99962395Y37113564D01*
X99933801Y37115610D01*
X99933799Y37115610D01*
X99902020Y37113337D01*
X99648372Y37095196D01*
X99648368Y37095195D01*
X99648366Y37095195D01*
X99368762Y37034371D01*
X99368760Y37034370D01*
X99368754Y37034369D01*
X99100639Y36934367D01*
X99100634Y36934364D01*
X99100633Y36934364D01*
X98849490Y36797229D01*
X98849482Y36797224D01*
X98620412Y36625745D01*
X98620394Y36625729D01*
X98418070Y36423405D01*
X98418054Y36423387D01*
X98246575Y36194317D01*
X98246570Y36194309D01*
X98109435Y35943166D01*
X98109433Y35943161D01*
X98013158Y35685037D01*
X98009428Y35675037D01*
X97948604Y35395433D01*
X97928190Y35110001D01*
X97928190Y35109998D01*
X97948604Y34824566D01*
X98009428Y34544962D01*
X98109435Y34276833D01*
X98246570Y34025690D01*
X98246575Y34025682D01*
X98418054Y33796612D01*
X98418070Y33796594D01*
X98620394Y33594270D01*
X98620412Y33594254D01*
X98849482Y33422775D01*
X98849490Y33422770D01*
X99100633Y33285635D01*
X99100632Y33285635D01*
X99368762Y33185628D01*
X99648366Y33124804D01*
X99933799Y33104390D01*
X99933800Y33104390D01*
X99933801Y33104390D01*
X100098622Y33116178D01*
X100166895Y33101326D01*
X100195149Y33080175D01*
X103551981Y29723343D01*
X103585466Y29662020D01*
X103588300Y29635662D01*
X103588300Y29429855D01*
X103568615Y29362816D01*
X103515811Y29317061D01*
X103446653Y29307117D01*
X103383097Y29336142D01*
X103373081Y29345860D01*
X103286263Y29440171D01*
X103096239Y29588072D01*
X102884464Y29702679D01*
X102656713Y29780866D01*
X102419199Y29820500D01*
X102178401Y29820500D01*
X101940887Y29780866D01*
X101940885Y29780865D01*
X101940883Y29780865D01*
X101886599Y29762229D01*
X101713136Y29702679D01*
X101713131Y29702676D01*
X101713125Y29702674D01*
X101648801Y29667863D01*
X101580473Y29653267D01*
X101515101Y29677929D01*
X101473439Y29734020D01*
X101465783Y29776917D01*
X101465783Y31045990D01*
X101465783Y31046000D01*
X101454230Y31153456D01*
X101443024Y31204967D01*
X101431630Y31239197D01*
X101408899Y31307497D01*
X101408896Y31307503D01*
X101408896Y31307504D01*
X101331108Y31428543D01*
X101285353Y31481347D01*
X101176619Y31575567D01*
X101045742Y31635338D01*
X100978703Y31655023D01*
X100978699Y31655024D01*
X100836283Y31675500D01*
X95437800Y31675500D01*
X95330344Y31663947D01*
X95278833Y31652741D01*
X95278827Y31652739D01*
X95176302Y31618616D01*
X95176296Y31618613D01*
X95055257Y31540825D01*
X95055252Y31540821D01*
X95055251Y31540820D01*
X95002459Y31495076D01*
X95002456Y31495072D01*
X95002453Y31495070D01*
X94908233Y31386336D01*
X94908233Y31386335D01*
X94908230Y31386331D01*
X94848463Y31255463D01*
X94848462Y31255459D01*
X94828777Y31188420D01*
X94828776Y31188416D01*
X94808300Y31046000D01*
X94808300Y26214000D01*
X94808300Y26213991D01*
X94808301Y26213990D01*
X94819852Y26106549D01*
X94819854Y26106537D01*
X94831060Y26055027D01*
X94865183Y25952502D01*
X94865186Y25952496D01*
X94942971Y25831462D01*
X94942979Y25831451D01*
X94988723Y25778659D01*
X95097464Y25684433D01*
X95097468Y25684430D01*
X95228336Y25624663D01*
X95295376Y25604978D01*
X95295380Y25604977D01*
X95295384Y25604976D01*
X95437800Y25584500D01*
X95437801Y25584500D01*
X100289300Y25584500D01*
X100356339Y25564815D01*
X100402094Y25512011D01*
X100413300Y25460500D01*
X100413300Y24924500D01*
X100393615Y24857461D01*
X100340811Y24811706D01*
X100289300Y24800500D01*
X99497943Y24800500D01*
X99465850Y24804725D01*
X99463935Y24805238D01*
X99350492Y24835635D01*
X99180472Y24850509D01*
X99123802Y24855468D01*
X99123798Y24855468D01*
X99059030Y24849801D01*
X98897108Y24835635D01*
X98801437Y24810000D01*
X98781750Y24804725D01*
X98749657Y24800500D01*
X92878300Y24800500D01*
X92811261Y24820185D01*
X92765506Y24872989D01*
X92754300Y24924500D01*
X92754300Y27416147D01*
X92754300Y27416155D01*
X92739177Y27584188D01*
X92732927Y27606834D01*
X92679296Y27801160D01*
X92679295Y27801162D01*
X92679293Y27801170D01*
X92581629Y28003973D01*
X92449322Y28186078D01*
X92286625Y28341632D01*
X92098768Y28465635D01*
X92032875Y28493799D01*
X91891795Y28554100D01*
X91891788Y28554103D01*
X91672337Y28604191D01*
X91447470Y28614290D01*
X91224413Y28584075D01*
X91010336Y28514517D01*
X90812119Y28407852D01*
X90812118Y28407851D01*
X90636136Y28267510D01*
X90636134Y28267508D01*
X90488035Y28097996D01*
X90372585Y27904764D01*
X90340994Y27820589D01*
X90293492Y27694023D01*
X90253299Y27472549D01*
X90253300Y24924500D01*
X90233615Y24857461D01*
X90180811Y24811706D01*
X90129300Y24800500D01*
X86453248Y24800500D01*
X86450491Y24800561D01*
X86367470Y24804290D01*
X86285113Y24793133D01*
X86282359Y24792824D01*
X86248925Y24789814D01*
X86199612Y24785377D01*
X86176420Y24778976D01*
X86168245Y24777303D01*
X86144413Y24774075D01*
X86065376Y24748393D01*
X86062718Y24747596D01*
X85982630Y24725493D01*
X85982627Y24725492D01*
X85960960Y24715058D01*
X85953216Y24711951D01*
X85930336Y24704517D01*
X85857151Y24665135D01*
X85854684Y24663877D01*
X85779827Y24627829D01*
X85760369Y24613691D01*
X85753300Y24609249D01*
X85732119Y24597852D01*
X85691882Y24565764D01*
X85667154Y24546044D01*
X85664963Y24544375D01*
X85638236Y24524957D01*
X85597727Y24495526D01*
X85597718Y24495518D01*
X85581098Y24478136D01*
X85574936Y24472503D01*
X85556134Y24457508D01*
X85501469Y24394940D01*
X85499593Y24392888D01*
X85483522Y24376078D01*
X85442168Y24332825D01*
X85442166Y24332822D01*
X85442165Y24332821D01*
X85442163Y24332818D01*
X85428917Y24312752D01*
X85423860Y24306111D01*
X85408038Y24288001D01*
X85408035Y24287996D01*
X85365415Y24216662D01*
X85363934Y24214306D01*
X85318165Y24144968D01*
X85318165Y24144967D01*
X85308712Y24122853D01*
X85304924Y24115418D01*
X85292588Y24094769D01*
X85292581Y24094755D01*
X85263388Y24016973D01*
X85262353Y24014393D01*
X85229699Y23937993D01*
X85229695Y23937981D01*
X85227654Y23929038D01*
X85224341Y23914525D01*
X85221943Y23906540D01*
X85213492Y23884023D01*
X85198656Y23802269D01*
X85198098Y23799544D01*
X85179610Y23718545D01*
X85179609Y23718532D01*
X85178530Y23694509D01*
X85177594Y23686211D01*
X85173299Y23662548D01*
X85173300Y23579447D01*
X85173238Y23576692D01*
X85170889Y23524366D01*
X85169510Y23493672D01*
X85169510Y23493670D01*
X85172738Y23469836D01*
X85173300Y23461505D01*
X85173300Y20518334D01*
X85153615Y20451295D01*
X85100811Y20405540D01*
X85031653Y20395596D01*
X84968097Y20424621D01*
X84961633Y20430639D01*
X84820145Y20572127D01*
X84815533Y20577287D01*
X84791308Y20607666D01*
X84739823Y20652645D01*
X84736810Y20655462D01*
X84728329Y20663945D01*
X84696452Y20690556D01*
X84695519Y20691353D01*
X84621796Y20755765D01*
X84618043Y20758006D01*
X84602164Y20769274D01*
X84598819Y20772068D01*
X84513731Y20820347D01*
X84512579Y20821018D01*
X84498349Y20829520D01*
X84428564Y20871215D01*
X84424476Y20872749D01*
X84406833Y20881003D01*
X84403045Y20883153D01*
X84310632Y20915489D01*
X84309449Y20915918D01*
X84217824Y20950307D01*
X84217819Y20950307D01*
X84217819Y20950308D01*
X84213537Y20951085D01*
X84194702Y20956056D01*
X84190583Y20957498D01*
X84093864Y20972816D01*
X84092639Y20973024D01*
X84009996Y20988023D01*
X83996348Y20990500D01*
X83996347Y20990500D01*
X83991972Y20990500D01*
X83972569Y20992028D01*
X83971234Y20992238D01*
X83968260Y20992710D01*
X83907355Y20991343D01*
X83870464Y20990516D01*
X83869073Y20990500D01*
X82622371Y20990500D01*
X82615432Y20990889D01*
X82576846Y20995237D01*
X82576843Y20995236D01*
X82576842Y20995237D01*
X82556502Y20993865D01*
X82508650Y20990639D01*
X82504497Y20990500D01*
X82492519Y20990500D01*
X82458364Y20987425D01*
X82451207Y20986782D01*
X82449820Y20986673D01*
X82360322Y20980639D01*
X82356168Y20980500D01*
X77712610Y20980500D01*
X77690468Y20982492D01*
X77659996Y20988023D01*
X77646348Y20990500D01*
X77646347Y20990500D01*
X77607497Y20990500D01*
X77600558Y20990889D01*
X77561972Y20995237D01*
X77561969Y20995236D01*
X77561968Y20995237D01*
X77541628Y20993865D01*
X77493776Y20990639D01*
X77489623Y20990500D01*
X67447497Y20990500D01*
X67440558Y20990889D01*
X67401972Y20995237D01*
X67401969Y20995236D01*
X67401968Y20995237D01*
X67381628Y20993865D01*
X67333776Y20990639D01*
X67329623Y20990500D01*
X57287497Y20990500D01*
X57280558Y20990889D01*
X57241972Y20995237D01*
X57241969Y20995236D01*
X57241968Y20995237D01*
X57221628Y20993865D01*
X57173776Y20990639D01*
X57169623Y20990500D01*
X47127497Y20990500D01*
X47120558Y20990889D01*
X47081972Y20995237D01*
X47081969Y20995236D01*
X47081968Y20995237D01*
X47061628Y20993865D01*
X47013776Y20990639D01*
X47009623Y20990500D01*
X36967497Y20990500D01*
X36960558Y20990889D01*
X36921972Y20995237D01*
X36921969Y20995236D01*
X36921968Y20995237D01*
X36901628Y20993865D01*
X36853776Y20990639D01*
X36849623Y20990500D01*
X26807497Y20990500D01*
X26800558Y20990889D01*
X26761972Y20995237D01*
X26761969Y20995236D01*
X26761968Y20995237D01*
X26741628Y20993865D01*
X26693776Y20990639D01*
X26689623Y20990500D01*
X26677645Y20990500D01*
X26643456Y20987422D01*
X26636334Y20986782D01*
X26634946Y20986673D01*
X26537392Y20980097D01*
X26537388Y20980096D01*
X26537387Y20980096D01*
X26533147Y20979027D01*
X26513958Y20975768D01*
X26513499Y20975726D01*
X26509612Y20975377D01*
X26431030Y20953689D01*
X26415303Y20949349D01*
X26414028Y20949011D01*
X26319116Y20925096D01*
X26315143Y20923291D01*
X26296843Y20916655D01*
X26292630Y20915493D01*
X26221011Y20881003D01*
X26204484Y20873044D01*
X26203271Y20872476D01*
X26114174Y20832007D01*
X26110580Y20829517D01*
X26093764Y20819725D01*
X26089829Y20817830D01*
X26089824Y20817827D01*
X26010687Y20760331D01*
X26009559Y20759530D01*
X25929146Y20703820D01*
X25929142Y20703816D01*
X25926055Y20700729D01*
X25911261Y20688093D01*
X25907722Y20685522D01*
X25874790Y20651079D01*
X25868628Y20645447D01*
X25846134Y20627508D01*
X25846132Y20627505D01*
X25846130Y20627504D01*
X25828798Y20607665D01*
X25805702Y20581229D01*
X25801170Y20576042D01*
X25798319Y20572993D01*
X25789845Y20564519D01*
X25781520Y20554545D01*
X25776125Y20548083D01*
X25773366Y20544996D01*
X25759205Y20530185D01*
X25752168Y20522825D01*
X25746725Y20514580D01*
X25741672Y20507943D01*
X25698035Y20457996D01*
X25695791Y20454241D01*
X25684532Y20438373D01*
X25682624Y20436087D01*
X25681727Y20435013D01*
X25633458Y20349943D01*
X25632758Y20348741D01*
X25582584Y20264763D01*
X25581048Y20260669D01*
X25572802Y20243044D01*
X25570646Y20239245D01*
X25555630Y20196331D01*
X25542546Y20158937D01*
X25538338Y20146912D01*
X25537863Y20145604D01*
X25503494Y20054030D01*
X25503491Y20054019D01*
X25502712Y20049723D01*
X25497749Y20030918D01*
X25496302Y20026784D01*
X25496300Y20026777D01*
X25480998Y19930161D01*
X25480765Y19928789D01*
X25463300Y19832549D01*
X25463300Y19828169D01*
X25461773Y19808774D01*
X25461417Y19806527D01*
X25461090Y19804462D01*
X25461090Y19804453D01*
X25463284Y19706664D01*
X25463300Y19705273D01*
X25463300Y17564142D01*
X25459075Y17532052D01*
X25442436Y17469953D01*
X25428165Y17416693D01*
X25428164Y17416687D01*
X25416844Y17287301D01*
X25391391Y17222232D01*
X25334800Y17181254D01*
X25318195Y17176630D01*
X25102704Y17132508D01*
X24893791Y17048707D01*
X24767947Y16969634D01*
X24703195Y16928948D01*
X24610426Y16844153D01*
X24537052Y16777086D01*
X24400692Y16597995D01*
X24400690Y16597991D01*
X24400689Y16597990D01*
X24298501Y16397436D01*
X24233763Y16181849D01*
X24208562Y15958179D01*
X24208561Y15958168D01*
X12700479Y15958168D01*
X12700479Y26612498D01*
X22818300Y26612498D01*
X22818301Y26612480D01*
X22828800Y26509703D01*
X22828801Y26509700D01*
X22883987Y26343163D01*
X22904839Y26309356D01*
X22923299Y26244261D01*
X22923299Y25184142D01*
X22919074Y25152049D01*
X22888166Y25036697D01*
X22888164Y25036686D01*
X22868332Y24810001D01*
X22868332Y24809998D01*
X22888164Y24583313D01*
X22888166Y24583302D01*
X22947058Y24363511D01*
X22947061Y24363502D01*
X23043231Y24157267D01*
X23043232Y24157265D01*
X23173754Y23970858D01*
X23334658Y23809954D01*
X23521065Y23679432D01*
X23521067Y23679431D01*
X23727302Y23583261D01*
X23727311Y23583258D01*
X23947102Y23524366D01*
X23947113Y23524364D01*
X24173798Y23504532D01*
X24173800Y23504532D01*
X24173802Y23504532D01*
X24400486Y23524364D01*
X24400497Y23524366D01*
X24620288Y23583258D01*
X24620297Y23583261D01*
X24826532Y23679431D01*
X24826534Y23679432D01*
X25012941Y23809954D01*
X25173845Y23970858D01*
X25221619Y24039087D01*
X25304368Y24157266D01*
X25331418Y24215275D01*
X25377591Y24267714D01*
X25444784Y24286866D01*
X25511665Y24266650D01*
X25556182Y24215275D01*
X25583231Y24157267D01*
X25583232Y24157265D01*
X25713754Y23970858D01*
X25874658Y23809954D01*
X26061065Y23679432D01*
X26061067Y23679431D01*
X26267302Y23583261D01*
X26267311Y23583258D01*
X26487102Y23524366D01*
X26487113Y23524364D01*
X26713798Y23504532D01*
X26713800Y23504532D01*
X26713802Y23504532D01*
X26940486Y23524364D01*
X26940497Y23524366D01*
X27055850Y23555275D01*
X27087943Y23559500D01*
X27895835Y23559500D01*
X27962874Y23539815D01*
X28008629Y23487011D01*
X28017842Y23457641D01*
X28018422Y23454441D01*
X28044447Y23360144D01*
X28044802Y23358799D01*
X28068702Y23263949D01*
X28070518Y23259952D01*
X28077139Y23241689D01*
X28078306Y23237461D01*
X28120751Y23149320D01*
X28121339Y23148062D01*
X28161791Y23059006D01*
X28161794Y23059001D01*
X28164286Y23055405D01*
X28174071Y23038601D01*
X28175968Y23034661D01*
X28175969Y23034659D01*
X28233459Y22955528D01*
X28234262Y22954396D01*
X28289980Y22873975D01*
X28293086Y22870869D01*
X28305703Y22856095D01*
X28308273Y22852558D01*
X28308278Y22852551D01*
X28378979Y22784953D01*
X28379974Y22783981D01*
X28936069Y22227885D01*
X28940704Y22222699D01*
X28964918Y22192337D01*
X28964922Y22192333D01*
X29016390Y22147365D01*
X29019433Y22144521D01*
X29027891Y22136064D01*
X29027905Y22136051D01*
X29059727Y22109483D01*
X29060783Y22108581D01*
X29134434Y22044234D01*
X29134440Y22044230D01*
X29138204Y22041981D01*
X29154038Y22030746D01*
X29157409Y22027932D01*
X29242525Y21979635D01*
X29243688Y21978957D01*
X29282908Y21955526D01*
X29327672Y21928781D01*
X29331762Y21927247D01*
X29349375Y21919008D01*
X29353177Y21916850D01*
X29353184Y21916847D01*
X29445524Y21884534D01*
X29446830Y21884061D01*
X29538402Y21849694D01*
X29538405Y21849693D01*
X29540339Y21849342D01*
X29542712Y21848911D01*
X29561506Y21843950D01*
X29565635Y21842505D01*
X29565648Y21842502D01*
X29662263Y21827199D01*
X29663634Y21826966D01*
X29759879Y21809500D01*
X29759883Y21809500D01*
X29764258Y21809500D01*
X29783661Y21807972D01*
X29787968Y21807289D01*
X29885766Y21809484D01*
X29887157Y21809500D01*
X36781253Y21809500D01*
X36785628Y21809500D01*
X36805031Y21807972D01*
X36809338Y21807289D01*
X36907117Y21809484D01*
X36908508Y21809500D01*
X39919883Y21809500D01*
X39924258Y21809500D01*
X39943661Y21807972D01*
X39947968Y21807289D01*
X40045766Y21809484D01*
X40047157Y21809500D01*
X50079883Y21809500D01*
X50084258Y21809500D01*
X50103661Y21807972D01*
X50107968Y21807289D01*
X50205766Y21809484D01*
X50207157Y21809500D01*
X57101253Y21809500D01*
X57105628Y21809500D01*
X57125031Y21807972D01*
X57129338Y21807289D01*
X57227117Y21809484D01*
X57228508Y21809500D01*
X60239883Y21809500D01*
X60244258Y21809500D01*
X60263661Y21807972D01*
X60267968Y21807289D01*
X60365766Y21809484D01*
X60367157Y21809500D01*
X67261253Y21809500D01*
X67265628Y21809500D01*
X67285031Y21807972D01*
X67289338Y21807289D01*
X67387117Y21809484D01*
X67388508Y21809500D01*
X70409883Y21809500D01*
X70414258Y21809500D01*
X70433661Y21807972D01*
X70437968Y21807289D01*
X70535766Y21809484D01*
X70537157Y21809500D01*
X77359711Y21809500D01*
X77366649Y21809110D01*
X77387222Y21806792D01*
X77405241Y21804762D01*
X77405248Y21804761D01*
X77451387Y21807873D01*
X77473450Y21809360D01*
X77477606Y21809500D01*
X77489574Y21809500D01*
X77530859Y21813215D01*
X77532245Y21813324D01*
X77629825Y21819903D01*
X77629830Y21819903D01*
X77634070Y21820972D01*
X77653242Y21824230D01*
X77657608Y21824623D01*
X77751913Y21850650D01*
X77753186Y21850987D01*
X77814660Y21866477D01*
X77848099Y21874903D01*
X77852088Y21876715D01*
X77870362Y21883340D01*
X77874580Y21884504D01*
X77874585Y21884506D01*
X77874588Y21884507D01*
X77962758Y21926966D01*
X77964002Y21927548D01*
X77966726Y21928785D01*
X78053044Y21967993D01*
X78053047Y21967994D01*
X78056639Y21970483D01*
X78073444Y21980269D01*
X78077383Y21982166D01*
X78077391Y21982171D01*
X78081600Y21985229D01*
X78156598Y22039718D01*
X78157614Y22040438D01*
X78233140Y22092763D01*
X78238074Y22096181D01*
X78241166Y22099273D01*
X78255957Y22111907D01*
X78259496Y22114478D01*
X78259500Y22114482D01*
X78327115Y22185202D01*
X78328088Y22186196D01*
X78397207Y22255315D01*
X78399201Y22257223D01*
X78435720Y22290602D01*
X78460536Y22313284D01*
X78460545Y22313293D01*
X78460548Y22313296D01*
X78490325Y22352405D01*
X78510885Y22379407D01*
X78512620Y22381583D01*
X78560621Y22439078D01*
X78565869Y22445364D01*
X78577741Y22466288D01*
X78582337Y22473251D01*
X78596908Y22492387D01*
X78634628Y22566419D01*
X78635937Y22568852D01*
X78676954Y22641138D01*
X78684900Y22663847D01*
X78688172Y22671505D01*
X78699098Y22692947D01*
X78722999Y22772543D01*
X78723835Y22775118D01*
X78751298Y22853600D01*
X78755060Y22877357D01*
X78756919Y22885502D01*
X78757086Y22886060D01*
X78763835Y22908531D01*
X78773138Y22991113D01*
X78773501Y22993792D01*
X78786511Y23075923D01*
X78785970Y23099995D01*
X78786344Y23108310D01*
X78789037Y23132210D01*
X78783446Y23215122D01*
X78783325Y23217813D01*
X78781460Y23300960D01*
X78776632Y23324531D01*
X78775513Y23332790D01*
X78774861Y23342463D01*
X78774440Y23348735D01*
X78774300Y23352898D01*
X78774300Y23435500D01*
X78793985Y23502539D01*
X78846789Y23548294D01*
X78898300Y23559500D01*
X79689657Y23559500D01*
X79721750Y23555275D01*
X79837102Y23524366D01*
X79837113Y23524364D01*
X80063798Y23504532D01*
X80063800Y23504532D01*
X80063802Y23504532D01*
X80290486Y23524364D01*
X80290497Y23524366D01*
X80510288Y23583258D01*
X80510297Y23583261D01*
X80716532Y23679431D01*
X80716534Y23679432D01*
X80902941Y23809954D01*
X81063845Y23970858D01*
X81081073Y23995462D01*
X81135649Y24039087D01*
X81205148Y24046281D01*
X81267503Y24014758D01*
X81302917Y23954529D01*
X81305938Y23937593D01*
X81309708Y23902516D01*
X81360002Y23767671D01*
X81360006Y23767664D01*
X81446252Y23652455D01*
X81446255Y23652452D01*
X81561464Y23566206D01*
X81561471Y23566202D01*
X81696317Y23515908D01*
X81696316Y23515908D01*
X81755916Y23509501D01*
X81755919Y23509500D01*
X81755927Y23509500D01*
X81755934Y23509500D01*
X81755935Y23509500D01*
X83451670Y23509500D01*
X83451676Y23509501D01*
X83511283Y23515908D01*
X83646128Y23566202D01*
X83646135Y23566206D01*
X83761344Y23652452D01*
X83761347Y23652455D01*
X83847593Y23767664D01*
X83847597Y23767671D01*
X83897891Y23902517D01*
X83897890Y23902517D01*
X83904300Y23962127D01*
X83904299Y25657872D01*
X83897891Y25717483D01*
X83862118Y25813395D01*
X83854300Y25856728D01*
X83854300Y26388123D01*
X83872761Y26453219D01*
X83923610Y26535659D01*
X83923610Y26535660D01*
X83923614Y26535666D01*
X83978799Y26702203D01*
X83989300Y26804991D01*
X83989299Y27530008D01*
X83978799Y27632797D01*
X83923614Y27799334D01*
X83831512Y27948656D01*
X83707456Y28072712D01*
X83558134Y28164814D01*
X83391597Y28219999D01*
X83288809Y28230500D01*
X81938792Y28230499D01*
X81938783Y28230498D01*
X81938781Y28230498D01*
X81836003Y28219999D01*
X81669466Y28164814D01*
X81520144Y28072712D01*
X81396088Y27948656D01*
X81303986Y27799334D01*
X81248801Y27632797D01*
X81248801Y27632795D01*
X81248800Y27632795D01*
X81238300Y27530016D01*
X81238300Y26804998D01*
X81238301Y26804980D01*
X81248800Y26702203D01*
X81248801Y26702200D01*
X81278531Y26612483D01*
X81303986Y26535666D01*
X81334840Y26485643D01*
X81353300Y26420548D01*
X81353300Y25856728D01*
X81345482Y25813395D01*
X81333300Y25780733D01*
X81309709Y25717484D01*
X81309708Y25717480D01*
X81305937Y25682404D01*
X81279199Y25617853D01*
X81221806Y25578005D01*
X81151981Y25575512D01*
X81091892Y25611165D01*
X81081072Y25624539D01*
X81063846Y25649140D01*
X80902941Y25810045D01*
X80902940Y25810045D01*
X80902939Y25810047D01*
X80716534Y25940568D01*
X80510296Y26036739D01*
X80290492Y26095635D01*
X80097942Y26112481D01*
X80063802Y26115468D01*
X80063798Y26115468D01*
X80029658Y26112481D01*
X79837108Y26095635D01*
X79721750Y26064725D01*
X79689657Y26060500D01*
X77897943Y26060500D01*
X77865850Y26064725D01*
X77750492Y26095635D01*
X77557942Y26112481D01*
X77523802Y26115468D01*
X77523798Y26115468D01*
X77489658Y26112481D01*
X77297108Y26095635D01*
X77077304Y26036739D01*
X76871066Y25940568D01*
X76871065Y25940567D01*
X76684658Y25810045D01*
X76523755Y25649142D01*
X76523754Y25649140D01*
X76523753Y25649139D01*
X76459873Y25557909D01*
X76405299Y25514285D01*
X76335801Y25507091D01*
X76273446Y25538613D01*
X76238031Y25598842D01*
X76234300Y25629033D01*
X76234300Y26388123D01*
X76252761Y26453219D01*
X76303610Y26535659D01*
X76303610Y26535660D01*
X76303614Y26535666D01*
X76358799Y26702203D01*
X76369300Y26804991D01*
X76369299Y27530008D01*
X76358799Y27632797D01*
X76303614Y27799334D01*
X76211512Y27948656D01*
X76087456Y28072712D01*
X75988617Y28133675D01*
X75941894Y28185621D01*
X75930671Y28254584D01*
X75935550Y28274566D01*
X75935283Y28274636D01*
X75940894Y28296312D01*
X75946982Y28314128D01*
X75953340Y28328942D01*
X75968407Y28402265D01*
X75969102Y28405260D01*
X75987863Y28477715D01*
X75988679Y28493807D01*
X75991058Y28512484D01*
X75994300Y28528257D01*
X75994300Y28603070D01*
X75994380Y28606210D01*
X75998169Y28680936D01*
X75995730Y28696857D01*
X75994300Y28715633D01*
X75994300Y29060621D01*
X76013985Y29127660D01*
X76053201Y29166158D01*
X76087453Y29187285D01*
X76211510Y29311342D01*
X76211512Y29311344D01*
X76303614Y29460666D01*
X76358799Y29627203D01*
X76369300Y29729991D01*
X76369299Y30230500D01*
X76388983Y30297539D01*
X76441787Y30343294D01*
X76493299Y30354500D01*
X81022176Y30354500D01*
X81047134Y30351962D01*
X81062820Y30348739D01*
X81114300Y30348739D01*
X81181339Y30329054D01*
X81227094Y30276250D01*
X81238300Y30224739D01*
X81238300Y29729998D01*
X81238301Y29729980D01*
X81248800Y29627203D01*
X81248801Y29627200D01*
X81303985Y29460668D01*
X81303987Y29460663D01*
X81396089Y29311342D01*
X81520142Y29187289D01*
X81669463Y29095187D01*
X81669468Y29095185D01*
X81714754Y29080179D01*
X81836003Y29040001D01*
X81836004Y29040000D01*
X81938783Y29029500D01*
X81938791Y29029500D01*
X82084891Y29029500D01*
X82136660Y29018175D01*
X82177932Y28999212D01*
X82288529Y28948395D01*
X82288537Y28948393D01*
X82486745Y28902396D01*
X82690158Y28897242D01*
X82890448Y28933140D01*
X82890454Y28933142D01*
X82991883Y28973658D01*
X83079417Y29008623D01*
X83079421Y29008626D01*
X83079427Y29008629D01*
X83080048Y29009038D01*
X83080440Y29009158D01*
X83084995Y29011537D01*
X83085438Y29010688D01*
X83146857Y29029492D01*
X83148280Y29029500D01*
X83288800Y29029500D01*
X83288819Y29029501D01*
X83391596Y29040000D01*
X83391599Y29040001D01*
X83558131Y29095185D01*
X83558134Y29095186D01*
X83601651Y29122027D01*
X83644619Y29148530D01*
X83707456Y29187288D01*
X83831512Y29311344D01*
X83923614Y29460666D01*
X83978799Y29627203D01*
X83989300Y29729991D01*
X83989299Y30455008D01*
X83985877Y30488503D01*
X83978799Y30557796D01*
X83978798Y30557799D01*
X83923614Y30724334D01*
X83831512Y30873656D01*
X83766977Y30938190D01*
X83733493Y30999513D01*
X83730659Y31025871D01*
X83730659Y31322309D01*
X83730739Y31325449D01*
X83734528Y31400175D01*
X83723197Y31474134D01*
X83722802Y31477238D01*
X83722384Y31481347D01*
X83715233Y31551677D01*
X83710409Y31567050D01*
X83706154Y31585388D01*
X83705491Y31589712D01*
X83703715Y31601310D01*
X83677717Y31671505D01*
X83676731Y31674389D01*
X83654318Y31745827D01*
X83646500Y31759909D01*
X83638637Y31777025D01*
X83633045Y31792126D01*
X83593442Y31855660D01*
X83591900Y31858280D01*
X83555568Y31923741D01*
X83545074Y31935963D01*
X83533932Y31951137D01*
X83525411Y31964810D01*
X83473827Y32019074D01*
X83471783Y32021337D01*
X83423025Y32078134D01*
X83410292Y32087989D01*
X83396320Y32100613D01*
X83392101Y32105049D01*
X83385218Y32112292D01*
X83323775Y32155056D01*
X83321345Y32156839D01*
X83262117Y32202687D01*
X83247638Y32209788D01*
X83231428Y32219331D01*
X83218208Y32228534D01*
X83149400Y32258061D01*
X83146652Y32259324D01*
X83079430Y32292299D01*
X83063831Y32296337D01*
X83046012Y32302429D01*
X83031217Y32308779D01*
X82957889Y32323846D01*
X82954908Y32324538D01*
X82882444Y32343302D01*
X82866352Y32344118D01*
X82847676Y32346496D01*
X82841323Y32347802D01*
X82831901Y32349739D01*
X82831900Y32349739D01*
X82757088Y32349739D01*
X82753948Y32349819D01*
X82727317Y32351169D01*
X82679223Y32353608D01*
X82665300Y32351475D01*
X82663302Y32351169D01*
X82644526Y32349739D01*
X81301185Y32349739D01*
X81276226Y32352276D01*
X81260541Y32355500D01*
X81260540Y32355500D01*
X81199202Y32355500D01*
X81194495Y32355678D01*
X81133324Y32360337D01*
X81099240Y32355996D01*
X81091411Y32355500D01*
X72309202Y32355500D01*
X72304495Y32355678D01*
X72243324Y32360337D01*
X72209240Y32355996D01*
X72201411Y32355500D01*
X62320729Y32355500D01*
X62317589Y32355580D01*
X62290958Y32356930D01*
X62242864Y32359369D01*
X62228941Y32357236D01*
X62226943Y32356930D01*
X62208167Y32355500D01*
X52160729Y32355500D01*
X52157589Y32355580D01*
X52130958Y32356930D01*
X52082864Y32359369D01*
X52068941Y32357236D01*
X52066943Y32356930D01*
X52048167Y32355500D01*
X43098300Y32355500D01*
X43031261Y32375185D01*
X42985506Y32427989D01*
X42974300Y32479500D01*
X42974300Y33010753D01*
X42993985Y33077792D01*
X43046789Y33123547D01*
X43071942Y33131919D01*
X43318837Y33185628D01*
X43318843Y33185630D01*
X43318846Y33185631D01*
X43586961Y33285633D01*
X43586966Y33285635D01*
X43838109Y33422770D01*
X43838117Y33422775D01*
X44067187Y33594254D01*
X44067205Y33594270D01*
X44269529Y33796594D01*
X44269545Y33796612D01*
X44441024Y34025682D01*
X44441029Y34025690D01*
X44578164Y34276833D01*
X44578165Y34276835D01*
X44578167Y34276839D01*
X44678169Y34544954D01*
X44678171Y34544962D01*
X44738995Y34824566D01*
X44738995Y34824568D01*
X44738996Y34824572D01*
X44759410Y35110000D01*
X44738996Y35395428D01*
X44678169Y35675046D01*
X44578167Y35943161D01*
X44441026Y36194315D01*
X44269539Y36423395D01*
X44067195Y36625739D01*
X43838115Y36797226D01*
X43586966Y36934364D01*
X43586965Y36934364D01*
X43586961Y36934367D01*
X43318846Y37034369D01*
X43272877Y37044369D01*
X43039233Y37095195D01*
X43039232Y37095195D01*
X43039228Y37095196D01*
X42782395Y37113564D01*
X42753801Y37115610D01*
X42753799Y37115610D01*
X42722020Y37113337D01*
X42468372Y37095196D01*
X42468368Y37095195D01*
X42468366Y37095195D01*
X42188762Y37034371D01*
X42188760Y37034370D01*
X42188754Y37034369D01*
X41920639Y36934367D01*
X41920634Y36934364D01*
X41920633Y36934364D01*
X41669490Y36797229D01*
X41669482Y36797224D01*
X41440412Y36625745D01*
X41440394Y36625729D01*
X41238070Y36423405D01*
X41238054Y36423387D01*
X41066575Y36194317D01*
X41066570Y36194309D01*
X40929435Y35943166D01*
X40929433Y35943161D01*
X40833158Y35685037D01*
X40829428Y35675037D01*
X40768604Y35395433D01*
X40748190Y35110001D01*
X40748190Y35109998D01*
X40768604Y34824566D01*
X40829428Y34544962D01*
X40929434Y34276835D01*
X40958133Y34224278D01*
X40973300Y34164852D01*
X40973300Y32479500D01*
X40953615Y32412461D01*
X40900811Y32366706D01*
X40849300Y32355500D01*
X31840729Y32355500D01*
X31837589Y32355580D01*
X31810958Y32356930D01*
X31762864Y32359369D01*
X31688916Y32348040D01*
X31685801Y32347643D01*
X31611362Y32340074D01*
X31611356Y32340072D01*
X31595989Y32335251D01*
X31577649Y32330994D01*
X31561729Y32328556D01*
X31491520Y32302553D01*
X31488625Y32301565D01*
X31417212Y32279159D01*
X31403124Y32271339D01*
X31386025Y32263482D01*
X31370913Y32257886D01*
X31307397Y32218296D01*
X31304729Y32216725D01*
X31239298Y32180409D01*
X31239291Y32180403D01*
X31227081Y32169921D01*
X31211900Y32158773D01*
X31198229Y32150252D01*
X31198224Y32150247D01*
X31144003Y32098706D01*
X31141672Y32096600D01*
X31084912Y32047873D01*
X31084908Y32047868D01*
X31084905Y32047866D01*
X31084903Y32047863D01*
X31075045Y32035128D01*
X31062420Y32021155D01*
X31050750Y32010063D01*
X31008002Y31948647D01*
X31006143Y31946116D01*
X30960353Y31886961D01*
X30960351Y31886957D01*
X30953258Y31872496D01*
X30943706Y31856270D01*
X30934506Y31843051D01*
X30934505Y31843049D01*
X30906172Y31777025D01*
X30905003Y31774302D01*
X30903701Y31771468D01*
X30891124Y31745827D01*
X30870739Y31704269D01*
X30866703Y31688680D01*
X30860613Y31670864D01*
X30856834Y31662057D01*
X30854260Y31656058D01*
X30839201Y31582777D01*
X30838490Y31579716D01*
X30819736Y31507281D01*
X30818919Y31491189D01*
X30816542Y31472523D01*
X30813300Y31456743D01*
X30813300Y31381928D01*
X30813220Y31378788D01*
X30809431Y31304064D01*
X30811870Y31288142D01*
X30813300Y31269366D01*
X30813300Y31124377D01*
X30793615Y31057338D01*
X30754394Y31018837D01*
X30720145Y30997713D01*
X30720144Y30997712D01*
X30596088Y30873656D01*
X30542987Y30787565D01*
X30510918Y30735572D01*
X30503986Y30724334D01*
X30448801Y30557797D01*
X30448801Y30557795D01*
X30448800Y30557795D01*
X30438300Y30455016D01*
X30438300Y30455003D01*
X30438301Y29754500D01*
X30418617Y29687461D01*
X30365813Y29641706D01*
X30314301Y29630500D01*
X29128300Y29630500D01*
X29061261Y29650185D01*
X29015506Y29702989D01*
X29004300Y29754500D01*
X29004300Y33244217D01*
X29023985Y33311256D01*
X29040619Y33331898D01*
X29651901Y33943181D01*
X29713224Y33976666D01*
X29739582Y33979500D01*
X31526564Y33979500D01*
X31593603Y33959815D01*
X31625831Y33929810D01*
X31718054Y33806612D01*
X31718070Y33806594D01*
X31920394Y33604270D01*
X31920412Y33604254D01*
X32149482Y33432775D01*
X32149490Y33432770D01*
X32400633Y33295635D01*
X32400632Y33295635D01*
X32668762Y33195628D01*
X32948366Y33134804D01*
X33233799Y33114390D01*
X33233800Y33114390D01*
X33233801Y33114390D01*
X33519233Y33134804D01*
X33798837Y33195628D01*
X33798843Y33195630D01*
X33798846Y33195631D01*
X34066961Y33295633D01*
X34066966Y33295635D01*
X34318109Y33432770D01*
X34318117Y33432775D01*
X34547187Y33604254D01*
X34547205Y33604270D01*
X34749529Y33806594D01*
X34749545Y33806612D01*
X34921024Y34035682D01*
X34921029Y34035690D01*
X35058164Y34286833D01*
X35058164Y34286834D01*
X35058167Y34286839D01*
X35158169Y34554954D01*
X35186725Y34686223D01*
X35218995Y34834566D01*
X35218995Y34834568D01*
X35218996Y34834572D01*
X35239410Y35120000D01*
X35218996Y35405428D01*
X35167404Y35642591D01*
X35158171Y35685037D01*
X35158170Y35685037D01*
X35158169Y35685046D01*
X35058167Y35953161D01*
X34921026Y36204315D01*
X34749539Y36433395D01*
X34547195Y36635739D01*
X34318115Y36807226D01*
X34066966Y36944364D01*
X34066965Y36944364D01*
X34066961Y36944367D01*
X33798846Y37044369D01*
X33798837Y37044371D01*
X33519233Y37105195D01*
X33519232Y37105195D01*
X33519228Y37105196D01*
X33262395Y37123564D01*
X33233801Y37125610D01*
X33233799Y37125610D01*
X33202020Y37123337D01*
X32948372Y37105196D01*
X32948368Y37105195D01*
X32948366Y37105195D01*
X32668762Y37044371D01*
X32668760Y37044370D01*
X32668754Y37044369D01*
X32400639Y36944367D01*
X32400634Y36944364D01*
X32400633Y36944364D01*
X32149490Y36807229D01*
X32149482Y36807224D01*
X31920412Y36635745D01*
X31920394Y36635729D01*
X31718070Y36433405D01*
X31718054Y36433387D01*
X31546575Y36204317D01*
X31546570Y36204309D01*
X31459621Y36045073D01*
X31410216Y35995668D01*
X31350789Y35980500D01*
X29287253Y35980500D01*
X29285690Y35980519D01*
X29197437Y35982756D01*
X29137047Y35971932D01*
X29132417Y35971282D01*
X29071362Y35965074D01*
X29042332Y35955965D01*
X29038586Y35954790D01*
X29030954Y35952917D01*
X29012331Y35949579D01*
X28997147Y35946858D01*
X28951773Y35928733D01*
X28940178Y35924102D01*
X28935741Y35922522D01*
X28877212Y35904159D01*
X28877210Y35904158D01*
X28877207Y35904157D01*
X28858910Y35894000D01*
X28847171Y35887485D01*
X28840078Y35884117D01*
X28808183Y35871377D01*
X28784558Y35855807D01*
X28756964Y35837621D01*
X28752934Y35835180D01*
X28733475Y35824379D01*
X28699298Y35805409D01*
X28699296Y35805407D01*
X28699295Y35805407D01*
X28673234Y35783033D01*
X28666959Y35778302D01*
X28638281Y35759402D01*
X28594891Y35716012D01*
X28591448Y35712822D01*
X28544906Y35672867D01*
X28544902Y35672863D01*
X28523874Y35645698D01*
X28518690Y35639811D01*
X27871616Y34992736D01*
X27305891Y34427011D01*
X27304766Y34425914D01*
X27301457Y34422768D01*
X27240747Y34365059D01*
X27226614Y34344753D01*
X27205702Y34314709D01*
X27202864Y34310946D01*
X27164105Y34263413D01*
X27164100Y34263406D01*
X27148197Y34232959D01*
X27144134Y34226251D01*
X27124505Y34198049D01*
X27124503Y34198046D01*
X27124503Y34198045D01*
X27124501Y34198041D01*
X27100314Y34141680D01*
X27098293Y34137424D01*
X27069894Y34083057D01*
X27069890Y34083045D01*
X27060442Y34050030D01*
X27057808Y34042630D01*
X27044259Y34011058D01*
X27031909Y33950966D01*
X27030786Y33946391D01*
X27013913Y33887423D01*
X27011303Y33853158D01*
X27010212Y33845380D01*
X27003300Y33811742D01*
X27003300Y33750401D01*
X27003121Y33745692D01*
X26998462Y33684526D01*
X27002803Y33650442D01*
X27003300Y33642603D01*
X27003300Y29754500D01*
X26983615Y29687461D01*
X26930811Y29641706D01*
X26879300Y29630500D01*
X25693300Y29630500D01*
X25626261Y29650185D01*
X25580506Y29702989D01*
X25569300Y29754500D01*
X25569299Y30262501D01*
X25569298Y30262519D01*
X25561047Y30343294D01*
X25558799Y30365297D01*
X25503614Y30531834D01*
X25411512Y30681156D01*
X25287456Y30805212D01*
X25138134Y30897314D01*
X24971597Y30952499D01*
X24868809Y30963000D01*
X24719770Y30962999D01*
X24665162Y30975670D01*
X24543071Y31035560D01*
X24346085Y31086563D01*
X24142864Y31096869D01*
X23941729Y31066056D01*
X23750913Y30995386D01*
X23729062Y30981766D01*
X23663472Y30962999D01*
X23518792Y30962999D01*
X23518783Y30962998D01*
X23518781Y30962998D01*
X23416003Y30952499D01*
X23249466Y30897314D01*
X23100144Y30805212D01*
X22976088Y30681156D01*
X22883986Y30531834D01*
X22828801Y30365297D01*
X22828801Y30365295D01*
X22828800Y30365295D01*
X22818300Y30262516D01*
X22818300Y29537498D01*
X22818301Y29537480D01*
X22828800Y29434703D01*
X22828801Y29434700D01*
X22883985Y29268168D01*
X22883987Y29268163D01*
X22976089Y29118842D01*
X23100146Y28994785D01*
X23134399Y28973658D01*
X23181122Y28921710D01*
X23193300Y28868121D01*
X23193300Y28656928D01*
X23193220Y28653788D01*
X23189431Y28579065D01*
X23189431Y28579058D01*
X23200757Y28505124D01*
X23201154Y28502010D01*
X23208725Y28427566D01*
X23208727Y28427557D01*
X23213549Y28412187D01*
X23217803Y28393858D01*
X23220244Y28377929D01*
X23220245Y28377926D01*
X23246225Y28307773D01*
X23247241Y28304802D01*
X23269640Y28233412D01*
X23277461Y28219322D01*
X23285318Y28202220D01*
X23290911Y28187118D01*
X23290915Y28187110D01*
X23296706Y28177820D01*
X23315459Y28110514D01*
X23294847Y28043754D01*
X23284850Y28030647D01*
X23261158Y28003530D01*
X23258323Y28000497D01*
X23249855Y27992029D01*
X23232378Y27971096D01*
X23229258Y27967358D01*
X23199167Y27941289D01*
X23100144Y27880212D01*
X23100142Y27880210D01*
X22976089Y27756157D01*
X22885825Y27609815D01*
X22883986Y27606834D01*
X22828801Y27440297D01*
X22828801Y27440295D01*
X22828800Y27440295D01*
X22818300Y27337516D01*
X22818300Y26612498D01*
X12700479Y26612498D01*
X12700479Y29898973D01*
X12700512Y29901002D01*
X12711947Y30250336D01*
X12713029Y30282011D01*
X12719948Y30484566D01*
X12720210Y30488503D01*
X12723790Y30524844D01*
X12751614Y30807356D01*
X12779228Y31075965D01*
X12779724Y31079674D01*
X12830774Y31388881D01*
X12877874Y31662057D01*
X12878587Y31665570D01*
X12881844Y31679538D01*
X12949078Y31967893D01*
X13015451Y32240257D01*
X13016328Y32243464D01*
X13106008Y32539100D01*
X13124362Y32596928D01*
X13191316Y32807882D01*
X13192367Y32810914D01*
X13300846Y33099138D01*
X13404694Y33362478D01*
X13405890Y33365303D01*
X13532752Y33645295D01*
X13654641Y33901589D01*
X13655939Y33904159D01*
X13676797Y33943181D01*
X13800354Y34174342D01*
X13800936Y34175404D01*
X13940022Y34422768D01*
X13941380Y34425062D01*
X13982773Y34491626D01*
X14102995Y34684959D01*
X14103802Y34686223D01*
X14259516Y34923629D01*
X14260941Y34925707D01*
X14439114Y35174347D01*
X14440109Y35175696D01*
X14555986Y35328505D01*
X14611754Y35402045D01*
X14613199Y35403878D01*
X14807220Y35640293D01*
X14808400Y35641687D01*
X14811898Y35645698D01*
X14995103Y35855807D01*
X14996579Y35857441D01*
X15205628Y36080640D01*
X15207039Y36082098D01*
X15407879Y36282938D01*
X15409322Y36284335D01*
X15632573Y36493433D01*
X15634180Y36494886D01*
X15848230Y36681528D01*
X15849638Y36682720D01*
X15907860Y36730501D01*
X16086158Y36876826D01*
X16088020Y36878295D01*
X16205684Y36967523D01*
X16314150Y37049776D01*
X16315488Y37050762D01*
X16564375Y37229111D01*
X16566484Y37230558D01*
X16803610Y37386089D01*
X16804722Y37386799D01*
X16961029Y37483997D01*
X17065043Y37548676D01*
X17067396Y37550069D01*
X17314170Y37688824D01*
X17315330Y37689460D01*
X17586008Y37834140D01*
X17588607Y37835452D01*
X17844175Y37956995D01*
X18124875Y38084178D01*
X18127718Y38085382D01*
X18390154Y38188874D01*
X18679267Y38297687D01*
X18682350Y38298756D01*
X18949864Y38383662D01*
X19246719Y38473712D01*
X19250038Y38474619D01*
X19335934Y38495551D01*
X19520609Y38540556D01*
X19616416Y38562895D01*
X19824670Y38611452D01*
X19828215Y38612171D01*
X20098763Y38658818D01*
X20410565Y38710297D01*
X20414326Y38710800D01*
X20678329Y38737940D01*
X21001776Y38769798D01*
X21005740Y38770060D01*
X21231266Y38777756D01*
X21231266Y38777757D01*
X21231387Y38777760D01*
X21231986Y38777781D01*
X21232174Y38777787D01*
X21232217Y38777788D01*
X21588977Y38789467D01*
X21591006Y38789500D01*
X121982878Y38789500D01*
X121984703Y38789472D01*
G37*
%TD.AperFunction*%
%TD*%
%TA.AperFunction,Conductor*%
%TO.N,VCC*%
G36*
X77604911Y9544261D02*
G01*
X77655155Y9535143D01*
X77662015Y9533978D01*
X77712482Y9525985D01*
X77736648Y9519607D01*
X77784506Y9501647D01*
X77784533Y9501637D01*
X77790392Y9499514D01*
X77791115Y9499252D01*
X77839249Y9482408D01*
X77861881Y9471821D01*
X77874177Y9464475D01*
X77878771Y9461800D01*
X77879958Y9461091D01*
X77884496Y9458310D01*
X77905798Y9445583D01*
X77911813Y9442082D01*
X77956187Y9416904D01*
X77976559Y9402452D01*
X77979645Y9399756D01*
X77992823Y9389003D01*
X77992859Y9388974D01*
X78002408Y9381703D01*
X78007689Y9377192D01*
X78016149Y9369105D01*
X78022453Y9363278D01*
X78031831Y9354897D01*
X78036959Y9350468D01*
X78038770Y9348840D01*
X78047680Y9340508D01*
X78054073Y9334730D01*
X78072764Y9318399D01*
X78077735Y9313538D01*
X78096006Y9293549D01*
X78106727Y9282585D01*
X78119994Y9266510D01*
X78146887Y9227692D01*
X78151895Y9220719D01*
X78159457Y9210560D01*
X78164870Y9203535D01*
X78167114Y9200428D01*
X78175689Y9187747D01*
X78175723Y9187699D01*
X78183503Y9176990D01*
X78196080Y9155392D01*
X78217281Y9108715D01*
X78220207Y9102471D01*
X78242323Y9056546D01*
X78250843Y9033048D01*
X78263268Y8983742D01*
X78265034Y8977018D01*
X78278691Y8927537D01*
X78282879Y8902889D01*
X78286304Y8852090D01*
X78286864Y8844960D01*
X78288764Y8823842D01*
X78288979Y8820364D01*
X78289364Y8808850D01*
X78289797Y8800260D01*
X78290982Y8782677D01*
X78290825Y8763927D01*
X78290380Y8758647D01*
X78290379Y8758630D01*
X78289196Y8737533D01*
X78289195Y8737512D01*
X78289193Y8737467D01*
X78288800Y8723407D01*
X78288800Y8424509D01*
X78288801Y8424490D01*
X78300352Y8317049D01*
X78300354Y8317037D01*
X78311560Y8265527D01*
X78345683Y8163002D01*
X78345686Y8162996D01*
X78423471Y8041962D01*
X78423479Y8041951D01*
X78469223Y7989159D01*
X78577964Y7894933D01*
X78577968Y7894930D01*
X78708836Y7835163D01*
X78775876Y7815478D01*
X78775880Y7815477D01*
X78775884Y7815476D01*
X78918300Y7795000D01*
X78918301Y7795000D01*
X79726210Y7795000D01*
X79759200Y7797162D01*
X79759219Y7797164D01*
X79759223Y7797164D01*
X79759230Y7797165D01*
X79803401Y7802979D01*
X79824130Y7805708D01*
X79824133Y7805708D01*
X79824136Y7805709D01*
X79828622Y7806601D01*
X79856594Y7812164D01*
X79934748Y7833105D01*
X79956032Y7836858D01*
X80072990Y7847091D01*
X80094606Y7847091D01*
X80211566Y7836858D01*
X80232851Y7833105D01*
X80346267Y7802716D01*
X80366577Y7795323D01*
X80394292Y7782400D01*
X80472985Y7745705D01*
X80491703Y7734898D01*
X80587886Y7667550D01*
X80604444Y7653656D01*
X80687455Y7570645D01*
X80701349Y7554087D01*
X80768696Y7457904D01*
X80779497Y7439199D01*
X80783273Y7431102D01*
X80783279Y7431092D01*
X80859380Y7313700D01*
X80859388Y7313689D01*
X80903895Y7262324D01*
X81009283Y7170271D01*
X81009282Y7170271D01*
X81139680Y7109468D01*
X81139690Y7109465D01*
X81194861Y7092789D01*
X81253337Y7054550D01*
X81281857Y6990766D01*
X81271365Y6921688D01*
X81225193Y6869249D01*
X81171750Y6850752D01*
X81150254Y6848527D01*
X81010704Y6813497D01*
X80886676Y6740569D01*
X80886675Y6740568D01*
X80832101Y6696945D01*
X80733649Y6592039D01*
X80733636Y6592022D01*
X80701347Y6545908D01*
X80687453Y6529350D01*
X80604448Y6446345D01*
X80587889Y6432450D01*
X80491705Y6365103D01*
X80472989Y6354297D01*
X80366571Y6304672D01*
X80346266Y6297282D01*
X80232851Y6266893D01*
X80211573Y6263141D01*
X80094605Y6252908D01*
X80073001Y6252908D01*
X79956031Y6263140D01*
X79934745Y6266894D01*
X79890931Y6278634D01*
X79856597Y6287834D01*
X79824136Y6294291D01*
X79759230Y6302835D01*
X79759200Y6302836D01*
X79759200Y6302837D01*
X79726210Y6305000D01*
X79726205Y6305000D01*
X77901395Y6305000D01*
X77901390Y6305000D01*
X77868399Y6302837D01*
X77868395Y6302836D01*
X77868370Y6302835D01*
X77803463Y6294291D01*
X77771001Y6287833D01*
X77692857Y6266894D01*
X77671573Y6263141D01*
X77554605Y6252908D01*
X77533002Y6252908D01*
X77416020Y6263141D01*
X77394745Y6266893D01*
X77281336Y6297279D01*
X77261036Y6304668D01*
X77154602Y6354299D01*
X77135904Y6365094D01*
X77039698Y6432457D01*
X77023157Y6446337D01*
X76934585Y6534909D01*
X76928903Y6541448D01*
X76925014Y6546613D01*
X76908673Y6566808D01*
X76885676Y6593295D01*
X76773644Y6683575D01*
X76713555Y6719227D01*
X76713550Y6719230D01*
X76713541Y6719233D01*
X76713539Y6719235D01*
X76656239Y6742967D01*
X76580621Y6774288D01*
X76437565Y6789666D01*
X76432726Y6789493D01*
X76365027Y6806771D01*
X76317416Y6857908D01*
X76304299Y6913414D01*
X76304299Y7897870D01*
X76304299Y7897873D01*
X76297891Y7957483D01*
X76271617Y8027926D01*
X76263800Y8071257D01*
X76263800Y9421000D01*
X76283485Y9488039D01*
X76336289Y9533794D01*
X76387800Y9545000D01*
X77521965Y9545000D01*
X77521980Y9545000D01*
X77527553Y9545063D01*
X77529044Y9545081D01*
X77579993Y9546223D01*
X77604911Y9544261D01*
G37*
%TD.AperFunction*%
%TD*%
%TA.AperFunction,Conductor*%
%TO.N,VCC*%
G36*
X26941103Y26083153D02*
G01*
X26941944Y26087381D01*
X26988133Y26078194D01*
X27012506Y26065444D01*
X27067702Y26061826D01*
X27075749Y26060767D01*
X27116019Y26052757D01*
X27164223Y26084553D01*
X27200571Y26090000D01*
X28767029Y26090000D01*
X28834068Y26070315D01*
X28849619Y26052367D01*
X28891850Y26060767D01*
X28899897Y26061826D01*
X28947003Y26064913D01*
X28952146Y26069370D01*
X28979467Y26078194D01*
X29025656Y26087381D01*
X29026466Y26083305D01*
X29049815Y26090000D01*
X29913799Y26090000D01*
X29980838Y26070315D01*
X30026593Y26017511D01*
X30037799Y25966000D01*
X30037799Y25947928D01*
X30029981Y25904596D01*
X30026081Y25894139D01*
X30026079Y25894133D01*
X30014549Y25845339D01*
X30008433Y25826402D01*
X29995019Y25794018D01*
X29997104Y25775410D01*
X29997518Y25775366D01*
X29997318Y25773506D01*
X29997368Y25773061D01*
X29997104Y25771520D01*
X29993332Y25736438D01*
X30142618Y25720388D01*
X30207169Y25693650D01*
X30238210Y25648941D01*
X30269761Y25621656D01*
X30287696Y25602468D01*
X30303317Y25581728D01*
X30323089Y25580333D01*
X30384137Y25564751D01*
X30444225Y25529098D01*
X30455323Y25515328D01*
X30463048Y25504203D01*
X30485116Y25437910D01*
X30485195Y25433478D01*
X30485195Y22439000D01*
X30465510Y22371961D01*
X30412706Y22326206D01*
X30361195Y22315000D01*
X29884250Y22315000D01*
X29877187Y22314919D01*
X29826227Y22313774D01*
X29801323Y22315734D01*
X29751113Y22324847D01*
X29744154Y22326030D01*
X29693735Y22334015D01*
X29669574Y22340392D01*
X29621713Y22358355D01*
X29615080Y22360757D01*
X29566968Y22377592D01*
X29544344Y22388176D01*
X29500622Y22414299D01*
X29494564Y22417831D01*
X29450040Y22443094D01*
X29429663Y22457551D01*
X29391243Y22491118D01*
X29385880Y22495699D01*
X29369606Y22509284D01*
X29367036Y22511555D01*
X29358459Y22519571D01*
X29352175Y22525250D01*
X29338909Y22536839D01*
X29325762Y22550210D01*
X29322334Y22554270D01*
X29308253Y22570025D01*
X29298520Y22580319D01*
X28735327Y23143513D01*
X28730276Y23148447D01*
X28693473Y23183633D01*
X28677240Y23202641D01*
X28648212Y23244540D01*
X28648183Y23244581D01*
X28644104Y23250332D01*
X28614092Y23291639D01*
X28601521Y23313224D01*
X28580447Y23359622D01*
X28577460Y23366012D01*
X28555274Y23412082D01*
X28546753Y23435586D01*
X28534287Y23485062D01*
X28532485Y23491893D01*
X28509740Y23574300D01*
X28509318Y23575912D01*
X28504885Y23593904D01*
X28490955Y23638311D01*
X28470590Y23691418D01*
X28468452Y23696994D01*
X28468450Y23696996D01*
X28468448Y23697004D01*
X28390660Y23818043D01*
X28344905Y23870847D01*
X28236171Y23965067D01*
X28105294Y24024838D01*
X28038255Y24044523D01*
X28038251Y24044524D01*
X27895835Y24065000D01*
X27071395Y24065000D01*
X27071390Y24065000D01*
X27038399Y24062837D01*
X27038395Y24062836D01*
X27038370Y24062835D01*
X26973463Y24054291D01*
X26941001Y24047833D01*
X26862857Y24026894D01*
X26841573Y24023141D01*
X26724605Y24012908D01*
X26703002Y24012908D01*
X26586020Y24023141D01*
X26564745Y24026893D01*
X26451336Y24057279D01*
X26431036Y24064668D01*
X26324602Y24114299D01*
X26305904Y24125094D01*
X26209698Y24192457D01*
X26193157Y24206337D01*
X26110141Y24289353D01*
X26096252Y24305906D01*
X26089550Y24315477D01*
X26042848Y24382177D01*
X26028902Y24402094D01*
X26018093Y24420818D01*
X26014325Y24428898D01*
X26014322Y24428905D01*
X25938212Y24546308D01*
X25893695Y24597683D01*
X25788326Y24689721D01*
X25657926Y24750528D01*
X25591045Y24770744D01*
X25591043Y24770745D01*
X25577656Y24772778D01*
X25514334Y24802301D01*
X25477023Y24861375D01*
X25472744Y24884565D01*
X25459435Y25036692D01*
X25428524Y25152052D01*
X25424300Y25184142D01*
X25424300Y25374487D01*
X25443985Y25441526D01*
X25496789Y25487281D01*
X25548962Y25494782D01*
X25555036Y25497793D01*
X25606380Y25518824D01*
X25619806Y25520214D01*
X25635404Y25542492D01*
X25649872Y25557909D01*
X25679881Y25589887D01*
X25740111Y25625301D01*
X25770302Y25629033D01*
X25929800Y25629033D01*
X25929800Y25966000D01*
X25949485Y26033039D01*
X26002289Y26078794D01*
X26053800Y26090000D01*
X26917785Y26090000D01*
X26941103Y26083153D01*
G37*
%TD.AperFunction*%
%TD*%
%TA.AperFunction,Conductor*%
%TO.N,VCC*%
G36*
X57220694Y9545439D02*
G01*
X57226367Y9545249D01*
X57234920Y9545060D01*
X57240413Y9545000D01*
X60841195Y9545000D01*
X60908234Y9525315D01*
X60953989Y9472511D01*
X60965195Y9421000D01*
X60965195Y6462875D01*
X60945510Y6395836D01*
X60892706Y6350081D01*
X60888194Y6348127D01*
X60882301Y6345713D01*
X60871216Y6341173D01*
X60857792Y6339783D01*
X60842194Y6317506D01*
X60827725Y6302088D01*
X60797714Y6270110D01*
X60737484Y6234697D01*
X60707295Y6230966D01*
X60547800Y6230966D01*
X60547800Y5894000D01*
X60528115Y5826961D01*
X60475311Y5781206D01*
X60423800Y5770000D01*
X59559815Y5770000D01*
X59536499Y5776846D01*
X59535659Y5772619D01*
X59489470Y5781805D01*
X59465092Y5794555D01*
X59409898Y5798173D01*
X59401849Y5799233D01*
X59361579Y5807242D01*
X59313377Y5775447D01*
X59277029Y5770000D01*
X57710571Y5770000D01*
X57643532Y5789685D01*
X57627981Y5807631D01*
X57585750Y5799232D01*
X57577701Y5798173D01*
X57530597Y5795085D01*
X57525454Y5790629D01*
X57498130Y5781805D01*
X57451941Y5772619D01*
X57451130Y5776693D01*
X57427785Y5770000D01*
X56563800Y5770000D01*
X56496761Y5789685D01*
X56451006Y5842489D01*
X56439800Y5894000D01*
X56439800Y5912070D01*
X56447617Y5955401D01*
X56451519Y5965864D01*
X56451520Y5965866D01*
X56463049Y6014658D01*
X56469165Y6033596D01*
X56482584Y6065992D01*
X56480499Y6084589D01*
X56480080Y6084635D01*
X56480283Y6086524D01*
X56480234Y6086963D01*
X56480492Y6088474D01*
X56480495Y6088487D01*
X56484266Y6123566D01*
X56334976Y6139614D01*
X56270428Y6166350D01*
X56239376Y6211071D01*
X56207840Y6238342D01*
X56189902Y6257531D01*
X56174277Y6278273D01*
X56154499Y6279668D01*
X56135616Y6284487D01*
X56135616Y6284488D01*
X56135615Y6284487D01*
X56093460Y6295247D01*
X56033370Y6330899D01*
X56030216Y6334812D01*
X56017551Y6342326D01*
X55986271Y6404803D01*
X55984299Y6426819D01*
X55984299Y7897872D01*
X55977891Y7957483D01*
X55927596Y8092331D01*
X55909929Y8115930D01*
X55885511Y8181393D01*
X55885195Y8190242D01*
X55885195Y9421000D01*
X55904880Y9488039D01*
X55957684Y9533794D01*
X56009195Y9545000D01*
X57133838Y9545000D01*
X57150837Y9545572D01*
X57174103Y9547141D01*
X57181057Y9547219D01*
X57220694Y9545439D01*
G37*
%TD.AperFunction*%
%TD*%
M02*
