M48
; DRILL file {KiCad 7.0.5} date Wed Sep 25 18:26:48 2024
; FORMAT={-:-/ absolute / inch / decimal}
; #@! TF.CreationDate,2024-09-25T18:26:48-04:00
; #@! TF.GenerationSoftware,Kicad,Pcbnew,7.0.5
; #@! TF.FileFunction,Plated,1,2,PTH
FMAT,2
INCH
; #@! TA.AperFunction,Plated,PTH,ViaDrill
T1C0.0157
; #@! TA.AperFunction,Plated,PTH,ComponentDrill
T2C0.0276
; #@! TA.AperFunction,Plated,PTH,ComponentDrill
T3C0.0315
; #@! TA.AperFunction,Plated,PTH,ComponentDrill
T4C0.0433
; #@! TA.AperFunction,Plated,PTH,ComponentDrill
T5C0.0472
; #@! TA.AperFunction,Plated,PTH,ViaDrill
T6C0.0945
; #@! TA.AperFunction,Plated,PTH,ComponentDrill
T7C0.1250
; #@! TA.AperFunction,Plated,PTH,ViaDrill
T8C0.1575
%
G90
G05
T1
X5.6Y-2.7228
X5.7Y-2.7228
X5.8Y-2.7228
X6.0Y-2.7228
X6.1Y-2.7228
X6.2Y-2.7228
X6.4Y-2.7228
X6.5Y-2.7228
X6.6Y-2.7228
X6.8Y-2.7228
X6.9Y-2.7228
X7.0Y-2.7228
X7.2Y-2.7228
X7.3Y-2.7228
X7.4Y-2.7228
X7.6Y-2.7228
X7.7Y-2.7228
X7.8Y-2.7228
X8.1Y-2.8228
X8.1Y-2.9228
X8.55Y-2.7728
X8.6Y-2.7228
X8.6Y-2.9228
X8.6Y-3.0228
X8.643Y-2.8674
X9.0Y-3.1728
T2
X8.1Y-2.5228
X8.1Y-2.7228
X8.2Y-2.1728
X8.2Y-2.2728
X8.4Y-2.1728
X8.4Y-2.2728
X8.6Y-2.4228
X8.6Y-2.6228
T3
X5.5492Y-2.3732
X5.5492Y-2.6732
X5.5504Y-2.7724
X5.5504Y-3.0724
X5.6492Y-2.3732
X5.6492Y-2.6732
X5.6504Y-2.7724
X5.6504Y-3.0724
X5.7492Y-2.3732
X5.7492Y-2.6732
X5.7504Y-2.7724
X5.7504Y-3.0724
X5.8492Y-2.3732
X5.8492Y-2.6732
X5.8504Y-2.7724
X5.8504Y-3.0724
X5.9492Y-2.3732
X5.9492Y-2.6732
X5.9504Y-2.7724
X5.9504Y-3.0724
X6.0492Y-2.3732
X6.0492Y-2.6732
X6.0504Y-2.7724
X6.0504Y-3.0724
X6.1492Y-2.3732
X6.1492Y-2.6732
X6.1504Y-2.7724
X6.1504Y-3.0724
X6.2492Y-2.3732
X6.2492Y-2.6732
X6.2504Y-2.7724
X6.2504Y-3.0724
X6.3492Y-2.3732
X6.3492Y-2.6732
X6.35Y-2.7728
X6.35Y-3.0728
X6.4492Y-2.3732
X6.4492Y-2.6732
X6.45Y-2.7728
X6.45Y-3.0728
X6.5492Y-2.3732
X6.5492Y-2.6732
X6.55Y-2.7728
X6.55Y-3.0728
X6.6492Y-2.3732
X6.6492Y-2.6732
X6.65Y-2.7728
X6.65Y-3.0728
X6.7492Y-2.3732
X6.7492Y-2.6732
X6.7504Y-2.7724
X6.7504Y-3.0724
X6.8492Y-2.3732
X6.8492Y-2.6732
X6.8504Y-2.7724
X6.8504Y-3.0724
X6.9492Y-2.3732
X6.9492Y-2.6732
X6.9504Y-2.7724
X6.9504Y-3.0724
X7.0492Y-2.3732
X7.0492Y-2.6732
X7.0504Y-2.7724
X7.0504Y-3.0724
X7.1496Y-2.3732
X7.1496Y-2.6732
X7.1504Y-2.7724
X7.1504Y-3.0724
X7.2496Y-2.3732
X7.2496Y-2.6732
X7.2504Y-2.7724
X7.2504Y-3.0724
X7.3496Y-2.3732
X7.3496Y-2.6732
X7.3504Y-2.7724
X7.3504Y-3.0724
X7.4496Y-2.3732
X7.4496Y-2.6732
X7.4504Y-2.7724
X7.4504Y-3.0724
X7.5496Y-2.3732
X7.5496Y-2.6732
X7.5504Y-2.7724
X7.5504Y-3.0724
X7.6496Y-2.3732
X7.6496Y-2.6732
X7.6504Y-2.7724
X7.6504Y-3.0724
X7.7496Y-2.3732
X7.7496Y-2.6732
X7.7504Y-2.7724
X7.7504Y-3.0724
X7.8496Y-2.3732
X7.8496Y-2.6732
X7.8504Y-2.7724
X7.8504Y-3.0724
X8.2Y-2.4228
X8.2Y-2.5228
X8.2Y-2.6228
X8.2Y-2.7228
X8.2Y-2.8228
X8.2Y-2.9228
X8.2Y-3.0228
X8.5Y-2.4228
X8.5Y-2.5228
X8.5Y-2.6228
X8.5Y-2.7228
X8.5Y-2.8228
X8.5Y-2.9228
X8.5Y-3.0228
X8.7Y-2.4228
X8.7Y-2.5228
X8.7Y-2.6228
X8.7Y-2.7228
X8.7Y-2.8228
X8.7Y-2.9228
X8.7Y-3.0228
X9.0Y-2.4228
X9.0Y-2.5228
X9.0Y-2.6228
X9.0Y-2.7228
X9.0Y-2.8228
X9.0Y-2.9228
X9.0Y-3.0228
T4
X8.525Y-2.235
X8.625Y-2.235
X8.725Y-2.235
T5
X9.1781Y-2.5047
X9.1781Y-2.6138
X9.1781Y-2.7228
X9.1781Y-2.8319
X9.1781Y-2.9409
X9.29Y-2.5593
X9.29Y-2.6683
X9.29Y-2.7774
X9.29Y-2.8864
X9.4439Y-2.5047
X9.4439Y-2.6138
X9.4439Y-2.7228
X9.4439Y-2.8319
X9.4439Y-2.9409
X9.5557Y-2.5593
X9.5557Y-2.6683
X9.5557Y-2.7774
X9.5557Y-2.8864
T6
X5.8965Y-3.4693
X5.9059Y-1.9673
X6.2713Y-3.4697
X6.2807Y-1.9677
X6.6465Y-3.4697
X6.6559Y-1.9677
X7.772Y-3.4697
X7.7815Y-1.9677
X8.1472Y-3.4697
X8.1567Y-1.9677
X8.5224Y-3.4697
X8.5319Y-1.9677
T7
X9.2407Y-2.2311
X9.2407Y-3.2146
X9.5557Y-2.2311
X9.5557Y-3.2146
T8
X5.5209Y-3.4697
X5.5303Y-1.9677
X7.0217Y-3.4697
X7.0311Y-1.9677
X7.3969Y-3.4697
X7.4063Y-1.9677
X8.8976Y-3.4697
X8.9071Y-1.9677
T0
M30
