%TF.GenerationSoftware,KiCad,Pcbnew,7.0.5*%
%TF.CreationDate,2024-09-25T18:33:36-04:00*%
%TF.ProjectId,stepper_motor_controller_3_for_cnc,73746570-7065-4725-9f6d-6f746f725f63,rev?*%
%TF.SameCoordinates,Original*%
%TF.FileFunction,Soldermask,Top*%
%TF.FilePolarity,Negative*%
%FSLAX46Y46*%
G04 Gerber Fmt 4.6, Leading zero omitted, Abs format (unit mm)*
G04 Created by KiCad (PCBNEW 7.0.5) date 2024-09-25 18:33:36*
%MOMM*%
%LPD*%
G01*
G04 APERTURE LIST*
%ADD10C,1.400000*%
%ADD11O,1.400000X1.400000*%
%ADD12C,2.004000*%
%ADD13C,4.014000*%
%ADD14R,1.600000X1.600000*%
%ADD15O,1.600000X1.600000*%
%ADD16R,1.905000X2.000000*%
%ADD17O,1.905000X2.000000*%
G04 APERTURE END LIST*
D10*
%TO.C,R37*%
X91503800Y27360000D03*
D11*
X96583800Y27360000D03*
%TD*%
D12*
%TO.C,J2*%
X123098800Y10390000D03*
X116348800Y10390000D03*
X123098800Y13160000D03*
X116348800Y13160000D03*
X123098800Y15930000D03*
X116348800Y15930000D03*
X123098800Y18700000D03*
X116348800Y18700000D03*
X123098800Y21470000D03*
X116348800Y21470000D03*
X125938800Y11775000D03*
X119188800Y11775000D03*
X125938800Y14545000D03*
X119188800Y14545000D03*
X125938800Y17315000D03*
X119188800Y17315000D03*
X125938800Y20085000D03*
X119188800Y20085000D03*
D13*
X117938800Y3440000D03*
X125938800Y3440000D03*
X117938800Y28420000D03*
X125938800Y28420000D03*
%TD*%
D14*
%TO.C,U24*%
X72443800Y24810000D03*
D15*
X69903800Y24810000D03*
X67363800Y24810000D03*
X64823800Y24810000D03*
X64823800Y17190000D03*
X67363800Y17190000D03*
X69903800Y17190000D03*
X72443800Y17190000D03*
%TD*%
D14*
%TO.C,U27*%
X75003800Y7050000D03*
D15*
X77543800Y7050000D03*
X80083800Y7050000D03*
X82623800Y7050000D03*
X82623800Y14670000D03*
X80083800Y14670000D03*
X77543800Y14670000D03*
X75003800Y14670000D03*
%TD*%
D14*
%TO.C,U26*%
X82603800Y24810000D03*
D15*
X80063800Y24810000D03*
X77523800Y24810000D03*
X74983800Y24810000D03*
X74983800Y17190000D03*
X77523800Y17190000D03*
X80063800Y17190000D03*
X82603800Y17190000D03*
%TD*%
D10*
%TO.C,R38*%
X96583800Y29900000D03*
D11*
X91503800Y29900000D03*
%TD*%
D14*
%TO.C,U10*%
X54683800Y7050000D03*
D15*
X57223800Y7050000D03*
X59763800Y7050000D03*
X62303800Y7050000D03*
X62303800Y14670000D03*
X59763800Y14670000D03*
X57223800Y14670000D03*
X54683800Y14670000D03*
%TD*%
D14*
%TO.C,U1*%
X91503800Y23550000D03*
D15*
X91503800Y21010000D03*
X91503800Y18470000D03*
X91503800Y15930000D03*
X91503800Y13390000D03*
X91503800Y10850000D03*
X91503800Y8310000D03*
X99123800Y8310000D03*
X99123800Y10850000D03*
X99123800Y13390000D03*
X99123800Y15930000D03*
X99123800Y18470000D03*
X99123800Y21010000D03*
X99123800Y23550000D03*
%TD*%
D14*
%TO.C,U8*%
X44513800Y7040000D03*
D15*
X47053800Y7040000D03*
X49593800Y7040000D03*
X52133800Y7040000D03*
X52133800Y14660000D03*
X49593800Y14660000D03*
X47053800Y14660000D03*
X44513800Y14660000D03*
%TD*%
D14*
%TO.C,U5*%
X41953800Y24810000D03*
D15*
X39413800Y24810000D03*
X36873800Y24810000D03*
X34333800Y24810000D03*
X34333800Y17190000D03*
X36873800Y17190000D03*
X39413800Y17190000D03*
X41953800Y17190000D03*
%TD*%
D14*
%TO.C,U7*%
X52113800Y24810000D03*
D15*
X49573800Y24810000D03*
X47033800Y24810000D03*
X44493800Y24810000D03*
X44493800Y17190000D03*
X47033800Y17190000D03*
X49573800Y17190000D03*
X52113800Y17190000D03*
%TD*%
D14*
%TO.C,U6*%
X34363800Y7050000D03*
D15*
X36903800Y7050000D03*
X39443800Y7050000D03*
X41983800Y7050000D03*
X41983800Y14670000D03*
X39443800Y14670000D03*
X36903800Y14670000D03*
X34363800Y14670000D03*
%TD*%
D14*
%TO.C,U4*%
X24203800Y7050000D03*
D15*
X26743800Y7050000D03*
X29283800Y7050000D03*
X31823800Y7050000D03*
X31823800Y14670000D03*
X29283800Y14670000D03*
X26743800Y14670000D03*
X24203800Y14670000D03*
%TD*%
D10*
%TO.C,R18*%
X88963800Y21010000D03*
D11*
X88963800Y15930000D03*
%TD*%
D14*
%TO.C,U3*%
X104203800Y23550000D03*
D15*
X104203800Y21010000D03*
X104203800Y18470000D03*
X104203800Y15930000D03*
X104203800Y13390000D03*
X104203800Y10850000D03*
X104203800Y8310000D03*
X111823800Y8310000D03*
X111823800Y10850000D03*
X111823800Y13390000D03*
X111823800Y15930000D03*
X111823800Y18470000D03*
X111823800Y21010000D03*
X111823800Y23550000D03*
%TD*%
D14*
%TO.C,U25*%
X64843800Y7050000D03*
D15*
X67383800Y7050000D03*
X69923800Y7050000D03*
X72463800Y7050000D03*
X72463800Y14670000D03*
X69923800Y14670000D03*
X67383800Y14670000D03*
X64843800Y14670000D03*
%TD*%
D10*
%TO.C,R17*%
X101663800Y18470000D03*
D11*
X101663800Y23550000D03*
%TD*%
D14*
%TO.C,U9*%
X62273800Y24810000D03*
D15*
X59733800Y24810000D03*
X57193800Y24810000D03*
X54653800Y24810000D03*
X54653800Y17190000D03*
X57193800Y17190000D03*
X59733800Y17190000D03*
X62273800Y17190000D03*
%TD*%
D16*
%TO.C,U11*%
X99758800Y28320000D03*
D17*
X102298800Y28320000D03*
X104838800Y28320000D03*
%TD*%
D14*
%TO.C,U2*%
X31793800Y24810000D03*
D15*
X29253800Y24810000D03*
X26713800Y24810000D03*
X24173800Y24810000D03*
X24173800Y17190000D03*
X26713800Y17190000D03*
X29253800Y17190000D03*
X31793800Y17190000D03*
%TD*%
M02*
