M48
; DRILL file {KiCad 7.0.5} date Wed Sep 25 18:33:30 2024
; FORMAT={-:-/ absolute / inch / decimal}
; #@! TF.CreationDate,2024-09-25T18:33:30-04:00
; #@! TF.GenerationSoftware,Kicad,Pcbnew,7.0.5
; #@! TF.FileFunction,Plated,1,2,PTH
FMAT,2
INCH
; #@! TA.AperFunction,Plated,PTH,ViaDrill
T1C0.0157
; #@! TA.AperFunction,Plated,PTH,ComponentDrill
T2C0.0276
; #@! TA.AperFunction,Plated,PTH,ComponentDrill
T3C0.0315
; #@! TA.AperFunction,Plated,PTH,ComponentDrill
T4C0.0433
; #@! TA.AperFunction,Plated,PTH,ComponentDrill
T5C0.0472
; #@! TA.AperFunction,Plated,PTH,ViaDrill
T6C0.0945
; #@! TA.AperFunction,Plated,PTH,ComponentDrill
T7C0.1250
; #@! TA.AperFunction,Plated,PTH,ViaDrill
T8C0.1575
%
G90
G05
T1
X1.0025Y0.6272
X1.1025Y0.6272
X1.2025Y0.6272
X1.4025Y0.6272
X1.5025Y0.6272
X1.6025Y0.6272
X1.8025Y0.6272
X1.9025Y0.6272
X2.0025Y0.6272
X2.2025Y0.6272
X2.3025Y0.6272
X2.4025Y0.6272
X2.6025Y0.6272
X2.7025Y0.6272
X2.8025Y0.6272
X3.0025Y0.6272
X3.1025Y0.6272
X3.2025Y0.6272
X3.5025Y0.5272
X3.5025Y0.4272
X3.9525Y0.5772
X4.0025Y0.6272
X4.0025Y0.4272
X4.0025Y0.3272
X4.0455Y0.4826
X4.4025Y0.1772
T2
X3.5025Y0.8272
X3.5025Y0.6272
X3.6025Y1.1772
X3.6025Y1.0772
X3.8025Y1.1772
X3.8025Y1.0772
X4.0025Y0.9272
X4.0025Y0.7272
T3
X0.9517Y0.9768
X0.9517Y0.6768
X0.9529Y0.5776
X0.9529Y0.2776
X1.0517Y0.9768
X1.0517Y0.6768
X1.0529Y0.5776
X1.0529Y0.2776
X1.1517Y0.9768
X1.1517Y0.6768
X1.1529Y0.5776
X1.1529Y0.2776
X1.2517Y0.9768
X1.2517Y0.6768
X1.2529Y0.5776
X1.2529Y0.2776
X1.3517Y0.9768
X1.3517Y0.6768
X1.3529Y0.5776
X1.3529Y0.2776
X1.4517Y0.9768
X1.4517Y0.6768
X1.4529Y0.5776
X1.4529Y0.2776
X1.5517Y0.9768
X1.5517Y0.6768
X1.5529Y0.5776
X1.5529Y0.2776
X1.6517Y0.9768
X1.6517Y0.6768
X1.6529Y0.5776
X1.6529Y0.2776
X1.7517Y0.9768
X1.7517Y0.6768
X1.7525Y0.5772
X1.7525Y0.2772
X1.8517Y0.9768
X1.8517Y0.6768
X1.8525Y0.5772
X1.8525Y0.2772
X1.9517Y0.9768
X1.9517Y0.6768
X1.9525Y0.5772
X1.9525Y0.2772
X2.0517Y0.9768
X2.0517Y0.6768
X2.0525Y0.5772
X2.0525Y0.2772
X2.1517Y0.9768
X2.1517Y0.6768
X2.1529Y0.5776
X2.1529Y0.2776
X2.2517Y0.9768
X2.2517Y0.6768
X2.2529Y0.5776
X2.2529Y0.2776
X2.3517Y0.9768
X2.3517Y0.6768
X2.3529Y0.5776
X2.3529Y0.2776
X2.4517Y0.9768
X2.4517Y0.6768
X2.4529Y0.5776
X2.4529Y0.2776
X2.5521Y0.9768
X2.5521Y0.6768
X2.5529Y0.5776
X2.5529Y0.2776
X2.6521Y0.9768
X2.6521Y0.6768
X2.6529Y0.5776
X2.6529Y0.2776
X2.7521Y0.9768
X2.7521Y0.6768
X2.7529Y0.5776
X2.7529Y0.2776
X2.8521Y0.9768
X2.8521Y0.6768
X2.8529Y0.5776
X2.8529Y0.2776
X2.9521Y0.9768
X2.9521Y0.6768
X2.9529Y0.5776
X2.9529Y0.2776
X3.0521Y0.9768
X3.0521Y0.6768
X3.0529Y0.5776
X3.0529Y0.2776
X3.1521Y0.9768
X3.1521Y0.6768
X3.1529Y0.5776
X3.1529Y0.2776
X3.2521Y0.9768
X3.2521Y0.6768
X3.2529Y0.5776
X3.2529Y0.2776
X3.6025Y0.9272
X3.6025Y0.8272
X3.6025Y0.7272
X3.6025Y0.6272
X3.6025Y0.5272
X3.6025Y0.4272
X3.6025Y0.3272
X3.9025Y0.9272
X3.9025Y0.8272
X3.9025Y0.7272
X3.9025Y0.6272
X3.9025Y0.5272
X3.9025Y0.4272
X3.9025Y0.3272
X4.1025Y0.9272
X4.1025Y0.8272
X4.1025Y0.7272
X4.1025Y0.6272
X4.1025Y0.5272
X4.1025Y0.4272
X4.1025Y0.3272
X4.4025Y0.9272
X4.4025Y0.8272
X4.4025Y0.7272
X4.4025Y0.6272
X4.4025Y0.5272
X4.4025Y0.4272
X4.4025Y0.3272
T4
X3.9275Y1.115
X4.0275Y1.115
X4.1275Y1.115
T5
X4.5807Y0.8453
X4.5807Y0.7362
X4.5807Y0.6272
X4.5807Y0.5181
X4.5807Y0.4091
X4.6925Y0.7907
X4.6925Y0.6817
X4.6925Y0.5726
X4.6925Y0.4636
X4.8464Y0.8453
X4.8464Y0.7362
X4.8464Y0.6272
X4.8464Y0.5181
X4.8464Y0.4091
X4.9582Y0.7907
X4.9582Y0.6817
X4.9582Y0.5726
X4.9582Y0.4636
T6
X1.299Y-0.1193
X1.3084Y1.3827
X1.6738Y-0.1197
X1.6832Y1.3823
X2.049Y-0.1197
X2.0584Y1.3823
X3.1746Y-0.1197
X3.184Y1.3823
X3.5498Y-0.1197
X3.5592Y1.3823
X3.925Y-0.1197
X3.9344Y1.3823
T7
X4.6433Y1.1189
X4.6433Y0.1354
X4.9582Y1.1189
X4.9582Y0.1354
T8
X0.9234Y-0.1197
X0.9328Y1.3823
X2.4242Y-0.1197
X2.4336Y1.3823
X2.7994Y-0.1197
X2.8088Y1.3823
X4.3001Y-0.1197
X4.3096Y1.3823
T0
M30
