M48
; DRILL file {KiCad 7.0.5} date Sun Sep 15 17:20:02 2024
; FORMAT={-:-/ absolute / inch / decimal}
; #@! TF.CreationDate,2024-09-15T17:20:02-04:00
; #@! TF.GenerationSoftware,Kicad,Pcbnew,7.0.5
; #@! TF.FileFunction,Plated,1,2,PTH
FMAT,2
INCH
; #@! TA.AperFunction,Plated,PTH,ViaDrill
T1C0.0157
; #@! TA.AperFunction,Plated,PTH,ComponentDrill
T2C0.0315
; #@! TA.AperFunction,Plated,PTH,ComponentDrill
T3C0.0394
; #@! TA.AperFunction,Plated,PTH,ComponentDrill
T4C0.0433
%
G90
G05
T1
X0.75Y-1.3
X0.75Y-1.5
X0.75Y-1.55
X0.7779Y-1.33
X0.8Y-1.55
X0.85Y-1.25
X0.85Y-1.55
X0.9Y-1.2
X0.9Y-1.25
X0.95Y-0.85
X1.0824Y-0.9658
X1.1943Y-1.3943
X1.4Y-0.8
X1.45Y-1.35
X1.5Y-1.35
X1.55Y-1.35
X1.7699Y-1.4815
X2.1Y-1.35
X2.4Y-1.2
X2.4285Y-1.4261
X2.45Y-1.2
X2.5416Y-1.2376
X2.7Y-0.6879
X2.8017Y-0.6888
X2.8034Y-1.2496
X3.2Y-0.9161
X3.2305Y-1.2315
X3.25Y-0.9161
X3.2981Y-1.2839
X3.3308Y-1.1904
X3.3482Y-1.0614
X3.45Y-0.8886
X3.522Y-0.8964
X3.5992Y-0.861
X3.65Y-0.9
X3.7Y-1.2839
X3.7473Y-1.2897
X3.8Y-0.85
X3.8Y-1.2847
X4.016Y-1.2718
X4.05Y-0.9398
X4.05Y-1.3
X4.111Y-0.935
X4.15Y-1.3
X4.202Y-1.3249
X4.2336Y-0.7202
X4.5459Y-0.8643
T2
X0.9498Y-0.7496
X0.9498Y-1.0496
X0.95Y-1.15
X0.95Y-1.45
X1.0498Y-0.7496
X1.0498Y-1.0496
X1.05Y-1.15
X1.05Y-1.45
X1.1498Y-0.7496
X1.1498Y-1.0496
X1.15Y-1.15
X1.15Y-1.45
X1.2498Y-0.7496
X1.2498Y-1.0496
X1.25Y-1.15
X1.25Y-1.45
X1.3498Y-0.7496
X1.3498Y-1.0496
X1.35Y-1.15
X1.35Y-1.45
X1.4498Y-0.7496
X1.4498Y-1.0496
X1.45Y-1.15
X1.45Y-1.45
X1.5498Y-0.7496
X1.5498Y-1.0496
X1.55Y-1.15
X1.55Y-1.45
X1.6605Y-1.4493
X1.8573Y-1.4493
X1.9496Y-0.7494
X1.9496Y-0.8494
X1.9496Y-0.9494
X1.9496Y-1.0494
X1.9496Y-1.1494
X1.9496Y-1.2494
X1.9496Y-1.3494
X1.9496Y-1.4494
X2.2496Y-0.7494
X2.2496Y-0.8494
X2.2496Y-0.9494
X2.2496Y-1.0494
X2.2496Y-1.1494
X2.2496Y-1.2494
X2.2496Y-1.3494
X2.2496Y-1.4494
X2.5494Y-1.1504
X2.5494Y-1.4504
X2.55Y-0.75
X2.55Y-1.05
X2.6494Y-1.1504
X2.6494Y-1.4504
X2.65Y-0.75
X2.65Y-1.05
X2.7494Y-1.1504
X2.7494Y-1.4504
X2.75Y-0.75
X2.75Y-1.05
X2.8494Y-1.1504
X2.8494Y-1.4504
X2.85Y-0.75
X2.85Y-1.05
X2.9494Y-1.1504
X2.9494Y-1.4504
X2.95Y-0.75
X2.95Y-1.05
X3.0494Y-1.1504
X3.0494Y-1.4504
X3.05Y-0.75
X3.05Y-1.05
X3.1494Y-1.1504
X3.1494Y-1.4504
X3.15Y-0.75
X3.15Y-1.05
X3.2494Y-1.1504
X3.2494Y-1.4504
X3.25Y-0.75
X3.25Y-1.05
X3.348Y-1.2607
X3.348Y-1.4575
X3.35Y-0.777
X3.35Y-0.9739
X3.45Y-0.75
X3.45Y-1.05
X3.45Y-1.15
X3.45Y-1.45
X3.55Y-0.75
X3.55Y-1.05
X3.55Y-1.15
X3.55Y-1.45
X3.65Y-0.75
X3.65Y-1.05
X3.65Y-1.15
X3.65Y-1.45
X3.75Y-0.75
X3.75Y-1.05
X3.75Y-1.15
X3.75Y-1.45
X3.85Y-0.75
X3.85Y-1.05
X3.85Y-1.15
X3.85Y-1.45
X3.95Y-0.75
X3.95Y-1.05
X3.95Y-1.15
X3.95Y-1.45
X4.05Y-0.75
X4.05Y-1.05
X4.05Y-1.15
X4.05Y-1.45
X4.15Y-0.75
X4.15Y-1.05
X4.15Y-1.15
X4.15Y-1.45
T3
X0.65Y-0.65
X0.65Y-0.75
X0.65Y-0.85
X0.65Y-0.95
X0.65Y-1.05
X0.65Y-1.15
X0.65Y-1.25
X0.65Y-1.35
X0.65Y-1.45
X0.65Y-1.55
X0.75Y-0.75
X0.75Y-0.85
X0.85Y-1.45
X1.7496Y-0.7494
X1.7496Y-0.8494
X1.7496Y-0.9494
X1.7496Y-1.0494
X1.7496Y-1.1494
X1.7496Y-1.2494
X1.7496Y-1.3494
X1.8496Y-0.7494
X1.8496Y-0.8494
X1.8496Y-0.9494
X1.8496Y-1.0494
X1.8496Y-1.1494
X1.8496Y-1.2494
X1.8496Y-1.3494
X2.35Y-0.95
X2.35Y-1.05
X2.45Y-0.95
X2.45Y-1.05
X4.65Y-0.65
X4.65Y-0.75
X4.65Y-0.85
X4.65Y-0.95
X4.65Y-1.05
X4.65Y-1.15
X4.65Y-1.25
X4.65Y-1.35
X4.65Y-1.45
X4.65Y-1.55
T4
X0.95Y-0.65
X1.25Y-0.65
X3.85Y-0.65
X4.15Y-0.65
T0
M30
