%TF.GenerationSoftware,KiCad,Pcbnew,7.0.5*%
%TF.CreationDate,2024-09-15T17:20:00-04:00*%
%TF.ProjectId,8_bit_logic_analyzer,385f6269-745f-46c6-9f67-69635f616e61,rev?*%
%TF.SameCoordinates,Original*%
%TF.FileFunction,Paste,Bot*%
%TF.FilePolarity,Positive*%
%FSLAX46Y46*%
G04 Gerber Fmt 4.6, Leading zero omitted, Abs format (unit mm)*
G04 Created by KiCad (PCBNEW 7.0.5) date 2024-09-15 17:20:00*
%MOMM*%
%LPD*%
G01*
G04 APERTURE LIST*
G04 Aperture macros list*
%AMRoundRect*
0 Rectangle with rounded corners*
0 $1 Rounding radius*
0 $2 $3 $4 $5 $6 $7 $8 $9 X,Y pos of 4 corners*
0 Add a 4 corners polygon primitive as box body*
4,1,4,$2,$3,$4,$5,$6,$7,$8,$9,$2,$3,0*
0 Add four circle primitives for the rounded corners*
1,1,$1+$1,$2,$3*
1,1,$1+$1,$4,$5*
1,1,$1+$1,$6,$7*
1,1,$1+$1,$8,$9*
0 Add four rect primitives between the rounded corners*
20,1,$1+$1,$2,$3,$4,$5,0*
20,1,$1+$1,$4,$5,$6,$7,0*
20,1,$1+$1,$6,$7,$8,$9,0*
20,1,$1+$1,$8,$9,$2,$3,0*%
G04 Aperture macros list end*
%ADD10RoundRect,0.237500X-0.250000X-0.237500X0.250000X-0.237500X0.250000X0.237500X-0.250000X0.237500X0*%
%ADD11RoundRect,0.200000X-0.200000X-0.275000X0.200000X-0.275000X0.200000X0.275000X-0.200000X0.275000X0*%
%ADD12RoundRect,0.237500X0.237500X-0.250000X0.237500X0.250000X-0.237500X0.250000X-0.237500X-0.250000X0*%
%ADD13RoundRect,0.237500X-0.344715X0.008839X0.008839X-0.344715X0.344715X-0.008839X-0.008839X0.344715X0*%
%ADD14RoundRect,0.237500X0.250000X0.237500X-0.250000X0.237500X-0.250000X-0.237500X0.250000X-0.237500X0*%
%ADD15RoundRect,0.237500X-0.371231X0.035355X0.035355X-0.371231X0.371231X-0.035355X-0.035355X0.371231X0*%
%ADD16RoundRect,0.237500X0.287500X0.237500X-0.287500X0.237500X-0.287500X-0.237500X0.287500X-0.237500X0*%
%ADD17RoundRect,0.237500X-0.287500X-0.237500X0.287500X-0.237500X0.287500X0.237500X-0.287500X0.237500X0*%
%ADD18RoundRect,0.200000X0.200000X0.275000X-0.200000X0.275000X-0.200000X-0.275000X0.200000X-0.275000X0*%
%ADD19R,0.650000X1.560000*%
%ADD20RoundRect,0.200000X0.275000X-0.200000X0.275000X0.200000X-0.275000X0.200000X-0.275000X-0.200000X0*%
G04 APERTURE END LIST*
D10*
%TO.C,R23*%
X52785000Y-26670000D03*
X54610000Y-26670000D03*
%TD*%
%TO.C,R22*%
X52785000Y-24130000D03*
X54610000Y-24130000D03*
%TD*%
D11*
%TO.C,R21*%
X81006565Y-24588855D03*
X82656565Y-24588855D03*
%TD*%
D12*
%TO.C,R20*%
X36830000Y-23772500D03*
X36830000Y-21947500D03*
%TD*%
D13*
%TO.C,R17*%
X67284927Y-34219197D03*
X68575397Y-35509667D03*
%TD*%
%TO.C,R16*%
X69929666Y-34125774D03*
X71220136Y-35416244D03*
%TD*%
%TO.C,R15*%
X72412864Y-34231401D03*
X73703334Y-35521871D03*
%TD*%
%TO.C,R14*%
X74991576Y-34226383D03*
X76282046Y-35516853D03*
%TD*%
D14*
%TO.C,R13*%
X31392500Y-31750000D03*
X29567500Y-31750000D03*
%TD*%
%TO.C,R12*%
X26312500Y-33020000D03*
X24487500Y-33020000D03*
%TD*%
D13*
%TO.C,R11*%
X70474765Y-23484765D03*
X71765235Y-24775235D03*
%TD*%
%TO.C,R10*%
X74305235Y-24775235D03*
X73014765Y-23484765D03*
%TD*%
%TO.C,R9*%
X76845235Y-24775235D03*
X75554765Y-23484765D03*
%TD*%
%TO.C,R8*%
X79385235Y-24775235D03*
X78094765Y-23484765D03*
%TD*%
D14*
%TO.C,R7*%
X60047500Y-21590000D03*
X61872500Y-21590000D03*
%TD*%
D10*
%TO.C,R6*%
X39727500Y-31750000D03*
X41552500Y-31750000D03*
%TD*%
D15*
%TO.C,D15*%
X66163618Y-33062861D03*
X64926182Y-31825425D03*
%TD*%
%TO.C,D14*%
X68672498Y-32892589D03*
X67435062Y-31655153D03*
%TD*%
%TO.C,D13*%
X70003065Y-31801984D03*
X71240501Y-33039420D03*
%TD*%
%TO.C,D12*%
X74146609Y-33425312D03*
X72909173Y-32187876D03*
%TD*%
D16*
%TO.C,D11*%
X33299188Y-33599243D03*
X31549188Y-33599243D03*
%TD*%
D17*
%TO.C,D10*%
X24496589Y-31489171D03*
X26246589Y-31489171D03*
%TD*%
D15*
%TO.C,D9*%
X69198718Y-22208718D03*
X67961282Y-20971282D03*
%TD*%
%TO.C,D8*%
X71738718Y-22208718D03*
X70501282Y-20971282D03*
%TD*%
%TO.C,D7*%
X74278718Y-22208718D03*
X73041282Y-20971282D03*
%TD*%
%TO.C,D6*%
X76818718Y-22208718D03*
X75581282Y-20971282D03*
%TD*%
D16*
%TO.C,D5*%
X60085000Y-20320000D03*
X61835000Y-20320000D03*
%TD*%
%TO.C,D4*%
X37705000Y-31750000D03*
X35955000Y-31750000D03*
%TD*%
D18*
%TO.C,R5*%
X79605648Y-20583945D03*
X77955648Y-20583945D03*
%TD*%
%TO.C,R1*%
X26183810Y-34696757D03*
X24533810Y-34696757D03*
%TD*%
D19*
%TO.C,Q1*%
X19370000Y-25320000D03*
X20320000Y-25320000D03*
X21270000Y-25320000D03*
X21270000Y-28020000D03*
X20320000Y-28020000D03*
X19370000Y-28020000D03*
%TD*%
D20*
%TO.C,R3*%
X21590000Y-22415000D03*
X21590000Y-20765000D03*
%TD*%
D18*
%TO.C,R2*%
X21590000Y-30480000D03*
X19940000Y-30480000D03*
%TD*%
M02*
