%TF.GenerationSoftware,KiCad,Pcbnew,7.0.5*%
%TF.CreationDate,2024-09-15T17:20:00-04:00*%
%TF.ProjectId,8_bit_logic_analyzer,385f6269-745f-46c6-9f67-69635f616e61,rev?*%
%TF.SameCoordinates,Original*%
%TF.FileFunction,Copper,L1,Top*%
%TF.FilePolarity,Positive*%
%FSLAX46Y46*%
G04 Gerber Fmt 4.6, Leading zero omitted, Abs format (unit mm)*
G04 Created by KiCad (PCBNEW 7.0.5) date 2024-09-15 17:20:00*
%MOMM*%
%LPD*%
G01*
G04 APERTURE LIST*
G04 Aperture macros list*
%AMRoundRect*
0 Rectangle with rounded corners*
0 $1 Rounding radius*
0 $2 $3 $4 $5 $6 $7 $8 $9 X,Y pos of 4 corners*
0 Add a 4 corners polygon primitive as box body*
4,1,4,$2,$3,$4,$5,$6,$7,$8,$9,$2,$3,0*
0 Add four circle primitives for the rounded corners*
1,1,$1+$1,$2,$3*
1,1,$1+$1,$4,$5*
1,1,$1+$1,$6,$7*
1,1,$1+$1,$8,$9*
0 Add four rect primitives between the rounded corners*
20,1,$1+$1,$2,$3,$4,$5,0*
20,1,$1+$1,$4,$5,$6,$7,0*
20,1,$1+$1,$6,$7,$8,$9,0*
20,1,$1+$1,$8,$9,$2,$3,0*%
G04 Aperture macros list end*
%TA.AperFunction,SMDPad,CuDef*%
%ADD10RoundRect,0.237500X0.237500X-0.287500X0.237500X0.287500X-0.237500X0.287500X-0.237500X-0.287500X0*%
%TD*%
%TA.AperFunction,SMDPad,CuDef*%
%ADD11RoundRect,0.237500X-0.287500X-0.237500X0.287500X-0.237500X0.287500X0.237500X-0.287500X0.237500X0*%
%TD*%
%TA.AperFunction,SMDPad,CuDef*%
%ADD12RoundRect,0.237500X0.250000X0.237500X-0.250000X0.237500X-0.250000X-0.237500X0.250000X-0.237500X0*%
%TD*%
%TA.AperFunction,SMDPad,CuDef*%
%ADD13RoundRect,0.237500X0.237500X-0.250000X0.237500X0.250000X-0.237500X0.250000X-0.237500X-0.250000X0*%
%TD*%
%TA.AperFunction,ComponentPad*%
%ADD14R,1.700000X1.700000*%
%TD*%
%TA.AperFunction,ComponentPad*%
%ADD15O,1.700000X1.700000*%
%TD*%
%TA.AperFunction,ComponentPad*%
%ADD16R,1.600000X1.600000*%
%TD*%
%TA.AperFunction,ComponentPad*%
%ADD17O,1.600000X1.600000*%
%TD*%
%TA.AperFunction,ComponentPad*%
%ADD18C,1.600000*%
%TD*%
%TA.AperFunction,ComponentPad*%
%ADD19O,2.200000X2.200000*%
%TD*%
%TA.AperFunction,ComponentPad*%
%ADD20R,2.200000X2.200000*%
%TD*%
%TA.AperFunction,ViaPad*%
%ADD21C,0.800000*%
%TD*%
%TA.AperFunction,Conductor*%
%ADD22C,0.400000*%
%TD*%
%TA.AperFunction,Conductor*%
%ADD23C,0.300000*%
%TD*%
%TA.AperFunction,Conductor*%
%ADD24C,0.500000*%
%TD*%
%TA.AperFunction,Conductor*%
%ADD25C,0.600000*%
%TD*%
%TA.AperFunction,Conductor*%
%ADD26C,1.500000*%
%TD*%
G04 APERTURE END LIST*
D10*
%TO.P,D18,2,A*%
%TO.N,Net-(D1-A)*%
X21590000Y-16510000D03*
%TO.P,D18,1,K*%
%TO.N,Net-(D18-K)*%
X21590000Y-18260000D03*
%TD*%
D11*
%TO.P,D3,2,A*%
%TO.N,Net-(D3-A)*%
X109657485Y-18643513D03*
%TO.P,D3,1,K*%
%TO.N,GND*%
X107907485Y-18643513D03*
%TD*%
D12*
%TO.P,R19,2*%
%TO.N,Net-(U4-~CS)*%
X108307500Y-33020000D03*
%TO.P,R19,1*%
%TO.N,Net-(D17-K)*%
X110132500Y-33020000D03*
%TD*%
%TO.P,R18,1*%
%TO.N,Net-(D16-K)*%
X110132500Y-22860000D03*
%TO.P,R18,2*%
%TO.N,/~ram_0_selected*%
X108307500Y-22860000D03*
%TD*%
D13*
%TO.P,R4,2*%
%TO.N,Net-(D2-A)*%
X111760000Y-16867500D03*
%TO.P,R4,1*%
%TO.N,Net-(D3-A)*%
X111760000Y-18692500D03*
%TD*%
D11*
%TO.P,D17,2,A*%
%TO.N,VCC*%
X113905000Y-33020000D03*
%TO.P,D17,1,K*%
%TO.N,Net-(D17-K)*%
X112155000Y-33020000D03*
%TD*%
%TO.P,D16,2,A*%
%TO.N,VCC*%
X113905000Y-22860000D03*
%TO.P,D16,1,K*%
%TO.N,Net-(D16-K)*%
X112155000Y-22860000D03*
%TD*%
D14*
%TO.P,J4,1,Pin_1*%
%TO.N,/card_selected*%
X44440000Y-34275000D03*
D15*
%TO.P,J4,2,Pin_2*%
X44440000Y-31735000D03*
%TO.P,J4,3,Pin_3*%
X44440000Y-29195000D03*
%TO.P,J4,4,Pin_4*%
X44440000Y-26655000D03*
%TO.P,J4,5,Pin_5*%
X44440000Y-24115000D03*
%TO.P,J4,6,Pin_6*%
X44440000Y-21575000D03*
%TO.P,J4,7,Pin_7*%
X44440000Y-19035000D03*
%TD*%
D14*
%TO.P,J2,1,Pin_1*%
%TO.N,Net-(D1-A)*%
X16510000Y-16510000D03*
D15*
%TO.P,J2,2,Pin_2*%
%TO.N,Net-(J2-Pin_2)*%
X16510000Y-19050000D03*
%TO.P,J2,3,Pin_3*%
%TO.N,Net-(J2-Pin_3)*%
X16510000Y-21590000D03*
%TO.P,J2,4,Pin_4*%
%TO.N,/s_data_out*%
X16510000Y-24130000D03*
%TO.P,J2,5,Pin_5*%
%TO.N,/s_data_in*%
X16510000Y-26670000D03*
%TO.P,J2,6,Pin_6*%
%TO.N,/s_clock*%
X16510000Y-29210000D03*
%TO.P,J2,7,Pin_7*%
%TO.N,/s_cs*%
X16510000Y-31750000D03*
%TO.P,J2,8,Pin_8*%
%TO.N,/rec_clock*%
X16510000Y-34290000D03*
%TO.P,J2,9,Pin_9*%
%TO.N,/rec_trig*%
X16510000Y-36830000D03*
%TO.P,J2,10,Pin_10*%
%TO.N,GND*%
X16510000Y-39370000D03*
%TD*%
D16*
%TO.P,U6,1,A0*%
%TO.N,Net-(U5-Q0)*%
X57140000Y-36815000D03*
D17*
%TO.P,U6,2,A1*%
%TO.N,Net-(U5-Q1)*%
X57140000Y-34275000D03*
%TO.P,U6,3,A2*%
%TO.N,Net-(U5-Q2)*%
X57140000Y-31735000D03*
%TO.P,U6,4,E1*%
%TO.N,GND*%
X57140000Y-29195000D03*
%TO.P,U6,5,E2*%
%TO.N,Net-(J5-Pin_2)*%
X57140000Y-26655000D03*
%TO.P,U6,6,E3*%
%TO.N,Net-(J5-Pin_1)*%
X57140000Y-24115000D03*
%TO.P,U6,7,O7*%
%TO.N,/clear_command*%
X57140000Y-21575000D03*
%TO.P,U6,8,GND*%
%TO.N,GND*%
X57140000Y-19035000D03*
%TO.P,U6,9,O6*%
%TO.N,Net-(J3-Pin_1)*%
X49520000Y-19035000D03*
%TO.P,U6,10,O5*%
%TO.N,Net-(J3-Pin_2)*%
X49520000Y-21575000D03*
%TO.P,U6,11,O4*%
%TO.N,Net-(J3-Pin_3)*%
X49520000Y-24115000D03*
%TO.P,U6,12,O3*%
%TO.N,Net-(J3-Pin_4)*%
X49520000Y-26655000D03*
%TO.P,U6,13,O2*%
%TO.N,Net-(J3-Pin_5)*%
X49520000Y-29195000D03*
%TO.P,U6,14,O1*%
%TO.N,Net-(J3-Pin_6)*%
X49520000Y-31735000D03*
%TO.P,U6,15,O0*%
%TO.N,Net-(J3-Pin_7)*%
X49520000Y-34275000D03*
%TO.P,U6,16,VCC*%
%TO.N,VCC*%
X49520000Y-36815000D03*
%TD*%
%TO.P,U5,16,VCC*%
%TO.N,VCC*%
X82550000Y-26670000D03*
%TO.P,U5,15,Q0*%
%TO.N,Net-(U5-Q0)*%
X80010000Y-26670000D03*
%TO.P,U5,14,Q1*%
%TO.N,Net-(U5-Q1)*%
X77470000Y-26670000D03*
%TO.P,U5,13,Q2*%
%TO.N,Net-(U5-Q2)*%
X74930000Y-26670000D03*
%TO.P,U5,12,Q3*%
%TO.N,/~ram_0_selected*%
X72390000Y-26670000D03*
%TO.P,U5,11,~{Q3}*%
%TO.N,/~ram_1_selected*%
X69850000Y-26670000D03*
%TO.P,U5,10,CP*%
%TO.N,/s_clock*%
X67310000Y-26670000D03*
%TO.P,U5,9,~{PE}*%
%TO.N,/card_selected*%
X64770000Y-26670000D03*
%TO.P,U5,8,GND*%
%TO.N,GND*%
X64770000Y-19050000D03*
%TO.P,U5,7,P3*%
%TO.N,/logic_analyzer_data_3*%
X67310000Y-19050000D03*
%TO.P,U5,6,P2*%
%TO.N,/logic_analyzer_data_2*%
X69850000Y-19050000D03*
%TO.P,U5,5,P1*%
%TO.N,/logic_analyzer_data_1*%
X72390000Y-19050000D03*
%TO.P,U5,4,P0*%
%TO.N,/logic_analyzer_data_0*%
X74930000Y-19050000D03*
%TO.P,U5,3,~{K}*%
%TO.N,Net-(U5-~{K})*%
X77470000Y-19050000D03*
%TO.P,U5,2,J*%
%TO.N,/s_data_in*%
X80010000Y-19050000D03*
D16*
%TO.P,U5,1,~{MR}*%
%TO.N,/clear_command*%
X82550000Y-19050000D03*
%TD*%
D18*
%TO.P,C11,2*%
%TO.N,GND*%
X85039517Y-32020675D03*
%TO.P,C11,1*%
%TO.N,VCC*%
X85039517Y-37020675D03*
%TD*%
D17*
%TO.P,U4,16,VCC*%
%TO.N,VCC*%
X105410000Y-36830000D03*
%TO.P,U4,15,A1*%
%TO.N,/logic_analyzer_addr_1*%
X102870000Y-36830000D03*
%TO.P,U4,14,A2*%
%TO.N,/logic_analyzer_addr_2*%
X100330000Y-36830000D03*
%TO.P,U4,13,A3*%
%TO.N,/logic_analyzer_addr_3*%
X97790000Y-36830000D03*
%TO.P,U4,12,D3*%
%TO.N,/H*%
X95250000Y-36830000D03*
%TO.P,U4,11,S3_n*%
%TO.N,/logic_analyzer_data_3*%
X92710000Y-36830000D03*
%TO.P,U4,10,D2*%
%TO.N,/G*%
X90170000Y-36830000D03*
%TO.P,U4,9,S2_n*%
%TO.N,/logic_analyzer_data_2*%
X87630000Y-36830000D03*
%TO.P,U4,8,GND*%
%TO.N,GND*%
X87630000Y-29210000D03*
%TO.P,U4,7,S1_n*%
%TO.N,/logic_analyzer_data_1*%
X90170000Y-29210000D03*
%TO.P,U4,6,D1*%
%TO.N,/F*%
X92710000Y-29210000D03*
%TO.P,U4,5,S0_n*%
%TO.N,/logic_analyzer_data_0*%
X95250000Y-29210000D03*
%TO.P,U4,4,D0*%
%TO.N,/E*%
X97790000Y-29210000D03*
%TO.P,U4,3,~WE*%
%TO.N,/~record*%
X100330000Y-29210000D03*
%TO.P,U4,2,~CS*%
%TO.N,Net-(U4-~CS)*%
X102870000Y-29210000D03*
D16*
%TO.P,U4,1,A0*%
%TO.N,/logic_analyzer_addr_0*%
X105410000Y-29210000D03*
%TD*%
D18*
%TO.P,C10,2*%
%TO.N,GND*%
X85089999Y-19736650D03*
%TO.P,C10,1*%
%TO.N,VCC*%
X85089999Y-24736650D03*
%TD*%
D16*
%TO.P,U7,1,~{R}*%
%TO.N,/clear_command*%
X24125000Y-26660000D03*
D17*
%TO.P,U7,2,D*%
%TO.N,VCC*%
X26665000Y-26660000D03*
%TO.P,U7,3,C*%
%TO.N,Net-(U7A-C)*%
X29205000Y-26660000D03*
%TO.P,U7,4,~{S}*%
%TO.N,VCC*%
X31745000Y-26660000D03*
%TO.P,U7,5,Q*%
%TO.N,/~record*%
X34285000Y-26660000D03*
%TO.P,U7,6,~{Q}*%
%TO.N,/~record_halt*%
X36825000Y-26660000D03*
%TO.P,U7,7,GND*%
%TO.N,GND*%
X39365000Y-26660000D03*
%TO.P,U7,8,~{Q}*%
%TO.N,unconnected-(U7B-~{Q}-Pad8)*%
X39365000Y-19040000D03*
%TO.P,U7,9,Q*%
%TO.N,Net-(U7B-Q)*%
X36825000Y-19040000D03*
%TO.P,U7,10,~{S}*%
%TO.N,VCC*%
X34285000Y-19040000D03*
%TO.P,U7,11,C*%
%TO.N,/rec_trig*%
X31745000Y-19040000D03*
%TO.P,U7,12,D*%
%TO.N,VCC*%
X29205000Y-19040000D03*
%TO.P,U7,13,~{R}*%
%TO.N,/~record_halt*%
X26665000Y-19040000D03*
%TO.P,U7,14,VCC*%
%TO.N,VCC*%
X24125000Y-19040000D03*
%TD*%
D16*
%TO.P,U8,1*%
%TO.N,Net-(U7B-Q)*%
X24130000Y-36830000D03*
D17*
%TO.P,U8,2*%
%TO.N,/logic_analyzer_addr_3*%
X26670000Y-36830000D03*
%TO.P,U8,3*%
%TO.N,Net-(U7A-C)*%
X29210000Y-36830000D03*
%TO.P,U8,4*%
%TO.N,N/C*%
X31750000Y-36830000D03*
%TO.P,U8,5*%
X34290000Y-36830000D03*
%TO.P,U8,6*%
X36830000Y-36830000D03*
%TO.P,U8,7,GND*%
%TO.N,GND*%
X39370000Y-36830000D03*
%TO.P,U8,8*%
%TO.N,Net-(U4-~CS)*%
X39370000Y-29210000D03*
%TO.P,U8,9*%
%TO.N,Net-(U8-Pad10)*%
X36830000Y-29210000D03*
%TO.P,U8,10*%
X34290000Y-29210000D03*
%TO.P,U8,11*%
X31750000Y-29210000D03*
%TO.P,U8,12*%
%TO.N,/~record*%
X29210000Y-29210000D03*
%TO.P,U8,13*%
%TO.N,/~ram_1_selected*%
X26670000Y-29210000D03*
%TO.P,U8,14,VCC*%
%TO.N,VCC*%
X24130000Y-29210000D03*
%TD*%
D14*
%TO.P,J8,1,Pin_1*%
%TO.N,/rec_trig*%
X21590000Y-36830000D03*
%TD*%
D15*
%TO.P,J1,10,Pin_10*%
%TO.N,GND*%
X118110000Y-39370000D03*
%TO.P,J1,9,Pin_9*%
%TO.N,/H*%
X118110000Y-36830000D03*
%TO.P,J1,8,Pin_8*%
%TO.N,/G*%
X118110000Y-34290000D03*
%TO.P,J1,7,Pin_7*%
%TO.N,/F*%
X118110000Y-31750000D03*
%TO.P,J1,6,Pin_6*%
%TO.N,/E*%
X118110000Y-29210000D03*
%TO.P,J1,5,Pin_5*%
%TO.N,/D*%
X118110000Y-26670000D03*
%TO.P,J1,4,Pin_4*%
%TO.N,/C*%
X118110000Y-24130000D03*
%TO.P,J1,3,Pin_3*%
%TO.N,/B*%
X118110000Y-21590000D03*
%TO.P,J1,2,Pin_2*%
%TO.N,/A*%
X118110000Y-19050000D03*
D14*
%TO.P,J1,1,Pin_1*%
%TO.N,Net-(D2-A)*%
X118110000Y-16510000D03*
%TD*%
D15*
%TO.P,J5,2,Pin_2*%
%TO.N,Net-(J5-Pin_2)*%
X59690000Y-26670000D03*
D14*
%TO.P,J5,1,Pin_1*%
%TO.N,Net-(J5-Pin_1)*%
X59690000Y-24130000D03*
%TD*%
D19*
%TO.P,D2,2,A*%
%TO.N,Net-(D2-A)*%
X105410000Y-16510000D03*
D20*
%TO.P,D2,1,K*%
%TO.N,VCC*%
X97790000Y-16510000D03*
%TD*%
D17*
%TO.P,U9,16,VCC*%
%TO.N,VCC*%
X82535000Y-36840000D03*
%TO.P,U9,15,TC*%
%TO.N,unconnected-(U9-TC-Pad15)*%
X79995000Y-36840000D03*
%TO.P,U9,14,Q0*%
%TO.N,/logic_analyzer_addr_0*%
X77455000Y-36840000D03*
%TO.P,U9,13,Q1*%
%TO.N,/logic_analyzer_addr_1*%
X74915000Y-36840000D03*
%TO.P,U9,12,Q2*%
%TO.N,/logic_analyzer_addr_2*%
X72375000Y-36840000D03*
%TO.P,U9,11,Q3*%
%TO.N,/logic_analyzer_addr_3*%
X69835000Y-36840000D03*
%TO.P,U9,10,CET*%
%TO.N,VCC*%
X67295000Y-36840000D03*
%TO.P,U9,9,~{PE}*%
X64755000Y-36840000D03*
%TO.P,U9,8,GND*%
%TO.N,GND*%
X64755000Y-29220000D03*
%TO.P,U9,7,CEP*%
%TO.N,VCC*%
X67295000Y-29220000D03*
%TO.P,U9,6,D3*%
%TO.N,GND*%
X69835000Y-29220000D03*
%TO.P,U9,5,D2*%
X72375000Y-29220000D03*
%TO.P,U9,4,D1*%
X74915000Y-29220000D03*
%TO.P,U9,3,D0*%
X77455000Y-29220000D03*
%TO.P,U9,2,CP*%
%TO.N,/rec_clock*%
X79995000Y-29220000D03*
D16*
%TO.P,U9,1,~{MR}*%
%TO.N,Net-(U9-~{MR})*%
X82535000Y-29220000D03*
%TD*%
D15*
%TO.P,J6,2,Pin_2*%
%TO.N,/s_cs*%
X62230000Y-26670000D03*
D14*
%TO.P,J6,1,Pin_1*%
X62230000Y-24130000D03*
%TD*%
%TO.P,J7,1,Pin_1*%
%TO.N,Net-(J2-Pin_3)*%
X19050000Y-21590000D03*
D15*
%TO.P,J7,2,Pin_2*%
%TO.N,Net-(J2-Pin_2)*%
X19050000Y-19050000D03*
%TD*%
D17*
%TO.P,U2,16,VCC*%
%TO.N,VCC*%
X105410000Y-26670000D03*
%TO.P,U2,15,A1*%
%TO.N,/logic_analyzer_addr_1*%
X102870000Y-26670000D03*
%TO.P,U2,14,A2*%
%TO.N,/logic_analyzer_addr_2*%
X100330000Y-26670000D03*
%TO.P,U2,13,A3*%
%TO.N,/logic_analyzer_addr_3*%
X97790000Y-26670000D03*
%TO.P,U2,12,D3*%
%TO.N,/D*%
X95250000Y-26670000D03*
%TO.P,U2,11,S3_n*%
%TO.N,/logic_analyzer_data_3*%
X92710000Y-26670000D03*
%TO.P,U2,10,D2*%
%TO.N,/C*%
X90170000Y-26670000D03*
%TO.P,U2,9,S2_n*%
%TO.N,/logic_analyzer_data_2*%
X87630000Y-26670000D03*
%TO.P,U2,8,GND*%
%TO.N,GND*%
X87630000Y-19050000D03*
%TO.P,U2,7,S1_n*%
%TO.N,/logic_analyzer_data_1*%
X90170000Y-19050000D03*
%TO.P,U2,6,D1*%
%TO.N,/B*%
X92710000Y-19050000D03*
%TO.P,U2,5,S0_n*%
%TO.N,/logic_analyzer_data_0*%
X95250000Y-19050000D03*
%TO.P,U2,4,D0*%
%TO.N,/A*%
X97790000Y-19050000D03*
%TO.P,U2,3,~WE*%
%TO.N,/~record*%
X100330000Y-19050000D03*
%TO.P,U2,2,~CS*%
%TO.N,/~ram_0_selected*%
X102870000Y-19050000D03*
D16*
%TO.P,U2,1,A0*%
%TO.N,/logic_analyzer_addr_0*%
X105410000Y-19050000D03*
%TD*%
D20*
%TO.P,D1,1,K*%
%TO.N,VCC*%
X31750000Y-16510000D03*
D19*
%TO.P,D1,2,A*%
%TO.N,Net-(D1-A)*%
X24130000Y-16510000D03*
%TD*%
D18*
%TO.P,C4,1*%
%TO.N,VCC*%
X47176220Y-36812393D03*
%TO.P,C4,2*%
%TO.N,GND*%
X42176220Y-36812393D03*
%TD*%
D14*
%TO.P,J3,1,Pin_1*%
%TO.N,Net-(J3-Pin_1)*%
X46980000Y-19035000D03*
D15*
%TO.P,J3,2,Pin_2*%
%TO.N,Net-(J3-Pin_2)*%
X46980000Y-21575000D03*
%TO.P,J3,3,Pin_3*%
%TO.N,Net-(J3-Pin_3)*%
X46980000Y-24115000D03*
%TO.P,J3,4,Pin_4*%
%TO.N,Net-(J3-Pin_4)*%
X46980000Y-26655000D03*
%TO.P,J3,5,Pin_5*%
%TO.N,Net-(J3-Pin_5)*%
X46980000Y-29195000D03*
%TO.P,J3,6,Pin_6*%
%TO.N,Net-(J3-Pin_6)*%
X46980000Y-31735000D03*
%TO.P,J3,7,Pin_7*%
%TO.N,Net-(J3-Pin_7)*%
X46980000Y-34275000D03*
%TD*%
D21*
%TO.N,GND*%
X107533621Y-18292648D03*
%TO.N,Net-(D18-K)*%
X35560000Y-20320000D03*
%TO.N,/~record_halt*%
X27492644Y-24532127D03*
%TO.N,GND*%
X21590000Y-31750000D03*
X19759535Y-33780866D03*
X36830000Y-34290000D03*
X22860000Y-30480000D03*
X19050000Y-39370000D03*
X19050000Y-38100000D03*
X39370000Y-34290000D03*
X21590000Y-39370000D03*
X38100000Y-34290000D03*
X22860000Y-31750000D03*
X20320000Y-39370000D03*
%TO.N,Net-(U7B-Q)*%
X24130000Y-21590000D03*
%TO.N,GND*%
X19050000Y-33020000D03*
%TO.N,/rec_trig*%
X30336139Y-35416139D03*
%TO.N,/logic_analyzer_addr_3*%
X44955778Y-37629500D03*
%TO.N,GND*%
X68580632Y-17472956D03*
X71164363Y-17495821D03*
%TO.N,Net-(U5-Q1)*%
X85044270Y-26959621D03*
%TO.N,VCC*%
X104419188Y-23748918D03*
%TO.N,/rec_clock*%
X82054500Y-31279500D03*
%TO.N,GND*%
X64556594Y-31434972D03*
%TO.N,Net-(U5-Q1)*%
X84602216Y-30236919D03*
%TO.N,VCC*%
X106729728Y-33652219D03*
%TO.N,GND*%
X89458919Y-22768540D03*
X115465261Y-21952179D03*
%TO.N,/logic_analyzer_addr_2*%
X95180743Y-32759111D03*
%TO.N,/logic_analyzer_data_0*%
X96520000Y-21590000D03*
%TO.N,/logic_analyzer_addr_3*%
X93980000Y-32610500D03*
%TO.N,/logic_analyzer_addr_0*%
X105410000Y-33020000D03*
%TO.N,/s_data_in*%
X81280000Y-23269500D03*
%TO.N,GND*%
X60960000Y-30480000D03*
%TO.N,/logic_analyzer_data_2*%
X87630000Y-22569500D03*
%TO.N,/logic_analyzer_data_1*%
X91420000Y-21869500D03*
%TO.N,/logic_analyzer_addr_1*%
X102870000Y-33020000D03*
%TO.N,/~record*%
X96520000Y-32630500D03*
%TO.N,/clear_command*%
X82550000Y-23269500D03*
%TO.N,Net-(U5-Q2)*%
X71205614Y-31739973D03*
%TO.N,GND*%
X62230000Y-30480000D03*
%TO.N,Net-(U4-~CS)*%
X102007239Y-32304418D03*
%TO.N,/~ram_0_selected*%
X102870000Y-23870500D03*
%TO.N,/logic_analyzer_addr_3*%
X61683222Y-36223774D03*
%TO.N,/logic_analyzer_data_3*%
X92710000Y-22860000D03*
%TO.N,Net-(U5-Q0)*%
X83770673Y-32610500D03*
%TO.N,/s_cs*%
X53340000Y-34290000D03*
%TD*%
D22*
%TO.N,GND*%
X107533621Y-18292648D02*
X107556620Y-18292648D01*
X107556620Y-18292648D02*
X107907485Y-18643513D01*
%TO.N,Net-(D3-A)*%
X109706472Y-18692500D02*
X109657485Y-18643513D01*
X111760000Y-18692500D02*
X109706472Y-18692500D01*
%TO.N,Net-(D18-K)*%
X23217500Y-20320000D02*
X21590000Y-18692500D01*
X35560000Y-20320000D02*
X23217500Y-20320000D01*
%TO.N,Net-(U7B-Q)*%
X36825000Y-21590000D02*
X36825000Y-19040000D01*
X24130000Y-21590000D02*
X36825000Y-21590000D01*
%TO.N,/s_data_in*%
X20790000Y-22390000D02*
X16510000Y-26670000D01*
X39786764Y-22225000D02*
X34488528Y-22225000D01*
X41691764Y-20320000D02*
X39786764Y-22225000D01*
X67660761Y-20320000D02*
X41691764Y-20320000D01*
X70410761Y-23070000D02*
X67660761Y-20320000D01*
X34323528Y-22390000D02*
X20790000Y-22390000D01*
X81080500Y-23070000D02*
X70410761Y-23070000D01*
X81280000Y-23269500D02*
X81080500Y-23070000D01*
X34488528Y-22225000D02*
X34323528Y-22390000D01*
%TO.N,/clear_command*%
X54625000Y-21575000D02*
X57140000Y-21575000D01*
X53340000Y-22860000D02*
X54625000Y-21575000D01*
X34772056Y-22860000D02*
X53340000Y-22860000D01*
X34737056Y-22825000D02*
X34772056Y-22860000D01*
D23*
X34572056Y-22990000D02*
X34737056Y-22825000D01*
D22*
%TO.N,VCC*%
X104740270Y-24070000D02*
X104419188Y-23748918D01*
X112695000Y-24070000D02*
X104740270Y-24070000D01*
X113905000Y-22860000D02*
X112695000Y-24070000D01*
%TO.N,GND*%
X115310865Y-21797783D02*
X115465261Y-21952179D01*
X97443588Y-21797783D02*
X115310865Y-21797783D01*
X89693412Y-22769500D02*
X91669129Y-22769500D01*
X89692452Y-22768540D02*
X89693412Y-22769500D01*
X91669129Y-22769500D02*
X92378629Y-22060000D01*
X92378629Y-22060000D02*
X95581371Y-22060000D01*
X89458919Y-22768540D02*
X89692452Y-22768540D01*
X95581371Y-22060000D02*
X96381371Y-22860000D01*
X96381371Y-22860000D02*
X97443588Y-21797783D01*
D24*
%TO.N,/C*%
X108239950Y-25970000D02*
X116270000Y-25970000D01*
X92892233Y-24720000D02*
X106989950Y-24720000D01*
X91460000Y-26152233D02*
X92892233Y-24720000D01*
X106989950Y-24720000D02*
X108239950Y-25970000D01*
X116270000Y-25970000D02*
X118110000Y-24130000D01*
X91460000Y-26670000D02*
X91460000Y-26152233D01*
X90170000Y-26670000D02*
X91460000Y-26670000D01*
%TO.N,/D*%
X106700000Y-25420000D02*
X107950000Y-26670000D01*
X96500000Y-25420000D02*
X106700000Y-25420000D01*
X107950000Y-26670000D02*
X118110000Y-26670000D01*
X95250000Y-26670000D02*
X96500000Y-25420000D01*
D22*
%TO.N,/~ram_0_selected*%
X108032500Y-22585000D02*
X104155500Y-22585000D01*
X104155500Y-22585000D02*
X102870000Y-23870500D01*
X108307500Y-22860000D02*
X108032500Y-22585000D01*
%TO.N,VCC*%
X106729728Y-33652219D02*
X106699241Y-33621732D01*
X107307509Y-34230000D02*
X106729728Y-33652219D01*
X113090000Y-34230000D02*
X107307509Y-34230000D01*
X113905000Y-33415000D02*
X113090000Y-34230000D01*
X113905000Y-33020000D02*
X113905000Y-33415000D01*
%TO.N,GND*%
X58679179Y-17495821D02*
X57140000Y-19035000D01*
X71164363Y-17495821D02*
X58679179Y-17495821D01*
X83980540Y-17495821D02*
X71164363Y-17495821D01*
X85089999Y-18605280D02*
X83980540Y-17495821D01*
X85089999Y-19736650D02*
X85089999Y-18605280D01*
X85776649Y-19050000D02*
X85089999Y-19736650D01*
X87630000Y-19050000D02*
X85776649Y-19050000D01*
X89458919Y-22535007D02*
X89453945Y-22530033D01*
X89458919Y-22768540D02*
X89458919Y-22535007D01*
D24*
%TO.N,/logic_analyzer_data_3*%
X92150000Y-23420000D02*
X92710000Y-22860000D01*
X91581522Y-23420000D02*
X92150000Y-23420000D01*
X86251116Y-24130000D02*
X90871522Y-24130000D01*
X85607766Y-23486650D02*
X86251116Y-24130000D01*
X84572232Y-23486650D02*
X85607766Y-23486650D01*
X84337307Y-23721575D02*
X84572232Y-23486650D01*
X83035732Y-22420000D02*
X84337307Y-23721575D01*
X90871522Y-24130000D02*
X91581522Y-23420000D01*
X70680000Y-22420000D02*
X83035732Y-22420000D01*
X67310000Y-19050000D02*
X70680000Y-22420000D01*
D22*
%TO.N,/~ram_0_selected*%
X74330000Y-24730000D02*
X72390000Y-26670000D01*
X81950000Y-24730000D02*
X74330000Y-24730000D01*
X82550000Y-24130000D02*
X81950000Y-24730000D01*
X82786292Y-24130000D02*
X82550000Y-24130000D01*
X84592942Y-25936650D02*
X82786292Y-24130000D01*
X85823350Y-25936650D02*
X84592942Y-25936650D01*
X86360000Y-25400000D02*
X85823350Y-25936650D01*
X91850761Y-24070000D02*
X90520762Y-25400000D01*
X102670500Y-24070000D02*
X91850761Y-24070000D01*
X90520762Y-25400000D02*
X86360000Y-25400000D01*
X102870000Y-23870500D02*
X102670500Y-24070000D01*
%TO.N,Net-(D16-K)*%
X110132500Y-22860000D02*
X112155000Y-22860000D01*
%TO.N,Net-(D17-K)*%
X110132500Y-33020000D02*
X112155000Y-33020000D01*
%TO.N,Net-(U4-~CS)*%
X102091657Y-32220000D02*
X102007239Y-32304418D01*
X107507500Y-32220000D02*
X102091657Y-32220000D01*
X108307500Y-33020000D02*
X107507500Y-32220000D01*
D24*
%TO.N,Net-(U5-Q2)*%
X57830000Y-32425000D02*
X57140000Y-31735000D01*
X57906295Y-32425000D02*
X57830000Y-32425000D01*
X58471295Y-32990000D02*
X57906295Y-32425000D01*
X68681294Y-32990000D02*
X58471295Y-32990000D01*
X69941294Y-31730000D02*
X68681294Y-32990000D01*
X71205614Y-31739973D02*
X71195641Y-31730000D01*
X71195641Y-31730000D02*
X69941294Y-31730000D01*
D22*
%TO.N,/~record*%
X33020000Y-33020000D02*
X29210000Y-29210000D01*
X52070000Y-33020000D02*
X33020000Y-33020000D01*
X54605000Y-30485000D02*
X52070000Y-33020000D01*
X57587057Y-30485000D02*
X54605000Y-30485000D01*
X68412056Y-32340000D02*
X59442057Y-32340000D01*
X69732056Y-31020000D02*
X68412056Y-32340000D01*
X70580585Y-31020000D02*
X69732056Y-31020000D01*
X71105000Y-30495585D02*
X70580585Y-31020000D01*
X59442057Y-32340000D02*
X57587057Y-30485000D01*
X71629415Y-31020000D02*
X71105000Y-30495585D01*
X80740585Y-31020000D02*
X71629415Y-31020000D01*
X83735000Y-30420000D02*
X81340585Y-30420000D01*
X83735000Y-29295000D02*
X83735000Y-30420000D01*
X87654415Y-31780000D02*
X85084415Y-29210000D01*
X85084415Y-29210000D02*
X83820000Y-29210000D01*
X83820000Y-29210000D02*
X83735000Y-29295000D01*
X81340585Y-30420000D02*
X80740585Y-31020000D01*
X95669500Y-31780000D02*
X87654415Y-31780000D01*
%TO.N,Net-(U4-~CS)*%
X40640000Y-30480000D02*
X39370000Y-29210000D01*
X53761472Y-30480000D02*
X40640000Y-30480000D01*
X56246472Y-27995000D02*
X53761472Y-30480000D01*
X57637057Y-27995000D02*
X56246472Y-27995000D01*
X58852057Y-29210000D02*
X57637057Y-27995000D01*
X63273971Y-29210000D02*
X58852057Y-29210000D01*
X63555000Y-29491029D02*
X63273971Y-29210000D01*
X63555000Y-29717057D02*
X63555000Y-29491029D01*
X64257943Y-30420000D02*
X63555000Y-29717057D01*
X65106472Y-30420000D02*
X64257943Y-30420000D01*
X65706472Y-31020000D02*
X65106472Y-30420000D01*
X68883528Y-31020000D02*
X65706472Y-31020000D01*
X69483528Y-30420000D02*
X68883528Y-31020000D01*
X70332057Y-30420000D02*
X69483528Y-30420000D01*
X70932057Y-29820000D02*
X70332057Y-30420000D01*
X71877943Y-30420000D02*
X71277943Y-29820000D01*
X80492057Y-30420000D02*
X71877943Y-30420000D01*
X81335000Y-29577057D02*
X80492057Y-30420000D01*
X81335000Y-28020000D02*
X81335000Y-29577057D01*
X85170000Y-28020000D02*
X81335000Y-28020000D01*
X86360000Y-29210000D02*
X85170000Y-28020000D01*
X86360000Y-29637057D02*
X86360000Y-29210000D01*
X92990762Y-30410000D02*
X87132943Y-30410000D01*
X97800812Y-31130000D02*
X93710762Y-31130000D01*
X93710762Y-31130000D02*
X92990762Y-30410000D01*
X98480812Y-31810000D02*
X97800812Y-31130000D01*
X71277943Y-29820000D02*
X70932057Y-29820000D01*
X101660000Y-31810000D02*
X98480812Y-31810000D01*
X102007239Y-32157239D02*
X101660000Y-31810000D01*
X87132943Y-30410000D02*
X86360000Y-29637057D01*
X102007239Y-32304418D02*
X102007239Y-32157239D01*
%TO.N,GND*%
X63184972Y-31434972D02*
X62230000Y-30480000D01*
X64556594Y-31434972D02*
X63184972Y-31434972D01*
%TO.N,/rec_clock*%
X21762944Y-34960000D02*
X17180000Y-34960000D01*
X23632944Y-33090000D02*
X21762944Y-34960000D01*
X31398528Y-33090000D02*
X23632944Y-33090000D01*
X33868528Y-35560000D02*
X31398528Y-33090000D01*
X50938629Y-35560000D02*
X33868528Y-35560000D01*
X17180000Y-34960000D02*
X16510000Y-34290000D01*
X53423629Y-33075000D02*
X50938629Y-35560000D01*
X58202057Y-33640000D02*
X57637057Y-33075000D01*
X73645911Y-31680000D02*
X71815911Y-33510000D01*
X74157056Y-31680000D02*
X73645911Y-31680000D01*
X57637057Y-33075000D02*
X53423629Y-33075000D01*
X74217056Y-31620000D02*
X74157056Y-31680000D01*
X70265863Y-33510000D02*
X70135863Y-33640000D01*
X70135863Y-33640000D02*
X58202057Y-33640000D01*
X71815911Y-33510000D02*
X70265863Y-33510000D01*
X82054500Y-31279500D02*
X81714000Y-31620000D01*
X81714000Y-31620000D02*
X74217056Y-31620000D01*
D24*
%TO.N,Net-(U5-Q1)*%
X57155000Y-34290000D02*
X57140000Y-34275000D01*
X70535101Y-34160000D02*
X70405101Y-34290000D01*
X72085150Y-34160000D02*
X70535101Y-34160000D01*
X74335200Y-33460000D02*
X72785150Y-33460000D01*
X75035200Y-32760000D02*
X74335200Y-33460000D01*
X72785150Y-33460000D02*
X72085150Y-34160000D01*
X70405101Y-34290000D02*
X57155000Y-34290000D01*
X76098774Y-32760000D02*
X75035200Y-32760000D01*
%TO.N,Net-(U5-Q0)*%
X58965000Y-34990000D02*
X57140000Y-36815000D01*
X70695050Y-34990000D02*
X58965000Y-34990000D01*
X72375100Y-34860000D02*
X70825050Y-34860000D01*
X73075100Y-34160000D02*
X72375100Y-34860000D01*
X74625150Y-34160000D02*
X73075100Y-34160000D01*
X70825050Y-34860000D02*
X70695050Y-34990000D01*
X76600150Y-33460000D02*
X75325150Y-33460000D01*
X75325150Y-33460000D02*
X74625150Y-34160000D01*
D22*
%TO.N,/logic_analyzer_addr_3*%
X62150000Y-35640000D02*
X61683222Y-36106778D01*
X68635000Y-35640000D02*
X62150000Y-35640000D01*
X69835000Y-36840000D02*
X68635000Y-35640000D01*
%TO.N,Net-(U5-Q1)*%
X84602216Y-30401312D02*
X83923528Y-31080000D01*
X83923528Y-31080000D02*
X83820000Y-31080000D01*
X84602216Y-30236919D02*
X84602216Y-30401312D01*
X84477764Y-26670000D02*
X85044270Y-26959621D01*
X83237764Y-25430000D02*
X84477764Y-26670000D01*
X78710000Y-25430000D02*
X83237764Y-25430000D01*
%TO.N,/clear_command*%
X68067233Y-21575000D02*
X57140000Y-21575000D01*
X81689500Y-24130000D02*
X70622233Y-24130000D01*
X82550000Y-23269500D02*
X81689500Y-24130000D01*
X70622233Y-24130000D02*
X68067233Y-21575000D01*
%TO.N,Net-(U5-Q1)*%
X77470000Y-26670000D02*
X78710000Y-25430000D01*
X82680000Y-32220000D02*
X83820000Y-31080000D01*
X76638774Y-32220000D02*
X82680000Y-32220000D01*
X76098774Y-32760000D02*
X76638774Y-32220000D01*
%TO.N,Net-(U5-Q0)*%
X77150150Y-32910000D02*
X76600150Y-33460000D01*
X83471173Y-32910000D02*
X77150150Y-32910000D01*
X83621173Y-32760000D02*
X83471173Y-32910000D01*
%TO.N,/logic_analyzer_addr_3*%
X89530200Y-33510000D02*
X77540100Y-33510000D01*
X89580200Y-33460000D02*
X89530200Y-33510000D01*
X77540100Y-33510000D02*
X76890100Y-34160000D01*
D24*
%TO.N,Net-(U5-Q0)*%
X83770673Y-32610500D02*
X83621173Y-32760000D01*
D22*
%TO.N,VCC*%
X69417943Y-27940000D02*
X80437057Y-27940000D01*
X80437057Y-27940000D02*
X81707057Y-26670000D01*
X68137943Y-29220000D02*
X69417943Y-27940000D01*
X67295000Y-29220000D02*
X68137943Y-29220000D01*
X81707057Y-26670000D02*
X82550000Y-26670000D01*
D25*
%TO.N,GND*%
X20829134Y-33780866D02*
X22860000Y-31750000D01*
D22*
X69835000Y-29220000D02*
X72375000Y-29220000D01*
X57988529Y-29195000D02*
X59273529Y-30480000D01*
D25*
X19759535Y-33780866D02*
X20829134Y-33780866D01*
D22*
X64755000Y-29220000D02*
X65955000Y-30420000D01*
D25*
X20320000Y-31750000D02*
X19050000Y-33020000D01*
D22*
X59273529Y-30480000D02*
X60960000Y-30480000D01*
D25*
X21590000Y-31750000D02*
X20320000Y-31750000D01*
D22*
X57140000Y-29195000D02*
X57988529Y-29195000D01*
X68635000Y-30420000D02*
X69835000Y-29220000D01*
D25*
X16510000Y-39370000D02*
X19050000Y-39370000D01*
D22*
X65955000Y-30420000D02*
X68635000Y-30420000D01*
D26*
%TO.N,Net-(D1-A)*%
X16510000Y-16510000D02*
X24130000Y-16510000D01*
%TO.N,Net-(D2-A)*%
X118110000Y-16510000D02*
X105410000Y-16510000D01*
D24*
%TO.N,/A*%
X116860000Y-20300000D02*
X99040000Y-20300000D01*
X99040000Y-20300000D02*
X97790000Y-19050000D01*
X118110000Y-19050000D02*
X116860000Y-20300000D01*
%TO.N,/B*%
X98070050Y-20320000D02*
X93980000Y-20320000D01*
X117334975Y-20814975D02*
X117149949Y-21000000D01*
X118110000Y-21590000D02*
X117334975Y-20814975D01*
X93980000Y-20320000D02*
X92710000Y-19050000D01*
X98750050Y-21000000D02*
X98070050Y-20320000D01*
X117149949Y-21000000D02*
X98750050Y-21000000D01*
%TO.N,/E*%
X99040000Y-30460000D02*
X97790000Y-29210000D01*
X116860000Y-30460000D02*
X99040000Y-30460000D01*
X118110000Y-29210000D02*
X116860000Y-30460000D01*
%TO.N,/F*%
X98070050Y-30480000D02*
X93980000Y-30480000D01*
X118110000Y-31750000D02*
X117334975Y-30974975D01*
X98750050Y-31160000D02*
X98070050Y-30480000D01*
X117149949Y-31160000D02*
X98750050Y-31160000D01*
X117334975Y-30974975D02*
X117149949Y-31160000D01*
X93980000Y-30480000D02*
X92710000Y-29210000D01*
%TO.N,/G*%
X95530050Y-35560000D02*
X96210051Y-34880000D01*
X117334975Y-35065025D02*
X118110000Y-34290000D01*
X91440000Y-35560000D02*
X95530050Y-35560000D01*
X90170000Y-36830000D02*
X91440000Y-35560000D01*
X96210051Y-34880000D02*
X117149949Y-34880000D01*
X117149949Y-34880000D02*
X117334975Y-35065025D01*
%TO.N,/H*%
X96500000Y-35580000D02*
X116860000Y-35580000D01*
X95250000Y-36830000D02*
X96500000Y-35580000D01*
X116860000Y-35580000D02*
X118110000Y-36830000D01*
D26*
%TO.N,Net-(J2-Pin_2)*%
X16510000Y-19050000D02*
X19050000Y-19050000D01*
%TO.N,Net-(J2-Pin_3)*%
X16510000Y-21590000D02*
X19050000Y-21590000D01*
D22*
%TO.N,/s_clock*%
X17780000Y-27940000D02*
X16510000Y-29210000D01*
X63520000Y-22880000D02*
X54590000Y-22880000D01*
X52105000Y-25365000D02*
X39335000Y-25365000D01*
X25245000Y-27940000D02*
X17780000Y-27940000D01*
X25325000Y-25253971D02*
X25325000Y-27860000D01*
X67310000Y-26670000D02*
X63520000Y-22880000D01*
X54590000Y-22880000D02*
X52105000Y-25365000D01*
X37560000Y-23590000D02*
X26988971Y-23590000D01*
X26988971Y-23590000D02*
X25325000Y-25253971D01*
X25325000Y-27860000D02*
X25245000Y-27940000D01*
X39335000Y-25365000D02*
X37560000Y-23590000D01*
%TO.N,/s_cs*%
X53340000Y-34692057D02*
X49932057Y-38100000D01*
X45720000Y-37053230D02*
X45720000Y-36830000D01*
X33090000Y-35630000D02*
X31150000Y-33690000D01*
X33090000Y-37327057D02*
X33090000Y-35630000D01*
X62230000Y-24130000D02*
X62230000Y-26670000D01*
X22011472Y-35560000D02*
X16012233Y-35560000D01*
X43376220Y-36830000D02*
X43376220Y-37309450D01*
X45720000Y-36830000D02*
X43376220Y-36830000D01*
X42585670Y-38100000D02*
X33862943Y-38100000D01*
X15260000Y-34807767D02*
X15260000Y-33000000D01*
X49932057Y-38100000D02*
X46766770Y-38100000D01*
X43376220Y-37309450D02*
X42585670Y-38100000D01*
X31150000Y-33690000D02*
X23881472Y-33690000D01*
X33862943Y-38100000D02*
X33090000Y-37327057D01*
X16012233Y-35560000D02*
X15260000Y-34807767D01*
X23881472Y-33690000D02*
X22011472Y-35560000D01*
X46766770Y-38100000D02*
X45720000Y-37053230D01*
X15260000Y-33000000D02*
X16510000Y-31750000D01*
X53340000Y-34290000D02*
X53340000Y-34692057D01*
%TO.N,/rec_trig*%
X29210000Y-34290000D02*
X24130000Y-34290000D01*
X24130000Y-34290000D02*
X21590000Y-36830000D01*
X16510000Y-36830000D02*
X21590000Y-36830000D01*
X30336139Y-35416139D02*
X29210000Y-34290000D01*
D24*
%TO.N,Net-(J3-Pin_1)*%
X49520000Y-19035000D02*
X46980000Y-19035000D01*
%TO.N,Net-(J3-Pin_2)*%
X46980000Y-21575000D02*
X49520000Y-21575000D01*
%TO.N,Net-(J3-Pin_3)*%
X49520000Y-24115000D02*
X46980000Y-24115000D01*
%TO.N,Net-(J3-Pin_4)*%
X46980000Y-26655000D02*
X49520000Y-26655000D01*
%TO.N,Net-(J3-Pin_5)*%
X49520000Y-29195000D02*
X46980000Y-29195000D01*
%TO.N,Net-(J3-Pin_6)*%
X46980000Y-31735000D02*
X49520000Y-31735000D01*
%TO.N,Net-(J3-Pin_7)*%
X49520000Y-34275000D02*
X46980000Y-34275000D01*
D22*
%TO.N,Net-(J5-Pin_1)*%
X59675000Y-24115000D02*
X59690000Y-24130000D01*
X57140000Y-24115000D02*
X59675000Y-24115000D01*
%TO.N,Net-(J5-Pin_2)*%
X57155000Y-26670000D02*
X57140000Y-26655000D01*
X59690000Y-26670000D02*
X57155000Y-26670000D01*
D24*
%TO.N,/logic_analyzer_addr_0*%
X105410000Y-33020000D02*
X104250000Y-34180000D01*
X95920102Y-34180000D02*
X95240101Y-34860000D01*
X104250000Y-34180000D02*
X95920102Y-34180000D01*
X95240101Y-34860000D02*
X91150050Y-34860000D01*
X91150050Y-34860000D02*
X90450050Y-35560000D01*
X78735000Y-35560000D02*
X77455000Y-36840000D01*
X90450050Y-35560000D02*
X78735000Y-35560000D01*
D22*
%TO.N,/~record*%
X33085000Y-27860000D02*
X34285000Y-26660000D01*
X30560000Y-27860000D02*
X33085000Y-27860000D01*
X29210000Y-29210000D02*
X30560000Y-27860000D01*
D24*
X96520000Y-32630500D02*
X95669500Y-31780000D01*
%TO.N,/logic_analyzer_data_0*%
X83905582Y-20320000D02*
X84605582Y-21020000D01*
X95840000Y-21020000D02*
X96520000Y-21700000D01*
X76200000Y-20320000D02*
X83905582Y-20320000D01*
X84605582Y-21020000D02*
X95840000Y-21020000D01*
X74930000Y-19050000D02*
X76200000Y-20320000D01*
%TO.N,/logic_analyzer_data_1*%
X74360000Y-21020000D02*
X72390000Y-19050000D01*
X91270500Y-21720000D02*
X84315632Y-21720000D01*
X84315632Y-21720000D02*
X83615632Y-21020000D01*
X91420000Y-21869500D02*
X91270500Y-21720000D01*
X83615632Y-21020000D02*
X74360000Y-21020000D01*
%TO.N,/logic_analyzer_data_2*%
X84025682Y-22420000D02*
X83325682Y-21720000D01*
X72520000Y-21720000D02*
X69850000Y-19050000D01*
X87630000Y-22569500D02*
X87480500Y-22420000D01*
X87480500Y-22420000D02*
X84025682Y-22420000D01*
X83325682Y-21720000D02*
X72520000Y-21720000D01*
%TO.N,/logic_analyzer_addr_3*%
X71115000Y-35560000D02*
X69835000Y-36840000D01*
X93830500Y-32760000D02*
X90280200Y-32760000D01*
D22*
X44955778Y-37629500D02*
X43885278Y-38700000D01*
D24*
X76890100Y-34160000D02*
X75615100Y-34160000D01*
X61683222Y-36223774D02*
X61566226Y-36223774D01*
D22*
X43885278Y-38700000D02*
X28540000Y-38700000D01*
D24*
X61566226Y-36223774D02*
X61595000Y-36195000D01*
X73365050Y-34860000D02*
X72665050Y-35560000D01*
X61683222Y-36106778D02*
X61683222Y-36223774D01*
X72665050Y-35560000D02*
X71115000Y-35560000D01*
X74915100Y-34860000D02*
X73365050Y-34860000D01*
X93980000Y-32610500D02*
X93830500Y-32760000D01*
D22*
X28540000Y-38700000D02*
X26670000Y-36830000D01*
D24*
X90280200Y-32760000D02*
X89580200Y-33460000D01*
X75615100Y-34160000D02*
X74915100Y-34860000D01*
%TO.N,/logic_analyzer_addr_2*%
X75905050Y-34860000D02*
X75205050Y-35560000D01*
X95180743Y-32759111D02*
X95180743Y-32939460D01*
X75205050Y-35560000D02*
X73655000Y-35560000D01*
X77180050Y-34860000D02*
X75905050Y-34860000D01*
X94660203Y-33460000D02*
X90570152Y-33460000D01*
X89870152Y-34160000D02*
X77880050Y-34160000D01*
X73655000Y-35560000D02*
X72375000Y-36840000D01*
X90570152Y-33460000D02*
X89870152Y-34160000D01*
X95180743Y-32939460D02*
X94660203Y-33460000D01*
X77880050Y-34160000D02*
X77180050Y-34860000D01*
%TO.N,/logic_analyzer_addr_1*%
X76195000Y-35560000D02*
X77470000Y-35560000D01*
X78170000Y-34860000D02*
X90160100Y-34860000D01*
X102410000Y-33480000D02*
X102870000Y-33020000D01*
X90860101Y-34160000D02*
X94950152Y-34160000D01*
X90160100Y-34860000D02*
X90860101Y-34160000D01*
X95630153Y-33480000D02*
X102410000Y-33480000D01*
X74915000Y-36840000D02*
X76195000Y-35560000D01*
X77470000Y-35560000D02*
X78170000Y-34860000D01*
X94950152Y-34160000D02*
X95630153Y-33480000D01*
D22*
%TO.N,/clear_command*%
X34572056Y-22990000D02*
X25270000Y-22990000D01*
X25270000Y-22990000D02*
X24125000Y-24135000D01*
X24125000Y-24135000D02*
X24125000Y-26660000D01*
%TO.N,/~ram_1_selected*%
X28005000Y-27875000D02*
X28005000Y-26162943D01*
X60207767Y-25420000D02*
X60960000Y-26172233D01*
X68510000Y-26740000D02*
X68580000Y-26670000D01*
X68580000Y-26670000D02*
X69850000Y-26670000D01*
X35560000Y-25611028D02*
X35560000Y-27092057D01*
X26670000Y-29210000D02*
X28005000Y-27875000D01*
X68510000Y-27167057D02*
X68510000Y-26740000D01*
X36372943Y-27905000D02*
X54192943Y-27905000D01*
X28767943Y-25400000D02*
X35348972Y-25400000D01*
X35348972Y-25400000D02*
X35560000Y-25611028D01*
X54192943Y-27905000D02*
X56677943Y-25420000D01*
X60960000Y-27167767D02*
X61732233Y-27940000D01*
X67737057Y-27940000D02*
X68510000Y-27167057D01*
X56677943Y-25420000D02*
X60207767Y-25420000D01*
X60960000Y-26172233D02*
X60960000Y-27167767D01*
X28005000Y-26162943D02*
X28767943Y-25400000D01*
X35560000Y-27092057D02*
X36372943Y-27905000D01*
X61732233Y-27940000D02*
X67737057Y-27940000D01*
%TO.N,/~record_halt*%
X36825000Y-26027500D02*
X36825000Y-26660000D01*
X27834771Y-24190000D02*
X34987500Y-24190000D01*
X34987500Y-24190000D02*
X36825000Y-26027500D01*
X27492644Y-24532127D02*
X27834771Y-24190000D01*
%TO.N,Net-(U8-Pad10)*%
X31750000Y-29210000D02*
X36830000Y-29210000D01*
%TD*%
%TA.AperFunction,Conductor*%
%TO.N,GND*%
G36*
X55832902Y-33795185D02*
G01*
X55878657Y-33847989D01*
X55888601Y-33917147D01*
X55885638Y-33931593D01*
X55854366Y-34048302D01*
X55854364Y-34048313D01*
X55834532Y-34274998D01*
X55834532Y-34275001D01*
X55854364Y-34501686D01*
X55854366Y-34501697D01*
X55913258Y-34721488D01*
X55913261Y-34721497D01*
X56009431Y-34927732D01*
X56009432Y-34927734D01*
X56139954Y-35114141D01*
X56300858Y-35275045D01*
X56325462Y-35292273D01*
X56369087Y-35346849D01*
X56376281Y-35416348D01*
X56344758Y-35478703D01*
X56284529Y-35514117D01*
X56267593Y-35517138D01*
X56232516Y-35520908D01*
X56097671Y-35571202D01*
X56097664Y-35571206D01*
X55982455Y-35657452D01*
X55982452Y-35657455D01*
X55896206Y-35772664D01*
X55896202Y-35772671D01*
X55845908Y-35907517D01*
X55839501Y-35967116D01*
X55839500Y-35967135D01*
X55839500Y-37662870D01*
X55839501Y-37662876D01*
X55845908Y-37722483D01*
X55896202Y-37857328D01*
X55896206Y-37857335D01*
X55982452Y-37972544D01*
X55982455Y-37972547D01*
X56097664Y-38058793D01*
X56097671Y-38058797D01*
X56232517Y-38109091D01*
X56232516Y-38109091D01*
X56239444Y-38109835D01*
X56292127Y-38115500D01*
X57987872Y-38115499D01*
X58047483Y-38109091D01*
X58182331Y-38058796D01*
X58297546Y-37972546D01*
X58383796Y-37857331D01*
X58434091Y-37722483D01*
X58440500Y-37662873D01*
X58440499Y-36627228D01*
X58460183Y-36560190D01*
X58476813Y-36539553D01*
X59239548Y-35776819D01*
X59300872Y-35743334D01*
X59327230Y-35740500D01*
X60722734Y-35740500D01*
X60789773Y-35760185D01*
X60835528Y-35812989D01*
X60845472Y-35882147D01*
X60840665Y-35902818D01*
X60814896Y-35982128D01*
X60797548Y-36035518D01*
X60777762Y-36223774D01*
X60797548Y-36412030D01*
X60797549Y-36412033D01*
X60856040Y-36592051D01*
X60856043Y-36592058D01*
X60950689Y-36755990D01*
X61026332Y-36840000D01*
X61077351Y-36896662D01*
X61230487Y-37007922D01*
X61230492Y-37007925D01*
X61403414Y-37084916D01*
X61403419Y-37084918D01*
X61588576Y-37124274D01*
X61588577Y-37124274D01*
X61777866Y-37124274D01*
X61777868Y-37124274D01*
X61963025Y-37084918D01*
X62135952Y-37007925D01*
X62289093Y-36896662D01*
X62415755Y-36755990D01*
X62510401Y-36592058D01*
X62545267Y-36484752D01*
X62564298Y-36426182D01*
X62603736Y-36368506D01*
X62668094Y-36341308D01*
X62682229Y-36340500D01*
X63380863Y-36340500D01*
X63447902Y-36360185D01*
X63493657Y-36412989D01*
X63503601Y-36482147D01*
X63500638Y-36496593D01*
X63469366Y-36613302D01*
X63469364Y-36613313D01*
X63449532Y-36839998D01*
X63449532Y-36840001D01*
X63469364Y-37066686D01*
X63469366Y-37066697D01*
X63528258Y-37286488D01*
X63528261Y-37286497D01*
X63624431Y-37492732D01*
X63624432Y-37492734D01*
X63754954Y-37679141D01*
X63915858Y-37840045D01*
X63915861Y-37840047D01*
X64102266Y-37970568D01*
X64308504Y-38066739D01*
X64528308Y-38125635D01*
X64690230Y-38139801D01*
X64754998Y-38145468D01*
X64755000Y-38145468D01*
X64755002Y-38145468D01*
X64811673Y-38140509D01*
X64981692Y-38125635D01*
X65201496Y-38066739D01*
X65407734Y-37970568D01*
X65594139Y-37840047D01*
X65755047Y-37679139D01*
X65885568Y-37492734D01*
X65912618Y-37434724D01*
X65958790Y-37382285D01*
X66025983Y-37363133D01*
X66092865Y-37383348D01*
X66137382Y-37434725D01*
X66164429Y-37492728D01*
X66164432Y-37492734D01*
X66294954Y-37679141D01*
X66455858Y-37840045D01*
X66455861Y-37840047D01*
X66642266Y-37970568D01*
X66848504Y-38066739D01*
X67068308Y-38125635D01*
X67230230Y-38139801D01*
X67294998Y-38145468D01*
X67295000Y-38145468D01*
X67295002Y-38145468D01*
X67351672Y-38140509D01*
X67521692Y-38125635D01*
X67741496Y-38066739D01*
X67947734Y-37970568D01*
X68134139Y-37840047D01*
X68295047Y-37679139D01*
X68425568Y-37492734D01*
X68452618Y-37434724D01*
X68498790Y-37382285D01*
X68565983Y-37363133D01*
X68632865Y-37383348D01*
X68677382Y-37434725D01*
X68704429Y-37492728D01*
X68704432Y-37492734D01*
X68834954Y-37679141D01*
X68995858Y-37840045D01*
X68995861Y-37840047D01*
X69182266Y-37970568D01*
X69388504Y-38066739D01*
X69608308Y-38125635D01*
X69770230Y-38139801D01*
X69834998Y-38145468D01*
X69835000Y-38145468D01*
X69835002Y-38145468D01*
X69891673Y-38140509D01*
X70061692Y-38125635D01*
X70281496Y-38066739D01*
X70487734Y-37970568D01*
X70674139Y-37840047D01*
X70835047Y-37679139D01*
X70965568Y-37492734D01*
X70992618Y-37434724D01*
X71038790Y-37382285D01*
X71105983Y-37363133D01*
X71172865Y-37383348D01*
X71217382Y-37434725D01*
X71244429Y-37492728D01*
X71244432Y-37492734D01*
X71374954Y-37679141D01*
X71535858Y-37840045D01*
X71535861Y-37840047D01*
X71722266Y-37970568D01*
X71928504Y-38066739D01*
X72148308Y-38125635D01*
X72310230Y-38139801D01*
X72374998Y-38145468D01*
X72375000Y-38145468D01*
X72375002Y-38145468D01*
X72431672Y-38140509D01*
X72601692Y-38125635D01*
X72821496Y-38066739D01*
X73027734Y-37970568D01*
X73214139Y-37840047D01*
X73375047Y-37679139D01*
X73505568Y-37492734D01*
X73532618Y-37434724D01*
X73578790Y-37382285D01*
X73645983Y-37363133D01*
X73712865Y-37383348D01*
X73757382Y-37434725D01*
X73784429Y-37492728D01*
X73784432Y-37492734D01*
X73914954Y-37679141D01*
X74075858Y-37840045D01*
X74075861Y-37840047D01*
X74262266Y-37970568D01*
X74468504Y-38066739D01*
X74688308Y-38125635D01*
X74850230Y-38139801D01*
X74914998Y-38145468D01*
X74915000Y-38145468D01*
X74915002Y-38145468D01*
X74971673Y-38140509D01*
X75141692Y-38125635D01*
X75361496Y-38066739D01*
X75567734Y-37970568D01*
X75754139Y-37840047D01*
X75915047Y-37679139D01*
X76045568Y-37492734D01*
X76072618Y-37434724D01*
X76118790Y-37382285D01*
X76185983Y-37363133D01*
X76252865Y-37383348D01*
X76297382Y-37434725D01*
X76324429Y-37492728D01*
X76324432Y-37492734D01*
X76454954Y-37679141D01*
X76615858Y-37840045D01*
X76615861Y-37840047D01*
X76802266Y-37970568D01*
X77008504Y-38066739D01*
X77228308Y-38125635D01*
X77390230Y-38139801D01*
X77454998Y-38145468D01*
X77455000Y-38145468D01*
X77455002Y-38145468D01*
X77511673Y-38140509D01*
X77681692Y-38125635D01*
X77901496Y-38066739D01*
X78107734Y-37970568D01*
X78294139Y-37840047D01*
X78455047Y-37679139D01*
X78585568Y-37492734D01*
X78612618Y-37434724D01*
X78658790Y-37382285D01*
X78725983Y-37363133D01*
X78792865Y-37383348D01*
X78837382Y-37434725D01*
X78864429Y-37492728D01*
X78864432Y-37492734D01*
X78994954Y-37679141D01*
X79155858Y-37840045D01*
X79155861Y-37840047D01*
X79342266Y-37970568D01*
X79548504Y-38066739D01*
X79768308Y-38125635D01*
X79930230Y-38139801D01*
X79994998Y-38145468D01*
X79995000Y-38145468D01*
X79995002Y-38145468D01*
X80051672Y-38140509D01*
X80221692Y-38125635D01*
X80441496Y-38066739D01*
X80647734Y-37970568D01*
X80834139Y-37840047D01*
X80995047Y-37679139D01*
X81125568Y-37492734D01*
X81152619Y-37434721D01*
X81198788Y-37382286D01*
X81265981Y-37363133D01*
X81332862Y-37383348D01*
X81377380Y-37434722D01*
X81404432Y-37492734D01*
X81437354Y-37539752D01*
X81534954Y-37679141D01*
X81695858Y-37840045D01*
X81695861Y-37840047D01*
X81882266Y-37970568D01*
X82088504Y-38066739D01*
X82308308Y-38125635D01*
X82470230Y-38139801D01*
X82534998Y-38145468D01*
X82535000Y-38145468D01*
X82535002Y-38145468D01*
X82591673Y-38140509D01*
X82761692Y-38125635D01*
X82981496Y-38066739D01*
X83187734Y-37970568D01*
X83374139Y-37840047D01*
X83535047Y-37679139D01*
X83637899Y-37532249D01*
X83692473Y-37488626D01*
X83761971Y-37481432D01*
X83824326Y-37512954D01*
X83851854Y-37550969D01*
X83908948Y-37673407D01*
X83908949Y-37673409D01*
X84039471Y-37859816D01*
X84200375Y-38020720D01*
X84224405Y-38037546D01*
X84386783Y-38151243D01*
X84593021Y-38247414D01*
X84812825Y-38306310D01*
X84974747Y-38320476D01*
X85039515Y-38326143D01*
X85039517Y-38326143D01*
X85039519Y-38326143D01*
X85096190Y-38321184D01*
X85266209Y-38306310D01*
X85486013Y-38247414D01*
X85692251Y-38151243D01*
X85878656Y-38020722D01*
X86039564Y-37859814D01*
X86170085Y-37673409D01*
X86266256Y-37467171D01*
X86266257Y-37467167D01*
X86266833Y-37465932D01*
X86313005Y-37413493D01*
X86380199Y-37394341D01*
X86447080Y-37414557D01*
X86491596Y-37465931D01*
X86499428Y-37482727D01*
X86499432Y-37482734D01*
X86629954Y-37669141D01*
X86790858Y-37830045D01*
X86790861Y-37830047D01*
X86977266Y-37960568D01*
X87183504Y-38056739D01*
X87183509Y-38056740D01*
X87183511Y-38056741D01*
X87220821Y-38066738D01*
X87403308Y-38115635D01*
X87565230Y-38129801D01*
X87629998Y-38135468D01*
X87630000Y-38135468D01*
X87630002Y-38135468D01*
X87686807Y-38130498D01*
X87856692Y-38115635D01*
X88076496Y-38056739D01*
X88282734Y-37960568D01*
X88469139Y-37830047D01*
X88630047Y-37669139D01*
X88760568Y-37482734D01*
X88787618Y-37424724D01*
X88833790Y-37372285D01*
X88900983Y-37353133D01*
X88967865Y-37373348D01*
X89012381Y-37424724D01*
X89026517Y-37455038D01*
X89039429Y-37482728D01*
X89039432Y-37482734D01*
X89169954Y-37669141D01*
X89330858Y-37830045D01*
X89330861Y-37830047D01*
X89517266Y-37960568D01*
X89723504Y-38056739D01*
X89723509Y-38056740D01*
X89723511Y-38056741D01*
X89760821Y-38066738D01*
X89943308Y-38115635D01*
X90105230Y-38129801D01*
X90169998Y-38135468D01*
X90170000Y-38135468D01*
X90170002Y-38135468D01*
X90226807Y-38130498D01*
X90396692Y-38115635D01*
X90616496Y-38056739D01*
X90822734Y-37960568D01*
X91009139Y-37830047D01*
X91170047Y-37669139D01*
X91300568Y-37482734D01*
X91327618Y-37424724D01*
X91373790Y-37372285D01*
X91440983Y-37353133D01*
X91507865Y-37373348D01*
X91552381Y-37424724D01*
X91566517Y-37455038D01*
X91579429Y-37482728D01*
X91579432Y-37482734D01*
X91709954Y-37669141D01*
X91870858Y-37830045D01*
X91870861Y-37830047D01*
X92057266Y-37960568D01*
X92263504Y-38056739D01*
X92263509Y-38056740D01*
X92263511Y-38056741D01*
X92300821Y-38066738D01*
X92483308Y-38115635D01*
X92645230Y-38129801D01*
X92709998Y-38135468D01*
X92710000Y-38135468D01*
X92710002Y-38135468D01*
X92766807Y-38130498D01*
X92936692Y-38115635D01*
X93156496Y-38056739D01*
X93362734Y-37960568D01*
X93549139Y-37830047D01*
X93710047Y-37669139D01*
X93840568Y-37482734D01*
X93867618Y-37424724D01*
X93913790Y-37372285D01*
X93980983Y-37353133D01*
X94047865Y-37373348D01*
X94092381Y-37424724D01*
X94106517Y-37455038D01*
X94119429Y-37482728D01*
X94119432Y-37482734D01*
X94249954Y-37669141D01*
X94410858Y-37830045D01*
X94410861Y-37830047D01*
X94597266Y-37960568D01*
X94803504Y-38056739D01*
X94803509Y-38056740D01*
X94803511Y-38056741D01*
X94840821Y-38066738D01*
X95023308Y-38115635D01*
X95185230Y-38129801D01*
X95249998Y-38135468D01*
X95250000Y-38135468D01*
X95250002Y-38135468D01*
X95306807Y-38130498D01*
X95476692Y-38115635D01*
X95696496Y-38056739D01*
X95902734Y-37960568D01*
X96089139Y-37830047D01*
X96250047Y-37669139D01*
X96380568Y-37482734D01*
X96407618Y-37424724D01*
X96453790Y-37372285D01*
X96520983Y-37353133D01*
X96587865Y-37373348D01*
X96632381Y-37424724D01*
X96646517Y-37455038D01*
X96659429Y-37482728D01*
X96659432Y-37482734D01*
X96789954Y-37669141D01*
X96950858Y-37830045D01*
X96950861Y-37830047D01*
X97137266Y-37960568D01*
X97343504Y-38056739D01*
X97343509Y-38056740D01*
X97343511Y-38056741D01*
X97380821Y-38066738D01*
X97563308Y-38115635D01*
X97725230Y-38129801D01*
X97789998Y-38135468D01*
X97790000Y-38135468D01*
X97790002Y-38135468D01*
X97846807Y-38130498D01*
X98016692Y-38115635D01*
X98236496Y-38056739D01*
X98442734Y-37960568D01*
X98629139Y-37830047D01*
X98790047Y-37669139D01*
X98920568Y-37482734D01*
X98947618Y-37424724D01*
X98993790Y-37372285D01*
X99060983Y-37353133D01*
X99127865Y-37373348D01*
X99172381Y-37424724D01*
X99186517Y-37455038D01*
X99199429Y-37482728D01*
X99199432Y-37482734D01*
X99329954Y-37669141D01*
X99490858Y-37830045D01*
X99490861Y-37830047D01*
X99677266Y-37960568D01*
X99883504Y-38056739D01*
X99883509Y-38056740D01*
X99883511Y-38056741D01*
X99920821Y-38066738D01*
X100103308Y-38115635D01*
X100265230Y-38129801D01*
X100329998Y-38135468D01*
X100330000Y-38135468D01*
X100330002Y-38135468D01*
X100386807Y-38130498D01*
X100556692Y-38115635D01*
X100776496Y-38056739D01*
X100982734Y-37960568D01*
X101169139Y-37830047D01*
X101330047Y-37669139D01*
X101460568Y-37482734D01*
X101487618Y-37424724D01*
X101533790Y-37372285D01*
X101600983Y-37353133D01*
X101667865Y-37373348D01*
X101712381Y-37424724D01*
X101726517Y-37455038D01*
X101739429Y-37482728D01*
X101739432Y-37482734D01*
X101869954Y-37669141D01*
X102030858Y-37830045D01*
X102030861Y-37830047D01*
X102217266Y-37960568D01*
X102423504Y-38056739D01*
X102423509Y-38056740D01*
X102423511Y-38056741D01*
X102460821Y-38066738D01*
X102643308Y-38115635D01*
X102805230Y-38129801D01*
X102869998Y-38135468D01*
X102870000Y-38135468D01*
X102870002Y-38135468D01*
X102926807Y-38130498D01*
X103096692Y-38115635D01*
X103316496Y-38056739D01*
X103522734Y-37960568D01*
X103709139Y-37830047D01*
X103870047Y-37669139D01*
X104000568Y-37482734D01*
X104027618Y-37424724D01*
X104073790Y-37372285D01*
X104140983Y-37353133D01*
X104207865Y-37373348D01*
X104252381Y-37424724D01*
X104266517Y-37455038D01*
X104279429Y-37482728D01*
X104279432Y-37482734D01*
X104409954Y-37669141D01*
X104570858Y-37830045D01*
X104570861Y-37830047D01*
X104757266Y-37960568D01*
X104963504Y-38056739D01*
X104963509Y-38056740D01*
X104963511Y-38056741D01*
X105000821Y-38066738D01*
X105183308Y-38115635D01*
X105345230Y-38129801D01*
X105409998Y-38135468D01*
X105410000Y-38135468D01*
X105410002Y-38135468D01*
X105466807Y-38130498D01*
X105636692Y-38115635D01*
X105856496Y-38056739D01*
X106062734Y-37960568D01*
X106249139Y-37830047D01*
X106410047Y-37669139D01*
X106540568Y-37482734D01*
X106636739Y-37276496D01*
X106695635Y-37056692D01*
X106715468Y-36830000D01*
X106713582Y-36808448D01*
X106704400Y-36703498D01*
X106695635Y-36603308D01*
X106678551Y-36539548D01*
X106664362Y-36486593D01*
X106666025Y-36416743D01*
X106705188Y-36358881D01*
X106769417Y-36331377D01*
X106784137Y-36330500D01*
X116497770Y-36330500D01*
X116564809Y-36350185D01*
X116585451Y-36366819D01*
X116737130Y-36518498D01*
X116770615Y-36579821D01*
X116772977Y-36616986D01*
X116754341Y-36829997D01*
X116754341Y-36830000D01*
X116774936Y-37065403D01*
X116774938Y-37065413D01*
X116836094Y-37293655D01*
X116836096Y-37293659D01*
X116836097Y-37293663D01*
X116901876Y-37434726D01*
X116935965Y-37507830D01*
X116935967Y-37507834D01*
X117044281Y-37662521D01*
X117071505Y-37701401D01*
X117238599Y-37868495D01*
X117408621Y-37987546D01*
X117424594Y-37998730D01*
X117468219Y-38053307D01*
X117475413Y-38122805D01*
X117443890Y-38185160D01*
X117424595Y-38201880D01*
X117238922Y-38331890D01*
X117238920Y-38331891D01*
X117071891Y-38498920D01*
X117071886Y-38498926D01*
X116936400Y-38692420D01*
X116936399Y-38692422D01*
X116836570Y-38906507D01*
X116836567Y-38906513D01*
X116779364Y-39119999D01*
X116779364Y-39120000D01*
X117676314Y-39120000D01*
X117650507Y-39160156D01*
X117610000Y-39298111D01*
X117610000Y-39441889D01*
X117650507Y-39579844D01*
X117676314Y-39620000D01*
X116779364Y-39620000D01*
X116836567Y-39833486D01*
X116836570Y-39833492D01*
X116936399Y-40047578D01*
X117071894Y-40241082D01*
X117238919Y-40408107D01*
X117247229Y-40413926D01*
X117290853Y-40468504D01*
X117298045Y-40538003D01*
X117266521Y-40600357D01*
X117206291Y-40635769D01*
X117176104Y-40639500D01*
X17443896Y-40639500D01*
X17376857Y-40619815D01*
X17331102Y-40567011D01*
X17321158Y-40497853D01*
X17350183Y-40434297D01*
X17372771Y-40413926D01*
X17381080Y-40408107D01*
X17548105Y-40241082D01*
X17683600Y-40047578D01*
X17783429Y-39833492D01*
X17783432Y-39833486D01*
X17840636Y-39620000D01*
X16943686Y-39620000D01*
X16969493Y-39579844D01*
X17010000Y-39441889D01*
X17010000Y-39298111D01*
X16969493Y-39160156D01*
X16943686Y-39120000D01*
X17840636Y-39120000D01*
X17840635Y-39119999D01*
X17783432Y-38906513D01*
X17783429Y-38906507D01*
X17683600Y-38692422D01*
X17683599Y-38692420D01*
X17548113Y-38498926D01*
X17548108Y-38498920D01*
X17381078Y-38331890D01*
X17195405Y-38201879D01*
X17151780Y-38147302D01*
X17144588Y-38077804D01*
X17176110Y-38015449D01*
X17195406Y-37998730D01*
X17211377Y-37987547D01*
X17381401Y-37868495D01*
X17548495Y-37701401D01*
X17631136Y-37583376D01*
X17685713Y-37539752D01*
X17732711Y-37530500D01*
X20115501Y-37530500D01*
X20182540Y-37550185D01*
X20228295Y-37602989D01*
X20239501Y-37654500D01*
X20239501Y-37727876D01*
X20245908Y-37787483D01*
X20296202Y-37922328D01*
X20296206Y-37922335D01*
X20382452Y-38037544D01*
X20382455Y-38037547D01*
X20497664Y-38123793D01*
X20497671Y-38123797D01*
X20632517Y-38174091D01*
X20632516Y-38174091D01*
X20639444Y-38174835D01*
X20692127Y-38180500D01*
X22487872Y-38180499D01*
X22547483Y-38174091D01*
X22682331Y-38123796D01*
X22797546Y-38037546D01*
X22810039Y-38020857D01*
X22865970Y-37978987D01*
X22935662Y-37974001D01*
X22983614Y-37995901D01*
X23067628Y-38058793D01*
X23087668Y-38073795D01*
X23087671Y-38073797D01*
X23222517Y-38124091D01*
X23222516Y-38124091D01*
X23229444Y-38124835D01*
X23282127Y-38130500D01*
X24977872Y-38130499D01*
X25037483Y-38124091D01*
X25172331Y-38073796D01*
X25287546Y-37987546D01*
X25373796Y-37872331D01*
X25424091Y-37737483D01*
X25427862Y-37702401D01*
X25454599Y-37637855D01*
X25511990Y-37598006D01*
X25581816Y-37595511D01*
X25641905Y-37631163D01*
X25652725Y-37644535D01*
X25665563Y-37662870D01*
X25669956Y-37669143D01*
X25830858Y-37830045D01*
X25830861Y-37830047D01*
X26017266Y-37960568D01*
X26223504Y-38056739D01*
X26223509Y-38056740D01*
X26223511Y-38056741D01*
X26260821Y-38066738D01*
X26443308Y-38115635D01*
X26605230Y-38129801D01*
X26669998Y-38135468D01*
X26670000Y-38135468D01*
X26670001Y-38135468D01*
X26688304Y-38133866D01*
X26896692Y-38115635D01*
X26896697Y-38115633D01*
X26901881Y-38115180D01*
X26970381Y-38128946D01*
X27000370Y-38151027D01*
X28028399Y-39179056D01*
X28030935Y-39181750D01*
X28072071Y-39228183D01*
X28094986Y-39244000D01*
X28123110Y-39263413D01*
X28126127Y-39265633D01*
X28174938Y-39303874D01*
X28174943Y-39303877D01*
X28184174Y-39308031D01*
X28203727Y-39319059D01*
X28212070Y-39324818D01*
X28270044Y-39346804D01*
X28270057Y-39346809D01*
X28273508Y-39348238D01*
X28303093Y-39361553D01*
X28330063Y-39373692D01*
X28330064Y-39373692D01*
X28330068Y-39373694D01*
X28340030Y-39375519D01*
X28361651Y-39381546D01*
X28361667Y-39381552D01*
X28371128Y-39385140D01*
X28387871Y-39387173D01*
X28432689Y-39392615D01*
X28436386Y-39393177D01*
X28497394Y-39404357D01*
X28497395Y-39404356D01*
X28497396Y-39404357D01*
X28559293Y-39400613D01*
X28563037Y-39400500D01*
X43862230Y-39400500D01*
X43865975Y-39400613D01*
X43873320Y-39401057D01*
X43927884Y-39404358D01*
X43965592Y-39397447D01*
X43988899Y-39393177D01*
X43992603Y-39392613D01*
X44010448Y-39390446D01*
X44054150Y-39385140D01*
X44063613Y-39381550D01*
X44085239Y-39375522D01*
X44086171Y-39375351D01*
X44095210Y-39373695D01*
X44151790Y-39348229D01*
X44155220Y-39346809D01*
X44213208Y-39324818D01*
X44221544Y-39319062D01*
X44241099Y-39308034D01*
X44250335Y-39303878D01*
X44299174Y-39265613D01*
X44302154Y-39263421D01*
X44353207Y-39228183D01*
X44394343Y-39181748D01*
X44396877Y-39179056D01*
X45018754Y-38557180D01*
X45080073Y-38523698D01*
X45080082Y-38523695D01*
X45235581Y-38490644D01*
X45235585Y-38490642D01*
X45235586Y-38490642D01*
X45358078Y-38436104D01*
X45408508Y-38413651D01*
X45561649Y-38302388D01*
X45671719Y-38180142D01*
X45731203Y-38143495D01*
X45801060Y-38144825D01*
X45851548Y-38175435D01*
X46255169Y-38579056D01*
X46257705Y-38581750D01*
X46298841Y-38628183D01*
X46330201Y-38649829D01*
X46349880Y-38663413D01*
X46352897Y-38665633D01*
X46401708Y-38703874D01*
X46401713Y-38703877D01*
X46410944Y-38708031D01*
X46430497Y-38719059D01*
X46438840Y-38724818D01*
X46496814Y-38746804D01*
X46496827Y-38746809D01*
X46500278Y-38748238D01*
X46529863Y-38761553D01*
X46556833Y-38773692D01*
X46556834Y-38773692D01*
X46556838Y-38773694D01*
X46566800Y-38775519D01*
X46588421Y-38781546D01*
X46588437Y-38781552D01*
X46597898Y-38785140D01*
X46614641Y-38787173D01*
X46659459Y-38792615D01*
X46663156Y-38793177D01*
X46724164Y-38804357D01*
X46724165Y-38804356D01*
X46724166Y-38804357D01*
X46786063Y-38800613D01*
X46789807Y-38800500D01*
X49909009Y-38800500D01*
X49912754Y-38800613D01*
X49920099Y-38801057D01*
X49974663Y-38804358D01*
X50012371Y-38797447D01*
X50035678Y-38793177D01*
X50039382Y-38792613D01*
X50057227Y-38790446D01*
X50100929Y-38785140D01*
X50110392Y-38781550D01*
X50132018Y-38775522D01*
X50132950Y-38775351D01*
X50141989Y-38773695D01*
X50198569Y-38748229D01*
X50201999Y-38746809D01*
X50259987Y-38724818D01*
X50268323Y-38719062D01*
X50287878Y-38708034D01*
X50297114Y-38703878D01*
X50345953Y-38665613D01*
X50348933Y-38663421D01*
X50399986Y-38628183D01*
X50441122Y-38581748D01*
X50443656Y-38579056D01*
X53819056Y-35203656D01*
X53821748Y-35201122D01*
X53868183Y-35159986D01*
X53903436Y-35108912D01*
X53905613Y-35105953D01*
X53943878Y-35057114D01*
X53948037Y-35047872D01*
X53959062Y-35028325D01*
X53964818Y-35019987D01*
X53974926Y-34993334D01*
X53986811Y-34961995D01*
X53988245Y-34958532D01*
X54016773Y-34895148D01*
X54018217Y-34895797D01*
X54038728Y-34859758D01*
X54072533Y-34822216D01*
X54167179Y-34658284D01*
X54225674Y-34478256D01*
X54245460Y-34290000D01*
X54225674Y-34101744D01*
X54172411Y-33937818D01*
X54170416Y-33867977D01*
X54206496Y-33808144D01*
X54269197Y-33777316D01*
X54290342Y-33775500D01*
X55765863Y-33775500D01*
X55832902Y-33795185D01*
G37*
%TD.AperFunction*%
%TA.AperFunction,Conductor*%
G36*
X43032539Y-33740185D02*
G01*
X43078294Y-33792989D01*
X43089500Y-33844500D01*
X43089501Y-34735500D01*
X43069817Y-34802539D01*
X43017013Y-34848294D01*
X42965501Y-34859500D01*
X34210046Y-34859500D01*
X34143007Y-34839815D01*
X34122365Y-34823181D01*
X33231366Y-33932181D01*
X33197881Y-33870858D01*
X33202865Y-33801166D01*
X33244737Y-33745233D01*
X33310201Y-33720816D01*
X33319047Y-33720500D01*
X42965500Y-33720500D01*
X43032539Y-33740185D01*
G37*
%TD.AperFunction*%
%TA.AperFunction,Conductor*%
G36*
X22841659Y-28660185D02*
G01*
X22887414Y-28712989D01*
X22897358Y-28782147D01*
X22894395Y-28796591D01*
X22885858Y-28828450D01*
X22844366Y-28983302D01*
X22844364Y-28983313D01*
X22824532Y-29209998D01*
X22824532Y-29210001D01*
X22844364Y-29436686D01*
X22844366Y-29436697D01*
X22903258Y-29656488D01*
X22903261Y-29656497D01*
X22999431Y-29862732D01*
X22999432Y-29862734D01*
X23129954Y-30049141D01*
X23290858Y-30210045D01*
X23290861Y-30210047D01*
X23477266Y-30340568D01*
X23683504Y-30436739D01*
X23903308Y-30495635D01*
X24065230Y-30509801D01*
X24129998Y-30515468D01*
X24130000Y-30515468D01*
X24130002Y-30515468D01*
X24186672Y-30510509D01*
X24356692Y-30495635D01*
X24576496Y-30436739D01*
X24782734Y-30340568D01*
X24969139Y-30210047D01*
X25130047Y-30049139D01*
X25260568Y-29862734D01*
X25287618Y-29804724D01*
X25333790Y-29752285D01*
X25400983Y-29733133D01*
X25467865Y-29753348D01*
X25512381Y-29804724D01*
X25516769Y-29814133D01*
X25539429Y-29862728D01*
X25539432Y-29862734D01*
X25669954Y-30049141D01*
X25830858Y-30210045D01*
X25830861Y-30210047D01*
X26017266Y-30340568D01*
X26223504Y-30436739D01*
X26443308Y-30495635D01*
X26605230Y-30509801D01*
X26669998Y-30515468D01*
X26670000Y-30515468D01*
X26670002Y-30515468D01*
X26726673Y-30510509D01*
X26896692Y-30495635D01*
X27116496Y-30436739D01*
X27322734Y-30340568D01*
X27509139Y-30210047D01*
X27670047Y-30049139D01*
X27800568Y-29862734D01*
X27827618Y-29804724D01*
X27873790Y-29752285D01*
X27940983Y-29733133D01*
X28007865Y-29753348D01*
X28052381Y-29804724D01*
X28056769Y-29814133D01*
X28079429Y-29862728D01*
X28079432Y-29862734D01*
X28209954Y-30049141D01*
X28370858Y-30210045D01*
X28370861Y-30210047D01*
X28557266Y-30340568D01*
X28763504Y-30436739D01*
X28983308Y-30495635D01*
X29145230Y-30509801D01*
X29209998Y-30515468D01*
X29210000Y-30515468D01*
X29210001Y-30515468D01*
X29228304Y-30513866D01*
X29436692Y-30495635D01*
X29436697Y-30495633D01*
X29441881Y-30495180D01*
X29510381Y-30508946D01*
X29540370Y-30531027D01*
X31187162Y-32177819D01*
X31220647Y-32239142D01*
X31215663Y-32308834D01*
X31173791Y-32364767D01*
X31108327Y-32389184D01*
X31099481Y-32389500D01*
X23655981Y-32389500D01*
X23652237Y-32389387D01*
X23590341Y-32385643D01*
X23590334Y-32385643D01*
X23529346Y-32396819D01*
X23525645Y-32397382D01*
X23464069Y-32404860D01*
X23454586Y-32408456D01*
X23432982Y-32414478D01*
X23431479Y-32414754D01*
X23423009Y-32416306D01*
X23423007Y-32416307D01*
X23366471Y-32441752D01*
X23363013Y-32443184D01*
X23305013Y-32465182D01*
X23296668Y-32470942D01*
X23277127Y-32481964D01*
X23267888Y-32486122D01*
X23267883Y-32486125D01*
X23219065Y-32524370D01*
X23216050Y-32526589D01*
X23165016Y-32561816D01*
X23165009Y-32561822D01*
X23123886Y-32608240D01*
X23121319Y-32610966D01*
X21509106Y-34223181D01*
X21447783Y-34256666D01*
X21421425Y-34259500D01*
X17976615Y-34259500D01*
X17909576Y-34239815D01*
X17863821Y-34187011D01*
X17853087Y-34146307D01*
X17851617Y-34129500D01*
X17845063Y-34054592D01*
X17783903Y-33826337D01*
X17684035Y-33612171D01*
X17655569Y-33571516D01*
X17548494Y-33418597D01*
X17381402Y-33251506D01*
X17381396Y-33251501D01*
X17195842Y-33121575D01*
X17152217Y-33066998D01*
X17145023Y-32997500D01*
X17176546Y-32935145D01*
X17195842Y-32918425D01*
X17313121Y-32836305D01*
X17381401Y-32788495D01*
X17548495Y-32621401D01*
X17684035Y-32427830D01*
X17783903Y-32213663D01*
X17845063Y-31985408D01*
X17865659Y-31750000D01*
X17864346Y-31734998D01*
X17855241Y-31630923D01*
X17845063Y-31514592D01*
X17783903Y-31286337D01*
X17684035Y-31072171D01*
X17664883Y-31044818D01*
X17548494Y-30878597D01*
X17381402Y-30711506D01*
X17381396Y-30711501D01*
X17195842Y-30581575D01*
X17152217Y-30526998D01*
X17145023Y-30457500D01*
X17176546Y-30395145D01*
X17195842Y-30378425D01*
X17279995Y-30319500D01*
X17381401Y-30248495D01*
X17548495Y-30081401D01*
X17684035Y-29887830D01*
X17783903Y-29673663D01*
X17845063Y-29445408D01*
X17865659Y-29210000D01*
X17864346Y-29194998D01*
X17857404Y-29115643D01*
X17845063Y-28974592D01*
X17840558Y-28957779D01*
X17842219Y-28887932D01*
X17872647Y-28838008D01*
X18033839Y-28676816D01*
X18095162Y-28643334D01*
X18121519Y-28640500D01*
X22774620Y-28640500D01*
X22841659Y-28660185D01*
G37*
%TD.AperFunction*%
%TA.AperFunction,Conductor*%
G36*
X58453911Y-29788528D02*
G01*
X58462513Y-29794692D01*
X58487000Y-29813877D01*
X58496233Y-29818032D01*
X58515785Y-29829060D01*
X58524127Y-29834818D01*
X58572400Y-29853125D01*
X58582114Y-29856809D01*
X58585569Y-29858239D01*
X58595555Y-29862734D01*
X58642120Y-29883692D01*
X58642121Y-29883692D01*
X58642125Y-29883694D01*
X58652087Y-29885519D01*
X58673708Y-29891546D01*
X58674423Y-29891817D01*
X58683185Y-29895140D01*
X58699928Y-29897173D01*
X58744746Y-29902615D01*
X58748443Y-29903177D01*
X58809451Y-29914357D01*
X58809452Y-29914356D01*
X58809453Y-29914357D01*
X58871349Y-29910613D01*
X58875093Y-29910500D01*
X62793586Y-29910500D01*
X62860625Y-29930185D01*
X62906380Y-29982989D01*
X62909528Y-29990528D01*
X62930182Y-30044987D01*
X62930183Y-30044988D01*
X62935936Y-30053323D01*
X62946961Y-30072870D01*
X62951120Y-30082112D01*
X62951122Y-30082114D01*
X62971260Y-30107819D01*
X62989371Y-30130935D01*
X62991591Y-30133953D01*
X63026812Y-30184981D01*
X63026816Y-30184985D01*
X63026817Y-30184986D01*
X63073250Y-30226121D01*
X63075941Y-30228655D01*
X63746335Y-30899048D01*
X63748871Y-30901742D01*
X63790014Y-30948183D01*
X63837574Y-30981011D01*
X63841058Y-30983416D01*
X63844063Y-30985626D01*
X63892887Y-31023878D01*
X63892889Y-31023879D01*
X63892892Y-31023881D01*
X63902120Y-31028034D01*
X63921674Y-31039062D01*
X63930009Y-31044816D01*
X63930011Y-31044816D01*
X63930013Y-31044818D01*
X63988022Y-31066817D01*
X63991419Y-31068224D01*
X64032568Y-31086744D01*
X64048007Y-31093693D01*
X64048008Y-31093693D01*
X64048012Y-31093695D01*
X64057977Y-31095521D01*
X64079599Y-31101548D01*
X64082720Y-31102731D01*
X64089071Y-31105140D01*
X64134194Y-31110618D01*
X64150617Y-31112613D01*
X64154314Y-31113175D01*
X64215337Y-31124358D01*
X64270695Y-31121009D01*
X64277246Y-31120613D01*
X64280991Y-31120500D01*
X64764953Y-31120500D01*
X64831992Y-31140185D01*
X64852634Y-31156819D01*
X65123634Y-31427819D01*
X65157119Y-31489142D01*
X65152135Y-31558834D01*
X65110263Y-31614767D01*
X65044799Y-31639184D01*
X65035953Y-31639500D01*
X59783576Y-31639500D01*
X59716537Y-31619815D01*
X59695895Y-31603181D01*
X58207826Y-30115112D01*
X58174341Y-30053789D01*
X58179325Y-29984097D01*
X58193933Y-29956306D01*
X58270133Y-29847483D01*
X58270134Y-29847481D01*
X58273666Y-29839908D01*
X58319837Y-29787468D01*
X58387030Y-29768314D01*
X58453911Y-29788528D01*
G37*
%TD.AperFunction*%
%TA.AperFunction,Conductor*%
G36*
X66092588Y-29762757D02*
G01*
X66137105Y-29814132D01*
X66151416Y-29844822D01*
X66164431Y-29872732D01*
X66164432Y-29872734D01*
X66294954Y-30059141D01*
X66343632Y-30107819D01*
X66377117Y-30169142D01*
X66372133Y-30238834D01*
X66330261Y-30294767D01*
X66264797Y-30319184D01*
X66255951Y-30319500D01*
X66047991Y-30319500D01*
X65980952Y-30299815D01*
X65960310Y-30283181D01*
X65820527Y-30143398D01*
X65787042Y-30082075D01*
X65792026Y-30012383D01*
X65806633Y-29984593D01*
X65885132Y-29872484D01*
X65912341Y-29814134D01*
X65958513Y-29761695D01*
X66025707Y-29742542D01*
X66092588Y-29762757D01*
G37*
%TD.AperFunction*%
%TA.AperFunction,Conductor*%
G36*
X68644859Y-29804819D02*
G01*
X68695339Y-29853125D01*
X68700221Y-29862523D01*
X68704864Y-29872479D01*
X68704868Y-29872487D01*
X68783366Y-29984593D01*
X68805693Y-30050799D01*
X68788683Y-30118566D01*
X68769473Y-30143397D01*
X68727890Y-30184981D01*
X68629688Y-30283182D01*
X68568368Y-30316666D01*
X68542009Y-30319500D01*
X68334049Y-30319500D01*
X68267010Y-30299815D01*
X68221255Y-30247011D01*
X68211311Y-30177853D01*
X68240336Y-30114297D01*
X68246368Y-30107819D01*
X68295045Y-30059141D01*
X68295044Y-30059141D01*
X68295047Y-30059139D01*
X68415777Y-29886716D01*
X68459728Y-29848043D01*
X68465864Y-29844822D01*
X68465865Y-29844820D01*
X68465873Y-29844818D01*
X68474214Y-29839059D01*
X68493758Y-29828036D01*
X68503000Y-29823878D01*
X68511366Y-29817322D01*
X68576276Y-29791473D01*
X68644859Y-29804819D01*
G37*
%TD.AperFunction*%
%TA.AperFunction,Conductor*%
G36*
X70599468Y-28989685D02*
G01*
X70645223Y-29042489D01*
X70655167Y-29111647D01*
X70626142Y-29175203D01*
X70602856Y-29196059D01*
X70595774Y-29200946D01*
X70576247Y-29211959D01*
X70567003Y-29216120D01*
X70567001Y-29216121D01*
X70567000Y-29216122D01*
X70537301Y-29239388D01*
X70518181Y-29254368D01*
X70515166Y-29256586D01*
X70464125Y-29291818D01*
X70422999Y-29338240D01*
X70420432Y-29340966D01*
X70375833Y-29385566D01*
X70327717Y-29433681D01*
X70266396Y-29467166D01*
X70240037Y-29470000D01*
X70150686Y-29470000D01*
X70162641Y-29458045D01*
X70220165Y-29345148D01*
X70239986Y-29220000D01*
X70220165Y-29094852D01*
X70162641Y-28981955D01*
X70150686Y-28970000D01*
X70532429Y-28970000D01*
X70599468Y-28989685D01*
G37*
%TD.AperFunction*%
%TA.AperFunction,Conductor*%
G36*
X72047359Y-28981955D02*
G01*
X71989835Y-29094852D01*
X71970014Y-29220000D01*
X71989835Y-29345148D01*
X72047359Y-29458045D01*
X72059314Y-29470000D01*
X71969962Y-29470000D01*
X71902923Y-29450315D01*
X71882281Y-29433681D01*
X71846111Y-29397511D01*
X71789541Y-29340941D01*
X71787007Y-29338250D01*
X71745872Y-29291817D01*
X71745871Y-29291816D01*
X71745867Y-29291812D01*
X71694839Y-29256591D01*
X71691830Y-29254377D01*
X71643003Y-29216124D01*
X71642998Y-29216120D01*
X71633756Y-29211961D01*
X71614210Y-29200937D01*
X71607129Y-29196049D01*
X71563140Y-29141767D01*
X71555480Y-29072318D01*
X71586584Y-29009753D01*
X71646574Y-28973936D01*
X71677570Y-28970000D01*
X72059314Y-28970000D01*
X72047359Y-28981955D01*
G37*
%TD.AperFunction*%
%TA.AperFunction,Conductor*%
G36*
X74587359Y-28981955D02*
G01*
X74529835Y-29094852D01*
X74510014Y-29220000D01*
X74529835Y-29345148D01*
X74587359Y-29458045D01*
X74599314Y-29470000D01*
X72690686Y-29470000D01*
X72702641Y-29458045D01*
X72760165Y-29345148D01*
X72779986Y-29220000D01*
X72760165Y-29094852D01*
X72702641Y-28981955D01*
X72690686Y-28970000D01*
X74599314Y-28970000D01*
X74587359Y-28981955D01*
G37*
%TD.AperFunction*%
%TA.AperFunction,Conductor*%
G36*
X77127359Y-28981955D02*
G01*
X77069835Y-29094852D01*
X77050014Y-29220000D01*
X77069835Y-29345148D01*
X77127359Y-29458045D01*
X77139314Y-29470000D01*
X75230686Y-29470000D01*
X75242641Y-29458045D01*
X75300165Y-29345148D01*
X75319986Y-29220000D01*
X75300165Y-29094852D01*
X75242641Y-28981955D01*
X75230686Y-28970000D01*
X77139314Y-28970000D01*
X77127359Y-28981955D01*
G37*
%TD.AperFunction*%
%TA.AperFunction,Conductor*%
G36*
X43105254Y-26085185D02*
G01*
X43151009Y-26137989D01*
X43160953Y-26207147D01*
X43157990Y-26221593D01*
X43104938Y-26419586D01*
X43104936Y-26419596D01*
X43084341Y-26654999D01*
X43084341Y-26655000D01*
X43104936Y-26890403D01*
X43104938Y-26890413D01*
X43147272Y-27048407D01*
X43145609Y-27118257D01*
X43106446Y-27176119D01*
X43042218Y-27203623D01*
X43027497Y-27204500D01*
X40726561Y-27204500D01*
X40659522Y-27184815D01*
X40613767Y-27132011D01*
X40603823Y-27062853D01*
X40606786Y-27048406D01*
X40643872Y-26910000D01*
X39680686Y-26910000D01*
X39692641Y-26898045D01*
X39750165Y-26785148D01*
X39769986Y-26660000D01*
X39750165Y-26534852D01*
X39692641Y-26421955D01*
X39680686Y-26410000D01*
X40643872Y-26410000D01*
X40643872Y-26409999D01*
X40593389Y-26221593D01*
X40595052Y-26151744D01*
X40634214Y-26093881D01*
X40698443Y-26066377D01*
X40713164Y-26065500D01*
X43038215Y-26065500D01*
X43105254Y-26085185D01*
G37*
%TD.AperFunction*%
%TA.AperFunction,Conductor*%
G36*
X116726756Y-21770185D02*
G01*
X116772511Y-21822989D01*
X116779492Y-21842407D01*
X116836094Y-22053655D01*
X116836096Y-22053659D01*
X116836097Y-22053663D01*
X116933661Y-22262888D01*
X116935965Y-22267830D01*
X116935967Y-22267834D01*
X117071501Y-22461395D01*
X117071506Y-22461402D01*
X117238597Y-22628493D01*
X117238603Y-22628498D01*
X117424158Y-22758425D01*
X117467783Y-22813002D01*
X117474977Y-22882500D01*
X117443454Y-22944855D01*
X117424158Y-22961575D01*
X117238597Y-23091505D01*
X117071505Y-23258597D01*
X116935965Y-23452169D01*
X116935964Y-23452171D01*
X116836098Y-23666335D01*
X116836094Y-23666344D01*
X116774938Y-23894586D01*
X116774936Y-23894596D01*
X116754341Y-24129999D01*
X116754341Y-24130001D01*
X116772977Y-24343013D01*
X116759210Y-24411513D01*
X116737130Y-24441501D01*
X115995451Y-25183181D01*
X115934128Y-25216666D01*
X115907770Y-25219500D01*
X108602179Y-25219500D01*
X108535140Y-25199815D01*
X108514498Y-25183181D01*
X108313499Y-24982181D01*
X108280014Y-24920858D01*
X108284998Y-24851166D01*
X108326870Y-24795233D01*
X108392334Y-24770816D01*
X108401180Y-24770500D01*
X112671952Y-24770500D01*
X112675697Y-24770613D01*
X112683042Y-24771057D01*
X112737606Y-24774358D01*
X112775314Y-24767447D01*
X112798621Y-24763177D01*
X112802325Y-24762613D01*
X112820170Y-24760446D01*
X112863872Y-24755140D01*
X112873335Y-24751550D01*
X112894961Y-24745522D01*
X112895893Y-24745351D01*
X112904932Y-24743695D01*
X112961512Y-24718229D01*
X112964942Y-24716809D01*
X113022930Y-24694818D01*
X113031266Y-24689062D01*
X113050821Y-24678034D01*
X113060057Y-24673878D01*
X113108896Y-24635613D01*
X113111876Y-24633421D01*
X113162929Y-24598183D01*
X113204065Y-24551748D01*
X113206599Y-24549056D01*
X113883838Y-23871818D01*
X113945161Y-23838333D01*
X113971519Y-23835499D01*
X114241670Y-23835499D01*
X114241676Y-23835499D01*
X114342753Y-23825174D01*
X114506516Y-23770908D01*
X114653350Y-23680340D01*
X114775340Y-23558350D01*
X114865908Y-23411516D01*
X114920174Y-23247753D01*
X114930500Y-23146677D01*
X114930499Y-22573324D01*
X114930108Y-22569500D01*
X114920174Y-22472247D01*
X114916578Y-22461395D01*
X114865908Y-22308484D01*
X114775340Y-22161650D01*
X114653350Y-22039660D01*
X114556686Y-21980037D01*
X114509964Y-21928091D01*
X114498741Y-21859128D01*
X114526585Y-21795046D01*
X114584653Y-21756190D01*
X114621785Y-21750500D01*
X116659717Y-21750500D01*
X116726756Y-21770185D01*
G37*
%TD.AperFunction*%
%TA.AperFunction,Conductor*%
G36*
X90761232Y-22490185D02*
G01*
X90786342Y-22511527D01*
X90798265Y-22524769D01*
X90814129Y-22542388D01*
X90814130Y-22542389D01*
X90967265Y-22653648D01*
X90967270Y-22653651D01*
X91022589Y-22678281D01*
X91075826Y-22723531D01*
X91096147Y-22790380D01*
X91077101Y-22857604D01*
X91062346Y-22876655D01*
X91043736Y-22896381D01*
X91042480Y-22897674D01*
X90596973Y-23343181D01*
X90535650Y-23376666D01*
X90509292Y-23379500D01*
X88390923Y-23379500D01*
X88323884Y-23359815D01*
X88278129Y-23307011D01*
X88268185Y-23237853D01*
X88297210Y-23174297D01*
X88298706Y-23172602D01*
X88362533Y-23101716D01*
X88457179Y-22937784D01*
X88515674Y-22757756D01*
X88534194Y-22581536D01*
X88560778Y-22516924D01*
X88618076Y-22476939D01*
X88657515Y-22470500D01*
X90694193Y-22470500D01*
X90761232Y-22490185D01*
G37*
%TD.AperFunction*%
%TA.AperFunction,Conductor*%
G36*
X97774859Y-21090185D02*
G01*
X97795501Y-21106819D01*
X98174318Y-21485635D01*
X98186099Y-21499267D01*
X98200440Y-21518530D01*
X98240470Y-21552119D01*
X98244442Y-21555759D01*
X98247362Y-21558679D01*
X98250270Y-21561588D01*
X98275302Y-21581381D01*
X98276699Y-21582519D01*
X98285615Y-21590000D01*
X98334836Y-21631302D01*
X98334844Y-21631306D01*
X98340874Y-21635273D01*
X98340840Y-21635323D01*
X98347187Y-21639366D01*
X98347219Y-21639316D01*
X98353371Y-21643110D01*
X98353372Y-21643110D01*
X98353373Y-21643111D01*
X98422193Y-21675202D01*
X98423742Y-21675952D01*
X98491617Y-21710040D01*
X98491626Y-21710042D01*
X98498405Y-21712510D01*
X98498384Y-21712567D01*
X98505501Y-21715040D01*
X98505520Y-21714984D01*
X98512374Y-21717254D01*
X98512377Y-21717256D01*
X98586765Y-21732615D01*
X98588402Y-21732978D01*
X98662329Y-21750500D01*
X98662335Y-21750500D01*
X98669502Y-21751338D01*
X98669495Y-21751397D01*
X98676996Y-21752163D01*
X98677002Y-21752104D01*
X98684191Y-21752733D01*
X98684193Y-21752732D01*
X98684194Y-21752733D01*
X98705814Y-21752104D01*
X98760062Y-21750526D01*
X98761865Y-21750500D01*
X103727129Y-21750500D01*
X103794168Y-21770185D01*
X103839923Y-21822989D01*
X103849867Y-21892147D01*
X103820842Y-21955703D01*
X103796276Y-21976407D01*
X103796347Y-21976498D01*
X103793824Y-21978474D01*
X103791288Y-21980612D01*
X103790444Y-21981121D01*
X103741635Y-22019360D01*
X103738620Y-22021579D01*
X103687572Y-22056816D01*
X103687565Y-22056822D01*
X103646435Y-22103248D01*
X103643868Y-22105974D01*
X102807026Y-22942816D01*
X102745703Y-22976301D01*
X102745126Y-22976425D01*
X102590197Y-23009355D01*
X102590192Y-23009357D01*
X102417270Y-23086348D01*
X102417265Y-23086351D01*
X102264129Y-23197611D01*
X102146302Y-23328472D01*
X102086815Y-23365121D01*
X102054152Y-23369500D01*
X93661967Y-23369500D01*
X93594928Y-23349815D01*
X93549173Y-23297011D01*
X93539229Y-23227853D01*
X93544036Y-23207182D01*
X93570147Y-23126819D01*
X93595674Y-23048256D01*
X93615460Y-22860000D01*
X93595674Y-22671744D01*
X93537179Y-22491716D01*
X93442533Y-22327784D01*
X93315871Y-22187112D01*
X93309014Y-22182130D01*
X93162734Y-22075851D01*
X93162729Y-22075848D01*
X93009845Y-22007779D01*
X92956608Y-21962529D01*
X92936287Y-21895680D01*
X92955333Y-21828456D01*
X93007699Y-21782201D01*
X93060281Y-21770500D01*
X95477770Y-21770500D01*
X95544809Y-21790185D01*
X95565451Y-21806819D01*
X95660173Y-21901541D01*
X95690421Y-21950898D01*
X95691982Y-21955703D01*
X95692821Y-21958284D01*
X95692821Y-21958285D01*
X95760696Y-22075848D01*
X95787467Y-22122216D01*
X95841414Y-22182130D01*
X95914129Y-22262888D01*
X96067265Y-22374148D01*
X96067270Y-22374151D01*
X96240192Y-22451142D01*
X96240197Y-22451144D01*
X96425354Y-22490500D01*
X96425355Y-22490500D01*
X96614644Y-22490500D01*
X96614646Y-22490500D01*
X96799803Y-22451144D01*
X96972730Y-22374151D01*
X97125871Y-22262888D01*
X97252533Y-22122216D01*
X97347179Y-21958284D01*
X97405674Y-21778256D01*
X97425460Y-21590000D01*
X97405674Y-21401744D01*
X97378600Y-21318421D01*
X97350787Y-21232818D01*
X97348792Y-21162977D01*
X97384872Y-21103144D01*
X97447573Y-21072316D01*
X97468718Y-21070500D01*
X97707820Y-21070500D01*
X97774859Y-21090185D01*
G37*
%TD.AperFunction*%
%TA.AperFunction,Conductor*%
G36*
X109520254Y-21770185D02*
G01*
X109566009Y-21822989D01*
X109575953Y-21892147D01*
X109546928Y-21955703D01*
X109518314Y-21980036D01*
X109457005Y-22017853D01*
X109421648Y-22039661D01*
X109307681Y-22153629D01*
X109246358Y-22187114D01*
X109176666Y-22182130D01*
X109132319Y-22153629D01*
X109018351Y-22039661D01*
X109018350Y-22039660D01*
X108921686Y-21980037D01*
X108874964Y-21928091D01*
X108863741Y-21859128D01*
X108891585Y-21795046D01*
X108949653Y-21756190D01*
X108986785Y-21750500D01*
X109453215Y-21750500D01*
X109520254Y-21770185D01*
G37*
%TD.AperFunction*%
%TA.AperFunction,Conductor*%
G36*
X111505254Y-21770185D02*
G01*
X111551009Y-21822989D01*
X111560953Y-21892147D01*
X111531928Y-21955703D01*
X111503314Y-21980036D01*
X111442005Y-22017853D01*
X111406648Y-22039661D01*
X111323129Y-22123181D01*
X111261806Y-22156666D01*
X111235448Y-22159500D01*
X111014552Y-22159500D01*
X110947513Y-22139815D01*
X110926871Y-22123181D01*
X110843351Y-22039661D01*
X110843351Y-22039660D01*
X110843350Y-22039660D01*
X110746686Y-21980037D01*
X110699964Y-21928091D01*
X110688741Y-21859128D01*
X110716585Y-21795046D01*
X110774653Y-21756190D01*
X110811785Y-21750500D01*
X111438215Y-21750500D01*
X111505254Y-21770185D01*
G37*
%TD.AperFunction*%
%TA.AperFunction,Conductor*%
G36*
X113255254Y-21770185D02*
G01*
X113301009Y-21822989D01*
X113310953Y-21892147D01*
X113281928Y-21955703D01*
X113253314Y-21980036D01*
X113192005Y-22017853D01*
X113156648Y-22039661D01*
X113117681Y-22078629D01*
X113056358Y-22112114D01*
X112986666Y-22107130D01*
X112942319Y-22078629D01*
X112903351Y-22039661D01*
X112903350Y-22039660D01*
X112806686Y-21980037D01*
X112759964Y-21928091D01*
X112748741Y-21859128D01*
X112776585Y-21795046D01*
X112834653Y-21756190D01*
X112871785Y-21750500D01*
X113188215Y-21750500D01*
X113255254Y-21770185D01*
G37*
%TD.AperFunction*%
%TA.AperFunction,Conductor*%
G36*
X96132539Y-15260185D02*
G01*
X96178294Y-15312989D01*
X96189500Y-15364500D01*
X96189500Y-17657870D01*
X96189501Y-17657876D01*
X96195908Y-17717483D01*
X96246202Y-17852328D01*
X96246203Y-17852330D01*
X96253441Y-17861999D01*
X96266210Y-17879056D01*
X96266212Y-17879058D01*
X96290629Y-17944522D01*
X96275778Y-18012795D01*
X96226373Y-18062201D01*
X96158100Y-18077053D01*
X96093613Y-18053001D01*
X96093574Y-18053058D01*
X96093357Y-18052906D01*
X96092635Y-18052637D01*
X96090083Y-18050613D01*
X95902734Y-17919432D01*
X95902732Y-17919431D01*
X95696497Y-17823261D01*
X95696488Y-17823258D01*
X95476697Y-17764366D01*
X95476693Y-17764365D01*
X95476692Y-17764365D01*
X95476691Y-17764364D01*
X95476686Y-17764364D01*
X95250002Y-17744532D01*
X95249998Y-17744532D01*
X95023313Y-17764364D01*
X95023302Y-17764366D01*
X94803511Y-17823258D01*
X94803502Y-17823261D01*
X94597267Y-17919431D01*
X94597265Y-17919432D01*
X94410858Y-18049954D01*
X94249954Y-18210858D01*
X94119432Y-18397265D01*
X94119431Y-18397267D01*
X94100310Y-18438272D01*
X94094138Y-18451510D01*
X94092382Y-18455275D01*
X94046209Y-18507714D01*
X93979016Y-18526866D01*
X93912135Y-18506650D01*
X93867618Y-18455275D01*
X93840568Y-18397266D01*
X93727273Y-18235462D01*
X93710045Y-18210858D01*
X93549141Y-18049954D01*
X93362734Y-17919432D01*
X93362732Y-17919431D01*
X93156497Y-17823261D01*
X93156488Y-17823258D01*
X92936697Y-17764366D01*
X92936693Y-17764365D01*
X92936692Y-17764365D01*
X92936691Y-17764364D01*
X92936686Y-17764364D01*
X92710002Y-17744532D01*
X92709998Y-17744532D01*
X92483313Y-17764364D01*
X92483302Y-17764366D01*
X92263511Y-17823258D01*
X92263502Y-17823261D01*
X92057267Y-17919431D01*
X92057265Y-17919432D01*
X91870858Y-18049954D01*
X91709954Y-18210858D01*
X91579432Y-18397265D01*
X91579431Y-18397267D01*
X91560310Y-18438272D01*
X91554138Y-18451510D01*
X91552382Y-18455275D01*
X91506209Y-18507714D01*
X91439016Y-18526866D01*
X91372135Y-18506650D01*
X91327618Y-18455275D01*
X91300568Y-18397266D01*
X91187273Y-18235462D01*
X91170045Y-18210858D01*
X91009141Y-18049954D01*
X90822734Y-17919432D01*
X90822732Y-17919431D01*
X90616497Y-17823261D01*
X90616488Y-17823258D01*
X90396697Y-17764366D01*
X90396693Y-17764365D01*
X90396692Y-17764365D01*
X90396691Y-17764364D01*
X90396686Y-17764364D01*
X90170002Y-17744532D01*
X90169998Y-17744532D01*
X89943313Y-17764364D01*
X89943302Y-17764366D01*
X89723511Y-17823258D01*
X89723502Y-17823261D01*
X89517267Y-17919431D01*
X89517265Y-17919432D01*
X89330858Y-18049954D01*
X89169954Y-18210858D01*
X89042192Y-18393324D01*
X89039432Y-18397266D01*
X89014138Y-18451510D01*
X89012106Y-18455867D01*
X88965933Y-18508306D01*
X88898739Y-18527457D01*
X88831858Y-18507241D01*
X88787342Y-18455865D01*
X88760135Y-18397520D01*
X88760134Y-18397518D01*
X88629657Y-18211179D01*
X88468820Y-18050342D01*
X88282482Y-17919865D01*
X88076328Y-17823734D01*
X87880000Y-17771127D01*
X87880000Y-18734313D01*
X87868045Y-18722359D01*
X87755148Y-18664835D01*
X87661481Y-18650000D01*
X87598519Y-18650000D01*
X87504852Y-18664835D01*
X87391955Y-18722359D01*
X87380000Y-18734314D01*
X87380000Y-17771127D01*
X87183671Y-17823734D01*
X86977517Y-17919865D01*
X86791179Y-18050342D01*
X86630342Y-18211179D01*
X86499865Y-18397517D01*
X86403734Y-18603673D01*
X86403730Y-18603682D01*
X86344860Y-18823389D01*
X86344858Y-18823398D01*
X86338026Y-18901490D01*
X86312573Y-18966558D01*
X86255982Y-19007536D01*
X86203691Y-19014209D01*
X86169024Y-19011176D01*
X85487952Y-19692247D01*
X85475164Y-19611502D01*
X85417640Y-19498605D01*
X85328044Y-19409009D01*
X85215147Y-19351485D01*
X85134399Y-19338696D01*
X85815471Y-18657624D01*
X85815470Y-18657623D01*
X85742482Y-18606516D01*
X85742480Y-18606515D01*
X85536325Y-18510384D01*
X85536316Y-18510380D01*
X85316609Y-18451510D01*
X85316598Y-18451508D01*
X85090001Y-18431684D01*
X85089997Y-18431684D01*
X84863399Y-18451508D01*
X84863388Y-18451510D01*
X84643681Y-18510380D01*
X84643672Y-18510384D01*
X84437512Y-18606518D01*
X84364526Y-18657622D01*
X84364525Y-18657623D01*
X85045599Y-19338696D01*
X84964851Y-19351485D01*
X84851954Y-19409009D01*
X84762358Y-19498605D01*
X84704834Y-19611502D01*
X84692045Y-19692249D01*
X84010971Y-19011176D01*
X83985306Y-19013422D01*
X83916806Y-18999655D01*
X83866623Y-18951040D01*
X83850499Y-18889895D01*
X83850499Y-18202128D01*
X83844091Y-18142517D01*
X83843753Y-18141612D01*
X83793797Y-18007671D01*
X83793793Y-18007664D01*
X83707547Y-17892455D01*
X83707544Y-17892452D01*
X83592335Y-17806206D01*
X83592328Y-17806202D01*
X83457482Y-17755908D01*
X83457483Y-17755908D01*
X83397883Y-17749501D01*
X83397881Y-17749500D01*
X83397873Y-17749500D01*
X83397864Y-17749500D01*
X81702129Y-17749500D01*
X81702123Y-17749501D01*
X81642516Y-17755908D01*
X81507671Y-17806202D01*
X81507664Y-17806206D01*
X81392455Y-17892452D01*
X81392452Y-17892455D01*
X81306206Y-18007664D01*
X81306202Y-18007671D01*
X81255908Y-18142516D01*
X81252137Y-18177596D01*
X81225398Y-18242146D01*
X81168006Y-18281994D01*
X81098180Y-18284487D01*
X81038092Y-18248834D01*
X81027273Y-18235462D01*
X81010045Y-18210858D01*
X80849141Y-18049954D01*
X80662734Y-17919432D01*
X80662732Y-17919431D01*
X80456497Y-17823261D01*
X80456488Y-17823258D01*
X80236697Y-17764366D01*
X80236693Y-17764365D01*
X80236692Y-17764365D01*
X80236691Y-17764364D01*
X80236686Y-17764364D01*
X80010002Y-17744532D01*
X80009998Y-17744532D01*
X79783313Y-17764364D01*
X79783302Y-17764366D01*
X79563511Y-17823258D01*
X79563502Y-17823261D01*
X79357267Y-17919431D01*
X79357265Y-17919432D01*
X79170858Y-18049954D01*
X79009954Y-18210858D01*
X78879432Y-18397265D01*
X78879431Y-18397267D01*
X78860310Y-18438272D01*
X78854138Y-18451510D01*
X78852382Y-18455275D01*
X78806209Y-18507714D01*
X78739016Y-18526866D01*
X78672135Y-18506650D01*
X78627618Y-18455275D01*
X78600568Y-18397266D01*
X78487273Y-18235462D01*
X78470045Y-18210858D01*
X78309141Y-18049954D01*
X78122734Y-17919432D01*
X78122732Y-17919431D01*
X77916497Y-17823261D01*
X77916488Y-17823258D01*
X77696697Y-17764366D01*
X77696693Y-17764365D01*
X77696692Y-17764365D01*
X77696691Y-17764364D01*
X77696686Y-17764364D01*
X77470002Y-17744532D01*
X77469998Y-17744532D01*
X77243313Y-17764364D01*
X77243302Y-17764366D01*
X77023511Y-17823258D01*
X77023502Y-17823261D01*
X76817267Y-17919431D01*
X76817265Y-17919432D01*
X76630858Y-18049954D01*
X76469954Y-18210858D01*
X76339432Y-18397265D01*
X76339431Y-18397267D01*
X76320310Y-18438272D01*
X76314138Y-18451510D01*
X76312382Y-18455275D01*
X76266209Y-18507714D01*
X76199016Y-18526866D01*
X76132135Y-18506650D01*
X76087618Y-18455275D01*
X76060568Y-18397266D01*
X75947273Y-18235462D01*
X75930045Y-18210858D01*
X75769141Y-18049954D01*
X75582734Y-17919432D01*
X75582732Y-17919431D01*
X75376497Y-17823261D01*
X75376488Y-17823258D01*
X75156697Y-17764366D01*
X75156693Y-17764365D01*
X75156692Y-17764365D01*
X75156691Y-17764364D01*
X75156686Y-17764364D01*
X74930002Y-17744532D01*
X74929998Y-17744532D01*
X74703313Y-17764364D01*
X74703302Y-17764366D01*
X74483511Y-17823258D01*
X74483502Y-17823261D01*
X74277267Y-17919431D01*
X74277265Y-17919432D01*
X74090858Y-18049954D01*
X73929954Y-18210858D01*
X73799432Y-18397265D01*
X73799431Y-18397267D01*
X73780310Y-18438272D01*
X73774138Y-18451510D01*
X73772382Y-18455275D01*
X73726209Y-18507714D01*
X73659016Y-18526866D01*
X73592135Y-18506650D01*
X73547618Y-18455275D01*
X73520568Y-18397266D01*
X73407273Y-18235462D01*
X73390045Y-18210858D01*
X73229141Y-18049954D01*
X73042734Y-17919432D01*
X73042732Y-17919431D01*
X72836497Y-17823261D01*
X72836488Y-17823258D01*
X72616697Y-17764366D01*
X72616693Y-17764365D01*
X72616692Y-17764365D01*
X72616691Y-17764364D01*
X72616686Y-17764364D01*
X72390002Y-17744532D01*
X72389998Y-17744532D01*
X72163313Y-17764364D01*
X72163302Y-17764366D01*
X71943511Y-17823258D01*
X71943502Y-17823261D01*
X71737267Y-17919431D01*
X71737265Y-17919432D01*
X71550858Y-18049954D01*
X71389954Y-18210858D01*
X71259432Y-18397265D01*
X71259431Y-18397267D01*
X71240310Y-18438272D01*
X71234138Y-18451510D01*
X71232382Y-18455275D01*
X71186209Y-18507714D01*
X71119016Y-18526866D01*
X71052135Y-18506650D01*
X71007618Y-18455275D01*
X70980568Y-18397266D01*
X70867273Y-18235462D01*
X70850045Y-18210858D01*
X70689141Y-18049954D01*
X70502734Y-17919432D01*
X70502732Y-17919431D01*
X70296497Y-17823261D01*
X70296488Y-17823258D01*
X70076697Y-17764366D01*
X70076693Y-17764365D01*
X70076692Y-17764365D01*
X70076691Y-17764364D01*
X70076686Y-17764364D01*
X69850002Y-17744532D01*
X69849998Y-17744532D01*
X69623313Y-17764364D01*
X69623302Y-17764366D01*
X69403511Y-17823258D01*
X69403502Y-17823261D01*
X69197267Y-17919431D01*
X69197265Y-17919432D01*
X69010858Y-18049954D01*
X68849954Y-18210858D01*
X68719432Y-18397265D01*
X68719431Y-18397267D01*
X68700310Y-18438272D01*
X68694138Y-18451510D01*
X68692382Y-18455275D01*
X68646209Y-18507714D01*
X68579016Y-18526866D01*
X68512135Y-18506650D01*
X68467618Y-18455275D01*
X68440568Y-18397266D01*
X68327273Y-18235462D01*
X68310045Y-18210858D01*
X68149141Y-18049954D01*
X67962734Y-17919432D01*
X67962732Y-17919431D01*
X67756497Y-17823261D01*
X67756488Y-17823258D01*
X67536697Y-17764366D01*
X67536693Y-17764365D01*
X67536692Y-17764365D01*
X67536691Y-17764364D01*
X67536686Y-17764364D01*
X67310002Y-17744532D01*
X67309998Y-17744532D01*
X67083313Y-17764364D01*
X67083302Y-17764366D01*
X66863511Y-17823258D01*
X66863502Y-17823261D01*
X66657267Y-17919431D01*
X66657265Y-17919432D01*
X66470858Y-18049954D01*
X66309954Y-18210858D01*
X66182192Y-18393324D01*
X66179432Y-18397266D01*
X66154138Y-18451510D01*
X66152106Y-18455867D01*
X66105933Y-18508306D01*
X66038739Y-18527457D01*
X65971858Y-18507241D01*
X65927342Y-18455865D01*
X65900135Y-18397520D01*
X65900134Y-18397518D01*
X65769657Y-18211179D01*
X65608820Y-18050342D01*
X65422482Y-17919865D01*
X65216328Y-17823734D01*
X65019999Y-17771127D01*
X65019999Y-18734313D01*
X65008045Y-18722359D01*
X64895148Y-18664835D01*
X64801481Y-18650000D01*
X64738519Y-18650000D01*
X64644852Y-18664835D01*
X64531955Y-18722359D01*
X64519999Y-18734314D01*
X64520000Y-17771127D01*
X64323671Y-17823734D01*
X64117517Y-17919865D01*
X63931179Y-18050342D01*
X63770342Y-18211179D01*
X63639865Y-18397517D01*
X63543734Y-18603673D01*
X63543730Y-18603682D01*
X63491127Y-18799999D01*
X63491128Y-18800000D01*
X64454314Y-18800000D01*
X64442359Y-18811955D01*
X64384835Y-18924852D01*
X64365014Y-19050000D01*
X64384835Y-19175148D01*
X64442359Y-19288045D01*
X64454314Y-19300000D01*
X63491128Y-19300000D01*
X63534912Y-19463407D01*
X63533249Y-19533257D01*
X63494086Y-19591119D01*
X63429858Y-19618623D01*
X63415137Y-19619500D01*
X58490843Y-19619500D01*
X58423804Y-19599815D01*
X58378049Y-19547011D01*
X58368105Y-19477853D01*
X58371068Y-19463406D01*
X58418872Y-19285000D01*
X57455686Y-19285000D01*
X57467641Y-19273045D01*
X57525165Y-19160148D01*
X57544986Y-19035000D01*
X57525165Y-18909852D01*
X57467641Y-18796955D01*
X57455686Y-18785000D01*
X58418872Y-18785000D01*
X58418872Y-18784999D01*
X58366269Y-18588682D01*
X58366265Y-18588673D01*
X58270134Y-18382517D01*
X58139657Y-18196179D01*
X57978820Y-18035342D01*
X57792482Y-17904865D01*
X57586328Y-17808734D01*
X57389999Y-17756127D01*
X57389999Y-18719313D01*
X57378045Y-18707359D01*
X57265148Y-18649835D01*
X57171481Y-18635000D01*
X57108519Y-18635000D01*
X57014852Y-18649835D01*
X56901955Y-18707359D01*
X56889999Y-18719314D01*
X56890000Y-17756127D01*
X56693671Y-17808734D01*
X56487517Y-17904865D01*
X56301179Y-18035342D01*
X56140342Y-18196179D01*
X56009865Y-18382517D01*
X55913734Y-18588673D01*
X55913730Y-18588682D01*
X55861127Y-18784999D01*
X55861128Y-18785000D01*
X56824314Y-18785000D01*
X56812359Y-18796955D01*
X56754835Y-18909852D01*
X56735014Y-19035000D01*
X56754835Y-19160148D01*
X56812359Y-19273045D01*
X56824314Y-19285000D01*
X55861128Y-19285000D01*
X55908932Y-19463406D01*
X55907269Y-19533256D01*
X55868107Y-19591119D01*
X55803878Y-19618623D01*
X55789157Y-19619500D01*
X50871361Y-19619500D01*
X50804322Y-19599815D01*
X50758567Y-19547011D01*
X50748623Y-19477853D01*
X50751586Y-19463407D01*
X50759153Y-19435165D01*
X50805635Y-19261692D01*
X50824156Y-19049999D01*
X50825468Y-19035001D01*
X50825468Y-19034998D01*
X50818122Y-18951040D01*
X50805635Y-18808308D01*
X50750758Y-18603504D01*
X50746741Y-18588511D01*
X50746738Y-18588502D01*
X50745732Y-18586344D01*
X50650568Y-18382266D01*
X50539434Y-18223549D01*
X50520045Y-18195858D01*
X50359141Y-18034954D01*
X50172734Y-17904432D01*
X50172732Y-17904431D01*
X49966497Y-17808261D01*
X49966488Y-17808258D01*
X49746697Y-17749366D01*
X49746693Y-17749365D01*
X49746692Y-17749365D01*
X49746691Y-17749364D01*
X49746686Y-17749364D01*
X49520002Y-17729532D01*
X49519998Y-17729532D01*
X49293313Y-17749364D01*
X49293302Y-17749366D01*
X49073511Y-17808258D01*
X49073502Y-17808261D01*
X48867267Y-17904431D01*
X48867265Y-17904432D01*
X48680862Y-18034951D01*
X48537858Y-18177955D01*
X48476535Y-18211439D01*
X48406843Y-18206455D01*
X48350910Y-18164583D01*
X48326887Y-18103526D01*
X48324091Y-18077516D01*
X48273797Y-17942671D01*
X48273793Y-17942664D01*
X48187547Y-17827455D01*
X48187544Y-17827452D01*
X48072335Y-17741206D01*
X48072328Y-17741202D01*
X47937482Y-17690908D01*
X47937483Y-17690908D01*
X47877883Y-17684501D01*
X47877881Y-17684500D01*
X47877873Y-17684500D01*
X47877864Y-17684500D01*
X46082129Y-17684500D01*
X46082123Y-17684501D01*
X46022516Y-17690908D01*
X45887671Y-17741202D01*
X45887664Y-17741206D01*
X45772455Y-17827452D01*
X45772452Y-17827455D01*
X45686206Y-17942664D01*
X45686203Y-17942669D01*
X45637189Y-18074083D01*
X45595317Y-18130016D01*
X45529853Y-18154433D01*
X45461580Y-18139581D01*
X45433326Y-18118430D01*
X45311402Y-17996506D01*
X45311395Y-17996501D01*
X45117834Y-17860967D01*
X45117830Y-17860965D01*
X45100342Y-17852810D01*
X44903663Y-17761097D01*
X44903659Y-17761096D01*
X44903655Y-17761094D01*
X44675413Y-17699938D01*
X44675403Y-17699936D01*
X44440001Y-17679341D01*
X44439999Y-17679341D01*
X44204596Y-17699936D01*
X44204586Y-17699938D01*
X43976344Y-17761094D01*
X43976335Y-17761098D01*
X43762171Y-17860964D01*
X43762169Y-17860965D01*
X43568597Y-17996505D01*
X43401505Y-18163597D01*
X43265965Y-18357169D01*
X43265964Y-18357171D01*
X43166098Y-18571335D01*
X43166094Y-18571344D01*
X43104938Y-18799586D01*
X43104936Y-18799596D01*
X43084341Y-19034999D01*
X43084341Y-19035000D01*
X43104936Y-19270403D01*
X43104938Y-19270413D01*
X43156650Y-19463407D01*
X43154987Y-19533257D01*
X43115824Y-19591119D01*
X43051596Y-19618623D01*
X43036875Y-19619500D01*
X41714812Y-19619500D01*
X41711067Y-19619387D01*
X41649160Y-19615642D01*
X41649153Y-19615642D01*
X41588150Y-19626821D01*
X41584449Y-19627384D01*
X41522892Y-19634859D01*
X41522885Y-19634861D01*
X41513411Y-19638454D01*
X41491813Y-19644475D01*
X41481833Y-19646304D01*
X41425283Y-19671755D01*
X41421824Y-19673188D01*
X41363835Y-19695181D01*
X41363830Y-19695184D01*
X41355486Y-19700943D01*
X41335951Y-19711961D01*
X41326711Y-19716120D01*
X41326709Y-19716121D01*
X41277900Y-19754359D01*
X41274886Y-19756576D01*
X41223834Y-19791817D01*
X41223832Y-19791818D01*
X41182706Y-19838240D01*
X41180139Y-19840966D01*
X39532926Y-21488181D01*
X39471603Y-21521666D01*
X39445245Y-21524500D01*
X37649500Y-21524500D01*
X37582461Y-21504815D01*
X37536706Y-21452011D01*
X37525500Y-21400500D01*
X37525500Y-20201672D01*
X37545185Y-20134633D01*
X37578375Y-20100098D01*
X37664139Y-20040047D01*
X37825047Y-19879139D01*
X37955568Y-19692734D01*
X37982618Y-19634724D01*
X38028790Y-19582285D01*
X38095983Y-19563133D01*
X38162865Y-19583348D01*
X38207382Y-19634725D01*
X38234429Y-19692728D01*
X38234432Y-19692734D01*
X38364954Y-19879141D01*
X38525858Y-20040045D01*
X38539583Y-20049655D01*
X38712266Y-20170568D01*
X38918504Y-20266739D01*
X39138308Y-20325635D01*
X39296786Y-20339500D01*
X39364998Y-20345468D01*
X39365000Y-20345468D01*
X39365002Y-20345468D01*
X39433214Y-20339500D01*
X39591692Y-20325635D01*
X39811496Y-20266739D01*
X40017734Y-20170568D01*
X40204139Y-20040047D01*
X40365047Y-19879139D01*
X40495568Y-19692734D01*
X40591739Y-19486496D01*
X40650635Y-19266692D01*
X40670468Y-19040000D01*
X40670030Y-19034999D01*
X40660394Y-18924852D01*
X40650635Y-18813308D01*
X40594464Y-18603673D01*
X40591741Y-18593511D01*
X40591738Y-18593502D01*
X40589407Y-18588504D01*
X40495568Y-18387266D01*
X40380933Y-18223549D01*
X40365045Y-18200858D01*
X40204141Y-18039954D01*
X40017734Y-17909432D01*
X40017732Y-17909431D01*
X39811497Y-17813261D01*
X39811488Y-17813258D01*
X39591697Y-17754366D01*
X39591693Y-17754365D01*
X39591692Y-17754365D01*
X39591691Y-17754364D01*
X39591686Y-17754364D01*
X39365002Y-17734532D01*
X39364998Y-17734532D01*
X39138313Y-17754364D01*
X39138302Y-17754366D01*
X38918511Y-17813258D01*
X38918502Y-17813261D01*
X38712267Y-17909431D01*
X38712265Y-17909432D01*
X38525858Y-18039954D01*
X38364954Y-18200858D01*
X38234432Y-18387265D01*
X38234431Y-18387267D01*
X38207382Y-18445275D01*
X38161209Y-18497714D01*
X38094016Y-18516866D01*
X38027135Y-18496650D01*
X37982618Y-18445275D01*
X37982618Y-18445274D01*
X37955568Y-18387266D01*
X37840933Y-18223549D01*
X37825045Y-18200858D01*
X37664141Y-18039954D01*
X37477734Y-17909432D01*
X37477732Y-17909431D01*
X37271497Y-17813261D01*
X37271488Y-17813258D01*
X37051697Y-17754366D01*
X37051693Y-17754365D01*
X37051692Y-17754365D01*
X37051691Y-17754364D01*
X37051686Y-17754364D01*
X36825002Y-17734532D01*
X36824998Y-17734532D01*
X36598313Y-17754364D01*
X36598302Y-17754366D01*
X36378511Y-17813258D01*
X36378502Y-17813261D01*
X36172267Y-17909431D01*
X36172265Y-17909432D01*
X35985858Y-18039954D01*
X35824954Y-18200858D01*
X35694432Y-18387265D01*
X35694431Y-18387267D01*
X35667382Y-18445275D01*
X35621209Y-18497714D01*
X35554016Y-18516866D01*
X35487135Y-18496650D01*
X35442618Y-18445275D01*
X35442618Y-18445274D01*
X35415568Y-18387266D01*
X35300933Y-18223549D01*
X35285045Y-18200858D01*
X35124141Y-18039954D01*
X34937734Y-17909432D01*
X34937732Y-17909431D01*
X34731497Y-17813261D01*
X34731488Y-17813258D01*
X34511697Y-17754366D01*
X34511693Y-17754365D01*
X34511692Y-17754365D01*
X34511691Y-17754364D01*
X34511686Y-17754364D01*
X34285002Y-17734532D01*
X34284998Y-17734532D01*
X34058313Y-17754364D01*
X34058302Y-17754366D01*
X33838511Y-17813258D01*
X33838502Y-17813261D01*
X33632267Y-17909431D01*
X33465908Y-18025915D01*
X33399702Y-18048242D01*
X33331935Y-18031230D01*
X33284122Y-17980282D01*
X33271445Y-17911572D01*
X33291220Y-17861028D01*
X33289546Y-17860114D01*
X33293795Y-17852332D01*
X33293796Y-17852331D01*
X33344091Y-17717483D01*
X33350500Y-17657873D01*
X33350499Y-15364499D01*
X33370184Y-15297461D01*
X33422987Y-15251706D01*
X33474499Y-15240500D01*
X96065500Y-15240500D01*
X96132539Y-15260185D01*
G37*
%TD.AperFunction*%
%TD*%
%TA.AperFunction,NonConductor*%
G36*
X106996498Y-17780185D02*
G01*
X107042253Y-17832989D01*
X107052197Y-17902147D01*
X107034997Y-17949597D01*
X106947036Y-18092201D01*
X106947028Y-18092218D01*
X106934704Y-18129411D01*
X106894931Y-18186856D01*
X106830415Y-18213678D01*
X106761639Y-18201362D01*
X106710440Y-18153819D01*
X106700817Y-18133739D01*
X106653797Y-18007671D01*
X106653795Y-18007668D01*
X106645438Y-17996505D01*
X106629066Y-17974634D01*
X106617221Y-17958811D01*
X106592804Y-17893347D01*
X106607656Y-17825074D01*
X106657061Y-17775668D01*
X106716488Y-17760500D01*
X106929459Y-17760500D01*
X106996498Y-17780185D01*
G37*
%TD.AperFunction*%
%TA.AperFunction,NonConductor*%
G36*
X15408804Y-17802184D02*
G01*
X15409359Y-17800697D01*
X15549081Y-17852810D01*
X15605015Y-17894681D01*
X15629432Y-17960145D01*
X15614580Y-18028418D01*
X15593430Y-18056673D01*
X15471502Y-18178601D01*
X15466074Y-18186354D01*
X15411497Y-18229979D01*
X15341998Y-18237171D01*
X15279644Y-18205648D01*
X15244231Y-18145418D01*
X15240500Y-18115230D01*
X15240500Y-17916045D01*
X15260185Y-17849006D01*
X15312989Y-17803251D01*
X15382147Y-17793307D01*
X15408804Y-17802184D01*
G37*
%TD.AperFunction*%
%TA.AperFunction,NonConductor*%
G36*
X119329773Y-17816750D02*
G01*
X119371666Y-17872668D01*
X119379500Y-17916045D01*
X119379500Y-18115230D01*
X119359815Y-18182269D01*
X119307011Y-18228024D01*
X119237853Y-18237968D01*
X119174297Y-18208943D01*
X119153926Y-18186354D01*
X119148497Y-18178601D01*
X119088326Y-18118430D01*
X119026567Y-18056671D01*
X118993084Y-17995351D01*
X118998068Y-17925659D01*
X119039939Y-17869725D01*
X119070915Y-17852810D01*
X119115853Y-17836050D01*
X119210641Y-17800697D01*
X119211798Y-17803799D01*
X119264300Y-17792358D01*
X119329773Y-17816750D01*
G37*
%TD.AperFunction*%
%TA.AperFunction,NonConductor*%
G36*
X33226906Y-18043589D02*
G01*
X33276316Y-18092990D01*
X33291175Y-18161261D01*
X33269066Y-18223549D01*
X33154431Y-18387267D01*
X33154430Y-18387268D01*
X33127380Y-18445277D01*
X33081207Y-18497715D01*
X33014013Y-18516866D01*
X32947132Y-18496649D01*
X32902619Y-18445277D01*
X32875568Y-18387266D01*
X32817317Y-18304074D01*
X32794991Y-18237871D01*
X32812001Y-18170104D01*
X32862949Y-18122291D01*
X32905640Y-18109664D01*
X32957483Y-18104091D01*
X32989316Y-18092218D01*
X33092331Y-18053796D01*
X33093172Y-18053166D01*
X33094157Y-18052798D01*
X33100114Y-18049546D01*
X33100581Y-18050401D01*
X33158632Y-18028744D01*
X33226906Y-18043589D01*
G37*
%TD.AperFunction*%
%TA.AperFunction,NonConductor*%
G36*
X30385804Y-18037428D02*
G01*
X30393929Y-18043510D01*
X30402535Y-18049953D01*
X30407668Y-18053795D01*
X30407671Y-18053797D01*
X30415385Y-18056674D01*
X30542517Y-18104091D01*
X30585064Y-18108665D01*
X30649612Y-18135402D01*
X30689460Y-18192794D01*
X30691954Y-18262620D01*
X30673381Y-18303077D01*
X30614432Y-18387265D01*
X30614431Y-18387267D01*
X30587382Y-18445275D01*
X30541209Y-18497714D01*
X30474016Y-18516866D01*
X30407135Y-18496650D01*
X30362618Y-18445275D01*
X30362618Y-18445274D01*
X30335568Y-18387266D01*
X30209917Y-18207817D01*
X30187591Y-18141612D01*
X30204601Y-18073845D01*
X30255550Y-18026032D01*
X30324259Y-18013354D01*
X30385804Y-18037428D01*
G37*
%TD.AperFunction*%
%TA.AperFunction,NonConductor*%
G36*
X30092539Y-15260185D02*
G01*
X30138294Y-15312989D01*
X30149500Y-15364500D01*
X30149500Y-17657870D01*
X30149501Y-17657876D01*
X30155908Y-17717483D01*
X30206202Y-17852328D01*
X30206203Y-17852330D01*
X30215497Y-17864745D01*
X30239913Y-17930210D01*
X30225061Y-17998483D01*
X30175655Y-18047888D01*
X30107382Y-18062739D01*
X30045106Y-18040630D01*
X29857734Y-17909432D01*
X29857732Y-17909431D01*
X29651497Y-17813261D01*
X29651488Y-17813258D01*
X29431697Y-17754366D01*
X29431693Y-17754365D01*
X29431692Y-17754365D01*
X29431691Y-17754364D01*
X29431686Y-17754364D01*
X29205002Y-17734532D01*
X29204998Y-17734532D01*
X28978313Y-17754364D01*
X28978302Y-17754366D01*
X28758511Y-17813258D01*
X28758502Y-17813261D01*
X28552267Y-17909431D01*
X28552265Y-17909432D01*
X28365858Y-18039954D01*
X28204954Y-18200858D01*
X28074432Y-18387265D01*
X28074431Y-18387267D01*
X28047382Y-18445275D01*
X28001209Y-18497714D01*
X27934016Y-18516866D01*
X27867135Y-18496650D01*
X27822618Y-18445275D01*
X27822618Y-18445274D01*
X27795568Y-18387266D01*
X27680933Y-18223549D01*
X27665045Y-18200858D01*
X27504141Y-18039954D01*
X27317734Y-17909432D01*
X27317732Y-17909431D01*
X27111497Y-17813261D01*
X27111488Y-17813258D01*
X26891697Y-17754366D01*
X26891693Y-17754365D01*
X26891692Y-17754365D01*
X26891691Y-17754364D01*
X26891686Y-17754364D01*
X26665002Y-17734532D01*
X26664998Y-17734532D01*
X26438313Y-17754364D01*
X26438302Y-17754366D01*
X26218511Y-17813258D01*
X26218502Y-17813261D01*
X26012267Y-17909431D01*
X26012265Y-17909432D01*
X25825858Y-18039954D01*
X25664954Y-18200858D01*
X25534432Y-18387265D01*
X25534431Y-18387267D01*
X25507382Y-18445275D01*
X25461209Y-18497714D01*
X25394016Y-18516866D01*
X25327135Y-18496650D01*
X25282618Y-18445275D01*
X25282618Y-18445274D01*
X25255568Y-18387266D01*
X25140933Y-18223549D01*
X25125045Y-18200858D01*
X24973674Y-18049487D01*
X24940189Y-17988164D01*
X24945173Y-17918472D01*
X24987045Y-17862539D01*
X24996553Y-17856086D01*
X25073659Y-17808836D01*
X25265224Y-17645224D01*
X25428836Y-17453659D01*
X25560466Y-17238859D01*
X25656873Y-17006111D01*
X25715683Y-16761148D01*
X25735449Y-16510000D01*
X25715683Y-16258852D01*
X25656873Y-16013889D01*
X25560466Y-15781141D01*
X25560466Y-15781140D01*
X25428839Y-15566346D01*
X25428838Y-15566343D01*
X25325228Y-15445032D01*
X25296657Y-15381270D01*
X25307094Y-15312184D01*
X25353225Y-15259709D01*
X25419518Y-15240500D01*
X30025500Y-15240500D01*
X30092539Y-15260185D01*
G37*
%TD.AperFunction*%
%TA.AperFunction,NonConductor*%
G36*
X104187521Y-15260185D02*
G01*
X104233276Y-15312989D01*
X104243220Y-15382147D01*
X104214772Y-15445032D01*
X104111161Y-15566343D01*
X104111160Y-15566346D01*
X103979533Y-15781140D01*
X103883126Y-16013889D01*
X103824317Y-16258848D01*
X103804551Y-16510000D01*
X103824317Y-16761151D01*
X103883126Y-17006110D01*
X103979533Y-17238859D01*
X104111160Y-17453653D01*
X104111161Y-17453656D01*
X104238142Y-17602331D01*
X104274776Y-17645224D01*
X104300745Y-17667403D01*
X104338938Y-17725909D01*
X104339437Y-17795777D01*
X104302083Y-17854824D01*
X104294525Y-17860959D01*
X104252452Y-17892455D01*
X104166206Y-18007664D01*
X104166202Y-18007671D01*
X104115908Y-18142516D01*
X104112137Y-18177596D01*
X104085398Y-18242146D01*
X104028006Y-18281994D01*
X103958180Y-18284487D01*
X103898092Y-18248834D01*
X103887273Y-18235462D01*
X103870045Y-18210858D01*
X103709141Y-18049954D01*
X103522734Y-17919432D01*
X103522732Y-17919431D01*
X103316497Y-17823261D01*
X103316488Y-17823258D01*
X103096697Y-17764366D01*
X103096693Y-17764365D01*
X103096692Y-17764365D01*
X103096691Y-17764364D01*
X103096686Y-17764364D01*
X102870002Y-17744532D01*
X102869998Y-17744532D01*
X102643313Y-17764364D01*
X102643302Y-17764366D01*
X102423511Y-17823258D01*
X102423502Y-17823261D01*
X102217267Y-17919431D01*
X102217265Y-17919432D01*
X102030858Y-18049954D01*
X101869954Y-18210858D01*
X101739432Y-18397265D01*
X101739431Y-18397267D01*
X101720310Y-18438272D01*
X101714138Y-18451510D01*
X101712382Y-18455275D01*
X101666209Y-18507714D01*
X101599016Y-18526866D01*
X101532135Y-18506650D01*
X101487618Y-18455275D01*
X101460568Y-18397266D01*
X101347273Y-18235462D01*
X101330045Y-18210858D01*
X101169141Y-18049954D01*
X100982734Y-17919432D01*
X100982732Y-17919431D01*
X100776497Y-17823261D01*
X100776488Y-17823258D01*
X100556697Y-17764366D01*
X100556693Y-17764365D01*
X100556692Y-17764365D01*
X100556691Y-17764364D01*
X100556686Y-17764364D01*
X100330002Y-17744532D01*
X100329998Y-17744532D01*
X100103313Y-17764364D01*
X100103302Y-17764366D01*
X99883511Y-17823258D01*
X99883502Y-17823261D01*
X99677267Y-17919431D01*
X99677265Y-17919432D01*
X99486426Y-18053058D01*
X99485397Y-18051589D01*
X99428715Y-18076376D01*
X99359726Y-18065316D01*
X99307669Y-18018714D01*
X99289070Y-17951365D01*
X99309836Y-17884652D01*
X99313788Y-17879058D01*
X99333796Y-17852331D01*
X99384091Y-17717483D01*
X99390500Y-17657873D01*
X99390499Y-15364499D01*
X99410184Y-15297461D01*
X99462987Y-15251706D01*
X99514499Y-15240500D01*
X104120482Y-15240500D01*
X104187521Y-15260185D01*
G37*
%TD.AperFunction*%
%TA.AperFunction,NonConductor*%
G36*
X99292793Y-18024220D02*
G01*
X99342200Y-18073624D01*
X99357053Y-18141897D01*
X99333001Y-18206386D01*
X99333058Y-18206426D01*
X99332906Y-18206642D01*
X99332638Y-18207362D01*
X99330618Y-18209910D01*
X99199432Y-18397265D01*
X99199431Y-18397267D01*
X99180310Y-18438272D01*
X99174138Y-18451510D01*
X99172382Y-18455275D01*
X99126209Y-18507714D01*
X99059016Y-18526866D01*
X98992135Y-18506650D01*
X98947618Y-18455275D01*
X98920568Y-18397266D01*
X98855457Y-18304277D01*
X98833130Y-18238070D01*
X98850141Y-18170303D01*
X98901089Y-18122491D01*
X98943779Y-18109864D01*
X98997483Y-18104091D01*
X99062731Y-18079755D01*
X99132331Y-18053796D01*
X99159057Y-18033788D01*
X99224520Y-18009370D01*
X99292793Y-18024220D01*
G37*
%TD.AperFunction*%
%TA.AperFunction,NonConductor*%
G36*
X96415320Y-18029818D02*
G01*
X96420938Y-18033785D01*
X96442535Y-18049953D01*
X96447668Y-18053795D01*
X96447671Y-18053797D01*
X96455385Y-18056674D01*
X96582517Y-18104091D01*
X96636225Y-18109865D01*
X96700773Y-18136602D01*
X96740621Y-18193995D01*
X96743115Y-18263820D01*
X96724543Y-18304276D01*
X96659431Y-18397267D01*
X96640310Y-18438272D01*
X96634138Y-18451510D01*
X96632382Y-18455275D01*
X96586209Y-18507714D01*
X96519016Y-18526866D01*
X96452135Y-18506650D01*
X96407618Y-18455275D01*
X96380568Y-18397266D01*
X96301600Y-18284487D01*
X96246942Y-18206426D01*
X96248416Y-18205393D01*
X96223627Y-18148747D01*
X96234669Y-18079755D01*
X96281258Y-18027686D01*
X96348602Y-18009070D01*
X96415320Y-18029818D01*
G37*
%TD.AperFunction*%
%TA.AperFunction,NonConductor*%
G36*
X23151040Y-17780185D02*
G01*
X23164529Y-17790207D01*
X23186341Y-17808836D01*
X23186343Y-17808837D01*
X23186344Y-17808838D01*
X23186346Y-17808839D01*
X23257234Y-17852280D01*
X23304109Y-17904092D01*
X23315532Y-17973021D01*
X23287875Y-18037184D01*
X23280125Y-18045688D01*
X23124954Y-18200858D01*
X22994432Y-18387265D01*
X22994431Y-18387267D01*
X22898261Y-18593502D01*
X22898259Y-18593509D01*
X22865810Y-18714611D01*
X22829445Y-18774271D01*
X22766598Y-18804800D01*
X22697222Y-18796505D01*
X22658354Y-18770198D01*
X22599688Y-18711532D01*
X22566203Y-18650209D01*
X22564012Y-18611244D01*
X22565498Y-18596694D01*
X22565500Y-18596677D01*
X22565499Y-17923324D01*
X22564880Y-17917267D01*
X22562821Y-17897099D01*
X22575592Y-17828407D01*
X22623473Y-17777523D01*
X22686179Y-17760500D01*
X23084001Y-17760500D01*
X23151040Y-17780185D01*
G37*
%TD.AperFunction*%
%TA.AperFunction,NonConductor*%
G36*
X116985600Y-17780185D02*
G01*
X116992872Y-17785233D01*
X117013529Y-17800697D01*
X117017668Y-17803795D01*
X117017671Y-17803797D01*
X117149081Y-17852810D01*
X117205015Y-17894681D01*
X117229432Y-17960145D01*
X117214580Y-18028418D01*
X117193430Y-18056673D01*
X117071503Y-18178600D01*
X116935965Y-18372169D01*
X116935964Y-18372171D01*
X116836098Y-18586335D01*
X116836094Y-18586344D01*
X116774938Y-18814586D01*
X116774936Y-18814596D01*
X116754341Y-19049999D01*
X116754341Y-19050001D01*
X116772977Y-19263012D01*
X116759210Y-19331512D01*
X116737130Y-19361500D01*
X116585449Y-19513182D01*
X116524129Y-19546666D01*
X116497770Y-19549500D01*
X112712368Y-19549500D01*
X112645329Y-19529815D01*
X112599574Y-19477011D01*
X112589630Y-19407853D01*
X112606830Y-19360403D01*
X112670903Y-19256524D01*
X112670902Y-19256524D01*
X112670908Y-19256516D01*
X112725174Y-19092753D01*
X112735500Y-18991677D01*
X112735499Y-18393324D01*
X112734880Y-18387268D01*
X112725174Y-18292247D01*
X112715754Y-18263820D01*
X112670908Y-18128484D01*
X112580340Y-17981650D01*
X112570871Y-17972181D01*
X112537386Y-17910858D01*
X112542370Y-17841166D01*
X112584242Y-17785233D01*
X112649706Y-17760816D01*
X112658552Y-17760500D01*
X116918561Y-17760500D01*
X116985600Y-17780185D01*
G37*
%TD.AperFunction*%
%TA.AperFunction,NonConductor*%
G36*
X106915701Y-19153185D02*
G01*
X106942725Y-19188986D01*
X106943240Y-19188669D01*
X106946606Y-19194127D01*
X106946879Y-19194488D01*
X106947033Y-19194818D01*
X107037537Y-19341547D01*
X107042018Y-19347214D01*
X107039866Y-19348914D01*
X107067293Y-19399142D01*
X107062309Y-19468834D01*
X107020437Y-19524767D01*
X106954973Y-19549184D01*
X106946127Y-19549500D01*
X106834500Y-19549500D01*
X106767461Y-19529815D01*
X106721706Y-19477011D01*
X106710500Y-19425501D01*
X106710500Y-19336650D01*
X106710499Y-19246896D01*
X106730183Y-19179859D01*
X106782987Y-19134104D01*
X106852145Y-19124160D01*
X106915701Y-19153185D01*
G37*
%TD.AperFunction*%
%TA.AperFunction,NonConductor*%
G36*
X91507865Y-19593348D02*
G01*
X91552382Y-19644725D01*
X91579429Y-19702728D01*
X91579432Y-19702734D01*
X91709954Y-19889141D01*
X91870854Y-20050041D01*
X91871414Y-20050511D01*
X91871592Y-20050779D01*
X91874689Y-20053876D01*
X91874066Y-20054498D01*
X91910115Y-20108683D01*
X91911223Y-20178544D01*
X91874386Y-20237914D01*
X91811298Y-20267943D01*
X91791707Y-20269500D01*
X91088293Y-20269500D01*
X91021254Y-20249815D01*
X90975499Y-20197011D01*
X90965555Y-20127853D01*
X90994580Y-20064297D01*
X91008586Y-20050511D01*
X91009132Y-20050051D01*
X91009139Y-20050047D01*
X91170047Y-19889139D01*
X91300568Y-19702734D01*
X91327618Y-19644724D01*
X91373790Y-19592285D01*
X91440983Y-19573133D01*
X91507865Y-19593348D01*
G37*
%TD.AperFunction*%
%TA.AperFunction,NonConductor*%
G36*
X88967588Y-19592757D02*
G01*
X89012105Y-19644132D01*
X89012265Y-19644475D01*
X89039431Y-19702732D01*
X89039432Y-19702734D01*
X89169954Y-19889141D01*
X89330854Y-20050041D01*
X89331414Y-20050511D01*
X89331592Y-20050779D01*
X89334689Y-20053876D01*
X89334066Y-20054498D01*
X89370115Y-20108683D01*
X89371223Y-20178544D01*
X89334386Y-20237914D01*
X89271298Y-20267943D01*
X89251707Y-20269500D01*
X88547510Y-20269500D01*
X88480471Y-20249815D01*
X88434716Y-20197011D01*
X88424772Y-20127853D01*
X88453797Y-20064297D01*
X88467803Y-20050511D01*
X88468822Y-20049655D01*
X88629657Y-19888820D01*
X88760132Y-19702484D01*
X88787341Y-19644134D01*
X88833513Y-19591695D01*
X88900707Y-19572542D01*
X88967588Y-19592757D01*
G37*
%TD.AperFunction*%
%TA.AperFunction,NonConductor*%
G36*
X86592168Y-19837019D02*
G01*
X86604682Y-19852175D01*
X86630341Y-19888819D01*
X86791177Y-20049655D01*
X86792197Y-20050511D01*
X86792522Y-20051000D01*
X86795012Y-20053490D01*
X86794511Y-20053990D01*
X86830898Y-20108683D01*
X86832006Y-20178544D01*
X86795168Y-20237914D01*
X86732081Y-20267943D01*
X86712490Y-20269500D01*
X86454682Y-20269500D01*
X86387643Y-20249815D01*
X86341888Y-20197011D01*
X86331944Y-20127853D01*
X86334907Y-20113407D01*
X86375138Y-19963260D01*
X86375140Y-19963248D01*
X86379580Y-19912495D01*
X86405031Y-19847426D01*
X86461621Y-19806446D01*
X86531383Y-19802567D01*
X86592168Y-19837019D01*
G37*
%TD.AperFunction*%
%TA.AperFunction,NonConductor*%
G36*
X15445703Y-19891056D02*
G01*
X15466073Y-19913644D01*
X15468935Y-19917730D01*
X15471505Y-19921401D01*
X15638597Y-20088493D01*
X15638603Y-20088498D01*
X15824158Y-20218425D01*
X15867783Y-20273002D01*
X15874977Y-20342500D01*
X15843454Y-20404855D01*
X15824158Y-20421575D01*
X15638597Y-20551505D01*
X15471504Y-20718598D01*
X15466074Y-20726354D01*
X15411497Y-20769979D01*
X15341998Y-20777171D01*
X15279644Y-20745648D01*
X15244231Y-20685418D01*
X15240500Y-20655230D01*
X15240500Y-19984769D01*
X15260185Y-19917730D01*
X15312989Y-19871975D01*
X15382147Y-19862031D01*
X15445703Y-19891056D01*
G37*
%TD.AperFunction*%
%TA.AperFunction,NonConductor*%
G36*
X119340353Y-19894347D02*
G01*
X119375768Y-19954576D01*
X119379500Y-19984769D01*
X119379500Y-20655230D01*
X119359815Y-20722269D01*
X119307011Y-20768024D01*
X119237853Y-20777968D01*
X119174297Y-20748943D01*
X119153926Y-20726354D01*
X119148495Y-20718598D01*
X118981402Y-20551506D01*
X118981396Y-20551501D01*
X118795842Y-20421575D01*
X118752217Y-20366998D01*
X118745023Y-20297500D01*
X118776546Y-20235145D01*
X118795842Y-20218425D01*
X118908054Y-20139853D01*
X118981401Y-20088495D01*
X119148495Y-19921401D01*
X119153924Y-19913646D01*
X119208499Y-19870022D01*
X119277997Y-19862827D01*
X119340353Y-19894347D01*
G37*
%TD.AperFunction*%
%TA.AperFunction,NonConductor*%
G36*
X72625360Y-20354636D02*
G01*
X72655348Y-20376716D01*
X73036451Y-20757819D01*
X73069936Y-20819142D01*
X73064952Y-20888834D01*
X73023080Y-20944767D01*
X72957616Y-20969184D01*
X72948770Y-20969500D01*
X72882230Y-20969500D01*
X72815191Y-20949815D01*
X72794549Y-20933181D01*
X72418799Y-20557431D01*
X72385314Y-20496108D01*
X72390298Y-20426416D01*
X72432170Y-20370483D01*
X72495670Y-20346222D01*
X72556861Y-20340869D01*
X72625360Y-20354636D01*
G37*
%TD.AperFunction*%
%TA.AperFunction,NonConductor*%
G36*
X70085360Y-20354636D02*
G01*
X70115348Y-20376716D01*
X70740180Y-21001548D01*
X71196452Y-21457819D01*
X71229937Y-21519142D01*
X71224953Y-21588834D01*
X71183081Y-21644767D01*
X71117617Y-21669184D01*
X71108771Y-21669500D01*
X71042229Y-21669500D01*
X70975190Y-21649815D01*
X70954548Y-21633181D01*
X69878798Y-20557431D01*
X69845313Y-20496108D01*
X69850297Y-20426416D01*
X69892169Y-20370483D01*
X69955669Y-20346223D01*
X70016861Y-20340869D01*
X70085360Y-20354636D01*
G37*
%TD.AperFunction*%
%TA.AperFunction,NonConductor*%
G36*
X20560860Y-17780185D02*
G01*
X20606615Y-17832989D01*
X20617178Y-17897102D01*
X20616465Y-17904092D01*
X20614500Y-17923318D01*
X20614500Y-18596669D01*
X20614501Y-18596687D01*
X20624825Y-18697752D01*
X20653737Y-18785000D01*
X20679092Y-18861516D01*
X20769660Y-19008350D01*
X20891650Y-19130340D01*
X21038484Y-19220908D01*
X21144095Y-19255904D01*
X21192772Y-19285929D01*
X22705892Y-20799048D01*
X22708428Y-20801742D01*
X22749571Y-20848183D01*
X22797131Y-20881011D01*
X22800615Y-20883416D01*
X22803620Y-20885626D01*
X22852444Y-20923878D01*
X22852446Y-20923879D01*
X22852449Y-20923881D01*
X22861677Y-20928034D01*
X22881231Y-20939062D01*
X22889566Y-20944816D01*
X22889568Y-20944816D01*
X22889570Y-20944818D01*
X22947579Y-20966817D01*
X22950976Y-20968224D01*
X22998270Y-20989509D01*
X23007564Y-20993693D01*
X23007565Y-20993693D01*
X23007569Y-20993695D01*
X23017534Y-20995521D01*
X23039156Y-21001548D01*
X23042277Y-21002731D01*
X23048628Y-21005140D01*
X23093751Y-21010618D01*
X23110174Y-21012613D01*
X23113871Y-21013175D01*
X23174894Y-21024358D01*
X23195347Y-21023120D01*
X23263452Y-21038719D01*
X23312313Y-21088663D01*
X23326416Y-21157095D01*
X23310226Y-21208889D01*
X23302822Y-21221713D01*
X23302818Y-21221722D01*
X23244730Y-21400500D01*
X23244326Y-21401744D01*
X23225753Y-21578462D01*
X23199168Y-21643076D01*
X23141871Y-21683061D01*
X23102432Y-21689500D01*
X20813048Y-21689500D01*
X20809303Y-21689387D01*
X20747396Y-21685642D01*
X20747390Y-21685642D01*
X20686386Y-21696821D01*
X20682685Y-21697384D01*
X20621128Y-21704859D01*
X20621127Y-21704860D01*
X20611653Y-21708453D01*
X20590042Y-21714477D01*
X20580067Y-21716305D01*
X20580066Y-21716305D01*
X20575383Y-21718413D01*
X20506171Y-21727972D01*
X20442777Y-21698595D01*
X20405330Y-21639608D01*
X20400499Y-21605334D01*
X20400499Y-20692129D01*
X20400498Y-20692123D01*
X20399777Y-20685418D01*
X20394091Y-20632517D01*
X20343796Y-20497669D01*
X20343795Y-20497668D01*
X20343793Y-20497664D01*
X20257547Y-20382455D01*
X20257544Y-20382452D01*
X20142335Y-20296206D01*
X20142328Y-20296202D01*
X20010917Y-20247189D01*
X19954983Y-20205318D01*
X19930566Y-20139853D01*
X19945418Y-20071580D01*
X19966563Y-20043332D01*
X20088495Y-19921401D01*
X20224035Y-19727830D01*
X20323903Y-19513663D01*
X20385063Y-19285408D01*
X20405659Y-19050000D01*
X20404346Y-19034998D01*
X20391651Y-18889894D01*
X20385063Y-18814592D01*
X20326673Y-18596676D01*
X20323905Y-18586344D01*
X20323904Y-18586343D01*
X20323903Y-18586337D01*
X20224035Y-18372171D01*
X20213298Y-18356836D01*
X20088494Y-18178597D01*
X19921402Y-18011506D01*
X19921401Y-18011505D01*
X19885082Y-17986074D01*
X19841459Y-17931498D01*
X19834266Y-17861999D01*
X19865788Y-17799645D01*
X19926018Y-17764231D01*
X19956207Y-17760500D01*
X20493821Y-17760500D01*
X20560860Y-17780185D01*
G37*
%TD.AperFunction*%
%TA.AperFunction,NonConductor*%
G36*
X53956519Y-21040185D02*
G01*
X54002274Y-21092989D01*
X54012218Y-21162147D01*
X53983193Y-21225703D01*
X53977161Y-21232181D01*
X53086162Y-22123181D01*
X53024839Y-22156666D01*
X52998481Y-22159500D01*
X50871361Y-22159500D01*
X50804322Y-22139815D01*
X50758567Y-22087011D01*
X50748623Y-22017853D01*
X50751586Y-22003407D01*
X50763676Y-21958285D01*
X50805635Y-21801692D01*
X50825468Y-21575000D01*
X50823465Y-21552111D01*
X50818842Y-21499268D01*
X50805635Y-21348308D01*
X50774519Y-21232181D01*
X50759625Y-21176593D01*
X50761288Y-21106743D01*
X50800451Y-21048881D01*
X50864679Y-21021377D01*
X50879400Y-21020500D01*
X53889480Y-21020500D01*
X53956519Y-21040185D01*
G37*
%TD.AperFunction*%
%TA.AperFunction,NonConductor*%
G36*
X43095876Y-21040185D02*
G01*
X43141631Y-21092989D01*
X43151575Y-21162147D01*
X43148612Y-21176593D01*
X43104938Y-21339586D01*
X43104936Y-21339596D01*
X43084341Y-21574999D01*
X43084341Y-21575000D01*
X43104936Y-21810403D01*
X43104938Y-21810413D01*
X43156650Y-22003407D01*
X43154987Y-22073257D01*
X43115824Y-22131119D01*
X43051596Y-22158623D01*
X43036875Y-22159500D01*
X41142283Y-22159500D01*
X41075244Y-22139815D01*
X41029489Y-22087011D01*
X41019545Y-22017853D01*
X41048570Y-21954297D01*
X41054602Y-21947819D01*
X41945602Y-21056819D01*
X42006925Y-21023334D01*
X42033283Y-21020500D01*
X43028837Y-21020500D01*
X43095876Y-21040185D01*
G37*
%TD.AperFunction*%
%TA.AperFunction,NonConductor*%
G36*
X15445703Y-22431056D02*
G01*
X15466073Y-22453644D01*
X15468935Y-22457730D01*
X15471505Y-22461401D01*
X15638597Y-22628493D01*
X15638603Y-22628498D01*
X15824158Y-22758425D01*
X15867783Y-22813002D01*
X15874977Y-22882500D01*
X15843454Y-22944855D01*
X15824158Y-22961575D01*
X15638597Y-23091505D01*
X15471504Y-23258598D01*
X15466074Y-23266354D01*
X15411497Y-23309979D01*
X15341998Y-23317171D01*
X15279644Y-23285648D01*
X15244231Y-23225418D01*
X15240500Y-23195230D01*
X15240500Y-22524769D01*
X15260185Y-22457730D01*
X15312989Y-22411975D01*
X15382147Y-22402031D01*
X15445703Y-22431056D01*
G37*
%TD.AperFunction*%
%TA.AperFunction,NonConductor*%
G36*
X119340353Y-22434347D02*
G01*
X119375768Y-22494576D01*
X119379500Y-22524769D01*
X119379500Y-23195230D01*
X119359815Y-23262269D01*
X119307011Y-23308024D01*
X119237853Y-23317968D01*
X119174297Y-23288943D01*
X119153926Y-23266354D01*
X119148495Y-23258598D01*
X118981402Y-23091506D01*
X118981396Y-23091501D01*
X118795842Y-22961575D01*
X118752217Y-22906998D01*
X118745023Y-22837500D01*
X118776546Y-22775145D01*
X118795842Y-22758425D01*
X118919635Y-22671744D01*
X118981401Y-22628495D01*
X119148495Y-22461401D01*
X119153924Y-22453646D01*
X119208499Y-22410022D01*
X119277997Y-22402827D01*
X119340353Y-22434347D01*
G37*
%TD.AperFunction*%
%TA.AperFunction,NonConductor*%
G36*
X17925600Y-22860185D02*
G01*
X17932872Y-22865233D01*
X17957668Y-22883795D01*
X17957671Y-22883797D01*
X18092517Y-22934091D01*
X18092516Y-22934091D01*
X18099444Y-22934835D01*
X18152127Y-22940500D01*
X18949480Y-22940499D01*
X19016519Y-22960183D01*
X19062274Y-23012987D01*
X19072218Y-23082146D01*
X19043193Y-23145702D01*
X19037161Y-23152180D01*
X18069273Y-24120068D01*
X18007950Y-24153553D01*
X17938258Y-24148569D01*
X17882325Y-24106697D01*
X17858064Y-24043194D01*
X17856707Y-24027685D01*
X17845063Y-23894592D01*
X17783903Y-23666337D01*
X17684035Y-23452171D01*
X17655569Y-23411516D01*
X17548494Y-23258597D01*
X17381402Y-23091506D01*
X17381401Y-23091505D01*
X17345082Y-23066074D01*
X17301459Y-23011498D01*
X17294266Y-22941999D01*
X17325788Y-22879645D01*
X17386018Y-22844231D01*
X17416207Y-22840500D01*
X17858561Y-22840500D01*
X17925600Y-22860185D01*
G37*
%TD.AperFunction*%
%TA.AperFunction,NonConductor*%
G36*
X52686520Y-23580185D02*
G01*
X52732275Y-23632989D01*
X52742219Y-23702147D01*
X52713194Y-23765703D01*
X52707162Y-23772181D01*
X51851162Y-24628181D01*
X51789839Y-24661666D01*
X51763481Y-24664500D01*
X50880739Y-24664500D01*
X50813700Y-24644815D01*
X50767945Y-24592011D01*
X50758001Y-24522853D01*
X50760964Y-24508407D01*
X50778891Y-24441501D01*
X50805635Y-24341692D01*
X50825468Y-24115000D01*
X50805635Y-23888308D01*
X50783869Y-23807077D01*
X50759625Y-23716593D01*
X50761288Y-23646743D01*
X50800451Y-23588881D01*
X50864679Y-23561377D01*
X50879400Y-23560500D01*
X52619481Y-23560500D01*
X52686520Y-23580185D01*
G37*
%TD.AperFunction*%
%TA.AperFunction,NonConductor*%
G36*
X43095876Y-23580185D02*
G01*
X43141631Y-23632989D01*
X43151575Y-23702147D01*
X43148612Y-23716593D01*
X43104938Y-23879586D01*
X43104936Y-23879596D01*
X43084341Y-24114999D01*
X43084341Y-24115000D01*
X43104936Y-24350403D01*
X43104938Y-24350413D01*
X43147272Y-24508407D01*
X43145609Y-24578257D01*
X43106446Y-24636119D01*
X43042218Y-24663623D01*
X43027497Y-24664500D01*
X39676519Y-24664500D01*
X39609480Y-24644815D01*
X39588838Y-24628181D01*
X38732838Y-23772181D01*
X38699353Y-23710858D01*
X38704337Y-23641166D01*
X38746209Y-23585233D01*
X38811673Y-23560816D01*
X38820519Y-23560500D01*
X43028837Y-23560500D01*
X43095876Y-23580185D01*
G37*
%TD.AperFunction*%
%TA.AperFunction,NonConductor*%
G36*
X26683584Y-24988556D02*
G01*
X26739517Y-25030428D01*
X26747637Y-25042738D01*
X26760111Y-25064343D01*
X26805312Y-25114544D01*
X26841237Y-25154443D01*
X26871467Y-25217435D01*
X26862842Y-25286770D01*
X26818100Y-25340435D01*
X26751447Y-25361393D01*
X26738280Y-25360943D01*
X26665002Y-25354532D01*
X26664998Y-25354532D01*
X26511349Y-25367974D01*
X26442849Y-25354207D01*
X26392666Y-25305592D01*
X26376733Y-25237563D01*
X26400109Y-25171720D01*
X26412855Y-25156771D01*
X26552571Y-25017055D01*
X26613892Y-24983572D01*
X26683584Y-24988556D01*
G37*
%TD.AperFunction*%
%TA.AperFunction,NonConductor*%
G36*
X15445703Y-24971056D02*
G01*
X15466073Y-24993644D01*
X15468935Y-24997730D01*
X15471505Y-25001401D01*
X15638597Y-25168493D01*
X15638603Y-25168498D01*
X15824158Y-25298425D01*
X15867783Y-25353002D01*
X15874977Y-25422500D01*
X15843454Y-25484855D01*
X15824158Y-25501575D01*
X15638597Y-25631505D01*
X15471504Y-25798598D01*
X15466074Y-25806354D01*
X15411497Y-25849979D01*
X15341998Y-25857171D01*
X15279644Y-25825648D01*
X15244231Y-25765418D01*
X15240500Y-25735230D01*
X15240500Y-25064769D01*
X15260185Y-24997730D01*
X15312989Y-24951975D01*
X15382147Y-24942031D01*
X15445703Y-24971056D01*
G37*
%TD.AperFunction*%
%TA.AperFunction,NonConductor*%
G36*
X119340353Y-24974347D02*
G01*
X119375768Y-25034576D01*
X119379500Y-25064769D01*
X119379500Y-25735230D01*
X119359815Y-25802269D01*
X119307011Y-25848024D01*
X119237853Y-25857968D01*
X119174297Y-25828943D01*
X119153926Y-25806354D01*
X119148495Y-25798598D01*
X118981402Y-25631506D01*
X118981396Y-25631501D01*
X118795842Y-25501575D01*
X118752217Y-25446998D01*
X118745023Y-25377500D01*
X118776546Y-25315145D01*
X118795842Y-25298425D01*
X118818026Y-25282891D01*
X118981401Y-25168495D01*
X119148495Y-25001401D01*
X119153924Y-24993646D01*
X119208499Y-24950022D01*
X119277997Y-24942827D01*
X119340353Y-24974347D01*
G37*
%TD.AperFunction*%
%TA.AperFunction,NonConductor*%
G36*
X63785702Y-24136805D02*
G01*
X63792180Y-24142837D01*
X64806222Y-25156879D01*
X64839707Y-25218202D01*
X64834723Y-25287894D01*
X64792851Y-25343827D01*
X64729349Y-25368088D01*
X64543312Y-25384364D01*
X64543302Y-25384366D01*
X64323511Y-25443258D01*
X64323502Y-25443261D01*
X64117267Y-25539431D01*
X64117265Y-25539432D01*
X63930858Y-25669954D01*
X63769954Y-25830858D01*
X63639432Y-26017265D01*
X63636724Y-26021957D01*
X63635471Y-26021233D01*
X63593767Y-26068575D01*
X63526569Y-26087710D01*
X63459693Y-26067477D01*
X63415202Y-26016119D01*
X63404035Y-25992171D01*
X63404034Y-25992170D01*
X63404033Y-25992167D01*
X63268496Y-25798600D01*
X63222413Y-25752517D01*
X63146567Y-25676671D01*
X63113084Y-25615351D01*
X63118068Y-25545659D01*
X63159939Y-25489725D01*
X63190915Y-25472810D01*
X63322331Y-25423796D01*
X63437546Y-25337546D01*
X63523796Y-25222331D01*
X63574091Y-25087483D01*
X63580500Y-25027873D01*
X63580499Y-24230517D01*
X63600183Y-24163479D01*
X63652987Y-24117724D01*
X63722146Y-24107780D01*
X63785702Y-24136805D01*
G37*
%TD.AperFunction*%
%TA.AperFunction,NonConductor*%
G36*
X37285520Y-24310185D02*
G01*
X37306162Y-24326819D01*
X38495251Y-25515908D01*
X38528736Y-25577231D01*
X38523752Y-25646923D01*
X38495252Y-25691270D01*
X38365339Y-25821183D01*
X38234867Y-26007515D01*
X38207657Y-26065867D01*
X38161484Y-26118306D01*
X38094290Y-26137457D01*
X38027409Y-26117241D01*
X37982893Y-26065865D01*
X37982775Y-26065613D01*
X37955568Y-26007266D01*
X37828399Y-25825648D01*
X37825045Y-25820858D01*
X37664141Y-25659954D01*
X37477734Y-25529432D01*
X37477732Y-25529431D01*
X37271496Y-25433261D01*
X37235178Y-25423529D01*
X37179593Y-25391436D01*
X36290338Y-24502181D01*
X36256853Y-24440858D01*
X36261837Y-24371166D01*
X36303709Y-24315233D01*
X36369173Y-24290816D01*
X36378019Y-24290500D01*
X37218481Y-24290500D01*
X37285520Y-24310185D01*
G37*
%TD.AperFunction*%
%TA.AperFunction,NonConductor*%
G36*
X94377990Y-25490185D02*
G01*
X94423745Y-25542989D01*
X94433689Y-25612147D01*
X94404664Y-25675703D01*
X94398632Y-25682181D01*
X94249954Y-25830858D01*
X94119432Y-26017265D01*
X94119431Y-26017267D01*
X94104102Y-26050140D01*
X94095142Y-26069357D01*
X94092382Y-26075275D01*
X94046209Y-26127714D01*
X93979016Y-26146866D01*
X93912135Y-26126650D01*
X93867618Y-26075275D01*
X93864859Y-26069358D01*
X93840568Y-26017266D01*
X93728469Y-25857171D01*
X93710045Y-25830858D01*
X93561368Y-25682181D01*
X93527883Y-25620858D01*
X93532867Y-25551166D01*
X93574739Y-25495233D01*
X93640203Y-25470816D01*
X93649049Y-25470500D01*
X94310951Y-25470500D01*
X94377990Y-25490185D01*
G37*
%TD.AperFunction*%
%TA.AperFunction,NonConductor*%
G36*
X76646597Y-25450185D02*
G01*
X76692352Y-25502989D01*
X76702296Y-25572147D01*
X76673271Y-25635703D01*
X76650680Y-25656076D01*
X76630857Y-25669955D01*
X76469954Y-25830858D01*
X76339432Y-26017265D01*
X76339431Y-26017267D01*
X76324102Y-26050140D01*
X76315142Y-26069357D01*
X76312382Y-26075275D01*
X76266209Y-26127714D01*
X76199016Y-26146866D01*
X76132135Y-26126650D01*
X76087618Y-26075275D01*
X76084859Y-26069358D01*
X76060568Y-26017266D01*
X75948469Y-25857171D01*
X75930045Y-25830858D01*
X75769142Y-25669955D01*
X75749320Y-25656076D01*
X75705694Y-25601500D01*
X75698500Y-25532001D01*
X75730022Y-25469646D01*
X75790251Y-25434232D01*
X75820442Y-25430500D01*
X76579558Y-25430500D01*
X76646597Y-25450185D01*
G37*
%TD.AperFunction*%
%TA.AperFunction,NonConductor*%
G36*
X67792753Y-22295185D02*
G01*
X67813395Y-22311819D01*
X70110632Y-24609056D01*
X70113168Y-24611750D01*
X70154304Y-24658183D01*
X70205363Y-24693427D01*
X70208345Y-24695621D01*
X70237214Y-24718238D01*
X70257180Y-24733880D01*
X70257179Y-24733880D01*
X70266410Y-24738034D01*
X70285964Y-24749062D01*
X70294299Y-24754816D01*
X70294301Y-24754816D01*
X70294303Y-24754818D01*
X70352312Y-24776817D01*
X70355709Y-24778224D01*
X70393501Y-24795233D01*
X70412297Y-24803693D01*
X70412298Y-24803693D01*
X70412302Y-24803695D01*
X70422267Y-24805521D01*
X70443889Y-24811548D01*
X70447010Y-24812731D01*
X70453361Y-24815140D01*
X70498484Y-24820618D01*
X70514907Y-24822613D01*
X70518604Y-24823175D01*
X70579627Y-24834358D01*
X70634985Y-24831009D01*
X70641536Y-24830613D01*
X70645281Y-24830500D01*
X72939481Y-24830500D01*
X73006520Y-24850185D01*
X73052275Y-24902989D01*
X73062219Y-24972147D01*
X73033194Y-25035703D01*
X73027180Y-25042162D01*
X72782572Y-25286770D01*
X72720369Y-25348973D01*
X72659046Y-25382457D01*
X72621881Y-25384819D01*
X72616680Y-25384364D01*
X72597171Y-25382657D01*
X72390002Y-25364532D01*
X72389998Y-25364532D01*
X72163313Y-25384364D01*
X72163302Y-25384366D01*
X71943511Y-25443258D01*
X71943502Y-25443261D01*
X71737267Y-25539431D01*
X71737265Y-25539432D01*
X71550858Y-25669954D01*
X71389954Y-25830858D01*
X71259432Y-26017265D01*
X71259431Y-26017267D01*
X71244102Y-26050140D01*
X71235142Y-26069357D01*
X71232382Y-26075275D01*
X71186209Y-26127714D01*
X71119016Y-26146866D01*
X71052135Y-26126650D01*
X71007618Y-26075275D01*
X71004859Y-26069358D01*
X70980568Y-26017266D01*
X70868469Y-25857171D01*
X70850045Y-25830858D01*
X70689141Y-25669954D01*
X70502734Y-25539432D01*
X70502732Y-25539431D01*
X70296497Y-25443261D01*
X70296488Y-25443258D01*
X70076697Y-25384366D01*
X70076693Y-25384365D01*
X70076692Y-25384365D01*
X70076691Y-25384364D01*
X70076686Y-25384364D01*
X69850002Y-25364532D01*
X69849998Y-25364532D01*
X69623313Y-25384364D01*
X69623302Y-25384366D01*
X69403511Y-25443258D01*
X69403502Y-25443261D01*
X69197267Y-25539431D01*
X69197265Y-25539432D01*
X69010858Y-25669954D01*
X68849954Y-25830858D01*
X68789902Y-25916623D01*
X68735325Y-25960248D01*
X68688327Y-25969500D01*
X68603048Y-25969500D01*
X68599303Y-25969387D01*
X68537396Y-25965642D01*
X68537388Y-25965642D01*
X68497820Y-25972893D01*
X68428331Y-25965614D01*
X68373896Y-25922047D01*
X68310045Y-25830858D01*
X68149141Y-25669954D01*
X67962734Y-25539432D01*
X67962732Y-25539431D01*
X67756497Y-25443261D01*
X67756488Y-25443258D01*
X67536697Y-25384366D01*
X67536693Y-25384365D01*
X67536692Y-25384365D01*
X67536691Y-25384364D01*
X67536686Y-25384364D01*
X67310002Y-25364532D01*
X67309998Y-25364532D01*
X67078117Y-25384819D01*
X67009617Y-25371052D01*
X66979629Y-25348972D01*
X64117838Y-22487181D01*
X64084353Y-22425858D01*
X64089337Y-22356166D01*
X64131209Y-22300233D01*
X64196673Y-22275816D01*
X64205519Y-22275500D01*
X67725714Y-22275500D01*
X67792753Y-22295185D01*
G37*
%TD.AperFunction*%
%TA.AperFunction,NonConductor*%
G36*
X55842280Y-23600185D02*
G01*
X55888035Y-23652989D01*
X55897979Y-23722147D01*
X55895016Y-23736593D01*
X55854366Y-23888302D01*
X55854364Y-23888313D01*
X55834532Y-24114998D01*
X55834532Y-24115001D01*
X55854364Y-24341686D01*
X55854366Y-24341697D01*
X55913258Y-24561488D01*
X55913261Y-24561497D01*
X56009431Y-24767732D01*
X56009432Y-24767734D01*
X56085707Y-24876667D01*
X56108034Y-24942873D01*
X56091023Y-25010641D01*
X56071813Y-25035471D01*
X53939105Y-27168181D01*
X53877782Y-27201666D01*
X53851424Y-27204500D01*
X50880739Y-27204500D01*
X50813700Y-27184815D01*
X50767945Y-27132011D01*
X50758001Y-27062853D01*
X50760964Y-27048407D01*
X50785981Y-26955042D01*
X50805635Y-26881692D01*
X50824622Y-26664669D01*
X50825468Y-26655001D01*
X50825468Y-26654998D01*
X50810178Y-26480233D01*
X50805635Y-26428308D01*
X50750246Y-26221592D01*
X50751909Y-26151744D01*
X50791072Y-26093881D01*
X50855300Y-26066377D01*
X50870021Y-26065500D01*
X52081952Y-26065500D01*
X52085697Y-26065613D01*
X52093042Y-26066057D01*
X52147606Y-26069358D01*
X52185314Y-26062447D01*
X52208621Y-26058177D01*
X52212325Y-26057613D01*
X52230170Y-26055446D01*
X52273872Y-26050140D01*
X52283335Y-26046550D01*
X52304961Y-26040522D01*
X52305893Y-26040351D01*
X52314932Y-26038695D01*
X52371512Y-26013229D01*
X52374942Y-26011809D01*
X52432930Y-25989818D01*
X52441266Y-25984062D01*
X52460821Y-25973034D01*
X52470057Y-25968878D01*
X52518896Y-25930613D01*
X52521876Y-25928421D01*
X52572929Y-25893183D01*
X52614065Y-25846748D01*
X52616599Y-25844056D01*
X54843837Y-23616819D01*
X54905161Y-23583334D01*
X54931519Y-23580500D01*
X55775241Y-23580500D01*
X55842280Y-23600185D01*
G37*
%TD.AperFunction*%
%TA.AperFunction,NonConductor*%
G36*
X23946520Y-23110185D02*
G01*
X23992275Y-23162989D01*
X24002219Y-23232147D01*
X23973194Y-23295703D01*
X23967180Y-23302161D01*
X23780201Y-23489140D01*
X23645966Y-23623375D01*
X23643240Y-23625942D01*
X23596818Y-23667068D01*
X23561586Y-23718109D01*
X23559368Y-23721124D01*
X23521124Y-23769939D01*
X23521119Y-23769948D01*
X23516960Y-23779188D01*
X23505942Y-23798723D01*
X23500187Y-23807061D01*
X23500183Y-23807067D01*
X23500182Y-23807070D01*
X23500180Y-23807074D01*
X23500179Y-23807077D01*
X23478189Y-23865055D01*
X23476757Y-23868513D01*
X23451305Y-23925068D01*
X23449477Y-23935042D01*
X23443453Y-23956653D01*
X23439860Y-23966127D01*
X23439859Y-23966128D01*
X23432384Y-24027685D01*
X23431821Y-24031386D01*
X23420642Y-24092390D01*
X23420642Y-24092395D01*
X23424387Y-24154302D01*
X23424500Y-24158047D01*
X23424500Y-25235500D01*
X23404815Y-25302539D01*
X23352011Y-25348294D01*
X23300505Y-25359500D01*
X23277132Y-25359500D01*
X23277123Y-25359501D01*
X23217516Y-25365908D01*
X23082671Y-25416202D01*
X23082664Y-25416206D01*
X22967455Y-25502452D01*
X22967452Y-25502455D01*
X22881206Y-25617664D01*
X22881202Y-25617671D01*
X22830908Y-25752517D01*
X22824501Y-25812116D01*
X22824500Y-25812127D01*
X22824500Y-26501126D01*
X22824501Y-27115500D01*
X22804816Y-27182539D01*
X22752013Y-27228294D01*
X22700501Y-27239500D01*
X17917144Y-27239500D01*
X17850105Y-27219815D01*
X17804350Y-27167011D01*
X17794406Y-27097853D01*
X17797369Y-27083407D01*
X17807616Y-27045165D01*
X17845063Y-26905408D01*
X17865659Y-26670000D01*
X17864346Y-26654998D01*
X17847709Y-26464833D01*
X17845063Y-26434592D01*
X17840558Y-26417779D01*
X17842219Y-26347932D01*
X17872649Y-26298006D01*
X21043837Y-23126819D01*
X21105161Y-23093334D01*
X21131519Y-23090500D01*
X23879481Y-23090500D01*
X23946520Y-23110185D01*
G37*
%TD.AperFunction*%
%TA.AperFunction,NonConductor*%
G36*
X86287732Y-26587247D02*
G01*
X86321552Y-26648386D01*
X86323347Y-26664669D01*
X86324060Y-26664607D01*
X86344364Y-26896686D01*
X86344366Y-26896697D01*
X86403258Y-27116488D01*
X86403261Y-27116497D01*
X86499431Y-27322732D01*
X86499432Y-27322734D01*
X86629954Y-27509141D01*
X86790858Y-27670045D01*
X86822163Y-27691965D01*
X86977266Y-27800568D01*
X87035865Y-27827893D01*
X87088305Y-27874065D01*
X87107457Y-27941258D01*
X87087242Y-28008139D01*
X87035867Y-28052657D01*
X86977515Y-28079867D01*
X86791183Y-28210339D01*
X86658770Y-28342752D01*
X86597447Y-28376236D01*
X86527755Y-28371252D01*
X86483408Y-28342751D01*
X85790963Y-27650306D01*
X85757478Y-27588983D01*
X85762462Y-27519291D01*
X85774033Y-27497741D01*
X85773554Y-27497465D01*
X85812648Y-27429752D01*
X85871449Y-27327905D01*
X85929944Y-27147877D01*
X85949730Y-26959621D01*
X85929944Y-26771365D01*
X85929941Y-26771358D01*
X85928592Y-26765004D01*
X85929947Y-26764715D01*
X85928159Y-26702178D01*
X85964237Y-26642344D01*
X86025740Y-26611727D01*
X86027015Y-26611493D01*
X86033282Y-26610345D01*
X86089862Y-26584879D01*
X86093292Y-26583459D01*
X86151280Y-26561468D01*
X86151281Y-26561466D01*
X86156563Y-26559464D01*
X86226226Y-26554098D01*
X86287732Y-26587247D01*
G37*
%TD.AperFunction*%
%TA.AperFunction,NonConductor*%
G36*
X15445703Y-27511056D02*
G01*
X15466073Y-27533644D01*
X15468935Y-27537730D01*
X15471505Y-27541401D01*
X15638597Y-27708493D01*
X15638603Y-27708498D01*
X15824158Y-27838425D01*
X15867783Y-27893002D01*
X15874977Y-27962500D01*
X15843454Y-28024855D01*
X15824158Y-28041575D01*
X15638597Y-28171505D01*
X15471504Y-28338598D01*
X15466074Y-28346354D01*
X15411497Y-28389979D01*
X15341998Y-28397171D01*
X15279644Y-28365648D01*
X15244231Y-28305418D01*
X15240500Y-28275230D01*
X15240500Y-27604769D01*
X15260185Y-27537730D01*
X15312989Y-27491975D01*
X15382147Y-27482031D01*
X15445703Y-27511056D01*
G37*
%TD.AperFunction*%
%TA.AperFunction,NonConductor*%
G36*
X119340353Y-27514347D02*
G01*
X119375768Y-27574576D01*
X119379500Y-27604769D01*
X119379500Y-28275230D01*
X119359815Y-28342269D01*
X119307011Y-28388024D01*
X119237853Y-28397968D01*
X119174297Y-28368943D01*
X119153926Y-28346354D01*
X119148495Y-28338598D01*
X118981402Y-28171506D01*
X118981396Y-28171501D01*
X118795842Y-28041575D01*
X118752217Y-27986998D01*
X118745023Y-27917500D01*
X118776546Y-27855145D01*
X118795842Y-27838425D01*
X118849910Y-27800566D01*
X118981401Y-27708495D01*
X119148495Y-27541401D01*
X119153924Y-27533646D01*
X119208499Y-27490022D01*
X119277997Y-27482827D01*
X119340353Y-27514347D01*
G37*
%TD.AperFunction*%
%TA.AperFunction,NonConductor*%
G36*
X104207862Y-27213348D02*
G01*
X104252380Y-27264722D01*
X104279432Y-27322734D01*
X104323021Y-27384986D01*
X104409954Y-27509141D01*
X104570858Y-27670045D01*
X104595462Y-27687273D01*
X104639087Y-27741849D01*
X104646281Y-27811348D01*
X104614758Y-27873703D01*
X104554529Y-27909117D01*
X104537593Y-27912138D01*
X104502516Y-27915908D01*
X104367671Y-27966202D01*
X104367664Y-27966206D01*
X104252455Y-28052452D01*
X104252452Y-28052455D01*
X104166206Y-28167664D01*
X104166202Y-28167671D01*
X104115908Y-28302516D01*
X104112137Y-28337596D01*
X104085398Y-28402146D01*
X104028006Y-28441994D01*
X103958180Y-28444487D01*
X103898092Y-28408834D01*
X103887273Y-28395462D01*
X103870045Y-28370858D01*
X103709141Y-28209954D01*
X103522734Y-28079432D01*
X103522728Y-28079429D01*
X103464882Y-28052455D01*
X103464724Y-28052381D01*
X103412285Y-28006210D01*
X103393133Y-27939017D01*
X103413348Y-27872135D01*
X103464725Y-27827618D01*
X103477948Y-27821452D01*
X103522734Y-27800568D01*
X103709139Y-27670047D01*
X103870047Y-27509139D01*
X104000568Y-27322734D01*
X104027619Y-27264721D01*
X104073788Y-27212286D01*
X104140981Y-27193133D01*
X104207862Y-27213348D01*
G37*
%TD.AperFunction*%
%TA.AperFunction,NonConductor*%
G36*
X58534328Y-27390185D02*
G01*
X58568863Y-27423376D01*
X58580633Y-27440185D01*
X58651505Y-27541402D01*
X58760410Y-27650306D01*
X58818599Y-27708495D01*
X58889558Y-27758181D01*
X59012165Y-27844032D01*
X59012167Y-27844033D01*
X59012170Y-27844035D01*
X59226337Y-27943903D01*
X59454592Y-28005063D01*
X59642918Y-28021539D01*
X59689999Y-28025659D01*
X59690000Y-28025659D01*
X59690001Y-28025659D01*
X59729234Y-28022226D01*
X59925408Y-28005063D01*
X60153663Y-27943903D01*
X60367830Y-27844035D01*
X60445980Y-27789312D01*
X60512183Y-27766986D01*
X60579950Y-27783995D01*
X60604783Y-27803207D01*
X61099395Y-28297819D01*
X61132880Y-28359142D01*
X61127896Y-28428834D01*
X61086024Y-28484767D01*
X61020560Y-28509184D01*
X61011714Y-28509500D01*
X59193575Y-28509500D01*
X59126536Y-28489815D01*
X59105894Y-28473181D01*
X58214895Y-27582181D01*
X58181410Y-27520858D01*
X58186394Y-27451166D01*
X58228266Y-27395233D01*
X58293730Y-27370816D01*
X58302576Y-27370500D01*
X58467289Y-27370500D01*
X58534328Y-27390185D01*
G37*
%TD.AperFunction*%
%TA.AperFunction,NonConductor*%
G36*
X35180642Y-27708975D02*
G01*
X35205472Y-27728186D01*
X35763873Y-28286586D01*
X35797358Y-28347909D01*
X35792374Y-28417600D01*
X35777769Y-28445388D01*
X35769904Y-28456621D01*
X35715328Y-28500247D01*
X35668327Y-28509500D01*
X35451673Y-28509500D01*
X35384634Y-28489815D01*
X35350098Y-28456623D01*
X35290045Y-28370858D01*
X35129141Y-28209954D01*
X34942734Y-28079432D01*
X34942732Y-28079431D01*
X34884882Y-28052455D01*
X34871501Y-28046215D01*
X34819063Y-28000043D01*
X34799911Y-27932850D01*
X34820127Y-27865969D01*
X34871503Y-27821452D01*
X34893171Y-27811348D01*
X34937734Y-27790568D01*
X35046668Y-27714291D01*
X35112874Y-27691965D01*
X35180642Y-27708975D01*
G37*
%TD.AperFunction*%
%TA.AperFunction,NonConductor*%
G36*
X101667865Y-27213348D02*
G01*
X101712382Y-27264725D01*
X101739429Y-27322728D01*
X101739432Y-27322734D01*
X101869954Y-27509141D01*
X102030858Y-27670045D01*
X102062163Y-27691965D01*
X102217266Y-27800568D01*
X102240384Y-27811348D01*
X102275275Y-27827618D01*
X102327714Y-27873791D01*
X102346866Y-27940984D01*
X102326650Y-28007865D01*
X102275275Y-28052381D01*
X102275118Y-28052455D01*
X102217267Y-28079431D01*
X102217265Y-28079432D01*
X102030858Y-28209954D01*
X101869954Y-28370858D01*
X101739432Y-28557265D01*
X101739430Y-28557268D01*
X101712380Y-28615277D01*
X101666207Y-28667715D01*
X101599013Y-28686866D01*
X101532132Y-28666649D01*
X101487619Y-28615277D01*
X101460568Y-28557266D01*
X101442997Y-28532171D01*
X101330045Y-28370858D01*
X101169141Y-28209954D01*
X100982734Y-28079432D01*
X100982728Y-28079429D01*
X100924882Y-28052455D01*
X100924724Y-28052381D01*
X100872285Y-28006210D01*
X100853133Y-27939017D01*
X100873348Y-27872135D01*
X100924725Y-27827618D01*
X100937948Y-27821452D01*
X100982734Y-27800568D01*
X101169139Y-27670047D01*
X101330047Y-27509139D01*
X101460568Y-27322734D01*
X101487618Y-27264724D01*
X101533790Y-27212285D01*
X101600983Y-27193133D01*
X101667865Y-27213348D01*
G37*
%TD.AperFunction*%
%TA.AperFunction,NonConductor*%
G36*
X99127865Y-27213348D02*
G01*
X99172382Y-27264725D01*
X99199429Y-27322728D01*
X99199432Y-27322734D01*
X99329954Y-27509141D01*
X99490858Y-27670045D01*
X99522163Y-27691965D01*
X99677266Y-27800568D01*
X99700384Y-27811348D01*
X99735275Y-27827618D01*
X99787714Y-27873791D01*
X99806866Y-27940984D01*
X99786650Y-28007865D01*
X99735275Y-28052381D01*
X99735118Y-28052455D01*
X99677267Y-28079431D01*
X99677265Y-28079432D01*
X99490858Y-28209954D01*
X99329954Y-28370858D01*
X99199432Y-28557265D01*
X99199430Y-28557268D01*
X99172380Y-28615277D01*
X99126207Y-28667715D01*
X99059013Y-28686866D01*
X98992132Y-28666649D01*
X98947619Y-28615277D01*
X98920568Y-28557266D01*
X98902997Y-28532171D01*
X98790045Y-28370858D01*
X98629141Y-28209954D01*
X98442734Y-28079432D01*
X98442728Y-28079429D01*
X98384882Y-28052455D01*
X98384724Y-28052381D01*
X98332285Y-28006210D01*
X98313133Y-27939017D01*
X98333348Y-27872135D01*
X98384725Y-27827618D01*
X98397948Y-27821452D01*
X98442734Y-27800568D01*
X98629139Y-27670047D01*
X98790047Y-27509139D01*
X98920568Y-27322734D01*
X98947618Y-27264724D01*
X98993790Y-27212285D01*
X99060983Y-27193133D01*
X99127865Y-27213348D01*
G37*
%TD.AperFunction*%
%TA.AperFunction,NonConductor*%
G36*
X96587865Y-27213348D02*
G01*
X96632382Y-27264725D01*
X96659429Y-27322728D01*
X96659432Y-27322734D01*
X96789954Y-27509141D01*
X96950858Y-27670045D01*
X96982163Y-27691965D01*
X97137266Y-27800568D01*
X97160384Y-27811348D01*
X97195275Y-27827618D01*
X97247714Y-27873791D01*
X97266866Y-27940984D01*
X97246650Y-28007865D01*
X97195275Y-28052381D01*
X97195118Y-28052455D01*
X97137267Y-28079431D01*
X97137265Y-28079432D01*
X96950858Y-28209954D01*
X96789954Y-28370858D01*
X96659432Y-28557265D01*
X96659431Y-28557267D01*
X96644102Y-28590140D01*
X96635142Y-28609357D01*
X96632382Y-28615275D01*
X96586209Y-28667714D01*
X96519016Y-28686866D01*
X96452135Y-28666650D01*
X96407618Y-28615275D01*
X96404859Y-28609358D01*
X96380568Y-28557266D01*
X96267273Y-28395462D01*
X96250045Y-28370858D01*
X96089141Y-28209954D01*
X95902734Y-28079432D01*
X95902728Y-28079429D01*
X95844882Y-28052455D01*
X95844724Y-28052381D01*
X95792285Y-28006210D01*
X95773133Y-27939017D01*
X95793348Y-27872135D01*
X95844725Y-27827618D01*
X95857948Y-27821452D01*
X95902734Y-27800568D01*
X96089139Y-27670047D01*
X96250047Y-27509139D01*
X96380568Y-27322734D01*
X96407618Y-27264724D01*
X96453790Y-27212285D01*
X96520983Y-27193133D01*
X96587865Y-27213348D01*
G37*
%TD.AperFunction*%
%TA.AperFunction,NonConductor*%
G36*
X94047865Y-27213348D02*
G01*
X94092382Y-27264725D01*
X94119429Y-27322728D01*
X94119432Y-27322734D01*
X94249954Y-27509141D01*
X94410858Y-27670045D01*
X94442163Y-27691965D01*
X94597266Y-27800568D01*
X94620384Y-27811348D01*
X94655275Y-27827618D01*
X94707714Y-27873791D01*
X94726866Y-27940984D01*
X94706650Y-28007865D01*
X94655275Y-28052381D01*
X94655118Y-28052455D01*
X94597267Y-28079431D01*
X94597265Y-28079432D01*
X94410858Y-28209954D01*
X94249954Y-28370858D01*
X94119432Y-28557265D01*
X94119431Y-28557267D01*
X94104102Y-28590140D01*
X94095142Y-28609357D01*
X94092382Y-28615275D01*
X94046209Y-28667714D01*
X93979016Y-28686866D01*
X93912135Y-28666650D01*
X93867618Y-28615275D01*
X93864859Y-28609358D01*
X93840568Y-28557266D01*
X93727273Y-28395462D01*
X93710045Y-28370858D01*
X93549141Y-28209954D01*
X93362734Y-28079432D01*
X93362728Y-28079429D01*
X93304882Y-28052455D01*
X93304724Y-28052381D01*
X93252285Y-28006210D01*
X93233133Y-27939017D01*
X93253348Y-27872135D01*
X93304725Y-27827618D01*
X93317948Y-27821452D01*
X93362734Y-27800568D01*
X93549139Y-27670047D01*
X93710047Y-27509139D01*
X93840568Y-27322734D01*
X93867618Y-27264724D01*
X93913790Y-27212285D01*
X93980983Y-27193133D01*
X94047865Y-27213348D01*
G37*
%TD.AperFunction*%
%TA.AperFunction,NonConductor*%
G36*
X91626093Y-27422776D02*
G01*
X91679765Y-27466026D01*
X91709954Y-27509141D01*
X91870858Y-27670045D01*
X91902163Y-27691965D01*
X92057266Y-27800568D01*
X92080384Y-27811348D01*
X92115275Y-27827618D01*
X92167714Y-27873791D01*
X92186866Y-27940984D01*
X92166650Y-28007865D01*
X92115275Y-28052381D01*
X92115118Y-28052455D01*
X92057267Y-28079431D01*
X92057265Y-28079432D01*
X91870858Y-28209954D01*
X91709954Y-28370858D01*
X91579432Y-28557265D01*
X91579431Y-28557267D01*
X91564102Y-28590140D01*
X91555142Y-28609357D01*
X91552382Y-28615275D01*
X91506209Y-28667714D01*
X91439016Y-28686866D01*
X91372135Y-28666650D01*
X91327618Y-28615275D01*
X91324859Y-28609358D01*
X91300568Y-28557266D01*
X91187273Y-28395462D01*
X91170045Y-28370858D01*
X91009141Y-28209954D01*
X90822734Y-28079432D01*
X90822728Y-28079429D01*
X90764882Y-28052455D01*
X90764724Y-28052381D01*
X90712285Y-28006210D01*
X90693133Y-27939017D01*
X90713348Y-27872135D01*
X90764725Y-27827618D01*
X90777948Y-27821452D01*
X90822734Y-27800568D01*
X91009139Y-27670047D01*
X91170047Y-27509139D01*
X91195086Y-27473377D01*
X91249665Y-27429752D01*
X91296663Y-27420500D01*
X91436359Y-27420500D01*
X91439959Y-27420604D01*
X91503935Y-27424331D01*
X91556657Y-27415033D01*
X91626093Y-27422776D01*
G37*
%TD.AperFunction*%
%TA.AperFunction,NonConductor*%
G36*
X88967865Y-27213348D02*
G01*
X89012382Y-27264725D01*
X89039429Y-27322728D01*
X89039432Y-27322734D01*
X89169954Y-27509141D01*
X89330858Y-27670045D01*
X89362163Y-27691965D01*
X89517266Y-27800568D01*
X89540384Y-27811348D01*
X89575275Y-27827618D01*
X89627714Y-27873791D01*
X89646866Y-27940984D01*
X89626650Y-28007865D01*
X89575275Y-28052381D01*
X89575118Y-28052455D01*
X89517267Y-28079431D01*
X89517265Y-28079432D01*
X89330858Y-28209954D01*
X89169954Y-28370858D01*
X89042790Y-28552470D01*
X89039432Y-28557266D01*
X89012383Y-28615274D01*
X89012106Y-28615867D01*
X88965933Y-28668306D01*
X88898739Y-28687457D01*
X88831858Y-28667241D01*
X88787342Y-28615865D01*
X88760135Y-28557520D01*
X88760134Y-28557518D01*
X88629657Y-28371179D01*
X88468820Y-28210342D01*
X88282482Y-28079865D01*
X88224133Y-28052657D01*
X88171694Y-28006484D01*
X88152542Y-27939291D01*
X88172758Y-27872410D01*
X88224129Y-27827895D01*
X88282734Y-27800568D01*
X88469139Y-27670047D01*
X88630047Y-27509139D01*
X88760568Y-27322734D01*
X88787618Y-27264724D01*
X88833790Y-27212285D01*
X88900983Y-27193133D01*
X88967865Y-27213348D01*
G37*
%TD.AperFunction*%
%TA.AperFunction,NonConductor*%
G36*
X106917431Y-26698799D02*
G01*
X107374270Y-27155638D01*
X107386051Y-27169270D01*
X107400388Y-27188528D01*
X107440409Y-27222111D01*
X107444397Y-27225766D01*
X107450217Y-27231586D01*
X107450222Y-27231590D01*
X107450223Y-27231591D01*
X107475263Y-27251390D01*
X107476644Y-27252515D01*
X107534786Y-27301302D01*
X107534787Y-27301302D01*
X107534789Y-27301304D01*
X107540818Y-27305270D01*
X107540785Y-27305319D01*
X107547147Y-27309372D01*
X107547179Y-27309321D01*
X107553319Y-27313108D01*
X107553323Y-27313111D01*
X107573960Y-27322734D01*
X107622137Y-27345200D01*
X107623760Y-27345986D01*
X107691562Y-27380038D01*
X107698357Y-27382511D01*
X107698336Y-27382567D01*
X107705457Y-27385043D01*
X107705476Y-27384986D01*
X107712319Y-27387253D01*
X107712327Y-27387257D01*
X107786748Y-27402623D01*
X107788371Y-27402983D01*
X107862279Y-27420500D01*
X107862280Y-27420500D01*
X107862284Y-27420501D01*
X107869453Y-27421339D01*
X107869446Y-27421398D01*
X107876944Y-27422164D01*
X107876950Y-27422105D01*
X107884139Y-27422734D01*
X107884143Y-27422733D01*
X107884144Y-27422734D01*
X107912229Y-27421916D01*
X107960032Y-27420526D01*
X107961835Y-27420500D01*
X116922299Y-27420500D01*
X116989338Y-27440185D01*
X117023873Y-27473376D01*
X117071505Y-27541401D01*
X117238597Y-27708493D01*
X117238603Y-27708498D01*
X117424158Y-27838425D01*
X117467783Y-27893002D01*
X117474977Y-27962500D01*
X117443454Y-28024855D01*
X117424158Y-28041575D01*
X117238597Y-28171505D01*
X117071505Y-28338597D01*
X116935965Y-28532169D01*
X116935964Y-28532171D01*
X116836098Y-28746335D01*
X116836094Y-28746344D01*
X116774938Y-28974586D01*
X116774936Y-28974596D01*
X116754341Y-29209999D01*
X116754341Y-29210001D01*
X116772977Y-29423012D01*
X116759210Y-29491512D01*
X116737130Y-29521500D01*
X116585449Y-29673182D01*
X116524129Y-29706666D01*
X116497770Y-29709500D01*
X106834500Y-29709500D01*
X106767461Y-29689815D01*
X106721706Y-29637011D01*
X106710500Y-29585500D01*
X106710499Y-28362129D01*
X106710498Y-28362123D01*
X106710459Y-28361763D01*
X106704091Y-28302517D01*
X106669567Y-28209954D01*
X106653797Y-28167671D01*
X106653793Y-28167664D01*
X106567547Y-28052455D01*
X106567544Y-28052452D01*
X106452335Y-27966206D01*
X106452328Y-27966202D01*
X106317482Y-27915908D01*
X106317483Y-27915908D01*
X106282404Y-27912137D01*
X106217853Y-27885399D01*
X106178005Y-27828006D01*
X106175512Y-27758181D01*
X106211165Y-27698092D01*
X106224539Y-27687272D01*
X106249140Y-27670046D01*
X106410045Y-27509141D01*
X106410044Y-27509140D01*
X106410047Y-27509139D01*
X106540568Y-27322734D01*
X106636739Y-27116496D01*
X106695635Y-26896692D01*
X106706223Y-26775670D01*
X106731674Y-26710604D01*
X106788265Y-26669626D01*
X106858027Y-26665747D01*
X106917431Y-26698799D01*
G37*
%TD.AperFunction*%
%TA.AperFunction,NonConductor*%
G36*
X54414184Y-28603611D02*
G01*
X54465969Y-28650515D01*
X54484176Y-28717971D01*
X54463023Y-28784562D01*
X54447887Y-28802927D01*
X53507634Y-29743181D01*
X53446311Y-29776666D01*
X53419953Y-29779500D01*
X50871361Y-29779500D01*
X50804322Y-29759815D01*
X50758567Y-29707011D01*
X50748623Y-29637853D01*
X50751586Y-29623407D01*
X50759153Y-29595165D01*
X50805635Y-29421692D01*
X50824156Y-29209998D01*
X50825468Y-29195001D01*
X50825468Y-29194998D01*
X50818525Y-29115642D01*
X50805635Y-28968308D01*
X50750246Y-28761592D01*
X50751909Y-28691744D01*
X50791072Y-28633881D01*
X50855300Y-28606377D01*
X50870021Y-28605500D01*
X54169895Y-28605500D01*
X54173640Y-28605613D01*
X54180985Y-28606057D01*
X54235549Y-28609358D01*
X54273257Y-28602447D01*
X54296564Y-28598177D01*
X54300268Y-28597613D01*
X54345260Y-28592150D01*
X54414184Y-28603611D01*
G37*
%TD.AperFunction*%
%TA.AperFunction,NonConductor*%
G36*
X43105254Y-28625185D02*
G01*
X43151009Y-28677989D01*
X43160953Y-28747147D01*
X43157990Y-28761593D01*
X43104938Y-28959586D01*
X43104936Y-28959596D01*
X43084341Y-29194999D01*
X43084341Y-29195000D01*
X43104936Y-29430403D01*
X43104938Y-29430413D01*
X43156650Y-29623407D01*
X43154987Y-29693257D01*
X43115824Y-29751119D01*
X43051596Y-29778623D01*
X43036875Y-29779500D01*
X40981519Y-29779500D01*
X40914480Y-29759815D01*
X40893838Y-29743181D01*
X40691027Y-29540370D01*
X40657542Y-29479047D01*
X40655180Y-29441881D01*
X40655633Y-29436697D01*
X40655635Y-29436692D01*
X40675468Y-29210000D01*
X40674155Y-29194998D01*
X40666863Y-29111647D01*
X40655635Y-28983308D01*
X40601734Y-28782147D01*
X40596227Y-28761593D01*
X40597890Y-28691743D01*
X40637053Y-28633881D01*
X40701281Y-28606377D01*
X40716002Y-28605500D01*
X43038215Y-28605500D01*
X43105254Y-28625185D01*
G37*
%TD.AperFunction*%
%TA.AperFunction,NonConductor*%
G36*
X15445703Y-30051056D02*
G01*
X15466073Y-30073644D01*
X15468935Y-30077730D01*
X15471505Y-30081401D01*
X15638597Y-30248493D01*
X15638603Y-30248498D01*
X15824158Y-30378425D01*
X15867783Y-30433002D01*
X15874977Y-30502500D01*
X15843454Y-30564855D01*
X15824158Y-30581575D01*
X15638597Y-30711505D01*
X15471504Y-30878598D01*
X15466074Y-30886354D01*
X15411497Y-30929979D01*
X15341998Y-30937171D01*
X15279644Y-30905648D01*
X15244231Y-30845418D01*
X15240500Y-30815230D01*
X15240500Y-30144769D01*
X15260185Y-30077730D01*
X15312989Y-30031975D01*
X15382147Y-30022031D01*
X15445703Y-30051056D01*
G37*
%TD.AperFunction*%
%TA.AperFunction,NonConductor*%
G36*
X119340353Y-30054347D02*
G01*
X119375768Y-30114576D01*
X119379500Y-30144769D01*
X119379500Y-30815230D01*
X119359815Y-30882269D01*
X119307011Y-30928024D01*
X119237853Y-30937968D01*
X119174297Y-30908943D01*
X119153926Y-30886354D01*
X119148495Y-30878598D01*
X118981402Y-30711506D01*
X118981396Y-30711501D01*
X118795842Y-30581575D01*
X118752217Y-30526998D01*
X118745023Y-30457500D01*
X118776546Y-30395145D01*
X118795842Y-30378425D01*
X118879995Y-30319500D01*
X118981401Y-30248495D01*
X119148495Y-30081401D01*
X119153924Y-30073646D01*
X119208499Y-30030022D01*
X119277997Y-30022827D01*
X119340353Y-30054347D01*
G37*
%TD.AperFunction*%
%TA.AperFunction,NonConductor*%
G36*
X113255254Y-31930185D02*
G01*
X113301009Y-31982989D01*
X113310953Y-32052147D01*
X113281928Y-32115703D01*
X113253314Y-32140036D01*
X113186099Y-32181496D01*
X113156648Y-32199661D01*
X113117681Y-32238629D01*
X113056358Y-32272114D01*
X112986666Y-32267130D01*
X112942319Y-32238629D01*
X112903351Y-32199661D01*
X112903350Y-32199660D01*
X112806686Y-32140037D01*
X112759964Y-32088091D01*
X112748741Y-32019128D01*
X112776585Y-31955046D01*
X112834653Y-31916190D01*
X112871785Y-31910500D01*
X113188215Y-31910500D01*
X113255254Y-31930185D01*
G37*
%TD.AperFunction*%
%TA.AperFunction,NonConductor*%
G36*
X111505254Y-31930185D02*
G01*
X111551009Y-31982989D01*
X111560953Y-32052147D01*
X111531928Y-32115703D01*
X111503314Y-32140036D01*
X111436099Y-32181496D01*
X111406648Y-32199661D01*
X111323129Y-32283181D01*
X111261806Y-32316666D01*
X111235448Y-32319500D01*
X111014552Y-32319500D01*
X110947513Y-32299815D01*
X110926871Y-32283181D01*
X110843351Y-32199661D01*
X110843351Y-32199660D01*
X110843350Y-32199660D01*
X110746686Y-32140037D01*
X110699964Y-32088091D01*
X110688741Y-32019128D01*
X110716585Y-31955046D01*
X110774653Y-31916190D01*
X110811785Y-31910500D01*
X111438215Y-31910500D01*
X111505254Y-31930185D01*
G37*
%TD.AperFunction*%
%TA.AperFunction,NonConductor*%
G36*
X52686520Y-31200185D02*
G01*
X52732275Y-31252989D01*
X52742219Y-31322147D01*
X52713194Y-31385703D01*
X52707162Y-31392181D01*
X51816162Y-32283181D01*
X51754839Y-32316666D01*
X51728481Y-32319500D01*
X50871361Y-32319500D01*
X50804322Y-32299815D01*
X50758567Y-32247011D01*
X50748623Y-32177853D01*
X50751586Y-32163407D01*
X50769035Y-32098284D01*
X50805635Y-31961692D01*
X50825468Y-31735000D01*
X50824199Y-31720500D01*
X50815466Y-31620675D01*
X50805635Y-31508308D01*
X50774519Y-31392181D01*
X50759625Y-31336593D01*
X50761288Y-31266743D01*
X50800451Y-31208881D01*
X50864679Y-31181377D01*
X50879400Y-31180500D01*
X52619481Y-31180500D01*
X52686520Y-31200185D01*
G37*
%TD.AperFunction*%
%TA.AperFunction,NonConductor*%
G36*
X38167865Y-29753348D02*
G01*
X38212381Y-29804724D01*
X38216769Y-29814133D01*
X38239429Y-29862728D01*
X38239432Y-29862734D01*
X38369954Y-30049141D01*
X38530858Y-30210045D01*
X38530861Y-30210047D01*
X38717266Y-30340568D01*
X38923504Y-30436739D01*
X39143308Y-30495635D01*
X39305230Y-30509801D01*
X39369998Y-30515468D01*
X39370000Y-30515468D01*
X39370001Y-30515468D01*
X39388304Y-30513866D01*
X39596692Y-30495635D01*
X39596697Y-30495633D01*
X39601881Y-30495180D01*
X39670381Y-30508946D01*
X39700370Y-30531026D01*
X40128399Y-30959056D01*
X40130935Y-30961750D01*
X40172071Y-31008183D01*
X40172073Y-31008185D01*
X40190741Y-31021070D01*
X40223117Y-31043417D01*
X40226107Y-31045617D01*
X40274943Y-31083878D01*
X40284180Y-31088035D01*
X40303726Y-31099058D01*
X40312070Y-31104818D01*
X40363592Y-31124357D01*
X40370052Y-31126807D01*
X40373514Y-31128241D01*
X40430068Y-31153694D01*
X40440030Y-31155519D01*
X40461651Y-31161546D01*
X40471125Y-31165139D01*
X40471128Y-31165140D01*
X40487871Y-31167173D01*
X40532689Y-31172615D01*
X40536386Y-31173177D01*
X40597394Y-31184357D01*
X40597395Y-31184356D01*
X40597396Y-31184357D01*
X40659293Y-31180613D01*
X40663037Y-31180500D01*
X43028837Y-31180500D01*
X43095876Y-31200185D01*
X43141631Y-31252989D01*
X43151575Y-31322147D01*
X43148612Y-31336593D01*
X43104938Y-31499586D01*
X43104936Y-31499596D01*
X43084341Y-31734999D01*
X43084341Y-31735000D01*
X43104936Y-31970403D01*
X43104938Y-31970413D01*
X43156650Y-32163407D01*
X43154987Y-32233257D01*
X43115824Y-32291119D01*
X43051596Y-32318623D01*
X43036875Y-32319500D01*
X33361519Y-32319500D01*
X33294480Y-32299815D01*
X33273838Y-32283181D01*
X31713777Y-30723120D01*
X31680292Y-30661797D01*
X31685276Y-30592105D01*
X31727148Y-30536172D01*
X31790649Y-30511911D01*
X31976692Y-30495635D01*
X32196496Y-30436739D01*
X32402734Y-30340568D01*
X32589139Y-30210047D01*
X32750047Y-30049139D01*
X32783874Y-30000828D01*
X32810098Y-29963377D01*
X32864675Y-29919752D01*
X32911673Y-29910500D01*
X33128327Y-29910500D01*
X33195366Y-29930185D01*
X33229902Y-29963377D01*
X33289954Y-30049141D01*
X33450858Y-30210045D01*
X33450861Y-30210047D01*
X33637266Y-30340568D01*
X33843504Y-30436739D01*
X34063308Y-30495635D01*
X34225230Y-30509801D01*
X34289998Y-30515468D01*
X34290000Y-30515468D01*
X34290002Y-30515468D01*
X34346672Y-30510509D01*
X34516692Y-30495635D01*
X34736496Y-30436739D01*
X34942734Y-30340568D01*
X35129139Y-30210047D01*
X35290047Y-30049139D01*
X35323874Y-30000828D01*
X35350098Y-29963377D01*
X35404675Y-29919752D01*
X35451673Y-29910500D01*
X35668327Y-29910500D01*
X35735366Y-29930185D01*
X35769902Y-29963377D01*
X35829954Y-30049141D01*
X35990858Y-30210045D01*
X35990861Y-30210047D01*
X36177266Y-30340568D01*
X36383504Y-30436739D01*
X36603308Y-30495635D01*
X36765230Y-30509801D01*
X36829998Y-30515468D01*
X36830000Y-30515468D01*
X36830002Y-30515468D01*
X36886673Y-30510509D01*
X37056692Y-30495635D01*
X37276496Y-30436739D01*
X37482734Y-30340568D01*
X37669139Y-30210047D01*
X37830047Y-30049139D01*
X37960568Y-29862734D01*
X37987618Y-29804724D01*
X38033790Y-29752285D01*
X38100983Y-29733133D01*
X38167865Y-29753348D01*
G37*
%TD.AperFunction*%
%TA.AperFunction,NonConductor*%
G36*
X109520254Y-31930185D02*
G01*
X109566009Y-31982989D01*
X109575953Y-32052147D01*
X109546928Y-32115703D01*
X109518314Y-32140036D01*
X109451099Y-32181496D01*
X109421648Y-32199661D01*
X109307681Y-32313629D01*
X109246358Y-32347114D01*
X109176666Y-32342130D01*
X109132319Y-32313629D01*
X109018351Y-32199661D01*
X109018350Y-32199660D01*
X108921686Y-32140037D01*
X108874964Y-32088091D01*
X108863741Y-32019128D01*
X108891585Y-31955046D01*
X108949653Y-31916190D01*
X108986785Y-31910500D01*
X109453215Y-31910500D01*
X109520254Y-31930185D01*
G37*
%TD.AperFunction*%
%TA.AperFunction,NonConductor*%
G36*
X55846300Y-31205185D02*
G01*
X55892055Y-31257989D01*
X55901999Y-31327147D01*
X55899036Y-31341593D01*
X55854366Y-31508302D01*
X55854364Y-31508313D01*
X55834532Y-31734998D01*
X55834532Y-31735001D01*
X55854364Y-31961686D01*
X55854366Y-31961697D01*
X55913258Y-32181488D01*
X55913262Y-32181498D01*
X55921002Y-32198097D01*
X55931493Y-32267175D01*
X55902972Y-32330958D01*
X55844495Y-32369197D01*
X55808619Y-32374500D01*
X54005519Y-32374500D01*
X53938480Y-32354815D01*
X53892725Y-32302011D01*
X53882781Y-32232853D01*
X53911806Y-32169297D01*
X53917838Y-32162819D01*
X54858838Y-31221819D01*
X54920161Y-31188334D01*
X54946519Y-31185500D01*
X55779261Y-31185500D01*
X55846300Y-31205185D01*
G37*
%TD.AperFunction*%
%TA.AperFunction,NonConductor*%
G36*
X74121009Y-32400185D02*
G01*
X74166764Y-32452989D01*
X74176708Y-32522147D01*
X74147683Y-32585703D01*
X74141651Y-32592181D01*
X74060651Y-32673181D01*
X73999328Y-32706666D01*
X73972970Y-32709500D01*
X73906430Y-32709500D01*
X73839391Y-32689815D01*
X73793636Y-32637011D01*
X73783692Y-32567853D01*
X73812717Y-32504297D01*
X73818749Y-32497819D01*
X73899749Y-32416819D01*
X73961072Y-32383334D01*
X73987430Y-32380500D01*
X74053970Y-32380500D01*
X74121009Y-32400185D01*
G37*
%TD.AperFunction*%
%TA.AperFunction,NonConductor*%
G36*
X97526332Y-31850185D02*
G01*
X97546973Y-31866819D01*
X97969211Y-32289056D01*
X97971747Y-32291750D01*
X98012883Y-32338183D01*
X98012885Y-32338185D01*
X98027563Y-32348316D01*
X98063929Y-32373417D01*
X98066919Y-32375617D01*
X98115755Y-32413878D01*
X98122290Y-32416819D01*
X98124992Y-32418035D01*
X98144538Y-32429058D01*
X98152882Y-32434818D01*
X98202653Y-32453693D01*
X98210864Y-32456807D01*
X98214326Y-32458241D01*
X98270880Y-32483694D01*
X98270891Y-32483696D01*
X98278039Y-32485924D01*
X98277591Y-32487361D01*
X98332385Y-32514976D01*
X98367873Y-32575161D01*
X98365189Y-32644979D01*
X98325185Y-32702263D01*
X98260561Y-32728825D01*
X98247642Y-32729500D01*
X97547515Y-32729500D01*
X97480476Y-32709815D01*
X97434721Y-32657011D01*
X97424195Y-32618465D01*
X97405674Y-32442244D01*
X97347179Y-32262216D01*
X97252533Y-32098284D01*
X97197775Y-32037469D01*
X97167547Y-31974481D01*
X97176172Y-31905146D01*
X97220913Y-31851480D01*
X97287566Y-31830522D01*
X97289927Y-31830500D01*
X97459293Y-31830500D01*
X97526332Y-31850185D01*
G37*
%TD.AperFunction*%
%TA.AperFunction,NonConductor*%
G36*
X86489119Y-31615005D02*
G01*
X86522619Y-31638861D01*
X87142814Y-32259056D01*
X87145350Y-32261750D01*
X87186486Y-32308183D01*
X87236830Y-32342933D01*
X87237521Y-32343410D01*
X87240537Y-32345630D01*
X87264965Y-32364767D01*
X87289358Y-32383878D01*
X87290425Y-32384358D01*
X87298597Y-32388036D01*
X87318148Y-32399063D01*
X87326485Y-32404818D01*
X87384480Y-32426812D01*
X87387889Y-32428223D01*
X87435202Y-32449517D01*
X87444479Y-32453693D01*
X87444480Y-32453693D01*
X87444484Y-32453695D01*
X87454449Y-32455521D01*
X87476071Y-32461548D01*
X87479192Y-32462731D01*
X87485543Y-32465140D01*
X87530666Y-32470618D01*
X87547089Y-32472613D01*
X87550786Y-32473175D01*
X87611809Y-32484358D01*
X87667167Y-32481009D01*
X87673718Y-32480613D01*
X87677463Y-32480500D01*
X89198970Y-32480500D01*
X89266009Y-32500185D01*
X89311764Y-32552989D01*
X89321708Y-32622147D01*
X89292683Y-32685703D01*
X89286651Y-32692181D01*
X89205651Y-32773181D01*
X89144328Y-32806666D01*
X89117970Y-32809500D01*
X86300714Y-32809500D01*
X86233675Y-32789815D01*
X86187920Y-32737011D01*
X86177976Y-32667853D01*
X86188332Y-32633095D01*
X86265782Y-32467001D01*
X86265786Y-32466992D01*
X86324656Y-32247285D01*
X86324658Y-32247274D01*
X86344483Y-32020677D01*
X86344483Y-32020672D01*
X86324658Y-31794075D01*
X86324657Y-31794068D01*
X86315163Y-31758636D01*
X86316826Y-31688786D01*
X86355988Y-31630923D01*
X86420217Y-31603419D01*
X86489119Y-31615005D01*
G37*
%TD.AperFunction*%
%TA.AperFunction,NonConductor*%
G36*
X70719589Y-32500185D02*
G01*
X70725426Y-32504175D01*
X70752884Y-32524124D01*
X70860909Y-32572221D01*
X70914146Y-32617471D01*
X70934467Y-32684321D01*
X70915421Y-32751544D01*
X70863055Y-32797799D01*
X70810473Y-32809500D01*
X70288911Y-32809500D01*
X70285166Y-32809387D01*
X70218929Y-32805380D01*
X70153201Y-32781683D01*
X70110718Y-32726212D01*
X70104969Y-32656579D01*
X70137779Y-32594892D01*
X70138562Y-32594100D01*
X70215845Y-32516816D01*
X70277167Y-32483334D01*
X70303524Y-32480500D01*
X70652550Y-32480500D01*
X70719589Y-32500185D01*
G37*
%TD.AperFunction*%
%TA.AperFunction,NonConductor*%
G36*
X104215810Y-32940185D02*
G01*
X104261565Y-32992989D01*
X104271509Y-33062147D01*
X104242484Y-33125703D01*
X104236457Y-33132174D01*
X104101450Y-33267182D01*
X103975451Y-33393181D01*
X103914128Y-33426666D01*
X103887770Y-33429500D01*
X103854459Y-33429500D01*
X103787420Y-33409815D01*
X103741665Y-33357011D01*
X103731721Y-33287853D01*
X103736528Y-33267182D01*
X103741623Y-33251501D01*
X103755674Y-33208256D01*
X103774247Y-33031536D01*
X103800832Y-32966924D01*
X103858129Y-32926939D01*
X103897568Y-32920500D01*
X104148771Y-32920500D01*
X104215810Y-32940185D01*
G37*
%TD.AperFunction*%
%TA.AperFunction,NonConductor*%
G36*
X119340353Y-32594347D02*
G01*
X119375768Y-32654576D01*
X119379500Y-32684769D01*
X119379500Y-33355230D01*
X119359815Y-33422269D01*
X119307011Y-33468024D01*
X119237853Y-33477968D01*
X119174297Y-33448943D01*
X119153926Y-33426354D01*
X119148495Y-33418598D01*
X118981402Y-33251506D01*
X118981396Y-33251501D01*
X118795842Y-33121575D01*
X118752217Y-33066998D01*
X118745023Y-32997500D01*
X118776546Y-32935145D01*
X118795842Y-32918425D01*
X118913121Y-32836305D01*
X118981401Y-32788495D01*
X119148495Y-32621401D01*
X119153924Y-32613646D01*
X119208499Y-32570022D01*
X119277997Y-32562827D01*
X119340353Y-32594347D01*
G37*
%TD.AperFunction*%
%TA.AperFunction,NonConductor*%
G36*
X116726756Y-31930185D02*
G01*
X116772511Y-31982989D01*
X116779492Y-32002407D01*
X116836094Y-32213655D01*
X116836096Y-32213659D01*
X116836097Y-32213663D01*
X116903194Y-32357553D01*
X116935965Y-32427830D01*
X116935967Y-32427834D01*
X117003391Y-32524124D01*
X117069446Y-32618461D01*
X117071501Y-32621395D01*
X117071506Y-32621402D01*
X117238597Y-32788493D01*
X117238603Y-32788498D01*
X117424158Y-32918425D01*
X117467783Y-32973002D01*
X117474977Y-33042500D01*
X117443454Y-33104855D01*
X117424158Y-33121575D01*
X117238597Y-33251505D01*
X117071505Y-33418597D01*
X116935965Y-33612169D01*
X116935964Y-33612171D01*
X116836098Y-33826335D01*
X116836094Y-33826344D01*
X116779492Y-34037593D01*
X116743127Y-34097254D01*
X116680281Y-34127783D01*
X116659717Y-34129500D01*
X114621785Y-34129500D01*
X114554746Y-34109815D01*
X114508991Y-34057011D01*
X114499047Y-33987853D01*
X114528072Y-33924297D01*
X114556685Y-33899963D01*
X114653350Y-33840340D01*
X114775340Y-33718350D01*
X114865908Y-33571516D01*
X114920174Y-33407753D01*
X114930500Y-33306677D01*
X114930499Y-32733324D01*
X114930108Y-32729500D01*
X114920174Y-32632247D01*
X114909858Y-32601117D01*
X114865908Y-32468484D01*
X114775340Y-32321650D01*
X114653350Y-32199660D01*
X114556686Y-32140037D01*
X114509964Y-32088091D01*
X114498741Y-32019128D01*
X114526585Y-31955046D01*
X114584653Y-31916190D01*
X114621785Y-31910500D01*
X116659717Y-31910500D01*
X116726756Y-31930185D01*
G37*
%TD.AperFunction*%
%TA.AperFunction,NonConductor*%
G36*
X51555149Y-33740185D02*
G01*
X51600904Y-33792989D01*
X51610848Y-33862147D01*
X51581823Y-33925703D01*
X51575791Y-33932181D01*
X51027299Y-34480671D01*
X50965976Y-34514156D01*
X50896284Y-34509172D01*
X50840351Y-34467300D01*
X50815934Y-34401836D01*
X50816089Y-34382191D01*
X50825468Y-34275000D01*
X50805635Y-34048308D01*
X50788445Y-33984156D01*
X50759625Y-33876593D01*
X50761288Y-33806743D01*
X50800451Y-33748881D01*
X50864679Y-33721377D01*
X50879400Y-33720500D01*
X51488110Y-33720500D01*
X51555149Y-33740185D01*
G37*
%TD.AperFunction*%
%TA.AperFunction,NonConductor*%
G36*
X31343801Y-34874507D02*
G01*
X31345912Y-34876569D01*
X31786222Y-35316879D01*
X31819707Y-35378202D01*
X31814723Y-35447894D01*
X31772851Y-35503827D01*
X31709349Y-35528088D01*
X31523312Y-35544364D01*
X31523302Y-35544366D01*
X31393840Y-35579055D01*
X31323990Y-35577392D01*
X31266128Y-35538229D01*
X31238624Y-35474000D01*
X31238427Y-35446316D01*
X31241599Y-35416141D01*
X31238626Y-35387853D01*
X31221813Y-35227883D01*
X31163318Y-35047855D01*
X31150843Y-35026248D01*
X31134371Y-34958350D01*
X31157224Y-34892323D01*
X31212145Y-34849132D01*
X31281698Y-34842491D01*
X31343801Y-34874507D01*
G37*
%TD.AperFunction*%
%TA.AperFunction,NonConductor*%
G36*
X119340353Y-35134347D02*
G01*
X119375768Y-35194576D01*
X119379500Y-35224769D01*
X119379500Y-35895230D01*
X119359815Y-35962269D01*
X119307011Y-36008024D01*
X119237853Y-36017968D01*
X119174297Y-35988943D01*
X119153926Y-35966354D01*
X119148495Y-35958598D01*
X118981402Y-35791506D01*
X118981396Y-35791501D01*
X118795842Y-35661575D01*
X118752217Y-35606998D01*
X118745023Y-35537500D01*
X118776546Y-35475145D01*
X118795842Y-35458425D01*
X118855934Y-35416348D01*
X118981401Y-35328495D01*
X119148495Y-35161401D01*
X119153924Y-35153646D01*
X119208499Y-35110022D01*
X119277997Y-35102827D01*
X119340353Y-35134347D01*
G37*
%TD.AperFunction*%
%TA.AperFunction,NonConductor*%
G36*
X28935520Y-35010185D02*
G01*
X28956162Y-35026819D01*
X29246222Y-35316879D01*
X29279707Y-35378202D01*
X29274723Y-35447894D01*
X29232851Y-35503827D01*
X29169349Y-35528088D01*
X28983312Y-35544364D01*
X28983302Y-35544366D01*
X28763511Y-35603258D01*
X28763502Y-35603261D01*
X28557267Y-35699431D01*
X28557265Y-35699432D01*
X28370858Y-35829954D01*
X28209954Y-35990858D01*
X28079432Y-36177265D01*
X28079431Y-36177267D01*
X28052382Y-36235275D01*
X28006209Y-36287714D01*
X27939016Y-36306866D01*
X27872135Y-36286650D01*
X27827618Y-36235275D01*
X27800568Y-36177267D01*
X27800567Y-36177265D01*
X27670045Y-35990858D01*
X27509141Y-35829954D01*
X27322734Y-35699432D01*
X27322732Y-35699431D01*
X27116497Y-35603261D01*
X27116488Y-35603258D01*
X26896697Y-35544366D01*
X26896693Y-35544365D01*
X26896692Y-35544365D01*
X26896691Y-35544364D01*
X26896686Y-35544364D01*
X26670002Y-35524532D01*
X26669998Y-35524532D01*
X26443313Y-35544364D01*
X26443302Y-35544366D01*
X26223511Y-35603258D01*
X26223502Y-35603261D01*
X26017267Y-35699431D01*
X26017265Y-35699432D01*
X25830858Y-35829954D01*
X25669954Y-35990858D01*
X25652725Y-36015464D01*
X25598147Y-36059088D01*
X25528648Y-36066280D01*
X25466294Y-36034757D01*
X25430882Y-35974526D01*
X25427861Y-35957591D01*
X25424091Y-35922516D01*
X25373797Y-35787671D01*
X25373793Y-35787664D01*
X25287547Y-35672455D01*
X25287544Y-35672452D01*
X25172335Y-35586206D01*
X25172328Y-35586202D01*
X25037482Y-35535908D01*
X25037483Y-35535908D01*
X24977883Y-35529501D01*
X24977881Y-35529500D01*
X24977873Y-35529500D01*
X24977865Y-35529500D01*
X24180518Y-35529500D01*
X24113479Y-35509815D01*
X24067724Y-35457011D01*
X24057780Y-35387853D01*
X24086805Y-35324297D01*
X24092837Y-35317819D01*
X24182774Y-35227883D01*
X24383837Y-35026819D01*
X24445161Y-34993334D01*
X24471519Y-34990500D01*
X28868481Y-34990500D01*
X28935520Y-35010185D01*
G37*
%TD.AperFunction*%
%TA.AperFunction,NonConductor*%
G36*
X40883679Y-36280185D02*
G01*
X40929434Y-36332989D01*
X40939378Y-36402147D01*
X40936415Y-36416594D01*
X40890526Y-36587852D01*
X40854161Y-36647512D01*
X40791314Y-36678041D01*
X40721938Y-36669746D01*
X40668060Y-36625261D01*
X40650976Y-36587851D01*
X40605088Y-36416593D01*
X40606751Y-36346743D01*
X40645914Y-36288881D01*
X40710142Y-36261377D01*
X40724863Y-36260500D01*
X40816640Y-36260500D01*
X40883679Y-36280185D01*
G37*
%TD.AperFunction*%
%TA.AperFunction,NonConductor*%
G36*
X40824280Y-36972645D02*
G01*
X40878158Y-37017130D01*
X40895243Y-37054540D01*
X40945850Y-37243406D01*
X40944187Y-37313256D01*
X40905025Y-37371119D01*
X40840796Y-37398623D01*
X40826075Y-37399500D01*
X40724863Y-37399500D01*
X40657824Y-37379815D01*
X40612069Y-37327011D01*
X40602125Y-37257853D01*
X40605088Y-37243407D01*
X40655693Y-37054541D01*
X40692057Y-36994881D01*
X40754904Y-36964351D01*
X40824280Y-36972645D01*
G37*
%TD.AperFunction*%
%TA.AperFunction,NonConductor*%
G36*
X30547865Y-37373348D02*
G01*
X30592381Y-37424724D01*
X30606517Y-37455038D01*
X30619429Y-37482728D01*
X30619432Y-37482734D01*
X30749954Y-37669141D01*
X30868632Y-37787819D01*
X30902117Y-37849142D01*
X30897133Y-37918834D01*
X30855261Y-37974767D01*
X30789797Y-37999184D01*
X30780951Y-37999500D01*
X30179049Y-37999500D01*
X30112010Y-37979815D01*
X30066255Y-37927011D01*
X30056311Y-37857853D01*
X30085336Y-37794297D01*
X30091368Y-37787819D01*
X30210045Y-37669141D01*
X30210045Y-37669140D01*
X30210047Y-37669139D01*
X30340568Y-37482734D01*
X30367618Y-37424724D01*
X30413790Y-37372285D01*
X30480983Y-37353133D01*
X30547865Y-37373348D01*
G37*
%TD.AperFunction*%
%TA.AperFunction,NonConductor*%
G36*
X15445702Y-37671056D02*
G01*
X15466072Y-37693643D01*
X15471500Y-37701395D01*
X15471504Y-37701400D01*
X15471505Y-37701401D01*
X15638599Y-37868495D01*
X15808621Y-37987546D01*
X15824594Y-37998730D01*
X15868219Y-38053307D01*
X15875413Y-38122805D01*
X15843890Y-38185160D01*
X15824595Y-38201880D01*
X15638922Y-38331890D01*
X15638920Y-38331891D01*
X15471891Y-38498920D01*
X15471887Y-38498925D01*
X15466073Y-38507229D01*
X15411495Y-38550853D01*
X15341996Y-38558045D01*
X15279642Y-38526521D01*
X15244230Y-38466291D01*
X15240500Y-38436112D01*
X15240500Y-37764765D01*
X15260184Y-37697730D01*
X15312988Y-37651975D01*
X15382146Y-37642031D01*
X15445702Y-37671056D01*
G37*
%TD.AperFunction*%
%TA.AperFunction,NonConductor*%
G36*
X119340353Y-37674347D02*
G01*
X119375768Y-37734576D01*
X119379500Y-37764769D01*
X119379500Y-38436103D01*
X119359815Y-38503142D01*
X119307011Y-38548897D01*
X119237853Y-38558841D01*
X119174297Y-38529816D01*
X119153925Y-38507227D01*
X119148109Y-38498922D01*
X119148108Y-38498920D01*
X118981078Y-38331890D01*
X118795405Y-38201879D01*
X118751780Y-38147302D01*
X118744588Y-38077804D01*
X118776110Y-38015449D01*
X118795406Y-37998730D01*
X118811377Y-37987547D01*
X118981401Y-37868495D01*
X119148495Y-37701401D01*
X119153924Y-37693646D01*
X119208499Y-37650022D01*
X119277997Y-37642827D01*
X119340353Y-37674347D01*
G37*
%TD.AperFunction*%
%TA.AperFunction,NonConductor*%
G36*
X119340354Y-40213474D02*
G01*
X119375768Y-40273704D01*
X119379500Y-40303895D01*
X119379500Y-40515500D01*
X119359815Y-40582539D01*
X119307011Y-40628294D01*
X119255500Y-40639500D01*
X119043896Y-40639500D01*
X118976857Y-40619815D01*
X118931102Y-40567011D01*
X118921158Y-40497853D01*
X118950183Y-40434297D01*
X118972771Y-40413926D01*
X118981080Y-40408107D01*
X119148106Y-40241081D01*
X119153924Y-40232773D01*
X119208500Y-40189147D01*
X119277998Y-40181953D01*
X119340354Y-40213474D01*
G37*
%TD.AperFunction*%
%TA.AperFunction,NonConductor*%
G36*
X15445701Y-40210182D02*
G01*
X15466071Y-40232768D01*
X15471890Y-40241078D01*
X15638919Y-40408107D01*
X15647229Y-40413926D01*
X15690853Y-40468504D01*
X15698045Y-40538003D01*
X15666521Y-40600357D01*
X15606291Y-40635769D01*
X15576104Y-40639500D01*
X15364500Y-40639500D01*
X15297461Y-40619815D01*
X15251706Y-40567011D01*
X15240500Y-40515501D01*
X15240500Y-40413926D01*
X15240500Y-40303892D01*
X15260183Y-40236856D01*
X15312987Y-40191101D01*
X15382145Y-40181157D01*
X15445701Y-40210182D01*
G37*
%TD.AperFunction*%
M02*
