%TF.GenerationSoftware,KiCad,Pcbnew,7.0.5*%
%TF.CreationDate,2024-09-15T17:20:00-04:00*%
%TF.ProjectId,8_bit_logic_analyzer,385f6269-745f-46c6-9f67-69635f616e61,rev?*%
%TF.SameCoordinates,Original*%
%TF.FileFunction,Soldermask,Top*%
%TF.FilePolarity,Negative*%
%FSLAX46Y46*%
G04 Gerber Fmt 4.6, Leading zero omitted, Abs format (unit mm)*
G04 Created by KiCad (PCBNEW 7.0.5) date 2024-09-15 17:20:00*
%MOMM*%
%LPD*%
G01*
G04 APERTURE LIST*
G04 Aperture macros list*
%AMRoundRect*
0 Rectangle with rounded corners*
0 $1 Rounding radius*
0 $2 $3 $4 $5 $6 $7 $8 $9 X,Y pos of 4 corners*
0 Add a 4 corners polygon primitive as box body*
4,1,4,$2,$3,$4,$5,$6,$7,$8,$9,$2,$3,0*
0 Add four circle primitives for the rounded corners*
1,1,$1+$1,$2,$3*
1,1,$1+$1,$4,$5*
1,1,$1+$1,$6,$7*
1,1,$1+$1,$8,$9*
0 Add four rect primitives between the rounded corners*
20,1,$1+$1,$2,$3,$4,$5,0*
20,1,$1+$1,$4,$5,$6,$7,0*
20,1,$1+$1,$6,$7,$8,$9,0*
20,1,$1+$1,$8,$9,$2,$3,0*%
G04 Aperture macros list end*
%ADD10RoundRect,0.237500X0.237500X-0.287500X0.237500X0.287500X-0.237500X0.287500X-0.237500X-0.287500X0*%
%ADD11RoundRect,0.237500X-0.287500X-0.237500X0.287500X-0.237500X0.287500X0.237500X-0.287500X0.237500X0*%
%ADD12RoundRect,0.237500X0.250000X0.237500X-0.250000X0.237500X-0.250000X-0.237500X0.250000X-0.237500X0*%
%ADD13RoundRect,0.237500X0.237500X-0.250000X0.237500X0.250000X-0.237500X0.250000X-0.237500X-0.250000X0*%
%ADD14R,1.700000X1.700000*%
%ADD15O,1.700000X1.700000*%
%ADD16R,1.600000X1.600000*%
%ADD17O,1.600000X1.600000*%
%ADD18C,1.600000*%
%ADD19O,2.200000X2.200000*%
%ADD20R,2.200000X2.200000*%
G04 APERTURE END LIST*
D10*
%TO.C,D18*%
X21590000Y-16510000D03*
X21590000Y-18260000D03*
%TD*%
D11*
%TO.C,D3*%
X109657485Y-18643513D03*
X107907485Y-18643513D03*
%TD*%
D12*
%TO.C,R19*%
X108307500Y-33020000D03*
X110132500Y-33020000D03*
%TD*%
%TO.C,R18*%
X110132500Y-22860000D03*
X108307500Y-22860000D03*
%TD*%
D13*
%TO.C,R4*%
X111760000Y-16867500D03*
X111760000Y-18692500D03*
%TD*%
D11*
%TO.C,D17*%
X113905000Y-33020000D03*
X112155000Y-33020000D03*
%TD*%
%TO.C,D16*%
X113905000Y-22860000D03*
X112155000Y-22860000D03*
%TD*%
D14*
%TO.C,J4*%
X44440000Y-34275000D03*
D15*
X44440000Y-31735000D03*
X44440000Y-29195000D03*
X44440000Y-26655000D03*
X44440000Y-24115000D03*
X44440000Y-21575000D03*
X44440000Y-19035000D03*
%TD*%
D14*
%TO.C,J2*%
X16510000Y-16510000D03*
D15*
X16510000Y-19050000D03*
X16510000Y-21590000D03*
X16510000Y-24130000D03*
X16510000Y-26670000D03*
X16510000Y-29210000D03*
X16510000Y-31750000D03*
X16510000Y-34290000D03*
X16510000Y-36830000D03*
X16510000Y-39370000D03*
%TD*%
D16*
%TO.C,U6*%
X57140000Y-36815000D03*
D17*
X57140000Y-34275000D03*
X57140000Y-31735000D03*
X57140000Y-29195000D03*
X57140000Y-26655000D03*
X57140000Y-24115000D03*
X57140000Y-21575000D03*
X57140000Y-19035000D03*
X49520000Y-19035000D03*
X49520000Y-21575000D03*
X49520000Y-24115000D03*
X49520000Y-26655000D03*
X49520000Y-29195000D03*
X49520000Y-31735000D03*
X49520000Y-34275000D03*
X49520000Y-36815000D03*
%TD*%
%TO.C,U5*%
X82550000Y-26670000D03*
X80010000Y-26670000D03*
X77470000Y-26670000D03*
X74930000Y-26670000D03*
X72390000Y-26670000D03*
X69850000Y-26670000D03*
X67310000Y-26670000D03*
X64770000Y-26670000D03*
X64770000Y-19050000D03*
X67310000Y-19050000D03*
X69850000Y-19050000D03*
X72390000Y-19050000D03*
X74930000Y-19050000D03*
X77470000Y-19050000D03*
X80010000Y-19050000D03*
D16*
X82550000Y-19050000D03*
%TD*%
D18*
%TO.C,C11*%
X85039517Y-32020675D03*
X85039517Y-37020675D03*
%TD*%
D17*
%TO.C,U4*%
X105410000Y-36830000D03*
X102870000Y-36830000D03*
X100330000Y-36830000D03*
X97790000Y-36830000D03*
X95250000Y-36830000D03*
X92710000Y-36830000D03*
X90170000Y-36830000D03*
X87630000Y-36830000D03*
X87630000Y-29210000D03*
X90170000Y-29210000D03*
X92710000Y-29210000D03*
X95250000Y-29210000D03*
X97790000Y-29210000D03*
X100330000Y-29210000D03*
X102870000Y-29210000D03*
D16*
X105410000Y-29210000D03*
%TD*%
D18*
%TO.C,C10*%
X85089999Y-19736650D03*
X85089999Y-24736650D03*
%TD*%
D16*
%TO.C,U7*%
X24125000Y-26660000D03*
D17*
X26665000Y-26660000D03*
X29205000Y-26660000D03*
X31745000Y-26660000D03*
X34285000Y-26660000D03*
X36825000Y-26660000D03*
X39365000Y-26660000D03*
X39365000Y-19040000D03*
X36825000Y-19040000D03*
X34285000Y-19040000D03*
X31745000Y-19040000D03*
X29205000Y-19040000D03*
X26665000Y-19040000D03*
X24125000Y-19040000D03*
%TD*%
D16*
%TO.C,U8*%
X24130000Y-36830000D03*
D17*
X26670000Y-36830000D03*
X29210000Y-36830000D03*
X31750000Y-36830000D03*
X34290000Y-36830000D03*
X36830000Y-36830000D03*
X39370000Y-36830000D03*
X39370000Y-29210000D03*
X36830000Y-29210000D03*
X34290000Y-29210000D03*
X31750000Y-29210000D03*
X29210000Y-29210000D03*
X26670000Y-29210000D03*
X24130000Y-29210000D03*
%TD*%
D14*
%TO.C,J8*%
X21590000Y-36830000D03*
%TD*%
D15*
%TO.C,J1*%
X118110000Y-39370000D03*
X118110000Y-36830000D03*
X118110000Y-34290000D03*
X118110000Y-31750000D03*
X118110000Y-29210000D03*
X118110000Y-26670000D03*
X118110000Y-24130000D03*
X118110000Y-21590000D03*
X118110000Y-19050000D03*
D14*
X118110000Y-16510000D03*
%TD*%
D15*
%TO.C,J5*%
X59690000Y-26670000D03*
D14*
X59690000Y-24130000D03*
%TD*%
D19*
%TO.C,D2*%
X105410000Y-16510000D03*
D20*
X97790000Y-16510000D03*
%TD*%
D17*
%TO.C,U9*%
X82535000Y-36840000D03*
X79995000Y-36840000D03*
X77455000Y-36840000D03*
X74915000Y-36840000D03*
X72375000Y-36840000D03*
X69835000Y-36840000D03*
X67295000Y-36840000D03*
X64755000Y-36840000D03*
X64755000Y-29220000D03*
X67295000Y-29220000D03*
X69835000Y-29220000D03*
X72375000Y-29220000D03*
X74915000Y-29220000D03*
X77455000Y-29220000D03*
X79995000Y-29220000D03*
D16*
X82535000Y-29220000D03*
%TD*%
D15*
%TO.C,J6*%
X62230000Y-26670000D03*
D14*
X62230000Y-24130000D03*
%TD*%
%TO.C,J7*%
X19050000Y-21590000D03*
D15*
X19050000Y-19050000D03*
%TD*%
D17*
%TO.C,U2*%
X105410000Y-26670000D03*
X102870000Y-26670000D03*
X100330000Y-26670000D03*
X97790000Y-26670000D03*
X95250000Y-26670000D03*
X92710000Y-26670000D03*
X90170000Y-26670000D03*
X87630000Y-26670000D03*
X87630000Y-19050000D03*
X90170000Y-19050000D03*
X92710000Y-19050000D03*
X95250000Y-19050000D03*
X97790000Y-19050000D03*
X100330000Y-19050000D03*
X102870000Y-19050000D03*
D16*
X105410000Y-19050000D03*
%TD*%
D20*
%TO.C,D1*%
X31750000Y-16510000D03*
D19*
X24130000Y-16510000D03*
%TD*%
D18*
%TO.C,C4*%
X47176220Y-36812393D03*
X42176220Y-36812393D03*
%TD*%
D14*
%TO.C,J3*%
X46980000Y-19035000D03*
D15*
X46980000Y-21575000D03*
X46980000Y-24115000D03*
X46980000Y-26655000D03*
X46980000Y-29195000D03*
X46980000Y-31735000D03*
X46980000Y-34275000D03*
%TD*%
M02*
