%TF.GenerationSoftware,KiCad,Pcbnew,7.0.5*%
%TF.CreationDate,2024-09-15T17:20:00-04:00*%
%TF.ProjectId,8_bit_logic_analyzer,385f6269-745f-46c6-9f67-69635f616e61,rev?*%
%TF.SameCoordinates,Original*%
%TF.FileFunction,Copper,L2,Bot*%
%TF.FilePolarity,Positive*%
%FSLAX46Y46*%
G04 Gerber Fmt 4.6, Leading zero omitted, Abs format (unit mm)*
G04 Created by KiCad (PCBNEW 7.0.5) date 2024-09-15 17:20:00*
%MOMM*%
%LPD*%
G01*
G04 APERTURE LIST*
G04 Aperture macros list*
%AMRoundRect*
0 Rectangle with rounded corners*
0 $1 Rounding radius*
0 $2 $3 $4 $5 $6 $7 $8 $9 X,Y pos of 4 corners*
0 Add a 4 corners polygon primitive as box body*
4,1,4,$2,$3,$4,$5,$6,$7,$8,$9,$2,$3,0*
0 Add four circle primitives for the rounded corners*
1,1,$1+$1,$2,$3*
1,1,$1+$1,$4,$5*
1,1,$1+$1,$6,$7*
1,1,$1+$1,$8,$9*
0 Add four rect primitives between the rounded corners*
20,1,$1+$1,$2,$3,$4,$5,0*
20,1,$1+$1,$4,$5,$6,$7,0*
20,1,$1+$1,$6,$7,$8,$9,0*
20,1,$1+$1,$8,$9,$2,$3,0*%
G04 Aperture macros list end*
%TA.AperFunction,SMDPad,CuDef*%
%ADD10RoundRect,0.237500X-0.250000X-0.237500X0.250000X-0.237500X0.250000X0.237500X-0.250000X0.237500X0*%
%TD*%
%TA.AperFunction,SMDPad,CuDef*%
%ADD11RoundRect,0.200000X-0.200000X-0.275000X0.200000X-0.275000X0.200000X0.275000X-0.200000X0.275000X0*%
%TD*%
%TA.AperFunction,SMDPad,CuDef*%
%ADD12RoundRect,0.237500X0.237500X-0.250000X0.237500X0.250000X-0.237500X0.250000X-0.237500X-0.250000X0*%
%TD*%
%TA.AperFunction,SMDPad,CuDef*%
%ADD13RoundRect,0.237500X-0.344715X0.008839X0.008839X-0.344715X0.344715X-0.008839X-0.008839X0.344715X0*%
%TD*%
%TA.AperFunction,SMDPad,CuDef*%
%ADD14RoundRect,0.237500X0.250000X0.237500X-0.250000X0.237500X-0.250000X-0.237500X0.250000X-0.237500X0*%
%TD*%
%TA.AperFunction,SMDPad,CuDef*%
%ADD15RoundRect,0.237500X-0.371231X0.035355X0.035355X-0.371231X0.371231X-0.035355X-0.035355X0.371231X0*%
%TD*%
%TA.AperFunction,SMDPad,CuDef*%
%ADD16RoundRect,0.237500X0.287500X0.237500X-0.287500X0.237500X-0.287500X-0.237500X0.287500X-0.237500X0*%
%TD*%
%TA.AperFunction,SMDPad,CuDef*%
%ADD17RoundRect,0.237500X-0.287500X-0.237500X0.287500X-0.237500X0.287500X0.237500X-0.287500X0.237500X0*%
%TD*%
%TA.AperFunction,ComponentPad*%
%ADD18R,1.700000X1.700000*%
%TD*%
%TA.AperFunction,ComponentPad*%
%ADD19O,1.700000X1.700000*%
%TD*%
%TA.AperFunction,ComponentPad*%
%ADD20R,1.600000X1.600000*%
%TD*%
%TA.AperFunction,ComponentPad*%
%ADD21O,1.600000X1.600000*%
%TD*%
%TA.AperFunction,ComponentPad*%
%ADD22C,1.600000*%
%TD*%
%TA.AperFunction,ComponentPad*%
%ADD23O,2.200000X2.200000*%
%TD*%
%TA.AperFunction,ComponentPad*%
%ADD24R,2.200000X2.200000*%
%TD*%
%TA.AperFunction,SMDPad,CuDef*%
%ADD25RoundRect,0.200000X0.200000X0.275000X-0.200000X0.275000X-0.200000X-0.275000X0.200000X-0.275000X0*%
%TD*%
%TA.AperFunction,SMDPad,CuDef*%
%ADD26R,0.650000X1.560000*%
%TD*%
%TA.AperFunction,SMDPad,CuDef*%
%ADD27RoundRect,0.200000X0.275000X-0.200000X0.275000X0.200000X-0.275000X0.200000X-0.275000X-0.200000X0*%
%TD*%
%TA.AperFunction,ViaPad*%
%ADD28C,0.800000*%
%TD*%
%TA.AperFunction,Conductor*%
%ADD29C,0.400000*%
%TD*%
%TA.AperFunction,Conductor*%
%ADD30C,0.600000*%
%TD*%
%TA.AperFunction,Conductor*%
%ADD31C,0.500000*%
%TD*%
G04 APERTURE END LIST*
D10*
%TO.P,R23,1*%
%TO.N,GND*%
X52785000Y-26670000D03*
%TO.P,R23,2*%
%TO.N,Net-(J5-Pin_2)*%
X54610000Y-26670000D03*
%TD*%
%TO.P,R22,1*%
%TO.N,VCC*%
X52785000Y-24130000D03*
%TO.P,R22,2*%
%TO.N,Net-(J5-Pin_1)*%
X54610000Y-24130000D03*
%TD*%
D11*
%TO.P,R21,1*%
%TO.N,Net-(U9-~{MR})*%
X81006565Y-24588855D03*
%TO.P,R21,2*%
%TO.N,/clear_command*%
X82656565Y-24588855D03*
%TD*%
D12*
%TO.P,R20,1*%
%TO.N,GND*%
X36830000Y-23772500D03*
%TO.P,R20,2*%
%TO.N,Net-(D18-K)*%
X36830000Y-21947500D03*
%TD*%
D13*
%TO.P,R17,1*%
%TO.N,Net-(D15-A)*%
X67284927Y-34219197D03*
%TO.P,R17,2*%
%TO.N,/logic_analyzer_addr_3*%
X68575397Y-35509667D03*
%TD*%
%TO.P,R16,1*%
%TO.N,Net-(D14-A)*%
X69929666Y-34125774D03*
%TO.P,R16,2*%
%TO.N,/logic_analyzer_addr_2*%
X71220136Y-35416244D03*
%TD*%
%TO.P,R15,1*%
%TO.N,Net-(D13-A)*%
X72412864Y-34231401D03*
%TO.P,R15,2*%
%TO.N,/logic_analyzer_addr_1*%
X73703334Y-35521871D03*
%TD*%
%TO.P,R14,1*%
%TO.N,Net-(D12-A)*%
X74991576Y-34226383D03*
%TO.P,R14,2*%
%TO.N,/logic_analyzer_addr_0*%
X76282046Y-35516853D03*
%TD*%
D14*
%TO.P,R13,1*%
%TO.N,Net-(D11-A)*%
X31392500Y-31750000D03*
%TO.P,R13,2*%
%TO.N,/~record*%
X29567500Y-31750000D03*
%TD*%
%TO.P,R12,1*%
%TO.N,Net-(D10-A)*%
X26312500Y-33020000D03*
%TO.P,R12,2*%
%TO.N,Net-(U7B-Q)*%
X24487500Y-33020000D03*
%TD*%
D13*
%TO.P,R11,1*%
%TO.N,Net-(D9-A)*%
X70474765Y-23484765D03*
%TO.P,R11,2*%
%TO.N,/~ram_0_selected*%
X71765235Y-24775235D03*
%TD*%
%TO.P,R10,2*%
%TO.N,Net-(U5-Q2)*%
X74305235Y-24775235D03*
%TO.P,R10,1*%
%TO.N,Net-(D8-A)*%
X73014765Y-23484765D03*
%TD*%
%TO.P,R9,2*%
%TO.N,Net-(U5-Q1)*%
X76845235Y-24775235D03*
%TO.P,R9,1*%
%TO.N,Net-(D7-A)*%
X75554765Y-23484765D03*
%TD*%
%TO.P,R8,2*%
%TO.N,Net-(U5-Q0)*%
X79385235Y-24775235D03*
%TO.P,R8,1*%
%TO.N,Net-(D6-A)*%
X78094765Y-23484765D03*
%TD*%
D14*
%TO.P,R7,2*%
%TO.N,/clear_command*%
X60047500Y-21590000D03*
%TO.P,R7,1*%
%TO.N,Net-(D5-K)*%
X61872500Y-21590000D03*
%TD*%
D10*
%TO.P,R6,1*%
%TO.N,Net-(D4-K)*%
X39727500Y-31750000D03*
%TO.P,R6,2*%
%TO.N,/card_selected*%
X41552500Y-31750000D03*
%TD*%
D15*
%TO.P,D15,2,A*%
%TO.N,Net-(D15-A)*%
X66163618Y-33062861D03*
%TO.P,D15,1,K*%
%TO.N,GND*%
X64926182Y-31825425D03*
%TD*%
%TO.P,D14,2,A*%
%TO.N,Net-(D14-A)*%
X68672498Y-32892589D03*
%TO.P,D14,1,K*%
%TO.N,GND*%
X67435062Y-31655153D03*
%TD*%
%TO.P,D13,1,K*%
%TO.N,GND*%
X70003065Y-31801984D03*
%TO.P,D13,2,A*%
%TO.N,Net-(D13-A)*%
X71240501Y-33039420D03*
%TD*%
%TO.P,D12,2,A*%
%TO.N,Net-(D12-A)*%
X74146609Y-33425312D03*
%TO.P,D12,1,K*%
%TO.N,GND*%
X72909173Y-32187876D03*
%TD*%
D16*
%TO.P,D11,1,K*%
%TO.N,GND*%
X33299188Y-33599243D03*
%TO.P,D11,2,A*%
%TO.N,Net-(D11-A)*%
X31549188Y-33599243D03*
%TD*%
D17*
%TO.P,D10,1,K*%
%TO.N,GND*%
X24496589Y-31489171D03*
%TO.P,D10,2,A*%
%TO.N,Net-(D10-A)*%
X26246589Y-31489171D03*
%TD*%
D15*
%TO.P,D9,2,A*%
%TO.N,Net-(D9-A)*%
X69198718Y-22208718D03*
%TO.P,D9,1,K*%
%TO.N,GND*%
X67961282Y-20971282D03*
%TD*%
%TO.P,D8,2,A*%
%TO.N,Net-(D8-A)*%
X71738718Y-22208718D03*
%TO.P,D8,1,K*%
%TO.N,GND*%
X70501282Y-20971282D03*
%TD*%
%TO.P,D7,2,A*%
%TO.N,Net-(D7-A)*%
X74278718Y-22208718D03*
%TO.P,D7,1,K*%
%TO.N,GND*%
X73041282Y-20971282D03*
%TD*%
%TO.P,D6,2,A*%
%TO.N,Net-(D6-A)*%
X76818718Y-22208718D03*
%TO.P,D6,1,K*%
%TO.N,GND*%
X75581282Y-20971282D03*
%TD*%
D16*
%TO.P,D5,2,A*%
%TO.N,VCC*%
X60085000Y-20320000D03*
%TO.P,D5,1,K*%
%TO.N,Net-(D5-K)*%
X61835000Y-20320000D03*
%TD*%
%TO.P,D4,1,K*%
%TO.N,Net-(D4-K)*%
X37705000Y-31750000D03*
%TO.P,D4,2,A*%
%TO.N,VCC*%
X35955000Y-31750000D03*
%TD*%
D18*
%TO.P,J4,1,Pin_1*%
%TO.N,/card_selected*%
X44440000Y-34275000D03*
D19*
%TO.P,J4,2,Pin_2*%
X44440000Y-31735000D03*
%TO.P,J4,3,Pin_3*%
X44440000Y-29195000D03*
%TO.P,J4,4,Pin_4*%
X44440000Y-26655000D03*
%TO.P,J4,5,Pin_5*%
X44440000Y-24115000D03*
%TO.P,J4,6,Pin_6*%
X44440000Y-21575000D03*
%TO.P,J4,7,Pin_7*%
X44440000Y-19035000D03*
%TD*%
D18*
%TO.P,J2,1,Pin_1*%
%TO.N,Net-(D1-A)*%
X16510000Y-16510000D03*
D19*
%TO.P,J2,2,Pin_2*%
%TO.N,Net-(J2-Pin_2)*%
X16510000Y-19050000D03*
%TO.P,J2,3,Pin_3*%
%TO.N,Net-(J2-Pin_3)*%
X16510000Y-21590000D03*
%TO.P,J2,4,Pin_4*%
%TO.N,/s_data_out*%
X16510000Y-24130000D03*
%TO.P,J2,5,Pin_5*%
%TO.N,/s_data_in*%
X16510000Y-26670000D03*
%TO.P,J2,6,Pin_6*%
%TO.N,/s_clock*%
X16510000Y-29210000D03*
%TO.P,J2,7,Pin_7*%
%TO.N,/s_cs*%
X16510000Y-31750000D03*
%TO.P,J2,8,Pin_8*%
%TO.N,/rec_clock*%
X16510000Y-34290000D03*
%TO.P,J2,9,Pin_9*%
%TO.N,/rec_trig*%
X16510000Y-36830000D03*
%TO.P,J2,10,Pin_10*%
%TO.N,GND*%
X16510000Y-39370000D03*
%TD*%
D20*
%TO.P,U6,1,A0*%
%TO.N,Net-(U5-Q0)*%
X57140000Y-36815000D03*
D21*
%TO.P,U6,2,A1*%
%TO.N,Net-(U5-Q1)*%
X57140000Y-34275000D03*
%TO.P,U6,3,A2*%
%TO.N,Net-(U5-Q2)*%
X57140000Y-31735000D03*
%TO.P,U6,4,E1*%
%TO.N,GND*%
X57140000Y-29195000D03*
%TO.P,U6,5,E2*%
%TO.N,Net-(J5-Pin_2)*%
X57140000Y-26655000D03*
%TO.P,U6,6,E3*%
%TO.N,Net-(J5-Pin_1)*%
X57140000Y-24115000D03*
%TO.P,U6,7,O7*%
%TO.N,/clear_command*%
X57140000Y-21575000D03*
%TO.P,U6,8,GND*%
%TO.N,GND*%
X57140000Y-19035000D03*
%TO.P,U6,9,O6*%
%TO.N,Net-(J3-Pin_1)*%
X49520000Y-19035000D03*
%TO.P,U6,10,O5*%
%TO.N,Net-(J3-Pin_2)*%
X49520000Y-21575000D03*
%TO.P,U6,11,O4*%
%TO.N,Net-(J3-Pin_3)*%
X49520000Y-24115000D03*
%TO.P,U6,12,O3*%
%TO.N,Net-(J3-Pin_4)*%
X49520000Y-26655000D03*
%TO.P,U6,13,O2*%
%TO.N,Net-(J3-Pin_5)*%
X49520000Y-29195000D03*
%TO.P,U6,14,O1*%
%TO.N,Net-(J3-Pin_6)*%
X49520000Y-31735000D03*
%TO.P,U6,15,O0*%
%TO.N,Net-(J3-Pin_7)*%
X49520000Y-34275000D03*
%TO.P,U6,16,VCC*%
%TO.N,VCC*%
X49520000Y-36815000D03*
%TD*%
%TO.P,U5,16,VCC*%
%TO.N,VCC*%
X82550000Y-26670000D03*
%TO.P,U5,15,Q0*%
%TO.N,Net-(U5-Q0)*%
X80010000Y-26670000D03*
%TO.P,U5,14,Q1*%
%TO.N,Net-(U5-Q1)*%
X77470000Y-26670000D03*
%TO.P,U5,13,Q2*%
%TO.N,Net-(U5-Q2)*%
X74930000Y-26670000D03*
%TO.P,U5,12,Q3*%
%TO.N,/~ram_0_selected*%
X72390000Y-26670000D03*
%TO.P,U5,11,~{Q3}*%
%TO.N,/~ram_1_selected*%
X69850000Y-26670000D03*
%TO.P,U5,10,CP*%
%TO.N,/s_clock*%
X67310000Y-26670000D03*
%TO.P,U5,9,~{PE}*%
%TO.N,/card_selected*%
X64770000Y-26670000D03*
%TO.P,U5,8,GND*%
%TO.N,GND*%
X64770000Y-19050000D03*
%TO.P,U5,7,P3*%
%TO.N,/logic_analyzer_data_3*%
X67310000Y-19050000D03*
%TO.P,U5,6,P2*%
%TO.N,/logic_analyzer_data_2*%
X69850000Y-19050000D03*
%TO.P,U5,5,P1*%
%TO.N,/logic_analyzer_data_1*%
X72390000Y-19050000D03*
%TO.P,U5,4,P0*%
%TO.N,/logic_analyzer_data_0*%
X74930000Y-19050000D03*
%TO.P,U5,3,~{K}*%
%TO.N,Net-(U5-~{K})*%
X77470000Y-19050000D03*
%TO.P,U5,2,J*%
%TO.N,/s_data_in*%
X80010000Y-19050000D03*
D20*
%TO.P,U5,1,~{MR}*%
%TO.N,/clear_command*%
X82550000Y-19050000D03*
%TD*%
D22*
%TO.P,C11,2*%
%TO.N,GND*%
X85039517Y-32020675D03*
%TO.P,C11,1*%
%TO.N,VCC*%
X85039517Y-37020675D03*
%TD*%
D21*
%TO.P,U4,16,VCC*%
%TO.N,VCC*%
X105410000Y-36830000D03*
%TO.P,U4,15,A1*%
%TO.N,/logic_analyzer_addr_1*%
X102870000Y-36830000D03*
%TO.P,U4,14,A2*%
%TO.N,/logic_analyzer_addr_2*%
X100330000Y-36830000D03*
%TO.P,U4,13,A3*%
%TO.N,/logic_analyzer_addr_3*%
X97790000Y-36830000D03*
%TO.P,U4,12,D3*%
%TO.N,/H*%
X95250000Y-36830000D03*
%TO.P,U4,11,S3_n*%
%TO.N,/logic_analyzer_data_3*%
X92710000Y-36830000D03*
%TO.P,U4,10,D2*%
%TO.N,/G*%
X90170000Y-36830000D03*
%TO.P,U4,9,S2_n*%
%TO.N,/logic_analyzer_data_2*%
X87630000Y-36830000D03*
%TO.P,U4,8,GND*%
%TO.N,GND*%
X87630000Y-29210000D03*
%TO.P,U4,7,S1_n*%
%TO.N,/logic_analyzer_data_1*%
X90170000Y-29210000D03*
%TO.P,U4,6,D1*%
%TO.N,/F*%
X92710000Y-29210000D03*
%TO.P,U4,5,S0_n*%
%TO.N,/logic_analyzer_data_0*%
X95250000Y-29210000D03*
%TO.P,U4,4,D0*%
%TO.N,/E*%
X97790000Y-29210000D03*
%TO.P,U4,3,~WE*%
%TO.N,/~record*%
X100330000Y-29210000D03*
%TO.P,U4,2,~CS*%
%TO.N,Net-(U4-~CS)*%
X102870000Y-29210000D03*
D20*
%TO.P,U4,1,A0*%
%TO.N,/logic_analyzer_addr_0*%
X105410000Y-29210000D03*
%TD*%
D22*
%TO.P,C10,2*%
%TO.N,GND*%
X85089999Y-19736650D03*
%TO.P,C10,1*%
%TO.N,VCC*%
X85089999Y-24736650D03*
%TD*%
D20*
%TO.P,U7,1,~{R}*%
%TO.N,/clear_command*%
X24125000Y-26660000D03*
D21*
%TO.P,U7,2,D*%
%TO.N,VCC*%
X26665000Y-26660000D03*
%TO.P,U7,3,C*%
%TO.N,Net-(U7A-C)*%
X29205000Y-26660000D03*
%TO.P,U7,4,~{S}*%
%TO.N,VCC*%
X31745000Y-26660000D03*
%TO.P,U7,5,Q*%
%TO.N,/~record*%
X34285000Y-26660000D03*
%TO.P,U7,6,~{Q}*%
%TO.N,/~record_halt*%
X36825000Y-26660000D03*
%TO.P,U7,7,GND*%
%TO.N,GND*%
X39365000Y-26660000D03*
%TO.P,U7,8,~{Q}*%
%TO.N,unconnected-(U7B-~{Q}-Pad8)*%
X39365000Y-19040000D03*
%TO.P,U7,9,Q*%
%TO.N,Net-(U7B-Q)*%
X36825000Y-19040000D03*
%TO.P,U7,10,~{S}*%
%TO.N,VCC*%
X34285000Y-19040000D03*
%TO.P,U7,11,C*%
%TO.N,/rec_trig*%
X31745000Y-19040000D03*
%TO.P,U7,12,D*%
%TO.N,VCC*%
X29205000Y-19040000D03*
%TO.P,U7,13,~{R}*%
%TO.N,/~record_halt*%
X26665000Y-19040000D03*
%TO.P,U7,14,VCC*%
%TO.N,VCC*%
X24125000Y-19040000D03*
%TD*%
D20*
%TO.P,U8,1*%
%TO.N,Net-(U7B-Q)*%
X24130000Y-36830000D03*
D21*
%TO.P,U8,2*%
%TO.N,/logic_analyzer_addr_3*%
X26670000Y-36830000D03*
%TO.P,U8,3*%
%TO.N,Net-(U7A-C)*%
X29210000Y-36830000D03*
%TO.P,U8,4*%
%TO.N,N/C*%
X31750000Y-36830000D03*
%TO.P,U8,5*%
X34290000Y-36830000D03*
%TO.P,U8,6*%
X36830000Y-36830000D03*
%TO.P,U8,7,GND*%
%TO.N,GND*%
X39370000Y-36830000D03*
%TO.P,U8,8*%
%TO.N,Net-(U4-~CS)*%
X39370000Y-29210000D03*
%TO.P,U8,9*%
%TO.N,Net-(U8-Pad10)*%
X36830000Y-29210000D03*
%TO.P,U8,10*%
X34290000Y-29210000D03*
%TO.P,U8,11*%
X31750000Y-29210000D03*
%TO.P,U8,12*%
%TO.N,/~record*%
X29210000Y-29210000D03*
%TO.P,U8,13*%
%TO.N,/~ram_1_selected*%
X26670000Y-29210000D03*
%TO.P,U8,14,VCC*%
%TO.N,VCC*%
X24130000Y-29210000D03*
%TD*%
D18*
%TO.P,J8,1,Pin_1*%
%TO.N,/rec_trig*%
X21590000Y-36830000D03*
%TD*%
D19*
%TO.P,J1,10,Pin_10*%
%TO.N,GND*%
X118110000Y-39370000D03*
%TO.P,J1,9,Pin_9*%
%TO.N,/H*%
X118110000Y-36830000D03*
%TO.P,J1,8,Pin_8*%
%TO.N,/G*%
X118110000Y-34290000D03*
%TO.P,J1,7,Pin_7*%
%TO.N,/F*%
X118110000Y-31750000D03*
%TO.P,J1,6,Pin_6*%
%TO.N,/E*%
X118110000Y-29210000D03*
%TO.P,J1,5,Pin_5*%
%TO.N,/D*%
X118110000Y-26670000D03*
%TO.P,J1,4,Pin_4*%
%TO.N,/C*%
X118110000Y-24130000D03*
%TO.P,J1,3,Pin_3*%
%TO.N,/B*%
X118110000Y-21590000D03*
%TO.P,J1,2,Pin_2*%
%TO.N,/A*%
X118110000Y-19050000D03*
D18*
%TO.P,J1,1,Pin_1*%
%TO.N,Net-(D2-A)*%
X118110000Y-16510000D03*
%TD*%
D19*
%TO.P,J5,2,Pin_2*%
%TO.N,Net-(J5-Pin_2)*%
X59690000Y-26670000D03*
D18*
%TO.P,J5,1,Pin_1*%
%TO.N,Net-(J5-Pin_1)*%
X59690000Y-24130000D03*
%TD*%
D23*
%TO.P,D2,2,A*%
%TO.N,Net-(D2-A)*%
X105410000Y-16510000D03*
D24*
%TO.P,D2,1,K*%
%TO.N,VCC*%
X97790000Y-16510000D03*
%TD*%
D21*
%TO.P,U9,16,VCC*%
%TO.N,VCC*%
X82535000Y-36840000D03*
%TO.P,U9,15,TC*%
%TO.N,unconnected-(U9-TC-Pad15)*%
X79995000Y-36840000D03*
%TO.P,U9,14,Q0*%
%TO.N,/logic_analyzer_addr_0*%
X77455000Y-36840000D03*
%TO.P,U9,13,Q1*%
%TO.N,/logic_analyzer_addr_1*%
X74915000Y-36840000D03*
%TO.P,U9,12,Q2*%
%TO.N,/logic_analyzer_addr_2*%
X72375000Y-36840000D03*
%TO.P,U9,11,Q3*%
%TO.N,/logic_analyzer_addr_3*%
X69835000Y-36840000D03*
%TO.P,U9,10,CET*%
%TO.N,VCC*%
X67295000Y-36840000D03*
%TO.P,U9,9,~{PE}*%
X64755000Y-36840000D03*
%TO.P,U9,8,GND*%
%TO.N,GND*%
X64755000Y-29220000D03*
%TO.P,U9,7,CEP*%
%TO.N,VCC*%
X67295000Y-29220000D03*
%TO.P,U9,6,D3*%
%TO.N,GND*%
X69835000Y-29220000D03*
%TO.P,U9,5,D2*%
X72375000Y-29220000D03*
%TO.P,U9,4,D1*%
X74915000Y-29220000D03*
%TO.P,U9,3,D0*%
X77455000Y-29220000D03*
%TO.P,U9,2,CP*%
%TO.N,/rec_clock*%
X79995000Y-29220000D03*
D20*
%TO.P,U9,1,~{MR}*%
%TO.N,Net-(U9-~{MR})*%
X82535000Y-29220000D03*
%TD*%
D19*
%TO.P,J6,2,Pin_2*%
%TO.N,/s_cs*%
X62230000Y-26670000D03*
D18*
%TO.P,J6,1,Pin_1*%
X62230000Y-24130000D03*
%TD*%
%TO.P,J7,1,Pin_1*%
%TO.N,Net-(J2-Pin_3)*%
X19050000Y-21590000D03*
D19*
%TO.P,J7,2,Pin_2*%
%TO.N,Net-(J2-Pin_2)*%
X19050000Y-19050000D03*
%TD*%
D21*
%TO.P,U2,16,VCC*%
%TO.N,VCC*%
X105410000Y-26670000D03*
%TO.P,U2,15,A1*%
%TO.N,/logic_analyzer_addr_1*%
X102870000Y-26670000D03*
%TO.P,U2,14,A2*%
%TO.N,/logic_analyzer_addr_2*%
X100330000Y-26670000D03*
%TO.P,U2,13,A3*%
%TO.N,/logic_analyzer_addr_3*%
X97790000Y-26670000D03*
%TO.P,U2,12,D3*%
%TO.N,/D*%
X95250000Y-26670000D03*
%TO.P,U2,11,S3_n*%
%TO.N,/logic_analyzer_data_3*%
X92710000Y-26670000D03*
%TO.P,U2,10,D2*%
%TO.N,/C*%
X90170000Y-26670000D03*
%TO.P,U2,9,S2_n*%
%TO.N,/logic_analyzer_data_2*%
X87630000Y-26670000D03*
%TO.P,U2,8,GND*%
%TO.N,GND*%
X87630000Y-19050000D03*
%TO.P,U2,7,S1_n*%
%TO.N,/logic_analyzer_data_1*%
X90170000Y-19050000D03*
%TO.P,U2,6,D1*%
%TO.N,/B*%
X92710000Y-19050000D03*
%TO.P,U2,5,S0_n*%
%TO.N,/logic_analyzer_data_0*%
X95250000Y-19050000D03*
%TO.P,U2,4,D0*%
%TO.N,/A*%
X97790000Y-19050000D03*
%TO.P,U2,3,~WE*%
%TO.N,/~record*%
X100330000Y-19050000D03*
%TO.P,U2,2,~CS*%
%TO.N,/~ram_0_selected*%
X102870000Y-19050000D03*
D20*
%TO.P,U2,1,A0*%
%TO.N,/logic_analyzer_addr_0*%
X105410000Y-19050000D03*
%TD*%
D24*
%TO.P,D1,1,K*%
%TO.N,VCC*%
X31750000Y-16510000D03*
D23*
%TO.P,D1,2,A*%
%TO.N,Net-(D1-A)*%
X24130000Y-16510000D03*
%TD*%
D22*
%TO.P,C4,1*%
%TO.N,VCC*%
X47176220Y-36812393D03*
%TO.P,C4,2*%
%TO.N,GND*%
X42176220Y-36812393D03*
%TD*%
D18*
%TO.P,J3,1,Pin_1*%
%TO.N,Net-(J3-Pin_1)*%
X46980000Y-19035000D03*
D19*
%TO.P,J3,2,Pin_2*%
%TO.N,Net-(J3-Pin_2)*%
X46980000Y-21575000D03*
%TO.P,J3,3,Pin_3*%
%TO.N,Net-(J3-Pin_3)*%
X46980000Y-24115000D03*
%TO.P,J3,4,Pin_4*%
%TO.N,Net-(J3-Pin_4)*%
X46980000Y-26655000D03*
%TO.P,J3,5,Pin_5*%
%TO.N,Net-(J3-Pin_5)*%
X46980000Y-29195000D03*
%TO.P,J3,6,Pin_6*%
%TO.N,Net-(J3-Pin_6)*%
X46980000Y-31735000D03*
%TO.P,J3,7,Pin_7*%
%TO.N,Net-(J3-Pin_7)*%
X46980000Y-34275000D03*
%TD*%
D25*
%TO.P,R5,1*%
%TO.N,/s_data_in*%
X79605648Y-20583945D03*
%TO.P,R5,2*%
%TO.N,Net-(U5-~{K})*%
X77955648Y-20583945D03*
%TD*%
%TO.P,R1,1*%
%TO.N,/~ram_1_selected*%
X26183810Y-34696757D03*
%TO.P,R1,2*%
%TO.N,Net-(Q1B-G)*%
X24533810Y-34696757D03*
%TD*%
D26*
%TO.P,Q1,1*%
%TO.N,N/C*%
X19370000Y-25320000D03*
%TO.P,Q1,2*%
X20320000Y-25320000D03*
%TO.P,Q1,3,D*%
%TO.N,/s_data_out*%
X21270000Y-25320000D03*
%TO.P,Q1,4,S*%
%TO.N,GND*%
X21270000Y-28020000D03*
%TO.P,Q1,5,G*%
%TO.N,Net-(Q1B-G)*%
X20320000Y-28020000D03*
%TO.P,Q1,6*%
%TO.N,N/C*%
X19370000Y-28020000D03*
%TD*%
D27*
%TO.P,R3,1*%
%TO.N,/s_data_out*%
X21590000Y-22415000D03*
%TO.P,R3,2*%
%TO.N,VCC*%
X21590000Y-20765000D03*
%TD*%
D25*
%TO.P,R2,1*%
%TO.N,GND*%
X21590000Y-30480000D03*
%TO.P,R2,2*%
%TO.N,Net-(Q1B-G)*%
X19940000Y-30480000D03*
%TD*%
D28*
%TO.N,GND*%
X107533621Y-18292648D03*
%TO.N,Net-(D18-K)*%
X35560000Y-20320000D03*
%TO.N,/~record_halt*%
X27492644Y-24532127D03*
%TO.N,GND*%
X21590000Y-31750000D03*
X19759535Y-33780866D03*
X36830000Y-34290000D03*
X22860000Y-30480000D03*
X19050000Y-39370000D03*
X19050000Y-38100000D03*
X39370000Y-34290000D03*
X21590000Y-39370000D03*
X38100000Y-34290000D03*
X22860000Y-31750000D03*
X20320000Y-39370000D03*
%TO.N,Net-(U7B-Q)*%
X24130000Y-21590000D03*
%TO.N,GND*%
X19050000Y-33020000D03*
%TO.N,/rec_trig*%
X30336139Y-35416139D03*
%TO.N,/logic_analyzer_addr_3*%
X44955778Y-37629500D03*
%TO.N,GND*%
X68580632Y-17472956D03*
X71164363Y-17495821D03*
%TO.N,Net-(U5-Q1)*%
X85044270Y-26959621D03*
%TO.N,VCC*%
X104419188Y-23748918D03*
%TO.N,/rec_clock*%
X82054500Y-31279500D03*
%TO.N,GND*%
X64556594Y-31434972D03*
%TO.N,Net-(U5-Q1)*%
X84602216Y-30236919D03*
%TO.N,VCC*%
X106729728Y-33652219D03*
%TO.N,GND*%
X89458919Y-22768540D03*
X115465261Y-21952179D03*
%TO.N,/logic_analyzer_addr_2*%
X95180743Y-32759111D03*
%TO.N,/logic_analyzer_data_0*%
X96520000Y-21590000D03*
%TO.N,/logic_analyzer_addr_3*%
X93980000Y-32610500D03*
%TO.N,/logic_analyzer_addr_0*%
X105410000Y-33020000D03*
%TO.N,/s_data_in*%
X81280000Y-23269500D03*
%TO.N,GND*%
X60960000Y-30480000D03*
%TO.N,/logic_analyzer_data_2*%
X87630000Y-22569500D03*
%TO.N,/logic_analyzer_data_1*%
X91420000Y-21869500D03*
%TO.N,/logic_analyzer_addr_1*%
X102870000Y-33020000D03*
%TO.N,/~record*%
X96520000Y-32630500D03*
%TO.N,/clear_command*%
X82550000Y-23269500D03*
%TO.N,Net-(U5-Q2)*%
X71205614Y-31739973D03*
%TO.N,GND*%
X62230000Y-30480000D03*
%TO.N,Net-(U4-~CS)*%
X102007239Y-32304418D03*
%TO.N,/~ram_0_selected*%
X102870000Y-23870500D03*
%TO.N,/logic_analyzer_addr_3*%
X61683222Y-36223774D03*
%TO.N,/logic_analyzer_data_3*%
X92710000Y-22860000D03*
%TO.N,Net-(U5-Q0)*%
X83770673Y-32610500D03*
%TO.N,/s_cs*%
X53340000Y-34290000D03*
%TD*%
D29*
%TO.N,VCC*%
X56595000Y-20320000D02*
X60085000Y-20320000D01*
X52785000Y-24130000D02*
X56595000Y-20320000D01*
%TO.N,GND*%
X55310000Y-29195000D02*
X57140000Y-29195000D01*
X52785000Y-26670000D02*
X55310000Y-29195000D01*
%TO.N,Net-(J5-Pin_2)*%
X57125000Y-26670000D02*
X57140000Y-26655000D01*
X54610000Y-26670000D02*
X57125000Y-26670000D01*
%TO.N,Net-(J5-Pin_1)*%
X54625000Y-24115000D02*
X54610000Y-24130000D01*
X57140000Y-24115000D02*
X54625000Y-24115000D01*
%TO.N,Net-(U9-~{MR})*%
X81210000Y-27895000D02*
X82535000Y-29220000D01*
X81210000Y-24792290D02*
X81210000Y-27895000D01*
X81006565Y-24588855D02*
X81210000Y-24792290D01*
%TO.N,/clear_command*%
X82550000Y-24482290D02*
X82656565Y-24588855D01*
X82550000Y-23269500D02*
X82550000Y-24482290D01*
X82550000Y-19050000D02*
X82550000Y-23269500D01*
%TO.N,GND*%
X111193152Y-21952179D02*
X115465261Y-21952179D01*
X107533621Y-18292648D02*
X111193152Y-21952179D01*
%TO.N,Net-(D18-K)*%
X36830000Y-21590000D02*
X35560000Y-20320000D01*
X36830000Y-22267812D02*
X36830000Y-21590000D01*
%TO.N,GND*%
X39365000Y-26552812D02*
X36830000Y-24017812D01*
X39365000Y-26660000D02*
X39365000Y-26552812D01*
D30*
%TO.N,VCC*%
X31755000Y-16510000D02*
X34285000Y-19040000D01*
D29*
X31750000Y-16510000D02*
X31755000Y-16510000D01*
X104210000Y-23539730D02*
X104210000Y-17850000D01*
X104419188Y-23748918D02*
X104210000Y-23539730D01*
X104210000Y-23958106D02*
X104419188Y-23748918D01*
X106729728Y-35510272D02*
X105410000Y-36830000D01*
X106729728Y-33652219D02*
X106729728Y-35510272D01*
%TO.N,GND*%
X87630000Y-20939621D02*
X89458919Y-22768540D01*
X87630000Y-19050000D02*
X87630000Y-20939621D01*
%TO.N,/card_selected*%
X44425000Y-31750000D02*
X44440000Y-31735000D01*
X41552500Y-31750000D02*
X44425000Y-31750000D01*
%TO.N,Net-(D4-K)*%
X37705000Y-31750000D02*
X39727500Y-31750000D01*
%TO.N,VCC*%
X33025000Y-27940000D02*
X31745000Y-26660000D01*
X35490000Y-28712943D02*
X34717057Y-27940000D01*
X34717057Y-27940000D02*
X33025000Y-27940000D01*
X35490000Y-31285000D02*
X35490000Y-28712943D01*
X35955000Y-31750000D02*
X35490000Y-31285000D01*
%TO.N,/logic_analyzer_addr_0*%
X76282046Y-35667046D02*
X77455000Y-36840000D01*
X76282046Y-35516853D02*
X76282046Y-35667046D01*
%TO.N,Net-(D12-A)*%
X74146609Y-33425312D02*
X74190505Y-33425312D01*
X74190505Y-33425312D02*
X74991576Y-34226383D01*
%TO.N,GND*%
X70003065Y-31591935D02*
X72375000Y-29220000D01*
X70003065Y-31801984D02*
X70003065Y-31591935D01*
X74915000Y-30182049D02*
X74915000Y-29220000D01*
X72909173Y-32187876D02*
X74915000Y-30182049D01*
D31*
%TO.N,Net-(U5-Q2)*%
X73660000Y-27940000D02*
X74930000Y-26670000D01*
X73660000Y-29702767D02*
X73660000Y-27940000D01*
X71622794Y-31739973D02*
X73660000Y-29702767D01*
X71205614Y-31739973D02*
X71622794Y-31739973D01*
D29*
%TO.N,GND*%
X67581893Y-31801984D02*
X67435062Y-31655153D01*
X70003065Y-31801984D02*
X67581893Y-31801984D01*
%TO.N,/logic_analyzer_addr_1*%
X73703334Y-35628334D02*
X74915000Y-36840000D01*
X73703334Y-35521871D02*
X73703334Y-35628334D01*
%TO.N,Net-(D13-A)*%
X71240501Y-33059038D02*
X72412864Y-34231401D01*
X71240501Y-33039420D02*
X71240501Y-33059038D01*
%TO.N,GND*%
X65096454Y-31655153D02*
X64926182Y-31825425D01*
X67435062Y-31655153D02*
X65096454Y-31655153D01*
%TO.N,Net-(D14-A)*%
X69905683Y-34125774D02*
X68672498Y-32892589D01*
X69929666Y-34125774D02*
X69905683Y-34125774D01*
%TO.N,/logic_analyzer_addr_2*%
X71220136Y-35685136D02*
X72375000Y-36840000D01*
X71220136Y-35416244D02*
X71220136Y-35685136D01*
%TO.N,/logic_analyzer_addr_3*%
X68575397Y-35580397D02*
X69835000Y-36840000D01*
X68575397Y-35509667D02*
X68575397Y-35580397D01*
%TO.N,Net-(D15-A)*%
X66163618Y-33097888D02*
X67284927Y-34219197D01*
X66163618Y-33062861D02*
X66163618Y-33097888D01*
D30*
%TO.N,VCC*%
X66055000Y-29220000D02*
X67295000Y-29220000D01*
X66055000Y-29758478D02*
X66055000Y-29220000D01*
X62230000Y-35497759D02*
X62230000Y-31752793D01*
X62292241Y-35560000D02*
X62230000Y-35497759D01*
X65293478Y-30520000D02*
X66055000Y-29758478D01*
X63619789Y-36840000D02*
X62339789Y-35560000D01*
X62230000Y-31752793D02*
X63462793Y-30520000D01*
X63462793Y-30520000D02*
X65293478Y-30520000D01*
X67295000Y-36840000D02*
X63619789Y-36840000D01*
X62339789Y-35560000D02*
X62292241Y-35560000D01*
D29*
%TO.N,Net-(U5-Q1)*%
X84602216Y-30236919D02*
X84541243Y-30297892D01*
X85044270Y-29794865D02*
X84602216Y-30236919D01*
X85044270Y-26959621D02*
X85044270Y-29794865D01*
D31*
%TO.N,Net-(U5-Q0)*%
X78745000Y-27935000D02*
X80010000Y-26670000D01*
X79477233Y-30470000D02*
X78745000Y-29737767D01*
X78745000Y-29737767D02*
X78745000Y-27935000D01*
X83770673Y-32610500D02*
X82140500Y-32610500D01*
X80000000Y-30470000D02*
X79477233Y-30470000D01*
X82140500Y-32610500D02*
X80000000Y-30470000D01*
D29*
%TO.N,/rec_clock*%
X82054500Y-31279500D02*
X79995000Y-29220000D01*
%TO.N,/clear_command*%
X57155000Y-21590000D02*
X57140000Y-21575000D01*
X60047500Y-21590000D02*
X57155000Y-21590000D01*
%TO.N,Net-(D5-K)*%
X61835000Y-21552500D02*
X61872500Y-21590000D01*
X61835000Y-20320000D02*
X61835000Y-21552500D01*
%TO.N,VCC*%
X60085000Y-20320000D02*
X61355000Y-19050000D01*
X61355000Y-19050000D02*
X62230000Y-19050000D01*
D30*
X68595000Y-38140000D02*
X67295000Y-36840000D01*
X81240000Y-38140000D02*
X68595000Y-38140000D01*
X81280000Y-38100000D02*
X81240000Y-38140000D01*
X81280000Y-38095000D02*
X81280000Y-38100000D01*
X82535000Y-36840000D02*
X81280000Y-38095000D01*
D29*
%TO.N,GND*%
X36139243Y-33599243D02*
X36830000Y-34290000D01*
X33299188Y-33599243D02*
X36139243Y-33599243D01*
%TO.N,Net-(D11-A)*%
X31392500Y-33442555D02*
X31549188Y-33599243D01*
X31392500Y-31750000D02*
X31392500Y-33442555D01*
%TO.N,/~record*%
X29210000Y-31392500D02*
X29567500Y-31750000D01*
X29210000Y-29210000D02*
X29210000Y-31392500D01*
%TO.N,GND*%
X23120829Y-31489171D02*
X22860000Y-31750000D01*
X24496589Y-31489171D02*
X23120829Y-31489171D01*
%TO.N,Net-(D10-A)*%
X26312500Y-31555082D02*
X26246589Y-31489171D01*
X26312500Y-33020000D02*
X26312500Y-31555082D01*
%TO.N,Net-(U7B-Q)*%
X25383810Y-33916310D02*
X24487500Y-33020000D01*
X24130000Y-36830000D02*
X25383810Y-35576190D01*
X25383810Y-35576190D02*
X25383810Y-33916310D01*
%TO.N,/~ram_1_selected*%
X27410000Y-29950000D02*
X26670000Y-29210000D01*
X27410000Y-33470567D02*
X27410000Y-29950000D01*
X26183810Y-34696757D02*
X27410000Y-33470567D01*
%TO.N,Net-(Q1B-G)*%
X22845285Y-34696757D02*
X24533810Y-34696757D01*
X19940000Y-31791472D02*
X22845285Y-34696757D01*
X19940000Y-30480000D02*
X19940000Y-31791472D01*
%TO.N,GND*%
X71164363Y-19745645D02*
X72390000Y-20971282D01*
X71164363Y-17495821D02*
X71164363Y-19745645D01*
D30*
X72390000Y-20971282D02*
X67961282Y-20971282D01*
X75581282Y-20971282D02*
X72390000Y-20971282D01*
D29*
X68580632Y-20351932D02*
X67961282Y-20971282D01*
X68580632Y-17472956D02*
X68580632Y-20351932D01*
D30*
%TO.N,Net-(U5-Q0)*%
X79385235Y-26045235D02*
X80010000Y-26670000D01*
X79385235Y-24775235D02*
X79385235Y-26045235D01*
%TO.N,Net-(U5-Q1)*%
X76845235Y-26045235D02*
X77470000Y-26670000D01*
X76845235Y-24775235D02*
X76845235Y-26045235D01*
%TO.N,Net-(U5-Q2)*%
X74305235Y-26045235D02*
X74930000Y-26670000D01*
X74305235Y-24775235D02*
X74305235Y-26045235D01*
%TO.N,/~ram_0_selected*%
X71765235Y-26045235D02*
X72390000Y-26670000D01*
X71765235Y-24775235D02*
X71765235Y-26045235D01*
%TO.N,Net-(D6-A)*%
X76818718Y-22208718D02*
X78094765Y-23484765D01*
%TO.N,Net-(D7-A)*%
X74278718Y-22208718D02*
X75554765Y-23484765D01*
%TO.N,Net-(D8-A)*%
X71738718Y-22208718D02*
X73014765Y-23484765D01*
%TO.N,Net-(D9-A)*%
X69198718Y-22208718D02*
X70474765Y-23484765D01*
D29*
%TO.N,VCC*%
X66040000Y-19477057D02*
X66040000Y-16510000D01*
X66040000Y-16510000D02*
X68580000Y-16510000D01*
X66577512Y-20014569D02*
X66040000Y-19477057D01*
X66577512Y-24240455D02*
X66577512Y-20014569D01*
X68510000Y-28005000D02*
X68510000Y-26172943D01*
X68510000Y-26172943D02*
X66577512Y-24240455D01*
X67295000Y-29220000D02*
X68510000Y-28005000D01*
D31*
%TO.N,/s_data_in*%
X80273945Y-20583945D02*
X79605648Y-20583945D01*
X81280000Y-21590000D02*
X80273945Y-20583945D01*
X81280000Y-23269500D02*
X81280000Y-21590000D01*
%TO.N,Net-(U9-~{MR})*%
X82535000Y-29220000D02*
X82550000Y-29205000D01*
%TO.N,/s_data_in*%
X80010000Y-20179593D02*
X80010000Y-19050000D01*
X79605648Y-20583945D02*
X80010000Y-20179593D01*
%TO.N,Net-(U5-~{K})*%
X77470000Y-19050000D02*
X77470000Y-20098297D01*
X77470000Y-20098297D02*
X77955648Y-20583945D01*
D29*
%TO.N,/logic_analyzer_addr_3*%
X46766556Y-35525000D02*
X59655000Y-35525000D01*
X44955778Y-37335778D02*
X46766556Y-35525000D01*
X59655000Y-35525000D02*
X59690000Y-35560000D01*
X59690000Y-35560000D02*
X61019448Y-35560000D01*
X44955778Y-37629500D02*
X44955778Y-37335778D01*
D30*
%TO.N,VCC*%
X84483350Y-24736650D02*
X82550000Y-26670000D01*
X64755000Y-36840000D02*
X67295000Y-36840000D01*
D29*
X86360000Y-16510000D02*
X86360000Y-20320000D01*
D30*
X86360000Y-16510000D02*
X97790000Y-16510000D01*
D29*
X23315000Y-19040000D02*
X21590000Y-20765000D01*
D30*
X34285000Y-24120000D02*
X31745000Y-26660000D01*
X50820000Y-38115000D02*
X49520000Y-36815000D01*
X82535000Y-36840000D02*
X84858842Y-36840000D01*
X29205000Y-19040000D02*
X29205000Y-24120000D01*
D29*
X104210000Y-27870000D02*
X104210000Y-35630000D01*
X104210000Y-25470000D02*
X104210000Y-23958106D01*
X86360000Y-20320000D02*
X85090000Y-21590000D01*
D30*
X26665000Y-26660000D02*
X26665000Y-26675000D01*
X26592644Y-21507644D02*
X24125000Y-19040000D01*
X105410000Y-36830000D02*
X104110000Y-38130000D01*
X29205000Y-24120000D02*
X26665000Y-26660000D01*
D29*
X65970000Y-27895000D02*
X65970000Y-22790000D01*
D30*
X83820000Y-16510000D02*
X86360000Y-16510000D01*
X62230000Y-16510000D02*
X68580000Y-16510000D01*
D29*
X83820000Y-25400000D02*
X83820000Y-16510000D01*
D30*
X47176220Y-36812393D02*
X49517393Y-36812393D01*
D29*
X62230000Y-19050000D02*
X62230000Y-16510000D01*
X65970000Y-22790000D02*
X62230000Y-19050000D01*
D30*
X26665000Y-26675000D02*
X24130000Y-29210000D01*
X84858842Y-36840000D02*
X85039517Y-37020675D01*
D29*
X82550000Y-26670000D02*
X83820000Y-25400000D01*
D30*
X49517393Y-36812393D02*
X49520000Y-36815000D01*
X85089999Y-24736650D02*
X84483350Y-24736650D01*
D29*
X104210000Y-35630000D02*
X105410000Y-36830000D01*
D30*
X29220000Y-19040000D02*
X31750000Y-16510000D01*
D29*
X102870000Y-16510000D02*
X97790000Y-16510000D01*
D30*
X31750000Y-16510000D02*
X62230000Y-16510000D01*
X29205000Y-19040000D02*
X29220000Y-19040000D01*
D29*
X105410000Y-26670000D02*
X104210000Y-27870000D01*
X104210000Y-17850000D02*
X102870000Y-16510000D01*
D30*
X26665000Y-26660000D02*
X26592644Y-26587644D01*
D29*
X105410000Y-26670000D02*
X104210000Y-25470000D01*
D30*
X63480000Y-38115000D02*
X50820000Y-38115000D01*
D29*
X67295000Y-29220000D02*
X65970000Y-27895000D01*
X85090000Y-21590000D02*
X85089999Y-24736650D01*
D30*
X104110000Y-38130000D02*
X86148842Y-38130000D01*
X34285000Y-19040000D02*
X34285000Y-24120000D01*
X68580000Y-16510000D02*
X83820000Y-16510000D01*
X86148842Y-38130000D02*
X85039517Y-37020675D01*
X26592644Y-26587644D02*
X26592644Y-21507644D01*
D29*
X24125000Y-19040000D02*
X23315000Y-19040000D01*
D30*
X64755000Y-36840000D02*
X63480000Y-38115000D01*
%TO.N,GND*%
X21590000Y-31750000D02*
X22860000Y-31750000D01*
D29*
X42176220Y-36812393D02*
X39653827Y-34290000D01*
D30*
X20320000Y-39370000D02*
X19050000Y-39370000D01*
D29*
X64755000Y-29220000D02*
X63490000Y-29220000D01*
D30*
X21590000Y-28340000D02*
X21270000Y-28020000D01*
D29*
X63490000Y-29220000D02*
X62230000Y-30480000D01*
X38100000Y-34290000D02*
X39370000Y-35560000D01*
X86360000Y-22708129D02*
X86360000Y-27940000D01*
D30*
X19050000Y-39370000D02*
X19050000Y-38100000D01*
X21590000Y-39370000D02*
X20320000Y-39370000D01*
X21590000Y-30480000D02*
X22860000Y-30480000D01*
X21590000Y-30480000D02*
X21590000Y-28340000D01*
D29*
X87630000Y-21438129D02*
X86360000Y-22708129D01*
X87630000Y-19050000D02*
X87630000Y-21438129D01*
D30*
X19050000Y-33071331D02*
X19759535Y-33780866D01*
D29*
X39653827Y-34290000D02*
X39370000Y-34290000D01*
D30*
X21590000Y-30480000D02*
X21590000Y-31750000D01*
D29*
X86360000Y-27940000D02*
X87630000Y-29210000D01*
X39370000Y-35560000D02*
X39370000Y-36830000D01*
D30*
X19050000Y-33020000D02*
X19050000Y-33071331D01*
D29*
X36830000Y-34290000D02*
X38100000Y-34290000D01*
X39370000Y-34290000D02*
X38100000Y-34290000D01*
D30*
X22860000Y-30480000D02*
X22860000Y-31750000D01*
D29*
X60960000Y-30480000D02*
X62230000Y-30480000D01*
D30*
X19050000Y-38100000D02*
X19050000Y-33020000D01*
D29*
%TO.N,/s_cs*%
X56018629Y-30480000D02*
X58420000Y-30480000D01*
X53340000Y-34290000D02*
X53340000Y-33158629D01*
X58420000Y-30480000D02*
X62230000Y-26670000D01*
X53340000Y-33158629D02*
X56018629Y-30480000D01*
%TO.N,/rec_trig*%
X30480000Y-20305000D02*
X31745000Y-19040000D01*
X30336139Y-35416139D02*
X30480000Y-35272278D01*
X30480000Y-35272278D02*
X30480000Y-20305000D01*
%TO.N,/card_selected*%
X44440000Y-31735000D02*
X44440000Y-34275000D01*
X44440000Y-26655000D02*
X44440000Y-29195000D01*
X44440000Y-29195000D02*
X44440000Y-31735000D01*
X44440000Y-19035000D02*
X44440000Y-21575000D01*
X64770000Y-26670000D02*
X63500000Y-25400000D01*
X45725000Y-25400000D02*
X44440000Y-24115000D01*
X44440000Y-24115000D02*
X44440000Y-26655000D01*
X63500000Y-25400000D02*
X45725000Y-25400000D01*
X44440000Y-24115000D02*
X44440000Y-21575000D01*
D31*
%TO.N,/logic_analyzer_addr_0*%
X106660000Y-20300000D02*
X106660000Y-27960000D01*
X105410000Y-19050000D02*
X106660000Y-20300000D01*
X106660000Y-27960000D02*
X105410000Y-29210000D01*
X105410000Y-33020000D02*
X105410000Y-29210000D01*
D29*
%TO.N,/~ram_0_selected*%
X102870000Y-23870500D02*
X102870000Y-19050000D01*
D31*
%TO.N,/~record*%
X100330000Y-30341370D02*
X100330000Y-29210000D01*
X96520000Y-32630500D02*
X97400500Y-31750000D01*
X100330000Y-27940000D02*
X100330000Y-29210000D01*
X100350000Y-27920000D02*
X100330000Y-27940000D01*
X97988343Y-31750000D02*
X97988343Y-31750000D01*
X101580000Y-27187767D02*
X100847767Y-27920000D01*
X100847767Y-27920000D02*
X100350000Y-27920000D01*
X101580000Y-20300000D02*
X101580000Y-27187767D01*
X100330000Y-19050000D02*
X101580000Y-20300000D01*
X98921370Y-31750000D02*
X100330000Y-30341370D01*
X97400500Y-31750000D02*
X98921370Y-31750000D01*
%TO.N,/logic_analyzer_data_0*%
X95250000Y-19050000D02*
X96500000Y-20300000D01*
X96500000Y-21610000D02*
X96500000Y-27325000D01*
X96500000Y-27325000D02*
X95250000Y-28575000D01*
X96500000Y-21570000D02*
X96520000Y-21590000D01*
X96520000Y-21590000D02*
X96500000Y-21610000D01*
X96500000Y-20300000D02*
X96500000Y-21570000D01*
X95250000Y-28575000D02*
X95250000Y-29210000D01*
%TO.N,/logic_analyzer_data_1*%
X91420000Y-20300000D02*
X91420000Y-27960000D01*
X90170000Y-19050000D02*
X91420000Y-20300000D01*
X91420000Y-27960000D02*
X90170000Y-29210000D01*
%TO.N,/logic_analyzer_data_2*%
X87630000Y-26670000D02*
X88880000Y-27920000D01*
X87630000Y-22569500D02*
X87630000Y-26670000D01*
X88880000Y-27920000D02*
X88880000Y-35580000D01*
X88880000Y-35580000D02*
X87630000Y-36830000D01*
%TO.N,/logic_analyzer_data_3*%
X93227767Y-30460000D02*
X92710000Y-30460000D01*
X92710000Y-30460000D02*
X92710000Y-36830000D01*
X92710000Y-27960000D02*
X93227767Y-27960000D01*
X92710000Y-22860000D02*
X92710000Y-26670000D01*
X93960000Y-29727767D02*
X93227767Y-30460000D01*
X93960000Y-28692233D02*
X93960000Y-29727767D01*
X93227767Y-27960000D02*
X93960000Y-28692233D01*
X92710000Y-26670000D02*
X92710000Y-27960000D01*
%TO.N,/logic_analyzer_addr_3*%
X97790000Y-27024950D02*
X96311358Y-28503592D01*
X96311358Y-28503592D02*
X96500000Y-28692233D01*
X93980000Y-33020000D02*
X97790000Y-36830000D01*
X96500000Y-28692233D02*
X96500000Y-29727767D01*
X61683222Y-36223774D02*
X61019448Y-35560000D01*
X96500000Y-29727767D02*
X93980000Y-32247767D01*
X93980000Y-32247767D02*
X93980000Y-33020000D01*
X97790000Y-26670000D02*
X97790000Y-27024950D01*
%TO.N,/logic_analyzer_addr_2*%
X99040000Y-28692233D02*
X99040000Y-29727767D01*
X99080000Y-35580000D02*
X100330000Y-36830000D01*
X99040000Y-29727767D02*
X98307767Y-30460000D01*
X98307767Y-30460000D02*
X97479854Y-30460000D01*
X100330000Y-26670000D02*
X98673883Y-28326117D01*
X95180743Y-32759111D02*
X95180743Y-32950743D01*
X98673883Y-28326117D02*
X99040000Y-28692233D01*
X97810000Y-35580000D02*
X99080000Y-35580000D01*
X97479854Y-30460000D02*
X95180743Y-32759111D01*
X95180743Y-32950743D02*
X97810000Y-35580000D01*
%TO.N,/logic_analyzer_addr_1*%
X101580000Y-30081320D02*
X100330000Y-31331320D01*
X101580000Y-28692233D02*
X101580000Y-30081320D01*
X102870000Y-33020000D02*
X102870000Y-36830000D01*
X102280000Y-27260000D02*
X102280000Y-27992233D01*
X100330000Y-34290000D02*
X102870000Y-36830000D01*
X100330000Y-31331320D02*
X100330000Y-34290000D01*
X102870000Y-26670000D02*
X102280000Y-27260000D01*
X102280000Y-27992233D02*
X101580000Y-28692233D01*
D29*
%TO.N,Net-(U4-~CS)*%
X102007239Y-32251599D02*
X102007239Y-32304418D01*
X102007239Y-32304418D02*
X101954420Y-32304418D01*
X102870000Y-29210000D02*
X102870000Y-31388838D01*
X102870000Y-31388838D02*
X102007239Y-32251599D01*
X101954420Y-32304418D02*
X101954420Y-32304418D01*
%TO.N,Net-(U7A-C)*%
X29210000Y-36830000D02*
X28010000Y-35630000D01*
X28010000Y-35630000D02*
X28010000Y-27855000D01*
X28010000Y-27855000D02*
X29205000Y-26660000D01*
%TO.N,/~record_halt*%
X27444989Y-19819989D02*
X26665000Y-19040000D01*
X27492644Y-24532127D02*
X27444989Y-24484472D01*
X27444989Y-24484472D02*
X27444989Y-19819989D01*
%TO.N,Net-(U7B-Q)*%
X22190000Y-26305000D02*
X21995000Y-26500000D01*
X18645000Y-26840000D02*
X18645000Y-31345000D01*
X24130000Y-21590000D02*
X22190000Y-23530000D01*
X22190000Y-23530000D02*
X22190000Y-26305000D01*
X18645000Y-31345000D02*
X24130000Y-36830000D01*
X21995000Y-26500000D02*
X18985000Y-26500000D01*
X18985000Y-26500000D02*
X18645000Y-26840000D01*
%TO.N,Net-(Q1B-G)*%
X20320000Y-28020000D02*
X20320000Y-30100000D01*
X20320000Y-30100000D02*
X19940000Y-30480000D01*
%TO.N,/s_data_out*%
X16510000Y-24130000D02*
X21260000Y-24130000D01*
X21590000Y-23820000D02*
X21270000Y-24140000D01*
X21260000Y-24130000D02*
X21270000Y-24140000D01*
X21590000Y-22415000D02*
X21590000Y-23820000D01*
X21270000Y-24140000D02*
X21270000Y-25320000D01*
%TD*%
%TA.AperFunction,Conductor*%
%TO.N,GND*%
G36*
X116770993Y-15260185D02*
G01*
X116816748Y-15312989D01*
X116826692Y-15382147D01*
X116817820Y-15408806D01*
X116819303Y-15409359D01*
X116765908Y-15552517D01*
X116759501Y-15612116D01*
X116759501Y-15612123D01*
X116759500Y-15612135D01*
X116759500Y-17407870D01*
X116759501Y-17407876D01*
X116765908Y-17467483D01*
X116816202Y-17602328D01*
X116816206Y-17602335D01*
X116902452Y-17717544D01*
X116902455Y-17717547D01*
X117017664Y-17803793D01*
X117017671Y-17803797D01*
X117149081Y-17852810D01*
X117205015Y-17894681D01*
X117229432Y-17960145D01*
X117214580Y-18028418D01*
X117193430Y-18056673D01*
X117071503Y-18178600D01*
X116935965Y-18372169D01*
X116935964Y-18372171D01*
X116836098Y-18586335D01*
X116836094Y-18586344D01*
X116774938Y-18814586D01*
X116774936Y-18814596D01*
X116754341Y-19049999D01*
X116754341Y-19050000D01*
X116774936Y-19285403D01*
X116774938Y-19285413D01*
X116836094Y-19513655D01*
X116836096Y-19513659D01*
X116836097Y-19513663D01*
X116919600Y-19692735D01*
X116935965Y-19727830D01*
X116935967Y-19727834D01*
X117038146Y-19873760D01*
X117071501Y-19921396D01*
X117071506Y-19921402D01*
X117238597Y-20088493D01*
X117238603Y-20088498D01*
X117424158Y-20218425D01*
X117467783Y-20273002D01*
X117474977Y-20342500D01*
X117443454Y-20404855D01*
X117424158Y-20421575D01*
X117238597Y-20551505D01*
X117071505Y-20718597D01*
X116935965Y-20912169D01*
X116935964Y-20912171D01*
X116836098Y-21126335D01*
X116836094Y-21126344D01*
X116774938Y-21354586D01*
X116774936Y-21354596D01*
X116754341Y-21589999D01*
X116754341Y-21590000D01*
X116774936Y-21825403D01*
X116774938Y-21825413D01*
X116836094Y-22053655D01*
X116836096Y-22053659D01*
X116836097Y-22053663D01*
X116915405Y-22223739D01*
X116935965Y-22267830D01*
X116935967Y-22267834D01*
X117038412Y-22414139D01*
X117057805Y-22441836D01*
X117071501Y-22461395D01*
X117071506Y-22461402D01*
X117238597Y-22628493D01*
X117238603Y-22628498D01*
X117424158Y-22758425D01*
X117467783Y-22813002D01*
X117474977Y-22882500D01*
X117443454Y-22944855D01*
X117424158Y-22961575D01*
X117238597Y-23091505D01*
X117071505Y-23258597D01*
X116935965Y-23452169D01*
X116935964Y-23452171D01*
X116836098Y-23666335D01*
X116836094Y-23666344D01*
X116774938Y-23894586D01*
X116774936Y-23894596D01*
X116754341Y-24129999D01*
X116754341Y-24130000D01*
X116774936Y-24365403D01*
X116774938Y-24365413D01*
X116836094Y-24593655D01*
X116836096Y-24593659D01*
X116836097Y-24593663D01*
X116908849Y-24749680D01*
X116935965Y-24807830D01*
X116935967Y-24807834D01*
X117071501Y-25001395D01*
X117071506Y-25001402D01*
X117238597Y-25168493D01*
X117238603Y-25168498D01*
X117424158Y-25298425D01*
X117467783Y-25353002D01*
X117474977Y-25422500D01*
X117443454Y-25484855D01*
X117424158Y-25501575D01*
X117238597Y-25631505D01*
X117071505Y-25798597D01*
X116935965Y-25992169D01*
X116935964Y-25992171D01*
X116836098Y-26206335D01*
X116836094Y-26206344D01*
X116774938Y-26434586D01*
X116774936Y-26434596D01*
X116754341Y-26669999D01*
X116754341Y-26670000D01*
X116774936Y-26905403D01*
X116774938Y-26905413D01*
X116836094Y-27133655D01*
X116836096Y-27133659D01*
X116836097Y-27133663D01*
X116935819Y-27347516D01*
X116935965Y-27347830D01*
X116935967Y-27347834D01*
X117036934Y-27492028D01*
X117061710Y-27527413D01*
X117071501Y-27541395D01*
X117071506Y-27541402D01*
X117238597Y-27708493D01*
X117238603Y-27708498D01*
X117424158Y-27838425D01*
X117467783Y-27893002D01*
X117474977Y-27962500D01*
X117443454Y-28024855D01*
X117424158Y-28041575D01*
X117238597Y-28171505D01*
X117071505Y-28338597D01*
X116935965Y-28532169D01*
X116935964Y-28532171D01*
X116836098Y-28746335D01*
X116836094Y-28746344D01*
X116774938Y-28974586D01*
X116774936Y-28974596D01*
X116754341Y-29209999D01*
X116754341Y-29210000D01*
X116774936Y-29445403D01*
X116774938Y-29445413D01*
X116836094Y-29673655D01*
X116836096Y-29673659D01*
X116836097Y-29673663D01*
X116915405Y-29843739D01*
X116935965Y-29887830D01*
X116935967Y-29887834D01*
X117038412Y-30034139D01*
X117069712Y-30078841D01*
X117071501Y-30081395D01*
X117071506Y-30081402D01*
X117238597Y-30248493D01*
X117238603Y-30248498D01*
X117424158Y-30378425D01*
X117467783Y-30433002D01*
X117474977Y-30502500D01*
X117443454Y-30564855D01*
X117424158Y-30581575D01*
X117238597Y-30711505D01*
X117071505Y-30878597D01*
X116935965Y-31072169D01*
X116935964Y-31072171D01*
X116836098Y-31286335D01*
X116836094Y-31286344D01*
X116774938Y-31514586D01*
X116774936Y-31514596D01*
X116754341Y-31749999D01*
X116754341Y-31750000D01*
X116774936Y-31985403D01*
X116774938Y-31985413D01*
X116836094Y-32213655D01*
X116836096Y-32213659D01*
X116836097Y-32213663D01*
X116915306Y-32383526D01*
X116935965Y-32427830D01*
X116935967Y-32427834D01*
X117038412Y-32574139D01*
X117049219Y-32589574D01*
X117071501Y-32621395D01*
X117071506Y-32621402D01*
X117238597Y-32788493D01*
X117238603Y-32788498D01*
X117424158Y-32918425D01*
X117467783Y-32973002D01*
X117474977Y-33042500D01*
X117443454Y-33104855D01*
X117424158Y-33121575D01*
X117238597Y-33251505D01*
X117071505Y-33418597D01*
X116935965Y-33612169D01*
X116935964Y-33612171D01*
X116836098Y-33826335D01*
X116836094Y-33826344D01*
X116774938Y-34054586D01*
X116774936Y-34054596D01*
X116754341Y-34289999D01*
X116754341Y-34290000D01*
X116774936Y-34525403D01*
X116774938Y-34525413D01*
X116836094Y-34753655D01*
X116836096Y-34753659D01*
X116836097Y-34753663D01*
X116923304Y-34940679D01*
X116935965Y-34967830D01*
X116935967Y-34967834D01*
X117040687Y-35117388D01*
X117066989Y-35154952D01*
X117071501Y-35161395D01*
X117071506Y-35161402D01*
X117238597Y-35328493D01*
X117238603Y-35328498D01*
X117424158Y-35458425D01*
X117467783Y-35513002D01*
X117474977Y-35582500D01*
X117443454Y-35644855D01*
X117424158Y-35661575D01*
X117238597Y-35791505D01*
X117071505Y-35958597D01*
X116935965Y-36152169D01*
X116935964Y-36152171D01*
X116836098Y-36366335D01*
X116836094Y-36366344D01*
X116774938Y-36594586D01*
X116774936Y-36594596D01*
X116754341Y-36829999D01*
X116754341Y-36830000D01*
X116774936Y-37065403D01*
X116774938Y-37065413D01*
X116836094Y-37293655D01*
X116836096Y-37293659D01*
X116836097Y-37293663D01*
X116924527Y-37483302D01*
X116935965Y-37507830D01*
X116935967Y-37507834D01*
X117038412Y-37654139D01*
X117071505Y-37701401D01*
X117238599Y-37868495D01*
X117408621Y-37987546D01*
X117424594Y-37998730D01*
X117468219Y-38053307D01*
X117475413Y-38122805D01*
X117443890Y-38185160D01*
X117424595Y-38201880D01*
X117238922Y-38331890D01*
X117238920Y-38331891D01*
X117071891Y-38498920D01*
X117071886Y-38498926D01*
X116936400Y-38692420D01*
X116936399Y-38692422D01*
X116836570Y-38906507D01*
X116836567Y-38906513D01*
X116779364Y-39119999D01*
X116779364Y-39120000D01*
X117676314Y-39120000D01*
X117650507Y-39160156D01*
X117610000Y-39298111D01*
X117610000Y-39441889D01*
X117650507Y-39579844D01*
X117676314Y-39620000D01*
X116779364Y-39620000D01*
X116836567Y-39833486D01*
X116836570Y-39833492D01*
X116936399Y-40047578D01*
X117071894Y-40241082D01*
X117238919Y-40408107D01*
X117247229Y-40413926D01*
X117290853Y-40468504D01*
X117298045Y-40538003D01*
X117266521Y-40600357D01*
X117206291Y-40635769D01*
X117176104Y-40639500D01*
X17443896Y-40639500D01*
X17376857Y-40619815D01*
X17331102Y-40567011D01*
X17321158Y-40497853D01*
X17350183Y-40434297D01*
X17372771Y-40413926D01*
X17381080Y-40408107D01*
X17548105Y-40241082D01*
X17683600Y-40047578D01*
X17783429Y-39833492D01*
X17783432Y-39833486D01*
X17840636Y-39620000D01*
X16943686Y-39620000D01*
X16969493Y-39579844D01*
X17010000Y-39441889D01*
X17010000Y-39298111D01*
X16969493Y-39160156D01*
X16943686Y-39120000D01*
X17840636Y-39120000D01*
X17840635Y-39119999D01*
X17783432Y-38906513D01*
X17783429Y-38906507D01*
X17683600Y-38692422D01*
X17683599Y-38692420D01*
X17548113Y-38498926D01*
X17548108Y-38498920D01*
X17381078Y-38331890D01*
X17195405Y-38201879D01*
X17151780Y-38147302D01*
X17144588Y-38077804D01*
X17176110Y-38015449D01*
X17195406Y-37998730D01*
X17211377Y-37987547D01*
X17381401Y-37868495D01*
X17548495Y-37701401D01*
X17684035Y-37507830D01*
X17783903Y-37293663D01*
X17845063Y-37065408D01*
X17865659Y-36830000D01*
X17865147Y-36824153D01*
X17847746Y-36625261D01*
X17845063Y-36594592D01*
X17783903Y-36366337D01*
X17684035Y-36152171D01*
X17638346Y-36086919D01*
X17548494Y-35958597D01*
X17381402Y-35791506D01*
X17381396Y-35791501D01*
X17195842Y-35661575D01*
X17152217Y-35606998D01*
X17145023Y-35537500D01*
X17176546Y-35475145D01*
X17195842Y-35458425D01*
X17248593Y-35421488D01*
X17381401Y-35328495D01*
X17548495Y-35161401D01*
X17684035Y-34967830D01*
X17783903Y-34753663D01*
X17845063Y-34525408D01*
X17865659Y-34290000D01*
X17864346Y-34274998D01*
X17855221Y-34170692D01*
X17845063Y-34054592D01*
X17783903Y-33826337D01*
X17684035Y-33612171D01*
X17673530Y-33597167D01*
X17548494Y-33418597D01*
X17381402Y-33251506D01*
X17381396Y-33251501D01*
X17195842Y-33121575D01*
X17152217Y-33066998D01*
X17145023Y-32997500D01*
X17176546Y-32935145D01*
X17195842Y-32918425D01*
X17267759Y-32868068D01*
X17381401Y-32788495D01*
X17548495Y-32621401D01*
X17684035Y-32427830D01*
X17783903Y-32213663D01*
X17845063Y-31985408D01*
X17859019Y-31825882D01*
X17884471Y-31760816D01*
X17941062Y-31719837D01*
X18010824Y-31715959D01*
X18071608Y-31750413D01*
X18084596Y-31766251D01*
X18116813Y-31812925D01*
X18116816Y-31812928D01*
X18116817Y-31812929D01*
X18163250Y-31854064D01*
X18165941Y-31856598D01*
X19872412Y-33563069D01*
X21577162Y-35267819D01*
X21610647Y-35329142D01*
X21605663Y-35398834D01*
X21563791Y-35454767D01*
X21498327Y-35479184D01*
X21489481Y-35479500D01*
X20692129Y-35479500D01*
X20692123Y-35479501D01*
X20632516Y-35485908D01*
X20497671Y-35536202D01*
X20497664Y-35536206D01*
X20382455Y-35622452D01*
X20382452Y-35622455D01*
X20296206Y-35737664D01*
X20296202Y-35737671D01*
X20245908Y-35872517D01*
X20239501Y-35932116D01*
X20239500Y-35932135D01*
X20239500Y-37727870D01*
X20239501Y-37727876D01*
X20245908Y-37787483D01*
X20296202Y-37922328D01*
X20296206Y-37922335D01*
X20382452Y-38037544D01*
X20382455Y-38037547D01*
X20497664Y-38123793D01*
X20497671Y-38123797D01*
X20632517Y-38174091D01*
X20632516Y-38174091D01*
X20639444Y-38174835D01*
X20692127Y-38180500D01*
X22487872Y-38180499D01*
X22547483Y-38174091D01*
X22682331Y-38123796D01*
X22797546Y-38037546D01*
X22810039Y-38020857D01*
X22865970Y-37978987D01*
X22935662Y-37974001D01*
X22983614Y-37995901D01*
X23078241Y-38066738D01*
X23087668Y-38073795D01*
X23087671Y-38073797D01*
X23222517Y-38124091D01*
X23222516Y-38124091D01*
X23229444Y-38124835D01*
X23282127Y-38130500D01*
X24977872Y-38130499D01*
X25037483Y-38124091D01*
X25172331Y-38073796D01*
X25287546Y-37987546D01*
X25373796Y-37872331D01*
X25424091Y-37737483D01*
X25427862Y-37702401D01*
X25454599Y-37637855D01*
X25511990Y-37598006D01*
X25581816Y-37595511D01*
X25641905Y-37631163D01*
X25652725Y-37644535D01*
X25663683Y-37660185D01*
X25669956Y-37669143D01*
X25830858Y-37830045D01*
X25830861Y-37830047D01*
X26017266Y-37960568D01*
X26223504Y-38056739D01*
X26443308Y-38115635D01*
X26595145Y-38128919D01*
X26669998Y-38135468D01*
X26670000Y-38135468D01*
X26670002Y-38135468D01*
X26744855Y-38128919D01*
X26896692Y-38115635D01*
X27116496Y-38056739D01*
X27322734Y-37960568D01*
X27509139Y-37830047D01*
X27670047Y-37669139D01*
X27800568Y-37482734D01*
X27827618Y-37424724D01*
X27873790Y-37372285D01*
X27940983Y-37353133D01*
X28007865Y-37373348D01*
X28052382Y-37424725D01*
X28079429Y-37482728D01*
X28079432Y-37482734D01*
X28209954Y-37669141D01*
X28370858Y-37830045D01*
X28370861Y-37830047D01*
X28557266Y-37960568D01*
X28763504Y-38056739D01*
X28983308Y-38115635D01*
X29135145Y-38128919D01*
X29209998Y-38135468D01*
X29210000Y-38135468D01*
X29210002Y-38135468D01*
X29284855Y-38128919D01*
X29436692Y-38115635D01*
X29656496Y-38056739D01*
X29862734Y-37960568D01*
X30049139Y-37830047D01*
X30210047Y-37669139D01*
X30340568Y-37482734D01*
X30367618Y-37424724D01*
X30413790Y-37372285D01*
X30480983Y-37353133D01*
X30547865Y-37373348D01*
X30592382Y-37424725D01*
X30619429Y-37482728D01*
X30619432Y-37482734D01*
X30749954Y-37669141D01*
X30910858Y-37830045D01*
X30910861Y-37830047D01*
X31097266Y-37960568D01*
X31303504Y-38056739D01*
X31523308Y-38115635D01*
X31675145Y-38128919D01*
X31749998Y-38135468D01*
X31750000Y-38135468D01*
X31750002Y-38135468D01*
X31824855Y-38128919D01*
X31976692Y-38115635D01*
X32196496Y-38056739D01*
X32402734Y-37960568D01*
X32589139Y-37830047D01*
X32750047Y-37669139D01*
X32880568Y-37482734D01*
X32907618Y-37424724D01*
X32953790Y-37372285D01*
X33020983Y-37353133D01*
X33087865Y-37373348D01*
X33132382Y-37424725D01*
X33159429Y-37482728D01*
X33159432Y-37482734D01*
X33289954Y-37669141D01*
X33450858Y-37830045D01*
X33450861Y-37830047D01*
X33637266Y-37960568D01*
X33843504Y-38056739D01*
X34063308Y-38115635D01*
X34215145Y-38128919D01*
X34289998Y-38135468D01*
X34290000Y-38135468D01*
X34290002Y-38135468D01*
X34364855Y-38128919D01*
X34516692Y-38115635D01*
X34736496Y-38056739D01*
X34942734Y-37960568D01*
X35129139Y-37830047D01*
X35290047Y-37669139D01*
X35420568Y-37482734D01*
X35447618Y-37424724D01*
X35493790Y-37372285D01*
X35560983Y-37353133D01*
X35627865Y-37373348D01*
X35672382Y-37424725D01*
X35699429Y-37482728D01*
X35699432Y-37482734D01*
X35829954Y-37669141D01*
X35990858Y-37830045D01*
X35990861Y-37830047D01*
X36177266Y-37960568D01*
X36383504Y-38056739D01*
X36603308Y-38115635D01*
X36755145Y-38128919D01*
X36829998Y-38135468D01*
X36830000Y-38135468D01*
X36830002Y-38135468D01*
X36904855Y-38128919D01*
X37056692Y-38115635D01*
X37276496Y-38056739D01*
X37482734Y-37960568D01*
X37669139Y-37830047D01*
X37830047Y-37669139D01*
X37960568Y-37482734D01*
X37987895Y-37424129D01*
X38034064Y-37371695D01*
X38101257Y-37352542D01*
X38168139Y-37372757D01*
X38212657Y-37424133D01*
X38239865Y-37482482D01*
X38370342Y-37668820D01*
X38531179Y-37829657D01*
X38717517Y-37960134D01*
X38923673Y-38056265D01*
X38923682Y-38056269D01*
X39119999Y-38108872D01*
X39120000Y-38108871D01*
X39120000Y-37145686D01*
X39131955Y-37157641D01*
X39244852Y-37215165D01*
X39338519Y-37230000D01*
X39401481Y-37230000D01*
X39495148Y-37215165D01*
X39608045Y-37157641D01*
X39620000Y-37145686D01*
X39620000Y-38108872D01*
X39816317Y-38056269D01*
X39816326Y-38056265D01*
X40022482Y-37960134D01*
X40208820Y-37829657D01*
X40369657Y-37668820D01*
X40500134Y-37482482D01*
X40596265Y-37276326D01*
X40596269Y-37276317D01*
X40655693Y-37054541D01*
X40692058Y-36994880D01*
X40754904Y-36964351D01*
X40824280Y-36972645D01*
X40878158Y-37017131D01*
X40895243Y-37054540D01*
X40949951Y-37258712D01*
X40949954Y-37258719D01*
X41046085Y-37464874D01*
X41046086Y-37464876D01*
X41097193Y-37537864D01*
X41097194Y-37537865D01*
X41778266Y-36856792D01*
X41791055Y-36937541D01*
X41848579Y-37050438D01*
X41938175Y-37140034D01*
X42051072Y-37197558D01*
X42131819Y-37210346D01*
X41450746Y-37891418D01*
X41450746Y-37891419D01*
X41523732Y-37942524D01*
X41523736Y-37942526D01*
X41729893Y-38038658D01*
X41729902Y-38038662D01*
X41949609Y-38097532D01*
X41949620Y-38097534D01*
X42176218Y-38117359D01*
X42176222Y-38117359D01*
X42402819Y-38097534D01*
X42402830Y-38097532D01*
X42622537Y-38038662D01*
X42622551Y-38038657D01*
X42828698Y-37942529D01*
X42901692Y-37891418D01*
X42220621Y-37210346D01*
X42301368Y-37197558D01*
X42414265Y-37140034D01*
X42503861Y-37050438D01*
X42561385Y-36937541D01*
X42574173Y-36856793D01*
X43255245Y-37537865D01*
X43306356Y-37464871D01*
X43402484Y-37258724D01*
X43402489Y-37258710D01*
X43461359Y-37039003D01*
X43461361Y-37038992D01*
X43481186Y-36812395D01*
X43481186Y-36812390D01*
X43461361Y-36585793D01*
X43461359Y-36585782D01*
X43402489Y-36366075D01*
X43402485Y-36366066D01*
X43306353Y-36159909D01*
X43306351Y-36159905D01*
X43255246Y-36086919D01*
X43255245Y-36086919D01*
X42574173Y-36767991D01*
X42561385Y-36687245D01*
X42503861Y-36574348D01*
X42414265Y-36484752D01*
X42301368Y-36427228D01*
X42220620Y-36414439D01*
X42901692Y-35733367D01*
X42901691Y-35733366D01*
X42828703Y-35682259D01*
X42828701Y-35682258D01*
X42622546Y-35586127D01*
X42622537Y-35586123D01*
X42402830Y-35527253D01*
X42402819Y-35527251D01*
X42176222Y-35507427D01*
X42176218Y-35507427D01*
X41949620Y-35527251D01*
X41949609Y-35527253D01*
X41729902Y-35586123D01*
X41729893Y-35586127D01*
X41523733Y-35682261D01*
X41450747Y-35733365D01*
X41450746Y-35733366D01*
X42131820Y-36414439D01*
X42051072Y-36427228D01*
X41938175Y-36484752D01*
X41848579Y-36574348D01*
X41791055Y-36687245D01*
X41778266Y-36767992D01*
X41097193Y-36086919D01*
X41097192Y-36086920D01*
X41046088Y-36159906D01*
X40949954Y-36366066D01*
X40949951Y-36366072D01*
X40890526Y-36587852D01*
X40854161Y-36647512D01*
X40791314Y-36678041D01*
X40721938Y-36669746D01*
X40668060Y-36625261D01*
X40650976Y-36587851D01*
X40596269Y-36383682D01*
X40596265Y-36383673D01*
X40500134Y-36177517D01*
X40369657Y-35991179D01*
X40208820Y-35830342D01*
X40022482Y-35699865D01*
X39816328Y-35603734D01*
X39620000Y-35551127D01*
X39620000Y-36514314D01*
X39608045Y-36502359D01*
X39495148Y-36444835D01*
X39401481Y-36430000D01*
X39338519Y-36430000D01*
X39244852Y-36444835D01*
X39131955Y-36502359D01*
X39120000Y-36514314D01*
X39120000Y-35551127D01*
X38923671Y-35603734D01*
X38717517Y-35699865D01*
X38531179Y-35830342D01*
X38370342Y-35991179D01*
X38239867Y-36177515D01*
X38212657Y-36235867D01*
X38166484Y-36288306D01*
X38099290Y-36307457D01*
X38032409Y-36287241D01*
X37987893Y-36235865D01*
X37985839Y-36231461D01*
X37960568Y-36177266D01*
X37848402Y-36017075D01*
X37830045Y-35990858D01*
X37669141Y-35829954D01*
X37482734Y-35699432D01*
X37482732Y-35699431D01*
X37276497Y-35603261D01*
X37276488Y-35603258D01*
X37056697Y-35544366D01*
X37056693Y-35544365D01*
X37056692Y-35544365D01*
X37056691Y-35544364D01*
X37056686Y-35544364D01*
X36830002Y-35524532D01*
X36829998Y-35524532D01*
X36603313Y-35544364D01*
X36603302Y-35544366D01*
X36383511Y-35603258D01*
X36383502Y-35603261D01*
X36177267Y-35699431D01*
X36177265Y-35699432D01*
X35990858Y-35829954D01*
X35829954Y-35990858D01*
X35699432Y-36177265D01*
X35699431Y-36177267D01*
X35672382Y-36235275D01*
X35626209Y-36287714D01*
X35559016Y-36306866D01*
X35492135Y-36286650D01*
X35447618Y-36235275D01*
X35446768Y-36233452D01*
X35420568Y-36177266D01*
X35308402Y-36017075D01*
X35290045Y-35990858D01*
X35129141Y-35829954D01*
X34942734Y-35699432D01*
X34942732Y-35699431D01*
X34736497Y-35603261D01*
X34736488Y-35603258D01*
X34516697Y-35544366D01*
X34516693Y-35544365D01*
X34516692Y-35544365D01*
X34516691Y-35544364D01*
X34516686Y-35544364D01*
X34290002Y-35524532D01*
X34289998Y-35524532D01*
X34063313Y-35544364D01*
X34063302Y-35544366D01*
X33843511Y-35603258D01*
X33843502Y-35603261D01*
X33637267Y-35699431D01*
X33637265Y-35699432D01*
X33450858Y-35829954D01*
X33289954Y-35990858D01*
X33159432Y-36177265D01*
X33159431Y-36177267D01*
X33132382Y-36235275D01*
X33086209Y-36287714D01*
X33019016Y-36306866D01*
X32952135Y-36286650D01*
X32907618Y-36235275D01*
X32906768Y-36233452D01*
X32880568Y-36177266D01*
X32768402Y-36017075D01*
X32750045Y-35990858D01*
X32589141Y-35829954D01*
X32402734Y-35699432D01*
X32402732Y-35699431D01*
X32196497Y-35603261D01*
X32196488Y-35603258D01*
X31976697Y-35544366D01*
X31976693Y-35544365D01*
X31976692Y-35544365D01*
X31976691Y-35544364D01*
X31976686Y-35544364D01*
X31750002Y-35524532D01*
X31749998Y-35524532D01*
X31523313Y-35544364D01*
X31523302Y-35544366D01*
X31393840Y-35579055D01*
X31323990Y-35577392D01*
X31266128Y-35538229D01*
X31238624Y-35474000D01*
X31238427Y-35446316D01*
X31241599Y-35416141D01*
X31239252Y-35393811D01*
X31221813Y-35227883D01*
X31186566Y-35119406D01*
X31180500Y-35081101D01*
X31180499Y-34698742D01*
X31200185Y-34631702D01*
X31252989Y-34585947D01*
X31304496Y-34574742D01*
X31885864Y-34574742D01*
X31885872Y-34574741D01*
X31885875Y-34574741D01*
X31941218Y-34569087D01*
X31986941Y-34564417D01*
X32150704Y-34510151D01*
X32297538Y-34419583D01*
X32336861Y-34380259D01*
X32398182Y-34346775D01*
X32467873Y-34351759D01*
X32512222Y-34380260D01*
X32551149Y-34419187D01*
X32551153Y-34419190D01*
X32697876Y-34509691D01*
X32697887Y-34509696D01*
X32861535Y-34563923D01*
X32962539Y-34574242D01*
X33049188Y-34574241D01*
X33049188Y-33849243D01*
X33549188Y-33849243D01*
X33549188Y-34574242D01*
X33635828Y-34574242D01*
X33635842Y-34574241D01*
X33736840Y-34563923D01*
X33900488Y-34509696D01*
X33900499Y-34509691D01*
X34047222Y-34419190D01*
X34047226Y-34419187D01*
X34169132Y-34297281D01*
X34169135Y-34297277D01*
X34259636Y-34150554D01*
X34259641Y-34150543D01*
X34313868Y-33986895D01*
X34324187Y-33885897D01*
X34324188Y-33885884D01*
X34324188Y-33849243D01*
X33549188Y-33849243D01*
X33049188Y-33849243D01*
X33049188Y-32624243D01*
X33549188Y-32624243D01*
X33549188Y-33349243D01*
X34324187Y-33349243D01*
X34324187Y-33312603D01*
X34324186Y-33312588D01*
X34313868Y-33211590D01*
X34259641Y-33047942D01*
X34259636Y-33047931D01*
X34169135Y-32901208D01*
X34169132Y-32901204D01*
X34047226Y-32779298D01*
X34047222Y-32779295D01*
X33900499Y-32688794D01*
X33900488Y-32688789D01*
X33736840Y-32634562D01*
X33635842Y-32624243D01*
X33549188Y-32624243D01*
X33049188Y-32624243D01*
X33049187Y-32624242D01*
X32962548Y-32624243D01*
X32962531Y-32624244D01*
X32861535Y-32634562D01*
X32697887Y-32688789D01*
X32697876Y-32688794D01*
X32551153Y-32779295D01*
X32551149Y-32779298D01*
X32512221Y-32818226D01*
X32450898Y-32851711D01*
X32381206Y-32846725D01*
X32336860Y-32818225D01*
X32297538Y-32778903D01*
X32297534Y-32778900D01*
X32181910Y-32707582D01*
X32135185Y-32655634D01*
X32123964Y-32586672D01*
X32151807Y-32522590D01*
X32159304Y-32514385D01*
X32225340Y-32448350D01*
X32315908Y-32301516D01*
X32370174Y-32137753D01*
X32380500Y-32036677D01*
X32380499Y-31463324D01*
X32379533Y-31453872D01*
X32370174Y-31362247D01*
X32367230Y-31353364D01*
X32315908Y-31198484D01*
X32225340Y-31051650D01*
X32103350Y-30929660D01*
X32012129Y-30873395D01*
X31956518Y-30839093D01*
X31956513Y-30839091D01*
X31955069Y-30838612D01*
X31792753Y-30784826D01*
X31792751Y-30784825D01*
X31691684Y-30774500D01*
X31691677Y-30774500D01*
X31304500Y-30774500D01*
X31237461Y-30754815D01*
X31191706Y-30702011D01*
X31180500Y-30650500D01*
X31180500Y-30565380D01*
X31200185Y-30498341D01*
X31252989Y-30452586D01*
X31322147Y-30442642D01*
X31336591Y-30445604D01*
X31523308Y-30495635D01*
X31676768Y-30509061D01*
X31749998Y-30515468D01*
X31750000Y-30515468D01*
X31750002Y-30515468D01*
X31823232Y-30509061D01*
X31976692Y-30495635D01*
X32196496Y-30436739D01*
X32402734Y-30340568D01*
X32589139Y-30210047D01*
X32750047Y-30049139D01*
X32880568Y-29862734D01*
X32907619Y-29804721D01*
X32953788Y-29752286D01*
X33020981Y-29733133D01*
X33087862Y-29753348D01*
X33132380Y-29804722D01*
X33159432Y-29862734D01*
X33193944Y-29912022D01*
X33289954Y-30049141D01*
X33450858Y-30210045D01*
X33484353Y-30233498D01*
X33637266Y-30340568D01*
X33843504Y-30436739D01*
X33843509Y-30436740D01*
X33843511Y-30436741D01*
X33880821Y-30446738D01*
X34063308Y-30495635D01*
X34216768Y-30509061D01*
X34289998Y-30515468D01*
X34290000Y-30515468D01*
X34290002Y-30515468D01*
X34363232Y-30509061D01*
X34516692Y-30495635D01*
X34633408Y-30464361D01*
X34703256Y-30466024D01*
X34761119Y-30505186D01*
X34788623Y-30569415D01*
X34789500Y-30584136D01*
X34789500Y-31261951D01*
X34789387Y-31265696D01*
X34785848Y-31324206D01*
X34785642Y-31327606D01*
X34790362Y-31353364D01*
X34796821Y-31388612D01*
X34797384Y-31392313D01*
X34804859Y-31453870D01*
X34804860Y-31453874D01*
X34808451Y-31463343D01*
X34814474Y-31484946D01*
X34816304Y-31494930D01*
X34841759Y-31551490D01*
X34843186Y-31554932D01*
X34865182Y-31612930D01*
X34866630Y-31615028D01*
X34870936Y-31621266D01*
X34881961Y-31640813D01*
X34886120Y-31650055D01*
X34886124Y-31650060D01*
X34903110Y-31671741D01*
X34928960Y-31736653D01*
X34929500Y-31748215D01*
X34929500Y-32036668D01*
X34929501Y-32036687D01*
X34939825Y-32137752D01*
X34965169Y-32214233D01*
X34992395Y-32296396D01*
X34994092Y-32301515D01*
X34994093Y-32301518D01*
X35016289Y-32337503D01*
X35084660Y-32448350D01*
X35206650Y-32570340D01*
X35353484Y-32660908D01*
X35517247Y-32715174D01*
X35618323Y-32725500D01*
X36291676Y-32725499D01*
X36291684Y-32725498D01*
X36291687Y-32725498D01*
X36347030Y-32719844D01*
X36392753Y-32715174D01*
X36556516Y-32660908D01*
X36703350Y-32570340D01*
X36742319Y-32531371D01*
X36803642Y-32497886D01*
X36873334Y-32502870D01*
X36917681Y-32531371D01*
X36956650Y-32570340D01*
X37103484Y-32660908D01*
X37267247Y-32715174D01*
X37368323Y-32725500D01*
X38041676Y-32725499D01*
X38041684Y-32725498D01*
X38041687Y-32725498D01*
X38097030Y-32719844D01*
X38142753Y-32715174D01*
X38306516Y-32660908D01*
X38453350Y-32570340D01*
X38536871Y-32486819D01*
X38598194Y-32453334D01*
X38624552Y-32450500D01*
X38845448Y-32450500D01*
X38912487Y-32470185D01*
X38933129Y-32486819D01*
X39016650Y-32570340D01*
X39163484Y-32660908D01*
X39327247Y-32715174D01*
X39428323Y-32725500D01*
X40026676Y-32725499D01*
X40026684Y-32725498D01*
X40026687Y-32725498D01*
X40082030Y-32719844D01*
X40127753Y-32715174D01*
X40291516Y-32660908D01*
X40438350Y-32570340D01*
X40552322Y-32456367D01*
X40613641Y-32422885D01*
X40683333Y-32427869D01*
X40727676Y-32456366D01*
X40841650Y-32570340D01*
X40988484Y-32660908D01*
X41152247Y-32715174D01*
X41253323Y-32725500D01*
X41851676Y-32725499D01*
X41851684Y-32725498D01*
X41851687Y-32725498D01*
X41907030Y-32719844D01*
X41952753Y-32715174D01*
X42116516Y-32660908D01*
X42263350Y-32570340D01*
X42346871Y-32486819D01*
X42408194Y-32453334D01*
X42434552Y-32450500D01*
X43227792Y-32450500D01*
X43294831Y-32470185D01*
X43329367Y-32503377D01*
X43401501Y-32606396D01*
X43401506Y-32606402D01*
X43523430Y-32728326D01*
X43556915Y-32789649D01*
X43551931Y-32859341D01*
X43510059Y-32915274D01*
X43479083Y-32932189D01*
X43347669Y-32981203D01*
X43347664Y-32981206D01*
X43232455Y-33067452D01*
X43232452Y-33067455D01*
X43146206Y-33182664D01*
X43146202Y-33182671D01*
X43095908Y-33317517D01*
X43089501Y-33377116D01*
X43089500Y-33377135D01*
X43089500Y-35172870D01*
X43089501Y-35172876D01*
X43095908Y-35232483D01*
X43146202Y-35367328D01*
X43146206Y-35367335D01*
X43232452Y-35482544D01*
X43232455Y-35482547D01*
X43347664Y-35568793D01*
X43347671Y-35568797D01*
X43482517Y-35619091D01*
X43482516Y-35619091D01*
X43489444Y-35619835D01*
X43542127Y-35625500D01*
X45337872Y-35625499D01*
X45366578Y-35622413D01*
X45435337Y-35634819D01*
X45486474Y-35682430D01*
X45503753Y-35750130D01*
X45481688Y-35816424D01*
X45467513Y-35833384D01*
X44476744Y-36824153D01*
X44474018Y-36826720D01*
X44427597Y-36867845D01*
X44394869Y-36915257D01*
X44365713Y-36945126D01*
X44349913Y-36956606D01*
X44349906Y-36956612D01*
X44223244Y-37097285D01*
X44128599Y-37261215D01*
X44128596Y-37261222D01*
X44070105Y-37441240D01*
X44070104Y-37441244D01*
X44050318Y-37629500D01*
X44070104Y-37817756D01*
X44070105Y-37817759D01*
X44128596Y-37997777D01*
X44128599Y-37997784D01*
X44223245Y-38161716D01*
X44300407Y-38247413D01*
X44349907Y-38302388D01*
X44503043Y-38413648D01*
X44503048Y-38413651D01*
X44675970Y-38490642D01*
X44675975Y-38490644D01*
X44861132Y-38530000D01*
X44861133Y-38530000D01*
X45050422Y-38530000D01*
X45050424Y-38530000D01*
X45235581Y-38490644D01*
X45408508Y-38413651D01*
X45561649Y-38302388D01*
X45688311Y-38161716D01*
X45782957Y-37997784D01*
X45841452Y-37817756D01*
X45861238Y-37629500D01*
X45858458Y-37603053D01*
X45871027Y-37534326D01*
X45918759Y-37483302D01*
X45986499Y-37466184D01*
X46052741Y-37488406D01*
X46083352Y-37518969D01*
X46096583Y-37537864D01*
X46176174Y-37651534D01*
X46337078Y-37812438D01*
X46337081Y-37812440D01*
X46523486Y-37942961D01*
X46729724Y-38039132D01*
X46729729Y-38039133D01*
X46729731Y-38039134D01*
X46739461Y-38041741D01*
X46949528Y-38098028D01*
X47104165Y-38111557D01*
X47176218Y-38117861D01*
X47176220Y-38117861D01*
X47176222Y-38117861D01*
X47232892Y-38112902D01*
X47402912Y-38098028D01*
X47622716Y-38039132D01*
X47828954Y-37942961D01*
X48015359Y-37812440D01*
X48093223Y-37734576D01*
X48178588Y-37649212D01*
X48239911Y-37615727D01*
X48266269Y-37612893D01*
X48427521Y-37612893D01*
X48494560Y-37632578D01*
X48515456Y-37650978D01*
X48516124Y-37650311D01*
X48680858Y-37815045D01*
X48702283Y-37830047D01*
X48867266Y-37945568D01*
X49073504Y-38041739D01*
X49293308Y-38100635D01*
X49455230Y-38114801D01*
X49519998Y-38120468D01*
X49519999Y-38120468D01*
X49519999Y-38120467D01*
X49520000Y-38120468D01*
X49621839Y-38111557D01*
X49690336Y-38125323D01*
X49720326Y-38147404D01*
X50317738Y-38744816D01*
X50353096Y-38767033D01*
X50358770Y-38771060D01*
X50391411Y-38797090D01*
X50391414Y-38797092D01*
X50429038Y-38815210D01*
X50435123Y-38818574D01*
X50456041Y-38831718D01*
X50470478Y-38840789D01*
X50509899Y-38854583D01*
X50516307Y-38857238D01*
X50553939Y-38875360D01*
X50594641Y-38884650D01*
X50601328Y-38886576D01*
X50638687Y-38899648D01*
X50640745Y-38900368D01*
X50682241Y-38905043D01*
X50689093Y-38906207D01*
X50729806Y-38915500D01*
X50729808Y-38915500D01*
X63570194Y-38915500D01*
X63604249Y-38907726D01*
X63610905Y-38906208D01*
X63617760Y-38905043D01*
X63659255Y-38900368D01*
X63698680Y-38886571D01*
X63705321Y-38884658D01*
X63746061Y-38875360D01*
X63783693Y-38857236D01*
X63790105Y-38854580D01*
X63829522Y-38840789D01*
X63864889Y-38818565D01*
X63870961Y-38815209D01*
X63908587Y-38797091D01*
X63941236Y-38771052D01*
X63946895Y-38767037D01*
X63982262Y-38744816D01*
X64109816Y-38617262D01*
X64554674Y-38172402D01*
X64615995Y-38138919D01*
X64653156Y-38136557D01*
X64755000Y-38145468D01*
X64755000Y-38145467D01*
X64755001Y-38145468D01*
X64755002Y-38145468D01*
X64829855Y-38138919D01*
X64981692Y-38125635D01*
X65201496Y-38066739D01*
X65407734Y-37970568D01*
X65594139Y-37840047D01*
X65669417Y-37764769D01*
X65757368Y-37676819D01*
X65818691Y-37643334D01*
X65845049Y-37640500D01*
X66204951Y-37640500D01*
X66271990Y-37660185D01*
X66292632Y-37676819D01*
X66455858Y-37840045D01*
X66455861Y-37840047D01*
X66642266Y-37970568D01*
X66848504Y-38066739D01*
X67068308Y-38125635D01*
X67220145Y-38138919D01*
X67294998Y-38145468D01*
X67294999Y-38145468D01*
X67294999Y-38145467D01*
X67295000Y-38145468D01*
X67396839Y-38136557D01*
X67465336Y-38150323D01*
X67495326Y-38172404D01*
X68092738Y-38769816D01*
X68128096Y-38792033D01*
X68133770Y-38796060D01*
X68166411Y-38822090D01*
X68166414Y-38822092D01*
X68204038Y-38840210D01*
X68210123Y-38843574D01*
X68245478Y-38865789D01*
X68284899Y-38879583D01*
X68291307Y-38882238D01*
X68328939Y-38900360D01*
X68369641Y-38909650D01*
X68376328Y-38911576D01*
X68403856Y-38921208D01*
X68415745Y-38925368D01*
X68457241Y-38930043D01*
X68464093Y-38931207D01*
X68504806Y-38940500D01*
X68504808Y-38940500D01*
X81330194Y-38940500D01*
X81370903Y-38931208D01*
X81377760Y-38930043D01*
X81419255Y-38925368D01*
X81458680Y-38911571D01*
X81465321Y-38909658D01*
X81506061Y-38900360D01*
X81543693Y-38882236D01*
X81550105Y-38879580D01*
X81589522Y-38865789D01*
X81624889Y-38843565D01*
X81630961Y-38840209D01*
X81668587Y-38822091D01*
X81701236Y-38796052D01*
X81706895Y-38792037D01*
X81742262Y-38769816D01*
X81869816Y-38642262D01*
X81869816Y-38642261D01*
X81877827Y-38634251D01*
X81877827Y-38634250D01*
X81909816Y-38602262D01*
X81910833Y-38600641D01*
X81928147Y-38578929D01*
X82334674Y-38172402D01*
X82395995Y-38138919D01*
X82433156Y-38136557D01*
X82535000Y-38145468D01*
X82535000Y-38145467D01*
X82535001Y-38145468D01*
X82535002Y-38145468D01*
X82609855Y-38138919D01*
X82761692Y-38125635D01*
X82981496Y-38066739D01*
X83187734Y-37970568D01*
X83374139Y-37840047D01*
X83449417Y-37764769D01*
X83537368Y-37676819D01*
X83598691Y-37643334D01*
X83625049Y-37640500D01*
X83821356Y-37640500D01*
X83888395Y-37660185D01*
X83922929Y-37693375D01*
X83925979Y-37697730D01*
X84039471Y-37859816D01*
X84200375Y-38020720D01*
X84246915Y-38053307D01*
X84386783Y-38151243D01*
X84593021Y-38247414D01*
X84812825Y-38306310D01*
X84974747Y-38320476D01*
X85039515Y-38326143D01*
X85039516Y-38326143D01*
X85039516Y-38326142D01*
X85039517Y-38326143D01*
X85141356Y-38317232D01*
X85209853Y-38330998D01*
X85239843Y-38353079D01*
X85646582Y-38759818D01*
X85658061Y-38767030D01*
X85681946Y-38782038D01*
X85687599Y-38786049D01*
X85720255Y-38812091D01*
X85757886Y-38830213D01*
X85763948Y-38833563D01*
X85776928Y-38841719D01*
X85799320Y-38855789D01*
X85838740Y-38869583D01*
X85845168Y-38872245D01*
X85882781Y-38890359D01*
X85923497Y-38899652D01*
X85930166Y-38901574D01*
X85969587Y-38915368D01*
X86011093Y-38920044D01*
X86017918Y-38921203D01*
X86058647Y-38930500D01*
X104200194Y-38930500D01*
X104240903Y-38921208D01*
X104247760Y-38920043D01*
X104289255Y-38915368D01*
X104328680Y-38901571D01*
X104335321Y-38899658D01*
X104376061Y-38890360D01*
X104413693Y-38872236D01*
X104420105Y-38869580D01*
X104459522Y-38855789D01*
X104494889Y-38833565D01*
X104500961Y-38830209D01*
X104538587Y-38812091D01*
X104571236Y-38786052D01*
X104576895Y-38782037D01*
X104612262Y-38759816D01*
X104739816Y-38632262D01*
X104798375Y-38573703D01*
X104798388Y-38573688D01*
X105209674Y-38162402D01*
X105270995Y-38128919D01*
X105308156Y-38126557D01*
X105410000Y-38135468D01*
X105410000Y-38135467D01*
X105410001Y-38135468D01*
X105410002Y-38135468D01*
X105484855Y-38128919D01*
X105636692Y-38115635D01*
X105856496Y-38056739D01*
X106062734Y-37960568D01*
X106249139Y-37830047D01*
X106410047Y-37669139D01*
X106540568Y-37482734D01*
X106636739Y-37276496D01*
X106695635Y-37056692D01*
X106712892Y-36859439D01*
X106715468Y-36830001D01*
X106715468Y-36829999D01*
X106704519Y-36704852D01*
X106695635Y-36603308D01*
X106695633Y-36603303D01*
X106695180Y-36598117D01*
X106708946Y-36529617D01*
X106731024Y-36499631D01*
X107208784Y-36021871D01*
X107211476Y-36019337D01*
X107257911Y-35978201D01*
X107293164Y-35927127D01*
X107295341Y-35924168D01*
X107333606Y-35875329D01*
X107337765Y-35866087D01*
X107348790Y-35846540D01*
X107354546Y-35838202D01*
X107376548Y-35780184D01*
X107377963Y-35776767D01*
X107403422Y-35720204D01*
X107405248Y-35710237D01*
X107411276Y-35688612D01*
X107414868Y-35679144D01*
X107421381Y-35625500D01*
X107422343Y-35617581D01*
X107422907Y-35613877D01*
X107427992Y-35586127D01*
X107434085Y-35552878D01*
X107434085Y-35552875D01*
X107430341Y-35490977D01*
X107430228Y-35487233D01*
X107430228Y-34267610D01*
X107449913Y-34200571D01*
X107462080Y-34184636D01*
X107462261Y-34184435D01*
X107556907Y-34020503D01*
X107615402Y-33840475D01*
X107635188Y-33652219D01*
X107615402Y-33463963D01*
X107556907Y-33283935D01*
X107462261Y-33120003D01*
X107335599Y-32979331D01*
X107332812Y-32977306D01*
X107182462Y-32868070D01*
X107182457Y-32868067D01*
X107009535Y-32791076D01*
X107009530Y-32791074D01*
X106847243Y-32756580D01*
X106824374Y-32751719D01*
X106635082Y-32751719D01*
X106612213Y-32756580D01*
X106449925Y-32791074D01*
X106449918Y-32791077D01*
X106429432Y-32800198D01*
X106360181Y-32809482D01*
X106296905Y-32779852D01*
X106261067Y-32725236D01*
X106257797Y-32715173D01*
X106237179Y-32651716D01*
X106177111Y-32547674D01*
X106160499Y-32485680D01*
X106160499Y-30632350D01*
X106180184Y-30565312D01*
X106232988Y-30519557D01*
X106271245Y-30509061D01*
X106317483Y-30504091D01*
X106452331Y-30453796D01*
X106567546Y-30367546D01*
X106653796Y-30252331D01*
X106704091Y-30117483D01*
X106710500Y-30057873D01*
X106710499Y-29022228D01*
X106730183Y-28955190D01*
X106746813Y-28934553D01*
X107145642Y-28535724D01*
X107159271Y-28523947D01*
X107178530Y-28509610D01*
X107192200Y-28493317D01*
X107212101Y-28469601D01*
X107215761Y-28465606D01*
X107221588Y-28459780D01*
X107221588Y-28459779D01*
X107221591Y-28459777D01*
X107241380Y-28434747D01*
X107242509Y-28433362D01*
X107244879Y-28430536D01*
X107291302Y-28375214D01*
X107291305Y-28375207D01*
X107295274Y-28369175D01*
X107295325Y-28369208D01*
X107299372Y-28362856D01*
X107299320Y-28362824D01*
X107303111Y-28356677D01*
X107303343Y-28356179D01*
X107335226Y-28287804D01*
X107335952Y-28286305D01*
X107370040Y-28218433D01*
X107370043Y-28218417D01*
X107372509Y-28211646D01*
X107372567Y-28211667D01*
X107375043Y-28204546D01*
X107374986Y-28204528D01*
X107377256Y-28197677D01*
X107377818Y-28194954D01*
X107392626Y-28123234D01*
X107392976Y-28121655D01*
X107410500Y-28047721D01*
X107410500Y-28047712D01*
X107411338Y-28040548D01*
X107411398Y-28040555D01*
X107412164Y-28033055D01*
X107412105Y-28033050D01*
X107412734Y-28025860D01*
X107412417Y-28014981D01*
X107411586Y-27986396D01*
X107410526Y-27949968D01*
X107410500Y-27948165D01*
X107410500Y-20363705D01*
X107411809Y-20345735D01*
X107413288Y-20335635D01*
X107415289Y-20321977D01*
X107413034Y-20296206D01*
X107411214Y-20275393D01*
X107410735Y-20269931D01*
X107410500Y-20264528D01*
X107410500Y-20256296D01*
X107410500Y-20256291D01*
X107406795Y-20224602D01*
X107406618Y-20222876D01*
X107401258Y-20161590D01*
X107399999Y-20147201D01*
X107398539Y-20140129D01*
X107398597Y-20140116D01*
X107396965Y-20132757D01*
X107396906Y-20132772D01*
X107395241Y-20125751D01*
X107395241Y-20125745D01*
X107369267Y-20054382D01*
X107368691Y-20052723D01*
X107368451Y-20051998D01*
X107344814Y-19980666D01*
X107344810Y-19980659D01*
X107341760Y-19974118D01*
X107341815Y-19974091D01*
X107338533Y-19967313D01*
X107338480Y-19967340D01*
X107335236Y-19960881D01*
X107299399Y-19906395D01*
X107293523Y-19897461D01*
X107292560Y-19895949D01*
X107252710Y-19831342D01*
X107248234Y-19825682D01*
X107248281Y-19825644D01*
X107243519Y-19819799D01*
X107243474Y-19819838D01*
X107238831Y-19814305D01*
X107225752Y-19801966D01*
X107183617Y-19762213D01*
X107182357Y-19760990D01*
X106746818Y-19325451D01*
X106713333Y-19264128D01*
X106710499Y-19237770D01*
X106710499Y-18202129D01*
X106710498Y-18202123D01*
X106710362Y-18200861D01*
X106704091Y-18142517D01*
X106699428Y-18130016D01*
X106653797Y-18007671D01*
X106653793Y-18007664D01*
X106567547Y-17892455D01*
X106567544Y-17892452D01*
X106525475Y-17860959D01*
X106483604Y-17805025D01*
X106478620Y-17735334D01*
X106512106Y-17674011D01*
X106519231Y-17667423D01*
X106545224Y-17645224D01*
X106708836Y-17453659D01*
X106840466Y-17238859D01*
X106936873Y-17006111D01*
X106995683Y-16761148D01*
X107015449Y-16510000D01*
X106995683Y-16258852D01*
X106936873Y-16013889D01*
X106908078Y-15944371D01*
X106840466Y-15781140D01*
X106708839Y-15566346D01*
X106708838Y-15566343D01*
X106605228Y-15445032D01*
X106576657Y-15381270D01*
X106587094Y-15312184D01*
X106633225Y-15259709D01*
X106699518Y-15240500D01*
X116703954Y-15240500D01*
X116770993Y-15260185D01*
G37*
%TD.AperFunction*%
%TA.AperFunction,Conductor*%
G36*
X87391955Y-19377641D02*
G01*
X87504852Y-19435165D01*
X87598519Y-19450000D01*
X87661481Y-19450000D01*
X87755148Y-19435165D01*
X87868045Y-19377641D01*
X87879999Y-19365686D01*
X87880000Y-20328872D01*
X88076317Y-20276269D01*
X88076326Y-20276265D01*
X88282482Y-20180134D01*
X88468820Y-20049657D01*
X88629657Y-19888820D01*
X88760132Y-19702484D01*
X88787341Y-19644134D01*
X88833513Y-19591695D01*
X88900707Y-19572542D01*
X88967588Y-19592757D01*
X89012106Y-19644133D01*
X89039431Y-19702732D01*
X89039432Y-19702734D01*
X89169954Y-19889141D01*
X89330858Y-20050045D01*
X89364350Y-20073496D01*
X89517266Y-20180568D01*
X89723504Y-20276739D01*
X89943308Y-20335635D01*
X90087624Y-20348261D01*
X90169998Y-20355468D01*
X90170000Y-20355468D01*
X90170001Y-20355468D01*
X90190062Y-20353712D01*
X90336861Y-20340869D01*
X90405359Y-20354635D01*
X90435347Y-20376716D01*
X90633182Y-20574550D01*
X90666666Y-20635871D01*
X90669500Y-20662229D01*
X90669500Y-21335177D01*
X90652887Y-21397177D01*
X90592821Y-21501214D01*
X90534327Y-21681240D01*
X90534326Y-21681244D01*
X90514540Y-21869500D01*
X90534326Y-22057756D01*
X90534327Y-22057759D01*
X90592818Y-22237777D01*
X90592821Y-22237784D01*
X90644782Y-22327784D01*
X90652887Y-22341821D01*
X90669500Y-22403821D01*
X90669500Y-25295863D01*
X90649815Y-25362902D01*
X90597011Y-25408657D01*
X90527853Y-25418601D01*
X90513407Y-25415638D01*
X90396697Y-25384366D01*
X90396693Y-25384365D01*
X90396692Y-25384365D01*
X90396691Y-25384364D01*
X90396686Y-25384364D01*
X90170002Y-25364532D01*
X90169998Y-25364532D01*
X89943313Y-25384364D01*
X89943302Y-25384366D01*
X89723511Y-25443258D01*
X89723502Y-25443261D01*
X89517267Y-25539431D01*
X89517265Y-25539432D01*
X89330858Y-25669954D01*
X89169954Y-25830858D01*
X89039432Y-26017265D01*
X89039431Y-26017267D01*
X89012382Y-26075275D01*
X88966209Y-26127714D01*
X88899016Y-26146866D01*
X88832135Y-26126650D01*
X88787618Y-26075275D01*
X88779760Y-26058423D01*
X88760568Y-26017266D01*
X88685644Y-25910263D01*
X88630048Y-25830862D01*
X88551702Y-25752516D01*
X88469139Y-25669953D01*
X88454858Y-25659953D01*
X88433375Y-25644910D01*
X88389751Y-25590332D01*
X88380500Y-25543336D01*
X88380500Y-23103821D01*
X88397113Y-23041821D01*
X88399513Y-23037664D01*
X88457179Y-22937784D01*
X88515674Y-22757756D01*
X88535460Y-22569500D01*
X88515674Y-22381244D01*
X88457179Y-22201216D01*
X88362533Y-22037284D01*
X88235871Y-21896612D01*
X88211011Y-21878550D01*
X88082734Y-21785351D01*
X88082729Y-21785348D01*
X87909807Y-21708357D01*
X87909802Y-21708355D01*
X87764000Y-21677365D01*
X87724646Y-21669000D01*
X87535354Y-21669000D01*
X87502897Y-21675898D01*
X87350197Y-21708355D01*
X87350192Y-21708357D01*
X87177270Y-21785348D01*
X87177265Y-21785351D01*
X87024129Y-21896611D01*
X86897466Y-22037285D01*
X86802821Y-22201215D01*
X86802818Y-22201222D01*
X86744327Y-22381240D01*
X86744326Y-22381244D01*
X86732715Y-22491716D01*
X86724961Y-22565499D01*
X86724540Y-22569500D01*
X86744326Y-22757756D01*
X86744327Y-22757759D01*
X86802818Y-22937777D01*
X86802821Y-22937784D01*
X86856024Y-23029935D01*
X86862887Y-23041821D01*
X86879500Y-23103821D01*
X86879500Y-25543336D01*
X86859815Y-25610375D01*
X86826625Y-25644910D01*
X86790863Y-25669951D01*
X86629951Y-25830862D01*
X86499432Y-26017265D01*
X86499431Y-26017267D01*
X86403261Y-26223502D01*
X86403258Y-26223511D01*
X86344366Y-26443302D01*
X86344364Y-26443313D01*
X86324532Y-26669998D01*
X86324532Y-26670001D01*
X86344364Y-26896686D01*
X86344366Y-26896697D01*
X86403258Y-27116488D01*
X86403261Y-27116497D01*
X86499431Y-27322732D01*
X86499432Y-27322734D01*
X86629954Y-27509141D01*
X86790858Y-27670045D01*
X86824353Y-27693498D01*
X86977266Y-27800568D01*
X87035865Y-27827893D01*
X87088305Y-27874065D01*
X87107457Y-27941258D01*
X87087242Y-28008139D01*
X87035867Y-28052657D01*
X86977515Y-28079867D01*
X86791179Y-28210342D01*
X86630342Y-28371179D01*
X86499865Y-28557517D01*
X86403734Y-28763673D01*
X86403730Y-28763682D01*
X86351127Y-28959999D01*
X86351128Y-28960000D01*
X87314314Y-28960000D01*
X87302359Y-28971955D01*
X87244835Y-29084852D01*
X87225014Y-29210000D01*
X87244835Y-29335148D01*
X87302359Y-29448045D01*
X87314314Y-29460000D01*
X86351128Y-29460000D01*
X86403730Y-29656317D01*
X86403734Y-29656326D01*
X86499865Y-29862482D01*
X86630342Y-30048820D01*
X86791179Y-30209657D01*
X86977517Y-30340134D01*
X87183673Y-30436265D01*
X87183682Y-30436269D01*
X87379999Y-30488872D01*
X87380000Y-30488871D01*
X87380000Y-29525686D01*
X87391955Y-29537641D01*
X87504852Y-29595165D01*
X87598519Y-29610000D01*
X87661481Y-29610000D01*
X87755148Y-29595165D01*
X87868045Y-29537641D01*
X87880000Y-29525685D01*
X87880000Y-30488871D01*
X87973406Y-30463844D01*
X88043256Y-30465507D01*
X88101119Y-30504669D01*
X88128623Y-30568898D01*
X88129500Y-30583619D01*
X88129500Y-35217769D01*
X88109815Y-35284808D01*
X88093181Y-35305450D01*
X87895348Y-35503282D01*
X87834025Y-35536767D01*
X87796861Y-35539129D01*
X87630003Y-35524532D01*
X87629998Y-35524532D01*
X87403313Y-35544364D01*
X87403302Y-35544366D01*
X87183511Y-35603258D01*
X87183502Y-35603261D01*
X86977267Y-35699431D01*
X86977265Y-35699432D01*
X86790858Y-35829954D01*
X86629954Y-35990858D01*
X86499432Y-36177265D01*
X86499431Y-36177267D01*
X86402683Y-36384742D01*
X86356510Y-36437181D01*
X86289316Y-36456333D01*
X86222435Y-36436117D01*
X86177919Y-36384741D01*
X86172150Y-36372370D01*
X86170085Y-36367941D01*
X86043576Y-36187266D01*
X86039562Y-36181533D01*
X85878658Y-36020629D01*
X85692251Y-35890107D01*
X85692249Y-35890106D01*
X85486014Y-35793936D01*
X85486005Y-35793933D01*
X85266214Y-35735041D01*
X85266210Y-35735040D01*
X85266209Y-35735040D01*
X85266208Y-35735039D01*
X85266203Y-35735039D01*
X85039519Y-35715207D01*
X85039515Y-35715207D01*
X84812830Y-35735039D01*
X84812819Y-35735041D01*
X84593028Y-35793933D01*
X84593019Y-35793936D01*
X84386784Y-35890106D01*
X84386782Y-35890107D01*
X84205452Y-36017075D01*
X84139246Y-36039402D01*
X84134329Y-36039500D01*
X83625049Y-36039500D01*
X83558010Y-36019815D01*
X83537368Y-36003181D01*
X83374141Y-35839954D01*
X83187734Y-35709432D01*
X83187732Y-35709431D01*
X82981497Y-35613261D01*
X82981488Y-35613258D01*
X82761697Y-35554366D01*
X82761693Y-35554365D01*
X82761692Y-35554365D01*
X82761691Y-35554364D01*
X82761686Y-35554364D01*
X82535002Y-35534532D01*
X82534998Y-35534532D01*
X82308313Y-35554364D01*
X82308302Y-35554366D01*
X82088511Y-35613258D01*
X82088502Y-35613261D01*
X81882267Y-35709431D01*
X81882265Y-35709432D01*
X81695858Y-35839954D01*
X81534954Y-36000858D01*
X81404432Y-36187265D01*
X81404431Y-36187267D01*
X81377382Y-36245275D01*
X81331209Y-36297714D01*
X81264016Y-36316866D01*
X81197135Y-36296650D01*
X81152618Y-36245275D01*
X81147105Y-36233452D01*
X81125568Y-36187266D01*
X81006400Y-36017075D01*
X80995045Y-36000858D01*
X80834141Y-35839954D01*
X80647734Y-35709432D01*
X80647732Y-35709431D01*
X80441497Y-35613261D01*
X80441488Y-35613258D01*
X80221697Y-35554366D01*
X80221693Y-35554365D01*
X80221692Y-35554365D01*
X80221691Y-35554364D01*
X80221686Y-35554364D01*
X79995002Y-35534532D01*
X79994998Y-35534532D01*
X79768313Y-35554364D01*
X79768302Y-35554366D01*
X79548511Y-35613258D01*
X79548502Y-35613261D01*
X79342267Y-35709431D01*
X79342265Y-35709432D01*
X79155858Y-35839954D01*
X78994954Y-36000858D01*
X78864432Y-36187265D01*
X78864431Y-36187267D01*
X78837382Y-36245275D01*
X78791209Y-36297714D01*
X78724016Y-36316866D01*
X78657135Y-36296650D01*
X78612618Y-36245275D01*
X78607105Y-36233452D01*
X78585568Y-36187266D01*
X78466400Y-36017075D01*
X78455045Y-36000858D01*
X78294141Y-35839954D01*
X78107734Y-35709432D01*
X78107732Y-35709431D01*
X77901497Y-35613261D01*
X77901488Y-35613258D01*
X77681697Y-35554366D01*
X77681687Y-35554364D01*
X77475066Y-35536287D01*
X77409998Y-35510834D01*
X77369019Y-35454243D01*
X77365216Y-35441355D01*
X77364761Y-35439435D01*
X77364761Y-35439432D01*
X77324975Y-35271563D01*
X77247549Y-35117394D01*
X77247546Y-35117390D01*
X77247545Y-35117388D01*
X77183388Y-35038631D01*
X77183387Y-35038630D01*
X77183379Y-35038620D01*
X76760279Y-34615522D01*
X76760271Y-34615515D01*
X76760265Y-34615510D01*
X76681512Y-34551355D01*
X76681506Y-34551351D01*
X76681505Y-34551350D01*
X76527336Y-34473924D01*
X76359467Y-34434138D01*
X76198291Y-34434138D01*
X76131252Y-34414453D01*
X76085497Y-34361649D01*
X76074291Y-34310138D01*
X76074291Y-34148964D01*
X76074217Y-34148651D01*
X76034505Y-33981093D01*
X75957079Y-33826924D01*
X75957076Y-33826920D01*
X75957075Y-33826918D01*
X75892918Y-33748161D01*
X75892917Y-33748160D01*
X75892909Y-33748150D01*
X75469809Y-33325052D01*
X75469801Y-33325045D01*
X75469795Y-33325040D01*
X75391042Y-33260885D01*
X75391036Y-33260881D01*
X75391035Y-33260880D01*
X75236866Y-33183454D01*
X75236863Y-33183453D01*
X75230413Y-33180214D01*
X75231830Y-33177391D01*
X75186900Y-33143994D01*
X75175105Y-33125000D01*
X75148777Y-33072577D01*
X75138628Y-33052369D01*
X75087622Y-32989756D01*
X75074469Y-32973609D01*
X75074456Y-32973594D01*
X74598332Y-32497471D01*
X74598325Y-32497464D01*
X74598317Y-32497457D01*
X74598311Y-32497452D01*
X74519560Y-32433298D01*
X74519553Y-32433294D01*
X74519552Y-32433293D01*
X74422316Y-32384460D01*
X74365379Y-32355865D01*
X74197515Y-32316081D01*
X74197514Y-32316081D01*
X74141904Y-32316081D01*
X74074865Y-32296396D01*
X74029110Y-32243592D01*
X74017904Y-32192081D01*
X74017904Y-32137032D01*
X73978145Y-31969272D01*
X73900770Y-31815209D01*
X73836643Y-31736488D01*
X73775377Y-31675223D01*
X72996853Y-32453747D01*
X72935530Y-32487232D01*
X72865838Y-32482248D01*
X72821491Y-32453747D01*
X72643300Y-32275556D01*
X72609815Y-32214233D01*
X72614799Y-32144541D01*
X72643300Y-32100194D01*
X73421824Y-31321670D01*
X73360559Y-31260405D01*
X73360555Y-31260402D01*
X73358551Y-31258769D01*
X73358231Y-31258303D01*
X73358221Y-31258294D01*
X73358223Y-31258291D01*
X73319006Y-31201167D01*
X73316880Y-31131330D01*
X73349182Y-31074951D01*
X74078067Y-30346065D01*
X74139386Y-30312583D01*
X74209077Y-30317567D01*
X74236867Y-30332174D01*
X74262512Y-30350131D01*
X74262516Y-30350133D01*
X74468673Y-30446265D01*
X74468682Y-30446269D01*
X74664999Y-30498872D01*
X74665000Y-30498871D01*
X74665000Y-29535686D01*
X74676955Y-29547641D01*
X74789852Y-29605165D01*
X74883519Y-29620000D01*
X74946481Y-29620000D01*
X75040148Y-29605165D01*
X75153045Y-29547641D01*
X75165000Y-29535686D01*
X75165000Y-30498872D01*
X75361317Y-30446269D01*
X75361326Y-30446265D01*
X75567482Y-30350134D01*
X75753820Y-30219657D01*
X75914657Y-30058820D01*
X76045133Y-29872483D01*
X76072616Y-29813544D01*
X76118787Y-29761104D01*
X76185981Y-29741951D01*
X76252862Y-29762166D01*
X76297381Y-29813541D01*
X76324867Y-29872484D01*
X76455342Y-30058820D01*
X76616179Y-30219657D01*
X76802517Y-30350134D01*
X77008673Y-30446265D01*
X77008682Y-30446269D01*
X77204999Y-30498872D01*
X77205000Y-30498871D01*
X77205000Y-29535686D01*
X77216955Y-29547641D01*
X77329852Y-29605165D01*
X77423519Y-29620000D01*
X77486481Y-29620000D01*
X77580148Y-29605165D01*
X77693045Y-29547641D01*
X77705000Y-29535686D01*
X77705000Y-30498872D01*
X77901317Y-30446269D01*
X77901326Y-30446265D01*
X78107483Y-30350133D01*
X78107485Y-30350132D01*
X78133127Y-30332177D01*
X78199333Y-30309848D01*
X78267100Y-30326857D01*
X78291934Y-30346069D01*
X78901503Y-30955638D01*
X78913284Y-30969270D01*
X78927621Y-30988528D01*
X78967642Y-31022111D01*
X78971630Y-31025766D01*
X78977450Y-31031586D01*
X78977455Y-31031590D01*
X78977456Y-31031591D01*
X79002496Y-31051390D01*
X79003877Y-31052515D01*
X79004112Y-31052712D01*
X79062019Y-31101302D01*
X79062020Y-31101302D01*
X79062022Y-31101304D01*
X79068051Y-31105270D01*
X79068018Y-31105319D01*
X79074380Y-31109372D01*
X79074412Y-31109321D01*
X79080552Y-31113108D01*
X79080556Y-31113111D01*
X79101714Y-31122977D01*
X79149370Y-31145200D01*
X79150993Y-31145986D01*
X79218795Y-31180038D01*
X79225590Y-31182511D01*
X79225569Y-31182567D01*
X79232690Y-31185043D01*
X79232709Y-31184986D01*
X79239552Y-31187253D01*
X79239560Y-31187257D01*
X79313981Y-31202623D01*
X79315604Y-31202983D01*
X79389512Y-31220500D01*
X79389513Y-31220500D01*
X79389517Y-31220501D01*
X79396686Y-31221339D01*
X79396679Y-31221398D01*
X79404177Y-31222164D01*
X79404183Y-31222105D01*
X79411372Y-31222734D01*
X79411376Y-31222733D01*
X79411377Y-31222734D01*
X79439462Y-31221916D01*
X79487265Y-31220526D01*
X79489068Y-31220500D01*
X79637770Y-31220500D01*
X79704809Y-31240185D01*
X79725451Y-31256819D01*
X81564767Y-33096134D01*
X81576548Y-33109766D01*
X81581207Y-33116024D01*
X81590890Y-33129030D01*
X81630920Y-33162619D01*
X81634892Y-33166259D01*
X81637812Y-33169179D01*
X81640720Y-33172088D01*
X81665752Y-33191881D01*
X81667149Y-33193019D01*
X81681330Y-33204918D01*
X81725286Y-33241802D01*
X81725294Y-33241806D01*
X81731324Y-33245773D01*
X81731290Y-33245823D01*
X81737637Y-33249866D01*
X81737669Y-33249816D01*
X81743821Y-33253610D01*
X81743822Y-33253610D01*
X81743823Y-33253611D01*
X81812643Y-33285702D01*
X81814192Y-33286452D01*
X81882067Y-33320540D01*
X81882076Y-33320542D01*
X81888855Y-33323010D01*
X81888834Y-33323067D01*
X81895951Y-33325540D01*
X81895970Y-33325484D01*
X81902824Y-33327754D01*
X81902827Y-33327756D01*
X81977215Y-33343115D01*
X81978852Y-33343478D01*
X82052779Y-33361000D01*
X82052785Y-33361000D01*
X82059952Y-33361838D01*
X82059945Y-33361897D01*
X82067446Y-33362663D01*
X82067452Y-33362604D01*
X82074641Y-33363233D01*
X82074643Y-33363232D01*
X82074644Y-33363233D01*
X82096264Y-33362604D01*
X82150512Y-33361026D01*
X82152315Y-33361000D01*
X83231336Y-33361000D01*
X83298375Y-33380685D01*
X83304221Y-33384682D01*
X83317938Y-33394648D01*
X83317943Y-33394651D01*
X83490865Y-33471642D01*
X83490870Y-33471644D01*
X83676027Y-33511000D01*
X83676028Y-33511000D01*
X83865317Y-33511000D01*
X83865319Y-33511000D01*
X84050476Y-33471644D01*
X84223403Y-33394651D01*
X84376544Y-33283388D01*
X84402325Y-33254754D01*
X84461808Y-33218107D01*
X84531665Y-33219436D01*
X84546880Y-33225345D01*
X84593195Y-33246942D01*
X84593199Y-33246944D01*
X84812906Y-33305814D01*
X84812917Y-33305816D01*
X85039515Y-33325641D01*
X85039519Y-33325641D01*
X85266116Y-33305816D01*
X85266127Y-33305814D01*
X85485834Y-33246944D01*
X85485848Y-33246939D01*
X85691995Y-33150811D01*
X85764989Y-33099700D01*
X85083917Y-32418628D01*
X85164665Y-32405840D01*
X85277562Y-32348316D01*
X85367158Y-32258720D01*
X85424682Y-32145823D01*
X85437470Y-32065074D01*
X86118542Y-32746147D01*
X86169653Y-32673153D01*
X86265781Y-32467006D01*
X86265786Y-32466992D01*
X86324656Y-32247285D01*
X86324658Y-32247274D01*
X86344483Y-32020677D01*
X86344483Y-32020672D01*
X86324658Y-31794075D01*
X86324656Y-31794064D01*
X86265786Y-31574357D01*
X86265782Y-31574348D01*
X86169650Y-31368191D01*
X86169648Y-31368187D01*
X86118543Y-31295201D01*
X86118542Y-31295201D01*
X85437470Y-31976272D01*
X85424682Y-31895527D01*
X85367158Y-31782630D01*
X85277562Y-31693034D01*
X85164665Y-31635510D01*
X85083917Y-31622721D01*
X85764989Y-30941649D01*
X85764988Y-30941648D01*
X85692000Y-30890541D01*
X85691998Y-30890540D01*
X85480935Y-30792120D01*
X85481646Y-30790594D01*
X85431524Y-30753685D01*
X85406592Y-30688415D01*
X85420906Y-30620027D01*
X85422775Y-30616667D01*
X85429395Y-30605203D01*
X85487890Y-30425175D01*
X85492991Y-30376635D01*
X85519574Y-30312024D01*
X85534078Y-30296790D01*
X85572453Y-30262794D01*
X85607687Y-30211748D01*
X85609890Y-30208752D01*
X85648148Y-30159921D01*
X85652307Y-30150678D01*
X85663331Y-30131133D01*
X85669088Y-30122795D01*
X85691080Y-30064804D01*
X85692502Y-30061368D01*
X85717965Y-30004796D01*
X85719792Y-29994824D01*
X85725816Y-29973212D01*
X85729410Y-29963737D01*
X85736883Y-29902189D01*
X85737447Y-29898484D01*
X85745382Y-29855182D01*
X85748628Y-29837471D01*
X85746647Y-29804725D01*
X85744882Y-29775561D01*
X85744769Y-29771816D01*
X85744769Y-28654149D01*
X85744769Y-27575008D01*
X85764454Y-27507973D01*
X85776624Y-27492035D01*
X85776803Y-27491837D01*
X85871449Y-27327905D01*
X85929944Y-27147877D01*
X85949730Y-26959621D01*
X85929944Y-26771365D01*
X85871449Y-26591337D01*
X85776803Y-26427405D01*
X85650141Y-26286733D01*
X85563123Y-26223511D01*
X85504374Y-26180827D01*
X85461709Y-26125497D01*
X85455730Y-26055883D01*
X85488336Y-25994088D01*
X85531739Y-25966002D01*
X85531588Y-25965677D01*
X85533931Y-25964584D01*
X85534859Y-25963984D01*
X85536488Y-25963390D01*
X85536495Y-25963389D01*
X85742733Y-25867218D01*
X85929138Y-25736697D01*
X86090046Y-25575789D01*
X86220567Y-25389384D01*
X86316738Y-25183146D01*
X86375634Y-24963342D01*
X86395467Y-24736650D01*
X86375634Y-24509958D01*
X86316738Y-24290154D01*
X86220567Y-24083916D01*
X86090046Y-23897511D01*
X86090044Y-23897508D01*
X85929140Y-23736604D01*
X85843376Y-23676552D01*
X85799751Y-23621975D01*
X85790499Y-23574977D01*
X85790499Y-21931519D01*
X85810184Y-21864480D01*
X85826818Y-21843838D01*
X86302253Y-21368403D01*
X86839067Y-20831589D01*
X86841742Y-20829071D01*
X86888183Y-20787929D01*
X86923436Y-20736855D01*
X86925613Y-20733896D01*
X86963878Y-20685057D01*
X86968037Y-20675815D01*
X86979062Y-20656268D01*
X86984818Y-20647930D01*
X87006820Y-20589912D01*
X87008235Y-20586495D01*
X87033694Y-20529932D01*
X87035520Y-20519965D01*
X87041548Y-20498340D01*
X87045140Y-20488872D01*
X87051388Y-20437410D01*
X87052615Y-20427309D01*
X87053178Y-20423606D01*
X87053292Y-20422983D01*
X87060794Y-20382046D01*
X87092240Y-20319653D01*
X87152426Y-20284165D01*
X87214857Y-20284622D01*
X87379999Y-20328871D01*
X87380000Y-20328871D01*
X87379999Y-19365685D01*
X87391955Y-19377641D01*
G37*
%TD.AperFunction*%
%TA.AperFunction,Conductor*%
G36*
X63765544Y-31451839D02*
G01*
X63821478Y-31493710D01*
X63845895Y-31559175D01*
X63842869Y-31596616D01*
X63817451Y-31703869D01*
X63817451Y-31876268D01*
X63857209Y-32044028D01*
X63934584Y-32198091D01*
X63998711Y-32276812D01*
X64059976Y-32338076D01*
X64838500Y-31559552D01*
X64899823Y-31526067D01*
X64969514Y-31531051D01*
X65013862Y-31559552D01*
X65192053Y-31737743D01*
X65225538Y-31799066D01*
X65220554Y-31868758D01*
X65192053Y-31913105D01*
X64413529Y-32691629D01*
X64413528Y-32691629D01*
X64474794Y-32752894D01*
X64553518Y-32817024D01*
X64707578Y-32894397D01*
X64875339Y-32934156D01*
X64930387Y-32934156D01*
X64997426Y-32953841D01*
X65043181Y-33006645D01*
X65054387Y-33058156D01*
X65054386Y-33113767D01*
X65094171Y-33281631D01*
X65117336Y-33327756D01*
X65171599Y-33435804D01*
X65172935Y-33437444D01*
X65235757Y-33514563D01*
X65235766Y-33514574D01*
X65235769Y-33514577D01*
X65711902Y-33990709D01*
X65711910Y-33990715D01*
X65711915Y-33990720D01*
X65790666Y-34054874D01*
X65790671Y-34054877D01*
X65790675Y-34054880D01*
X65944845Y-34132306D01*
X66106811Y-34170693D01*
X66167501Y-34205307D01*
X66199845Y-34267239D01*
X66202212Y-34291349D01*
X66202212Y-34296618D01*
X66241998Y-34464487D01*
X66317850Y-34615522D01*
X66319427Y-34618661D01*
X66371719Y-34682853D01*
X66383594Y-34697430D01*
X66806694Y-35120528D01*
X66806702Y-35120534D01*
X66806707Y-35120539D01*
X66885460Y-35184694D01*
X66885463Y-35184696D01*
X66885468Y-35184700D01*
X67039637Y-35262126D01*
X67200253Y-35300193D01*
X67260943Y-35334805D01*
X67293287Y-35396738D01*
X67287014Y-35466325D01*
X67244115Y-35521474D01*
X67182462Y-35544377D01*
X67068312Y-35554364D01*
X67068302Y-35554366D01*
X66848511Y-35613258D01*
X66848502Y-35613261D01*
X66642267Y-35709431D01*
X66642265Y-35709432D01*
X66455858Y-35839954D01*
X66292632Y-36003181D01*
X66231309Y-36036666D01*
X66204951Y-36039500D01*
X65845049Y-36039500D01*
X65778010Y-36019815D01*
X65757368Y-36003181D01*
X65594141Y-35839954D01*
X65407734Y-35709432D01*
X65407732Y-35709431D01*
X65201497Y-35613261D01*
X65201488Y-35613258D01*
X64981697Y-35554366D01*
X64981693Y-35554365D01*
X64981692Y-35554365D01*
X64981691Y-35554364D01*
X64981686Y-35554364D01*
X64755002Y-35534532D01*
X64754998Y-35534532D01*
X64528313Y-35554364D01*
X64528302Y-35554366D01*
X64308511Y-35613258D01*
X64308502Y-35613261D01*
X64102267Y-35709431D01*
X64102265Y-35709432D01*
X63915858Y-35839954D01*
X63913698Y-35841767D01*
X63912556Y-35842266D01*
X63911426Y-35843058D01*
X63911266Y-35842830D01*
X63849688Y-35869775D01*
X63780697Y-35858730D01*
X63746319Y-35834452D01*
X63066819Y-35154952D01*
X63033334Y-35093629D01*
X63030500Y-35067271D01*
X63030500Y-32135733D01*
X63050185Y-32068694D01*
X63066819Y-32048052D01*
X63348620Y-31766251D01*
X63634532Y-31480338D01*
X63695853Y-31446855D01*
X63765544Y-31451839D01*
G37*
%TD.AperFunction*%
%TA.AperFunction,Conductor*%
G36*
X63595447Y-27272503D02*
G01*
X63635517Y-27318739D01*
X63636724Y-27318043D01*
X63639432Y-27322734D01*
X63769954Y-27509141D01*
X63930858Y-27670045D01*
X63964353Y-27693498D01*
X64117266Y-27800568D01*
X64179088Y-27829396D01*
X64231527Y-27875568D01*
X64250679Y-27942762D01*
X64230463Y-28009643D01*
X64179088Y-28054160D01*
X64102517Y-28089865D01*
X63916179Y-28220342D01*
X63755342Y-28381179D01*
X63624865Y-28567517D01*
X63528734Y-28773673D01*
X63528730Y-28773682D01*
X63476127Y-28969999D01*
X63476128Y-28970000D01*
X64439314Y-28970000D01*
X64427359Y-28981955D01*
X64369835Y-29094852D01*
X64350014Y-29220000D01*
X64369835Y-29345148D01*
X64427359Y-29458045D01*
X64439314Y-29470000D01*
X63476128Y-29470000D01*
X63501156Y-29563406D01*
X63499493Y-29633256D01*
X63460331Y-29691119D01*
X63396102Y-29718623D01*
X63381381Y-29719500D01*
X63372599Y-29719500D01*
X63366681Y-29720850D01*
X63331882Y-29728791D01*
X63325028Y-29729955D01*
X63283536Y-29734632D01*
X63244132Y-29748419D01*
X63237451Y-29750344D01*
X63196728Y-29759641D01*
X63159101Y-29777759D01*
X63152678Y-29780420D01*
X63113274Y-29794210D01*
X63113268Y-29794212D01*
X63077915Y-29816425D01*
X63071829Y-29819789D01*
X63034210Y-29837905D01*
X63001556Y-29863945D01*
X62995884Y-29867969D01*
X62960536Y-29890180D01*
X62960533Y-29890182D01*
X62869958Y-29980754D01*
X62869954Y-29980760D01*
X61710296Y-31140417D01*
X61710297Y-31140418D01*
X61600183Y-31250532D01*
X61577966Y-31285889D01*
X61573941Y-31291562D01*
X61547910Y-31324203D01*
X61529791Y-31361826D01*
X61526427Y-31367913D01*
X61504212Y-31403269D01*
X61504208Y-31403276D01*
X61490416Y-31442688D01*
X61487755Y-31449113D01*
X61469639Y-31486732D01*
X61460344Y-31527452D01*
X61458419Y-31534134D01*
X61444632Y-31573537D01*
X61439955Y-31615028D01*
X61438791Y-31621882D01*
X61429500Y-31662599D01*
X61429500Y-34728483D01*
X61409815Y-34795522D01*
X61357011Y-34841277D01*
X61287853Y-34851221D01*
X61264247Y-34844190D01*
X61263975Y-34845014D01*
X61257120Y-34842742D01*
X61085306Y-34807266D01*
X61085304Y-34807266D01*
X61015156Y-34809307D01*
X60909933Y-34812369D01*
X60807339Y-34839860D01*
X60749808Y-34855275D01*
X60717717Y-34859500D01*
X59909758Y-34859500D01*
X59872714Y-34851545D01*
X59872094Y-34853537D01*
X59864929Y-34851304D01*
X59854946Y-34849474D01*
X59833343Y-34843451D01*
X59823874Y-34839860D01*
X59823870Y-34839859D01*
X59762313Y-34832384D01*
X59758612Y-34831821D01*
X59697608Y-34820642D01*
X59697603Y-34820642D01*
X59635697Y-34824387D01*
X59631952Y-34824500D01*
X58500739Y-34824500D01*
X58433700Y-34804815D01*
X58387945Y-34752011D01*
X58378001Y-34682853D01*
X58380964Y-34668407D01*
X58382632Y-34662182D01*
X58425635Y-34501692D01*
X58445468Y-34275000D01*
X58444821Y-34267610D01*
X58430310Y-34101744D01*
X58425635Y-34048308D01*
X58371400Y-33845899D01*
X58366741Y-33828511D01*
X58366738Y-33828502D01*
X58365732Y-33826344D01*
X58270568Y-33622266D01*
X58146900Y-33445648D01*
X58140045Y-33435858D01*
X57979141Y-33274954D01*
X57792734Y-33144432D01*
X57792728Y-33144429D01*
X57760232Y-33129276D01*
X57734724Y-33117381D01*
X57682285Y-33071210D01*
X57663133Y-33004017D01*
X57683348Y-32937135D01*
X57734725Y-32892618D01*
X57792734Y-32865568D01*
X57979139Y-32735047D01*
X58140047Y-32574139D01*
X58270568Y-32387734D01*
X58366739Y-32181496D01*
X58425635Y-31961692D01*
X58445468Y-31735000D01*
X58444141Y-31719837D01*
X58436764Y-31635510D01*
X58425635Y-31508308D01*
X58388090Y-31368187D01*
X58379415Y-31335811D01*
X58381078Y-31265961D01*
X58420241Y-31208099D01*
X58476838Y-31181749D01*
X58523628Y-31173175D01*
X58527325Y-31172613D01*
X58545170Y-31170446D01*
X58588872Y-31165140D01*
X58598335Y-31161550D01*
X58619961Y-31155522D01*
X58620893Y-31155351D01*
X58629932Y-31153695D01*
X58686512Y-31128229D01*
X58689942Y-31126809D01*
X58747930Y-31104818D01*
X58756266Y-31099062D01*
X58775821Y-31088034D01*
X58785057Y-31083878D01*
X58833896Y-31045613D01*
X58836876Y-31043421D01*
X58887929Y-31008183D01*
X58929065Y-30961748D01*
X58931599Y-30959056D01*
X61858006Y-28032649D01*
X61919327Y-27999166D01*
X61977778Y-28000557D01*
X61994592Y-28005063D01*
X62176349Y-28020965D01*
X62229999Y-28025659D01*
X62230000Y-28025659D01*
X62230001Y-28025659D01*
X62283651Y-28020965D01*
X62465408Y-28005063D01*
X62693663Y-27943903D01*
X62907830Y-27844035D01*
X63101401Y-27708495D01*
X63268495Y-27541401D01*
X63404035Y-27347830D01*
X63415202Y-27323881D01*
X63461372Y-27271442D01*
X63528565Y-27252289D01*
X63595447Y-27272503D01*
G37*
%TD.AperFunction*%
%TA.AperFunction,Conductor*%
G36*
X51763396Y-26120185D02*
G01*
X51809151Y-26172989D01*
X51819095Y-26242147D01*
X51814063Y-26263503D01*
X51807819Y-26282345D01*
X51807819Y-26282346D01*
X51797500Y-26383345D01*
X51797500Y-26420000D01*
X52911000Y-26420000D01*
X52978039Y-26439685D01*
X53023794Y-26492489D01*
X53035000Y-26544000D01*
X53035000Y-27644999D01*
X53084140Y-27644999D01*
X53084154Y-27644998D01*
X53185152Y-27634680D01*
X53348800Y-27580453D01*
X53348811Y-27580448D01*
X53495533Y-27489948D01*
X53609464Y-27376017D01*
X53670787Y-27342532D01*
X53740479Y-27347516D01*
X53784827Y-27376017D01*
X53899150Y-27490340D01*
X54045984Y-27580908D01*
X54209747Y-27635174D01*
X54310823Y-27645500D01*
X54909176Y-27645499D01*
X54909184Y-27645498D01*
X54909187Y-27645498D01*
X54964530Y-27639844D01*
X55010253Y-27635174D01*
X55174016Y-27580908D01*
X55320850Y-27490340D01*
X55404370Y-27406819D01*
X55465694Y-27373334D01*
X55492052Y-27370500D01*
X55988830Y-27370500D01*
X56055869Y-27390185D01*
X56090405Y-27423377D01*
X56139954Y-27494141D01*
X56300858Y-27655045D01*
X56322283Y-27670047D01*
X56487266Y-27785568D01*
X56545865Y-27812893D01*
X56598305Y-27859065D01*
X56617457Y-27926258D01*
X56597242Y-27993139D01*
X56545867Y-28037657D01*
X56487515Y-28064867D01*
X56301179Y-28195342D01*
X56140342Y-28356179D01*
X56009865Y-28542517D01*
X55913734Y-28748673D01*
X55913730Y-28748682D01*
X55861127Y-28944999D01*
X55861128Y-28945000D01*
X56824314Y-28945000D01*
X56812359Y-28956955D01*
X56754835Y-29069852D01*
X56735014Y-29195000D01*
X56754835Y-29320148D01*
X56812359Y-29433045D01*
X56824314Y-29445000D01*
X55861128Y-29445000D01*
X55915134Y-29646555D01*
X55913674Y-29646946D01*
X55917665Y-29709669D01*
X55883699Y-29770727D01*
X55840565Y-29798345D01*
X55840163Y-29798497D01*
X55818667Y-29804478D01*
X55817334Y-29804723D01*
X55808694Y-29806306D01*
X55808692Y-29806307D01*
X55752156Y-29831752D01*
X55748698Y-29833184D01*
X55690698Y-29855182D01*
X55682353Y-29860942D01*
X55662812Y-29871964D01*
X55653573Y-29876122D01*
X55653568Y-29876125D01*
X55604750Y-29914370D01*
X55601735Y-29916589D01*
X55550701Y-29951816D01*
X55550694Y-29951822D01*
X55509571Y-29998240D01*
X55507004Y-30000966D01*
X52860966Y-32647004D01*
X52858240Y-32649571D01*
X52811818Y-32690697D01*
X52776586Y-32741738D01*
X52774368Y-32744753D01*
X52736124Y-32793568D01*
X52736119Y-32793577D01*
X52731960Y-32802817D01*
X52720942Y-32822352D01*
X52715187Y-32830690D01*
X52715183Y-32830696D01*
X52715182Y-32830699D01*
X52715180Y-32830703D01*
X52715179Y-32830706D01*
X52693189Y-32888684D01*
X52691757Y-32892142D01*
X52666305Y-32948697D01*
X52664477Y-32958671D01*
X52658453Y-32980282D01*
X52654860Y-32989756D01*
X52654859Y-32989757D01*
X52647384Y-33051314D01*
X52646821Y-33055015D01*
X52635642Y-33116019D01*
X52635642Y-33116024D01*
X52639387Y-33177931D01*
X52639500Y-33181676D01*
X52639500Y-33674608D01*
X52619815Y-33741647D01*
X52607656Y-33757574D01*
X52607468Y-33757782D01*
X52607464Y-33757787D01*
X52512821Y-33921715D01*
X52512818Y-33921722D01*
X52468637Y-34057699D01*
X52454326Y-34101744D01*
X52434540Y-34290000D01*
X52454326Y-34478256D01*
X52454327Y-34478259D01*
X52514087Y-34662182D01*
X52516082Y-34732023D01*
X52480002Y-34791856D01*
X52417301Y-34822684D01*
X52396156Y-34824500D01*
X50880739Y-34824500D01*
X50813700Y-34804815D01*
X50767945Y-34752011D01*
X50758001Y-34682853D01*
X50760964Y-34668407D01*
X50762632Y-34662182D01*
X50805635Y-34501692D01*
X50825468Y-34275000D01*
X50824821Y-34267610D01*
X50810310Y-34101744D01*
X50805635Y-34048308D01*
X50751400Y-33845899D01*
X50746741Y-33828511D01*
X50746738Y-33828502D01*
X50745732Y-33826344D01*
X50650568Y-33622266D01*
X50526900Y-33445648D01*
X50520045Y-33435858D01*
X50359141Y-33274954D01*
X50227345Y-33182671D01*
X50172734Y-33144432D01*
X50114722Y-33117380D01*
X50062284Y-33071208D01*
X50043133Y-33004014D01*
X50063349Y-32937133D01*
X50114721Y-32892619D01*
X50172734Y-32865568D01*
X50359139Y-32735047D01*
X50520047Y-32574139D01*
X50650568Y-32387734D01*
X50746739Y-32181496D01*
X50805635Y-31961692D01*
X50825468Y-31735000D01*
X50824141Y-31719837D01*
X50816764Y-31635510D01*
X50805635Y-31508308D01*
X50757216Y-31327605D01*
X50746741Y-31288511D01*
X50746738Y-31288502D01*
X50745732Y-31286344D01*
X50650568Y-31082266D01*
X50520047Y-30895861D01*
X50520045Y-30895858D01*
X50359141Y-30734954D01*
X50172734Y-30604432D01*
X50172728Y-30604429D01*
X50129209Y-30584136D01*
X50114724Y-30577381D01*
X50062285Y-30531210D01*
X50043133Y-30464017D01*
X50063348Y-30397135D01*
X50114725Y-30352618D01*
X50118594Y-30350814D01*
X50172734Y-30325568D01*
X50359139Y-30195047D01*
X50520047Y-30034139D01*
X50650568Y-29847734D01*
X50746739Y-29641496D01*
X50805635Y-29421692D01*
X50825468Y-29195000D01*
X50805635Y-28968308D01*
X50746739Y-28748504D01*
X50650568Y-28542266D01*
X50529393Y-28369208D01*
X50520045Y-28355858D01*
X50359141Y-28194954D01*
X50172734Y-28064432D01*
X50172728Y-28064429D01*
X50145038Y-28051517D01*
X50114724Y-28037381D01*
X50062285Y-27991210D01*
X50043133Y-27924017D01*
X50063348Y-27857135D01*
X50114725Y-27812618D01*
X50172734Y-27785568D01*
X50359139Y-27655047D01*
X50520047Y-27494139D01*
X50650568Y-27307734D01*
X50746739Y-27101496D01*
X50795370Y-26920000D01*
X51797501Y-26920000D01*
X51797501Y-26956654D01*
X51807819Y-27057652D01*
X51862046Y-27221300D01*
X51862051Y-27221311D01*
X51952552Y-27368034D01*
X51952555Y-27368038D01*
X52074461Y-27489944D01*
X52074465Y-27489947D01*
X52221188Y-27580448D01*
X52221199Y-27580453D01*
X52384847Y-27634680D01*
X52485851Y-27644999D01*
X52534999Y-27644998D01*
X52535000Y-26920000D01*
X51797501Y-26920000D01*
X50795370Y-26920000D01*
X50805635Y-26881692D01*
X50825468Y-26655000D01*
X50805635Y-26428308D01*
X50779548Y-26330950D01*
X50759625Y-26256593D01*
X50761288Y-26186743D01*
X50800451Y-26128881D01*
X50864679Y-26101377D01*
X50879400Y-26100500D01*
X51696357Y-26100500D01*
X51763396Y-26120185D01*
G37*
%TD.AperFunction*%
%TA.AperFunction,Conductor*%
G36*
X22743834Y-26844335D02*
G01*
X22799767Y-26886207D01*
X22824184Y-26951671D01*
X22824500Y-26960517D01*
X22824500Y-27507870D01*
X22824501Y-27507876D01*
X22830908Y-27567483D01*
X22881202Y-27702328D01*
X22881206Y-27702335D01*
X22967452Y-27817544D01*
X22967455Y-27817547D01*
X23082664Y-27903793D01*
X23082671Y-27903797D01*
X23084642Y-27904532D01*
X23217517Y-27954091D01*
X23269312Y-27959659D01*
X23333859Y-27986396D01*
X23373708Y-28043788D01*
X23376202Y-28113613D01*
X23340551Y-28173702D01*
X23327179Y-28184522D01*
X23290858Y-28209954D01*
X23129954Y-28370858D01*
X22999432Y-28557265D01*
X22999431Y-28557267D01*
X22903261Y-28763502D01*
X22903258Y-28763511D01*
X22844366Y-28983302D01*
X22844364Y-28983313D01*
X22824532Y-29209998D01*
X22824532Y-29210001D01*
X22844364Y-29436686D01*
X22844366Y-29436697D01*
X22903258Y-29656488D01*
X22903261Y-29656497D01*
X22999431Y-29862732D01*
X22999432Y-29862734D01*
X23129954Y-30049141D01*
X23290858Y-30210045D01*
X23324353Y-30233498D01*
X23477266Y-30340568D01*
X23683504Y-30436739D01*
X23683506Y-30436739D01*
X23683513Y-30436742D01*
X23713949Y-30444897D01*
X23773610Y-30481261D01*
X23804140Y-30544108D01*
X23795846Y-30613484D01*
X23753877Y-30664314D01*
X23754218Y-30664745D01*
X23752212Y-30666331D01*
X23751361Y-30667362D01*
X23748880Y-30668965D01*
X23748550Y-30669226D01*
X23626644Y-30791132D01*
X23626641Y-30791136D01*
X23536140Y-30937859D01*
X23536135Y-30937870D01*
X23481908Y-31101518D01*
X23471589Y-31202516D01*
X23471589Y-31239171D01*
X24622589Y-31239171D01*
X24689628Y-31258856D01*
X24735383Y-31311660D01*
X24746589Y-31363171D01*
X24746589Y-31615171D01*
X24726904Y-31682210D01*
X24674100Y-31727965D01*
X24622589Y-31739171D01*
X23471590Y-31739171D01*
X23471590Y-31775825D01*
X23481908Y-31876823D01*
X23536135Y-32040471D01*
X23536140Y-32040482D01*
X23626641Y-32187205D01*
X23631122Y-32192872D01*
X23629928Y-32193816D01*
X23659416Y-32247819D01*
X23654432Y-32317511D01*
X23643789Y-32339273D01*
X23564095Y-32468477D01*
X23564091Y-32468486D01*
X23547385Y-32518903D01*
X23509826Y-32632247D01*
X23509826Y-32632248D01*
X23509825Y-32632248D01*
X23499500Y-32733315D01*
X23499500Y-33306669D01*
X23499501Y-33306687D01*
X23509825Y-33407752D01*
X23564092Y-33571515D01*
X23564093Y-33571518D01*
X23654661Y-33718351D01*
X23720886Y-33784576D01*
X23754371Y-33845899D01*
X23749387Y-33915591D01*
X23707515Y-33971524D01*
X23642051Y-33995941D01*
X23633205Y-33996257D01*
X23186804Y-33996257D01*
X23119765Y-33976572D01*
X23099123Y-33959938D01*
X20676819Y-31537634D01*
X20643334Y-31476311D01*
X20640500Y-31449953D01*
X20640500Y-31296518D01*
X20660185Y-31229479D01*
X20676816Y-31208840D01*
X20677673Y-31207983D01*
X20738995Y-31174499D01*
X20808687Y-31179483D01*
X20853034Y-31207984D01*
X20955122Y-31310072D01*
X21100604Y-31398019D01*
X21100603Y-31398019D01*
X21262894Y-31448590D01*
X21262893Y-31448590D01*
X21333408Y-31454998D01*
X21333426Y-31454999D01*
X21339999Y-31454998D01*
X21340000Y-31454998D01*
X21340000Y-30730000D01*
X21840000Y-30730000D01*
X21840000Y-31454999D01*
X21846581Y-31454999D01*
X21917102Y-31448591D01*
X21917107Y-31448590D01*
X22079396Y-31398018D01*
X22224877Y-31310072D01*
X22345072Y-31189877D01*
X22433019Y-31044395D01*
X22483590Y-30882106D01*
X22490000Y-30811572D01*
X22490000Y-30730000D01*
X21840000Y-30730000D01*
X21340000Y-30730000D01*
X21340000Y-30354000D01*
X21359685Y-30286961D01*
X21412489Y-30241206D01*
X21464000Y-30230000D01*
X22489999Y-30230000D01*
X22489999Y-30148417D01*
X22483591Y-30077897D01*
X22483590Y-30077892D01*
X22433018Y-29915603D01*
X22345072Y-29770122D01*
X22224877Y-29649927D01*
X22079395Y-29561980D01*
X22079396Y-29561980D01*
X21917105Y-29511409D01*
X21917106Y-29511409D01*
X21846572Y-29505000D01*
X21822872Y-29505000D01*
X21755833Y-29485315D01*
X21710078Y-29432511D01*
X21700134Y-29363353D01*
X21729159Y-29299797D01*
X21779539Y-29264818D01*
X21837086Y-29243354D01*
X21837093Y-29243350D01*
X21952187Y-29157190D01*
X21952190Y-29157187D01*
X22038350Y-29042093D01*
X22038354Y-29042086D01*
X22088596Y-28907379D01*
X22088598Y-28907372D01*
X22094999Y-28847844D01*
X22095000Y-28847827D01*
X22095000Y-28270000D01*
X21269500Y-28270000D01*
X21202461Y-28250315D01*
X21156706Y-28197511D01*
X21145500Y-28146000D01*
X21145499Y-27894000D01*
X21165183Y-27826961D01*
X21217987Y-27781206D01*
X21269499Y-27770000D01*
X22095000Y-27770000D01*
X22095000Y-27297182D01*
X22114685Y-27230143D01*
X22167489Y-27184388D01*
X22196653Y-27175212D01*
X22197641Y-27175030D01*
X22204932Y-27173695D01*
X22261512Y-27148229D01*
X22264942Y-27146809D01*
X22322930Y-27124818D01*
X22331266Y-27119062D01*
X22350821Y-27108034D01*
X22360057Y-27103878D01*
X22408896Y-27065613D01*
X22411876Y-27063421D01*
X22462929Y-27028183D01*
X22504065Y-26981748D01*
X22506599Y-26979056D01*
X22612821Y-26872834D01*
X22674142Y-26839351D01*
X22743834Y-26844335D01*
G37*
%TD.AperFunction*%
%TA.AperFunction,Conductor*%
G36*
X68633139Y-29762757D02*
G01*
X68677657Y-29814133D01*
X68704865Y-29872482D01*
X68835342Y-30058820D01*
X68996179Y-30219657D01*
X69182517Y-30350134D01*
X69388673Y-30446265D01*
X69388682Y-30446269D01*
X69608389Y-30505139D01*
X69608400Y-30505141D01*
X69648961Y-30508690D01*
X69714030Y-30534142D01*
X69755009Y-30590733D01*
X69758887Y-30660495D01*
X69724433Y-30721279D01*
X69693806Y-30743028D01*
X69559690Y-30810384D01*
X69480967Y-30874513D01*
X69455057Y-30900423D01*
X70003064Y-31448429D01*
X70156946Y-31294547D01*
X70218269Y-31261062D01*
X70287961Y-31266046D01*
X70343895Y-31307917D01*
X70368312Y-31373381D01*
X70362559Y-31420545D01*
X70319941Y-31551711D01*
X70319940Y-31551715D01*
X70319940Y-31551717D01*
X70303531Y-31707839D01*
X70300154Y-31739973D01*
X70305239Y-31788360D01*
X70292669Y-31857090D01*
X70269599Y-31889001D01*
X70090745Y-32067855D01*
X70029422Y-32101340D01*
X69959730Y-32096356D01*
X69915383Y-32067855D01*
X69101504Y-31253976D01*
X69075594Y-31279887D01*
X69011465Y-31358608D01*
X68934092Y-31512669D01*
X68894331Y-31680438D01*
X68894194Y-31681617D01*
X68893874Y-31682368D01*
X68892669Y-31687455D01*
X68891799Y-31687248D01*
X68866855Y-31745916D01*
X68809093Y-31785227D01*
X68742437Y-31787869D01*
X68723404Y-31783358D01*
X68723403Y-31783358D01*
X68667793Y-31783358D01*
X68600754Y-31763673D01*
X68554999Y-31710869D01*
X68543793Y-31659358D01*
X68543793Y-31604309D01*
X68504034Y-31436549D01*
X68426659Y-31282486D01*
X68362532Y-31203765D01*
X68301266Y-31142500D01*
X67522742Y-31921024D01*
X67461419Y-31954509D01*
X67391727Y-31949525D01*
X67347380Y-31921024D01*
X67169189Y-31742833D01*
X67135704Y-31681510D01*
X67140688Y-31611818D01*
X67169189Y-31567471D01*
X67947713Y-30788947D01*
X67886449Y-30727683D01*
X67807724Y-30663553D01*
X67780857Y-30650059D01*
X67729784Y-30602380D01*
X67712596Y-30534657D01*
X67734750Y-30468393D01*
X67784104Y-30426870D01*
X67947734Y-30350568D01*
X68134139Y-30220047D01*
X68295047Y-30059139D01*
X68425568Y-29872734D01*
X68452895Y-29814129D01*
X68499064Y-29761695D01*
X68566257Y-29742542D01*
X68633139Y-29762757D01*
G37*
%TD.AperFunction*%
%TA.AperFunction,Conductor*%
G36*
X83708777Y-30474600D02*
G01*
X83750654Y-30530529D01*
X83752407Y-30535556D01*
X83775034Y-30605197D01*
X83775035Y-30605198D01*
X83775037Y-30605203D01*
X83869683Y-30769135D01*
X83964566Y-30874513D01*
X83996345Y-30909807D01*
X84149481Y-31021067D01*
X84149486Y-31021070D01*
X84322408Y-31098061D01*
X84322409Y-31098061D01*
X84322413Y-31098063D01*
X84474492Y-31130388D01*
X84535974Y-31163580D01*
X84536393Y-31163997D01*
X84995117Y-31622721D01*
X84914369Y-31635510D01*
X84801472Y-31693034D01*
X84711876Y-31782630D01*
X84654352Y-31895527D01*
X84641563Y-31976274D01*
X83960490Y-31295201D01*
X83909385Y-31368188D01*
X83813251Y-31574348D01*
X83813247Y-31574357D01*
X83801529Y-31618093D01*
X83765164Y-31677754D01*
X83702318Y-31708283D01*
X83681754Y-31710000D01*
X83676027Y-31710000D01*
X83647992Y-31715959D01*
X83490870Y-31749355D01*
X83490865Y-31749357D01*
X83317943Y-31826348D01*
X83317938Y-31826351D01*
X83304221Y-31836318D01*
X83238415Y-31859798D01*
X83231336Y-31860000D01*
X82973930Y-31860000D01*
X82906891Y-31840315D01*
X82861136Y-31787511D01*
X82851192Y-31718353D01*
X82866543Y-31674000D01*
X82867847Y-31671741D01*
X82881679Y-31647784D01*
X82940174Y-31467756D01*
X82959960Y-31279500D01*
X82940174Y-31091244D01*
X82881679Y-30911216D01*
X82787033Y-30747284D01*
X82769191Y-30727469D01*
X82738963Y-30664480D01*
X82747588Y-30595145D01*
X82792329Y-30541479D01*
X82858982Y-30520521D01*
X82861343Y-30520499D01*
X83382871Y-30520499D01*
X83382872Y-30520499D01*
X83442483Y-30514091D01*
X83467745Y-30504669D01*
X83585641Y-30460697D01*
X83586345Y-30462586D01*
X83643310Y-30450189D01*
X83708777Y-30474600D01*
G37*
%TD.AperFunction*%
%TA.AperFunction,Conductor*%
G36*
X66679642Y-30368426D02*
G01*
X66688697Y-30372219D01*
X66848504Y-30446739D01*
X66848506Y-30446739D01*
X66848513Y-30446742D01*
X66888665Y-30457500D01*
X66922297Y-30466511D01*
X66981957Y-30502875D01*
X67012487Y-30565721D01*
X67004193Y-30635097D01*
X66968521Y-30682424D01*
X66912970Y-30727677D01*
X66912961Y-30727685D01*
X66507596Y-31133051D01*
X66507588Y-31133060D01*
X66443462Y-31211777D01*
X66366089Y-31365838D01*
X66326331Y-31533598D01*
X66326331Y-31705997D01*
X66349038Y-31801810D01*
X66345344Y-31871582D01*
X66304514Y-31928280D01*
X66239513Y-31953904D01*
X66218703Y-31953630D01*
X66214523Y-31953630D01*
X66158913Y-31953630D01*
X66091874Y-31933945D01*
X66046119Y-31881141D01*
X66034913Y-31829630D01*
X66034913Y-31774581D01*
X65995154Y-31606821D01*
X65917779Y-31452758D01*
X65853655Y-31374040D01*
X65800267Y-31320652D01*
X65766782Y-31259329D01*
X65771766Y-31189637D01*
X65800267Y-31145290D01*
X65981853Y-30963703D01*
X65981866Y-30963688D01*
X66548629Y-30396925D01*
X66609950Y-30363442D01*
X66679642Y-30368426D01*
G37*
%TD.AperFunction*%
%TA.AperFunction,Conductor*%
G36*
X61472539Y-17330185D02*
G01*
X61518294Y-17382989D01*
X61529500Y-17434500D01*
X61529500Y-18225500D01*
X61509815Y-18292539D01*
X61457011Y-18338294D01*
X61405500Y-18349500D01*
X61378037Y-18349500D01*
X61374293Y-18349387D01*
X61312397Y-18345643D01*
X61312390Y-18345643D01*
X61251402Y-18356819D01*
X61247701Y-18357382D01*
X61186125Y-18364860D01*
X61176642Y-18368456D01*
X61155038Y-18374478D01*
X61153535Y-18374754D01*
X61145065Y-18376306D01*
X61088522Y-18401754D01*
X61085063Y-18403187D01*
X61053978Y-18414977D01*
X61027070Y-18425182D01*
X61027068Y-18425183D01*
X61027066Y-18425184D01*
X61027061Y-18425186D01*
X61018722Y-18430942D01*
X60999190Y-18441959D01*
X60989946Y-18446120D01*
X60941124Y-18484368D01*
X60938109Y-18486586D01*
X60887068Y-18521818D01*
X60845942Y-18568240D01*
X60843375Y-18570966D01*
X60106160Y-19308181D01*
X60044837Y-19341666D01*
X60018479Y-19344500D01*
X59748331Y-19344500D01*
X59748312Y-19344501D01*
X59647247Y-19354825D01*
X59483484Y-19409092D01*
X59483481Y-19409093D01*
X59336648Y-19499661D01*
X59253129Y-19583181D01*
X59191806Y-19616666D01*
X59165448Y-19619500D01*
X58490843Y-19619500D01*
X58423804Y-19599815D01*
X58378049Y-19547011D01*
X58368105Y-19477853D01*
X58371068Y-19463406D01*
X58418872Y-19285000D01*
X57455686Y-19285000D01*
X57467641Y-19273045D01*
X57525165Y-19160148D01*
X57544986Y-19035000D01*
X57525165Y-18909852D01*
X57467641Y-18796955D01*
X57455686Y-18785000D01*
X58418872Y-18785000D01*
X58418872Y-18784999D01*
X58366269Y-18588682D01*
X58366265Y-18588673D01*
X58270134Y-18382517D01*
X58139657Y-18196179D01*
X57978820Y-18035342D01*
X57792482Y-17904865D01*
X57586328Y-17808734D01*
X57389999Y-17756127D01*
X57389999Y-18719313D01*
X57378045Y-18707359D01*
X57265148Y-18649835D01*
X57171481Y-18635000D01*
X57108519Y-18635000D01*
X57014852Y-18649835D01*
X56901955Y-18707359D01*
X56889999Y-18719314D01*
X56890000Y-17756127D01*
X56693671Y-17808734D01*
X56487517Y-17904865D01*
X56301179Y-18035342D01*
X56140342Y-18196179D01*
X56009865Y-18382517D01*
X55913734Y-18588673D01*
X55913730Y-18588682D01*
X55861127Y-18784999D01*
X55861128Y-18785000D01*
X56824314Y-18785000D01*
X56812359Y-18796955D01*
X56754835Y-18909852D01*
X56735014Y-19035000D01*
X56754835Y-19160148D01*
X56812359Y-19273045D01*
X56824314Y-19285000D01*
X55861128Y-19285000D01*
X55913730Y-19481317D01*
X55913734Y-19481326D01*
X56009866Y-19687483D01*
X56009869Y-19687489D01*
X56043670Y-19735760D01*
X56065998Y-19801966D01*
X56048988Y-19869733D01*
X56029777Y-19894565D01*
X52806160Y-23118181D01*
X52744837Y-23151666D01*
X52718480Y-23154500D01*
X52485831Y-23154500D01*
X52485812Y-23154501D01*
X52384747Y-23164825D01*
X52220984Y-23219092D01*
X52220981Y-23219093D01*
X52074148Y-23309661D01*
X51952161Y-23431648D01*
X51861593Y-23578481D01*
X51861591Y-23578486D01*
X51847180Y-23621975D01*
X51807326Y-23742247D01*
X51807326Y-23742248D01*
X51807325Y-23742248D01*
X51797000Y-23843315D01*
X51797000Y-24416669D01*
X51797001Y-24416687D01*
X51807325Y-24517752D01*
X51807327Y-24517757D01*
X51813536Y-24536494D01*
X51815939Y-24606322D01*
X51780209Y-24666365D01*
X51717689Y-24697558D01*
X51695831Y-24699500D01*
X50871361Y-24699500D01*
X50804322Y-24679815D01*
X50758567Y-24627011D01*
X50748623Y-24557853D01*
X50751586Y-24543407D01*
X50771383Y-24469521D01*
X50805635Y-24341692D01*
X50825468Y-24115000D01*
X50822748Y-24083916D01*
X50812170Y-23963004D01*
X50805635Y-23888308D01*
X50752683Y-23690686D01*
X50746741Y-23668511D01*
X50746738Y-23668502D01*
X50745732Y-23666344D01*
X50650568Y-23462266D01*
X50520047Y-23275861D01*
X50520045Y-23275858D01*
X50359141Y-23114954D01*
X50172734Y-22984432D01*
X50172728Y-22984429D01*
X50123717Y-22961575D01*
X50114724Y-22957381D01*
X50062285Y-22911210D01*
X50043133Y-22844017D01*
X50063348Y-22777135D01*
X50114725Y-22732618D01*
X50172734Y-22705568D01*
X50359139Y-22575047D01*
X50520047Y-22414139D01*
X50650568Y-22227734D01*
X50746739Y-22021496D01*
X50805635Y-21801692D01*
X50825468Y-21575000D01*
X50823011Y-21546922D01*
X50811419Y-21414417D01*
X50805635Y-21348308D01*
X50746739Y-21128504D01*
X50650568Y-20922266D01*
X50520047Y-20735861D01*
X50520045Y-20735858D01*
X50359141Y-20574954D01*
X50172734Y-20444432D01*
X50172728Y-20444429D01*
X50135418Y-20427031D01*
X50114724Y-20417381D01*
X50062285Y-20371210D01*
X50043133Y-20304017D01*
X50063348Y-20237135D01*
X50114725Y-20192618D01*
X50172734Y-20165568D01*
X50359139Y-20035047D01*
X50520047Y-19874139D01*
X50650568Y-19687734D01*
X50746739Y-19481496D01*
X50805635Y-19261692D01*
X50824156Y-19049999D01*
X50825468Y-19035001D01*
X50825468Y-19034998D01*
X50806185Y-18814596D01*
X50805635Y-18808308D01*
X50746739Y-18588504D01*
X50650568Y-18382266D01*
X50524435Y-18202128D01*
X50520045Y-18195858D01*
X50359141Y-18034954D01*
X50172734Y-17904432D01*
X50172732Y-17904431D01*
X49966497Y-17808261D01*
X49966488Y-17808258D01*
X49746697Y-17749366D01*
X49746693Y-17749365D01*
X49746692Y-17749365D01*
X49746691Y-17749364D01*
X49746686Y-17749364D01*
X49520002Y-17729532D01*
X49519998Y-17729532D01*
X49293313Y-17749364D01*
X49293302Y-17749366D01*
X49073511Y-17808258D01*
X49073502Y-17808261D01*
X48867267Y-17904431D01*
X48867265Y-17904432D01*
X48680862Y-18034951D01*
X48537858Y-18177955D01*
X48476535Y-18211439D01*
X48406843Y-18206455D01*
X48350910Y-18164583D01*
X48326887Y-18103526D01*
X48324091Y-18077516D01*
X48273797Y-17942671D01*
X48273793Y-17942664D01*
X48187547Y-17827455D01*
X48187544Y-17827452D01*
X48072335Y-17741206D01*
X48072328Y-17741202D01*
X47937482Y-17690908D01*
X47937483Y-17690908D01*
X47877883Y-17684501D01*
X47877881Y-17684500D01*
X47877873Y-17684500D01*
X47877864Y-17684500D01*
X46082129Y-17684500D01*
X46082123Y-17684501D01*
X46022516Y-17690908D01*
X45887671Y-17741202D01*
X45887664Y-17741206D01*
X45772455Y-17827452D01*
X45772452Y-17827455D01*
X45686206Y-17942664D01*
X45686203Y-17942669D01*
X45637189Y-18074083D01*
X45595317Y-18130016D01*
X45529853Y-18154433D01*
X45461580Y-18139581D01*
X45433326Y-18118430D01*
X45311402Y-17996506D01*
X45311395Y-17996501D01*
X45117834Y-17860967D01*
X45117830Y-17860965D01*
X45100342Y-17852810D01*
X44903663Y-17761097D01*
X44903659Y-17761096D01*
X44903655Y-17761094D01*
X44675413Y-17699938D01*
X44675403Y-17699936D01*
X44440001Y-17679341D01*
X44439999Y-17679341D01*
X44204596Y-17699936D01*
X44204586Y-17699938D01*
X43976344Y-17761094D01*
X43976335Y-17761098D01*
X43762171Y-17860964D01*
X43762169Y-17860965D01*
X43568597Y-17996505D01*
X43401505Y-18163597D01*
X43265965Y-18357169D01*
X43265964Y-18357171D01*
X43166098Y-18571335D01*
X43166094Y-18571344D01*
X43104938Y-18799586D01*
X43104936Y-18799596D01*
X43084341Y-19034999D01*
X43084341Y-19035000D01*
X43104936Y-19270403D01*
X43104938Y-19270413D01*
X43166094Y-19498655D01*
X43166096Y-19498659D01*
X43166097Y-19498663D01*
X43254148Y-19687489D01*
X43265965Y-19712830D01*
X43265967Y-19712834D01*
X43356491Y-19842114D01*
X43395251Y-19897470D01*
X43401501Y-19906395D01*
X43401506Y-19906402D01*
X43568597Y-20073494D01*
X43686623Y-20156136D01*
X43730248Y-20210713D01*
X43739500Y-20257711D01*
X43739500Y-20352288D01*
X43719815Y-20419327D01*
X43686624Y-20453863D01*
X43568594Y-20536508D01*
X43401505Y-20703597D01*
X43265965Y-20897169D01*
X43265964Y-20897171D01*
X43166098Y-21111335D01*
X43166094Y-21111344D01*
X43104938Y-21339586D01*
X43104936Y-21339596D01*
X43084341Y-21574999D01*
X43084341Y-21575000D01*
X43104936Y-21810403D01*
X43104938Y-21810413D01*
X43166094Y-22038655D01*
X43166096Y-22038659D01*
X43166097Y-22038663D01*
X43241897Y-22201216D01*
X43265965Y-22252830D01*
X43265967Y-22252834D01*
X43370025Y-22401443D01*
X43401501Y-22446396D01*
X43401506Y-22446402D01*
X43568597Y-22613494D01*
X43686623Y-22696136D01*
X43730248Y-22750713D01*
X43739500Y-22797711D01*
X43739500Y-22892288D01*
X43719815Y-22959327D01*
X43686624Y-22993863D01*
X43568594Y-23076508D01*
X43401505Y-23243597D01*
X43265965Y-23437169D01*
X43265964Y-23437171D01*
X43166098Y-23651335D01*
X43166094Y-23651344D01*
X43104938Y-23879586D01*
X43104936Y-23879596D01*
X43084341Y-24114999D01*
X43084341Y-24115000D01*
X43104936Y-24350403D01*
X43104938Y-24350413D01*
X43166094Y-24578655D01*
X43166096Y-24578659D01*
X43166097Y-24578663D01*
X43265560Y-24791961D01*
X43265965Y-24792830D01*
X43265967Y-24792834D01*
X43401501Y-24986395D01*
X43401506Y-24986402D01*
X43568597Y-25153494D01*
X43624120Y-25192371D01*
X43658095Y-25216161D01*
X43686623Y-25236136D01*
X43730248Y-25290713D01*
X43739500Y-25337711D01*
X43739500Y-25432288D01*
X43719815Y-25499327D01*
X43686624Y-25533863D01*
X43568594Y-25616508D01*
X43401505Y-25783597D01*
X43265965Y-25977169D01*
X43265964Y-25977171D01*
X43166098Y-26191335D01*
X43166094Y-26191344D01*
X43104938Y-26419586D01*
X43104936Y-26419596D01*
X43084341Y-26654999D01*
X43084341Y-26655000D01*
X43104936Y-26890403D01*
X43104938Y-26890413D01*
X43166094Y-27118655D01*
X43166096Y-27118659D01*
X43166097Y-27118663D01*
X43237339Y-27271442D01*
X43265965Y-27332830D01*
X43265967Y-27332834D01*
X43370437Y-27482031D01*
X43401501Y-27526396D01*
X43401506Y-27526402D01*
X43568597Y-27693494D01*
X43650283Y-27750690D01*
X43675357Y-27768248D01*
X43686623Y-27776136D01*
X43730248Y-27830713D01*
X43739500Y-27877711D01*
X43739500Y-27972288D01*
X43719815Y-28039327D01*
X43686624Y-28073863D01*
X43568594Y-28156508D01*
X43401505Y-28323597D01*
X43265965Y-28517169D01*
X43265964Y-28517171D01*
X43166098Y-28731335D01*
X43166094Y-28731344D01*
X43104938Y-28959586D01*
X43104936Y-28959596D01*
X43084341Y-29194999D01*
X43084341Y-29195000D01*
X43104936Y-29430403D01*
X43104938Y-29430413D01*
X43166094Y-29658655D01*
X43166096Y-29658659D01*
X43166097Y-29658663D01*
X43238552Y-29814042D01*
X43265965Y-29872830D01*
X43265967Y-29872834D01*
X43336244Y-29973199D01*
X43401501Y-30066396D01*
X43401506Y-30066402D01*
X43568597Y-30233494D01*
X43650283Y-30290690D01*
X43674653Y-30307755D01*
X43686623Y-30316136D01*
X43730248Y-30370713D01*
X43739500Y-30417711D01*
X43739500Y-30512288D01*
X43719815Y-30579327D01*
X43686624Y-30613863D01*
X43568594Y-30696508D01*
X43401506Y-30863596D01*
X43308361Y-30996623D01*
X43253784Y-31040248D01*
X43206786Y-31049500D01*
X42434552Y-31049500D01*
X42367513Y-31029815D01*
X42346871Y-31013181D01*
X42263351Y-30929661D01*
X42263350Y-30929660D01*
X42172129Y-30873395D01*
X42116518Y-30839093D01*
X42116513Y-30839091D01*
X42115069Y-30838612D01*
X41952753Y-30784826D01*
X41952751Y-30784825D01*
X41851678Y-30774500D01*
X41253330Y-30774500D01*
X41253312Y-30774501D01*
X41152247Y-30784825D01*
X40988484Y-30839092D01*
X40988481Y-30839093D01*
X40841648Y-30929661D01*
X40727681Y-31043629D01*
X40666358Y-31077114D01*
X40596666Y-31072130D01*
X40552319Y-31043629D01*
X40438351Y-30929661D01*
X40438350Y-30929660D01*
X40347129Y-30873395D01*
X40291518Y-30839093D01*
X40291513Y-30839091D01*
X40290069Y-30838612D01*
X40127753Y-30784826D01*
X40127751Y-30784825D01*
X40026678Y-30774500D01*
X39428330Y-30774500D01*
X39428312Y-30774501D01*
X39327247Y-30784825D01*
X39163484Y-30839092D01*
X39163481Y-30839093D01*
X39016648Y-30929661D01*
X38933129Y-31013181D01*
X38871806Y-31046666D01*
X38845448Y-31049500D01*
X38624552Y-31049500D01*
X38557513Y-31029815D01*
X38536871Y-31013181D01*
X38453351Y-30929661D01*
X38453350Y-30929660D01*
X38362129Y-30873395D01*
X38306518Y-30839093D01*
X38306513Y-30839091D01*
X38305069Y-30838612D01*
X38142753Y-30784826D01*
X38142751Y-30784825D01*
X38041678Y-30774500D01*
X37368330Y-30774500D01*
X37368312Y-30774501D01*
X37267247Y-30784825D01*
X37103484Y-30839092D01*
X37103481Y-30839093D01*
X36956648Y-30929661D01*
X36917680Y-30968629D01*
X36856357Y-31002114D01*
X36786665Y-30997128D01*
X36742320Y-30968629D01*
X36703351Y-30929661D01*
X36703350Y-30929660D01*
X36612129Y-30873395D01*
X36556518Y-30839093D01*
X36556513Y-30839091D01*
X36555069Y-30838612D01*
X36392753Y-30784826D01*
X36392751Y-30784825D01*
X36301896Y-30775543D01*
X36237205Y-30749146D01*
X36197054Y-30691965D01*
X36190500Y-30652185D01*
X36190500Y-30541380D01*
X36210185Y-30474341D01*
X36262989Y-30428586D01*
X36332147Y-30418642D01*
X36366903Y-30428997D01*
X36383504Y-30436739D01*
X36383509Y-30436740D01*
X36383511Y-30436741D01*
X36420821Y-30446738D01*
X36603308Y-30495635D01*
X36756768Y-30509061D01*
X36829998Y-30515468D01*
X36830000Y-30515468D01*
X36830002Y-30515468D01*
X36903232Y-30509061D01*
X37056692Y-30495635D01*
X37276496Y-30436739D01*
X37482734Y-30340568D01*
X37669139Y-30210047D01*
X37830047Y-30049139D01*
X37960568Y-29862734D01*
X37987618Y-29804724D01*
X38033790Y-29752285D01*
X38100983Y-29733133D01*
X38167865Y-29753348D01*
X38212381Y-29804724D01*
X38216769Y-29814133D01*
X38239429Y-29862728D01*
X38239432Y-29862734D01*
X38369954Y-30049141D01*
X38530858Y-30210045D01*
X38564353Y-30233498D01*
X38717266Y-30340568D01*
X38923504Y-30436739D01*
X38923509Y-30436740D01*
X38923511Y-30436741D01*
X38960821Y-30446738D01*
X39143308Y-30495635D01*
X39296768Y-30509061D01*
X39369998Y-30515468D01*
X39370000Y-30515468D01*
X39370002Y-30515468D01*
X39443232Y-30509061D01*
X39596692Y-30495635D01*
X39816496Y-30436739D01*
X40022734Y-30340568D01*
X40209139Y-30210047D01*
X40370047Y-30049139D01*
X40500568Y-29862734D01*
X40596739Y-29656496D01*
X40655635Y-29436692D01*
X40675468Y-29210000D01*
X40674155Y-29194998D01*
X40664444Y-29084000D01*
X40655635Y-28983308D01*
X40596739Y-28763504D01*
X40500568Y-28557266D01*
X40388469Y-28397171D01*
X40370045Y-28370858D01*
X40209141Y-28209954D01*
X40022734Y-28079432D01*
X40022732Y-28079431D01*
X39950911Y-28045940D01*
X39898472Y-27999767D01*
X39879320Y-27932573D01*
X39899536Y-27865692D01*
X39950912Y-27821175D01*
X40017484Y-27790132D01*
X40203820Y-27659657D01*
X40364657Y-27498820D01*
X40495134Y-27312482D01*
X40591265Y-27106326D01*
X40591269Y-27106317D01*
X40643872Y-26910000D01*
X39680686Y-26910000D01*
X39692641Y-26898045D01*
X39750165Y-26785148D01*
X39769986Y-26660000D01*
X39750165Y-26534852D01*
X39692641Y-26421955D01*
X39680686Y-26410000D01*
X40643872Y-26410000D01*
X40643872Y-26409999D01*
X40591269Y-26213682D01*
X40591265Y-26213673D01*
X40495134Y-26007517D01*
X40364657Y-25821179D01*
X40203820Y-25660342D01*
X40017482Y-25529865D01*
X39811328Y-25433734D01*
X39615000Y-25381127D01*
X39615000Y-26344313D01*
X39603045Y-26332359D01*
X39490148Y-26274835D01*
X39396481Y-26260000D01*
X39333519Y-26260000D01*
X39239852Y-26274835D01*
X39126955Y-26332359D01*
X39115000Y-26344314D01*
X39115000Y-25381127D01*
X38918671Y-25433734D01*
X38712517Y-25529865D01*
X38526179Y-25660342D01*
X38365342Y-25821179D01*
X38234867Y-26007515D01*
X38207657Y-26065867D01*
X38161484Y-26118306D01*
X38094290Y-26137457D01*
X38027409Y-26117241D01*
X37982893Y-26065865D01*
X37979748Y-26059121D01*
X37955568Y-26007266D01*
X37825047Y-25820861D01*
X37825045Y-25820858D01*
X37664141Y-25659954D01*
X37477734Y-25529432D01*
X37477732Y-25529431D01*
X37271497Y-25433261D01*
X37271488Y-25433258D01*
X37051697Y-25374366D01*
X37051693Y-25374365D01*
X37051692Y-25374365D01*
X37051691Y-25374364D01*
X37051686Y-25374364D01*
X36825002Y-25354532D01*
X36824998Y-25354532D01*
X36598313Y-25374364D01*
X36598302Y-25374366D01*
X36378511Y-25433258D01*
X36378502Y-25433261D01*
X36172267Y-25529431D01*
X36172265Y-25529432D01*
X35985858Y-25659954D01*
X35824954Y-25820858D01*
X35694432Y-26007265D01*
X35694431Y-26007267D01*
X35689768Y-26017267D01*
X35670252Y-26059121D01*
X35667382Y-26065275D01*
X35621209Y-26117714D01*
X35554016Y-26136866D01*
X35487135Y-26116650D01*
X35442618Y-26065275D01*
X35415568Y-26007266D01*
X35285047Y-25820861D01*
X35285045Y-25820858D01*
X35124141Y-25659954D01*
X34937734Y-25529432D01*
X34937732Y-25529431D01*
X34731497Y-25433261D01*
X34731488Y-25433258D01*
X34511697Y-25374366D01*
X34511687Y-25374364D01*
X34455692Y-25369465D01*
X34390624Y-25344012D01*
X34349646Y-25287420D01*
X34345769Y-25217658D01*
X34378818Y-25158258D01*
X34882826Y-24654252D01*
X34919077Y-24618001D01*
X34921628Y-24611419D01*
X34937035Y-24586899D01*
X34941052Y-24581236D01*
X34967091Y-24548587D01*
X34985215Y-24510949D01*
X34988564Y-24504891D01*
X35010789Y-24469522D01*
X35024581Y-24430103D01*
X35027242Y-24423681D01*
X35030638Y-24416627D01*
X35045359Y-24386061D01*
X35054652Y-24345342D01*
X35056574Y-24338675D01*
X35070368Y-24299255D01*
X35075044Y-24257747D01*
X35076204Y-24250919D01*
X35085500Y-24210195D01*
X35085500Y-24029806D01*
X35085500Y-24022500D01*
X35855001Y-24022500D01*
X35855001Y-24071654D01*
X35865319Y-24172652D01*
X35919546Y-24336300D01*
X35919551Y-24336311D01*
X36010052Y-24483034D01*
X36010055Y-24483038D01*
X36131961Y-24604944D01*
X36131965Y-24604947D01*
X36278688Y-24695448D01*
X36278699Y-24695453D01*
X36442347Y-24749680D01*
X36543352Y-24759999D01*
X36580000Y-24759999D01*
X36580000Y-24022500D01*
X37080000Y-24022500D01*
X37080000Y-24759999D01*
X37116640Y-24759999D01*
X37116654Y-24759998D01*
X37217652Y-24749680D01*
X37381300Y-24695453D01*
X37381311Y-24695448D01*
X37528034Y-24604947D01*
X37528038Y-24604944D01*
X37649944Y-24483038D01*
X37649947Y-24483034D01*
X37740448Y-24336311D01*
X37740453Y-24336300D01*
X37794680Y-24172652D01*
X37804999Y-24071654D01*
X37805000Y-24071641D01*
X37805000Y-24022500D01*
X37080000Y-24022500D01*
X36580000Y-24022500D01*
X35855001Y-24022500D01*
X35085500Y-24022500D01*
X35085500Y-21285402D01*
X35105185Y-21218363D01*
X35157989Y-21172608D01*
X35227147Y-21162664D01*
X35259936Y-21172123D01*
X35280197Y-21181144D01*
X35435130Y-21214075D01*
X35496607Y-21247266D01*
X35497026Y-21247683D01*
X35818181Y-21568838D01*
X35851666Y-21630161D01*
X35854500Y-21656519D01*
X35854500Y-22246669D01*
X35854501Y-22246687D01*
X35864825Y-22347752D01*
X35896002Y-22441836D01*
X35911257Y-22487873D01*
X35919092Y-22511515D01*
X35919093Y-22511518D01*
X35933576Y-22534998D01*
X35997017Y-22637853D01*
X36009661Y-22658351D01*
X36123982Y-22772672D01*
X36157467Y-22833995D01*
X36152483Y-22903687D01*
X36123983Y-22948034D01*
X36010052Y-23061965D01*
X35919551Y-23208688D01*
X35919546Y-23208699D01*
X35865319Y-23372347D01*
X35855000Y-23473345D01*
X35855000Y-23522500D01*
X37804999Y-23522500D01*
X37804999Y-23473360D01*
X37804998Y-23473345D01*
X37794680Y-23372347D01*
X37740453Y-23208699D01*
X37740448Y-23208688D01*
X37649947Y-23061965D01*
X37649944Y-23061961D01*
X37536017Y-22948034D01*
X37502532Y-22886711D01*
X37507516Y-22817019D01*
X37536013Y-22772676D01*
X37650340Y-22658350D01*
X37740908Y-22511516D01*
X37795174Y-22347753D01*
X37805500Y-22246677D01*
X37805499Y-21648324D01*
X37798227Y-21577139D01*
X37795174Y-21547247D01*
X37788082Y-21525846D01*
X37740908Y-21383484D01*
X37650340Y-21236650D01*
X37528350Y-21114660D01*
X37404844Y-21038481D01*
X37381518Y-21024093D01*
X37381513Y-21024091D01*
X37356483Y-21015797D01*
X37219819Y-20970510D01*
X37171143Y-20940486D01*
X36784179Y-20553522D01*
X36750694Y-20492199D01*
X36755678Y-20422507D01*
X36797550Y-20366574D01*
X36861050Y-20342313D01*
X37051692Y-20325635D01*
X37271496Y-20266739D01*
X37477734Y-20170568D01*
X37664139Y-20040047D01*
X37825047Y-19879139D01*
X37955568Y-19692734D01*
X37982618Y-19634724D01*
X38028790Y-19582285D01*
X38095983Y-19563133D01*
X38162865Y-19583348D01*
X38207382Y-19634725D01*
X38234429Y-19692728D01*
X38234432Y-19692734D01*
X38364954Y-19879141D01*
X38525858Y-20040045D01*
X38530544Y-20043326D01*
X38712266Y-20170568D01*
X38918504Y-20266739D01*
X38918509Y-20266740D01*
X38918511Y-20266741D01*
X38955821Y-20276738D01*
X39138308Y-20325635D01*
X39300230Y-20339801D01*
X39364998Y-20345468D01*
X39365000Y-20345468D01*
X39365002Y-20345468D01*
X39421672Y-20340509D01*
X39591692Y-20325635D01*
X39811496Y-20266739D01*
X40017734Y-20170568D01*
X40204139Y-20040047D01*
X40365047Y-19879139D01*
X40495568Y-19692734D01*
X40591739Y-19486496D01*
X40650635Y-19266692D01*
X40670468Y-19040000D01*
X40670030Y-19034999D01*
X40660394Y-18924852D01*
X40650635Y-18813308D01*
X40594464Y-18603673D01*
X40591741Y-18593511D01*
X40591738Y-18593502D01*
X40589407Y-18588504D01*
X40495568Y-18387266D01*
X40365934Y-18202128D01*
X40365045Y-18200858D01*
X40204141Y-18039954D01*
X40017734Y-17909432D01*
X40017732Y-17909431D01*
X39811497Y-17813261D01*
X39811488Y-17813258D01*
X39591697Y-17754366D01*
X39591693Y-17754365D01*
X39591692Y-17754365D01*
X39591691Y-17754364D01*
X39591686Y-17754364D01*
X39365002Y-17734532D01*
X39364998Y-17734532D01*
X39138313Y-17754364D01*
X39138302Y-17754366D01*
X38918511Y-17813258D01*
X38918502Y-17813261D01*
X38712267Y-17909431D01*
X38712265Y-17909432D01*
X38525858Y-18039954D01*
X38364954Y-18200858D01*
X38234432Y-18387265D01*
X38234431Y-18387267D01*
X38221510Y-18414977D01*
X38211083Y-18437339D01*
X38207382Y-18445275D01*
X38161209Y-18497714D01*
X38094016Y-18516866D01*
X38027135Y-18496650D01*
X37982618Y-18445275D01*
X37981072Y-18441959D01*
X37955568Y-18387266D01*
X37825934Y-18202128D01*
X37825045Y-18200858D01*
X37664141Y-18039954D01*
X37477734Y-17909432D01*
X37477732Y-17909431D01*
X37271497Y-17813261D01*
X37271488Y-17813258D01*
X37051697Y-17754366D01*
X37051693Y-17754365D01*
X37051692Y-17754365D01*
X37051691Y-17754364D01*
X37051686Y-17754364D01*
X36825002Y-17734532D01*
X36824998Y-17734532D01*
X36598313Y-17754364D01*
X36598302Y-17754366D01*
X36378511Y-17813258D01*
X36378502Y-17813261D01*
X36172267Y-17909431D01*
X36172265Y-17909432D01*
X35985858Y-18039954D01*
X35824954Y-18200858D01*
X35694432Y-18387265D01*
X35694431Y-18387267D01*
X35681510Y-18414977D01*
X35671083Y-18437339D01*
X35667382Y-18445275D01*
X35621209Y-18497714D01*
X35554016Y-18516866D01*
X35487135Y-18496650D01*
X35442618Y-18445275D01*
X35441072Y-18441959D01*
X35415568Y-18387266D01*
X35285934Y-18202128D01*
X35285045Y-18200858D01*
X35124141Y-18039954D01*
X34937734Y-17909432D01*
X34937732Y-17909431D01*
X34731497Y-17813261D01*
X34731488Y-17813258D01*
X34511697Y-17754366D01*
X34511693Y-17754365D01*
X34511692Y-17754365D01*
X34511691Y-17754364D01*
X34511686Y-17754364D01*
X34285002Y-17734532D01*
X34284998Y-17734532D01*
X34183160Y-17743441D01*
X34114660Y-17729674D01*
X34084672Y-17707594D01*
X33899259Y-17522181D01*
X33865774Y-17460858D01*
X33870758Y-17391166D01*
X33912630Y-17335233D01*
X33978094Y-17310816D01*
X33986940Y-17310500D01*
X61405500Y-17310500D01*
X61472539Y-17330185D01*
G37*
%TD.AperFunction*%
%TA.AperFunction,Conductor*%
G36*
X71172864Y-29762166D02*
G01*
X71217382Y-29813543D01*
X71244864Y-29872479D01*
X71244865Y-29872481D01*
X71375342Y-30058820D01*
X71536179Y-30219657D01*
X71722518Y-30350134D01*
X71727203Y-30352839D01*
X71725942Y-30355023D01*
X71770435Y-30394170D01*
X71789612Y-30461356D01*
X71769422Y-30528245D01*
X71753297Y-30548100D01*
X71481192Y-30820205D01*
X71419869Y-30853690D01*
X71367731Y-30853814D01*
X71300260Y-30839473D01*
X71110968Y-30839473D01*
X71091072Y-30843702D01*
X70925811Y-30878828D01*
X70925806Y-30878830D01*
X70752884Y-30955821D01*
X70752879Y-30955824D01*
X70712602Y-30985088D01*
X70646796Y-31008568D01*
X70578742Y-30992742D01*
X70555404Y-30968728D01*
X70552036Y-30972097D01*
X70454452Y-30874514D01*
X70375728Y-30810384D01*
X70221665Y-30733010D01*
X70163464Y-30719216D01*
X70102772Y-30684602D01*
X70070428Y-30622669D01*
X70076701Y-30553082D01*
X70119601Y-30497933D01*
X70159968Y-30478784D01*
X70281317Y-30446269D01*
X70281326Y-30446265D01*
X70487482Y-30350134D01*
X70673820Y-30219657D01*
X70834657Y-30058820D01*
X70965134Y-29872481D01*
X70965135Y-29872479D01*
X70992618Y-29813543D01*
X71038790Y-29761103D01*
X71105983Y-29741951D01*
X71172864Y-29762166D01*
G37*
%TD.AperFunction*%
%TA.AperFunction,Conductor*%
G36*
X72047359Y-28981955D02*
G01*
X71989835Y-29094852D01*
X71970014Y-29220000D01*
X71989835Y-29345148D01*
X72047359Y-29458045D01*
X72059314Y-29470000D01*
X70150686Y-29470000D01*
X70162641Y-29458045D01*
X70220165Y-29345148D01*
X70239986Y-29220000D01*
X70220165Y-29094852D01*
X70162641Y-28981955D01*
X70150686Y-28970000D01*
X72059314Y-28970000D01*
X72047359Y-28981955D01*
G37*
%TD.AperFunction*%
%TA.AperFunction,Conductor*%
G36*
X72852539Y-28989685D02*
G01*
X72898294Y-29042489D01*
X72909500Y-29094000D01*
X72909500Y-29340536D01*
X72889815Y-29407575D01*
X72873189Y-29428209D01*
X72867726Y-29433673D01*
X72806406Y-29467164D01*
X72780037Y-29470000D01*
X72690686Y-29470000D01*
X72702641Y-29458045D01*
X72760165Y-29345148D01*
X72779986Y-29220000D01*
X72760165Y-29094852D01*
X72702641Y-28981955D01*
X72690686Y-28970000D01*
X72785500Y-28970000D01*
X72852539Y-28989685D01*
G37*
%TD.AperFunction*%
%TA.AperFunction,Conductor*%
G36*
X74587359Y-28981955D02*
G01*
X74529835Y-29094852D01*
X74510014Y-29220000D01*
X74529835Y-29345148D01*
X74587359Y-29458045D01*
X74599314Y-29470000D01*
X74534500Y-29470000D01*
X74467461Y-29450315D01*
X74421706Y-29397511D01*
X74410500Y-29346000D01*
X74410500Y-29094000D01*
X74430185Y-29026961D01*
X74482989Y-28981206D01*
X74534500Y-28970000D01*
X74599314Y-28970000D01*
X74587359Y-28981955D01*
G37*
%TD.AperFunction*%
%TA.AperFunction,Conductor*%
G36*
X77127359Y-28981955D02*
G01*
X77069835Y-29094852D01*
X77050014Y-29220000D01*
X77069835Y-29345148D01*
X77127359Y-29458045D01*
X77139314Y-29470000D01*
X75230686Y-29470000D01*
X75242641Y-29458045D01*
X75300165Y-29345148D01*
X75319986Y-29220000D01*
X75300165Y-29094852D01*
X75242641Y-28981955D01*
X75230686Y-28970000D01*
X77139314Y-28970000D01*
X77127359Y-28981955D01*
G37*
%TD.AperFunction*%
%TA.AperFunction,Conductor*%
G36*
X58451767Y-27254272D02*
G01*
X58496298Y-27305655D01*
X58515965Y-27347830D01*
X58515966Y-27347832D01*
X58515967Y-27347833D01*
X58515967Y-27347834D01*
X58616934Y-27492028D01*
X58651505Y-27541401D01*
X58818599Y-27708495D01*
X58903935Y-27768248D01*
X59012165Y-27844032D01*
X59012167Y-27844033D01*
X59012170Y-27844035D01*
X59226337Y-27943903D01*
X59226343Y-27943904D01*
X59226344Y-27943905D01*
X59270122Y-27955635D01*
X59454592Y-28005063D01*
X59603194Y-28018064D01*
X59668263Y-28043516D01*
X59709242Y-28100107D01*
X59713120Y-28169869D01*
X59680068Y-28229273D01*
X58500660Y-29408681D01*
X58439337Y-29442166D01*
X58412979Y-29445000D01*
X57455686Y-29445000D01*
X57467641Y-29433045D01*
X57525165Y-29320148D01*
X57544986Y-29195000D01*
X57525165Y-29069852D01*
X57467641Y-28956955D01*
X57455686Y-28945000D01*
X58418872Y-28945000D01*
X58418872Y-28944999D01*
X58366269Y-28748682D01*
X58366265Y-28748673D01*
X58270134Y-28542517D01*
X58139657Y-28356179D01*
X57978820Y-28195342D01*
X57792482Y-28064865D01*
X57734133Y-28037657D01*
X57681694Y-27991484D01*
X57662542Y-27924291D01*
X57682758Y-27857410D01*
X57734129Y-27812895D01*
X57792734Y-27785568D01*
X57979139Y-27655047D01*
X58140047Y-27494139D01*
X58270568Y-27307734D01*
X58271530Y-27305670D01*
X58272195Y-27304914D01*
X58273276Y-27303043D01*
X58273651Y-27303260D01*
X58317692Y-27253228D01*
X58384883Y-27234066D01*
X58451767Y-27254272D01*
G37*
%TD.AperFunction*%
%TA.AperFunction,Conductor*%
G36*
X65020000Y-20328872D02*
G01*
X65216317Y-20276269D01*
X65216326Y-20276265D01*
X65422483Y-20180133D01*
X65531306Y-20103933D01*
X65597512Y-20081605D01*
X65665280Y-20098614D01*
X65690112Y-20117826D01*
X65840693Y-20268407D01*
X65874178Y-20329730D01*
X65877012Y-20356088D01*
X65877012Y-21406992D01*
X65857327Y-21474031D01*
X65804523Y-21519786D01*
X65735365Y-21529730D01*
X65671809Y-21500705D01*
X65665331Y-21494673D01*
X64556319Y-20385661D01*
X64522834Y-20324338D01*
X64520000Y-20297980D01*
X64520000Y-19365686D01*
X64531955Y-19377641D01*
X64644852Y-19435165D01*
X64738519Y-19450000D01*
X64801481Y-19450000D01*
X64895148Y-19435165D01*
X65008045Y-19377641D01*
X65020000Y-19365685D01*
X65020000Y-20328872D01*
G37*
%TD.AperFunction*%
%TA.AperFunction,Conductor*%
G36*
X68647865Y-19593348D02*
G01*
X68692382Y-19644725D01*
X68719429Y-19702728D01*
X68719432Y-19702734D01*
X68849954Y-19889141D01*
X69010858Y-20050045D01*
X69044350Y-20073496D01*
X69197266Y-20180568D01*
X69403504Y-20276739D01*
X69473578Y-20295515D01*
X69533238Y-20331879D01*
X69563768Y-20394726D01*
X69555474Y-20464102D01*
X69537624Y-20493605D01*
X69509685Y-20527902D01*
X69509683Y-20527905D01*
X69432309Y-20681967D01*
X69392551Y-20849727D01*
X69392551Y-20976855D01*
X69372866Y-21043894D01*
X69320062Y-21089649D01*
X69254158Y-21100017D01*
X69249623Y-21099487D01*
X69194013Y-21099487D01*
X69126974Y-21079802D01*
X69081219Y-21026998D01*
X69070013Y-20975487D01*
X69070013Y-20920438D01*
X69030254Y-20752678D01*
X68952879Y-20598615D01*
X68888755Y-20519897D01*
X68888749Y-20519891D01*
X68412672Y-20043815D01*
X68412654Y-20043799D01*
X68367745Y-20007215D01*
X68328201Y-19949613D01*
X68326077Y-19879775D01*
X68344486Y-19839954D01*
X68350514Y-19831345D01*
X68440568Y-19702734D01*
X68467618Y-19644724D01*
X68513790Y-19592285D01*
X68580983Y-19573133D01*
X68647865Y-19593348D01*
G37*
%TD.AperFunction*%
%TA.AperFunction,Conductor*%
G36*
X71187865Y-19593348D02*
G01*
X71232382Y-19644725D01*
X71259429Y-19702728D01*
X71259432Y-19702734D01*
X71389954Y-19889141D01*
X71550858Y-20050045D01*
X71584350Y-20073496D01*
X71737266Y-20180568D01*
X71943504Y-20276739D01*
X72013578Y-20295515D01*
X72073238Y-20331879D01*
X72103768Y-20394726D01*
X72095474Y-20464102D01*
X72077624Y-20493605D01*
X72049685Y-20527902D01*
X72049683Y-20527905D01*
X71972309Y-20681967D01*
X71932551Y-20849727D01*
X71932551Y-20976855D01*
X71912866Y-21043894D01*
X71860062Y-21089649D01*
X71794158Y-21100017D01*
X71789623Y-21099487D01*
X71734013Y-21099487D01*
X71666974Y-21079802D01*
X71621219Y-21026998D01*
X71610013Y-20975487D01*
X71610013Y-20920438D01*
X71570254Y-20752678D01*
X71492879Y-20598615D01*
X71428755Y-20519897D01*
X71428749Y-20519891D01*
X70952672Y-20043815D01*
X70952654Y-20043799D01*
X70907745Y-20007215D01*
X70868201Y-19949613D01*
X70866077Y-19879775D01*
X70884486Y-19839954D01*
X70890514Y-19831345D01*
X70980568Y-19702734D01*
X71007618Y-19644724D01*
X71053790Y-19592285D01*
X71120983Y-19573133D01*
X71187865Y-19593348D01*
G37*
%TD.AperFunction*%
%TA.AperFunction,Conductor*%
G36*
X73727865Y-19593348D02*
G01*
X73772382Y-19644725D01*
X73799429Y-19702728D01*
X73799432Y-19702734D01*
X73929954Y-19889141D01*
X74090858Y-20050045D01*
X74124350Y-20073496D01*
X74277266Y-20180568D01*
X74483504Y-20276739D01*
X74553578Y-20295515D01*
X74613238Y-20331879D01*
X74643768Y-20394726D01*
X74635474Y-20464102D01*
X74617624Y-20493605D01*
X74589685Y-20527902D01*
X74589683Y-20527905D01*
X74512309Y-20681967D01*
X74472551Y-20849727D01*
X74472551Y-20976855D01*
X74452866Y-21043894D01*
X74400062Y-21089649D01*
X74334158Y-21100017D01*
X74329623Y-21099487D01*
X74274013Y-21099487D01*
X74206974Y-21079802D01*
X74161219Y-21026998D01*
X74150013Y-20975487D01*
X74150013Y-20920438D01*
X74110254Y-20752678D01*
X74032879Y-20598615D01*
X73968755Y-20519897D01*
X73968749Y-20519891D01*
X73492672Y-20043815D01*
X73492654Y-20043799D01*
X73447745Y-20007215D01*
X73408201Y-19949613D01*
X73406077Y-19879775D01*
X73424486Y-19839954D01*
X73430514Y-19831345D01*
X73520568Y-19702734D01*
X73547618Y-19644724D01*
X73593790Y-19592285D01*
X73660983Y-19573133D01*
X73727865Y-19593348D01*
G37*
%TD.AperFunction*%
%TA.AperFunction,Conductor*%
G36*
X65282539Y-17330185D02*
G01*
X65328294Y-17382989D01*
X65339500Y-17434500D01*
X65339500Y-17695137D01*
X65319815Y-17762176D01*
X65267011Y-17807931D01*
X65197853Y-17817875D01*
X65183406Y-17814912D01*
X65020000Y-17771126D01*
X65020000Y-18734314D01*
X65008045Y-18722359D01*
X64895148Y-18664835D01*
X64801481Y-18650000D01*
X64738519Y-18650000D01*
X64644852Y-18664835D01*
X64531955Y-18722359D01*
X64519999Y-18734314D01*
X64520000Y-17771127D01*
X64323671Y-17823734D01*
X64117517Y-17919865D01*
X63931179Y-18050342D01*
X63770342Y-18211179D01*
X63639865Y-18397517D01*
X63543734Y-18603673D01*
X63543730Y-18603682D01*
X63491127Y-18799999D01*
X63491128Y-18800000D01*
X64454314Y-18800000D01*
X64442359Y-18811955D01*
X64384835Y-18924852D01*
X64365014Y-19050000D01*
X64384835Y-19175148D01*
X64442359Y-19288045D01*
X64454314Y-19300000D01*
X63522019Y-19300000D01*
X63454980Y-19280315D01*
X63434338Y-19263681D01*
X62966819Y-18796162D01*
X62933334Y-18734839D01*
X62930500Y-18708481D01*
X62930500Y-17434500D01*
X62950185Y-17367461D01*
X63002989Y-17321706D01*
X63054500Y-17310500D01*
X65215500Y-17310500D01*
X65282539Y-17330185D01*
G37*
%TD.AperFunction*%
%TA.AperFunction,Conductor*%
G36*
X96132540Y-17330185D02*
G01*
X96178295Y-17382989D01*
X96189501Y-17434500D01*
X96189501Y-17657876D01*
X96195908Y-17717483D01*
X96246202Y-17852328D01*
X96246203Y-17852330D01*
X96252319Y-17860500D01*
X96266210Y-17879056D01*
X96266212Y-17879058D01*
X96290629Y-17944522D01*
X96275778Y-18012795D01*
X96226373Y-18062201D01*
X96158100Y-18077053D01*
X96093613Y-18053001D01*
X96093574Y-18053058D01*
X96093357Y-18052906D01*
X96092635Y-18052637D01*
X96090083Y-18050613D01*
X95902734Y-17919432D01*
X95902732Y-17919431D01*
X95696497Y-17823261D01*
X95696488Y-17823258D01*
X95476697Y-17764366D01*
X95476693Y-17764365D01*
X95476692Y-17764365D01*
X95476691Y-17764364D01*
X95476686Y-17764364D01*
X95250002Y-17744532D01*
X95249998Y-17744532D01*
X95023313Y-17764364D01*
X95023302Y-17764366D01*
X94803511Y-17823258D01*
X94803502Y-17823261D01*
X94597267Y-17919431D01*
X94597265Y-17919432D01*
X94410858Y-18049954D01*
X94249954Y-18210858D01*
X94119432Y-18397265D01*
X94119431Y-18397267D01*
X94101313Y-18436123D01*
X94094138Y-18451510D01*
X94092382Y-18455275D01*
X94046209Y-18507714D01*
X93979016Y-18526866D01*
X93912135Y-18506650D01*
X93867618Y-18455275D01*
X93840568Y-18397266D01*
X93727273Y-18235462D01*
X93710045Y-18210858D01*
X93549141Y-18049954D01*
X93362734Y-17919432D01*
X93362732Y-17919431D01*
X93156497Y-17823261D01*
X93156488Y-17823258D01*
X92936697Y-17764366D01*
X92936693Y-17764365D01*
X92936692Y-17764365D01*
X92936691Y-17764364D01*
X92936686Y-17764364D01*
X92710002Y-17744532D01*
X92709998Y-17744532D01*
X92483313Y-17764364D01*
X92483302Y-17764366D01*
X92263511Y-17823258D01*
X92263502Y-17823261D01*
X92057267Y-17919431D01*
X92057265Y-17919432D01*
X91870858Y-18049954D01*
X91709954Y-18210858D01*
X91579432Y-18397265D01*
X91579431Y-18397267D01*
X91561313Y-18436123D01*
X91554138Y-18451510D01*
X91552382Y-18455275D01*
X91506209Y-18507714D01*
X91439016Y-18526866D01*
X91372135Y-18506650D01*
X91327618Y-18455275D01*
X91300568Y-18397266D01*
X91187273Y-18235462D01*
X91170045Y-18210858D01*
X91009141Y-18049954D01*
X90822734Y-17919432D01*
X90822732Y-17919431D01*
X90616497Y-17823261D01*
X90616488Y-17823258D01*
X90396697Y-17764366D01*
X90396693Y-17764365D01*
X90396692Y-17764365D01*
X90396691Y-17764364D01*
X90396686Y-17764364D01*
X90170002Y-17744532D01*
X90169998Y-17744532D01*
X89943313Y-17764364D01*
X89943302Y-17764366D01*
X89723511Y-17823258D01*
X89723502Y-17823261D01*
X89517267Y-17919431D01*
X89517265Y-17919432D01*
X89330858Y-18049954D01*
X89169954Y-18210858D01*
X89039433Y-18397264D01*
X89039432Y-18397266D01*
X89014138Y-18451510D01*
X89012106Y-18455867D01*
X88965933Y-18508306D01*
X88898739Y-18527457D01*
X88831858Y-18507241D01*
X88787342Y-18455865D01*
X88760135Y-18397520D01*
X88760134Y-18397518D01*
X88629657Y-18211179D01*
X88468820Y-18050342D01*
X88282482Y-17919865D01*
X88076328Y-17823734D01*
X87879999Y-17771127D01*
X87879999Y-18734313D01*
X87868045Y-18722359D01*
X87755148Y-18664835D01*
X87661481Y-18650000D01*
X87598519Y-18650000D01*
X87504852Y-18664835D01*
X87391955Y-18722359D01*
X87379999Y-18734314D01*
X87380000Y-17771127D01*
X87379999Y-17771126D01*
X87216594Y-17814912D01*
X87146744Y-17813249D01*
X87088881Y-17774087D01*
X87061377Y-17709859D01*
X87060500Y-17695137D01*
X87060500Y-17434500D01*
X87080185Y-17367461D01*
X87132989Y-17321706D01*
X87184500Y-17310500D01*
X96065501Y-17310500D01*
X96132540Y-17330185D01*
G37*
%TD.AperFunction*%
%TA.AperFunction,Conductor*%
G36*
X83062539Y-17330185D02*
G01*
X83108294Y-17382989D01*
X83119500Y-17434500D01*
X83119500Y-17625500D01*
X83099815Y-17692539D01*
X83047011Y-17738294D01*
X82995500Y-17749500D01*
X81702129Y-17749500D01*
X81702123Y-17749501D01*
X81642516Y-17755908D01*
X81507671Y-17806202D01*
X81507664Y-17806206D01*
X81392455Y-17892452D01*
X81392452Y-17892455D01*
X81306206Y-18007664D01*
X81306202Y-18007671D01*
X81255908Y-18142516D01*
X81252137Y-18177596D01*
X81225398Y-18242146D01*
X81168006Y-18281994D01*
X81098180Y-18284487D01*
X81038092Y-18248834D01*
X81027273Y-18235462D01*
X81010045Y-18210858D01*
X80849141Y-18049954D01*
X80662734Y-17919432D01*
X80662732Y-17919431D01*
X80456497Y-17823261D01*
X80456488Y-17823258D01*
X80236697Y-17764366D01*
X80236693Y-17764365D01*
X80236692Y-17764365D01*
X80236691Y-17764364D01*
X80236686Y-17764364D01*
X80010002Y-17744532D01*
X80009998Y-17744532D01*
X79783313Y-17764364D01*
X79783302Y-17764366D01*
X79563511Y-17823258D01*
X79563502Y-17823261D01*
X79357267Y-17919431D01*
X79357265Y-17919432D01*
X79170858Y-18049954D01*
X79009954Y-18210858D01*
X78879432Y-18397265D01*
X78879431Y-18397267D01*
X78861313Y-18436123D01*
X78854138Y-18451510D01*
X78852382Y-18455275D01*
X78806209Y-18507714D01*
X78739016Y-18526866D01*
X78672135Y-18506650D01*
X78627618Y-18455275D01*
X78600568Y-18397266D01*
X78487273Y-18235462D01*
X78470045Y-18210858D01*
X78309141Y-18049954D01*
X78122734Y-17919432D01*
X78122732Y-17919431D01*
X77916497Y-17823261D01*
X77916488Y-17823258D01*
X77696697Y-17764366D01*
X77696693Y-17764365D01*
X77696692Y-17764365D01*
X77696691Y-17764364D01*
X77696686Y-17764364D01*
X77470002Y-17744532D01*
X77469998Y-17744532D01*
X77243313Y-17764364D01*
X77243302Y-17764366D01*
X77023511Y-17823258D01*
X77023502Y-17823261D01*
X76817267Y-17919431D01*
X76817265Y-17919432D01*
X76630858Y-18049954D01*
X76469954Y-18210858D01*
X76339432Y-18397265D01*
X76339431Y-18397267D01*
X76321313Y-18436123D01*
X76314138Y-18451510D01*
X76312382Y-18455275D01*
X76266209Y-18507714D01*
X76199016Y-18526866D01*
X76132135Y-18506650D01*
X76087618Y-18455275D01*
X76060568Y-18397266D01*
X75947273Y-18235462D01*
X75930045Y-18210858D01*
X75769141Y-18049954D01*
X75582734Y-17919432D01*
X75582732Y-17919431D01*
X75376497Y-17823261D01*
X75376488Y-17823258D01*
X75156697Y-17764366D01*
X75156693Y-17764365D01*
X75156692Y-17764365D01*
X75156691Y-17764364D01*
X75156686Y-17764364D01*
X74930002Y-17744532D01*
X74929998Y-17744532D01*
X74703313Y-17764364D01*
X74703302Y-17764366D01*
X74483511Y-17823258D01*
X74483502Y-17823261D01*
X74277267Y-17919431D01*
X74277265Y-17919432D01*
X74090858Y-18049954D01*
X73929954Y-18210858D01*
X73799432Y-18397265D01*
X73799431Y-18397267D01*
X73781313Y-18436123D01*
X73774138Y-18451510D01*
X73772382Y-18455275D01*
X73726209Y-18507714D01*
X73659016Y-18526866D01*
X73592135Y-18506650D01*
X73547618Y-18455275D01*
X73520568Y-18397266D01*
X73407273Y-18235462D01*
X73390045Y-18210858D01*
X73229141Y-18049954D01*
X73042734Y-17919432D01*
X73042732Y-17919431D01*
X72836497Y-17823261D01*
X72836488Y-17823258D01*
X72616697Y-17764366D01*
X72616693Y-17764365D01*
X72616692Y-17764365D01*
X72616691Y-17764364D01*
X72616686Y-17764364D01*
X72390002Y-17744532D01*
X72389998Y-17744532D01*
X72163313Y-17764364D01*
X72163302Y-17764366D01*
X71943511Y-17823258D01*
X71943502Y-17823261D01*
X71737267Y-17919431D01*
X71737265Y-17919432D01*
X71550858Y-18049954D01*
X71389954Y-18210858D01*
X71259432Y-18397265D01*
X71259431Y-18397267D01*
X71241313Y-18436123D01*
X71234138Y-18451510D01*
X71232382Y-18455275D01*
X71186209Y-18507714D01*
X71119016Y-18526866D01*
X71052135Y-18506650D01*
X71007618Y-18455275D01*
X70980568Y-18397266D01*
X70867273Y-18235462D01*
X70850045Y-18210858D01*
X70689141Y-18049954D01*
X70502734Y-17919432D01*
X70502732Y-17919431D01*
X70296497Y-17823261D01*
X70296488Y-17823258D01*
X70076697Y-17764366D01*
X70076693Y-17764365D01*
X70076692Y-17764365D01*
X70076691Y-17764364D01*
X70076686Y-17764364D01*
X69850002Y-17744532D01*
X69849998Y-17744532D01*
X69623313Y-17764364D01*
X69623302Y-17764366D01*
X69403511Y-17823258D01*
X69403502Y-17823261D01*
X69197267Y-17919431D01*
X69197265Y-17919432D01*
X69010858Y-18049954D01*
X68849954Y-18210858D01*
X68719432Y-18397265D01*
X68719431Y-18397267D01*
X68701313Y-18436123D01*
X68694138Y-18451510D01*
X68692382Y-18455275D01*
X68646209Y-18507714D01*
X68579016Y-18526866D01*
X68512135Y-18506650D01*
X68467618Y-18455275D01*
X68440568Y-18397266D01*
X68327273Y-18235462D01*
X68310045Y-18210858D01*
X68149141Y-18049954D01*
X67962734Y-17919432D01*
X67962732Y-17919431D01*
X67756497Y-17823261D01*
X67756488Y-17823258D01*
X67536697Y-17764366D01*
X67536693Y-17764365D01*
X67536692Y-17764365D01*
X67536691Y-17764364D01*
X67536686Y-17764364D01*
X67310002Y-17744532D01*
X67309998Y-17744532D01*
X67083313Y-17764364D01*
X67083302Y-17764366D01*
X66896593Y-17814394D01*
X66826743Y-17812731D01*
X66768881Y-17773568D01*
X66741377Y-17709339D01*
X66740500Y-17694619D01*
X66740500Y-17434500D01*
X66760185Y-17367461D01*
X66812989Y-17321706D01*
X66864500Y-17310500D01*
X68535046Y-17310500D01*
X82995500Y-17310500D01*
X83062539Y-17330185D01*
G37*
%TD.AperFunction*%
%TD*%
M02*
