%TF.GenerationSoftware,KiCad,Pcbnew,8.0.0*%
%TF.CreationDate,2024-09-27T00:56:10-04:00*%
%TF.ProjectId,untitled,756e7469-746c-4656-942e-6b696361645f,rev?*%
%TF.SameCoordinates,Original*%
%TF.FileFunction,Copper,L2,Bot*%
%TF.FilePolarity,Positive*%
%FSLAX46Y46*%
G04 Gerber Fmt 4.6, Leading zero omitted, Abs format (unit mm)*
G04 Created by KiCad (PCBNEW 8.0.0) date 2024-09-27 00:56:10*
%MOMM*%
%LPD*%
G01*
G04 APERTURE LIST*
%TA.AperFunction,ViaPad*%
%ADD10C,1.800010*%
%TD*%
%TA.AperFunction,ViaPad*%
%ADD11C,1.134020*%
%TD*%
%TA.AperFunction,ViaPad*%
%ADD12C,7.180540*%
%TD*%
%TA.AperFunction,ViaPad*%
%ADD13C,1.600010*%
%TD*%
%TA.AperFunction,ViaPad*%
%ADD14C,4.500010*%
%TD*%
%TA.AperFunction,ViaPad*%
%ADD15C,2.200010*%
%TD*%
%TA.AperFunction,ViaPad*%
%ADD16C,2.400010*%
%TD*%
%TA.AperFunction,ViaPad*%
%ADD17C,2.286010*%
%TD*%
%TA.AperFunction,ViaPad*%
%ADD18C,2.540010*%
%TD*%
%TA.AperFunction,ViaPad*%
%ADD19C,2.032010*%
%TD*%
%TA.AperFunction,ViaPad*%
%ADD20C,1.524010*%
%TD*%
%TA.AperFunction,ViaPad*%
%ADD21C,1.498610*%
%TD*%
G04 APERTURE END LIST*
D10*
%TO.N,*%
X68200975Y34940000D03*
X68200975Y26240000D03*
X68327975Y54498000D03*
X68327975Y45798000D03*
D11*
X56598225Y43189310D03*
X61678225Y43189310D03*
D12*
X59138225Y53760790D03*
D11*
X56390055Y22002310D03*
X61470055Y22002310D03*
D12*
X58930055Y32573790D03*
D13*
X49154025Y14207000D03*
X33653925Y14207000D03*
X49281025Y21700000D03*
X33780925Y21700000D03*
X49027025Y35289000D03*
X33526925Y35289000D03*
X33653925Y29066000D03*
X49154025Y29066000D03*
X49122325Y43487990D03*
X33622225Y43487990D03*
X33526925Y52053000D03*
X49027025Y52053000D03*
D10*
X44538335Y66912000D03*
X39539615Y66912000D03*
X27687975Y64252110D03*
X27687975Y49251890D03*
X66811085Y63737000D03*
X51810865Y63737000D03*
D13*
X49408025Y59927000D03*
X33907925Y59927000D03*
D14*
X28513095Y71111890D03*
X28513095Y15972170D03*
D10*
X50039975Y10270000D03*
X52579975Y10270000D03*
D15*
X4446975Y44714000D03*
X4446975Y39714010D03*
X4446975Y34713990D03*
D16*
X19686975Y32214000D03*
X19686975Y37213990D03*
X19686975Y42214010D03*
D17*
X30757235Y40623000D03*
D18*
X56389975Y25256000D03*
X56390055Y22002310D03*
D19*
X56598225Y45530250D03*
X56598225Y43189310D03*
X56598225Y40668750D03*
X49122325Y43487990D03*
X56299555Y43487990D03*
X56598225Y43189310D03*
D18*
X49027025Y52053000D03*
X49027025Y43583290D03*
D19*
X49408025Y59927000D03*
X51810865Y61088160D03*
X51810865Y63737000D03*
X51810865Y62329840D03*
X44538335Y66912000D03*
X48635865Y66912000D03*
X27687975Y64252110D03*
X36879725Y64252110D03*
D20*
X39539615Y58065690D03*
D17*
X27687975Y49251890D03*
X38732915Y49251890D03*
D20*
X61723975Y21748390D03*
D19*
X68327975Y54498000D03*
X59875435Y54498000D03*
X39539615Y66912000D03*
X44873615Y72246000D03*
X58302085Y72246000D03*
D21*
X33653925Y21827000D03*
D18*
X49154025Y29066000D03*
X49154025Y35162000D03*
X49154025Y29066000D03*
X52964025Y25256000D03*
D17*
X68200975Y34940000D03*
X61296265Y34940000D03*
X60072975Y34273000D03*
X61678225Y35878250D03*
X61678225Y43189310D03*
X65719295Y43189310D03*
D18*
X49281025Y21700000D03*
X49281025Y19410950D03*
X53341975Y15350000D03*
X58409845Y15350000D03*
D19*
X61723975Y22639570D03*
D18*
X65324405Y26240000D03*
X61723975Y22639570D03*
X61470055Y18410210D03*
D19*
X61596975Y25256000D03*
D18*
X33653925Y14207000D03*
X51769845Y39734000D03*
X42546975Y23100050D03*
X42546975Y34527000D03*
X47753975Y39734000D03*
X49154025Y14207000D03*
X52579975Y10781050D03*
X19686975Y42341010D03*
X21016965Y42341010D03*
D17*
X4446975Y44841000D03*
X19532975Y59927000D03*
X33653925Y25950930D03*
D21*
X33653925Y29066000D03*
X33653925Y25950930D03*
D17*
X19686975Y37340990D03*
X21738965Y35289000D03*
D18*
X22734975Y40623000D03*
D17*
X33332855Y26272000D03*
X20575975Y26272000D03*
X7133965Y39714010D03*
X4446975Y34713990D03*
X19813975Y19346990D03*
X19813975Y16239000D03*
X43947025Y9000000D03*
X27052975Y9000000D03*
X25244355Y55578380D03*
X7133965Y39714010D03*
D20*
X33526925Y52053000D03*
X37052315Y55578380D03*
D17*
X9379985Y39714010D03*
D18*
X61596975Y22129230D03*
X61596975Y25891000D03*
X61596975Y25256000D03*
%TD*%
M02*
