%TF.GenerationSoftware,KiCad,Pcbnew,7.0.5*%
%TF.CreationDate,2024-11-04T15:17:59-05:00*%
%TF.ProjectId,93c46a_cnc,39336334-3661-45f6-936e-632e6b696361,rev?*%
%TF.SameCoordinates,Original*%
%TF.FileFunction,Copper,L2,Bot*%
%TF.FilePolarity,Positive*%
%FSLAX46Y46*%
G04 Gerber Fmt 4.6, Leading zero omitted, Abs format (unit mm)*
G04 Created by KiCad (PCBNEW 7.0.5) date 2024-11-04 15:17:59*
%MOMM*%
%LPD*%
G01*
G04 APERTURE LIST*
G04 Aperture macros list*
%AMHorizOval*
0 Thick line with rounded ends*
0 $1 width*
0 $2 $3 position (X,Y) of the first rounded end (center of the circle)*
0 $4 $5 position (X,Y) of the second rounded end (center of the circle)*
0 Add line between two ends*
20,1,$1,$2,$3,$4,$5,0*
0 Add two circle primitives to create the rounded ends*
1,1,$1,$2,$3*
1,1,$1,$4,$5*%
G04 Aperture macros list end*
%TA.AperFunction,NonConductor*%
%ADD10C,1.500000*%
%TD*%
%TA.AperFunction,NonConductor*%
%ADD11C,1.000000*%
%TD*%
%TA.AperFunction,ComponentPad*%
%ADD12C,1.600000*%
%TD*%
%TA.AperFunction,ComponentPad*%
%ADD13R,1.800000X1.800000*%
%TD*%
%TA.AperFunction,ComponentPad*%
%ADD14C,1.800000*%
%TD*%
%TA.AperFunction,ComponentPad*%
%ADD15C,1.400000*%
%TD*%
%TA.AperFunction,ComponentPad*%
%ADD16O,1.400000X1.400000*%
%TD*%
%TA.AperFunction,ComponentPad*%
%ADD17R,1.600000X1.600000*%
%TD*%
%TA.AperFunction,ComponentPad*%
%ADD18O,1.600000X1.600000*%
%TD*%
%TA.AperFunction,ComponentPad*%
%ADD19HorizOval,1.400000X0.000000X0.000000X0.000000X0.000000X0*%
%TD*%
%TA.AperFunction,ViaPad*%
%ADD20C,1.250000*%
%TD*%
%TA.AperFunction,ViaPad*%
%ADD21C,1.600000*%
%TD*%
%TA.AperFunction,Conductor*%
%ADD22C,1.500000*%
%TD*%
%TA.AperFunction,Conductor*%
%ADD23C,1.000000*%
%TD*%
G04 APERTURE END LIST*
D10*
X48923218Y-13907445D02*
X50828218Y-15812445D01*
X50828218Y-13327652D02*
X50828218Y-20892445D01*
X45748218Y-13327652D02*
X50828218Y-13327652D01*
X13363218Y-15885176D02*
X15340949Y-13907445D01*
X13363218Y-13327652D02*
X13363218Y-18442700D01*
X18589688Y-13327652D02*
X13363218Y-13327652D01*
X15903218Y-48832445D02*
X13998218Y-46927445D01*
X19713218Y-48832445D02*
X15903218Y-48832445D01*
X13363218Y-48832445D02*
X19713218Y-48832445D01*
X13363218Y-43752445D02*
X13363218Y-48832445D01*
X50828218Y-46927445D02*
X48923218Y-48832445D01*
X50828218Y-42482445D02*
X50828218Y-46927445D01*
X50828218Y-48832445D02*
X50828218Y-42482445D01*
X45748218Y-48832445D02*
X50828218Y-48832445D01*
X45755236Y-46312465D02*
G75*
G03*
X48295236Y-43772465I0J2540000D01*
G01*
X18589688Y-13327652D02*
X45748218Y-13327652D01*
X13363218Y-43752445D02*
X13363218Y-18442700D01*
X18538255Y-13346904D02*
G75*
G03*
X13368000Y-18517159I0J-5170255D01*
G01*
X18443218Y-48832445D02*
X45748218Y-48832445D01*
X13363218Y-43752445D02*
G75*
G03*
X18443218Y-48832445I5080000J0D01*
G01*
X50828218Y-18352445D02*
X50828218Y-43752445D01*
X45748218Y-48832445D02*
G75*
G03*
X50828218Y-43752445I0J5080000D01*
G01*
X50800000Y-18415000D02*
G75*
G03*
X45720000Y-13335000I-5080000J0D01*
G01*
X36292397Y-46292445D02*
X40033218Y-46292445D01*
X36292397Y-41212445D02*
X36292397Y-46292445D01*
X33683218Y-46292445D02*
X31143218Y-46292445D01*
X33683218Y-41212445D02*
X33683218Y-46292445D01*
X36299787Y-43752445D02*
X36299787Y-41212445D01*
X36299787Y-43752445D02*
G75*
G03*
X38763218Y-46215876I2463431J0D01*
G01*
X45748218Y-46292445D02*
X38763218Y-46292445D01*
X36292397Y-41212445D02*
G75*
G03*
X41303218Y-46223266I5010821J0D01*
G01*
X47653218Y-43752445D02*
X45748218Y-45657445D01*
X41575258Y-46215876D02*
G75*
G03*
X46578689Y-41212445I0J5003431D01*
G01*
X47018218Y-43117445D02*
X47018218Y-45657445D01*
X48289821Y-18352445D02*
X48289821Y-43752445D01*
X48289821Y-18352445D02*
G75*
G03*
X45748218Y-15810842I-2541603J0D01*
G01*
X18443218Y-15810842D02*
X45748218Y-15810842D01*
X18443218Y-15810842D02*
G75*
G03*
X15901615Y-18352445I0J-2541603D01*
G01*
X15903218Y-23432445D02*
X15903218Y-18442700D01*
X33683218Y-43752445D02*
X33683218Y-41212445D01*
X30508218Y-46292445D02*
X31143218Y-46292445D01*
X28603218Y-46292445D02*
X30508218Y-46292445D01*
X31143218Y-46292445D02*
G75*
G03*
X33683218Y-43752445I0J2540000D01*
G01*
X15903218Y-43752445D02*
X15903218Y-38672445D01*
X18443218Y-46292445D02*
X28603218Y-46292445D01*
X26063218Y-43752445D02*
G75*
G03*
X28603218Y-46292445I2540000J0D01*
G01*
X23523218Y-46292445D02*
G75*
G03*
X26063218Y-43752445I0J2540000D01*
G01*
X15903218Y-43752445D02*
G75*
G03*
X18443218Y-46292445I2540000J0D01*
G01*
X18443218Y-38672445D02*
X18443218Y-41212445D01*
X18443218Y-36128693D02*
G75*
G03*
X15899466Y-38672445I0J-2543752D01*
G01*
X15903218Y-33592445D02*
G75*
G03*
X18439468Y-36128695I2536250J0D01*
G01*
X20983218Y-38672445D02*
G75*
G03*
X18443218Y-36132445I-2540000J0D01*
G01*
X28603218Y-28512446D02*
G75*
G03*
X26807167Y-29256394I0J-2539999D01*
G01*
X24267167Y-31796394D02*
G75*
G03*
X23523218Y-33592445I1796051J-1796051D01*
G01*
D11*
X47095256Y-43194483D02*
X46383218Y-43194483D01*
X47095256Y-43194483D02*
G75*
G03*
X47653218Y-41847445I-1347038J1347038D01*
G01*
X47018218Y-27242445D02*
X47018218Y-43117445D01*
X46383218Y-43117445D02*
X46383218Y-38037445D01*
X47653218Y-31687445D02*
X47653218Y-41847445D01*
D10*
X38763218Y-38672445D02*
G75*
G03*
X36223218Y-36132445I-2540000J0D01*
G01*
X18443218Y-23432445D02*
X15903218Y-23432445D01*
X15903218Y-20892445D02*
G75*
G03*
X18443218Y-23432445I2540000J0D01*
G01*
X15903218Y-25972445D02*
X15903218Y-28512445D01*
X18443218Y-25972445D02*
X15903218Y-25972445D01*
D11*
X19713218Y-18352445D02*
X22253218Y-15812445D01*
X18443218Y-18352445D02*
X20983218Y-15812445D01*
X19713218Y-18442700D02*
X18443218Y-18442700D01*
X19713218Y-18442700D02*
G75*
G03*
X20675064Y-18044291I0J1360255D01*
G01*
X26063218Y-15812445D02*
G75*
G03*
X20675064Y-18044291I0J-7620000D01*
G01*
X18443218Y-18352445D02*
X17391116Y-17300343D01*
D10*
X18443218Y-18352445D02*
G75*
G03*
X15903218Y-20892445I0J-2540000D01*
G01*
D11*
X15903218Y-20892445D02*
X15903218Y-23432445D01*
X20983218Y-15812445D02*
G75*
G03*
X15903218Y-20892445I0J-5080000D01*
G01*
D10*
X26825790Y-29168379D02*
X24285790Y-31708379D01*
D11*
X28603218Y-28512445D02*
X26063218Y-31052445D01*
X26063218Y-31052445D02*
G75*
G03*
X28603218Y-28512445I0J2540000D01*
G01*
D10*
X28603218Y-31052445D02*
X28603218Y-28512445D01*
D11*
X41303218Y-28512445D02*
X41303218Y-31052445D01*
D10*
X38763218Y-28512445D02*
X43843218Y-28512445D01*
X41303218Y-31052445D02*
G75*
G03*
X38763218Y-28512445I-2540000J0D01*
G01*
X43843218Y-28512445D02*
G75*
G03*
X41303218Y-31052445I0J-2540000D01*
G01*
X15903218Y-28512445D02*
X15903218Y-38672445D01*
X18443218Y-25972445D02*
G75*
G03*
X15903218Y-28512445I0J-2540000D01*
G01*
X38763218Y-41212445D02*
G75*
G03*
X41303218Y-43752445I2540000J0D01*
G01*
X41303218Y-43752445D02*
G75*
G03*
X43843218Y-41212445I0J2540000D01*
G01*
D11*
X46383218Y-31052445D02*
X46383218Y-38672445D01*
X28603218Y-17082445D02*
X31143218Y-17082445D01*
X29873218Y-18352445D02*
X28603218Y-17082445D01*
X29873218Y-15812445D02*
X29873218Y-18352445D01*
X31143218Y-15812445D02*
X29873218Y-15812445D01*
X28603218Y-18352445D02*
X31143218Y-15812445D01*
X31143218Y-18352445D02*
X28603218Y-15812445D01*
X31143218Y-18352445D02*
X31143218Y-15812445D01*
X28603218Y-18352445D02*
X28603218Y-15812445D01*
X43843218Y-25972445D02*
X46537295Y-25972445D01*
X46537295Y-24856522D02*
X46537295Y-27242445D01*
X47018218Y-31052445D02*
X47018218Y-24702445D01*
X46383218Y-31052445D02*
X47653218Y-31052445D01*
X43843218Y-25972445D02*
G75*
G03*
X47653218Y-22162445I0J3810000D01*
G01*
X47653218Y-18352445D02*
X47653218Y-31052445D01*
X47653218Y-18352445D02*
G75*
G03*
X45113218Y-15812445I-2540000J0D01*
G01*
X31143218Y-15812445D02*
X45113218Y-15812445D01*
D10*
X33683218Y-15812445D02*
G75*
G03*
X31143218Y-18352445I0J-2540000D01*
G01*
X28603218Y-18352445D02*
G75*
G03*
X26063218Y-15812445I-2540000J0D01*
G01*
D11*
X20983218Y-15812445D02*
X31143218Y-15812445D01*
X20983218Y-15812445D02*
G75*
G03*
X18443218Y-18352445I0J-2540000D01*
G01*
D10*
X18439468Y-29707126D02*
X18439468Y-33592445D01*
X18443218Y-41212445D02*
X26063218Y-41212445D01*
X18443218Y-38672445D02*
G75*
G03*
X20983218Y-41212445I2540000J0D01*
G01*
X20623365Y-26920539D02*
G75*
G03*
X20979468Y-26060832I-859703J859707D01*
G01*
X18811442Y-28809100D02*
G75*
G03*
X18439468Y-29707126I898029J-898026D01*
G01*
X18811442Y-28809100D02*
X20661684Y-26958858D01*
X20983218Y-23432445D02*
X20983218Y-25972445D01*
X26063218Y-18352445D02*
G75*
G03*
X20983218Y-23432445I0J-5080000D01*
G01*
X23523218Y-23432445D02*
X23523218Y-27406151D01*
X26063218Y-20892445D02*
G75*
G03*
X23523218Y-23432445I0J-2540000D01*
G01*
X36223218Y-28512445D02*
X36223218Y-31052445D01*
X31143218Y-25972445D02*
X33683218Y-25972445D01*
X36223218Y-28512445D02*
G75*
G03*
X33683218Y-25972445I-2540000J0D01*
G01*
D11*
X46383218Y-31052445D02*
X46383218Y-28512445D01*
X46383218Y-28512445D02*
G75*
G03*
X43843218Y-25972445I-2540000J0D01*
G01*
D10*
X31143218Y-20892445D02*
X33130071Y-20892445D01*
X38763218Y-23432445D02*
X36776365Y-23432445D01*
X33981905Y-21247015D02*
G75*
G03*
X33122198Y-20890912I-859707J-859703D01*
G01*
X35870466Y-23058938D02*
G75*
G03*
X36768492Y-23430912I898026J898029D01*
G01*
X35870466Y-23058938D02*
X34020224Y-21208696D01*
D11*
X28603218Y-31052445D02*
X26063218Y-31052445D01*
X26063218Y-31052445D02*
G75*
G03*
X23523218Y-33592445I0J-2540000D01*
G01*
D10*
X26063218Y-41212445D02*
G75*
G03*
X28603218Y-38672445I0J2540000D01*
G01*
X41303218Y-33592445D02*
X38763218Y-33592445D01*
X41303218Y-33592445D02*
G75*
G03*
X43843218Y-31052445I0J2540000D01*
G01*
X36223218Y-31052445D02*
G75*
G03*
X38763218Y-33592445I2540000J0D01*
G01*
X28603218Y-33592445D02*
G75*
G03*
X31143218Y-31052445I0J2540000D01*
G01*
X20983218Y-33592445D02*
G75*
G03*
X23523218Y-36132445I2540000J0D01*
G01*
X36223218Y-36132445D02*
X23523218Y-36132445D01*
X20983218Y-31052445D02*
X20983218Y-33592445D01*
X21355192Y-30072566D02*
X23205434Y-28222324D01*
X23167115Y-28265858D02*
G75*
G03*
X23523218Y-27406151I-859706J859708D01*
G01*
X21355192Y-30005427D02*
G75*
G03*
X20983218Y-30903453I898025J-898025D01*
G01*
D12*
%TO.P,SW1,1,A*%
%TO.N,VCC*%
X26103218Y-43752445D03*
%TO.P,SW1,2,B*%
%TO.N,/initiate_read*%
X31103218Y-43752445D03*
%TD*%
D13*
%TO.P,D1,1,K*%
%TO.N,GND*%
X18443218Y-41207445D03*
D14*
%TO.P,D1,2,A*%
%TO.N,Net-(D1-A)*%
X18443218Y-43747445D03*
%TD*%
D15*
%TO.P,r8,1*%
%TO.N,VCC*%
X20983218Y-38672445D03*
D16*
%TO.P,r8,2*%
%TO.N,Net-(D1-A)*%
X20983218Y-43752445D03*
%TD*%
D15*
%TO.P,r5,1*%
%TO.N,GND*%
X18443218Y-38672445D03*
D16*
%TO.P,r5,2*%
%TO.N,/rom_sdo*%
X18443218Y-33592445D03*
%TD*%
D15*
%TO.P,r4,1*%
%TO.N,VCC*%
X23523218Y-33592445D03*
D16*
%TO.P,r4,2*%
%TO.N,Net-(r2-Pad1)*%
X23523218Y-38672445D03*
%TD*%
D17*
%TO.P,U2,1,A*%
%TO.N,GND*%
X28603218Y-38672445D03*
D18*
%TO.P,U2,2,B*%
%TO.N,/initiate_read*%
X31143218Y-38672445D03*
%TO.P,U2,3,Clr*%
%TO.N,VCC*%
X33683218Y-38672445D03*
%TO.P,U2,4,~{Q}*%
%TO.N,unconnected-(U2A-~{Q}-Pad4)*%
X36223218Y-38672445D03*
%TO.P,U2,5,Q*%
%TO.N,/rom_sdi*%
X38763218Y-38672445D03*
%TO.P,U2,6,Cext*%
%TO.N,Net-(U2B-Cext)*%
X41303218Y-38672445D03*
%TO.P,U2,7,RCext*%
%TO.N,Net-(U2B-RCext)*%
X43843218Y-38672445D03*
%TO.P,U2,8,GND*%
%TO.N,GND*%
X46383218Y-38672445D03*
%TO.P,U2,9,A*%
X46383218Y-31052445D03*
%TO.P,U2,10,B*%
%TO.N,/rom_cs*%
X43843218Y-31052445D03*
%TO.P,U2,11,Clr*%
%TO.N,VCC*%
X41303218Y-31052445D03*
%TO.P,U2,12,~{Q}*%
%TO.N,unconnected-(U2B-~{Q}-Pad12)*%
X38763218Y-31052445D03*
%TO.P,U2,13,Q*%
%TO.N,/rom_cs*%
X36223218Y-31052445D03*
%TO.P,U2,14,Cext*%
%TO.N,Net-(U2A-Cext)*%
X33683218Y-31052445D03*
%TO.P,U2,15,RCext*%
%TO.N,Net-(U2A-RCext)*%
X31143218Y-31052445D03*
%TO.P,U2,16,VCC*%
%TO.N,VCC*%
X28603218Y-31052445D03*
%TD*%
D16*
%TO.P,r3,2*%
%TO.N,Net-(U2B-RCext)*%
X38763218Y-41212445D03*
D15*
%TO.P,r3,1*%
%TO.N,VCC*%
X33683218Y-41212445D03*
%TD*%
%TO.P,r2,1*%
%TO.N,Net-(r2-Pad1)*%
X26063218Y-38672445D03*
D16*
%TO.P,r2,2*%
%TO.N,Net-(U2A-RCext)*%
X26063218Y-33592445D03*
%TD*%
D12*
%TO.P,C4,1*%
%TO.N,Net-(U2B-RCext)*%
X43803218Y-41212445D03*
%TO.P,C4,2*%
%TO.N,Net-(U2B-Cext)*%
X41303218Y-41212445D03*
%TD*%
%TO.P,C1,1*%
%TO.N,Net-(U2A-RCext)*%
X31143218Y-28512445D03*
%TO.P,C1,2*%
%TO.N,Net-(U2A-Cext)*%
X33643218Y-28512445D03*
%TD*%
D17*
%TO.P,U4,1,GND*%
%TO.N,GND*%
X31143218Y-18352445D03*
D18*
%TO.P,U4,2,TR*%
%TO.N,Net-(U4-THR)*%
X31143218Y-20892445D03*
%TO.P,U4,3,Q*%
%TO.N,/rom_scl*%
X31143218Y-23432445D03*
%TO.P,U4,4,R*%
%TO.N,/rom_cs*%
X31143218Y-25972445D03*
%TO.P,U4,5,CV*%
%TO.N,Net-(U4-CV)*%
X38763218Y-25972445D03*
%TO.P,U4,6,THR*%
%TO.N,Net-(U4-THR)*%
X38763218Y-23432445D03*
%TO.P,U4,7,DIS*%
%TO.N,Net-(U4-DIS)*%
X38763218Y-20892445D03*
%TO.P,U4,8,VCC*%
%TO.N,VCC*%
X38763218Y-18352445D03*
%TD*%
D15*
%TO.P,r7,1*%
%TO.N,Net-(U4-THR)*%
X41303218Y-23432445D03*
D19*
%TO.P,r7,2*%
%TO.N,Net-(U4-DIS)*%
X45702627Y-20892445D03*
%TD*%
D15*
%TO.P,r6,1*%
%TO.N,Net-(U4-DIS)*%
X41303218Y-20892445D03*
D19*
%TO.P,r6,2*%
%TO.N,VCC*%
X45702627Y-18352445D03*
%TD*%
D15*
%TO.P,r1,1*%
%TO.N,GND*%
X26063218Y-41212445D03*
D16*
%TO.P,r1,2*%
%TO.N,/initiate_read*%
X31143218Y-41212445D03*
%TD*%
D12*
%TO.P,C6,1*%
%TO.N,Net-(U4-THR)*%
X28603218Y-20852445D03*
%TO.P,C6,2*%
%TO.N,GND*%
X28603218Y-18352445D03*
%TD*%
%TO.P,C5,1*%
%TO.N,Net-(U4-CV)*%
X41303218Y-25972445D03*
%TO.P,C5,2*%
%TO.N,GND*%
X43803218Y-25972445D03*
%TD*%
D17*
%TO.P,U1,1,CS*%
%TO.N,/rom_cs*%
X26063218Y-25972445D03*
D18*
%TO.P,U1,2,SCLK*%
%TO.N,/rom_scl*%
X26063218Y-23432445D03*
%TO.P,U1,3,DI*%
%TO.N,/rom_sdi*%
X26063218Y-20892445D03*
%TO.P,U1,4,DO*%
%TO.N,/rom_sdo*%
X26063218Y-18352445D03*
%TO.P,U1,5,GND*%
%TO.N,GND*%
X18443218Y-18352445D03*
%TO.P,U1,6,NC*%
%TO.N,unconnected-(U1-NC-Pad6)*%
X18443218Y-20892445D03*
%TO.P,U1,7,NC*%
%TO.N,unconnected-(U1-NC-Pad7)*%
X18443218Y-23432445D03*
%TO.P,U1,8,VCC*%
%TO.N,VCC*%
X18443218Y-25972445D03*
%TD*%
D20*
%TO.N,VCC*%
X18443218Y-30417445D03*
D21*
%TO.N,*%
X13998218Y-13907445D03*
X13998218Y-48197445D03*
X50193218Y-48197445D03*
X50193218Y-13907445D03*
D20*
%TO.N,VCC*%
X15903218Y-23432445D03*
X15903218Y-25972445D03*
X15903218Y-28512445D03*
X28603218Y-28512445D03*
X38763218Y-28512445D03*
X41303218Y-18352445D03*
%TD*%
D22*
%TO.N,/initiate_read*%
X31143218Y-43712445D02*
X31103218Y-43752445D01*
X31143218Y-38672445D02*
X31143218Y-43712445D01*
D23*
%TO.N,Net-(D1-A)*%
X18448218Y-43752445D02*
X18443218Y-43747445D01*
D22*
X20983218Y-43752445D02*
X18448218Y-43752445D01*
%TO.N,VCC*%
X41303218Y-18352445D02*
X38763218Y-18352445D01*
X33683218Y-38672445D02*
X33683218Y-41212445D01*
X45702627Y-18352445D02*
X41303218Y-18352445D01*
%TO.N,Net-(U2A-RCext)*%
X28603218Y-33592445D02*
X26063218Y-33592445D01*
X31143218Y-28512445D02*
X31143218Y-31052445D01*
%TO.N,Net-(U4-CV)*%
X38763218Y-25972445D02*
X41303218Y-25972445D01*
D23*
%TO.N,Net-(U2B-RCext)*%
X43843218Y-41172445D02*
X43803218Y-41212445D01*
D22*
X43843218Y-38672445D02*
X43843218Y-41172445D01*
%TO.N,Net-(U2B-Cext)*%
X41303218Y-38672445D02*
X41303218Y-41212445D01*
%TO.N,Net-(r2-Pad1)*%
X23523218Y-38672445D02*
X26063218Y-38672445D01*
D23*
%TO.N,Net-(U2A-Cext)*%
X33643218Y-31012445D02*
X33683218Y-31052445D01*
D22*
X33643218Y-28512445D02*
X33643218Y-31012445D01*
%TO.N,/rom_cs*%
X26063218Y-25972445D02*
X31143218Y-25972445D01*
%TO.N,/rom_scl*%
X31143218Y-23432445D02*
X26063218Y-23432445D01*
%TO.N,Net-(U4-DIS)*%
X41303218Y-20892445D02*
X45702627Y-20892445D01*
X41303218Y-20892445D02*
X38763218Y-20892445D01*
%TO.N,Net-(U4-THR)*%
X38763218Y-23432445D02*
X41303218Y-23432445D01*
X31143218Y-20892445D02*
X28643218Y-20892445D01*
D23*
X28643218Y-20892445D02*
X28603218Y-20852445D01*
D22*
%TO.N,GND*%
X31143218Y-18352445D02*
X28603218Y-18352445D01*
%TD*%
M02*
