M48
; DRILL file {KiCad 7.0.5} date Mon Nov  4 15:18:01 2024
; FORMAT={-:-/ absolute / inch / decimal}
; #@! TF.CreationDate,2024-11-04T15:18:01-05:00
; #@! TF.GenerationSoftware,Kicad,Pcbnew,7.0.5
; #@! TF.FileFunction,Plated,1,2,PTH
FMAT,2
INCH
; #@! TA.AperFunction,Plated,PTH,ComponentDrill
T1C0.0276
; #@! TA.AperFunction,Plated,PTH,ComponentDrill
T2C0.0315
; #@! TA.AperFunction,Plated,PTH,ComponentDrill
T3C0.0354
; #@! TA.AperFunction,Plated,PTH,ViaDrill
T4C0.0394
; #@! TA.AperFunction,Plated,PTH,ViaDrill
T5C0.0591
%
G90
G05
T1
X0.7261Y-1.3225
X0.7261Y-1.5225
X0.8261Y-1.5225
X0.8261Y-1.7225
X0.9261Y-1.3225
X0.9261Y-1.5225
X1.0261Y-1.3225
X1.0261Y-1.5225
X1.0261Y-1.6225
X1.2261Y-1.6225
X1.3261Y-1.6225
X1.5261Y-1.6225
X1.6261Y-0.8225
X1.6261Y-0.9225
X1.7993Y-0.7225
X1.7993Y-0.8225
T2
X0.7261Y-0.7225
X0.7261Y-0.8225
X0.7261Y-0.9225
X0.7261Y-1.0225
X1.0261Y-0.7225
X1.0261Y-0.8225
X1.0261Y-0.9225
X1.0261Y-1.0225
X1.0277Y-1.7225
X1.1261Y-0.7225
X1.1261Y-0.821
X1.1261Y-1.2225
X1.1261Y-1.5225
X1.2245Y-1.7225
X1.2261Y-0.7225
X1.2261Y-0.8225
X1.2261Y-0.9225
X1.2261Y-1.0225
X1.2261Y-1.1225
X1.2261Y-1.2225
X1.2261Y-1.5225
X1.3245Y-1.1225
X1.3261Y-1.2225
X1.3261Y-1.5225
X1.4261Y-1.2225
X1.4261Y-1.5225
X1.5261Y-0.7225
X1.5261Y-0.8225
X1.5261Y-0.9225
X1.5261Y-1.0225
X1.5261Y-1.2225
X1.5261Y-1.5225
X1.6261Y-1.0225
X1.6261Y-1.2225
X1.6261Y-1.5225
X1.6261Y-1.6225
X1.7245Y-1.0225
X1.7245Y-1.6225
X1.7261Y-1.2225
X1.7261Y-1.5225
X1.8261Y-1.2225
X1.8261Y-1.5225
T3
X0.7261Y-1.6223
X0.7261Y-1.7223
T4
X0.6261Y-0.9225
X0.6261Y-1.0225
X0.6261Y-1.1225
X0.7261Y-1.1975
X1.1261Y-1.1225
X1.5261Y-1.1225
X1.6261Y-0.7225
T5
X0.5511Y-0.5475
X0.5511Y-1.8975
X1.9761Y-0.5475
X1.9761Y-1.8975
T0
M30
