%TF.GenerationSoftware,KiCad,Pcbnew,7.0.5*%
%TF.CreationDate,2024-11-04T15:19:44-05:00*%
%TF.ProjectId,93c46a_cnc,39336334-3661-45f6-936e-632e6b696361,rev?*%
%TF.SameCoordinates,Original*%
%TF.FileFunction,Copper,L1,Top*%
%TF.FilePolarity,Positive*%
%FSLAX46Y46*%
G04 Gerber Fmt 4.6, Leading zero omitted, Abs format (unit mm)*
G04 Created by KiCad (PCBNEW 7.0.5) date 2024-11-04 15:19:44*
%MOMM*%
%LPD*%
G01*
G04 APERTURE LIST*
G04 Aperture macros list*
%AMHorizOval*
0 Thick line with rounded ends*
0 $1 width*
0 $2 $3 position (X,Y) of the first rounded end (center of the circle)*
0 $4 $5 position (X,Y) of the second rounded end (center of the circle)*
0 Add line between two ends*
20,1,$1,$2,$3,$4,$5,0*
0 Add two circle primitives to create the rounded ends*
1,1,$1,$2,$3*
1,1,$1,$4,$5*%
G04 Aperture macros list end*
%TA.AperFunction,ComponentPad*%
%ADD10C,1.600000*%
%TD*%
%TA.AperFunction,ComponentPad*%
%ADD11R,1.800000X1.800000*%
%TD*%
%TA.AperFunction,ComponentPad*%
%ADD12C,1.800000*%
%TD*%
%TA.AperFunction,ComponentPad*%
%ADD13C,1.400000*%
%TD*%
%TA.AperFunction,ComponentPad*%
%ADD14O,1.400000X1.400000*%
%TD*%
%TA.AperFunction,ComponentPad*%
%ADD15R,1.600000X1.600000*%
%TD*%
%TA.AperFunction,ComponentPad*%
%ADD16O,1.600000X1.600000*%
%TD*%
%TA.AperFunction,ComponentPad*%
%ADD17HorizOval,1.400000X0.000000X0.000000X0.000000X0.000000X0*%
%TD*%
%TA.AperFunction,ViaPad*%
%ADD18C,1.250000*%
%TD*%
%TA.AperFunction,ViaPad*%
%ADD19C,1.600000*%
%TD*%
G04 APERTURE END LIST*
D10*
%TO.P,SW1,1,A*%
%TO.N,VCC*%
X14327500Y7402102D03*
%TO.P,SW1,2,B*%
%TO.N,/initiate_read*%
X19327500Y7402102D03*
%TD*%
D11*
%TO.P,D1,1,K*%
%TO.N,GND*%
X6667500Y9947102D03*
D12*
%TO.P,D1,2,A*%
%TO.N,Net-(D1-A)*%
X6667500Y7407102D03*
%TD*%
D13*
%TO.P,r8,1*%
%TO.N,VCC*%
X9207500Y12482102D03*
D14*
%TO.P,r8,2*%
%TO.N,Net-(D1-A)*%
X9207500Y7402102D03*
%TD*%
D13*
%TO.P,r5,1*%
%TO.N,GND*%
X6667500Y12482102D03*
D14*
%TO.P,r5,2*%
%TO.N,/rom_sdo*%
X6667500Y17562102D03*
%TD*%
D13*
%TO.P,r4,1*%
%TO.N,VCC*%
X11747500Y17562102D03*
D14*
%TO.P,r4,2*%
%TO.N,Net-(r2-Pad1)*%
X11747500Y12482102D03*
%TD*%
D15*
%TO.P,U2,1,A*%
%TO.N,GND*%
X16827500Y12482102D03*
D16*
%TO.P,U2,2,B*%
%TO.N,/initiate_read*%
X19367500Y12482102D03*
%TO.P,U2,3,Clr*%
%TO.N,VCC*%
X21907500Y12482102D03*
%TO.P,U2,4,~{Q}*%
%TO.N,unconnected-(U2A-~{Q}-Pad4)*%
X24447500Y12482102D03*
%TO.P,U2,5,Q*%
%TO.N,/rom_sdi*%
X26987500Y12482102D03*
%TO.P,U2,6,Cext*%
%TO.N,Net-(U2B-Cext)*%
X29527500Y12482102D03*
%TO.P,U2,7,RCext*%
%TO.N,Net-(U2B-RCext)*%
X32067500Y12482102D03*
%TO.P,U2,8,GND*%
%TO.N,GND*%
X34607500Y12482102D03*
%TO.P,U2,9,A*%
X34607500Y20102102D03*
%TO.P,U2,10,B*%
%TO.N,/rom_cs*%
X32067500Y20102102D03*
%TO.P,U2,11,Clr*%
%TO.N,VCC*%
X29527500Y20102102D03*
%TO.P,U2,12,~{Q}*%
%TO.N,unconnected-(U2B-~{Q}-Pad12)*%
X26987500Y20102102D03*
%TO.P,U2,13,Q*%
%TO.N,/rom_cs*%
X24447500Y20102102D03*
%TO.P,U2,14,Cext*%
%TO.N,Net-(U2A-Cext)*%
X21907500Y20102102D03*
%TO.P,U2,15,RCext*%
%TO.N,Net-(U2A-RCext)*%
X19367500Y20102102D03*
%TO.P,U2,16,VCC*%
%TO.N,VCC*%
X16827500Y20102102D03*
%TD*%
D14*
%TO.P,r3,2*%
%TO.N,Net-(U2B-RCext)*%
X26987500Y9942102D03*
D13*
%TO.P,r3,1*%
%TO.N,VCC*%
X21907500Y9942102D03*
%TD*%
%TO.P,r2,1*%
%TO.N,Net-(r2-Pad1)*%
X14287500Y12482102D03*
D14*
%TO.P,r2,2*%
%TO.N,Net-(U2A-RCext)*%
X14287500Y17562102D03*
%TD*%
D10*
%TO.P,C4,1*%
%TO.N,Net-(U2B-RCext)*%
X32027500Y9942102D03*
%TO.P,C4,2*%
%TO.N,Net-(U2B-Cext)*%
X29527500Y9942102D03*
%TD*%
%TO.P,C1,1*%
%TO.N,Net-(U2A-RCext)*%
X19367500Y22642102D03*
%TO.P,C1,2*%
%TO.N,Net-(U2A-Cext)*%
X21867500Y22642102D03*
%TD*%
D15*
%TO.P,U4,1,GND*%
%TO.N,GND*%
X19367500Y32802102D03*
D16*
%TO.P,U4,2,TR*%
%TO.N,Net-(U4-THR)*%
X19367500Y30262102D03*
%TO.P,U4,3,Q*%
%TO.N,/rom_scl*%
X19367500Y27722102D03*
%TO.P,U4,4,R*%
%TO.N,/rom_cs*%
X19367500Y25182102D03*
%TO.P,U4,5,CV*%
%TO.N,Net-(U4-CV)*%
X26987500Y25182102D03*
%TO.P,U4,6,THR*%
%TO.N,Net-(U4-THR)*%
X26987500Y27722102D03*
%TO.P,U4,7,DIS*%
%TO.N,Net-(U4-DIS)*%
X26987500Y30262102D03*
%TO.P,U4,8,VCC*%
%TO.N,VCC*%
X26987500Y32802102D03*
%TD*%
D13*
%TO.P,r7,1*%
%TO.N,Net-(U4-THR)*%
X29527500Y27722102D03*
D17*
%TO.P,r7,2*%
%TO.N,Net-(U4-DIS)*%
X33926909Y30262102D03*
%TD*%
D13*
%TO.P,r6,1*%
%TO.N,Net-(U4-DIS)*%
X29527500Y30262102D03*
D17*
%TO.P,r6,2*%
%TO.N,VCC*%
X33926909Y32802102D03*
%TD*%
D13*
%TO.P,r1,1*%
%TO.N,GND*%
X14287500Y9942102D03*
D14*
%TO.P,r1,2*%
%TO.N,/initiate_read*%
X19367500Y9942102D03*
%TD*%
D10*
%TO.P,C6,1*%
%TO.N,Net-(U4-THR)*%
X16827500Y30302102D03*
%TO.P,C6,2*%
%TO.N,GND*%
X16827500Y32802102D03*
%TD*%
%TO.P,C5,1*%
%TO.N,Net-(U4-CV)*%
X29527500Y25182102D03*
%TO.P,C5,2*%
%TO.N,GND*%
X32027500Y25182102D03*
%TD*%
D15*
%TO.P,U1,1,CS*%
%TO.N,/rom_cs*%
X14287500Y25182102D03*
D16*
%TO.P,U1,2,SCLK*%
%TO.N,/rom_scl*%
X14287500Y27722102D03*
%TO.P,U1,3,DI*%
%TO.N,/rom_sdi*%
X14287500Y30262102D03*
%TO.P,U1,4,DO*%
%TO.N,/rom_sdo*%
X14287500Y32802102D03*
%TO.P,U1,5,GND*%
%TO.N,GND*%
X6667500Y32802102D03*
%TO.P,U1,6,NC*%
%TO.N,unconnected-(U1-NC-Pad6)*%
X6667500Y30262102D03*
%TO.P,U1,7,NC*%
%TO.N,unconnected-(U1-NC-Pad7)*%
X6667500Y27722102D03*
%TO.P,U1,8,VCC*%
%TO.N,VCC*%
X6667500Y25182102D03*
%TD*%
D18*
%TO.N,VCC*%
X6667500Y20737102D03*
D19*
%TO.N,*%
X2222500Y37247102D03*
X2222500Y2957102D03*
X38417500Y2957102D03*
X38417500Y37247102D03*
D18*
%TO.N,VCC*%
X4127500Y27722102D03*
X4127500Y25182102D03*
X4127500Y22642102D03*
X16827500Y22642102D03*
X26987500Y22642102D03*
X29527500Y32802102D03*
%TD*%
M02*
