%TF.GenerationSoftware,KiCad,Pcbnew,7.0.5*%
%TF.CreationDate,2024-11-04T15:17:59-05:00*%
%TF.ProjectId,93c46a_cnc,39336334-3661-45f6-936e-632e6b696361,rev?*%
%TF.SameCoordinates,Original*%
%TF.FileFunction,Legend,Top*%
%TF.FilePolarity,Positive*%
%FSLAX46Y46*%
G04 Gerber Fmt 4.6, Leading zero omitted, Abs format (unit mm)*
G04 Created by KiCad (PCBNEW 7.0.5) date 2024-11-04 15:17:59*
%MOMM*%
%LPD*%
G01*
G04 APERTURE LIST*
%ADD10C,0.150000*%
%ADD11C,0.120000*%
G04 APERTURE END LIST*
D10*
%TO.C,SW1*%
X27269885Y-41309645D02*
X27412742Y-41357264D01*
X27412742Y-41357264D02*
X27650837Y-41357264D01*
X27650837Y-41357264D02*
X27746075Y-41309645D01*
X27746075Y-41309645D02*
X27793694Y-41262025D01*
X27793694Y-41262025D02*
X27841313Y-41166787D01*
X27841313Y-41166787D02*
X27841313Y-41071549D01*
X27841313Y-41071549D02*
X27793694Y-40976311D01*
X27793694Y-40976311D02*
X27746075Y-40928692D01*
X27746075Y-40928692D02*
X27650837Y-40881073D01*
X27650837Y-40881073D02*
X27460361Y-40833454D01*
X27460361Y-40833454D02*
X27365123Y-40785835D01*
X27365123Y-40785835D02*
X27317504Y-40738216D01*
X27317504Y-40738216D02*
X27269885Y-40642978D01*
X27269885Y-40642978D02*
X27269885Y-40547740D01*
X27269885Y-40547740D02*
X27317504Y-40452502D01*
X27317504Y-40452502D02*
X27365123Y-40404883D01*
X27365123Y-40404883D02*
X27460361Y-40357264D01*
X27460361Y-40357264D02*
X27698456Y-40357264D01*
X27698456Y-40357264D02*
X27841313Y-40404883D01*
X28174647Y-40357264D02*
X28412742Y-41357264D01*
X28412742Y-41357264D02*
X28603218Y-40642978D01*
X28603218Y-40642978D02*
X28793694Y-41357264D01*
X28793694Y-41357264D02*
X29031790Y-40357264D01*
X29936551Y-41357264D02*
X29365123Y-41357264D01*
X29650837Y-41357264D02*
X29650837Y-40357264D01*
X29650837Y-40357264D02*
X29555599Y-40500121D01*
X29555599Y-40500121D02*
X29460361Y-40595359D01*
X29460361Y-40595359D02*
X29365123Y-40642978D01*
%TO.C,D1*%
X21158037Y-43215539D02*
X20158037Y-43215539D01*
X20158037Y-43215539D02*
X20158037Y-42977444D01*
X20158037Y-42977444D02*
X20205656Y-42834587D01*
X20205656Y-42834587D02*
X20300894Y-42739349D01*
X20300894Y-42739349D02*
X20396132Y-42691730D01*
X20396132Y-42691730D02*
X20586608Y-42644111D01*
X20586608Y-42644111D02*
X20729465Y-42644111D01*
X20729465Y-42644111D02*
X20919941Y-42691730D01*
X20919941Y-42691730D02*
X21015179Y-42739349D01*
X21015179Y-42739349D02*
X21110418Y-42834587D01*
X21110418Y-42834587D02*
X21158037Y-42977444D01*
X21158037Y-42977444D02*
X21158037Y-43215539D01*
X21158037Y-41691730D02*
X21158037Y-42263158D01*
X21158037Y-41977444D02*
X20158037Y-41977444D01*
X20158037Y-41977444D02*
X20300894Y-42072682D01*
X20300894Y-42072682D02*
X20396132Y-42167920D01*
X20396132Y-42167920D02*
X20443751Y-42263158D01*
%TO.C,r8*%
X23358037Y-41760063D02*
X22691370Y-41760063D01*
X22881846Y-41760063D02*
X22786608Y-41712444D01*
X22786608Y-41712444D02*
X22738989Y-41664825D01*
X22738989Y-41664825D02*
X22691370Y-41569587D01*
X22691370Y-41569587D02*
X22691370Y-41474349D01*
X22786608Y-40998158D02*
X22738989Y-41093396D01*
X22738989Y-41093396D02*
X22691370Y-41141015D01*
X22691370Y-41141015D02*
X22596132Y-41188634D01*
X22596132Y-41188634D02*
X22548513Y-41188634D01*
X22548513Y-41188634D02*
X22453275Y-41141015D01*
X22453275Y-41141015D02*
X22405656Y-41093396D01*
X22405656Y-41093396D02*
X22358037Y-40998158D01*
X22358037Y-40998158D02*
X22358037Y-40807682D01*
X22358037Y-40807682D02*
X22405656Y-40712444D01*
X22405656Y-40712444D02*
X22453275Y-40664825D01*
X22453275Y-40664825D02*
X22548513Y-40617206D01*
X22548513Y-40617206D02*
X22596132Y-40617206D01*
X22596132Y-40617206D02*
X22691370Y-40664825D01*
X22691370Y-40664825D02*
X22738989Y-40712444D01*
X22738989Y-40712444D02*
X22786608Y-40807682D01*
X22786608Y-40807682D02*
X22786608Y-40998158D01*
X22786608Y-40998158D02*
X22834227Y-41093396D01*
X22834227Y-41093396D02*
X22881846Y-41141015D01*
X22881846Y-41141015D02*
X22977084Y-41188634D01*
X22977084Y-41188634D02*
X23167560Y-41188634D01*
X23167560Y-41188634D02*
X23262798Y-41141015D01*
X23262798Y-41141015D02*
X23310418Y-41093396D01*
X23310418Y-41093396D02*
X23358037Y-40998158D01*
X23358037Y-40998158D02*
X23358037Y-40807682D01*
X23358037Y-40807682D02*
X23310418Y-40712444D01*
X23310418Y-40712444D02*
X23262798Y-40664825D01*
X23262798Y-40664825D02*
X23167560Y-40617206D01*
X23167560Y-40617206D02*
X22977084Y-40617206D01*
X22977084Y-40617206D02*
X22881846Y-40664825D01*
X22881846Y-40664825D02*
X22834227Y-40712444D01*
X22834227Y-40712444D02*
X22786608Y-40807682D01*
%TO.C,r5*%
X16978037Y-36680063D02*
X16311370Y-36680063D01*
X16501846Y-36680063D02*
X16406608Y-36632444D01*
X16406608Y-36632444D02*
X16358989Y-36584825D01*
X16358989Y-36584825D02*
X16311370Y-36489587D01*
X16311370Y-36489587D02*
X16311370Y-36394349D01*
X15978037Y-35584825D02*
X15978037Y-36061015D01*
X15978037Y-36061015D02*
X16454227Y-36108634D01*
X16454227Y-36108634D02*
X16406608Y-36061015D01*
X16406608Y-36061015D02*
X16358989Y-35965777D01*
X16358989Y-35965777D02*
X16358989Y-35727682D01*
X16358989Y-35727682D02*
X16406608Y-35632444D01*
X16406608Y-35632444D02*
X16454227Y-35584825D01*
X16454227Y-35584825D02*
X16549465Y-35537206D01*
X16549465Y-35537206D02*
X16787560Y-35537206D01*
X16787560Y-35537206D02*
X16882798Y-35584825D01*
X16882798Y-35584825D02*
X16930418Y-35632444D01*
X16930418Y-35632444D02*
X16978037Y-35727682D01*
X16978037Y-35727682D02*
X16978037Y-35965777D01*
X16978037Y-35965777D02*
X16930418Y-36061015D01*
X16930418Y-36061015D02*
X16882798Y-36108634D01*
%TO.C,r4*%
X25898037Y-36680063D02*
X25231370Y-36680063D01*
X25421846Y-36680063D02*
X25326608Y-36632444D01*
X25326608Y-36632444D02*
X25278989Y-36584825D01*
X25278989Y-36584825D02*
X25231370Y-36489587D01*
X25231370Y-36489587D02*
X25231370Y-36394349D01*
X25231370Y-35632444D02*
X25898037Y-35632444D01*
X24850418Y-35870539D02*
X25564703Y-36108634D01*
X25564703Y-36108634D02*
X25564703Y-35489587D01*
%TO.C,U2*%
X25728037Y-35624349D02*
X26537560Y-35624349D01*
X26537560Y-35624349D02*
X26632798Y-35576730D01*
X26632798Y-35576730D02*
X26680418Y-35529111D01*
X26680418Y-35529111D02*
X26728037Y-35433873D01*
X26728037Y-35433873D02*
X26728037Y-35243397D01*
X26728037Y-35243397D02*
X26680418Y-35148159D01*
X26680418Y-35148159D02*
X26632798Y-35100540D01*
X26632798Y-35100540D02*
X26537560Y-35052921D01*
X26537560Y-35052921D02*
X25728037Y-35052921D01*
X25823275Y-34624349D02*
X25775656Y-34576730D01*
X25775656Y-34576730D02*
X25728037Y-34481492D01*
X25728037Y-34481492D02*
X25728037Y-34243397D01*
X25728037Y-34243397D02*
X25775656Y-34148159D01*
X25775656Y-34148159D02*
X25823275Y-34100540D01*
X25823275Y-34100540D02*
X25918513Y-34052921D01*
X25918513Y-34052921D02*
X26013751Y-34052921D01*
X26013751Y-34052921D02*
X26156608Y-34100540D01*
X26156608Y-34100540D02*
X26728037Y-34671968D01*
X26728037Y-34671968D02*
X26728037Y-34052921D01*
%TO.C,r3*%
X35675599Y-39747264D02*
X35675599Y-39080597D01*
X35675599Y-39271073D02*
X35723218Y-39175835D01*
X35723218Y-39175835D02*
X35770837Y-39128216D01*
X35770837Y-39128216D02*
X35866075Y-39080597D01*
X35866075Y-39080597D02*
X35961313Y-39080597D01*
X36199409Y-38747264D02*
X36818456Y-38747264D01*
X36818456Y-38747264D02*
X36485123Y-39128216D01*
X36485123Y-39128216D02*
X36627980Y-39128216D01*
X36627980Y-39128216D02*
X36723218Y-39175835D01*
X36723218Y-39175835D02*
X36770837Y-39223454D01*
X36770837Y-39223454D02*
X36818456Y-39318692D01*
X36818456Y-39318692D02*
X36818456Y-39556787D01*
X36818456Y-39556787D02*
X36770837Y-39652025D01*
X36770837Y-39652025D02*
X36723218Y-39699645D01*
X36723218Y-39699645D02*
X36627980Y-39747264D01*
X36627980Y-39747264D02*
X36342266Y-39747264D01*
X36342266Y-39747264D02*
X36247028Y-39699645D01*
X36247028Y-39699645D02*
X36199409Y-39652025D01*
%TO.C,r2*%
X24598037Y-36680063D02*
X23931370Y-36680063D01*
X24121846Y-36680063D02*
X24026608Y-36632444D01*
X24026608Y-36632444D02*
X23978989Y-36584825D01*
X23978989Y-36584825D02*
X23931370Y-36489587D01*
X23931370Y-36489587D02*
X23931370Y-36394349D01*
X23693275Y-36108634D02*
X23645656Y-36061015D01*
X23645656Y-36061015D02*
X23598037Y-35965777D01*
X23598037Y-35965777D02*
X23598037Y-35727682D01*
X23598037Y-35727682D02*
X23645656Y-35632444D01*
X23645656Y-35632444D02*
X23693275Y-35584825D01*
X23693275Y-35584825D02*
X23788513Y-35537206D01*
X23788513Y-35537206D02*
X23883751Y-35537206D01*
X23883751Y-35537206D02*
X24026608Y-35584825D01*
X24026608Y-35584825D02*
X24598037Y-36156253D01*
X24598037Y-36156253D02*
X24598037Y-35537206D01*
%TO.C,C4*%
X42386551Y-43822025D02*
X42338932Y-43869645D01*
X42338932Y-43869645D02*
X42196075Y-43917264D01*
X42196075Y-43917264D02*
X42100837Y-43917264D01*
X42100837Y-43917264D02*
X41957980Y-43869645D01*
X41957980Y-43869645D02*
X41862742Y-43774406D01*
X41862742Y-43774406D02*
X41815123Y-43679168D01*
X41815123Y-43679168D02*
X41767504Y-43488692D01*
X41767504Y-43488692D02*
X41767504Y-43345835D01*
X41767504Y-43345835D02*
X41815123Y-43155359D01*
X41815123Y-43155359D02*
X41862742Y-43060121D01*
X41862742Y-43060121D02*
X41957980Y-42964883D01*
X41957980Y-42964883D02*
X42100837Y-42917264D01*
X42100837Y-42917264D02*
X42196075Y-42917264D01*
X42196075Y-42917264D02*
X42338932Y-42964883D01*
X42338932Y-42964883D02*
X42386551Y-43012502D01*
X43243694Y-43250597D02*
X43243694Y-43917264D01*
X43005599Y-42869645D02*
X42767504Y-43583930D01*
X42767504Y-43583930D02*
X43386551Y-43583930D01*
%TO.C,C1*%
X32226551Y-26622025D02*
X32178932Y-26669645D01*
X32178932Y-26669645D02*
X32036075Y-26717264D01*
X32036075Y-26717264D02*
X31940837Y-26717264D01*
X31940837Y-26717264D02*
X31797980Y-26669645D01*
X31797980Y-26669645D02*
X31702742Y-26574406D01*
X31702742Y-26574406D02*
X31655123Y-26479168D01*
X31655123Y-26479168D02*
X31607504Y-26288692D01*
X31607504Y-26288692D02*
X31607504Y-26145835D01*
X31607504Y-26145835D02*
X31655123Y-25955359D01*
X31655123Y-25955359D02*
X31702742Y-25860121D01*
X31702742Y-25860121D02*
X31797980Y-25764883D01*
X31797980Y-25764883D02*
X31940837Y-25717264D01*
X31940837Y-25717264D02*
X32036075Y-25717264D01*
X32036075Y-25717264D02*
X32178932Y-25764883D01*
X32178932Y-25764883D02*
X32226551Y-25812502D01*
X33178932Y-26717264D02*
X32607504Y-26717264D01*
X32893218Y-26717264D02*
X32893218Y-25717264D01*
X32893218Y-25717264D02*
X32797980Y-25860121D01*
X32797980Y-25860121D02*
X32702742Y-25955359D01*
X32702742Y-25955359D02*
X32607504Y-26002978D01*
%TO.C,U4*%
X34191313Y-15477264D02*
X34191313Y-16286787D01*
X34191313Y-16286787D02*
X34238932Y-16382025D01*
X34238932Y-16382025D02*
X34286551Y-16429645D01*
X34286551Y-16429645D02*
X34381789Y-16477264D01*
X34381789Y-16477264D02*
X34572265Y-16477264D01*
X34572265Y-16477264D02*
X34667503Y-16429645D01*
X34667503Y-16429645D02*
X34715122Y-16382025D01*
X34715122Y-16382025D02*
X34762741Y-16286787D01*
X34762741Y-16286787D02*
X34762741Y-15477264D01*
X35667503Y-15810597D02*
X35667503Y-16477264D01*
X35429408Y-15429645D02*
X35191313Y-16143930D01*
X35191313Y-16143930D02*
X35810360Y-16143930D01*
%TO.C,r7*%
X42296080Y-21167370D02*
X41962747Y-20590019D01*
X42057985Y-20754977D02*
X42051605Y-20648689D01*
X42051605Y-20648689D02*
X42069035Y-20583640D01*
X42069035Y-20583640D02*
X42127704Y-20494781D01*
X42127704Y-20494781D02*
X42210183Y-20447162D01*
X42249713Y-20039439D02*
X42827063Y-19706106D01*
X42827063Y-19706106D02*
X42955909Y-20786417D01*
%TO.C,r6*%
X42296080Y-18627370D02*
X41962747Y-18050019D01*
X42057985Y-18214977D02*
X42051605Y-18108689D01*
X42051605Y-18108689D02*
X42069035Y-18043640D01*
X42069035Y-18043640D02*
X42127704Y-17954781D01*
X42127704Y-17954781D02*
X42210183Y-17907162D01*
X42703345Y-17237535D02*
X42538388Y-17332773D01*
X42538388Y-17332773D02*
X42479719Y-17421631D01*
X42479719Y-17421631D02*
X42462289Y-17486680D01*
X42462289Y-17486680D02*
X42451239Y-17658017D01*
X42451239Y-17658017D02*
X42505238Y-17846784D01*
X42505238Y-17846784D02*
X42695714Y-18176698D01*
X42695714Y-18176698D02*
X42784573Y-18235367D01*
X42784573Y-18235367D02*
X42849621Y-18252797D01*
X42849621Y-18252797D02*
X42955909Y-18246417D01*
X42955909Y-18246417D02*
X43120867Y-18151179D01*
X43120867Y-18151179D02*
X43179536Y-18062321D01*
X43179536Y-18062321D02*
X43196966Y-17997272D01*
X43196966Y-17997272D02*
X43190586Y-17890984D01*
X43190586Y-17890984D02*
X43071538Y-17684787D01*
X43071538Y-17684787D02*
X42982680Y-17626118D01*
X42982680Y-17626118D02*
X42917631Y-17608688D01*
X42917631Y-17608688D02*
X42811343Y-17615068D01*
X42811343Y-17615068D02*
X42646386Y-17710306D01*
X42646386Y-17710306D02*
X42587717Y-17799165D01*
X42587717Y-17799165D02*
X42570287Y-17864213D01*
X42570287Y-17864213D02*
X42576667Y-17970502D01*
%TO.C,r1*%
X28055599Y-39747264D02*
X28055599Y-39080597D01*
X28055599Y-39271073D02*
X28103218Y-39175835D01*
X28103218Y-39175835D02*
X28150837Y-39128216D01*
X28150837Y-39128216D02*
X28246075Y-39080597D01*
X28246075Y-39080597D02*
X28341313Y-39080597D01*
X29198456Y-39747264D02*
X28627028Y-39747264D01*
X28912742Y-39747264D02*
X28912742Y-38747264D01*
X28912742Y-38747264D02*
X28817504Y-38890121D01*
X28817504Y-38890121D02*
X28722266Y-38985359D01*
X28722266Y-38985359D02*
X28627028Y-39032978D01*
%TO.C,C6*%
X26712798Y-19769111D02*
X26760418Y-19816730D01*
X26760418Y-19816730D02*
X26808037Y-19959587D01*
X26808037Y-19959587D02*
X26808037Y-20054825D01*
X26808037Y-20054825D02*
X26760418Y-20197682D01*
X26760418Y-20197682D02*
X26665179Y-20292920D01*
X26665179Y-20292920D02*
X26569941Y-20340539D01*
X26569941Y-20340539D02*
X26379465Y-20388158D01*
X26379465Y-20388158D02*
X26236608Y-20388158D01*
X26236608Y-20388158D02*
X26046132Y-20340539D01*
X26046132Y-20340539D02*
X25950894Y-20292920D01*
X25950894Y-20292920D02*
X25855656Y-20197682D01*
X25855656Y-20197682D02*
X25808037Y-20054825D01*
X25808037Y-20054825D02*
X25808037Y-19959587D01*
X25808037Y-19959587D02*
X25855656Y-19816730D01*
X25855656Y-19816730D02*
X25903275Y-19769111D01*
X25808037Y-18911968D02*
X25808037Y-19102444D01*
X25808037Y-19102444D02*
X25855656Y-19197682D01*
X25855656Y-19197682D02*
X25903275Y-19245301D01*
X25903275Y-19245301D02*
X26046132Y-19340539D01*
X26046132Y-19340539D02*
X26236608Y-19388158D01*
X26236608Y-19388158D02*
X26617560Y-19388158D01*
X26617560Y-19388158D02*
X26712798Y-19340539D01*
X26712798Y-19340539D02*
X26760418Y-19292920D01*
X26760418Y-19292920D02*
X26808037Y-19197682D01*
X26808037Y-19197682D02*
X26808037Y-19007206D01*
X26808037Y-19007206D02*
X26760418Y-18911968D01*
X26760418Y-18911968D02*
X26712798Y-18864349D01*
X26712798Y-18864349D02*
X26617560Y-18816730D01*
X26617560Y-18816730D02*
X26379465Y-18816730D01*
X26379465Y-18816730D02*
X26284227Y-18864349D01*
X26284227Y-18864349D02*
X26236608Y-18911968D01*
X26236608Y-18911968D02*
X26188989Y-19007206D01*
X26188989Y-19007206D02*
X26188989Y-19197682D01*
X26188989Y-19197682D02*
X26236608Y-19292920D01*
X26236608Y-19292920D02*
X26284227Y-19340539D01*
X26284227Y-19340539D02*
X26379465Y-19388158D01*
%TO.C,C5*%
X42386551Y-24082025D02*
X42338932Y-24129645D01*
X42338932Y-24129645D02*
X42196075Y-24177264D01*
X42196075Y-24177264D02*
X42100837Y-24177264D01*
X42100837Y-24177264D02*
X41957980Y-24129645D01*
X41957980Y-24129645D02*
X41862742Y-24034406D01*
X41862742Y-24034406D02*
X41815123Y-23939168D01*
X41815123Y-23939168D02*
X41767504Y-23748692D01*
X41767504Y-23748692D02*
X41767504Y-23605835D01*
X41767504Y-23605835D02*
X41815123Y-23415359D01*
X41815123Y-23415359D02*
X41862742Y-23320121D01*
X41862742Y-23320121D02*
X41957980Y-23224883D01*
X41957980Y-23224883D02*
X42100837Y-23177264D01*
X42100837Y-23177264D02*
X42196075Y-23177264D01*
X42196075Y-23177264D02*
X42338932Y-23224883D01*
X42338932Y-23224883D02*
X42386551Y-23272502D01*
X43291313Y-23177264D02*
X42815123Y-23177264D01*
X42815123Y-23177264D02*
X42767504Y-23653454D01*
X42767504Y-23653454D02*
X42815123Y-23605835D01*
X42815123Y-23605835D02*
X42910361Y-23558216D01*
X42910361Y-23558216D02*
X43148456Y-23558216D01*
X43148456Y-23558216D02*
X43243694Y-23605835D01*
X43243694Y-23605835D02*
X43291313Y-23653454D01*
X43291313Y-23653454D02*
X43338932Y-23748692D01*
X43338932Y-23748692D02*
X43338932Y-23986787D01*
X43338932Y-23986787D02*
X43291313Y-24082025D01*
X43291313Y-24082025D02*
X43243694Y-24129645D01*
X43243694Y-24129645D02*
X43148456Y-24177264D01*
X43148456Y-24177264D02*
X42910361Y-24177264D01*
X42910361Y-24177264D02*
X42815123Y-24129645D01*
X42815123Y-24129645D02*
X42767504Y-24082025D01*
%TO.C,U1*%
X24031313Y-27757264D02*
X24031313Y-28566787D01*
X24031313Y-28566787D02*
X24078932Y-28662025D01*
X24078932Y-28662025D02*
X24126551Y-28709645D01*
X24126551Y-28709645D02*
X24221789Y-28757264D01*
X24221789Y-28757264D02*
X24412265Y-28757264D01*
X24412265Y-28757264D02*
X24507503Y-28709645D01*
X24507503Y-28709645D02*
X24555122Y-28662025D01*
X24555122Y-28662025D02*
X24602741Y-28566787D01*
X24602741Y-28566787D02*
X24602741Y-27757264D01*
X25602741Y-28757264D02*
X25031313Y-28757264D01*
X25317027Y-28757264D02*
X25317027Y-27757264D01*
X25317027Y-27757264D02*
X25221789Y-27900121D01*
X25221789Y-27900121D02*
X25126551Y-27995359D01*
X25126551Y-27995359D02*
X25031313Y-28042978D01*
D11*
%TO.C,SW1*%
X25933218Y-42031445D02*
X25933218Y-42697445D01*
X31273218Y-42031445D02*
X31273218Y-42697445D01*
X31273218Y-44807445D02*
X31273218Y-45473445D01*
X25933218Y-42031445D02*
X31273218Y-42031445D01*
X25933218Y-44807445D02*
X25933218Y-45473445D01*
X25933218Y-45473445D02*
X31273218Y-45473445D01*
%TO.C,D1*%
X17363218Y-41007445D02*
X17183218Y-41007445D01*
X17363218Y-40767445D02*
X17183218Y-40767445D01*
X19703218Y-40767445D02*
X19523218Y-40767445D01*
X19703218Y-40887445D02*
X19523218Y-40887445D01*
X19703218Y-40767445D02*
X19703218Y-44187445D01*
X19703218Y-44187445D02*
X19538218Y-44187445D01*
X17363218Y-40887445D02*
X17183218Y-40887445D01*
X17183218Y-40767445D02*
X17183218Y-44187445D01*
X17348218Y-44187445D02*
X17183218Y-44187445D01*
X19703218Y-41007445D02*
X19523218Y-41007445D01*
%TO.C,r8*%
X20063218Y-39292445D02*
X20063218Y-43132445D01*
X21903218Y-39292445D02*
X21903218Y-43132445D01*
%TO.C,r5*%
X19363218Y-38052445D02*
X19363218Y-34212445D01*
X17523218Y-38052445D02*
X17523218Y-34212445D01*
%TO.C,r4*%
X22603218Y-34212445D02*
X22603218Y-38052445D01*
X24443218Y-34212445D02*
X24443218Y-38052445D01*
%TO.C,U2*%
X27273218Y-32212445D02*
X27273218Y-33862445D01*
X27273218Y-37512445D02*
X47713218Y-37512445D01*
X47713218Y-32212445D02*
X27273218Y-32212445D01*
X47713218Y-37512445D02*
X47713218Y-32212445D01*
X27273218Y-35862445D02*
X27273218Y-37512445D01*
X27273218Y-35862445D02*
G75*
G03*
X27273218Y-33862445I0J1000000D01*
G01*
%TO.C,r3*%
X34303218Y-40292445D02*
X38143218Y-40292445D01*
X34303218Y-42132445D02*
X38143218Y-42132445D01*
%TO.C,r2*%
X26983218Y-38052445D02*
X26983218Y-34212445D01*
X25143218Y-38052445D02*
X25143218Y-34212445D01*
%TO.C,C4*%
X44173218Y-42332445D02*
X40933218Y-42332445D01*
X40933218Y-42332445D02*
X40933218Y-42267445D01*
X40933218Y-40157445D02*
X40933218Y-40092445D01*
X44173218Y-40157445D02*
X44173218Y-40092445D01*
X44173218Y-40092445D02*
X40933218Y-40092445D01*
X44173218Y-42332445D02*
X44173218Y-42267445D01*
%TO.C,C1*%
X30773218Y-27392445D02*
X34013218Y-27392445D01*
X34013218Y-27392445D02*
X34013218Y-27457445D01*
X34013218Y-29567445D02*
X34013218Y-29632445D01*
X30773218Y-29567445D02*
X30773218Y-29632445D01*
X30773218Y-29632445D02*
X34013218Y-29632445D01*
X30773218Y-27392445D02*
X30773218Y-27457445D01*
%TO.C,U4*%
X37603218Y-17022445D02*
X35953218Y-17022445D01*
X32303218Y-17022445D02*
X32303218Y-27302445D01*
X37603218Y-27302445D02*
X37603218Y-17022445D01*
X33953218Y-17022445D02*
X32303218Y-17022445D01*
X32303218Y-27302445D02*
X37603218Y-27302445D01*
X33953218Y-17022445D02*
G75*
G03*
X35953218Y-17022445I1000000J0D01*
G01*
%TO.C,r7*%
X42300154Y-23919188D02*
X45625691Y-21999188D01*
X41380154Y-22325702D02*
X44705691Y-20405702D01*
%TO.C,r6*%
X42300154Y-21379188D02*
X45625691Y-19459188D01*
X41380154Y-19785702D02*
X44705691Y-17865702D01*
%TO.C,r1*%
X26683218Y-42132445D02*
X30523218Y-42132445D01*
X26683218Y-40292445D02*
X30523218Y-40292445D01*
%TO.C,C6*%
X27483218Y-21222445D02*
X27483218Y-17982445D01*
X27483218Y-17982445D02*
X27548218Y-17982445D01*
X29658218Y-17982445D02*
X29723218Y-17982445D01*
X29658218Y-21222445D02*
X29723218Y-21222445D01*
X29723218Y-21222445D02*
X29723218Y-17982445D01*
X27483218Y-21222445D02*
X27548218Y-21222445D01*
%TO.C,C5*%
X40933218Y-24852445D02*
X44173218Y-24852445D01*
X44173218Y-24852445D02*
X44173218Y-24917445D01*
X44173218Y-27027445D02*
X44173218Y-27092445D01*
X40933218Y-27027445D02*
X40933218Y-27092445D01*
X40933218Y-27092445D02*
X44173218Y-27092445D01*
X40933218Y-24852445D02*
X40933218Y-24917445D01*
%TO.C,U1*%
X19603218Y-27302445D02*
X21253218Y-27302445D01*
X24903218Y-27302445D02*
X24903218Y-17022445D01*
X19603218Y-17022445D02*
X19603218Y-27302445D01*
X23253218Y-27302445D02*
X24903218Y-27302445D01*
X24903218Y-17022445D02*
X19603218Y-17022445D01*
X23253218Y-27302445D02*
G75*
G03*
X21253218Y-27302445I-1000000J0D01*
G01*
%TD*%
M02*
