M48
; DRILL file {KiCad 7.0.5} date Mon Nov  4 15:19:46 2024
; FORMAT={-:-/ absolute / inch / decimal}
; #@! TF.CreationDate,2024-11-04T15:19:46-05:00
; #@! TF.GenerationSoftware,Kicad,Pcbnew,7.0.5
; #@! TF.FileFunction,Plated,1,2,PTH
FMAT,2
INCH
; #@! TA.AperFunction,Plated,PTH,ComponentDrill
T1C0.0276
; #@! TA.AperFunction,Plated,PTH,ComponentDrill
T2C0.0315
; #@! TA.AperFunction,Plated,PTH,ComponentDrill
T3C0.0354
; #@! TA.AperFunction,Plated,PTH,ViaDrill
T4C0.0394
; #@! TA.AperFunction,Plated,PTH,ViaDrill
T5C0.0591
%
G90
G05
T1
X0.2625Y0.6914
X0.2625Y0.4914
X0.3625Y0.4914
X0.3625Y0.2914
X0.4625Y0.6914
X0.4625Y0.4914
X0.5625Y0.6914
X0.5625Y0.4914
X0.5625Y0.3914
X0.7625Y0.3914
X0.8625Y0.3914
X1.0625Y0.3914
X1.1625Y1.1914
X1.1625Y1.0914
X1.3357Y1.2914
X1.3357Y1.1914
T2
X0.2625Y1.2914
X0.2625Y1.1914
X0.2625Y1.0914
X0.2625Y0.9914
X0.5625Y1.2914
X0.5625Y1.1914
X0.5625Y1.0914
X0.5625Y0.9914
X0.5641Y0.2914
X0.6625Y1.2914
X0.6625Y1.193
X0.6625Y0.7914
X0.6625Y0.4914
X0.7609Y0.2914
X0.7625Y1.2914
X0.7625Y1.1914
X0.7625Y1.0914
X0.7625Y0.9914
X0.7625Y0.8914
X0.7625Y0.7914
X0.7625Y0.4914
X0.8609Y0.8914
X0.8625Y0.7914
X0.8625Y0.4914
X0.9625Y0.7914
X0.9625Y0.4914
X1.0625Y1.2914
X1.0625Y1.1914
X1.0625Y1.0914
X1.0625Y0.9914
X1.0625Y0.7914
X1.0625Y0.4914
X1.1625Y0.9914
X1.1625Y0.7914
X1.1625Y0.4914
X1.1625Y0.3914
X1.2609Y0.9914
X1.2609Y0.3914
X1.2625Y0.7914
X1.2625Y0.4914
X1.3625Y0.7914
X1.3625Y0.4914
T3
X0.2625Y0.3916
X0.2625Y0.2916
T4
X0.1625Y1.0914
X0.1625Y0.9914
X0.1625Y0.8914
X0.2625Y0.8164
X0.6625Y0.8914
X1.0625Y0.8914
X1.1625Y1.2914
T5
X0.0875Y1.4664
X0.0875Y0.1164
X1.5125Y1.4664
X1.5125Y0.1164
T0
M30
