M48
; DRILL file {KiCad 7.0.5} date Mon Aug 12 05:07:07 2024
; FORMAT={-:-/ absolute / inch / decimal}
; #@! TF.CreationDate,2024-08-12T05:07:07-04:00
; #@! TF.GenerationSoftware,Kicad,Pcbnew,7.0.5
; #@! TF.FileFunction,Plated,1,2,PTH
FMAT,2
INCH
; #@! TA.AperFunction,Plated,PTH,ViaDrill
T1C0.0157
; #@! TA.AperFunction,Plated,PTH,ComponentDrill
T2C0.0315
; #@! TA.AperFunction,Plated,PTH,ComponentDrill
T3C0.0394
; #@! TA.AperFunction,Plated,PTH,ViaDrill
T4C0.1181
%
G90
G05
T1
X2.875Y-2.45
X2.875Y-2.55
X2.875Y-2.65
X2.875Y-2.75
X2.875Y-2.85
X2.875Y-2.95
X2.875Y-3.05
X2.875Y-3.4
X2.875Y-3.5
X2.875Y-3.8
X2.875Y-3.9
X2.875Y-4.125
X2.875Y-5.275
X2.9Y-5.3
X2.925Y-5.325
X3.05Y-5.3584
X3.325Y-4.5
X3.3389Y-5.0866
X3.475Y-2.95
X4.3Y-4.375
X4.4Y-4.425
X4.4Y-4.475
X4.4Y-4.525
X4.65Y-5.3
X4.75Y-2.99
X4.82Y-3.02
X4.9Y-3.07
X5.05Y-2.525
X5.1Y-2.525
X5.1Y-2.575
X5.3715Y-3.7747
X5.5Y-3.7
X5.55Y-3.7
X5.6Y-3.65
X5.6Y-3.7
X5.65Y-3.6
X5.65Y-3.65
X5.7Y-3.55
X5.7Y-3.6
X5.75Y-3.55
X6.2389Y-5.2643
X6.275Y-5.275
X6.45Y-5.3
X6.55Y-5.225
X6.6Y-5.225
T2
X3.5Y-3.85
X3.5Y-4.15
X3.5Y-4.65
X3.5Y-4.95
X3.6Y-2.75
X3.6Y-3.35
X3.6Y-3.85
X3.6Y-4.15
X3.6Y-4.65
X3.6Y-4.95
X3.7Y-2.75
X3.7Y-3.35
X3.7Y-3.85
X3.7Y-4.15
X3.7Y-4.65
X3.7Y-4.95
X3.8Y-2.75
X3.8Y-3.35
X3.8Y-3.85
X3.8Y-4.15
X3.8Y-4.65
X3.8Y-4.95
X3.9Y-2.75
X3.9Y-3.35
X3.9Y-3.85
X3.9Y-4.15
X3.9Y-4.65
X3.9Y-4.95
X4.0Y-2.75
X4.0Y-3.35
X4.0Y-3.85
X4.0Y-4.15
X4.0Y-4.65
X4.0Y-4.95
X4.1Y-2.75
X4.1Y-3.35
X4.1Y-3.85
X4.1Y-4.15
X4.1Y-4.65
X4.1Y-4.95
X4.2Y-2.75
X4.2Y-3.35
X4.2Y-3.85
X4.2Y-4.15
X4.2Y-4.65
X4.2Y-4.95
X4.3Y-2.75
X4.3Y-3.35
X4.3Y-3.85
X4.3Y-4.15
X4.3Y-4.65
X4.3Y-4.95
X4.4Y-2.75
X4.4Y-3.35
X4.4Y-3.85
X4.4Y-4.15
X4.4Y-4.65
X4.4Y-4.95
X4.5Y-2.75
X4.5Y-3.35
X4.6Y-2.75
X4.6Y-3.35
X4.7Y-2.75
X4.7Y-3.35
X4.7Y-3.85
X4.7Y-4.15
X4.7Y-4.65
X4.7Y-4.95
X4.8Y-2.75
X4.8Y-3.35
X4.8Y-3.85
X4.8Y-4.15
X4.8Y-4.65
X4.8Y-4.95
X4.9Y-2.75
X4.9Y-3.35
X4.9Y-3.85
X4.9Y-4.15
X4.9Y-4.65
X4.9Y-4.95
X5.0Y-3.85
X5.0Y-4.15
X5.0Y-4.65
X5.0Y-4.95
X5.1Y-2.65
X5.1Y-2.95
X5.1Y-3.85
X5.1Y-4.15
X5.1Y-4.65
X5.1Y-4.95
X5.2Y-2.65
X5.2Y-2.95
X5.2Y-3.85
X5.2Y-4.15
X5.2Y-4.65
X5.2Y-4.95
X5.2996Y-3.0504
X5.2996Y-3.3504
X5.3Y-2.65
X5.3Y-2.95
X5.3Y-3.85
X5.3Y-4.15
X5.3Y-4.65
X5.3Y-4.95
X5.3996Y-3.0504
X5.3996Y-3.3504
X5.4Y-2.65
X5.4Y-2.95
X5.4Y-3.85
X5.4Y-4.15
X5.4Y-4.65
X5.4Y-4.95
X5.4996Y-3.0504
X5.4996Y-3.3504
X5.5Y-2.65
X5.5Y-2.95
X5.5Y-3.85
X5.5Y-4.15
X5.5Y-4.65
X5.5Y-4.95
X5.5996Y-3.0504
X5.5996Y-3.3504
X5.6Y-2.65
X5.6Y-2.95
X5.6Y-3.85
X5.6Y-4.15
X5.6Y-4.65
X5.6Y-4.95
X5.7Y-2.65
X5.7Y-2.95
T3
X3.2Y-2.4
X3.2Y-2.5
X3.2Y-2.6
X3.2Y-2.7
X3.2Y-2.8
X3.2Y-2.9
X3.2Y-3.0
X3.2Y-3.1
X3.2Y-3.35
X3.2Y-3.45
X3.2Y-3.55
X3.2Y-3.65
X3.2Y-3.75
X3.2Y-3.85
X3.2Y-3.95
X3.2Y-4.05
X3.2Y-4.35
X3.2Y-4.45
X3.2Y-4.55
X3.2Y-4.65
X3.2Y-4.75
X3.2Y-4.85
X3.2Y-4.95
X3.2Y-5.05
X3.2Y-5.4
X3.2Y-5.5
X3.3Y-5.4
X3.3Y-5.5
X3.325Y-3.525
X3.375Y-3.15
X3.375Y-3.25
X3.375Y-3.35
X3.4Y-5.4
X3.4Y-5.5
X3.5Y-3.75
X3.5Y-4.35
X3.5Y-5.4
X3.5Y-5.5
X3.6Y-3.45
X3.6Y-5.4
X3.6Y-5.5
X3.7Y-2.65
X3.7Y-3.45
X3.7Y-5.4
X3.7Y-5.5
X3.8Y-2.65
X3.8Y-3.45
X3.8Y-3.65
X3.8Y-4.45
X3.8Y-5.4
X3.8Y-5.5
X3.8004Y-4.35
X3.9Y-2.65
X3.9Y-3.45
X3.9Y-3.65
X3.9Y-4.45
X3.9Y-5.4
X3.9Y-5.5
X3.9004Y-4.35
X4.0Y-2.65
X4.0Y-3.45
X4.0Y-3.65
X4.0Y-4.45
X4.0Y-5.5
X4.0004Y-4.35
X4.1Y-2.65
X4.1Y-3.45
X4.1Y-3.65
X4.1Y-4.45
X4.1Y-5.5
X4.1004Y-4.35
X4.2Y-2.65
X4.2Y-3.45
X4.2Y-5.5
X4.3Y-2.65
X4.3Y-3.45
X4.3Y-5.5
X4.4Y-2.65
X4.4Y-3.45
X4.4Y-5.5
X4.5Y-3.45
X4.5Y-4.65
X4.5Y-4.75
X4.5Y-5.5
X4.6Y-4.425
X4.6Y-5.5
X4.7Y-4.25
X4.7Y-4.425
X4.7Y-5.5
X4.8Y-4.425
X4.8Y-4.55
X4.8Y-5.5
X4.85Y-5.1
X4.9Y-4.425
X4.9Y-4.55
X4.9Y-5.5
X4.9996Y-3.75
X5.0Y-4.55
X5.0Y-5.5
X5.0004Y-4.25
X5.0996Y-3.75
X5.1Y-4.55
X5.1Y-5.5
X5.1004Y-4.25
X5.1996Y-3.75
X5.2Y-3.05
X5.2Y-4.55
X5.2Y-5.5
X5.2004Y-4.25
X5.2996Y-3.75
X5.3Y-2.45
X5.3Y-2.55
X5.3Y-4.55
X5.3Y-5.5
X5.3004Y-4.25
X5.4Y-2.45
X5.4Y-2.55
X5.4Y-4.55
X5.4Y-5.5
X5.5Y-2.45
X5.5Y-2.55
X5.5Y-4.25
X5.5Y-4.55
X5.5Y-5.5
X5.6Y-2.45
X5.6Y-2.55
X5.6Y-5.5
X5.7Y-2.45
X5.7Y-2.55
X5.7Y-5.5
X5.75Y-4.95
X5.8Y-2.45
X5.8Y-2.55
X5.8Y-2.65
X5.8Y-2.75
X5.8Y-2.85
X5.8Y-5.5
X5.9Y-2.45
X5.9Y-2.55
X5.9Y-2.65
X5.9Y-2.75
X5.9Y-2.85
X5.9Y-2.95
X5.9Y-3.05
X5.9Y-3.15
X5.9Y-3.25
X5.9Y-3.35
X5.9Y-3.45
X5.9Y-3.55
X5.9Y-3.65
X5.9Y-3.75
X5.9Y-3.85
X5.9Y-3.95
X5.9Y-4.05
X5.9Y-4.15
X5.9Y-4.25
X5.9Y-4.35
X5.9Y-4.45
X5.9Y-4.55
X5.9Y-4.65
X5.9Y-4.75
X5.9Y-4.85
X5.9Y-4.95
X5.9Y-5.05
X5.9Y-5.5
X6.0Y-2.45
X6.0Y-2.55
X6.0Y-2.6502
X6.0Y-2.7502
X6.0Y-2.8502
X6.0Y-2.9502
X6.0Y-3.0502
X6.0Y-3.1502
X6.0Y-3.2502
X6.0Y-3.3502
X6.0Y-3.4502
X6.0Y-3.5502
X6.0Y-3.6502
X6.0Y-3.7502
X6.0Y-3.8502
X6.0Y-3.9502
X6.0Y-4.0502
X6.0Y-4.1502
X6.0Y-4.2502
X6.0Y-4.3502
X6.0Y-4.4502
X6.0Y-4.5502
X6.0Y-4.6502
X6.0Y-4.7502
X6.0Y-4.8502
X6.0Y-4.9502
X6.0Y-5.0502
X6.0Y-5.5
X6.1Y-2.45
X6.1Y-2.55
X6.1Y-2.6494
X6.1Y-2.7494
X6.1Y-2.8494
X6.1Y-2.9494
X6.1Y-3.0494
X6.1Y-3.1494
X6.1Y-3.2494
X6.1Y-3.3494
X6.1Y-3.4494
X6.1Y-3.5494
X6.1Y-3.6494
X6.1Y-3.7494
X6.1Y-3.8494
X6.1Y-3.9494
X6.1Y-4.0494
X6.1Y-4.1494
X6.1Y-4.2494
X6.1Y-4.3494
X6.1Y-4.4494
X6.1Y-4.5494
X6.1Y-4.6494
X6.1Y-4.7494
X6.1Y-4.8494
X6.1Y-4.9494
X6.1Y-5.0494
X6.1Y-5.5
X6.2Y-2.45
X6.2Y-2.55
X6.2Y-2.6494
X6.2Y-2.7494
X6.2Y-2.8494
X6.2Y-2.9494
X6.2Y-3.0494
X6.2Y-3.1494
X6.2Y-3.2494
X6.2Y-3.3494
X6.2Y-3.4494
X6.2Y-3.5494
X6.2Y-3.6494
X6.2Y-3.7494
X6.2Y-3.8494
X6.2Y-3.9494
X6.2Y-4.0494
X6.2Y-4.1494
X6.2Y-4.2494
X6.2Y-4.3494
X6.2Y-4.4494
X6.2Y-4.5494
X6.2Y-4.6494
X6.2Y-4.7494
X6.2Y-4.8494
X6.2Y-4.9494
X6.2Y-5.0494
X6.2Y-5.5
X6.3Y-2.45
X6.3Y-2.55
X6.3Y-2.6494
X6.3Y-2.7494
X6.3Y-2.8494
X6.3Y-2.9494
X6.3Y-3.0494
X6.3Y-3.1494
X6.3Y-3.2494
X6.3Y-3.3494
X6.3Y-3.4494
X6.3Y-3.5494
X6.3Y-3.6494
X6.3Y-3.7494
X6.3Y-3.8494
X6.3Y-3.9494
X6.3Y-4.0494
X6.3Y-4.1494
X6.3Y-4.2494
X6.3Y-4.3494
X6.3Y-4.4494
X6.3Y-4.5494
X6.3Y-4.6494
X6.3Y-4.7494
X6.3Y-4.8494
X6.3Y-4.9494
X6.3Y-5.0494
X6.3Y-5.5
X6.4Y-2.45
X6.4Y-2.55
X6.4Y-2.6496
X6.4Y-2.7496
X6.4Y-2.8496
X6.4Y-2.9496
X6.4Y-3.0496
X6.4Y-3.1496
X6.4Y-3.2496
X6.4Y-3.3496
X6.4Y-3.4496
X6.4Y-3.5496
X6.4Y-3.6496
X6.4Y-3.7496
X6.4Y-3.8496
X6.4Y-3.9496
X6.4Y-4.0496
X6.4Y-4.1496
X6.4Y-4.2496
X6.4Y-4.3496
X6.4Y-4.4496
X6.4Y-4.5496
X6.4Y-4.6496
X6.4Y-4.7496
X6.4Y-4.8496
X6.4Y-4.9496
X6.4Y-5.0496
X6.4Y-5.4
X6.4Y-5.5
X6.5Y-2.45
X6.5Y-2.55
X6.5Y-2.6496
X6.5Y-2.7496
X6.5Y-2.8496
X6.5Y-2.9496
X6.5Y-3.0496
X6.5Y-3.1496
X6.5Y-3.2496
X6.5Y-3.3496
X6.5Y-3.4496
X6.5Y-3.5496
X6.5Y-3.6496
X6.5Y-3.7496
X6.5Y-3.8496
X6.5Y-3.9496
X6.5Y-4.0496
X6.5Y-4.1496
X6.5Y-4.2496
X6.5Y-4.3496
X6.5Y-4.4496
X6.5Y-4.5496
X6.5Y-4.6496
X6.5Y-4.7496
X6.5Y-4.8496
X6.5Y-4.9496
X6.5Y-5.0496
X6.5Y-5.4
X6.5Y-5.5
X6.6Y-2.45
X6.6Y-2.55
X6.6Y-2.6496
X6.6Y-2.7496
X6.6Y-2.8496
X6.6Y-2.9496
X6.6Y-3.0496
X6.6Y-3.1496
X6.6Y-3.2496
X6.6Y-3.3496
X6.6Y-3.4496
X6.6Y-3.5496
X6.6Y-3.6496
X6.6Y-3.7496
X6.6Y-3.8496
X6.6Y-3.9496
X6.6Y-4.0496
X6.6Y-4.1496
X6.6Y-4.2496
X6.6Y-4.3496
X6.6Y-4.4496
X6.6Y-4.5496
X6.6Y-4.6496
X6.6Y-4.7496
X6.6Y-4.8496
X6.6Y-4.9496
X6.6Y-5.0496
X6.6Y-5.4
X6.6Y-5.5
X6.7Y-2.45
X6.7Y-2.55
X6.7Y-2.6498
X6.7Y-2.7498
X6.7Y-2.8498
X6.7Y-2.9498
X6.7Y-3.0498
X6.7Y-3.1498
X6.7Y-3.2498
X6.7Y-3.3498
X6.7Y-3.4498
X6.7Y-3.5498
X6.7Y-3.6498
X6.7Y-3.7498
X6.7Y-3.8498
X6.7Y-3.9498
X6.7Y-4.0498
X6.7Y-4.1498
X6.7Y-4.2498
X6.7Y-4.3498
X6.7Y-4.4498
X6.7Y-4.5498
X6.7Y-4.6498
X6.7Y-4.7498
X6.7Y-4.8498
X6.7Y-4.9498
X6.7Y-5.0498
X6.7Y-5.4
X6.7Y-5.5
X6.8Y-2.45
X6.8Y-2.55
X6.8Y-2.6498
X6.8Y-2.7498
X6.8Y-2.8498
X6.8Y-2.9498
X6.8Y-3.0498
X6.8Y-3.1498
X6.8Y-3.2498
X6.8Y-3.3498
X6.8Y-3.4498
X6.8Y-3.5498
X6.8Y-3.6498
X6.8Y-3.7498
X6.8Y-3.8498
X6.8Y-3.9498
X6.8Y-4.0498
X6.8Y-4.1498
X6.8Y-4.2498
X6.8Y-4.3498
X6.8Y-4.4498
X6.8Y-4.5498
X6.8Y-4.6498
X6.8Y-4.7498
X6.8Y-4.8498
X6.8Y-4.9498
X6.8Y-5.0498
X6.8Y-5.4
X6.8Y-5.5
X6.9Y-2.45
X6.9Y-2.55
X6.9Y-2.6498
X6.9Y-2.7498
X6.9Y-2.8498
X6.9Y-2.9498
X6.9Y-3.0498
X6.9Y-3.1498
X6.9Y-3.2498
X6.9Y-3.3498
X6.9Y-3.4498
X6.9Y-3.5498
X6.9Y-3.6498
X6.9Y-3.7498
X6.9Y-3.8498
X6.9Y-3.9498
X6.9Y-4.0498
X6.9Y-4.1498
X6.9Y-4.2498
X6.9Y-4.3498
X6.9Y-4.4498
X6.9Y-4.5498
X6.9Y-4.6498
X6.9Y-4.7498
X6.9Y-4.8498
X6.9Y-4.9498
X6.9Y-5.0498
X6.9Y-5.5
X7.0Y-2.45
X7.0Y-2.55
X7.0Y-2.65
X7.0Y-2.75
X7.0Y-2.85
X7.0Y-2.95
X7.0Y-3.05
X7.0Y-3.15
X7.0Y-3.25
X7.0Y-3.35
X7.0Y-3.45
X7.0Y-3.55
X7.0Y-3.65
X7.0Y-3.75
X7.0Y-3.85
X7.0Y-3.95
X7.0Y-4.05
X7.0Y-4.15
X7.0Y-4.25
X7.0Y-4.35
X7.0Y-4.45
X7.0Y-4.55
X7.0Y-4.65
X7.0Y-4.75
X7.0Y-4.85
X7.0Y-4.95
X7.0Y-5.05
X7.0Y-5.5
X7.1Y-2.45
X7.1Y-2.55
X7.1Y-2.65
X7.1Y-2.75
X7.1Y-2.85
X7.1Y-2.95
X7.1Y-3.05
X7.1Y-3.15
X7.1Y-3.25
X7.1Y-3.35
X7.1Y-3.45
X7.1Y-3.55
X7.1Y-3.65
X7.1Y-3.75
X7.1Y-3.85
X7.1Y-3.95
X7.1Y-4.05
X7.1Y-4.15
X7.1Y-4.25
X7.1Y-4.35
X7.1Y-4.45
X7.1Y-4.55
X7.1Y-4.65
X7.1Y-4.75
X7.1Y-4.85
X7.1Y-4.95
X7.1Y-5.05
X7.1Y-5.5
X7.2Y-2.45
X7.2Y-2.55
X7.2Y-2.65
X7.2Y-2.75
X7.2Y-2.85
X7.2Y-2.95
X7.2Y-3.05
X7.2Y-3.15
X7.2Y-3.25
X7.2Y-3.35
X7.2Y-3.45
X7.2Y-3.55
X7.2Y-3.65
X7.2Y-3.75
X7.2Y-3.85
X7.2Y-3.95
X7.2Y-4.05
X7.2Y-4.15
X7.2Y-4.25
X7.2Y-4.35
X7.2Y-4.45
X7.2Y-4.55
X7.2Y-4.65
X7.2Y-4.75
X7.2Y-4.85
X7.2Y-4.95
X7.2Y-5.05
X7.3Y-2.45
X7.3Y-2.55
X7.3Y-2.65
X7.3Y-2.75
X7.3Y-2.85
X7.3Y-2.95
X7.3Y-3.05
X7.3Y-3.15
X7.3Y-3.25
X7.3Y-3.35
X7.3Y-3.45
X7.3Y-3.55
X7.3Y-3.65
X7.3Y-3.75
X7.3Y-3.85
X7.3Y-3.95
X7.3Y-4.05
X7.3Y-4.15
X7.3Y-4.25
X7.3Y-4.35
X7.3Y-4.45
X7.3Y-4.55
X7.3Y-4.65
X7.3Y-4.75
X7.3Y-4.85
X7.3Y-4.95
X7.3Y-5.05
X7.4Y-2.45
X7.4Y-2.55
X7.4Y-2.65
X7.4Y-2.75
X7.4Y-2.85
X7.4Y-2.95
X7.4Y-3.05
X7.4Y-3.15
X7.4Y-3.25
X7.4Y-3.35
X7.4Y-3.45
X7.4Y-3.55
X7.4Y-3.65
X7.4Y-3.75
X7.4Y-3.85
X7.4Y-3.95
X7.4Y-4.05
X7.4Y-4.15
X7.4Y-4.25
X7.4Y-4.35
X7.4Y-4.45
X7.4Y-4.55
X7.4Y-4.65
X7.4Y-4.75
X7.4Y-4.85
X7.4Y-4.95
X7.4Y-5.05
X7.425Y-5.225
X7.5Y-2.45
X7.5Y-2.55
X7.5Y-2.65
X7.5Y-2.75
X7.5Y-2.85
X7.5Y-2.95
X7.5Y-3.05
X7.5Y-3.15
X7.5Y-3.25
X7.5Y-3.35
X7.5Y-3.45
X7.5Y-3.55
X7.5Y-3.65
X7.5Y-3.75
X7.5Y-3.85
X7.5Y-3.95
X7.5Y-4.05
X7.5Y-4.15
X7.5Y-4.25
X7.5Y-4.35
X7.5Y-4.45
X7.5Y-4.55
X7.5Y-4.65
X7.5Y-4.75
X7.5Y-4.85
X7.5Y-4.95
X7.5Y-5.05
X7.6Y-2.45
X7.6Y-2.55
X7.6Y-2.65
X7.6Y-2.75
X7.6Y-2.85
X7.6Y-2.95
X7.6Y-3.05
X7.6Y-3.15
X7.6Y-3.25
X7.6Y-3.35
X7.6Y-3.45
X7.6Y-3.55
X7.6Y-3.65
X7.6Y-3.75
X7.6Y-3.85
X7.6Y-3.95
X7.6Y-4.05
X7.6Y-4.15
X7.6Y-4.25
X7.6Y-4.35
X7.6Y-4.45
X7.6Y-4.55
X7.6Y-4.65
X7.6Y-4.75
X7.6Y-4.85
X7.6Y-4.95
X7.6Y-5.05
X7.7Y-2.45
X7.7Y-2.55
X7.7Y-2.65
X7.7Y-2.75
X7.7Y-2.85
X7.7Y-2.95
X7.7Y-3.05
X7.7Y-3.15
X7.7Y-3.25
X7.7Y-3.35
X7.7Y-3.45
X7.7Y-3.55
X7.7Y-3.65
X7.7Y-3.75
X7.7Y-3.85
X7.7Y-3.95
X7.7Y-4.05
X7.7Y-4.15
X7.7Y-4.25
X7.7Y-4.35
X7.7Y-4.45
X7.7Y-4.55
X7.7Y-4.65
X7.7Y-4.75
X7.7Y-4.85
X7.7Y-4.95
X7.7Y-5.05
X7.8Y-2.45
X7.8Y-2.55
X7.8Y-2.65
X7.8Y-2.75
X7.8Y-2.85
X7.8Y-2.95
X7.8Y-3.05
X7.8Y-3.15
X7.8Y-3.25
X7.8Y-3.35
X7.8Y-3.45
X7.8Y-3.55
X7.8Y-3.65
X7.8Y-3.75
X7.8Y-3.85
X7.8Y-3.95
X7.8Y-4.05
X7.8Y-4.15
X7.8Y-4.25
X7.8Y-4.35
X7.8Y-4.45
X7.8Y-4.55
X7.8Y-4.65
X7.8Y-4.75
X7.8Y-4.85
X7.8Y-4.95
X7.8Y-5.05
X7.9Y-2.45
X7.9Y-2.55
X7.9Y-2.65
X7.9Y-2.75
X7.9Y-2.85
X7.9Y-2.95
X7.9Y-3.05
X7.9Y-3.15
X7.9Y-3.25
X7.9Y-3.35
X7.9Y-3.45
X7.9Y-3.55
X7.9Y-3.65
X7.9Y-3.75
X7.9Y-3.85
X7.9Y-3.95
X7.9Y-4.05
X7.9Y-4.15
X7.9Y-4.25
X7.9Y-4.35
X7.9Y-4.45
X7.9Y-4.55
X7.9Y-4.65
X7.9Y-4.75
X7.9Y-4.85
X7.9Y-4.95
X7.9Y-5.05
X8.0Y-2.45
X8.0Y-2.55
X8.0Y-2.65
X8.0Y-2.75
X8.0Y-2.85
X8.0Y-2.95
X8.0Y-3.05
X8.0Y-3.15
X8.0Y-3.25
X8.0Y-3.35
X8.0Y-3.45
X8.0Y-3.55
X8.0Y-3.65
X8.0Y-3.75
X8.0Y-3.85
X8.0Y-3.95
X8.0Y-4.05
X8.0Y-4.15
X8.0Y-4.25
X8.0Y-4.35
X8.0Y-4.45
X8.0Y-4.55
X8.0Y-4.65
X8.0Y-4.75
X8.0Y-4.85
X8.0Y-4.95
X8.0Y-5.05
X8.1Y-2.45
X8.1Y-2.55
X8.1Y-2.65
X8.1Y-2.75
X8.1Y-2.85
X8.1Y-2.95
X8.1Y-3.05
X8.1Y-3.15
X8.1Y-3.25
X8.1Y-3.35
X8.1Y-3.45
X8.1Y-3.55
X8.1Y-3.65
X8.1Y-3.75
X8.1Y-3.85
X8.1Y-3.95
X8.1Y-4.05
X8.1Y-4.15
X8.1Y-4.25
X8.1Y-4.35
X8.1Y-4.45
X8.1Y-4.55
X8.1Y-4.65
X8.1Y-4.75
X8.1Y-4.85
X8.1Y-4.95
X8.1Y-5.05
X8.2Y-2.45
X8.2Y-2.55
X8.2Y-2.65
X8.2Y-2.75
X8.2Y-2.85
X8.2Y-2.95
X8.2Y-3.05
X8.2Y-3.15
X8.2Y-3.25
X8.2Y-3.35
X8.2Y-3.45
X8.2Y-3.55
X8.2Y-3.65
X8.2Y-3.75
X8.2Y-3.85
X8.2Y-3.95
X8.2Y-4.05
X8.2Y-4.15
X8.2Y-4.25
X8.2Y-4.35
X8.2Y-4.45
X8.2Y-4.55
X8.2Y-4.65
X8.2Y-4.75
X8.2Y-4.85
X8.2Y-4.95
X8.2Y-5.05
X8.3Y-2.45
X8.3Y-2.55
X8.3Y-2.65
X8.3Y-2.75
X8.3Y-2.85
X8.3Y-2.95
X8.3Y-3.05
X8.3Y-3.15
X8.3Y-3.25
X8.3Y-3.35
X8.3Y-3.45
X8.3Y-3.55
X8.3Y-3.65
X8.3Y-3.75
X8.3Y-3.85
X8.3Y-3.95
X8.3Y-4.05
X8.3Y-4.15
X8.3Y-4.25
X8.3Y-4.35
X8.3Y-4.45
X8.3Y-4.55
X8.3Y-4.65
X8.3Y-4.75
X8.3Y-4.85
X8.3Y-4.95
X8.3Y-5.05
X8.4Y-2.45
X8.4Y-2.55
X8.4Y-2.65
X8.4Y-2.75
X8.4Y-2.85
X8.4Y-2.95
X8.4Y-3.05
X8.4Y-3.15
X8.4Y-3.25
X8.4Y-3.35
X8.4Y-3.45
X8.4Y-3.55
X8.4Y-3.65
X8.4Y-3.75
X8.4Y-3.85
X8.4Y-3.95
X8.4Y-4.05
X8.4Y-4.15
X8.4Y-4.25
X8.4Y-4.35
X8.4Y-4.45
X8.4Y-4.55
X8.4Y-4.65
X8.4Y-4.75
X8.4Y-4.85
X8.4Y-4.95
X8.4Y-5.05
X8.5Y-2.45
X8.5Y-2.55
X8.5Y-2.65
X8.5Y-2.65
X8.5Y-2.75
X8.5Y-2.75
X8.5Y-2.85
X8.5Y-2.85
X8.5Y-2.95
X8.5Y-2.95
X8.5Y-3.05
X8.5Y-3.05
X8.5Y-3.15
X8.5Y-3.15
X8.5Y-3.25
X8.5Y-3.25
X8.5Y-3.35
X8.5Y-3.35
X8.5Y-3.45
X8.5Y-3.45
X8.5Y-3.55
X8.5Y-3.55
X8.5Y-3.65
X8.5Y-3.65
X8.5Y-3.75
X8.5Y-3.75
X8.5Y-3.85
X8.5Y-3.85
X8.5Y-3.95
X8.5Y-3.95
X8.5Y-4.05
X8.5Y-4.05
X8.5Y-4.15
X8.5Y-4.15
X8.5Y-4.25
X8.5Y-4.25
X8.5Y-4.35
X8.5Y-4.35
X8.5Y-4.45
X8.5Y-4.45
X8.5Y-4.55
X8.5Y-4.55
X8.5Y-4.65
X8.5Y-4.65
X8.5Y-4.75
X8.5Y-4.75
X8.5Y-4.85
X8.5Y-4.85
X8.5Y-4.95
X8.5Y-4.95
X8.5Y-5.05
X8.5Y-5.05
X8.6Y-2.45
X8.6Y-2.55
X8.6Y-2.65
X8.6Y-2.75
X8.6Y-2.85
X8.6Y-2.95
X8.6Y-3.05
X8.6Y-3.15
X8.6Y-3.25
X8.6Y-3.35
X8.6Y-3.45
X8.6Y-3.55
X8.6Y-3.65
X8.6Y-3.75
X8.6Y-3.85
X8.6Y-3.95
X8.6Y-4.05
X8.6Y-4.15
X8.6Y-4.25
X8.6Y-4.35
X8.6Y-4.45
X8.6Y-4.55
X8.6Y-4.65
X8.6Y-4.75
X8.6Y-4.85
X8.6Y-4.95
X8.6Y-5.05
X8.7Y-2.45
X8.7Y-2.55
X8.7Y-2.65
X8.7Y-2.75
X8.7Y-2.85
X8.7Y-2.95
X8.7Y-3.05
X8.7Y-3.15
X8.7Y-3.25
X8.7Y-3.35
X8.7Y-3.45
X8.7Y-3.55
X8.7Y-3.65
X8.7Y-3.75
X8.7Y-3.85
X8.7Y-3.95
X8.7Y-4.05
X8.7Y-4.15
X8.7Y-4.25
X8.7Y-4.35
X8.7Y-4.45
X8.7Y-4.55
X8.7Y-4.65
X8.7Y-4.75
X8.7Y-4.85
X8.7Y-4.95
X8.7Y-5.05
X8.8Y-2.45
X8.8Y-2.55
X8.8Y-2.65
X8.8Y-2.75
X8.8Y-2.85
X8.8Y-2.95
X8.8Y-3.05
X8.8Y-3.15
X8.8Y-3.25
X8.8Y-3.35
X8.8Y-3.45
X8.8Y-3.55
X8.8Y-3.65
X8.8Y-3.75
X8.8Y-3.85
X8.8Y-3.95
X8.8Y-4.05
X8.8Y-4.15
X8.8Y-4.25
X8.8Y-4.35
X8.8Y-4.45
X8.8Y-4.55
X8.8Y-4.65
X8.8Y-4.75
X8.8Y-4.85
X8.8Y-4.95
X8.8Y-5.05
X8.9Y-2.45
X8.9Y-2.55
X8.9Y-2.65
X8.9Y-2.75
X8.9Y-2.85
X8.9Y-2.95
X8.9Y-3.05
X8.9Y-3.15
X8.9Y-3.25
X8.9Y-3.35
X8.9Y-3.45
X8.9Y-3.55
X8.9Y-3.65
X8.9Y-3.75
X8.9Y-3.85
X8.9Y-3.95
X8.9Y-4.05
X8.9Y-4.15
X8.9Y-4.25
X8.9Y-4.35
X8.9Y-4.45
X8.9Y-4.55
X8.9Y-4.65
X8.9Y-4.75
X8.9Y-4.85
X8.9Y-4.95
X8.9Y-5.05
X9.0Y-2.45
X9.0Y-2.55
X9.0Y-2.65
X9.0Y-2.75
X9.0Y-2.85
X9.0Y-2.95
X9.0Y-3.05
X9.0Y-3.15
X9.0Y-3.25
X9.0Y-3.35
X9.0Y-3.45
X9.0Y-3.55
X9.0Y-3.65
X9.0Y-3.75
X9.0Y-3.85
X9.0Y-3.95
X9.0Y-4.05
X9.0Y-4.15
X9.0Y-4.25
X9.0Y-4.35
X9.0Y-4.45
X9.0Y-4.55
X9.0Y-4.65
X9.0Y-4.75
X9.0Y-4.85
X9.0Y-4.95
X9.0Y-5.05
X9.1Y-2.45
X9.1Y-2.55
X9.1Y-2.65
X9.1Y-2.75
X9.1Y-2.85
X9.1Y-2.95
X9.1Y-3.05
X9.1Y-3.15
X9.1Y-3.25
X9.1Y-3.35
X9.1Y-3.45
X9.1Y-3.55
X9.1Y-3.65
X9.1Y-3.75
X9.1Y-3.85
X9.1Y-3.95
X9.1Y-4.05
X9.1Y-4.15
X9.1Y-4.25
X9.1Y-4.35
X9.1Y-4.45
X9.1Y-4.55
X9.1Y-4.65
X9.1Y-4.75
X9.1Y-4.85
X9.1Y-4.95
X9.1Y-5.05
X9.2Y-2.45
X9.2Y-2.55
X9.2Y-2.65
X9.2Y-2.75
X9.2Y-2.85
X9.2Y-2.95
X9.2Y-3.05
X9.2Y-3.15
X9.2Y-3.25
X9.2Y-3.35
X9.2Y-3.45
X9.2Y-3.55
X9.2Y-3.65
X9.2Y-3.75
X9.2Y-3.85
X9.2Y-3.95
X9.2Y-4.05
X9.2Y-4.15
X9.2Y-4.25
X9.2Y-4.35
X9.2Y-4.45
X9.2Y-4.55
X9.2Y-4.65
X9.2Y-4.75
X9.2Y-4.85
X9.2Y-4.95
X9.2Y-5.05
X9.3Y-2.45
X9.3Y-2.55
X9.3Y-2.65
X9.3Y-2.75
X9.3Y-2.85
X9.3Y-2.95
X9.3Y-3.05
X9.3Y-3.15
X9.3Y-3.25
X9.3Y-3.35
X9.3Y-3.45
X9.3Y-3.55
X9.3Y-3.65
X9.3Y-3.75
X9.3Y-3.85
X9.3Y-3.95
X9.3Y-4.05
X9.3Y-4.15
X9.3Y-4.25
X9.3Y-4.35
X9.3Y-4.45
X9.3Y-4.55
X9.3Y-4.65
X9.3Y-4.75
X9.3Y-4.85
X9.3Y-4.95
X9.3Y-5.05
X9.4Y-2.45
X9.4Y-2.55
X9.4Y-2.65
X9.4Y-2.75
X9.4Y-2.85
X9.4Y-2.95
X9.4Y-3.05
X9.4Y-3.15
X9.4Y-3.25
X9.4Y-3.35
X9.4Y-3.45
X9.4Y-3.55
X9.4Y-3.65
X9.4Y-3.75
X9.4Y-3.85
X9.4Y-3.95
X9.4Y-4.05
X9.4Y-4.15
X9.4Y-4.25
X9.4Y-4.35
X9.4Y-4.45
X9.4Y-4.55
X9.4Y-4.65
X9.4Y-4.75
X9.4Y-4.85
X9.4Y-4.95
X9.4Y-5.05
X9.5Y-2.45
X9.5Y-2.55
X9.5Y-2.65
X9.5Y-2.75
X9.5Y-2.85
X9.5Y-2.95
X9.5Y-3.05
X9.5Y-3.15
X9.5Y-3.25
X9.5Y-3.35
X9.5Y-3.45
X9.5Y-3.55
X9.5Y-3.65
X9.5Y-3.75
X9.5Y-3.85
X9.5Y-3.95
X9.5Y-4.05
X9.5Y-4.15
X9.5Y-4.25
X9.5Y-4.35
X9.5Y-4.45
X9.5Y-4.55
X9.5Y-4.65
X9.5Y-4.75
X9.5Y-4.85
X9.5Y-4.95
X9.5Y-5.05
X9.6Y-2.45
X9.6Y-2.55
X9.6Y-2.65
X9.6Y-2.75
X9.6Y-2.85
X9.6Y-2.95
X9.6Y-3.05
X9.6Y-3.15
X9.6Y-3.25
X9.6Y-3.35
X9.6Y-3.45
X9.6Y-3.55
X9.6Y-3.65
X9.6Y-3.75
X9.6Y-3.85
X9.6Y-3.95
X9.6Y-4.05
X9.6Y-4.15
X9.6Y-4.25
X9.6Y-4.35
X9.6Y-4.45
X9.6Y-4.55
X9.6Y-4.65
X9.6Y-4.75
X9.6Y-4.85
X9.6Y-4.95
X9.6Y-5.05
X9.7Y-2.45
X9.7Y-2.55
X9.7Y-2.65
X9.7Y-2.75
X9.7Y-2.85
X9.7Y-2.95
X9.7Y-3.05
X9.7Y-3.15
X9.7Y-3.25
X9.7Y-3.35
X9.7Y-3.45
X9.7Y-3.55
X9.7Y-3.65
X9.7Y-3.75
X9.7Y-3.85
X9.7Y-3.95
X9.7Y-4.05
X9.7Y-4.15
X9.7Y-4.25
X9.7Y-4.35
X9.7Y-4.45
X9.7Y-4.55
X9.7Y-4.65
X9.7Y-4.75
X9.7Y-4.85
X9.7Y-4.95
X9.7Y-5.05
X9.8Y-2.45
X9.8Y-2.55
X9.8Y-2.65
X9.8Y-2.75
X9.8Y-2.85
X9.8Y-2.95
X9.8Y-3.05
X9.8Y-3.15
X9.8Y-3.25
X9.8Y-3.35
X9.8Y-3.45
X9.8Y-3.55
X9.8Y-3.65
X9.8Y-3.75
X9.8Y-3.85
X9.8Y-3.95
X9.8Y-4.05
X9.8Y-4.15
X9.8Y-4.25
X9.8Y-4.35
X9.8Y-4.45
X9.8Y-4.55
X9.8Y-4.65
X9.8Y-4.75
X9.8Y-4.85
X9.8Y-4.95
X9.8Y-5.05
X9.9Y-2.45
X9.9Y-2.55
X9.9Y-2.65
X9.9Y-2.75
X9.9Y-2.85
X9.9Y-2.95
X9.9Y-3.05
X9.9Y-3.15
X9.9Y-3.25
X9.9Y-3.35
X9.9Y-3.45
X9.9Y-3.55
X9.9Y-3.65
X9.9Y-3.75
X9.9Y-3.85
X9.9Y-3.95
X9.9Y-4.05
X9.9Y-4.15
X9.9Y-4.25
X9.9Y-4.35
X9.9Y-4.45
X9.9Y-4.55
X9.9Y-4.65
X9.9Y-4.75
X9.9Y-4.85
X9.9Y-4.95
X9.9Y-5.05
X10.0Y-2.45
X10.0Y-2.55
X10.0Y-2.65
X10.0Y-2.75
X10.0Y-2.85
X10.0Y-2.95
X10.0Y-3.05
X10.0Y-3.15
X10.0Y-3.25
X10.0Y-3.35
X10.0Y-3.45
X10.0Y-3.55
X10.0Y-3.65
X10.0Y-3.75
X10.0Y-3.85
X10.0Y-3.95
X10.0Y-4.05
X10.0Y-4.15
X10.0Y-4.25
X10.0Y-4.35
X10.0Y-4.45
X10.0Y-4.55
X10.0Y-4.65
X10.0Y-4.75
X10.0Y-4.85
X10.0Y-4.95
X10.0Y-5.05
X10.1Y-2.45
X10.1Y-2.55
X10.1Y-2.65
X10.1Y-2.75
X10.1Y-2.85
X10.1Y-2.95
X10.1Y-3.05
X10.1Y-3.15
X10.1Y-3.25
X10.1Y-3.35
X10.1Y-3.45
X10.1Y-3.55
X10.1Y-3.65
X10.1Y-3.75
X10.1Y-3.85
X10.1Y-3.95
X10.1Y-4.05
X10.1Y-4.15
X10.1Y-4.25
X10.1Y-4.35
X10.1Y-4.45
X10.1Y-4.55
X10.1Y-4.65
X10.1Y-4.75
X10.1Y-4.85
X10.1Y-4.95
X10.1Y-5.05
X10.2Y-2.45
X10.2Y-2.55
X10.2Y-2.65
X10.2Y-2.75
X10.2Y-2.85
X10.2Y-2.95
X10.2Y-3.05
X10.2Y-3.15
X10.2Y-3.25
X10.2Y-3.35
X10.2Y-3.45
X10.2Y-3.55
X10.2Y-3.65
X10.2Y-3.75
X10.2Y-3.85
X10.2Y-3.95
X10.2Y-4.05
X10.2Y-4.15
X10.2Y-4.25
X10.2Y-4.35
X10.2Y-4.45
X10.2Y-4.55
X10.2Y-4.65
X10.2Y-4.75
X10.2Y-4.85
X10.2Y-4.95
X10.2Y-5.05
X10.3Y-2.45
X10.3Y-2.55
X10.3Y-2.65
X10.3Y-2.75
X10.3Y-2.85
X10.3Y-2.95
X10.3Y-3.05
X10.3Y-3.15
X10.3Y-3.25
X10.3Y-3.35
X10.3Y-3.45
X10.3Y-3.55
X10.3Y-3.65
X10.3Y-3.75
X10.3Y-3.85
X10.3Y-3.95
X10.3Y-4.05
X10.3Y-4.15
X10.3Y-4.25
X10.3Y-4.35
X10.3Y-4.45
X10.3Y-4.55
X10.3Y-4.65
X10.3Y-4.75
X10.3Y-4.85
X10.3Y-4.95
X10.3Y-5.05
X10.4Y-2.45
X10.4Y-2.55
X10.4Y-2.65
X10.4Y-2.75
X10.4Y-2.85
X10.4Y-2.95
X10.4Y-3.05
X10.4Y-3.15
X10.4Y-3.25
X10.4Y-3.35
X10.4Y-3.45
X10.4Y-3.55
X10.4Y-3.65
X10.4Y-3.75
X10.4Y-3.85
X10.4Y-3.95
X10.4Y-4.05
X10.4Y-4.15
X10.4Y-4.25
X10.4Y-4.35
X10.4Y-4.45
X10.4Y-4.55
X10.4Y-4.65
X10.4Y-4.75
X10.4Y-4.85
X10.4Y-4.95
X10.4Y-5.05
X10.5Y-2.45
X10.5Y-2.55
X10.5Y-2.65
X10.5Y-2.75
X10.5Y-2.85
X10.5Y-2.95
X10.5Y-3.05
X10.5Y-3.15
X10.5Y-3.25
X10.5Y-3.35
X10.5Y-3.45
X10.5Y-3.55
X10.5Y-3.65
X10.5Y-3.75
X10.5Y-3.85
X10.5Y-3.95
X10.5Y-4.05
X10.5Y-4.15
X10.5Y-4.25
X10.5Y-4.35
X10.5Y-4.45
X10.5Y-4.55
X10.5Y-4.65
X10.5Y-4.75
X10.5Y-4.85
X10.5Y-4.95
X10.5Y-5.05
X10.6Y-2.45
X10.6Y-2.55
X10.6Y-2.65
X10.6Y-2.75
X10.6Y-2.85
X10.6Y-2.95
X10.6Y-3.05
X10.6Y-3.15
X10.6Y-3.25
X10.6Y-3.35
X10.6Y-3.45
X10.6Y-3.55
X10.6Y-3.65
X10.6Y-3.75
X10.6Y-3.85
X10.6Y-3.95
X10.6Y-4.05
X10.6Y-4.15
X10.6Y-4.25
X10.6Y-4.35
X10.6Y-4.45
X10.6Y-4.55
X10.6Y-4.65
X10.6Y-4.75
X10.6Y-4.85
X10.6Y-4.95
X10.6Y-5.05
X10.7Y-2.45
X10.7Y-2.55
X10.7Y-2.65
X10.7Y-2.75
X10.7Y-2.85
X10.7Y-2.95
X10.7Y-3.05
X10.7Y-3.15
X10.7Y-3.25
X10.7Y-3.35
X10.7Y-3.45
X10.7Y-3.55
X10.7Y-3.65
X10.7Y-3.75
X10.7Y-3.85
X10.7Y-3.95
X10.7Y-4.05
X10.7Y-4.15
X10.7Y-4.25
X10.7Y-4.35
X10.7Y-4.45
X10.7Y-4.55
X10.7Y-4.65
X10.7Y-4.75
X10.7Y-4.85
X10.7Y-4.95
X10.7Y-5.05
X10.8Y-2.45
X10.8Y-2.55
X10.8Y-2.65
X10.8Y-2.75
X10.8Y-2.85
X10.8Y-2.95
X10.8Y-3.05
X10.8Y-3.15
X10.8Y-3.25
X10.8Y-3.35
X10.8Y-3.45
X10.8Y-3.55
X10.8Y-3.65
X10.8Y-3.75
X10.8Y-3.85
X10.8Y-3.95
X10.8Y-4.05
X10.8Y-4.15
X10.8Y-4.25
X10.8Y-4.35
X10.8Y-4.45
X10.8Y-4.55
X10.8Y-4.65
X10.8Y-4.75
X10.8Y-4.85
X10.8Y-4.95
X10.8Y-5.05
X10.9Y-2.45
X10.9Y-2.55
X10.9Y-2.65
X10.9Y-2.75
X10.9Y-2.85
X10.9Y-2.95
X10.9Y-3.05
X10.9Y-3.15
X10.9Y-3.25
X10.9Y-3.35
X10.9Y-3.45
X10.9Y-3.55
X10.9Y-3.65
X10.9Y-3.75
X10.9Y-3.85
X10.9Y-3.95
X10.9Y-4.05
X10.9Y-4.15
X10.9Y-4.25
X10.9Y-4.35
X10.9Y-4.45
X10.9Y-4.55
X10.9Y-4.65
X10.9Y-4.75
X10.9Y-4.85
X10.9Y-4.95
X10.9Y-5.05
X11.0Y-2.45
X11.0Y-2.55
X11.0Y-2.65
X11.0Y-2.75
X11.0Y-2.85
X11.0Y-2.95
X11.0Y-3.05
X11.0Y-3.15
X11.0Y-3.25
X11.0Y-3.35
X11.0Y-3.45
X11.0Y-3.55
X11.0Y-3.65
X11.0Y-3.75
X11.0Y-3.85
X11.0Y-3.95
X11.0Y-4.05
X11.0Y-4.15
X11.0Y-4.25
X11.0Y-4.35
X11.0Y-4.45
X11.0Y-4.55
X11.0Y-4.65
X11.0Y-4.75
X11.0Y-4.85
X11.0Y-4.95
X11.0Y-5.05
X11.1Y-2.45
X11.1Y-2.55
X11.1Y-2.65
X11.1Y-2.75
X11.1Y-2.85
X11.1Y-2.95
X11.1Y-3.05
X11.1Y-3.15
X11.1Y-3.25
X11.1Y-3.35
X11.1Y-3.45
X11.1Y-3.55
X11.1Y-3.65
X11.1Y-3.75
X11.1Y-3.85
X11.1Y-3.95
X11.1Y-4.05
X11.1Y-4.15
X11.1Y-4.25
X11.1Y-4.35
X11.1Y-4.45
X11.1Y-4.55
X11.1Y-4.65
X11.1Y-4.75
X11.1Y-4.85
X11.1Y-4.95
X11.1Y-5.05
X11.2Y-2.45
X11.2Y-2.55
X11.2Y-2.65
X11.2Y-2.75
X11.2Y-2.85
X11.2Y-2.95
X11.2Y-3.05
X11.2Y-3.15
X11.2Y-3.25
X11.2Y-3.35
X11.2Y-3.45
X11.2Y-3.55
X11.2Y-3.65
X11.2Y-3.75
X11.2Y-3.85
X11.2Y-3.95
X11.2Y-4.05
X11.2Y-4.15
X11.2Y-4.25
X11.2Y-4.35
X11.2Y-4.45
X11.2Y-4.55
X11.2Y-4.65
X11.2Y-4.75
X11.2Y-4.85
X11.2Y-4.95
X11.2Y-5.05
X11.3Y-2.45
X11.3Y-2.55
X11.3Y-2.65
X11.3Y-2.75
X11.3Y-2.85
X11.3Y-2.95
X11.3Y-3.05
X11.3Y-3.15
X11.3Y-3.25
X11.3Y-3.35
X11.3Y-3.45
X11.3Y-3.55
X11.3Y-3.65
X11.3Y-3.75
X11.3Y-3.85
X11.3Y-3.95
X11.3Y-4.05
X11.3Y-4.15
X11.3Y-4.25
X11.3Y-4.35
X11.3Y-4.45
X11.3Y-4.55
X11.3Y-4.65
X11.3Y-4.75
X11.3Y-4.85
X11.3Y-4.95
X11.3Y-5.05
X11.4Y-2.45
X11.4Y-2.55
X11.4Y-2.65
X11.4Y-2.75
X11.4Y-2.85
X11.4Y-2.95
X11.4Y-3.05
X11.4Y-3.15
X11.4Y-3.25
X11.4Y-3.35
X11.4Y-3.45
X11.4Y-3.55
X11.4Y-3.65
X11.4Y-3.75
X11.4Y-3.85
X11.4Y-3.95
X11.4Y-4.05
X11.4Y-4.15
X11.4Y-4.25
X11.4Y-4.35
X11.4Y-4.45
X11.4Y-4.55
X11.4Y-4.65
X11.4Y-4.75
X11.4Y-4.85
X11.4Y-4.95
X11.4Y-5.05
X11.5Y-2.45
X11.5Y-2.55
X11.5Y-2.65
X11.5Y-2.75
X11.5Y-2.85
X11.5Y-2.95
X11.5Y-3.05
X11.5Y-3.15
X11.5Y-3.25
X11.5Y-3.35
X11.5Y-3.45
X11.5Y-3.55
X11.5Y-3.65
X11.5Y-3.75
X11.5Y-3.85
X11.5Y-3.95
X11.5Y-4.05
X11.5Y-4.15
X11.5Y-4.25
X11.5Y-4.35
X11.5Y-4.45
X11.5Y-4.55
X11.5Y-4.65
X11.5Y-4.75
X11.5Y-4.85
X11.5Y-4.95
X11.5Y-5.05
X11.6Y-2.45
X11.6Y-2.55
X11.6Y-2.65
X11.6Y-2.75
X11.6Y-2.85
X11.6Y-2.95
X11.6Y-3.05
X11.6Y-3.15
X11.6Y-3.25
X11.6Y-3.35
X11.6Y-3.45
X11.6Y-3.55
X11.6Y-3.65
X11.6Y-3.75
X11.6Y-3.85
X11.6Y-3.95
X11.6Y-4.05
X11.6Y-4.15
X11.6Y-4.25
X11.6Y-4.35
X11.6Y-4.45
X11.6Y-4.55
X11.6Y-4.65
X11.6Y-4.75
X11.6Y-4.85
X11.6Y-4.95
X11.6Y-5.05
T4
X2.95Y-5.45
X7.35Y-5.45
T0
M30
