%TF.GenerationSoftware,KiCad,Pcbnew,7.0.5*%
%TF.CreationDate,2024-08-12T05:07:02-04:00*%
%TF.ProjectId,smaller_card,736d616c-6c65-4725-9f63-6172642e6b69,rev?*%
%TF.SameCoordinates,Original*%
%TF.FileFunction,Soldermask,Bot*%
%TF.FilePolarity,Negative*%
%FSLAX46Y46*%
G04 Gerber Fmt 4.6, Leading zero omitted, Abs format (unit mm)*
G04 Created by KiCad (PCBNEW 7.0.5) date 2024-08-12 05:07:02*
%MOMM*%
%LPD*%
G01*
G04 APERTURE LIST*
G04 Aperture macros list*
%AMRoundRect*
0 Rectangle with rounded corners*
0 $1 Rounding radius*
0 $2 $3 $4 $5 $6 $7 $8 $9 X,Y pos of 4 corners*
0 Add a 4 corners polygon primitive as box body*
4,1,4,$2,$3,$4,$5,$6,$7,$8,$9,$2,$3,0*
0 Add four circle primitives for the rounded corners*
1,1,$1+$1,$2,$3*
1,1,$1+$1,$4,$5*
1,1,$1+$1,$6,$7*
1,1,$1+$1,$8,$9*
0 Add four rect primitives between the rounded corners*
20,1,$1+$1,$2,$3,$4,$5,0*
20,1,$1+$1,$4,$5,$6,$7,0*
20,1,$1+$1,$6,$7,$8,$9,0*
20,1,$1+$1,$8,$9,$2,$3,0*%
G04 Aperture macros list end*
%ADD10R,1.700000X1.700000*%
%ADD11O,1.700000X1.700000*%
%ADD12R,1.600000X1.600000*%
%ADD13O,1.600000X1.600000*%
%ADD14RoundRect,0.237500X0.237500X-0.250000X0.237500X0.250000X-0.237500X0.250000X-0.237500X-0.250000X0*%
%ADD15RoundRect,0.237500X-0.237500X0.250000X-0.237500X-0.250000X0.237500X-0.250000X0.237500X0.250000X0*%
%ADD16RoundRect,0.250000X0.325000X0.650000X-0.325000X0.650000X-0.325000X-0.650000X0.325000X-0.650000X0*%
%ADD17RoundRect,0.250000X-0.650000X0.325000X-0.650000X-0.325000X0.650000X-0.325000X0.650000X0.325000X0*%
%ADD18RoundRect,0.250000X-0.312500X-0.625000X0.312500X-0.625000X0.312500X0.625000X-0.312500X0.625000X0*%
%ADD19RoundRect,0.237500X0.250000X0.237500X-0.250000X0.237500X-0.250000X-0.237500X0.250000X-0.237500X0*%
%ADD20RoundRect,0.237500X-0.250000X-0.237500X0.250000X-0.237500X0.250000X0.237500X-0.250000X0.237500X0*%
%ADD21RoundRect,0.237500X-0.008839X-0.344715X0.344715X0.008839X0.008839X0.344715X-0.344715X-0.008839X0*%
%ADD22RoundRect,0.237500X-0.287500X-0.237500X0.287500X-0.237500X0.287500X0.237500X-0.287500X0.237500X0*%
%ADD23RoundRect,0.237500X0.287500X0.237500X-0.287500X0.237500X-0.287500X-0.237500X0.287500X-0.237500X0*%
G04 APERTURE END LIST*
D10*
%TO.C,J29*%
X188595000Y-132715000D03*
%TD*%
%TO.C,J12*%
X85725000Y-85090000D03*
D11*
X85725000Y-82550000D03*
X85725000Y-80010000D03*
%TD*%
D10*
%TO.C,J18*%
X84455000Y-89535000D03*
%TD*%
D12*
%TO.C,U5*%
X129540000Y-74930000D03*
D13*
X132080000Y-74930000D03*
X134620000Y-74930000D03*
X137160000Y-74930000D03*
X139700000Y-74930000D03*
X142240000Y-74930000D03*
X144780000Y-74930000D03*
X144780000Y-67310000D03*
X142240000Y-67310000D03*
X139700000Y-67310000D03*
X137160000Y-67310000D03*
X134620000Y-67310000D03*
X132080000Y-67310000D03*
X129540000Y-67310000D03*
%TD*%
D10*
%TO.C,J42*%
X134620000Y-64770000D03*
D11*
X137160000Y-64770000D03*
X139700000Y-64770000D03*
X142240000Y-64770000D03*
X144780000Y-64770000D03*
X147320000Y-64770000D03*
X149860000Y-64770000D03*
X152400000Y-64770000D03*
X154940000Y-64770000D03*
X157480000Y-64770000D03*
X160020000Y-64770000D03*
X162560000Y-64770000D03*
X165100000Y-64770000D03*
X167640000Y-64770000D03*
X170180000Y-64770000D03*
X172720000Y-64770000D03*
X175260000Y-64770000D03*
X177800000Y-64770000D03*
X180340000Y-64770000D03*
X182880000Y-64770000D03*
X185420000Y-64770000D03*
X187960000Y-64770000D03*
X190500000Y-64770000D03*
X193040000Y-64770000D03*
X195580000Y-64770000D03*
X198120000Y-64770000D03*
X200660000Y-64770000D03*
X203200000Y-64770000D03*
X205740000Y-64770000D03*
X208280000Y-64770000D03*
X210820000Y-64770000D03*
X213360000Y-64770000D03*
%TD*%
D10*
%TO.C,J41*%
X134620000Y-62230000D03*
D11*
X137160000Y-62230000D03*
X139700000Y-62230000D03*
X142240000Y-62230000D03*
X144780000Y-62230000D03*
X147320000Y-62230000D03*
X149860000Y-62230000D03*
X152400000Y-62230000D03*
X154940000Y-62230000D03*
X157480000Y-62230000D03*
X160020000Y-62230000D03*
X162560000Y-62230000D03*
X165100000Y-62230000D03*
X167640000Y-62230000D03*
X170180000Y-62230000D03*
X172720000Y-62230000D03*
X175260000Y-62230000D03*
X177800000Y-62230000D03*
X180340000Y-62230000D03*
X182880000Y-62230000D03*
X185420000Y-62230000D03*
X187960000Y-62230000D03*
X190500000Y-62230000D03*
X193040000Y-62230000D03*
X195580000Y-62230000D03*
X198120000Y-62230000D03*
X200660000Y-62230000D03*
X203200000Y-62230000D03*
X205740000Y-62230000D03*
X208280000Y-62230000D03*
X210820000Y-62230000D03*
X213360000Y-62230000D03*
%TD*%
D10*
%TO.C,J40*%
X88900000Y-110490000D03*
%TD*%
%TO.C,J39*%
X88900000Y-95250000D03*
%TD*%
%TO.C,J38*%
X114300000Y-120650000D03*
%TD*%
%TO.C,J37*%
X114300000Y-118110000D03*
%TD*%
%TO.C,J36*%
X119380000Y-107950000D03*
%TD*%
%TO.C,J35*%
X139700000Y-107950000D03*
%TD*%
%TO.C,J34*%
X123190000Y-129540000D03*
%TD*%
%TO.C,J33*%
X146050000Y-125730000D03*
%TD*%
%TO.C,J32*%
X215900000Y-62230000D03*
D11*
X218440000Y-62230000D03*
X220980000Y-62230000D03*
X223520000Y-62230000D03*
X226060000Y-62230000D03*
X228600000Y-62230000D03*
X231140000Y-62230000D03*
X233680000Y-62230000D03*
X236220000Y-62230000D03*
X238760000Y-62230000D03*
X241300000Y-62230000D03*
X243840000Y-62230000D03*
X246380000Y-62230000D03*
X248920000Y-62230000D03*
X251460000Y-62230000D03*
X254000000Y-62230000D03*
X256540000Y-62230000D03*
X259080000Y-62230000D03*
X261620000Y-62230000D03*
X264160000Y-62230000D03*
X266700000Y-62230000D03*
X269240000Y-62230000D03*
X271780000Y-62230000D03*
X274320000Y-62230000D03*
X276860000Y-62230000D03*
X279400000Y-62230000D03*
X281940000Y-62230000D03*
X284480000Y-62230000D03*
X287020000Y-62230000D03*
X289560000Y-62230000D03*
X292100000Y-62230000D03*
X294640000Y-62230000D03*
%TD*%
D10*
%TO.C,J31*%
X215900000Y-64770000D03*
D11*
X218440000Y-64770000D03*
X220980000Y-64770000D03*
X223520000Y-64770000D03*
X226060000Y-64770000D03*
X228600000Y-64770000D03*
X231140000Y-64770000D03*
X233680000Y-64770000D03*
X236220000Y-64770000D03*
X238760000Y-64770000D03*
X241300000Y-64770000D03*
X243840000Y-64770000D03*
X246380000Y-64770000D03*
X248920000Y-64770000D03*
X251460000Y-64770000D03*
X254000000Y-64770000D03*
X256540000Y-64770000D03*
X259080000Y-64770000D03*
X261620000Y-64770000D03*
X264160000Y-64770000D03*
X266700000Y-64770000D03*
X269240000Y-64770000D03*
X271780000Y-64770000D03*
X274320000Y-64770000D03*
X276860000Y-64770000D03*
X279400000Y-64770000D03*
X281940000Y-64770000D03*
X284480000Y-64770000D03*
X287020000Y-64770000D03*
X289560000Y-64770000D03*
X292100000Y-64770000D03*
X294640000Y-64770000D03*
%TD*%
D10*
%TO.C,JCol1*%
X152400000Y-67315000D03*
D11*
X152400000Y-69855000D03*
X152400000Y-72395000D03*
X152400000Y-74935000D03*
X152400000Y-77475000D03*
X152400000Y-80015000D03*
X152400000Y-82555000D03*
X152400000Y-85095000D03*
X152400000Y-87635000D03*
X152400000Y-90175000D03*
X152400000Y-92715000D03*
X152400000Y-95255000D03*
X152400000Y-97795000D03*
X152400000Y-100335000D03*
X152400000Y-102875000D03*
X152400000Y-105415000D03*
X152400000Y-107955000D03*
X152400000Y-110495000D03*
X152400000Y-113035000D03*
X152400000Y-115575000D03*
X152400000Y-118115000D03*
X152400000Y-120655000D03*
X152400000Y-123195000D03*
X152400000Y-125735000D03*
X152400000Y-128275000D03*
%TD*%
D10*
%TO.C,CONNECTIONS1*%
X149860000Y-67310000D03*
D11*
X149860000Y-69850000D03*
X149860000Y-72390000D03*
X149860000Y-74930000D03*
X149860000Y-77470000D03*
X149860000Y-80010000D03*
X149860000Y-82550000D03*
X149860000Y-85090000D03*
X149860000Y-87630000D03*
X149860000Y-90170000D03*
X149860000Y-92710000D03*
X149860000Y-95250000D03*
X149860000Y-97790000D03*
X149860000Y-100330000D03*
X149860000Y-102870000D03*
X149860000Y-105410000D03*
X149860000Y-107950000D03*
X149860000Y-110490000D03*
X149860000Y-113030000D03*
X149860000Y-115570000D03*
X149860000Y-118110000D03*
X149860000Y-120650000D03*
X149860000Y-123190000D03*
X149860000Y-125730000D03*
X149860000Y-128270000D03*
%TD*%
D10*
%TO.C,3V3*%
X170180000Y-137160000D03*
%TD*%
%TO.C,RST*%
X172720000Y-137160000D03*
%TD*%
%TO.C,J28*%
X132080000Y-77470000D03*
%TD*%
D14*
%TO.C,r86*%
X114300000Y-73937500D03*
X114300000Y-72112500D03*
%TD*%
%TO.C,r85*%
X116840000Y-73937500D03*
X116840000Y-72112500D03*
%TD*%
%TO.C,r84*%
X119380000Y-73937500D03*
X119380000Y-72112500D03*
%TD*%
%TO.C,r83*%
X121920000Y-73937500D03*
X121920000Y-72112500D03*
%TD*%
%TO.C,r82*%
X124460000Y-73937500D03*
X124460000Y-72112500D03*
%TD*%
D10*
%TO.C,J27*%
X111760000Y-67310000D03*
%TD*%
%TO.C,J26*%
X106680000Y-67310000D03*
%TD*%
%TO.C,J16*%
X93980000Y-67310000D03*
%TD*%
%TO.C,J25*%
X91440000Y-87630000D03*
%TD*%
%TO.C,J24*%
X96520000Y-67310000D03*
%TD*%
%TO.C,J23*%
X93980000Y-87630000D03*
%TD*%
%TO.C,J22*%
X104140000Y-67310000D03*
%TD*%
%TO.C,J21*%
X109220000Y-67310000D03*
%TD*%
%TO.C,J20*%
X101600000Y-67310000D03*
%TD*%
%TO.C,J19*%
X99060000Y-67310000D03*
%TD*%
%TO.C,J17*%
X96520000Y-87630000D03*
D11*
X99060000Y-87630000D03*
X101600000Y-87630000D03*
X104140000Y-87630000D03*
X106680000Y-87630000D03*
X109220000Y-87630000D03*
X111760000Y-87630000D03*
X114300000Y-87630000D03*
%TD*%
D12*
%TO.C,U4*%
X91440000Y-85090000D03*
D13*
X93980000Y-85090000D03*
X96520000Y-85090000D03*
X99060000Y-85090000D03*
X101600000Y-85090000D03*
X104140000Y-85090000D03*
X106680000Y-85090000D03*
X109220000Y-85090000D03*
X111760000Y-85090000D03*
X114300000Y-85090000D03*
X116840000Y-85090000D03*
X119380000Y-85090000D03*
X121920000Y-85090000D03*
X124460000Y-85090000D03*
X124460000Y-69850000D03*
X121920000Y-69850000D03*
X119380000Y-69850000D03*
X116840000Y-69850000D03*
X114300000Y-69850000D03*
X111760000Y-69850000D03*
X109220000Y-69850000D03*
X106680000Y-69850000D03*
X104140000Y-69850000D03*
X101600000Y-69850000D03*
X99060000Y-69850000D03*
X96520000Y-69850000D03*
X93980000Y-69850000D03*
X91440000Y-69850000D03*
%TD*%
D15*
%TO.C,r73*%
X122428000Y-82700500D03*
X122428000Y-80875500D03*
%TD*%
%TO.C,r72*%
X119380000Y-82700500D03*
X119380000Y-80875500D03*
%TD*%
%TO.C,r71*%
X116840000Y-82700500D03*
X116840000Y-80875500D03*
%TD*%
%TO.C,r69*%
X96520000Y-72112500D03*
X96520000Y-73937500D03*
%TD*%
%TO.C,r67*%
X104140000Y-72112500D03*
X104140000Y-73937500D03*
%TD*%
%TO.C,r66*%
X109220000Y-73937500D03*
X109220000Y-72112500D03*
%TD*%
%TO.C,r65*%
X101600000Y-73937500D03*
X101600000Y-72112500D03*
%TD*%
%TO.C,r64*%
X99060000Y-72112500D03*
X99060000Y-73937500D03*
%TD*%
D10*
%TO.C,J15*%
X81280000Y-78740000D03*
D11*
X81280000Y-76200000D03*
X81280000Y-73660000D03*
X81280000Y-71120000D03*
X81280000Y-68580000D03*
X81280000Y-66040000D03*
X81280000Y-63500000D03*
X81280000Y-60960000D03*
%TD*%
D10*
%TO.C,J14*%
X162560000Y-137160000D03*
D11*
X165100000Y-137160000D03*
X167640000Y-137160000D03*
%TD*%
D10*
%TO.C,J13*%
X147320000Y-72390000D03*
D11*
X147320000Y-69850000D03*
X147320000Y-67310000D03*
%TD*%
D16*
%TO.C,C4*%
X134620000Y-87630000D03*
X131670000Y-87630000D03*
%TD*%
D17*
%TO.C,C3*%
X130810000Y-81075000D03*
X130810000Y-84025000D03*
%TD*%
D18*
%TO.C,5V_rsns3*%
X137160000Y-87630000D03*
X140085000Y-87630000D03*
%TD*%
%TO.C,5V_rsns2*%
X142047500Y-87630000D03*
X144972500Y-87630000D03*
%TD*%
D19*
%TO.C,r3*%
X78382500Y-92710000D03*
X76557500Y-92710000D03*
%TD*%
D20*
%TO.C,r55*%
X76557500Y-90170000D03*
X78382500Y-90170000D03*
%TD*%
%TO.C,r54*%
X76557500Y-87630000D03*
X78382500Y-87630000D03*
%TD*%
D21*
%TO.C,r53*%
X76570765Y-84973235D03*
X77861235Y-83682765D03*
%TD*%
D22*
%TO.C,D40*%
X72785000Y-85090000D03*
X74535000Y-85090000D03*
%TD*%
%TO.C,D39*%
X72785000Y-90170000D03*
X74535000Y-90170000D03*
%TD*%
%TO.C,D38*%
X72785000Y-87630000D03*
X74535000Y-87630000D03*
%TD*%
D11*
%TO.C,J11*%
X96520000Y-92710000D03*
X99060000Y-92710000D03*
X101600000Y-92710000D03*
D10*
X104140000Y-92710000D03*
%TD*%
%TO.C,J10*%
X96530000Y-110490000D03*
D11*
X99070000Y-110490000D03*
X101610000Y-110490000D03*
X104150000Y-110490000D03*
%TD*%
D10*
%TO.C,J9*%
X104140000Y-113030000D03*
D11*
X101600000Y-113030000D03*
X99060000Y-113030000D03*
X96520000Y-113030000D03*
%TD*%
D10*
%TO.C,J8*%
X124460000Y-112395000D03*
D11*
X121920000Y-112395000D03*
X119380000Y-112395000D03*
X116840000Y-112395000D03*
%TD*%
D10*
%TO.C,J7*%
X134610000Y-95250000D03*
D11*
X132070000Y-95250000D03*
X129530000Y-95250000D03*
X126990000Y-95250000D03*
%TD*%
D10*
%TO.C,J6*%
X127010000Y-107950000D03*
D11*
X129550000Y-107950000D03*
X132090000Y-107950000D03*
X134630000Y-107950000D03*
%TD*%
%TO.C,J5*%
X139700000Y-115570000D03*
X137160000Y-115570000D03*
X134620000Y-115570000D03*
X132080000Y-115570000D03*
X129540000Y-115570000D03*
X127000000Y-115570000D03*
X124460000Y-115570000D03*
D10*
X121920000Y-115570000D03*
%TD*%
%TO.C,JCol3*%
X160020000Y-67295000D03*
D11*
X160020000Y-69835000D03*
X160020000Y-72375000D03*
X160020000Y-74915000D03*
X160020000Y-77455000D03*
X160020000Y-79995000D03*
X160020000Y-82535000D03*
X160020000Y-85075000D03*
X160020000Y-87615000D03*
X160020000Y-90155000D03*
X160020000Y-92695000D03*
X160020000Y-95235000D03*
X160020000Y-97775000D03*
X160020000Y-100315000D03*
X160020000Y-102855000D03*
X160020000Y-105395000D03*
X160020000Y-107935000D03*
X160020000Y-110475000D03*
X160020000Y-113015000D03*
X160020000Y-115555000D03*
X160020000Y-118095000D03*
X160020000Y-120635000D03*
X160020000Y-123175000D03*
X160020000Y-125715000D03*
X160020000Y-128255000D03*
%TD*%
D10*
%TO.C,JCol2*%
X157480000Y-67295000D03*
D11*
X157480000Y-69835000D03*
X157480000Y-72375000D03*
X157480000Y-74915000D03*
X157480000Y-77455000D03*
X157480000Y-79995000D03*
X157480000Y-82535000D03*
X157480000Y-85075000D03*
X157480000Y-87615000D03*
X157480000Y-90155000D03*
X157480000Y-92695000D03*
X157480000Y-95235000D03*
X157480000Y-97775000D03*
X157480000Y-100315000D03*
X157480000Y-102855000D03*
X157480000Y-105395000D03*
X157480000Y-107935000D03*
X157480000Y-110475000D03*
X157480000Y-113015000D03*
X157480000Y-115555000D03*
X157480000Y-118095000D03*
X157480000Y-120635000D03*
X157480000Y-123175000D03*
X157480000Y-125715000D03*
X157480000Y-128255000D03*
%TD*%
D10*
%TO.C,JCol1*%
X154940000Y-67295000D03*
D11*
X154940000Y-69835000D03*
X154940000Y-72375000D03*
X154940000Y-74915000D03*
X154940000Y-77455000D03*
X154940000Y-79995000D03*
X154940000Y-82535000D03*
X154940000Y-85075000D03*
X154940000Y-87615000D03*
X154940000Y-90155000D03*
X154940000Y-92695000D03*
X154940000Y-95235000D03*
X154940000Y-97775000D03*
X154940000Y-100315000D03*
X154940000Y-102855000D03*
X154940000Y-105395000D03*
X154940000Y-107935000D03*
X154940000Y-110475000D03*
X154940000Y-113015000D03*
X154940000Y-115555000D03*
X154940000Y-118095000D03*
X154940000Y-120635000D03*
X154940000Y-123175000D03*
X154940000Y-125715000D03*
X154940000Y-128255000D03*
%TD*%
D10*
%TO.C,JCol3*%
X167640000Y-67300000D03*
D11*
X167640000Y-69840000D03*
X167640000Y-72380000D03*
X167640000Y-74920000D03*
X167640000Y-77460000D03*
X167640000Y-80000000D03*
X167640000Y-82540000D03*
X167640000Y-85080000D03*
X167640000Y-87620000D03*
X167640000Y-90160000D03*
X167640000Y-92700000D03*
X167640000Y-95240000D03*
X167640000Y-97780000D03*
X167640000Y-100320000D03*
X167640000Y-102860000D03*
X167640000Y-105400000D03*
X167640000Y-107940000D03*
X167640000Y-110480000D03*
X167640000Y-113020000D03*
X167640000Y-115560000D03*
X167640000Y-118100000D03*
X167640000Y-120640000D03*
X167640000Y-123180000D03*
X167640000Y-125720000D03*
X167640000Y-128260000D03*
%TD*%
D10*
%TO.C,JCol2*%
X165100000Y-67300000D03*
D11*
X165100000Y-69840000D03*
X165100000Y-72380000D03*
X165100000Y-74920000D03*
X165100000Y-77460000D03*
X165100000Y-80000000D03*
X165100000Y-82540000D03*
X165100000Y-85080000D03*
X165100000Y-87620000D03*
X165100000Y-90160000D03*
X165100000Y-92700000D03*
X165100000Y-95240000D03*
X165100000Y-97780000D03*
X165100000Y-100320000D03*
X165100000Y-102860000D03*
X165100000Y-105400000D03*
X165100000Y-107940000D03*
X165100000Y-110480000D03*
X165100000Y-113020000D03*
X165100000Y-115560000D03*
X165100000Y-118100000D03*
X165100000Y-120640000D03*
X165100000Y-123180000D03*
X165100000Y-125720000D03*
X165100000Y-128260000D03*
%TD*%
D10*
%TO.C,JCol1*%
X162560000Y-67300000D03*
D11*
X162560000Y-69840000D03*
X162560000Y-72380000D03*
X162560000Y-74920000D03*
X162560000Y-77460000D03*
X162560000Y-80000000D03*
X162560000Y-82540000D03*
X162560000Y-85080000D03*
X162560000Y-87620000D03*
X162560000Y-90160000D03*
X162560000Y-92700000D03*
X162560000Y-95240000D03*
X162560000Y-97780000D03*
X162560000Y-100320000D03*
X162560000Y-102860000D03*
X162560000Y-105400000D03*
X162560000Y-107940000D03*
X162560000Y-110480000D03*
X162560000Y-113020000D03*
X162560000Y-115560000D03*
X162560000Y-118100000D03*
X162560000Y-120640000D03*
X162560000Y-123180000D03*
X162560000Y-125720000D03*
X162560000Y-128260000D03*
%TD*%
D10*
%TO.C,JCol3*%
X175260000Y-67305000D03*
D11*
X175260000Y-69845000D03*
X175260000Y-72385000D03*
X175260000Y-74925000D03*
X175260000Y-77465000D03*
X175260000Y-80005000D03*
X175260000Y-82545000D03*
X175260000Y-85085000D03*
X175260000Y-87625000D03*
X175260000Y-90165000D03*
X175260000Y-92705000D03*
X175260000Y-95245000D03*
X175260000Y-97785000D03*
X175260000Y-100325000D03*
X175260000Y-102865000D03*
X175260000Y-105405000D03*
X175260000Y-107945000D03*
X175260000Y-110485000D03*
X175260000Y-113025000D03*
X175260000Y-115565000D03*
X175260000Y-118105000D03*
X175260000Y-120645000D03*
X175260000Y-123185000D03*
X175260000Y-125725000D03*
X175260000Y-128265000D03*
%TD*%
D10*
%TO.C,JCol2*%
X172720000Y-67305000D03*
D11*
X172720000Y-69845000D03*
X172720000Y-72385000D03*
X172720000Y-74925000D03*
X172720000Y-77465000D03*
X172720000Y-80005000D03*
X172720000Y-82545000D03*
X172720000Y-85085000D03*
X172720000Y-87625000D03*
X172720000Y-90165000D03*
X172720000Y-92705000D03*
X172720000Y-95245000D03*
X172720000Y-97785000D03*
X172720000Y-100325000D03*
X172720000Y-102865000D03*
X172720000Y-105405000D03*
X172720000Y-107945000D03*
X172720000Y-110485000D03*
X172720000Y-113025000D03*
X172720000Y-115565000D03*
X172720000Y-118105000D03*
X172720000Y-120645000D03*
X172720000Y-123185000D03*
X172720000Y-125725000D03*
X172720000Y-128265000D03*
%TD*%
D10*
%TO.C,JCol1*%
X170180000Y-67305000D03*
D11*
X170180000Y-69845000D03*
X170180000Y-72385000D03*
X170180000Y-74925000D03*
X170180000Y-77465000D03*
X170180000Y-80005000D03*
X170180000Y-82545000D03*
X170180000Y-85085000D03*
X170180000Y-87625000D03*
X170180000Y-90165000D03*
X170180000Y-92705000D03*
X170180000Y-95245000D03*
X170180000Y-97785000D03*
X170180000Y-100325000D03*
X170180000Y-102865000D03*
X170180000Y-105405000D03*
X170180000Y-107945000D03*
X170180000Y-110485000D03*
X170180000Y-113025000D03*
X170180000Y-115565000D03*
X170180000Y-118105000D03*
X170180000Y-120645000D03*
X170180000Y-123185000D03*
X170180000Y-125725000D03*
X170180000Y-128265000D03*
%TD*%
D10*
%TO.C,JCol16*%
X215900000Y-67310000D03*
D11*
X215900000Y-69850000D03*
X215900000Y-72390000D03*
X215900000Y-74930000D03*
X215900000Y-77470000D03*
X215900000Y-80010000D03*
X215900000Y-82550000D03*
X215900000Y-85090000D03*
X215900000Y-87630000D03*
X215900000Y-90170000D03*
X215900000Y-92710000D03*
X215900000Y-95250000D03*
X215900000Y-97790000D03*
X215900000Y-100330000D03*
X215900000Y-102870000D03*
X215900000Y-105410000D03*
X215900000Y-107950000D03*
X215900000Y-110490000D03*
X215900000Y-113030000D03*
X215900000Y-115570000D03*
X215900000Y-118110000D03*
X215900000Y-120650000D03*
X215900000Y-123190000D03*
X215900000Y-125730000D03*
X215900000Y-128270000D03*
%TD*%
D10*
%TO.C,JCol11*%
X203200000Y-67310000D03*
D11*
X203200000Y-69850000D03*
X203200000Y-72390000D03*
X203200000Y-74930000D03*
X203200000Y-77470000D03*
X203200000Y-80010000D03*
X203200000Y-82550000D03*
X203200000Y-85090000D03*
X203200000Y-87630000D03*
X203200000Y-90170000D03*
X203200000Y-92710000D03*
X203200000Y-95250000D03*
X203200000Y-97790000D03*
X203200000Y-100330000D03*
X203200000Y-102870000D03*
X203200000Y-105410000D03*
X203200000Y-107950000D03*
X203200000Y-110490000D03*
X203200000Y-113030000D03*
X203200000Y-115570000D03*
X203200000Y-118110000D03*
X203200000Y-120650000D03*
X203200000Y-123190000D03*
X203200000Y-125730000D03*
X203200000Y-128270000D03*
%TD*%
D10*
%TO.C,JCol10*%
X200660000Y-67310000D03*
D11*
X200660000Y-69850000D03*
X200660000Y-72390000D03*
X200660000Y-74930000D03*
X200660000Y-77470000D03*
X200660000Y-80010000D03*
X200660000Y-82550000D03*
X200660000Y-85090000D03*
X200660000Y-87630000D03*
X200660000Y-90170000D03*
X200660000Y-92710000D03*
X200660000Y-95250000D03*
X200660000Y-97790000D03*
X200660000Y-100330000D03*
X200660000Y-102870000D03*
X200660000Y-105410000D03*
X200660000Y-107950000D03*
X200660000Y-110490000D03*
X200660000Y-113030000D03*
X200660000Y-115570000D03*
X200660000Y-118110000D03*
X200660000Y-120650000D03*
X200660000Y-123190000D03*
X200660000Y-125730000D03*
X200660000Y-128270000D03*
%TD*%
D10*
%TO.C,JCol4*%
X185420000Y-67310000D03*
D11*
X185420000Y-69850000D03*
X185420000Y-72390000D03*
X185420000Y-74930000D03*
X185420000Y-77470000D03*
X185420000Y-80010000D03*
X185420000Y-82550000D03*
X185420000Y-85090000D03*
X185420000Y-87630000D03*
X185420000Y-90170000D03*
X185420000Y-92710000D03*
X185420000Y-95250000D03*
X185420000Y-97790000D03*
X185420000Y-100330000D03*
X185420000Y-102870000D03*
X185420000Y-105410000D03*
X185420000Y-107950000D03*
X185420000Y-110490000D03*
X185420000Y-113030000D03*
X185420000Y-115570000D03*
X185420000Y-118110000D03*
X185420000Y-120650000D03*
X185420000Y-123190000D03*
X185420000Y-125730000D03*
X185420000Y-128270000D03*
%TD*%
D10*
%TO.C,JCol3*%
X182880000Y-67310000D03*
D11*
X182880000Y-69850000D03*
X182880000Y-72390000D03*
X182880000Y-74930000D03*
X182880000Y-77470000D03*
X182880000Y-80010000D03*
X182880000Y-82550000D03*
X182880000Y-85090000D03*
X182880000Y-87630000D03*
X182880000Y-90170000D03*
X182880000Y-92710000D03*
X182880000Y-95250000D03*
X182880000Y-97790000D03*
X182880000Y-100330000D03*
X182880000Y-102870000D03*
X182880000Y-105410000D03*
X182880000Y-107950000D03*
X182880000Y-110490000D03*
X182880000Y-113030000D03*
X182880000Y-115570000D03*
X182880000Y-118110000D03*
X182880000Y-120650000D03*
X182880000Y-123190000D03*
X182880000Y-125730000D03*
X182880000Y-128270000D03*
%TD*%
D10*
%TO.C,JCol13*%
X208280000Y-67310000D03*
D11*
X208280000Y-69850000D03*
X208280000Y-72390000D03*
X208280000Y-74930000D03*
X208280000Y-77470000D03*
X208280000Y-80010000D03*
X208280000Y-82550000D03*
X208280000Y-85090000D03*
X208280000Y-87630000D03*
X208280000Y-90170000D03*
X208280000Y-92710000D03*
X208280000Y-95250000D03*
X208280000Y-97790000D03*
X208280000Y-100330000D03*
X208280000Y-102870000D03*
X208280000Y-105410000D03*
X208280000Y-107950000D03*
X208280000Y-110490000D03*
X208280000Y-113030000D03*
X208280000Y-115570000D03*
X208280000Y-118110000D03*
X208280000Y-120650000D03*
X208280000Y-123190000D03*
X208280000Y-125730000D03*
X208280000Y-128270000D03*
%TD*%
D10*
%TO.C,JCol7*%
X193040000Y-67310000D03*
D11*
X193040000Y-69850000D03*
X193040000Y-72390000D03*
X193040000Y-74930000D03*
X193040000Y-77470000D03*
X193040000Y-80010000D03*
X193040000Y-82550000D03*
X193040000Y-85090000D03*
X193040000Y-87630000D03*
X193040000Y-90170000D03*
X193040000Y-92710000D03*
X193040000Y-95250000D03*
X193040000Y-97790000D03*
X193040000Y-100330000D03*
X193040000Y-102870000D03*
X193040000Y-105410000D03*
X193040000Y-107950000D03*
X193040000Y-110490000D03*
X193040000Y-113030000D03*
X193040000Y-115570000D03*
X193040000Y-118110000D03*
X193040000Y-120650000D03*
X193040000Y-123190000D03*
X193040000Y-125730000D03*
X193040000Y-128270000D03*
%TD*%
D10*
%TO.C,JCol12*%
X205740000Y-67310000D03*
D11*
X205740000Y-69850000D03*
X205740000Y-72390000D03*
X205740000Y-74930000D03*
X205740000Y-77470000D03*
X205740000Y-80010000D03*
X205740000Y-82550000D03*
X205740000Y-85090000D03*
X205740000Y-87630000D03*
X205740000Y-90170000D03*
X205740000Y-92710000D03*
X205740000Y-95250000D03*
X205740000Y-97790000D03*
X205740000Y-100330000D03*
X205740000Y-102870000D03*
X205740000Y-105410000D03*
X205740000Y-107950000D03*
X205740000Y-110490000D03*
X205740000Y-113030000D03*
X205740000Y-115570000D03*
X205740000Y-118110000D03*
X205740000Y-120650000D03*
X205740000Y-123190000D03*
X205740000Y-125730000D03*
X205740000Y-128270000D03*
%TD*%
D10*
%TO.C,JCol5*%
X187960000Y-67310000D03*
D11*
X187960000Y-69850000D03*
X187960000Y-72390000D03*
X187960000Y-74930000D03*
X187960000Y-77470000D03*
X187960000Y-80010000D03*
X187960000Y-82550000D03*
X187960000Y-85090000D03*
X187960000Y-87630000D03*
X187960000Y-90170000D03*
X187960000Y-92710000D03*
X187960000Y-95250000D03*
X187960000Y-97790000D03*
X187960000Y-100330000D03*
X187960000Y-102870000D03*
X187960000Y-105410000D03*
X187960000Y-107950000D03*
X187960000Y-110490000D03*
X187960000Y-113030000D03*
X187960000Y-115570000D03*
X187960000Y-118110000D03*
X187960000Y-120650000D03*
X187960000Y-123190000D03*
X187960000Y-125730000D03*
X187960000Y-128270000D03*
%TD*%
D10*
%TO.C,JCol14*%
X210820000Y-67310000D03*
D11*
X210820000Y-69850000D03*
X210820000Y-72390000D03*
X210820000Y-74930000D03*
X210820000Y-77470000D03*
X210820000Y-80010000D03*
X210820000Y-82550000D03*
X210820000Y-85090000D03*
X210820000Y-87630000D03*
X210820000Y-90170000D03*
X210820000Y-92710000D03*
X210820000Y-95250000D03*
X210820000Y-97790000D03*
X210820000Y-100330000D03*
X210820000Y-102870000D03*
X210820000Y-105410000D03*
X210820000Y-107950000D03*
X210820000Y-110490000D03*
X210820000Y-113030000D03*
X210820000Y-115570000D03*
X210820000Y-118110000D03*
X210820000Y-120650000D03*
X210820000Y-123190000D03*
X210820000Y-125730000D03*
X210820000Y-128270000D03*
%TD*%
D10*
%TO.C,JCol15*%
X213360000Y-67310000D03*
D11*
X213360000Y-69850000D03*
X213360000Y-72390000D03*
X213360000Y-74930000D03*
X213360000Y-77470000D03*
X213360000Y-80010000D03*
X213360000Y-82550000D03*
X213360000Y-85090000D03*
X213360000Y-87630000D03*
X213360000Y-90170000D03*
X213360000Y-92710000D03*
X213360000Y-95250000D03*
X213360000Y-97790000D03*
X213360000Y-100330000D03*
X213360000Y-102870000D03*
X213360000Y-105410000D03*
X213360000Y-107950000D03*
X213360000Y-110490000D03*
X213360000Y-113030000D03*
X213360000Y-115570000D03*
X213360000Y-118110000D03*
X213360000Y-120650000D03*
X213360000Y-123190000D03*
X213360000Y-125730000D03*
X213360000Y-128270000D03*
%TD*%
D10*
%TO.C,JCol8*%
X195580000Y-67310000D03*
D11*
X195580000Y-69850000D03*
X195580000Y-72390000D03*
X195580000Y-74930000D03*
X195580000Y-77470000D03*
X195580000Y-80010000D03*
X195580000Y-82550000D03*
X195580000Y-85090000D03*
X195580000Y-87630000D03*
X195580000Y-90170000D03*
X195580000Y-92710000D03*
X195580000Y-95250000D03*
X195580000Y-97790000D03*
X195580000Y-100330000D03*
X195580000Y-102870000D03*
X195580000Y-105410000D03*
X195580000Y-107950000D03*
X195580000Y-110490000D03*
X195580000Y-113030000D03*
X195580000Y-115570000D03*
X195580000Y-118110000D03*
X195580000Y-120650000D03*
X195580000Y-123190000D03*
X195580000Y-125730000D03*
X195580000Y-128270000D03*
%TD*%
D10*
%TO.C,JCol1*%
X177800000Y-67310000D03*
D11*
X177800000Y-69850000D03*
X177800000Y-72390000D03*
X177800000Y-74930000D03*
X177800000Y-77470000D03*
X177800000Y-80010000D03*
X177800000Y-82550000D03*
X177800000Y-85090000D03*
X177800000Y-87630000D03*
X177800000Y-90170000D03*
X177800000Y-92710000D03*
X177800000Y-95250000D03*
X177800000Y-97790000D03*
X177800000Y-100330000D03*
X177800000Y-102870000D03*
X177800000Y-105410000D03*
X177800000Y-107950000D03*
X177800000Y-110490000D03*
X177800000Y-113030000D03*
X177800000Y-115570000D03*
X177800000Y-118110000D03*
X177800000Y-120650000D03*
X177800000Y-123190000D03*
X177800000Y-125730000D03*
X177800000Y-128270000D03*
%TD*%
D10*
%TO.C,JCol2*%
X180340000Y-67310000D03*
D11*
X180340000Y-69850000D03*
X180340000Y-72390000D03*
X180340000Y-74930000D03*
X180340000Y-77470000D03*
X180340000Y-80010000D03*
X180340000Y-82550000D03*
X180340000Y-85090000D03*
X180340000Y-87630000D03*
X180340000Y-90170000D03*
X180340000Y-92710000D03*
X180340000Y-95250000D03*
X180340000Y-97790000D03*
X180340000Y-100330000D03*
X180340000Y-102870000D03*
X180340000Y-105410000D03*
X180340000Y-107950000D03*
X180340000Y-110490000D03*
X180340000Y-113030000D03*
X180340000Y-115570000D03*
X180340000Y-118110000D03*
X180340000Y-120650000D03*
X180340000Y-123190000D03*
X180340000Y-125730000D03*
X180340000Y-128270000D03*
%TD*%
D10*
%TO.C,JCol9*%
X198120000Y-67310000D03*
D11*
X198120000Y-69850000D03*
X198120000Y-72390000D03*
X198120000Y-74930000D03*
X198120000Y-77470000D03*
X198120000Y-80010000D03*
X198120000Y-82550000D03*
X198120000Y-85090000D03*
X198120000Y-87630000D03*
X198120000Y-90170000D03*
X198120000Y-92710000D03*
X198120000Y-95250000D03*
X198120000Y-97790000D03*
X198120000Y-100330000D03*
X198120000Y-102870000D03*
X198120000Y-105410000D03*
X198120000Y-107950000D03*
X198120000Y-110490000D03*
X198120000Y-113030000D03*
X198120000Y-115570000D03*
X198120000Y-118110000D03*
X198120000Y-120650000D03*
X198120000Y-123190000D03*
X198120000Y-125730000D03*
X198120000Y-128270000D03*
%TD*%
D10*
%TO.C,JCol6*%
X190500000Y-67310000D03*
D11*
X190500000Y-69850000D03*
X190500000Y-72390000D03*
X190500000Y-74930000D03*
X190500000Y-77470000D03*
X190500000Y-80010000D03*
X190500000Y-82550000D03*
X190500000Y-85090000D03*
X190500000Y-87630000D03*
X190500000Y-90170000D03*
X190500000Y-92710000D03*
X190500000Y-95250000D03*
X190500000Y-97790000D03*
X190500000Y-100330000D03*
X190500000Y-102870000D03*
X190500000Y-105410000D03*
X190500000Y-107950000D03*
X190500000Y-110490000D03*
X190500000Y-113030000D03*
X190500000Y-115570000D03*
X190500000Y-118110000D03*
X190500000Y-120650000D03*
X190500000Y-123190000D03*
X190500000Y-125730000D03*
X190500000Y-128270000D03*
%TD*%
D10*
%TO.C,J4*%
X81280000Y-110490000D03*
D11*
X81280000Y-113030000D03*
X81280000Y-115570000D03*
X81280000Y-118110000D03*
X81280000Y-120650000D03*
X81280000Y-123190000D03*
X81280000Y-125730000D03*
X81280000Y-128270000D03*
%TD*%
%TO.C,J3*%
X81280000Y-102870000D03*
X81280000Y-100330000D03*
X81280000Y-97790000D03*
X81280000Y-95250000D03*
X81280000Y-92710000D03*
X81280000Y-90170000D03*
X81280000Y-87630000D03*
D10*
X81280000Y-85090000D03*
%TD*%
%TO.C,J2*%
X99060000Y-137160000D03*
D11*
X96520000Y-137160000D03*
X93980000Y-137160000D03*
X91440000Y-137160000D03*
X88900000Y-137160000D03*
X86360000Y-137160000D03*
X83820000Y-137160000D03*
X81280000Y-137160000D03*
%TD*%
D10*
%TO.C,JCol32*%
X294640000Y-67310000D03*
D11*
X294640000Y-69850000D03*
X294640000Y-72390000D03*
X294640000Y-74930000D03*
X294640000Y-77470000D03*
X294640000Y-80010000D03*
X294640000Y-82550000D03*
X294640000Y-85090000D03*
X294640000Y-87630000D03*
X294640000Y-90170000D03*
X294640000Y-92710000D03*
X294640000Y-95250000D03*
X294640000Y-97790000D03*
X294640000Y-100330000D03*
X294640000Y-102870000D03*
X294640000Y-105410000D03*
X294640000Y-107950000D03*
X294640000Y-110490000D03*
X294640000Y-113030000D03*
X294640000Y-115570000D03*
X294640000Y-118110000D03*
X294640000Y-120650000D03*
X294640000Y-123190000D03*
X294640000Y-125730000D03*
X294640000Y-128270000D03*
%TD*%
D10*
%TO.C,JCol31*%
X292100000Y-67310000D03*
D11*
X292100000Y-69850000D03*
X292100000Y-72390000D03*
X292100000Y-74930000D03*
X292100000Y-77470000D03*
X292100000Y-80010000D03*
X292100000Y-82550000D03*
X292100000Y-85090000D03*
X292100000Y-87630000D03*
X292100000Y-90170000D03*
X292100000Y-92710000D03*
X292100000Y-95250000D03*
X292100000Y-97790000D03*
X292100000Y-100330000D03*
X292100000Y-102870000D03*
X292100000Y-105410000D03*
X292100000Y-107950000D03*
X292100000Y-110490000D03*
X292100000Y-113030000D03*
X292100000Y-115570000D03*
X292100000Y-118110000D03*
X292100000Y-120650000D03*
X292100000Y-123190000D03*
X292100000Y-125730000D03*
X292100000Y-128270000D03*
%TD*%
D10*
%TO.C,JCol30*%
X289560000Y-67310000D03*
D11*
X289560000Y-69850000D03*
X289560000Y-72390000D03*
X289560000Y-74930000D03*
X289560000Y-77470000D03*
X289560000Y-80010000D03*
X289560000Y-82550000D03*
X289560000Y-85090000D03*
X289560000Y-87630000D03*
X289560000Y-90170000D03*
X289560000Y-92710000D03*
X289560000Y-95250000D03*
X289560000Y-97790000D03*
X289560000Y-100330000D03*
X289560000Y-102870000D03*
X289560000Y-105410000D03*
X289560000Y-107950000D03*
X289560000Y-110490000D03*
X289560000Y-113030000D03*
X289560000Y-115570000D03*
X289560000Y-118110000D03*
X289560000Y-120650000D03*
X289560000Y-123190000D03*
X289560000Y-125730000D03*
X289560000Y-128270000D03*
%TD*%
D10*
%TO.C,JCol29*%
X287020000Y-67310000D03*
D11*
X287020000Y-69850000D03*
X287020000Y-72390000D03*
X287020000Y-74930000D03*
X287020000Y-77470000D03*
X287020000Y-80010000D03*
X287020000Y-82550000D03*
X287020000Y-85090000D03*
X287020000Y-87630000D03*
X287020000Y-90170000D03*
X287020000Y-92710000D03*
X287020000Y-95250000D03*
X287020000Y-97790000D03*
X287020000Y-100330000D03*
X287020000Y-102870000D03*
X287020000Y-105410000D03*
X287020000Y-107950000D03*
X287020000Y-110490000D03*
X287020000Y-113030000D03*
X287020000Y-115570000D03*
X287020000Y-118110000D03*
X287020000Y-120650000D03*
X287020000Y-123190000D03*
X287020000Y-125730000D03*
X287020000Y-128270000D03*
%TD*%
D10*
%TO.C,JCol28*%
X284480000Y-67310000D03*
D11*
X284480000Y-69850000D03*
X284480000Y-72390000D03*
X284480000Y-74930000D03*
X284480000Y-77470000D03*
X284480000Y-80010000D03*
X284480000Y-82550000D03*
X284480000Y-85090000D03*
X284480000Y-87630000D03*
X284480000Y-90170000D03*
X284480000Y-92710000D03*
X284480000Y-95250000D03*
X284480000Y-97790000D03*
X284480000Y-100330000D03*
X284480000Y-102870000D03*
X284480000Y-105410000D03*
X284480000Y-107950000D03*
X284480000Y-110490000D03*
X284480000Y-113030000D03*
X284480000Y-115570000D03*
X284480000Y-118110000D03*
X284480000Y-120650000D03*
X284480000Y-123190000D03*
X284480000Y-125730000D03*
X284480000Y-128270000D03*
%TD*%
D10*
%TO.C,JCol27*%
X281940000Y-67310000D03*
D11*
X281940000Y-69850000D03*
X281940000Y-72390000D03*
X281940000Y-74930000D03*
X281940000Y-77470000D03*
X281940000Y-80010000D03*
X281940000Y-82550000D03*
X281940000Y-85090000D03*
X281940000Y-87630000D03*
X281940000Y-90170000D03*
X281940000Y-92710000D03*
X281940000Y-95250000D03*
X281940000Y-97790000D03*
X281940000Y-100330000D03*
X281940000Y-102870000D03*
X281940000Y-105410000D03*
X281940000Y-107950000D03*
X281940000Y-110490000D03*
X281940000Y-113030000D03*
X281940000Y-115570000D03*
X281940000Y-118110000D03*
X281940000Y-120650000D03*
X281940000Y-123190000D03*
X281940000Y-125730000D03*
X281940000Y-128270000D03*
%TD*%
D10*
%TO.C,JCol26*%
X279400000Y-67310000D03*
D11*
X279400000Y-69850000D03*
X279400000Y-72390000D03*
X279400000Y-74930000D03*
X279400000Y-77470000D03*
X279400000Y-80010000D03*
X279400000Y-82550000D03*
X279400000Y-85090000D03*
X279400000Y-87630000D03*
X279400000Y-90170000D03*
X279400000Y-92710000D03*
X279400000Y-95250000D03*
X279400000Y-97790000D03*
X279400000Y-100330000D03*
X279400000Y-102870000D03*
X279400000Y-105410000D03*
X279400000Y-107950000D03*
X279400000Y-110490000D03*
X279400000Y-113030000D03*
X279400000Y-115570000D03*
X279400000Y-118110000D03*
X279400000Y-120650000D03*
X279400000Y-123190000D03*
X279400000Y-125730000D03*
X279400000Y-128270000D03*
%TD*%
D10*
%TO.C,JCol25*%
X276860000Y-67310000D03*
D11*
X276860000Y-69850000D03*
X276860000Y-72390000D03*
X276860000Y-74930000D03*
X276860000Y-77470000D03*
X276860000Y-80010000D03*
X276860000Y-82550000D03*
X276860000Y-85090000D03*
X276860000Y-87630000D03*
X276860000Y-90170000D03*
X276860000Y-92710000D03*
X276860000Y-95250000D03*
X276860000Y-97790000D03*
X276860000Y-100330000D03*
X276860000Y-102870000D03*
X276860000Y-105410000D03*
X276860000Y-107950000D03*
X276860000Y-110490000D03*
X276860000Y-113030000D03*
X276860000Y-115570000D03*
X276860000Y-118110000D03*
X276860000Y-120650000D03*
X276860000Y-123190000D03*
X276860000Y-125730000D03*
X276860000Y-128270000D03*
%TD*%
D10*
%TO.C,JCol24*%
X274320000Y-67310000D03*
D11*
X274320000Y-69850000D03*
X274320000Y-72390000D03*
X274320000Y-74930000D03*
X274320000Y-77470000D03*
X274320000Y-80010000D03*
X274320000Y-82550000D03*
X274320000Y-85090000D03*
X274320000Y-87630000D03*
X274320000Y-90170000D03*
X274320000Y-92710000D03*
X274320000Y-95250000D03*
X274320000Y-97790000D03*
X274320000Y-100330000D03*
X274320000Y-102870000D03*
X274320000Y-105410000D03*
X274320000Y-107950000D03*
X274320000Y-110490000D03*
X274320000Y-113030000D03*
X274320000Y-115570000D03*
X274320000Y-118110000D03*
X274320000Y-120650000D03*
X274320000Y-123190000D03*
X274320000Y-125730000D03*
X274320000Y-128270000D03*
%TD*%
D10*
%TO.C,JCol23*%
X271780000Y-67310000D03*
D11*
X271780000Y-69850000D03*
X271780000Y-72390000D03*
X271780000Y-74930000D03*
X271780000Y-77470000D03*
X271780000Y-80010000D03*
X271780000Y-82550000D03*
X271780000Y-85090000D03*
X271780000Y-87630000D03*
X271780000Y-90170000D03*
X271780000Y-92710000D03*
X271780000Y-95250000D03*
X271780000Y-97790000D03*
X271780000Y-100330000D03*
X271780000Y-102870000D03*
X271780000Y-105410000D03*
X271780000Y-107950000D03*
X271780000Y-110490000D03*
X271780000Y-113030000D03*
X271780000Y-115570000D03*
X271780000Y-118110000D03*
X271780000Y-120650000D03*
X271780000Y-123190000D03*
X271780000Y-125730000D03*
X271780000Y-128270000D03*
%TD*%
D10*
%TO.C,JCol22*%
X269240000Y-67310000D03*
D11*
X269240000Y-69850000D03*
X269240000Y-72390000D03*
X269240000Y-74930000D03*
X269240000Y-77470000D03*
X269240000Y-80010000D03*
X269240000Y-82550000D03*
X269240000Y-85090000D03*
X269240000Y-87630000D03*
X269240000Y-90170000D03*
X269240000Y-92710000D03*
X269240000Y-95250000D03*
X269240000Y-97790000D03*
X269240000Y-100330000D03*
X269240000Y-102870000D03*
X269240000Y-105410000D03*
X269240000Y-107950000D03*
X269240000Y-110490000D03*
X269240000Y-113030000D03*
X269240000Y-115570000D03*
X269240000Y-118110000D03*
X269240000Y-120650000D03*
X269240000Y-123190000D03*
X269240000Y-125730000D03*
X269240000Y-128270000D03*
%TD*%
D10*
%TO.C,JCol21*%
X266700000Y-67310000D03*
D11*
X266700000Y-69850000D03*
X266700000Y-72390000D03*
X266700000Y-74930000D03*
X266700000Y-77470000D03*
X266700000Y-80010000D03*
X266700000Y-82550000D03*
X266700000Y-85090000D03*
X266700000Y-87630000D03*
X266700000Y-90170000D03*
X266700000Y-92710000D03*
X266700000Y-95250000D03*
X266700000Y-97790000D03*
X266700000Y-100330000D03*
X266700000Y-102870000D03*
X266700000Y-105410000D03*
X266700000Y-107950000D03*
X266700000Y-110490000D03*
X266700000Y-113030000D03*
X266700000Y-115570000D03*
X266700000Y-118110000D03*
X266700000Y-120650000D03*
X266700000Y-123190000D03*
X266700000Y-125730000D03*
X266700000Y-128270000D03*
%TD*%
D10*
%TO.C,JCol20*%
X264160000Y-67310000D03*
D11*
X264160000Y-69850000D03*
X264160000Y-72390000D03*
X264160000Y-74930000D03*
X264160000Y-77470000D03*
X264160000Y-80010000D03*
X264160000Y-82550000D03*
X264160000Y-85090000D03*
X264160000Y-87630000D03*
X264160000Y-90170000D03*
X264160000Y-92710000D03*
X264160000Y-95250000D03*
X264160000Y-97790000D03*
X264160000Y-100330000D03*
X264160000Y-102870000D03*
X264160000Y-105410000D03*
X264160000Y-107950000D03*
X264160000Y-110490000D03*
X264160000Y-113030000D03*
X264160000Y-115570000D03*
X264160000Y-118110000D03*
X264160000Y-120650000D03*
X264160000Y-123190000D03*
X264160000Y-125730000D03*
X264160000Y-128270000D03*
%TD*%
D10*
%TO.C,JCol19*%
X261620000Y-67310000D03*
D11*
X261620000Y-69850000D03*
X261620000Y-72390000D03*
X261620000Y-74930000D03*
X261620000Y-77470000D03*
X261620000Y-80010000D03*
X261620000Y-82550000D03*
X261620000Y-85090000D03*
X261620000Y-87630000D03*
X261620000Y-90170000D03*
X261620000Y-92710000D03*
X261620000Y-95250000D03*
X261620000Y-97790000D03*
X261620000Y-100330000D03*
X261620000Y-102870000D03*
X261620000Y-105410000D03*
X261620000Y-107950000D03*
X261620000Y-110490000D03*
X261620000Y-113030000D03*
X261620000Y-115570000D03*
X261620000Y-118110000D03*
X261620000Y-120650000D03*
X261620000Y-123190000D03*
X261620000Y-125730000D03*
X261620000Y-128270000D03*
%TD*%
D10*
%TO.C,JCol18*%
X259080000Y-67310000D03*
D11*
X259080000Y-69850000D03*
X259080000Y-72390000D03*
X259080000Y-74930000D03*
X259080000Y-77470000D03*
X259080000Y-80010000D03*
X259080000Y-82550000D03*
X259080000Y-85090000D03*
X259080000Y-87630000D03*
X259080000Y-90170000D03*
X259080000Y-92710000D03*
X259080000Y-95250000D03*
X259080000Y-97790000D03*
X259080000Y-100330000D03*
X259080000Y-102870000D03*
X259080000Y-105410000D03*
X259080000Y-107950000D03*
X259080000Y-110490000D03*
X259080000Y-113030000D03*
X259080000Y-115570000D03*
X259080000Y-118110000D03*
X259080000Y-120650000D03*
X259080000Y-123190000D03*
X259080000Y-125730000D03*
X259080000Y-128270000D03*
%TD*%
D10*
%TO.C,JCol17*%
X256540000Y-67310000D03*
D11*
X256540000Y-69850000D03*
X256540000Y-72390000D03*
X256540000Y-74930000D03*
X256540000Y-77470000D03*
X256540000Y-80010000D03*
X256540000Y-82550000D03*
X256540000Y-85090000D03*
X256540000Y-87630000D03*
X256540000Y-90170000D03*
X256540000Y-92710000D03*
X256540000Y-95250000D03*
X256540000Y-97790000D03*
X256540000Y-100330000D03*
X256540000Y-102870000D03*
X256540000Y-105410000D03*
X256540000Y-107950000D03*
X256540000Y-110490000D03*
X256540000Y-113030000D03*
X256540000Y-115570000D03*
X256540000Y-118110000D03*
X256540000Y-120650000D03*
X256540000Y-123190000D03*
X256540000Y-125730000D03*
X256540000Y-128270000D03*
%TD*%
D10*
%TO.C,JCol16*%
X254000000Y-67310000D03*
D11*
X254000000Y-69850000D03*
X254000000Y-72390000D03*
X254000000Y-74930000D03*
X254000000Y-77470000D03*
X254000000Y-80010000D03*
X254000000Y-82550000D03*
X254000000Y-85090000D03*
X254000000Y-87630000D03*
X254000000Y-90170000D03*
X254000000Y-92710000D03*
X254000000Y-95250000D03*
X254000000Y-97790000D03*
X254000000Y-100330000D03*
X254000000Y-102870000D03*
X254000000Y-105410000D03*
X254000000Y-107950000D03*
X254000000Y-110490000D03*
X254000000Y-113030000D03*
X254000000Y-115570000D03*
X254000000Y-118110000D03*
X254000000Y-120650000D03*
X254000000Y-123190000D03*
X254000000Y-125730000D03*
X254000000Y-128270000D03*
%TD*%
D10*
%TO.C,JCol15*%
X251460000Y-67310000D03*
D11*
X251460000Y-69850000D03*
X251460000Y-72390000D03*
X251460000Y-74930000D03*
X251460000Y-77470000D03*
X251460000Y-80010000D03*
X251460000Y-82550000D03*
X251460000Y-85090000D03*
X251460000Y-87630000D03*
X251460000Y-90170000D03*
X251460000Y-92710000D03*
X251460000Y-95250000D03*
X251460000Y-97790000D03*
X251460000Y-100330000D03*
X251460000Y-102870000D03*
X251460000Y-105410000D03*
X251460000Y-107950000D03*
X251460000Y-110490000D03*
X251460000Y-113030000D03*
X251460000Y-115570000D03*
X251460000Y-118110000D03*
X251460000Y-120650000D03*
X251460000Y-123190000D03*
X251460000Y-125730000D03*
X251460000Y-128270000D03*
%TD*%
D10*
%TO.C,JCol14*%
X248920000Y-67310000D03*
D11*
X248920000Y-69850000D03*
X248920000Y-72390000D03*
X248920000Y-74930000D03*
X248920000Y-77470000D03*
X248920000Y-80010000D03*
X248920000Y-82550000D03*
X248920000Y-85090000D03*
X248920000Y-87630000D03*
X248920000Y-90170000D03*
X248920000Y-92710000D03*
X248920000Y-95250000D03*
X248920000Y-97790000D03*
X248920000Y-100330000D03*
X248920000Y-102870000D03*
X248920000Y-105410000D03*
X248920000Y-107950000D03*
X248920000Y-110490000D03*
X248920000Y-113030000D03*
X248920000Y-115570000D03*
X248920000Y-118110000D03*
X248920000Y-120650000D03*
X248920000Y-123190000D03*
X248920000Y-125730000D03*
X248920000Y-128270000D03*
%TD*%
D10*
%TO.C,JCol13*%
X246380000Y-67310000D03*
D11*
X246380000Y-69850000D03*
X246380000Y-72390000D03*
X246380000Y-74930000D03*
X246380000Y-77470000D03*
X246380000Y-80010000D03*
X246380000Y-82550000D03*
X246380000Y-85090000D03*
X246380000Y-87630000D03*
X246380000Y-90170000D03*
X246380000Y-92710000D03*
X246380000Y-95250000D03*
X246380000Y-97790000D03*
X246380000Y-100330000D03*
X246380000Y-102870000D03*
X246380000Y-105410000D03*
X246380000Y-107950000D03*
X246380000Y-110490000D03*
X246380000Y-113030000D03*
X246380000Y-115570000D03*
X246380000Y-118110000D03*
X246380000Y-120650000D03*
X246380000Y-123190000D03*
X246380000Y-125730000D03*
X246380000Y-128270000D03*
%TD*%
D10*
%TO.C,JCol12*%
X243840000Y-67310000D03*
D11*
X243840000Y-69850000D03*
X243840000Y-72390000D03*
X243840000Y-74930000D03*
X243840000Y-77470000D03*
X243840000Y-80010000D03*
X243840000Y-82550000D03*
X243840000Y-85090000D03*
X243840000Y-87630000D03*
X243840000Y-90170000D03*
X243840000Y-92710000D03*
X243840000Y-95250000D03*
X243840000Y-97790000D03*
X243840000Y-100330000D03*
X243840000Y-102870000D03*
X243840000Y-105410000D03*
X243840000Y-107950000D03*
X243840000Y-110490000D03*
X243840000Y-113030000D03*
X243840000Y-115570000D03*
X243840000Y-118110000D03*
X243840000Y-120650000D03*
X243840000Y-123190000D03*
X243840000Y-125730000D03*
X243840000Y-128270000D03*
%TD*%
D10*
%TO.C,JCol11*%
X241300000Y-67310000D03*
D11*
X241300000Y-69850000D03*
X241300000Y-72390000D03*
X241300000Y-74930000D03*
X241300000Y-77470000D03*
X241300000Y-80010000D03*
X241300000Y-82550000D03*
X241300000Y-85090000D03*
X241300000Y-87630000D03*
X241300000Y-90170000D03*
X241300000Y-92710000D03*
X241300000Y-95250000D03*
X241300000Y-97790000D03*
X241300000Y-100330000D03*
X241300000Y-102870000D03*
X241300000Y-105410000D03*
X241300000Y-107950000D03*
X241300000Y-110490000D03*
X241300000Y-113030000D03*
X241300000Y-115570000D03*
X241300000Y-118110000D03*
X241300000Y-120650000D03*
X241300000Y-123190000D03*
X241300000Y-125730000D03*
X241300000Y-128270000D03*
%TD*%
D10*
%TO.C,JCol10*%
X238760000Y-67310000D03*
D11*
X238760000Y-69850000D03*
X238760000Y-72390000D03*
X238760000Y-74930000D03*
X238760000Y-77470000D03*
X238760000Y-80010000D03*
X238760000Y-82550000D03*
X238760000Y-85090000D03*
X238760000Y-87630000D03*
X238760000Y-90170000D03*
X238760000Y-92710000D03*
X238760000Y-95250000D03*
X238760000Y-97790000D03*
X238760000Y-100330000D03*
X238760000Y-102870000D03*
X238760000Y-105410000D03*
X238760000Y-107950000D03*
X238760000Y-110490000D03*
X238760000Y-113030000D03*
X238760000Y-115570000D03*
X238760000Y-118110000D03*
X238760000Y-120650000D03*
X238760000Y-123190000D03*
X238760000Y-125730000D03*
X238760000Y-128270000D03*
%TD*%
D10*
%TO.C,JCol9*%
X236220000Y-67310000D03*
D11*
X236220000Y-69850000D03*
X236220000Y-72390000D03*
X236220000Y-74930000D03*
X236220000Y-77470000D03*
X236220000Y-80010000D03*
X236220000Y-82550000D03*
X236220000Y-85090000D03*
X236220000Y-87630000D03*
X236220000Y-90170000D03*
X236220000Y-92710000D03*
X236220000Y-95250000D03*
X236220000Y-97790000D03*
X236220000Y-100330000D03*
X236220000Y-102870000D03*
X236220000Y-105410000D03*
X236220000Y-107950000D03*
X236220000Y-110490000D03*
X236220000Y-113030000D03*
X236220000Y-115570000D03*
X236220000Y-118110000D03*
X236220000Y-120650000D03*
X236220000Y-123190000D03*
X236220000Y-125730000D03*
X236220000Y-128270000D03*
%TD*%
D10*
%TO.C,JCol8*%
X233680000Y-67310000D03*
D11*
X233680000Y-69850000D03*
X233680000Y-72390000D03*
X233680000Y-74930000D03*
X233680000Y-77470000D03*
X233680000Y-80010000D03*
X233680000Y-82550000D03*
X233680000Y-85090000D03*
X233680000Y-87630000D03*
X233680000Y-90170000D03*
X233680000Y-92710000D03*
X233680000Y-95250000D03*
X233680000Y-97790000D03*
X233680000Y-100330000D03*
X233680000Y-102870000D03*
X233680000Y-105410000D03*
X233680000Y-107950000D03*
X233680000Y-110490000D03*
X233680000Y-113030000D03*
X233680000Y-115570000D03*
X233680000Y-118110000D03*
X233680000Y-120650000D03*
X233680000Y-123190000D03*
X233680000Y-125730000D03*
X233680000Y-128270000D03*
%TD*%
D10*
%TO.C,JCol7*%
X231140000Y-67310000D03*
D11*
X231140000Y-69850000D03*
X231140000Y-72390000D03*
X231140000Y-74930000D03*
X231140000Y-77470000D03*
X231140000Y-80010000D03*
X231140000Y-82550000D03*
X231140000Y-85090000D03*
X231140000Y-87630000D03*
X231140000Y-90170000D03*
X231140000Y-92710000D03*
X231140000Y-95250000D03*
X231140000Y-97790000D03*
X231140000Y-100330000D03*
X231140000Y-102870000D03*
X231140000Y-105410000D03*
X231140000Y-107950000D03*
X231140000Y-110490000D03*
X231140000Y-113030000D03*
X231140000Y-115570000D03*
X231140000Y-118110000D03*
X231140000Y-120650000D03*
X231140000Y-123190000D03*
X231140000Y-125730000D03*
X231140000Y-128270000D03*
%TD*%
D10*
%TO.C,JCol6*%
X228600000Y-67310000D03*
D11*
X228600000Y-69850000D03*
X228600000Y-72390000D03*
X228600000Y-74930000D03*
X228600000Y-77470000D03*
X228600000Y-80010000D03*
X228600000Y-82550000D03*
X228600000Y-85090000D03*
X228600000Y-87630000D03*
X228600000Y-90170000D03*
X228600000Y-92710000D03*
X228600000Y-95250000D03*
X228600000Y-97790000D03*
X228600000Y-100330000D03*
X228600000Y-102870000D03*
X228600000Y-105410000D03*
X228600000Y-107950000D03*
X228600000Y-110490000D03*
X228600000Y-113030000D03*
X228600000Y-115570000D03*
X228600000Y-118110000D03*
X228600000Y-120650000D03*
X228600000Y-123190000D03*
X228600000Y-125730000D03*
X228600000Y-128270000D03*
%TD*%
D10*
%TO.C,JCol5*%
X226060000Y-67310000D03*
D11*
X226060000Y-69850000D03*
X226060000Y-72390000D03*
X226060000Y-74930000D03*
X226060000Y-77470000D03*
X226060000Y-80010000D03*
X226060000Y-82550000D03*
X226060000Y-85090000D03*
X226060000Y-87630000D03*
X226060000Y-90170000D03*
X226060000Y-92710000D03*
X226060000Y-95250000D03*
X226060000Y-97790000D03*
X226060000Y-100330000D03*
X226060000Y-102870000D03*
X226060000Y-105410000D03*
X226060000Y-107950000D03*
X226060000Y-110490000D03*
X226060000Y-113030000D03*
X226060000Y-115570000D03*
X226060000Y-118110000D03*
X226060000Y-120650000D03*
X226060000Y-123190000D03*
X226060000Y-125730000D03*
X226060000Y-128270000D03*
%TD*%
D10*
%TO.C,JCol4*%
X223520000Y-67310000D03*
D11*
X223520000Y-69850000D03*
X223520000Y-72390000D03*
X223520000Y-74930000D03*
X223520000Y-77470000D03*
X223520000Y-80010000D03*
X223520000Y-82550000D03*
X223520000Y-85090000D03*
X223520000Y-87630000D03*
X223520000Y-90170000D03*
X223520000Y-92710000D03*
X223520000Y-95250000D03*
X223520000Y-97790000D03*
X223520000Y-100330000D03*
X223520000Y-102870000D03*
X223520000Y-105410000D03*
X223520000Y-107950000D03*
X223520000Y-110490000D03*
X223520000Y-113030000D03*
X223520000Y-115570000D03*
X223520000Y-118110000D03*
X223520000Y-120650000D03*
X223520000Y-123190000D03*
X223520000Y-125730000D03*
X223520000Y-128270000D03*
%TD*%
D10*
%TO.C,JCol3*%
X220980000Y-67310000D03*
D11*
X220980000Y-69850000D03*
X220980000Y-72390000D03*
X220980000Y-74930000D03*
X220980000Y-77470000D03*
X220980000Y-80010000D03*
X220980000Y-82550000D03*
X220980000Y-85090000D03*
X220980000Y-87630000D03*
X220980000Y-90170000D03*
X220980000Y-92710000D03*
X220980000Y-95250000D03*
X220980000Y-97790000D03*
X220980000Y-100330000D03*
X220980000Y-102870000D03*
X220980000Y-105410000D03*
X220980000Y-107950000D03*
X220980000Y-110490000D03*
X220980000Y-113030000D03*
X220980000Y-115570000D03*
X220980000Y-118110000D03*
X220980000Y-120650000D03*
X220980000Y-123190000D03*
X220980000Y-125730000D03*
X220980000Y-128270000D03*
%TD*%
D10*
%TO.C,JCol2*%
X218440000Y-67310000D03*
D11*
X218440000Y-69850000D03*
X218440000Y-72390000D03*
X218440000Y-74930000D03*
X218440000Y-77470000D03*
X218440000Y-80010000D03*
X218440000Y-82550000D03*
X218440000Y-85090000D03*
X218440000Y-87630000D03*
X218440000Y-90170000D03*
X218440000Y-92710000D03*
X218440000Y-95250000D03*
X218440000Y-97790000D03*
X218440000Y-100330000D03*
X218440000Y-102870000D03*
X218440000Y-105410000D03*
X218440000Y-107950000D03*
X218440000Y-110490000D03*
X218440000Y-113030000D03*
X218440000Y-115570000D03*
X218440000Y-118110000D03*
X218440000Y-120650000D03*
X218440000Y-123190000D03*
X218440000Y-125730000D03*
X218440000Y-128270000D03*
%TD*%
D10*
%TO.C,JCol1*%
X215900000Y-67310000D03*
D11*
X215900000Y-69850000D03*
X215900000Y-72390000D03*
X215900000Y-74930000D03*
X215900000Y-77470000D03*
X215900000Y-80010000D03*
X215900000Y-82550000D03*
X215900000Y-85090000D03*
X215900000Y-87630000D03*
X215900000Y-90170000D03*
X215900000Y-92710000D03*
X215900000Y-95250000D03*
X215900000Y-97790000D03*
X215900000Y-100330000D03*
X215900000Y-102870000D03*
X215900000Y-105410000D03*
X215900000Y-107950000D03*
X215900000Y-110490000D03*
X215900000Y-113030000D03*
X215900000Y-115570000D03*
X215900000Y-118110000D03*
X215900000Y-120650000D03*
X215900000Y-123190000D03*
X215900000Y-125730000D03*
X215900000Y-128270000D03*
%TD*%
D12*
%TO.C,U1*%
X142240000Y-118110000D03*
D13*
X139700000Y-118110000D03*
X137160000Y-118110000D03*
X134620000Y-118110000D03*
X132080000Y-118110000D03*
X129540000Y-118110000D03*
X127000000Y-118110000D03*
X124460000Y-118110000D03*
X121920000Y-118110000D03*
X119380000Y-118110000D03*
X119380000Y-125730000D03*
X121920000Y-125730000D03*
X124460000Y-125730000D03*
X127000000Y-125730000D03*
X129540000Y-125730000D03*
X132080000Y-125730000D03*
X134620000Y-125730000D03*
X137160000Y-125730000D03*
X139700000Y-125730000D03*
X142240000Y-125730000D03*
%TD*%
D10*
%TO.C,J1*%
X180340000Y-139700000D03*
D11*
X177800000Y-139700000D03*
X175260000Y-139700000D03*
X172720000Y-139700000D03*
X170180000Y-139700000D03*
X167640000Y-139700000D03*
X165100000Y-139700000D03*
X162560000Y-139700000D03*
X160020000Y-139700000D03*
X157480000Y-139700000D03*
X154940000Y-139700000D03*
X152400000Y-139700000D03*
X149860000Y-139700000D03*
X147320000Y-139700000D03*
X144780000Y-139700000D03*
X142240000Y-139700000D03*
X139700000Y-139700000D03*
X137160000Y-139700000D03*
X134620000Y-139700000D03*
X132080000Y-139700000D03*
X129540000Y-139700000D03*
X127000000Y-139700000D03*
X124460000Y-139700000D03*
X121920000Y-139700000D03*
X119380000Y-139700000D03*
X116840000Y-139700000D03*
X114300000Y-139700000D03*
X111760000Y-139700000D03*
X109220000Y-139700000D03*
X106680000Y-139700000D03*
X104140000Y-139700000D03*
X101600000Y-139700000D03*
X99060000Y-139700000D03*
X96520000Y-139700000D03*
X93980000Y-139700000D03*
X91440000Y-139700000D03*
X88900000Y-139700000D03*
X86360000Y-139700000D03*
X83820000Y-139700000D03*
X81280000Y-139700000D03*
%TD*%
D22*
%TO.C,D24*%
X72785000Y-66040000D03*
X74535000Y-66040000D03*
%TD*%
%TO.C,D3*%
X74535000Y-95250000D03*
X72785000Y-95250000D03*
%TD*%
%TO.C,D5*%
X72785000Y-97790000D03*
X74535000Y-97790000D03*
%TD*%
D13*
%TO.C,U7*%
X88900000Y-97790000D03*
X91440000Y-97790000D03*
X93980000Y-97790000D03*
X96520000Y-97790000D03*
X99060000Y-97790000D03*
X101600000Y-97790000D03*
X104140000Y-97790000D03*
X106680000Y-97790000D03*
X109220000Y-97790000D03*
X111760000Y-97790000D03*
X111760000Y-105410000D03*
X109220000Y-105410000D03*
X106680000Y-105410000D03*
X104140000Y-105410000D03*
X101600000Y-105410000D03*
X99060000Y-105410000D03*
X96520000Y-105410000D03*
X93980000Y-105410000D03*
X91440000Y-105410000D03*
D12*
X88900000Y-105410000D03*
%TD*%
D22*
%TO.C,D29*%
X72785000Y-78740000D03*
X74535000Y-78740000D03*
%TD*%
%TO.C,D27*%
X72785000Y-73660000D03*
X74535000Y-73660000D03*
%TD*%
%TO.C,D28*%
X72785000Y-76150000D03*
X74535000Y-76150000D03*
%TD*%
D20*
%TO.C,r40*%
X76557500Y-68580000D03*
X78382500Y-68580000D03*
%TD*%
D22*
%TO.C,D22*%
X72785000Y-60960000D03*
X74535000Y-60960000D03*
%TD*%
%TO.C,D26*%
X72785000Y-71120000D03*
X74535000Y-71120000D03*
%TD*%
D20*
%TO.C,r0*%
X76557500Y-102750000D03*
X78382500Y-102750000D03*
%TD*%
%TO.C,r37*%
X78382500Y-60960000D03*
X76557500Y-60960000D03*
%TD*%
%TO.C,r41*%
X76557500Y-71120000D03*
X78382500Y-71120000D03*
%TD*%
D12*
%TO.C,U2*%
X119380000Y-105410000D03*
D13*
X121920000Y-105410000D03*
X124460000Y-105410000D03*
X127000000Y-105410000D03*
X129540000Y-105410000D03*
X132080000Y-105410000D03*
X134620000Y-105410000D03*
X137160000Y-105410000D03*
X139700000Y-105410000D03*
X142240000Y-105410000D03*
X142240000Y-97790000D03*
X139700000Y-97790000D03*
X137160000Y-97790000D03*
X134620000Y-97790000D03*
X132080000Y-97790000D03*
X129540000Y-97790000D03*
X127000000Y-97790000D03*
X124460000Y-97790000D03*
X121920000Y-97790000D03*
X119380000Y-97790000D03*
%TD*%
D20*
%TO.C,r38*%
X76557500Y-63500000D03*
X78382500Y-63500000D03*
%TD*%
D12*
%TO.C,U8*%
X142230000Y-77480000D03*
D13*
X139690000Y-77480000D03*
X137150000Y-77480000D03*
X134610000Y-77480000D03*
X134610000Y-85100000D03*
X137150000Y-85100000D03*
X139690000Y-85100000D03*
X142230000Y-85100000D03*
%TD*%
D20*
%TO.C,r39*%
X76557500Y-66040000D03*
X78382500Y-66040000D03*
%TD*%
%TO.C,r1*%
X76557500Y-100240000D03*
X78382500Y-100240000D03*
%TD*%
D22*
%TO.C,D25*%
X72785000Y-68580000D03*
X74535000Y-68580000D03*
%TD*%
D20*
%TO.C,r43*%
X76557500Y-76200000D03*
X78382500Y-76200000D03*
%TD*%
D12*
%TO.C,U6*%
X88900000Y-125730000D03*
D13*
X91440000Y-125730000D03*
X93980000Y-125730000D03*
X96520000Y-125730000D03*
X99060000Y-125730000D03*
X101600000Y-125730000D03*
X104140000Y-125730000D03*
X106680000Y-125730000D03*
X109220000Y-125730000D03*
X111760000Y-125730000D03*
X111760000Y-118110000D03*
X109220000Y-118110000D03*
X106680000Y-118110000D03*
X104140000Y-118110000D03*
X101600000Y-118110000D03*
X99060000Y-118110000D03*
X96520000Y-118110000D03*
X93980000Y-118110000D03*
X91440000Y-118110000D03*
X88900000Y-118110000D03*
%TD*%
D20*
%TO.C,r44*%
X76557500Y-78740000D03*
X78382500Y-78740000D03*
%TD*%
%TO.C,r2*%
X76557500Y-95250000D03*
X78382500Y-95250000D03*
%TD*%
%TO.C,r42*%
X76557500Y-73660000D03*
X78382500Y-73660000D03*
%TD*%
D22*
%TO.C,D2*%
X72785000Y-100330000D03*
X74535000Y-100330000D03*
%TD*%
D23*
%TO.C,D4*%
X74535000Y-92710000D03*
X72785000Y-92710000D03*
%TD*%
D20*
%TO.C,r4*%
X76557500Y-97790000D03*
X78382500Y-97790000D03*
%TD*%
D22*
%TO.C,D1*%
X72785000Y-102870000D03*
X74535000Y-102870000D03*
%TD*%
%TO.C,D23*%
X72785000Y-63500000D03*
X74535000Y-63500000D03*
%TD*%
M02*
