M48
; DRILL file {KiCad 7.0.5} date Mon Dec  2 20:38:51 2024
; FORMAT={-:-/ absolute / inch / decimal}
; #@! TF.CreationDate,2024-12-02T20:38:51-05:00
; #@! TF.GenerationSoftware,Kicad,Pcbnew,7.0.5
; #@! TF.FileFunction,Plated,1,2,PTH
FMAT,2
INCH
; #@! TA.AperFunction,Plated,PTH,ViaDrill
T1C0.0157
; #@! TA.AperFunction,Plated,PTH,ComponentDrill
T2C0.0276
; #@! TA.AperFunction,Plated,PTH,ComponentDrill
T3C0.0315
; #@! TA.AperFunction,Plated,PTH,ComponentDrill
T4C0.0433
; #@! TA.AperFunction,Plated,PTH,ComponentDrill
T5C0.0472
; #@! TA.AperFunction,Plated,PTH,ViaDrill
T6C0.0945
; #@! TA.AperFunction,Plated,PTH,ComponentDrill
T7C0.1250
; #@! TA.AperFunction,Plated,PTH,ViaDrill
T8C0.1575
%
G90
G05
T1
X5.45Y-2.7828
X5.5Y-2.7828
X5.55Y-2.7828
X5.65Y-3.0678
X5.655Y-2.2717
X5.695Y-2.2628
X5.7Y-3.0678
X5.7141Y-2.0306
X5.7201Y-2.0048
X5.745Y-2.2628
X5.75Y-3.0678
X5.7508Y-2.0282
X5.85Y-2.7828
X5.9Y-2.7828
X5.95Y-2.7828
X6.05Y-2.2678
X6.05Y-3.0628
X6.1Y-2.2678
X6.1Y-3.0628
X6.15Y-2.2678
X6.15Y-3.0628
X6.25Y-2.7828
X6.3Y-2.7828
X6.35Y-2.7828
X6.45Y-2.2628
X6.455Y-3.0678
X6.5Y-2.2628
X6.505Y-3.0678
X6.55Y-2.2628
X6.555Y-3.0678
X6.65Y-2.7778
X6.7Y-2.7778
X6.75Y-2.7778
X6.85Y-2.2678
X6.855Y-3.0678
X6.9Y-2.2728
X6.905Y-3.0678
X6.955Y-3.0678
X7.0177Y-2.9628
X7.0635Y-2.2319
X7.15Y-2.2728
X7.1855Y-2.69
X7.5Y-2.3228
X7.55Y-2.3228
X7.65Y-2.3228
X7.6516Y-2.7655
X7.7457Y-2.5229
X7.7651Y-2.7745
X7.7994Y-2.3424
X7.8294Y-2.3232
X7.85Y-2.7828
X7.8649Y-2.3232
X7.9Y-2.3228
X7.9Y-2.7828
X7.95Y-2.7828
X8.05Y-2.2628
X8.05Y-3.0628
X8.1Y-2.2628
X8.1Y-3.0628
X8.15Y-2.1728
X8.15Y-2.2628
X8.15Y-3.0628
X8.25Y-2.7778
X8.3Y-2.7778
X8.35Y-2.7778
X8.4052Y-2.8264
X8.45Y-2.2678
X8.45Y-3.0628
X8.5Y-2.2678
X8.5Y-3.0628
X8.55Y-2.2678
X8.55Y-3.0628
X8.65Y-2.7828
X8.7Y-2.7828
X8.75Y-2.7828
X8.85Y-3.0628
X8.855Y-2.2628
X8.9Y-3.0628
X8.905Y-2.2628
X8.95Y-3.0628
X8.955Y-2.2628
X9.0523Y-2.8728
X9.0577Y-2.2225
X9.06Y-3.0678
X9.06Y-3.1028
X9.06Y-3.1378
X9.06Y-3.1778
X9.1Y-2.4228
T2
X5.226Y-2.7337
X5.275Y-2.7978
X5.275Y-2.9978
X5.3674Y-2.5923
T3
X5.4496Y-2.5732
X5.4496Y-2.8732
X5.4504Y-2.1724
X5.4504Y-2.4724
X5.4504Y-2.9724
X5.4504Y-3.2724
X5.5496Y-2.5732
X5.5496Y-2.8732
X5.5504Y-2.1724
X5.5504Y-2.4724
X5.5504Y-2.9724
X5.5504Y-3.2724
X5.6496Y-2.5732
X5.6496Y-2.8732
X5.6504Y-2.1724
X5.6504Y-2.4724
X5.6504Y-2.9724
X5.6504Y-3.2724
X5.7496Y-2.5732
X5.7496Y-2.8732
X5.7504Y-2.1724
X5.7504Y-2.4724
X5.7504Y-2.9724
X5.7504Y-3.2724
X5.8496Y-2.5732
X5.8496Y-2.8732
X5.85Y-2.9728
X5.85Y-3.2728
X5.8504Y-2.1724
X5.8504Y-2.4724
X5.9496Y-2.5732
X5.9496Y-2.8732
X5.95Y-2.9728
X5.95Y-3.2728
X5.9504Y-2.1724
X5.9504Y-2.4724
X6.0496Y-2.5732
X6.0496Y-2.8732
X6.05Y-2.9728
X6.05Y-3.2728
X6.0504Y-2.1724
X6.0504Y-2.4724
X6.1496Y-2.5732
X6.1496Y-2.8732
X6.15Y-2.9728
X6.15Y-3.2728
X6.1504Y-2.1724
X6.1504Y-2.4724
X6.2496Y-2.5732
X6.2496Y-2.8732
X6.25Y-2.9728
X6.25Y-3.2728
X6.2504Y-2.1724
X6.2504Y-2.4724
X6.3496Y-2.5732
X6.3496Y-2.8732
X6.35Y-2.9728
X6.35Y-3.2728
X6.3504Y-2.1724
X6.3504Y-2.4724
X6.4496Y-2.5732
X6.4496Y-2.8732
X6.45Y-2.9728
X6.45Y-3.2728
X6.4504Y-2.1724
X6.4504Y-2.4724
X6.5496Y-2.5732
X6.5496Y-2.8732
X6.55Y-2.9728
X6.55Y-3.2728
X6.5504Y-2.1724
X6.5504Y-2.4724
X6.6496Y-2.5732
X6.6496Y-2.8732
X6.6504Y-2.1724
X6.6504Y-2.4724
X6.6504Y-2.9724
X6.6504Y-3.2724
X6.7496Y-2.5732
X6.7496Y-2.8732
X6.7504Y-2.1724
X6.7504Y-2.4724
X6.7504Y-2.9724
X6.7504Y-3.2724
X6.8496Y-2.5732
X6.8496Y-2.8732
X6.8504Y-2.1724
X6.8504Y-2.4724
X6.8504Y-2.9724
X6.8504Y-3.2724
X6.9496Y-2.5732
X6.9496Y-2.8732
X6.9504Y-2.1724
X6.9504Y-2.4724
X6.9504Y-2.9724
X6.9504Y-3.2724
X7.0998Y-2.1724
X7.0998Y-2.4724
X7.1Y-2.5728
X7.1Y-2.8728
X7.1Y-2.9728
X7.1Y-3.2728
X7.1998Y-2.1724
X7.1998Y-2.4724
X7.2Y-2.5728
X7.2Y-2.8728
X7.2Y-2.9728
X7.2Y-3.2728
X7.2998Y-2.1724
X7.2998Y-2.4724
X7.3Y-2.5728
X7.3Y-2.8728
X7.3Y-2.9728
X7.3Y-3.2728
X7.3998Y-2.1724
X7.3998Y-2.4724
X7.4Y-2.5728
X7.4Y-2.8728
X7.4Y-2.9728
X7.4Y-3.2728
X7.4998Y-2.1724
X7.4998Y-2.4724
X7.5Y-2.5728
X7.5Y-2.8728
X7.5Y-2.9728
X7.5Y-3.2728
X7.5998Y-2.1724
X7.5998Y-2.4724
X7.6Y-2.5728
X7.6Y-2.8728
X7.6Y-2.9728
X7.6Y-3.2728
X7.6998Y-2.1724
X7.6998Y-2.4724
X7.7Y-2.5728
X7.7Y-2.8728
X7.7Y-2.9728
X7.7Y-3.2728
X7.85Y-2.5728
X7.85Y-2.8728
X7.85Y-2.9728
X7.85Y-3.2728
X7.8504Y-2.1724
X7.8504Y-2.4724
X7.95Y-2.5728
X7.95Y-2.8728
X7.95Y-2.9728
X7.95Y-3.2728
X7.9504Y-2.1724
X7.9504Y-2.4724
X8.05Y-2.5728
X8.05Y-2.8728
X8.05Y-2.9728
X8.05Y-3.2728
X8.0504Y-2.1724
X8.0504Y-2.4724
X8.15Y-2.5728
X8.15Y-2.8728
X8.15Y-2.9728
X8.15Y-3.2728
X8.1504Y-2.1724
X8.1504Y-2.4724
X8.25Y-2.5728
X8.25Y-2.8728
X8.25Y-2.9728
X8.25Y-3.2728
X8.2504Y-2.1724
X8.2504Y-2.4724
X8.35Y-2.5728
X8.35Y-2.8728
X8.35Y-2.9728
X8.35Y-3.2728
X8.3504Y-2.1724
X8.3504Y-2.4724
X8.45Y-2.5728
X8.45Y-2.8728
X8.45Y-2.9728
X8.45Y-3.2728
X8.4504Y-2.1724
X8.4504Y-2.4724
X8.55Y-2.5728
X8.55Y-2.8728
X8.55Y-2.9728
X8.55Y-3.2728
X8.5504Y-2.1724
X8.5504Y-2.4724
X8.65Y-2.5728
X8.65Y-2.8728
X8.6504Y-2.1724
X8.6504Y-2.4724
X8.6504Y-2.9724
X8.6504Y-3.2724
X8.75Y-2.5728
X8.75Y-2.8728
X8.7504Y-2.1724
X8.7504Y-2.4724
X8.7504Y-2.9724
X8.7504Y-3.2724
X8.85Y-2.5728
X8.85Y-2.8728
X8.8504Y-2.1724
X8.8504Y-2.4724
X8.8504Y-2.9724
X8.8504Y-3.2724
X8.95Y-2.5728
X8.95Y-2.8728
X8.9504Y-2.1724
X8.9504Y-2.4724
X8.9504Y-2.9724
X8.9504Y-3.2724
T4
X5.3Y-2.3228
X5.3Y-2.4228
X5.3Y-2.5228
T5
X9.1781Y-2.5047
X9.1781Y-2.6138
X9.1781Y-2.7228
X9.1781Y-2.8319
X9.1781Y-2.9409
X9.29Y-2.5593
X9.29Y-2.6683
X9.29Y-2.7774
X9.29Y-2.8864
X9.4439Y-2.5047
X9.4439Y-2.6138
X9.4439Y-2.7228
X9.4439Y-2.8319
X9.4439Y-2.9409
X9.5557Y-2.5593
X9.5557Y-2.6683
X9.5557Y-2.7774
X9.5557Y-2.8864
T6
X5.8965Y-3.4693
X5.9059Y-1.9673
X6.2713Y-3.4697
X6.2807Y-1.9677
X6.6465Y-3.4697
X6.6559Y-1.9677
X7.772Y-3.4697
X7.7815Y-1.9677
X8.1472Y-3.4697
X8.1567Y-1.9677
X8.5224Y-3.4697
X8.5319Y-1.9677
T7
X9.2407Y-2.2311
X9.2407Y-3.2146
X9.5557Y-2.2311
X9.5557Y-3.2146
T8
X5.5209Y-3.4697
X5.5303Y-1.9677
X7.0217Y-3.4697
X7.0311Y-1.9677
X7.3969Y-3.4697
X7.4063Y-1.9677
X8.8976Y-3.4697
X8.9071Y-1.9677
T0
M30
