%TF.GenerationSoftware,KiCad,Pcbnew,7.0.5*%
%TF.CreationDate,2024-09-10T19:27:24-04:00*%
%TF.ProjectId,PCB_PCB_OpenSuperHetv6PCB,5043425f-5043-4425-9f4f-70656e537570,rev?*%
%TF.SameCoordinates,Original*%
%TF.FileFunction,Copper,L2,Bot*%
%TF.FilePolarity,Positive*%
%FSLAX46Y46*%
G04 Gerber Fmt 4.6, Leading zero omitted, Abs format (unit mm)*
G04 Created by KiCad (PCBNEW 7.0.5) date 2024-09-10 19:27:24*
%MOMM*%
%LPD*%
G01*
G04 APERTURE LIST*
G04 Aperture macros list*
%AMRotRect*
0 Rectangle, with rotation*
0 The origin of the aperture is its center*
0 $1 length*
0 $2 width*
0 $3 Rotation angle, in degrees counterclockwise*
0 Add horizontal line*
21,1,$1,$2,0,0,$3*%
G04 Aperture macros list end*
%TA.AperFunction,ComponentPad*%
%ADD10R,1.800000X1.800000*%
%TD*%
%TA.AperFunction,ComponentPad*%
%ADD11C,1.800000*%
%TD*%
%TA.AperFunction,ComponentPad*%
%ADD12C,1.200000*%
%TD*%
%TA.AperFunction,SMDPad,CuDef*%
%ADD13RotRect,1.000000X0.900000X135.000000*%
%TD*%
%TA.AperFunction,ComponentPad*%
%ADD14R,1.575000X1.575000*%
%TD*%
%TA.AperFunction,SMDPad,CuDef*%
%ADD15R,0.900000X0.800000*%
%TD*%
%TA.AperFunction,SMDPad,CuDef*%
%ADD16RotRect,0.806000X0.864000X45.000000*%
%TD*%
%TA.AperFunction,SMDPad,CuDef*%
%ADD17R,0.532000X1.072000*%
%TD*%
%TA.AperFunction,SMDPad,CuDef*%
%ADD18RotRect,1.500000X5.000000X135.000000*%
%TD*%
%TA.AperFunction,ComponentPad*%
%ADD19C,1.500000*%
%TD*%
%TA.AperFunction,ComponentPad*%
%ADD20R,1.500000X1.500000*%
%TD*%
%TA.AperFunction,SMDPad,CuDef*%
%ADD21RotRect,1.500000X5.000000X45.000000*%
%TD*%
%TA.AperFunction,ComponentPad*%
%ADD22O,2.800000X1.400000*%
%TD*%
%TA.AperFunction,ViaPad*%
%ADD23C,0.450000*%
%TD*%
%TA.AperFunction,Conductor*%
%ADD24C,0.200000*%
%TD*%
%TA.AperFunction,Conductor*%
%ADD25C,0.350000*%
%TD*%
%TA.AperFunction,Conductor*%
%ADD26C,0.100000*%
%TD*%
%TA.AperFunction,Conductor*%
%ADD27C,0.500000*%
%TD*%
G04 APERTURE END LIST*
D10*
%TO.P,U7,1*%
%TO.N,U7_1*%
X34616060Y-18787913D03*
D11*
%TO.P,U7,2*%
%TO.N,+5V*%
X32076060Y-18787913D03*
%TD*%
D12*
%TO.P,U2,1*%
%TO.N,RX_BBQN*%
X33242000Y-22322000D03*
%TO.P,U2,2*%
%TO.N,RX_BBQP_FEEDBACK*%
X31242000Y-22322000D03*
%TO.P,U2,3*%
%TO.N,RX_BBQP*%
X33242000Y-24322000D03*
%TO.P,U2,4*%
%TO.N,RX_BBQN_FEEDBACK*%
X31242000Y-24322000D03*
%TO.P,U2,5*%
%TO.N,RX_BBIN*%
X33242000Y-26322000D03*
%TO.P,U2,6*%
%TO.N,RX_BBIN_FEEDBACK*%
X31242000Y-26322000D03*
%TO.P,U2,7*%
%TO.N,RX_BBIP*%
X33242000Y-28322000D03*
%TO.P,U2,8*%
%TO.N,RX_BBIP_FEEDBACK*%
X31242000Y-28322000D03*
%TO.P,U2,9*%
%TO.N,TX_BBQN_FEEDBACK*%
X33242000Y-30322000D03*
%TO.P,U2,10*%
%TO.N,TX_BBIP*%
X31242000Y-30322000D03*
%TO.P,U2,11*%
%TO.N,TX_BBQP_FEEDBACK*%
X33242000Y-32322000D03*
%TO.P,U2,12*%
%TO.N,TX_BBIN*%
X31242000Y-32322000D03*
%TO.P,U2,13*%
%TO.N,TX_BBIN_FEEDBACK*%
X33242000Y-34322000D03*
%TO.P,U2,14*%
%TO.N,TX_BBQN*%
X31242000Y-34322000D03*
%TO.P,U2,15*%
%TO.N,TX_BBIP_FEEDBACK*%
X33242000Y-36322000D03*
%TO.P,U2,16*%
%TO.N,TX_BBQP*%
X31242000Y-36322000D03*
%TO.P,U2,17*%
%TO.N,U2_17*%
X33242000Y-38322000D03*
%TO.P,U2,18*%
%TO.N,U2_18*%
X31242000Y-38322000D03*
%TO.P,U2,19*%
%TO.N,U2_19*%
X33242000Y-40322000D03*
%TO.P,U2,20*%
%TO.N,U2_20*%
X31242000Y-40322000D03*
%TD*%
D13*
%TO.P,LED1,2*%
%TO.N,GND*%
X5935041Y-19464959D03*
%TO.P,LED1,1*%
%TO.N,LED1_1*%
X4732959Y-20667041D03*
%TD*%
D14*
%TO.P,J2,1*%
%TO.N,DB6*%
X52070000Y-38354000D03*
%TD*%
D15*
%TO.P,C33,1*%
%TO.N,GND*%
X6604000Y-34166000D03*
%TO.P,C33,2*%
%TO.N,VCC*%
X6604000Y-32766000D03*
%TD*%
D16*
%TO.P,R3,1*%
%TO.N,+5V*%
X2261549Y-23138451D03*
%TO.P,R3,2*%
%TO.N,LED1_1*%
X3326451Y-22073549D03*
%TD*%
D17*
%TO.P,U4,1*%
%TO.N,VCC*%
X6538000Y-29597000D03*
%TO.P,U4,2*%
%TO.N,GND*%
X5588000Y-29597000D03*
%TO.P,U4,3*%
%TO.N,U4_3*%
X4638000Y-29597000D03*
%TO.P,U4,4*%
%TO.N,+5V*%
X4638000Y-27299000D03*
%TO.P,U4,5*%
X5588000Y-27299000D03*
%TO.P,U4,6*%
%TO.N,VCCDAC*%
X6538000Y-27299000D03*
%TD*%
D18*
%TO.P,ANT_SMA2,3*%
%TO.N,GND*%
X60745544Y-23280544D03*
%TO.P,ANT_SMA2,4*%
X56856456Y-19391456D03*
%TD*%
D14*
%TO.P,J7,1*%
%TO.N,DB1*%
X44196000Y-23114000D03*
%TD*%
D19*
%TO.P,SYS_CTRL,14*%
%TO.N,BBC_CS*%
X48768000Y-18688011D03*
%TO.P,SYS_CTRL,13*%
%TO.N,TR_SCLK*%
X48768000Y-20688011D03*
%TO.P,SYS_CTRL,12*%
%TO.N,SYS_CTRL_6*%
X46768000Y-18688011D03*
%TO.P,SYS_CTRL,11*%
%TO.N,TR_DIN*%
X46768000Y-20688011D03*
%TO.P,SYS_CTRL,10*%
%TO.N,BBC_SCLK*%
X44768000Y-18688011D03*
%TO.P,SYS_CTRL,9*%
%TO.N,TR_CS#*%
X44768000Y-20688011D03*
%TO.P,SYS_CTRL,8*%
%TO.N,SYS_CTRL_8*%
X42768000Y-18688011D03*
%TO.P,SYS_CTRL,7*%
%TO.N,TR_SHDN#*%
X42768000Y-20688011D03*
%TO.P,SYS_CTRL,6*%
%TO.N,BBC_DIN*%
X40768000Y-18688011D03*
%TO.P,SYS_CTRL,5*%
%TO.N,RX_HP_CTRL*%
X40768000Y-20688011D03*
%TO.P,SYS_CTRL,4*%
%TO.N,U7_1*%
X38768000Y-18688011D03*
%TO.P,SYS_CTRL,3*%
%TO.N,RXTX_MODE*%
X38768000Y-20688011D03*
%TO.P,SYS_CTRL,2*%
%TO.N,GND*%
X36768000Y-18688011D03*
D20*
%TO.P,SYS_CTRL,1*%
%TO.N,VCC*%
X36768000Y-20688011D03*
%TD*%
D12*
%TO.P,U3,1*%
%TO.N,DAC_IN0*%
X14192000Y-21622000D03*
%TO.P,U3,2*%
%TO.N,ADC_OUT7*%
X12192000Y-21622000D03*
%TO.P,U3,3*%
%TO.N,DAC_IN1*%
X14192000Y-23622000D03*
%TO.P,U3,4*%
%TO.N,ADC_OUT6*%
X12192000Y-23622000D03*
%TO.P,U3,5*%
%TO.N,DAC_IN2*%
X14192000Y-25622000D03*
%TO.P,U3,6*%
%TO.N,ADC_OUT5*%
X12192000Y-25622000D03*
%TO.P,U3,7*%
%TO.N,DAC_IN3*%
X14192000Y-27622000D03*
%TO.P,U3,8*%
%TO.N,ADC_OUT4*%
X12192000Y-27622000D03*
%TO.P,U3,9*%
%TO.N,DAC_IN4*%
X14192000Y-29622000D03*
%TO.P,U3,10*%
%TO.N,ADC_OUT3*%
X12192000Y-29622000D03*
%TO.P,U3,11*%
%TO.N,DAC_IN5*%
X14192000Y-31622000D03*
%TO.P,U3,12*%
%TO.N,ADC_OUT2*%
X12192000Y-31622000D03*
%TO.P,U3,13*%
%TO.N,DAC_IN6*%
X14192000Y-33622000D03*
%TO.P,U3,14*%
%TO.N,ADC_OUT1*%
X12192000Y-33622000D03*
%TO.P,U3,15*%
%TO.N,DAC_IN7*%
X14192000Y-35622000D03*
%TO.P,U3,16*%
%TO.N,ADC_OUT0*%
X12192000Y-35622000D03*
%TO.P,U3,17*%
%TO.N,DAC_IN8*%
X14192000Y-37622000D03*
%TO.P,U3,18*%
%TO.N,DAC_IN9*%
X12192000Y-37622000D03*
%TO.P,U3,19*%
%TO.N,U3_19*%
X14192000Y-39622000D03*
%TO.P,U3,20*%
%TO.N,U3_20*%
X12192000Y-39622000D03*
%TD*%
D14*
%TO.P,J6,1*%
%TO.N,DB2*%
X52578000Y-20828000D03*
%TD*%
D21*
%TO.P,ANT_SMA1,3*%
%TO.N,GND*%
X56856456Y-37504544D03*
%TO.P,ANT_SMA1,4*%
X60745544Y-33615456D03*
%TD*%
D14*
%TO.P,J3,1*%
%TO.N,DB5*%
X52578000Y-23622000D03*
%TD*%
%TO.P,J1,1*%
%TO.N,DB7*%
X62484000Y-30988000D03*
%TD*%
D22*
%TO.P,DC1,1*%
%TO.N,+5V*%
X1438000Y-25711000D03*
%TO.P,DC1,2*%
%TO.N,GND*%
X1438000Y-31311000D03*
%TD*%
D10*
%TO.P,U6,1*%
%TO.N,BBC_CLK*%
X28956000Y-22860000D03*
D11*
%TO.P,U6,2*%
%TO.N,INT_CLK*%
X28956000Y-20320000D03*
%TD*%
D14*
%TO.P,J5,1*%
%TO.N,DB3*%
X62484000Y-28194000D03*
%TD*%
%TO.P,CLK1,1*%
%TO.N,BBC_CLK*%
X26670000Y-22860000D03*
%TD*%
%TO.P,J4,1*%
%TO.N,DB4*%
X39624000Y-33274000D03*
%TD*%
D15*
%TO.P,C31,1*%
%TO.N,GND*%
X6604000Y-22414000D03*
%TO.P,C31,2*%
%TO.N,VCCDAC*%
X6604000Y-23814000D03*
%TD*%
D23*
%TO.N,VCC*%
X44842601Y-25518260D03*
%TO.N,GND*%
X40132000Y-26924000D03*
X56134000Y-23114000D03*
X55626000Y-23622000D03*
X55118000Y-24130000D03*
X55118000Y-26924000D03*
X55626000Y-26416000D03*
X56134000Y-25908000D03*
X56642000Y-25400000D03*
X56896000Y-24638000D03*
X57404000Y-24130000D03*
X58928000Y-30734000D03*
X58166000Y-30734000D03*
X57404000Y-30734000D03*
X55626000Y-34290000D03*
X55626000Y-33528000D03*
X56642000Y-30734000D03*
X55880000Y-30734000D03*
X57150000Y-32766000D03*
X56642000Y-32258000D03*
X56134000Y-31750000D03*
X55626000Y-31242000D03*
X55118000Y-30734000D03*
X57150000Y-28702000D03*
X56388000Y-28702000D03*
X22860000Y-23876000D03*
X21844000Y-23876000D03*
X20066000Y-26416000D03*
X20574000Y-26162000D03*
X21082000Y-26670000D03*
X20574000Y-26924000D03*
X22860000Y-32004000D03*
X22860000Y-31496000D03*
X23368000Y-35560000D03*
X23368000Y-36068000D03*
X22860000Y-36068000D03*
X22860000Y-35560000D03*
X8382000Y-16510000D03*
X7874000Y-16764000D03*
X7620000Y-17272000D03*
X29210000Y-30988000D03*
X53086000Y-33782000D03*
X50546000Y-35560000D03*
X48006000Y-35306000D03*
X46453737Y-30448211D03*
X46958620Y-30475502D03*
X46958620Y-30966739D03*
X46467383Y-30980385D03*
X45009928Y-35481833D03*
X39616538Y-30460272D03*
X41544860Y-29627030D03*
X46736000Y-27178000D03*
X46228000Y-27178000D03*
X46736000Y-26670000D03*
X46228000Y-26670000D03*
X35052000Y-21336000D03*
X40386000Y-23114000D03*
X42164000Y-25400000D03*
X47244000Y-22860000D03*
X49276000Y-22352000D03*
X26162000Y-19558000D03*
X21082000Y-19812000D03*
X22352000Y-23622000D03*
%TO.N,TR_SHDN#*%
X50800000Y-18796000D03*
%TO.N,VCCDAC*%
X24384000Y-30988000D03*
X24982254Y-22363413D03*
X23560005Y-21446511D03*
%TO.N,GND*%
X6096000Y-21336000D03*
%TO.N,U4_3*%
X4064000Y-28702000D03*
X3556000Y-28702000D03*
%TO.N,VCCDAC*%
X27185799Y-25308500D03*
%TO.N,GND*%
X25908000Y-30226000D03*
%TO.N,VCCDAC*%
X25637500Y-29431548D03*
X20205208Y-30365208D03*
%TO.N,GND*%
X18288000Y-21844000D03*
%TO.N,VCCDAC*%
X18990101Y-22665899D03*
%TO.N,VCC*%
X52832000Y-28702000D03*
X52832000Y-32258000D03*
X50500500Y-33782000D03*
X47879000Y-33655000D03*
X46657117Y-33609021D03*
X44196000Y-27178000D03*
X44196000Y-28702000D03*
X47752000Y-24638000D03*
X49276000Y-24638000D03*
X52070000Y-25400000D03*
%TO.N,DB1*%
X46228000Y-24638000D03*
%TD*%
D24*
%TO.N,VCC*%
X44842601Y-25500066D02*
X44815310Y-25527357D01*
X44842601Y-25518260D02*
X44842601Y-25500066D01*
X44824407Y-25518260D02*
X44842601Y-25518260D01*
X44196000Y-26146667D02*
X44824407Y-25518260D01*
X44196000Y-27178000D02*
X44196000Y-26146667D01*
D25*
%TO.N,GND*%
X44303500Y-24530500D02*
X45104500Y-24530500D01*
X43434000Y-25400000D02*
X44303500Y-24530500D01*
X42164000Y-25400000D02*
X43434000Y-25400000D01*
X46228000Y-25654000D02*
X46228000Y-26670000D01*
X45104500Y-24530500D02*
X46228000Y-25654000D01*
X47244000Y-22860000D02*
X46775000Y-22860000D01*
X46775000Y-22860000D02*
X45104500Y-24530500D01*
%TO.N,VCC*%
X52070000Y-32258000D02*
X51054000Y-31242000D01*
X52832000Y-32258000D02*
X52070000Y-32258000D01*
%TO.N,GND*%
X40132000Y-26924000D02*
X41544860Y-28336860D01*
X55626000Y-34290000D02*
X55626000Y-33528000D01*
X56856456Y-34758456D02*
X55626000Y-33528000D01*
X56856456Y-37504544D02*
X56856456Y-34758456D01*
X57150000Y-32766000D02*
X59245500Y-34861500D01*
X59245500Y-35115500D02*
X60745544Y-33615456D01*
X59245500Y-34861500D02*
X59245500Y-35115500D01*
X56856456Y-37504544D02*
X59245500Y-35115500D01*
X55118000Y-30734000D02*
X57150000Y-32766000D01*
X55118000Y-30734000D02*
X58928000Y-30734000D01*
X59372500Y-22161500D02*
X59626500Y-22161500D01*
X57404000Y-24130000D02*
X59372500Y-22161500D01*
X59626500Y-22161500D02*
X58229500Y-20764500D01*
X60745544Y-23280544D02*
X59626500Y-22161500D01*
X56642000Y-24892000D02*
X57404000Y-24130000D01*
X56642000Y-25400000D02*
X56642000Y-24892000D01*
X55118000Y-26924000D02*
X56642000Y-25400000D01*
X58229500Y-21018500D02*
X58229500Y-20764500D01*
X55118000Y-24130000D02*
X58229500Y-21018500D01*
X58229500Y-20764500D02*
X56856456Y-19391456D01*
X58166000Y-31242000D02*
X60539456Y-33615456D01*
X58166000Y-30734000D02*
X58166000Y-31242000D01*
X57658000Y-30734000D02*
X58166000Y-30734000D01*
X57658000Y-30734000D02*
X57658000Y-30734000D01*
X57404000Y-30734000D02*
X57658000Y-30734000D01*
X57404000Y-30480000D02*
X57404000Y-30734000D01*
X60539456Y-33615456D02*
X60745544Y-33615456D01*
X55626000Y-28702000D02*
X57404000Y-30480000D01*
X55626000Y-28702000D02*
X57150000Y-28702000D01*
X55626000Y-28400088D02*
X55626000Y-28702000D01*
X60745544Y-23280544D02*
X55626000Y-28400088D01*
X28597000Y-41297000D02*
X22860000Y-35560000D01*
X53064000Y-41297000D02*
X28597000Y-41297000D01*
X56856456Y-37504544D02*
X53064000Y-41297000D01*
X54008000Y-16543000D02*
X49022000Y-16543000D01*
X49022000Y-16543000D02*
X49395529Y-16543000D01*
X56856456Y-19391456D02*
X54008000Y-16543000D01*
X37852351Y-16543000D02*
X49022000Y-16543000D01*
X60745544Y-33615456D02*
X60745544Y-23280544D01*
X22606000Y-23622000D02*
X22860000Y-23876000D01*
X22352000Y-23622000D02*
X22606000Y-23622000D01*
X22098000Y-23876000D02*
X22352000Y-23622000D01*
X21844000Y-23876000D02*
X22098000Y-23876000D01*
%TO.N,VCCDAC*%
X24982254Y-22769746D02*
X24982254Y-22363413D01*
X23155000Y-24597000D02*
X24982254Y-22769746D01*
X22748667Y-24597000D02*
X23155000Y-24597000D01*
X23155000Y-24597000D02*
X23560005Y-24191995D01*
X23560005Y-24191995D02*
X23560005Y-21446511D01*
X21041000Y-24597000D02*
X23155000Y-24597000D01*
X20828000Y-24384000D02*
X21041000Y-24597000D01*
%TO.N,GND*%
X20828000Y-26670000D02*
X20574000Y-26924000D01*
X21082000Y-26670000D02*
X20828000Y-26670000D01*
X20574000Y-26162000D02*
X21082000Y-26670000D01*
X20320000Y-26416000D02*
X20574000Y-26162000D01*
X20066000Y-26416000D02*
X20320000Y-26416000D01*
X20574000Y-26924000D02*
X20066000Y-26416000D01*
X19605208Y-27892792D02*
X20574000Y-26924000D01*
X19605208Y-30613737D02*
X19605208Y-27892792D01*
X20995471Y-32004000D02*
X19605208Y-30613737D01*
X22860000Y-32004000D02*
X20995471Y-32004000D01*
X25654000Y-30988000D02*
X29210000Y-30988000D01*
X25443265Y-30777265D02*
X25654000Y-30988000D01*
X25443265Y-30777265D02*
X25908000Y-30312529D01*
X24216529Y-32004000D02*
X25443265Y-30777265D01*
X25908000Y-30312529D02*
X25908000Y-30226000D01*
X22860000Y-32004000D02*
X24216529Y-32004000D01*
X22860000Y-32004000D02*
X22860000Y-31496000D01*
X22860000Y-36068000D02*
X22860000Y-35560000D01*
X23368000Y-36068000D02*
X22860000Y-36068000D01*
X23368000Y-35560000D02*
X23368000Y-36068000D01*
X22860000Y-35560000D02*
X23368000Y-35560000D01*
X21947000Y-34647000D02*
X22860000Y-35560000D01*
X7717000Y-34647000D02*
X21947000Y-34647000D01*
X7236000Y-34166000D02*
X7717000Y-34647000D01*
X6604000Y-34166000D02*
X7236000Y-34166000D01*
X8382000Y-16510000D02*
X8128000Y-16764000D01*
X7874000Y-17018000D02*
X7620000Y-17272000D01*
X7874000Y-16764000D02*
X7874000Y-17018000D01*
X8128000Y-16764000D02*
X7874000Y-16764000D01*
X8890000Y-16002000D02*
X8382000Y-16510000D01*
X35142649Y-16002000D02*
X8890000Y-16002000D01*
%TO.N,+5V*%
X2261549Y-21901015D02*
X2261549Y-23138451D01*
X31176060Y-17887913D02*
X6274651Y-17887913D01*
X32076060Y-18787913D02*
X31176060Y-17887913D01*
X6274651Y-17887913D02*
X2261549Y-21901015D01*
%TO.N,GND*%
X27178000Y-18542000D02*
X30027024Y-18542000D01*
X32821024Y-21336000D02*
X34544000Y-21336000D01*
X26162000Y-19558000D02*
X27178000Y-18542000D01*
X30027024Y-18542000D02*
X32821024Y-21336000D01*
X35142649Y-16002000D02*
X36768000Y-17627351D01*
D24*
X29210000Y-30226000D02*
X29464000Y-29972000D01*
X25908000Y-30226000D02*
X29210000Y-30226000D01*
D25*
%TO.N,VCC*%
X50500500Y-33782000D02*
X50292000Y-33573500D01*
X50292000Y-33573500D02*
X50292000Y-32004000D01*
D24*
%TO.N,GND*%
X53086000Y-33782000D02*
X52324000Y-33782000D01*
X50546000Y-35560000D02*
X52324000Y-33782000D01*
X48260000Y-35560000D02*
X50546000Y-35560000D01*
X48006000Y-35306000D02*
X48260000Y-35560000D01*
X47830167Y-35481833D02*
X48006000Y-35306000D01*
X45009928Y-35481833D02*
X47830167Y-35481833D01*
X46931329Y-30448211D02*
X46958620Y-30475502D01*
X46453737Y-30448211D02*
X46931329Y-30448211D01*
X46958620Y-30966739D02*
X46958620Y-30475502D01*
X46944974Y-30980385D02*
X46958620Y-30966739D01*
X46467383Y-30980385D02*
X46944974Y-30980385D01*
X46453737Y-30966739D02*
X46467383Y-30980385D01*
X46453737Y-30448211D02*
X46453737Y-30966739D01*
X46489615Y-30980385D02*
X46482000Y-30988000D01*
X46467383Y-30980385D02*
X46489615Y-30980385D01*
X46467383Y-31002617D02*
X46467383Y-30980385D01*
X45009928Y-32460072D02*
X46467383Y-31002617D01*
X45009928Y-35481833D02*
X45009928Y-32460072D01*
X39616538Y-30487462D02*
X39624000Y-30480000D01*
X39616538Y-30460272D02*
X39616538Y-30487462D01*
X39643728Y-30460272D02*
X39616538Y-30460272D01*
X40476970Y-29627030D02*
X39643728Y-30460272D01*
X41544860Y-29627030D02*
X40476970Y-29627030D01*
D25*
X41544860Y-28336860D02*
X41544860Y-29627030D01*
X34544000Y-21336000D02*
X40132000Y-26924000D01*
X34544000Y-21336000D02*
X35052000Y-21336000D01*
X46228000Y-27178000D02*
X46228000Y-26670000D01*
X46736000Y-27178000D02*
X46228000Y-27178000D01*
X46736000Y-26670000D02*
X46736000Y-27178000D01*
X46228000Y-26670000D02*
X46736000Y-26670000D01*
X46212182Y-26670000D02*
X46220091Y-26662091D01*
X46228000Y-26670000D02*
X46212182Y-26670000D01*
%TO.N,VCC*%
X47752000Y-27178000D02*
X47752000Y-25908000D01*
X45720000Y-29210000D02*
X47752000Y-27178000D01*
X43688000Y-29210000D02*
X45720000Y-29210000D01*
%TO.N,GND*%
X46228000Y-26654182D02*
X46228000Y-26654182D01*
X42164000Y-24892000D02*
X40386000Y-23114000D01*
X42164000Y-25400000D02*
X42164000Y-24892000D01*
X47752000Y-22352000D02*
X47244000Y-22860000D01*
X49276000Y-22352000D02*
X47752000Y-22352000D01*
X51400000Y-20228000D02*
X49276000Y-22352000D01*
X51400000Y-18547471D02*
X51400000Y-20228000D01*
X49395529Y-16543000D02*
X51400000Y-18547471D01*
X36768000Y-17627351D02*
X37852351Y-16543000D01*
X36768000Y-17627351D02*
X36768000Y-18688011D01*
X25908000Y-19812000D02*
X26162000Y-19558000D01*
X21082000Y-19812000D02*
X25908000Y-19812000D01*
X21082000Y-21336000D02*
X21082000Y-19812000D01*
X20574000Y-21844000D02*
X21082000Y-21336000D01*
X20574000Y-21844000D02*
X18288000Y-21844000D01*
X22352000Y-23622000D02*
X20574000Y-21844000D01*
X17485000Y-22647000D02*
X18288000Y-21844000D01*
X8320000Y-22414000D02*
X8553000Y-22647000D01*
X8553000Y-22647000D02*
X17485000Y-22647000D01*
X6604000Y-22414000D02*
X8320000Y-22414000D01*
D24*
%TO.N,TR_SHDN#*%
X50360914Y-18796000D02*
X50800000Y-18796000D01*
X48582914Y-17018000D02*
X50360914Y-18796000D01*
X44450000Y-17018000D02*
X48582914Y-17018000D01*
X43768000Y-17700000D02*
X44450000Y-17018000D01*
X43768000Y-19688011D02*
X43768000Y-17700000D01*
D26*
X43688000Y-19768011D02*
X43768000Y-19688011D01*
D24*
X42768000Y-20688011D02*
X43688000Y-19768011D01*
D25*
%TO.N,VCC*%
X46990000Y-32004000D02*
X46736000Y-32258000D01*
X46736000Y-33530138D02*
X46657117Y-33609021D01*
X48514000Y-32004000D02*
X46990000Y-32004000D01*
X50292000Y-32004000D02*
X48514000Y-32004000D01*
X48514000Y-32004000D02*
X48006000Y-32004000D01*
X46736000Y-32258000D02*
X46736000Y-33530138D01*
X47879000Y-32385000D02*
X47879000Y-33655000D01*
X47752000Y-32258000D02*
X47879000Y-32385000D01*
X48006000Y-32004000D02*
X47752000Y-32258000D01*
X51054000Y-31242000D02*
X50292000Y-32004000D01*
X51054000Y-28448000D02*
X51054000Y-31242000D01*
X51308000Y-28702000D02*
X52832000Y-28702000D01*
X51054000Y-28448000D02*
X51308000Y-28702000D01*
X51054000Y-26670000D02*
X51054000Y-28448000D01*
X52070000Y-25654000D02*
X52070000Y-25400000D01*
X51054000Y-26670000D02*
X52070000Y-25654000D01*
X50292000Y-25908000D02*
X51054000Y-26670000D01*
X49276000Y-25908000D02*
X50292000Y-25908000D01*
X49276000Y-25908000D02*
X49276000Y-24638000D01*
X47752000Y-25908000D02*
X49276000Y-25908000D01*
X47752000Y-25908000D02*
X47752000Y-24638000D01*
X43688000Y-29210000D02*
X44196000Y-28702000D01*
X44196000Y-28702000D02*
X44196000Y-27178000D01*
X36768000Y-22290000D02*
X36768000Y-20688011D01*
X43688000Y-29210000D02*
X36768000Y-22290000D01*
X41551000Y-31347000D02*
X43688000Y-29210000D01*
X30267000Y-31918141D02*
X30838141Y-31347000D01*
X30838141Y-31347000D02*
X41551000Y-31347000D01*
X30267000Y-32647000D02*
X30267000Y-31918141D01*
X11549000Y-32647000D02*
X30267000Y-32647000D01*
%TO.N,VCCDAC*%
X22466792Y-30365208D02*
X23114000Y-29718000D01*
X20205208Y-30365208D02*
X22466792Y-30365208D01*
X23114000Y-29718000D02*
X24384000Y-30988000D01*
X24384000Y-28448000D02*
X23114000Y-29718000D01*
X24384000Y-25908000D02*
X24384000Y-28448000D01*
X24384000Y-28178048D02*
X25637500Y-29431548D01*
X24384000Y-25908000D02*
X24384000Y-28178048D01*
X26586299Y-25908000D02*
X27185799Y-25308500D01*
X24384000Y-25908000D02*
X26586299Y-25908000D01*
X23073000Y-24597000D02*
X24384000Y-25908000D01*
X22748667Y-24597000D02*
X23073000Y-24597000D01*
X20615000Y-24597000D02*
X22748667Y-24597000D01*
X23560005Y-21446511D02*
X23500706Y-21540850D01*
X19109899Y-22665899D02*
X18990101Y-22665899D01*
X20828000Y-24384000D02*
X19109899Y-22665899D01*
X20615000Y-24597000D02*
X20828000Y-24384000D01*
X8595000Y-24597000D02*
X20615000Y-24597000D01*
X7812000Y-23814000D02*
X8595000Y-24597000D01*
X6604000Y-23814000D02*
X7812000Y-23814000D01*
%TO.N,VCC*%
X11549000Y-32647000D02*
X11938000Y-32647000D01*
X11430000Y-32766000D02*
X11549000Y-32647000D01*
X6604000Y-32766000D02*
X11430000Y-32766000D01*
D27*
%TO.N,GND*%
X5935041Y-21175041D02*
X6096000Y-21336000D01*
X5935041Y-19464959D02*
X5935041Y-21175041D01*
%TO.N,LED1_1*%
X4732959Y-20667041D02*
X3326451Y-22073549D01*
%TO.N,+5V*%
X1438000Y-23962000D02*
X2261549Y-23138451D01*
X1438000Y-25711000D02*
X1438000Y-23962000D01*
%TO.N,VCCDAC*%
X6604000Y-27233000D02*
X6538000Y-27299000D01*
X6604000Y-23814000D02*
X6604000Y-27233000D01*
%TO.N,GND*%
X6604000Y-22414000D02*
X6604000Y-21844000D01*
X6604000Y-21844000D02*
X6096000Y-21336000D01*
X4318000Y-32830000D02*
X5654000Y-34166000D01*
X4318000Y-31311000D02*
X1438000Y-31311000D01*
X5654000Y-34166000D02*
X6604000Y-34166000D01*
X4626000Y-31311000D02*
X4318000Y-31311000D01*
X4318000Y-31311000D02*
X4318000Y-32830000D01*
%TO.N,VCC*%
X6538000Y-32700000D02*
X6604000Y-32766000D01*
X6538000Y-29597000D02*
X6538000Y-32700000D01*
%TO.N,U4_3*%
X4638000Y-29276000D02*
X4064000Y-28702000D01*
X4638000Y-29597000D02*
X4638000Y-29276000D01*
X3556000Y-28702000D02*
X4064000Y-28702000D01*
%TO.N,GND*%
X5588000Y-30349000D02*
X4626000Y-31311000D01*
X5588000Y-29597000D02*
X5588000Y-30349000D01*
%TO.N,+5V*%
X4638000Y-27299000D02*
X5588000Y-27299000D01*
X3050000Y-25711000D02*
X4638000Y-27299000D01*
X1438000Y-25711000D02*
X3050000Y-25711000D01*
%TD*%
%TA.AperFunction,Conductor*%
%TO.N,GND*%
G36*
X57415328Y-14635185D02*
G01*
X57435970Y-14651819D01*
X59032017Y-16247866D01*
X59065502Y-16309189D01*
X59060518Y-16378881D01*
X59032017Y-16423228D01*
X58669124Y-16786121D01*
X58607801Y-16819606D01*
X58538109Y-16814622D01*
X58493762Y-16786121D01*
X58413625Y-16705984D01*
X58366990Y-16668404D01*
X58236211Y-16608678D01*
X58236206Y-16608677D01*
X58093893Y-16588217D01*
X57951579Y-16608677D01*
X57951574Y-16608678D01*
X57820795Y-16668404D01*
X57774160Y-16705984D01*
X57774156Y-16705988D01*
X56149349Y-18330794D01*
X56149349Y-18330795D01*
X56856456Y-19037903D01*
X57917116Y-20098563D01*
X59541923Y-18473755D01*
X59541927Y-18473751D01*
X59579506Y-18427117D01*
X59586063Y-18412761D01*
X59631817Y-18359956D01*
X59698856Y-18340271D01*
X59765896Y-18359955D01*
X59786539Y-18376590D01*
X61760409Y-20350460D01*
X61793894Y-20411783D01*
X61788910Y-20481475D01*
X61747038Y-20537408D01*
X61724244Y-20550933D01*
X61709884Y-20557491D01*
X61663243Y-20595076D01*
X61663239Y-20595080D01*
X60038436Y-22219882D01*
X60038436Y-22219883D01*
X60745544Y-22926991D01*
X61806202Y-23987651D01*
X61806203Y-23987651D01*
X63431015Y-22362839D01*
X63468593Y-22316206D01*
X63503704Y-22239325D01*
X63549459Y-22186521D01*
X63616498Y-22166836D01*
X63683538Y-22186520D01*
X63729293Y-22239324D01*
X63740499Y-22290836D01*
X63740499Y-26874672D01*
X63720814Y-26941711D01*
X63668010Y-26987466D01*
X63598852Y-26997410D01*
X63542190Y-26973940D01*
X63517706Y-26955611D01*
X63380703Y-26904511D01*
X63320154Y-26898000D01*
X63320138Y-26898000D01*
X61647862Y-26898000D01*
X61647845Y-26898000D01*
X61587297Y-26904511D01*
X61587295Y-26904511D01*
X61450295Y-26955611D01*
X61333239Y-27043239D01*
X61245611Y-27160295D01*
X61194511Y-27297295D01*
X61194511Y-27297297D01*
X61188000Y-27357845D01*
X61188000Y-29030154D01*
X61194511Y-29090702D01*
X61194511Y-29090704D01*
X61239154Y-29210392D01*
X61245611Y-29227704D01*
X61333239Y-29344761D01*
X61450296Y-29432389D01*
X61501299Y-29451412D01*
X61564052Y-29474819D01*
X61619985Y-29516691D01*
X61644401Y-29582155D01*
X61629549Y-29650428D01*
X61580143Y-29699833D01*
X61564052Y-29707181D01*
X61450295Y-29749611D01*
X61333239Y-29837239D01*
X61245611Y-29954295D01*
X61194511Y-30091295D01*
X61194511Y-30091297D01*
X61188000Y-30151845D01*
X61188000Y-31824154D01*
X61194510Y-31884701D01*
X61240361Y-32007628D01*
X61245345Y-32077319D01*
X61211861Y-32138643D01*
X61150538Y-32172128D01*
X61080846Y-32167144D01*
X61036498Y-32138643D01*
X59827839Y-30929984D01*
X59781204Y-30892404D01*
X59650425Y-30832678D01*
X59650420Y-30832677D01*
X59508107Y-30812217D01*
X59365793Y-30832677D01*
X59365788Y-30832678D01*
X59235009Y-30892404D01*
X59188374Y-30929984D01*
X58801000Y-31317358D01*
X61011415Y-33527774D01*
X61044900Y-33589097D01*
X61039916Y-33658789D01*
X61011415Y-33703136D01*
X60038436Y-34676114D01*
X60038436Y-34676115D01*
X61663248Y-36300927D01*
X61709882Y-36338506D01*
X61724237Y-36345062D01*
X61777041Y-36390816D01*
X61796727Y-36457855D01*
X61777044Y-36524895D01*
X61760408Y-36545538D01*
X59786538Y-38519408D01*
X59725215Y-38552893D01*
X59655523Y-38547909D01*
X59599590Y-38506037D01*
X59586062Y-38483237D01*
X59579506Y-38468882D01*
X59541927Y-38422248D01*
X57917116Y-36797437D01*
X56856456Y-37858097D01*
X56149349Y-38565202D01*
X56149349Y-38565203D01*
X57774156Y-40190011D01*
X57774160Y-40190015D01*
X57820795Y-40227595D01*
X57951574Y-40287321D01*
X57951579Y-40287322D01*
X58093893Y-40307782D01*
X58236206Y-40287322D01*
X58236211Y-40287321D01*
X58366990Y-40227595D01*
X58413625Y-40190015D01*
X58413628Y-40190012D01*
X58493761Y-40109878D01*
X58555083Y-40076392D01*
X58624775Y-40081376D01*
X58669124Y-40109877D01*
X58981518Y-40422271D01*
X59015003Y-40483594D01*
X59010019Y-40553286D01*
X58981518Y-40597633D01*
X57437417Y-42141734D01*
X57376094Y-42175219D01*
X57349736Y-42178053D01*
X8838822Y-42178053D01*
X8771783Y-42158368D01*
X8751141Y-42141734D01*
X1025408Y-34416000D01*
X5654000Y-34416000D01*
X5654000Y-34613844D01*
X5660401Y-34673372D01*
X5660403Y-34673379D01*
X5710645Y-34808086D01*
X5710649Y-34808093D01*
X5796809Y-34923187D01*
X5796812Y-34923190D01*
X5911906Y-35009350D01*
X5911913Y-35009354D01*
X6046620Y-35059596D01*
X6046627Y-35059598D01*
X6106155Y-35065999D01*
X6106172Y-35066000D01*
X6354000Y-35066000D01*
X6354000Y-34416000D01*
X6854000Y-34416000D01*
X6854000Y-35066000D01*
X7101828Y-35066000D01*
X7101844Y-35065999D01*
X7161372Y-35059598D01*
X7161379Y-35059596D01*
X7296086Y-35009354D01*
X7296093Y-35009350D01*
X7411187Y-34923190D01*
X7411190Y-34923187D01*
X7497350Y-34808093D01*
X7497354Y-34808086D01*
X7547596Y-34673379D01*
X7547598Y-34673372D01*
X7553999Y-34613844D01*
X7554000Y-34613827D01*
X7554000Y-34416000D01*
X6854000Y-34416000D01*
X6354000Y-34416000D01*
X5654000Y-34416000D01*
X1025408Y-34416000D01*
X-338623Y-33051969D01*
X-372108Y-32990646D01*
X-374942Y-32964288D01*
X-374942Y-32191461D01*
X-355257Y-32124422D01*
X-302453Y-32078667D01*
X-233295Y-32068723D01*
X-169739Y-32097748D01*
X-159305Y-32107923D01*
X-73899Y-32201608D01*
X103574Y-32335631D01*
X302649Y-32434759D01*
X516560Y-32495621D01*
X682523Y-32511000D01*
X1188000Y-32511000D01*
X1188000Y-31761000D01*
X1688000Y-31761000D01*
X1688000Y-32511000D01*
X2193477Y-32511000D01*
X2359439Y-32495621D01*
X2573350Y-32434759D01*
X2772425Y-32335631D01*
X2949900Y-32201608D01*
X3099721Y-32037261D01*
X3216797Y-31848179D01*
X3216798Y-31848177D01*
X3297135Y-31640804D01*
X3312052Y-31561000D01*
X2413278Y-31561000D01*
X2461625Y-31477260D01*
X2491810Y-31345008D01*
X2481673Y-31209735D01*
X2432113Y-31083459D01*
X2414203Y-31061000D01*
X3312052Y-31061000D01*
X3297135Y-30981195D01*
X3216798Y-30773822D01*
X3216797Y-30773820D01*
X3099721Y-30584738D01*
X2949900Y-30420391D01*
X2772425Y-30286368D01*
X2573350Y-30187240D01*
X2359439Y-30126378D01*
X2193477Y-30111000D01*
X1688000Y-30111000D01*
X1688000Y-30861000D01*
X1188000Y-30861000D01*
X1188000Y-30111000D01*
X682523Y-30111000D01*
X516560Y-30126378D01*
X302649Y-30187240D01*
X103574Y-30286368D01*
X-73900Y-30420391D01*
X-159305Y-30514076D01*
X-219016Y-30550358D01*
X-288864Y-30548597D01*
X-346671Y-30509353D01*
X-374086Y-30445087D01*
X-374942Y-30430538D01*
X-374942Y-26608070D01*
X-355257Y-26541031D01*
X-302453Y-26495276D01*
X-233295Y-26485332D01*
X-169739Y-26514357D01*
X-153995Y-26530758D01*
X-146203Y-26540528D01*
X-139028Y-26549525D01*
X-38242Y-26637579D01*
X24786Y-26692646D01*
X24787Y-26692647D01*
X24790Y-26692649D01*
X211532Y-26804222D01*
X415194Y-26880657D01*
X415195Y-26880658D01*
X629229Y-26919500D01*
X629233Y-26919500D01*
X2192270Y-26919500D01*
X2192276Y-26919500D01*
X2344579Y-26905792D01*
X2354659Y-26904885D01*
X2564341Y-26847017D01*
X2564346Y-26847014D01*
X2564353Y-26847013D01*
X2760344Y-26752629D01*
X2824445Y-26706056D01*
X2890252Y-26682576D01*
X2958306Y-26698401D01*
X2985012Y-26718693D01*
X3827181Y-27560862D01*
X3860666Y-27622185D01*
X3863500Y-27648543D01*
X3863500Y-27819500D01*
X3843815Y-27886539D01*
X3791011Y-27932294D01*
X3739500Y-27943500D01*
X3511820Y-27943500D01*
X3396378Y-27956993D01*
X3379886Y-27958921D01*
X3379883Y-27958922D01*
X3213270Y-28019563D01*
X3065125Y-28116999D01*
X2943448Y-28245969D01*
X2943444Y-28245974D01*
X2854792Y-28399525D01*
X2803938Y-28569389D01*
X2803937Y-28569395D01*
X2793628Y-28746402D01*
X2793628Y-28746403D01*
X2824416Y-28921014D01*
X2824417Y-28921017D01*
X2824418Y-28921021D01*
X2894648Y-29083832D01*
X3000531Y-29226058D01*
X3136360Y-29340032D01*
X3294812Y-29419609D01*
X3467344Y-29460500D01*
X3698457Y-29460500D01*
X3765496Y-29480185D01*
X3786138Y-29496819D01*
X3827181Y-29537862D01*
X3860666Y-29599185D01*
X3863500Y-29625543D01*
X3863500Y-30181654D01*
X3870011Y-30242202D01*
X3870011Y-30242204D01*
X3900131Y-30322956D01*
X3921111Y-30379204D01*
X4008739Y-30496261D01*
X4125796Y-30583889D01*
X4218698Y-30618540D01*
X4257463Y-30632999D01*
X4262799Y-30634989D01*
X4290050Y-30637918D01*
X4323345Y-30641499D01*
X4323362Y-30641500D01*
X4952638Y-30641500D01*
X4952654Y-30641499D01*
X4994469Y-30637002D01*
X5013201Y-30634989D01*
X5081829Y-30609391D01*
X5151516Y-30604406D01*
X5168495Y-30609392D01*
X5214624Y-30626597D01*
X5214627Y-30626598D01*
X5274155Y-30632999D01*
X5274172Y-30633000D01*
X5338000Y-30633000D01*
X5338000Y-30441783D01*
X5351845Y-30387532D01*
X5351790Y-30387512D01*
X5351984Y-30386992D01*
X5353166Y-30382360D01*
X5354888Y-30379206D01*
X5357579Y-30371993D01*
X5405989Y-30242201D01*
X5411898Y-30187240D01*
X5412499Y-30181654D01*
X5412500Y-30181637D01*
X5412500Y-29471000D01*
X5432185Y-29403961D01*
X5484989Y-29358206D01*
X5536500Y-29347000D01*
X5639500Y-29347000D01*
X5706539Y-29366685D01*
X5752294Y-29419489D01*
X5763500Y-29471000D01*
X5763500Y-30181654D01*
X5770010Y-30242197D01*
X5770010Y-30242199D01*
X5770011Y-30242201D01*
X5771681Y-30246680D01*
X5779500Y-30290013D01*
X5779500Y-31976481D01*
X5759815Y-32043520D01*
X5754771Y-32050785D01*
X5741344Y-32068723D01*
X5703111Y-32119795D01*
X5652011Y-32256795D01*
X5652011Y-32256797D01*
X5645500Y-32317345D01*
X5645500Y-33214654D01*
X5652011Y-33275202D01*
X5652011Y-33275204D01*
X5703111Y-33412204D01*
X5705203Y-33416035D01*
X5706130Y-33420299D01*
X5706210Y-33420512D01*
X5706179Y-33420523D01*
X5720056Y-33484308D01*
X5712554Y-33518796D01*
X5660403Y-33658620D01*
X5660401Y-33658627D01*
X5654000Y-33718155D01*
X5654000Y-33916000D01*
X7554000Y-33916000D01*
X7554000Y-33718172D01*
X7553999Y-33718155D01*
X7547598Y-33658627D01*
X7547596Y-33658620D01*
X7532011Y-33616833D01*
X7527027Y-33547142D01*
X7560512Y-33485819D01*
X7621835Y-33452334D01*
X7648193Y-33449500D01*
X10958714Y-33449500D01*
X11025753Y-33469185D01*
X11071508Y-33521989D01*
X11082185Y-33584941D01*
X11078751Y-33621999D01*
X11078751Y-33622000D01*
X11097705Y-33826558D01*
X11097706Y-33826560D01*
X11153924Y-34024147D01*
X11153930Y-34024162D01*
X11245493Y-34208044D01*
X11245498Y-34208052D01*
X11369300Y-34371993D01*
X11521117Y-34510391D01*
X11521122Y-34510395D01*
X11531102Y-34516575D01*
X11577737Y-34568604D01*
X11588839Y-34637586D01*
X11560884Y-34701620D01*
X11531102Y-34727425D01*
X11521122Y-34733604D01*
X11521117Y-34733608D01*
X11369300Y-34872006D01*
X11245498Y-35035947D01*
X11245493Y-35035955D01*
X11153930Y-35219837D01*
X11153924Y-35219852D01*
X11097706Y-35417439D01*
X11097705Y-35417441D01*
X11078751Y-35621999D01*
X11078751Y-35622000D01*
X11097705Y-35826558D01*
X11097706Y-35826560D01*
X11153924Y-36024147D01*
X11153930Y-36024162D01*
X11245493Y-36208044D01*
X11245498Y-36208052D01*
X11369300Y-36371993D01*
X11521117Y-36510391D01*
X11521122Y-36510395D01*
X11531102Y-36516575D01*
X11577737Y-36568604D01*
X11588839Y-36637586D01*
X11560884Y-36701620D01*
X11531102Y-36727425D01*
X11521122Y-36733604D01*
X11521117Y-36733608D01*
X11369300Y-36872006D01*
X11245498Y-37035947D01*
X11245493Y-37035955D01*
X11153930Y-37219837D01*
X11153924Y-37219852D01*
X11097706Y-37417439D01*
X11097705Y-37417441D01*
X11078751Y-37621999D01*
X11078751Y-37622000D01*
X11097705Y-37826558D01*
X11097706Y-37826560D01*
X11153924Y-38024147D01*
X11153930Y-38024162D01*
X11245493Y-38208044D01*
X11245498Y-38208052D01*
X11369300Y-38371993D01*
X11521117Y-38510391D01*
X11521122Y-38510395D01*
X11531102Y-38516575D01*
X11577737Y-38568604D01*
X11588839Y-38637586D01*
X11560884Y-38701620D01*
X11531102Y-38727425D01*
X11521122Y-38733604D01*
X11521117Y-38733608D01*
X11369300Y-38872006D01*
X11245498Y-39035947D01*
X11245493Y-39035955D01*
X11153930Y-39219837D01*
X11153924Y-39219852D01*
X11097706Y-39417439D01*
X11097705Y-39417441D01*
X11078751Y-39621999D01*
X11078751Y-39622000D01*
X11097705Y-39826558D01*
X11097706Y-39826560D01*
X11153924Y-40024147D01*
X11153930Y-40024162D01*
X11245493Y-40208044D01*
X11245498Y-40208052D01*
X11369300Y-40371993D01*
X11491722Y-40483594D01*
X11521118Y-40510392D01*
X11695782Y-40618540D01*
X11887345Y-40692751D01*
X12089282Y-40730500D01*
X12089284Y-40730500D01*
X12294716Y-40730500D01*
X12294718Y-40730500D01*
X12496655Y-40692751D01*
X12688218Y-40618540D01*
X12862882Y-40510392D01*
X13014701Y-40371991D01*
X13093046Y-40268244D01*
X13149155Y-40226609D01*
X13218867Y-40221918D01*
X13280049Y-40255660D01*
X13290954Y-40268245D01*
X13369300Y-40371993D01*
X13491722Y-40483594D01*
X13521118Y-40510392D01*
X13695782Y-40618540D01*
X13887345Y-40692751D01*
X14089282Y-40730500D01*
X14089284Y-40730500D01*
X14294716Y-40730500D01*
X14294718Y-40730500D01*
X14496655Y-40692751D01*
X14688218Y-40618540D01*
X14862882Y-40510392D01*
X15014701Y-40371991D01*
X15138503Y-40208050D01*
X15230074Y-40024152D01*
X15286294Y-39826559D01*
X15305249Y-39622000D01*
X15286294Y-39417441D01*
X15230074Y-39219848D01*
X15230069Y-39219837D01*
X15138506Y-39035955D01*
X15138501Y-39035947D01*
X15014699Y-38872006D01*
X14862882Y-38733608D01*
X14862880Y-38733606D01*
X14852900Y-38727427D01*
X14806264Y-38675399D01*
X14795160Y-38606418D01*
X14823113Y-38542383D01*
X14852900Y-38516573D01*
X14862880Y-38510393D01*
X14862879Y-38510393D01*
X14862882Y-38510392D01*
X15014701Y-38371991D01*
X15138503Y-38208050D01*
X15230074Y-38024152D01*
X15286294Y-37826559D01*
X15305249Y-37622000D01*
X15286294Y-37417441D01*
X15230074Y-37219848D01*
X15230069Y-37219837D01*
X15138506Y-37035955D01*
X15138501Y-37035947D01*
X15014699Y-36872006D01*
X14862882Y-36733608D01*
X14862880Y-36733606D01*
X14852900Y-36727427D01*
X14806264Y-36675399D01*
X14795160Y-36606418D01*
X14823113Y-36542383D01*
X14852900Y-36516573D01*
X14862880Y-36510393D01*
X14862879Y-36510393D01*
X14862882Y-36510392D01*
X15014701Y-36371991D01*
X15138503Y-36208050D01*
X15230074Y-36024152D01*
X15286294Y-35826559D01*
X15305249Y-35622000D01*
X15303772Y-35606065D01*
X15286294Y-35417441D01*
X15286293Y-35417439D01*
X15281792Y-35401620D01*
X15230074Y-35219848D01*
X15230069Y-35219837D01*
X15138506Y-35035955D01*
X15138501Y-35035947D01*
X15014699Y-34872006D01*
X14862882Y-34733608D01*
X14862880Y-34733606D01*
X14852900Y-34727427D01*
X14806264Y-34675399D01*
X14795160Y-34606418D01*
X14823113Y-34542383D01*
X14852900Y-34516573D01*
X14862880Y-34510393D01*
X14862879Y-34510393D01*
X14862882Y-34510392D01*
X15014701Y-34371991D01*
X15138503Y-34208050D01*
X15230074Y-34024152D01*
X15286294Y-33826559D01*
X15305249Y-33622000D01*
X15304855Y-33617753D01*
X15296518Y-33527774D01*
X15290788Y-33465940D01*
X15304203Y-33397372D01*
X15352560Y-33346940D01*
X15414259Y-33330500D01*
X30349989Y-33330500D01*
X30349992Y-33330500D01*
X30349994Y-33330499D01*
X30350203Y-33330474D01*
X30350359Y-33330500D01*
X30357493Y-33330500D01*
X30357493Y-33331685D01*
X30419127Y-33341927D01*
X30470918Y-33388825D01*
X30489132Y-33456279D01*
X30467987Y-33522872D01*
X30448702Y-33545204D01*
X30419298Y-33572009D01*
X30295498Y-33735947D01*
X30295493Y-33735955D01*
X30203930Y-33919837D01*
X30203924Y-33919852D01*
X30147706Y-34117439D01*
X30147705Y-34117441D01*
X30128751Y-34321999D01*
X30128751Y-34322000D01*
X30147705Y-34526558D01*
X30147706Y-34526560D01*
X30203924Y-34724147D01*
X30203930Y-34724162D01*
X30295493Y-34908044D01*
X30295498Y-34908052D01*
X30419300Y-35071993D01*
X30571117Y-35210391D01*
X30571122Y-35210395D01*
X30581102Y-35216575D01*
X30627737Y-35268604D01*
X30638839Y-35337586D01*
X30610884Y-35401620D01*
X30581102Y-35427425D01*
X30571122Y-35433604D01*
X30571117Y-35433608D01*
X30419300Y-35572006D01*
X30295498Y-35735947D01*
X30295493Y-35735955D01*
X30203930Y-35919837D01*
X30203924Y-35919852D01*
X30147706Y-36117439D01*
X30147705Y-36117441D01*
X30128751Y-36321999D01*
X30128751Y-36322000D01*
X30147705Y-36526558D01*
X30147706Y-36526560D01*
X30203924Y-36724147D01*
X30203930Y-36724162D01*
X30295493Y-36908044D01*
X30295498Y-36908052D01*
X30419300Y-37071993D01*
X30571117Y-37210391D01*
X30571122Y-37210395D01*
X30581102Y-37216575D01*
X30627737Y-37268604D01*
X30638839Y-37337586D01*
X30610884Y-37401620D01*
X30581102Y-37427425D01*
X30571122Y-37433604D01*
X30571117Y-37433608D01*
X30419300Y-37572006D01*
X30295498Y-37735947D01*
X30295493Y-37735955D01*
X30203930Y-37919837D01*
X30203924Y-37919852D01*
X30147706Y-38117439D01*
X30147705Y-38117441D01*
X30128751Y-38321999D01*
X30128751Y-38322000D01*
X30147705Y-38526558D01*
X30147706Y-38526560D01*
X30203924Y-38724147D01*
X30203930Y-38724162D01*
X30295493Y-38908044D01*
X30295498Y-38908052D01*
X30419300Y-39071993D01*
X30571117Y-39210391D01*
X30571122Y-39210395D01*
X30581102Y-39216575D01*
X30627737Y-39268604D01*
X30638839Y-39337586D01*
X30610884Y-39401620D01*
X30581102Y-39427425D01*
X30571122Y-39433604D01*
X30571117Y-39433608D01*
X30419300Y-39572006D01*
X30295498Y-39735947D01*
X30295493Y-39735955D01*
X30203930Y-39919837D01*
X30203924Y-39919852D01*
X30147706Y-40117439D01*
X30147705Y-40117441D01*
X30128751Y-40321999D01*
X30128751Y-40322000D01*
X30147705Y-40526558D01*
X30147706Y-40526560D01*
X30203924Y-40724147D01*
X30203930Y-40724162D01*
X30295493Y-40908044D01*
X30295498Y-40908052D01*
X30419300Y-41071993D01*
X30549904Y-41191053D01*
X30571118Y-41210392D01*
X30745782Y-41318540D01*
X30937345Y-41392751D01*
X31139282Y-41430500D01*
X31139284Y-41430500D01*
X31344716Y-41430500D01*
X31344718Y-41430500D01*
X31546655Y-41392751D01*
X31738218Y-41318540D01*
X31912882Y-41210392D01*
X32064701Y-41071991D01*
X32143046Y-40968244D01*
X32199155Y-40926609D01*
X32268867Y-40921918D01*
X32330049Y-40955660D01*
X32340954Y-40968245D01*
X32419300Y-41071993D01*
X32549904Y-41191053D01*
X32571118Y-41210392D01*
X32745782Y-41318540D01*
X32937345Y-41392751D01*
X33139282Y-41430500D01*
X33139284Y-41430500D01*
X33344716Y-41430500D01*
X33344718Y-41430500D01*
X33546655Y-41392751D01*
X33738218Y-41318540D01*
X33912882Y-41210392D01*
X34064701Y-41071991D01*
X34188503Y-40908050D01*
X34280074Y-40724152D01*
X34336294Y-40526559D01*
X34355249Y-40322000D01*
X34336294Y-40117441D01*
X34280074Y-39919848D01*
X34260923Y-39881387D01*
X34188506Y-39735955D01*
X34188501Y-39735947D01*
X34064699Y-39572006D01*
X33912882Y-39433608D01*
X33912878Y-39433605D01*
X33902895Y-39427423D01*
X33856261Y-39375393D01*
X33845161Y-39306411D01*
X33873117Y-39242378D01*
X33902902Y-39216570D01*
X33912882Y-39210392D01*
X33935082Y-39190154D01*
X50774000Y-39190154D01*
X50780511Y-39250702D01*
X50780511Y-39250704D01*
X50827019Y-39375393D01*
X50831611Y-39387704D01*
X50919239Y-39504761D01*
X51036296Y-39592389D01*
X51173299Y-39643489D01*
X51200550Y-39646418D01*
X51233845Y-39649999D01*
X51233862Y-39650000D01*
X52906138Y-39650000D01*
X52906154Y-39649999D01*
X52933192Y-39647091D01*
X52966701Y-39643489D01*
X53103704Y-39592389D01*
X53220761Y-39504761D01*
X53308389Y-39387704D01*
X53359489Y-39250701D01*
X53363823Y-39210391D01*
X53365999Y-39190154D01*
X53366000Y-39190137D01*
X53366000Y-37517862D01*
X53365999Y-37517845D01*
X53362657Y-37486770D01*
X53359489Y-37457299D01*
X53348346Y-37427425D01*
X53328939Y-37375393D01*
X53308389Y-37320296D01*
X53220761Y-37203239D01*
X53103704Y-37115611D01*
X52966703Y-37064511D01*
X52906154Y-37058000D01*
X52906138Y-37058000D01*
X51233862Y-37058000D01*
X51233845Y-37058000D01*
X51173297Y-37064511D01*
X51173295Y-37064511D01*
X51036295Y-37115611D01*
X50919239Y-37203239D01*
X50831611Y-37320295D01*
X50780511Y-37457295D01*
X50780511Y-37457297D01*
X50774000Y-37517845D01*
X50774000Y-39190154D01*
X33935082Y-39190154D01*
X34064701Y-39071991D01*
X34188503Y-38908050D01*
X34280074Y-38724152D01*
X34336294Y-38526559D01*
X34355249Y-38322000D01*
X34336294Y-38117441D01*
X34280074Y-37919848D01*
X34280069Y-37919837D01*
X34188506Y-37735955D01*
X34188501Y-37735947D01*
X34064699Y-37572006D01*
X33912882Y-37433608D01*
X33912878Y-37433605D01*
X33902895Y-37427423D01*
X33856261Y-37375393D01*
X33845161Y-37306411D01*
X33873117Y-37242378D01*
X33902902Y-37216570D01*
X33912882Y-37210392D01*
X34064701Y-37071991D01*
X34188503Y-36908050D01*
X34280074Y-36724152D01*
X34336294Y-36526559D01*
X34355249Y-36322000D01*
X34350162Y-36267106D01*
X54053217Y-36267106D01*
X54073677Y-36409420D01*
X54073678Y-36409425D01*
X54133404Y-36540204D01*
X54170984Y-36586839D01*
X55795796Y-38211651D01*
X55795797Y-38211651D01*
X56502903Y-37504543D01*
X56502903Y-37504542D01*
X54558359Y-35560000D01*
X54170988Y-35947370D01*
X54170984Y-35947374D01*
X54133404Y-35994009D01*
X54073678Y-36124788D01*
X54073677Y-36124793D01*
X54053217Y-36267106D01*
X34350162Y-36267106D01*
X34336294Y-36117441D01*
X34280074Y-35919848D01*
X34246162Y-35851744D01*
X34188506Y-35735955D01*
X34188501Y-35735947D01*
X34064699Y-35572006D01*
X33912882Y-35433608D01*
X33912878Y-35433605D01*
X33902895Y-35427423D01*
X33856261Y-35375393D01*
X33845161Y-35306411D01*
X33873117Y-35242378D01*
X33902902Y-35216570D01*
X33912882Y-35210392D01*
X33917209Y-35206447D01*
X54911912Y-35206447D01*
X56856456Y-37150991D01*
X57563563Y-36443884D01*
X55938751Y-34819072D01*
X55892116Y-34781492D01*
X55761337Y-34721766D01*
X55761332Y-34721765D01*
X55619019Y-34701305D01*
X55476705Y-34721765D01*
X55476700Y-34721766D01*
X55345921Y-34781492D01*
X55299286Y-34819072D01*
X54911912Y-35206446D01*
X54911912Y-35206447D01*
X33917209Y-35206447D01*
X34064701Y-35071991D01*
X34188503Y-34908050D01*
X34280074Y-34724152D01*
X34336294Y-34526559D01*
X34355249Y-34322000D01*
X34355067Y-34320041D01*
X34336294Y-34117441D01*
X34336293Y-34117439D01*
X34335662Y-34115223D01*
X34280074Y-33919848D01*
X34238783Y-33836925D01*
X34188506Y-33735955D01*
X34188501Y-33735947D01*
X34064699Y-33572006D01*
X33912882Y-33433608D01*
X33912880Y-33433606D01*
X33902900Y-33427427D01*
X33856264Y-33375399D01*
X33845160Y-33306418D01*
X33873113Y-33242383D01*
X33902900Y-33216573D01*
X33912880Y-33210393D01*
X33912879Y-33210393D01*
X33912882Y-33210392D01*
X34064701Y-33071991D01*
X34188503Y-32908050D01*
X34280074Y-32724152D01*
X34336294Y-32526559D01*
X34355249Y-32322000D01*
X34351124Y-32277489D01*
X34344093Y-32201608D01*
X34340788Y-32165940D01*
X34354203Y-32097372D01*
X34402560Y-32046940D01*
X34464259Y-32030500D01*
X38294942Y-32030500D01*
X38361981Y-32050185D01*
X38407736Y-32102989D01*
X38417680Y-32172147D01*
X38394208Y-32228812D01*
X38385611Y-32240295D01*
X38334511Y-32377295D01*
X38334511Y-32377297D01*
X38328000Y-32437845D01*
X38328000Y-34110154D01*
X38334511Y-34170702D01*
X38334511Y-34170704D01*
X38366199Y-34255660D01*
X38385611Y-34307704D01*
X38473239Y-34424761D01*
X38590296Y-34512389D01*
X38727299Y-34563489D01*
X38754550Y-34566418D01*
X38787845Y-34569999D01*
X38787862Y-34570000D01*
X40460138Y-34570000D01*
X40460154Y-34569999D01*
X40487192Y-34567091D01*
X40520701Y-34563489D01*
X40657704Y-34512389D01*
X40774761Y-34424761D01*
X40862389Y-34307704D01*
X40913489Y-34170701D01*
X40919215Y-34117441D01*
X40919999Y-34110154D01*
X40920000Y-34110137D01*
X40920000Y-32437862D01*
X40919999Y-32437845D01*
X40913566Y-32378018D01*
X40913489Y-32377299D01*
X40897947Y-32335631D01*
X40890880Y-32316683D01*
X40862389Y-32240296D01*
X40853791Y-32228811D01*
X40829374Y-32163348D01*
X40844225Y-32095075D01*
X40893629Y-32045669D01*
X40953058Y-32030500D01*
X41528469Y-32030500D01*
X41532214Y-32030613D01*
X41592570Y-32034264D01*
X41592570Y-32034263D01*
X41592572Y-32034264D01*
X41652048Y-32023363D01*
X41655738Y-32022802D01*
X41715774Y-32015513D01*
X41724759Y-32012104D01*
X41746382Y-32006076D01*
X41755837Y-32004344D01*
X41811001Y-31979515D01*
X41814429Y-31978096D01*
X41870971Y-31956654D01*
X41878882Y-31951192D01*
X41898425Y-31940170D01*
X41907197Y-31936223D01*
X41954816Y-31898914D01*
X41957792Y-31896724D01*
X42007573Y-31862365D01*
X42047685Y-31817086D01*
X42050219Y-31814394D01*
X43934795Y-29929819D01*
X43996119Y-29896334D01*
X44022477Y-29893500D01*
X45697469Y-29893500D01*
X45701214Y-29893613D01*
X45761570Y-29897264D01*
X45761570Y-29897263D01*
X45761572Y-29897264D01*
X45821048Y-29886363D01*
X45824738Y-29885802D01*
X45884774Y-29878513D01*
X45893759Y-29875104D01*
X45915382Y-29869076D01*
X45924837Y-29867344D01*
X45980001Y-29842515D01*
X45983429Y-29841096D01*
X46039971Y-29819654D01*
X46047882Y-29814192D01*
X46067425Y-29803170D01*
X46076197Y-29799223D01*
X46123816Y-29761914D01*
X46126792Y-29759724D01*
X46176573Y-29725365D01*
X46216685Y-29680086D01*
X46219219Y-29677394D01*
X48219394Y-27677219D01*
X48222086Y-27674685D01*
X48267365Y-27634573D01*
X48301724Y-27584792D01*
X48303914Y-27581816D01*
X48341223Y-27534197D01*
X48345170Y-27525425D01*
X48356192Y-27505882D01*
X48361654Y-27497971D01*
X48383096Y-27441429D01*
X48384515Y-27438001D01*
X48409344Y-27382837D01*
X48411076Y-27373382D01*
X48417105Y-27351759D01*
X48420513Y-27342774D01*
X48427802Y-27282738D01*
X48428364Y-27279048D01*
X48431130Y-27263954D01*
X48439264Y-27219572D01*
X48435678Y-27160296D01*
X48435613Y-27159213D01*
X48435500Y-27155468D01*
X48435500Y-26715500D01*
X48455185Y-26648461D01*
X48507989Y-26602706D01*
X48559500Y-26591500D01*
X49193008Y-26591500D01*
X49234656Y-26591500D01*
X49957523Y-26591500D01*
X50024562Y-26611185D01*
X50045204Y-26627819D01*
X50334180Y-26916795D01*
X50367665Y-26978118D01*
X50370499Y-27004476D01*
X50370500Y-28406656D01*
X50370500Y-28425468D01*
X50370387Y-28429213D01*
X50366736Y-28489570D01*
X50366736Y-28489572D01*
X50368469Y-28499028D01*
X50370500Y-28521380D01*
X50370500Y-30907522D01*
X50350815Y-30974561D01*
X50334181Y-30995203D01*
X50045204Y-31284181D01*
X49983881Y-31317666D01*
X49957523Y-31320500D01*
X48028531Y-31320500D01*
X48024786Y-31320387D01*
X47964429Y-31316736D01*
X47964427Y-31316736D01*
X47954972Y-31318469D01*
X47932620Y-31320500D01*
X47012531Y-31320500D01*
X47008786Y-31320387D01*
X46948430Y-31316736D01*
X46948423Y-31316736D01*
X46888958Y-31327633D01*
X46885257Y-31328196D01*
X46825226Y-31335486D01*
X46825224Y-31335487D01*
X46816224Y-31338900D01*
X46794625Y-31344921D01*
X46785162Y-31346655D01*
X46785157Y-31346657D01*
X46730019Y-31371473D01*
X46726560Y-31372906D01*
X46670027Y-31394346D01*
X46662114Y-31399808D01*
X46642584Y-31410823D01*
X46633807Y-31414773D01*
X46633803Y-31414776D01*
X46586195Y-31452073D01*
X46583180Y-31454292D01*
X46533427Y-31488634D01*
X46533425Y-31488636D01*
X46493331Y-31533892D01*
X46490764Y-31536619D01*
X46268619Y-31758764D01*
X46265892Y-31761331D01*
X46220636Y-31801425D01*
X46220634Y-31801427D01*
X46186292Y-31851180D01*
X46184073Y-31854195D01*
X46146776Y-31901803D01*
X46146773Y-31901807D01*
X46142823Y-31910584D01*
X46131808Y-31930114D01*
X46126346Y-31938027D01*
X46104906Y-31994560D01*
X46103473Y-31998019D01*
X46078657Y-32053157D01*
X46078655Y-32053162D01*
X46076921Y-32062625D01*
X46070900Y-32084224D01*
X46067487Y-32093224D01*
X46067486Y-32093226D01*
X46060196Y-32153257D01*
X46059633Y-32156958D01*
X46048736Y-32216423D01*
X46048736Y-32216428D01*
X46052387Y-32276785D01*
X46052500Y-32280530D01*
X46052500Y-33156864D01*
X46033494Y-33222834D01*
X46020126Y-33244109D01*
X45992074Y-33288754D01*
X45937481Y-33444774D01*
X45918976Y-33609017D01*
X45918976Y-33609024D01*
X45937481Y-33773267D01*
X45992075Y-33929289D01*
X46024136Y-33980313D01*
X46080015Y-34069244D01*
X46196894Y-34186123D01*
X46231781Y-34208044D01*
X46327590Y-34268245D01*
X46336850Y-34274063D01*
X46492865Y-34328655D01*
X46492868Y-34328655D01*
X46492870Y-34328656D01*
X46657113Y-34347162D01*
X46657117Y-34347162D01*
X46657121Y-34347162D01*
X46821363Y-34328656D01*
X46821364Y-34328655D01*
X46821369Y-34328655D01*
X46977384Y-34274063D01*
X47117340Y-34186123D01*
X47157387Y-34146074D01*
X47218711Y-34112590D01*
X47288403Y-34117574D01*
X47332750Y-34146075D01*
X47418777Y-34232102D01*
X47558733Y-34320042D01*
X47714748Y-34374634D01*
X47714751Y-34374634D01*
X47714753Y-34374635D01*
X47878996Y-34393141D01*
X47879000Y-34393141D01*
X47879004Y-34393141D01*
X48043246Y-34374635D01*
X48043247Y-34374634D01*
X48043252Y-34374634D01*
X48199267Y-34320042D01*
X48339223Y-34232102D01*
X48456102Y-34115223D01*
X48544042Y-33975267D01*
X48598634Y-33819252D01*
X48602831Y-33782003D01*
X48617141Y-33655003D01*
X48617141Y-33654996D01*
X48598635Y-33490753D01*
X48598634Y-33490748D01*
X48569458Y-33407366D01*
X48562500Y-33366412D01*
X48562500Y-32811500D01*
X48582185Y-32744461D01*
X48634989Y-32698706D01*
X48686500Y-32687500D01*
X49484500Y-32687500D01*
X49551539Y-32707185D01*
X49597294Y-32759989D01*
X49608500Y-32811500D01*
X49608500Y-33550968D01*
X49608387Y-33554713D01*
X49604736Y-33615069D01*
X49604736Y-33615072D01*
X49615633Y-33674541D01*
X49616196Y-33678242D01*
X49623486Y-33738271D01*
X49623486Y-33738273D01*
X49623487Y-33738274D01*
X49626898Y-33747270D01*
X49632923Y-33768881D01*
X49634655Y-33778335D01*
X49634656Y-33778339D01*
X49648939Y-33810074D01*
X49659474Y-33833481D01*
X49660901Y-33836925D01*
X49682345Y-33893469D01*
X49687809Y-33901386D01*
X49698829Y-33920926D01*
X49702777Y-33929697D01*
X49715742Y-33946246D01*
X49740068Y-33977297D01*
X49742288Y-33980313D01*
X49776635Y-34030073D01*
X49801117Y-34051762D01*
X49831205Y-34096581D01*
X49832435Y-34095989D01*
X49835456Y-34102263D01*
X49835458Y-34102267D01*
X49923398Y-34242223D01*
X50040277Y-34359102D01*
X50180233Y-34447042D01*
X50336248Y-34501634D01*
X50336251Y-34501634D01*
X50336253Y-34501635D01*
X50500496Y-34520141D01*
X50500500Y-34520141D01*
X50500504Y-34520141D01*
X50664746Y-34501635D01*
X50664747Y-34501634D01*
X50664752Y-34501634D01*
X50820767Y-34447042D01*
X50960723Y-34359102D01*
X51077602Y-34242223D01*
X51165542Y-34102267D01*
X51220134Y-33946252D01*
X51220135Y-33946246D01*
X51238641Y-33782003D01*
X51238641Y-33781996D01*
X51220135Y-33617753D01*
X51220134Y-33617751D01*
X51220134Y-33617748D01*
X51165542Y-33461733D01*
X51147867Y-33433604D01*
X51087535Y-33337586D01*
X51077602Y-33321777D01*
X51011819Y-33255994D01*
X50978334Y-33194671D01*
X50975500Y-33168313D01*
X50975500Y-32429477D01*
X50995185Y-32362438D01*
X51047989Y-32316683D01*
X51117147Y-32306739D01*
X51180703Y-32335764D01*
X51187181Y-32341796D01*
X51570778Y-32725393D01*
X51573330Y-32728105D01*
X51613427Y-32773365D01*
X51613428Y-32773366D01*
X51663185Y-32807710D01*
X51666201Y-32809929D01*
X51713803Y-32847223D01*
X51722571Y-32851169D01*
X51742118Y-32862193D01*
X51750029Y-32867654D01*
X51806561Y-32889093D01*
X51810016Y-32890523D01*
X51865163Y-32915344D01*
X51874615Y-32917076D01*
X51896231Y-32923101D01*
X51905226Y-32926513D01*
X51937136Y-32930387D01*
X51965248Y-32933801D01*
X51968952Y-32934365D01*
X51998282Y-32939739D01*
X52028428Y-32945264D01*
X52084887Y-32941848D01*
X52088786Y-32941613D01*
X52092531Y-32941500D01*
X52543413Y-32941500D01*
X52584367Y-32948458D01*
X52604950Y-32955660D01*
X52667748Y-32977634D01*
X52667751Y-32977634D01*
X52667753Y-32977635D01*
X52831996Y-32996141D01*
X52832000Y-32996141D01*
X52832004Y-32996141D01*
X52996246Y-32977635D01*
X52996247Y-32977634D01*
X52996252Y-32977634D01*
X53152267Y-32923042D01*
X53292223Y-32835102D01*
X53409102Y-32718223D01*
X53497042Y-32578267D01*
X53551634Y-32422252D01*
X53556618Y-32378018D01*
X57942305Y-32378018D01*
X57962765Y-32520332D01*
X57962766Y-32520337D01*
X58022492Y-32651116D01*
X58060072Y-32697751D01*
X59684884Y-34322563D01*
X59684885Y-34322563D01*
X60391990Y-33615456D01*
X60391990Y-33615455D01*
X58447448Y-31670912D01*
X58447447Y-31670912D01*
X58060076Y-32058282D01*
X58060072Y-32058286D01*
X58022492Y-32104921D01*
X57962766Y-32235700D01*
X57962765Y-32235705D01*
X57942305Y-32378018D01*
X53556618Y-32378018D01*
X53556699Y-32377299D01*
X53570141Y-32258003D01*
X53570141Y-32257996D01*
X53551635Y-32093753D01*
X53551634Y-32093751D01*
X53551634Y-32093748D01*
X53497042Y-31937733D01*
X53492613Y-31930685D01*
X53444552Y-31854195D01*
X53409102Y-31797777D01*
X53292223Y-31680898D01*
X53250531Y-31654701D01*
X53152268Y-31592958D01*
X52996246Y-31538364D01*
X52832004Y-31519859D01*
X52831996Y-31519859D01*
X52667753Y-31538364D01*
X52584367Y-31567542D01*
X52543413Y-31574500D01*
X52404477Y-31574500D01*
X52337438Y-31554815D01*
X52316796Y-31538181D01*
X51773819Y-30995203D01*
X51740334Y-30933880D01*
X51737500Y-30907522D01*
X51737500Y-29509500D01*
X51757185Y-29442461D01*
X51809989Y-29396706D01*
X51861500Y-29385500D01*
X52543413Y-29385500D01*
X52584367Y-29392458D01*
X52596508Y-29396706D01*
X52667748Y-29421634D01*
X52667751Y-29421634D01*
X52667753Y-29421635D01*
X52831996Y-29440141D01*
X52832000Y-29440141D01*
X52832004Y-29440141D01*
X52996246Y-29421635D01*
X52996247Y-29421634D01*
X52996252Y-29421634D01*
X53152267Y-29367042D01*
X53292223Y-29279102D01*
X53409102Y-29162223D01*
X53497042Y-29022267D01*
X53551634Y-28866252D01*
X53551635Y-28866246D01*
X53570141Y-28702003D01*
X53570141Y-28701996D01*
X53551635Y-28537753D01*
X53551634Y-28537751D01*
X53551634Y-28537748D01*
X53497042Y-28381733D01*
X53409102Y-28241777D01*
X53292223Y-28124898D01*
X53253575Y-28100614D01*
X53152268Y-28036958D01*
X52996246Y-27982364D01*
X52832004Y-27963859D01*
X52831996Y-27963859D01*
X52667753Y-27982364D01*
X52584367Y-28011542D01*
X52543413Y-28018500D01*
X51861500Y-28018500D01*
X51794461Y-27998815D01*
X51748706Y-27946011D01*
X51737500Y-27894500D01*
X51737500Y-27004476D01*
X51757185Y-26937437D01*
X51773815Y-26916799D01*
X52537394Y-26153219D01*
X52540086Y-26150685D01*
X52585365Y-26110573D01*
X52619724Y-26060792D01*
X52621914Y-26057816D01*
X52659223Y-26010197D01*
X52663170Y-26001425D01*
X52674192Y-25981882D01*
X52679654Y-25973971D01*
X52701096Y-25917429D01*
X52702515Y-25914001D01*
X52727344Y-25858837D01*
X52729076Y-25849382D01*
X52735105Y-25827759D01*
X52735560Y-25826559D01*
X52738513Y-25818774D01*
X52745802Y-25758738D01*
X52746364Y-25755048D01*
X52753265Y-25717390D01*
X52757264Y-25695572D01*
X52756768Y-25687376D01*
X52763500Y-25638936D01*
X52784599Y-25578641D01*
X58801000Y-25578641D01*
X59188374Y-25966015D01*
X59235009Y-26003595D01*
X59365788Y-26063321D01*
X59365793Y-26063322D01*
X59508107Y-26083782D01*
X59650420Y-26063322D01*
X59650425Y-26063321D01*
X59781204Y-26003595D01*
X59827839Y-25966015D01*
X59827843Y-25966011D01*
X61452650Y-24341205D01*
X61452650Y-24341203D01*
X60745545Y-23634097D01*
X60745544Y-23634097D01*
X58801000Y-25578641D01*
X52784599Y-25578641D01*
X52789634Y-25564252D01*
X52789635Y-25564246D01*
X52808141Y-25400003D01*
X52808141Y-25399996D01*
X52789635Y-25235753D01*
X52789634Y-25235751D01*
X52789634Y-25235748D01*
X52736168Y-25082953D01*
X52732608Y-25013175D01*
X52767337Y-24952548D01*
X52829330Y-24920321D01*
X52853211Y-24918000D01*
X53414138Y-24918000D01*
X53414154Y-24917999D01*
X53441192Y-24915091D01*
X53474701Y-24911489D01*
X53611704Y-24860389D01*
X53728761Y-24772761D01*
X53816389Y-24655704D01*
X53864558Y-24526559D01*
X53867488Y-24518704D01*
X53867488Y-24518703D01*
X53867489Y-24518701D01*
X53867566Y-24517981D01*
X57942305Y-24517981D01*
X57962765Y-24660294D01*
X57962766Y-24660299D01*
X58022492Y-24791078D01*
X58060072Y-24837713D01*
X58447446Y-25225087D01*
X60391991Y-23280544D01*
X59684883Y-22573436D01*
X59684882Y-22573436D01*
X58060080Y-24198239D01*
X58060076Y-24198243D01*
X58022492Y-24244883D01*
X57962766Y-24375662D01*
X57962765Y-24375667D01*
X57942305Y-24517981D01*
X53867566Y-24517981D01*
X53871594Y-24480522D01*
X53873999Y-24458154D01*
X53874000Y-24458137D01*
X53874000Y-22785862D01*
X53873999Y-22785845D01*
X53868382Y-22733608D01*
X53867489Y-22725299D01*
X53867061Y-22724152D01*
X53830882Y-22627154D01*
X53816389Y-22588296D01*
X53728761Y-22471239D01*
X53611704Y-22383611D01*
X53611702Y-22383610D01*
X53611704Y-22383610D01*
X53497948Y-22341181D01*
X53442014Y-22299310D01*
X53417598Y-22233845D01*
X53432450Y-22165572D01*
X53481856Y-22116167D01*
X53497948Y-22108819D01*
X53583451Y-22076927D01*
X53611704Y-22066389D01*
X53728761Y-21978761D01*
X53816389Y-21861704D01*
X53864147Y-21733661D01*
X53867488Y-21724704D01*
X53867488Y-21724703D01*
X53867489Y-21724701D01*
X53871268Y-21689553D01*
X54911912Y-21689553D01*
X55299286Y-22076927D01*
X55345921Y-22114507D01*
X55476700Y-22174233D01*
X55476705Y-22174234D01*
X55619019Y-22194694D01*
X55761332Y-22174234D01*
X55761337Y-22174233D01*
X55892116Y-22114507D01*
X55938751Y-22076927D01*
X55938755Y-22076923D01*
X57563563Y-20452116D01*
X57563563Y-20452115D01*
X56856456Y-19745009D01*
X54911912Y-21689553D01*
X53871268Y-21689553D01*
X53871842Y-21684215D01*
X53873999Y-21664154D01*
X53874000Y-21664137D01*
X53874000Y-20903992D01*
X53893685Y-20836953D01*
X53946489Y-20791198D01*
X54015647Y-20781254D01*
X54079203Y-20810279D01*
X54110795Y-20852481D01*
X54133406Y-20901992D01*
X54170984Y-20948625D01*
X54558359Y-21336000D01*
X56502903Y-19391456D01*
X56502903Y-19391455D01*
X55795797Y-18684348D01*
X55795796Y-18684348D01*
X54170984Y-20309160D01*
X54133404Y-20355795D01*
X54110794Y-20405305D01*
X54065039Y-20458109D01*
X53998000Y-20477793D01*
X53930960Y-20458108D01*
X53885205Y-20405304D01*
X53874000Y-20353793D01*
X53874000Y-19991862D01*
X53873999Y-19991845D01*
X53870657Y-19960770D01*
X53867489Y-19931299D01*
X53816389Y-19794296D01*
X53728761Y-19677239D01*
X53611704Y-19589611D01*
X53474703Y-19538511D01*
X53414154Y-19532000D01*
X53414138Y-19532000D01*
X51741862Y-19532000D01*
X51741845Y-19532000D01*
X51681297Y-19538511D01*
X51681295Y-19538511D01*
X51544295Y-19589611D01*
X51427239Y-19677239D01*
X51339611Y-19794295D01*
X51288511Y-19931295D01*
X51288511Y-19931297D01*
X51282000Y-19991845D01*
X51282000Y-21664154D01*
X51288511Y-21724702D01*
X51288511Y-21724704D01*
X51336186Y-21852521D01*
X51339611Y-21861704D01*
X51427239Y-21978761D01*
X51544296Y-22066389D01*
X51595299Y-22085412D01*
X51658052Y-22108819D01*
X51713985Y-22150691D01*
X51738401Y-22216155D01*
X51723549Y-22284428D01*
X51674143Y-22333833D01*
X51658052Y-22341181D01*
X51544295Y-22383611D01*
X51427239Y-22471239D01*
X51339611Y-22588295D01*
X51288511Y-22725295D01*
X51288511Y-22725297D01*
X51282000Y-22785845D01*
X51282000Y-24458154D01*
X51288511Y-24518702D01*
X51288511Y-24518704D01*
X51332629Y-24636984D01*
X51339611Y-24655704D01*
X51427239Y-24772761D01*
X51451786Y-24791136D01*
X51493656Y-24847066D01*
X51498642Y-24916758D01*
X51482469Y-24956374D01*
X51404958Y-25079731D01*
X51350364Y-25235753D01*
X51333475Y-25385650D01*
X51306408Y-25450064D01*
X51297936Y-25459447D01*
X51141680Y-25615703D01*
X51080357Y-25649188D01*
X51010665Y-25644204D01*
X50966318Y-25615703D01*
X50898738Y-25548123D01*
X50791218Y-25440603D01*
X50788684Y-25437911D01*
X50748573Y-25392635D01*
X50748572Y-25392634D01*
X50748571Y-25392633D01*
X50698813Y-25358288D01*
X50695797Y-25356068D01*
X50656727Y-25325460D01*
X50648197Y-25318777D01*
X50648193Y-25318775D01*
X50639426Y-25314829D01*
X50619886Y-25303809D01*
X50614635Y-25300185D01*
X50611971Y-25298346D01*
X50611969Y-25298345D01*
X50555425Y-25276901D01*
X50551981Y-25275474D01*
X50528574Y-25264939D01*
X50496839Y-25250656D01*
X50496835Y-25250655D01*
X50487381Y-25248923D01*
X50465770Y-25242898D01*
X50456774Y-25239487D01*
X50456773Y-25239486D01*
X50456771Y-25239486D01*
X50396742Y-25232196D01*
X50393041Y-25231633D01*
X50333576Y-25220736D01*
X50333569Y-25220736D01*
X50273214Y-25224387D01*
X50269469Y-25224500D01*
X50083500Y-25224500D01*
X50016461Y-25204815D01*
X49970706Y-25152011D01*
X49959500Y-25100501D01*
X49959500Y-25014905D01*
X49959500Y-24926581D01*
X49966458Y-24885631D01*
X49971062Y-24872475D01*
X49995634Y-24802252D01*
X49995634Y-24802250D01*
X49995635Y-24802248D01*
X50014141Y-24638003D01*
X50014141Y-24637996D01*
X49995635Y-24473753D01*
X49995634Y-24473751D01*
X49995634Y-24473748D01*
X49941042Y-24317733D01*
X49936412Y-24310365D01*
X49880765Y-24221803D01*
X49853102Y-24177777D01*
X49736223Y-24060898D01*
X49668362Y-24018258D01*
X49596268Y-23972958D01*
X49474786Y-23930450D01*
X49440252Y-23918366D01*
X49440251Y-23918365D01*
X49440246Y-23918364D01*
X49276004Y-23899859D01*
X49275996Y-23899859D01*
X49111753Y-23918364D01*
X48955731Y-23972958D01*
X48815776Y-24060898D01*
X48698898Y-24177776D01*
X48618994Y-24304943D01*
X48566659Y-24351234D01*
X48497605Y-24361882D01*
X48433757Y-24333507D01*
X48409006Y-24304943D01*
X48356765Y-24221803D01*
X48329102Y-24177777D01*
X48212223Y-24060898D01*
X48144362Y-24018258D01*
X48072268Y-23972958D01*
X47950786Y-23930450D01*
X47916252Y-23918366D01*
X47916251Y-23918365D01*
X47916246Y-23918364D01*
X47752004Y-23899859D01*
X47751996Y-23899859D01*
X47587753Y-23918364D01*
X47431731Y-23972958D01*
X47291776Y-24060898D01*
X47174898Y-24177776D01*
X47094994Y-24304943D01*
X47042659Y-24351234D01*
X46973605Y-24361882D01*
X46909757Y-24333507D01*
X46885006Y-24304943D01*
X46832765Y-24221803D01*
X46805102Y-24177777D01*
X46688223Y-24060898D01*
X46620362Y-24018258D01*
X46548268Y-23972958D01*
X46426786Y-23930450D01*
X46392252Y-23918366D01*
X46392251Y-23918365D01*
X46392246Y-23918364D01*
X46228004Y-23899859D01*
X46227996Y-23899859D01*
X46063753Y-23918364D01*
X45907731Y-23972958D01*
X45767778Y-24060897D01*
X45690775Y-24137900D01*
X45629451Y-24171384D01*
X45559760Y-24166400D01*
X45503826Y-24124528D01*
X45479410Y-24059063D01*
X45485229Y-24018618D01*
X45483704Y-24018258D01*
X45485488Y-24010704D01*
X45485489Y-24010701D01*
X45489629Y-23972192D01*
X45491999Y-23950154D01*
X45492000Y-23950137D01*
X45492000Y-22277862D01*
X45491999Y-22277845D01*
X45487799Y-22238788D01*
X45485489Y-22217299D01*
X45485486Y-22217292D01*
X45448261Y-22117489D01*
X45434389Y-22080296D01*
X45351382Y-21969413D01*
X45326967Y-21903952D01*
X45341818Y-21835679D01*
X45391223Y-21786273D01*
X45398232Y-21782729D01*
X45399654Y-21782067D01*
X45580038Y-21655760D01*
X45680319Y-21555478D01*
X45741642Y-21521994D01*
X45811334Y-21526978D01*
X45855681Y-21555479D01*
X45955962Y-21655760D01*
X46136346Y-21782067D01*
X46335924Y-21875131D01*
X46548629Y-21932126D01*
X46705322Y-21945834D01*
X46767998Y-21951318D01*
X46768000Y-21951318D01*
X46768002Y-21951318D01*
X46825780Y-21946263D01*
X46987371Y-21932126D01*
X47200076Y-21875131D01*
X47399654Y-21782067D01*
X47580038Y-21655760D01*
X47680319Y-21555478D01*
X47741642Y-21521994D01*
X47811334Y-21526978D01*
X47855681Y-21555479D01*
X47955962Y-21655760D01*
X48136346Y-21782067D01*
X48335924Y-21875131D01*
X48548629Y-21932126D01*
X48705322Y-21945834D01*
X48767998Y-21951318D01*
X48768000Y-21951318D01*
X48768002Y-21951318D01*
X48825780Y-21946263D01*
X48987371Y-21932126D01*
X49200076Y-21875131D01*
X49399654Y-21782067D01*
X49580038Y-21655760D01*
X49735749Y-21500049D01*
X49862056Y-21319665D01*
X49955120Y-21120087D01*
X50012115Y-20907382D01*
X50031307Y-20688011D01*
X50030302Y-20676527D01*
X50019888Y-20557491D01*
X50012115Y-20468640D01*
X49955120Y-20255935D01*
X49862056Y-20056358D01*
X49862054Y-20056355D01*
X49862053Y-20056353D01*
X49798902Y-19966165D01*
X49735749Y-19875973D01*
X49635467Y-19775691D01*
X49601983Y-19714369D01*
X49606967Y-19644677D01*
X49635468Y-19600330D01*
X49679834Y-19555964D01*
X49735749Y-19500049D01*
X49851280Y-19335054D01*
X49905855Y-19291432D01*
X49975354Y-19284239D01*
X50028340Y-19307805D01*
X50054036Y-19327523D01*
X50054042Y-19327526D01*
X50127601Y-19357995D01*
X50202063Y-19388838D01*
X50281488Y-19399294D01*
X50360913Y-19409751D01*
X50362380Y-19409751D01*
X50363614Y-19410106D01*
X50368972Y-19410812D01*
X50368865Y-19411619D01*
X50428350Y-19428756D01*
X50479733Y-19461042D01*
X50635748Y-19515634D01*
X50635751Y-19515634D01*
X50635753Y-19515635D01*
X50799996Y-19534141D01*
X50800000Y-19534141D01*
X50800004Y-19534141D01*
X50964246Y-19515635D01*
X50964247Y-19515634D01*
X50964252Y-19515634D01*
X51120267Y-19461042D01*
X51260223Y-19373102D01*
X51377102Y-19256223D01*
X51465042Y-19116267D01*
X51519634Y-18960252D01*
X51538141Y-18796000D01*
X51537230Y-18787918D01*
X51519635Y-18631753D01*
X51519634Y-18631751D01*
X51519634Y-18631748D01*
X51465042Y-18475733D01*
X51377102Y-18335777D01*
X51260223Y-18218898D01*
X51206367Y-18185058D01*
X51120268Y-18130958D01*
X50964246Y-18076364D01*
X50800004Y-18057859D01*
X50799997Y-18057859D01*
X50635748Y-18076365D01*
X50610082Y-18085346D01*
X50540303Y-18088907D01*
X50481448Y-18055985D01*
X49044268Y-16618805D01*
X49038915Y-16612702D01*
X49035826Y-16608677D01*
X49016901Y-16584013D01*
X49016899Y-16584011D01*
X49016898Y-16584010D01*
X48984989Y-16559526D01*
X48984988Y-16559525D01*
X48984986Y-16559523D01*
X48939642Y-16524729D01*
X48889791Y-16486476D01*
X48889787Y-16486474D01*
X48741765Y-16425161D01*
X48724625Y-16422905D01*
X48722370Y-16422608D01*
X48722369Y-16422607D01*
X48620618Y-16409212D01*
X48620592Y-16409210D01*
X48582915Y-16404250D01*
X48582913Y-16404250D01*
X48572441Y-16405628D01*
X48547065Y-16408969D01*
X48538968Y-16409500D01*
X44493953Y-16409500D01*
X44485854Y-16408969D01*
X44463873Y-16406075D01*
X44450001Y-16404249D01*
X44449999Y-16404249D01*
X44291150Y-16425161D01*
X44291145Y-16425163D01*
X44143128Y-16486473D01*
X44143123Y-16486476D01*
X44048467Y-16559107D01*
X44048468Y-16559108D01*
X44016011Y-16584014D01*
X43993996Y-16612703D01*
X43988645Y-16618805D01*
X43368801Y-17238649D01*
X43362698Y-17244000D01*
X43334013Y-17266012D01*
X43309520Y-17297931D01*
X43236477Y-17393121D01*
X43236475Y-17393124D01*
X43236476Y-17393124D01*
X43234273Y-17398440D01*
X43190433Y-17452841D01*
X43124138Y-17474904D01*
X43087622Y-17470758D01*
X42987371Y-17443896D01*
X42768002Y-17424704D01*
X42767998Y-17424704D01*
X42548634Y-17443895D01*
X42548627Y-17443896D01*
X42335920Y-17500892D01*
X42136346Y-17593955D01*
X42136342Y-17593957D01*
X41955967Y-17720258D01*
X41955960Y-17720263D01*
X41855681Y-17820543D01*
X41794358Y-17854028D01*
X41724666Y-17849044D01*
X41680319Y-17820543D01*
X41580038Y-17720262D01*
X41580032Y-17720258D01*
X41399654Y-17593955D01*
X41399650Y-17593953D01*
X41200081Y-17500893D01*
X41200079Y-17500892D01*
X41200076Y-17500891D01*
X41018735Y-17452300D01*
X40987372Y-17443896D01*
X40987365Y-17443895D01*
X40768002Y-17424704D01*
X40767998Y-17424704D01*
X40548634Y-17443895D01*
X40548627Y-17443896D01*
X40335920Y-17500892D01*
X40136346Y-17593955D01*
X40136342Y-17593957D01*
X39955967Y-17720258D01*
X39955960Y-17720263D01*
X39855681Y-17820543D01*
X39794358Y-17854028D01*
X39724666Y-17849044D01*
X39680319Y-17820543D01*
X39580038Y-17720262D01*
X39580032Y-17720258D01*
X39399654Y-17593955D01*
X39399650Y-17593953D01*
X39200081Y-17500893D01*
X39200079Y-17500892D01*
X39200076Y-17500891D01*
X39018735Y-17452300D01*
X38987372Y-17443896D01*
X38987365Y-17443895D01*
X38768002Y-17424704D01*
X38767998Y-17424704D01*
X38548634Y-17443895D01*
X38548627Y-17443896D01*
X38335920Y-17500892D01*
X38136346Y-17593955D01*
X38136342Y-17593957D01*
X37955967Y-17720258D01*
X37955960Y-17720263D01*
X37800252Y-17875971D01*
X37800247Y-17875978D01*
X37673944Y-18056356D01*
X37673943Y-18056358D01*
X37613929Y-18185058D01*
X37589228Y-18220334D01*
X37251076Y-18558485D01*
X37227493Y-18478167D01*
X37149761Y-18357213D01*
X37041100Y-18263059D01*
X36910315Y-18203331D01*
X36900532Y-18201924D01*
X37457572Y-17644885D01*
X37457571Y-17644884D01*
X37395391Y-17601346D01*
X37197159Y-17508909D01*
X37197150Y-17508905D01*
X36985894Y-17452300D01*
X36985884Y-17452298D01*
X36768001Y-17433236D01*
X36767999Y-17433236D01*
X36550115Y-17452298D01*
X36550105Y-17452300D01*
X36338849Y-17508905D01*
X36338840Y-17508909D01*
X36140612Y-17601344D01*
X36105246Y-17626107D01*
X36039039Y-17648433D01*
X35971272Y-17631420D01*
X35934858Y-17598841D01*
X35931202Y-17593957D01*
X35879321Y-17524652D01*
X35762264Y-17437024D01*
X35749534Y-17432276D01*
X35625263Y-17385924D01*
X35564714Y-17379413D01*
X35564698Y-17379413D01*
X33667422Y-17379413D01*
X33667405Y-17379413D01*
X33606857Y-17385924D01*
X33606855Y-17385924D01*
X33469855Y-17437024D01*
X33352799Y-17524652D01*
X33265171Y-17641707D01*
X33240662Y-17707417D01*
X33198789Y-17763350D01*
X33133324Y-17787765D01*
X33065052Y-17772912D01*
X33037335Y-17751255D01*
X33037050Y-17751566D01*
X33033285Y-17748100D01*
X33033280Y-17748095D01*
X32849077Y-17604723D01*
X32849075Y-17604722D01*
X32849074Y-17604721D01*
X32849071Y-17604719D01*
X32643793Y-17493629D01*
X32643790Y-17493628D01*
X32643787Y-17493626D01*
X32643781Y-17493624D01*
X32643779Y-17493623D01*
X32423014Y-17417833D01*
X32231790Y-17385924D01*
X32192772Y-17379413D01*
X31959348Y-17379413D01*
X31747716Y-17414727D01*
X31678351Y-17406345D01*
X31638334Y-17377424D01*
X31638248Y-17377522D01*
X31637265Y-17376651D01*
X31634496Y-17374650D01*
X31632634Y-17372548D01*
X31582873Y-17338201D01*
X31579857Y-17335981D01*
X31553339Y-17315206D01*
X31532257Y-17298690D01*
X31530564Y-17297928D01*
X31523486Y-17294742D01*
X31503946Y-17283722D01*
X31502743Y-17282891D01*
X31496031Y-17278259D01*
X31496029Y-17278258D01*
X31439485Y-17256814D01*
X31436041Y-17255387D01*
X31410739Y-17244000D01*
X31380899Y-17230569D01*
X31380895Y-17230568D01*
X31371441Y-17228836D01*
X31349830Y-17222811D01*
X31340834Y-17219400D01*
X31340833Y-17219399D01*
X31340831Y-17219399D01*
X31280802Y-17212109D01*
X31277101Y-17211546D01*
X31217636Y-17200649D01*
X31217629Y-17200649D01*
X31157274Y-17204300D01*
X31153529Y-17204413D01*
X6477797Y-17204413D01*
X6410758Y-17184728D01*
X6365003Y-17131924D01*
X6355059Y-17062766D01*
X6384084Y-16999210D01*
X6390116Y-16992732D01*
X8731030Y-14651819D01*
X8792353Y-14618334D01*
X8818711Y-14615500D01*
X57348289Y-14615500D01*
X57415328Y-14635185D01*
G37*
%TD.AperFunction*%
%TA.AperFunction,Conductor*%
G36*
X13280049Y-34255660D02*
G01*
X13290954Y-34268245D01*
X13369300Y-34371993D01*
X13521117Y-34510391D01*
X13521122Y-34510395D01*
X13531102Y-34516575D01*
X13577737Y-34568604D01*
X13588839Y-34637586D01*
X13560884Y-34701620D01*
X13531102Y-34727425D01*
X13521122Y-34733604D01*
X13521117Y-34733608D01*
X13369300Y-34872007D01*
X13290954Y-34975754D01*
X13234845Y-35017390D01*
X13165133Y-35022081D01*
X13103951Y-34988339D01*
X13093046Y-34975754D01*
X13014699Y-34872007D01*
X12862882Y-34733608D01*
X12862880Y-34733606D01*
X12852900Y-34727427D01*
X12806264Y-34675399D01*
X12795160Y-34606418D01*
X12823113Y-34542383D01*
X12852900Y-34516573D01*
X12862880Y-34510393D01*
X12862879Y-34510393D01*
X12862882Y-34510392D01*
X13014701Y-34371991D01*
X13093046Y-34268244D01*
X13149155Y-34226609D01*
X13218867Y-34221918D01*
X13280049Y-34255660D01*
G37*
%TD.AperFunction*%
%TA.AperFunction,Conductor*%
G36*
X25293334Y-23527794D02*
G01*
X25349267Y-23569666D01*
X25373684Y-23635130D01*
X25374000Y-23643976D01*
X25374000Y-23696154D01*
X25380511Y-23756702D01*
X25380511Y-23756704D01*
X25429576Y-23888249D01*
X25431611Y-23893704D01*
X25519239Y-24010761D01*
X25636296Y-24098389D01*
X25773299Y-24149489D01*
X25800550Y-24152418D01*
X25833845Y-24155999D01*
X25833862Y-24156000D01*
X27506138Y-24156000D01*
X27506154Y-24155999D01*
X27547969Y-24151502D01*
X27566701Y-24149489D01*
X27610769Y-24133051D01*
X27680457Y-24128066D01*
X27728412Y-24149965D01*
X27809796Y-24210889D01*
X27900937Y-24244883D01*
X27945943Y-24261670D01*
X27946799Y-24261989D01*
X27972574Y-24264760D01*
X28007345Y-24268499D01*
X28007362Y-24268500D01*
X29904638Y-24268500D01*
X29904654Y-24268499D01*
X29959164Y-24262638D01*
X29965201Y-24261989D01*
X29966056Y-24261669D01*
X29966768Y-24261619D01*
X29972758Y-24260204D01*
X29972987Y-24261174D01*
X30035748Y-24256683D01*
X30097072Y-24290165D01*
X30130560Y-24351487D01*
X30132866Y-24366409D01*
X30147705Y-24526558D01*
X30147706Y-24526560D01*
X30203924Y-24724147D01*
X30203930Y-24724162D01*
X30295493Y-24908044D01*
X30295498Y-24908052D01*
X30419300Y-25071993D01*
X30571117Y-25210391D01*
X30571122Y-25210395D01*
X30581102Y-25216575D01*
X30627737Y-25268604D01*
X30638839Y-25337586D01*
X30610884Y-25401620D01*
X30581102Y-25427425D01*
X30571122Y-25433604D01*
X30571117Y-25433608D01*
X30419300Y-25572006D01*
X30295498Y-25735947D01*
X30295493Y-25735955D01*
X30203930Y-25919837D01*
X30203924Y-25919852D01*
X30147706Y-26117439D01*
X30147705Y-26117441D01*
X30128751Y-26321999D01*
X30128751Y-26322000D01*
X30147705Y-26526558D01*
X30147706Y-26526560D01*
X30203924Y-26724147D01*
X30203930Y-26724162D01*
X30295493Y-26908044D01*
X30295498Y-26908052D01*
X30419300Y-27071993D01*
X30571117Y-27210391D01*
X30571122Y-27210395D01*
X30581102Y-27216575D01*
X30627737Y-27268604D01*
X30638839Y-27337586D01*
X30610884Y-27401620D01*
X30581102Y-27427425D01*
X30571122Y-27433604D01*
X30571117Y-27433608D01*
X30419300Y-27572006D01*
X30295498Y-27735947D01*
X30295493Y-27735955D01*
X30203930Y-27919837D01*
X30203924Y-27919852D01*
X30147706Y-28117439D01*
X30147705Y-28117441D01*
X30128751Y-28321999D01*
X30128751Y-28322000D01*
X30147705Y-28526558D01*
X30147706Y-28526560D01*
X30203924Y-28724147D01*
X30203930Y-28724162D01*
X30295493Y-28908044D01*
X30295498Y-28908052D01*
X30419300Y-29071993D01*
X30571117Y-29210391D01*
X30571122Y-29210395D01*
X30581102Y-29216575D01*
X30627737Y-29268604D01*
X30638839Y-29337586D01*
X30610884Y-29401620D01*
X30581102Y-29427425D01*
X30571122Y-29433604D01*
X30571117Y-29433608D01*
X30419300Y-29572006D01*
X30295498Y-29735947D01*
X30295493Y-29735955D01*
X30203930Y-29919837D01*
X30203924Y-29919852D01*
X30147706Y-30117439D01*
X30147705Y-30117441D01*
X30128751Y-30321999D01*
X30128751Y-30322000D01*
X30147705Y-30526558D01*
X30147706Y-30526560D01*
X30203924Y-30724147D01*
X30203930Y-30724162D01*
X30260707Y-30838183D01*
X30272968Y-30906968D01*
X30246095Y-30971463D01*
X30237388Y-30981136D01*
X29799619Y-31418905D01*
X29796892Y-31421472D01*
X29751636Y-31461566D01*
X29751634Y-31461568D01*
X29717292Y-31511321D01*
X29715073Y-31514336D01*
X29677776Y-31561944D01*
X29677773Y-31561948D01*
X29673823Y-31570725D01*
X29662808Y-31590255D01*
X29657346Y-31598168D01*
X29635906Y-31654701D01*
X29634473Y-31658160D01*
X29609657Y-31713298D01*
X29609655Y-31713303D01*
X29607921Y-31722766D01*
X29601900Y-31744365D01*
X29598487Y-31753365D01*
X29598486Y-31753367D01*
X29591196Y-31813398D01*
X29590633Y-31817098D01*
X29588625Y-31828059D01*
X29584389Y-31851180D01*
X29582434Y-31861848D01*
X29550989Y-31924242D01*
X29490804Y-31959731D01*
X29460464Y-31963500D01*
X24485406Y-31963500D01*
X24418367Y-31943815D01*
X24383144Y-31903165D01*
X24366626Y-31930685D01*
X24303988Y-31961640D01*
X24282594Y-31963500D01*
X15409626Y-31963500D01*
X15342587Y-31943815D01*
X15296832Y-31891011D01*
X15286155Y-31828059D01*
X15305249Y-31622000D01*
X15305249Y-31621999D01*
X15286294Y-31417441D01*
X15286293Y-31417439D01*
X15285535Y-31414776D01*
X15230074Y-31219848D01*
X15230069Y-31219837D01*
X15138506Y-31035955D01*
X15138501Y-31035947D01*
X15014699Y-30872006D01*
X14862882Y-30733608D01*
X14862878Y-30733605D01*
X14852895Y-30727423D01*
X14806261Y-30675393D01*
X14795161Y-30606411D01*
X14823117Y-30542378D01*
X14852902Y-30516570D01*
X14862882Y-30510392D01*
X15014701Y-30371991D01*
X15138503Y-30208050D01*
X15230074Y-30024152D01*
X15286294Y-29826559D01*
X15305249Y-29622000D01*
X15286294Y-29417441D01*
X15230074Y-29219848D01*
X15230069Y-29219837D01*
X15138506Y-29035955D01*
X15138501Y-29035947D01*
X15014699Y-28872006D01*
X14862882Y-28733608D01*
X14862878Y-28733605D01*
X14852895Y-28727423D01*
X14806261Y-28675393D01*
X14795161Y-28606411D01*
X14823117Y-28542378D01*
X14852902Y-28516570D01*
X14862882Y-28510392D01*
X14991894Y-28392781D01*
X15014699Y-28371993D01*
X15079722Y-28285889D01*
X15138503Y-28208050D01*
X15152192Y-28180560D01*
X15230069Y-28024162D01*
X15230068Y-28024162D01*
X15230074Y-28024152D01*
X15286294Y-27826559D01*
X15305249Y-27622000D01*
X15286294Y-27417441D01*
X15230074Y-27219848D01*
X15230069Y-27219837D01*
X15138506Y-27035955D01*
X15138501Y-27035947D01*
X15014699Y-26872006D01*
X14862882Y-26733608D01*
X14862878Y-26733605D01*
X14852895Y-26727423D01*
X14806261Y-26675393D01*
X14795161Y-26606411D01*
X14823117Y-26542378D01*
X14852902Y-26516570D01*
X14862882Y-26510392D01*
X15014701Y-26371991D01*
X15138503Y-26208050D01*
X15230074Y-26024152D01*
X15286294Y-25826559D01*
X15305249Y-25622000D01*
X15286294Y-25417441D01*
X15286293Y-25417440D01*
X15286155Y-25415941D01*
X15299570Y-25347371D01*
X15347927Y-25296940D01*
X15409626Y-25280500D01*
X20573656Y-25280500D01*
X20592469Y-25280500D01*
X20596214Y-25280613D01*
X20600362Y-25280863D01*
X20656572Y-25284264D01*
X20666028Y-25282530D01*
X20688380Y-25280500D01*
X20967619Y-25280500D01*
X20989970Y-25282530D01*
X20999427Y-25284264D01*
X21055785Y-25280854D01*
X21059786Y-25280613D01*
X21063531Y-25280500D01*
X22707323Y-25280500D01*
X22738523Y-25280500D01*
X22805562Y-25300185D01*
X22826204Y-25316819D01*
X23664180Y-26154795D01*
X23697665Y-26216118D01*
X23700499Y-26242476D01*
X23700499Y-28113521D01*
X23680814Y-28180560D01*
X23664180Y-28201202D01*
X22630793Y-29234589D01*
X22630789Y-29234595D01*
X22219996Y-29645389D01*
X22158673Y-29678874D01*
X22132315Y-29681708D01*
X20493795Y-29681708D01*
X20452841Y-29674750D01*
X20369454Y-29645572D01*
X20205212Y-29627067D01*
X20205204Y-29627067D01*
X20040961Y-29645572D01*
X19884939Y-29700166D01*
X19744984Y-29788106D01*
X19628106Y-29904984D01*
X19540166Y-30044939D01*
X19485572Y-30200961D01*
X19467067Y-30365204D01*
X19467067Y-30365211D01*
X19485572Y-30529454D01*
X19540166Y-30685476D01*
X19627052Y-30823753D01*
X19628106Y-30825431D01*
X19744985Y-30942310D01*
X19806870Y-30981195D01*
X19875439Y-31024280D01*
X19884941Y-31030250D01*
X20040956Y-31084842D01*
X20040959Y-31084842D01*
X20040961Y-31084843D01*
X20205204Y-31103349D01*
X20205208Y-31103349D01*
X20205212Y-31103349D01*
X20369454Y-31084843D01*
X20369455Y-31084842D01*
X20369460Y-31084842D01*
X20435683Y-31061669D01*
X20452841Y-31055666D01*
X20493795Y-31048708D01*
X22444261Y-31048708D01*
X22448006Y-31048821D01*
X22508362Y-31052472D01*
X22508362Y-31052471D01*
X22508364Y-31052472D01*
X22567840Y-31041571D01*
X22571530Y-31041010D01*
X22631566Y-31033721D01*
X22640551Y-31030312D01*
X22662174Y-31024284D01*
X22671629Y-31022552D01*
X22726793Y-30997723D01*
X22730221Y-30996304D01*
X22786763Y-30974862D01*
X22794674Y-30969400D01*
X22814217Y-30958378D01*
X22822989Y-30954431D01*
X22870608Y-30917122D01*
X22873584Y-30914932D01*
X22923365Y-30880573D01*
X22963484Y-30835286D01*
X22966003Y-30832610D01*
X23004132Y-30794481D01*
X23026320Y-30772295D01*
X23087643Y-30738811D01*
X23157335Y-30743796D01*
X23201681Y-30772296D01*
X23688882Y-31259497D01*
X23715665Y-31302118D01*
X23715935Y-31301989D01*
X23717088Y-31304383D01*
X23718240Y-31306217D01*
X23718958Y-31308267D01*
X23806898Y-31448223D01*
X23923777Y-31565102D01*
X24063733Y-31653042D01*
X24219748Y-31707634D01*
X24219751Y-31707634D01*
X24219753Y-31707635D01*
X24296477Y-31716280D01*
X24360891Y-31743346D01*
X24383492Y-31776254D01*
X24391693Y-31758297D01*
X24450471Y-31720523D01*
X24471523Y-31716280D01*
X24548246Y-31707635D01*
X24548247Y-31707634D01*
X24548252Y-31707634D01*
X24704267Y-31653042D01*
X24844223Y-31565102D01*
X24961102Y-31448223D01*
X25049042Y-31308267D01*
X25103634Y-31152252D01*
X25103635Y-31152246D01*
X25122141Y-30988003D01*
X25122141Y-30987996D01*
X25103635Y-30823753D01*
X25103634Y-30823751D01*
X25103634Y-30823748D01*
X25049042Y-30667733D01*
X25040454Y-30654066D01*
X24986751Y-30568598D01*
X24961102Y-30527777D01*
X24844223Y-30410898D01*
X24704267Y-30322958D01*
X24704263Y-30322956D01*
X24704262Y-30322956D01*
X24702218Y-30322241D01*
X24700383Y-30321088D01*
X24697989Y-30319935D01*
X24698118Y-30319665D01*
X24655497Y-30292882D01*
X24168296Y-29805681D01*
X24134811Y-29744358D01*
X24139795Y-29674666D01*
X24168296Y-29630319D01*
X24289115Y-29509500D01*
X24431297Y-29367317D01*
X24492618Y-29333834D01*
X24562309Y-29338818D01*
X24606654Y-29367317D01*
X24777199Y-29537862D01*
X24942382Y-29703045D01*
X24969165Y-29745666D01*
X24969435Y-29745537D01*
X24970588Y-29747931D01*
X24971740Y-29749765D01*
X24972458Y-29751815D01*
X25060398Y-29891771D01*
X25177277Y-30008650D01*
X25317233Y-30096590D01*
X25473248Y-30151182D01*
X25473251Y-30151182D01*
X25473253Y-30151183D01*
X25637496Y-30169689D01*
X25637500Y-30169689D01*
X25637504Y-30169689D01*
X25801746Y-30151183D01*
X25801747Y-30151182D01*
X25801752Y-30151182D01*
X25957767Y-30096590D01*
X26097723Y-30008650D01*
X26214602Y-29891771D01*
X26302542Y-29751815D01*
X26357134Y-29595800D01*
X26357135Y-29595794D01*
X26375641Y-29431551D01*
X26375641Y-29431544D01*
X26357135Y-29267301D01*
X26357134Y-29267299D01*
X26357134Y-29267296D01*
X26302542Y-29111281D01*
X26289611Y-29090702D01*
X26251567Y-29030154D01*
X26214602Y-28971325D01*
X26097723Y-28854446D01*
X25957767Y-28766506D01*
X25957763Y-28766504D01*
X25957762Y-28766504D01*
X25955718Y-28765789D01*
X25953883Y-28764636D01*
X25951489Y-28763483D01*
X25951618Y-28763213D01*
X25908997Y-28736430D01*
X25103819Y-27931251D01*
X25070334Y-27869928D01*
X25067500Y-27843570D01*
X25067500Y-26715500D01*
X25087185Y-26648461D01*
X25139989Y-26602706D01*
X25191500Y-26591500D01*
X26563768Y-26591500D01*
X26567513Y-26591613D01*
X26627869Y-26595264D01*
X26627869Y-26595263D01*
X26627871Y-26595264D01*
X26687347Y-26584363D01*
X26691037Y-26583802D01*
X26751073Y-26576513D01*
X26760058Y-26573104D01*
X26781681Y-26567076D01*
X26791136Y-26565344D01*
X26846300Y-26540515D01*
X26849728Y-26539096D01*
X26906270Y-26517654D01*
X26914181Y-26512192D01*
X26933724Y-26501170D01*
X26942496Y-26497223D01*
X26990115Y-26459914D01*
X26993091Y-26457724D01*
X27042872Y-26423365D01*
X27082984Y-26378086D01*
X27085518Y-26375394D01*
X27457297Y-26003615D01*
X27499922Y-25976834D01*
X27499792Y-25976563D01*
X27502204Y-25975401D01*
X27504029Y-25974254D01*
X27506066Y-25973542D01*
X27646022Y-25885602D01*
X27762901Y-25768723D01*
X27850841Y-25628767D01*
X27905433Y-25472752D01*
X27906932Y-25459447D01*
X27923940Y-25308503D01*
X27923940Y-25308496D01*
X27905434Y-25144253D01*
X27905433Y-25144251D01*
X27905433Y-25144248D01*
X27850841Y-24988233D01*
X27839746Y-24970576D01*
X27797193Y-24902853D01*
X27762901Y-24848277D01*
X27646022Y-24731398D01*
X27634482Y-24724147D01*
X27506067Y-24643458D01*
X27384585Y-24600950D01*
X27350051Y-24588866D01*
X27350050Y-24588865D01*
X27350045Y-24588864D01*
X27185803Y-24570359D01*
X27185795Y-24570359D01*
X27021552Y-24588864D01*
X26865530Y-24643458D01*
X26725575Y-24731398D01*
X26608697Y-24848276D01*
X26520754Y-24988238D01*
X26520753Y-24988240D01*
X26520038Y-24990284D01*
X26518885Y-24992117D01*
X26517732Y-24994513D01*
X26517462Y-24994383D01*
X26490681Y-25037001D01*
X26339501Y-25188182D01*
X26278181Y-25221666D01*
X26251822Y-25224500D01*
X24718477Y-25224500D01*
X24651438Y-25204815D01*
X24630796Y-25188181D01*
X24168295Y-24725680D01*
X24134810Y-24664357D01*
X24139794Y-24594665D01*
X24168293Y-24550320D01*
X25162320Y-23556293D01*
X25223642Y-23522810D01*
X25293334Y-23527794D01*
G37*
%TD.AperFunction*%
%TA.AperFunction,Conductor*%
G36*
X30613012Y-18591098D02*
G01*
X30658767Y-18643902D01*
X30669549Y-18705653D01*
X30662733Y-18787907D01*
X30662733Y-18787918D01*
X30682008Y-19020535D01*
X30739311Y-19246820D01*
X30833075Y-19460581D01*
X30960746Y-19655997D01*
X31116368Y-19825046D01*
X31118840Y-19827731D01*
X31303043Y-19971103D01*
X31303045Y-19971104D01*
X31303048Y-19971106D01*
X31341371Y-19991845D01*
X31508333Y-20082200D01*
X31622974Y-20121556D01*
X31729105Y-20157992D01*
X31729107Y-20157992D01*
X31729109Y-20157993D01*
X31959348Y-20196413D01*
X31959349Y-20196413D01*
X32192771Y-20196413D01*
X32192772Y-20196413D01*
X32423011Y-20157993D01*
X32643787Y-20082200D01*
X32849077Y-19971103D01*
X33033280Y-19827731D01*
X33033291Y-19827718D01*
X33037050Y-19824260D01*
X33037774Y-19825046D01*
X33093127Y-19791774D01*
X33162965Y-19793867D01*
X33220585Y-19833385D01*
X33240662Y-19868408D01*
X33265171Y-19934118D01*
X33308386Y-19991845D01*
X33352799Y-20051174D01*
X33469856Y-20138802D01*
X33606859Y-20189902D01*
X33634110Y-20192831D01*
X33667405Y-20196412D01*
X33667422Y-20196413D01*
X35385500Y-20196413D01*
X35452539Y-20216098D01*
X35498294Y-20268902D01*
X35509500Y-20320413D01*
X35509500Y-21486665D01*
X35516011Y-21547213D01*
X35516011Y-21547215D01*
X35563955Y-21675754D01*
X35567111Y-21684215D01*
X35654739Y-21801272D01*
X35771796Y-21888900D01*
X35854770Y-21919848D01*
X35904699Y-21938471D01*
X35908799Y-21940000D01*
X35936200Y-21942945D01*
X35972665Y-21946867D01*
X35972510Y-21948301D01*
X36032983Y-21969605D01*
X36075870Y-22024763D01*
X36084500Y-22070214D01*
X36084500Y-22267468D01*
X36084387Y-22271213D01*
X36080736Y-22331569D01*
X36080736Y-22331572D01*
X36091633Y-22391041D01*
X36092196Y-22394742D01*
X36099486Y-22454771D01*
X36099486Y-22454773D01*
X36099487Y-22454774D01*
X36102898Y-22463770D01*
X36108923Y-22485381D01*
X36110655Y-22494835D01*
X36110656Y-22494839D01*
X36123449Y-22523261D01*
X36135474Y-22549981D01*
X36136901Y-22553425D01*
X36158345Y-22609969D01*
X36163809Y-22617886D01*
X36174829Y-22637426D01*
X36178777Y-22646197D01*
X36192725Y-22664000D01*
X36216068Y-22693797D01*
X36218288Y-22696813D01*
X36252633Y-22746571D01*
X36252634Y-22746572D01*
X36252635Y-22746573D01*
X36297911Y-22786684D01*
X36300603Y-22789218D01*
X39477396Y-25966011D01*
X42633704Y-29122319D01*
X42667189Y-29183642D01*
X42662205Y-29253334D01*
X42633704Y-29297681D01*
X41304204Y-30627181D01*
X41242881Y-30660666D01*
X41216523Y-30663500D01*
X34459626Y-30663500D01*
X34392587Y-30643815D01*
X34346832Y-30591011D01*
X34336155Y-30528059D01*
X34355249Y-30322000D01*
X34355249Y-30321999D01*
X34336294Y-30117441D01*
X34336293Y-30117439D01*
X34328854Y-30091295D01*
X34280074Y-29919848D01*
X34280069Y-29919837D01*
X34188506Y-29735955D01*
X34188501Y-29735947D01*
X34064699Y-29572006D01*
X33912882Y-29433608D01*
X33912880Y-29433606D01*
X33902900Y-29427427D01*
X33856264Y-29375399D01*
X33845160Y-29306418D01*
X33873113Y-29242383D01*
X33902900Y-29216573D01*
X33912880Y-29210393D01*
X33912879Y-29210393D01*
X33912882Y-29210392D01*
X34064701Y-29071991D01*
X34188503Y-28908050D01*
X34280074Y-28724152D01*
X34336294Y-28526559D01*
X34355249Y-28322000D01*
X34336294Y-28117441D01*
X34280074Y-27919848D01*
X34280069Y-27919837D01*
X34188506Y-27735955D01*
X34188501Y-27735947D01*
X34064699Y-27572006D01*
X33912882Y-27433608D01*
X33912880Y-27433606D01*
X33902900Y-27427427D01*
X33856264Y-27375399D01*
X33845160Y-27306418D01*
X33873113Y-27242383D01*
X33902900Y-27216573D01*
X33912880Y-27210393D01*
X33912879Y-27210393D01*
X33912882Y-27210392D01*
X34064701Y-27071991D01*
X34188503Y-26908050D01*
X34280074Y-26724152D01*
X34336294Y-26526559D01*
X34355249Y-26322000D01*
X34350759Y-26273550D01*
X34336294Y-26117441D01*
X34336293Y-26117439D01*
X34334409Y-26110818D01*
X34280074Y-25919848D01*
X34280069Y-25919837D01*
X34188506Y-25735955D01*
X34188501Y-25735947D01*
X34064699Y-25572006D01*
X33912882Y-25433608D01*
X33912880Y-25433606D01*
X33902900Y-25427427D01*
X33856264Y-25375399D01*
X33845160Y-25306418D01*
X33873113Y-25242383D01*
X33902900Y-25216573D01*
X33912880Y-25210393D01*
X33912879Y-25210393D01*
X33912882Y-25210392D01*
X34052675Y-25082954D01*
X34064699Y-25071993D01*
X34066991Y-25068959D01*
X34188503Y-24908050D01*
X34280074Y-24724152D01*
X34336294Y-24526559D01*
X34355249Y-24322000D01*
X34354853Y-24317731D01*
X34336294Y-24117441D01*
X34336293Y-24117439D01*
X34305940Y-24010760D01*
X34280074Y-23919848D01*
X34280069Y-23919837D01*
X34188506Y-23735955D01*
X34188501Y-23735947D01*
X34064699Y-23572006D01*
X33912882Y-23433608D01*
X33912880Y-23433606D01*
X33902900Y-23427427D01*
X33856264Y-23375399D01*
X33845160Y-23306418D01*
X33873113Y-23242383D01*
X33902900Y-23216573D01*
X33912880Y-23210393D01*
X33912879Y-23210393D01*
X33912882Y-23210392D01*
X34064701Y-23071991D01*
X34188503Y-22908050D01*
X34280074Y-22724152D01*
X34336294Y-22526559D01*
X34355249Y-22322000D01*
X34353146Y-22299310D01*
X34336294Y-22117441D01*
X34336293Y-22117439D01*
X34335931Y-22116167D01*
X34280074Y-21919848D01*
X34280069Y-21919837D01*
X34188506Y-21735955D01*
X34188501Y-21735947D01*
X34064699Y-21572006D01*
X33912883Y-21433609D01*
X33912882Y-21433608D01*
X33738218Y-21325460D01*
X33546655Y-21251249D01*
X33344718Y-21213500D01*
X33139282Y-21213500D01*
X32937345Y-21251249D01*
X32937342Y-21251249D01*
X32937342Y-21251250D01*
X32745779Y-21325461D01*
X32571116Y-21433609D01*
X32419300Y-21572007D01*
X32340954Y-21675754D01*
X32284845Y-21717390D01*
X32215133Y-21722081D01*
X32153951Y-21688339D01*
X32143046Y-21675754D01*
X32085316Y-21599308D01*
X32064701Y-21572009D01*
X32062533Y-21570033D01*
X31931788Y-21450843D01*
X31912882Y-21433608D01*
X31738218Y-21325460D01*
X31546655Y-21251249D01*
X31344718Y-21213500D01*
X31139282Y-21213500D01*
X30937345Y-21251249D01*
X30937342Y-21251249D01*
X30937342Y-21251250D01*
X30745779Y-21325461D01*
X30571116Y-21433609D01*
X30419299Y-21572007D01*
X30408462Y-21586358D01*
X30352351Y-21627992D01*
X30282639Y-21632680D01*
X30226497Y-21601869D01*
X30226360Y-21602054D01*
X30225059Y-21601080D01*
X30221830Y-21599308D01*
X30219263Y-21596741D01*
X30219261Y-21596740D01*
X30219261Y-21596739D01*
X30102204Y-21509111D01*
X30032037Y-21482939D01*
X29976104Y-21441067D01*
X29951688Y-21375602D01*
X29966541Y-21307329D01*
X29984138Y-21282780D01*
X30071314Y-21188083D01*
X30198984Y-20992669D01*
X30292749Y-20778907D01*
X30350051Y-20552626D01*
X30361722Y-20411783D01*
X30369327Y-20320005D01*
X30369327Y-20319994D01*
X30350051Y-20087377D01*
X30350051Y-20087374D01*
X30292749Y-19861093D01*
X30198984Y-19647331D01*
X30127889Y-19538511D01*
X30071313Y-19451915D01*
X29913223Y-19280185D01*
X29913222Y-19280184D01*
X29913220Y-19280182D01*
X29729017Y-19136810D01*
X29729015Y-19136809D01*
X29729014Y-19136808D01*
X29729011Y-19136806D01*
X29523733Y-19025716D01*
X29523730Y-19025715D01*
X29523727Y-19025713D01*
X29523721Y-19025711D01*
X29523719Y-19025710D01*
X29302954Y-18949920D01*
X29130271Y-18921105D01*
X29072712Y-18911500D01*
X28839288Y-18911500D01*
X28793240Y-18919184D01*
X28609045Y-18949920D01*
X28388280Y-19025710D01*
X28388266Y-19025716D01*
X28182988Y-19136806D01*
X28182985Y-19136808D01*
X27998781Y-19280181D01*
X27998776Y-19280185D01*
X27840686Y-19451915D01*
X27713015Y-19647331D01*
X27619251Y-19861092D01*
X27561948Y-20087377D01*
X27542673Y-20319994D01*
X27542673Y-20320005D01*
X27561948Y-20552622D01*
X27619251Y-20778907D01*
X27713015Y-20992668D01*
X27840686Y-21188084D01*
X27927856Y-21282775D01*
X27958779Y-21345429D01*
X27950919Y-21414855D01*
X27906772Y-21469011D01*
X27879963Y-21482939D01*
X27809792Y-21509112D01*
X27728412Y-21570033D01*
X27662948Y-21594450D01*
X27610770Y-21586948D01*
X27566701Y-21570511D01*
X27566699Y-21570510D01*
X27566697Y-21570510D01*
X27506154Y-21564000D01*
X27506138Y-21564000D01*
X25833862Y-21564000D01*
X25833845Y-21564000D01*
X25773297Y-21570511D01*
X25773295Y-21570511D01*
X25636295Y-21621611D01*
X25552667Y-21684215D01*
X25533648Y-21698453D01*
X25519238Y-21709240D01*
X25512965Y-21715513D01*
X25510497Y-21713045D01*
X25467909Y-21744880D01*
X25398214Y-21749814D01*
X25358687Y-21733661D01*
X25302526Y-21698373D01*
X25302522Y-21698371D01*
X25146500Y-21643777D01*
X24982258Y-21625272D01*
X24982250Y-21625272D01*
X24818007Y-21643777D01*
X24661985Y-21698371D01*
X24522032Y-21786310D01*
X24455186Y-21853156D01*
X24393862Y-21886640D01*
X24324171Y-21881655D01*
X24268237Y-21839784D01*
X24243821Y-21774319D01*
X24243505Y-21765474D01*
X24243505Y-21735097D01*
X24250463Y-21694143D01*
X24253937Y-21684215D01*
X24279639Y-21610763D01*
X24279640Y-21610757D01*
X24298146Y-21446514D01*
X24298146Y-21446507D01*
X24279640Y-21282264D01*
X24279639Y-21282262D01*
X24279639Y-21282259D01*
X24225047Y-21126244D01*
X24221181Y-21120092D01*
X24189122Y-21069069D01*
X24137107Y-20986288D01*
X24020228Y-20869409D01*
X23984768Y-20847128D01*
X23880273Y-20781469D01*
X23724251Y-20726875D01*
X23560009Y-20708370D01*
X23560001Y-20708370D01*
X23395758Y-20726875D01*
X23239736Y-20781469D01*
X23099781Y-20869409D01*
X22982903Y-20986287D01*
X22894963Y-21126242D01*
X22840369Y-21282264D01*
X22821375Y-21450843D01*
X22820546Y-21456138D01*
X22814270Y-21487312D01*
X22814270Y-21487313D01*
X22821403Y-21653133D01*
X22821405Y-21653147D01*
X22870121Y-21819643D01*
X22868760Y-21820041D01*
X22876505Y-21857711D01*
X22876505Y-23789500D01*
X22856820Y-23856539D01*
X22804016Y-23902294D01*
X22752505Y-23913500D01*
X21375477Y-23913500D01*
X21308438Y-23893815D01*
X21287796Y-23877181D01*
X20461354Y-23050739D01*
X19609117Y-22198502D01*
X19606583Y-22195810D01*
X19566472Y-22150534D01*
X19566471Y-22150533D01*
X19566470Y-22150532D01*
X19516712Y-22116187D01*
X19513696Y-22113967D01*
X19471629Y-22081011D01*
X19466096Y-22076676D01*
X19466092Y-22076674D01*
X19457325Y-22072728D01*
X19437785Y-22061708D01*
X19429867Y-22056243D01*
X19391833Y-22041819D01*
X19373324Y-22034800D01*
X19369872Y-22033370D01*
X19346428Y-22022817D01*
X19338882Y-22018773D01*
X19310366Y-22000856D01*
X19180419Y-21955386D01*
X19154353Y-21946265D01*
X19154352Y-21946264D01*
X19154347Y-21946263D01*
X18990105Y-21927758D01*
X18990097Y-21927758D01*
X18825854Y-21946263D01*
X18669832Y-22000857D01*
X18529877Y-22088797D01*
X18412999Y-22205675D01*
X18325059Y-22345630D01*
X18270465Y-22501652D01*
X18251960Y-22665895D01*
X18251960Y-22665902D01*
X18270465Y-22830145D01*
X18325059Y-22986167D01*
X18394171Y-23096158D01*
X18412999Y-23126122D01*
X18529878Y-23243001D01*
X18560223Y-23262068D01*
X18669833Y-23330941D01*
X18669837Y-23330942D01*
X18825841Y-23385531D01*
X18825847Y-23385532D01*
X18825849Y-23385533D01*
X18825850Y-23385533D01*
X18832636Y-23387082D01*
X18832278Y-23388649D01*
X18888912Y-23412440D01*
X18898306Y-23420921D01*
X19179204Y-23701819D01*
X19212689Y-23763142D01*
X19207705Y-23832834D01*
X19165833Y-23888767D01*
X19100369Y-23913184D01*
X19091523Y-23913500D01*
X15414259Y-23913500D01*
X15347220Y-23893815D01*
X15301465Y-23841011D01*
X15290788Y-23778059D01*
X15304373Y-23631459D01*
X15305249Y-23622000D01*
X15292473Y-23484129D01*
X15286294Y-23417441D01*
X15286293Y-23417439D01*
X15283189Y-23406531D01*
X15230074Y-23219848D01*
X15230069Y-23219837D01*
X15138506Y-23035955D01*
X15138501Y-23035947D01*
X15014699Y-22872006D01*
X14862882Y-22733608D01*
X14862878Y-22733605D01*
X14852895Y-22727423D01*
X14806261Y-22675393D01*
X14795161Y-22606411D01*
X14823117Y-22542378D01*
X14852902Y-22516570D01*
X14862882Y-22510392D01*
X14993804Y-22391041D01*
X15014699Y-22371993D01*
X15014847Y-22371798D01*
X15138503Y-22208050D01*
X15230074Y-22024152D01*
X15286294Y-21826559D01*
X15305249Y-21622000D01*
X15303310Y-21601080D01*
X15286294Y-21417441D01*
X15286293Y-21417439D01*
X15274389Y-21375602D01*
X15230074Y-21219848D01*
X15230069Y-21219837D01*
X15138506Y-21035955D01*
X15138501Y-21035947D01*
X15014699Y-20872006D01*
X14862883Y-20733609D01*
X14862882Y-20733608D01*
X14688218Y-20625460D01*
X14496655Y-20551249D01*
X14294718Y-20513500D01*
X14089282Y-20513500D01*
X13887345Y-20551249D01*
X13887342Y-20551249D01*
X13887342Y-20551250D01*
X13695779Y-20625461D01*
X13521116Y-20733609D01*
X13369300Y-20872007D01*
X13290954Y-20975754D01*
X13234845Y-21017390D01*
X13165133Y-21022081D01*
X13103951Y-20988339D01*
X13093046Y-20975754D01*
X13014699Y-20872007D01*
X12862883Y-20733609D01*
X12862882Y-20733608D01*
X12688218Y-20625460D01*
X12496655Y-20551249D01*
X12294718Y-20513500D01*
X12089282Y-20513500D01*
X11887345Y-20551249D01*
X11887342Y-20551249D01*
X11887342Y-20551250D01*
X11695779Y-20625461D01*
X11521116Y-20733609D01*
X11369300Y-20872006D01*
X11245498Y-21035947D01*
X11245493Y-21035955D01*
X11153930Y-21219837D01*
X11153924Y-21219852D01*
X11097706Y-21417439D01*
X11097705Y-21417441D01*
X11078751Y-21621999D01*
X11078751Y-21622000D01*
X11097705Y-21826558D01*
X11097706Y-21826560D01*
X11153924Y-22024147D01*
X11153930Y-22024162D01*
X11245493Y-22208044D01*
X11245498Y-22208052D01*
X11369300Y-22371993D01*
X11504053Y-22494835D01*
X11518011Y-22507560D01*
X11521117Y-22510391D01*
X11521122Y-22510395D01*
X11531102Y-22516575D01*
X11577737Y-22568604D01*
X11588839Y-22637586D01*
X11560884Y-22701620D01*
X11531102Y-22727425D01*
X11521122Y-22733604D01*
X11521117Y-22733608D01*
X11369300Y-22872006D01*
X11245498Y-23035947D01*
X11245493Y-23035955D01*
X11153930Y-23219837D01*
X11153924Y-23219852D01*
X11097706Y-23417439D01*
X11097705Y-23417441D01*
X11083383Y-23572007D01*
X11078751Y-23622000D01*
X11079627Y-23631459D01*
X11093212Y-23778059D01*
X11079797Y-23846628D01*
X11031440Y-23897060D01*
X10969741Y-23913500D01*
X8929477Y-23913500D01*
X8862438Y-23893815D01*
X8841796Y-23877181D01*
X8586614Y-23621999D01*
X8311218Y-23346603D01*
X8308684Y-23343911D01*
X8268573Y-23298635D01*
X8268572Y-23298634D01*
X8268571Y-23298633D01*
X8218813Y-23264288D01*
X8215797Y-23262068D01*
X8189279Y-23241293D01*
X8168197Y-23224777D01*
X8168193Y-23224775D01*
X8159426Y-23220829D01*
X8139886Y-23209809D01*
X8134731Y-23206251D01*
X8131971Y-23204346D01*
X8131969Y-23204345D01*
X8075425Y-23182901D01*
X8071981Y-23181474D01*
X8048574Y-23170939D01*
X8016839Y-23156656D01*
X8016835Y-23156655D01*
X8007381Y-23154923D01*
X7985770Y-23148898D01*
X7976774Y-23145487D01*
X7976773Y-23145486D01*
X7976771Y-23145486D01*
X7916742Y-23138196D01*
X7913041Y-23137633D01*
X7853576Y-23126736D01*
X7853569Y-23126736D01*
X7793214Y-23130387D01*
X7789469Y-23130500D01*
X7648193Y-23130500D01*
X7581154Y-23110815D01*
X7535399Y-23058011D01*
X7525455Y-22988853D01*
X7532011Y-22963167D01*
X7547596Y-22921379D01*
X7547598Y-22921372D01*
X7553999Y-22861844D01*
X7554000Y-22861827D01*
X7554000Y-22664000D01*
X5654000Y-22664000D01*
X5654000Y-22861844D01*
X5660401Y-22921372D01*
X5660403Y-22921379D01*
X5712554Y-23061203D01*
X5717538Y-23130895D01*
X5705206Y-23163960D01*
X5703110Y-23167797D01*
X5652011Y-23304795D01*
X5652011Y-23304797D01*
X5645500Y-23365345D01*
X5645500Y-24262654D01*
X5652011Y-24323202D01*
X5652011Y-24323204D01*
X5701759Y-24456578D01*
X5703111Y-24460204D01*
X5790739Y-24577261D01*
X5795805Y-24581053D01*
X5837679Y-24636984D01*
X5845500Y-24680324D01*
X5845500Y-26130500D01*
X5825815Y-26197539D01*
X5773011Y-26243294D01*
X5721500Y-26254500D01*
X5273345Y-26254500D01*
X5212802Y-26261010D01*
X5212794Y-26261012D01*
X5156333Y-26282071D01*
X5086641Y-26287055D01*
X5069667Y-26282071D01*
X5013205Y-26261012D01*
X5013197Y-26261010D01*
X4952654Y-26254500D01*
X4952638Y-26254500D01*
X4717543Y-26254500D01*
X4650504Y-26234815D01*
X4629862Y-26218181D01*
X3631804Y-25220123D01*
X3620022Y-25206490D01*
X3605472Y-25186946D01*
X3605471Y-25186945D01*
X3605469Y-25186942D01*
X3590421Y-25174315D01*
X3564987Y-25152972D01*
X3560998Y-25149317D01*
X3555102Y-25143421D01*
X3555097Y-25143417D01*
X3529805Y-25123418D01*
X3528409Y-25122280D01*
X3477700Y-25079731D01*
X3469640Y-25072968D01*
X3469635Y-25072965D01*
X3463605Y-25068999D01*
X3463630Y-25068959D01*
X3457069Y-25064779D01*
X3457045Y-25064820D01*
X3450900Y-25061029D01*
X3381343Y-25028594D01*
X3379721Y-25027808D01*
X3311185Y-24993389D01*
X3304401Y-24990920D01*
X3304416Y-24990876D01*
X3297071Y-24988322D01*
X3297057Y-24988367D01*
X3290205Y-24986096D01*
X3215043Y-24970576D01*
X3213284Y-24970186D01*
X3138653Y-24952499D01*
X3131482Y-24951661D01*
X3131487Y-24951611D01*
X3115049Y-24949929D01*
X3113125Y-24949531D01*
X3051463Y-24916674D01*
X3041297Y-24905415D01*
X3015030Y-24872477D01*
X3001194Y-24860389D01*
X2932777Y-24800614D01*
X2851213Y-24729353D01*
X2851210Y-24729351D01*
X2664468Y-24617778D01*
X2556511Y-24577261D01*
X2460804Y-24541341D01*
X2460805Y-24541341D01*
X2298358Y-24511861D01*
X2235911Y-24480522D01*
X2200320Y-24420397D01*
X2196500Y-24389854D01*
X2196500Y-24362361D01*
X2216185Y-24295322D01*
X2268989Y-24249567D01*
X2302848Y-24239624D01*
X2426789Y-24221804D01*
X2559798Y-24161062D01*
X2607227Y-24122841D01*
X3245939Y-23484129D01*
X3284160Y-23436700D01*
X3344902Y-23303691D01*
X3350143Y-23267234D01*
X3379167Y-23203680D01*
X3437944Y-23165904D01*
X3455230Y-23162144D01*
X3491691Y-23156902D01*
X3624700Y-23096160D01*
X3672129Y-23057939D01*
X4310841Y-22419227D01*
X4349062Y-22371798D01*
X4409804Y-22238789D01*
X4420557Y-22164000D01*
X5654000Y-22164000D01*
X6354000Y-22164000D01*
X6354000Y-21514000D01*
X6854000Y-21514000D01*
X6854000Y-22164000D01*
X7554000Y-22164000D01*
X7554000Y-21966172D01*
X7553999Y-21966155D01*
X7547598Y-21906627D01*
X7547596Y-21906620D01*
X7497354Y-21771913D01*
X7497350Y-21771906D01*
X7411190Y-21656812D01*
X7411187Y-21656809D01*
X7296093Y-21570649D01*
X7296086Y-21570645D01*
X7161379Y-21520403D01*
X7161372Y-21520401D01*
X7101844Y-21514000D01*
X6854000Y-21514000D01*
X6354000Y-21514000D01*
X6106155Y-21514000D01*
X6046627Y-21520401D01*
X6046620Y-21520403D01*
X5911913Y-21570645D01*
X5911906Y-21570649D01*
X5796812Y-21656809D01*
X5796809Y-21656812D01*
X5710649Y-21771906D01*
X5710645Y-21771913D01*
X5660403Y-21906620D01*
X5660401Y-21906627D01*
X5654000Y-21966155D01*
X5654000Y-22164000D01*
X4420557Y-22164000D01*
X4430614Y-22094055D01*
X4430614Y-22094053D01*
X4430614Y-22093427D01*
X4430790Y-22092826D01*
X4431876Y-22085276D01*
X4432961Y-22085432D01*
X4450299Y-22026388D01*
X4466928Y-22005751D01*
X4594894Y-21877785D01*
X4656215Y-21844302D01*
X4700217Y-21842730D01*
X4768314Y-21852521D01*
X4913048Y-21831712D01*
X4913049Y-21831711D01*
X4913051Y-21831711D01*
X4979702Y-21801272D01*
X5046057Y-21770969D01*
X5093486Y-21732748D01*
X5798666Y-21027568D01*
X5836887Y-20980139D01*
X5887456Y-20869409D01*
X5897629Y-20847133D01*
X5897630Y-20847128D01*
X5902928Y-20810279D01*
X5913020Y-20740081D01*
X5942044Y-20676527D01*
X6000822Y-20638752D01*
X6018113Y-20634991D01*
X6112708Y-20621391D01*
X6112714Y-20621390D01*
X6243493Y-20561664D01*
X6243495Y-20561663D01*
X6290126Y-20524085D01*
X6290133Y-20524079D01*
X6465370Y-20348842D01*
X6465370Y-20348841D01*
X5710534Y-19594006D01*
X5677049Y-19532683D01*
X5682033Y-19462992D01*
X5710532Y-19418646D01*
X5888729Y-19240449D01*
X5950048Y-19206967D01*
X6019739Y-19211951D01*
X6064087Y-19240452D01*
X6818922Y-19995289D01*
X6818923Y-19995289D01*
X6994161Y-19820051D01*
X6994167Y-19820044D01*
X7031745Y-19773413D01*
X7031746Y-19773411D01*
X7091472Y-19642632D01*
X7091473Y-19642627D01*
X7111933Y-19500314D01*
X7091473Y-19358000D01*
X7091472Y-19357995D01*
X7031746Y-19227216D01*
X6994166Y-19180581D01*
X6994162Y-19180577D01*
X6596678Y-18783094D01*
X6563193Y-18721771D01*
X6568177Y-18652080D01*
X6610048Y-18596146D01*
X6675513Y-18571729D01*
X6684359Y-18571413D01*
X30545973Y-18571413D01*
X30613012Y-18591098D01*
G37*
%TD.AperFunction*%
%TA.AperFunction,Conductor*%
G36*
X47024743Y-25014905D02*
G01*
X47063115Y-25073295D01*
X47068500Y-25109441D01*
X47068500Y-26843522D01*
X47048815Y-26910561D01*
X47032181Y-26931203D01*
X45473204Y-28490181D01*
X45411881Y-28523666D01*
X45385523Y-28526500D01*
X45003500Y-28526500D01*
X44936461Y-28506815D01*
X44890706Y-28454011D01*
X44879500Y-28402500D01*
X44879500Y-27466586D01*
X44886458Y-27425632D01*
X44894860Y-27401620D01*
X44915634Y-27342252D01*
X44918306Y-27318540D01*
X44934141Y-27178003D01*
X44934141Y-27177996D01*
X44915635Y-27013753D01*
X44915634Y-27013751D01*
X44915634Y-27013748D01*
X44861042Y-26857733D01*
X44823505Y-26797993D01*
X44804500Y-26732023D01*
X44804500Y-26450078D01*
X44824185Y-26383039D01*
X44840819Y-26362397D01*
X44929367Y-26273849D01*
X44990690Y-26240364D01*
X45003166Y-26238310D01*
X45006846Y-26237895D01*
X45006848Y-26237894D01*
X45006853Y-26237894D01*
X45162868Y-26183302D01*
X45302824Y-26095362D01*
X45419703Y-25978483D01*
X45507643Y-25838527D01*
X45562235Y-25682512D01*
X45562236Y-25682506D01*
X45580742Y-25518263D01*
X45580742Y-25518256D01*
X45562236Y-25354014D01*
X45562235Y-25354012D01*
X45562235Y-25354008D01*
X45556264Y-25336946D01*
X45552702Y-25267171D01*
X45587430Y-25206543D01*
X45649423Y-25174315D01*
X45718998Y-25180719D01*
X45760987Y-25208312D01*
X45767777Y-25215102D01*
X45832984Y-25256074D01*
X45900257Y-25298345D01*
X45907733Y-25303042D01*
X46063748Y-25357634D01*
X46063751Y-25357634D01*
X46063753Y-25357635D01*
X46227996Y-25376141D01*
X46228000Y-25376141D01*
X46228004Y-25376141D01*
X46392246Y-25357635D01*
X46392247Y-25357634D01*
X46392252Y-25357634D01*
X46548267Y-25303042D01*
X46688223Y-25215102D01*
X46805102Y-25098223D01*
X46839506Y-25043468D01*
X46891841Y-24997178D01*
X46960894Y-24986530D01*
X47024743Y-25014905D01*
G37*
%TD.AperFunction*%
%TA.AperFunction,Conductor*%
G36*
X41811334Y-21526978D02*
G01*
X41855681Y-21555479D01*
X41955962Y-21655760D01*
X42136346Y-21782067D01*
X42335924Y-21875131D01*
X42548629Y-21932126D01*
X42705322Y-21945834D01*
X42767998Y-21951318D01*
X42767999Y-21951318D01*
X42767999Y-21951317D01*
X42768000Y-21951318D01*
X42818128Y-21946932D01*
X42886627Y-21960698D01*
X42936810Y-22009313D01*
X42952744Y-22077341D01*
X42945116Y-22113794D01*
X42906512Y-22217292D01*
X42906511Y-22217297D01*
X42900000Y-22277845D01*
X42900000Y-23950154D01*
X42906511Y-24010702D01*
X42906511Y-24010704D01*
X42946323Y-24117441D01*
X42957611Y-24147704D01*
X43045239Y-24264761D01*
X43162296Y-24352389D01*
X43299299Y-24403489D01*
X43326550Y-24406418D01*
X43359845Y-24409999D01*
X43359862Y-24410000D01*
X45032138Y-24410000D01*
X45032154Y-24409999D01*
X45059192Y-24407091D01*
X45092701Y-24403489D01*
X45129258Y-24389854D01*
X45202968Y-24362361D01*
X45229704Y-24352389D01*
X45229704Y-24352388D01*
X45229706Y-24352388D01*
X45229707Y-24352387D01*
X45312825Y-24290165D01*
X45339059Y-24270526D01*
X45404522Y-24246109D01*
X45472795Y-24260960D01*
X45522201Y-24310365D01*
X45537053Y-24378638D01*
X45530411Y-24410747D01*
X45508364Y-24473753D01*
X45489859Y-24637996D01*
X45489859Y-24638003D01*
X45508364Y-24802246D01*
X45514336Y-24819312D01*
X45517897Y-24889091D01*
X45483168Y-24949718D01*
X45421174Y-24981945D01*
X45351599Y-24975539D01*
X45309613Y-24947947D01*
X45302824Y-24941158D01*
X45162869Y-24853218D01*
X45041387Y-24810710D01*
X45006853Y-24798626D01*
X45006852Y-24798625D01*
X45006847Y-24798624D01*
X44842605Y-24780119D01*
X44842597Y-24780119D01*
X44678354Y-24798624D01*
X44522332Y-24853218D01*
X44382377Y-24941158D01*
X44265499Y-25058036D01*
X44177558Y-25197992D01*
X44177557Y-25197996D01*
X44129546Y-25335204D01*
X44100186Y-25381930D01*
X43796801Y-25685316D01*
X43790698Y-25690667D01*
X43762013Y-25712679D01*
X43737520Y-25744598D01*
X43664476Y-25839790D01*
X43664475Y-25839792D01*
X43603713Y-25986488D01*
X43603162Y-25987816D01*
X43603161Y-25987818D01*
X43586968Y-26110817D01*
X43586969Y-26110818D01*
X43582250Y-26146667D01*
X43586969Y-26182510D01*
X43587500Y-26190612D01*
X43587500Y-26732023D01*
X43568494Y-26797993D01*
X43564581Y-26804222D01*
X43530957Y-26857734D01*
X43476364Y-27013753D01*
X43457859Y-27177996D01*
X43457859Y-27178003D01*
X43476364Y-27342246D01*
X43476365Y-27342251D01*
X43476366Y-27342252D01*
X43495887Y-27398041D01*
X43505542Y-27425632D01*
X43512500Y-27466586D01*
X43512500Y-27768522D01*
X43492815Y-27835561D01*
X43440011Y-27881316D01*
X43370853Y-27891260D01*
X43307297Y-27862235D01*
X43300819Y-27856203D01*
X37586950Y-22142334D01*
X37553465Y-22081011D01*
X37558449Y-22011319D01*
X37600321Y-21955386D01*
X37631289Y-21938474D01*
X37764204Y-21888900D01*
X37881261Y-21801272D01*
X37906431Y-21767648D01*
X37962362Y-21725779D01*
X38032053Y-21720795D01*
X38076819Y-21740385D01*
X38136346Y-21782067D01*
X38335924Y-21875131D01*
X38548629Y-21932126D01*
X38705322Y-21945834D01*
X38767998Y-21951318D01*
X38768000Y-21951318D01*
X38768002Y-21951318D01*
X38825780Y-21946263D01*
X38987371Y-21932126D01*
X39200076Y-21875131D01*
X39399654Y-21782067D01*
X39580038Y-21655760D01*
X39680319Y-21555478D01*
X39741642Y-21521994D01*
X39811334Y-21526978D01*
X39855681Y-21555479D01*
X39955962Y-21655760D01*
X40136346Y-21782067D01*
X40335924Y-21875131D01*
X40548629Y-21932126D01*
X40705322Y-21945834D01*
X40767998Y-21951318D01*
X40768000Y-21951318D01*
X40768002Y-21951318D01*
X40825780Y-21946263D01*
X40987371Y-21932126D01*
X41200076Y-21875131D01*
X41399654Y-21782067D01*
X41580038Y-21655760D01*
X41680319Y-21555478D01*
X41741642Y-21521994D01*
X41811334Y-21526978D01*
G37*
%TD.AperFunction*%
%TA.AperFunction,Conductor*%
G36*
X13280049Y-22255660D02*
G01*
X13290954Y-22268245D01*
X13369300Y-22371993D01*
X13504053Y-22494835D01*
X13518011Y-22507560D01*
X13521117Y-22510391D01*
X13521122Y-22510395D01*
X13531102Y-22516575D01*
X13577737Y-22568604D01*
X13588839Y-22637586D01*
X13560884Y-22701620D01*
X13531102Y-22727425D01*
X13521122Y-22733604D01*
X13521117Y-22733608D01*
X13369300Y-22872007D01*
X13290954Y-22975754D01*
X13234845Y-23017390D01*
X13165133Y-23022081D01*
X13103951Y-22988339D01*
X13093046Y-22975754D01*
X13014699Y-22872007D01*
X12862882Y-22733608D01*
X12862878Y-22733605D01*
X12852895Y-22727423D01*
X12806261Y-22675393D01*
X12795161Y-22606411D01*
X12823117Y-22542378D01*
X12852902Y-22516570D01*
X12862882Y-22510392D01*
X12993804Y-22391041D01*
X13014699Y-22371993D01*
X13014847Y-22371798D01*
X13093046Y-22268244D01*
X13149155Y-22226609D01*
X13218867Y-22221918D01*
X13280049Y-22255660D01*
G37*
%TD.AperFunction*%
%TD*%
M02*
