%TF.GenerationSoftware,KiCad,Pcbnew,7.0.5*%
%TF.CreationDate,2024-09-10T19:27:24-04:00*%
%TF.ProjectId,PCB_PCB_OpenSuperHetv6PCB,5043425f-5043-4425-9f4f-70656e537570,rev?*%
%TF.SameCoordinates,Original*%
%TF.FileFunction,Paste,Top*%
%TF.FilePolarity,Positive*%
%FSLAX46Y46*%
G04 Gerber Fmt 4.6, Leading zero omitted, Abs format (unit mm)*
G04 Created by KiCad (PCBNEW 7.0.5) date 2024-09-10 19:27:24*
%MOMM*%
%LPD*%
G01*
G04 APERTURE LIST*
G04 Aperture macros list*
%AMRotRect*
0 Rectangle, with rotation*
0 The origin of the aperture is its center*
0 $1 length*
0 $2 width*
0 $3 Rotation angle, in degrees counterclockwise*
0 Add horizontal line*
21,1,$1,$2,0,0,$3*%
G04 Aperture macros list end*
%ADD10R,1.800000X1.800000*%
%ADD11C,1.800000*%
%ADD12C,1.200000*%
%ADD13R,0.806000X0.864000*%
%ADD14R,0.540000X0.790000*%
%ADD15RotRect,0.300000X0.300000X45.000000*%
%ADD16RotRect,0.250000X0.250000X45.000000*%
%ADD17R,1.575000X1.575000*%
%ADD18R,0.800000X0.900000*%
%ADD19R,0.900000X0.800000*%
%ADD20R,2.376000X1.900000*%
%ADD21RotRect,1.500000X5.000000X135.000000*%
%ADD22RotRect,0.300000X0.300000X135.000000*%
%ADD23RotRect,0.250000X0.250000X135.000000*%
%ADD24C,1.500000*%
%ADD25R,1.500000X1.500000*%
%ADD26RotRect,1.500000X5.000000X45.000000*%
%ADD27RotRect,0.280000X0.700000X135.000000*%
%ADD28RotRect,0.700000X0.280000X135.000000*%
%ADD29RotRect,5.100000X5.100000X135.000000*%
%ADD30R,0.790000X0.540000*%
%ADD31O,2.800000X1.400000*%
%ADD32RotRect,0.790000X0.540000X45.000000*%
%ADD33R,0.800000X0.300000*%
%ADD34R,0.300000X0.800000*%
%ADD35R,5.600000X5.600000*%
%ADD36RotRect,0.790000X0.540000X315.000000*%
G04 APERTURE END LIST*
%TO.C,R1*%
G36*
X40869000Y-27794000D02*
G01*
X40869000Y-28594000D01*
X40819000Y-28644000D01*
X40019000Y-28644000D01*
X39969000Y-28594000D01*
X39969000Y-28352000D01*
X40339000Y-28352000D01*
X40339000Y-28022000D01*
X39969000Y-28022000D01*
X39969000Y-27794000D01*
X40019000Y-27744000D01*
X40819000Y-27744000D01*
X40869000Y-27794000D01*
G37*
G36*
X39279000Y-27794000D02*
G01*
X39279000Y-28036000D01*
X38909000Y-28036000D01*
X38909000Y-28366000D01*
X39279000Y-28366000D01*
X39279000Y-28594000D01*
X39229000Y-28644000D01*
X38429000Y-28644000D01*
X38379000Y-28594000D01*
X38379000Y-27794000D01*
X38429000Y-27744000D01*
X39229000Y-27744000D01*
X39279000Y-27794000D01*
G37*
%TO.C,C9*%
G36*
X49805000Y-23110000D02*
G01*
X49805000Y-23590000D01*
X49755000Y-23640000D01*
X49305000Y-23640000D01*
X49255000Y-23590000D01*
X49255000Y-23110000D01*
X49305000Y-23040000D01*
X49755000Y-23040000D01*
X49805000Y-23110000D01*
G37*
G36*
X49805000Y-22130000D02*
G01*
X49805000Y-22610000D01*
X49755000Y-22680000D01*
X49305000Y-22680000D01*
X49255000Y-22610000D01*
X49255000Y-22130000D01*
X49305000Y-22080000D01*
X49755000Y-22080000D01*
X49805000Y-22130000D01*
G37*
%TO.C,C1*%
G36*
X52599000Y-33524000D02*
G01*
X52599000Y-34004000D01*
X52549000Y-34054000D01*
X52099000Y-34054000D01*
X52049000Y-34004000D01*
X52049000Y-33524000D01*
X52099000Y-33454000D01*
X52549000Y-33454000D01*
X52599000Y-33524000D01*
G37*
G36*
X52599000Y-32544000D02*
G01*
X52599000Y-33024000D01*
X52549000Y-33094000D01*
X52099000Y-33094000D01*
X52049000Y-33024000D01*
X52049000Y-32544000D01*
X52099000Y-32494000D01*
X52549000Y-32494000D01*
X52599000Y-32544000D01*
G37*
%TO.C,C10*%
G36*
X48281000Y-35048000D02*
G01*
X48281000Y-35528000D01*
X48231000Y-35578000D01*
X47781000Y-35578000D01*
X47731000Y-35528000D01*
X47731000Y-35048000D01*
X47781000Y-34978000D01*
X48231000Y-34978000D01*
X48281000Y-35048000D01*
G37*
G36*
X48281000Y-34068000D02*
G01*
X48281000Y-34548000D01*
X48231000Y-34618000D01*
X47781000Y-34618000D01*
X47731000Y-34548000D01*
X47731000Y-34068000D01*
X47781000Y-34018000D01*
X48231000Y-34018000D01*
X48281000Y-34068000D01*
G37*
%TO.C,C8*%
G36*
X50821000Y-35302000D02*
G01*
X50821000Y-35782000D01*
X50771000Y-35832000D01*
X50321000Y-35832000D01*
X50271000Y-35782000D01*
X50271000Y-35302000D01*
X50321000Y-35232000D01*
X50771000Y-35232000D01*
X50821000Y-35302000D01*
G37*
%TO.C,U1*%
G36*
X18329977Y-26746926D02*
G01*
X17835002Y-27241901D01*
X17637012Y-27043911D01*
X18131987Y-26548936D01*
X18329977Y-26746926D01*
G37*
G36*
X18683530Y-27100479D02*
G01*
X18188555Y-27595454D01*
X17990565Y-27397464D01*
X18485540Y-26902489D01*
X18683530Y-27100479D01*
G37*
G36*
X27066281Y-25788796D02*
G01*
X26571306Y-26283771D01*
X26373316Y-26085781D01*
X26868291Y-25590806D01*
X27066281Y-25788796D01*
G37*
G36*
X23177194Y-30932291D02*
G01*
X22979204Y-31130281D01*
X22484229Y-30635306D01*
X22682219Y-30437316D01*
X23177194Y-30932291D01*
G37*
G36*
X24237854Y-29871631D02*
G01*
X24039864Y-30069621D01*
X23544889Y-29574646D01*
X23742879Y-29376656D01*
X24237854Y-29871631D01*
G37*
G36*
X24944961Y-23667476D02*
G01*
X24449986Y-24162451D01*
X24251996Y-23964461D01*
X24746971Y-23469486D01*
X24944961Y-23667476D01*
G37*
G36*
X25236996Y-26416000D02*
G01*
X22352000Y-29300996D01*
X19467004Y-26416000D01*
X22352000Y-23531004D01*
X25236996Y-26416000D01*
G37*
G36*
X20097744Y-24317307D02*
G01*
X19899754Y-24515297D01*
X19404779Y-24020322D01*
X19602769Y-23822332D01*
X20097744Y-24317307D01*
G37*
G36*
X20804850Y-23610200D02*
G01*
X20606860Y-23808190D01*
X20111886Y-23313215D01*
X20309876Y-23115226D01*
X20804850Y-23610200D01*
G37*
G36*
X18683530Y-25731521D02*
G01*
X18485540Y-25929511D01*
X17990565Y-25434536D01*
X18188555Y-25236546D01*
X18683530Y-25731521D01*
G37*
G36*
X23530747Y-22253262D02*
G01*
X23035772Y-22748237D01*
X22837782Y-22550247D01*
X23332757Y-22055272D01*
X23530747Y-22253262D01*
G37*
G36*
X26005621Y-24728136D02*
G01*
X25510646Y-25223111D01*
X25312656Y-25025121D01*
X25807631Y-24530146D01*
X26005621Y-24728136D01*
G37*
G36*
X20451297Y-23963754D02*
G01*
X20253307Y-24161744D01*
X19758332Y-23666769D01*
X19956322Y-23468779D01*
X20451297Y-23963754D01*
G37*
G36*
X23530747Y-30578738D02*
G01*
X23332757Y-30776728D01*
X22837782Y-30281753D01*
X23035772Y-30083763D01*
X23530747Y-30578738D01*
G37*
G36*
X18329977Y-26085074D02*
G01*
X18131987Y-26283064D01*
X17637012Y-25788089D01*
X17835002Y-25590099D01*
X18329977Y-26085074D01*
G37*
G36*
X20451297Y-28868246D02*
G01*
X19956322Y-29363221D01*
X19758332Y-29165231D01*
X20253307Y-28670256D01*
X20451297Y-28868246D01*
G37*
G36*
X19390637Y-27807586D02*
G01*
X18895662Y-28302561D01*
X18697672Y-28104571D01*
X19192647Y-27609596D01*
X19390637Y-27807586D01*
G37*
G36*
X21865511Y-30282460D02*
G01*
X21370536Y-30777435D01*
X21172546Y-30579445D01*
X21667521Y-30084470D01*
X21865511Y-30282460D01*
G37*
G36*
X21511957Y-29928906D02*
G01*
X21016982Y-30423881D01*
X20818992Y-30225891D01*
X21313967Y-29730917D01*
X21511957Y-29928906D01*
G37*
G36*
X20097744Y-28514693D02*
G01*
X19602769Y-29009668D01*
X19404779Y-28811678D01*
X19899754Y-28316703D01*
X20097744Y-28514693D01*
G37*
G36*
X19037083Y-27454033D02*
G01*
X18542109Y-27949008D01*
X18344119Y-27751018D01*
X18839094Y-27256043D01*
X19037083Y-27454033D01*
G37*
G36*
X19390637Y-25024414D02*
G01*
X19192647Y-25222404D01*
X18697672Y-24727429D01*
X18895662Y-24529439D01*
X19390637Y-25024414D01*
G37*
G36*
X21158404Y-29575353D02*
G01*
X20663429Y-30070328D01*
X20465439Y-29872338D01*
X20960414Y-29377363D01*
X21158404Y-29575353D01*
G37*
G36*
X25298514Y-24021029D02*
G01*
X24803539Y-24516004D01*
X24605549Y-24318014D01*
X25100524Y-23823039D01*
X25298514Y-24021029D01*
G37*
G36*
X24944961Y-29164524D02*
G01*
X24746971Y-29362514D01*
X24251996Y-28867539D01*
X24449986Y-28669549D01*
X24944961Y-29164524D01*
G37*
G36*
X22219064Y-22195987D02*
G01*
X22021074Y-22393977D01*
X21526099Y-21899002D01*
X21724089Y-21701012D01*
X22219064Y-22195987D01*
G37*
G36*
X26005621Y-28103864D02*
G01*
X25807631Y-28301854D01*
X25312656Y-27806879D01*
X25510646Y-27608889D01*
X26005621Y-28103864D01*
G37*
G36*
X21865511Y-22549540D02*
G01*
X21667521Y-22747530D01*
X21172546Y-22252555D01*
X21370536Y-22054565D01*
X21865511Y-22549540D01*
G37*
G36*
X26359174Y-25081690D02*
G01*
X25864199Y-25576664D01*
X25666209Y-25378674D01*
X26161184Y-24883700D01*
X26359174Y-25081690D01*
G37*
G36*
X19744190Y-24670860D02*
G01*
X19546200Y-24868850D01*
X19051226Y-24373876D01*
X19249215Y-24175886D01*
X19744190Y-24670860D01*
G37*
G36*
X25298514Y-28810971D02*
G01*
X25100524Y-29008961D01*
X24605549Y-28513986D01*
X24803539Y-28315996D01*
X25298514Y-28810971D01*
G37*
G36*
X21158404Y-23256647D02*
G01*
X20960414Y-23454637D01*
X20465439Y-22959662D01*
X20663429Y-22761672D01*
X21158404Y-23256647D01*
G37*
G36*
X23884300Y-30225184D02*
G01*
X23686310Y-30423174D01*
X23191336Y-29928199D01*
X23389326Y-29730209D01*
X23884300Y-30225184D01*
G37*
G36*
X26359174Y-27750310D02*
G01*
X26161184Y-27948300D01*
X25666209Y-27453326D01*
X25864199Y-27255336D01*
X26359174Y-27750310D01*
G37*
G36*
X22219064Y-30636013D02*
G01*
X21724089Y-31130988D01*
X21526099Y-30932998D01*
X22021074Y-30438023D01*
X22219064Y-30636013D01*
G37*
G36*
X21511957Y-22903094D02*
G01*
X21313967Y-23101083D01*
X20818992Y-22606109D01*
X21016982Y-22408119D01*
X21511957Y-22903094D01*
G37*
G36*
X26712728Y-25435243D02*
G01*
X26217753Y-25930218D01*
X26019763Y-25732228D01*
X26514738Y-25237253D01*
X26712728Y-25435243D01*
G37*
G36*
X19744190Y-28161140D02*
G01*
X19249215Y-28656114D01*
X19051226Y-28458124D01*
X19546200Y-27963150D01*
X19744190Y-28161140D01*
G37*
G36*
X27066281Y-27043204D02*
G01*
X26868291Y-27241194D01*
X26373316Y-26746219D01*
X26571306Y-26548229D01*
X27066281Y-27043204D01*
G37*
G36*
X23884300Y-22606816D02*
G01*
X23389326Y-23101791D01*
X23191336Y-22903801D01*
X23686310Y-22408826D01*
X23884300Y-22606816D01*
G37*
G36*
X20804850Y-29221800D02*
G01*
X20309876Y-29716774D01*
X20111886Y-29518785D01*
X20606860Y-29023810D01*
X20804850Y-29221800D01*
G37*
G36*
X25652067Y-28457417D02*
G01*
X25454077Y-28655407D01*
X24959103Y-28160432D01*
X25157093Y-27962443D01*
X25652067Y-28457417D01*
G37*
G36*
X24237854Y-22960369D02*
G01*
X23742879Y-23455344D01*
X23544889Y-23257354D01*
X24039864Y-22762379D01*
X24237854Y-22960369D01*
G37*
G36*
X24591407Y-29518077D02*
G01*
X24393417Y-29716067D01*
X23898443Y-29221093D01*
X24096432Y-29023103D01*
X24591407Y-29518077D01*
G37*
G36*
X26712728Y-27396757D02*
G01*
X26514738Y-27594747D01*
X26019763Y-27099772D01*
X26217753Y-26901782D01*
X26712728Y-27396757D01*
G37*
G36*
X23177194Y-21899709D02*
G01*
X22682219Y-22394684D01*
X22484229Y-22196694D01*
X22979204Y-21701719D01*
X23177194Y-21899709D01*
G37*
G36*
X19037083Y-25377967D02*
G01*
X18839094Y-25575957D01*
X18344119Y-25080982D01*
X18542109Y-24882992D01*
X19037083Y-25377967D01*
G37*
G36*
X25652067Y-24374583D02*
G01*
X25157093Y-24869557D01*
X24959103Y-24671568D01*
X25454077Y-24176593D01*
X25652067Y-24374583D01*
G37*
%TO.C,C4*%
G36*
X41984000Y-27461000D02*
G01*
X41984000Y-27911000D01*
X41914000Y-27961000D01*
X41434000Y-27961000D01*
X41384000Y-27911000D01*
X41384000Y-27461000D01*
X41434000Y-27411000D01*
X41914000Y-27411000D01*
X41984000Y-27461000D01*
G37*
G36*
X42944000Y-27461000D02*
G01*
X42944000Y-27911000D01*
X42894000Y-27961000D01*
X42414000Y-27961000D01*
X42344000Y-27911000D01*
X42344000Y-27461000D01*
X42414000Y-27411000D01*
X42894000Y-27411000D01*
X42944000Y-27461000D01*
G37*
%TO.C,C12*%
G36*
X46005820Y-34830378D02*
G01*
X45991678Y-34915231D01*
X45652266Y-35254642D01*
X45581556Y-35254642D01*
X45263358Y-34936444D01*
X45263358Y-34865734D01*
X45602769Y-34526322D01*
X45687622Y-34512180D01*
X46005820Y-34830378D01*
G37*
G36*
X46684642Y-34151556D02*
G01*
X46684642Y-34222266D01*
X46345231Y-34561678D01*
X46260378Y-34575820D01*
X45942180Y-34257622D01*
X45956322Y-34172769D01*
X46295734Y-33833358D01*
X46366444Y-33833358D01*
X46684642Y-34151556D01*
G37*
%TO.C,C5*%
G36*
X42238000Y-28477000D02*
G01*
X42238000Y-28927000D01*
X42168000Y-28977000D01*
X41688000Y-28977000D01*
X41638000Y-28927000D01*
X41638000Y-28477000D01*
X41688000Y-28427000D01*
X42168000Y-28427000D01*
X42238000Y-28477000D01*
G37*
G36*
X43198000Y-28477000D02*
G01*
X43198000Y-28927000D01*
X43148000Y-28977000D01*
X42668000Y-28977000D01*
X42598000Y-28927000D01*
X42598000Y-28477000D01*
X42668000Y-28427000D01*
X43148000Y-28427000D01*
X43198000Y-28477000D01*
G37*
%TO.C,R2*%
G36*
X39279000Y-29318000D02*
G01*
X39279000Y-29560000D01*
X38909000Y-29560000D01*
X38909000Y-29890000D01*
X39279000Y-29890000D01*
X39279000Y-30118000D01*
X39229000Y-30168000D01*
X38429000Y-30168000D01*
X38379000Y-30118000D01*
X38379000Y-29318000D01*
X38429000Y-29268000D01*
X39229000Y-29268000D01*
X39279000Y-29318000D01*
G37*
G36*
X40869000Y-29318000D02*
G01*
X40869000Y-30118000D01*
X40819000Y-30168000D01*
X40019000Y-30168000D01*
X39969000Y-30118000D01*
X39969000Y-29876000D01*
X40339000Y-29876000D01*
X40339000Y-29546000D01*
X39969000Y-29546000D01*
X39969000Y-29318000D01*
X40019000Y-29268000D01*
X40819000Y-29268000D01*
X40869000Y-29318000D01*
G37*
%TO.C,C13*%
G36*
X55644000Y-28477000D02*
G01*
X55644000Y-28927000D01*
X55594000Y-28977000D01*
X55114000Y-28977000D01*
X55044000Y-28927000D01*
X55044000Y-28477000D01*
X55114000Y-28427000D01*
X55594000Y-28427000D01*
X55644000Y-28477000D01*
G37*
G36*
X54684000Y-28477000D02*
G01*
X54684000Y-28927000D01*
X54614000Y-28977000D01*
X54134000Y-28977000D01*
X54084000Y-28927000D01*
X54084000Y-28477000D01*
X54134000Y-28427000D01*
X54614000Y-28427000D01*
X54684000Y-28477000D01*
G37*
%TO.C,U5*%
G36*
X45414000Y-26357000D02*
G01*
X44614000Y-26357000D01*
X44614000Y-26057000D01*
X45414000Y-26057000D01*
X45414000Y-26357000D01*
G37*
G36*
X52414000Y-28356000D02*
G01*
X51614000Y-28356000D01*
X51614000Y-28056000D01*
X52414000Y-28056000D01*
X52414000Y-28356000D01*
G37*
G36*
X50414000Y-25855000D02*
G01*
X50114000Y-25855000D01*
X50114000Y-25055000D01*
X50414000Y-25055000D01*
X50414000Y-25855000D01*
G37*
G36*
X45414000Y-30855000D02*
G01*
X44614000Y-30855000D01*
X44614000Y-30555000D01*
X45414000Y-30555000D01*
X45414000Y-30855000D01*
G37*
G36*
X46415000Y-25855000D02*
G01*
X46115000Y-25855000D01*
X46115000Y-25055000D01*
X46415000Y-25055000D01*
X46415000Y-25855000D01*
G37*
G36*
X45414000Y-31355000D02*
G01*
X44614000Y-31355000D01*
X44614000Y-31055000D01*
X45414000Y-31055000D01*
X45414000Y-31355000D01*
G37*
G36*
X50914000Y-32855000D02*
G01*
X50614000Y-32855000D01*
X50614000Y-32055000D01*
X50914000Y-32055000D01*
X50914000Y-32855000D01*
G37*
G36*
X45414000Y-29855000D02*
G01*
X44614000Y-29855000D01*
X44614000Y-29555000D01*
X45414000Y-29555000D01*
X45414000Y-29855000D01*
G37*
G36*
X52414000Y-27355000D02*
G01*
X51614000Y-27355000D01*
X51614000Y-27055000D01*
X52414000Y-27055000D01*
X52414000Y-27355000D01*
G37*
G36*
X47914000Y-25855000D02*
G01*
X47615000Y-25855000D01*
X47615000Y-25055000D01*
X47914000Y-25055000D01*
X47914000Y-25855000D01*
G37*
G36*
X52414000Y-29855000D02*
G01*
X51614000Y-29855000D01*
X51614000Y-29555000D01*
X52414000Y-29555000D01*
X52414000Y-29855000D01*
G37*
G36*
X48415000Y-25855000D02*
G01*
X48115000Y-25855000D01*
X48115000Y-25055000D01*
X48415000Y-25055000D01*
X48415000Y-25855000D01*
G37*
G36*
X51415000Y-25855000D02*
G01*
X51115000Y-25855000D01*
X51115000Y-25055000D01*
X51415000Y-25055000D01*
X51415000Y-25855000D01*
G37*
G36*
X45414000Y-29356000D02*
G01*
X44614000Y-29356000D01*
X44614000Y-29056000D01*
X45414000Y-29056000D01*
X45414000Y-29356000D01*
G37*
G36*
X47414000Y-32855000D02*
G01*
X47114000Y-32855000D01*
X47114000Y-32055000D01*
X47414000Y-32055000D01*
X47414000Y-32855000D01*
G37*
G36*
X52414000Y-27855000D02*
G01*
X51614000Y-27855000D01*
X51614000Y-27555000D01*
X52414000Y-27555000D01*
X52414000Y-27855000D01*
G37*
G36*
X45414000Y-28856000D02*
G01*
X44614000Y-28856000D01*
X44614000Y-28556000D01*
X45414000Y-28556000D01*
X45414000Y-28856000D01*
G37*
G36*
X46914000Y-25855000D02*
G01*
X46614000Y-25855000D01*
X46614000Y-25055000D01*
X46914000Y-25055000D01*
X46914000Y-25855000D01*
G37*
G36*
X46914000Y-32855000D02*
G01*
X46614000Y-32855000D01*
X46614000Y-32055000D01*
X46914000Y-32055000D01*
X46914000Y-32855000D01*
G37*
G36*
X48915000Y-32855000D02*
G01*
X48615000Y-32855000D01*
X48615000Y-32055000D01*
X48915000Y-32055000D01*
X48915000Y-32855000D01*
G37*
G36*
X49414000Y-25855000D02*
G01*
X49114000Y-25855000D01*
X49114000Y-25055000D01*
X49414000Y-25055000D01*
X49414000Y-25855000D01*
G37*
G36*
X49915000Y-25855000D02*
G01*
X49615000Y-25855000D01*
X49615000Y-25055000D01*
X49915000Y-25055000D01*
X49915000Y-25855000D01*
G37*
G36*
X45414000Y-26856000D02*
G01*
X44614000Y-26856000D01*
X44614000Y-26556000D01*
X45414000Y-26556000D01*
X45414000Y-26856000D01*
G37*
G36*
X45916000Y-32855000D02*
G01*
X45615000Y-32855000D01*
X45615000Y-32055000D01*
X45916000Y-32055000D01*
X45916000Y-32855000D01*
G37*
G36*
X52414000Y-29356000D02*
G01*
X51614000Y-29356000D01*
X51614000Y-29056000D01*
X52414000Y-29056000D01*
X52414000Y-29356000D01*
G37*
G36*
X48915000Y-25855000D02*
G01*
X48615000Y-25855000D01*
X48615000Y-25055000D01*
X48915000Y-25055000D01*
X48915000Y-25855000D01*
G37*
G36*
X50754000Y-31196000D02*
G01*
X46274000Y-31196000D01*
X46274000Y-26716000D01*
X50754000Y-26716000D01*
X50754000Y-31196000D01*
G37*
G36*
X52414000Y-30855000D02*
G01*
X51614000Y-30855000D01*
X51614000Y-30555000D01*
X52414000Y-30555000D01*
X52414000Y-30855000D01*
G37*
G36*
X52414000Y-30356000D02*
G01*
X51614000Y-30356000D01*
X51614000Y-30056000D01*
X52414000Y-30056000D01*
X52414000Y-30356000D01*
G37*
G36*
X49414000Y-32855000D02*
G01*
X49114000Y-32855000D01*
X49114000Y-32055000D01*
X49414000Y-32055000D01*
X49414000Y-32855000D01*
G37*
G36*
X52414000Y-31355000D02*
G01*
X51614000Y-31355000D01*
X51614000Y-31055000D01*
X52414000Y-31055000D01*
X52414000Y-31355000D01*
G37*
G36*
X52414000Y-28856000D02*
G01*
X51614000Y-28856000D01*
X51614000Y-28556000D01*
X52414000Y-28556000D01*
X52414000Y-28856000D01*
G37*
G36*
X48415000Y-32855000D02*
G01*
X48115000Y-32855000D01*
X48115000Y-32055000D01*
X48415000Y-32055000D01*
X48415000Y-32855000D01*
G37*
G36*
X46415000Y-32855000D02*
G01*
X46115000Y-32855000D01*
X46115000Y-32055000D01*
X46415000Y-32055000D01*
X46415000Y-32855000D01*
G37*
G36*
X47915000Y-32855000D02*
G01*
X47614000Y-32855000D01*
X47614000Y-32055000D01*
X47915000Y-32055000D01*
X47915000Y-32855000D01*
G37*
G36*
X45414000Y-27355000D02*
G01*
X44614000Y-27355000D01*
X44614000Y-27055000D01*
X45414000Y-27055000D01*
X45414000Y-27355000D01*
G37*
G36*
X52414000Y-31856000D02*
G01*
X51614000Y-31856000D01*
X51614000Y-31556000D01*
X52414000Y-31556000D01*
X52414000Y-31856000D01*
G37*
G36*
X51415000Y-32855000D02*
G01*
X51115000Y-32855000D01*
X51115000Y-32055000D01*
X51415000Y-32055000D01*
X51415000Y-32855000D01*
G37*
G36*
X45414000Y-27855000D02*
G01*
X44614000Y-27855000D01*
X44614000Y-27555000D01*
X45414000Y-27555000D01*
X45414000Y-27855000D01*
G37*
G36*
X45414000Y-28356000D02*
G01*
X44614000Y-28356000D01*
X44614000Y-28055000D01*
X45414000Y-28055000D01*
X45414000Y-28356000D01*
G37*
G36*
X47414000Y-25855000D02*
G01*
X47114000Y-25855000D01*
X47114000Y-25055000D01*
X47414000Y-25055000D01*
X47414000Y-25855000D01*
G37*
G36*
X52414000Y-26357000D02*
G01*
X51614000Y-26357000D01*
X51614000Y-26057000D01*
X52414000Y-26057000D01*
X52414000Y-26357000D01*
G37*
G36*
X50914000Y-25855000D02*
G01*
X50614000Y-25855000D01*
X50614000Y-25055000D01*
X50914000Y-25055000D01*
X50914000Y-25855000D01*
G37*
G36*
X52414000Y-26856000D02*
G01*
X51614000Y-26856000D01*
X51614000Y-26556000D01*
X52414000Y-26556000D01*
X52414000Y-26856000D01*
G37*
G36*
X45414000Y-30356000D02*
G01*
X44614000Y-30356000D01*
X44614000Y-30056000D01*
X45414000Y-30056000D01*
X45414000Y-30356000D01*
G37*
G36*
X49915000Y-32855000D02*
G01*
X49615000Y-32855000D01*
X49615000Y-32055000D01*
X49915000Y-32055000D01*
X49915000Y-32855000D01*
G37*
G36*
X45414000Y-31856000D02*
G01*
X44614000Y-31856000D01*
X44614000Y-31556000D01*
X45414000Y-31556000D01*
X45414000Y-31856000D01*
G37*
G36*
X45916000Y-25855000D02*
G01*
X45615000Y-25855000D01*
X45615000Y-25055000D01*
X45916000Y-25055000D01*
X45916000Y-25855000D01*
G37*
%TO.C,C6*%
G36*
X44041723Y-25076875D02*
G01*
X44041723Y-25526875D01*
X43971723Y-25576875D01*
X43491723Y-25576875D01*
X43441723Y-25526875D01*
X43441723Y-25076875D01*
X43491723Y-25026875D01*
X43971723Y-25026875D01*
X44041723Y-25076875D01*
G37*
G36*
X45001723Y-25076875D02*
G01*
X45001723Y-25526875D01*
X44951723Y-25576875D01*
X44471723Y-25576875D01*
X44401723Y-25526875D01*
X44401723Y-25076875D01*
X44471723Y-25026875D01*
X44951723Y-25026875D01*
X45001723Y-25076875D01*
G37*
%TO.C,C3*%
G36*
X41984000Y-26445000D02*
G01*
X41984000Y-26895000D01*
X41914000Y-26945000D01*
X41434000Y-26945000D01*
X41384000Y-26895000D01*
X41384000Y-26445000D01*
X41434000Y-26395000D01*
X41914000Y-26395000D01*
X41984000Y-26445000D01*
G37*
G36*
X42944000Y-26445000D02*
G01*
X42944000Y-26895000D01*
X42894000Y-26945000D01*
X42414000Y-26945000D01*
X42344000Y-26895000D01*
X42344000Y-26445000D01*
X42414000Y-26395000D01*
X42894000Y-26395000D01*
X42944000Y-26445000D01*
G37*
%TO.C,C2*%
G36*
X43198000Y-32795000D02*
G01*
X43198000Y-33245000D01*
X43148000Y-33295000D01*
X42668000Y-33295000D01*
X42598000Y-33245000D01*
X42598000Y-32795000D01*
X42668000Y-32745000D01*
X43148000Y-32745000D01*
X43198000Y-32795000D01*
G37*
G36*
X42238000Y-32795000D02*
G01*
X42238000Y-33245000D01*
X42168000Y-33295000D01*
X41688000Y-33295000D01*
X41638000Y-33245000D01*
X41638000Y-32795000D01*
X41688000Y-32745000D01*
X42168000Y-32745000D01*
X42238000Y-32795000D01*
G37*
%TO.C,C7*%
G36*
X47773000Y-22638000D02*
G01*
X47773000Y-23118000D01*
X47723000Y-23188000D01*
X47273000Y-23188000D01*
X47223000Y-23118000D01*
X47223000Y-22638000D01*
X47273000Y-22588000D01*
X47723000Y-22588000D01*
X47773000Y-22638000D01*
G37*
G36*
X47773000Y-23618000D02*
G01*
X47773000Y-24098000D01*
X47723000Y-24148000D01*
X47273000Y-24148000D01*
X47223000Y-24098000D01*
X47223000Y-23618000D01*
X47273000Y-23548000D01*
X47723000Y-23548000D01*
X47773000Y-23618000D01*
G37*
%TO.C,C11*%
G36*
X35557462Y-21524613D02*
G01*
X35571604Y-21609466D01*
X35253406Y-21927664D01*
X35168553Y-21913522D01*
X34829142Y-21574110D01*
X34829142Y-21503400D01*
X35147340Y-21185202D01*
X35218050Y-21185202D01*
X35557462Y-21524613D01*
G37*
G36*
X35911015Y-21878166D02*
G01*
X36250426Y-22217578D01*
X36250426Y-22288288D01*
X35932228Y-22606486D01*
X35861518Y-22606486D01*
X35522106Y-22267075D01*
X35507964Y-22182222D01*
X35826162Y-21864024D01*
X35911015Y-21878166D01*
G37*
%TD*%
D10*
%TO.C,U7*%
X34616060Y-18787913D03*
D11*
X32076060Y-18787913D03*
%TD*%
D12*
%TO.C,U2*%
X33242000Y-22322000D03*
X31242000Y-22322000D03*
X33242000Y-24322000D03*
X31242000Y-24322000D03*
X33242000Y-26322000D03*
X31242000Y-26322000D03*
X33242000Y-28322000D03*
X31242000Y-28322000D03*
X33242000Y-30322000D03*
X31242000Y-30322000D03*
X33242000Y-32322000D03*
X31242000Y-32322000D03*
X33242000Y-34322000D03*
X31242000Y-34322000D03*
X33242000Y-36322000D03*
X31242000Y-36322000D03*
X33242000Y-38322000D03*
X31242000Y-38322000D03*
X33242000Y-40322000D03*
X31242000Y-40322000D03*
%TD*%
D13*
%TO.C,R1*%
X38871000Y-28194000D03*
X40377000Y-28194000D03*
%TD*%
D14*
%TO.C,C9*%
X49530000Y-22315000D03*
X49530000Y-23405000D03*
%TD*%
D15*
%TO.C,ANT_BALUN1*%
X55118000Y-32611553D03*
D16*
X55471553Y-32258000D03*
X55118000Y-31904447D03*
X54764447Y-32258000D03*
%TD*%
D17*
%TO.C,J2*%
X52070000Y-38354000D03*
%TD*%
D18*
%TO.C,C23*%
X40324000Y-31242000D03*
X38924000Y-31242000D03*
%TD*%
D14*
%TO.C,C1*%
X52324000Y-33819000D03*
X52324000Y-32729000D03*
%TD*%
D19*
%TO.C,C36*%
X3302000Y-22668000D03*
X3302000Y-24068000D03*
%TD*%
D20*
%TO.C,C16*%
X5842000Y-20553000D03*
X5842000Y-24151000D03*
%TD*%
D18*
%TO.C,C24*%
X28002000Y-29972000D03*
X29402000Y-29972000D03*
%TD*%
D21*
%TO.C,ANT_SMA2*%
X60745544Y-23280544D03*
X56856456Y-19391456D03*
X58801000Y-21336000D03*
%TD*%
D14*
%TO.C,C10*%
X48006000Y-35343000D03*
X48006000Y-34253000D03*
%TD*%
D17*
%TO.C,J7*%
X44196000Y-23114000D03*
%TD*%
D22*
%TO.C,ANT_BALUN2*%
X55979553Y-24892000D03*
D23*
X55626000Y-24538447D03*
X55272447Y-24892000D03*
X55626000Y-25245553D03*
%TD*%
D18*
%TO.C,C26*%
X20382000Y-19050000D03*
X21782000Y-19050000D03*
%TD*%
D20*
%TO.C,C15*%
X5588000Y-26903000D03*
X5588000Y-30501000D03*
%TD*%
D18*
%TO.C,C20*%
X28002000Y-28448000D03*
X29402000Y-28448000D03*
%TD*%
D24*
%TO.C,SYS_CTRL*%
X48768000Y-18688011D03*
X48768000Y-20688011D03*
X46768000Y-18688011D03*
X46768000Y-20688011D03*
X44768000Y-18688011D03*
X44768000Y-20688011D03*
X42768000Y-18688011D03*
X42768000Y-20688011D03*
X40768000Y-18688011D03*
X40768000Y-20688011D03*
X38768000Y-18688011D03*
X38768000Y-20688011D03*
X36768000Y-18688011D03*
D25*
X36768000Y-20688011D03*
%TD*%
D14*
%TO.C,C8*%
X50546000Y-35597000D03*
X50546000Y-34507000D03*
%TD*%
D19*
%TO.C,C21*%
X42629547Y-31434000D03*
X42629547Y-30034000D03*
%TD*%
D12*
%TO.C,U3*%
X14192000Y-21622000D03*
X12192000Y-21622000D03*
X14192000Y-23622000D03*
X12192000Y-23622000D03*
X14192000Y-25622000D03*
X12192000Y-25622000D03*
X14192000Y-27622000D03*
X12192000Y-27622000D03*
X14192000Y-29622000D03*
X12192000Y-29622000D03*
X14192000Y-31622000D03*
X12192000Y-31622000D03*
X14192000Y-33622000D03*
X12192000Y-33622000D03*
X14192000Y-35622000D03*
X12192000Y-35622000D03*
X14192000Y-37622000D03*
X12192000Y-37622000D03*
X14192000Y-39622000D03*
X12192000Y-39622000D03*
%TD*%
D17*
%TO.C,J6*%
X52578000Y-20828000D03*
%TD*%
D26*
%TO.C,ANT_SMA1*%
X56856456Y-37504544D03*
X60745544Y-33615456D03*
X58801000Y-35560000D03*
%TD*%
D27*
%TO.C,U1*%
X26719799Y-25937289D03*
X26366245Y-25583735D03*
X26012692Y-25230182D03*
X25659138Y-24876629D03*
X25305585Y-24523075D03*
X24952032Y-24169522D03*
X24598478Y-23815968D03*
X24244925Y-23462415D03*
X23891371Y-23108862D03*
X23537818Y-22755308D03*
X23184265Y-22401755D03*
X22830711Y-22048201D03*
D28*
X21872582Y-22047494D03*
X21519028Y-22401048D03*
X21165475Y-22754601D03*
X20811921Y-23108154D03*
X20458368Y-23461708D03*
X20104815Y-23815261D03*
X19751261Y-24168815D03*
X19397708Y-24522368D03*
X19044154Y-24875921D03*
X18690601Y-25229475D03*
X18337048Y-25583028D03*
X17983494Y-25936582D03*
D27*
X17984201Y-26894711D03*
X18337755Y-27248265D03*
X18691308Y-27601818D03*
X19044862Y-27955371D03*
X19398415Y-28308925D03*
X19751968Y-28662478D03*
X20105522Y-29016032D03*
X20459075Y-29369585D03*
X20812629Y-29723138D03*
X21166182Y-30076692D03*
X21519735Y-30430245D03*
X21873289Y-30783799D03*
D28*
X22830711Y-30783799D03*
X23184265Y-30430245D03*
X23537818Y-30076692D03*
X23891371Y-29723138D03*
X24244925Y-29369585D03*
X24598478Y-29016032D03*
X24952032Y-28662478D03*
X25305585Y-28308925D03*
X25659138Y-27955371D03*
X26012692Y-27601818D03*
X26366245Y-27248265D03*
X26719799Y-26894711D03*
D29*
X22352000Y-26416000D03*
%TD*%
D19*
%TO.C,C27*%
X24384000Y-33974000D03*
X24384000Y-32574000D03*
%TD*%
%TO.C,C14*%
X1778000Y-22668000D03*
X1778000Y-24068000D03*
%TD*%
%TO.C,X3*%
X40324000Y-25654000D03*
X38924000Y-25654000D03*
X38924000Y-26754000D03*
X40324000Y-26754000D03*
%TD*%
D17*
%TO.C,J3*%
X52578000Y-23622000D03*
%TD*%
%TO.C,J1*%
X62484000Y-30988000D03*
%TD*%
D18*
%TO.C,C35*%
X1586000Y-28702000D03*
X2986000Y-28702000D03*
%TD*%
D30*
%TO.C,C4*%
X41619000Y-27686000D03*
X42709000Y-27686000D03*
%TD*%
D18*
%TO.C,C19*%
X28002000Y-26924000D03*
X29402000Y-26924000D03*
%TD*%
D31*
%TO.C,DC1*%
X1438000Y-25711000D03*
X1438000Y-31311000D03*
%TD*%
D19*
%TO.C,C39*%
X26748965Y-19525577D03*
X26748965Y-20925577D03*
%TD*%
D32*
%TO.C,C12*%
X45588627Y-34929373D03*
X46359373Y-34158627D03*
%TD*%
D19*
%TO.C,C22*%
X37455374Y-25390280D03*
X37455374Y-26790280D03*
%TD*%
D10*
%TO.C,U6*%
X28956000Y-22860000D03*
D11*
X28956000Y-20320000D03*
%TD*%
D30*
%TO.C,C5*%
X42963000Y-28702000D03*
X41873000Y-28702000D03*
%TD*%
D17*
%TO.C,J5*%
X62484000Y-28194000D03*
%TD*%
D18*
%TO.C,C29*%
X21906000Y-20574000D03*
X23306000Y-20574000D03*
%TD*%
D19*
%TO.C,C41*%
X25386439Y-19521534D03*
X25386439Y-20921534D03*
%TD*%
D13*
%TO.C,R2*%
X38871000Y-29718000D03*
X40377000Y-29718000D03*
%TD*%
D30*
%TO.C,C13*%
X55409000Y-28702000D03*
X54319000Y-28702000D03*
%TD*%
D17*
%TO.C,CLK1*%
X26670000Y-22860000D03*
%TD*%
D33*
%TO.C,U5*%
X52014000Y-31706000D03*
X52014000Y-31205000D03*
X52014000Y-30705000D03*
X52014000Y-30206000D03*
X52014000Y-29706000D03*
X52014000Y-29206000D03*
X52014000Y-28706000D03*
X52014000Y-28206000D03*
X52014000Y-27705000D03*
X52014000Y-27205000D03*
X52014000Y-26706000D03*
X52014000Y-26207000D03*
D34*
X51265000Y-25455000D03*
X50765000Y-25455000D03*
X50264000Y-25455000D03*
X49764000Y-25455000D03*
X49264000Y-25455000D03*
X48764000Y-25455000D03*
X48265000Y-25455000D03*
X47764000Y-25455000D03*
X47264000Y-25455000D03*
X46764000Y-25455000D03*
X46263000Y-25455000D03*
X45763000Y-25455000D03*
D33*
X45014000Y-26207000D03*
X45014000Y-26706000D03*
X45014000Y-27205000D03*
X45014000Y-27705000D03*
X45014000Y-28206000D03*
X45014000Y-28706000D03*
X45014000Y-29206000D03*
X45014000Y-29706000D03*
X45014000Y-30206000D03*
X45014000Y-30705000D03*
X45014000Y-31205000D03*
X45014000Y-31706000D03*
D34*
X45763000Y-32455000D03*
X46263000Y-32455000D03*
X46764000Y-32455000D03*
X47264000Y-32455000D03*
X47764000Y-32455000D03*
X48264000Y-32455000D03*
X48764000Y-32455000D03*
X49264000Y-32455000D03*
X49764000Y-32455000D03*
X50264000Y-32455000D03*
X50765000Y-32455000D03*
X51265000Y-32455000D03*
D35*
X48514000Y-28956000D03*
%TD*%
D17*
%TO.C,J4*%
X39624000Y-33274000D03*
%TD*%
D30*
%TO.C,C6*%
X44766723Y-25301875D03*
X43676723Y-25301875D03*
%TD*%
%TO.C,C3*%
X42709000Y-26670000D03*
X41619000Y-26670000D03*
%TD*%
%TO.C,C2*%
X42963000Y-33020000D03*
X41873000Y-33020000D03*
%TD*%
D14*
%TO.C,C7*%
X47498000Y-23913000D03*
X47498000Y-22823000D03*
%TD*%
D36*
%TO.C,C11*%
X35154411Y-21510471D03*
X35925157Y-22281217D03*
%TD*%
D18*
%TO.C,C37*%
X29230592Y-25367821D03*
X27830592Y-25367821D03*
%TD*%
M02*
