%TF.GenerationSoftware,KiCad,Pcbnew,7.0.5*%
%TF.CreationDate,2024-09-10T19:27:24-04:00*%
%TF.ProjectId,PCB_PCB_OpenSuperHetv6PCB,5043425f-5043-4425-9f4f-70656e537570,rev?*%
%TF.SameCoordinates,Original*%
%TF.FileFunction,Legend,Bot*%
%TF.FilePolarity,Positive*%
%FSLAX46Y46*%
G04 Gerber Fmt 4.6, Leading zero omitted, Abs format (unit mm)*
G04 Created by KiCad (PCBNEW 7.0.5) date 2024-09-10 19:27:24*
%MOMM*%
%LPD*%
G01*
G04 APERTURE LIST*
%ADD10C,0.150000*%
%ADD11C,0.254000*%
%ADD12C,0.152000*%
%ADD13C,0.300000*%
%ADD14C,0.203000*%
G04 APERTURE END LIST*
D10*
X43523220Y-15906009D02*
X43189887Y-15906009D01*
X43047030Y-16429819D02*
X43523220Y-16429819D01*
X43523220Y-16429819D02*
X43523220Y-15429819D01*
X43523220Y-15429819D02*
X43047030Y-15429819D01*
X42618458Y-16334580D02*
X42570839Y-16382200D01*
X42570839Y-16382200D02*
X42618458Y-16429819D01*
X42618458Y-16429819D02*
X42666077Y-16382200D01*
X42666077Y-16382200D02*
X42618458Y-16334580D01*
X42618458Y-16334580D02*
X42618458Y-16429819D01*
X41380363Y-16429819D02*
X41380363Y-15429819D01*
X41380363Y-15429819D02*
X40999411Y-15429819D01*
X40999411Y-15429819D02*
X40904173Y-15477438D01*
X40904173Y-15477438D02*
X40856554Y-15525057D01*
X40856554Y-15525057D02*
X40808935Y-15620295D01*
X40808935Y-15620295D02*
X40808935Y-15763152D01*
X40808935Y-15763152D02*
X40856554Y-15858390D01*
X40856554Y-15858390D02*
X40904173Y-15906009D01*
X40904173Y-15906009D02*
X40999411Y-15953628D01*
X40999411Y-15953628D02*
X41380363Y-15953628D01*
X39808935Y-16429819D02*
X40142268Y-15953628D01*
X40380363Y-16429819D02*
X40380363Y-15429819D01*
X40380363Y-15429819D02*
X39999411Y-15429819D01*
X39999411Y-15429819D02*
X39904173Y-15477438D01*
X39904173Y-15477438D02*
X39856554Y-15525057D01*
X39856554Y-15525057D02*
X39808935Y-15620295D01*
X39808935Y-15620295D02*
X39808935Y-15763152D01*
X39808935Y-15763152D02*
X39856554Y-15858390D01*
X39856554Y-15858390D02*
X39904173Y-15906009D01*
X39904173Y-15906009D02*
X39999411Y-15953628D01*
X39999411Y-15953628D02*
X40380363Y-15953628D01*
X39380363Y-16429819D02*
X39380363Y-15429819D01*
X39047030Y-15429819D02*
X38475602Y-15429819D01*
X38761316Y-16429819D02*
X38761316Y-15429819D01*
X37570840Y-16334580D02*
X37618459Y-16382200D01*
X37618459Y-16382200D02*
X37761316Y-16429819D01*
X37761316Y-16429819D02*
X37856554Y-16429819D01*
X37856554Y-16429819D02*
X37999411Y-16382200D01*
X37999411Y-16382200D02*
X38094649Y-16286961D01*
X38094649Y-16286961D02*
X38142268Y-16191723D01*
X38142268Y-16191723D02*
X38189887Y-16001247D01*
X38189887Y-16001247D02*
X38189887Y-15858390D01*
X38189887Y-15858390D02*
X38142268Y-15667914D01*
X38142268Y-15667914D02*
X38094649Y-15572676D01*
X38094649Y-15572676D02*
X37999411Y-15477438D01*
X37999411Y-15477438D02*
X37856554Y-15429819D01*
X37856554Y-15429819D02*
X37761316Y-15429819D01*
X37761316Y-15429819D02*
X37618459Y-15477438D01*
X37618459Y-15477438D02*
X37570840Y-15525057D01*
X37142268Y-16429819D02*
X37142268Y-15429819D01*
X37142268Y-15906009D02*
X36570840Y-15906009D01*
X36570840Y-16429819D02*
X36570840Y-15429819D01*
X36142268Y-16144104D02*
X35666078Y-16144104D01*
X36237506Y-16429819D02*
X35904173Y-15429819D01*
X35904173Y-15429819D02*
X35570840Y-16429819D01*
X34666078Y-16429819D02*
X34999411Y-15953628D01*
X35237506Y-16429819D02*
X35237506Y-15429819D01*
X35237506Y-15429819D02*
X34856554Y-15429819D01*
X34856554Y-15429819D02*
X34761316Y-15477438D01*
X34761316Y-15477438D02*
X34713697Y-15525057D01*
X34713697Y-15525057D02*
X34666078Y-15620295D01*
X34666078Y-15620295D02*
X34666078Y-15763152D01*
X34666078Y-15763152D02*
X34713697Y-15858390D01*
X34713697Y-15858390D02*
X34761316Y-15906009D01*
X34761316Y-15906009D02*
X34856554Y-15953628D01*
X34856554Y-15953628D02*
X35237506Y-15953628D01*
X34237506Y-16429819D02*
X34237506Y-15429819D01*
X34237506Y-15429819D02*
X33999411Y-15429819D01*
X33999411Y-15429819D02*
X33856554Y-15477438D01*
X33856554Y-15477438D02*
X33761316Y-15572676D01*
X33761316Y-15572676D02*
X33713697Y-15667914D01*
X33713697Y-15667914D02*
X33666078Y-15858390D01*
X33666078Y-15858390D02*
X33666078Y-16001247D01*
X33666078Y-16001247D02*
X33713697Y-16191723D01*
X33713697Y-16191723D02*
X33761316Y-16286961D01*
X33761316Y-16286961D02*
X33856554Y-16382200D01*
X33856554Y-16382200D02*
X33999411Y-16429819D01*
X33999411Y-16429819D02*
X34237506Y-16429819D01*
X32475601Y-16429819D02*
X32475601Y-15429819D01*
X32475601Y-15429819D02*
X31904173Y-16429819D01*
X31904173Y-16429819D02*
X31904173Y-15429819D01*
X31427982Y-16334580D02*
X31380363Y-16382200D01*
X31380363Y-16382200D02*
X31427982Y-16429819D01*
X31427982Y-16429819D02*
X31475601Y-16382200D01*
X31475601Y-16382200D02*
X31427982Y-16334580D01*
X31427982Y-16334580D02*
X31427982Y-16429819D01*
X30189887Y-16429819D02*
X30189887Y-15429819D01*
X30189887Y-15429819D02*
X29808935Y-15429819D01*
X29808935Y-15429819D02*
X29713697Y-15477438D01*
X29713697Y-15477438D02*
X29666078Y-15525057D01*
X29666078Y-15525057D02*
X29618459Y-15620295D01*
X29618459Y-15620295D02*
X29618459Y-15763152D01*
X29618459Y-15763152D02*
X29666078Y-15858390D01*
X29666078Y-15858390D02*
X29713697Y-15906009D01*
X29713697Y-15906009D02*
X29808935Y-15953628D01*
X29808935Y-15953628D02*
X30189887Y-15953628D01*
X29237506Y-16144104D02*
X28761316Y-16144104D01*
X29332744Y-16429819D02*
X28999411Y-15429819D01*
X28999411Y-15429819D02*
X28666078Y-16429819D01*
X27761316Y-16334580D02*
X27808935Y-16382200D01*
X27808935Y-16382200D02*
X27951792Y-16429819D01*
X27951792Y-16429819D02*
X28047030Y-16429819D01*
X28047030Y-16429819D02*
X28189887Y-16382200D01*
X28189887Y-16382200D02*
X28285125Y-16286961D01*
X28285125Y-16286961D02*
X28332744Y-16191723D01*
X28332744Y-16191723D02*
X28380363Y-16001247D01*
X28380363Y-16001247D02*
X28380363Y-15858390D01*
X28380363Y-15858390D02*
X28332744Y-15667914D01*
X28332744Y-15667914D02*
X28285125Y-15572676D01*
X28285125Y-15572676D02*
X28189887Y-15477438D01*
X28189887Y-15477438D02*
X28047030Y-15429819D01*
X28047030Y-15429819D02*
X27951792Y-15429819D01*
X27951792Y-15429819D02*
X27808935Y-15477438D01*
X27808935Y-15477438D02*
X27761316Y-15525057D01*
X27332744Y-16429819D02*
X27332744Y-15429819D01*
X27332744Y-15906009D02*
X26761316Y-15906009D01*
X26761316Y-16429819D02*
X26761316Y-15429819D01*
X26285125Y-15906009D02*
X25951792Y-15906009D01*
X25808935Y-16429819D02*
X26285125Y-16429819D01*
X26285125Y-16429819D02*
X26285125Y-15429819D01*
X26285125Y-15429819D02*
X25808935Y-15429819D01*
X24808935Y-16334580D02*
X24856554Y-16382200D01*
X24856554Y-16382200D02*
X24999411Y-16429819D01*
X24999411Y-16429819D02*
X25094649Y-16429819D01*
X25094649Y-16429819D02*
X25237506Y-16382200D01*
X25237506Y-16382200D02*
X25332744Y-16286961D01*
X25332744Y-16286961D02*
X25380363Y-16191723D01*
X25380363Y-16191723D02*
X25427982Y-16001247D01*
X25427982Y-16001247D02*
X25427982Y-15858390D01*
X25427982Y-15858390D02*
X25380363Y-15667914D01*
X25380363Y-15667914D02*
X25332744Y-15572676D01*
X25332744Y-15572676D02*
X25237506Y-15477438D01*
X25237506Y-15477438D02*
X25094649Y-15429819D01*
X25094649Y-15429819D02*
X24999411Y-15429819D01*
X24999411Y-15429819D02*
X24856554Y-15477438D01*
X24856554Y-15477438D02*
X24808935Y-15525057D01*
X24380363Y-16429819D02*
X24380363Y-15429819D01*
X23808935Y-16429819D02*
X24237506Y-15858390D01*
X23808935Y-15429819D02*
X24380363Y-16001247D01*
X22570839Y-15429819D02*
X22666077Y-15620295D01*
X22189887Y-15525057D02*
X22142268Y-15477438D01*
X22142268Y-15477438D02*
X22047030Y-15429819D01*
X22047030Y-15429819D02*
X21808935Y-15429819D01*
X21808935Y-15429819D02*
X21713697Y-15477438D01*
X21713697Y-15477438D02*
X21666078Y-15525057D01*
X21666078Y-15525057D02*
X21618459Y-15620295D01*
X21618459Y-15620295D02*
X21618459Y-15715533D01*
X21618459Y-15715533D02*
X21666078Y-15858390D01*
X21666078Y-15858390D02*
X22237506Y-16429819D01*
X22237506Y-16429819D02*
X21618459Y-16429819D01*
X20761316Y-15763152D02*
X20761316Y-16429819D01*
X20999411Y-15382200D02*
X21237506Y-16096485D01*
X21237506Y-16096485D02*
X20618459Y-16096485D01*
X53103220Y-40789819D02*
X53103220Y-39789819D01*
X53103220Y-40266009D02*
X52531792Y-40266009D01*
X52531792Y-40789819D02*
X52531792Y-39789819D01*
X52055601Y-40789819D02*
X52055601Y-39789819D01*
X50817506Y-40789819D02*
X50817506Y-39789819D01*
X50817506Y-39789819D02*
X50436554Y-39789819D01*
X50436554Y-39789819D02*
X50341316Y-39837438D01*
X50341316Y-39837438D02*
X50293697Y-39885057D01*
X50293697Y-39885057D02*
X50246078Y-39980295D01*
X50246078Y-39980295D02*
X50246078Y-40123152D01*
X50246078Y-40123152D02*
X50293697Y-40218390D01*
X50293697Y-40218390D02*
X50341316Y-40266009D01*
X50341316Y-40266009D02*
X50436554Y-40313628D01*
X50436554Y-40313628D02*
X50817506Y-40313628D01*
X49865125Y-40504104D02*
X49388935Y-40504104D01*
X49960363Y-40789819D02*
X49627030Y-39789819D01*
X49627030Y-39789819D02*
X49293697Y-40789819D01*
X48388935Y-40694580D02*
X48436554Y-40742200D01*
X48436554Y-40742200D02*
X48579411Y-40789819D01*
X48579411Y-40789819D02*
X48674649Y-40789819D01*
X48674649Y-40789819D02*
X48817506Y-40742200D01*
X48817506Y-40742200D02*
X48912744Y-40646961D01*
X48912744Y-40646961D02*
X48960363Y-40551723D01*
X48960363Y-40551723D02*
X49007982Y-40361247D01*
X49007982Y-40361247D02*
X49007982Y-40218390D01*
X49007982Y-40218390D02*
X48960363Y-40027914D01*
X48960363Y-40027914D02*
X48912744Y-39932676D01*
X48912744Y-39932676D02*
X48817506Y-39837438D01*
X48817506Y-39837438D02*
X48674649Y-39789819D01*
X48674649Y-39789819D02*
X48579411Y-39789819D01*
X48579411Y-39789819D02*
X48436554Y-39837438D01*
X48436554Y-39837438D02*
X48388935Y-39885057D01*
X47960363Y-40789819D02*
X47960363Y-39789819D01*
X47960363Y-40266009D02*
X47388935Y-40266009D01*
X47388935Y-40789819D02*
X47388935Y-39789819D01*
X46912744Y-40266009D02*
X46579411Y-40266009D01*
X46436554Y-40789819D02*
X46912744Y-40789819D01*
X46912744Y-40789819D02*
X46912744Y-39789819D01*
X46912744Y-39789819D02*
X46436554Y-39789819D01*
X46150839Y-39789819D02*
X45579411Y-39789819D01*
X45865125Y-40789819D02*
X45865125Y-39789819D01*
X45246077Y-40694580D02*
X45198458Y-40742200D01*
X45198458Y-40742200D02*
X45246077Y-40789819D01*
X45246077Y-40789819D02*
X45293696Y-40742200D01*
X45293696Y-40742200D02*
X45246077Y-40694580D01*
X45246077Y-40694580D02*
X45246077Y-40789819D01*
X45246077Y-40408866D02*
X45293696Y-39837438D01*
X45293696Y-39837438D02*
X45246077Y-39789819D01*
X45246077Y-39789819D02*
X45198458Y-39837438D01*
X45198458Y-39837438D02*
X45246077Y-40408866D01*
X45246077Y-40408866D02*
X45246077Y-39789819D01*
X44769887Y-40694580D02*
X44722268Y-40742200D01*
X44722268Y-40742200D02*
X44769887Y-40789819D01*
X44769887Y-40789819D02*
X44817506Y-40742200D01*
X44817506Y-40742200D02*
X44769887Y-40694580D01*
X44769887Y-40694580D02*
X44769887Y-40789819D01*
X44769887Y-40408866D02*
X44817506Y-39837438D01*
X44817506Y-39837438D02*
X44769887Y-39789819D01*
X44769887Y-39789819D02*
X44722268Y-39837438D01*
X44722268Y-39837438D02*
X44769887Y-40408866D01*
X44769887Y-40408866D02*
X44769887Y-39789819D01*
X44293697Y-40694580D02*
X44246078Y-40742200D01*
X44246078Y-40742200D02*
X44293697Y-40789819D01*
X44293697Y-40789819D02*
X44341316Y-40742200D01*
X44341316Y-40742200D02*
X44293697Y-40694580D01*
X44293697Y-40694580D02*
X44293697Y-40789819D01*
X44293697Y-40408866D02*
X44341316Y-39837438D01*
X44341316Y-39837438D02*
X44293697Y-39789819D01*
X44293697Y-39789819D02*
X44246078Y-39837438D01*
X44246078Y-39837438D02*
X44293697Y-40408866D01*
X44293697Y-40408866D02*
X44293697Y-39789819D01*
X43198459Y-39789819D02*
X42627031Y-39789819D01*
X42912745Y-40789819D02*
X42912745Y-39789819D01*
X42293697Y-40789819D02*
X42293697Y-39789819D01*
X42293697Y-40266009D02*
X41722269Y-40266009D01*
X41722269Y-40789819D02*
X41722269Y-39789819D01*
X41246078Y-40789819D02*
X41246078Y-39789819D01*
X40817507Y-40742200D02*
X40674650Y-40789819D01*
X40674650Y-40789819D02*
X40436555Y-40789819D01*
X40436555Y-40789819D02*
X40341317Y-40742200D01*
X40341317Y-40742200D02*
X40293698Y-40694580D01*
X40293698Y-40694580D02*
X40246079Y-40599342D01*
X40246079Y-40599342D02*
X40246079Y-40504104D01*
X40246079Y-40504104D02*
X40293698Y-40408866D01*
X40293698Y-40408866D02*
X40341317Y-40361247D01*
X40341317Y-40361247D02*
X40436555Y-40313628D01*
X40436555Y-40313628D02*
X40627031Y-40266009D01*
X40627031Y-40266009D02*
X40722269Y-40218390D01*
X40722269Y-40218390D02*
X40769888Y-40170771D01*
X40769888Y-40170771D02*
X40817507Y-40075533D01*
X40817507Y-40075533D02*
X40817507Y-39980295D01*
X40817507Y-39980295D02*
X40769888Y-39885057D01*
X40769888Y-39885057D02*
X40722269Y-39837438D01*
X40722269Y-39837438D02*
X40627031Y-39789819D01*
X40627031Y-39789819D02*
X40388936Y-39789819D01*
X40388936Y-39789819D02*
X40246079Y-39837438D01*
X39055602Y-40789819D02*
X39055602Y-39789819D01*
X38627031Y-40742200D02*
X38484174Y-40789819D01*
X38484174Y-40789819D02*
X38246079Y-40789819D01*
X38246079Y-40789819D02*
X38150841Y-40742200D01*
X38150841Y-40742200D02*
X38103222Y-40694580D01*
X38103222Y-40694580D02*
X38055603Y-40599342D01*
X38055603Y-40599342D02*
X38055603Y-40504104D01*
X38055603Y-40504104D02*
X38103222Y-40408866D01*
X38103222Y-40408866D02*
X38150841Y-40361247D01*
X38150841Y-40361247D02*
X38246079Y-40313628D01*
X38246079Y-40313628D02*
X38436555Y-40266009D01*
X38436555Y-40266009D02*
X38531793Y-40218390D01*
X38531793Y-40218390D02*
X38579412Y-40170771D01*
X38579412Y-40170771D02*
X38627031Y-40075533D01*
X38627031Y-40075533D02*
X38627031Y-39980295D01*
X38627031Y-39980295D02*
X38579412Y-39885057D01*
X38579412Y-39885057D02*
X38531793Y-39837438D01*
X38531793Y-39837438D02*
X38436555Y-39789819D01*
X38436555Y-39789819D02*
X38198460Y-39789819D01*
X38198460Y-39789819D02*
X38055603Y-39837438D01*
X36912745Y-40504104D02*
X36436555Y-40504104D01*
X37007983Y-40789819D02*
X36674650Y-39789819D01*
X36674650Y-39789819D02*
X36341317Y-40789819D01*
X34674650Y-40694580D02*
X34722269Y-40742200D01*
X34722269Y-40742200D02*
X34865126Y-40789819D01*
X34865126Y-40789819D02*
X34960364Y-40789819D01*
X34960364Y-40789819D02*
X35103221Y-40742200D01*
X35103221Y-40742200D02*
X35198459Y-40646961D01*
X35198459Y-40646961D02*
X35246078Y-40551723D01*
X35246078Y-40551723D02*
X35293697Y-40361247D01*
X35293697Y-40361247D02*
X35293697Y-40218390D01*
X35293697Y-40218390D02*
X35246078Y-40027914D01*
X35246078Y-40027914D02*
X35198459Y-39932676D01*
X35198459Y-39932676D02*
X35103221Y-39837438D01*
X35103221Y-39837438D02*
X34960364Y-39789819D01*
X34960364Y-39789819D02*
X34865126Y-39789819D01*
X34865126Y-39789819D02*
X34722269Y-39837438D01*
X34722269Y-39837438D02*
X34674650Y-39885057D01*
X34055602Y-39789819D02*
X33865126Y-39789819D01*
X33865126Y-39789819D02*
X33769888Y-39837438D01*
X33769888Y-39837438D02*
X33674650Y-39932676D01*
X33674650Y-39932676D02*
X33627031Y-40123152D01*
X33627031Y-40123152D02*
X33627031Y-40456485D01*
X33627031Y-40456485D02*
X33674650Y-40646961D01*
X33674650Y-40646961D02*
X33769888Y-40742200D01*
X33769888Y-40742200D02*
X33865126Y-40789819D01*
X33865126Y-40789819D02*
X34055602Y-40789819D01*
X34055602Y-40789819D02*
X34150840Y-40742200D01*
X34150840Y-40742200D02*
X34246078Y-40646961D01*
X34246078Y-40646961D02*
X34293697Y-40456485D01*
X34293697Y-40456485D02*
X34293697Y-40123152D01*
X34293697Y-40123152D02*
X34246078Y-39932676D01*
X34246078Y-39932676D02*
X34150840Y-39837438D01*
X34150840Y-39837438D02*
X34055602Y-39789819D01*
X33007983Y-39789819D02*
X32817507Y-39789819D01*
X32817507Y-39789819D02*
X32722269Y-39837438D01*
X32722269Y-39837438D02*
X32627031Y-39932676D01*
X32627031Y-39932676D02*
X32579412Y-40123152D01*
X32579412Y-40123152D02*
X32579412Y-40456485D01*
X32579412Y-40456485D02*
X32627031Y-40646961D01*
X32627031Y-40646961D02*
X32722269Y-40742200D01*
X32722269Y-40742200D02*
X32817507Y-40789819D01*
X32817507Y-40789819D02*
X33007983Y-40789819D01*
X33007983Y-40789819D02*
X33103221Y-40742200D01*
X33103221Y-40742200D02*
X33198459Y-40646961D01*
X33198459Y-40646961D02*
X33246078Y-40456485D01*
X33246078Y-40456485D02*
X33246078Y-40123152D01*
X33246078Y-40123152D02*
X33198459Y-39932676D01*
X33198459Y-39932676D02*
X33103221Y-39837438D01*
X33103221Y-39837438D02*
X33007983Y-39789819D01*
X31674650Y-40789819D02*
X32150840Y-40789819D01*
X32150840Y-40789819D02*
X32150840Y-39789819D01*
X30579411Y-40789819D02*
X30579411Y-39789819D01*
X30579411Y-39789819D02*
X30198459Y-39789819D01*
X30198459Y-39789819D02*
X30103221Y-39837438D01*
X30103221Y-39837438D02*
X30055602Y-39885057D01*
X30055602Y-39885057D02*
X30007983Y-39980295D01*
X30007983Y-39980295D02*
X30007983Y-40123152D01*
X30007983Y-40123152D02*
X30055602Y-40218390D01*
X30055602Y-40218390D02*
X30103221Y-40266009D01*
X30103221Y-40266009D02*
X30198459Y-40313628D01*
X30198459Y-40313628D02*
X30579411Y-40313628D01*
X29007983Y-40694580D02*
X29055602Y-40742200D01*
X29055602Y-40742200D02*
X29198459Y-40789819D01*
X29198459Y-40789819D02*
X29293697Y-40789819D01*
X29293697Y-40789819D02*
X29436554Y-40742200D01*
X29436554Y-40742200D02*
X29531792Y-40646961D01*
X29531792Y-40646961D02*
X29579411Y-40551723D01*
X29579411Y-40551723D02*
X29627030Y-40361247D01*
X29627030Y-40361247D02*
X29627030Y-40218390D01*
X29627030Y-40218390D02*
X29579411Y-40027914D01*
X29579411Y-40027914D02*
X29531792Y-39932676D01*
X29531792Y-39932676D02*
X29436554Y-39837438D01*
X29436554Y-39837438D02*
X29293697Y-39789819D01*
X29293697Y-39789819D02*
X29198459Y-39789819D01*
X29198459Y-39789819D02*
X29055602Y-39837438D01*
X29055602Y-39837438D02*
X29007983Y-39885057D01*
X28246078Y-40266009D02*
X28103221Y-40313628D01*
X28103221Y-40313628D02*
X28055602Y-40361247D01*
X28055602Y-40361247D02*
X28007983Y-40456485D01*
X28007983Y-40456485D02*
X28007983Y-40599342D01*
X28007983Y-40599342D02*
X28055602Y-40694580D01*
X28055602Y-40694580D02*
X28103221Y-40742200D01*
X28103221Y-40742200D02*
X28198459Y-40789819D01*
X28198459Y-40789819D02*
X28579411Y-40789819D01*
X28579411Y-40789819D02*
X28579411Y-39789819D01*
X28579411Y-39789819D02*
X28246078Y-39789819D01*
X28246078Y-39789819D02*
X28150840Y-39837438D01*
X28150840Y-39837438D02*
X28103221Y-39885057D01*
X28103221Y-39885057D02*
X28055602Y-39980295D01*
X28055602Y-39980295D02*
X28055602Y-40075533D01*
X28055602Y-40075533D02*
X28103221Y-40170771D01*
X28103221Y-40170771D02*
X28150840Y-40218390D01*
X28150840Y-40218390D02*
X28246078Y-40266009D01*
X28246078Y-40266009D02*
X28579411Y-40266009D01*
X27579411Y-40694580D02*
X27531792Y-40742200D01*
X27531792Y-40742200D02*
X27579411Y-40789819D01*
X27579411Y-40789819D02*
X27627030Y-40742200D01*
X27627030Y-40742200D02*
X27579411Y-40694580D01*
X27579411Y-40694580D02*
X27579411Y-40789819D01*
X27579411Y-40408866D02*
X27627030Y-39837438D01*
X27627030Y-39837438D02*
X27579411Y-39789819D01*
X27579411Y-39789819D02*
X27531792Y-39837438D01*
X27531792Y-39837438D02*
X27579411Y-40408866D01*
X27579411Y-40408866D02*
X27579411Y-39789819D01*
X27103221Y-40694580D02*
X27055602Y-40742200D01*
X27055602Y-40742200D02*
X27103221Y-40789819D01*
X27103221Y-40789819D02*
X27150840Y-40742200D01*
X27150840Y-40742200D02*
X27103221Y-40694580D01*
X27103221Y-40694580D02*
X27103221Y-40789819D01*
X27103221Y-40408866D02*
X27150840Y-39837438D01*
X27150840Y-39837438D02*
X27103221Y-39789819D01*
X27103221Y-39789819D02*
X27055602Y-39837438D01*
X27055602Y-39837438D02*
X27103221Y-40408866D01*
X27103221Y-40408866D02*
X27103221Y-39789819D01*
X25674650Y-40313628D02*
X25674650Y-40789819D01*
X26007983Y-39789819D02*
X25674650Y-40313628D01*
X25674650Y-40313628D02*
X25341317Y-39789819D01*
X25055602Y-40504104D02*
X24579412Y-40504104D01*
X25150840Y-40789819D02*
X24817507Y-39789819D01*
X24817507Y-39789819D02*
X24484174Y-40789819D01*
X24198459Y-40504104D02*
X23722269Y-40504104D01*
X24293697Y-40789819D02*
X23960364Y-39789819D01*
X23960364Y-39789819D02*
X23627031Y-40789819D01*
X23341316Y-40504104D02*
X22865126Y-40504104D01*
X23436554Y-40789819D02*
X23103221Y-39789819D01*
X23103221Y-39789819D02*
X22769888Y-40789819D01*
X22246078Y-40313628D02*
X22246078Y-40789819D01*
X22579411Y-39789819D02*
X22246078Y-40313628D01*
X22246078Y-40313628D02*
X21912745Y-39789819D01*
X20484173Y-40266009D02*
X20817506Y-40266009D01*
X20817506Y-40789819D02*
X20817506Y-39789819D01*
X20817506Y-39789819D02*
X20341316Y-39789819D01*
X19960363Y-40789819D02*
X19960363Y-39789819D01*
X18912745Y-40789819D02*
X19246078Y-40313628D01*
X19484173Y-40789819D02*
X19484173Y-39789819D01*
X19484173Y-39789819D02*
X19103221Y-39789819D01*
X19103221Y-39789819D02*
X19007983Y-39837438D01*
X19007983Y-39837438D02*
X18960364Y-39885057D01*
X18960364Y-39885057D02*
X18912745Y-39980295D01*
X18912745Y-39980295D02*
X18912745Y-40123152D01*
X18912745Y-40123152D02*
X18960364Y-40218390D01*
X18960364Y-40218390D02*
X19007983Y-40266009D01*
X19007983Y-40266009D02*
X19103221Y-40313628D01*
X19103221Y-40313628D02*
X19484173Y-40313628D01*
X18531792Y-40742200D02*
X18388935Y-40789819D01*
X18388935Y-40789819D02*
X18150840Y-40789819D01*
X18150840Y-40789819D02*
X18055602Y-40742200D01*
X18055602Y-40742200D02*
X18007983Y-40694580D01*
X18007983Y-40694580D02*
X17960364Y-40599342D01*
X17960364Y-40599342D02*
X17960364Y-40504104D01*
X17960364Y-40504104D02*
X18007983Y-40408866D01*
X18007983Y-40408866D02*
X18055602Y-40361247D01*
X18055602Y-40361247D02*
X18150840Y-40313628D01*
X18150840Y-40313628D02*
X18341316Y-40266009D01*
X18341316Y-40266009D02*
X18436554Y-40218390D01*
X18436554Y-40218390D02*
X18484173Y-40170771D01*
X18484173Y-40170771D02*
X18531792Y-40075533D01*
X18531792Y-40075533D02*
X18531792Y-39980295D01*
X18531792Y-39980295D02*
X18484173Y-39885057D01*
X18484173Y-39885057D02*
X18436554Y-39837438D01*
X18436554Y-39837438D02*
X18341316Y-39789819D01*
X18341316Y-39789819D02*
X18103221Y-39789819D01*
X18103221Y-39789819D02*
X17960364Y-39837438D01*
X17674649Y-39789819D02*
X17103221Y-39789819D01*
X17388935Y-40789819D02*
X17388935Y-39789819D01*
X16007982Y-40789819D02*
X16007982Y-39789819D01*
X16007982Y-39789819D02*
X15627030Y-39789819D01*
X15627030Y-39789819D02*
X15531792Y-39837438D01*
X15531792Y-39837438D02*
X15484173Y-39885057D01*
X15484173Y-39885057D02*
X15436554Y-39980295D01*
X15436554Y-39980295D02*
X15436554Y-40123152D01*
X15436554Y-40123152D02*
X15484173Y-40218390D01*
X15484173Y-40218390D02*
X15531792Y-40266009D01*
X15531792Y-40266009D02*
X15627030Y-40313628D01*
X15627030Y-40313628D02*
X16007982Y-40313628D01*
X14436554Y-40694580D02*
X14484173Y-40742200D01*
X14484173Y-40742200D02*
X14627030Y-40789819D01*
X14627030Y-40789819D02*
X14722268Y-40789819D01*
X14722268Y-40789819D02*
X14865125Y-40742200D01*
X14865125Y-40742200D02*
X14960363Y-40646961D01*
X14960363Y-40646961D02*
X15007982Y-40551723D01*
X15007982Y-40551723D02*
X15055601Y-40361247D01*
X15055601Y-40361247D02*
X15055601Y-40218390D01*
X15055601Y-40218390D02*
X15007982Y-40027914D01*
X15007982Y-40027914D02*
X14960363Y-39932676D01*
X14960363Y-39932676D02*
X14865125Y-39837438D01*
X14865125Y-39837438D02*
X14722268Y-39789819D01*
X14722268Y-39789819D02*
X14627030Y-39789819D01*
X14627030Y-39789819D02*
X14484173Y-39837438D01*
X14484173Y-39837438D02*
X14436554Y-39885057D01*
X13674649Y-40266009D02*
X13531792Y-40313628D01*
X13531792Y-40313628D02*
X13484173Y-40361247D01*
X13484173Y-40361247D02*
X13436554Y-40456485D01*
X13436554Y-40456485D02*
X13436554Y-40599342D01*
X13436554Y-40599342D02*
X13484173Y-40694580D01*
X13484173Y-40694580D02*
X13531792Y-40742200D01*
X13531792Y-40742200D02*
X13627030Y-40789819D01*
X13627030Y-40789819D02*
X14007982Y-40789819D01*
X14007982Y-40789819D02*
X14007982Y-39789819D01*
X14007982Y-39789819D02*
X13674649Y-39789819D01*
X13674649Y-39789819D02*
X13579411Y-39837438D01*
X13579411Y-39837438D02*
X13531792Y-39885057D01*
X13531792Y-39885057D02*
X13484173Y-39980295D01*
X13484173Y-39980295D02*
X13484173Y-40075533D01*
X13484173Y-40075533D02*
X13531792Y-40170771D01*
X13531792Y-40170771D02*
X13579411Y-40218390D01*
X13579411Y-40218390D02*
X13674649Y-40266009D01*
X13674649Y-40266009D02*
X14007982Y-40266009D01*
X13007982Y-40694580D02*
X12960363Y-40742200D01*
X12960363Y-40742200D02*
X13007982Y-40789819D01*
X13007982Y-40789819D02*
X13055601Y-40742200D01*
X13055601Y-40742200D02*
X13007982Y-40694580D01*
X13007982Y-40694580D02*
X13007982Y-40789819D01*
X13007982Y-40408866D02*
X13055601Y-39837438D01*
X13055601Y-39837438D02*
X13007982Y-39789819D01*
X13007982Y-39789819D02*
X12960363Y-39837438D01*
X12960363Y-39837438D02*
X13007982Y-40408866D01*
X13007982Y-40408866D02*
X13007982Y-39789819D01*
X12531792Y-40694580D02*
X12484173Y-40742200D01*
X12484173Y-40742200D02*
X12531792Y-40789819D01*
X12531792Y-40789819D02*
X12579411Y-40742200D01*
X12579411Y-40742200D02*
X12531792Y-40694580D01*
X12531792Y-40694580D02*
X12531792Y-40789819D01*
X12531792Y-40408866D02*
X12579411Y-39837438D01*
X12579411Y-39837438D02*
X12531792Y-39789819D01*
X12531792Y-39789819D02*
X12484173Y-39837438D01*
X12484173Y-39837438D02*
X12531792Y-40408866D01*
X12531792Y-40408866D02*
X12531792Y-39789819D01*
X53003220Y-38858819D02*
X53003220Y-37858819D01*
X53003220Y-38335009D02*
X52431792Y-38335009D01*
X52431792Y-38858819D02*
X52431792Y-37858819D01*
X51955601Y-38858819D02*
X51955601Y-37858819D01*
X50717506Y-38858819D02*
X50717506Y-37858819D01*
X50717506Y-37858819D02*
X50336554Y-37858819D01*
X50336554Y-37858819D02*
X50241316Y-37906438D01*
X50241316Y-37906438D02*
X50193697Y-37954057D01*
X50193697Y-37954057D02*
X50146078Y-38049295D01*
X50146078Y-38049295D02*
X50146078Y-38192152D01*
X50146078Y-38192152D02*
X50193697Y-38287390D01*
X50193697Y-38287390D02*
X50241316Y-38335009D01*
X50241316Y-38335009D02*
X50336554Y-38382628D01*
X50336554Y-38382628D02*
X50717506Y-38382628D01*
X49765125Y-38573104D02*
X49288935Y-38573104D01*
X49860363Y-38858819D02*
X49527030Y-37858819D01*
X49527030Y-37858819D02*
X49193697Y-38858819D01*
X48288935Y-38763580D02*
X48336554Y-38811200D01*
X48336554Y-38811200D02*
X48479411Y-38858819D01*
X48479411Y-38858819D02*
X48574649Y-38858819D01*
X48574649Y-38858819D02*
X48717506Y-38811200D01*
X48717506Y-38811200D02*
X48812744Y-38715961D01*
X48812744Y-38715961D02*
X48860363Y-38620723D01*
X48860363Y-38620723D02*
X48907982Y-38430247D01*
X48907982Y-38430247D02*
X48907982Y-38287390D01*
X48907982Y-38287390D02*
X48860363Y-38096914D01*
X48860363Y-38096914D02*
X48812744Y-38001676D01*
X48812744Y-38001676D02*
X48717506Y-37906438D01*
X48717506Y-37906438D02*
X48574649Y-37858819D01*
X48574649Y-37858819D02*
X48479411Y-37858819D01*
X48479411Y-37858819D02*
X48336554Y-37906438D01*
X48336554Y-37906438D02*
X48288935Y-37954057D01*
X47860363Y-38858819D02*
X47860363Y-37858819D01*
X47860363Y-38335009D02*
X47288935Y-38335009D01*
X47288935Y-38858819D02*
X47288935Y-37858819D01*
X46812744Y-38335009D02*
X46479411Y-38335009D01*
X46336554Y-38858819D02*
X46812744Y-38858819D01*
X46812744Y-38858819D02*
X46812744Y-37858819D01*
X46812744Y-37858819D02*
X46336554Y-37858819D01*
X46050839Y-37858819D02*
X45479411Y-37858819D01*
X45765125Y-38858819D02*
X45765125Y-37858819D01*
X45146077Y-38763580D02*
X45098458Y-38811200D01*
X45098458Y-38811200D02*
X45146077Y-38858819D01*
X45146077Y-38858819D02*
X45193696Y-38811200D01*
X45193696Y-38811200D02*
X45146077Y-38763580D01*
X45146077Y-38763580D02*
X45146077Y-38858819D01*
X45146077Y-38477866D02*
X45193696Y-37906438D01*
X45193696Y-37906438D02*
X45146077Y-37858819D01*
X45146077Y-37858819D02*
X45098458Y-37906438D01*
X45098458Y-37906438D02*
X45146077Y-38477866D01*
X45146077Y-38477866D02*
X45146077Y-37858819D01*
X44669887Y-38763580D02*
X44622268Y-38811200D01*
X44622268Y-38811200D02*
X44669887Y-38858819D01*
X44669887Y-38858819D02*
X44717506Y-38811200D01*
X44717506Y-38811200D02*
X44669887Y-38763580D01*
X44669887Y-38763580D02*
X44669887Y-38858819D01*
X44669887Y-38477866D02*
X44717506Y-37906438D01*
X44717506Y-37906438D02*
X44669887Y-37858819D01*
X44669887Y-37858819D02*
X44622268Y-37906438D01*
X44622268Y-37906438D02*
X44669887Y-38477866D01*
X44669887Y-38477866D02*
X44669887Y-37858819D01*
X44193697Y-38763580D02*
X44146078Y-38811200D01*
X44146078Y-38811200D02*
X44193697Y-38858819D01*
X44193697Y-38858819D02*
X44241316Y-38811200D01*
X44241316Y-38811200D02*
X44193697Y-38763580D01*
X44193697Y-38763580D02*
X44193697Y-38858819D01*
X44193697Y-38477866D02*
X44241316Y-37906438D01*
X44241316Y-37906438D02*
X44193697Y-37858819D01*
X44193697Y-37858819D02*
X44146078Y-37906438D01*
X44146078Y-37906438D02*
X44193697Y-38477866D01*
X44193697Y-38477866D02*
X44193697Y-37858819D01*
X43098459Y-37858819D02*
X42527031Y-37858819D01*
X42812745Y-38858819D02*
X42812745Y-37858819D01*
X42193697Y-38858819D02*
X42193697Y-37858819D01*
X42193697Y-38335009D02*
X41622269Y-38335009D01*
X41622269Y-38858819D02*
X41622269Y-37858819D01*
X41146078Y-38858819D02*
X41146078Y-37858819D01*
X40717507Y-38811200D02*
X40574650Y-38858819D01*
X40574650Y-38858819D02*
X40336555Y-38858819D01*
X40336555Y-38858819D02*
X40241317Y-38811200D01*
X40241317Y-38811200D02*
X40193698Y-38763580D01*
X40193698Y-38763580D02*
X40146079Y-38668342D01*
X40146079Y-38668342D02*
X40146079Y-38573104D01*
X40146079Y-38573104D02*
X40193698Y-38477866D01*
X40193698Y-38477866D02*
X40241317Y-38430247D01*
X40241317Y-38430247D02*
X40336555Y-38382628D01*
X40336555Y-38382628D02*
X40527031Y-38335009D01*
X40527031Y-38335009D02*
X40622269Y-38287390D01*
X40622269Y-38287390D02*
X40669888Y-38239771D01*
X40669888Y-38239771D02*
X40717507Y-38144533D01*
X40717507Y-38144533D02*
X40717507Y-38049295D01*
X40717507Y-38049295D02*
X40669888Y-37954057D01*
X40669888Y-37954057D02*
X40622269Y-37906438D01*
X40622269Y-37906438D02*
X40527031Y-37858819D01*
X40527031Y-37858819D02*
X40288936Y-37858819D01*
X40288936Y-37858819D02*
X40146079Y-37906438D01*
X38955602Y-38858819D02*
X38955602Y-37858819D01*
X38527031Y-38811200D02*
X38384174Y-38858819D01*
X38384174Y-38858819D02*
X38146079Y-38858819D01*
X38146079Y-38858819D02*
X38050841Y-38811200D01*
X38050841Y-38811200D02*
X38003222Y-38763580D01*
X38003222Y-38763580D02*
X37955603Y-38668342D01*
X37955603Y-38668342D02*
X37955603Y-38573104D01*
X37955603Y-38573104D02*
X38003222Y-38477866D01*
X38003222Y-38477866D02*
X38050841Y-38430247D01*
X38050841Y-38430247D02*
X38146079Y-38382628D01*
X38146079Y-38382628D02*
X38336555Y-38335009D01*
X38336555Y-38335009D02*
X38431793Y-38287390D01*
X38431793Y-38287390D02*
X38479412Y-38239771D01*
X38479412Y-38239771D02*
X38527031Y-38144533D01*
X38527031Y-38144533D02*
X38527031Y-38049295D01*
X38527031Y-38049295D02*
X38479412Y-37954057D01*
X38479412Y-37954057D02*
X38431793Y-37906438D01*
X38431793Y-37906438D02*
X38336555Y-37858819D01*
X38336555Y-37858819D02*
X38098460Y-37858819D01*
X38098460Y-37858819D02*
X37955603Y-37906438D01*
X36812745Y-38573104D02*
X36336555Y-38573104D01*
X36907983Y-38858819D02*
X36574650Y-37858819D01*
X36574650Y-37858819D02*
X36241317Y-38858819D01*
X34574650Y-38763580D02*
X34622269Y-38811200D01*
X34622269Y-38811200D02*
X34765126Y-38858819D01*
X34765126Y-38858819D02*
X34860364Y-38858819D01*
X34860364Y-38858819D02*
X35003221Y-38811200D01*
X35003221Y-38811200D02*
X35098459Y-38715961D01*
X35098459Y-38715961D02*
X35146078Y-38620723D01*
X35146078Y-38620723D02*
X35193697Y-38430247D01*
X35193697Y-38430247D02*
X35193697Y-38287390D01*
X35193697Y-38287390D02*
X35146078Y-38096914D01*
X35146078Y-38096914D02*
X35098459Y-38001676D01*
X35098459Y-38001676D02*
X35003221Y-37906438D01*
X35003221Y-37906438D02*
X34860364Y-37858819D01*
X34860364Y-37858819D02*
X34765126Y-37858819D01*
X34765126Y-37858819D02*
X34622269Y-37906438D01*
X34622269Y-37906438D02*
X34574650Y-37954057D01*
X33955602Y-37858819D02*
X33765126Y-37858819D01*
X33765126Y-37858819D02*
X33669888Y-37906438D01*
X33669888Y-37906438D02*
X33574650Y-38001676D01*
X33574650Y-38001676D02*
X33527031Y-38192152D01*
X33527031Y-38192152D02*
X33527031Y-38525485D01*
X33527031Y-38525485D02*
X33574650Y-38715961D01*
X33574650Y-38715961D02*
X33669888Y-38811200D01*
X33669888Y-38811200D02*
X33765126Y-38858819D01*
X33765126Y-38858819D02*
X33955602Y-38858819D01*
X33955602Y-38858819D02*
X34050840Y-38811200D01*
X34050840Y-38811200D02*
X34146078Y-38715961D01*
X34146078Y-38715961D02*
X34193697Y-38525485D01*
X34193697Y-38525485D02*
X34193697Y-38192152D01*
X34193697Y-38192152D02*
X34146078Y-38001676D01*
X34146078Y-38001676D02*
X34050840Y-37906438D01*
X34050840Y-37906438D02*
X33955602Y-37858819D01*
X32907983Y-37858819D02*
X32717507Y-37858819D01*
X32717507Y-37858819D02*
X32622269Y-37906438D01*
X32622269Y-37906438D02*
X32527031Y-38001676D01*
X32527031Y-38001676D02*
X32479412Y-38192152D01*
X32479412Y-38192152D02*
X32479412Y-38525485D01*
X32479412Y-38525485D02*
X32527031Y-38715961D01*
X32527031Y-38715961D02*
X32622269Y-38811200D01*
X32622269Y-38811200D02*
X32717507Y-38858819D01*
X32717507Y-38858819D02*
X32907983Y-38858819D01*
X32907983Y-38858819D02*
X33003221Y-38811200D01*
X33003221Y-38811200D02*
X33098459Y-38715961D01*
X33098459Y-38715961D02*
X33146078Y-38525485D01*
X33146078Y-38525485D02*
X33146078Y-38192152D01*
X33146078Y-38192152D02*
X33098459Y-38001676D01*
X33098459Y-38001676D02*
X33003221Y-37906438D01*
X33003221Y-37906438D02*
X32907983Y-37858819D01*
X31574650Y-38858819D02*
X32050840Y-38858819D01*
X32050840Y-38858819D02*
X32050840Y-37858819D01*
X30479411Y-38858819D02*
X30479411Y-37858819D01*
X30479411Y-37858819D02*
X30098459Y-37858819D01*
X30098459Y-37858819D02*
X30003221Y-37906438D01*
X30003221Y-37906438D02*
X29955602Y-37954057D01*
X29955602Y-37954057D02*
X29907983Y-38049295D01*
X29907983Y-38049295D02*
X29907983Y-38192152D01*
X29907983Y-38192152D02*
X29955602Y-38287390D01*
X29955602Y-38287390D02*
X30003221Y-38335009D01*
X30003221Y-38335009D02*
X30098459Y-38382628D01*
X30098459Y-38382628D02*
X30479411Y-38382628D01*
X28907983Y-38763580D02*
X28955602Y-38811200D01*
X28955602Y-38811200D02*
X29098459Y-38858819D01*
X29098459Y-38858819D02*
X29193697Y-38858819D01*
X29193697Y-38858819D02*
X29336554Y-38811200D01*
X29336554Y-38811200D02*
X29431792Y-38715961D01*
X29431792Y-38715961D02*
X29479411Y-38620723D01*
X29479411Y-38620723D02*
X29527030Y-38430247D01*
X29527030Y-38430247D02*
X29527030Y-38287390D01*
X29527030Y-38287390D02*
X29479411Y-38096914D01*
X29479411Y-38096914D02*
X29431792Y-38001676D01*
X29431792Y-38001676D02*
X29336554Y-37906438D01*
X29336554Y-37906438D02*
X29193697Y-37858819D01*
X29193697Y-37858819D02*
X29098459Y-37858819D01*
X29098459Y-37858819D02*
X28955602Y-37906438D01*
X28955602Y-37906438D02*
X28907983Y-37954057D01*
X28146078Y-38335009D02*
X28003221Y-38382628D01*
X28003221Y-38382628D02*
X27955602Y-38430247D01*
X27955602Y-38430247D02*
X27907983Y-38525485D01*
X27907983Y-38525485D02*
X27907983Y-38668342D01*
X27907983Y-38668342D02*
X27955602Y-38763580D01*
X27955602Y-38763580D02*
X28003221Y-38811200D01*
X28003221Y-38811200D02*
X28098459Y-38858819D01*
X28098459Y-38858819D02*
X28479411Y-38858819D01*
X28479411Y-38858819D02*
X28479411Y-37858819D01*
X28479411Y-37858819D02*
X28146078Y-37858819D01*
X28146078Y-37858819D02*
X28050840Y-37906438D01*
X28050840Y-37906438D02*
X28003221Y-37954057D01*
X28003221Y-37954057D02*
X27955602Y-38049295D01*
X27955602Y-38049295D02*
X27955602Y-38144533D01*
X27955602Y-38144533D02*
X28003221Y-38239771D01*
X28003221Y-38239771D02*
X28050840Y-38287390D01*
X28050840Y-38287390D02*
X28146078Y-38335009D01*
X28146078Y-38335009D02*
X28479411Y-38335009D01*
X27479411Y-38763580D02*
X27431792Y-38811200D01*
X27431792Y-38811200D02*
X27479411Y-38858819D01*
X27479411Y-38858819D02*
X27527030Y-38811200D01*
X27527030Y-38811200D02*
X27479411Y-38763580D01*
X27479411Y-38763580D02*
X27479411Y-38858819D01*
X27479411Y-38477866D02*
X27527030Y-37906438D01*
X27527030Y-37906438D02*
X27479411Y-37858819D01*
X27479411Y-37858819D02*
X27431792Y-37906438D01*
X27431792Y-37906438D02*
X27479411Y-38477866D01*
X27479411Y-38477866D02*
X27479411Y-37858819D01*
X27003221Y-38763580D02*
X26955602Y-38811200D01*
X26955602Y-38811200D02*
X27003221Y-38858819D01*
X27003221Y-38858819D02*
X27050840Y-38811200D01*
X27050840Y-38811200D02*
X27003221Y-38763580D01*
X27003221Y-38763580D02*
X27003221Y-38858819D01*
X27003221Y-38477866D02*
X27050840Y-37906438D01*
X27050840Y-37906438D02*
X27003221Y-37858819D01*
X27003221Y-37858819D02*
X26955602Y-37906438D01*
X26955602Y-37906438D02*
X27003221Y-38477866D01*
X27003221Y-38477866D02*
X27003221Y-37858819D01*
X25574650Y-38382628D02*
X25574650Y-38858819D01*
X25907983Y-37858819D02*
X25574650Y-38382628D01*
X25574650Y-38382628D02*
X25241317Y-37858819D01*
X24955602Y-38573104D02*
X24479412Y-38573104D01*
X25050840Y-38858819D02*
X24717507Y-37858819D01*
X24717507Y-37858819D02*
X24384174Y-38858819D01*
X24098459Y-38573104D02*
X23622269Y-38573104D01*
X24193697Y-38858819D02*
X23860364Y-37858819D01*
X23860364Y-37858819D02*
X23527031Y-38858819D01*
X23241316Y-38573104D02*
X22765126Y-38573104D01*
X23336554Y-38858819D02*
X23003221Y-37858819D01*
X23003221Y-37858819D02*
X22669888Y-38858819D01*
X22146078Y-38382628D02*
X22146078Y-38858819D01*
X22479411Y-37858819D02*
X22146078Y-38382628D01*
X22146078Y-38382628D02*
X21812745Y-37858819D01*
X20384173Y-38335009D02*
X20717506Y-38335009D01*
X20717506Y-38858819D02*
X20717506Y-37858819D01*
X20717506Y-37858819D02*
X20241316Y-37858819D01*
X19860363Y-38858819D02*
X19860363Y-37858819D01*
X18812745Y-38858819D02*
X19146078Y-38382628D01*
X19384173Y-38858819D02*
X19384173Y-37858819D01*
X19384173Y-37858819D02*
X19003221Y-37858819D01*
X19003221Y-37858819D02*
X18907983Y-37906438D01*
X18907983Y-37906438D02*
X18860364Y-37954057D01*
X18860364Y-37954057D02*
X18812745Y-38049295D01*
X18812745Y-38049295D02*
X18812745Y-38192152D01*
X18812745Y-38192152D02*
X18860364Y-38287390D01*
X18860364Y-38287390D02*
X18907983Y-38335009D01*
X18907983Y-38335009D02*
X19003221Y-38382628D01*
X19003221Y-38382628D02*
X19384173Y-38382628D01*
X18431792Y-38811200D02*
X18288935Y-38858819D01*
X18288935Y-38858819D02*
X18050840Y-38858819D01*
X18050840Y-38858819D02*
X17955602Y-38811200D01*
X17955602Y-38811200D02*
X17907983Y-38763580D01*
X17907983Y-38763580D02*
X17860364Y-38668342D01*
X17860364Y-38668342D02*
X17860364Y-38573104D01*
X17860364Y-38573104D02*
X17907983Y-38477866D01*
X17907983Y-38477866D02*
X17955602Y-38430247D01*
X17955602Y-38430247D02*
X18050840Y-38382628D01*
X18050840Y-38382628D02*
X18241316Y-38335009D01*
X18241316Y-38335009D02*
X18336554Y-38287390D01*
X18336554Y-38287390D02*
X18384173Y-38239771D01*
X18384173Y-38239771D02*
X18431792Y-38144533D01*
X18431792Y-38144533D02*
X18431792Y-38049295D01*
X18431792Y-38049295D02*
X18384173Y-37954057D01*
X18384173Y-37954057D02*
X18336554Y-37906438D01*
X18336554Y-37906438D02*
X18241316Y-37858819D01*
X18241316Y-37858819D02*
X18003221Y-37858819D01*
X18003221Y-37858819D02*
X17860364Y-37906438D01*
X17574649Y-37858819D02*
X17003221Y-37858819D01*
X17288935Y-38858819D02*
X17288935Y-37858819D01*
X15907982Y-38858819D02*
X15907982Y-37858819D01*
X15907982Y-37858819D02*
X15527030Y-37858819D01*
X15527030Y-37858819D02*
X15431792Y-37906438D01*
X15431792Y-37906438D02*
X15384173Y-37954057D01*
X15384173Y-37954057D02*
X15336554Y-38049295D01*
X15336554Y-38049295D02*
X15336554Y-38192152D01*
X15336554Y-38192152D02*
X15384173Y-38287390D01*
X15384173Y-38287390D02*
X15431792Y-38335009D01*
X15431792Y-38335009D02*
X15527030Y-38382628D01*
X15527030Y-38382628D02*
X15907982Y-38382628D01*
X14336554Y-38763580D02*
X14384173Y-38811200D01*
X14384173Y-38811200D02*
X14527030Y-38858819D01*
X14527030Y-38858819D02*
X14622268Y-38858819D01*
X14622268Y-38858819D02*
X14765125Y-38811200D01*
X14765125Y-38811200D02*
X14860363Y-38715961D01*
X14860363Y-38715961D02*
X14907982Y-38620723D01*
X14907982Y-38620723D02*
X14955601Y-38430247D01*
X14955601Y-38430247D02*
X14955601Y-38287390D01*
X14955601Y-38287390D02*
X14907982Y-38096914D01*
X14907982Y-38096914D02*
X14860363Y-38001676D01*
X14860363Y-38001676D02*
X14765125Y-37906438D01*
X14765125Y-37906438D02*
X14622268Y-37858819D01*
X14622268Y-37858819D02*
X14527030Y-37858819D01*
X14527030Y-37858819D02*
X14384173Y-37906438D01*
X14384173Y-37906438D02*
X14336554Y-37954057D01*
X13574649Y-38335009D02*
X13431792Y-38382628D01*
X13431792Y-38382628D02*
X13384173Y-38430247D01*
X13384173Y-38430247D02*
X13336554Y-38525485D01*
X13336554Y-38525485D02*
X13336554Y-38668342D01*
X13336554Y-38668342D02*
X13384173Y-38763580D01*
X13384173Y-38763580D02*
X13431792Y-38811200D01*
X13431792Y-38811200D02*
X13527030Y-38858819D01*
X13527030Y-38858819D02*
X13907982Y-38858819D01*
X13907982Y-38858819D02*
X13907982Y-37858819D01*
X13907982Y-37858819D02*
X13574649Y-37858819D01*
X13574649Y-37858819D02*
X13479411Y-37906438D01*
X13479411Y-37906438D02*
X13431792Y-37954057D01*
X13431792Y-37954057D02*
X13384173Y-38049295D01*
X13384173Y-38049295D02*
X13384173Y-38144533D01*
X13384173Y-38144533D02*
X13431792Y-38239771D01*
X13431792Y-38239771D02*
X13479411Y-38287390D01*
X13479411Y-38287390D02*
X13574649Y-38335009D01*
X13574649Y-38335009D02*
X13907982Y-38335009D01*
X12907982Y-38763580D02*
X12860363Y-38811200D01*
X12860363Y-38811200D02*
X12907982Y-38858819D01*
X12907982Y-38858819D02*
X12955601Y-38811200D01*
X12955601Y-38811200D02*
X12907982Y-38763580D01*
X12907982Y-38763580D02*
X12907982Y-38858819D01*
X12907982Y-38477866D02*
X12955601Y-37906438D01*
X12955601Y-37906438D02*
X12907982Y-37858819D01*
X12907982Y-37858819D02*
X12860363Y-37906438D01*
X12860363Y-37906438D02*
X12907982Y-38477866D01*
X12907982Y-38477866D02*
X12907982Y-37858819D01*
X12431792Y-38763580D02*
X12384173Y-38811200D01*
X12384173Y-38811200D02*
X12431792Y-38858819D01*
X12431792Y-38858819D02*
X12479411Y-38811200D01*
X12479411Y-38811200D02*
X12431792Y-38763580D01*
X12431792Y-38763580D02*
X12431792Y-38858819D01*
X12431792Y-38477866D02*
X12479411Y-37906438D01*
X12479411Y-37906438D02*
X12431792Y-37858819D01*
X12431792Y-37858819D02*
X12384173Y-37906438D01*
X12384173Y-37906438D02*
X12431792Y-38477866D01*
X12431792Y-38477866D02*
X12431792Y-37858819D01*
%TO.C,G\u002A\u002A\u002A*%
G36*
X41290669Y-27876277D02*
G01*
X41307421Y-27888287D01*
X41490816Y-28013517D01*
X41714003Y-28159373D01*
X41760605Y-28190852D01*
X41923395Y-28334989D01*
X41989169Y-28453757D01*
X41939704Y-28541107D01*
X41787527Y-28568601D01*
X41581554Y-28520845D01*
X41372126Y-28402058D01*
X41155579Y-28231723D01*
X40851994Y-28410843D01*
X40767612Y-28456684D01*
X40525143Y-28536775D01*
X40358070Y-28510342D01*
X40295836Y-28379066D01*
X40298396Y-28362223D01*
X40389618Y-28245087D01*
X40571003Y-28122931D01*
X40587307Y-28114458D01*
X40817023Y-27986624D01*
X40994336Y-27874849D01*
X41137334Y-27811536D01*
X41290669Y-27876277D01*
G37*
G36*
X44724567Y-28128271D02*
G01*
X44522580Y-28422676D01*
X44436805Y-28498690D01*
X44128461Y-28648371D01*
X43810226Y-28647202D01*
X43519318Y-28501404D01*
X43292954Y-28217196D01*
X43270729Y-28171348D01*
X43231508Y-28017064D01*
X44105836Y-28017064D01*
X44119906Y-28097796D01*
X44202096Y-28194671D01*
X44305694Y-28174981D01*
X44354103Y-28091702D01*
X44339336Y-27958198D01*
X44232836Y-27895061D01*
X44173719Y-27909176D01*
X44105836Y-28017064D01*
X43231508Y-28017064D01*
X43178400Y-27808150D01*
X43203010Y-27433803D01*
X43329766Y-27090888D01*
X43543876Y-26821986D01*
X43830548Y-26669677D01*
X43963467Y-26648888D01*
X44261791Y-26700655D01*
X44508435Y-26873174D01*
X44690717Y-27134320D01*
X44795954Y-27451968D01*
X44811465Y-27793993D01*
X44734073Y-28091702D01*
X44724567Y-28128271D01*
G37*
G36*
X39285586Y-28070416D02*
G01*
X39112739Y-28380997D01*
X38829326Y-28605135D01*
X38647159Y-28695067D01*
X38533299Y-28727500D01*
X38415496Y-28701200D01*
X38215736Y-28617774D01*
X38050998Y-28523508D01*
X37827516Y-28268294D01*
X37751083Y-28064394D01*
X38052169Y-28064394D01*
X38074377Y-28134124D01*
X38200336Y-28217609D01*
X38305651Y-28203354D01*
X38348503Y-28064394D01*
X38320348Y-27940631D01*
X38200336Y-27911179D01*
X38122554Y-27944846D01*
X38052169Y-28064394D01*
X37751083Y-28064394D01*
X37704978Y-27941402D01*
X37683251Y-27584307D01*
X37762205Y-27238483D01*
X37941710Y-26945405D01*
X38221634Y-26746549D01*
X38427167Y-26673887D01*
X38599000Y-26673042D01*
X38810805Y-26756139D01*
X38879607Y-26792636D01*
X39144876Y-27034500D01*
X39301239Y-27355718D01*
X39348280Y-27714839D01*
X39286648Y-28064394D01*
X39285586Y-28070416D01*
G37*
G36*
X38207010Y-20039966D02*
G01*
X38515557Y-20079375D01*
X39102451Y-20227632D01*
X39734305Y-20460567D01*
X40363348Y-20757126D01*
X40941810Y-21096254D01*
X41421919Y-21456898D01*
X41491956Y-21516121D01*
X41638813Y-21613322D01*
X41811060Y-21672115D01*
X42056678Y-21705394D01*
X42423648Y-21726049D01*
X43153771Y-21756727D01*
X43567839Y-21369530D01*
X43669434Y-21278761D01*
X44249774Y-20872606D01*
X44953818Y-20532795D01*
X45749213Y-20275555D01*
X46019911Y-20211283D01*
X46552848Y-20126182D01*
X46987781Y-20138261D01*
X47354100Y-20260503D01*
X47681199Y-20505894D01*
X47998467Y-20887418D01*
X48335297Y-21418061D01*
X48628251Y-21990916D01*
X48886908Y-22665231D01*
X49059958Y-23329141D01*
X49130150Y-23928165D01*
X49130678Y-23950033D01*
X49142355Y-24238620D01*
X49166345Y-24390878D01*
X49213187Y-24437977D01*
X49293419Y-24411083D01*
X49391517Y-24375836D01*
X49530364Y-24385016D01*
X49553578Y-24406103D01*
X49541974Y-24519242D01*
X49399542Y-24677751D01*
X49143503Y-24860465D01*
X49067986Y-24904560D01*
X48841886Y-25003928D01*
X48711313Y-25008587D01*
X48694597Y-24924247D01*
X48810067Y-24756614D01*
X48826411Y-24737684D01*
X48882151Y-24638727D01*
X48902909Y-24494994D01*
X48890432Y-24265842D01*
X48846472Y-23910630D01*
X48812539Y-23695230D01*
X48615142Y-22899371D01*
X48318420Y-22128777D01*
X47942728Y-21430011D01*
X47508420Y-20849637D01*
X47505259Y-20846139D01*
X47333528Y-20669376D01*
X47184678Y-20574640D01*
X46994675Y-20536636D01*
X46699484Y-20530065D01*
X46305729Y-20551590D01*
X45534634Y-20712169D01*
X44736576Y-21032840D01*
X44714732Y-21043668D01*
X44331108Y-21257094D01*
X43981043Y-21491694D01*
X43694200Y-21723624D01*
X43500241Y-21929041D01*
X43428829Y-22084097D01*
X43425100Y-22136937D01*
X43365107Y-22206935D01*
X43195669Y-22189526D01*
X42968160Y-22141123D01*
X42548944Y-22080524D01*
X42179436Y-22084679D01*
X41792787Y-22157655D01*
X41322150Y-22303519D01*
X41103391Y-22376116D01*
X40799634Y-22467337D01*
X40581683Y-22520449D01*
X40486248Y-22525695D01*
X40483295Y-22522445D01*
X40497432Y-22423958D01*
X40623952Y-22281466D01*
X40826933Y-22127600D01*
X41070452Y-21994992D01*
X41151718Y-21957629D01*
X41326353Y-21863803D01*
X41395469Y-21803933D01*
X41363570Y-21764893D01*
X41209885Y-21654796D01*
X40957810Y-21499271D01*
X40639528Y-21316204D01*
X40287226Y-21123479D01*
X39933089Y-20938981D01*
X39609301Y-20780595D01*
X39348049Y-20666205D01*
X39039485Y-20560101D01*
X38633662Y-20452469D01*
X38282883Y-20390692D01*
X38239835Y-20386217D01*
X37972938Y-20366174D01*
X37801039Y-20389437D01*
X37659034Y-20477103D01*
X37481818Y-20650268D01*
X37266746Y-20899572D01*
X36887137Y-21512988D01*
X36578934Y-22272583D01*
X36344912Y-23172201D01*
X36310791Y-23343230D01*
X36236196Y-23754024D01*
X36200707Y-24034305D01*
X36201946Y-24209139D01*
X36237534Y-24303593D01*
X36250396Y-24320039D01*
X36303063Y-24484437D01*
X36232117Y-24602437D01*
X36067344Y-24618858D01*
X35967292Y-24572569D01*
X35761148Y-24431520D01*
X35532998Y-24239175D01*
X35369167Y-24083739D01*
X35270816Y-23972724D01*
X35279859Y-23932908D01*
X35385169Y-23941917D01*
X35542651Y-23976645D01*
X35745003Y-24040898D01*
X35802128Y-24058695D01*
X35860870Y-24029582D01*
X35887135Y-23898803D01*
X35893169Y-23632620D01*
X35896916Y-23481373D01*
X35929552Y-23079817D01*
X35984831Y-22713395D01*
X36101417Y-22302477D01*
X36315806Y-21777928D01*
X36588130Y-21250424D01*
X36888837Y-20776457D01*
X37188378Y-20412521D01*
X37599851Y-19999649D01*
X38207010Y-20039966D01*
G37*
G36*
X53825950Y-33683405D02*
G01*
X53786046Y-34075612D01*
X53662812Y-34366156D01*
X53459271Y-34530535D01*
X53352689Y-34537464D01*
X53138403Y-34478848D01*
X52922115Y-34368294D01*
X52780194Y-34238628D01*
X52771545Y-34228126D01*
X52687009Y-34249798D01*
X52566211Y-34404386D01*
X52349592Y-34641777D01*
X51987141Y-34874950D01*
X51525438Y-35073401D01*
X51000598Y-35224506D01*
X50448737Y-35315643D01*
X49905973Y-35334188D01*
X49697186Y-35328144D01*
X49420403Y-35339857D01*
X49224986Y-35389135D01*
X49055267Y-35485907D01*
X48620653Y-35760946D01*
X47993074Y-36048712D01*
X47293095Y-36244319D01*
X46478404Y-36362152D01*
X46261889Y-36379334D01*
X45691441Y-36400351D01*
X45095343Y-36393939D01*
X44522086Y-36362316D01*
X44020160Y-36307699D01*
X43638057Y-36232305D01*
X43484233Y-36200506D01*
X43151753Y-36160855D01*
X42724864Y-36130643D01*
X42236486Y-36110114D01*
X41719539Y-36099516D01*
X41206942Y-36099094D01*
X40731616Y-36109093D01*
X40326479Y-36129760D01*
X40024451Y-36161340D01*
X39858453Y-36204079D01*
X39696813Y-36255912D01*
X39385033Y-36295793D01*
X38983503Y-36307391D01*
X38684811Y-36293865D01*
X37993847Y-36165918D01*
X37408808Y-35908235D01*
X36935643Y-35526499D01*
X36580302Y-35026393D01*
X36348736Y-34413599D01*
X36246894Y-33693800D01*
X36242456Y-33528002D01*
X36304155Y-32841621D01*
X36507689Y-32219553D01*
X36864432Y-31623669D01*
X37169703Y-31207807D01*
X36637270Y-30847033D01*
X36217011Y-30536782D01*
X35717834Y-30090861D01*
X35316719Y-29637127D01*
X35044570Y-29207394D01*
X35029011Y-29174127D01*
X34891878Y-28739398D01*
X34812863Y-28205516D01*
X34794051Y-27628044D01*
X34837529Y-27062548D01*
X34945381Y-26564592D01*
X34967467Y-26496912D01*
X35098571Y-26153277D01*
X35251434Y-25822091D01*
X35406273Y-25540070D01*
X35543302Y-25343932D01*
X35642739Y-25270394D01*
X35701967Y-25262460D01*
X35726181Y-25206621D01*
X35637786Y-25124796D01*
X35463458Y-25049808D01*
X35355523Y-25012270D01*
X35212152Y-24919280D01*
X35212676Y-24833255D01*
X35365472Y-24777479D01*
X35414042Y-24772946D01*
X35648121Y-24793934D01*
X35886852Y-24863837D01*
X36072461Y-24961381D01*
X36147169Y-25065293D01*
X36135316Y-25118245D01*
X36031505Y-25185727D01*
X35952755Y-25248204D01*
X35829924Y-25435070D01*
X35686281Y-25708876D01*
X35540165Y-26031638D01*
X35409916Y-26365370D01*
X35313875Y-26672086D01*
X35290199Y-26767214D01*
X35176794Y-27511972D01*
X35197323Y-28209796D01*
X35349216Y-28838708D01*
X35629906Y-29376727D01*
X35658203Y-29415492D01*
X35978112Y-29771039D01*
X36406363Y-30145009D01*
X36897824Y-30501176D01*
X37407359Y-30803316D01*
X37422142Y-30810977D01*
X37788634Y-30978111D01*
X38263039Y-31164223D01*
X38792907Y-31351588D01*
X39325784Y-31522481D01*
X39809219Y-31659176D01*
X40190761Y-31743946D01*
X40328253Y-31773653D01*
X40516873Y-31854225D01*
X40556649Y-31934855D01*
X40447664Y-31988454D01*
X40190003Y-31987936D01*
X40096985Y-31976970D01*
X39581068Y-31898476D01*
X39008947Y-31788888D01*
X38455577Y-31663580D01*
X37995916Y-31537925D01*
X37478219Y-31376800D01*
X37321536Y-31562097D01*
X37251638Y-31656194D01*
X37102562Y-31895074D01*
X36953101Y-32170727D01*
X36811887Y-32494768D01*
X36648286Y-33125053D01*
X36623419Y-33742467D01*
X36731630Y-34323916D01*
X36967263Y-34846304D01*
X37324661Y-35286533D01*
X37798169Y-35621508D01*
X37858986Y-35650118D01*
X38191079Y-35752072D01*
X38600378Y-35819938D01*
X39027371Y-35849003D01*
X39412546Y-35834551D01*
X39696389Y-35771869D01*
X39921530Y-35625442D01*
X40052353Y-35387129D01*
X40049683Y-35089515D01*
X39919638Y-34747799D01*
X39668335Y-34377184D01*
X39301891Y-33992871D01*
X38826424Y-33610061D01*
X38639208Y-33468701D01*
X38418859Y-33264703D01*
X38339221Y-33128753D01*
X38397891Y-33070635D01*
X38592465Y-33100130D01*
X38920540Y-33227021D01*
X39315711Y-33437781D01*
X39775374Y-33804106D01*
X40178458Y-34295901D01*
X40266614Y-34427376D01*
X40412952Y-34689038D01*
X40483215Y-34926218D01*
X40503098Y-35211377D01*
X40507503Y-35661884D01*
X41261343Y-35715472D01*
X41378678Y-35723559D01*
X41760812Y-35746766D01*
X42097836Y-35762969D01*
X42327897Y-35769061D01*
X42640610Y-35769061D01*
X42436336Y-35356299D01*
X42350371Y-35176210D01*
X42285520Y-34988386D01*
X42289398Y-34837741D01*
X42354189Y-34657799D01*
X42476757Y-34429616D01*
X42814688Y-34057151D01*
X43270709Y-33775399D01*
X43821691Y-33596796D01*
X44444503Y-33533781D01*
X44798285Y-33546170D01*
X45186440Y-33590853D01*
X45504742Y-33660842D01*
X45720037Y-33748492D01*
X45799169Y-33846157D01*
X45766376Y-33885763D01*
X45615987Y-33922530D01*
X45328902Y-33943931D01*
X44889003Y-33951838D01*
X44874736Y-33951898D01*
X44226786Y-33985732D01*
X43708301Y-34085680D01*
X43290031Y-34260252D01*
X42942724Y-34517955D01*
X42838152Y-34645520D01*
X42765390Y-34902739D01*
X42832091Y-35171693D01*
X43023668Y-35428273D01*
X43325533Y-35648366D01*
X43723101Y-35807862D01*
X43984314Y-35868083D01*
X44586895Y-35949221D01*
X45268187Y-35982696D01*
X45979520Y-35970123D01*
X46672223Y-35913120D01*
X47297626Y-35813301D01*
X47807058Y-35672283D01*
X48216230Y-35495224D01*
X48872613Y-35103030D01*
X49092734Y-34922394D01*
X49756937Y-34922394D01*
X50169886Y-34916822D01*
X50347513Y-34908413D01*
X50860418Y-34829757D01*
X51372548Y-34683956D01*
X51827867Y-34489296D01*
X52170336Y-34264062D01*
X52256950Y-34151557D01*
X52318503Y-33941653D01*
X52344247Y-33804625D01*
X52457452Y-33610207D01*
X52539336Y-33545066D01*
X52627952Y-33545856D01*
X52756099Y-33635383D01*
X52962468Y-33830526D01*
X53102247Y-33964466D01*
X53252500Y-34086909D01*
X53336938Y-34107941D01*
X53385107Y-34042371D01*
X53412882Y-33932739D01*
X53416306Y-33606756D01*
X53348454Y-33199082D01*
X53218385Y-32754369D01*
X53035157Y-32317271D01*
X52855067Y-31993252D01*
X52415162Y-31407859D01*
X51888483Y-30916998D01*
X51304265Y-30545600D01*
X50691740Y-30318600D01*
X50461978Y-30264043D01*
X50679794Y-30697705D01*
X50870099Y-31168269D01*
X51008840Y-31869529D01*
X50998322Y-32585836D01*
X50842821Y-33288192D01*
X50546612Y-33947598D01*
X50113972Y-34535056D01*
X49756937Y-34922394D01*
X49092734Y-34922394D01*
X49465571Y-34616437D01*
X49959808Y-34066197D01*
X50320023Y-33483061D01*
X50373511Y-33369078D01*
X50484240Y-33099253D01*
X50547527Y-32851846D01*
X50576137Y-32563022D01*
X50582836Y-32168947D01*
X50581664Y-31962764D01*
X50566998Y-31633290D01*
X50524852Y-31378763D01*
X50441966Y-31135786D01*
X50305081Y-30840965D01*
X50037387Y-30391104D01*
X49586249Y-29880199D01*
X49145173Y-29483633D01*
X48977416Y-29726514D01*
X48920845Y-29800690D01*
X48738384Y-30011669D01*
X48489866Y-30278866D01*
X48212130Y-30562061D01*
X47777278Y-30952658D01*
X47151051Y-31372837D01*
X46474816Y-31659000D01*
X45719736Y-31822425D01*
X44856972Y-31874394D01*
X44674085Y-31873574D01*
X44249697Y-31861068D01*
X43969354Y-31831313D01*
X43814648Y-31781511D01*
X43767169Y-31708869D01*
X43809022Y-31687070D01*
X43987842Y-31653526D01*
X44274953Y-31620400D01*
X44635003Y-31592436D01*
X44973533Y-31566968D01*
X45760734Y-31460193D01*
X46429815Y-31285358D01*
X47012225Y-31029858D01*
X47539416Y-30681086D01*
X48042836Y-30226436D01*
X48255913Y-30000011D01*
X48801701Y-29306691D01*
X49199160Y-28605418D01*
X49442143Y-27908629D01*
X49524503Y-27228761D01*
X49519080Y-27093512D01*
X49473912Y-26738448D01*
X49393758Y-26345043D01*
X49291714Y-25964993D01*
X49180875Y-25649991D01*
X49074337Y-25451732D01*
X49047065Y-25385075D01*
X49100703Y-25254064D01*
X49251592Y-25146005D01*
X49456018Y-25101061D01*
X49540615Y-25100209D01*
X49670553Y-25094710D01*
X49715837Y-25096468D01*
X49763057Y-25159670D01*
X49711414Y-25266797D01*
X49578841Y-25364996D01*
X49471974Y-25419558D01*
X49415131Y-25503948D01*
X49480898Y-25641378D01*
X49542988Y-25764236D01*
X49643086Y-26020822D01*
X49739613Y-26321533D01*
X49801377Y-26580233D01*
X49860413Y-27289282D01*
X49774529Y-28004909D01*
X49547888Y-28675981D01*
X49287570Y-29232268D01*
X49702370Y-29501049D01*
X49882104Y-29624166D01*
X50051680Y-29758354D01*
X50117169Y-29836788D01*
X50161992Y-29870376D01*
X50334394Y-29918498D01*
X50591893Y-29959541D01*
X50676150Y-29970902D01*
X51312018Y-30147926D01*
X51924295Y-30470225D01*
X52489828Y-30916560D01*
X52985462Y-31465690D01*
X53388043Y-32096374D01*
X53674419Y-32787372D01*
X53779499Y-33214038D01*
X53818364Y-33606756D01*
X53825950Y-33683405D01*
G37*
G36*
X16795836Y-28137216D02*
G01*
X16812588Y-28149226D01*
X16995983Y-28274456D01*
X17219170Y-28420312D01*
X17265772Y-28451791D01*
X17428562Y-28595928D01*
X17494336Y-28714696D01*
X17444871Y-28802046D01*
X17292694Y-28829540D01*
X17086721Y-28781784D01*
X16877293Y-28662997D01*
X16660746Y-28492662D01*
X16357161Y-28671782D01*
X16272779Y-28717623D01*
X16030310Y-28797714D01*
X15863237Y-28771281D01*
X15801003Y-28640005D01*
X15803563Y-28623162D01*
X15894785Y-28506026D01*
X16076170Y-28383870D01*
X16092474Y-28375397D01*
X16322190Y-28247563D01*
X16499503Y-28135788D01*
X16642501Y-28072475D01*
X16795836Y-28137216D01*
G37*
G36*
X20229734Y-28389210D02*
G01*
X20027747Y-28683615D01*
X19941972Y-28759629D01*
X19633628Y-28909310D01*
X19315393Y-28908141D01*
X19024485Y-28762343D01*
X18798121Y-28478135D01*
X18775896Y-28432287D01*
X18736675Y-28278003D01*
X19611003Y-28278003D01*
X19625073Y-28358735D01*
X19707263Y-28455610D01*
X19810861Y-28435920D01*
X19859270Y-28352641D01*
X19844503Y-28219137D01*
X19738003Y-28156000D01*
X19678886Y-28170115D01*
X19611003Y-28278003D01*
X18736675Y-28278003D01*
X18683567Y-28069089D01*
X18708177Y-27694742D01*
X18834933Y-27351827D01*
X19049043Y-27082925D01*
X19335715Y-26930616D01*
X19468634Y-26909827D01*
X19766958Y-26961594D01*
X20013602Y-27134113D01*
X20195884Y-27395259D01*
X20301121Y-27712907D01*
X20316632Y-28054932D01*
X20239240Y-28352641D01*
X20229734Y-28389210D01*
G37*
G36*
X14790753Y-28331355D02*
G01*
X14617906Y-28641936D01*
X14334493Y-28866074D01*
X14152326Y-28956006D01*
X14038466Y-28988439D01*
X13920663Y-28962139D01*
X13720903Y-28878713D01*
X13556165Y-28784447D01*
X13332683Y-28529233D01*
X13256250Y-28325333D01*
X13557336Y-28325333D01*
X13579544Y-28395063D01*
X13705503Y-28478548D01*
X13810818Y-28464293D01*
X13853670Y-28325333D01*
X13825515Y-28201570D01*
X13705503Y-28172118D01*
X13627721Y-28205785D01*
X13557336Y-28325333D01*
X13256250Y-28325333D01*
X13210145Y-28202341D01*
X13188418Y-27845246D01*
X13267372Y-27499422D01*
X13446877Y-27206344D01*
X13726801Y-27007488D01*
X13932334Y-26934826D01*
X14104167Y-26933981D01*
X14315972Y-27017078D01*
X14384774Y-27053575D01*
X14650043Y-27295439D01*
X14806406Y-27616657D01*
X14853447Y-27975778D01*
X14791815Y-28325333D01*
X14790753Y-28331355D01*
G37*
G36*
X13712177Y-20300905D02*
G01*
X14020724Y-20340314D01*
X14607618Y-20488571D01*
X15239472Y-20721506D01*
X15868515Y-21018065D01*
X16446977Y-21357193D01*
X16927086Y-21717837D01*
X16997123Y-21777060D01*
X17143980Y-21874261D01*
X17316227Y-21933054D01*
X17561845Y-21966333D01*
X17928815Y-21986988D01*
X18658938Y-22017666D01*
X19073006Y-21630469D01*
X19174601Y-21539700D01*
X19754941Y-21133545D01*
X20458985Y-20793734D01*
X21254380Y-20536494D01*
X21525078Y-20472222D01*
X22058015Y-20387121D01*
X22492948Y-20399200D01*
X22859267Y-20521442D01*
X23186366Y-20766833D01*
X23503634Y-21148357D01*
X23840464Y-21679000D01*
X24133418Y-22251855D01*
X24392075Y-22926170D01*
X24565125Y-23590080D01*
X24635317Y-24189104D01*
X24635845Y-24210972D01*
X24647522Y-24499559D01*
X24671512Y-24651817D01*
X24718354Y-24698916D01*
X24798586Y-24672022D01*
X24896684Y-24636775D01*
X25035531Y-24645955D01*
X25058745Y-24667042D01*
X25047141Y-24780181D01*
X24904709Y-24938690D01*
X24648670Y-25121404D01*
X24573153Y-25165499D01*
X24347053Y-25264867D01*
X24216480Y-25269526D01*
X24199764Y-25185186D01*
X24315234Y-25017553D01*
X24331578Y-24998623D01*
X24387318Y-24899666D01*
X24408076Y-24755933D01*
X24395599Y-24526781D01*
X24351639Y-24171569D01*
X24317706Y-23956169D01*
X24120309Y-23160310D01*
X23823587Y-22389716D01*
X23447895Y-21690950D01*
X23013587Y-21110576D01*
X23010426Y-21107078D01*
X22838695Y-20930315D01*
X22689845Y-20835579D01*
X22499842Y-20797575D01*
X22204651Y-20791004D01*
X21810896Y-20812529D01*
X21039801Y-20973108D01*
X20241743Y-21293779D01*
X20219899Y-21304607D01*
X19836275Y-21518033D01*
X19486210Y-21752633D01*
X19199367Y-21984563D01*
X19005408Y-22189980D01*
X18933996Y-22345036D01*
X18930267Y-22397876D01*
X18870274Y-22467874D01*
X18700836Y-22450465D01*
X18473327Y-22402062D01*
X18054111Y-22341463D01*
X17684603Y-22345618D01*
X17297954Y-22418594D01*
X16827317Y-22564458D01*
X16608558Y-22637055D01*
X16304801Y-22728276D01*
X16086850Y-22781388D01*
X15991415Y-22786634D01*
X15988462Y-22783384D01*
X16002599Y-22684897D01*
X16129119Y-22542405D01*
X16332100Y-22388539D01*
X16575619Y-22255931D01*
X16656885Y-22218568D01*
X16831520Y-22124742D01*
X16900636Y-22064872D01*
X16868737Y-22025832D01*
X16715052Y-21915735D01*
X16462977Y-21760210D01*
X16144695Y-21577143D01*
X15792393Y-21384418D01*
X15438256Y-21199920D01*
X15114468Y-21041534D01*
X14853216Y-20927144D01*
X14544652Y-20821040D01*
X14138829Y-20713408D01*
X13788050Y-20651631D01*
X13745002Y-20647156D01*
X13478105Y-20627113D01*
X13306206Y-20650376D01*
X13164201Y-20738042D01*
X12986985Y-20911207D01*
X12771913Y-21160511D01*
X12392304Y-21773927D01*
X12084101Y-22533522D01*
X11850079Y-23433140D01*
X11815958Y-23604169D01*
X11741363Y-24014963D01*
X11705874Y-24295244D01*
X11707113Y-24470078D01*
X11742701Y-24564532D01*
X11755563Y-24580978D01*
X11808230Y-24745376D01*
X11737284Y-24863376D01*
X11572511Y-24879797D01*
X11472459Y-24833508D01*
X11266315Y-24692459D01*
X11038165Y-24500114D01*
X10874334Y-24344678D01*
X10775983Y-24233663D01*
X10785026Y-24193847D01*
X10890336Y-24202856D01*
X11047818Y-24237584D01*
X11250170Y-24301837D01*
X11307295Y-24319634D01*
X11366037Y-24290521D01*
X11392302Y-24159742D01*
X11398336Y-23893559D01*
X11402083Y-23742312D01*
X11434719Y-23340756D01*
X11489998Y-22974334D01*
X11606584Y-22563416D01*
X11820973Y-22038867D01*
X12093297Y-21511363D01*
X12394004Y-21037396D01*
X12693545Y-20673460D01*
X13105018Y-20260588D01*
X13712177Y-20300905D01*
G37*
G36*
X29331117Y-33944344D02*
G01*
X29291213Y-34336551D01*
X29167979Y-34627095D01*
X28964438Y-34791474D01*
X28857856Y-34798403D01*
X28643570Y-34739787D01*
X28427282Y-34629233D01*
X28285361Y-34499567D01*
X28276712Y-34489065D01*
X28192176Y-34510737D01*
X28071378Y-34665325D01*
X27854759Y-34902716D01*
X27492308Y-35135889D01*
X27030605Y-35334340D01*
X26505765Y-35485445D01*
X25953904Y-35576582D01*
X25411140Y-35595127D01*
X25202353Y-35589083D01*
X24925570Y-35600796D01*
X24730153Y-35650074D01*
X24560434Y-35746846D01*
X24125820Y-36021885D01*
X23498241Y-36309651D01*
X22798262Y-36505258D01*
X21983571Y-36623091D01*
X21767056Y-36640273D01*
X21196608Y-36661290D01*
X20600510Y-36654878D01*
X20027253Y-36623255D01*
X19525327Y-36568638D01*
X19143224Y-36493244D01*
X18989400Y-36461445D01*
X18656920Y-36421794D01*
X18230031Y-36391582D01*
X17741653Y-36371053D01*
X17224706Y-36360455D01*
X16712109Y-36360033D01*
X16236783Y-36370032D01*
X15831646Y-36390699D01*
X15529618Y-36422279D01*
X15363620Y-36465018D01*
X15201980Y-36516851D01*
X14890200Y-36556732D01*
X14488670Y-36568330D01*
X14189978Y-36554804D01*
X13499014Y-36426857D01*
X12913975Y-36169174D01*
X12440810Y-35787438D01*
X12085469Y-35287332D01*
X11853903Y-34674538D01*
X11752061Y-33954739D01*
X11747623Y-33788941D01*
X11809322Y-33102560D01*
X12012856Y-32480492D01*
X12369599Y-31884608D01*
X12674870Y-31468746D01*
X12142437Y-31107972D01*
X11722178Y-30797721D01*
X11223001Y-30351800D01*
X10821886Y-29898066D01*
X10549737Y-29468333D01*
X10534178Y-29435066D01*
X10397045Y-29000337D01*
X10318030Y-28466455D01*
X10299218Y-27888983D01*
X10342696Y-27323487D01*
X10450548Y-26825531D01*
X10472634Y-26757851D01*
X10603738Y-26414216D01*
X10756601Y-26083030D01*
X10911440Y-25801009D01*
X11048469Y-25604871D01*
X11147906Y-25531333D01*
X11207134Y-25523399D01*
X11231348Y-25467560D01*
X11142953Y-25385735D01*
X10968625Y-25310747D01*
X10860690Y-25273209D01*
X10717319Y-25180219D01*
X10717843Y-25094194D01*
X10870639Y-25038418D01*
X10919209Y-25033885D01*
X11153288Y-25054873D01*
X11392019Y-25124776D01*
X11577628Y-25222320D01*
X11652336Y-25326232D01*
X11640483Y-25379184D01*
X11536672Y-25446666D01*
X11457922Y-25509143D01*
X11335091Y-25696009D01*
X11191448Y-25969815D01*
X11045332Y-26292577D01*
X10915083Y-26626309D01*
X10819042Y-26933025D01*
X10795366Y-27028153D01*
X10681961Y-27772911D01*
X10702490Y-28470735D01*
X10854383Y-29099647D01*
X11135073Y-29637666D01*
X11163370Y-29676431D01*
X11483279Y-30031978D01*
X11911530Y-30405948D01*
X12402991Y-30762115D01*
X12912526Y-31064255D01*
X12927309Y-31071916D01*
X13293801Y-31239050D01*
X13768206Y-31425162D01*
X14298074Y-31612527D01*
X14830951Y-31783420D01*
X15314386Y-31920115D01*
X15695928Y-32004885D01*
X15833420Y-32034592D01*
X16022040Y-32115164D01*
X16061816Y-32195794D01*
X15952831Y-32249393D01*
X15695170Y-32248875D01*
X15602152Y-32237909D01*
X15086235Y-32159415D01*
X14514114Y-32049827D01*
X13960744Y-31924519D01*
X13501083Y-31798864D01*
X12983386Y-31637739D01*
X12826703Y-31823036D01*
X12756805Y-31917133D01*
X12607729Y-32156013D01*
X12458268Y-32431666D01*
X12317054Y-32755707D01*
X12153453Y-33385992D01*
X12128586Y-34003406D01*
X12236797Y-34584855D01*
X12472430Y-35107243D01*
X12829828Y-35547472D01*
X13303336Y-35882447D01*
X13364153Y-35911057D01*
X13696246Y-36013011D01*
X14105545Y-36080877D01*
X14532538Y-36109942D01*
X14917713Y-36095490D01*
X15201556Y-36032808D01*
X15426697Y-35886381D01*
X15557520Y-35648068D01*
X15554850Y-35350454D01*
X15424805Y-35008738D01*
X15173502Y-34638123D01*
X14807058Y-34253810D01*
X14331591Y-33871000D01*
X14144375Y-33729640D01*
X13924026Y-33525642D01*
X13844388Y-33389692D01*
X13903058Y-33331574D01*
X14097632Y-33361069D01*
X14425707Y-33487960D01*
X14820878Y-33698720D01*
X15280541Y-34065045D01*
X15683625Y-34556840D01*
X15771781Y-34688315D01*
X15918119Y-34949977D01*
X15988382Y-35187157D01*
X16008265Y-35472316D01*
X16012670Y-35922823D01*
X16766510Y-35976411D01*
X16883845Y-35984498D01*
X17265979Y-36007705D01*
X17603003Y-36023908D01*
X17833064Y-36030000D01*
X18145777Y-36030000D01*
X17941503Y-35617238D01*
X17855538Y-35437149D01*
X17790687Y-35249325D01*
X17794565Y-35098680D01*
X17859356Y-34918738D01*
X17981924Y-34690555D01*
X18319855Y-34318090D01*
X18775876Y-34036338D01*
X19326858Y-33857735D01*
X19949670Y-33794720D01*
X20303452Y-33807109D01*
X20691607Y-33851792D01*
X21009909Y-33921781D01*
X21225204Y-34009431D01*
X21304336Y-34107096D01*
X21271543Y-34146702D01*
X21121154Y-34183469D01*
X20834069Y-34204870D01*
X20394170Y-34212777D01*
X20379903Y-34212837D01*
X19731953Y-34246671D01*
X19213468Y-34346619D01*
X18795198Y-34521191D01*
X18447891Y-34778894D01*
X18343319Y-34906459D01*
X18270557Y-35163678D01*
X18337258Y-35432632D01*
X18528835Y-35689212D01*
X18830700Y-35909305D01*
X19228268Y-36068801D01*
X19489481Y-36129022D01*
X20092062Y-36210160D01*
X20773354Y-36243635D01*
X21484687Y-36231062D01*
X22177390Y-36174059D01*
X22802793Y-36074240D01*
X23312225Y-35933222D01*
X23721397Y-35756163D01*
X24377780Y-35363969D01*
X24597901Y-35183333D01*
X25262104Y-35183333D01*
X25675053Y-35177761D01*
X25852680Y-35169352D01*
X26365585Y-35090696D01*
X26877715Y-34944895D01*
X27333034Y-34750235D01*
X27675503Y-34525001D01*
X27762117Y-34412496D01*
X27823670Y-34202592D01*
X27849414Y-34065564D01*
X27962619Y-33871146D01*
X28044503Y-33806005D01*
X28133119Y-33806795D01*
X28261266Y-33896322D01*
X28467635Y-34091465D01*
X28607414Y-34225405D01*
X28757667Y-34347848D01*
X28842105Y-34368880D01*
X28890274Y-34303310D01*
X28918049Y-34193678D01*
X28921473Y-33867695D01*
X28853621Y-33460021D01*
X28723552Y-33015308D01*
X28540324Y-32578210D01*
X28360234Y-32254191D01*
X27920329Y-31668798D01*
X27393650Y-31177937D01*
X26809432Y-30806539D01*
X26196907Y-30579539D01*
X25967145Y-30524982D01*
X26184961Y-30958644D01*
X26375266Y-31429208D01*
X26514007Y-32130468D01*
X26503489Y-32846775D01*
X26347988Y-33549131D01*
X26051779Y-34208537D01*
X25619139Y-34795995D01*
X25262104Y-35183333D01*
X24597901Y-35183333D01*
X24970738Y-34877376D01*
X25464975Y-34327136D01*
X25825190Y-33744000D01*
X25878678Y-33630017D01*
X25989407Y-33360192D01*
X26052694Y-33112785D01*
X26081304Y-32823961D01*
X26088003Y-32429886D01*
X26086831Y-32223703D01*
X26072165Y-31894229D01*
X26030019Y-31639702D01*
X25947133Y-31396725D01*
X25810248Y-31101904D01*
X25542554Y-30652043D01*
X25091416Y-30141138D01*
X24650340Y-29744572D01*
X24482583Y-29987453D01*
X24426012Y-30061629D01*
X24243551Y-30272608D01*
X23995033Y-30539805D01*
X23717297Y-30823000D01*
X23282445Y-31213597D01*
X22656218Y-31633776D01*
X21979983Y-31919939D01*
X21224903Y-32083364D01*
X20362139Y-32135333D01*
X20179252Y-32134513D01*
X19754864Y-32122007D01*
X19474521Y-32092252D01*
X19319815Y-32042450D01*
X19272336Y-31969808D01*
X19314189Y-31948009D01*
X19493009Y-31914465D01*
X19780120Y-31881339D01*
X20140170Y-31853375D01*
X20478700Y-31827907D01*
X21265901Y-31721132D01*
X21934982Y-31546297D01*
X22517392Y-31290797D01*
X23044583Y-30942025D01*
X23548003Y-30487375D01*
X23761080Y-30260950D01*
X24306868Y-29567630D01*
X24704327Y-28866357D01*
X24947310Y-28169568D01*
X25029670Y-27489700D01*
X25024247Y-27354451D01*
X24979079Y-26999387D01*
X24898925Y-26605982D01*
X24796881Y-26225932D01*
X24686042Y-25910930D01*
X24579504Y-25712671D01*
X24552232Y-25646014D01*
X24605870Y-25515003D01*
X24756759Y-25406944D01*
X24961185Y-25362000D01*
X25045782Y-25361148D01*
X25175720Y-25355649D01*
X25221004Y-25357407D01*
X25268224Y-25420609D01*
X25216581Y-25527736D01*
X25084008Y-25625935D01*
X24977141Y-25680497D01*
X24920298Y-25764887D01*
X24986065Y-25902317D01*
X25048155Y-26025175D01*
X25148253Y-26281761D01*
X25244780Y-26582472D01*
X25306544Y-26841172D01*
X25365580Y-27550221D01*
X25279696Y-28265848D01*
X25053055Y-28936920D01*
X24792737Y-29493207D01*
X25207537Y-29761988D01*
X25387271Y-29885105D01*
X25556847Y-30019293D01*
X25622336Y-30097727D01*
X25667159Y-30131315D01*
X25839561Y-30179437D01*
X26097060Y-30220480D01*
X26181317Y-30231841D01*
X26817185Y-30408865D01*
X27429462Y-30731164D01*
X27994995Y-31177499D01*
X28490629Y-31726629D01*
X28893210Y-32357313D01*
X29179586Y-33048311D01*
X29284666Y-33474977D01*
X29323531Y-33867695D01*
X29331117Y-33944344D01*
G37*
%TO.C,LED1*%
G36*
X5432995Y-19967005D02*
G01*
X5510777Y-20398340D01*
X4994589Y-19896294D01*
X5432995Y-19967005D01*
G37*
X6111817Y-20320558D02*
X6924990Y-19507386D01*
X6946203Y-19203330D02*
X6224955Y-18482081D01*
X4605680Y-19761944D02*
X3728868Y-20638756D01*
X4754172Y-21664061D02*
X5630985Y-20787249D01*
X6182528Y-18482081D02*
X5899685Y-18482081D01*
X5899685Y-18482081D02*
X5051157Y-19330609D01*
X3728868Y-20638756D02*
X4754172Y-21664061D01*
X6924990Y-19507386D02*
X6946203Y-19486172D01*
X6224955Y-18482081D02*
X6182528Y-18482081D01*
X6946203Y-19486172D02*
X6946203Y-19203330D01*
X6924990Y-19507386D02*
X5899685Y-18482081D01*
D11*
%TO.C,C33*%
X7319000Y-33762000D02*
X7319000Y-34562000D01*
X5900000Y-33762000D02*
X5900000Y-34562000D01*
X7010000Y-34871000D02*
X6210000Y-34871000D01*
X7314000Y-33186000D02*
X7314000Y-32386000D01*
X5894000Y-33186000D02*
X5894000Y-32386000D01*
X7004000Y-32076000D02*
X6204000Y-32076000D01*
X7314000Y-32386000D02*
G75*
G03*
X7003973Y-32076000I-310000J0D01*
G01*
X5900000Y-34562000D02*
G75*
G03*
X6210027Y-34872000I309999J-1D01*
G01*
X6204000Y-32076000D02*
G75*
G03*
X5894000Y-32386000I0J-310000D01*
G01*
X7010000Y-34872000D02*
G75*
G03*
X7320000Y-34562000I0J310000D01*
G01*
D12*
%TO.C,R3*%
X2025375Y-22439830D02*
X1347260Y-23117945D01*
X2282055Y-24052740D02*
X2960170Y-23374625D01*
X4240740Y-22094055D02*
X3562625Y-22772170D01*
X1347260Y-23117945D02*
X2282055Y-24052740D01*
X2627830Y-21837375D02*
X3305945Y-21159260D01*
X3305945Y-21159260D02*
X4240740Y-22094055D01*
%TO.C,U4*%
X7127000Y-29337000D02*
X7127000Y-27559000D01*
X4049000Y-29337000D02*
X4049000Y-27559000D01*
D13*
X7406000Y-29749000D02*
G75*
G03*
X7406000Y-29749000I-150000J0D01*
G01*
D14*
%TO.C,CLK1*%
X27940000Y-24130000D02*
X27940000Y-21590000D01*
X25400000Y-24130000D02*
X27940000Y-24130000D01*
X27940000Y-21590000D02*
X25400000Y-21590000D01*
X25400000Y-24130000D02*
X25400000Y-23495000D01*
X25400000Y-21590000D02*
X25400000Y-23495000D01*
D11*
%TO.C,C31*%
X5894000Y-23394000D02*
X5894000Y-24194000D01*
X6198000Y-21709000D02*
X6998000Y-21709000D01*
X7314000Y-23394000D02*
X7314000Y-24194000D01*
X7308000Y-22818000D02*
X7308000Y-22018000D01*
X6204000Y-24504000D02*
X7004000Y-24504000D01*
X5889000Y-22818000D02*
X5889000Y-22018000D01*
X7004000Y-24504000D02*
G75*
G03*
X7314000Y-24194000I0J310000D01*
G01*
X6198000Y-21708000D02*
G75*
G03*
X5888000Y-22018000I0J-310000D01*
G01*
X5894000Y-24194000D02*
G75*
G03*
X6204027Y-24504000I310000J0D01*
G01*
X7308000Y-22018000D02*
G75*
G03*
X6997973Y-21708000I-309999J1D01*
G01*
%TD*%
M02*
