%TF.GenerationSoftware,KiCad,Pcbnew,7.0.5*%
%TF.CreationDate,2024-09-10T19:27:24-04:00*%
%TF.ProjectId,PCB_PCB_OpenSuperHetv6PCB,5043425f-5043-4425-9f4f-70656e537570,rev?*%
%TF.SameCoordinates,Original*%
%TF.FileFunction,Copper,L1,Top*%
%TF.FilePolarity,Positive*%
%FSLAX46Y46*%
G04 Gerber Fmt 4.6, Leading zero omitted, Abs format (unit mm)*
G04 Created by KiCad (PCBNEW 7.0.5) date 2024-09-10 19:27:24*
%MOMM*%
%LPD*%
G01*
G04 APERTURE LIST*
G04 Aperture macros list*
%AMRotRect*
0 Rectangle, with rotation*
0 The origin of the aperture is its center*
0 $1 length*
0 $2 width*
0 $3 Rotation angle, in degrees counterclockwise*
0 Add horizontal line*
21,1,$1,$2,0,0,$3*%
G04 Aperture macros list end*
%TA.AperFunction,ComponentPad*%
%ADD10R,1.800000X1.800000*%
%TD*%
%TA.AperFunction,ComponentPad*%
%ADD11C,1.800000*%
%TD*%
%TA.AperFunction,ComponentPad*%
%ADD12C,1.200000*%
%TD*%
%TA.AperFunction,SMDPad,CuDef*%
%ADD13R,0.806000X0.864000*%
%TD*%
%TA.AperFunction,SMDPad,CuDef*%
%ADD14R,0.540000X0.790000*%
%TD*%
%TA.AperFunction,SMDPad,CuDef*%
%ADD15RotRect,0.300000X0.300000X45.000000*%
%TD*%
%TA.AperFunction,SMDPad,CuDef*%
%ADD16RotRect,0.250000X0.250000X45.000000*%
%TD*%
%TA.AperFunction,ComponentPad*%
%ADD17R,1.575000X1.575000*%
%TD*%
%TA.AperFunction,SMDPad,CuDef*%
%ADD18R,0.800000X0.900000*%
%TD*%
%TA.AperFunction,SMDPad,CuDef*%
%ADD19R,0.900000X0.800000*%
%TD*%
%TA.AperFunction,SMDPad,CuDef*%
%ADD20R,2.376000X1.900000*%
%TD*%
%TA.AperFunction,SMDPad,CuDef*%
%ADD21RotRect,1.500000X5.000000X135.000000*%
%TD*%
%TA.AperFunction,SMDPad,CuDef*%
%ADD22RotRect,0.300000X0.300000X135.000000*%
%TD*%
%TA.AperFunction,SMDPad,CuDef*%
%ADD23RotRect,0.250000X0.250000X135.000000*%
%TD*%
%TA.AperFunction,ComponentPad*%
%ADD24C,1.500000*%
%TD*%
%TA.AperFunction,ComponentPad*%
%ADD25R,1.500000X1.500000*%
%TD*%
%TA.AperFunction,SMDPad,CuDef*%
%ADD26RotRect,1.500000X5.000000X45.000000*%
%TD*%
%TA.AperFunction,SMDPad,CuDef*%
%ADD27RotRect,0.280000X0.700000X135.000000*%
%TD*%
%TA.AperFunction,SMDPad,CuDef*%
%ADD28RotRect,0.700000X0.280000X135.000000*%
%TD*%
%TA.AperFunction,SMDPad,CuDef*%
%ADD29RotRect,5.100000X5.100000X135.000000*%
%TD*%
%TA.AperFunction,SMDPad,CuDef*%
%ADD30R,0.790000X0.540000*%
%TD*%
%TA.AperFunction,ComponentPad*%
%ADD31O,2.800000X1.400000*%
%TD*%
%TA.AperFunction,SMDPad,CuDef*%
%ADD32RotRect,0.790000X0.540000X45.000000*%
%TD*%
%TA.AperFunction,SMDPad,CuDef*%
%ADD33R,0.800000X0.300000*%
%TD*%
%TA.AperFunction,SMDPad,CuDef*%
%ADD34R,0.300000X0.800000*%
%TD*%
%TA.AperFunction,SMDPad,CuDef*%
%ADD35R,5.600000X5.600000*%
%TD*%
%TA.AperFunction,SMDPad,CuDef*%
%ADD36RotRect,0.790000X0.540000X315.000000*%
%TD*%
%TA.AperFunction,ViaPad*%
%ADD37C,0.450000*%
%TD*%
%TA.AperFunction,Conductor*%
%ADD38C,0.200000*%
%TD*%
%TA.AperFunction,Conductor*%
%ADD39C,0.350000*%
%TD*%
%TA.AperFunction,Conductor*%
%ADD40C,0.250000*%
%TD*%
%TA.AperFunction,Conductor*%
%ADD41C,0.100000*%
%TD*%
%TA.AperFunction,Conductor*%
%ADD42C,0.500000*%
%TD*%
%TA.AperFunction,Conductor*%
%ADD43C,0.150000*%
%TD*%
G04 APERTURE END LIST*
D10*
%TO.P,U7,1*%
%TO.N,U7_1*%
X34616060Y-18787913D03*
D11*
%TO.P,U7,2*%
%TO.N,+5V*%
X32076060Y-18787913D03*
%TD*%
D12*
%TO.P,U2,1*%
%TO.N,RX_BBQN*%
X33242000Y-22322000D03*
%TO.P,U2,2*%
%TO.N,RX_BBQP_FEEDBACK*%
X31242000Y-22322000D03*
%TO.P,U2,3*%
%TO.N,RX_BBQP*%
X33242000Y-24322000D03*
%TO.P,U2,4*%
%TO.N,RX_BBQN_FEEDBACK*%
X31242000Y-24322000D03*
%TO.P,U2,5*%
%TO.N,RX_BBIN*%
X33242000Y-26322000D03*
%TO.P,U2,6*%
%TO.N,RX_BBIN_FEEDBACK*%
X31242000Y-26322000D03*
%TO.P,U2,7*%
%TO.N,RX_BBIP*%
X33242000Y-28322000D03*
%TO.P,U2,8*%
%TO.N,RX_BBIP_FEEDBACK*%
X31242000Y-28322000D03*
%TO.P,U2,9*%
%TO.N,TX_BBQN_FEEDBACK*%
X33242000Y-30322000D03*
%TO.P,U2,10*%
%TO.N,TX_BBIP*%
X31242000Y-30322000D03*
%TO.P,U2,11*%
%TO.N,TX_BBQP_FEEDBACK*%
X33242000Y-32322000D03*
%TO.P,U2,12*%
%TO.N,TX_BBIN*%
X31242000Y-32322000D03*
%TO.P,U2,13*%
%TO.N,TX_BBIN_FEEDBACK*%
X33242000Y-34322000D03*
%TO.P,U2,14*%
%TO.N,TX_BBQN*%
X31242000Y-34322000D03*
%TO.P,U2,15*%
%TO.N,TX_BBIP_FEEDBACK*%
X33242000Y-36322000D03*
%TO.P,U2,16*%
%TO.N,TX_BBQP*%
X31242000Y-36322000D03*
%TO.P,U2,17*%
%TO.N,U2_17*%
X33242000Y-38322000D03*
%TO.P,U2,18*%
%TO.N,U2_18*%
X31242000Y-38322000D03*
%TO.P,U2,19*%
%TO.N,U2_19*%
X33242000Y-40322000D03*
%TO.P,U2,20*%
%TO.N,U2_20*%
X31242000Y-40322000D03*
%TD*%
D13*
%TO.P,R1,1*%
%TO.N,C22_2*%
X38871000Y-28194000D03*
%TO.P,R1,2*%
%TO.N,ELPOUT*%
X40377000Y-28194000D03*
%TD*%
D14*
%TO.P,C9,1*%
%TO.N,GND*%
X49530000Y-22315000D03*
%TO.P,C9,2*%
%TO.N,VCC*%
X49530000Y-23405000D03*
%TD*%
D15*
%TO.P,ANT_BALUN1,1*%
%TO.N,GND*%
X55118000Y-32611553D03*
D16*
%TO.P,ANT_BALUN1,2*%
%TO.N,ANT_SMA1_5*%
X55471553Y-32258000D03*
%TO.P,ANT_BALUN1,3*%
%TO.N,U5_5*%
X55118000Y-31904447D03*
%TO.P,ANT_BALUN1,4*%
%TO.N,U5_4*%
X54764447Y-32258000D03*
%TD*%
D17*
%TO.P,J2,1*%
%TO.N,DB6*%
X52070000Y-38354000D03*
%TD*%
D18*
%TO.P,C23,1*%
%TO.N,GND*%
X40324000Y-31242000D03*
%TO.P,C23,2*%
%TO.N,C23_2*%
X38924000Y-31242000D03*
%TD*%
D14*
%TO.P,C1,1*%
%TO.N,GND*%
X52324000Y-33819000D03*
%TO.P,C1,2*%
%TO.N,VCC*%
X52324000Y-32729000D03*
%TD*%
D19*
%TO.P,C36,1*%
%TO.N,GND*%
X3302000Y-22668000D03*
%TO.P,C36,2*%
%TO.N,+5V*%
X3302000Y-24068000D03*
%TD*%
D20*
%TO.P,C16,1*%
%TO.N,GND*%
X5842000Y-20553000D03*
%TO.P,C16,2*%
%TO.N,+5V*%
X5842000Y-24151000D03*
%TD*%
D18*
%TO.P,C24,1*%
%TO.N,U1_46*%
X28002000Y-29972000D03*
%TO.P,C24,2*%
%TO.N,GND*%
X29402000Y-29972000D03*
%TD*%
D21*
%TO.P,ANT_SMA2,1*%
%TO.N,GND*%
X60745544Y-23280544D03*
%TO.P,ANT_SMA2,2*%
X56856456Y-19391456D03*
%TO.P,ANT_SMA2,5*%
%TO.N,ANT_BALUN2_2*%
X58801000Y-21336000D03*
%TD*%
D14*
%TO.P,C10,1*%
%TO.N,GND*%
X48006000Y-35343000D03*
%TO.P,C10,2*%
%TO.N,VCC*%
X48006000Y-34253000D03*
%TD*%
D17*
%TO.P,J7,1*%
%TO.N,DB1*%
X44196000Y-23114000D03*
%TD*%
D22*
%TO.P,ANT_BALUN2,1*%
%TO.N,GND*%
X55979553Y-24892000D03*
D23*
%TO.P,ANT_BALUN2,2*%
%TO.N,ANT_BALUN2_2*%
X55626000Y-24538447D03*
%TO.P,ANT_BALUN2,3*%
%TO.N,ANT_BALUN2_3*%
X55272447Y-24892000D03*
%TO.P,ANT_BALUN2,4*%
%TO.N,ANT_BALUN2_4*%
X55626000Y-25245553D03*
%TD*%
D18*
%TO.P,C26,1*%
%TO.N,GND*%
X20382000Y-19050000D03*
%TO.P,C26,2*%
%TO.N,VCCDAC*%
X21782000Y-19050000D03*
%TD*%
D20*
%TO.P,C15,1*%
%TO.N,+5V*%
X5588000Y-26903000D03*
%TO.P,C15,2*%
%TO.N,GND*%
X5588000Y-30501000D03*
%TD*%
D18*
%TO.P,C20,1*%
%TO.N,U1_48*%
X28002000Y-28448000D03*
%TO.P,C20,2*%
%TO.N,GND*%
X29402000Y-28448000D03*
%TD*%
D24*
%TO.P,SYS_CTRL,14*%
%TO.N,BBC_CS*%
X48768000Y-18688011D03*
%TO.P,SYS_CTRL,13*%
%TO.N,TR_SCLK*%
X48768000Y-20688011D03*
%TO.P,SYS_CTRL,12*%
%TO.N,SYS_CTRL_6*%
X46768000Y-18688011D03*
%TO.P,SYS_CTRL,11*%
%TO.N,TR_DIN*%
X46768000Y-20688011D03*
%TO.P,SYS_CTRL,10*%
%TO.N,BBC_SCLK*%
X44768000Y-18688011D03*
%TO.P,SYS_CTRL,9*%
%TO.N,TR_CS#*%
X44768000Y-20688011D03*
%TO.P,SYS_CTRL,8*%
%TO.N,SYS_CTRL_8*%
X42768000Y-18688011D03*
%TO.P,SYS_CTRL,7*%
%TO.N,TR_SHDN#*%
X42768000Y-20688011D03*
%TO.P,SYS_CTRL,6*%
%TO.N,BBC_DIN*%
X40768000Y-18688011D03*
%TO.P,SYS_CTRL,5*%
%TO.N,RX_HP_CTRL*%
X40768000Y-20688011D03*
%TO.P,SYS_CTRL,4*%
%TO.N,U7_1*%
X38768000Y-18688011D03*
%TO.P,SYS_CTRL,3*%
%TO.N,RXTX_MODE*%
X38768000Y-20688011D03*
%TO.P,SYS_CTRL,2*%
%TO.N,GND*%
X36768000Y-18688011D03*
D25*
%TO.P,SYS_CTRL,1*%
%TO.N,VCC*%
X36768000Y-20688011D03*
%TD*%
D14*
%TO.P,C8,1*%
%TO.N,GND*%
X50546000Y-35597000D03*
%TO.P,C8,2*%
%TO.N,VCC*%
X50546000Y-34507000D03*
%TD*%
D19*
%TO.P,C21,1*%
%TO.N,GND*%
X42629547Y-31434000D03*
%TO.P,C21,2*%
%TO.N,ELPOUT*%
X42629547Y-30034000D03*
%TD*%
D12*
%TO.P,U3,1*%
%TO.N,DAC_IN0*%
X14192000Y-21622000D03*
%TO.P,U3,2*%
%TO.N,ADC_OUT7*%
X12192000Y-21622000D03*
%TO.P,U3,3*%
%TO.N,DAC_IN1*%
X14192000Y-23622000D03*
%TO.P,U3,4*%
%TO.N,ADC_OUT6*%
X12192000Y-23622000D03*
%TO.P,U3,5*%
%TO.N,DAC_IN2*%
X14192000Y-25622000D03*
%TO.P,U3,6*%
%TO.N,ADC_OUT5*%
X12192000Y-25622000D03*
%TO.P,U3,7*%
%TO.N,DAC_IN3*%
X14192000Y-27622000D03*
%TO.P,U3,8*%
%TO.N,ADC_OUT4*%
X12192000Y-27622000D03*
%TO.P,U3,9*%
%TO.N,DAC_IN4*%
X14192000Y-29622000D03*
%TO.P,U3,10*%
%TO.N,ADC_OUT3*%
X12192000Y-29622000D03*
%TO.P,U3,11*%
%TO.N,DAC_IN5*%
X14192000Y-31622000D03*
%TO.P,U3,12*%
%TO.N,ADC_OUT2*%
X12192000Y-31622000D03*
%TO.P,U3,13*%
%TO.N,DAC_IN6*%
X14192000Y-33622000D03*
%TO.P,U3,14*%
%TO.N,ADC_OUT1*%
X12192000Y-33622000D03*
%TO.P,U3,15*%
%TO.N,DAC_IN7*%
X14192000Y-35622000D03*
%TO.P,U3,16*%
%TO.N,ADC_OUT0*%
X12192000Y-35622000D03*
%TO.P,U3,17*%
%TO.N,DAC_IN8*%
X14192000Y-37622000D03*
%TO.P,U3,18*%
%TO.N,DAC_IN9*%
X12192000Y-37622000D03*
%TO.P,U3,19*%
%TO.N,U3_19*%
X14192000Y-39622000D03*
%TO.P,U3,20*%
%TO.N,U3_20*%
X12192000Y-39622000D03*
%TD*%
D17*
%TO.P,J6,1*%
%TO.N,DB2*%
X52578000Y-20828000D03*
%TD*%
D26*
%TO.P,ANT_SMA1,1*%
%TO.N,GND*%
X56856456Y-37504544D03*
%TO.P,ANT_SMA1,2*%
X60745544Y-33615456D03*
%TO.P,ANT_SMA1,5*%
%TO.N,ANT_SMA1_5*%
X58801000Y-35560000D03*
%TD*%
D27*
%TO.P,U1,1*%
%TO.N,U1_1*%
X26719799Y-25937289D03*
%TO.P,U1,2*%
%TO.N,VCCDAC*%
X26366245Y-25583735D03*
%TO.P,U1,3*%
%TO.N,RX_BBIP_FEEDBACK*%
X26012692Y-25230182D03*
%TO.P,U1,4*%
%TO.N,RX_BBIN_FEEDBACK*%
X25659138Y-24876629D03*
%TO.P,U1,5*%
%TO.N,GND*%
X25305585Y-24523075D03*
%TO.P,U1,6*%
%TO.N,BBC_CLK*%
X24952032Y-24169522D03*
%TO.P,U1,7*%
%TO.N,GND*%
X24598478Y-23815968D03*
%TO.P,U1,8*%
%TO.N,VCCDAC*%
X24244925Y-23462415D03*
%TO.P,U1,9*%
%TO.N,RX_BBQN_FEEDBACK*%
X23891371Y-23108862D03*
%TO.P,U1,10*%
%TO.N,RX_BBQP_FEEDBACK*%
X23537818Y-22755308D03*
%TO.P,U1,11*%
%TO.N,VCCDAC*%
X23184265Y-22401755D03*
%TO.P,U1,12*%
%TO.N,GND*%
X22830711Y-22048201D03*
D28*
%TO.P,U1,13*%
%TO.N,ADC_OUT0*%
X21872582Y-22047494D03*
%TO.P,U1,14*%
%TO.N,ADC_OUT1*%
X21519028Y-22401048D03*
%TO.P,U1,15*%
%TO.N,ADC_OUT2*%
X21165475Y-22754601D03*
%TO.P,U1,16*%
%TO.N,ADC_OUT3*%
X20811921Y-23108154D03*
%TO.P,U1,17*%
%TO.N,GND*%
X20458368Y-23461708D03*
%TO.P,U1,18*%
%TO.N,VCCDAC*%
X20104815Y-23815261D03*
%TO.P,U1,19*%
%TO.N,ADC_OUT4*%
X19751261Y-24168815D03*
%TO.P,U1,20*%
%TO.N,ADC_OUT5*%
X19397708Y-24522368D03*
%TO.P,U1,21*%
%TO.N,ADC_OUT6*%
X19044154Y-24875921D03*
%TO.P,U1,22*%
%TO.N,ADC_OUT7*%
X18690601Y-25229475D03*
%TO.P,U1,23*%
%TO.N,DAC_IN0*%
X18337048Y-25583028D03*
%TO.P,U1,24*%
%TO.N,DAC_IN1*%
X17983494Y-25936582D03*
D27*
%TO.P,U1,25*%
%TO.N,DAC_IN2*%
X17984201Y-26894711D03*
%TO.P,U1,26*%
%TO.N,DAC_IN3*%
X18337755Y-27248265D03*
%TO.P,U1,27*%
%TO.N,DAC_IN4*%
X18691308Y-27601818D03*
%TO.P,U1,28*%
%TO.N,DAC_IN5*%
X19044862Y-27955371D03*
%TO.P,U1,29*%
%TO.N,DAC_IN6*%
X19398415Y-28308925D03*
%TO.P,U1,30*%
%TO.N,DAC_IN7*%
X19751968Y-28662478D03*
%TO.P,U1,31*%
%TO.N,DAC_IN8*%
X20105522Y-29016032D03*
%TO.P,U1,32*%
%TO.N,DAC_IN9*%
X20459075Y-29369585D03*
%TO.P,U1,33*%
%TO.N,VCCDAC*%
X20812629Y-29723138D03*
%TO.P,U1,34*%
%TO.N,BBC_DIN*%
X21166182Y-30076692D03*
%TO.P,U1,35*%
%TO.N,BBC_SCLK*%
X21519735Y-30430245D03*
%TO.P,U1,36*%
%TO.N,BBC_CS*%
X21873289Y-30783799D03*
D28*
%TO.P,U1,37*%
%TO.N,GND*%
X22830711Y-30783799D03*
%TO.P,U1,38*%
%TO.N,U1_38*%
X23184265Y-30430245D03*
%TO.P,U1,39*%
%TO.N,VCCDAC*%
X23537818Y-30076692D03*
%TO.P,U1,40*%
%TO.N,TX_BBQP*%
X23891371Y-29723138D03*
%TO.P,U1,41*%
%TO.N,TX_BBQN*%
X24244925Y-29369585D03*
%TO.P,U1,42*%
%TO.N,GND*%
X24598478Y-29016032D03*
%TO.P,U1,43*%
%TO.N,VCCDAC*%
X24952032Y-28662478D03*
%TO.P,U1,44*%
%TO.N,TX_BBIN*%
X25305585Y-28308925D03*
%TO.P,U1,45*%
%TO.N,TX_BBIP*%
X25659138Y-27955371D03*
%TO.P,U1,46*%
%TO.N,U1_46*%
X26012692Y-27601818D03*
%TO.P,U1,47*%
%TO.N,U1_47*%
X26366245Y-27248265D03*
%TO.P,U1,48*%
%TO.N,U1_48*%
X26719799Y-26894711D03*
D29*
%TO.P,U1,49*%
%TO.N,GND*%
X22352000Y-26416000D03*
%TD*%
D19*
%TO.P,C27,1*%
%TO.N,GND*%
X24384000Y-33974000D03*
%TO.P,C27,2*%
%TO.N,VCCDAC*%
X24384000Y-32574000D03*
%TD*%
%TO.P,C14,1*%
%TO.N,GND*%
X1778000Y-22668000D03*
%TO.P,C14,2*%
%TO.N,+5V*%
X1778000Y-24068000D03*
%TD*%
%TO.P,X3,1*%
%TO.N,X3_1*%
X40324000Y-25654000D03*
%TO.P,X3,2*%
%TO.N,GND*%
X38924000Y-25654000D03*
%TO.P,X3,3*%
X38924000Y-26754000D03*
%TO.P,X3,4*%
X40324000Y-26754000D03*
%TD*%
D17*
%TO.P,J3,1*%
%TO.N,DB5*%
X52578000Y-23622000D03*
%TD*%
%TO.P,J1,1*%
%TO.N,DB7*%
X62484000Y-30988000D03*
%TD*%
D18*
%TO.P,C35,1*%
%TO.N,GND*%
X1586000Y-28702000D03*
%TO.P,C35,2*%
%TO.N,U4_3*%
X2986000Y-28702000D03*
%TD*%
D30*
%TO.P,C4,1*%
%TO.N,X3_1*%
X41619000Y-27686000D03*
%TO.P,C4,2*%
%TO.N,U5_29*%
X42709000Y-27686000D03*
%TD*%
D18*
%TO.P,C19,1*%
%TO.N,U1_1*%
X28002000Y-26924000D03*
%TO.P,C19,2*%
%TO.N,GND*%
X29402000Y-26924000D03*
%TD*%
D31*
%TO.P,DC1,1*%
%TO.N,+5V*%
X1438000Y-25711000D03*
%TO.P,DC1,2*%
%TO.N,GND*%
X1438000Y-31311000D03*
%TD*%
D19*
%TO.P,C39,1*%
%TO.N,GND*%
X26748965Y-19525577D03*
%TO.P,C39,2*%
%TO.N,VCCDAC*%
X26748965Y-20925577D03*
%TD*%
D32*
%TO.P,C12,1*%
%TO.N,GND*%
X45588627Y-34929373D03*
%TO.P,C12,2*%
%TO.N,VCC*%
X46359373Y-34158627D03*
%TD*%
D19*
%TO.P,C22,1*%
%TO.N,GND*%
X37455374Y-25390280D03*
%TO.P,C22,2*%
%TO.N,C22_2*%
X37455374Y-26790280D03*
%TD*%
D10*
%TO.P,U6,1*%
%TO.N,BBC_CLK*%
X28956000Y-22860000D03*
D11*
%TO.P,U6,2*%
%TO.N,INT_CLK*%
X28956000Y-20320000D03*
%TD*%
D30*
%TO.P,C5,1*%
%TO.N,GND*%
X42963000Y-28702000D03*
%TO.P,C5,2*%
%TO.N,U5_29*%
X41873000Y-28702000D03*
%TD*%
D17*
%TO.P,J5,1*%
%TO.N,DB3*%
X62484000Y-28194000D03*
%TD*%
D18*
%TO.P,C29,1*%
%TO.N,GND*%
X21906000Y-20574000D03*
%TO.P,C29,2*%
%TO.N,VCCDAC*%
X23306000Y-20574000D03*
%TD*%
D19*
%TO.P,C41,1*%
%TO.N,GND*%
X25386439Y-19521534D03*
%TO.P,C41,2*%
%TO.N,VCCDAC*%
X25386439Y-20921534D03*
%TD*%
D13*
%TO.P,R2,1*%
%TO.N,C23_2*%
X38871000Y-29718000D03*
%TO.P,R2,2*%
%TO.N,ELPOUT*%
X40377000Y-29718000D03*
%TD*%
D30*
%TO.P,C13,1*%
%TO.N,GND*%
X55409000Y-28702000D03*
%TO.P,C13,2*%
%TO.N,VCC*%
X54319000Y-28702000D03*
%TD*%
D17*
%TO.P,CLK1,1*%
%TO.N,BBC_CLK*%
X26670000Y-22860000D03*
%TD*%
D33*
%TO.P,U5,1*%
%TO.N,VCC*%
X52014000Y-31706000D03*
%TO.P,U5,2*%
%TO.N,GND*%
X52014000Y-31205000D03*
%TO.P,U5,3*%
%TO.N,DB6*%
X52014000Y-30705000D03*
%TO.P,U5,4*%
%TO.N,U5_4*%
X52014000Y-30206000D03*
%TO.P,U5,5*%
%TO.N,U5_5*%
X52014000Y-29706000D03*
%TO.P,U5,6*%
%TO.N,DB7*%
X52014000Y-29206000D03*
%TO.P,U5,7*%
%TO.N,VCC*%
X52014000Y-28706000D03*
%TO.P,U5,8*%
%TO.N,DB3*%
X52014000Y-28206000D03*
%TO.P,U5,9*%
%TO.N,ANT_BALUN2_4*%
X52014000Y-27705000D03*
%TO.P,U5,10*%
%TO.N,ANT_BALUN2_3*%
X52014000Y-27205000D03*
%TO.P,U5,11*%
%TO.N,DB2*%
X52014000Y-26706000D03*
%TO.P,U5,12*%
%TO.N,TR_SHDN#*%
X52014000Y-26207000D03*
D34*
%TO.P,U5,13*%
%TO.N,VCC*%
X51265000Y-25455000D03*
%TO.P,U5,14*%
%TO.N,DB5*%
X50765000Y-25455000D03*
%TO.P,U5,15*%
%TO.N,TR_CS#*%
X50264000Y-25455000D03*
%TO.P,U5,16*%
%TO.N,U5_16*%
X49764000Y-25455000D03*
%TO.P,U5,17*%
%TO.N,VCC*%
X49264000Y-25455000D03*
%TO.P,U5,18*%
%TO.N,TR_SCLK*%
X48764000Y-25455000D03*
%TO.P,U5,19*%
%TO.N,TR_DIN*%
X48265000Y-25455000D03*
%TO.P,U5,20*%
%TO.N,VCC*%
X47764000Y-25455000D03*
%TO.P,U5,21*%
%TO.N,CLK_BUFFR*%
X47264000Y-25455000D03*
%TO.P,U5,22*%
%TO.N,LOCK_DETECT*%
X46764000Y-25455000D03*
%TO.P,U5,23*%
%TO.N,DB1*%
X46263000Y-25455000D03*
%TO.P,U5,24*%
%TO.N,C23_2*%
X45763000Y-25455000D03*
D33*
%TO.P,U5,25*%
%TO.N,VCC*%
X45014000Y-26207000D03*
%TO.P,U5,26*%
%TO.N,GND*%
X45014000Y-26706000D03*
%TO.P,U5,27*%
%TO.N,VCC*%
X45014000Y-27205000D03*
%TO.P,U5,28*%
%TO.N,U5_28*%
X45014000Y-27705000D03*
%TO.P,U5,29*%
%TO.N,U5_29*%
X45014000Y-28206000D03*
%TO.P,U5,30*%
%TO.N,VCC*%
X45014000Y-28706000D03*
%TO.P,U5,31*%
%TO.N,GND*%
X45014000Y-29206000D03*
%TO.P,U5,32*%
%TO.N,ELPOUT*%
X45014000Y-29706000D03*
%TO.P,U5,33*%
%TO.N,U5_33*%
X45014000Y-30206000D03*
%TO.P,U5,34*%
%TO.N,DB4*%
X45014000Y-30705000D03*
%TO.P,U5,35*%
%TO.N,RX_BBQN*%
X45014000Y-31205000D03*
%TO.P,U5,36*%
%TO.N,RX_BBQP*%
X45014000Y-31706000D03*
D34*
%TO.P,U5,37*%
%TO.N,RX_BBIN*%
X45763000Y-32455000D03*
%TO.P,U5,38*%
%TO.N,RX_BBIP*%
X46263000Y-32455000D03*
%TO.P,U5,39*%
%TO.N,VCC*%
X46764000Y-32455000D03*
%TO.P,U5,40*%
%TO.N,RX_HP_CTRL*%
X47264000Y-32455000D03*
%TO.P,U5,41*%
%TO.N,VCC*%
X47764000Y-32455000D03*
%TO.P,U5,42*%
%TO.N,TX_BBQN_FEEDBACK*%
X48264000Y-32455000D03*
%TO.P,U5,43*%
%TO.N,TX_BBQP_FEEDBACK*%
X48764000Y-32455000D03*
%TO.P,U5,44*%
%TO.N,TX_BBIN_FEEDBACK*%
X49264000Y-32455000D03*
%TO.P,U5,45*%
%TO.N,TX_BBIP_FEEDBACK*%
X49764000Y-32455000D03*
%TO.P,U5,46*%
%TO.N,VCC*%
X50264000Y-32455000D03*
%TO.P,U5,47*%
%TO.N,GND*%
X50765000Y-32455000D03*
%TO.P,U5,48*%
%TO.N,RXTX_MODE*%
X51265000Y-32455000D03*
D35*
%TO.P,U5,49*%
%TO.N,GND*%
X48514000Y-28956000D03*
%TD*%
D17*
%TO.P,J4,1*%
%TO.N,DB4*%
X39624000Y-33274000D03*
%TD*%
D30*
%TO.P,C6,1*%
%TO.N,VCC*%
X44766723Y-25301875D03*
%TO.P,C6,2*%
%TO.N,GND*%
X43676723Y-25301875D03*
%TD*%
%TO.P,C3,1*%
%TO.N,U5_28*%
X42709000Y-26670000D03*
%TO.P,C3,2*%
%TO.N,X3_1*%
X41619000Y-26670000D03*
%TD*%
%TO.P,C2,1*%
%TO.N,U5_33*%
X42963000Y-33020000D03*
%TO.P,C2,2*%
%TO.N,GND*%
X41873000Y-33020000D03*
%TD*%
D14*
%TO.P,C7,1*%
%TO.N,VCC*%
X47498000Y-23913000D03*
%TO.P,C7,2*%
%TO.N,GND*%
X47498000Y-22823000D03*
%TD*%
D36*
%TO.P,C11,1*%
%TO.N,GND*%
X35154411Y-21510471D03*
%TO.P,C11,2*%
%TO.N,VCC*%
X35925157Y-22281217D03*
%TD*%
D18*
%TO.P,C37,1*%
%TO.N,GND*%
X29230592Y-25367821D03*
%TO.P,C37,2*%
%TO.N,VCCDAC*%
X27830592Y-25367821D03*
%TD*%
D37*
%TO.N,VCC*%
X44842601Y-25518260D03*
%TO.N,GND*%
X40132000Y-26924000D03*
X56134000Y-23114000D03*
X55626000Y-23622000D03*
X55118000Y-24130000D03*
X55118000Y-26924000D03*
X55626000Y-26416000D03*
X56134000Y-25908000D03*
X56642000Y-25400000D03*
X56896000Y-24638000D03*
X57404000Y-24130000D03*
X58928000Y-30734000D03*
X58166000Y-30734000D03*
X57404000Y-30734000D03*
X55626000Y-34290000D03*
X55626000Y-33528000D03*
X56642000Y-30734000D03*
X55880000Y-30734000D03*
X57150000Y-32766000D03*
X56642000Y-32258000D03*
X56134000Y-31750000D03*
X55626000Y-31242000D03*
X55118000Y-30734000D03*
X57150000Y-28702000D03*
X56388000Y-28702000D03*
X22860000Y-23876000D03*
X21844000Y-23876000D03*
X20066000Y-26416000D03*
X20574000Y-26162000D03*
X21082000Y-26670000D03*
X20574000Y-26924000D03*
X22860000Y-32004000D03*
X22860000Y-31496000D03*
X23368000Y-35560000D03*
X23368000Y-36068000D03*
X22860000Y-36068000D03*
X22860000Y-35560000D03*
X8382000Y-16510000D03*
X7874000Y-16764000D03*
X7620000Y-17272000D03*
X29210000Y-30988000D03*
X53086000Y-33782000D03*
X50546000Y-35560000D03*
X48006000Y-35306000D03*
X46453737Y-30448211D03*
X46958620Y-30475502D03*
X46958620Y-30966739D03*
X46467383Y-30980385D03*
X45009928Y-35481833D03*
X39616538Y-30460272D03*
X41544860Y-29627030D03*
X46736000Y-27178000D03*
X46228000Y-27178000D03*
X46736000Y-26670000D03*
X46228000Y-26670000D03*
X35052000Y-21336000D03*
X40386000Y-23114000D03*
X42164000Y-25400000D03*
X47244000Y-22860000D03*
X49276000Y-22352000D03*
X26162000Y-19558000D03*
X21082000Y-19812000D03*
X22352000Y-23622000D03*
%TO.N,TR_SHDN#*%
X50800000Y-18796000D03*
%TO.N,VCCDAC*%
X24384000Y-30988000D03*
X24982254Y-22363413D03*
X23560005Y-21446511D03*
%TO.N,GND*%
X6096000Y-21336000D03*
%TO.N,U4_3*%
X4064000Y-28702000D03*
X3556000Y-28702000D03*
%TO.N,VCCDAC*%
X27185799Y-25308500D03*
%TO.N,GND*%
X25908000Y-30226000D03*
%TO.N,VCCDAC*%
X25637500Y-29431548D03*
X20205208Y-30365208D03*
%TO.N,GND*%
X18288000Y-21844000D03*
%TO.N,VCCDAC*%
X18990101Y-22665899D03*
%TO.N,VCC*%
X52832000Y-28702000D03*
X52832000Y-32258000D03*
X50500500Y-33782000D03*
X47879000Y-33655000D03*
X46657117Y-33609021D03*
X44196000Y-27178000D03*
X44196000Y-28702000D03*
X47752000Y-24638000D03*
X49276000Y-24638000D03*
X52070000Y-25400000D03*
%TO.N,DB1*%
X46228000Y-24638000D03*
%TD*%
D38*
%TO.N,GND*%
X53594000Y-33274000D02*
X53086000Y-33782000D01*
X53594000Y-32185000D02*
X53594000Y-33274000D01*
X52014000Y-31205000D02*
X52614000Y-31205000D01*
X52614000Y-31205000D02*
X53594000Y-32185000D01*
%TO.N,VCC*%
X52280000Y-31706000D02*
X52014000Y-31706000D01*
X52832000Y-32258000D02*
X52280000Y-31706000D01*
%TO.N,DB6*%
X54023381Y-31941200D02*
X54023381Y-36400619D01*
X54023381Y-36400619D02*
X52070000Y-38354000D01*
X52787181Y-30705000D02*
X54023381Y-31941200D01*
X52014000Y-30705000D02*
X52787181Y-30705000D01*
%TO.N,U5_4*%
X52853867Y-30206000D02*
X52014000Y-30206000D01*
X54641223Y-31993356D02*
X52853867Y-30206000D01*
X54764447Y-32258000D02*
X54641223Y-32134776D01*
X54641223Y-32134776D02*
X54641223Y-31993356D01*
%TO.N,GND*%
X57150000Y-24892000D02*
X59134088Y-24892000D01*
X56896000Y-24638000D02*
X57150000Y-24892000D01*
X56642000Y-24892000D02*
X56896000Y-24638000D01*
D39*
X55409000Y-28702000D02*
X57150000Y-28702000D01*
X22860000Y-31496000D02*
X22860000Y-30834300D01*
X24384000Y-34544000D02*
X23368000Y-35560000D01*
X24384000Y-33974000D02*
X24384000Y-34544000D01*
X22860000Y-30834300D02*
X22820105Y-30794405D01*
X22860000Y-35560000D02*
X22860000Y-32004000D01*
X5842000Y-19050000D02*
X5842000Y-20553000D01*
X8382000Y-16510000D02*
X5842000Y-19050000D01*
D38*
X29402000Y-25539229D02*
X29230592Y-25367821D01*
X29402000Y-29972000D02*
X29402000Y-25539229D01*
X29210000Y-30164000D02*
X29402000Y-29972000D01*
X29210000Y-30988000D02*
X29210000Y-30164000D01*
%TO.N,TR_SCLK*%
X48751000Y-25442000D02*
X48764000Y-25455000D01*
X48751000Y-20705011D02*
X48751000Y-25442000D01*
X48768000Y-20688011D02*
X48751000Y-20705011D01*
%TO.N,GND*%
X59134088Y-24892000D02*
X60745544Y-23280544D01*
X55979553Y-24892000D02*
X56642000Y-24892000D01*
X55118000Y-32611553D02*
X55118000Y-35766088D01*
X55118000Y-35766088D02*
X56856456Y-37504544D01*
X51116000Y-35027000D02*
X50546000Y-35597000D01*
X51116000Y-33532314D02*
X51116000Y-35027000D01*
X50776000Y-33192314D02*
X51116000Y-33532314D01*
X50765000Y-32455000D02*
X50776000Y-32466000D01*
X50776000Y-32466000D02*
X50776000Y-33192314D01*
%TO.N,VCC*%
X50264000Y-32992000D02*
X50264000Y-32455000D01*
X50500500Y-33482500D02*
X50376000Y-33358000D01*
X50376000Y-33358000D02*
X50376000Y-33104000D01*
X50500500Y-33782000D02*
X50500500Y-33482500D01*
X50376000Y-33104000D02*
X50264000Y-32992000D01*
D40*
X50546000Y-33827500D02*
X50546000Y-34507000D01*
X50500500Y-33782000D02*
X50546000Y-33827500D01*
D38*
%TO.N,GND*%
X52361000Y-33782000D02*
X52324000Y-33819000D01*
X53086000Y-33782000D02*
X52361000Y-33782000D01*
X45562388Y-34929373D02*
X45009928Y-35481833D01*
X45588627Y-34929373D02*
X45562388Y-34929373D01*
X45009928Y-35508072D02*
X45085000Y-35433000D01*
X45009928Y-35481833D02*
X45009928Y-35508072D01*
X44958000Y-35560000D02*
X44704000Y-35560000D01*
X41873000Y-32791000D02*
X40324000Y-31242000D01*
X41873000Y-33020000D02*
X41873000Y-32791000D01*
X42629547Y-32263453D02*
X41873000Y-33020000D01*
X42629547Y-31434000D02*
X42629547Y-32263453D01*
X40324000Y-31242000D02*
X40324000Y-31167734D01*
X40324000Y-31167734D02*
X39616538Y-30460272D01*
X41384146Y-29627030D02*
X41475116Y-29536060D01*
X41544860Y-29627030D02*
X41384146Y-29627030D01*
X41544860Y-29466316D02*
X41544860Y-29627030D01*
%TO.N,ELPOUT*%
X42366917Y-30226000D02*
X40885000Y-30226000D01*
X42629547Y-29963370D02*
X42366917Y-30226000D01*
X40885000Y-30226000D02*
X40377000Y-29718000D01*
%TO.N,GND*%
X41677176Y-29334000D02*
X41544860Y-29466316D01*
X42331000Y-29334000D02*
X41677176Y-29334000D01*
X42963000Y-28702000D02*
X42331000Y-29334000D01*
X44993000Y-29227000D02*
X45014000Y-29206000D01*
X43488000Y-29227000D02*
X44993000Y-29227000D01*
X42963000Y-28702000D02*
X43488000Y-29227000D01*
D41*
X35052000Y-21336000D02*
X35154411Y-21510471D01*
D39*
X38109720Y-25390280D02*
X40386000Y-23114000D01*
X37455374Y-25390280D02*
X38109720Y-25390280D01*
X38924000Y-24576000D02*
X40386000Y-23114000D01*
X38924000Y-26754000D02*
X38924000Y-24576000D01*
X43578598Y-25400000D02*
X43676723Y-25301875D01*
X42164000Y-25400000D02*
X43578598Y-25400000D01*
D38*
%TO.N,TR_SHDN#*%
X51308000Y-19304000D02*
X50800000Y-18796000D01*
X51562000Y-21915500D02*
X51308000Y-21661500D01*
X53665500Y-22677500D02*
X52903500Y-21915500D01*
X52014000Y-26207000D02*
X53665500Y-24555500D01*
X53665500Y-24555500D02*
X53665500Y-22677500D01*
X52903500Y-21915500D02*
X51562000Y-21915500D01*
X51308000Y-21661500D02*
X51308000Y-19304000D01*
%TO.N,VCC*%
X52832000Y-28702000D02*
X54319000Y-28702000D01*
%TO.N,DB7*%
X53085239Y-29306000D02*
X53751239Y-29972000D01*
X52714000Y-29306000D02*
X53085239Y-29306000D01*
X61468000Y-29972000D02*
X62484000Y-30988000D01*
X52614000Y-29206000D02*
X52714000Y-29306000D01*
X53751239Y-29972000D02*
X61468000Y-29972000D01*
X52014000Y-29206000D02*
X52614000Y-29206000D01*
%TO.N,DB3*%
X62054619Y-27764619D02*
X62484000Y-28194000D01*
X53672619Y-27764619D02*
X62054619Y-27764619D01*
X53282238Y-28155000D02*
X53672619Y-27764619D01*
X52065000Y-28155000D02*
X53282238Y-28155000D01*
X52014000Y-28206000D02*
X52065000Y-28155000D01*
D40*
%TO.N,VCCDAC*%
X20205208Y-30330559D02*
X20812629Y-29723138D01*
D38*
X20205208Y-30365208D02*
X20205208Y-30330559D01*
%TO.N,DAC_IN9*%
X13178000Y-38608000D02*
X12192000Y-37622000D01*
X17818000Y-35268793D02*
X14478793Y-38608000D01*
X17818000Y-32010660D02*
X17818000Y-35268793D01*
X14478793Y-38608000D02*
X13178000Y-38608000D01*
X20459075Y-29369585D02*
X17818000Y-32010660D01*
%TO.N,DAC_IN8*%
X17418000Y-34396000D02*
X14192000Y-37622000D01*
X17418000Y-31703554D02*
X17418000Y-34396000D01*
X20105522Y-29016032D02*
X17418000Y-31703554D01*
%TO.N,DAC_IN7*%
X17018000Y-31396446D02*
X17018000Y-32796000D01*
X19751968Y-28662478D02*
X17018000Y-31396446D01*
X17018000Y-32796000D02*
X14192000Y-35622000D01*
%TO.N,VCCDAC*%
X25014000Y-22331667D02*
X25014000Y-20960000D01*
X24982254Y-22363413D02*
X25014000Y-22331667D01*
X25014000Y-22395159D02*
X24982254Y-22363413D01*
%TO.N,GND*%
X27686000Y-20462612D02*
X26748965Y-19525577D01*
X27498965Y-21625577D02*
X27686000Y-21438542D01*
X25729423Y-21625577D02*
X27498965Y-21625577D01*
X27686000Y-21438542D02*
X27686000Y-20462612D01*
X25582500Y-22831946D02*
X25582500Y-21772500D01*
X25582500Y-21772500D02*
X25729423Y-21625577D01*
X24598478Y-23815968D02*
X25582500Y-22831946D01*
%TO.N,RX_BBQN_FEEDBACK*%
X30342000Y-23422000D02*
X31242000Y-24322000D01*
X24614000Y-18322002D02*
X30342000Y-18322002D01*
X24614000Y-21700665D02*
X24614000Y-18322002D01*
X24360005Y-21954660D02*
X24614000Y-21700665D01*
X24360005Y-22640228D02*
X24360005Y-21954660D01*
X30342000Y-18322002D02*
X30342000Y-23422000D01*
X23891371Y-23108862D02*
X24360005Y-22640228D01*
%TO.N,RX_BBQP_FEEDBACK*%
X23960005Y-21788974D02*
X23960005Y-22333121D01*
X24085005Y-18131007D02*
X24085005Y-21663974D01*
X23960005Y-22333121D02*
X23537818Y-22755308D01*
X23876000Y-17922002D02*
X24085005Y-18131007D01*
X24085005Y-21663974D02*
X23960005Y-21788974D01*
X30742000Y-17922002D02*
X23876000Y-17922002D01*
X30742000Y-21822000D02*
X30742000Y-17922002D01*
X31242000Y-22322000D02*
X30742000Y-21822000D01*
%TO.N,VCCDAC*%
X23560005Y-22026015D02*
X23560005Y-20828005D01*
X23184265Y-22401755D02*
X23560005Y-22026015D01*
X23560005Y-20828005D02*
X21782000Y-19050000D01*
X23537818Y-30076692D02*
X24384000Y-30922874D01*
X24384000Y-30922874D02*
X24384000Y-32574000D01*
D42*
%TO.N,GND*%
X6096000Y-20807000D02*
X5842000Y-20553000D01*
X6096000Y-21336000D02*
X6096000Y-20807000D01*
%TO.N,+5V*%
X5759000Y-24068000D02*
X5842000Y-24151000D01*
X3302000Y-24068000D02*
X5759000Y-24068000D01*
X1778000Y-24068000D02*
X3302000Y-24068000D01*
X1438000Y-24408000D02*
X1778000Y-24068000D01*
X1438000Y-25711000D02*
X1438000Y-24408000D01*
X4064000Y-25711000D02*
X4282000Y-25711000D01*
X4282000Y-25711000D02*
X5842000Y-24151000D01*
X4064000Y-25711000D02*
X4396000Y-25711000D01*
X1438000Y-25711000D02*
X4064000Y-25711000D01*
%TO.N,GND*%
X1462637Y-31335637D02*
X1438000Y-31311000D01*
X1462637Y-33389943D02*
X1462637Y-31335637D01*
X1438000Y-28850000D02*
X1586000Y-28702000D01*
X1438000Y-31311000D02*
X1438000Y-28850000D01*
%TO.N,U4_3*%
X2986000Y-28702000D02*
X3556000Y-28702000D01*
%TO.N,+5V*%
X4396000Y-25711000D02*
X5588000Y-26903000D01*
%TO.N,GND*%
X1438000Y-31311000D02*
X4778000Y-31311000D01*
X4778000Y-31311000D02*
X5588000Y-30501000D01*
D41*
X35768000Y-20896882D02*
X35052000Y-21336000D01*
X35768000Y-19688011D02*
X35768000Y-20896882D01*
X36768000Y-18688011D02*
X35768000Y-19688011D01*
D38*
%TO.N,BBC_CS*%
X11487835Y-41322000D02*
X7692000Y-37526164D01*
X7692000Y-37526164D02*
X7692000Y-19532517D01*
X10786509Y-16438011D02*
X46518000Y-16438011D01*
X14896164Y-41322000D02*
X11487835Y-41322000D01*
X7692000Y-19532517D02*
X10786509Y-16438011D01*
X46518000Y-16438011D02*
X48768000Y-18688011D01*
X21873289Y-34344876D02*
X14896164Y-41322000D01*
X21873289Y-30783799D02*
X21873289Y-34344876D01*
%TO.N,BBC_SCLK*%
X21226807Y-30723173D02*
X21519735Y-30430245D01*
X21226807Y-31056555D02*
X21226807Y-30723173D01*
X21336000Y-31165748D02*
X21226807Y-31056555D01*
X8092000Y-37360479D02*
X11653521Y-40922000D01*
X8092000Y-19698203D02*
X8092000Y-37360479D01*
X42918000Y-16838011D02*
X10952194Y-16838011D01*
X11653521Y-40922000D02*
X14730479Y-40922000D01*
X14730479Y-40922000D02*
X21336000Y-34316479D01*
X21336000Y-34316479D02*
X21336000Y-31165748D01*
X44768000Y-18688011D02*
X42918000Y-16838011D01*
X10952194Y-16838011D02*
X8092000Y-19698203D01*
%TO.N,BBC_DIN*%
X11117879Y-17238011D02*
X39318000Y-17238011D01*
X8492000Y-19863889D02*
X11117879Y-17238011D01*
X14564793Y-40522000D02*
X11819207Y-40522000D01*
X8492000Y-37194793D02*
X8492000Y-19863889D01*
X20828000Y-34258793D02*
X14564793Y-40522000D01*
X20826807Y-31222240D02*
X20828000Y-31223433D01*
X11819207Y-40522000D02*
X8492000Y-37194793D01*
X20826807Y-30416067D02*
X20826807Y-31222240D01*
X21166182Y-30076692D02*
X20826807Y-30416067D01*
X20828000Y-31223433D02*
X20828000Y-34258793D01*
X39318000Y-17238011D02*
X40768000Y-18688011D01*
%TO.N,U7_1*%
X35765962Y-17638011D02*
X34616060Y-18787913D01*
X38768000Y-18688011D02*
X37718000Y-17638011D01*
X37718000Y-17638011D02*
X35765962Y-17638011D01*
%TO.N,VCC*%
X35925157Y-21530854D02*
X36768000Y-20688011D01*
X35925157Y-22281217D02*
X35925157Y-21530854D01*
D43*
%TO.N,RXTX_MODE*%
X38768000Y-22157681D02*
X38768000Y-20688011D01*
X37678681Y-23247000D02*
X38768000Y-22157681D01*
X35265016Y-23247000D02*
X37678681Y-23247000D01*
X34517000Y-22498984D02*
X35265016Y-23247000D01*
X33683330Y-20961000D02*
X34517000Y-21794670D01*
X32107899Y-21232101D02*
X32633000Y-20707000D01*
X34517000Y-21794670D02*
X34517000Y-22498984D01*
X32107899Y-28998253D02*
X32107899Y-21232101D01*
X32633000Y-20707000D02*
X33683330Y-20707000D01*
X32297340Y-29187694D02*
X32107899Y-28998253D01*
X33683330Y-20707000D02*
X33683330Y-20961000D01*
D38*
%TO.N,RX_HP_CTRL*%
X33209207Y-21082000D02*
X33274000Y-21082000D01*
X33274000Y-21082000D02*
X34142000Y-21950000D01*
X34142000Y-21950000D02*
X34142000Y-22654314D01*
X34142000Y-22654314D02*
X35109686Y-23622000D01*
X35109686Y-23622000D02*
X37834011Y-23622000D01*
X37834011Y-23622000D02*
X40768000Y-20688011D01*
D41*
%TO.N,GND*%
X24699986Y-24766004D02*
X25062656Y-24766004D01*
X24355550Y-24421568D02*
X24699986Y-24766004D01*
X24355550Y-24058896D02*
X24355550Y-24421568D01*
X25062656Y-24766004D02*
X25305585Y-24523075D01*
X24598478Y-23815968D02*
X24355550Y-24058896D01*
D38*
X25390482Y-19525577D02*
X25386439Y-19521534D01*
X26748965Y-19525577D02*
X25390482Y-19525577D01*
%TO.N,VCCDAC*%
X25050319Y-20923681D02*
X25504405Y-20923681D01*
X25014000Y-22693340D02*
X25014000Y-22395159D01*
X25014000Y-20960000D02*
X25050319Y-20923681D01*
X24244925Y-23462415D02*
X25014000Y-22693340D01*
X26871019Y-20923681D02*
X26889758Y-20942420D01*
X25504405Y-20923681D02*
X26871019Y-20923681D01*
X27771271Y-25308500D02*
X27830592Y-25367821D01*
X27185799Y-25308500D02*
X27771271Y-25308500D01*
%TO.N,RX_BBIP_FEEDBACK*%
X30342000Y-27422000D02*
X31242000Y-28322000D01*
X30480000Y-25811207D02*
X30342000Y-25949207D01*
X30480000Y-25398479D02*
X30480000Y-25811207D01*
X29942000Y-24860479D02*
X30480000Y-25398479D01*
X29806314Y-24530000D02*
X29942000Y-24665686D01*
X29942000Y-24665686D02*
X29942000Y-24860479D01*
X26712874Y-24530000D02*
X29806314Y-24530000D01*
X26012692Y-25230182D02*
X26712874Y-24530000D01*
X30342000Y-25949207D02*
X30342000Y-27422000D01*
%TO.N,RX_BBIN_FEEDBACK*%
X31242000Y-25400000D02*
X31242000Y-26322000D01*
X31064000Y-25222000D02*
X31242000Y-25400000D01*
X30342000Y-24694793D02*
X30869207Y-25222000D01*
X30342000Y-24500000D02*
X30342000Y-24694793D01*
X26405767Y-24130000D02*
X29972000Y-24130000D01*
X25659138Y-24876629D02*
X26405767Y-24130000D01*
X29972000Y-24130000D02*
X30342000Y-24500000D01*
X30869207Y-25222000D02*
X31064000Y-25222000D01*
%TO.N,VCCDAC*%
X27168106Y-25290807D02*
X26659173Y-25290807D01*
X27185799Y-25308500D02*
X27168106Y-25290807D01*
X26659173Y-25290807D02*
X26366245Y-25583735D01*
%TO.N,GND*%
X25112500Y-29671474D02*
X25112500Y-29530054D01*
X25557313Y-30116287D02*
X25112500Y-29671474D01*
X25798287Y-30116287D02*
X25557313Y-30116287D01*
X25908000Y-30226000D02*
X25798287Y-30116287D01*
X25798287Y-30116287D02*
X25738905Y-30116287D01*
X25112500Y-29530054D02*
X24598478Y-29016032D01*
%TO.N,TX_BBIN*%
X26502000Y-29505340D02*
X25305585Y-28308925D01*
X26502000Y-29603371D02*
X26502000Y-29505340D01*
X26524000Y-29625371D02*
X26502000Y-29603371D01*
X28004000Y-32322000D02*
X26524000Y-30841999D01*
X31242000Y-32322000D02*
X28004000Y-32322000D01*
X26524000Y-30841999D02*
X26524000Y-29625371D01*
%TO.N,TX_BBIP*%
X27997686Y-31750000D02*
X29814000Y-31750000D01*
X29814000Y-31750000D02*
X31242000Y-30322000D01*
X26924000Y-29459685D02*
X26924000Y-30676314D01*
X26902000Y-29437685D02*
X26924000Y-29459685D01*
X26902000Y-29198233D02*
X26902000Y-29437685D01*
X26924000Y-30676314D02*
X27997686Y-31750000D01*
X25659138Y-27955371D02*
X26902000Y-29198233D01*
%TO.N,VCCDAC*%
X25637500Y-29431548D02*
X25637500Y-29347946D01*
X25637500Y-29431548D02*
X25637500Y-29447500D01*
X25637500Y-29347946D02*
X24952032Y-28662478D01*
X25637500Y-29447500D02*
X25654000Y-29464000D01*
%TO.N,GND*%
X18910665Y-21844000D02*
X18288000Y-21844000D01*
X20458368Y-23391703D02*
X18910665Y-21844000D01*
X20458368Y-23461708D02*
X20458368Y-23391703D01*
%TO.N,VCCDAC*%
X18990101Y-22665899D02*
X18990101Y-22700547D01*
X18990101Y-22700547D02*
X20104815Y-23815261D01*
X19000301Y-22710747D02*
X18990101Y-22700547D01*
%TO.N,GND*%
X22830711Y-22048201D02*
X22830711Y-21498711D01*
X22830711Y-21498711D02*
X20382000Y-19050000D01*
%TO.N,ADC_OUT0*%
X8892000Y-32322000D02*
X12192000Y-35622000D01*
X8892000Y-20029575D02*
X8892000Y-32322000D01*
X10999573Y-17922002D02*
X8892000Y-20029575D01*
X17747090Y-17922002D02*
X10999573Y-17922002D01*
X21872582Y-22047494D02*
X17747090Y-17922002D01*
%TO.N,ADC_OUT1*%
X9292000Y-20195260D02*
X9292000Y-30722000D01*
X11165256Y-18322001D02*
X9292000Y-20195260D01*
X17439980Y-18322000D02*
X11165256Y-18322001D01*
X21519028Y-22401048D02*
X17439980Y-18322000D01*
X9292000Y-30722000D02*
X12192000Y-33622000D01*
%TO.N,ADC_OUT2*%
X9692000Y-20360945D02*
X9692000Y-29122000D01*
X11330942Y-18722000D02*
X9692000Y-20360945D01*
X21165475Y-22754601D02*
X17132874Y-18722000D01*
X17132874Y-18722000D02*
X11330942Y-18722000D01*
X9692000Y-29122000D02*
X12192000Y-31622000D01*
%TO.N,ADC_OUT3*%
X10092000Y-27522000D02*
X12192000Y-29622000D01*
X10092000Y-20526630D02*
X10092000Y-27522000D01*
X11496628Y-19122000D02*
X10092000Y-20526630D01*
X16825767Y-19122000D02*
X11496628Y-19122000D01*
X20811921Y-23108154D02*
X16825767Y-19122000D01*
%TO.N,ADC_OUT4*%
X10492000Y-25922000D02*
X12192000Y-27622000D01*
X10492000Y-20692315D02*
X10492000Y-25922000D01*
X11662314Y-19522000D02*
X10492000Y-20692315D01*
X15104446Y-19522000D02*
X11662314Y-19522000D01*
X19751261Y-24168815D02*
X15104446Y-19522000D01*
%TO.N,ADC_OUT5*%
X11828000Y-19922000D02*
X10892000Y-20858000D01*
X10892000Y-20858000D02*
X10892000Y-24322000D01*
X14896163Y-19922000D02*
X11828000Y-19922000D01*
X17950801Y-22976638D02*
X14896163Y-19922000D01*
X10892000Y-24322000D02*
X12192000Y-25622000D01*
X17950801Y-23075461D02*
X17950801Y-22976638D01*
%TO.N,ADC_OUT6*%
X11292000Y-21249207D02*
X11292000Y-22722000D01*
X17426301Y-23017822D02*
X14730478Y-20322000D01*
X14730478Y-20322000D02*
X12219207Y-20322000D01*
X17426301Y-23268301D02*
X17426301Y-23017822D01*
X19033921Y-24875921D02*
X17426301Y-23268301D01*
X12219207Y-20322000D02*
X11292000Y-21249207D01*
X11292000Y-22722000D02*
X12192000Y-23622000D01*
X19044154Y-24875921D02*
X19033921Y-24875921D01*
%TO.N,ADC_OUT7*%
X14564793Y-20722000D02*
X13092000Y-20722000D01*
X13092000Y-20722000D02*
X12192000Y-21622000D01*
X16901301Y-23058508D02*
X14564793Y-20722000D01*
X16901301Y-23440175D02*
X16901301Y-23058508D01*
X16901301Y-23440175D02*
X18690601Y-25229475D01*
%TO.N,ADC_OUT5*%
X17950801Y-23075461D02*
X19397708Y-24522368D01*
%TO.N,DAC_IN0*%
X14376020Y-21622000D02*
X14192000Y-21622000D01*
X18337048Y-25583028D02*
X14376020Y-21622000D01*
%TO.N,DAC_IN1*%
X16506582Y-25936582D02*
X14192000Y-23622000D01*
X17983494Y-25936582D02*
X16506582Y-25936582D01*
%TO.N,DAC_IN2*%
X15464711Y-26894711D02*
X14192000Y-25622000D01*
X17984201Y-26894711D02*
X15464711Y-26894711D01*
%TO.N,DAC_IN3*%
X18337755Y-27248265D02*
X17964020Y-27622000D01*
X17964020Y-27622000D02*
X14192000Y-27622000D01*
%TO.N,DAC_IN4*%
X18691308Y-27601818D02*
X16671126Y-29622000D01*
X16671126Y-29622000D02*
X14192000Y-29622000D01*
%TO.N,DAC_IN5*%
X19044862Y-27955371D02*
X15378233Y-31622000D01*
X15378233Y-31622000D02*
X14192000Y-31622000D01*
%TO.N,DAC_IN6*%
X14192000Y-33515340D02*
X14192000Y-33622000D01*
X19398415Y-28308925D02*
X14192000Y-33515340D01*
%TO.N,TR_DIN*%
X48277000Y-24420537D02*
X48277000Y-25443000D01*
X48277000Y-25443000D02*
X48265000Y-25455000D01*
X48260000Y-24403537D02*
X48277000Y-24420537D01*
X46768000Y-20688011D02*
X48260000Y-22180011D01*
X48260000Y-22180011D02*
X48260000Y-24403537D01*
%TO.N,TR_CS#*%
X50264000Y-25455000D02*
X50264000Y-19688011D01*
X50264000Y-19688011D02*
X49276000Y-19688011D01*
X46283075Y-19688011D02*
X50506000Y-19688011D01*
%TO.N,VCC*%
X47764000Y-25455000D02*
X47764000Y-24179000D01*
X47764000Y-24179000D02*
X47498000Y-23913000D01*
%TO.N,TR_CS#*%
X45752000Y-19704011D02*
X46267075Y-19704011D01*
X44768000Y-20688011D02*
X45752000Y-19704011D01*
D43*
%TO.N,RX_HP_CTRL*%
X32342905Y-21904646D02*
X33185112Y-21062439D01*
X32342905Y-22664876D02*
X32342905Y-21904646D01*
D38*
%TO.N,RXTX_MODE*%
X32258000Y-36842793D02*
X32258000Y-29227034D01*
X32342000Y-36926793D02*
X32258000Y-36842793D01*
D43*
%TO.N,RX_HP_CTRL*%
X32367000Y-26684437D02*
X32367000Y-25959563D01*
X32869207Y-29222000D02*
X32367000Y-28719793D01*
X32367000Y-28719793D02*
X32367000Y-27959563D01*
X32367000Y-27959563D02*
X32512000Y-27814563D01*
X32512000Y-27814563D02*
X32512000Y-26829437D01*
X32512000Y-26829437D02*
X32367000Y-26684437D01*
X32367000Y-23959563D02*
X32512000Y-23814563D01*
X32367000Y-25959563D02*
X32512000Y-25814563D01*
X32512000Y-25814563D02*
X32512000Y-24829437D01*
X32512000Y-24829437D02*
X32367000Y-24684437D01*
X32367000Y-24684437D02*
X32367000Y-23959563D01*
X32512000Y-23814563D02*
X32512000Y-22829437D01*
X32512000Y-22829437D02*
X32367000Y-22684437D01*
D38*
%TO.N,RXTX_MODE*%
X32753207Y-37338000D02*
X32342000Y-36926793D01*
X36206628Y-37338000D02*
X32753207Y-37338000D01*
X48992742Y-38106000D02*
X36974628Y-38106000D01*
X36974628Y-38106000D02*
X36206628Y-37338000D01*
X50268743Y-36830000D02*
X48992742Y-38106000D01*
X51754000Y-35654000D02*
X50578000Y-36830000D01*
X50578000Y-36830000D02*
X50268743Y-36830000D01*
X51265000Y-32455000D02*
X51754000Y-32944000D01*
X51754000Y-32944000D02*
X51754000Y-35654000D01*
%TO.N,RX_HP_CTRL*%
X33576314Y-29222000D02*
X32869207Y-29222000D01*
X36568000Y-32213686D02*
X33576314Y-29222000D01*
X38018258Y-36106000D02*
X36568000Y-34655740D01*
X36568000Y-34655740D02*
X36568000Y-32213686D01*
X45218104Y-36106000D02*
X38018258Y-36106000D01*
X45742052Y-35582052D02*
X45218104Y-36106000D01*
%TO.N,DB2*%
X54356000Y-22606000D02*
X52832000Y-21082000D01*
X54356000Y-25015000D02*
X54356000Y-22606000D01*
X52665000Y-26706000D02*
X54356000Y-25015000D01*
X52014000Y-26706000D02*
X52665000Y-26706000D01*
%TO.N,DB5*%
X52598000Y-23622000D02*
X52578000Y-23622000D01*
X50765000Y-24805000D02*
X50815000Y-24755000D01*
X50765000Y-25455000D02*
X50765000Y-24805000D01*
X50815000Y-24755000D02*
X51465000Y-24755000D01*
X51465000Y-24755000D02*
X52598000Y-23622000D01*
%TO.N,VCC*%
X51320000Y-25400000D02*
X51265000Y-25455000D01*
X52070000Y-25400000D02*
X51320000Y-25400000D01*
%TO.N,DB1*%
X44704000Y-23114000D02*
X44196000Y-23114000D01*
X46228000Y-24638000D02*
X44704000Y-23114000D01*
%TO.N,VCC*%
X49264000Y-23671000D02*
X49530000Y-23405000D01*
X49264000Y-25455000D02*
X49264000Y-23671000D01*
%TO.N,TX_BBIP_FEEDBACK*%
X48827057Y-37706000D02*
X37140314Y-37706000D01*
X49976000Y-36557057D02*
X48827057Y-37706000D01*
X49976000Y-33269685D02*
X49976000Y-36557057D01*
X37140314Y-37706000D02*
X35756314Y-36322000D01*
X49814000Y-33107685D02*
X49976000Y-33269685D01*
X35756314Y-36322000D02*
X33242000Y-36322000D01*
X49814000Y-32505000D02*
X49814000Y-33107685D01*
X49764000Y-32455000D02*
X49814000Y-32505000D01*
%TO.N,TX_BBIN_FEEDBACK*%
X48661372Y-37306000D02*
X37306000Y-37306000D01*
X49376000Y-36591372D02*
X48661372Y-37306000D01*
X37306000Y-37306000D02*
X34322000Y-34322000D01*
X49376000Y-33226630D02*
X49376000Y-36591372D01*
X49314000Y-33164630D02*
X49376000Y-33226630D01*
X49314000Y-32505000D02*
X49314000Y-33164630D01*
X34322000Y-34322000D02*
X33242000Y-34322000D01*
X49264000Y-32455000D02*
X49314000Y-32505000D01*
%TO.N,TX_BBQP_FEEDBACK*%
X33242000Y-32461113D02*
X33242000Y-32322000D01*
X37686886Y-36905999D02*
X33242000Y-32461113D01*
X48976000Y-36425686D02*
X48495686Y-36906000D01*
X48914000Y-33330315D02*
X48976000Y-33392315D01*
X48914000Y-33155000D02*
X48914000Y-33330315D01*
X48976000Y-33392315D02*
X48976000Y-36425686D01*
X48764000Y-33005000D02*
X48914000Y-33155000D01*
X48495686Y-36906000D02*
X37686886Y-36905999D01*
X48764000Y-32455000D02*
X48764000Y-33005000D01*
%TO.N,TX_BBQN_FEEDBACK*%
X36168000Y-33248000D02*
X33242000Y-30322000D01*
X36168000Y-34821425D02*
X36168000Y-33248000D01*
X48330000Y-36506000D02*
X37852572Y-36506000D01*
X48576000Y-33558000D02*
X48576000Y-36260000D01*
X48576000Y-36260000D02*
X48330000Y-36506000D01*
X37852572Y-36506000D02*
X36168000Y-34821425D01*
X48264000Y-33246000D02*
X48576000Y-33558000D01*
X48264000Y-32455000D02*
X48264000Y-33246000D01*
%TO.N,RX_HP_CTRL*%
X45742052Y-35582052D02*
X45586104Y-35738000D01*
X47264000Y-34060104D02*
X45742052Y-35582052D01*
%TO.N,BBC_CLK*%
X26261554Y-22860000D02*
X28956000Y-22860000D01*
X24952032Y-24169522D02*
X26261554Y-22860000D01*
%TO.N,U1_46*%
X27302000Y-29272000D02*
X28002000Y-29972000D01*
X27302000Y-28891126D02*
X27302000Y-29272000D01*
X26012692Y-27601818D02*
X27302000Y-28891126D01*
%TO.N,U1_48*%
X27012727Y-27458727D02*
X28002000Y-28448000D01*
X27012727Y-27187639D02*
X27012727Y-27458727D01*
X26719799Y-26894711D02*
X27012727Y-27187639D01*
%TO.N,U1_1*%
X27015289Y-25937289D02*
X28002000Y-26924000D01*
X26719799Y-25937289D02*
X27015289Y-25937289D01*
%TO.N,TX_BBQN*%
X29197340Y-34322000D02*
X31242000Y-34322000D01*
X24244925Y-29369585D02*
X29197340Y-34322000D01*
%TO.N,TX_BBQP*%
X30490233Y-36322000D02*
X31242000Y-36322000D01*
X23891371Y-29723138D02*
X30490233Y-36322000D01*
%TO.N,RX_BBIP*%
X36968000Y-32048000D02*
X33242000Y-28322000D01*
X38183944Y-35706000D02*
X36968000Y-34490055D01*
X43890095Y-35706000D02*
X38183944Y-35706000D01*
X36968000Y-34490055D02*
X36968000Y-32048000D01*
X46163000Y-33433096D02*
X43890095Y-35706000D01*
X46263000Y-32455000D02*
X46263000Y-33055000D01*
X46263000Y-33055000D02*
X46163000Y-33155000D01*
X46163000Y-33155000D02*
X46163000Y-33433096D01*
%TO.N,RX_BBQN*%
X33244000Y-22322000D02*
X33242000Y-22322000D01*
X36576000Y-25654000D02*
X33244000Y-22322000D01*
X36576000Y-27360906D02*
X36576000Y-25654000D01*
X38168000Y-33993000D02*
X38168000Y-28952906D01*
X38536500Y-34361500D02*
X38168000Y-33993000D01*
X43537540Y-34361500D02*
X38536500Y-34361500D01*
X38168000Y-28952906D02*
X36576000Y-27360906D01*
X44309000Y-31261000D02*
X44309000Y-33590040D01*
X44365000Y-31205000D02*
X44309000Y-31261000D01*
X44309000Y-33590040D02*
X43537540Y-34361500D01*
X45014000Y-31205000D02*
X44365000Y-31205000D01*
%TO.N,RX_BBQP*%
X36176000Y-27256000D02*
X33242000Y-24322000D01*
X37768000Y-29118592D02*
X36176000Y-27526591D01*
X37768000Y-34158685D02*
X37768000Y-29118592D01*
X38370814Y-34761500D02*
X37768000Y-34158685D01*
X45014000Y-33450726D02*
X43703225Y-34761500D01*
X43703225Y-34761500D02*
X38370814Y-34761500D01*
X36176000Y-27526591D02*
X36176000Y-27256000D01*
X45014000Y-31706000D02*
X45014000Y-33450726D01*
%TO.N,RX_BBIN*%
X37368001Y-30448001D02*
X33242000Y-26322000D01*
X37368000Y-34324370D02*
X37368001Y-30448001D01*
X38349630Y-35306000D02*
X37368000Y-34324370D01*
X43724410Y-35306000D02*
X38349630Y-35306000D01*
X45763000Y-33267410D02*
X43724410Y-35306000D01*
X45763000Y-32455000D02*
X45763000Y-33267410D01*
D40*
%TO.N,DB4*%
X43884000Y-33414000D02*
X43585000Y-33713000D01*
X43585000Y-33713000D02*
X40063000Y-33713000D01*
X40063000Y-33713000D02*
X39624000Y-33274000D01*
X43884000Y-31046000D02*
X43884000Y-33414000D01*
X44225000Y-30705000D02*
X43884000Y-31046000D01*
X45014000Y-30705000D02*
X44225000Y-30705000D01*
D38*
%TO.N,C22_2*%
X38859094Y-28194000D02*
X37455374Y-26790280D01*
X38871000Y-28194000D02*
X38859094Y-28194000D01*
%TO.N,ELPOUT*%
X40377000Y-29718000D02*
X40377000Y-28194000D01*
D43*
%TO.N,C23_2*%
X38871000Y-31189000D02*
X38924000Y-31242000D01*
X38871000Y-29718000D02*
X38871000Y-31189000D01*
X38871000Y-29718000D02*
X39633000Y-28956000D01*
X39633000Y-28956000D02*
X39633000Y-28378000D01*
D38*
%TO.N,X3_1*%
X40603000Y-25654000D02*
X40324000Y-25654000D01*
X41619000Y-26670000D02*
X40603000Y-25654000D01*
D43*
%TO.N,C23_2*%
X39624000Y-28369000D02*
X39624000Y-24731875D01*
D38*
X45461723Y-24731875D02*
X39624000Y-24731875D01*
X45763000Y-25033152D02*
X45461723Y-24731875D01*
X45763000Y-25455000D02*
X45763000Y-25033152D01*
%TO.N,RX_HP_CTRL*%
X47264000Y-32455000D02*
X47264000Y-34060104D01*
D40*
%TO.N,VCC*%
X46359373Y-34158627D02*
X46453746Y-34253000D01*
X46359373Y-33906765D02*
X46359373Y-34158627D01*
X46657117Y-33609021D02*
X46359373Y-33906765D01*
D38*
X47764000Y-33540000D02*
X47764000Y-32455000D01*
X47879000Y-33655000D02*
X47764000Y-33540000D01*
D40*
X48006000Y-33782000D02*
X48006000Y-34253000D01*
X47879000Y-33655000D02*
X48006000Y-33782000D01*
D38*
X46657117Y-33609021D02*
X46764000Y-33502138D01*
X46764000Y-33502138D02*
X46764000Y-32455000D01*
D40*
X52324000Y-32016000D02*
X52014000Y-31706000D01*
X52324000Y-32729000D02*
X52324000Y-32016000D01*
%TO.N,U5_33*%
X43434000Y-32549000D02*
X42963000Y-33020000D01*
X43962000Y-30206000D02*
X43434000Y-30734000D01*
X43434000Y-30734000D02*
X43434000Y-32549000D01*
X45014000Y-30206000D02*
X43962000Y-30206000D01*
D38*
%TO.N,GND*%
X44314000Y-26657000D02*
X44965000Y-26657000D01*
X44314000Y-25908000D02*
X44314000Y-26657000D01*
X44965000Y-26657000D02*
X45014000Y-26706000D01*
X44282848Y-25908000D02*
X44314000Y-25908000D01*
X43676723Y-25301875D02*
X44282848Y-25908000D01*
%TO.N,VCC*%
X44766723Y-25301875D02*
X44766723Y-25959723D01*
X44766723Y-25959723D02*
X45014000Y-26207000D01*
D41*
%TO.N,C23_2*%
X39633000Y-28378000D02*
X39624000Y-28369000D01*
D38*
%TO.N,X3_1*%
X41619000Y-26670000D02*
X41619000Y-27686000D01*
%TO.N,U5_29*%
X42709000Y-27866000D02*
X41873000Y-28702000D01*
X42709000Y-27686000D02*
X42709000Y-27866000D01*
X44985000Y-28177000D02*
X45014000Y-28206000D01*
X43579000Y-28177000D02*
X44985000Y-28177000D01*
X43088000Y-27686000D02*
X43579000Y-28177000D01*
X42963000Y-27686000D02*
X43088000Y-27686000D01*
%TO.N,U5_28*%
X43671000Y-27395463D02*
X43980537Y-27705000D01*
X43671000Y-27161000D02*
X43671000Y-27395463D01*
X43980537Y-27705000D02*
X45014000Y-27705000D01*
X43180000Y-26670000D02*
X43671000Y-27161000D01*
X42963000Y-26670000D02*
X43180000Y-26670000D01*
%TO.N,ELPOUT*%
X42886917Y-29706000D02*
X42629547Y-29963370D01*
X45014000Y-29706000D02*
X42886917Y-29706000D01*
D40*
%TO.N,U5_28*%
X45014000Y-27705000D02*
X44991000Y-27728000D01*
%TO.N,U5_33*%
X44994000Y-30226000D02*
X45014000Y-30206000D01*
D38*
%TO.N,VCC*%
X45003000Y-26207000D02*
X45014000Y-26207000D01*
X52832000Y-28702000D02*
X52828000Y-28706000D01*
X52014000Y-28706000D02*
X52828000Y-28706000D01*
X44200000Y-28706000D02*
X44196000Y-28702000D01*
X45014000Y-28706000D02*
X44200000Y-28706000D01*
X44223000Y-27205000D02*
X44196000Y-27178000D01*
X45014000Y-27205000D02*
X44223000Y-27205000D01*
X49264000Y-24650000D02*
X49276000Y-24638000D01*
X49264000Y-25455000D02*
X49264000Y-24650000D01*
X47764000Y-25455000D02*
X47764000Y-24650000D01*
X47752000Y-24638000D02*
X47764000Y-24650000D01*
%TO.N,LOCK_DETECT*%
X46764000Y-25428000D02*
X46736000Y-25400000D01*
X46764000Y-25455000D02*
X46764000Y-25428000D01*
%TO.N,DB1*%
X46263000Y-24673000D02*
X46228000Y-24638000D01*
X46263000Y-25455000D02*
X46263000Y-24673000D01*
%TO.N,ANT_BALUN2_4*%
X52014000Y-27705000D02*
X53166552Y-27705000D01*
X54024776Y-26846776D02*
X55626000Y-25245553D01*
X53166552Y-27705000D02*
X54024776Y-26846776D01*
X53693553Y-27178000D02*
X54024776Y-26846776D01*
%TO.N,ANT_BALUN2_3*%
X53544223Y-26620223D02*
X55272447Y-24892000D01*
X52014000Y-27205000D02*
X52959446Y-27205000D01*
X53486447Y-26678000D02*
X53544223Y-26620223D01*
X52959446Y-27205000D02*
X53544223Y-26620223D01*
%TO.N,U5_5*%
X52919553Y-29706000D02*
X52014000Y-29706000D01*
X55118000Y-31904447D02*
X52919553Y-29706000D01*
%TO.N,ANT_SMA1_5*%
X58773553Y-35560000D02*
X58801000Y-35560000D01*
X55471553Y-32258000D02*
X58773553Y-35560000D01*
%TO.N,ANT_BALUN2_2*%
X58801000Y-21363447D02*
X58801000Y-21336000D01*
X55626000Y-24538447D02*
X58801000Y-21363447D01*
%TD*%
%TA.AperFunction,Conductor*%
%TO.N,GND*%
G36*
X3834539Y-26489185D02*
G01*
X3880294Y-26541989D01*
X3891500Y-26593500D01*
X3891500Y-27747497D01*
X3871815Y-27814536D01*
X3819011Y-27860291D01*
X3749853Y-27870235D01*
X3693189Y-27846764D01*
X3632204Y-27801111D01*
X3495203Y-27750011D01*
X3434654Y-27743500D01*
X3434638Y-27743500D01*
X2537362Y-27743500D01*
X2537345Y-27743500D01*
X2476797Y-27750011D01*
X2476795Y-27750011D01*
X2339797Y-27801110D01*
X2335960Y-27803206D01*
X2331689Y-27804134D01*
X2331488Y-27804210D01*
X2331477Y-27804181D01*
X2267687Y-27818056D01*
X2233203Y-27810554D01*
X2093379Y-27758403D01*
X2093372Y-27758401D01*
X2033844Y-27752000D01*
X1836000Y-27752000D01*
X1836000Y-29652000D01*
X2033828Y-29652000D01*
X2033844Y-29651999D01*
X2093372Y-29645598D01*
X2093383Y-29645595D01*
X2233200Y-29593446D01*
X2302891Y-29588461D01*
X2335958Y-29600793D01*
X2339793Y-29602886D01*
X2339796Y-29602889D01*
X2443668Y-29641631D01*
X2471463Y-29651999D01*
X2476799Y-29653989D01*
X2504050Y-29656918D01*
X2537345Y-29660499D01*
X2537362Y-29660500D01*
X3434638Y-29660500D01*
X3434654Y-29660499D01*
X3461692Y-29657591D01*
X3495201Y-29653989D01*
X3500537Y-29651999D01*
X3580966Y-29622000D01*
X3632204Y-29602889D01*
X3632204Y-29602888D01*
X3632206Y-29602888D01*
X3632207Y-29602887D01*
X3701689Y-29550873D01*
X3767153Y-29526455D01*
X3835426Y-29541306D01*
X3884832Y-29590711D01*
X3900000Y-29650139D01*
X3900000Y-30251000D01*
X5338000Y-30251000D01*
X5338000Y-29051000D01*
X4893749Y-29051000D01*
X4826710Y-29031315D01*
X4780955Y-28978511D01*
X4771011Y-28909353D01*
X4776708Y-28886045D01*
X4778994Y-28879511D01*
X4783634Y-28866252D01*
X4783634Y-28866250D01*
X4783635Y-28866248D01*
X4802141Y-28702003D01*
X4802141Y-28701996D01*
X4783635Y-28537754D01*
X4783634Y-28537752D01*
X4783634Y-28537748D01*
X4779681Y-28526453D01*
X4776119Y-28456678D01*
X4810847Y-28396050D01*
X4872839Y-28363822D01*
X4896723Y-28361500D01*
X6824638Y-28361500D01*
X6824654Y-28361499D01*
X6885201Y-28354989D01*
X6916164Y-28343439D01*
X6985856Y-28338454D01*
X7047180Y-28371938D01*
X7080666Y-28433261D01*
X7083500Y-28459621D01*
X7083500Y-28953450D01*
X7063815Y-29020489D01*
X7011011Y-29066244D01*
X6941853Y-29076188D01*
X6916167Y-29069632D01*
X6883379Y-29057403D01*
X6883372Y-29057401D01*
X6823844Y-29051000D01*
X5838000Y-29051000D01*
X5837999Y-31951000D01*
X6823828Y-31951000D01*
X6823844Y-31950999D01*
X6883372Y-31944598D01*
X6883377Y-31944597D01*
X6916163Y-31932368D01*
X6985854Y-31927382D01*
X7047178Y-31960866D01*
X7080665Y-32022188D01*
X7083499Y-32048549D01*
X7083500Y-37482218D01*
X7082969Y-37490320D01*
X7078250Y-37526162D01*
X7082970Y-37562024D01*
X7087557Y-37596864D01*
X7099161Y-37685013D01*
X7099163Y-37685018D01*
X7160473Y-37833035D01*
X7160476Y-37833041D01*
X7222131Y-37913390D01*
X7222137Y-37913396D01*
X7258014Y-37960152D01*
X7286702Y-37982165D01*
X7292798Y-37987510D01*
X11026490Y-41721204D01*
X11031829Y-41727292D01*
X11039857Y-41737754D01*
X11053847Y-41755987D01*
X11085756Y-41780472D01*
X11085760Y-41780474D01*
X11085763Y-41780477D01*
X11139665Y-41821838D01*
X11180957Y-41853523D01*
X11180963Y-41853526D01*
X11254971Y-41884181D01*
X11328984Y-41914838D01*
X11348371Y-41917390D01*
X11348378Y-41917393D01*
X11348378Y-41917391D01*
X11447950Y-41930500D01*
X11447954Y-41930500D01*
X11449967Y-41930765D01*
X11449976Y-41930766D01*
X11452606Y-41931112D01*
X11516506Y-41959371D01*
X11554984Y-42017691D01*
X11555823Y-42087556D01*
X11518758Y-42146784D01*
X11455555Y-42176570D01*
X11436435Y-42178053D01*
X8838822Y-42178053D01*
X8771783Y-42158368D01*
X8751141Y-42141734D01*
X-338623Y-33051969D01*
X-372108Y-32990646D01*
X-374942Y-32964288D01*
X-374942Y-32191461D01*
X-355257Y-32124422D01*
X-302453Y-32078667D01*
X-233295Y-32068723D01*
X-169739Y-32097748D01*
X-159305Y-32107923D01*
X-73899Y-32201608D01*
X103574Y-32335631D01*
X302649Y-32434759D01*
X516560Y-32495621D01*
X682523Y-32511000D01*
X1188000Y-32511000D01*
X1188000Y-31761000D01*
X1688000Y-31761000D01*
X1688000Y-32511000D01*
X2193477Y-32511000D01*
X2359439Y-32495621D01*
X2573350Y-32434759D01*
X2772425Y-32335631D01*
X2949900Y-32201608D01*
X3099721Y-32037261D01*
X3216797Y-31848179D01*
X3216798Y-31848177D01*
X3297135Y-31640804D01*
X3312052Y-31561000D01*
X2413278Y-31561000D01*
X2461625Y-31477260D01*
X2491810Y-31345008D01*
X2481673Y-31209735D01*
X2432113Y-31083459D01*
X2414203Y-31061000D01*
X3312052Y-31061000D01*
X3297135Y-30981195D01*
X3216798Y-30773822D01*
X3216797Y-30773820D01*
X3202667Y-30751000D01*
X3900000Y-30751000D01*
X3900000Y-31498844D01*
X3906401Y-31558372D01*
X3906403Y-31558379D01*
X3956645Y-31693086D01*
X3956649Y-31693093D01*
X4042809Y-31808187D01*
X4042812Y-31808190D01*
X4157906Y-31894350D01*
X4157913Y-31894354D01*
X4292620Y-31944596D01*
X4292627Y-31944598D01*
X4352155Y-31950999D01*
X4352172Y-31951000D01*
X5338000Y-31951000D01*
X5338000Y-30751000D01*
X3900000Y-30751000D01*
X3202667Y-30751000D01*
X3099721Y-30584738D01*
X2949900Y-30420391D01*
X2772425Y-30286368D01*
X2573350Y-30187240D01*
X2359439Y-30126378D01*
X2193477Y-30111000D01*
X1688000Y-30111000D01*
X1688000Y-30861000D01*
X1188000Y-30861000D01*
X1188000Y-30111000D01*
X682523Y-30111000D01*
X516560Y-30126378D01*
X302649Y-30187240D01*
X103574Y-30286368D01*
X-73900Y-30420391D01*
X-159305Y-30514076D01*
X-219016Y-30550358D01*
X-288864Y-30548597D01*
X-346671Y-30509353D01*
X-374086Y-30445087D01*
X-374942Y-30430538D01*
X-374942Y-28952000D01*
X686000Y-28952000D01*
X686000Y-29199844D01*
X692401Y-29259372D01*
X692403Y-29259379D01*
X742645Y-29394086D01*
X742649Y-29394093D01*
X828809Y-29509187D01*
X828812Y-29509190D01*
X943906Y-29595350D01*
X943913Y-29595354D01*
X1078620Y-29645596D01*
X1078627Y-29645598D01*
X1138155Y-29651999D01*
X1138172Y-29652000D01*
X1336000Y-29652000D01*
X1336000Y-28952000D01*
X686000Y-28952000D01*
X-374942Y-28952000D01*
X-374942Y-28452000D01*
X686000Y-28452000D01*
X1336000Y-28452000D01*
X1336000Y-27752000D01*
X1138155Y-27752000D01*
X1078627Y-27758401D01*
X1078620Y-27758403D01*
X943913Y-27808645D01*
X943906Y-27808649D01*
X828812Y-27894809D01*
X828809Y-27894812D01*
X742649Y-28009906D01*
X742645Y-28009913D01*
X692403Y-28144620D01*
X692401Y-28144627D01*
X686000Y-28204155D01*
X686000Y-28452000D01*
X-374942Y-28452000D01*
X-374942Y-26608070D01*
X-355257Y-26541031D01*
X-302453Y-26495276D01*
X-233295Y-26485332D01*
X-169739Y-26514357D01*
X-153995Y-26530758D01*
X-145802Y-26541031D01*
X-139028Y-26549525D01*
X-41207Y-26634989D01*
X24786Y-26692646D01*
X24787Y-26692647D01*
X24790Y-26692649D01*
X211532Y-26804222D01*
X413442Y-26880000D01*
X415195Y-26880658D01*
X629229Y-26919500D01*
X629233Y-26919500D01*
X2192270Y-26919500D01*
X2192276Y-26919500D01*
X2344579Y-26905792D01*
X2354659Y-26904885D01*
X2564341Y-26847017D01*
X2564346Y-26847014D01*
X2564353Y-26847013D01*
X2760344Y-26752629D01*
X2786525Y-26733608D01*
X2922262Y-26634989D01*
X2936333Y-26624766D01*
X2953882Y-26606411D01*
X3048157Y-26507808D01*
X3108713Y-26472956D01*
X3137783Y-26469500D01*
X3767500Y-26469500D01*
X3834539Y-26489185D01*
G37*
%TD.AperFunction*%
%TA.AperFunction,Conductor*%
G36*
X23658744Y-31260359D02*
G01*
X23714677Y-31302231D01*
X23720403Y-31310568D01*
X23756493Y-31368004D01*
X23775500Y-31433977D01*
X23775500Y-31604304D01*
X23755815Y-31671343D01*
X23703011Y-31717098D01*
X23694842Y-31720482D01*
X23693413Y-31721016D01*
X23687795Y-31723111D01*
X23570739Y-31810739D01*
X23483111Y-31927795D01*
X23432011Y-32064795D01*
X23432011Y-32064797D01*
X23425500Y-32125345D01*
X23425500Y-33022654D01*
X23432011Y-33083202D01*
X23432011Y-33083204D01*
X23483111Y-33220204D01*
X23485203Y-33224035D01*
X23486130Y-33228299D01*
X23486210Y-33228512D01*
X23486179Y-33228523D01*
X23500056Y-33292308D01*
X23492554Y-33326796D01*
X23440403Y-33466620D01*
X23440401Y-33466627D01*
X23434000Y-33526155D01*
X23434000Y-33724000D01*
X25334000Y-33724000D01*
X25334000Y-33526172D01*
X25333999Y-33526155D01*
X25327598Y-33466627D01*
X25327597Y-33466623D01*
X25275445Y-33326799D01*
X25270461Y-33257107D01*
X25282795Y-33224037D01*
X25284882Y-33220212D01*
X25284889Y-33220204D01*
X25335989Y-33083201D01*
X25341920Y-33028036D01*
X25342499Y-33022654D01*
X25342500Y-33022637D01*
X25342500Y-32334178D01*
X25362185Y-32267139D01*
X25414989Y-32221384D01*
X25484147Y-32211440D01*
X25547703Y-32240465D01*
X25554180Y-32246497D01*
X30028888Y-36721204D01*
X30034229Y-36727294D01*
X30039071Y-36733604D01*
X30056245Y-36755987D01*
X30088154Y-36780472D01*
X30088158Y-36780474D01*
X30088161Y-36780477D01*
X30109852Y-36797121D01*
X30183355Y-36853523D01*
X30183359Y-36853525D01*
X30255452Y-36883387D01*
X30306953Y-36923221D01*
X30419300Y-37071993D01*
X30571117Y-37210391D01*
X30571122Y-37210395D01*
X30581102Y-37216575D01*
X30627737Y-37268604D01*
X30638839Y-37337586D01*
X30610884Y-37401620D01*
X30581102Y-37427425D01*
X30571122Y-37433604D01*
X30571117Y-37433608D01*
X30419300Y-37572006D01*
X30295498Y-37735947D01*
X30295493Y-37735955D01*
X30203930Y-37919837D01*
X30203924Y-37919852D01*
X30147706Y-38117439D01*
X30147705Y-38117441D01*
X30128751Y-38321999D01*
X30128751Y-38322000D01*
X30147705Y-38526558D01*
X30147706Y-38526560D01*
X30203924Y-38724147D01*
X30203930Y-38724162D01*
X30295493Y-38908044D01*
X30295498Y-38908052D01*
X30419300Y-39071993D01*
X30571117Y-39210391D01*
X30571122Y-39210395D01*
X30581102Y-39216575D01*
X30627737Y-39268604D01*
X30638839Y-39337586D01*
X30610884Y-39401620D01*
X30581102Y-39427425D01*
X30571122Y-39433604D01*
X30571117Y-39433608D01*
X30419300Y-39572006D01*
X30295498Y-39735947D01*
X30295493Y-39735955D01*
X30203930Y-39919837D01*
X30203924Y-39919852D01*
X30147706Y-40117439D01*
X30147705Y-40117441D01*
X30128751Y-40321999D01*
X30128751Y-40322000D01*
X30147705Y-40526558D01*
X30147706Y-40526560D01*
X30203924Y-40724147D01*
X30203930Y-40724162D01*
X30295493Y-40908044D01*
X30295498Y-40908052D01*
X30419300Y-41071993D01*
X30549904Y-41191053D01*
X30571118Y-41210392D01*
X30745782Y-41318540D01*
X30937345Y-41392751D01*
X31139282Y-41430500D01*
X31139284Y-41430500D01*
X31344716Y-41430500D01*
X31344718Y-41430500D01*
X31546655Y-41392751D01*
X31738218Y-41318540D01*
X31912882Y-41210392D01*
X32064701Y-41071991D01*
X32143046Y-40968244D01*
X32199155Y-40926609D01*
X32268867Y-40921918D01*
X32330049Y-40955660D01*
X32340954Y-40968245D01*
X32419300Y-41071993D01*
X32549904Y-41191053D01*
X32571118Y-41210392D01*
X32745782Y-41318540D01*
X32937345Y-41392751D01*
X33139282Y-41430500D01*
X33139284Y-41430500D01*
X33344716Y-41430500D01*
X33344718Y-41430500D01*
X33546655Y-41392751D01*
X33738218Y-41318540D01*
X33912882Y-41210392D01*
X34064701Y-41071991D01*
X34188503Y-40908050D01*
X34280074Y-40724152D01*
X34336294Y-40526559D01*
X34355249Y-40322000D01*
X34336294Y-40117441D01*
X34280074Y-39919848D01*
X34260923Y-39881387D01*
X34188506Y-39735955D01*
X34188501Y-39735947D01*
X34064699Y-39572006D01*
X33912882Y-39433608D01*
X33912878Y-39433605D01*
X33902895Y-39427423D01*
X33856261Y-39375393D01*
X33845161Y-39306411D01*
X33873117Y-39242378D01*
X33902902Y-39216570D01*
X33912882Y-39210392D01*
X34064701Y-39071991D01*
X34188503Y-38908050D01*
X34280074Y-38724152D01*
X34336294Y-38526559D01*
X34355249Y-38322000D01*
X34336294Y-38117441D01*
X34332593Y-38104433D01*
X34333179Y-38034569D01*
X34371445Y-37976110D01*
X34435242Y-37947619D01*
X34451859Y-37946500D01*
X35903217Y-37946500D01*
X35970256Y-37966185D01*
X35990898Y-37982819D01*
X36513283Y-38505204D01*
X36518624Y-38511294D01*
X36522676Y-38516575D01*
X36540640Y-38539987D01*
X36572549Y-38564472D01*
X36572553Y-38564474D01*
X36572556Y-38564477D01*
X36626458Y-38605838D01*
X36667750Y-38637523D01*
X36667756Y-38637526D01*
X36741764Y-38668180D01*
X36815777Y-38698838D01*
X36835164Y-38701390D01*
X36835171Y-38701393D01*
X36835171Y-38701391D01*
X36934743Y-38714500D01*
X36934744Y-38714500D01*
X36936757Y-38714765D01*
X36936776Y-38714766D01*
X36974628Y-38719750D01*
X36974629Y-38719750D01*
X36985100Y-38718371D01*
X37010476Y-38715030D01*
X37018574Y-38714500D01*
X48948796Y-38714500D01*
X48956893Y-38715030D01*
X48982269Y-38718371D01*
X48992741Y-38719750D01*
X48992742Y-38719750D01*
X48992743Y-38719750D01*
X49028588Y-38715031D01*
X49030703Y-38714752D01*
X49030716Y-38714751D01*
X49032623Y-38714500D01*
X49032627Y-38714500D01*
X49132198Y-38701391D01*
X49132198Y-38701392D01*
X49132202Y-38701390D01*
X49151593Y-38698838D01*
X49299618Y-38637524D01*
X49394813Y-38564478D01*
X49394814Y-38564476D01*
X49401529Y-38559324D01*
X49401534Y-38559318D01*
X49426729Y-38539987D01*
X49448745Y-38511293D01*
X49454087Y-38505202D01*
X50479570Y-37479721D01*
X50540891Y-37446238D01*
X50569873Y-37445032D01*
X50569873Y-37443750D01*
X50578001Y-37443750D01*
X50602209Y-37440563D01*
X50617880Y-37438500D01*
X50617885Y-37438500D01*
X50633810Y-37436403D01*
X50702844Y-37447165D01*
X50755103Y-37493542D01*
X50774000Y-37559341D01*
X50774000Y-39190154D01*
X50780511Y-39250702D01*
X50780511Y-39250704D01*
X50827019Y-39375393D01*
X50831611Y-39387704D01*
X50919239Y-39504761D01*
X51036296Y-39592389D01*
X51173299Y-39643489D01*
X51200550Y-39646418D01*
X51233845Y-39649999D01*
X51233862Y-39650000D01*
X52906138Y-39650000D01*
X52906154Y-39649999D01*
X52933192Y-39647091D01*
X52966701Y-39643489D01*
X53103704Y-39592389D01*
X53220761Y-39504761D01*
X53308389Y-39387704D01*
X53359489Y-39250701D01*
X53363823Y-39210391D01*
X53365999Y-39190154D01*
X53366000Y-39190137D01*
X53366000Y-37969909D01*
X53385685Y-37902870D01*
X53402314Y-37882232D01*
X54346665Y-36937881D01*
X54407988Y-36904397D01*
X54477680Y-36909381D01*
X54522027Y-36937882D01*
X55795796Y-38211651D01*
X57563563Y-36443884D01*
X57563563Y-36401713D01*
X57583248Y-36334674D01*
X57636052Y-36288919D01*
X57705210Y-36278975D01*
X57768766Y-36308000D01*
X57775244Y-36314032D01*
X58046968Y-36585756D01*
X58080453Y-36647079D01*
X58075469Y-36716771D01*
X58033597Y-36772704D01*
X57968133Y-36797121D01*
X57959287Y-36797437D01*
X57917116Y-36797437D01*
X56856456Y-37858097D01*
X56149349Y-38565202D01*
X56149349Y-38565203D01*
X57774156Y-40190011D01*
X57774160Y-40190015D01*
X57820795Y-40227595D01*
X57951574Y-40287321D01*
X57951579Y-40287322D01*
X58093893Y-40307782D01*
X58236206Y-40287322D01*
X58236211Y-40287321D01*
X58366990Y-40227595D01*
X58413625Y-40190015D01*
X58413628Y-40190012D01*
X58493761Y-40109878D01*
X58555083Y-40076392D01*
X58624775Y-40081376D01*
X58669124Y-40109877D01*
X58981518Y-40422271D01*
X59015003Y-40483594D01*
X59010019Y-40553286D01*
X58981518Y-40597633D01*
X57437417Y-42141734D01*
X57376094Y-42175219D01*
X57349736Y-42178053D01*
X14947564Y-42178053D01*
X14880525Y-42158368D01*
X14834770Y-42105564D01*
X14824826Y-42036406D01*
X14853851Y-41972850D01*
X14912629Y-41935076D01*
X14931358Y-41931116D01*
X14934114Y-41930754D01*
X14934134Y-41930752D01*
X14936048Y-41930500D01*
X14936049Y-41930500D01*
X15035620Y-41917391D01*
X15035620Y-41917392D01*
X15035624Y-41917390D01*
X15055015Y-41914838D01*
X15203040Y-41853524D01*
X15298235Y-41780477D01*
X15298234Y-41780477D01*
X15330151Y-41755987D01*
X15330152Y-41755984D01*
X15336596Y-41751041D01*
X15336602Y-41751036D01*
X15337500Y-41750346D01*
X15342606Y-41739754D01*
X15352175Y-41727283D01*
X15357515Y-41721196D01*
X22272491Y-34806221D01*
X22278582Y-34800879D01*
X22307276Y-34778863D01*
X22325556Y-34755040D01*
X22331764Y-34746949D01*
X22331766Y-34746948D01*
X22404813Y-34651752D01*
X22466127Y-34503727D01*
X22469865Y-34475330D01*
X22481789Y-34384761D01*
X22481789Y-34384755D01*
X22483469Y-34371991D01*
X22487039Y-34344877D01*
X22487039Y-34344875D01*
X22484143Y-34322879D01*
X22482319Y-34309027D01*
X22481789Y-34300930D01*
X22481789Y-34224000D01*
X23434000Y-34224000D01*
X23434000Y-34421844D01*
X23440401Y-34481372D01*
X23440403Y-34481379D01*
X23490645Y-34616086D01*
X23490649Y-34616093D01*
X23576809Y-34731187D01*
X23576812Y-34731190D01*
X23691906Y-34817350D01*
X23691913Y-34817354D01*
X23826620Y-34867596D01*
X23826627Y-34867598D01*
X23886155Y-34873999D01*
X23886172Y-34874000D01*
X24133999Y-34874000D01*
X24134000Y-34224000D01*
X24634000Y-34224000D01*
X24634000Y-34874000D01*
X24881828Y-34874000D01*
X24881844Y-34873999D01*
X24941372Y-34867598D01*
X24941379Y-34867596D01*
X25076086Y-34817354D01*
X25076093Y-34817350D01*
X25191187Y-34731190D01*
X25191190Y-34731187D01*
X25277350Y-34616093D01*
X25277354Y-34616086D01*
X25327596Y-34481379D01*
X25327598Y-34481372D01*
X25333999Y-34421844D01*
X25334000Y-34421827D01*
X25334000Y-34224000D01*
X24634000Y-34224000D01*
X24134000Y-34224000D01*
X23434000Y-34224000D01*
X22481789Y-34224000D01*
X22481789Y-31633647D01*
X22501474Y-31566608D01*
X22554278Y-31520853D01*
X22623436Y-31510909D01*
X22683596Y-31537096D01*
X22706104Y-31555234D01*
X22706106Y-31555235D01*
X22836884Y-31614961D01*
X22836889Y-31614962D01*
X22979203Y-31635422D01*
X23121517Y-31614962D01*
X23121522Y-31614961D01*
X23252300Y-31555235D01*
X23252302Y-31555234D01*
X23298933Y-31517656D01*
X23298939Y-31517651D01*
X23332755Y-31483834D01*
X23332756Y-31478765D01*
X23305367Y-31428606D01*
X23310351Y-31358914D01*
X23352223Y-31302981D01*
X23408886Y-31279510D01*
X23439689Y-31275082D01*
X23448454Y-31273822D01*
X23517613Y-31283767D01*
X23520604Y-31285844D01*
X23533252Y-31285844D01*
X23589052Y-31255375D01*
X23658744Y-31260359D01*
G37*
%TD.AperFunction*%
%TA.AperFunction,Conductor*%
G36*
X53358981Y-32878765D02*
G01*
X53404195Y-32932033D01*
X53414881Y-32982391D01*
X53414880Y-36097208D01*
X53395195Y-36164247D01*
X53378561Y-36184889D01*
X52541770Y-37021681D01*
X52480447Y-37055166D01*
X52454089Y-37058000D01*
X51509910Y-37058000D01*
X51442871Y-37038315D01*
X51397116Y-36985511D01*
X51387172Y-36916353D01*
X51416197Y-36852797D01*
X51422229Y-36846319D01*
X51758157Y-36510391D01*
X52153202Y-36115345D01*
X52159293Y-36110003D01*
X52187987Y-36087987D01*
X52206267Y-36064164D01*
X52212475Y-36056073D01*
X52212477Y-36056072D01*
X52285524Y-35960876D01*
X52346838Y-35812851D01*
X52356310Y-35740902D01*
X52362500Y-35693885D01*
X52362500Y-35693879D01*
X52362509Y-35693815D01*
X52362751Y-35691974D01*
X52362754Y-35691950D01*
X52363561Y-35685819D01*
X52367750Y-35654000D01*
X52363028Y-35618134D01*
X52362500Y-35610070D01*
X52362500Y-34837999D01*
X52382185Y-34770960D01*
X52434989Y-34725206D01*
X52486500Y-34714000D01*
X52641828Y-34714000D01*
X52641844Y-34713999D01*
X52701372Y-34707598D01*
X52701379Y-34707596D01*
X52836086Y-34657354D01*
X52836093Y-34657350D01*
X52951187Y-34571190D01*
X52951190Y-34571187D01*
X53037350Y-34456093D01*
X53037354Y-34456086D01*
X53087596Y-34321379D01*
X53087598Y-34321372D01*
X53093999Y-34261844D01*
X53094000Y-34261827D01*
X53094000Y-34069000D01*
X52486500Y-34069000D01*
X52419461Y-34049315D01*
X52373706Y-33996511D01*
X52362500Y-33945000D01*
X52362500Y-33756500D01*
X52382185Y-33689461D01*
X52434989Y-33643706D01*
X52486500Y-33632500D01*
X52642638Y-33632500D01*
X52642654Y-33632499D01*
X52669692Y-33629591D01*
X52703201Y-33625989D01*
X52731444Y-33615455D01*
X52802111Y-33589097D01*
X52835030Y-33576818D01*
X52878364Y-33569000D01*
X53094000Y-33569000D01*
X53094000Y-33376172D01*
X53093999Y-33376155D01*
X53087598Y-33316626D01*
X53087436Y-33315939D01*
X53087465Y-33315389D01*
X53086769Y-33308912D01*
X53087818Y-33308799D01*
X53091173Y-33246169D01*
X53091931Y-33244080D01*
X53093601Y-33239603D01*
X53095989Y-33233201D01*
X53099791Y-33197836D01*
X53102499Y-33172654D01*
X53102500Y-33172637D01*
X53102500Y-33022844D01*
X53122185Y-32955805D01*
X53160524Y-32917853D01*
X53224912Y-32877396D01*
X53292146Y-32858397D01*
X53358981Y-32878765D01*
G37*
%TD.AperFunction*%
%TA.AperFunction,Conductor*%
G36*
X47207159Y-35080006D02*
G01*
X47227378Y-35093000D01*
X47451636Y-35093000D01*
X47494969Y-35100818D01*
X47626799Y-35149989D01*
X47654050Y-35152918D01*
X47687345Y-35156499D01*
X47687362Y-35156500D01*
X47843500Y-35156500D01*
X47910539Y-35176185D01*
X47956294Y-35228989D01*
X47967500Y-35280500D01*
X47967500Y-35469000D01*
X47947815Y-35536039D01*
X47895011Y-35581794D01*
X47843500Y-35593000D01*
X47236000Y-35593000D01*
X47236000Y-35773500D01*
X47216315Y-35840539D01*
X47163511Y-35886294D01*
X47112000Y-35897500D01*
X46586515Y-35897500D01*
X46519476Y-35877815D01*
X46473721Y-35825011D01*
X46463777Y-35755853D01*
X46492802Y-35692297D01*
X46498834Y-35685819D01*
X47076145Y-35108507D01*
X47137468Y-35075022D01*
X47207159Y-35080006D01*
G37*
%TD.AperFunction*%
%TA.AperFunction,Conductor*%
G36*
X55554269Y-33210240D02*
G01*
X55586448Y-33233444D01*
X56141990Y-33788986D01*
X56175475Y-33850309D01*
X56170491Y-33920001D01*
X56141991Y-33964347D01*
X56108943Y-33997395D01*
X56070726Y-34044819D01*
X56009984Y-34177828D01*
X56009983Y-34177830D01*
X55989345Y-34321372D01*
X55989174Y-34322563D01*
X55992382Y-34344875D01*
X56009983Y-34467295D01*
X56009984Y-34467297D01*
X56070726Y-34600306D01*
X56070727Y-34600307D01*
X56094296Y-34629555D01*
X56121033Y-34694107D01*
X56108626Y-34762866D01*
X56061015Y-34814003D01*
X55993315Y-34831281D01*
X55927021Y-34809215D01*
X55919936Y-34803911D01*
X55892117Y-34781492D01*
X55761337Y-34721766D01*
X55761332Y-34721765D01*
X55619019Y-34701305D01*
X55476705Y-34721765D01*
X55476700Y-34721766D01*
X55345921Y-34781492D01*
X55299286Y-34819072D01*
X55299282Y-34819076D01*
X54843562Y-35274797D01*
X54782239Y-35308282D01*
X54712547Y-35303298D01*
X54656614Y-35261426D01*
X54632197Y-35195962D01*
X54631881Y-35187116D01*
X54631881Y-33336153D01*
X54651566Y-33269114D01*
X54704370Y-33223359D01*
X54773528Y-33213415D01*
X54833689Y-33239603D01*
X54844901Y-33248639D01*
X54975681Y-33308365D01*
X54975686Y-33308366D01*
X55118000Y-33328826D01*
X55260313Y-33308366D01*
X55260318Y-33308365D01*
X55391098Y-33248639D01*
X55420959Y-33224575D01*
X55485510Y-33197836D01*
X55554269Y-33210240D01*
G37*
%TD.AperFunction*%
%TA.AperFunction,Conductor*%
G36*
X59453022Y-30600185D02*
G01*
X59498777Y-30652989D01*
X59508721Y-30722147D01*
X59479696Y-30785703D01*
X59420918Y-30823477D01*
X59403629Y-30827238D01*
X59365793Y-30832677D01*
X59365788Y-30832678D01*
X59235009Y-30892404D01*
X59188374Y-30929984D01*
X58801000Y-31317358D01*
X61011415Y-33527774D01*
X61044900Y-33589097D01*
X61039916Y-33658789D01*
X61011415Y-33703136D01*
X60038435Y-34676114D01*
X60038436Y-34718286D01*
X60018751Y-34785325D01*
X59965947Y-34831080D01*
X59896789Y-34841024D01*
X59833233Y-34811999D01*
X59826755Y-34805967D01*
X59555032Y-34534244D01*
X59521547Y-34472921D01*
X59526531Y-34403229D01*
X59568403Y-34347296D01*
X59633867Y-34322879D01*
X59642713Y-34322563D01*
X59684885Y-34322563D01*
X60391990Y-33615456D01*
X60391990Y-33615455D01*
X58447448Y-31670912D01*
X58447447Y-31670912D01*
X58060076Y-32058282D01*
X58060072Y-32058286D01*
X58022492Y-32104921D01*
X57962766Y-32235700D01*
X57962765Y-32235705D01*
X57942305Y-32378018D01*
X57962765Y-32520332D01*
X57962766Y-32520337D01*
X58022492Y-32651117D01*
X58044911Y-32678936D01*
X58071649Y-32743487D01*
X58059244Y-32812247D01*
X58011634Y-32863384D01*
X57943935Y-32880664D01*
X57877641Y-32858600D01*
X57870555Y-32853296D01*
X57841307Y-32829727D01*
X57841306Y-32829726D01*
X57708297Y-32768984D01*
X57708295Y-32768983D01*
X57563563Y-32748174D01*
X57418830Y-32768983D01*
X57418828Y-32768984D01*
X57285819Y-32829726D01*
X57238396Y-32867943D01*
X57177901Y-32928438D01*
X57116577Y-32961922D01*
X57046886Y-32956937D01*
X57002539Y-32928437D01*
X56118304Y-32044202D01*
X56093190Y-32008030D01*
X56080510Y-31980263D01*
X56080507Y-31980258D01*
X56042281Y-31932822D01*
X55796734Y-31687275D01*
X55796728Y-31687270D01*
X55796725Y-31687267D01*
X55749296Y-31649047D01*
X55749294Y-31649046D01*
X55747306Y-31647444D01*
X55728561Y-31628699D01*
X55701195Y-31594740D01*
X55688733Y-31579275D01*
X55688729Y-31579271D01*
X55688725Y-31579266D01*
X55443181Y-31333722D01*
X55443175Y-31333717D01*
X55443172Y-31333714D01*
X55395743Y-31295494D01*
X55384711Y-31290456D01*
X55367967Y-31282809D01*
X55331798Y-31257696D01*
X54866283Y-30792181D01*
X54832798Y-30730858D01*
X54837782Y-30661166D01*
X54879654Y-30605233D01*
X54945118Y-30580816D01*
X54953964Y-30580500D01*
X59385983Y-30580500D01*
X59453022Y-30600185D01*
G37*
%TD.AperFunction*%
%TA.AperFunction,Conductor*%
G36*
X41624846Y-30854185D02*
G01*
X41670601Y-30906989D01*
X41681097Y-30971755D01*
X41679547Y-30986171D01*
X41679547Y-31184000D01*
X42676500Y-31184000D01*
X42743539Y-31203685D01*
X42789294Y-31256489D01*
X42800500Y-31308000D01*
X42800500Y-31560000D01*
X42780815Y-31627039D01*
X42728011Y-31672794D01*
X42676500Y-31684000D01*
X41679547Y-31684000D01*
X41679547Y-31881844D01*
X41685948Y-31941372D01*
X41685950Y-31941379D01*
X41738647Y-32082667D01*
X41743631Y-32152359D01*
X41710146Y-32213682D01*
X41648823Y-32247166D01*
X41622465Y-32250000D01*
X41430155Y-32250000D01*
X41370627Y-32256401D01*
X41370620Y-32256403D01*
X41235913Y-32306645D01*
X41235906Y-32306649D01*
X41120812Y-32392809D01*
X41114540Y-32399082D01*
X41113111Y-32397653D01*
X41066436Y-32432585D01*
X40996744Y-32437560D01*
X40935425Y-32404067D01*
X40906937Y-32359732D01*
X40889905Y-32314069D01*
X40884025Y-32298306D01*
X40879041Y-32228615D01*
X40912525Y-32167292D01*
X40956876Y-32138789D01*
X40966088Y-32135353D01*
X40966093Y-32135350D01*
X41081187Y-32049190D01*
X41081190Y-32049187D01*
X41167350Y-31934093D01*
X41167354Y-31934086D01*
X41217596Y-31799379D01*
X41217598Y-31799372D01*
X41223999Y-31739844D01*
X41224000Y-31739827D01*
X41224000Y-31492000D01*
X40198000Y-31492000D01*
X40130961Y-31472315D01*
X40085206Y-31419511D01*
X40074000Y-31368000D01*
X40074000Y-31116000D01*
X40093685Y-31048961D01*
X40146489Y-31003206D01*
X40198000Y-30992000D01*
X41224000Y-30992000D01*
X41224000Y-30958500D01*
X41243685Y-30891461D01*
X41296489Y-30845706D01*
X41348000Y-30834500D01*
X41557807Y-30834500D01*
X41624846Y-30854185D01*
G37*
%TD.AperFunction*%
%TA.AperFunction,Conductor*%
G36*
X29394224Y-25158185D02*
G01*
X29425558Y-25187010D01*
X29454968Y-25225337D01*
X29480162Y-25290504D01*
X29480592Y-25300823D01*
X29480592Y-25934000D01*
X29528000Y-25934000D01*
X29595039Y-25953685D01*
X29640794Y-26006489D01*
X29652000Y-26058000D01*
X29652000Y-30098000D01*
X29632315Y-30165039D01*
X29579511Y-30210794D01*
X29528000Y-30222000D01*
X29276000Y-30222000D01*
X29208961Y-30202315D01*
X29163206Y-30149511D01*
X29152000Y-30098000D01*
X29152000Y-26357821D01*
X29104592Y-26357821D01*
X29037553Y-26338136D01*
X28991798Y-26285332D01*
X28980592Y-26233821D01*
X28980592Y-25262500D01*
X29000277Y-25195461D01*
X29053081Y-25149706D01*
X29104592Y-25138500D01*
X29327185Y-25138500D01*
X29394224Y-25158185D01*
G37*
%TD.AperFunction*%
%TA.AperFunction,Conductor*%
G36*
X61131039Y-28392804D02*
G01*
X61176794Y-28445608D01*
X61188000Y-28497119D01*
X61188000Y-29030154D01*
X61194510Y-29090701D01*
X61233848Y-29196166D01*
X61238832Y-29265857D01*
X61205348Y-29327181D01*
X61144025Y-29360666D01*
X61117666Y-29363500D01*
X56370220Y-29363500D01*
X56303181Y-29343815D01*
X56257426Y-29291011D01*
X56247482Y-29221853D01*
X56254038Y-29196167D01*
X56297596Y-29079379D01*
X56297598Y-29079372D01*
X56303999Y-29019844D01*
X56304000Y-29019827D01*
X56304000Y-28952000D01*
X55346500Y-28952000D01*
X55279461Y-28932315D01*
X55233706Y-28879511D01*
X55222500Y-28828000D01*
X55222500Y-28576000D01*
X55242185Y-28508961D01*
X55294989Y-28463206D01*
X55346500Y-28452000D01*
X56304000Y-28452000D01*
X56322755Y-28433244D01*
X56323685Y-28430080D01*
X56376489Y-28384325D01*
X56428000Y-28373119D01*
X61064000Y-28373119D01*
X61131039Y-28392804D01*
G37*
%TD.AperFunction*%
%TA.AperFunction,Conductor*%
G36*
X59957769Y-22061531D02*
G01*
X60013703Y-22103402D01*
X60038120Y-22168867D01*
X60038436Y-22177713D01*
X60038436Y-22219883D01*
X60745544Y-22926991D01*
X61806202Y-23987651D01*
X61806203Y-23987651D01*
X63431015Y-22362839D01*
X63468593Y-22316206D01*
X63503704Y-22239325D01*
X63549459Y-22186521D01*
X63616498Y-22166836D01*
X63683538Y-22186520D01*
X63729293Y-22239324D01*
X63740499Y-22290836D01*
X63740499Y-26874672D01*
X63720814Y-26941711D01*
X63668010Y-26987466D01*
X63598852Y-26997410D01*
X63542190Y-26973940D01*
X63517706Y-26955611D01*
X63380703Y-26904511D01*
X63320154Y-26898000D01*
X63320138Y-26898000D01*
X61647862Y-26898000D01*
X61647845Y-26898000D01*
X61587297Y-26904511D01*
X61587295Y-26904511D01*
X61450295Y-26955611D01*
X61333237Y-27043240D01*
X61285936Y-27106429D01*
X61230003Y-27148301D01*
X61186669Y-27156119D01*
X54875344Y-27156119D01*
X54808305Y-27136434D01*
X54762550Y-27083630D01*
X54752606Y-27014472D01*
X54781631Y-26950916D01*
X54787663Y-26944438D01*
X55045601Y-26686500D01*
X55839798Y-25892301D01*
X55875965Y-25867190D01*
X55903743Y-25854506D01*
X55951172Y-25816286D01*
X56188817Y-25578641D01*
X58801000Y-25578641D01*
X59188374Y-25966015D01*
X59235009Y-26003595D01*
X59365788Y-26063321D01*
X59365793Y-26063322D01*
X59508107Y-26083782D01*
X59650420Y-26063322D01*
X59650425Y-26063321D01*
X59781204Y-26003595D01*
X59827839Y-25966015D01*
X59827843Y-25966011D01*
X61452650Y-24341205D01*
X61452650Y-24341203D01*
X60745545Y-23634097D01*
X60745544Y-23634097D01*
X58801000Y-25578641D01*
X56188817Y-25578641D01*
X56196733Y-25570725D01*
X56198870Y-25568072D01*
X56243926Y-25533070D01*
X56252651Y-25529085D01*
X56299291Y-25491501D01*
X56299292Y-25491499D01*
X56333106Y-25457685D01*
X56333106Y-25455432D01*
X56302331Y-25399074D01*
X56300759Y-25355071D01*
X56310003Y-25290769D01*
X56339028Y-25227217D01*
X56397806Y-25189442D01*
X56467675Y-25189442D01*
X56520422Y-25220738D01*
X56545237Y-25245553D01*
X56545239Y-25245553D01*
X56579052Y-25211739D01*
X56579054Y-25211738D01*
X56616639Y-25165097D01*
X56676365Y-25034318D01*
X56676366Y-25034313D01*
X56696826Y-24892000D01*
X56676366Y-24749686D01*
X56676365Y-24749681D01*
X56616639Y-24618901D01*
X56592573Y-24589038D01*
X56565835Y-24524487D01*
X56578240Y-24455727D01*
X56601437Y-24423557D01*
X57029989Y-23995005D01*
X57091308Y-23961523D01*
X57161000Y-23966507D01*
X57205347Y-23995008D01*
X57238395Y-24028056D01*
X57256573Y-24042705D01*
X57285820Y-24066274D01*
X57418829Y-24127016D01*
X57563563Y-24147826D01*
X57708297Y-24127016D01*
X57841306Y-24066274D01*
X57847977Y-24060898D01*
X57870554Y-24042705D01*
X57935105Y-24015967D01*
X58003864Y-24028372D01*
X58055002Y-24075982D01*
X58072281Y-24143682D01*
X58050216Y-24209976D01*
X58044912Y-24217062D01*
X58022492Y-24244882D01*
X57962766Y-24375662D01*
X57962765Y-24375667D01*
X57942305Y-24517981D01*
X57962765Y-24660294D01*
X57962766Y-24660299D01*
X58022492Y-24791078D01*
X58060072Y-24837713D01*
X58447446Y-25225087D01*
X60391991Y-23280544D01*
X59684883Y-22573436D01*
X59642714Y-22573436D01*
X59575675Y-22553751D01*
X59529920Y-22500947D01*
X59519976Y-22431789D01*
X59549001Y-22368233D01*
X59555033Y-22361755D01*
X59690179Y-22226609D01*
X59826757Y-22090030D01*
X59888078Y-22056547D01*
X59957769Y-22061531D01*
G37*
%TD.AperFunction*%
%TA.AperFunction,Conductor*%
G36*
X41811334Y-21526978D02*
G01*
X41855681Y-21555479D01*
X41955962Y-21655760D01*
X42136346Y-21782067D01*
X42335924Y-21875131D01*
X42548629Y-21932126D01*
X42705322Y-21945834D01*
X42767998Y-21951318D01*
X42767999Y-21951318D01*
X42767999Y-21951317D01*
X42768000Y-21951318D01*
X42818128Y-21946932D01*
X42886627Y-21960698D01*
X42936810Y-22009313D01*
X42952744Y-22077341D01*
X42945116Y-22113794D01*
X42906512Y-22217292D01*
X42906511Y-22217297D01*
X42900000Y-22277845D01*
X42900000Y-23950152D01*
X42903868Y-23986118D01*
X42891464Y-24054878D01*
X42843854Y-24106016D01*
X42780579Y-24123375D01*
X39584107Y-24123375D01*
X39465150Y-24139037D01*
X39465146Y-24139038D01*
X39317129Y-24200348D01*
X39317128Y-24200348D01*
X39190011Y-24297889D01*
X39092474Y-24425002D01*
X39031163Y-24573021D01*
X39031161Y-24573026D01*
X39010249Y-24731874D01*
X39010249Y-24731876D01*
X39031161Y-24890724D01*
X39033266Y-24898577D01*
X39032700Y-24898728D01*
X39040500Y-24937933D01*
X39040500Y-26880000D01*
X39020815Y-26947039D01*
X38968011Y-26992794D01*
X38916500Y-27004000D01*
X38798000Y-27004000D01*
X38730961Y-26984315D01*
X38685206Y-26931511D01*
X38674000Y-26880000D01*
X38674000Y-24754000D01*
X38426172Y-24754000D01*
X38422847Y-24754178D01*
X38422766Y-24752670D01*
X38359889Y-24741280D01*
X38316203Y-24704746D01*
X38262560Y-24633088D01*
X38147467Y-24546929D01*
X38147460Y-24546925D01*
X38012753Y-24496683D01*
X38012746Y-24496681D01*
X37953218Y-24490280D01*
X37705374Y-24490280D01*
X37705374Y-25516280D01*
X37685689Y-25583319D01*
X37632885Y-25629074D01*
X37581374Y-25640280D01*
X37329374Y-25640280D01*
X37262335Y-25620595D01*
X37216580Y-25567791D01*
X37205374Y-25516280D01*
X37205374Y-24490280D01*
X36957529Y-24490280D01*
X36898001Y-24496681D01*
X36897994Y-24496683D01*
X36763287Y-24546925D01*
X36763280Y-24546929D01*
X36648186Y-24633089D01*
X36648184Y-24633091D01*
X36634386Y-24651523D01*
X36578451Y-24693393D01*
X36508759Y-24698375D01*
X36447440Y-24664891D01*
X36224730Y-24442181D01*
X36191245Y-24380858D01*
X36196229Y-24311166D01*
X36238101Y-24255233D01*
X36303565Y-24230816D01*
X36312411Y-24230500D01*
X37790065Y-24230500D01*
X37798162Y-24231030D01*
X37823538Y-24234371D01*
X37834010Y-24235750D01*
X37834011Y-24235750D01*
X37834012Y-24235750D01*
X37869857Y-24231031D01*
X37871972Y-24230752D01*
X37871985Y-24230751D01*
X37873892Y-24230500D01*
X37873896Y-24230500D01*
X37973467Y-24217391D01*
X37973467Y-24217392D01*
X37973471Y-24217390D01*
X37992862Y-24214838D01*
X38140887Y-24153524D01*
X38236083Y-24080477D01*
X38236084Y-24080475D01*
X38244175Y-24074267D01*
X38244177Y-24074264D01*
X38267998Y-24055987D01*
X38290021Y-24027286D01*
X38295351Y-24021208D01*
X40368510Y-21948048D01*
X40429831Y-21914565D01*
X40488282Y-21915956D01*
X40548629Y-21932126D01*
X40705322Y-21945834D01*
X40767998Y-21951318D01*
X40768000Y-21951318D01*
X40768002Y-21951318D01*
X40824786Y-21946350D01*
X40987371Y-21932126D01*
X41200076Y-21875131D01*
X41399654Y-21782067D01*
X41580038Y-21655760D01*
X41680319Y-21555478D01*
X41741642Y-21521994D01*
X41811334Y-21526978D01*
G37*
%TD.AperFunction*%
%TA.AperFunction,Conductor*%
G36*
X40517039Y-26582185D02*
G01*
X40562794Y-26634989D01*
X40574000Y-26686500D01*
X40574000Y-26880000D01*
X40554315Y-26947039D01*
X40501511Y-26992794D01*
X40450000Y-27004000D01*
X40331500Y-27004000D01*
X40264461Y-26984315D01*
X40218706Y-26931511D01*
X40207500Y-26880000D01*
X40207500Y-26686500D01*
X40227185Y-26619461D01*
X40279989Y-26573706D01*
X40331500Y-26562500D01*
X40450000Y-26562500D01*
X40517039Y-26582185D01*
G37*
%TD.AperFunction*%
%TA.AperFunction,Conductor*%
G36*
X43806262Y-25360060D02*
G01*
X43852017Y-25412864D01*
X43863223Y-25464375D01*
X43863223Y-25620529D01*
X43869734Y-25681077D01*
X43869735Y-25681082D01*
X43918904Y-25812906D01*
X43926723Y-25856240D01*
X43926723Y-26071875D01*
X43981500Y-26071875D01*
X44048539Y-26091560D01*
X44094294Y-26144364D01*
X44105500Y-26195875D01*
X44105500Y-26344575D01*
X44085815Y-26411614D01*
X44033011Y-26457369D01*
X44022455Y-26461617D01*
X43955033Y-26485209D01*
X43885254Y-26488770D01*
X43826397Y-26455848D01*
X43641354Y-26270805D01*
X43636001Y-26264702D01*
X43634332Y-26262528D01*
X43613987Y-26236013D01*
X43602405Y-26227126D01*
X43561710Y-26172085D01*
X43554889Y-26153796D01*
X43467261Y-26036739D01*
X43467259Y-26036737D01*
X43467258Y-26036736D01*
X43463041Y-26032519D01*
X43429556Y-25971196D01*
X43426722Y-25944838D01*
X43426723Y-25464375D01*
X43446408Y-25397335D01*
X43499212Y-25351581D01*
X43550723Y-25340375D01*
X43739223Y-25340375D01*
X43806262Y-25360060D01*
G37*
%TD.AperFunction*%
%TA.AperFunction,Conductor*%
G36*
X42724762Y-25360060D02*
G01*
X42770517Y-25412864D01*
X42781723Y-25464375D01*
X42781723Y-25619719D01*
X42788124Y-25679247D01*
X42788127Y-25679258D01*
X42804877Y-25724166D01*
X42809862Y-25793857D01*
X42776378Y-25855181D01*
X42715055Y-25888666D01*
X42688696Y-25891500D01*
X42265345Y-25891500D01*
X42204802Y-25898010D01*
X42197245Y-25899796D01*
X42196778Y-25897822D01*
X42137626Y-25902046D01*
X42126708Y-25898839D01*
X42123197Y-25898010D01*
X42062654Y-25891500D01*
X42062638Y-25891500D01*
X41752411Y-25891500D01*
X41685372Y-25871815D01*
X41664730Y-25855181D01*
X41361605Y-25552056D01*
X41328120Y-25490733D01*
X41333104Y-25421041D01*
X41374976Y-25365108D01*
X41440440Y-25340691D01*
X41449286Y-25340375D01*
X42657723Y-25340375D01*
X42724762Y-25360060D01*
G37*
%TD.AperFunction*%
%TA.AperFunction,Conductor*%
G36*
X54079203Y-20810279D02*
G01*
X54110795Y-20852481D01*
X54133406Y-20901992D01*
X54170984Y-20948625D01*
X55299286Y-22076927D01*
X55345921Y-22114507D01*
X55476700Y-22174233D01*
X55476705Y-22174234D01*
X55619019Y-22194694D01*
X55761332Y-22174234D01*
X55761337Y-22174233D01*
X55892117Y-22114506D01*
X55919934Y-22092090D01*
X55984485Y-22065350D01*
X56053245Y-22077754D01*
X56104383Y-22125363D01*
X56121664Y-22193062D01*
X56099601Y-22259356D01*
X56094297Y-22266442D01*
X56070729Y-22295689D01*
X56070726Y-22295693D01*
X56009984Y-22428702D01*
X56009983Y-22428704D01*
X55989884Y-22568500D01*
X55989174Y-22573437D01*
X55992668Y-22597740D01*
X56009983Y-22718169D01*
X56009984Y-22718171D01*
X56070726Y-22851180D01*
X56090259Y-22875419D01*
X56108947Y-22898608D01*
X56169439Y-22959100D01*
X56202922Y-23020419D01*
X56197938Y-23090111D01*
X56169437Y-23134459D01*
X55412200Y-23891696D01*
X55376032Y-23916809D01*
X55348258Y-23929493D01*
X55300823Y-23967718D01*
X55176181Y-24092360D01*
X55114858Y-24125844D01*
X55045166Y-24120860D01*
X54989233Y-24078988D01*
X54964816Y-24013524D01*
X54964500Y-24004678D01*
X54964500Y-22649944D01*
X54965031Y-22641843D01*
X54965592Y-22637586D01*
X54969750Y-22606000D01*
X54964500Y-22566122D01*
X54964500Y-22566115D01*
X54948838Y-22447150D01*
X54887524Y-22299125D01*
X54862536Y-22266560D01*
X54841638Y-22239325D01*
X54812776Y-22201710D01*
X54812762Y-22201693D01*
X54789985Y-22172011D01*
X54775140Y-22160620D01*
X54761293Y-22149995D01*
X54755203Y-22144654D01*
X54122770Y-21512221D01*
X53910319Y-21299769D01*
X53876834Y-21238446D01*
X53874000Y-21212088D01*
X53874000Y-20903992D01*
X53893685Y-20836953D01*
X53946489Y-20791198D01*
X54015647Y-20781254D01*
X54079203Y-20810279D01*
G37*
%TD.AperFunction*%
%TA.AperFunction,Conductor*%
G36*
X45811334Y-21526978D02*
G01*
X45855681Y-21555479D01*
X45955962Y-21655760D01*
X46136346Y-21782067D01*
X46335924Y-21875131D01*
X46548629Y-21932126D01*
X46726426Y-21947680D01*
X46791493Y-21973132D01*
X46832471Y-22029723D01*
X46836350Y-22099485D01*
X46814884Y-22145518D01*
X46784649Y-22185906D01*
X46784645Y-22185913D01*
X46734403Y-22320620D01*
X46734401Y-22320627D01*
X46728000Y-22380155D01*
X46728000Y-22573000D01*
X47527499Y-22573000D01*
X47594538Y-22592685D01*
X47640293Y-22645489D01*
X47651499Y-22696999D01*
X47651500Y-22885499D01*
X47631816Y-22952539D01*
X47579012Y-22998294D01*
X47527500Y-23009500D01*
X47179345Y-23009500D01*
X47118797Y-23016011D01*
X47118795Y-23016011D01*
X47002206Y-23059498D01*
X46986969Y-23065181D01*
X46943636Y-23073000D01*
X46728000Y-23073000D01*
X46728000Y-23265844D01*
X46734401Y-23325374D01*
X46734567Y-23326074D01*
X46734537Y-23326632D01*
X46735231Y-23333087D01*
X46734184Y-23333199D01*
X46730821Y-23395843D01*
X46730071Y-23397911D01*
X46726012Y-23408792D01*
X46726010Y-23408802D01*
X46719500Y-23469345D01*
X46719499Y-23469362D01*
X46719499Y-23858112D01*
X46699814Y-23925152D01*
X46647010Y-23970906D01*
X46577852Y-23980850D01*
X46554545Y-23975154D01*
X46462622Y-23942989D01*
X46392252Y-23918366D01*
X46392249Y-23918365D01*
X46385680Y-23916067D01*
X46386504Y-23913709D01*
X46336752Y-23886203D01*
X45528319Y-23077769D01*
X45494834Y-23016446D01*
X45492000Y-22990088D01*
X45492000Y-22277862D01*
X45491999Y-22277845D01*
X45487857Y-22239324D01*
X45485489Y-22217299D01*
X45485486Y-22217292D01*
X45463022Y-22157064D01*
X45434389Y-22080296D01*
X45351382Y-21969413D01*
X45326967Y-21903952D01*
X45341818Y-21835679D01*
X45391223Y-21786273D01*
X45398232Y-21782729D01*
X45399654Y-21782067D01*
X45580038Y-21655760D01*
X45680319Y-21555478D01*
X45741642Y-21521994D01*
X45811334Y-21526978D01*
G37*
%TD.AperFunction*%
%TA.AperFunction,Conductor*%
G36*
X57415328Y-14635185D02*
G01*
X57435970Y-14651819D01*
X59032017Y-16247866D01*
X59065502Y-16309189D01*
X59060518Y-16378881D01*
X59032017Y-16423228D01*
X58669124Y-16786121D01*
X58607801Y-16819606D01*
X58538109Y-16814622D01*
X58493762Y-16786121D01*
X58413625Y-16705984D01*
X58366990Y-16668404D01*
X58236211Y-16608678D01*
X58236206Y-16608677D01*
X58093893Y-16588217D01*
X57951579Y-16608677D01*
X57951574Y-16608678D01*
X57820795Y-16668404D01*
X57774160Y-16705984D01*
X57774156Y-16705988D01*
X56149349Y-18330794D01*
X56149349Y-18330795D01*
X56856456Y-19037903D01*
X57917116Y-20098563D01*
X57959287Y-20098563D01*
X58026326Y-20118248D01*
X58072081Y-20171052D01*
X58082025Y-20240210D01*
X58053000Y-20303766D01*
X58046968Y-20310244D01*
X57775244Y-20581967D01*
X57713921Y-20615452D01*
X57644229Y-20610468D01*
X57588296Y-20568596D01*
X57563879Y-20503132D01*
X57563563Y-20494286D01*
X57563563Y-20452116D01*
X56856456Y-19745009D01*
X55795797Y-18684348D01*
X55795796Y-18684348D01*
X54170984Y-20309160D01*
X54133404Y-20355795D01*
X54110794Y-20405305D01*
X54065039Y-20458109D01*
X53998000Y-20477793D01*
X53930960Y-20458108D01*
X53885205Y-20405304D01*
X53874000Y-20353793D01*
X53874000Y-19991862D01*
X53873999Y-19991845D01*
X53869595Y-19950889D01*
X53867489Y-19931299D01*
X53862639Y-19918297D01*
X53841303Y-19861093D01*
X53816389Y-19794296D01*
X53728761Y-19677239D01*
X53611704Y-19589611D01*
X53474703Y-19538511D01*
X53414154Y-19532000D01*
X53414138Y-19532000D01*
X52040500Y-19532000D01*
X51973461Y-19512315D01*
X51927706Y-19459511D01*
X51916500Y-19408000D01*
X51916500Y-19347944D01*
X51917031Y-19339843D01*
X51921750Y-19304000D01*
X51918614Y-19280180D01*
X51916500Y-19264122D01*
X51916500Y-19264115D01*
X51900838Y-19145150D01*
X51839524Y-18997125D01*
X51824094Y-18977016D01*
X51788404Y-18930503D01*
X51788400Y-18930500D01*
X51773225Y-18910723D01*
X51766477Y-18901928D01*
X51766474Y-18901925D01*
X51741987Y-18870013D01*
X51741985Y-18870011D01*
X51741984Y-18870010D01*
X51725939Y-18857699D01*
X51713293Y-18847995D01*
X51707203Y-18842654D01*
X51551797Y-18687248D01*
X51524300Y-18637494D01*
X51521934Y-18638322D01*
X51516173Y-18621858D01*
X51465042Y-18475733D01*
X51377102Y-18335777D01*
X51260223Y-18218898D01*
X51211067Y-18188011D01*
X51120268Y-18130958D01*
X50964246Y-18076364D01*
X50800004Y-18057859D01*
X50799996Y-18057859D01*
X50635753Y-18076364D01*
X50479731Y-18130958D01*
X50339776Y-18218898D01*
X50222898Y-18335776D01*
X50222896Y-18335779D01*
X50201379Y-18370023D01*
X50149044Y-18416314D01*
X50079990Y-18426961D01*
X50016142Y-18398585D01*
X49977771Y-18340195D01*
X49976630Y-18336212D01*
X49955120Y-18255935D01*
X49862056Y-18056358D01*
X49862054Y-18056355D01*
X49862053Y-18056353D01*
X49738397Y-17879755D01*
X49735749Y-17875973D01*
X49580038Y-17720262D01*
X49399654Y-17593955D01*
X49399650Y-17593953D01*
X49200081Y-17500893D01*
X49200079Y-17500892D01*
X49200076Y-17500891D01*
X49027822Y-17454735D01*
X48987372Y-17443896D01*
X48987365Y-17443895D01*
X48768002Y-17424704D01*
X48767998Y-17424704D01*
X48654108Y-17434668D01*
X48548629Y-17443896D01*
X48548627Y-17443896D01*
X48548623Y-17443897D01*
X48488282Y-17460065D01*
X48418432Y-17458402D01*
X48368509Y-17427971D01*
X46979354Y-16038816D01*
X46974001Y-16032713D01*
X46971216Y-16029084D01*
X46951987Y-16004024D01*
X46951985Y-16004022D01*
X46951984Y-16004021D01*
X46920075Y-15979537D01*
X46920074Y-15979536D01*
X46920072Y-15979534D01*
X46874728Y-15944740D01*
X46824877Y-15906487D01*
X46824873Y-15906485D01*
X46676851Y-15845172D01*
X46659711Y-15842916D01*
X46657456Y-15842619D01*
X46657455Y-15842618D01*
X46555704Y-15829223D01*
X46555678Y-15829221D01*
X46518001Y-15824261D01*
X46517999Y-15824261D01*
X46507527Y-15825639D01*
X46482151Y-15828980D01*
X46474054Y-15829511D01*
X10830454Y-15829511D01*
X10822355Y-15828980D01*
X10786509Y-15824261D01*
X10786505Y-15824261D01*
X10749816Y-15829091D01*
X10749791Y-15829093D01*
X10627659Y-15845173D01*
X10627658Y-15845173D01*
X10479630Y-15906488D01*
X10435592Y-15928508D01*
X10416570Y-15954874D01*
X10416012Y-15955305D01*
X10386409Y-15978020D01*
X10386394Y-15978032D01*
X10384437Y-15979534D01*
X10384434Y-15979536D01*
X10384433Y-15979537D01*
X10352521Y-16004025D01*
X10330509Y-16032709D01*
X10325158Y-16038812D01*
X7292800Y-19071166D01*
X7286698Y-19076518D01*
X7263502Y-19094318D01*
X7198334Y-19119514D01*
X7144680Y-19112126D01*
X7137379Y-19109403D01*
X7137372Y-19109401D01*
X7077844Y-19103000D01*
X6092000Y-19103000D01*
X6092000Y-22003000D01*
X6959500Y-22003000D01*
X7026539Y-22022685D01*
X7072294Y-22075489D01*
X7083500Y-22127000D01*
X7083500Y-22568500D01*
X7063815Y-22635539D01*
X7011011Y-22681294D01*
X6959500Y-22692500D01*
X4605345Y-22692500D01*
X4544797Y-22699011D01*
X4544795Y-22699011D01*
X4407795Y-22750111D01*
X4290738Y-22837740D01*
X4267852Y-22868312D01*
X4211918Y-22910182D01*
X4168586Y-22918000D01*
X1652000Y-22918000D01*
X1584961Y-22898315D01*
X1539206Y-22845511D01*
X1528000Y-22794000D01*
X1528000Y-22542000D01*
X1547685Y-22474961D01*
X1600489Y-22429206D01*
X1652000Y-22418000D01*
X3052000Y-22418000D01*
X3552000Y-22418000D01*
X4252000Y-22418000D01*
X4252000Y-22220172D01*
X4251999Y-22220155D01*
X4245598Y-22160627D01*
X4245596Y-22160620D01*
X4217878Y-22086303D01*
X4212894Y-22016612D01*
X4246379Y-21955289D01*
X4307702Y-21921804D01*
X4377394Y-21926788D01*
X4408370Y-21943703D01*
X4411907Y-21946350D01*
X4411913Y-21946354D01*
X4546620Y-21996596D01*
X4546627Y-21996598D01*
X4606155Y-22002999D01*
X4606172Y-22003000D01*
X5592000Y-22003000D01*
X5592000Y-20803000D01*
X4154000Y-20803000D01*
X4154000Y-21550844D01*
X4160401Y-21610372D01*
X4160403Y-21610380D01*
X4188121Y-21684696D01*
X4193105Y-21754388D01*
X4159620Y-21815711D01*
X4098296Y-21849195D01*
X4028605Y-21844210D01*
X3997630Y-21827297D01*
X3994092Y-21824648D01*
X3994086Y-21824645D01*
X3859379Y-21774403D01*
X3859372Y-21774401D01*
X3799844Y-21768000D01*
X3552000Y-21768000D01*
X3552000Y-22418000D01*
X3052000Y-22418000D01*
X3052000Y-21768000D01*
X2804155Y-21768000D01*
X2744627Y-21774401D01*
X2744620Y-21774403D01*
X2609913Y-21824645D01*
X2602128Y-21828897D01*
X2600767Y-21826405D01*
X2548840Y-21845770D01*
X2480568Y-21830915D01*
X2474914Y-21827281D01*
X2470086Y-21824645D01*
X2335379Y-21774403D01*
X2335372Y-21774401D01*
X2275844Y-21768000D01*
X1914211Y-21768000D01*
X1847172Y-21748315D01*
X1801417Y-21695511D01*
X1791473Y-21626353D01*
X1820498Y-21562797D01*
X1826530Y-21556319D01*
X2882697Y-20500152D01*
X3944767Y-19438081D01*
X4006088Y-19404598D01*
X4075780Y-19409582D01*
X4131713Y-19451454D01*
X4156130Y-19516918D01*
X4155736Y-19539015D01*
X4154000Y-19555161D01*
X4154000Y-20303000D01*
X5592000Y-20303000D01*
X5592000Y-19103000D01*
X4606161Y-19103000D01*
X4590015Y-19104736D01*
X4521256Y-19092328D01*
X4470120Y-19044716D01*
X4452843Y-18977016D01*
X4474910Y-18910723D01*
X4489077Y-18893771D01*
X8731030Y-14651818D01*
X8792353Y-14618334D01*
X8818711Y-14615500D01*
X57348289Y-14615500D01*
X57415328Y-14635185D01*
G37*
%TD.AperFunction*%
%TA.AperFunction,Conductor*%
G36*
X16589395Y-19750185D02*
G01*
X16610037Y-19766819D01*
X18666890Y-21823672D01*
X18700375Y-21884995D01*
X18695391Y-21954687D01*
X18653519Y-22010620D01*
X18645179Y-22016348D01*
X18614780Y-22035448D01*
X18547542Y-22054447D01*
X18480708Y-22034078D01*
X18461129Y-22018134D01*
X16385176Y-19942181D01*
X16351691Y-19880858D01*
X16356675Y-19811166D01*
X16398547Y-19755233D01*
X16464011Y-19730816D01*
X16472857Y-19730500D01*
X16522356Y-19730500D01*
X16589395Y-19750185D01*
G37*
%TD.AperFunction*%
%TA.AperFunction,Conductor*%
G36*
X26334803Y-19275577D02*
G01*
X26874965Y-19275577D01*
X26942004Y-19295262D01*
X26987759Y-19348066D01*
X26998965Y-19399577D01*
X26998965Y-19651577D01*
X26979280Y-19718616D01*
X26926476Y-19764371D01*
X26874965Y-19775577D01*
X25814370Y-19775577D01*
X25800601Y-19771534D01*
X25346500Y-19771534D01*
X25279461Y-19751849D01*
X25233706Y-19699045D01*
X25222500Y-19647534D01*
X25222500Y-19395534D01*
X25242185Y-19328495D01*
X25294989Y-19282740D01*
X25346500Y-19271534D01*
X26321034Y-19271534D01*
X26334803Y-19275577D01*
G37*
%TD.AperFunction*%
%TA.AperFunction,Conductor*%
G36*
X21365746Y-17866196D02*
G01*
X21411501Y-17919000D01*
X21421445Y-17988158D01*
X21392420Y-18051714D01*
X21333642Y-18089488D01*
X21311963Y-18093800D01*
X21272797Y-18098011D01*
X21272795Y-18098011D01*
X21135797Y-18149110D01*
X21131960Y-18151206D01*
X21127689Y-18152134D01*
X21127488Y-18152210D01*
X21127477Y-18152181D01*
X21063687Y-18166056D01*
X21029203Y-18158554D01*
X20889379Y-18106403D01*
X20889372Y-18106401D01*
X20829844Y-18100000D01*
X20632000Y-18100000D01*
X20632000Y-19176000D01*
X20612315Y-19243039D01*
X20559511Y-19288794D01*
X20508000Y-19300000D01*
X20256000Y-19300000D01*
X20188961Y-19280315D01*
X20143206Y-19227511D01*
X20132000Y-19176000D01*
X20132000Y-18100000D01*
X19934155Y-18100000D01*
X19874627Y-18106401D01*
X19874620Y-18106403D01*
X19739913Y-18156645D01*
X19739906Y-18156649D01*
X19624812Y-18242809D01*
X19624809Y-18242812D01*
X19538649Y-18357906D01*
X19538645Y-18357913D01*
X19488403Y-18492620D01*
X19488401Y-18492626D01*
X19485999Y-18514969D01*
X19459259Y-18579520D01*
X19401866Y-18619367D01*
X19332041Y-18621858D01*
X19275029Y-18589392D01*
X18743829Y-18058192D01*
X18710344Y-17996869D01*
X18715328Y-17927177D01*
X18757200Y-17871244D01*
X18822664Y-17846827D01*
X18831510Y-17846511D01*
X21298707Y-17846511D01*
X21365746Y-17866196D01*
G37*
%TD.AperFunction*%
%TD*%
M02*
