%TF.GenerationSoftware,KiCad,Pcbnew,7.0.5*%
%TF.CreationDate,2024-09-10T19:27:24-04:00*%
%TF.ProjectId,PCB_PCB_OpenSuperHetv6PCB,5043425f-5043-4425-9f4f-70656e537570,rev?*%
%TF.SameCoordinates,Original*%
%TF.FileFunction,Legend,Top*%
%TF.FilePolarity,Positive*%
%FSLAX46Y46*%
G04 Gerber Fmt 4.6, Leading zero omitted, Abs format (unit mm)*
G04 Created by KiCad (PCBNEW 7.0.5) date 2024-09-10 19:27:24*
%MOMM*%
%LPD*%
G01*
G04 APERTURE LIST*
%ADD10C,0.150000*%
%ADD11C,0.254000*%
%ADD12C,0.152000*%
%ADD13C,0.203000*%
G04 APERTURE END LIST*
D10*
X20806779Y-15806009D02*
X21140112Y-15806009D01*
X21282969Y-16329819D02*
X20806779Y-16329819D01*
X20806779Y-16329819D02*
X20806779Y-15329819D01*
X20806779Y-15329819D02*
X21282969Y-15329819D01*
X21711541Y-16234580D02*
X21759160Y-16282200D01*
X21759160Y-16282200D02*
X21711541Y-16329819D01*
X21711541Y-16329819D02*
X21663922Y-16282200D01*
X21663922Y-16282200D02*
X21711541Y-16234580D01*
X21711541Y-16234580D02*
X21711541Y-16329819D01*
X22949636Y-16329819D02*
X22949636Y-15329819D01*
X22949636Y-15329819D02*
X23330588Y-15329819D01*
X23330588Y-15329819D02*
X23425826Y-15377438D01*
X23425826Y-15377438D02*
X23473445Y-15425057D01*
X23473445Y-15425057D02*
X23521064Y-15520295D01*
X23521064Y-15520295D02*
X23521064Y-15663152D01*
X23521064Y-15663152D02*
X23473445Y-15758390D01*
X23473445Y-15758390D02*
X23425826Y-15806009D01*
X23425826Y-15806009D02*
X23330588Y-15853628D01*
X23330588Y-15853628D02*
X22949636Y-15853628D01*
X24521064Y-16329819D02*
X24187731Y-15853628D01*
X23949636Y-16329819D02*
X23949636Y-15329819D01*
X23949636Y-15329819D02*
X24330588Y-15329819D01*
X24330588Y-15329819D02*
X24425826Y-15377438D01*
X24425826Y-15377438D02*
X24473445Y-15425057D01*
X24473445Y-15425057D02*
X24521064Y-15520295D01*
X24521064Y-15520295D02*
X24521064Y-15663152D01*
X24521064Y-15663152D02*
X24473445Y-15758390D01*
X24473445Y-15758390D02*
X24425826Y-15806009D01*
X24425826Y-15806009D02*
X24330588Y-15853628D01*
X24330588Y-15853628D02*
X23949636Y-15853628D01*
X24949636Y-16329819D02*
X24949636Y-15329819D01*
X25282969Y-15329819D02*
X25854397Y-15329819D01*
X25568683Y-16329819D02*
X25568683Y-15329819D01*
X26759159Y-16234580D02*
X26711540Y-16282200D01*
X26711540Y-16282200D02*
X26568683Y-16329819D01*
X26568683Y-16329819D02*
X26473445Y-16329819D01*
X26473445Y-16329819D02*
X26330588Y-16282200D01*
X26330588Y-16282200D02*
X26235350Y-16186961D01*
X26235350Y-16186961D02*
X26187731Y-16091723D01*
X26187731Y-16091723D02*
X26140112Y-15901247D01*
X26140112Y-15901247D02*
X26140112Y-15758390D01*
X26140112Y-15758390D02*
X26187731Y-15567914D01*
X26187731Y-15567914D02*
X26235350Y-15472676D01*
X26235350Y-15472676D02*
X26330588Y-15377438D01*
X26330588Y-15377438D02*
X26473445Y-15329819D01*
X26473445Y-15329819D02*
X26568683Y-15329819D01*
X26568683Y-15329819D02*
X26711540Y-15377438D01*
X26711540Y-15377438D02*
X26759159Y-15425057D01*
X27187731Y-16329819D02*
X27187731Y-15329819D01*
X27187731Y-15806009D02*
X27759159Y-15806009D01*
X27759159Y-16329819D02*
X27759159Y-15329819D01*
X28187731Y-16044104D02*
X28663921Y-16044104D01*
X28092493Y-16329819D02*
X28425826Y-15329819D01*
X28425826Y-15329819D02*
X28759159Y-16329819D01*
X29663921Y-16329819D02*
X29330588Y-15853628D01*
X29092493Y-16329819D02*
X29092493Y-15329819D01*
X29092493Y-15329819D02*
X29473445Y-15329819D01*
X29473445Y-15329819D02*
X29568683Y-15377438D01*
X29568683Y-15377438D02*
X29616302Y-15425057D01*
X29616302Y-15425057D02*
X29663921Y-15520295D01*
X29663921Y-15520295D02*
X29663921Y-15663152D01*
X29663921Y-15663152D02*
X29616302Y-15758390D01*
X29616302Y-15758390D02*
X29568683Y-15806009D01*
X29568683Y-15806009D02*
X29473445Y-15853628D01*
X29473445Y-15853628D02*
X29092493Y-15853628D01*
X30092493Y-16329819D02*
X30092493Y-15329819D01*
X30092493Y-15329819D02*
X30330588Y-15329819D01*
X30330588Y-15329819D02*
X30473445Y-15377438D01*
X30473445Y-15377438D02*
X30568683Y-15472676D01*
X30568683Y-15472676D02*
X30616302Y-15567914D01*
X30616302Y-15567914D02*
X30663921Y-15758390D01*
X30663921Y-15758390D02*
X30663921Y-15901247D01*
X30663921Y-15901247D02*
X30616302Y-16091723D01*
X30616302Y-16091723D02*
X30568683Y-16186961D01*
X30568683Y-16186961D02*
X30473445Y-16282200D01*
X30473445Y-16282200D02*
X30330588Y-16329819D01*
X30330588Y-16329819D02*
X30092493Y-16329819D01*
X31854398Y-16329819D02*
X31854398Y-15329819D01*
X31854398Y-15329819D02*
X32425826Y-16329819D01*
X32425826Y-16329819D02*
X32425826Y-15329819D01*
X32902017Y-16234580D02*
X32949636Y-16282200D01*
X32949636Y-16282200D02*
X32902017Y-16329819D01*
X32902017Y-16329819D02*
X32854398Y-16282200D01*
X32854398Y-16282200D02*
X32902017Y-16234580D01*
X32902017Y-16234580D02*
X32902017Y-16329819D01*
X34140112Y-16329819D02*
X34140112Y-15329819D01*
X34140112Y-15329819D02*
X34521064Y-15329819D01*
X34521064Y-15329819D02*
X34616302Y-15377438D01*
X34616302Y-15377438D02*
X34663921Y-15425057D01*
X34663921Y-15425057D02*
X34711540Y-15520295D01*
X34711540Y-15520295D02*
X34711540Y-15663152D01*
X34711540Y-15663152D02*
X34663921Y-15758390D01*
X34663921Y-15758390D02*
X34616302Y-15806009D01*
X34616302Y-15806009D02*
X34521064Y-15853628D01*
X34521064Y-15853628D02*
X34140112Y-15853628D01*
X35092493Y-16044104D02*
X35568683Y-16044104D01*
X34997255Y-16329819D02*
X35330588Y-15329819D01*
X35330588Y-15329819D02*
X35663921Y-16329819D01*
X36568683Y-16234580D02*
X36521064Y-16282200D01*
X36521064Y-16282200D02*
X36378207Y-16329819D01*
X36378207Y-16329819D02*
X36282969Y-16329819D01*
X36282969Y-16329819D02*
X36140112Y-16282200D01*
X36140112Y-16282200D02*
X36044874Y-16186961D01*
X36044874Y-16186961D02*
X35997255Y-16091723D01*
X35997255Y-16091723D02*
X35949636Y-15901247D01*
X35949636Y-15901247D02*
X35949636Y-15758390D01*
X35949636Y-15758390D02*
X35997255Y-15567914D01*
X35997255Y-15567914D02*
X36044874Y-15472676D01*
X36044874Y-15472676D02*
X36140112Y-15377438D01*
X36140112Y-15377438D02*
X36282969Y-15329819D01*
X36282969Y-15329819D02*
X36378207Y-15329819D01*
X36378207Y-15329819D02*
X36521064Y-15377438D01*
X36521064Y-15377438D02*
X36568683Y-15425057D01*
X36997255Y-16329819D02*
X36997255Y-15329819D01*
X36997255Y-15806009D02*
X37568683Y-15806009D01*
X37568683Y-16329819D02*
X37568683Y-15329819D01*
X38044874Y-15806009D02*
X38378207Y-15806009D01*
X38521064Y-16329819D02*
X38044874Y-16329819D01*
X38044874Y-16329819D02*
X38044874Y-15329819D01*
X38044874Y-15329819D02*
X38521064Y-15329819D01*
X39521064Y-16234580D02*
X39473445Y-16282200D01*
X39473445Y-16282200D02*
X39330588Y-16329819D01*
X39330588Y-16329819D02*
X39235350Y-16329819D01*
X39235350Y-16329819D02*
X39092493Y-16282200D01*
X39092493Y-16282200D02*
X38997255Y-16186961D01*
X38997255Y-16186961D02*
X38949636Y-16091723D01*
X38949636Y-16091723D02*
X38902017Y-15901247D01*
X38902017Y-15901247D02*
X38902017Y-15758390D01*
X38902017Y-15758390D02*
X38949636Y-15567914D01*
X38949636Y-15567914D02*
X38997255Y-15472676D01*
X38997255Y-15472676D02*
X39092493Y-15377438D01*
X39092493Y-15377438D02*
X39235350Y-15329819D01*
X39235350Y-15329819D02*
X39330588Y-15329819D01*
X39330588Y-15329819D02*
X39473445Y-15377438D01*
X39473445Y-15377438D02*
X39521064Y-15425057D01*
X39949636Y-16329819D02*
X39949636Y-15329819D01*
X40521064Y-16329819D02*
X40092493Y-15758390D01*
X40521064Y-15329819D02*
X39949636Y-15901247D01*
X41759160Y-15329819D02*
X41663922Y-15520295D01*
X42140112Y-15425057D02*
X42187731Y-15377438D01*
X42187731Y-15377438D02*
X42282969Y-15329819D01*
X42282969Y-15329819D02*
X42521064Y-15329819D01*
X42521064Y-15329819D02*
X42616302Y-15377438D01*
X42616302Y-15377438D02*
X42663921Y-15425057D01*
X42663921Y-15425057D02*
X42711540Y-15520295D01*
X42711540Y-15520295D02*
X42711540Y-15615533D01*
X42711540Y-15615533D02*
X42663921Y-15758390D01*
X42663921Y-15758390D02*
X42092493Y-16329819D01*
X42092493Y-16329819D02*
X42711540Y-16329819D01*
X43568683Y-15663152D02*
X43568683Y-16329819D01*
X43330588Y-15282200D02*
X43092493Y-15996485D01*
X43092493Y-15996485D02*
X43711540Y-15996485D01*
X13528779Y-40741819D02*
X13528779Y-39741819D01*
X13528779Y-40218009D02*
X14100207Y-40218009D01*
X14100207Y-40741819D02*
X14100207Y-39741819D01*
X14576398Y-40741819D02*
X14576398Y-39741819D01*
X15814493Y-40741819D02*
X15814493Y-39741819D01*
X15814493Y-39741819D02*
X16195445Y-39741819D01*
X16195445Y-39741819D02*
X16290683Y-39789438D01*
X16290683Y-39789438D02*
X16338302Y-39837057D01*
X16338302Y-39837057D02*
X16385921Y-39932295D01*
X16385921Y-39932295D02*
X16385921Y-40075152D01*
X16385921Y-40075152D02*
X16338302Y-40170390D01*
X16338302Y-40170390D02*
X16290683Y-40218009D01*
X16290683Y-40218009D02*
X16195445Y-40265628D01*
X16195445Y-40265628D02*
X15814493Y-40265628D01*
X16766874Y-40456104D02*
X17243064Y-40456104D01*
X16671636Y-40741819D02*
X17004969Y-39741819D01*
X17004969Y-39741819D02*
X17338302Y-40741819D01*
X18243064Y-40646580D02*
X18195445Y-40694200D01*
X18195445Y-40694200D02*
X18052588Y-40741819D01*
X18052588Y-40741819D02*
X17957350Y-40741819D01*
X17957350Y-40741819D02*
X17814493Y-40694200D01*
X17814493Y-40694200D02*
X17719255Y-40598961D01*
X17719255Y-40598961D02*
X17671636Y-40503723D01*
X17671636Y-40503723D02*
X17624017Y-40313247D01*
X17624017Y-40313247D02*
X17624017Y-40170390D01*
X17624017Y-40170390D02*
X17671636Y-39979914D01*
X17671636Y-39979914D02*
X17719255Y-39884676D01*
X17719255Y-39884676D02*
X17814493Y-39789438D01*
X17814493Y-39789438D02*
X17957350Y-39741819D01*
X17957350Y-39741819D02*
X18052588Y-39741819D01*
X18052588Y-39741819D02*
X18195445Y-39789438D01*
X18195445Y-39789438D02*
X18243064Y-39837057D01*
X18671636Y-40741819D02*
X18671636Y-39741819D01*
X18671636Y-40218009D02*
X19243064Y-40218009D01*
X19243064Y-40741819D02*
X19243064Y-39741819D01*
X19719255Y-40218009D02*
X20052588Y-40218009D01*
X20195445Y-40741819D02*
X19719255Y-40741819D01*
X19719255Y-40741819D02*
X19719255Y-39741819D01*
X19719255Y-39741819D02*
X20195445Y-39741819D01*
X20481160Y-39741819D02*
X21052588Y-39741819D01*
X20766874Y-40741819D02*
X20766874Y-39741819D01*
X21385922Y-40646580D02*
X21433541Y-40694200D01*
X21433541Y-40694200D02*
X21385922Y-40741819D01*
X21385922Y-40741819D02*
X21338303Y-40694200D01*
X21338303Y-40694200D02*
X21385922Y-40646580D01*
X21385922Y-40646580D02*
X21385922Y-40741819D01*
X21385922Y-40360866D02*
X21338303Y-39789438D01*
X21338303Y-39789438D02*
X21385922Y-39741819D01*
X21385922Y-39741819D02*
X21433541Y-39789438D01*
X21433541Y-39789438D02*
X21385922Y-40360866D01*
X21385922Y-40360866D02*
X21385922Y-39741819D01*
X21862112Y-40646580D02*
X21909731Y-40694200D01*
X21909731Y-40694200D02*
X21862112Y-40741819D01*
X21862112Y-40741819D02*
X21814493Y-40694200D01*
X21814493Y-40694200D02*
X21862112Y-40646580D01*
X21862112Y-40646580D02*
X21862112Y-40741819D01*
X21862112Y-40360866D02*
X21814493Y-39789438D01*
X21814493Y-39789438D02*
X21862112Y-39741819D01*
X21862112Y-39741819D02*
X21909731Y-39789438D01*
X21909731Y-39789438D02*
X21862112Y-40360866D01*
X21862112Y-40360866D02*
X21862112Y-39741819D01*
X22338302Y-40646580D02*
X22385921Y-40694200D01*
X22385921Y-40694200D02*
X22338302Y-40741819D01*
X22338302Y-40741819D02*
X22290683Y-40694200D01*
X22290683Y-40694200D02*
X22338302Y-40646580D01*
X22338302Y-40646580D02*
X22338302Y-40741819D01*
X22338302Y-40360866D02*
X22290683Y-39789438D01*
X22290683Y-39789438D02*
X22338302Y-39741819D01*
X22338302Y-39741819D02*
X22385921Y-39789438D01*
X22385921Y-39789438D02*
X22338302Y-40360866D01*
X22338302Y-40360866D02*
X22338302Y-39741819D01*
X23433540Y-39741819D02*
X24004968Y-39741819D01*
X23719254Y-40741819D02*
X23719254Y-39741819D01*
X24338302Y-40741819D02*
X24338302Y-39741819D01*
X24338302Y-40218009D02*
X24909730Y-40218009D01*
X24909730Y-40741819D02*
X24909730Y-39741819D01*
X25385921Y-40741819D02*
X25385921Y-39741819D01*
X25814492Y-40694200D02*
X25957349Y-40741819D01*
X25957349Y-40741819D02*
X26195444Y-40741819D01*
X26195444Y-40741819D02*
X26290682Y-40694200D01*
X26290682Y-40694200D02*
X26338301Y-40646580D01*
X26338301Y-40646580D02*
X26385920Y-40551342D01*
X26385920Y-40551342D02*
X26385920Y-40456104D01*
X26385920Y-40456104D02*
X26338301Y-40360866D01*
X26338301Y-40360866D02*
X26290682Y-40313247D01*
X26290682Y-40313247D02*
X26195444Y-40265628D01*
X26195444Y-40265628D02*
X26004968Y-40218009D01*
X26004968Y-40218009D02*
X25909730Y-40170390D01*
X25909730Y-40170390D02*
X25862111Y-40122771D01*
X25862111Y-40122771D02*
X25814492Y-40027533D01*
X25814492Y-40027533D02*
X25814492Y-39932295D01*
X25814492Y-39932295D02*
X25862111Y-39837057D01*
X25862111Y-39837057D02*
X25909730Y-39789438D01*
X25909730Y-39789438D02*
X26004968Y-39741819D01*
X26004968Y-39741819D02*
X26243063Y-39741819D01*
X26243063Y-39741819D02*
X26385920Y-39789438D01*
X27576397Y-40741819D02*
X27576397Y-39741819D01*
X28004968Y-40694200D02*
X28147825Y-40741819D01*
X28147825Y-40741819D02*
X28385920Y-40741819D01*
X28385920Y-40741819D02*
X28481158Y-40694200D01*
X28481158Y-40694200D02*
X28528777Y-40646580D01*
X28528777Y-40646580D02*
X28576396Y-40551342D01*
X28576396Y-40551342D02*
X28576396Y-40456104D01*
X28576396Y-40456104D02*
X28528777Y-40360866D01*
X28528777Y-40360866D02*
X28481158Y-40313247D01*
X28481158Y-40313247D02*
X28385920Y-40265628D01*
X28385920Y-40265628D02*
X28195444Y-40218009D01*
X28195444Y-40218009D02*
X28100206Y-40170390D01*
X28100206Y-40170390D02*
X28052587Y-40122771D01*
X28052587Y-40122771D02*
X28004968Y-40027533D01*
X28004968Y-40027533D02*
X28004968Y-39932295D01*
X28004968Y-39932295D02*
X28052587Y-39837057D01*
X28052587Y-39837057D02*
X28100206Y-39789438D01*
X28100206Y-39789438D02*
X28195444Y-39741819D01*
X28195444Y-39741819D02*
X28433539Y-39741819D01*
X28433539Y-39741819D02*
X28576396Y-39789438D01*
X29719254Y-40456104D02*
X30195444Y-40456104D01*
X29624016Y-40741819D02*
X29957349Y-39741819D01*
X29957349Y-39741819D02*
X30290682Y-40741819D01*
X31957349Y-40646580D02*
X31909730Y-40694200D01*
X31909730Y-40694200D02*
X31766873Y-40741819D01*
X31766873Y-40741819D02*
X31671635Y-40741819D01*
X31671635Y-40741819D02*
X31528778Y-40694200D01*
X31528778Y-40694200D02*
X31433540Y-40598961D01*
X31433540Y-40598961D02*
X31385921Y-40503723D01*
X31385921Y-40503723D02*
X31338302Y-40313247D01*
X31338302Y-40313247D02*
X31338302Y-40170390D01*
X31338302Y-40170390D02*
X31385921Y-39979914D01*
X31385921Y-39979914D02*
X31433540Y-39884676D01*
X31433540Y-39884676D02*
X31528778Y-39789438D01*
X31528778Y-39789438D02*
X31671635Y-39741819D01*
X31671635Y-39741819D02*
X31766873Y-39741819D01*
X31766873Y-39741819D02*
X31909730Y-39789438D01*
X31909730Y-39789438D02*
X31957349Y-39837057D01*
X32576397Y-39741819D02*
X32766873Y-39741819D01*
X32766873Y-39741819D02*
X32862111Y-39789438D01*
X32862111Y-39789438D02*
X32957349Y-39884676D01*
X32957349Y-39884676D02*
X33004968Y-40075152D01*
X33004968Y-40075152D02*
X33004968Y-40408485D01*
X33004968Y-40408485D02*
X32957349Y-40598961D01*
X32957349Y-40598961D02*
X32862111Y-40694200D01*
X32862111Y-40694200D02*
X32766873Y-40741819D01*
X32766873Y-40741819D02*
X32576397Y-40741819D01*
X32576397Y-40741819D02*
X32481159Y-40694200D01*
X32481159Y-40694200D02*
X32385921Y-40598961D01*
X32385921Y-40598961D02*
X32338302Y-40408485D01*
X32338302Y-40408485D02*
X32338302Y-40075152D01*
X32338302Y-40075152D02*
X32385921Y-39884676D01*
X32385921Y-39884676D02*
X32481159Y-39789438D01*
X32481159Y-39789438D02*
X32576397Y-39741819D01*
X33624016Y-39741819D02*
X33814492Y-39741819D01*
X33814492Y-39741819D02*
X33909730Y-39789438D01*
X33909730Y-39789438D02*
X34004968Y-39884676D01*
X34004968Y-39884676D02*
X34052587Y-40075152D01*
X34052587Y-40075152D02*
X34052587Y-40408485D01*
X34052587Y-40408485D02*
X34004968Y-40598961D01*
X34004968Y-40598961D02*
X33909730Y-40694200D01*
X33909730Y-40694200D02*
X33814492Y-40741819D01*
X33814492Y-40741819D02*
X33624016Y-40741819D01*
X33624016Y-40741819D02*
X33528778Y-40694200D01*
X33528778Y-40694200D02*
X33433540Y-40598961D01*
X33433540Y-40598961D02*
X33385921Y-40408485D01*
X33385921Y-40408485D02*
X33385921Y-40075152D01*
X33385921Y-40075152D02*
X33433540Y-39884676D01*
X33433540Y-39884676D02*
X33528778Y-39789438D01*
X33528778Y-39789438D02*
X33624016Y-39741819D01*
X34957349Y-40741819D02*
X34481159Y-40741819D01*
X34481159Y-40741819D02*
X34481159Y-39741819D01*
X36052588Y-40741819D02*
X36052588Y-39741819D01*
X36052588Y-39741819D02*
X36433540Y-39741819D01*
X36433540Y-39741819D02*
X36528778Y-39789438D01*
X36528778Y-39789438D02*
X36576397Y-39837057D01*
X36576397Y-39837057D02*
X36624016Y-39932295D01*
X36624016Y-39932295D02*
X36624016Y-40075152D01*
X36624016Y-40075152D02*
X36576397Y-40170390D01*
X36576397Y-40170390D02*
X36528778Y-40218009D01*
X36528778Y-40218009D02*
X36433540Y-40265628D01*
X36433540Y-40265628D02*
X36052588Y-40265628D01*
X37624016Y-40646580D02*
X37576397Y-40694200D01*
X37576397Y-40694200D02*
X37433540Y-40741819D01*
X37433540Y-40741819D02*
X37338302Y-40741819D01*
X37338302Y-40741819D02*
X37195445Y-40694200D01*
X37195445Y-40694200D02*
X37100207Y-40598961D01*
X37100207Y-40598961D02*
X37052588Y-40503723D01*
X37052588Y-40503723D02*
X37004969Y-40313247D01*
X37004969Y-40313247D02*
X37004969Y-40170390D01*
X37004969Y-40170390D02*
X37052588Y-39979914D01*
X37052588Y-39979914D02*
X37100207Y-39884676D01*
X37100207Y-39884676D02*
X37195445Y-39789438D01*
X37195445Y-39789438D02*
X37338302Y-39741819D01*
X37338302Y-39741819D02*
X37433540Y-39741819D01*
X37433540Y-39741819D02*
X37576397Y-39789438D01*
X37576397Y-39789438D02*
X37624016Y-39837057D01*
X38385921Y-40218009D02*
X38528778Y-40265628D01*
X38528778Y-40265628D02*
X38576397Y-40313247D01*
X38576397Y-40313247D02*
X38624016Y-40408485D01*
X38624016Y-40408485D02*
X38624016Y-40551342D01*
X38624016Y-40551342D02*
X38576397Y-40646580D01*
X38576397Y-40646580D02*
X38528778Y-40694200D01*
X38528778Y-40694200D02*
X38433540Y-40741819D01*
X38433540Y-40741819D02*
X38052588Y-40741819D01*
X38052588Y-40741819D02*
X38052588Y-39741819D01*
X38052588Y-39741819D02*
X38385921Y-39741819D01*
X38385921Y-39741819D02*
X38481159Y-39789438D01*
X38481159Y-39789438D02*
X38528778Y-39837057D01*
X38528778Y-39837057D02*
X38576397Y-39932295D01*
X38576397Y-39932295D02*
X38576397Y-40027533D01*
X38576397Y-40027533D02*
X38528778Y-40122771D01*
X38528778Y-40122771D02*
X38481159Y-40170390D01*
X38481159Y-40170390D02*
X38385921Y-40218009D01*
X38385921Y-40218009D02*
X38052588Y-40218009D01*
X39052588Y-40646580D02*
X39100207Y-40694200D01*
X39100207Y-40694200D02*
X39052588Y-40741819D01*
X39052588Y-40741819D02*
X39004969Y-40694200D01*
X39004969Y-40694200D02*
X39052588Y-40646580D01*
X39052588Y-40646580D02*
X39052588Y-40741819D01*
X39052588Y-40360866D02*
X39004969Y-39789438D01*
X39004969Y-39789438D02*
X39052588Y-39741819D01*
X39052588Y-39741819D02*
X39100207Y-39789438D01*
X39100207Y-39789438D02*
X39052588Y-40360866D01*
X39052588Y-40360866D02*
X39052588Y-39741819D01*
X39528778Y-40646580D02*
X39576397Y-40694200D01*
X39576397Y-40694200D02*
X39528778Y-40741819D01*
X39528778Y-40741819D02*
X39481159Y-40694200D01*
X39481159Y-40694200D02*
X39528778Y-40646580D01*
X39528778Y-40646580D02*
X39528778Y-40741819D01*
X39528778Y-40360866D02*
X39481159Y-39789438D01*
X39481159Y-39789438D02*
X39528778Y-39741819D01*
X39528778Y-39741819D02*
X39576397Y-39789438D01*
X39576397Y-39789438D02*
X39528778Y-40360866D01*
X39528778Y-40360866D02*
X39528778Y-39741819D01*
X40957349Y-40265628D02*
X40957349Y-40741819D01*
X40624016Y-39741819D02*
X40957349Y-40265628D01*
X40957349Y-40265628D02*
X41290682Y-39741819D01*
X41576397Y-40456104D02*
X42052587Y-40456104D01*
X41481159Y-40741819D02*
X41814492Y-39741819D01*
X41814492Y-39741819D02*
X42147825Y-40741819D01*
X42433540Y-40456104D02*
X42909730Y-40456104D01*
X42338302Y-40741819D02*
X42671635Y-39741819D01*
X42671635Y-39741819D02*
X43004968Y-40741819D01*
X43290683Y-40456104D02*
X43766873Y-40456104D01*
X43195445Y-40741819D02*
X43528778Y-39741819D01*
X43528778Y-39741819D02*
X43862111Y-40741819D01*
X44385921Y-40265628D02*
X44385921Y-40741819D01*
X44052588Y-39741819D02*
X44385921Y-40265628D01*
X44385921Y-40265628D02*
X44719254Y-39741819D01*
X46147826Y-40218009D02*
X45814493Y-40218009D01*
X45814493Y-40741819D02*
X45814493Y-39741819D01*
X45814493Y-39741819D02*
X46290683Y-39741819D01*
X46671636Y-40741819D02*
X46671636Y-39741819D01*
X47719254Y-40741819D02*
X47385921Y-40265628D01*
X47147826Y-40741819D02*
X47147826Y-39741819D01*
X47147826Y-39741819D02*
X47528778Y-39741819D01*
X47528778Y-39741819D02*
X47624016Y-39789438D01*
X47624016Y-39789438D02*
X47671635Y-39837057D01*
X47671635Y-39837057D02*
X47719254Y-39932295D01*
X47719254Y-39932295D02*
X47719254Y-40075152D01*
X47719254Y-40075152D02*
X47671635Y-40170390D01*
X47671635Y-40170390D02*
X47624016Y-40218009D01*
X47624016Y-40218009D02*
X47528778Y-40265628D01*
X47528778Y-40265628D02*
X47147826Y-40265628D01*
X48100207Y-40694200D02*
X48243064Y-40741819D01*
X48243064Y-40741819D02*
X48481159Y-40741819D01*
X48481159Y-40741819D02*
X48576397Y-40694200D01*
X48576397Y-40694200D02*
X48624016Y-40646580D01*
X48624016Y-40646580D02*
X48671635Y-40551342D01*
X48671635Y-40551342D02*
X48671635Y-40456104D01*
X48671635Y-40456104D02*
X48624016Y-40360866D01*
X48624016Y-40360866D02*
X48576397Y-40313247D01*
X48576397Y-40313247D02*
X48481159Y-40265628D01*
X48481159Y-40265628D02*
X48290683Y-40218009D01*
X48290683Y-40218009D02*
X48195445Y-40170390D01*
X48195445Y-40170390D02*
X48147826Y-40122771D01*
X48147826Y-40122771D02*
X48100207Y-40027533D01*
X48100207Y-40027533D02*
X48100207Y-39932295D01*
X48100207Y-39932295D02*
X48147826Y-39837057D01*
X48147826Y-39837057D02*
X48195445Y-39789438D01*
X48195445Y-39789438D02*
X48290683Y-39741819D01*
X48290683Y-39741819D02*
X48528778Y-39741819D01*
X48528778Y-39741819D02*
X48671635Y-39789438D01*
X48957350Y-39741819D02*
X49528778Y-39741819D01*
X49243064Y-40741819D02*
X49243064Y-39741819D01*
X50624017Y-40741819D02*
X50624017Y-39741819D01*
X50624017Y-39741819D02*
X51004969Y-39741819D01*
X51004969Y-39741819D02*
X51100207Y-39789438D01*
X51100207Y-39789438D02*
X51147826Y-39837057D01*
X51147826Y-39837057D02*
X51195445Y-39932295D01*
X51195445Y-39932295D02*
X51195445Y-40075152D01*
X51195445Y-40075152D02*
X51147826Y-40170390D01*
X51147826Y-40170390D02*
X51100207Y-40218009D01*
X51100207Y-40218009D02*
X51004969Y-40265628D01*
X51004969Y-40265628D02*
X50624017Y-40265628D01*
X52195445Y-40646580D02*
X52147826Y-40694200D01*
X52147826Y-40694200D02*
X52004969Y-40741819D01*
X52004969Y-40741819D02*
X51909731Y-40741819D01*
X51909731Y-40741819D02*
X51766874Y-40694200D01*
X51766874Y-40694200D02*
X51671636Y-40598961D01*
X51671636Y-40598961D02*
X51624017Y-40503723D01*
X51624017Y-40503723D02*
X51576398Y-40313247D01*
X51576398Y-40313247D02*
X51576398Y-40170390D01*
X51576398Y-40170390D02*
X51624017Y-39979914D01*
X51624017Y-39979914D02*
X51671636Y-39884676D01*
X51671636Y-39884676D02*
X51766874Y-39789438D01*
X51766874Y-39789438D02*
X51909731Y-39741819D01*
X51909731Y-39741819D02*
X52004969Y-39741819D01*
X52004969Y-39741819D02*
X52147826Y-39789438D01*
X52147826Y-39789438D02*
X52195445Y-39837057D01*
X52957350Y-40218009D02*
X53100207Y-40265628D01*
X53100207Y-40265628D02*
X53147826Y-40313247D01*
X53147826Y-40313247D02*
X53195445Y-40408485D01*
X53195445Y-40408485D02*
X53195445Y-40551342D01*
X53195445Y-40551342D02*
X53147826Y-40646580D01*
X53147826Y-40646580D02*
X53100207Y-40694200D01*
X53100207Y-40694200D02*
X53004969Y-40741819D01*
X53004969Y-40741819D02*
X52624017Y-40741819D01*
X52624017Y-40741819D02*
X52624017Y-39741819D01*
X52624017Y-39741819D02*
X52957350Y-39741819D01*
X52957350Y-39741819D02*
X53052588Y-39789438D01*
X53052588Y-39789438D02*
X53100207Y-39837057D01*
X53100207Y-39837057D02*
X53147826Y-39932295D01*
X53147826Y-39932295D02*
X53147826Y-40027533D01*
X53147826Y-40027533D02*
X53100207Y-40122771D01*
X53100207Y-40122771D02*
X53052588Y-40170390D01*
X53052588Y-40170390D02*
X52957350Y-40218009D01*
X52957350Y-40218009D02*
X52624017Y-40218009D01*
X53624017Y-40646580D02*
X53671636Y-40694200D01*
X53671636Y-40694200D02*
X53624017Y-40741819D01*
X53624017Y-40741819D02*
X53576398Y-40694200D01*
X53576398Y-40694200D02*
X53624017Y-40646580D01*
X53624017Y-40646580D02*
X53624017Y-40741819D01*
X53624017Y-40360866D02*
X53576398Y-39789438D01*
X53576398Y-39789438D02*
X53624017Y-39741819D01*
X53624017Y-39741819D02*
X53671636Y-39789438D01*
X53671636Y-39789438D02*
X53624017Y-40360866D01*
X53624017Y-40360866D02*
X53624017Y-39741819D01*
X54100207Y-40646580D02*
X54147826Y-40694200D01*
X54147826Y-40694200D02*
X54100207Y-40741819D01*
X54100207Y-40741819D02*
X54052588Y-40694200D01*
X54052588Y-40694200D02*
X54100207Y-40646580D01*
X54100207Y-40646580D02*
X54100207Y-40741819D01*
X54100207Y-40360866D02*
X54052588Y-39789438D01*
X54052588Y-39789438D02*
X54100207Y-39741819D01*
X54100207Y-39741819D02*
X54147826Y-39789438D01*
X54147826Y-39789438D02*
X54100207Y-40360866D01*
X54100207Y-40360866D02*
X54100207Y-39741819D01*
X13026779Y-38479819D02*
X13026779Y-37479819D01*
X13026779Y-37956009D02*
X13598207Y-37956009D01*
X13598207Y-38479819D02*
X13598207Y-37479819D01*
X14074398Y-38479819D02*
X14074398Y-37479819D01*
X15312493Y-38479819D02*
X15312493Y-37479819D01*
X15312493Y-37479819D02*
X15693445Y-37479819D01*
X15693445Y-37479819D02*
X15788683Y-37527438D01*
X15788683Y-37527438D02*
X15836302Y-37575057D01*
X15836302Y-37575057D02*
X15883921Y-37670295D01*
X15883921Y-37670295D02*
X15883921Y-37813152D01*
X15883921Y-37813152D02*
X15836302Y-37908390D01*
X15836302Y-37908390D02*
X15788683Y-37956009D01*
X15788683Y-37956009D02*
X15693445Y-38003628D01*
X15693445Y-38003628D02*
X15312493Y-38003628D01*
X16264874Y-38194104D02*
X16741064Y-38194104D01*
X16169636Y-38479819D02*
X16502969Y-37479819D01*
X16502969Y-37479819D02*
X16836302Y-38479819D01*
X17741064Y-38384580D02*
X17693445Y-38432200D01*
X17693445Y-38432200D02*
X17550588Y-38479819D01*
X17550588Y-38479819D02*
X17455350Y-38479819D01*
X17455350Y-38479819D02*
X17312493Y-38432200D01*
X17312493Y-38432200D02*
X17217255Y-38336961D01*
X17217255Y-38336961D02*
X17169636Y-38241723D01*
X17169636Y-38241723D02*
X17122017Y-38051247D01*
X17122017Y-38051247D02*
X17122017Y-37908390D01*
X17122017Y-37908390D02*
X17169636Y-37717914D01*
X17169636Y-37717914D02*
X17217255Y-37622676D01*
X17217255Y-37622676D02*
X17312493Y-37527438D01*
X17312493Y-37527438D02*
X17455350Y-37479819D01*
X17455350Y-37479819D02*
X17550588Y-37479819D01*
X17550588Y-37479819D02*
X17693445Y-37527438D01*
X17693445Y-37527438D02*
X17741064Y-37575057D01*
X18169636Y-38479819D02*
X18169636Y-37479819D01*
X18169636Y-37956009D02*
X18741064Y-37956009D01*
X18741064Y-38479819D02*
X18741064Y-37479819D01*
X19217255Y-37956009D02*
X19550588Y-37956009D01*
X19693445Y-38479819D02*
X19217255Y-38479819D01*
X19217255Y-38479819D02*
X19217255Y-37479819D01*
X19217255Y-37479819D02*
X19693445Y-37479819D01*
X19979160Y-37479819D02*
X20550588Y-37479819D01*
X20264874Y-38479819D02*
X20264874Y-37479819D01*
X20883922Y-38384580D02*
X20931541Y-38432200D01*
X20931541Y-38432200D02*
X20883922Y-38479819D01*
X20883922Y-38479819D02*
X20836303Y-38432200D01*
X20836303Y-38432200D02*
X20883922Y-38384580D01*
X20883922Y-38384580D02*
X20883922Y-38479819D01*
X20883922Y-38098866D02*
X20836303Y-37527438D01*
X20836303Y-37527438D02*
X20883922Y-37479819D01*
X20883922Y-37479819D02*
X20931541Y-37527438D01*
X20931541Y-37527438D02*
X20883922Y-38098866D01*
X20883922Y-38098866D02*
X20883922Y-37479819D01*
X21360112Y-38384580D02*
X21407731Y-38432200D01*
X21407731Y-38432200D02*
X21360112Y-38479819D01*
X21360112Y-38479819D02*
X21312493Y-38432200D01*
X21312493Y-38432200D02*
X21360112Y-38384580D01*
X21360112Y-38384580D02*
X21360112Y-38479819D01*
X21360112Y-38098866D02*
X21312493Y-37527438D01*
X21312493Y-37527438D02*
X21360112Y-37479819D01*
X21360112Y-37479819D02*
X21407731Y-37527438D01*
X21407731Y-37527438D02*
X21360112Y-38098866D01*
X21360112Y-38098866D02*
X21360112Y-37479819D01*
X21836302Y-38384580D02*
X21883921Y-38432200D01*
X21883921Y-38432200D02*
X21836302Y-38479819D01*
X21836302Y-38479819D02*
X21788683Y-38432200D01*
X21788683Y-38432200D02*
X21836302Y-38384580D01*
X21836302Y-38384580D02*
X21836302Y-38479819D01*
X21836302Y-38098866D02*
X21788683Y-37527438D01*
X21788683Y-37527438D02*
X21836302Y-37479819D01*
X21836302Y-37479819D02*
X21883921Y-37527438D01*
X21883921Y-37527438D02*
X21836302Y-38098866D01*
X21836302Y-38098866D02*
X21836302Y-37479819D01*
X22931540Y-37479819D02*
X23502968Y-37479819D01*
X23217254Y-38479819D02*
X23217254Y-37479819D01*
X23836302Y-38479819D02*
X23836302Y-37479819D01*
X23836302Y-37956009D02*
X24407730Y-37956009D01*
X24407730Y-38479819D02*
X24407730Y-37479819D01*
X24883921Y-38479819D02*
X24883921Y-37479819D01*
X25312492Y-38432200D02*
X25455349Y-38479819D01*
X25455349Y-38479819D02*
X25693444Y-38479819D01*
X25693444Y-38479819D02*
X25788682Y-38432200D01*
X25788682Y-38432200D02*
X25836301Y-38384580D01*
X25836301Y-38384580D02*
X25883920Y-38289342D01*
X25883920Y-38289342D02*
X25883920Y-38194104D01*
X25883920Y-38194104D02*
X25836301Y-38098866D01*
X25836301Y-38098866D02*
X25788682Y-38051247D01*
X25788682Y-38051247D02*
X25693444Y-38003628D01*
X25693444Y-38003628D02*
X25502968Y-37956009D01*
X25502968Y-37956009D02*
X25407730Y-37908390D01*
X25407730Y-37908390D02*
X25360111Y-37860771D01*
X25360111Y-37860771D02*
X25312492Y-37765533D01*
X25312492Y-37765533D02*
X25312492Y-37670295D01*
X25312492Y-37670295D02*
X25360111Y-37575057D01*
X25360111Y-37575057D02*
X25407730Y-37527438D01*
X25407730Y-37527438D02*
X25502968Y-37479819D01*
X25502968Y-37479819D02*
X25741063Y-37479819D01*
X25741063Y-37479819D02*
X25883920Y-37527438D01*
X27074397Y-38479819D02*
X27074397Y-37479819D01*
X27502968Y-38432200D02*
X27645825Y-38479819D01*
X27645825Y-38479819D02*
X27883920Y-38479819D01*
X27883920Y-38479819D02*
X27979158Y-38432200D01*
X27979158Y-38432200D02*
X28026777Y-38384580D01*
X28026777Y-38384580D02*
X28074396Y-38289342D01*
X28074396Y-38289342D02*
X28074396Y-38194104D01*
X28074396Y-38194104D02*
X28026777Y-38098866D01*
X28026777Y-38098866D02*
X27979158Y-38051247D01*
X27979158Y-38051247D02*
X27883920Y-38003628D01*
X27883920Y-38003628D02*
X27693444Y-37956009D01*
X27693444Y-37956009D02*
X27598206Y-37908390D01*
X27598206Y-37908390D02*
X27550587Y-37860771D01*
X27550587Y-37860771D02*
X27502968Y-37765533D01*
X27502968Y-37765533D02*
X27502968Y-37670295D01*
X27502968Y-37670295D02*
X27550587Y-37575057D01*
X27550587Y-37575057D02*
X27598206Y-37527438D01*
X27598206Y-37527438D02*
X27693444Y-37479819D01*
X27693444Y-37479819D02*
X27931539Y-37479819D01*
X27931539Y-37479819D02*
X28074396Y-37527438D01*
X29217254Y-38194104D02*
X29693444Y-38194104D01*
X29122016Y-38479819D02*
X29455349Y-37479819D01*
X29455349Y-37479819D02*
X29788682Y-38479819D01*
X31455349Y-38384580D02*
X31407730Y-38432200D01*
X31407730Y-38432200D02*
X31264873Y-38479819D01*
X31264873Y-38479819D02*
X31169635Y-38479819D01*
X31169635Y-38479819D02*
X31026778Y-38432200D01*
X31026778Y-38432200D02*
X30931540Y-38336961D01*
X30931540Y-38336961D02*
X30883921Y-38241723D01*
X30883921Y-38241723D02*
X30836302Y-38051247D01*
X30836302Y-38051247D02*
X30836302Y-37908390D01*
X30836302Y-37908390D02*
X30883921Y-37717914D01*
X30883921Y-37717914D02*
X30931540Y-37622676D01*
X30931540Y-37622676D02*
X31026778Y-37527438D01*
X31026778Y-37527438D02*
X31169635Y-37479819D01*
X31169635Y-37479819D02*
X31264873Y-37479819D01*
X31264873Y-37479819D02*
X31407730Y-37527438D01*
X31407730Y-37527438D02*
X31455349Y-37575057D01*
X32074397Y-37479819D02*
X32264873Y-37479819D01*
X32264873Y-37479819D02*
X32360111Y-37527438D01*
X32360111Y-37527438D02*
X32455349Y-37622676D01*
X32455349Y-37622676D02*
X32502968Y-37813152D01*
X32502968Y-37813152D02*
X32502968Y-38146485D01*
X32502968Y-38146485D02*
X32455349Y-38336961D01*
X32455349Y-38336961D02*
X32360111Y-38432200D01*
X32360111Y-38432200D02*
X32264873Y-38479819D01*
X32264873Y-38479819D02*
X32074397Y-38479819D01*
X32074397Y-38479819D02*
X31979159Y-38432200D01*
X31979159Y-38432200D02*
X31883921Y-38336961D01*
X31883921Y-38336961D02*
X31836302Y-38146485D01*
X31836302Y-38146485D02*
X31836302Y-37813152D01*
X31836302Y-37813152D02*
X31883921Y-37622676D01*
X31883921Y-37622676D02*
X31979159Y-37527438D01*
X31979159Y-37527438D02*
X32074397Y-37479819D01*
X33122016Y-37479819D02*
X33312492Y-37479819D01*
X33312492Y-37479819D02*
X33407730Y-37527438D01*
X33407730Y-37527438D02*
X33502968Y-37622676D01*
X33502968Y-37622676D02*
X33550587Y-37813152D01*
X33550587Y-37813152D02*
X33550587Y-38146485D01*
X33550587Y-38146485D02*
X33502968Y-38336961D01*
X33502968Y-38336961D02*
X33407730Y-38432200D01*
X33407730Y-38432200D02*
X33312492Y-38479819D01*
X33312492Y-38479819D02*
X33122016Y-38479819D01*
X33122016Y-38479819D02*
X33026778Y-38432200D01*
X33026778Y-38432200D02*
X32931540Y-38336961D01*
X32931540Y-38336961D02*
X32883921Y-38146485D01*
X32883921Y-38146485D02*
X32883921Y-37813152D01*
X32883921Y-37813152D02*
X32931540Y-37622676D01*
X32931540Y-37622676D02*
X33026778Y-37527438D01*
X33026778Y-37527438D02*
X33122016Y-37479819D01*
X34455349Y-38479819D02*
X33979159Y-38479819D01*
X33979159Y-38479819D02*
X33979159Y-37479819D01*
X35550588Y-38479819D02*
X35550588Y-37479819D01*
X35550588Y-37479819D02*
X35931540Y-37479819D01*
X35931540Y-37479819D02*
X36026778Y-37527438D01*
X36026778Y-37527438D02*
X36074397Y-37575057D01*
X36074397Y-37575057D02*
X36122016Y-37670295D01*
X36122016Y-37670295D02*
X36122016Y-37813152D01*
X36122016Y-37813152D02*
X36074397Y-37908390D01*
X36074397Y-37908390D02*
X36026778Y-37956009D01*
X36026778Y-37956009D02*
X35931540Y-38003628D01*
X35931540Y-38003628D02*
X35550588Y-38003628D01*
X37122016Y-38384580D02*
X37074397Y-38432200D01*
X37074397Y-38432200D02*
X36931540Y-38479819D01*
X36931540Y-38479819D02*
X36836302Y-38479819D01*
X36836302Y-38479819D02*
X36693445Y-38432200D01*
X36693445Y-38432200D02*
X36598207Y-38336961D01*
X36598207Y-38336961D02*
X36550588Y-38241723D01*
X36550588Y-38241723D02*
X36502969Y-38051247D01*
X36502969Y-38051247D02*
X36502969Y-37908390D01*
X36502969Y-37908390D02*
X36550588Y-37717914D01*
X36550588Y-37717914D02*
X36598207Y-37622676D01*
X36598207Y-37622676D02*
X36693445Y-37527438D01*
X36693445Y-37527438D02*
X36836302Y-37479819D01*
X36836302Y-37479819D02*
X36931540Y-37479819D01*
X36931540Y-37479819D02*
X37074397Y-37527438D01*
X37074397Y-37527438D02*
X37122016Y-37575057D01*
X37883921Y-37956009D02*
X38026778Y-38003628D01*
X38026778Y-38003628D02*
X38074397Y-38051247D01*
X38074397Y-38051247D02*
X38122016Y-38146485D01*
X38122016Y-38146485D02*
X38122016Y-38289342D01*
X38122016Y-38289342D02*
X38074397Y-38384580D01*
X38074397Y-38384580D02*
X38026778Y-38432200D01*
X38026778Y-38432200D02*
X37931540Y-38479819D01*
X37931540Y-38479819D02*
X37550588Y-38479819D01*
X37550588Y-38479819D02*
X37550588Y-37479819D01*
X37550588Y-37479819D02*
X37883921Y-37479819D01*
X37883921Y-37479819D02*
X37979159Y-37527438D01*
X37979159Y-37527438D02*
X38026778Y-37575057D01*
X38026778Y-37575057D02*
X38074397Y-37670295D01*
X38074397Y-37670295D02*
X38074397Y-37765533D01*
X38074397Y-37765533D02*
X38026778Y-37860771D01*
X38026778Y-37860771D02*
X37979159Y-37908390D01*
X37979159Y-37908390D02*
X37883921Y-37956009D01*
X37883921Y-37956009D02*
X37550588Y-37956009D01*
X38550588Y-38384580D02*
X38598207Y-38432200D01*
X38598207Y-38432200D02*
X38550588Y-38479819D01*
X38550588Y-38479819D02*
X38502969Y-38432200D01*
X38502969Y-38432200D02*
X38550588Y-38384580D01*
X38550588Y-38384580D02*
X38550588Y-38479819D01*
X38550588Y-38098866D02*
X38502969Y-37527438D01*
X38502969Y-37527438D02*
X38550588Y-37479819D01*
X38550588Y-37479819D02*
X38598207Y-37527438D01*
X38598207Y-37527438D02*
X38550588Y-38098866D01*
X38550588Y-38098866D02*
X38550588Y-37479819D01*
X39026778Y-38384580D02*
X39074397Y-38432200D01*
X39074397Y-38432200D02*
X39026778Y-38479819D01*
X39026778Y-38479819D02*
X38979159Y-38432200D01*
X38979159Y-38432200D02*
X39026778Y-38384580D01*
X39026778Y-38384580D02*
X39026778Y-38479819D01*
X39026778Y-38098866D02*
X38979159Y-37527438D01*
X38979159Y-37527438D02*
X39026778Y-37479819D01*
X39026778Y-37479819D02*
X39074397Y-37527438D01*
X39074397Y-37527438D02*
X39026778Y-38098866D01*
X39026778Y-38098866D02*
X39026778Y-37479819D01*
X40455349Y-38003628D02*
X40455349Y-38479819D01*
X40122016Y-37479819D02*
X40455349Y-38003628D01*
X40455349Y-38003628D02*
X40788682Y-37479819D01*
X41074397Y-38194104D02*
X41550587Y-38194104D01*
X40979159Y-38479819D02*
X41312492Y-37479819D01*
X41312492Y-37479819D02*
X41645825Y-38479819D01*
X41931540Y-38194104D02*
X42407730Y-38194104D01*
X41836302Y-38479819D02*
X42169635Y-37479819D01*
X42169635Y-37479819D02*
X42502968Y-38479819D01*
X42788683Y-38194104D02*
X43264873Y-38194104D01*
X42693445Y-38479819D02*
X43026778Y-37479819D01*
X43026778Y-37479819D02*
X43360111Y-38479819D01*
X43883921Y-38003628D02*
X43883921Y-38479819D01*
X43550588Y-37479819D02*
X43883921Y-38003628D01*
X43883921Y-38003628D02*
X44217254Y-37479819D01*
X45645826Y-37956009D02*
X45312493Y-37956009D01*
X45312493Y-38479819D02*
X45312493Y-37479819D01*
X45312493Y-37479819D02*
X45788683Y-37479819D01*
X46169636Y-38479819D02*
X46169636Y-37479819D01*
X47217254Y-38479819D02*
X46883921Y-38003628D01*
X46645826Y-38479819D02*
X46645826Y-37479819D01*
X46645826Y-37479819D02*
X47026778Y-37479819D01*
X47026778Y-37479819D02*
X47122016Y-37527438D01*
X47122016Y-37527438D02*
X47169635Y-37575057D01*
X47169635Y-37575057D02*
X47217254Y-37670295D01*
X47217254Y-37670295D02*
X47217254Y-37813152D01*
X47217254Y-37813152D02*
X47169635Y-37908390D01*
X47169635Y-37908390D02*
X47122016Y-37956009D01*
X47122016Y-37956009D02*
X47026778Y-38003628D01*
X47026778Y-38003628D02*
X46645826Y-38003628D01*
X47598207Y-38432200D02*
X47741064Y-38479819D01*
X47741064Y-38479819D02*
X47979159Y-38479819D01*
X47979159Y-38479819D02*
X48074397Y-38432200D01*
X48074397Y-38432200D02*
X48122016Y-38384580D01*
X48122016Y-38384580D02*
X48169635Y-38289342D01*
X48169635Y-38289342D02*
X48169635Y-38194104D01*
X48169635Y-38194104D02*
X48122016Y-38098866D01*
X48122016Y-38098866D02*
X48074397Y-38051247D01*
X48074397Y-38051247D02*
X47979159Y-38003628D01*
X47979159Y-38003628D02*
X47788683Y-37956009D01*
X47788683Y-37956009D02*
X47693445Y-37908390D01*
X47693445Y-37908390D02*
X47645826Y-37860771D01*
X47645826Y-37860771D02*
X47598207Y-37765533D01*
X47598207Y-37765533D02*
X47598207Y-37670295D01*
X47598207Y-37670295D02*
X47645826Y-37575057D01*
X47645826Y-37575057D02*
X47693445Y-37527438D01*
X47693445Y-37527438D02*
X47788683Y-37479819D01*
X47788683Y-37479819D02*
X48026778Y-37479819D01*
X48026778Y-37479819D02*
X48169635Y-37527438D01*
X48455350Y-37479819D02*
X49026778Y-37479819D01*
X48741064Y-38479819D02*
X48741064Y-37479819D01*
X50122017Y-38479819D02*
X50122017Y-37479819D01*
X50122017Y-37479819D02*
X50502969Y-37479819D01*
X50502969Y-37479819D02*
X50598207Y-37527438D01*
X50598207Y-37527438D02*
X50645826Y-37575057D01*
X50645826Y-37575057D02*
X50693445Y-37670295D01*
X50693445Y-37670295D02*
X50693445Y-37813152D01*
X50693445Y-37813152D02*
X50645826Y-37908390D01*
X50645826Y-37908390D02*
X50598207Y-37956009D01*
X50598207Y-37956009D02*
X50502969Y-38003628D01*
X50502969Y-38003628D02*
X50122017Y-38003628D01*
X51693445Y-38384580D02*
X51645826Y-38432200D01*
X51645826Y-38432200D02*
X51502969Y-38479819D01*
X51502969Y-38479819D02*
X51407731Y-38479819D01*
X51407731Y-38479819D02*
X51264874Y-38432200D01*
X51264874Y-38432200D02*
X51169636Y-38336961D01*
X51169636Y-38336961D02*
X51122017Y-38241723D01*
X51122017Y-38241723D02*
X51074398Y-38051247D01*
X51074398Y-38051247D02*
X51074398Y-37908390D01*
X51074398Y-37908390D02*
X51122017Y-37717914D01*
X51122017Y-37717914D02*
X51169636Y-37622676D01*
X51169636Y-37622676D02*
X51264874Y-37527438D01*
X51264874Y-37527438D02*
X51407731Y-37479819D01*
X51407731Y-37479819D02*
X51502969Y-37479819D01*
X51502969Y-37479819D02*
X51645826Y-37527438D01*
X51645826Y-37527438D02*
X51693445Y-37575057D01*
X52455350Y-37956009D02*
X52598207Y-38003628D01*
X52598207Y-38003628D02*
X52645826Y-38051247D01*
X52645826Y-38051247D02*
X52693445Y-38146485D01*
X52693445Y-38146485D02*
X52693445Y-38289342D01*
X52693445Y-38289342D02*
X52645826Y-38384580D01*
X52645826Y-38384580D02*
X52598207Y-38432200D01*
X52598207Y-38432200D02*
X52502969Y-38479819D01*
X52502969Y-38479819D02*
X52122017Y-38479819D01*
X52122017Y-38479819D02*
X52122017Y-37479819D01*
X52122017Y-37479819D02*
X52455350Y-37479819D01*
X52455350Y-37479819D02*
X52550588Y-37527438D01*
X52550588Y-37527438D02*
X52598207Y-37575057D01*
X52598207Y-37575057D02*
X52645826Y-37670295D01*
X52645826Y-37670295D02*
X52645826Y-37765533D01*
X52645826Y-37765533D02*
X52598207Y-37860771D01*
X52598207Y-37860771D02*
X52550588Y-37908390D01*
X52550588Y-37908390D02*
X52455350Y-37956009D01*
X52455350Y-37956009D02*
X52122017Y-37956009D01*
X53122017Y-38384580D02*
X53169636Y-38432200D01*
X53169636Y-38432200D02*
X53122017Y-38479819D01*
X53122017Y-38479819D02*
X53074398Y-38432200D01*
X53074398Y-38432200D02*
X53122017Y-38384580D01*
X53122017Y-38384580D02*
X53122017Y-38479819D01*
X53122017Y-38098866D02*
X53074398Y-37527438D01*
X53074398Y-37527438D02*
X53122017Y-37479819D01*
X53122017Y-37479819D02*
X53169636Y-37527438D01*
X53169636Y-37527438D02*
X53122017Y-38098866D01*
X53122017Y-38098866D02*
X53122017Y-37479819D01*
X53598207Y-38384580D02*
X53645826Y-38432200D01*
X53645826Y-38432200D02*
X53598207Y-38479819D01*
X53598207Y-38479819D02*
X53550588Y-38432200D01*
X53550588Y-38432200D02*
X53598207Y-38384580D01*
X53598207Y-38384580D02*
X53598207Y-38479819D01*
X53598207Y-38098866D02*
X53550588Y-37527438D01*
X53550588Y-37527438D02*
X53598207Y-37479819D01*
X53598207Y-37479819D02*
X53645826Y-37527438D01*
X53645826Y-37527438D02*
X53598207Y-38098866D01*
X53598207Y-38098866D02*
X53598207Y-37479819D01*
%TO.C,G\u002A\u002A\u002A*%
G36*
X45733665Y-28376849D02*
G01*
X45910978Y-28488624D01*
X46140694Y-28616458D01*
X46156998Y-28624931D01*
X46338383Y-28747087D01*
X46429605Y-28864223D01*
X46432165Y-28881066D01*
X46369931Y-29012342D01*
X46202858Y-29038775D01*
X45960389Y-28958684D01*
X45876007Y-28912843D01*
X45572422Y-28733723D01*
X45355875Y-28904058D01*
X45146447Y-29022845D01*
X44940474Y-29070601D01*
X44788297Y-29043107D01*
X44738832Y-28955757D01*
X44804606Y-28836989D01*
X44967396Y-28692852D01*
X45013998Y-28661373D01*
X45237185Y-28515517D01*
X45420580Y-28390287D01*
X45437332Y-28378277D01*
X45590667Y-28313536D01*
X45733665Y-28376849D01*
G37*
G36*
X42897453Y-27171677D02*
G01*
X43184125Y-27323986D01*
X43398235Y-27592888D01*
X43524991Y-27935803D01*
X43549601Y-28310150D01*
X43457272Y-28673348D01*
X43435047Y-28719196D01*
X43208683Y-29003404D01*
X42917775Y-29149202D01*
X42599540Y-29150371D01*
X42291196Y-29000690D01*
X42205421Y-28924676D01*
X42003434Y-28630271D01*
X41993928Y-28593702D01*
X42373898Y-28593702D01*
X42422307Y-28676981D01*
X42525905Y-28696671D01*
X42608095Y-28599796D01*
X42622165Y-28519064D01*
X42554282Y-28411176D01*
X42495165Y-28397061D01*
X42388665Y-28460198D01*
X42373898Y-28593702D01*
X41993928Y-28593702D01*
X41916536Y-28295993D01*
X41932047Y-27953968D01*
X42037284Y-27636320D01*
X42219566Y-27375174D01*
X42466210Y-27202655D01*
X42764534Y-27150888D01*
X42897453Y-27171677D01*
G37*
G36*
X48300834Y-27175887D02*
G01*
X48506367Y-27248549D01*
X48786291Y-27447405D01*
X48965796Y-27740483D01*
X49044750Y-28086307D01*
X49023023Y-28443402D01*
X48900485Y-28770294D01*
X48677003Y-29025508D01*
X48512265Y-29119774D01*
X48312505Y-29203200D01*
X48194702Y-29229500D01*
X48080842Y-29197067D01*
X47898675Y-29107135D01*
X47615262Y-28882997D01*
X47442415Y-28572416D01*
X47441353Y-28566394D01*
X48379498Y-28566394D01*
X48422350Y-28705354D01*
X48527665Y-28719609D01*
X48653624Y-28636124D01*
X48675832Y-28566394D01*
X48605447Y-28446846D01*
X48527665Y-28413179D01*
X48407653Y-28442631D01*
X48379498Y-28566394D01*
X47441353Y-28566394D01*
X47379721Y-28216839D01*
X47426762Y-27857718D01*
X47583125Y-27536500D01*
X47848394Y-27294636D01*
X47917196Y-27258139D01*
X48129001Y-27175042D01*
X48300834Y-27175887D01*
G37*
G36*
X49539623Y-20914521D02*
G01*
X49839164Y-21278457D01*
X50139871Y-21752424D01*
X50412195Y-22279928D01*
X50626584Y-22804477D01*
X50743170Y-23215395D01*
X50798449Y-23581817D01*
X50831085Y-23983373D01*
X50834832Y-24134620D01*
X50840866Y-24400803D01*
X50867131Y-24531582D01*
X50925873Y-24560695D01*
X50982998Y-24542898D01*
X51185350Y-24478645D01*
X51342832Y-24443917D01*
X51448142Y-24434908D01*
X51457185Y-24474724D01*
X51358834Y-24585739D01*
X51195003Y-24741175D01*
X50966853Y-24933520D01*
X50760709Y-25074569D01*
X50660657Y-25120858D01*
X50495884Y-25104437D01*
X50424938Y-24986437D01*
X50477605Y-24822039D01*
X50490467Y-24805593D01*
X50526055Y-24711139D01*
X50527294Y-24536305D01*
X50491805Y-24256024D01*
X50417210Y-23845230D01*
X50383089Y-23674201D01*
X50149067Y-22774583D01*
X49840864Y-22014988D01*
X49461255Y-21401572D01*
X49246183Y-21152268D01*
X49068967Y-20979103D01*
X48926962Y-20891437D01*
X48755063Y-20868174D01*
X48488166Y-20888217D01*
X48445118Y-20892692D01*
X48094339Y-20954469D01*
X47688516Y-21062101D01*
X47379952Y-21168205D01*
X47118700Y-21282595D01*
X46794912Y-21440981D01*
X46440775Y-21625479D01*
X46088473Y-21818204D01*
X45770191Y-22001271D01*
X45518116Y-22156796D01*
X45364431Y-22266893D01*
X45332532Y-22305933D01*
X45401648Y-22365803D01*
X45576283Y-22459629D01*
X45657549Y-22496992D01*
X45901068Y-22629600D01*
X46104049Y-22783466D01*
X46230569Y-22925958D01*
X46244706Y-23024445D01*
X46241753Y-23027695D01*
X46146318Y-23022449D01*
X45928367Y-22969337D01*
X45624610Y-22878116D01*
X45405851Y-22805519D01*
X44935214Y-22659655D01*
X44548565Y-22586679D01*
X44179057Y-22582524D01*
X43759841Y-22643123D01*
X43532332Y-22691526D01*
X43362894Y-22708935D01*
X43302901Y-22638937D01*
X43299172Y-22586097D01*
X43227760Y-22431041D01*
X43033801Y-22225624D01*
X42746958Y-21993694D01*
X42396893Y-21759094D01*
X42013269Y-21545668D01*
X41991425Y-21534840D01*
X41193367Y-21214169D01*
X40422272Y-21053590D01*
X40028517Y-21032065D01*
X39733326Y-21038636D01*
X39543323Y-21076640D01*
X39394473Y-21171376D01*
X39222742Y-21348139D01*
X39219581Y-21351637D01*
X38785273Y-21932011D01*
X38409581Y-22630777D01*
X38112859Y-23401371D01*
X37915462Y-24197230D01*
X37881529Y-24412630D01*
X37837569Y-24767842D01*
X37825092Y-24996994D01*
X37845850Y-25140727D01*
X37901590Y-25239684D01*
X37917934Y-25258614D01*
X38033404Y-25426247D01*
X38016688Y-25510587D01*
X37886115Y-25505928D01*
X37660015Y-25406560D01*
X37584498Y-25362465D01*
X37328459Y-25179751D01*
X37186027Y-25021242D01*
X37174423Y-24908103D01*
X37197637Y-24887016D01*
X37336484Y-24877836D01*
X37434582Y-24913083D01*
X37514814Y-24939977D01*
X37561656Y-24892878D01*
X37585646Y-24740620D01*
X37597323Y-24452033D01*
X37597851Y-24430165D01*
X37668043Y-23831141D01*
X37841093Y-23167231D01*
X38099750Y-22492916D01*
X38392704Y-21920061D01*
X38729534Y-21389418D01*
X39046802Y-21007894D01*
X39373901Y-20762503D01*
X39740220Y-20640261D01*
X40175153Y-20628182D01*
X40708090Y-20713283D01*
X40978788Y-20777555D01*
X41774183Y-21034795D01*
X42478227Y-21374606D01*
X43058567Y-21780761D01*
X43160162Y-21871530D01*
X43574230Y-22258727D01*
X44304353Y-22228049D01*
X44671323Y-22207394D01*
X44916941Y-22174115D01*
X45089188Y-22115322D01*
X45236045Y-22018121D01*
X45306082Y-21958898D01*
X45786191Y-21598254D01*
X46364653Y-21259126D01*
X46993696Y-20962567D01*
X47625550Y-20729632D01*
X48212444Y-20581375D01*
X48520991Y-20541966D01*
X49128150Y-20501649D01*
X49539623Y-20914521D01*
G37*
G36*
X51362529Y-25279479D02*
G01*
X51515325Y-25335255D01*
X51515849Y-25421280D01*
X51372478Y-25514270D01*
X51264543Y-25551808D01*
X51090215Y-25626796D01*
X51001820Y-25708621D01*
X51026034Y-25764460D01*
X51085262Y-25772394D01*
X51184699Y-25845932D01*
X51321728Y-26042070D01*
X51476567Y-26324091D01*
X51629430Y-26655277D01*
X51760534Y-26998912D01*
X51782620Y-27066592D01*
X51890472Y-27564548D01*
X51933950Y-28130044D01*
X51915138Y-28707516D01*
X51836123Y-29241398D01*
X51698990Y-29676127D01*
X51683431Y-29709394D01*
X51411282Y-30139127D01*
X51010167Y-30592861D01*
X50510990Y-31038782D01*
X50090731Y-31349033D01*
X49558298Y-31709807D01*
X49863569Y-32125669D01*
X50220312Y-32721553D01*
X50423846Y-33343621D01*
X50485545Y-34030002D01*
X50481107Y-34195800D01*
X50379265Y-34915599D01*
X50147699Y-35528393D01*
X49792358Y-36028499D01*
X49319193Y-36410235D01*
X48734154Y-36667918D01*
X48043190Y-36795865D01*
X47744498Y-36809391D01*
X47342968Y-36797793D01*
X47031188Y-36757912D01*
X46869548Y-36706079D01*
X46703550Y-36663340D01*
X46401522Y-36631760D01*
X45996385Y-36611093D01*
X45521059Y-36601094D01*
X45008462Y-36601516D01*
X44491515Y-36612114D01*
X44003137Y-36632643D01*
X43576248Y-36662855D01*
X43243768Y-36702506D01*
X43089944Y-36734305D01*
X42707841Y-36809699D01*
X42205915Y-36864316D01*
X41632658Y-36895939D01*
X41036560Y-36902351D01*
X40466112Y-36881334D01*
X40249597Y-36864152D01*
X39434906Y-36746319D01*
X38734927Y-36550712D01*
X38107348Y-36262946D01*
X37672734Y-35987907D01*
X37503015Y-35891135D01*
X37307598Y-35841857D01*
X37030815Y-35830144D01*
X36822028Y-35836188D01*
X36279264Y-35817643D01*
X35727403Y-35726506D01*
X35202563Y-35575401D01*
X34740860Y-35376950D01*
X34378409Y-35143777D01*
X34161790Y-34906386D01*
X34040992Y-34751798D01*
X33956456Y-34730126D01*
X33947807Y-34740628D01*
X33805886Y-34870294D01*
X33589598Y-34980848D01*
X33375312Y-35039464D01*
X33268730Y-35032535D01*
X33065189Y-34868156D01*
X32941955Y-34577612D01*
X32902051Y-34185405D01*
X32909637Y-34108756D01*
X33311695Y-34108756D01*
X33315119Y-34434739D01*
X33342894Y-34544371D01*
X33391063Y-34609941D01*
X33475501Y-34588909D01*
X33625754Y-34466466D01*
X33765533Y-34332526D01*
X33971902Y-34137383D01*
X34100049Y-34047856D01*
X34188665Y-34047066D01*
X34270549Y-34112207D01*
X34383754Y-34306625D01*
X34409498Y-34443653D01*
X34471051Y-34653557D01*
X34557665Y-34766062D01*
X34900134Y-34991296D01*
X35355453Y-35185956D01*
X35867583Y-35331757D01*
X36380488Y-35410413D01*
X36558115Y-35418822D01*
X36971064Y-35424394D01*
X36614029Y-35037056D01*
X36181389Y-34449598D01*
X35885180Y-33790192D01*
X35729679Y-33087836D01*
X35719161Y-32371529D01*
X35857902Y-31670269D01*
X36048207Y-31199705D01*
X36266023Y-30766043D01*
X36036261Y-30820600D01*
X35423736Y-31047600D01*
X34839518Y-31418998D01*
X34312839Y-31909859D01*
X33872934Y-32495252D01*
X33692844Y-32819271D01*
X33509616Y-33256369D01*
X33379547Y-33701082D01*
X33311695Y-34108756D01*
X32909637Y-34108756D01*
X32948502Y-33716038D01*
X33053582Y-33289372D01*
X33339958Y-32598374D01*
X33742539Y-31967690D01*
X34238173Y-31418560D01*
X34803706Y-30972225D01*
X35415983Y-30649926D01*
X36051851Y-30472902D01*
X36136108Y-30461541D01*
X36393607Y-30420498D01*
X36566009Y-30372376D01*
X36610832Y-30338788D01*
X36676321Y-30260354D01*
X36845897Y-30126166D01*
X37025631Y-30003049D01*
X37440431Y-29734268D01*
X37180113Y-29177981D01*
X36953472Y-28506909D01*
X36867588Y-27791282D01*
X36926624Y-27082233D01*
X36988388Y-26823533D01*
X37084915Y-26522822D01*
X37185013Y-26266236D01*
X37247103Y-26143378D01*
X37312870Y-26005948D01*
X37256027Y-25921558D01*
X37149160Y-25866996D01*
X37016587Y-25768797D01*
X36964944Y-25661670D01*
X37012164Y-25598468D01*
X37057448Y-25596710D01*
X37187386Y-25602209D01*
X37271983Y-25603061D01*
X37476409Y-25648005D01*
X37627298Y-25756064D01*
X37680936Y-25887075D01*
X37653664Y-25953732D01*
X37547126Y-26151991D01*
X37436287Y-26466993D01*
X37334243Y-26847043D01*
X37254089Y-27240448D01*
X37208921Y-27595512D01*
X37203498Y-27730761D01*
X37285858Y-28410629D01*
X37528841Y-29107418D01*
X37926300Y-29808691D01*
X38472088Y-30502011D01*
X38685165Y-30728436D01*
X39188585Y-31183086D01*
X39715776Y-31531858D01*
X40298186Y-31787358D01*
X40967267Y-31962193D01*
X41754468Y-32068968D01*
X42092998Y-32094436D01*
X42453048Y-32122400D01*
X42740159Y-32155526D01*
X42918979Y-32189070D01*
X42960832Y-32210869D01*
X42913353Y-32283511D01*
X42758647Y-32333313D01*
X42478304Y-32363068D01*
X42053916Y-32375574D01*
X41871029Y-32376394D01*
X41008265Y-32324425D01*
X40253185Y-32161000D01*
X39576950Y-31874837D01*
X38950723Y-31454658D01*
X38515871Y-31064061D01*
X38238135Y-30780866D01*
X37989617Y-30513669D01*
X37807156Y-30302690D01*
X37750585Y-30228514D01*
X37582828Y-29985633D01*
X37141752Y-30382199D01*
X36690614Y-30893104D01*
X36422920Y-31342965D01*
X36286035Y-31637786D01*
X36203149Y-31880763D01*
X36161003Y-32135290D01*
X36146337Y-32464764D01*
X36145165Y-32670947D01*
X36151864Y-33065022D01*
X36180474Y-33353846D01*
X36243761Y-33601253D01*
X36354490Y-33871078D01*
X36407978Y-33985061D01*
X36768193Y-34568197D01*
X37262430Y-35118437D01*
X37855388Y-35605030D01*
X38511771Y-35997224D01*
X38920943Y-36174283D01*
X39430375Y-36315301D01*
X40055778Y-36415120D01*
X40748481Y-36472123D01*
X41459814Y-36484696D01*
X42141106Y-36451221D01*
X42743687Y-36370083D01*
X43004900Y-36309862D01*
X43402468Y-36150366D01*
X43704333Y-35930273D01*
X43895910Y-35673693D01*
X43962611Y-35404739D01*
X43889849Y-35147520D01*
X43785277Y-35019955D01*
X43437970Y-34762252D01*
X43019700Y-34587680D01*
X42501215Y-34487732D01*
X41853265Y-34453898D01*
X41838998Y-34453838D01*
X41399099Y-34445931D01*
X41112014Y-34424530D01*
X40961625Y-34387763D01*
X40928832Y-34348157D01*
X41007964Y-34250492D01*
X41223259Y-34162842D01*
X41541561Y-34092853D01*
X41929716Y-34048170D01*
X42283498Y-34035781D01*
X42906310Y-34098796D01*
X43457292Y-34277399D01*
X43913313Y-34559151D01*
X44251244Y-34931616D01*
X44373812Y-35159799D01*
X44438603Y-35339741D01*
X44442481Y-35490386D01*
X44377630Y-35678210D01*
X44291665Y-35858299D01*
X44087391Y-36271061D01*
X44400104Y-36271061D01*
X44630165Y-36264969D01*
X44967189Y-36248766D01*
X45349323Y-36225559D01*
X45466658Y-36217472D01*
X46220498Y-36163884D01*
X46224903Y-35713377D01*
X46244786Y-35428218D01*
X46315049Y-35191038D01*
X46461387Y-34929376D01*
X46549543Y-34797901D01*
X46952627Y-34306106D01*
X47412290Y-33939781D01*
X47807461Y-33729021D01*
X48135536Y-33602130D01*
X48330110Y-33572635D01*
X48388780Y-33630753D01*
X48309142Y-33766703D01*
X48088793Y-33970701D01*
X47901577Y-34112061D01*
X47426110Y-34494871D01*
X47059666Y-34879184D01*
X46808363Y-35249799D01*
X46678318Y-35591515D01*
X46675648Y-35889129D01*
X46806471Y-36127442D01*
X47031612Y-36273869D01*
X47315455Y-36336551D01*
X47700630Y-36351003D01*
X48127623Y-36321938D01*
X48536922Y-36254072D01*
X48869015Y-36152118D01*
X48929832Y-36123508D01*
X49403340Y-35788533D01*
X49760738Y-35348304D01*
X49996371Y-34825916D01*
X50104582Y-34244467D01*
X50079715Y-33627053D01*
X49916114Y-32996768D01*
X49774900Y-32672727D01*
X49625439Y-32397074D01*
X49476363Y-32158194D01*
X49406465Y-32064097D01*
X49249782Y-31878800D01*
X48732085Y-32039925D01*
X48272424Y-32165580D01*
X47719054Y-32290888D01*
X47146933Y-32400476D01*
X46631016Y-32478970D01*
X46537998Y-32489936D01*
X46280337Y-32490454D01*
X46171352Y-32436855D01*
X46211128Y-32356225D01*
X46399748Y-32275653D01*
X46537240Y-32245946D01*
X46918782Y-32161176D01*
X47402217Y-32024481D01*
X47935094Y-31853588D01*
X48464962Y-31666223D01*
X48939367Y-31480111D01*
X49305859Y-31312977D01*
X49320642Y-31305316D01*
X49830177Y-31003176D01*
X50321638Y-30647009D01*
X50749889Y-30273039D01*
X51069798Y-29917492D01*
X51098095Y-29878727D01*
X51378785Y-29340708D01*
X51530678Y-28711796D01*
X51551207Y-28013972D01*
X51437802Y-27269214D01*
X51414126Y-27174086D01*
X51318085Y-26867370D01*
X51187836Y-26533638D01*
X51041720Y-26210876D01*
X50898077Y-25937070D01*
X50775246Y-25750204D01*
X50696496Y-25687727D01*
X50592685Y-25620245D01*
X50580832Y-25567293D01*
X50655540Y-25463381D01*
X50841149Y-25365837D01*
X51079880Y-25295934D01*
X51313959Y-25274946D01*
X51362529Y-25279479D01*
G37*
G36*
X23130833Y-28135788D02*
G01*
X23308146Y-28247563D01*
X23537862Y-28375397D01*
X23554166Y-28383870D01*
X23735551Y-28506026D01*
X23826773Y-28623162D01*
X23829333Y-28640005D01*
X23767099Y-28771281D01*
X23600026Y-28797714D01*
X23357557Y-28717623D01*
X23273175Y-28671782D01*
X22969590Y-28492662D01*
X22753043Y-28662997D01*
X22543615Y-28781784D01*
X22337642Y-28829540D01*
X22185465Y-28802046D01*
X22136000Y-28714696D01*
X22201774Y-28595928D01*
X22364564Y-28451791D01*
X22411166Y-28420312D01*
X22634353Y-28274456D01*
X22817748Y-28149226D01*
X22834500Y-28137216D01*
X22987835Y-28072475D01*
X23130833Y-28135788D01*
G37*
G36*
X20294621Y-26930616D02*
G01*
X20581293Y-27082925D01*
X20795403Y-27351827D01*
X20922159Y-27694742D01*
X20946769Y-28069089D01*
X20854440Y-28432287D01*
X20832215Y-28478135D01*
X20605851Y-28762343D01*
X20314943Y-28908141D01*
X19996708Y-28909310D01*
X19688364Y-28759629D01*
X19602589Y-28683615D01*
X19400602Y-28389210D01*
X19391096Y-28352641D01*
X19771066Y-28352641D01*
X19819475Y-28435920D01*
X19923073Y-28455610D01*
X20005263Y-28358735D01*
X20019333Y-28278003D01*
X19951450Y-28170115D01*
X19892333Y-28156000D01*
X19785833Y-28219137D01*
X19771066Y-28352641D01*
X19391096Y-28352641D01*
X19313704Y-28054932D01*
X19329215Y-27712907D01*
X19434452Y-27395259D01*
X19616734Y-27134113D01*
X19863378Y-26961594D01*
X20161702Y-26909827D01*
X20294621Y-26930616D01*
G37*
G36*
X25698002Y-26934826D02*
G01*
X25903535Y-27007488D01*
X26183459Y-27206344D01*
X26362964Y-27499422D01*
X26441918Y-27845246D01*
X26420191Y-28202341D01*
X26297653Y-28529233D01*
X26074171Y-28784447D01*
X25909433Y-28878713D01*
X25709673Y-28962139D01*
X25591870Y-28988439D01*
X25478010Y-28956006D01*
X25295843Y-28866074D01*
X25012430Y-28641936D01*
X24839583Y-28331355D01*
X24838521Y-28325333D01*
X25776666Y-28325333D01*
X25819518Y-28464293D01*
X25924833Y-28478548D01*
X26050792Y-28395063D01*
X26073000Y-28325333D01*
X26002615Y-28205785D01*
X25924833Y-28172118D01*
X25804821Y-28201570D01*
X25776666Y-28325333D01*
X24838521Y-28325333D01*
X24776889Y-27975778D01*
X24823930Y-27616657D01*
X24980293Y-27295439D01*
X25245562Y-27053575D01*
X25314364Y-27017078D01*
X25526169Y-26933981D01*
X25698002Y-26934826D01*
G37*
G36*
X26936791Y-20673460D02*
G01*
X27236332Y-21037396D01*
X27537039Y-21511363D01*
X27809363Y-22038867D01*
X28023752Y-22563416D01*
X28140338Y-22974334D01*
X28195617Y-23340756D01*
X28228253Y-23742312D01*
X28232000Y-23893559D01*
X28238034Y-24159742D01*
X28264299Y-24290521D01*
X28323041Y-24319634D01*
X28380166Y-24301837D01*
X28582518Y-24237584D01*
X28740000Y-24202856D01*
X28845310Y-24193847D01*
X28854353Y-24233663D01*
X28756002Y-24344678D01*
X28592171Y-24500114D01*
X28364021Y-24692459D01*
X28157877Y-24833508D01*
X28057825Y-24879797D01*
X27893052Y-24863376D01*
X27822106Y-24745376D01*
X27874773Y-24580978D01*
X27887635Y-24564532D01*
X27923223Y-24470078D01*
X27924462Y-24295244D01*
X27888973Y-24014963D01*
X27814378Y-23604169D01*
X27780257Y-23433140D01*
X27546235Y-22533522D01*
X27238032Y-21773927D01*
X26858423Y-21160511D01*
X26643351Y-20911207D01*
X26466135Y-20738042D01*
X26324130Y-20650376D01*
X26152231Y-20627113D01*
X25885334Y-20647156D01*
X25842286Y-20651631D01*
X25491507Y-20713408D01*
X25085684Y-20821040D01*
X24777120Y-20927144D01*
X24515868Y-21041534D01*
X24192080Y-21199920D01*
X23837943Y-21384418D01*
X23485641Y-21577143D01*
X23167359Y-21760210D01*
X22915284Y-21915735D01*
X22761599Y-22025832D01*
X22729700Y-22064872D01*
X22798816Y-22124742D01*
X22973451Y-22218568D01*
X23054717Y-22255931D01*
X23298236Y-22388539D01*
X23501217Y-22542405D01*
X23627737Y-22684897D01*
X23641874Y-22783384D01*
X23638921Y-22786634D01*
X23543486Y-22781388D01*
X23325535Y-22728276D01*
X23021778Y-22637055D01*
X22803019Y-22564458D01*
X22332382Y-22418594D01*
X21945733Y-22345618D01*
X21576225Y-22341463D01*
X21157009Y-22402062D01*
X20929500Y-22450465D01*
X20760062Y-22467874D01*
X20700069Y-22397876D01*
X20696340Y-22345036D01*
X20624928Y-22189980D01*
X20430969Y-21984563D01*
X20144126Y-21752633D01*
X19794061Y-21518033D01*
X19410437Y-21304607D01*
X19388593Y-21293779D01*
X18590535Y-20973108D01*
X17819440Y-20812529D01*
X17425685Y-20791004D01*
X17130494Y-20797575D01*
X16940491Y-20835579D01*
X16791641Y-20930315D01*
X16619910Y-21107078D01*
X16616749Y-21110576D01*
X16182441Y-21690950D01*
X15806749Y-22389716D01*
X15510027Y-23160310D01*
X15312630Y-23956169D01*
X15278697Y-24171569D01*
X15234737Y-24526781D01*
X15222260Y-24755933D01*
X15243018Y-24899666D01*
X15298758Y-24998623D01*
X15315102Y-25017553D01*
X15430572Y-25185186D01*
X15413856Y-25269526D01*
X15283283Y-25264867D01*
X15057183Y-25165499D01*
X14981666Y-25121404D01*
X14725627Y-24938690D01*
X14583195Y-24780181D01*
X14571591Y-24667042D01*
X14594805Y-24645955D01*
X14733652Y-24636775D01*
X14831750Y-24672022D01*
X14911982Y-24698916D01*
X14958824Y-24651817D01*
X14982814Y-24499559D01*
X14994491Y-24210972D01*
X14995019Y-24189104D01*
X15065211Y-23590080D01*
X15238261Y-22926170D01*
X15496918Y-22251855D01*
X15789872Y-21679000D01*
X16126702Y-21148357D01*
X16443970Y-20766833D01*
X16771069Y-20521442D01*
X17137388Y-20399200D01*
X17572321Y-20387121D01*
X18105258Y-20472222D01*
X18375956Y-20536494D01*
X19171351Y-20793734D01*
X19875395Y-21133545D01*
X20455735Y-21539700D01*
X20557330Y-21630469D01*
X20971398Y-22017666D01*
X21701521Y-21986988D01*
X22068491Y-21966333D01*
X22314109Y-21933054D01*
X22486356Y-21874261D01*
X22633213Y-21777060D01*
X22703250Y-21717837D01*
X23183359Y-21357193D01*
X23761821Y-21018065D01*
X24390864Y-20721506D01*
X25022718Y-20488571D01*
X25609612Y-20340314D01*
X25918159Y-20300905D01*
X26525318Y-20260588D01*
X26936791Y-20673460D01*
G37*
G36*
X28759697Y-25038418D02*
G01*
X28912493Y-25094194D01*
X28913017Y-25180219D01*
X28769646Y-25273209D01*
X28661711Y-25310747D01*
X28487383Y-25385735D01*
X28398988Y-25467560D01*
X28423202Y-25523399D01*
X28482430Y-25531333D01*
X28581867Y-25604871D01*
X28718896Y-25801009D01*
X28873735Y-26083030D01*
X29026598Y-26414216D01*
X29157702Y-26757851D01*
X29179788Y-26825531D01*
X29287640Y-27323487D01*
X29331118Y-27888983D01*
X29312306Y-28466455D01*
X29233291Y-29000337D01*
X29096158Y-29435066D01*
X29080599Y-29468333D01*
X28808450Y-29898066D01*
X28407335Y-30351800D01*
X27908158Y-30797721D01*
X27487899Y-31107972D01*
X26955466Y-31468746D01*
X27260737Y-31884608D01*
X27617480Y-32480492D01*
X27821014Y-33102560D01*
X27882713Y-33788941D01*
X27878275Y-33954739D01*
X27776433Y-34674538D01*
X27544867Y-35287332D01*
X27189526Y-35787438D01*
X26716361Y-36169174D01*
X26131322Y-36426857D01*
X25440358Y-36554804D01*
X25141666Y-36568330D01*
X24740136Y-36556732D01*
X24428356Y-36516851D01*
X24266716Y-36465018D01*
X24100718Y-36422279D01*
X23798690Y-36390699D01*
X23393553Y-36370032D01*
X22918227Y-36360033D01*
X22405630Y-36360455D01*
X21888683Y-36371053D01*
X21400305Y-36391582D01*
X20973416Y-36421794D01*
X20640936Y-36461445D01*
X20487112Y-36493244D01*
X20105009Y-36568638D01*
X19603083Y-36623255D01*
X19029826Y-36654878D01*
X18433728Y-36661290D01*
X17863280Y-36640273D01*
X17646765Y-36623091D01*
X16832074Y-36505258D01*
X16132095Y-36309651D01*
X15504516Y-36021885D01*
X15069902Y-35746846D01*
X14900183Y-35650074D01*
X14704766Y-35600796D01*
X14427983Y-35589083D01*
X14219196Y-35595127D01*
X13676432Y-35576582D01*
X13124571Y-35485445D01*
X12599731Y-35334340D01*
X12138028Y-35135889D01*
X11775577Y-34902716D01*
X11558958Y-34665325D01*
X11438160Y-34510737D01*
X11353624Y-34489065D01*
X11344975Y-34499567D01*
X11203054Y-34629233D01*
X10986766Y-34739787D01*
X10772480Y-34798403D01*
X10665898Y-34791474D01*
X10462357Y-34627095D01*
X10339123Y-34336551D01*
X10299219Y-33944344D01*
X10306805Y-33867695D01*
X10708863Y-33867695D01*
X10712287Y-34193678D01*
X10740062Y-34303310D01*
X10788231Y-34368880D01*
X10872669Y-34347848D01*
X11022922Y-34225405D01*
X11162701Y-34091465D01*
X11369070Y-33896322D01*
X11497217Y-33806795D01*
X11585833Y-33806005D01*
X11667717Y-33871146D01*
X11780922Y-34065564D01*
X11806666Y-34202592D01*
X11868219Y-34412496D01*
X11954833Y-34525001D01*
X12297302Y-34750235D01*
X12752621Y-34944895D01*
X13264751Y-35090696D01*
X13777656Y-35169352D01*
X13955283Y-35177761D01*
X14368232Y-35183333D01*
X14011197Y-34795995D01*
X13578557Y-34208537D01*
X13282348Y-33549131D01*
X13126847Y-32846775D01*
X13116329Y-32130468D01*
X13255070Y-31429208D01*
X13445375Y-30958644D01*
X13663191Y-30524982D01*
X13433429Y-30579539D01*
X12820904Y-30806539D01*
X12236686Y-31177937D01*
X11710007Y-31668798D01*
X11270102Y-32254191D01*
X11090012Y-32578210D01*
X10906784Y-33015308D01*
X10776715Y-33460021D01*
X10708863Y-33867695D01*
X10306805Y-33867695D01*
X10345670Y-33474977D01*
X10450750Y-33048311D01*
X10737126Y-32357313D01*
X11139707Y-31726629D01*
X11635341Y-31177499D01*
X12200874Y-30731164D01*
X12813151Y-30408865D01*
X13449019Y-30231841D01*
X13533276Y-30220480D01*
X13790775Y-30179437D01*
X13963177Y-30131315D01*
X14008000Y-30097727D01*
X14073489Y-30019293D01*
X14243065Y-29885105D01*
X14422799Y-29761988D01*
X14837599Y-29493207D01*
X14577281Y-28936920D01*
X14350640Y-28265848D01*
X14264756Y-27550221D01*
X14323792Y-26841172D01*
X14385556Y-26582472D01*
X14482083Y-26281761D01*
X14582181Y-26025175D01*
X14644271Y-25902317D01*
X14710038Y-25764887D01*
X14653195Y-25680497D01*
X14546328Y-25625935D01*
X14413755Y-25527736D01*
X14362112Y-25420609D01*
X14409332Y-25357407D01*
X14454616Y-25355649D01*
X14584554Y-25361148D01*
X14669151Y-25362000D01*
X14873577Y-25406944D01*
X15024466Y-25515003D01*
X15078104Y-25646014D01*
X15050832Y-25712671D01*
X14944294Y-25910930D01*
X14833455Y-26225932D01*
X14731411Y-26605982D01*
X14651257Y-26999387D01*
X14606089Y-27354451D01*
X14600666Y-27489700D01*
X14683026Y-28169568D01*
X14926009Y-28866357D01*
X15323468Y-29567630D01*
X15869256Y-30260950D01*
X16082333Y-30487375D01*
X16585753Y-30942025D01*
X17112944Y-31290797D01*
X17695354Y-31546297D01*
X18364435Y-31721132D01*
X19151636Y-31827907D01*
X19490166Y-31853375D01*
X19850216Y-31881339D01*
X20137327Y-31914465D01*
X20316147Y-31948009D01*
X20358000Y-31969808D01*
X20310521Y-32042450D01*
X20155815Y-32092252D01*
X19875472Y-32122007D01*
X19451084Y-32134513D01*
X19268197Y-32135333D01*
X18405433Y-32083364D01*
X17650353Y-31919939D01*
X16974118Y-31633776D01*
X16347891Y-31213597D01*
X15913039Y-30823000D01*
X15635303Y-30539805D01*
X15386785Y-30272608D01*
X15204324Y-30061629D01*
X15147753Y-29987453D01*
X14979996Y-29744572D01*
X14538920Y-30141138D01*
X14087782Y-30652043D01*
X13820088Y-31101904D01*
X13683203Y-31396725D01*
X13600317Y-31639702D01*
X13558171Y-31894229D01*
X13543505Y-32223703D01*
X13542333Y-32429886D01*
X13549032Y-32823961D01*
X13577642Y-33112785D01*
X13640929Y-33360192D01*
X13751658Y-33630017D01*
X13805146Y-33744000D01*
X14165361Y-34327136D01*
X14659598Y-34877376D01*
X15252556Y-35363969D01*
X15908939Y-35756163D01*
X16318111Y-35933222D01*
X16827543Y-36074240D01*
X17452946Y-36174059D01*
X18145649Y-36231062D01*
X18856982Y-36243635D01*
X19538274Y-36210160D01*
X20140855Y-36129022D01*
X20402068Y-36068801D01*
X20799636Y-35909305D01*
X21101501Y-35689212D01*
X21293078Y-35432632D01*
X21359779Y-35163678D01*
X21287017Y-34906459D01*
X21182445Y-34778894D01*
X20835138Y-34521191D01*
X20416868Y-34346619D01*
X19898383Y-34246671D01*
X19250433Y-34212837D01*
X19236166Y-34212777D01*
X18796267Y-34204870D01*
X18509182Y-34183469D01*
X18358793Y-34146702D01*
X18326000Y-34107096D01*
X18405132Y-34009431D01*
X18620427Y-33921781D01*
X18938729Y-33851792D01*
X19326884Y-33807109D01*
X19680666Y-33794720D01*
X20303478Y-33857735D01*
X20854460Y-34036338D01*
X21310481Y-34318090D01*
X21648412Y-34690555D01*
X21770980Y-34918738D01*
X21835771Y-35098680D01*
X21839649Y-35249325D01*
X21774798Y-35437149D01*
X21688833Y-35617238D01*
X21484559Y-36030000D01*
X21797272Y-36030000D01*
X22027333Y-36023908D01*
X22364357Y-36007705D01*
X22746491Y-35984498D01*
X22863826Y-35976411D01*
X23617666Y-35922823D01*
X23622071Y-35472316D01*
X23641954Y-35187157D01*
X23712217Y-34949977D01*
X23858555Y-34688315D01*
X23946711Y-34556840D01*
X24349795Y-34065045D01*
X24809458Y-33698720D01*
X25204629Y-33487960D01*
X25532704Y-33361069D01*
X25727278Y-33331574D01*
X25785948Y-33389692D01*
X25706310Y-33525642D01*
X25485961Y-33729640D01*
X25298745Y-33871000D01*
X24823278Y-34253810D01*
X24456834Y-34638123D01*
X24205531Y-35008738D01*
X24075486Y-35350454D01*
X24072816Y-35648068D01*
X24203639Y-35886381D01*
X24428780Y-36032808D01*
X24712623Y-36095490D01*
X25097798Y-36109942D01*
X25524791Y-36080877D01*
X25934090Y-36013011D01*
X26266183Y-35911057D01*
X26327000Y-35882447D01*
X26800508Y-35547472D01*
X27157906Y-35107243D01*
X27393539Y-34584855D01*
X27501750Y-34003406D01*
X27476883Y-33385992D01*
X27313282Y-32755707D01*
X27172068Y-32431666D01*
X27022607Y-32156013D01*
X26873531Y-31917133D01*
X26803633Y-31823036D01*
X26646950Y-31637739D01*
X26129253Y-31798864D01*
X25669592Y-31924519D01*
X25116222Y-32049827D01*
X24544101Y-32159415D01*
X24028184Y-32237909D01*
X23935166Y-32248875D01*
X23677505Y-32249393D01*
X23568520Y-32195794D01*
X23608296Y-32115164D01*
X23796916Y-32034592D01*
X23934408Y-32004885D01*
X24315950Y-31920115D01*
X24799385Y-31783420D01*
X25332262Y-31612527D01*
X25862130Y-31425162D01*
X26336535Y-31239050D01*
X26703027Y-31071916D01*
X26717810Y-31064255D01*
X27227345Y-30762115D01*
X27718806Y-30405948D01*
X28147057Y-30031978D01*
X28466966Y-29676431D01*
X28495263Y-29637666D01*
X28775953Y-29099647D01*
X28927846Y-28470735D01*
X28948375Y-27772911D01*
X28834970Y-27028153D01*
X28811294Y-26933025D01*
X28715253Y-26626309D01*
X28585004Y-26292577D01*
X28438888Y-25969815D01*
X28295245Y-25696009D01*
X28172414Y-25509143D01*
X28093664Y-25446666D01*
X27989853Y-25379184D01*
X27978000Y-25326232D01*
X28052708Y-25222320D01*
X28238317Y-25124776D01*
X28477048Y-25054873D01*
X28711127Y-25033885D01*
X28759697Y-25038418D01*
G37*
D11*
%TO.C,U7*%
X30806060Y-17517913D02*
X35886060Y-17517913D01*
X35886060Y-17517913D02*
X35886060Y-20057913D01*
X30806060Y-20057913D02*
X30806060Y-17517913D01*
X35886060Y-20057913D02*
X30806060Y-20057913D01*
%TO.C,U2*%
X34492000Y-21072000D02*
X34492000Y-41572000D01*
X34492000Y-41572000D02*
X29992000Y-41572000D01*
X29992000Y-21072000D02*
X34492000Y-21072000D01*
X29992000Y-41572000D02*
X29992000Y-21072000D01*
X34509000Y-20602000D02*
G75*
G03*
X34509000Y-20602000I-127000J0D01*
G01*
D12*
%TO.C,R1*%
X41009000Y-28855000D02*
X41009000Y-27533000D01*
X38239000Y-28855000D02*
X38239000Y-27533000D01*
X41009000Y-27533000D02*
X40050000Y-27533000D01*
X38239000Y-27533000D02*
X39198000Y-27533000D01*
X40050000Y-28855000D02*
X41009000Y-28855000D01*
X39198000Y-28855000D02*
X38239000Y-28855000D01*
%TO.C,C9*%
X50029000Y-23876000D02*
X50029000Y-23086000D01*
X49184000Y-21691000D02*
X49876000Y-21691000D01*
X50029000Y-21844000D02*
X50029000Y-22634000D01*
X49031000Y-22634000D02*
X49031000Y-21844000D01*
X49184000Y-24029000D02*
X49876000Y-24029000D01*
X49031000Y-23086000D02*
X49031000Y-23876000D01*
X50029000Y-21844000D02*
G75*
G03*
X49876000Y-21691000I-153001J-1D01*
G01*
X49184000Y-21691000D02*
G75*
G03*
X49031000Y-21844000I1J-153001D01*
G01*
X49031000Y-23876000D02*
G75*
G03*
X49184000Y-24029000I153000J0D01*
G01*
X49876000Y-24029000D02*
G75*
G03*
X50029000Y-23876000I0J153000D01*
G01*
D11*
%TO.C,ANT_BALUN1*%
X55588226Y-32636302D02*
X55554285Y-32670243D01*
X55118000Y-31409472D02*
X55227602Y-31519073D01*
X54647774Y-31879698D02*
X54739698Y-31787774D01*
X55966528Y-32258000D02*
X55856927Y-32367602D01*
X55856927Y-32148398D02*
X55966528Y-32258000D01*
X54681715Y-32670243D02*
X54647774Y-32636302D01*
X55118000Y-33106528D02*
X55066381Y-33054909D01*
X55008398Y-31519073D02*
X55118000Y-31409472D01*
X55496302Y-31787774D02*
X55588226Y-31879698D01*
X54379073Y-32367602D02*
X54269472Y-32258000D01*
X55169619Y-33054909D02*
X55118000Y-33106528D01*
X54269472Y-32258000D02*
X54379073Y-32148398D01*
X55642264Y-33049960D02*
G75*
G03*
X55642264Y-33049960I-100000J0D01*
G01*
D13*
%TO.C,J2*%
X53340000Y-39624000D02*
X50800000Y-39624000D01*
X50800000Y-39624000D02*
X50800000Y-37084000D01*
X50800000Y-37084000D02*
X53340000Y-37084000D01*
X53340000Y-37084000D02*
X53340000Y-38989000D01*
X53340000Y-39624000D02*
X53340000Y-38989000D01*
D11*
%TO.C,C23*%
X39344000Y-31952000D02*
X38544000Y-31952000D01*
X39344000Y-30532000D02*
X38544000Y-30532000D01*
X41029000Y-31648000D02*
X41029000Y-30848000D01*
X39920000Y-30538000D02*
X40720000Y-30538000D01*
X39920000Y-31957000D02*
X40720000Y-31957000D01*
X38234000Y-31642000D02*
X38234000Y-30842000D01*
X40720000Y-31958000D02*
G75*
G03*
X41030000Y-31648000I0J310000D01*
G01*
X41030000Y-30848027D02*
G75*
G03*
X40720000Y-30538000I-309999J28D01*
G01*
X38234000Y-31641973D02*
G75*
G03*
X38544000Y-31952000I310000J-27D01*
G01*
X38544000Y-30532000D02*
G75*
G03*
X38234000Y-30842000I0J-310000D01*
G01*
D12*
%TO.C,C1*%
X52670000Y-34443000D02*
X51978000Y-34443000D01*
X51825000Y-34290000D02*
X51825000Y-33500000D01*
X52823000Y-33048000D02*
X52823000Y-32258000D01*
X52823000Y-33500000D02*
X52823000Y-34290000D01*
X51825000Y-32258000D02*
X51825000Y-33048000D01*
X52670000Y-32105000D02*
X51978000Y-32105000D01*
X51825000Y-34290000D02*
G75*
G03*
X51978000Y-34443000I153001J1D01*
G01*
X51978000Y-32105000D02*
G75*
G03*
X51825000Y-32258000I0J-153000D01*
G01*
X52823000Y-32258000D02*
G75*
G03*
X52670000Y-32105000I-153000J0D01*
G01*
X52670000Y-34443000D02*
G75*
G03*
X52823000Y-34290000I-1J153001D01*
G01*
D11*
%TO.C,C36*%
X4017000Y-23072000D02*
X4017000Y-22272000D01*
X3702000Y-24758000D02*
X2902000Y-24758000D01*
X4012000Y-23648000D02*
X4012000Y-24448000D01*
X3708000Y-21963000D02*
X2908000Y-21963000D01*
X2592000Y-23648000D02*
X2592000Y-24448000D01*
X2598000Y-23072000D02*
X2598000Y-22272000D01*
X4018000Y-22272000D02*
G75*
G03*
X3708000Y-21962000I-310000J0D01*
G01*
X3701973Y-24758000D02*
G75*
G03*
X4012000Y-24448000I27J310000D01*
G01*
X2908027Y-21962000D02*
G75*
G03*
X2598000Y-22272000I-28J-309999D01*
G01*
X2592000Y-24448000D02*
G75*
G03*
X2902000Y-24758000I310000J0D01*
G01*
D12*
%TO.C,C16*%
X4474000Y-24178000D02*
X4366000Y-24178000D01*
X7318000Y-20526000D02*
X7318000Y-24178000D01*
X4366000Y-20526000D02*
X4366000Y-24178000D01*
X7318000Y-21772000D02*
X4366000Y-21772000D01*
X7318000Y-24178000D02*
X7210000Y-24178000D01*
G36*
X7394000Y-20602000D02*
G01*
X7182000Y-20602000D01*
X7182000Y-20145000D01*
X7394000Y-20145000D01*
X7394000Y-20602000D01*
G37*
G36*
X4502000Y-20602000D02*
G01*
X4290000Y-20602000D01*
X4290000Y-20145000D01*
X4502000Y-20145000D01*
X4502000Y-20602000D01*
G37*
D11*
%TO.C,C24*%
X28406000Y-29257000D02*
X27606000Y-29257000D01*
X28982000Y-29262000D02*
X29782000Y-29262000D01*
X30092000Y-29572000D02*
X30092000Y-30372000D01*
X27297000Y-29566000D02*
X27297000Y-30366000D01*
X28982000Y-30682000D02*
X29782000Y-30682000D01*
X28406000Y-30676000D02*
X27606000Y-30676000D01*
X27606000Y-29256000D02*
G75*
G03*
X27296000Y-29566000I0J-310000D01*
G01*
X30092000Y-29572027D02*
G75*
G03*
X29782000Y-29262000I-310000J27D01*
G01*
X29782000Y-30682000D02*
G75*
G03*
X30092000Y-30372000I0J310000D01*
G01*
X27296000Y-30365973D02*
G75*
G03*
X27606000Y-30676000I309999J-28D01*
G01*
%TO.C,ANT_SMA2*%
X65549627Y-10698286D02*
X59963484Y-16284429D01*
X63202740Y-13045173D02*
X68016016Y-16010072D01*
X59609930Y-15930876D02*
X58478559Y-17062247D01*
X63074753Y-21658441D02*
X58478559Y-17062247D01*
X59609930Y-15930876D02*
X64206124Y-20527070D01*
X65549627Y-10698286D02*
X69438714Y-14587373D01*
X67082635Y-16943453D02*
X63186476Y-13061436D01*
X62268652Y-13979261D02*
X67082635Y-16943453D01*
X67091827Y-16934260D02*
X63202740Y-13045173D01*
X68016016Y-16010072D02*
X64120564Y-12127348D01*
X66157739Y-17868348D02*
X62268652Y-13979261D01*
X69438714Y-14587373D02*
X63852571Y-20173516D01*
X64206124Y-20527070D02*
X63074753Y-21658441D01*
D12*
%TO.C,C10*%
X48352000Y-35967000D02*
X47660000Y-35967000D01*
X47507000Y-35814000D02*
X47507000Y-35024000D01*
X47507000Y-33782000D02*
X47507000Y-34572000D01*
X48505000Y-35024000D02*
X48505000Y-35814000D01*
X48352000Y-33629000D02*
X47660000Y-33629000D01*
X48505000Y-34572000D02*
X48505000Y-33782000D01*
X48505000Y-33782000D02*
G75*
G03*
X48352000Y-33629000I-153000J0D01*
G01*
X48352000Y-35967000D02*
G75*
G03*
X48505000Y-35814000I-1J153001D01*
G01*
X47660000Y-33629000D02*
G75*
G03*
X47507000Y-33782000I0J-153000D01*
G01*
X47507000Y-35814000D02*
G75*
G03*
X47660000Y-35967000I153001J1D01*
G01*
D13*
%TO.C,J7*%
X42926000Y-21844000D02*
X45466000Y-21844000D01*
X45466000Y-24384000D02*
X42926000Y-24384000D01*
X45466000Y-21844000D02*
X45466000Y-23749000D01*
X45466000Y-24384000D02*
X45466000Y-23749000D01*
X42926000Y-24384000D02*
X42926000Y-21844000D01*
D11*
%TO.C,ANT_BALUN2*%
X56004302Y-24421774D02*
X56038243Y-24455715D01*
X55735602Y-25630927D02*
X55626000Y-25740528D01*
X55626000Y-24043472D02*
X55735602Y-24153073D01*
X55516398Y-24153073D02*
X55626000Y-24043472D01*
X55247698Y-25362226D02*
X55155774Y-25270302D01*
X54887073Y-25001602D02*
X54777472Y-24892000D01*
X55155774Y-24513698D02*
X55247698Y-24421774D01*
X56038243Y-25328285D02*
X56004302Y-25362226D01*
X55626000Y-25740528D02*
X55516398Y-25630927D01*
X56422909Y-24840381D02*
X56474528Y-24892000D01*
X54777472Y-24892000D02*
X54887073Y-24782398D01*
X56474528Y-24892000D02*
X56422909Y-24943619D01*
X56517960Y-24467736D02*
G75*
G03*
X56517960Y-24467736I-100000J0D01*
G01*
%TO.C,C26*%
X20786000Y-18335000D02*
X19986000Y-18335000D01*
X19677000Y-18644000D02*
X19677000Y-19444000D01*
X22472000Y-18650000D02*
X22472000Y-19450000D01*
X21362000Y-19760000D02*
X22162000Y-19760000D01*
X21362000Y-18340000D02*
X22162000Y-18340000D01*
X20786000Y-19754000D02*
X19986000Y-19754000D01*
X22162000Y-19760000D02*
G75*
G03*
X22472000Y-19450000I0J310000D01*
G01*
X19986000Y-18334000D02*
G75*
G03*
X19676000Y-18644000I0J-310000D01*
G01*
X19676000Y-19443973D02*
G75*
G03*
X19986000Y-19754000I309999J-28D01*
G01*
X22472000Y-18650027D02*
G75*
G03*
X22162000Y-18340000I-310000J27D01*
G01*
D12*
%TO.C,C15*%
X4112000Y-26876000D02*
X4112000Y-30528000D01*
X4220000Y-30528000D02*
X4112000Y-30528000D01*
X7064000Y-30528000D02*
X6956000Y-30528000D01*
X7064000Y-28122000D02*
X4112000Y-28122000D01*
X7064000Y-26876000D02*
X7064000Y-30528000D01*
G36*
X4248000Y-26952000D02*
G01*
X4036000Y-26952000D01*
X4036000Y-26495000D01*
X4248000Y-26495000D01*
X4248000Y-26952000D01*
G37*
G36*
X7140000Y-26952000D02*
G01*
X6928000Y-26952000D01*
X6928000Y-26495000D01*
X7140000Y-26495000D01*
X7140000Y-26952000D01*
G37*
D11*
%TO.C,C20*%
X28982000Y-29158000D02*
X29782000Y-29158000D01*
X30092000Y-28048000D02*
X30092000Y-28848000D01*
X28982000Y-27738000D02*
X29782000Y-27738000D01*
X27297000Y-28042000D02*
X27297000Y-28842000D01*
X28406000Y-29152000D02*
X27606000Y-29152000D01*
X28406000Y-27733000D02*
X27606000Y-27733000D01*
X30092000Y-28048027D02*
G75*
G03*
X29782000Y-27738000I-310000J27D01*
G01*
X27296000Y-28841973D02*
G75*
G03*
X27606000Y-29152000I309999J-28D01*
G01*
X27606000Y-27732000D02*
G75*
G03*
X27296000Y-28042000I0J-310000D01*
G01*
X29782000Y-29158000D02*
G75*
G03*
X30092000Y-28848000I0J310000D01*
G01*
%TO.C,SYS_CTRL*%
X51098000Y-11387011D02*
X34438000Y-11387011D01*
X41768000Y-14688011D02*
X43768000Y-14688011D01*
X43768000Y-14688011D02*
X43768000Y-11688011D01*
X34438000Y-17417011D02*
X51098000Y-17417011D01*
X36006000Y-11554011D02*
X36768000Y-13758011D01*
X34438000Y-11387011D02*
X34438000Y-17417011D01*
X36768000Y-13758011D02*
X37530000Y-11554011D01*
X41768000Y-11688011D02*
X41768000Y-14688011D01*
X51098000Y-17417011D02*
X51098000Y-11387011D01*
D12*
%TO.C,C8*%
X50892000Y-33883000D02*
X50200000Y-33883000D01*
X50892000Y-36221000D02*
X50200000Y-36221000D01*
X51045000Y-34826000D02*
X51045000Y-34036000D01*
X50047000Y-34036000D02*
X50047000Y-34826000D01*
X51045000Y-35278000D02*
X51045000Y-36068000D01*
X50047000Y-36068000D02*
X50047000Y-35278000D01*
X50047000Y-36068000D02*
G75*
G03*
X50200000Y-36221000I153001J1D01*
G01*
X51045000Y-34036000D02*
G75*
G03*
X50892000Y-33883000I-153000J0D01*
G01*
X50200000Y-33883000D02*
G75*
G03*
X50047000Y-34036000I0J-153000D01*
G01*
X50892000Y-36221000D02*
G75*
G03*
X51045000Y-36068000I-1J153001D01*
G01*
D11*
%TO.C,C21*%
X41914547Y-31030000D02*
X41914547Y-31830000D01*
X43333547Y-31030000D02*
X43333547Y-31830000D01*
X42229547Y-29344000D02*
X43029547Y-29344000D01*
X41919547Y-30454000D02*
X41919547Y-29654000D01*
X43339547Y-30454000D02*
X43339547Y-29654000D01*
X42223547Y-32139000D02*
X43023547Y-32139000D01*
X41913547Y-31830000D02*
G75*
G03*
X42223547Y-32140000I310000J0D01*
G01*
X42229574Y-29344000D02*
G75*
G03*
X41919547Y-29654000I-27J-310000D01*
G01*
X43339547Y-29654000D02*
G75*
G03*
X43029547Y-29344000I-310000J0D01*
G01*
X43023520Y-32140000D02*
G75*
G03*
X43333547Y-31830000I28J309999D01*
G01*
%TO.C,U3*%
X15442000Y-40872000D02*
X10942000Y-40872000D01*
X10942000Y-40872000D02*
X10942000Y-20372000D01*
X15442000Y-20372000D02*
X15442000Y-40872000D01*
X10942000Y-20372000D02*
X15442000Y-20372000D01*
X15459000Y-19902000D02*
G75*
G03*
X15459000Y-19902000I-127000J0D01*
G01*
D13*
%TO.C,J6*%
X51308000Y-22098000D02*
X51308000Y-19558000D01*
X51308000Y-19558000D02*
X53848000Y-19558000D01*
X53848000Y-19558000D02*
X53848000Y-21463000D01*
X53848000Y-22098000D02*
X53848000Y-21463000D01*
X53848000Y-22098000D02*
X51308000Y-22098000D01*
D11*
%TO.C,ANT_SMA1*%
X64126928Y-44775016D02*
X68009652Y-40879564D01*
X65549627Y-46197714D02*
X59963484Y-40611571D01*
X64206124Y-36368930D02*
X59609930Y-40965124D01*
X58478559Y-39833753D02*
X63074753Y-35237559D01*
X62268652Y-42916739D02*
X66157739Y-39027652D01*
X66157739Y-39027652D02*
X63193547Y-43841635D01*
X63202740Y-43850827D02*
X67091827Y-39961740D01*
X69438714Y-42308627D02*
X65549627Y-46197714D01*
X69438714Y-42308627D02*
X63852571Y-36722484D01*
X67091827Y-39961740D02*
X64126928Y-44775016D01*
X59609930Y-40965124D02*
X58478559Y-39833753D01*
X63193547Y-43841635D02*
X67075564Y-39945476D01*
X64206124Y-36368930D02*
X63074753Y-35237559D01*
D12*
%TO.C,U1*%
X17294772Y-26416000D02*
X17644790Y-26766018D01*
X22352000Y-21358772D02*
X22702018Y-21708790D01*
X22001982Y-21708790D02*
X22352000Y-21358772D01*
X27059210Y-26766018D02*
X27409228Y-26416000D01*
X22352000Y-31473228D02*
X22001982Y-31123210D01*
X17644790Y-26065982D02*
X17294772Y-26416000D01*
X27409228Y-26416000D02*
X27059210Y-26065982D01*
X22702018Y-31123210D02*
X22352000Y-31473228D01*
D10*
X27228255Y-25503832D02*
G75*
G03*
X27228255Y-25503832I-75000J0D01*
G01*
D11*
%TO.C,C27*%
X25088000Y-33570000D02*
X25088000Y-34370000D01*
X23984000Y-31884000D02*
X24784000Y-31884000D01*
X25094000Y-32994000D02*
X25094000Y-32194000D01*
X23669000Y-33570000D02*
X23669000Y-34370000D01*
X23978000Y-34679000D02*
X24778000Y-34679000D01*
X23674000Y-32994000D02*
X23674000Y-32194000D01*
X24777973Y-34680000D02*
G75*
G03*
X25088000Y-34370000I28J309999D01*
G01*
X23984027Y-31884000D02*
G75*
G03*
X23674000Y-32194000I-27J-310000D01*
G01*
X25094000Y-32194000D02*
G75*
G03*
X24784000Y-31884000I-310000J0D01*
G01*
X23668000Y-34370000D02*
G75*
G03*
X23978000Y-34680000I310000J0D01*
G01*
%TO.C,C14*%
X2178000Y-24758000D02*
X1378000Y-24758000D01*
X2493000Y-23072000D02*
X2493000Y-22272000D01*
X2184000Y-21963000D02*
X1384000Y-21963000D01*
X2488000Y-23648000D02*
X2488000Y-24448000D01*
X1068000Y-23648000D02*
X1068000Y-24448000D01*
X1074000Y-23072000D02*
X1074000Y-22272000D01*
X1384027Y-21962000D02*
G75*
G03*
X1074000Y-22272000I-28J-309999D01*
G01*
X2177973Y-24758000D02*
G75*
G03*
X2488000Y-24448000I27J310000D01*
G01*
X2494000Y-22272000D02*
G75*
G03*
X2184000Y-21962000I-310000J0D01*
G01*
X1068000Y-24448000D02*
G75*
G03*
X1378000Y-24758000I310000J0D01*
G01*
D12*
%TO.C,X3*%
X38274000Y-25054000D02*
X40974000Y-25054000D01*
X41274000Y-24754000D02*
X39874000Y-24754000D01*
X40974000Y-25054000D02*
X40974000Y-27354000D01*
X40974000Y-27354000D02*
X38274000Y-27354000D01*
X41274000Y-26054000D02*
X41274000Y-24754000D01*
X38274000Y-27354000D02*
X38274000Y-25054000D01*
D13*
%TO.C,J3*%
X53848000Y-24892000D02*
X53848000Y-24257000D01*
X53848000Y-24892000D02*
X51308000Y-24892000D01*
X51308000Y-24892000D02*
X51308000Y-22352000D01*
X53848000Y-22352000D02*
X53848000Y-24257000D01*
X51308000Y-22352000D02*
X53848000Y-22352000D01*
%TO.C,J1*%
X63754000Y-32258000D02*
X63754000Y-31623000D01*
X61214000Y-32258000D02*
X61214000Y-29718000D01*
X63754000Y-29718000D02*
X63754000Y-31623000D01*
X63754000Y-32258000D02*
X61214000Y-32258000D01*
X61214000Y-29718000D02*
X63754000Y-29718000D01*
D11*
%TO.C,C35*%
X3676000Y-28302000D02*
X3676000Y-29102000D01*
X2566000Y-29412000D02*
X3366000Y-29412000D01*
X881000Y-28296000D02*
X881000Y-29096000D01*
X2566000Y-27992000D02*
X3366000Y-27992000D01*
X1990000Y-29406000D02*
X1190000Y-29406000D01*
X1990000Y-27987000D02*
X1190000Y-27987000D01*
X1190000Y-27986000D02*
G75*
G03*
X880000Y-28296000I0J-310000D01*
G01*
X3366000Y-29412000D02*
G75*
G03*
X3676000Y-29102000I0J310000D01*
G01*
X3676000Y-28302027D02*
G75*
G03*
X3366000Y-27992000I-310000J27D01*
G01*
X880000Y-29095973D02*
G75*
G03*
X1190000Y-29406000I309999J-28D01*
G01*
D12*
%TO.C,C4*%
X40995000Y-28032000D02*
X40995000Y-27340000D01*
X41148000Y-27187000D02*
X41938000Y-27187000D01*
X41938000Y-28185000D02*
X41148000Y-28185000D01*
X43333000Y-28032000D02*
X43333000Y-27340000D01*
X43180000Y-27187000D02*
X42390000Y-27187000D01*
X42390000Y-28185000D02*
X43180000Y-28185000D01*
X43333000Y-27340000D02*
G75*
G03*
X43180000Y-27187000I-153000J0D01*
G01*
X40995000Y-28032000D02*
G75*
G03*
X41148000Y-28185000I153001J1D01*
G01*
X41148000Y-27187000D02*
G75*
G03*
X40995000Y-27340000I1J-153001D01*
G01*
X43180000Y-28185000D02*
G75*
G03*
X43333000Y-28032000I0J153000D01*
G01*
D11*
%TO.C,C19*%
X30092000Y-26524000D02*
X30092000Y-27324000D01*
X28982000Y-27634000D02*
X29782000Y-27634000D01*
X27297000Y-26518000D02*
X27297000Y-27318000D01*
X28982000Y-26214000D02*
X29782000Y-26214000D01*
X28406000Y-26209000D02*
X27606000Y-26209000D01*
X28406000Y-27628000D02*
X27606000Y-27628000D01*
X27296000Y-27317973D02*
G75*
G03*
X27606000Y-27628000I309999J-28D01*
G01*
X27606000Y-26208000D02*
G75*
G03*
X27296000Y-26518000I0J-310000D01*
G01*
X29782000Y-27634000D02*
G75*
G03*
X30092000Y-27324000I0J310000D01*
G01*
X30092000Y-26524027D02*
G75*
G03*
X29782000Y-26214000I-310000J27D01*
G01*
%TO.C,DC1*%
X-6063000Y-32062000D02*
X188000Y-32062000D01*
X-6063000Y-25762000D02*
X-6063000Y-32062000D01*
X-6063000Y-25762000D02*
X-192000Y-25762000D01*
X2937000Y-30836000D02*
X2937000Y-26186000D01*
X2937000Y-32062000D02*
X2937000Y-31787000D01*
X2688000Y-32062000D02*
X2937000Y-32062000D01*
%TO.C,C39*%
X27463965Y-19929577D02*
X27463965Y-19129577D01*
X26044965Y-19929577D02*
X26044965Y-19129577D01*
X27154965Y-18820577D02*
X26354965Y-18820577D01*
X27458965Y-20505577D02*
X27458965Y-21305577D01*
X27148965Y-21615577D02*
X26348965Y-21615577D01*
X26038965Y-20505577D02*
X26038965Y-21305577D01*
X27148938Y-21615577D02*
G75*
G03*
X27458965Y-21305577I27J310000D01*
G01*
X27464965Y-19129577D02*
G75*
G03*
X27154965Y-18819577I-310000J0D01*
G01*
X26038965Y-21305577D02*
G75*
G03*
X26348965Y-21615577I310000J0D01*
G01*
X26354992Y-18819577D02*
G75*
G03*
X26044965Y-19129577I-28J-309999D01*
G01*
D12*
%TO.C,C12*%
X46339574Y-33472733D02*
X45780960Y-34031348D01*
X44902733Y-34909574D02*
X45461348Y-34350960D01*
X47045267Y-33962051D02*
X46555949Y-33472733D01*
X46167040Y-35056652D02*
X45608426Y-35615267D01*
X46486652Y-34737040D02*
X47045267Y-34178426D01*
X45392051Y-35615267D02*
X44902733Y-35125949D01*
X44902734Y-34909575D02*
G75*
G03*
X44902734Y-35125948I108188J-108187D01*
G01*
X46555949Y-33472733D02*
G75*
G03*
X46339575Y-33472734I-108187J-108188D01*
G01*
X47045266Y-34178425D02*
G75*
G03*
X47045267Y-33962051I-108187J108187D01*
G01*
X45392051Y-35615267D02*
G75*
G03*
X45608426Y-35615267I108187J108189D01*
G01*
D11*
%TO.C,C22*%
X37861374Y-24685280D02*
X37061374Y-24685280D01*
X38170374Y-25794280D02*
X38170374Y-24994280D01*
X36745374Y-26370280D02*
X36745374Y-27170280D01*
X36751374Y-25794280D02*
X36751374Y-24994280D01*
X37855374Y-27480280D02*
X37055374Y-27480280D01*
X38165374Y-26370280D02*
X38165374Y-27170280D01*
X38171374Y-24994280D02*
G75*
G03*
X37861374Y-24684280I-310000J0D01*
G01*
X37855347Y-27480280D02*
G75*
G03*
X38165374Y-27170280I27J310000D01*
G01*
X36745374Y-27170280D02*
G75*
G03*
X37055374Y-27480280I310000J0D01*
G01*
X37061401Y-24684280D02*
G75*
G03*
X36751374Y-24994280I-28J-309999D01*
G01*
%TO.C,U6*%
X27686000Y-19050000D02*
X30226000Y-19050000D01*
X30226000Y-24130000D02*
X27686000Y-24130000D01*
X30226000Y-19050000D02*
X30226000Y-24130000D01*
X27686000Y-24130000D02*
X27686000Y-19050000D01*
D12*
%TO.C,C5*%
X41249000Y-28356000D02*
X41249000Y-29048000D01*
X42644000Y-28203000D02*
X43434000Y-28203000D01*
X43587000Y-28356000D02*
X43587000Y-29048000D01*
X43434000Y-29201000D02*
X42644000Y-29201000D01*
X41402000Y-29201000D02*
X42192000Y-29201000D01*
X42192000Y-28203000D02*
X41402000Y-28203000D01*
X41402000Y-28203000D02*
G75*
G03*
X41249000Y-28356000I0J-153000D01*
G01*
X43434000Y-29201000D02*
G75*
G03*
X43587000Y-29048000I-1J153001D01*
G01*
X43587000Y-28356000D02*
G75*
G03*
X43434000Y-28203000I-153001J-1D01*
G01*
X41249000Y-29048000D02*
G75*
G03*
X41402000Y-29201000I153000J0D01*
G01*
D13*
%TO.C,J5*%
X63754000Y-29464000D02*
X61214000Y-29464000D01*
X61214000Y-26924000D02*
X63754000Y-26924000D01*
X63754000Y-29464000D02*
X63754000Y-28829000D01*
X63754000Y-26924000D02*
X63754000Y-28829000D01*
X61214000Y-29464000D02*
X61214000Y-26924000D01*
D11*
%TO.C,C29*%
X21201000Y-20168000D02*
X21201000Y-20968000D01*
X22310000Y-21278000D02*
X21510000Y-21278000D01*
X23996000Y-20174000D02*
X23996000Y-20974000D01*
X22310000Y-19859000D02*
X21510000Y-19859000D01*
X22886000Y-19864000D02*
X23686000Y-19864000D01*
X22886000Y-21284000D02*
X23686000Y-21284000D01*
X21510000Y-19858000D02*
G75*
G03*
X21200000Y-20168000I0J-310000D01*
G01*
X23996000Y-20174027D02*
G75*
G03*
X23686000Y-19864000I-310000J27D01*
G01*
X23686000Y-21284000D02*
G75*
G03*
X23996000Y-20974000I0J310000D01*
G01*
X21200000Y-20967973D02*
G75*
G03*
X21510000Y-21278000I309999J-28D01*
G01*
%TO.C,C41*%
X24676439Y-20501534D02*
X24676439Y-21301534D01*
X26101439Y-19925534D02*
X26101439Y-19125534D01*
X25792439Y-18816534D02*
X24992439Y-18816534D01*
X25786439Y-21611534D02*
X24986439Y-21611534D01*
X24682439Y-19925534D02*
X24682439Y-19125534D01*
X26096439Y-20501534D02*
X26096439Y-21301534D01*
X26102439Y-19125534D02*
G75*
G03*
X25792439Y-18815534I-310000J0D01*
G01*
X24992466Y-18815534D02*
G75*
G03*
X24682439Y-19125534I-28J-309999D01*
G01*
X25786412Y-21611534D02*
G75*
G03*
X26096439Y-21301534I27J310000D01*
G01*
X24676439Y-21301534D02*
G75*
G03*
X24986439Y-21611534I310000J0D01*
G01*
D12*
%TO.C,R2*%
X38239000Y-30379000D02*
X38239000Y-29057000D01*
X39198000Y-30379000D02*
X38239000Y-30379000D01*
X40050000Y-30379000D02*
X41009000Y-30379000D01*
X41009000Y-29057000D02*
X40050000Y-29057000D01*
X38239000Y-29057000D02*
X39198000Y-29057000D01*
X41009000Y-30379000D02*
X41009000Y-29057000D01*
%TO.C,C13*%
X56033000Y-28356000D02*
X56033000Y-29048000D01*
X55090000Y-28203000D02*
X55880000Y-28203000D01*
X55880000Y-29201000D02*
X55090000Y-29201000D01*
X53848000Y-29201000D02*
X54638000Y-29201000D01*
X54638000Y-28203000D02*
X53848000Y-28203000D01*
X53695000Y-28356000D02*
X53695000Y-29048000D01*
X53848000Y-28203000D02*
G75*
G03*
X53695000Y-28356000I1J-153001D01*
G01*
X53695000Y-29048000D02*
G75*
G03*
X53848000Y-29201000I153001J1D01*
G01*
X56033000Y-28356000D02*
G75*
G03*
X55880000Y-28203000I-153000J0D01*
G01*
X55880000Y-29201000D02*
G75*
G03*
X56033000Y-29048000I0J153000D01*
G01*
D11*
%TO.C,U5*%
X45014000Y-25825000D02*
X45014000Y-25455000D01*
X45014000Y-25455000D02*
X45382000Y-25455000D01*
X45382000Y-32455000D02*
X45014000Y-32455000D01*
X51646000Y-25455000D02*
X52014000Y-25455000D01*
X52014000Y-32087000D02*
X52014000Y-32455000D01*
X45014000Y-32455000D02*
X45014000Y-32087000D01*
X52014000Y-25455000D02*
X52014000Y-25825000D01*
X52014000Y-32455000D02*
X51646000Y-32455000D01*
X52621000Y-32255000D02*
G75*
G03*
X52621000Y-32255000I-127000J0D01*
G01*
D13*
%TO.C,J4*%
X38354000Y-32004000D02*
X40894000Y-32004000D01*
X40894000Y-34544000D02*
X40894000Y-33909000D01*
X40894000Y-34544000D02*
X38354000Y-34544000D01*
X38354000Y-34544000D02*
X38354000Y-32004000D01*
X40894000Y-32004000D02*
X40894000Y-33909000D01*
D12*
%TO.C,C6*%
X44447723Y-24802875D02*
X45237723Y-24802875D01*
X45237723Y-25800875D02*
X44447723Y-25800875D01*
X45390723Y-24955875D02*
X45390723Y-25647875D01*
X43995723Y-24802875D02*
X43205723Y-24802875D01*
X43052723Y-24955875D02*
X43052723Y-25647875D01*
X43205723Y-25800875D02*
X43995723Y-25800875D01*
X45237723Y-25800875D02*
G75*
G03*
X45390723Y-25647875I-1J153001D01*
G01*
X45390723Y-24955875D02*
G75*
G03*
X45237723Y-24802875I-153001J-1D01*
G01*
X43052723Y-25647875D02*
G75*
G03*
X43205723Y-25800875I153000J0D01*
G01*
X43205723Y-24802875D02*
G75*
G03*
X43052723Y-24955875I0J-153000D01*
G01*
%TO.C,C3*%
X43180000Y-27169000D02*
X42390000Y-27169000D01*
X40995000Y-26324000D02*
X40995000Y-27016000D01*
X41938000Y-26171000D02*
X41148000Y-26171000D01*
X42390000Y-26171000D02*
X43180000Y-26171000D01*
X43333000Y-26324000D02*
X43333000Y-27016000D01*
X41148000Y-27169000D02*
X41938000Y-27169000D01*
X41148000Y-26171000D02*
G75*
G03*
X40995000Y-26324000I0J-153000D01*
G01*
X40995000Y-27016000D02*
G75*
G03*
X41148000Y-27169000I153000J0D01*
G01*
X43333000Y-26324000D02*
G75*
G03*
X43180000Y-26171000I-153001J-1D01*
G01*
X43180000Y-27169000D02*
G75*
G03*
X43333000Y-27016000I-1J153001D01*
G01*
%TO.C,C2*%
X42644000Y-32521000D02*
X43434000Y-32521000D01*
X43587000Y-32674000D02*
X43587000Y-33366000D01*
X42192000Y-32521000D02*
X41402000Y-32521000D01*
X41402000Y-33519000D02*
X42192000Y-33519000D01*
X43434000Y-33519000D02*
X42644000Y-33519000D01*
X41249000Y-32674000D02*
X41249000Y-33366000D01*
X43587000Y-32674000D02*
G75*
G03*
X43434000Y-32521000I-153000J0D01*
G01*
X43434000Y-33519000D02*
G75*
G03*
X43587000Y-33366000I0J153000D01*
G01*
X41402000Y-32521000D02*
G75*
G03*
X41249000Y-32674000I1J-153001D01*
G01*
X41249000Y-33366000D02*
G75*
G03*
X41402000Y-33519000I153001J1D01*
G01*
%TO.C,C7*%
X46999000Y-22352000D02*
X46999000Y-23142000D01*
X47997000Y-23142000D02*
X47997000Y-22352000D01*
X47844000Y-24537000D02*
X47152000Y-24537000D01*
X47997000Y-23594000D02*
X47997000Y-24384000D01*
X46999000Y-24384000D02*
X46999000Y-23594000D01*
X47844000Y-22199000D02*
X47152000Y-22199000D01*
X47997000Y-22352000D02*
G75*
G03*
X47844000Y-22199000I-153000J0D01*
G01*
X46999000Y-24384000D02*
G75*
G03*
X47152000Y-24537000I153001J1D01*
G01*
X47844000Y-24537000D02*
G75*
G03*
X47997000Y-24384000I-1J153001D01*
G01*
X47152000Y-22199000D02*
G75*
G03*
X46999000Y-22352000I0J-153000D01*
G01*
%TO.C,C11*%
X36121733Y-22967111D02*
X36611051Y-22477793D01*
X34468517Y-21313895D02*
X34957835Y-20824577D01*
X36611051Y-22261418D02*
X36052436Y-21702804D01*
X35346744Y-22408496D02*
X35905358Y-22967111D01*
X35027132Y-22088884D02*
X34468517Y-21530270D01*
X35174210Y-20824577D02*
X35732824Y-21383192D01*
X35174209Y-20824578D02*
G75*
G03*
X34957836Y-20824578I-108187J-108188D01*
G01*
X35905359Y-22967110D02*
G75*
G03*
X36121733Y-22967111I108187J108187D01*
G01*
X34468517Y-21313895D02*
G75*
G03*
X34468517Y-21530270I108189J-108187D01*
G01*
X36611051Y-22477793D02*
G75*
G03*
X36611050Y-22261419I-108188J108187D01*
G01*
D11*
%TO.C,C37*%
X29935592Y-25773821D02*
X29935592Y-24973821D01*
X28826592Y-26082821D02*
X29626592Y-26082821D01*
X28250592Y-26077821D02*
X27450592Y-26077821D01*
X27140592Y-25767821D02*
X27140592Y-24967821D01*
X28250592Y-24657821D02*
X27450592Y-24657821D01*
X28826592Y-24663821D02*
X29626592Y-24663821D01*
X27140592Y-25767794D02*
G75*
G03*
X27450592Y-26077821I310000J-27D01*
G01*
X27450592Y-24657821D02*
G75*
G03*
X27140592Y-24967821I0J-310000D01*
G01*
X29936592Y-24973848D02*
G75*
G03*
X29626592Y-24663821I-309999J28D01*
G01*
X29626592Y-26083821D02*
G75*
G03*
X29936592Y-25773821I0J310000D01*
G01*
%TD*%
M02*
