M48
; DRILL file {KiCad 7.0.5} date Tue Sep 10 19:27:27 2024
; FORMAT={-:-/ absolute / inch / decimal}
; #@! TF.CreationDate,2024-09-10T19:27:27-04:00
; #@! TF.GenerationSoftware,Kicad,Pcbnew,7.0.5
; #@! TF.FileFunction,Plated,1,2,PTH
FMAT,2
INCH
; #@! TA.AperFunction,Plated,PTH,ViaDrill
T1C0.0118
; #@! TA.AperFunction,Plated,PTH,ComponentDrill
T2C0.0315
; #@! TA.AperFunction,Plated,PTH,ComponentDrill
T3C0.0350
; #@! TA.AperFunction,Plated,PTH,ComponentDrill
T4C0.0354
; #@! TA.AperFunction,Plated,PTH,ComponentDrill
T5C0.0394
%
G90
G05
T1
X0.14Y-1.13
X0.16Y-1.13
X0.24Y-0.84
X0.3Y-0.68
X0.31Y-0.66
X0.33Y-0.65
X0.72Y-0.86
X0.7476Y-0.8924
X0.79Y-1.04
X0.7955Y-1.1955
X0.81Y-1.03
X0.81Y-1.06
X0.83Y-0.78
X0.83Y-1.05
X0.86Y-0.94
X0.88Y-0.93
X0.9Y-0.94
X0.9Y-1.24
X0.9Y-1.26
X0.9Y-1.4
X0.9Y-1.42
X0.92Y-1.4
X0.92Y-1.42
X0.9276Y-0.8444
X0.96Y-1.22
X0.9836Y-0.8804
X1.0094Y-1.1587
X1.02Y-1.19
X1.03Y-0.77
X1.0703Y-0.9964
X1.15Y-1.22
X1.38Y-0.84
X1.5597Y-1.1992
X1.58Y-1.06
X1.59Y-0.91
X1.6356Y-1.1664
X1.66Y-1.0
X1.74Y-1.07
X1.74Y-1.13
X1.7655Y-1.0047
X1.772Y-1.3969
X1.82Y-0.97
X1.82Y-1.05
X1.82Y-1.07
X1.8289Y-1.1987
X1.8294Y-1.2197
X1.8369Y-1.3232
X1.84Y-1.05
X1.84Y-1.07
X1.8488Y-1.1998
X1.8488Y-1.2192
X1.86Y-0.9
X1.88Y-0.97
X1.885Y-1.325
X1.89Y-1.39
X1.94Y-0.88
X1.94Y-0.97
X1.9882Y-1.33
X1.99Y-1.4
X2.0Y-0.74
X2.05Y-1.0
X2.08Y-1.13
X2.08Y-1.27
X2.09Y-1.33
X2.17Y-0.95
X2.17Y-1.06
X2.17Y-1.21
X2.19Y-0.93
X2.19Y-1.04
X2.19Y-1.23
X2.19Y-1.32
X2.19Y-1.35
X2.2Y-1.21
X2.21Y-0.91
X2.21Y-1.02
X2.21Y-1.25
X2.22Y-1.13
X2.23Y-1.0
X2.23Y-1.21
X2.23Y-1.27
X2.24Y-0.97
X2.25Y-1.13
X2.25Y-1.29
X2.26Y-0.95
X2.26Y-1.21
X2.29Y-1.21
X2.32Y-1.21
T2
X0.48Y-0.8513
X0.48Y-0.93
X0.48Y-1.0087
X0.48Y-1.0875
X0.48Y-1.1662
X0.48Y-1.245
X0.48Y-1.3237
X0.48Y-1.4024
X0.48Y-1.4812
X0.48Y-1.5599
X0.5587Y-0.8513
X0.5587Y-0.93
X0.5587Y-1.0087
X0.5587Y-1.0875
X0.5587Y-1.1662
X0.5587Y-1.245
X0.5587Y-1.3237
X0.5587Y-1.4024
X0.5587Y-1.4812
X0.5587Y-1.5599
X1.23Y-0.8788
X1.23Y-0.9576
X1.23Y-1.0363
X1.23Y-1.115
X1.23Y-1.1938
X1.23Y-1.2725
X1.23Y-1.3513
X1.23Y-1.43
X1.23Y-1.5087
X1.23Y-1.5875
X1.3087Y-0.8788
X1.3087Y-0.9576
X1.3087Y-1.0363
X1.3087Y-1.115
X1.3087Y-1.1938
X1.3087Y-1.2725
X1.3087Y-1.3513
X1.3087Y-1.43
X1.3087Y-1.5087
X1.3087Y-1.5875
T3
X1.05Y-0.9
X1.56Y-1.31
X1.74Y-0.91
X2.05Y-1.51
X2.07Y-0.82
X2.07Y-0.93
X2.46Y-1.11
X2.46Y-1.22
T5
X1.14Y-0.8
X1.14Y-0.9
X1.2628Y-0.7397
X1.3628Y-0.7397
X1.4476Y-0.7357
X1.4476Y-0.8145
X1.5263Y-0.7357
X1.5263Y-0.8145
X1.605Y-0.7357
X1.605Y-0.8145
X1.6838Y-0.7357
X1.6838Y-0.8145
X1.7625Y-0.7357
X1.7625Y-0.8145
X1.8413Y-0.7357
X1.8413Y-0.8145
X1.92Y-0.7357
X1.92Y-0.8145
T4
G00X0.0802Y-1.0122
M15
G01X0.033Y-1.0122
M16
G05
G00X0.0802Y-1.2327
M15
G01X0.033Y-1.2327
M16
G05
T0
M30
