%TF.GenerationSoftware,KiCad,Pcbnew,7.0.5*%
%TF.CreationDate,2024-09-10T19:27:24-04:00*%
%TF.ProjectId,PCB_PCB_OpenSuperHetv6PCB,5043425f-5043-4425-9f4f-70656e537570,rev?*%
%TF.SameCoordinates,Original*%
%TF.FileFunction,Paste,Bot*%
%TF.FilePolarity,Positive*%
%FSLAX46Y46*%
G04 Gerber Fmt 4.6, Leading zero omitted, Abs format (unit mm)*
G04 Created by KiCad (PCBNEW 7.0.5) date 2024-09-10 19:27:24*
%MOMM*%
%LPD*%
G01*
G04 APERTURE LIST*
G04 Aperture macros list*
%AMRotRect*
0 Rectangle, with rotation*
0 The origin of the aperture is its center*
0 $1 length*
0 $2 width*
0 $3 Rotation angle, in degrees counterclockwise*
0 Add horizontal line*
21,1,$1,$2,0,0,$3*%
G04 Aperture macros list end*
%ADD10R,1.800000X1.800000*%
%ADD11C,1.800000*%
%ADD12C,1.200000*%
%ADD13RotRect,1.000000X0.900000X135.000000*%
%ADD14R,1.575000X1.575000*%
%ADD15R,0.900000X0.800000*%
%ADD16RotRect,0.806000X0.864000X45.000000*%
%ADD17R,0.532000X1.072000*%
%ADD18RotRect,1.500000X5.000000X135.000000*%
%ADD19C,1.500000*%
%ADD20R,1.500000X1.500000*%
%ADD21RotRect,1.500000X5.000000X45.000000*%
%ADD22O,2.800000X1.400000*%
G04 APERTURE END LIST*
%TO.C,R3*%
G36*
X3957191Y-22008495D02*
G01*
X3957191Y-22079205D01*
X3391505Y-22644891D01*
X3320795Y-22644891D01*
X3159574Y-22483671D01*
X3421204Y-22222041D01*
X3187858Y-21988696D01*
X2926229Y-22250325D01*
X2755109Y-22079205D01*
X2755109Y-22008495D01*
X3320795Y-21442809D01*
X3391505Y-21442809D01*
X3957191Y-22008495D01*
G37*
G36*
X2428426Y-22728329D02*
G01*
X2166796Y-22989959D01*
X2400142Y-23223304D01*
X2661771Y-22961675D01*
X2832891Y-23132795D01*
X2832891Y-23203505D01*
X2267205Y-23769191D01*
X2196495Y-23769191D01*
X1630809Y-23203505D01*
X1630809Y-23132795D01*
X2196495Y-22567109D01*
X2267205Y-22567109D01*
X2428426Y-22728329D01*
G37*
%TD*%
D10*
%TO.C,U7*%
X34616060Y-18787913D03*
D11*
X32076060Y-18787913D03*
%TD*%
D12*
%TO.C,U2*%
X33242000Y-22322000D03*
X31242000Y-22322000D03*
X33242000Y-24322000D03*
X31242000Y-24322000D03*
X33242000Y-26322000D03*
X31242000Y-26322000D03*
X33242000Y-28322000D03*
X31242000Y-28322000D03*
X33242000Y-30322000D03*
X31242000Y-30322000D03*
X33242000Y-32322000D03*
X31242000Y-32322000D03*
X33242000Y-34322000D03*
X31242000Y-34322000D03*
X33242000Y-36322000D03*
X31242000Y-36322000D03*
X33242000Y-38322000D03*
X31242000Y-38322000D03*
X33242000Y-40322000D03*
X31242000Y-40322000D03*
%TD*%
D13*
%TO.C,LED1*%
X5935041Y-19464959D03*
X4732959Y-20667041D03*
%TD*%
D14*
%TO.C,J2*%
X52070000Y-38354000D03*
%TD*%
D15*
%TO.C,C33*%
X6604000Y-34166000D03*
X6604000Y-32766000D03*
%TD*%
D16*
%TO.C,R3*%
X2261549Y-23138451D03*
X3326451Y-22073549D03*
%TD*%
D17*
%TO.C,U4*%
X6538000Y-29597000D03*
X5588000Y-29597000D03*
X4638000Y-29597000D03*
X4638000Y-27299000D03*
X5588000Y-27299000D03*
X6538000Y-27299000D03*
%TD*%
D18*
%TO.C,ANT_SMA2*%
X60745544Y-23280544D03*
X56856456Y-19391456D03*
%TD*%
D14*
%TO.C,J7*%
X44196000Y-23114000D03*
%TD*%
D19*
%TO.C,SYS_CTRL*%
X48768000Y-18688011D03*
X48768000Y-20688011D03*
X46768000Y-18688011D03*
X46768000Y-20688011D03*
X44768000Y-18688011D03*
X44768000Y-20688011D03*
X42768000Y-18688011D03*
X42768000Y-20688011D03*
X40768000Y-18688011D03*
X40768000Y-20688011D03*
X38768000Y-18688011D03*
X38768000Y-20688011D03*
X36768000Y-18688011D03*
D20*
X36768000Y-20688011D03*
%TD*%
D12*
%TO.C,U3*%
X14192000Y-21622000D03*
X12192000Y-21622000D03*
X14192000Y-23622000D03*
X12192000Y-23622000D03*
X14192000Y-25622000D03*
X12192000Y-25622000D03*
X14192000Y-27622000D03*
X12192000Y-27622000D03*
X14192000Y-29622000D03*
X12192000Y-29622000D03*
X14192000Y-31622000D03*
X12192000Y-31622000D03*
X14192000Y-33622000D03*
X12192000Y-33622000D03*
X14192000Y-35622000D03*
X12192000Y-35622000D03*
X14192000Y-37622000D03*
X12192000Y-37622000D03*
X14192000Y-39622000D03*
X12192000Y-39622000D03*
%TD*%
D14*
%TO.C,J6*%
X52578000Y-20828000D03*
%TD*%
D21*
%TO.C,ANT_SMA1*%
X56856456Y-37504544D03*
X60745544Y-33615456D03*
%TD*%
D14*
%TO.C,J3*%
X52578000Y-23622000D03*
%TD*%
%TO.C,J1*%
X62484000Y-30988000D03*
%TD*%
D22*
%TO.C,DC1*%
X1438000Y-25711000D03*
X1438000Y-31311000D03*
%TD*%
D10*
%TO.C,U6*%
X28956000Y-22860000D03*
D11*
X28956000Y-20320000D03*
%TD*%
D14*
%TO.C,J5*%
X62484000Y-28194000D03*
%TD*%
%TO.C,CLK1*%
X26670000Y-22860000D03*
%TD*%
%TO.C,J4*%
X39624000Y-33274000D03*
%TD*%
D15*
%TO.C,C31*%
X6604000Y-22414000D03*
X6604000Y-23814000D03*
%TD*%
M02*
