M48
; DRILL file {KiCad 7.0.5} date Tue Oct  8 16:21:23 2024
; FORMAT={-:-/ absolute / inch / decimal}
; #@! TF.CreationDate,2024-10-08T16:21:23-04:00
; #@! TF.GenerationSoftware,Kicad,Pcbnew,7.0.5
; #@! TF.FileFunction,Plated,1,2,PTH
FMAT,2
INCH
; #@! TA.AperFunction,Plated,PTH,ComponentDrill
T1C0.0315
; #@! TA.AperFunction,Plated,PTH,ComponentDrill
T2C0.0394
%
G90
G05
T1
X0.35Y-0.175
X0.35Y-0.275
X0.35Y-0.375
X0.35Y-0.475
X0.35Y-0.575
X0.35Y-0.675
X0.35Y-0.775
X0.35Y-0.875
X0.35Y-0.975
X0.35Y-1.075
X0.55Y-0.175
X0.55Y-0.275
X0.55Y-0.375
X0.55Y-0.475
X0.55Y-0.575
X0.55Y-0.675
X0.55Y-0.775
X0.55Y-0.875
X0.55Y-0.975
X0.55Y-1.075
X0.65Y-0.175
X0.65Y-0.275
X0.65Y-0.375
X0.65Y-0.475
X0.65Y-0.575
X0.65Y-0.675
X0.65Y-0.775
X0.65Y-0.875
X0.65Y-0.975
X0.65Y-1.075
X0.85Y-0.175
X0.85Y-0.275
X0.85Y-0.375
X0.85Y-0.475
X0.85Y-0.575
X0.85Y-0.675
X0.85Y-0.775
X0.85Y-0.875
X0.85Y-0.975
X0.85Y-1.075
T2
X0.25Y-0.375
X0.25Y-0.475
X0.25Y-0.775
X0.25Y-0.875
X0.95Y-0.375
X0.95Y-0.575
X0.95Y-0.775
X0.95Y-0.975
T0
M30
