%TF.GenerationSoftware,KiCad,Pcbnew,7.0.5*%
%TF.CreationDate,2024-10-08T16:21:25-04:00*%
%TF.ProjectId,74hc574_to_74ls273_converter,37346863-3537-4345-9f74-6f5f37346c73,rev?*%
%TF.SameCoordinates,Original*%
%TF.FileFunction,Copper,L2,Bot*%
%TF.FilePolarity,Positive*%
%FSLAX46Y46*%
G04 Gerber Fmt 4.6, Leading zero omitted, Abs format (unit mm)*
G04 Created by KiCad (PCBNEW 7.0.5) date 2024-10-08 16:21:25*
%MOMM*%
%LPD*%
G01*
G04 APERTURE LIST*
%TA.AperFunction,NonConductor*%
%ADD10C,1.500000*%
%TD*%
%TA.AperFunction,ComponentPad*%
%ADD11R,1.700000X1.700000*%
%TD*%
%TA.AperFunction,ComponentPad*%
%ADD12R,1.600000X1.600000*%
%TD*%
%TA.AperFunction,ComponentPad*%
%ADD13O,1.600000X1.600000*%
%TD*%
%TA.AperFunction,Conductor*%
%ADD14C,1.500000*%
%TD*%
G04 APERTURE END LIST*
D10*
X1665317Y-27309083D02*
G75*
G03*
X3570299Y-29214083I1904983J-17D01*
G01*
X13734470Y-1889470D02*
X13750000Y-1905000D01*
X8670000Y-1905000D02*
G75*
G03*
X6765000Y-3810000I0J-1905000D01*
G01*
X21356771Y-17105947D02*
G75*
G03*
X18860847Y-19601886I29J-2495953D01*
G01*
X13750000Y-19685000D02*
X11210000Y-19685000D01*
X18830000Y-9525000D02*
X16290000Y-9525000D01*
X13750000Y-9525000D02*
X11210000Y-9525000D01*
X11210024Y-19685000D02*
G75*
G03*
X8714076Y-17189076I-2495924J0D01*
G01*
X18830000Y-19685000D02*
X16290000Y-19685000D01*
X21229885Y-6888961D02*
G75*
G03*
X18733961Y-9384884I15J-2495939D01*
G01*
X23898082Y-6364418D02*
G75*
G03*
X21993053Y-4459418I-1904982J18D01*
G01*
X11202510Y-9502214D02*
G75*
G03*
X8706551Y-7006290I-2495910J14D01*
G01*
X22005000Y-27306200D02*
G75*
G03*
X23910000Y-25401235I0J1905000D01*
G01*
X3579596Y-25376704D02*
G75*
G03*
X5484588Y-27281704I1905004J4D01*
G01*
X23907641Y-29192041D02*
G75*
G03*
X25812641Y-27287023I-41J1905041D01*
G01*
D11*
%TO.P,J1,1,Pin_1*%
%TO.N,/d1*%
X6350000Y-9525000D03*
%TD*%
%TO.P,J8,1,Pin_1*%
%TO.N,/d7*%
X24130000Y-24765000D03*
%TD*%
D12*
%TO.P,U1,1,OE*%
%TO.N,/MR*%
X21590000Y-4445000D03*
D13*
%TO.P,U1,2,D0*%
%TO.N,/d0*%
X21590000Y-6985000D03*
%TO.P,U1,3,D1*%
%TO.N,/d1*%
X21590000Y-9525000D03*
%TO.P,U1,4,D2*%
%TO.N,/d2*%
X21590000Y-12065000D03*
%TO.P,U1,5,D3*%
%TO.N,/d3*%
X21590000Y-14605000D03*
%TO.P,U1,6,D4*%
%TO.N,/d4*%
X21590000Y-17145000D03*
%TO.P,U1,7,D5*%
%TO.N,/d5*%
X21590000Y-19685000D03*
%TO.P,U1,8,D6*%
%TO.N,/d6*%
X21590000Y-22225000D03*
%TO.P,U1,9,D7*%
%TO.N,/d7*%
X21590000Y-24765000D03*
%TO.P,U1,10,GND*%
%TO.N,GND*%
X21590000Y-27305000D03*
%TO.P,U1,11,Cp*%
%TO.N,/CLK*%
X13970000Y-27305000D03*
%TO.P,U1,12,Q7*%
%TO.N,/q7*%
X13970000Y-24765000D03*
%TO.P,U1,13,Q6*%
%TO.N,/q6*%
X13970000Y-22225000D03*
%TO.P,U1,14,Q5*%
%TO.N,/q5*%
X13970000Y-19685000D03*
%TO.P,U1,15,Q4*%
%TO.N,/q4*%
X13970000Y-17145000D03*
%TO.P,U1,16,Q3*%
%TO.N,/q3*%
X13970000Y-14605000D03*
%TO.P,U1,17,Q2*%
%TO.N,/q2*%
X13970000Y-12065000D03*
%TO.P,U1,18,Q1*%
%TO.N,/q1*%
X13970000Y-9525000D03*
%TO.P,U1,19,Q0*%
%TO.N,/q0*%
X13970000Y-6985000D03*
%TO.P,U1,20,VCC*%
%TO.N,+5V*%
X13970000Y-4445000D03*
%TD*%
D11*
%TO.P,J4,1,Pin_1*%
%TO.N,/d7*%
X6350000Y-22225000D03*
%TD*%
%TO.P,J3,1,Pin_1*%
%TO.N,/d5*%
X6350000Y-19685000D03*
%TD*%
%TO.P,J5,1,Pin_1*%
%TO.N,/d1*%
X24130000Y-9525000D03*
%TD*%
%TO.P,J6,1,Pin_1*%
%TO.N,/d3*%
X24130000Y-14605000D03*
%TD*%
%TO.P,J2,1,Pin_1*%
%TO.N,/d3*%
X6350000Y-12065000D03*
%TD*%
D12*
%TO.P,U2,1,~{Mr}*%
%TO.N,+5V*%
X16510000Y-4445000D03*
D13*
%TO.P,U2,2,Q0*%
%TO.N,/q0*%
X16510000Y-6985000D03*
%TO.P,U2,3,D0*%
%TO.N,/d0*%
X16510000Y-9525000D03*
%TO.P,U2,4,D1*%
%TO.N,/d2*%
X16510000Y-12065000D03*
%TO.P,U2,5,Q1*%
%TO.N,/q2*%
X16510000Y-14605000D03*
%TO.P,U2,6,Q2*%
%TO.N,/q4*%
X16510000Y-17145000D03*
%TO.P,U2,7,D2*%
%TO.N,/d4*%
X16510000Y-19685000D03*
%TO.P,U2,8,D3*%
%TO.N,/d6*%
X16510000Y-22225000D03*
%TO.P,U2,9,Q3*%
%TO.N,/q6*%
X16510000Y-24765000D03*
%TO.P,U2,10,GND*%
%TO.N,GND*%
X16510000Y-27305000D03*
%TO.P,U2,11,Cp*%
%TO.N,/CLK*%
X8890000Y-27305000D03*
%TO.P,U2,12,Q4*%
%TO.N,/q7*%
X8890000Y-24765000D03*
%TO.P,U2,13,D4*%
%TO.N,/d7*%
X8890000Y-22225000D03*
%TO.P,U2,14,D5*%
%TO.N,/d5*%
X8890000Y-19685000D03*
%TO.P,U2,15,Q5*%
%TO.N,/q5*%
X8890000Y-17145000D03*
%TO.P,U2,16,Q6*%
%TO.N,/q3*%
X8890000Y-14605000D03*
%TO.P,U2,17,D6*%
%TO.N,/d3*%
X8890000Y-12065000D03*
%TO.P,U2,18,D7*%
%TO.N,/d1*%
X8890000Y-9525000D03*
%TO.P,U2,19,Q7*%
%TO.N,/q1*%
X8890000Y-6985000D03*
%TO.P,U2,20,VCC*%
%TO.N,+5V*%
X8890000Y-4445000D03*
%TD*%
D11*
%TO.P,J7,1,Pin_1*%
%TO.N,/d5*%
X24130000Y-19685000D03*
%TD*%
D14*
%TO.N,/CLK*%
X7455073Y-28519927D02*
X3534927Y-28519927D01*
X11210000Y-27305000D02*
X12480000Y-27305000D01*
X2955000Y-21590000D02*
X3590000Y-22225000D01*
X6765000Y-1905000D02*
X11210000Y-1905000D01*
X3590000Y-3175000D02*
X3590000Y-1905000D01*
X11210000Y-28575000D02*
X10575000Y-29210000D01*
X2955000Y-1905000D02*
X3590000Y-1905000D01*
X6765000Y-1905000D02*
X6765000Y-6985000D01*
X3590000Y-3175000D02*
X6765000Y-3175000D01*
X3590000Y-6985000D02*
X6765000Y-6985000D01*
X2320000Y-27305000D02*
X1685000Y-27305000D01*
X8670000Y-27305000D02*
X7455073Y-28519927D01*
X3590000Y-6985000D02*
X3590000Y-5715000D01*
X3590000Y-4445000D02*
X3590000Y-3175000D01*
X3590000Y-4445000D02*
X6765000Y-4445000D01*
X8670000Y-27305000D02*
X3590000Y-27305000D01*
X3590000Y-1905000D02*
X6765000Y-1905000D01*
X3590000Y-22225000D02*
X3590000Y-6985000D01*
X3590000Y-5715000D02*
X6765000Y-5715000D01*
X10575000Y-29210000D02*
X12480000Y-29210000D01*
X8670000Y-29210000D02*
X9940000Y-29210000D01*
X12480000Y-27305000D02*
X12480000Y-29210000D01*
X4860000Y-29210000D02*
X3590000Y-29210000D01*
X3590000Y-5715000D02*
X3590000Y-4445000D01*
X2955000Y-26670000D02*
X3590000Y-27305000D01*
X8670000Y-27305000D02*
X8670000Y-29210000D01*
X12480000Y-27305000D02*
X13750000Y-27305000D01*
X2955000Y-1905000D02*
X2955000Y-21590000D01*
X9940000Y-27305000D02*
X9940000Y-29210000D01*
X1685000Y-22225000D02*
X1685000Y-27305000D01*
X11210000Y-27305000D02*
X11210000Y-28575000D01*
X1685000Y-1905000D02*
X2955000Y-1905000D01*
X13750000Y-27305000D02*
X13750000Y-29210000D01*
X3534927Y-28519927D02*
X2320000Y-27305000D01*
X3590000Y-22225000D02*
X1685000Y-22225000D01*
X3590000Y-27305000D02*
X3590000Y-22225000D01*
X8670000Y-29210000D02*
X4860000Y-29210000D01*
X9940000Y-27305000D02*
X11210000Y-27305000D01*
X9940000Y-29210000D02*
X10575000Y-29210000D01*
X1685000Y-22225000D02*
X1685000Y-1905000D01*
X8670000Y-27305000D02*
X9940000Y-27305000D01*
X12480000Y-29210000D02*
X13750000Y-29210000D01*
X2955000Y-21590000D02*
X2955000Y-26670000D01*
X3590000Y-27305000D02*
X2320000Y-27305000D01*
X25180000Y-24765000D02*
X25815000Y-24765000D01*
X18830000Y-29210000D02*
X20100000Y-29210000D01*
X24525114Y-27932167D02*
X24565931Y-27886093D01*
X21370000Y-27305000D02*
X23910000Y-27305000D01*
X25815000Y-27305000D02*
X25815000Y-24765000D01*
X23910000Y-27305000D02*
X23910000Y-24765000D01*
X20263757Y-28103757D02*
X22529380Y-28103757D01*
X23910000Y-24765000D02*
X25180000Y-24765000D01*
X23044181Y-28827444D02*
X23195628Y-28770005D01*
X23910000Y-29210000D02*
X23910000Y-28542024D01*
X20100000Y-27305000D02*
X21370000Y-27305000D01*
X20100000Y-29210000D02*
X21370000Y-29210000D01*
X20100000Y-27305000D02*
X20100000Y-29210000D01*
X18830000Y-27305000D02*
X20100000Y-27305000D01*
X16290000Y-27305000D02*
X16290000Y-29210000D01*
X16290000Y-27305000D02*
X17560000Y-27305000D01*
X25180000Y-27272024D02*
X24479025Y-27972999D01*
X22529380Y-28103757D02*
X23195628Y-28770005D01*
X22620262Y-28931934D02*
X23044181Y-28827444D01*
X21370000Y-29210000D02*
X23910000Y-29210000D01*
X20263757Y-28103757D02*
X20263757Y-27314750D01*
X17560000Y-27305000D02*
X17560000Y-29210000D01*
X23910000Y-28542024D02*
X24479025Y-27972999D01*
X21648066Y-28931934D02*
X22620262Y-28931934D01*
X25180000Y-24765000D02*
X25180000Y-27272024D01*
X16290000Y-29210000D02*
X17560000Y-29210000D01*
X21370000Y-29210000D02*
X21648066Y-28931934D01*
X17560000Y-29210000D02*
X18830000Y-29210000D01*
X24479025Y-27972999D02*
X24525114Y-27932167D01*
X18830000Y-27305000D02*
X18830000Y-29210000D01*
X17560000Y-27305000D02*
X18830000Y-27305000D01*
%TO.N,+5V*%
X23910000Y-4445000D02*
X21370000Y-4445000D01*
X25815000Y-3175000D02*
X25815000Y-6985000D01*
X23910000Y-3175000D02*
X23910000Y-1905000D01*
X23910000Y-6985000D02*
X23910000Y-4445000D01*
X23910000Y-4445000D02*
X23910000Y-3175000D01*
X25815000Y-6985000D02*
X24545000Y-6985000D01*
X16290000Y-4445000D02*
X21370000Y-4445000D01*
X25815000Y-1905000D02*
X25815000Y-3175000D01*
X16290000Y-1905000D02*
X16290000Y-4445000D01*
X23910000Y-3175000D02*
X17560000Y-3175000D01*
X24545000Y-6985000D02*
X23910000Y-6985000D01*
X23910000Y-1905000D02*
X16290000Y-1905000D01*
X16290000Y-4445000D02*
X13750000Y-4445000D01*
X24545000Y-3810000D02*
X23910000Y-3175000D01*
X25815000Y-3175000D02*
X23910000Y-3175000D01*
X24545000Y-6985000D02*
X24545000Y-3810000D01*
X23910000Y-1905000D02*
X25815000Y-1905000D01*
%TO.N,/d1*%
X6130000Y-9525000D02*
X8670000Y-9525000D01*
X23910000Y-9525000D02*
X21370000Y-9525000D01*
%TO.N,/d2*%
X8670000Y-12065000D02*
X13750000Y-12065000D01*
X21370000Y-12065000D02*
X23910000Y-12065000D01*
%TO.N,/q3*%
X6130000Y-14605000D02*
X8670000Y-14605000D01*
%TO.N,/d5*%
X23910000Y-19685000D02*
X21370000Y-19685000D01*
X6130000Y-19685000D02*
X8670000Y-19685000D01*
%TO.N,/d6*%
X8670000Y-22225000D02*
X13750000Y-22225000D01*
%TO.N,/q7*%
X6130000Y-24765000D02*
X8670000Y-24765000D01*
%TO.N,/d6*%
X21370000Y-22225000D02*
X23910000Y-22225000D01*
%TO.N,/q7*%
X16290000Y-24765000D02*
X21370000Y-24765000D01*
%TO.N,/q6*%
X16290000Y-22225000D02*
X13750000Y-24765000D01*
%TO.N,/q4*%
X13750000Y-17145000D02*
X16290000Y-17145000D01*
%TO.N,/q3*%
X16290000Y-14605000D02*
X21370000Y-14605000D01*
%TO.N,/q2*%
X13750000Y-14605000D02*
X16290000Y-12065000D01*
%TO.N,/q0*%
X13750000Y-6985000D02*
X16290000Y-6985000D01*
%TD*%
M02*
