%TF.GenerationSoftware,KiCad,Pcbnew,7.0.5*%
%TF.CreationDate,2024-10-08T16:21:25-04:00*%
%TF.ProjectId,74hc574_to_74ls273_converter,37346863-3537-4345-9f74-6f5f37346c73,rev?*%
%TF.SameCoordinates,Original*%
%TF.FileFunction,Soldermask,Bot*%
%TF.FilePolarity,Negative*%
%FSLAX46Y46*%
G04 Gerber Fmt 4.6, Leading zero omitted, Abs format (unit mm)*
G04 Created by KiCad (PCBNEW 7.0.5) date 2024-10-08 16:21:25*
%MOMM*%
%LPD*%
G01*
G04 APERTURE LIST*
%ADD10R,1.700000X1.700000*%
%ADD11R,1.600000X1.600000*%
%ADD12O,1.600000X1.600000*%
G04 APERTURE END LIST*
D10*
%TO.C,J1*%
X6350000Y-9525000D03*
%TD*%
%TO.C,J8*%
X24130000Y-24765000D03*
%TD*%
D11*
%TO.C,U1*%
X21590000Y-4445000D03*
D12*
X21590000Y-6985000D03*
X21590000Y-9525000D03*
X21590000Y-12065000D03*
X21590000Y-14605000D03*
X21590000Y-17145000D03*
X21590000Y-19685000D03*
X21590000Y-22225000D03*
X21590000Y-24765000D03*
X21590000Y-27305000D03*
X13970000Y-27305000D03*
X13970000Y-24765000D03*
X13970000Y-22225000D03*
X13970000Y-19685000D03*
X13970000Y-17145000D03*
X13970000Y-14605000D03*
X13970000Y-12065000D03*
X13970000Y-9525000D03*
X13970000Y-6985000D03*
X13970000Y-4445000D03*
%TD*%
D10*
%TO.C,J4*%
X6350000Y-22225000D03*
%TD*%
%TO.C,J3*%
X6350000Y-19685000D03*
%TD*%
%TO.C,J5*%
X24130000Y-9525000D03*
%TD*%
%TO.C,J6*%
X24130000Y-14605000D03*
%TD*%
%TO.C,J2*%
X6350000Y-12065000D03*
%TD*%
D11*
%TO.C,U2*%
X16510000Y-4445000D03*
D12*
X16510000Y-6985000D03*
X16510000Y-9525000D03*
X16510000Y-12065000D03*
X16510000Y-14605000D03*
X16510000Y-17145000D03*
X16510000Y-19685000D03*
X16510000Y-22225000D03*
X16510000Y-24765000D03*
X16510000Y-27305000D03*
X8890000Y-27305000D03*
X8890000Y-24765000D03*
X8890000Y-22225000D03*
X8890000Y-19685000D03*
X8890000Y-17145000D03*
X8890000Y-14605000D03*
X8890000Y-12065000D03*
X8890000Y-9525000D03*
X8890000Y-6985000D03*
X8890000Y-4445000D03*
%TD*%
D10*
%TO.C,J7*%
X24130000Y-19685000D03*
%TD*%
M02*
