%TF.GenerationSoftware,KiCad,Pcbnew,7.0.5*%
%TF.CreationDate,2024-10-08T16:21:25-04:00*%
%TF.ProjectId,74hc574_to_74ls273_converter,37346863-3537-4345-9f74-6f5f37346c73,rev?*%
%TF.SameCoordinates,Original*%
%TF.FileFunction,Legend,Bot*%
%TF.FilePolarity,Positive*%
%FSLAX46Y46*%
G04 Gerber Fmt 4.6, Leading zero omitted, Abs format (unit mm)*
G04 Created by KiCad (PCBNEW 7.0.5) date 2024-10-08 16:21:25*
%MOMM*%
%LPD*%
G01*
G04 APERTURE LIST*
%ADD10C,0.150000*%
%ADD11C,0.120000*%
G04 APERTURE END LIST*
D10*
%TO.C,J1*%
X6683333Y-6649819D02*
X6683333Y-7364104D01*
X6683333Y-7364104D02*
X6730952Y-7506961D01*
X6730952Y-7506961D02*
X6826190Y-7602200D01*
X6826190Y-7602200D02*
X6969047Y-7649819D01*
X6969047Y-7649819D02*
X7064285Y-7649819D01*
X5683333Y-7649819D02*
X6254761Y-7649819D01*
X5969047Y-7649819D02*
X5969047Y-6649819D01*
X5969047Y-6649819D02*
X6064285Y-6792676D01*
X6064285Y-6792676D02*
X6159523Y-6887914D01*
X6159523Y-6887914D02*
X6254761Y-6935533D01*
%TO.C,J8*%
X24463333Y-21889819D02*
X24463333Y-22604104D01*
X24463333Y-22604104D02*
X24510952Y-22746961D01*
X24510952Y-22746961D02*
X24606190Y-22842200D01*
X24606190Y-22842200D02*
X24749047Y-22889819D01*
X24749047Y-22889819D02*
X24844285Y-22889819D01*
X23844285Y-22318390D02*
X23939523Y-22270771D01*
X23939523Y-22270771D02*
X23987142Y-22223152D01*
X23987142Y-22223152D02*
X24034761Y-22127914D01*
X24034761Y-22127914D02*
X24034761Y-22080295D01*
X24034761Y-22080295D02*
X23987142Y-21985057D01*
X23987142Y-21985057D02*
X23939523Y-21937438D01*
X23939523Y-21937438D02*
X23844285Y-21889819D01*
X23844285Y-21889819D02*
X23653809Y-21889819D01*
X23653809Y-21889819D02*
X23558571Y-21937438D01*
X23558571Y-21937438D02*
X23510952Y-21985057D01*
X23510952Y-21985057D02*
X23463333Y-22080295D01*
X23463333Y-22080295D02*
X23463333Y-22127914D01*
X23463333Y-22127914D02*
X23510952Y-22223152D01*
X23510952Y-22223152D02*
X23558571Y-22270771D01*
X23558571Y-22270771D02*
X23653809Y-22318390D01*
X23653809Y-22318390D02*
X23844285Y-22318390D01*
X23844285Y-22318390D02*
X23939523Y-22366009D01*
X23939523Y-22366009D02*
X23987142Y-22413628D01*
X23987142Y-22413628D02*
X24034761Y-22508866D01*
X24034761Y-22508866D02*
X24034761Y-22699342D01*
X24034761Y-22699342D02*
X23987142Y-22794580D01*
X23987142Y-22794580D02*
X23939523Y-22842200D01*
X23939523Y-22842200D02*
X23844285Y-22889819D01*
X23844285Y-22889819D02*
X23653809Y-22889819D01*
X23653809Y-22889819D02*
X23558571Y-22842200D01*
X23558571Y-22842200D02*
X23510952Y-22794580D01*
X23510952Y-22794580D02*
X23463333Y-22699342D01*
X23463333Y-22699342D02*
X23463333Y-22508866D01*
X23463333Y-22508866D02*
X23510952Y-22413628D01*
X23510952Y-22413628D02*
X23558571Y-22366009D01*
X23558571Y-22366009D02*
X23653809Y-22318390D01*
%TO.C,U1*%
X18541904Y-1569819D02*
X18541904Y-2379342D01*
X18541904Y-2379342D02*
X18494285Y-2474580D01*
X18494285Y-2474580D02*
X18446666Y-2522200D01*
X18446666Y-2522200D02*
X18351428Y-2569819D01*
X18351428Y-2569819D02*
X18160952Y-2569819D01*
X18160952Y-2569819D02*
X18065714Y-2522200D01*
X18065714Y-2522200D02*
X18018095Y-2474580D01*
X18018095Y-2474580D02*
X17970476Y-2379342D01*
X17970476Y-2379342D02*
X17970476Y-1569819D01*
X16970476Y-2569819D02*
X17541904Y-2569819D01*
X17256190Y-2569819D02*
X17256190Y-1569819D01*
X17256190Y-1569819D02*
X17351428Y-1712676D01*
X17351428Y-1712676D02*
X17446666Y-1807914D01*
X17446666Y-1807914D02*
X17541904Y-1855533D01*
%TO.C,J4*%
X6683333Y-19349819D02*
X6683333Y-20064104D01*
X6683333Y-20064104D02*
X6730952Y-20206961D01*
X6730952Y-20206961D02*
X6826190Y-20302200D01*
X6826190Y-20302200D02*
X6969047Y-20349819D01*
X6969047Y-20349819D02*
X7064285Y-20349819D01*
X5778571Y-19683152D02*
X5778571Y-20349819D01*
X6016666Y-19302200D02*
X6254761Y-20016485D01*
X6254761Y-20016485D02*
X5635714Y-20016485D01*
%TO.C,J3*%
X6683333Y-16809819D02*
X6683333Y-17524104D01*
X6683333Y-17524104D02*
X6730952Y-17666961D01*
X6730952Y-17666961D02*
X6826190Y-17762200D01*
X6826190Y-17762200D02*
X6969047Y-17809819D01*
X6969047Y-17809819D02*
X7064285Y-17809819D01*
X6302380Y-16809819D02*
X5683333Y-16809819D01*
X5683333Y-16809819D02*
X6016666Y-17190771D01*
X6016666Y-17190771D02*
X5873809Y-17190771D01*
X5873809Y-17190771D02*
X5778571Y-17238390D01*
X5778571Y-17238390D02*
X5730952Y-17286009D01*
X5730952Y-17286009D02*
X5683333Y-17381247D01*
X5683333Y-17381247D02*
X5683333Y-17619342D01*
X5683333Y-17619342D02*
X5730952Y-17714580D01*
X5730952Y-17714580D02*
X5778571Y-17762200D01*
X5778571Y-17762200D02*
X5873809Y-17809819D01*
X5873809Y-17809819D02*
X6159523Y-17809819D01*
X6159523Y-17809819D02*
X6254761Y-17762200D01*
X6254761Y-17762200D02*
X6302380Y-17714580D01*
%TO.C,J5*%
X24463333Y-6649819D02*
X24463333Y-7364104D01*
X24463333Y-7364104D02*
X24510952Y-7506961D01*
X24510952Y-7506961D02*
X24606190Y-7602200D01*
X24606190Y-7602200D02*
X24749047Y-7649819D01*
X24749047Y-7649819D02*
X24844285Y-7649819D01*
X23510952Y-6649819D02*
X23987142Y-6649819D01*
X23987142Y-6649819D02*
X24034761Y-7126009D01*
X24034761Y-7126009D02*
X23987142Y-7078390D01*
X23987142Y-7078390D02*
X23891904Y-7030771D01*
X23891904Y-7030771D02*
X23653809Y-7030771D01*
X23653809Y-7030771D02*
X23558571Y-7078390D01*
X23558571Y-7078390D02*
X23510952Y-7126009D01*
X23510952Y-7126009D02*
X23463333Y-7221247D01*
X23463333Y-7221247D02*
X23463333Y-7459342D01*
X23463333Y-7459342D02*
X23510952Y-7554580D01*
X23510952Y-7554580D02*
X23558571Y-7602200D01*
X23558571Y-7602200D02*
X23653809Y-7649819D01*
X23653809Y-7649819D02*
X23891904Y-7649819D01*
X23891904Y-7649819D02*
X23987142Y-7602200D01*
X23987142Y-7602200D02*
X24034761Y-7554580D01*
%TO.C,J6*%
X24463333Y-11729819D02*
X24463333Y-12444104D01*
X24463333Y-12444104D02*
X24510952Y-12586961D01*
X24510952Y-12586961D02*
X24606190Y-12682200D01*
X24606190Y-12682200D02*
X24749047Y-12729819D01*
X24749047Y-12729819D02*
X24844285Y-12729819D01*
X23558571Y-11729819D02*
X23749047Y-11729819D01*
X23749047Y-11729819D02*
X23844285Y-11777438D01*
X23844285Y-11777438D02*
X23891904Y-11825057D01*
X23891904Y-11825057D02*
X23987142Y-11967914D01*
X23987142Y-11967914D02*
X24034761Y-12158390D01*
X24034761Y-12158390D02*
X24034761Y-12539342D01*
X24034761Y-12539342D02*
X23987142Y-12634580D01*
X23987142Y-12634580D02*
X23939523Y-12682200D01*
X23939523Y-12682200D02*
X23844285Y-12729819D01*
X23844285Y-12729819D02*
X23653809Y-12729819D01*
X23653809Y-12729819D02*
X23558571Y-12682200D01*
X23558571Y-12682200D02*
X23510952Y-12634580D01*
X23510952Y-12634580D02*
X23463333Y-12539342D01*
X23463333Y-12539342D02*
X23463333Y-12301247D01*
X23463333Y-12301247D02*
X23510952Y-12206009D01*
X23510952Y-12206009D02*
X23558571Y-12158390D01*
X23558571Y-12158390D02*
X23653809Y-12110771D01*
X23653809Y-12110771D02*
X23844285Y-12110771D01*
X23844285Y-12110771D02*
X23939523Y-12158390D01*
X23939523Y-12158390D02*
X23987142Y-12206009D01*
X23987142Y-12206009D02*
X24034761Y-12301247D01*
%TO.C,J2*%
X6683333Y-9189819D02*
X6683333Y-9904104D01*
X6683333Y-9904104D02*
X6730952Y-10046961D01*
X6730952Y-10046961D02*
X6826190Y-10142200D01*
X6826190Y-10142200D02*
X6969047Y-10189819D01*
X6969047Y-10189819D02*
X7064285Y-10189819D01*
X6254761Y-9285057D02*
X6207142Y-9237438D01*
X6207142Y-9237438D02*
X6111904Y-9189819D01*
X6111904Y-9189819D02*
X5873809Y-9189819D01*
X5873809Y-9189819D02*
X5778571Y-9237438D01*
X5778571Y-9237438D02*
X5730952Y-9285057D01*
X5730952Y-9285057D02*
X5683333Y-9380295D01*
X5683333Y-9380295D02*
X5683333Y-9475533D01*
X5683333Y-9475533D02*
X5730952Y-9618390D01*
X5730952Y-9618390D02*
X6302380Y-10189819D01*
X6302380Y-10189819D02*
X5683333Y-10189819D01*
%TO.C,U2*%
X13461904Y-1569819D02*
X13461904Y-2379342D01*
X13461904Y-2379342D02*
X13414285Y-2474580D01*
X13414285Y-2474580D02*
X13366666Y-2522200D01*
X13366666Y-2522200D02*
X13271428Y-2569819D01*
X13271428Y-2569819D02*
X13080952Y-2569819D01*
X13080952Y-2569819D02*
X12985714Y-2522200D01*
X12985714Y-2522200D02*
X12938095Y-2474580D01*
X12938095Y-2474580D02*
X12890476Y-2379342D01*
X12890476Y-2379342D02*
X12890476Y-1569819D01*
X12461904Y-1665057D02*
X12414285Y-1617438D01*
X12414285Y-1617438D02*
X12319047Y-1569819D01*
X12319047Y-1569819D02*
X12080952Y-1569819D01*
X12080952Y-1569819D02*
X11985714Y-1617438D01*
X11985714Y-1617438D02*
X11938095Y-1665057D01*
X11938095Y-1665057D02*
X11890476Y-1760295D01*
X11890476Y-1760295D02*
X11890476Y-1855533D01*
X11890476Y-1855533D02*
X11938095Y-1998390D01*
X11938095Y-1998390D02*
X12509523Y-2569819D01*
X12509523Y-2569819D02*
X11890476Y-2569819D01*
%TO.C,J7*%
X24463333Y-16809819D02*
X24463333Y-17524104D01*
X24463333Y-17524104D02*
X24510952Y-17666961D01*
X24510952Y-17666961D02*
X24606190Y-17762200D01*
X24606190Y-17762200D02*
X24749047Y-17809819D01*
X24749047Y-17809819D02*
X24844285Y-17809819D01*
X24082380Y-16809819D02*
X23415714Y-16809819D01*
X23415714Y-16809819D02*
X23844285Y-17809819D01*
D11*
%TO.C,J1*%
X7680000Y-8195000D02*
X6350000Y-8195000D01*
X7680000Y-9525000D02*
X7680000Y-8195000D01*
X7680000Y-10795000D02*
X7680000Y-10855000D01*
X7680000Y-10795000D02*
X5020000Y-10795000D01*
X7680000Y-10855000D02*
X5020000Y-10855000D01*
X5020000Y-10795000D02*
X5020000Y-10855000D01*
%TO.C,J8*%
X25460000Y-23435000D02*
X24130000Y-23435000D01*
X25460000Y-24765000D02*
X25460000Y-23435000D01*
X25460000Y-26035000D02*
X25460000Y-26095000D01*
X25460000Y-26035000D02*
X22800000Y-26035000D01*
X25460000Y-26095000D02*
X22800000Y-26095000D01*
X22800000Y-26035000D02*
X22800000Y-26095000D01*
%TO.C,U1*%
X20430000Y-3115000D02*
X20430000Y-28635000D01*
X20430000Y-28635000D02*
X15130000Y-28635000D01*
X18780000Y-3115000D02*
X20430000Y-3115000D01*
X15130000Y-3115000D02*
X16780000Y-3115000D01*
X15130000Y-28635000D02*
X15130000Y-3115000D01*
X16780000Y-3115000D02*
G75*
G03*
X18780000Y-3115000I1000000J0D01*
G01*
%TO.C,J4*%
X7680000Y-20895000D02*
X6350000Y-20895000D01*
X7680000Y-22225000D02*
X7680000Y-20895000D01*
X7680000Y-23495000D02*
X7680000Y-23555000D01*
X7680000Y-23495000D02*
X5020000Y-23495000D01*
X7680000Y-23555000D02*
X5020000Y-23555000D01*
X5020000Y-23495000D02*
X5020000Y-23555000D01*
%TO.C,J3*%
X7680000Y-18355000D02*
X6350000Y-18355000D01*
X7680000Y-19685000D02*
X7680000Y-18355000D01*
X7680000Y-20955000D02*
X7680000Y-21015000D01*
X7680000Y-20955000D02*
X5020000Y-20955000D01*
X7680000Y-21015000D02*
X5020000Y-21015000D01*
X5020000Y-20955000D02*
X5020000Y-21015000D01*
%TO.C,J5*%
X25460000Y-8195000D02*
X24130000Y-8195000D01*
X25460000Y-9525000D02*
X25460000Y-8195000D01*
X25460000Y-10795000D02*
X25460000Y-10855000D01*
X25460000Y-10795000D02*
X22800000Y-10795000D01*
X25460000Y-10855000D02*
X22800000Y-10855000D01*
X22800000Y-10795000D02*
X22800000Y-10855000D01*
%TO.C,J6*%
X25460000Y-13275000D02*
X24130000Y-13275000D01*
X25460000Y-14605000D02*
X25460000Y-13275000D01*
X25460000Y-15875000D02*
X25460000Y-15935000D01*
X25460000Y-15875000D02*
X22800000Y-15875000D01*
X25460000Y-15935000D02*
X22800000Y-15935000D01*
X22800000Y-15875000D02*
X22800000Y-15935000D01*
%TO.C,J2*%
X7680000Y-10735000D02*
X6350000Y-10735000D01*
X7680000Y-12065000D02*
X7680000Y-10735000D01*
X7680000Y-13335000D02*
X7680000Y-13395000D01*
X7680000Y-13335000D02*
X5020000Y-13335000D01*
X7680000Y-13395000D02*
X5020000Y-13395000D01*
X5020000Y-13335000D02*
X5020000Y-13395000D01*
%TO.C,U2*%
X15350000Y-3115000D02*
X15350000Y-28635000D01*
X15350000Y-28635000D02*
X10050000Y-28635000D01*
X13700000Y-3115000D02*
X15350000Y-3115000D01*
X10050000Y-3115000D02*
X11700000Y-3115000D01*
X10050000Y-28635000D02*
X10050000Y-3115000D01*
X11700000Y-3115000D02*
G75*
G03*
X13700000Y-3115000I1000000J0D01*
G01*
%TO.C,J7*%
X25460000Y-18355000D02*
X24130000Y-18355000D01*
X25460000Y-19685000D02*
X25460000Y-18355000D01*
X25460000Y-20955000D02*
X25460000Y-21015000D01*
X25460000Y-20955000D02*
X22800000Y-20955000D01*
X25460000Y-21015000D02*
X22800000Y-21015000D01*
X22800000Y-20955000D02*
X22800000Y-21015000D01*
%TD*%
M02*
