%TF.GenerationSoftware,KiCad,Pcbnew,7.0.5*%
%TF.CreationDate,2024-09-29T20:40:23-04:00*%
%TF.ProjectId,74hc574_to_74ls273_converter,37346863-3537-4345-9f74-6f5f37346c73,rev?*%
%TF.SameCoordinates,Original*%
%TF.FileFunction,Legend,Top*%
%TF.FilePolarity,Positive*%
%FSLAX46Y46*%
G04 Gerber Fmt 4.6, Leading zero omitted, Abs format (unit mm)*
G04 Created by KiCad (PCBNEW 7.0.5) date 2024-09-29 20:40:23*
%MOMM*%
%LPD*%
G01*
G04 APERTURE LIST*
%ADD10C,0.150000*%
%ADD11C,0.120000*%
G04 APERTURE END LIST*
D10*
%TO.C,J1*%
X63166666Y-27604819D02*
X63166666Y-28319104D01*
X63166666Y-28319104D02*
X63119047Y-28461961D01*
X63119047Y-28461961D02*
X63023809Y-28557200D01*
X63023809Y-28557200D02*
X62880952Y-28604819D01*
X62880952Y-28604819D02*
X62785714Y-28604819D01*
X64166666Y-28604819D02*
X63595238Y-28604819D01*
X63880952Y-28604819D02*
X63880952Y-27604819D01*
X63880952Y-27604819D02*
X63785714Y-27747676D01*
X63785714Y-27747676D02*
X63690476Y-27842914D01*
X63690476Y-27842914D02*
X63595238Y-27890533D01*
%TO.C,J8*%
X45386666Y-42844819D02*
X45386666Y-43559104D01*
X45386666Y-43559104D02*
X45339047Y-43701961D01*
X45339047Y-43701961D02*
X45243809Y-43797200D01*
X45243809Y-43797200D02*
X45100952Y-43844819D01*
X45100952Y-43844819D02*
X45005714Y-43844819D01*
X46005714Y-43273390D02*
X45910476Y-43225771D01*
X45910476Y-43225771D02*
X45862857Y-43178152D01*
X45862857Y-43178152D02*
X45815238Y-43082914D01*
X45815238Y-43082914D02*
X45815238Y-43035295D01*
X45815238Y-43035295D02*
X45862857Y-42940057D01*
X45862857Y-42940057D02*
X45910476Y-42892438D01*
X45910476Y-42892438D02*
X46005714Y-42844819D01*
X46005714Y-42844819D02*
X46196190Y-42844819D01*
X46196190Y-42844819D02*
X46291428Y-42892438D01*
X46291428Y-42892438D02*
X46339047Y-42940057D01*
X46339047Y-42940057D02*
X46386666Y-43035295D01*
X46386666Y-43035295D02*
X46386666Y-43082914D01*
X46386666Y-43082914D02*
X46339047Y-43178152D01*
X46339047Y-43178152D02*
X46291428Y-43225771D01*
X46291428Y-43225771D02*
X46196190Y-43273390D01*
X46196190Y-43273390D02*
X46005714Y-43273390D01*
X46005714Y-43273390D02*
X45910476Y-43321009D01*
X45910476Y-43321009D02*
X45862857Y-43368628D01*
X45862857Y-43368628D02*
X45815238Y-43463866D01*
X45815238Y-43463866D02*
X45815238Y-43654342D01*
X45815238Y-43654342D02*
X45862857Y-43749580D01*
X45862857Y-43749580D02*
X45910476Y-43797200D01*
X45910476Y-43797200D02*
X46005714Y-43844819D01*
X46005714Y-43844819D02*
X46196190Y-43844819D01*
X46196190Y-43844819D02*
X46291428Y-43797200D01*
X46291428Y-43797200D02*
X46339047Y-43749580D01*
X46339047Y-43749580D02*
X46386666Y-43654342D01*
X46386666Y-43654342D02*
X46386666Y-43463866D01*
X46386666Y-43463866D02*
X46339047Y-43368628D01*
X46339047Y-43368628D02*
X46291428Y-43321009D01*
X46291428Y-43321009D02*
X46196190Y-43273390D01*
%TO.C,U1*%
X51308095Y-22524819D02*
X51308095Y-23334342D01*
X51308095Y-23334342D02*
X51355714Y-23429580D01*
X51355714Y-23429580D02*
X51403333Y-23477200D01*
X51403333Y-23477200D02*
X51498571Y-23524819D01*
X51498571Y-23524819D02*
X51689047Y-23524819D01*
X51689047Y-23524819D02*
X51784285Y-23477200D01*
X51784285Y-23477200D02*
X51831904Y-23429580D01*
X51831904Y-23429580D02*
X51879523Y-23334342D01*
X51879523Y-23334342D02*
X51879523Y-22524819D01*
X52879523Y-23524819D02*
X52308095Y-23524819D01*
X52593809Y-23524819D02*
X52593809Y-22524819D01*
X52593809Y-22524819D02*
X52498571Y-22667676D01*
X52498571Y-22667676D02*
X52403333Y-22762914D01*
X52403333Y-22762914D02*
X52308095Y-22810533D01*
%TO.C,J4*%
X63166666Y-40304819D02*
X63166666Y-41019104D01*
X63166666Y-41019104D02*
X63119047Y-41161961D01*
X63119047Y-41161961D02*
X63023809Y-41257200D01*
X63023809Y-41257200D02*
X62880952Y-41304819D01*
X62880952Y-41304819D02*
X62785714Y-41304819D01*
X64071428Y-40638152D02*
X64071428Y-41304819D01*
X63833333Y-40257200D02*
X63595238Y-40971485D01*
X63595238Y-40971485D02*
X64214285Y-40971485D01*
%TO.C,J3*%
X63166666Y-37764819D02*
X63166666Y-38479104D01*
X63166666Y-38479104D02*
X63119047Y-38621961D01*
X63119047Y-38621961D02*
X63023809Y-38717200D01*
X63023809Y-38717200D02*
X62880952Y-38764819D01*
X62880952Y-38764819D02*
X62785714Y-38764819D01*
X63547619Y-37764819D02*
X64166666Y-37764819D01*
X64166666Y-37764819D02*
X63833333Y-38145771D01*
X63833333Y-38145771D02*
X63976190Y-38145771D01*
X63976190Y-38145771D02*
X64071428Y-38193390D01*
X64071428Y-38193390D02*
X64119047Y-38241009D01*
X64119047Y-38241009D02*
X64166666Y-38336247D01*
X64166666Y-38336247D02*
X64166666Y-38574342D01*
X64166666Y-38574342D02*
X64119047Y-38669580D01*
X64119047Y-38669580D02*
X64071428Y-38717200D01*
X64071428Y-38717200D02*
X63976190Y-38764819D01*
X63976190Y-38764819D02*
X63690476Y-38764819D01*
X63690476Y-38764819D02*
X63595238Y-38717200D01*
X63595238Y-38717200D02*
X63547619Y-38669580D01*
%TO.C,J5*%
X45386666Y-27604819D02*
X45386666Y-28319104D01*
X45386666Y-28319104D02*
X45339047Y-28461961D01*
X45339047Y-28461961D02*
X45243809Y-28557200D01*
X45243809Y-28557200D02*
X45100952Y-28604819D01*
X45100952Y-28604819D02*
X45005714Y-28604819D01*
X46339047Y-27604819D02*
X45862857Y-27604819D01*
X45862857Y-27604819D02*
X45815238Y-28081009D01*
X45815238Y-28081009D02*
X45862857Y-28033390D01*
X45862857Y-28033390D02*
X45958095Y-27985771D01*
X45958095Y-27985771D02*
X46196190Y-27985771D01*
X46196190Y-27985771D02*
X46291428Y-28033390D01*
X46291428Y-28033390D02*
X46339047Y-28081009D01*
X46339047Y-28081009D02*
X46386666Y-28176247D01*
X46386666Y-28176247D02*
X46386666Y-28414342D01*
X46386666Y-28414342D02*
X46339047Y-28509580D01*
X46339047Y-28509580D02*
X46291428Y-28557200D01*
X46291428Y-28557200D02*
X46196190Y-28604819D01*
X46196190Y-28604819D02*
X45958095Y-28604819D01*
X45958095Y-28604819D02*
X45862857Y-28557200D01*
X45862857Y-28557200D02*
X45815238Y-28509580D01*
%TO.C,J6*%
X45386666Y-32684819D02*
X45386666Y-33399104D01*
X45386666Y-33399104D02*
X45339047Y-33541961D01*
X45339047Y-33541961D02*
X45243809Y-33637200D01*
X45243809Y-33637200D02*
X45100952Y-33684819D01*
X45100952Y-33684819D02*
X45005714Y-33684819D01*
X46291428Y-32684819D02*
X46100952Y-32684819D01*
X46100952Y-32684819D02*
X46005714Y-32732438D01*
X46005714Y-32732438D02*
X45958095Y-32780057D01*
X45958095Y-32780057D02*
X45862857Y-32922914D01*
X45862857Y-32922914D02*
X45815238Y-33113390D01*
X45815238Y-33113390D02*
X45815238Y-33494342D01*
X45815238Y-33494342D02*
X45862857Y-33589580D01*
X45862857Y-33589580D02*
X45910476Y-33637200D01*
X45910476Y-33637200D02*
X46005714Y-33684819D01*
X46005714Y-33684819D02*
X46196190Y-33684819D01*
X46196190Y-33684819D02*
X46291428Y-33637200D01*
X46291428Y-33637200D02*
X46339047Y-33589580D01*
X46339047Y-33589580D02*
X46386666Y-33494342D01*
X46386666Y-33494342D02*
X46386666Y-33256247D01*
X46386666Y-33256247D02*
X46339047Y-33161009D01*
X46339047Y-33161009D02*
X46291428Y-33113390D01*
X46291428Y-33113390D02*
X46196190Y-33065771D01*
X46196190Y-33065771D02*
X46005714Y-33065771D01*
X46005714Y-33065771D02*
X45910476Y-33113390D01*
X45910476Y-33113390D02*
X45862857Y-33161009D01*
X45862857Y-33161009D02*
X45815238Y-33256247D01*
%TO.C,J2*%
X63166666Y-30144819D02*
X63166666Y-30859104D01*
X63166666Y-30859104D02*
X63119047Y-31001961D01*
X63119047Y-31001961D02*
X63023809Y-31097200D01*
X63023809Y-31097200D02*
X62880952Y-31144819D01*
X62880952Y-31144819D02*
X62785714Y-31144819D01*
X63595238Y-30240057D02*
X63642857Y-30192438D01*
X63642857Y-30192438D02*
X63738095Y-30144819D01*
X63738095Y-30144819D02*
X63976190Y-30144819D01*
X63976190Y-30144819D02*
X64071428Y-30192438D01*
X64071428Y-30192438D02*
X64119047Y-30240057D01*
X64119047Y-30240057D02*
X64166666Y-30335295D01*
X64166666Y-30335295D02*
X64166666Y-30430533D01*
X64166666Y-30430533D02*
X64119047Y-30573390D01*
X64119047Y-30573390D02*
X63547619Y-31144819D01*
X63547619Y-31144819D02*
X64166666Y-31144819D01*
%TO.C,U2*%
X56388095Y-22524819D02*
X56388095Y-23334342D01*
X56388095Y-23334342D02*
X56435714Y-23429580D01*
X56435714Y-23429580D02*
X56483333Y-23477200D01*
X56483333Y-23477200D02*
X56578571Y-23524819D01*
X56578571Y-23524819D02*
X56769047Y-23524819D01*
X56769047Y-23524819D02*
X56864285Y-23477200D01*
X56864285Y-23477200D02*
X56911904Y-23429580D01*
X56911904Y-23429580D02*
X56959523Y-23334342D01*
X56959523Y-23334342D02*
X56959523Y-22524819D01*
X57388095Y-22620057D02*
X57435714Y-22572438D01*
X57435714Y-22572438D02*
X57530952Y-22524819D01*
X57530952Y-22524819D02*
X57769047Y-22524819D01*
X57769047Y-22524819D02*
X57864285Y-22572438D01*
X57864285Y-22572438D02*
X57911904Y-22620057D01*
X57911904Y-22620057D02*
X57959523Y-22715295D01*
X57959523Y-22715295D02*
X57959523Y-22810533D01*
X57959523Y-22810533D02*
X57911904Y-22953390D01*
X57911904Y-22953390D02*
X57340476Y-23524819D01*
X57340476Y-23524819D02*
X57959523Y-23524819D01*
%TO.C,J7*%
X45386666Y-37764819D02*
X45386666Y-38479104D01*
X45386666Y-38479104D02*
X45339047Y-38621961D01*
X45339047Y-38621961D02*
X45243809Y-38717200D01*
X45243809Y-38717200D02*
X45100952Y-38764819D01*
X45100952Y-38764819D02*
X45005714Y-38764819D01*
X45767619Y-37764819D02*
X46434285Y-37764819D01*
X46434285Y-37764819D02*
X46005714Y-38764819D01*
D11*
%TO.C,J1*%
X62170000Y-29150000D02*
X63500000Y-29150000D01*
X62170000Y-30480000D02*
X62170000Y-29150000D01*
X62170000Y-31750000D02*
X62170000Y-31810000D01*
X62170000Y-31750000D02*
X64830000Y-31750000D01*
X62170000Y-31810000D02*
X64830000Y-31810000D01*
X64830000Y-31750000D02*
X64830000Y-31810000D01*
%TO.C,J8*%
X44390000Y-44390000D02*
X45720000Y-44390000D01*
X44390000Y-45720000D02*
X44390000Y-44390000D01*
X44390000Y-46990000D02*
X44390000Y-47050000D01*
X44390000Y-46990000D02*
X47050000Y-46990000D01*
X44390000Y-47050000D02*
X47050000Y-47050000D01*
X47050000Y-46990000D02*
X47050000Y-47050000D01*
%TO.C,U1*%
X49420000Y-24070000D02*
X49420000Y-49590000D01*
X49420000Y-49590000D02*
X54720000Y-49590000D01*
X51070000Y-24070000D02*
X49420000Y-24070000D01*
X54720000Y-24070000D02*
X53070000Y-24070000D01*
X54720000Y-49590000D02*
X54720000Y-24070000D01*
X51070000Y-24070000D02*
G75*
G03*
X53070000Y-24070000I1000000J0D01*
G01*
%TO.C,J4*%
X62170000Y-41850000D02*
X63500000Y-41850000D01*
X62170000Y-43180000D02*
X62170000Y-41850000D01*
X62170000Y-44450000D02*
X62170000Y-44510000D01*
X62170000Y-44450000D02*
X64830000Y-44450000D01*
X62170000Y-44510000D02*
X64830000Y-44510000D01*
X64830000Y-44450000D02*
X64830000Y-44510000D01*
%TO.C,J3*%
X62170000Y-39310000D02*
X63500000Y-39310000D01*
X62170000Y-40640000D02*
X62170000Y-39310000D01*
X62170000Y-41910000D02*
X62170000Y-41970000D01*
X62170000Y-41910000D02*
X64830000Y-41910000D01*
X62170000Y-41970000D02*
X64830000Y-41970000D01*
X64830000Y-41910000D02*
X64830000Y-41970000D01*
%TO.C,J5*%
X44390000Y-29150000D02*
X45720000Y-29150000D01*
X44390000Y-30480000D02*
X44390000Y-29150000D01*
X44390000Y-31750000D02*
X44390000Y-31810000D01*
X44390000Y-31750000D02*
X47050000Y-31750000D01*
X44390000Y-31810000D02*
X47050000Y-31810000D01*
X47050000Y-31750000D02*
X47050000Y-31810000D01*
%TO.C,J6*%
X44390000Y-34230000D02*
X45720000Y-34230000D01*
X44390000Y-35560000D02*
X44390000Y-34230000D01*
X44390000Y-36830000D02*
X44390000Y-36890000D01*
X44390000Y-36830000D02*
X47050000Y-36830000D01*
X44390000Y-36890000D02*
X47050000Y-36890000D01*
X47050000Y-36830000D02*
X47050000Y-36890000D01*
%TO.C,J2*%
X62170000Y-31690000D02*
X63500000Y-31690000D01*
X62170000Y-33020000D02*
X62170000Y-31690000D01*
X62170000Y-34290000D02*
X62170000Y-34350000D01*
X62170000Y-34290000D02*
X64830000Y-34290000D01*
X62170000Y-34350000D02*
X64830000Y-34350000D01*
X64830000Y-34290000D02*
X64830000Y-34350000D01*
%TO.C,U2*%
X54500000Y-24070000D02*
X54500000Y-49590000D01*
X54500000Y-49590000D02*
X59800000Y-49590000D01*
X56150000Y-24070000D02*
X54500000Y-24070000D01*
X59800000Y-24070000D02*
X58150000Y-24070000D01*
X59800000Y-49590000D02*
X59800000Y-24070000D01*
X56150000Y-24070000D02*
G75*
G03*
X58150000Y-24070000I1000000J0D01*
G01*
%TO.C,J7*%
X44390000Y-39310000D02*
X45720000Y-39310000D01*
X44390000Y-40640000D02*
X44390000Y-39310000D01*
X44390000Y-41910000D02*
X44390000Y-41970000D01*
X44390000Y-41910000D02*
X47050000Y-41910000D01*
X44390000Y-41970000D02*
X47050000Y-41970000D01*
X47050000Y-41910000D02*
X47050000Y-41970000D01*
%TD*%
M02*
