%TF.GenerationSoftware,KiCad,Pcbnew,7.0.5*%
%TF.CreationDate,2024-09-29T20:40:23-04:00*%
%TF.ProjectId,74hc574_to_74ls273_converter,37346863-3537-4345-9f74-6f5f37346c73,rev?*%
%TF.SameCoordinates,Original*%
%TF.FileFunction,Soldermask,Top*%
%TF.FilePolarity,Negative*%
%FSLAX46Y46*%
G04 Gerber Fmt 4.6, Leading zero omitted, Abs format (unit mm)*
G04 Created by KiCad (PCBNEW 7.0.5) date 2024-09-29 20:40:23*
%MOMM*%
%LPD*%
G01*
G04 APERTURE LIST*
%ADD10R,1.700000X1.700000*%
%ADD11R,1.600000X1.600000*%
%ADD12O,1.600000X1.600000*%
G04 APERTURE END LIST*
D10*
%TO.C,J1*%
X63500000Y-30480000D03*
%TD*%
%TO.C,J8*%
X45720000Y-45720000D03*
%TD*%
D11*
%TO.C,U1*%
X48260000Y-25400000D03*
D12*
X48260000Y-27940000D03*
X48260000Y-30480000D03*
X48260000Y-33020000D03*
X48260000Y-35560000D03*
X48260000Y-38100000D03*
X48260000Y-40640000D03*
X48260000Y-43180000D03*
X48260000Y-45720000D03*
X48260000Y-48260000D03*
X55880000Y-48260000D03*
X55880000Y-45720000D03*
X55880000Y-43180000D03*
X55880000Y-40640000D03*
X55880000Y-38100000D03*
X55880000Y-35560000D03*
X55880000Y-33020000D03*
X55880000Y-30480000D03*
X55880000Y-27940000D03*
X55880000Y-25400000D03*
%TD*%
D10*
%TO.C,J4*%
X63500000Y-43180000D03*
%TD*%
%TO.C,J3*%
X63500000Y-40640000D03*
%TD*%
%TO.C,J5*%
X45720000Y-30480000D03*
%TD*%
%TO.C,J6*%
X45720000Y-35560000D03*
%TD*%
%TO.C,J2*%
X63500000Y-33020000D03*
%TD*%
D11*
%TO.C,U2*%
X53340000Y-25400000D03*
D12*
X53340000Y-27940000D03*
X53340000Y-30480000D03*
X53340000Y-33020000D03*
X53340000Y-35560000D03*
X53340000Y-38100000D03*
X53340000Y-40640000D03*
X53340000Y-43180000D03*
X53340000Y-45720000D03*
X53340000Y-48260000D03*
X60960000Y-48260000D03*
X60960000Y-45720000D03*
X60960000Y-43180000D03*
X60960000Y-40640000D03*
X60960000Y-38100000D03*
X60960000Y-35560000D03*
X60960000Y-33020000D03*
X60960000Y-30480000D03*
X60960000Y-27940000D03*
X60960000Y-25400000D03*
%TD*%
D10*
%TO.C,J7*%
X45720000Y-40640000D03*
%TD*%
M02*
