G04 #@! TF.GenerationSoftware,KiCad,Pcbnew,7.0.5*
G04 #@! TF.CreationDate,2024-09-26T14:14:00-04:00*
G04 #@! TF.ProjectId,stepper_motor_controller_4_for_cnc,73746570-7065-4725-9f6d-6f746f725f63,rev?*
G04 #@! TF.SameCoordinates,Original*
G04 #@! TF.FileFunction,Copper,L2,Bot*
G04 #@! TF.FilePolarity,Positive*
%FSLAX45Y45*%
G04 Gerber Fmt 4.5, Leading zero omitted, Abs format (unit mm)*
G04 Created by KiCad (PCBNEW 7.0.5) date 2024-09-26 14:14:00*
%MOMM*%
%LPD*%
G01*
G04 APERTURE LIST*
G04 Aperture macros list*
%AMHorizOval*
0 Thick line with rounded ends*
0 $1 width*
0 $2 $3 position (X,Y) of the first rounded end (center of the circle)*
0 $4 $5 position (X,Y) of the second rounded end (center of the circle)*
0 Add line between two ends*
20,1,$1,$2,$3,$4,$5,0*
0 Add two circle primitives to create the rounded ends*
1,1,$1,$2,$3*
1,1,$1,$4,$5*%
G04 Aperture macros list end*
G04 #@! TA.AperFunction,ComponentPad*
%ADD10C,1.400000*%
G04 #@! TD*
G04 #@! TA.AperFunction,ComponentPad*
%ADD11O,1.400000X1.400000*%
G04 #@! TD*
G04 #@! TA.AperFunction,ComponentPad*
%ADD12HorizOval,1.400000X0.000000X0.000000X0.000000X0.000000X0*%
G04 #@! TD*
G04 #@! TA.AperFunction,ComponentPad*
%ADD13HorizOval,1.400000X0.000000X0.000000X0.000000X0.000000X0*%
G04 #@! TD*
G04 #@! TA.AperFunction,ComponentPad*
%ADD14R,1.600000X1.600000*%
G04 #@! TD*
G04 #@! TA.AperFunction,ComponentPad*
%ADD15O,1.600000X1.600000*%
G04 #@! TD*
G04 #@! TA.AperFunction,ComponentPad*
%ADD16R,2.000000X1.905000*%
G04 #@! TD*
G04 #@! TA.AperFunction,ComponentPad*
%ADD17O,2.000000X1.905000*%
G04 #@! TD*
G04 #@! TA.AperFunction,ViaPad*
%ADD18C,3.000000*%
G04 #@! TD*
G04 #@! TA.AperFunction,ViaPad*
%ADD19C,1.000000*%
G04 #@! TD*
G04 #@! TA.AperFunction,ViaPad*
%ADD20C,4.500000*%
G04 #@! TD*
G04 #@! TA.AperFunction,Conductor*
%ADD21C,1.500000*%
G04 #@! TD*
G04 #@! TA.AperFunction,Conductor*
%ADD22C,1.000000*%
G04 #@! TD*
G04 APERTURE END LIST*
D10*
G04 #@! TO.P,R37,1*
G04 #@! TO.N,+5V*
X1308900Y5846120D03*
D11*
G04 #@! TO.P,R37,2*
G04 #@! TO.N,Net-(U11-ADJ)*
X800900Y5846120D03*
G04 #@! TD*
D10*
G04 #@! TO.P,R55,1*
G04 #@! TO.N,Net-(R55-Pad1)*
X1392300Y4563420D03*
D12*
G04 #@! TO.P,R55,2*
G04 #@! TO.N,/A*
X1033090Y4204210D03*
G04 #@! TD*
D10*
G04 #@! TO.P,R12,1*
G04 #@! TO.N,Net-(R12-Pad1)*
X3551300Y3547420D03*
D13*
G04 #@! TO.P,R12,2*
G04 #@! TO.N,/D*
X3910510Y3188210D03*
G04 #@! TD*
D10*
G04 #@! TO.P,R6,1*
G04 #@! TO.N,Net-(R6-Pad1)*
X1392300Y1769420D03*
D12*
G04 #@! TO.P,R6,2*
G04 #@! TO.N,/B*
X1033090Y1410210D03*
G04 #@! TD*
D10*
G04 #@! TO.P,R39,1*
G04 #@! TO.N,Net-(R39-Pad1)*
X1392300Y1515420D03*
D12*
G04 #@! TO.P,R39,2*
G04 #@! TO.N,/A*
X1033090Y1156210D03*
G04 #@! TD*
D10*
G04 #@! TO.P,R69,1*
G04 #@! TO.N,Net-(R69-Pad1)*
X3551300Y1769420D03*
D13*
G04 #@! TO.P,R69,2*
G04 #@! TO.N,/C*
X3910510Y1410210D03*
G04 #@! TD*
D10*
G04 #@! TO.P,R38,1*
G04 #@! TO.N,Net-(U11-ADJ)*
X800900Y6112820D03*
D11*
G04 #@! TO.P,R38,2*
G04 #@! TO.N,GND*
X1308900Y6112820D03*
G04 #@! TD*
D14*
G04 #@! TO.P,U10,1,OA*
G04 #@! TO.N,Net-(R65-Pad1)*
X3359800Y3808800D03*
D15*
G04 #@! TO.P,U10,2,VCC*
G04 #@! TO.N,VCC*
X3359800Y4062800D03*
G04 #@! TO.P,U10,3,VCC*
X3359800Y4316800D03*
G04 #@! TO.P,U10,4,OA*
G04 #@! TO.N,Net-(R66-Pad1)*
X3359800Y4570800D03*
G04 #@! TO.P,U10,5,GND*
G04 #@! TO.N,GND*
X2597800Y4570800D03*
G04 #@! TO.P,U10,6,IA*
G04 #@! TO.N,/B_logic*
X2597800Y4316800D03*
G04 #@! TO.P,U10,7,IB*
G04 #@! TO.N,/B_n_logic*
X2597800Y4062800D03*
G04 #@! TO.P,U10,8,GND*
G04 #@! TO.N,GND*
X2597800Y3808800D03*
G04 #@! TD*
D14*
G04 #@! TO.P,U1,1,~{R}*
G04 #@! TO.N,+5V*
X3620300Y5452420D03*
D15*
G04 #@! TO.P,U1,2,D*
G04 #@! TO.N,Net-(U1A-D)*
X3620300Y5706420D03*
G04 #@! TO.P,U1,3,C*
G04 #@! TO.N,/CLOCK_upper*
X3620300Y5960420D03*
G04 #@! TO.P,U1,4,~{S}*
G04 #@! TO.N,+5V*
X3620300Y6214420D03*
G04 #@! TO.P,U1,5,Q*
G04 #@! TO.N,/A_logic*
X3620300Y6468420D03*
G04 #@! TO.P,U1,6,~{Q}*
G04 #@! TO.N,/A_n_logic*
X3620300Y6722420D03*
G04 #@! TO.P,U1,7,GND*
G04 #@! TO.N,GND*
X3620300Y6976420D03*
G04 #@! TO.P,U1,8,~{Q}*
G04 #@! TO.N,/B_n_logic*
X2858300Y6976420D03*
G04 #@! TO.P,U1,9,Q*
G04 #@! TO.N,/B_logic*
X2858300Y6722420D03*
G04 #@! TO.P,U1,10,~{S}*
G04 #@! TO.N,+5V*
X2858300Y6468420D03*
G04 #@! TO.P,U1,11,C*
G04 #@! TO.N,/CLOCK_upper*
X2858300Y6214420D03*
G04 #@! TO.P,U1,12,D*
G04 #@! TO.N,Net-(U1B-D)*
X2858300Y5960420D03*
G04 #@! TO.P,U1,13,~{R}*
G04 #@! TO.N,+5V*
X2858300Y5706420D03*
G04 #@! TO.P,U1,14,VCC*
X2858300Y5452420D03*
G04 #@! TD*
D10*
G04 #@! TO.P,R2,1*
G04 #@! TO.N,Net-(R2-Pad1)*
X1392300Y753420D03*
D12*
G04 #@! TO.P,R2,2*
G04 #@! TO.N,/B*
X1033090Y394210D03*
G04 #@! TD*
D14*
G04 #@! TO.P,U8,1,OA*
G04 #@! TO.N,Net-(R67-Pad1)*
X3360800Y2791800D03*
D15*
G04 #@! TO.P,U8,2,VCC*
G04 #@! TO.N,VCC*
X3360800Y3045800D03*
G04 #@! TO.P,U8,3,VCC*
X3360800Y3299800D03*
G04 #@! TO.P,U8,4,OA*
G04 #@! TO.N,Net-(R12-Pad1)*
X3360800Y3553800D03*
G04 #@! TO.P,U8,5,GND*
G04 #@! TO.N,GND*
X2598800Y3553800D03*
G04 #@! TO.P,U8,6,IA*
G04 #@! TO.N,/B_logic*
X2598800Y3299800D03*
G04 #@! TO.P,U8,7,IB*
G04 #@! TO.N,/B_n_logic*
X2598800Y3045800D03*
G04 #@! TO.P,U8,8,GND*
G04 #@! TO.N,GND*
X2598800Y2791800D03*
G04 #@! TD*
D14*
G04 #@! TO.P,U5,1,OA*
G04 #@! TO.N,Net-(R5-Pad1)*
X1583800Y2535800D03*
D15*
G04 #@! TO.P,U5,2,VCC*
G04 #@! TO.N,VCC*
X1583800Y2281800D03*
G04 #@! TO.P,U5,3,VCC*
X1583800Y2027800D03*
G04 #@! TO.P,U5,4,OA*
G04 #@! TO.N,Net-(R6-Pad1)*
X1583800Y1773800D03*
G04 #@! TO.P,U5,5,GND*
G04 #@! TO.N,GND*
X2345800Y1773800D03*
G04 #@! TO.P,U5,6,IA*
G04 #@! TO.N,/A_logic*
X2345800Y2027800D03*
G04 #@! TO.P,U5,7,IB*
G04 #@! TO.N,/A_n_logic*
X2345800Y2281800D03*
G04 #@! TO.P,U5,8,GND*
G04 #@! TO.N,GND*
X2345800Y2535800D03*
G04 #@! TD*
D14*
G04 #@! TO.P,U7,1,OA*
G04 #@! TO.N,Net-(R9-Pad1)*
X1583800Y3551800D03*
D15*
G04 #@! TO.P,U7,2,VCC*
G04 #@! TO.N,VCC*
X1583800Y3297800D03*
G04 #@! TO.P,U7,3,VCC*
X1583800Y3043800D03*
G04 #@! TO.P,U7,4,OA*
G04 #@! TO.N,Net-(R54-Pad1)*
X1583800Y2789800D03*
G04 #@! TO.P,U7,5,GND*
G04 #@! TO.N,GND*
X2345800Y2789800D03*
G04 #@! TO.P,U7,6,IA*
G04 #@! TO.N,/A_logic*
X2345800Y3043800D03*
G04 #@! TO.P,U7,7,IB*
G04 #@! TO.N,/A_n_logic*
X2345800Y3297800D03*
G04 #@! TO.P,U7,8,GND*
G04 #@! TO.N,GND*
X2345800Y3551800D03*
G04 #@! TD*
D14*
G04 #@! TO.P,U6,1,OA*
G04 #@! TO.N,Net-(R69-Pad1)*
X3359800Y1776800D03*
D15*
G04 #@! TO.P,U6,2,VCC*
G04 #@! TO.N,VCC*
X3359800Y2030800D03*
G04 #@! TO.P,U6,3,VCC*
X3359800Y2284800D03*
G04 #@! TO.P,U6,4,OA*
G04 #@! TO.N,Net-(R70-Pad1)*
X3359800Y2538800D03*
G04 #@! TO.P,U6,5,GND*
G04 #@! TO.N,GND*
X2597800Y2538800D03*
G04 #@! TO.P,U6,6,IA*
G04 #@! TO.N,/B_logic*
X2597800Y2284800D03*
G04 #@! TO.P,U6,7,IB*
G04 #@! TO.N,/B_n_logic*
X2597800Y2030800D03*
G04 #@! TO.P,U6,8,GND*
G04 #@! TO.N,GND*
X2597800Y1776800D03*
G04 #@! TD*
D10*
G04 #@! TO.P,R54,1*
G04 #@! TO.N,Net-(R54-Pad1)*
X1392300Y2785420D03*
D12*
G04 #@! TO.P,R54,2*
G04 #@! TO.N,/B*
X1033090Y2426210D03*
G04 #@! TD*
D14*
G04 #@! TO.P,U4,1,OA*
G04 #@! TO.N,Net-(R3-Pad1)*
X3359800Y760800D03*
D15*
G04 #@! TO.P,U4,2,VCC*
G04 #@! TO.N,VCC*
X3359800Y1014800D03*
G04 #@! TO.P,U4,3,VCC*
X3359800Y1268800D03*
G04 #@! TO.P,U4,4,OA*
G04 #@! TO.N,Net-(R72-Pad1)*
X3359800Y1522800D03*
G04 #@! TO.P,U4,5,GND*
G04 #@! TO.N,GND*
X2597800Y1522800D03*
G04 #@! TO.P,U4,6,IA*
G04 #@! TO.N,/B_logic*
X2597800Y1268800D03*
G04 #@! TO.P,U4,7,IB*
G04 #@! TO.N,/B_n_logic*
X2597800Y1014800D03*
G04 #@! TO.P,U4,8,GND*
G04 #@! TO.N,GND*
X2597800Y760800D03*
G04 #@! TD*
D10*
G04 #@! TO.P,R18,1*
G04 #@! TO.N,Net-(U1A-D)*
X3874300Y5706420D03*
D11*
G04 #@! TO.P,R18,2*
G04 #@! TO.N,+5V*
X3874300Y6214420D03*
G04 #@! TD*
D14*
G04 #@! TO.P,U3,1*
G04 #@! TO.N,/B_n_logic*
X2350300Y5439720D03*
D15*
G04 #@! TO.P,U3,2*
G04 #@! TO.N,/DIRECTION_upper*
X2350300Y5693720D03*
G04 #@! TO.P,U3,3*
G04 #@! TO.N,Net-(U1A-D)*
X2350300Y5947720D03*
G04 #@! TO.P,U3,4*
G04 #@! TO.N,/A_logic*
X2350300Y6201720D03*
G04 #@! TO.P,U3,5*
G04 #@! TO.N,/DIRECTION_upper*
X2350300Y6455720D03*
G04 #@! TO.P,U3,6*
G04 #@! TO.N,Net-(U1B-D)*
X2350300Y6709720D03*
G04 #@! TO.P,U3,7,GND*
G04 #@! TO.N,GND*
X2350300Y6963720D03*
G04 #@! TO.P,U3,8*
G04 #@! TO.N,N/C*
X1588300Y6963720D03*
G04 #@! TO.P,U3,9*
X1588300Y6709720D03*
G04 #@! TO.P,U3,10*
X1588300Y6455720D03*
G04 #@! TO.P,U3,11*
X1588300Y6201720D03*
G04 #@! TO.P,U3,12*
X1588300Y5947720D03*
G04 #@! TO.P,U3,13*
X1588300Y5693720D03*
G04 #@! TO.P,U3,14,VCC*
G04 #@! TO.N,+5V*
X1588300Y5439720D03*
G04 #@! TD*
D10*
G04 #@! TO.P,R70,1*
G04 #@! TO.N,Net-(R70-Pad1)*
X3551300Y2531420D03*
D13*
G04 #@! TO.P,R70,2*
G04 #@! TO.N,/D*
X3910510Y2172210D03*
G04 #@! TD*
D10*
G04 #@! TO.P,R14,1*
G04 #@! TO.N,Net-(R14-Pad1)*
X1392300Y3801420D03*
D12*
G04 #@! TO.P,R14,2*
G04 #@! TO.N,/B*
X1033090Y3442210D03*
G04 #@! TD*
D10*
G04 #@! TO.P,R65,1*
G04 #@! TO.N,Net-(R65-Pad1)*
X3551300Y3801420D03*
D13*
G04 #@! TO.P,R65,2*
G04 #@! TO.N,/C*
X3910510Y3442210D03*
G04 #@! TD*
D10*
G04 #@! TO.P,R17,1*
G04 #@! TO.N,Net-(U1B-D)*
X2604300Y5960420D03*
D11*
G04 #@! TO.P,R17,2*
G04 #@! TO.N,+5V*
X2604300Y5452420D03*
G04 #@! TD*
D14*
G04 #@! TO.P,U9,1,OA*
G04 #@! TO.N,Net-(R55-Pad1)*
X1583800Y4567800D03*
D15*
G04 #@! TO.P,U9,2,VCC*
G04 #@! TO.N,VCC*
X1583800Y4313800D03*
G04 #@! TO.P,U9,3,VCC*
X1583800Y4059800D03*
G04 #@! TO.P,U9,4,OA*
G04 #@! TO.N,Net-(R14-Pad1)*
X1583800Y3805800D03*
G04 #@! TO.P,U9,5,GND*
G04 #@! TO.N,GND*
X2345800Y3805800D03*
G04 #@! TO.P,U9,6,IA*
G04 #@! TO.N,/A_logic*
X2345800Y4059800D03*
G04 #@! TO.P,U9,7,IB*
G04 #@! TO.N,/A_n_logic*
X2345800Y4313800D03*
G04 #@! TO.P,U9,8,GND*
G04 #@! TO.N,GND*
X2345800Y4567800D03*
G04 #@! TD*
D16*
G04 #@! TO.P,U11,1,ADJ*
G04 #@! TO.N,Net-(U11-ADJ)*
X1105700Y5452420D03*
D17*
G04 #@! TO.P,U11,2,VO*
G04 #@! TO.N,+5V*
X1105700Y5198420D03*
G04 #@! TO.P,U11,3,VI*
G04 #@! TO.N,VCC*
X1105700Y4944420D03*
G04 #@! TD*
D10*
G04 #@! TO.P,R66,1*
G04 #@! TO.N,Net-(R66-Pad1)*
X3551300Y4563420D03*
D13*
G04 #@! TO.P,R66,2*
G04 #@! TO.N,/D*
X3910510Y4204210D03*
G04 #@! TD*
D10*
G04 #@! TO.P,R5,1*
G04 #@! TO.N,Net-(R5-Pad1)*
X1392300Y2531420D03*
D12*
G04 #@! TO.P,R5,2*
G04 #@! TO.N,/A*
X1033090Y2172210D03*
G04 #@! TD*
D10*
G04 #@! TO.P,R3,1*
G04 #@! TO.N,Net-(R3-Pad1)*
X3551300Y753420D03*
D13*
G04 #@! TO.P,R3,2*
G04 #@! TO.N,/C*
X3910510Y394210D03*
G04 #@! TD*
D10*
G04 #@! TO.P,R72,1*
G04 #@! TO.N,Net-(R72-Pad1)*
X3551300Y1515420D03*
D13*
G04 #@! TO.P,R72,2*
G04 #@! TO.N,/D*
X3910510Y1156210D03*
G04 #@! TD*
D10*
G04 #@! TO.P,R9,1*
G04 #@! TO.N,Net-(R9-Pad1)*
X1392300Y3547420D03*
D12*
G04 #@! TO.P,R9,2*
G04 #@! TO.N,/A*
X1033090Y3188210D03*
G04 #@! TD*
D14*
G04 #@! TO.P,U2,1,OA*
G04 #@! TO.N,Net-(R39-Pad1)*
X1583800Y1519800D03*
D15*
G04 #@! TO.P,U2,2,VCC*
G04 #@! TO.N,VCC*
X1583800Y1265800D03*
G04 #@! TO.P,U2,3,VCC*
X1583800Y1011800D03*
G04 #@! TO.P,U2,4,OA*
G04 #@! TO.N,Net-(R2-Pad1)*
X1583800Y757800D03*
G04 #@! TO.P,U2,5,GND*
G04 #@! TO.N,GND*
X2345800Y757800D03*
G04 #@! TO.P,U2,6,IA*
G04 #@! TO.N,/B_n_logic*
X2345800Y1011800D03*
G04 #@! TO.P,U2,7,IB*
G04 #@! TO.N,/A_n_logic*
X2345800Y1265800D03*
G04 #@! TO.P,U2,8,GND*
G04 #@! TO.N,GND*
X2345800Y1519800D03*
G04 #@! TD*
D10*
G04 #@! TO.P,R67,1*
G04 #@! TO.N,Net-(R67-Pad1)*
X3551300Y2785420D03*
D13*
G04 #@! TO.P,R67,2*
G04 #@! TO.N,/C*
X3910510Y2426210D03*
G04 #@! TD*
D18*
G04 #@! TO.N,/A*
X553800Y2615800D03*
G04 #@! TO.N,/B*
X552800Y1663800D03*
G04 #@! TO.N,/C*
X4367800Y1639800D03*
G04 #@! TO.N,/D*
X4368800Y2591800D03*
D19*
G04 #@! TO.N,+5V*
X4128300Y6214420D03*
X3874300Y5452420D03*
G04 #@! TO.N,Net-(U1A-D)*
X2604300Y5706420D03*
G04 #@! TO.N,/A_logic*
X2820200Y7217720D03*
X3861600Y6468420D03*
G04 #@! TO.N,/A_n_logic*
X2471800Y3426800D03*
X2471800Y2410800D03*
X3861600Y6722420D03*
X2471800Y4442800D03*
X2471800Y1394800D03*
D18*
G04 #@! TO.N,GND*
X4368800Y3544800D03*
D20*
X553800Y4521800D03*
X4368800Y4497800D03*
D19*
X2312200Y7217720D03*
D20*
X4368800Y685800D03*
X553800Y5474800D03*
X4368800Y5450800D03*
X553800Y709800D03*
D19*
G04 #@! TO.N,/B_n_logic*
X2471800Y3934800D03*
X2471800Y886800D03*
X1867700Y7217720D03*
X2471800Y1902800D03*
X2471800Y2918800D03*
G04 #@! TO.N,/B_logic*
X2471800Y3172800D03*
X2471800Y4188800D03*
X2471800Y1140800D03*
X2471800Y2156800D03*
X2604300Y6938320D03*
D18*
G04 #@! TO.N,VCC*
X553800Y3568800D03*
D19*
G04 #@! TO.N,/DIRECTION_upper*
X2566200Y7217720D03*
X2058200Y7217720D03*
G04 #@! TD*
D21*
G04 #@! TO.N,GND*
X2463800Y7454900D02*
X2351100Y7454900D01*
X2184400Y7452220D02*
X2461120Y7452220D01*
X2461120Y7452220D02*
X2463800Y7454900D01*
X3606800Y7454900D02*
X2463800Y7454900D01*
X2184400Y7452220D02*
X1323480Y7452220D01*
X2275980Y7452220D02*
X2184400Y7452220D01*
X2616200Y292100D02*
X2345800Y292100D01*
X2345800Y292100D02*
X2345800Y212200D01*
X2345800Y444500D02*
X2345800Y292100D01*
X2333100Y457200D02*
X2358500Y431800D01*
X2358500Y431800D02*
X2616200Y431800D01*
X2358500Y546100D02*
X2345800Y558800D01*
X2616200Y546100D02*
X2358500Y546100D01*
X2812100Y686800D02*
X2900000Y774700D01*
X2217800Y686800D02*
X2812100Y686800D01*
X2142600Y762000D02*
X2217800Y686800D01*
X2158000Y3734800D02*
X2812100Y3734800D01*
X2812100Y3734800D02*
X2900000Y3822700D01*
X2057400Y3835400D02*
X2057400Y4635500D01*
X2057400Y3835400D02*
X2158000Y3734800D01*
X2057400Y3492500D02*
X2057400Y3835400D01*
X2900000Y3517900D02*
X2900000Y2755900D01*
X2057400Y3492500D02*
X2191700Y3626800D01*
X2791100Y3626800D02*
X2900000Y3517900D01*
X2900000Y4580300D02*
X2900000Y3517900D01*
X2191700Y3626800D02*
X2791100Y3626800D01*
X2057400Y2768600D02*
X2057400Y3492500D01*
X2727600Y2610800D02*
X2754900Y2610800D01*
X2754900Y2610800D02*
X2862900Y2718800D01*
X2107200Y2718800D02*
X2862900Y2718800D01*
X2057400Y2768600D02*
X2107200Y2718800D01*
X2900000Y2755900D02*
X2900000Y2438400D01*
X2057400Y2463800D02*
X2057400Y2768600D01*
X2862900Y2718800D02*
X2900000Y2755900D01*
X2057400Y2463800D02*
X2204400Y2610800D01*
X2900000Y2438400D02*
X2900000Y1790700D01*
X2204400Y2610800D02*
X2727600Y2610800D01*
X2057400Y1778000D02*
X2057400Y2463800D01*
X2727600Y2610800D02*
X2900000Y2438400D01*
X2057400Y1524000D02*
X2128200Y1594800D01*
X2791100Y1594800D02*
X2900000Y1485900D01*
X2900000Y1485900D02*
X2900000Y774700D01*
X2900000Y1790700D02*
X2900000Y1485900D01*
X2128200Y1594800D02*
X2791100Y1594800D01*
X2057400Y1524000D02*
X2057400Y1778000D01*
X2057400Y762000D02*
X2057400Y1524000D01*
X2132600Y1702800D02*
X2812100Y1702800D01*
X2812100Y1702800D02*
X2900000Y1790700D01*
X2057400Y1778000D02*
X2132600Y1702800D01*
X2900000Y292100D02*
X2616200Y292100D01*
X2616200Y165100D02*
X2616200Y292100D01*
X2900000Y292100D02*
X2900000Y169500D01*
X2616200Y292100D02*
X2616200Y431800D01*
X2900000Y419100D02*
X2900000Y292100D01*
X2900000Y419100D02*
X2628900Y419100D01*
X2900000Y533400D02*
X2900000Y419100D01*
X2616200Y431800D02*
X2616200Y546100D01*
X2628900Y419100D02*
X2616200Y431800D01*
X2844800Y546100D02*
X2857500Y533400D01*
X2616200Y546100D02*
X2844800Y546100D01*
X2616200Y546100D02*
X2616200Y742400D01*
X2857500Y533400D02*
X2692400Y698500D01*
X2692400Y698500D02*
X2660100Y698500D01*
X2900000Y698500D02*
X2692400Y698500D01*
X2900000Y533400D02*
X2857500Y533400D01*
X2900000Y698500D02*
X2900000Y533400D01*
X2660100Y698500D02*
X2613221Y745379D01*
X2900000Y774700D02*
X2900000Y698500D01*
X2276243Y660400D02*
X2345800Y729957D01*
X2057400Y660400D02*
X2276243Y660400D01*
X2057400Y660400D02*
X2057400Y762000D01*
X2057400Y584200D02*
X2057400Y660400D01*
X2142600Y762000D02*
X2320400Y584200D01*
X2057400Y762000D02*
X2142600Y762000D01*
X2320400Y584200D02*
X2345800Y558800D01*
X2057400Y584200D02*
X2320400Y584200D01*
X2345800Y729957D02*
X2345800Y558800D01*
X2345800Y558800D02*
X2345800Y444500D01*
X2057400Y457200D02*
X2057400Y584200D01*
X2333100Y457200D02*
X2345800Y444500D01*
X2057400Y355600D02*
X2057400Y457200D01*
X2057400Y457200D02*
X2333100Y457200D01*
X2057400Y355600D02*
X2057400Y296210D01*
X2184400Y169210D02*
X2302810Y169210D01*
X2057400Y296210D02*
X2184400Y169210D01*
X1993900Y169210D02*
X2184400Y169210D01*
X2202400Y355600D02*
X2057400Y355600D01*
X2345800Y212200D02*
X2202400Y355600D01*
X2057400Y232710D02*
X2057400Y355600D01*
X2057400Y762000D02*
X2313757Y762000D01*
X2313757Y762000D02*
X2345800Y729957D01*
X2900000Y774700D02*
X2642543Y774700D01*
X2642543Y774700D02*
X2613221Y745379D01*
X2900000Y169500D02*
X2895600Y165100D01*
X2819400Y4660900D02*
X2900000Y4580300D01*
X2536543Y4660900D02*
X2819400Y4660900D01*
X2895600Y165100D02*
X4394200Y165100D01*
X2616200Y165100D02*
X2895600Y165100D01*
X2536543Y4660900D02*
X2612221Y4585221D01*
X2082800Y4660900D02*
X2536543Y4660900D01*
X2057400Y4635500D02*
X2082800Y4660900D01*
X1993900Y169210D02*
X2057400Y232710D01*
X592790Y169210D02*
X1993900Y169210D01*
X4546600Y6976420D02*
X4546600Y7416800D01*
X4546600Y7416800D02*
X4584700Y7454900D01*
X4584700Y7454900D02*
X4457700Y7454900D01*
X4660900Y7454900D02*
X4584700Y7454900D01*
X4546600Y6976420D02*
X4432300Y6976420D01*
X4639620Y6976420D02*
X4546600Y6976420D01*
X4432300Y7429500D02*
X4457700Y7454900D01*
X4457700Y7454900D02*
X4330700Y7454900D01*
X4432300Y6976420D02*
X4305300Y6976420D01*
X4432300Y6976420D02*
X4432300Y7429500D01*
X4305300Y6976420D02*
X4305300Y7429500D01*
X4330700Y7454900D02*
X4191000Y7454900D01*
X4305300Y7429500D02*
X4330700Y7454900D01*
X4305300Y6976420D02*
X4165600Y6976420D01*
X4165600Y7429500D02*
X4191000Y7454900D01*
X4165600Y6976420D02*
X4165600Y7429500D01*
X4191000Y7454900D02*
X4089400Y7454900D01*
X4165600Y6976420D02*
X4051300Y6976420D01*
X3975100Y7404100D02*
X3924300Y7454900D01*
X3975100Y6976420D02*
X3898900Y6976420D01*
X4051300Y6976420D02*
X3975100Y6976420D01*
X3975100Y6976420D02*
X3975100Y7404100D01*
X4051300Y6976420D02*
X4051300Y7416800D01*
X4051300Y7416800D02*
X4089400Y7454900D01*
X4089400Y7454900D02*
X3924300Y7454900D01*
X3898900Y6976420D02*
X3898900Y7429500D01*
X3898900Y6976420D02*
X3759200Y6976420D01*
X3924300Y7454900D02*
X3771900Y7454900D01*
X3898900Y7429500D02*
X3924300Y7454900D01*
X3759200Y7442200D02*
X3771900Y7454900D01*
X3759200Y6976420D02*
X3759200Y7442200D01*
X3771900Y7454900D02*
X3606800Y7454900D01*
X3759200Y6976420D02*
X3620300Y6976420D01*
X3620300Y7441400D02*
X3606800Y7454900D01*
X3620300Y6976420D02*
X3620300Y7441400D01*
X4673600Y5651500D02*
X4673600Y5829300D01*
X4368800Y5450800D02*
X4472900Y5450800D01*
X4472900Y5450800D02*
X4673600Y5651500D01*
X4673600Y5537200D02*
X4673600Y5651500D01*
X4368800Y5450800D02*
X4587200Y5450800D01*
X4587200Y5450800D02*
X4673600Y5537200D01*
X4673600Y5410200D02*
X4673600Y5537200D01*
X4368800Y5450800D02*
X4485600Y5334000D01*
X4485600Y5334000D02*
X4673600Y5334000D01*
X4673600Y5334000D02*
X4673600Y5410200D01*
X4673600Y5146000D02*
X4673600Y5334000D01*
X4409400Y5410200D02*
X4673600Y5410200D01*
X4368800Y5450800D02*
X4409400Y5410200D01*
X4673600Y5146000D02*
X4673600Y4851400D01*
X4368800Y5450800D02*
X4673600Y5146000D01*
X4368800Y5524500D02*
X4673600Y5829300D01*
X4673600Y5829300D02*
X4673600Y6959600D01*
X4368800Y5450800D02*
X4368800Y5524500D01*
X4368800Y4497800D02*
X4476300Y4497800D01*
X4668800Y4305300D02*
X4668800Y4389400D01*
X4476300Y4497800D02*
X4668800Y4305300D01*
X4668800Y4114800D02*
X4668800Y4305300D01*
X4368800Y4497800D02*
X4510500Y4497800D01*
X4510500Y4497800D02*
X4673600Y4660900D01*
X4673600Y4660900D02*
X4673600Y4851400D01*
X4673600Y4394200D02*
X4673600Y4660900D01*
X4368800Y4414800D02*
X4668800Y4114800D01*
X4368800Y4497800D02*
X4368800Y4414800D01*
X4668800Y3848100D02*
X4668800Y4114800D01*
X4368800Y4546600D02*
X4673600Y4851400D01*
X4368800Y4497800D02*
X4368800Y4546600D01*
X4443500Y3619500D02*
X4668800Y3619500D01*
X4368800Y3544800D02*
X4443500Y3619500D01*
X4668800Y3619500D02*
X4668800Y3848100D01*
X4668800Y3479800D02*
X4668800Y3619500D01*
X4368800Y3544800D02*
X4433800Y3479800D01*
X4433800Y3479800D02*
X4668800Y3479800D01*
X4668800Y3244800D02*
X4668800Y3479800D01*
X4668800Y681000D02*
X4660900Y673100D01*
X4668800Y3244800D02*
X4668800Y681000D01*
X4368800Y3544800D02*
X4668800Y3244800D01*
X4368800Y3548100D02*
X4668800Y3848100D01*
X4368800Y3544800D02*
X4368800Y3548100D01*
X252800Y661600D02*
X487750Y426650D01*
X252800Y711200D02*
X252800Y661600D01*
X487750Y426650D02*
X553800Y492700D01*
X252800Y191700D02*
X487750Y426650D01*
X553800Y492700D02*
X553800Y709800D01*
X252800Y509200D02*
X553800Y208200D01*
X252800Y711200D02*
X252800Y509200D01*
X252800Y711200D02*
X552400Y711200D01*
X252800Y711200D02*
X252800Y4220800D01*
X252800Y191700D02*
X252800Y711200D01*
X552400Y711200D02*
X553800Y709800D01*
G04 #@! TO.N,VCC*
X584200Y3848100D02*
X709540Y3722760D01*
X553800Y3848100D02*
X584200Y3848100D01*
X709540Y3722760D02*
X788200Y3801420D01*
X555580Y3568800D02*
X709540Y3722760D01*
X788200Y3801420D02*
X741520Y3848100D01*
X553800Y3848100D02*
X553800Y3898900D01*
X553800Y3568800D02*
X553800Y3848100D01*
X741520Y3848100D02*
X553800Y3848100D01*
X553800Y3898900D02*
X553800Y3994700D01*
X604600Y3949700D02*
X553800Y3898900D01*
X788200Y3949700D02*
X788200Y4038600D01*
X788200Y3801420D02*
X788200Y3949700D01*
X788200Y3949700D02*
X604600Y3949700D01*
X553800Y3994700D02*
X559200Y4000100D01*
X788200Y4038600D02*
X597700Y4038600D01*
X788200Y4038600D02*
X788200Y4242163D01*
X597700Y4038600D02*
X559200Y4000100D01*
X559200Y4000100D02*
X705900Y4146800D01*
X709130Y4146800D02*
X808090Y4245760D01*
X705900Y4146800D02*
X709130Y4146800D01*
G04 #@! TO.N,GND*
X438900Y4406900D02*
X241300Y4406900D01*
X553800Y4521800D02*
X438900Y4406900D01*
X241300Y4406900D02*
X241300Y4495800D01*
X241300Y4232300D02*
X241300Y4406900D01*
X527800Y4495800D02*
X241300Y4495800D01*
X553800Y4521800D02*
X527800Y4495800D01*
X241300Y4495800D02*
X241300Y4610100D01*
X465500Y4610100D02*
X241300Y4610100D01*
X553800Y4521800D02*
X465500Y4610100D01*
X241300Y4610100D02*
X241300Y4902200D01*
X241300Y4834300D02*
X241300Y4902200D01*
X241300Y4902200D02*
X241300Y5054600D01*
X553800Y4521800D02*
X241300Y4834300D01*
X432900Y5474800D02*
X241300Y5283200D01*
X553800Y5474800D02*
X432900Y5474800D01*
X553800Y5474800D02*
X241300Y5162300D01*
X241300Y5162300D02*
X241300Y5054600D01*
X241300Y5054600D02*
X241300Y5283200D01*
X354500Y5474800D02*
X241300Y5588000D01*
X553800Y5474800D02*
X354500Y5474800D01*
X241300Y5588000D02*
X241300Y5791200D01*
X241300Y5283200D02*
X241300Y5588000D01*
X553800Y5478700D02*
X241300Y5791200D01*
X553800Y5474800D02*
X553800Y5478700D01*
X241300Y5791200D02*
X241300Y6261100D01*
X318020Y6337820D02*
X241300Y6261100D01*
X1308900Y6324600D02*
X1295680Y6337820D01*
X241300Y6261100D02*
X241300Y6438900D01*
X1295680Y6337820D02*
X318020Y6337820D01*
X1194600Y6438900D02*
X1308900Y6324600D01*
X1308900Y6324600D02*
X1308900Y6112820D01*
X241300Y6438900D02*
X1194600Y6438900D01*
X1308900Y6527800D02*
X1308900Y6324600D01*
X1308900Y6527800D02*
X330200Y6527800D01*
X330200Y6527800D02*
X241300Y6438900D01*
X241300Y6438900D02*
X241300Y6591300D01*
X1245400Y6591300D02*
X1308900Y6527800D01*
X1308900Y6718300D02*
X1308900Y6527800D01*
X241300Y6591300D02*
X1245400Y6591300D01*
X241300Y6591300D02*
X241300Y6667500D01*
X292100Y6718300D02*
X241300Y6667500D01*
X1308900Y6718300D02*
X292100Y6718300D01*
X241300Y6667500D02*
X241300Y6819900D01*
X1207300Y6819900D02*
X1308900Y6718300D01*
X241300Y6819900D02*
X1207300Y6819900D01*
X1308900Y6908800D02*
X1308900Y6718300D01*
X330200Y6908800D02*
X241300Y6819900D01*
X241300Y6819900D02*
X241300Y6972300D01*
X1308900Y6908800D02*
X330200Y6908800D01*
X241300Y6972300D02*
X1245400Y6972300D01*
X1245400Y6972300D02*
X1308900Y6908800D01*
X241300Y6972300D02*
X241300Y7061200D01*
X1308900Y7086600D02*
X1308900Y6908800D01*
X241300Y7061200D02*
X241300Y7213600D01*
X1308900Y7086600D02*
X266700Y7086600D01*
X266700Y7086600D02*
X241300Y7061200D01*
X1308900Y7188200D02*
X1308900Y7086600D01*
X1117600Y7188200D02*
X1092200Y7213600D01*
X1308900Y7188200D02*
X1117600Y7188200D01*
X1308900Y7340600D02*
X1308900Y7188200D01*
X1092200Y7213600D02*
X1219200Y7340600D01*
X1308900Y7340600D02*
X1219200Y7340600D01*
X241300Y7213600D02*
X1092200Y7213600D01*
X241300Y7213600D02*
X241300Y7327900D01*
X1219200Y7340600D02*
X254000Y7340600D01*
X254000Y7340600D02*
X241300Y7327900D01*
X241300Y7327900D02*
X241300Y7467600D01*
X1308900Y7443000D02*
X1308900Y7340600D01*
X1308100Y7467600D02*
X1323480Y7452220D01*
X241300Y7467600D02*
X1308100Y7467600D01*
X252800Y4220800D02*
X241300Y4232300D01*
X279400Y165100D02*
X252800Y191700D01*
X252800Y4220800D02*
X553800Y4521800D01*
X588680Y165100D02*
X279400Y165100D01*
X592790Y169210D02*
X588680Y165100D01*
X4660900Y620858D02*
X4394200Y354158D01*
X4660900Y673100D02*
X4660900Y620858D01*
X4492293Y256064D02*
X4583258Y165100D01*
X4394200Y354158D02*
X4492293Y256064D01*
X4660900Y424671D02*
X4492293Y256064D01*
X4660900Y584200D02*
X4660900Y673100D01*
X4660900Y165100D02*
X4660900Y584200D01*
X4660900Y584200D02*
X4660900Y424671D01*
X4394200Y444500D02*
X4394200Y354158D01*
X4583258Y165100D02*
X4660900Y165100D01*
X4394200Y165100D02*
X4583258Y165100D01*
X4394200Y444500D02*
X4394200Y165100D01*
X4394200Y660400D02*
X4394200Y444500D01*
X4660900Y393700D02*
X4660900Y165100D01*
X4368800Y685800D02*
X4660900Y393700D01*
X4368800Y685800D02*
X4394200Y660400D01*
X2388790Y169210D02*
X2392900Y165100D01*
X2302810Y169210D02*
X2388790Y169210D01*
X4671600Y4497800D02*
X4368800Y4497800D01*
X4673600Y4495800D02*
X4671600Y4497800D01*
X2351100Y7454900D02*
X2312200Y7416000D01*
X4673600Y6959600D02*
X4673600Y7442200D01*
X4673600Y7442200D02*
X4660900Y7454900D01*
X1320800Y7454900D02*
X1308900Y7443000D01*
X1323480Y7452220D02*
X1320800Y7454900D01*
X2312200Y7416000D02*
X2275980Y7452220D01*
X2312200Y7416000D02*
X2312200Y7217720D01*
X4648200Y6985000D02*
X4639620Y6976420D01*
X4673600Y6959600D02*
X4648200Y6985000D01*
X4668800Y4389400D02*
X4673600Y4394200D01*
X4381500Y673100D02*
X4368800Y685800D01*
X4660900Y673100D02*
X4381500Y673100D01*
X2616200Y742400D02*
X2613221Y745379D01*
X2392900Y165100D02*
X2616200Y165100D01*
X2345800Y212200D02*
X2392900Y165100D01*
X553800Y208200D02*
X592790Y169210D01*
X2302810Y169210D02*
X2345800Y212200D01*
X553800Y709800D02*
X553800Y208200D01*
G04 #@! TO.N,/C*
X3829076Y844524D02*
X3910510Y844524D01*
X3632200Y1041400D02*
X3829076Y844524D01*
X3632200Y1206500D02*
X3632200Y1041400D01*
X3867800Y1600200D02*
X3867800Y1442100D01*
X3867800Y1442100D02*
X3632200Y1206500D01*
X3867800Y1600200D02*
X3867800Y1432693D01*
X3867800Y1896722D02*
X3867800Y1600200D01*
X3685510Y2318710D02*
X3685510Y2079012D01*
X3793010Y2426210D02*
X3685510Y2318710D01*
X3685510Y2079012D02*
X3867800Y1896722D01*
X3793010Y2861908D02*
X3793010Y2426210D01*
X3690510Y2964408D02*
X3793010Y2861908D01*
X3690510Y3321205D02*
X3690510Y2964408D01*
X3811515Y3442210D02*
X3690510Y3321205D01*
G04 #@! TO.N,/B*
X1253090Y3281320D02*
X1092200Y3442210D01*
X1092200Y3442210D02*
X1068445Y3442210D01*
X1253090Y3097083D02*
X1253090Y3281320D01*
X1167300Y3011293D02*
X1253090Y3097083D01*
X1167300Y2359490D02*
X1167300Y3011293D01*
X1253090Y2273700D02*
X1167300Y2359490D01*
X1129580Y2397210D02*
X1097445Y2397210D01*
X1253090Y2273700D02*
X1129580Y2397210D01*
X1167300Y1995293D02*
X1253090Y2081083D01*
X1253090Y2081083D02*
X1253090Y2273700D01*
X1167300Y1333127D02*
X1167300Y1995293D01*
X1174013Y1326413D02*
X1090217Y1410210D01*
X1174013Y1326413D02*
X1167300Y1333127D01*
X1253090Y1247337D02*
X1174013Y1326413D01*
X1253090Y1045074D02*
X1253090Y1247337D01*
X1090217Y1410210D02*
X1068445Y1410210D01*
X1033090Y394210D02*
X1033090Y825074D01*
X1033090Y825074D02*
X1253090Y1045074D01*
G04 #@! TO.N,/A*
X833090Y1327367D02*
X1004247Y1156210D01*
X833090Y3525052D02*
X1033090Y3725052D01*
X833090Y2343367D02*
X833090Y1327367D01*
X553800Y2615800D02*
X723310Y2615800D01*
X833090Y2995281D02*
X833090Y3525052D01*
X833090Y2861620D02*
X799620Y2861620D01*
X1004247Y1156210D02*
X1026019Y1156210D01*
X1033090Y3725052D02*
X1033090Y4204210D01*
X799620Y2861620D02*
X553800Y2615800D01*
X750100Y2658420D02*
X707480Y2615800D01*
X707480Y2615800D02*
X553800Y2615800D01*
X1004247Y2172210D02*
X1026019Y2172210D01*
X723310Y2615800D02*
X833090Y2506020D01*
X553800Y2615800D02*
X560657Y2615800D01*
X833090Y2343367D02*
X833090Y2506020D01*
X560657Y2615800D02*
X833090Y2343367D01*
X833090Y2594920D02*
X833090Y2861620D01*
X833090Y2861620D02*
X833090Y2995281D01*
X833090Y2995281D02*
X992300Y3154491D01*
X833090Y2506020D02*
X833090Y2594920D01*
X833090Y2343367D02*
X1004247Y2172210D01*
G04 #@! TO.N,Net-(R2-Pad1)*
X1583800Y757800D02*
X1396680Y757800D01*
X1396680Y757800D02*
X1392300Y753420D01*
G04 #@! TO.N,/B*
X552800Y1663800D02*
X552800Y1306847D01*
X552800Y1306847D02*
X1033090Y826558D01*
X1033090Y826558D02*
X1033090Y394210D01*
G04 #@! TO.N,Net-(R3-Pad1)*
X3543920Y760800D02*
X3551300Y753420D01*
X3359800Y760800D02*
X3543920Y760800D01*
G04 #@! TO.N,/C*
X3910510Y3442210D02*
X3811515Y3442210D01*
X3910510Y717210D02*
X3910510Y844524D01*
X3910510Y844524D02*
X4367800Y1301814D01*
X3910510Y2426210D02*
X3793010Y2426210D01*
X4367800Y1301814D02*
X4367800Y1639800D01*
X3910510Y717210D02*
X3910510Y394210D01*
G04 #@! TO.N,/D*
X4124380Y2836220D02*
X4110510Y2836220D01*
X3949210Y2172210D02*
X3910510Y2172210D01*
X4059610Y2282610D02*
X4110510Y2231710D01*
X4110510Y2993210D02*
X3915510Y3188210D01*
X4110510Y2556820D02*
X4110510Y2633020D01*
X4110510Y2836220D02*
X4110510Y2993210D01*
X4110510Y1327367D02*
X3939353Y1156210D01*
X4327580Y2633020D02*
X4368800Y2591800D01*
X4333820Y2556820D02*
X4368800Y2591800D01*
X4368800Y2591800D02*
X4059610Y2282610D01*
X4110510Y2633020D02*
X4327580Y2633020D01*
X4110510Y1771419D02*
X4092800Y1753709D01*
X4110510Y2231710D02*
X4110510Y2556820D01*
X4092800Y1525891D02*
X4110510Y1508181D01*
X4110510Y2993210D02*
X4110510Y3525052D01*
X4368800Y2591800D02*
X4124380Y2836220D01*
X4059610Y2282610D02*
X3949210Y2172210D01*
X4368800Y2591800D02*
X4251380Y2709220D01*
X4110510Y2709220D02*
X4110510Y2836220D01*
X4092800Y1753709D02*
X4092800Y1525891D01*
X4251380Y2709220D02*
X4110510Y2709220D01*
X3910510Y3725052D02*
X3910510Y4204210D01*
X4110510Y3525052D02*
X3910510Y3725052D01*
X4110510Y1508181D02*
X4110510Y1327367D01*
X4110510Y2556820D02*
X4333820Y2556820D01*
X4110510Y2231710D02*
X4110510Y1771419D01*
X3939353Y1156210D02*
X3917581Y1156210D01*
X4110510Y2633020D02*
X4110510Y2709220D01*
G04 #@! TO.N,Net-(R12-Pad1)*
X3544920Y3553800D02*
X3551300Y3547420D01*
X3360800Y3553800D02*
X3544920Y3553800D01*
G04 #@! TO.N,Net-(R14-Pad1)*
X1392300Y3801420D02*
X1579420Y3801420D01*
X1579420Y3801420D02*
X1583800Y3805800D01*
G04 #@! TO.N,Net-(U1B-D)*
X2490000Y6709720D02*
X2604300Y6595420D01*
X2858300Y5960420D02*
X2604300Y5960420D01*
X2604300Y6595420D02*
X2604300Y5960420D01*
X2350300Y6709720D02*
X2490000Y6709720D01*
G04 #@! TO.N,+5V*
X3620300Y6214420D02*
X3874300Y6214420D01*
X2591600Y5198420D02*
X2604300Y5211120D01*
X3620300Y5452420D02*
X3874300Y5452420D01*
X2871000Y5198420D02*
X2858300Y5211120D01*
X3556800Y5198420D02*
X3620300Y5261920D01*
X2871000Y5198420D02*
X3556800Y5198420D01*
X3620300Y6214420D02*
X3429800Y6214420D01*
X2858300Y5211120D02*
X2858300Y5706420D01*
X3429800Y6214420D02*
X3175800Y6468420D01*
X2591600Y5198420D02*
X2871000Y5198420D01*
X1334300Y5820720D02*
X1308900Y5846120D01*
X1588300Y5198420D02*
X2591600Y5198420D01*
X3874300Y6214420D02*
X4128300Y6214420D01*
X2604300Y5452420D02*
X2858300Y5452420D01*
X1105700Y5198420D02*
X1588300Y5198420D01*
X2617000Y5211120D02*
X2604300Y5211120D01*
X1588300Y5439720D02*
X1550200Y5439720D01*
X3620300Y5261920D02*
X3620300Y5452420D01*
X2858300Y5452420D02*
X2617000Y5211120D01*
X2604300Y5211120D02*
X2604300Y5452420D01*
X1588300Y5198420D02*
X1588300Y5439720D01*
X3175800Y6468420D02*
X2858300Y6468420D01*
X1334300Y5655620D02*
X1334300Y5820720D01*
X1550200Y5439720D02*
X1334300Y5655620D01*
G04 #@! TO.N,Net-(U1A-D)*
X3620300Y5706420D02*
X3874300Y5706420D01*
D22*
X2350300Y5947720D02*
X2350859Y5947720D01*
D21*
G04 #@! TO.N,/A_logic*
X3620300Y6468420D02*
X3861600Y6468420D01*
G04 #@! TO.N,/A_n_logic*
X3620300Y6722420D02*
X3861600Y6722420D01*
G04 #@! TO.N,GND*
X2350300Y7179620D02*
X2312200Y7217720D01*
X2350300Y6963720D02*
X2350300Y7179620D01*
G04 #@! TO.N,/B_n_logic*
X1880400Y5439720D02*
X1858200Y5461920D01*
X2350300Y5439720D02*
X2029357Y5439720D01*
X1858200Y5461920D02*
X1858200Y7227220D01*
X2029357Y5439720D02*
X1880400Y5439720D01*
G04 #@! TO.N,/B_logic*
X2858300Y6722420D02*
X2760143Y6722420D01*
X2606021Y6876541D02*
X2606021Y6949299D01*
X2760143Y6722420D02*
X2606021Y6876541D01*
G04 #@! TO.N,VCC*
X3359800Y4062800D02*
X3259380Y4062800D01*
X1681580Y4313800D02*
X1791500Y4423720D01*
X1583800Y1265800D02*
X1787120Y1265800D01*
X3125000Y3422463D02*
X3247663Y3299800D01*
X1583800Y2281800D02*
X1583800Y2027800D01*
X3125000Y3928420D02*
X3125000Y3422463D01*
X1696937Y2027800D02*
X1583800Y2027800D01*
X3360800Y3045800D02*
X3360800Y3299800D01*
X1791500Y3534720D02*
X1791500Y3965237D01*
X3246663Y2284800D02*
X3359800Y2284800D01*
X1787120Y1265800D02*
X1788800Y1264120D01*
X3220280Y3045800D02*
X3125000Y2950520D01*
X3125000Y3217220D02*
X3125000Y2950520D01*
X1583800Y1265800D02*
X1583800Y1011800D01*
X1701294Y2281800D02*
X1788800Y2369306D01*
X3359800Y2030800D02*
X3359800Y2284800D01*
X1696937Y4059800D02*
X1583800Y4059800D01*
X1583800Y4313800D02*
X1681580Y4313800D01*
X3247663Y3299800D02*
X3360800Y3299800D01*
X3125000Y4220520D02*
X3125000Y4080820D01*
X3221280Y2030800D02*
X3125000Y1934520D01*
X3360800Y3045800D02*
X3189380Y3217220D01*
X1583800Y4172937D02*
X1791500Y3965237D01*
X1788800Y2369306D02*
X1788800Y2455220D01*
X3359800Y2030800D02*
X3202080Y2188520D01*
X788200Y4242163D02*
X950247Y4404210D01*
X553800Y3568800D02*
X555580Y3568800D01*
X1105700Y4429610D02*
X1105700Y4944420D01*
X1355320Y4313800D02*
X1583800Y4313800D01*
X3125000Y4322120D02*
X3130320Y4316800D01*
X3360800Y3045800D02*
X3220280Y3045800D01*
X3125000Y1934520D02*
X3125000Y1261420D01*
X1788800Y2734620D02*
X1788800Y2953220D01*
X3259380Y4062800D02*
X3125000Y3928420D01*
X950247Y4404210D02*
X1080300Y4404210D01*
X3359800Y1014800D02*
X3359800Y1268800D01*
X3125000Y3422463D02*
X3125000Y3217220D01*
X3125000Y4982520D02*
X3125000Y4322120D01*
X1080300Y4404210D02*
X1264910Y4404210D01*
X3359800Y4062800D02*
X3202080Y4220520D01*
X1701294Y3297800D02*
X1791500Y3388005D01*
X3125000Y2950520D02*
X3125000Y2544120D01*
X3125000Y2188520D02*
X3125000Y1934520D01*
X3202080Y4220520D02*
X3125000Y4220520D01*
X1788800Y1264120D02*
X1788800Y1731320D01*
X1583800Y4313800D02*
X1583800Y4172937D01*
X1791500Y4423720D02*
X1791500Y4982520D01*
X1788800Y2455220D02*
X1788800Y2734620D01*
X1788800Y1935937D02*
X1696937Y2027800D01*
X1583800Y3297800D02*
X1583800Y3043800D01*
X3202080Y2188520D02*
X3125000Y2188520D01*
X3125000Y1261420D02*
X3352420Y1261420D01*
X3125000Y2406463D02*
X3246663Y2284800D01*
X1788800Y2175820D02*
X1788800Y1731320D01*
X1791500Y3965237D02*
X1696937Y4059800D01*
X3359800Y4062800D02*
X3359800Y4316800D01*
X3359800Y2030800D02*
X3221280Y2030800D01*
X1791500Y3388005D02*
X1791500Y3534720D01*
X1791500Y2737320D02*
X1788800Y2734620D01*
X3359800Y4316800D02*
X3125000Y4082000D01*
X1788800Y1731320D02*
X1788800Y1935937D01*
X1698220Y3043800D02*
X1583800Y3043800D01*
X3189380Y3217220D02*
X3125000Y3217220D01*
X1791500Y4233220D02*
X1791500Y4423720D01*
X3125000Y4080820D02*
X3125000Y3928420D01*
X1264910Y4404210D02*
X1355320Y4313800D01*
X3130320Y4316800D02*
X3359800Y4316800D01*
X1731820Y3191820D02*
X1791500Y3191820D01*
X1080300Y4404210D02*
X1105700Y4429610D01*
X1788800Y2953220D02*
X1698220Y3043800D01*
X3352420Y1261420D02*
X3359800Y1268800D01*
X1583800Y4059800D02*
X1757220Y4233220D01*
X3125000Y2544120D02*
X3125000Y2188520D01*
X3125000Y4322120D02*
X3125000Y4220520D01*
X1791500Y3534720D02*
X1791500Y3191820D01*
X1757220Y4233220D02*
X1791500Y4233220D01*
X1791500Y3965237D02*
X1791500Y4233220D01*
X1583800Y3043800D02*
X1731820Y3191820D01*
X1788800Y2455220D02*
X1788800Y2175820D01*
X1583800Y2281800D02*
X1701294Y2281800D01*
X3125000Y2544120D02*
X3125000Y2406463D01*
X1583800Y2027800D02*
X1731820Y2175820D01*
X1731820Y2175820D02*
X1788800Y2175820D01*
X1791500Y3191820D02*
X1791500Y2737320D01*
X1583800Y4313800D02*
X1583800Y4059800D01*
X3125000Y4082000D02*
X3125000Y4080820D01*
X1791500Y4982520D02*
X3125000Y4982520D01*
X1583800Y3297800D02*
X1701294Y3297800D01*
G04 #@! TO.N,/DIRECTION_upper*
X2058200Y6455720D02*
X2350300Y6455720D01*
X2058200Y5693720D02*
X2058200Y6455720D01*
X2350300Y5693720D02*
X2058200Y5693720D01*
X2058200Y6455720D02*
X2058200Y7217720D01*
G04 #@! TO.N,/CLOCK_upper*
X3074200Y6214420D02*
X3328200Y5960420D01*
X3328200Y5960420D02*
X3620300Y5960420D01*
X2858300Y6214420D02*
X3074200Y6214420D01*
G04 #@! TO.N,Net-(U11-ADJ)*
X800900Y5846120D02*
X800900Y6112820D01*
X1105700Y5541320D02*
X800900Y5846120D01*
X1105700Y5452420D02*
X1105700Y5541320D01*
G04 #@! TO.N,Net-(R69-Pad1)*
X3543920Y1776800D02*
X3551300Y1769420D01*
X3359800Y1776800D02*
X3543920Y1776800D01*
G04 #@! TO.N,Net-(R70-Pad1)*
X3359800Y2538800D02*
X3543920Y2538800D01*
X3543920Y2538800D02*
X3551300Y2531420D01*
G04 #@! TO.N,Net-(R5-Pad1)*
X1392300Y2531420D02*
X1579420Y2531420D01*
X1579420Y2531420D02*
X1583800Y2535800D01*
G04 #@! TO.N,Net-(R6-Pad1)*
X1392300Y1769420D02*
X1579420Y1769420D01*
X1579420Y1769420D02*
X1583800Y1773800D01*
G04 #@! TO.N,Net-(R9-Pad1)*
X1392300Y3547420D02*
X1579420Y3547420D01*
X1579420Y3547420D02*
X1583800Y3551800D01*
G04 #@! TO.N,Net-(R39-Pad1)*
X1579420Y1515420D02*
X1583800Y1519800D01*
X1392300Y1515420D02*
X1579420Y1515420D01*
G04 #@! TO.N,Net-(R54-Pad1)*
X1579420Y2785420D02*
X1583800Y2789800D01*
X1392300Y2785420D02*
X1579420Y2785420D01*
G04 #@! TO.N,Net-(R55-Pad1)*
X1579420Y4563420D02*
X1583800Y4567800D01*
X1392300Y4563420D02*
X1579420Y4563420D01*
G04 #@! TO.N,Net-(R65-Pad1)*
X3359800Y3808800D02*
X3543920Y3808800D01*
X3543920Y3808800D02*
X3551300Y3801420D01*
G04 #@! TO.N,Net-(R66-Pad1)*
X3359800Y4570800D02*
X3543920Y4570800D01*
X3543920Y4570800D02*
X3551300Y4563420D01*
G04 #@! TO.N,Net-(R67-Pad1)*
X3360800Y2791800D02*
X3544920Y2791800D01*
X3544920Y2791800D02*
X3551300Y2785420D01*
G04 #@! TO.N,Net-(R72-Pad1)*
X3543920Y1522800D02*
X3551300Y1515420D01*
X3359800Y1522800D02*
X3543920Y1522800D01*
G04 #@! TD*
M02*
