M48
; DRILL file {KiCad 7.0.5} date Thu Sep 26 00:30:15 2024
; FORMAT={-:-/ absolute / inch / decimal}
; #@! TF.CreationDate,2024-09-26T00:30:15-04:00
; #@! TF.GenerationSoftware,Kicad,Pcbnew,7.0.5
; #@! TF.FileFunction,Plated,1,2,PTH
FMAT,2
INCH
; #@! TA.AperFunction,Plated,PTH,ComponentDrill
T1C0.0276
; #@! TA.AperFunction,Plated,PTH,ComponentDrill
T2C0.0315
; #@! TA.AperFunction,Plated,PTH,ViaDrill
T3C0.0390
; #@! TA.AperFunction,Plated,PTH,ComponentDrill
T4C0.0433
; #@! TA.AperFunction,Plated,PTH,ViaDrill
T5C0.0945
; #@! TA.AperFunction,Plated,PTH,ViaDrill
T6C0.1575
%
G90
G05
T1
X0.8507Y2.3941
X0.8507Y2.2891
X0.9422Y1.6427
X0.9422Y1.3427
X0.9422Y1.2427
X0.9422Y0.9427
X0.9422Y0.8427
X0.9422Y0.5427
X0.9422Y0.4427
X0.9422Y0.1427
X1.0507Y2.3941
X1.0507Y2.2891
X1.0836Y1.7841
X1.0836Y1.4841
X1.0836Y1.3841
X1.0836Y1.0841
X1.0836Y0.9841
X1.0836Y0.6841
X1.0836Y0.5841
X1.0836Y0.2841
X1.5607Y2.3341
X1.5607Y2.1341
X1.9336Y1.7841
X1.9336Y1.4841
X1.9336Y1.3841
X1.9336Y1.0841
X1.9336Y0.9841
X1.9336Y0.6841
X1.9336Y0.5841
X1.9336Y0.2841
X2.0607Y2.4341
X2.0607Y2.2341
X2.075Y1.6427
X2.075Y1.3427
X2.075Y1.2427
X2.075Y0.9427
X2.075Y0.8427
X2.075Y0.5427
X2.075Y0.4427
X2.075Y0.1427
T2
X1.159Y1.7859
X1.159Y1.6859
X1.159Y1.5859
X1.159Y1.4859
X1.159Y1.3859
X1.159Y1.2859
X1.159Y1.1859
X1.159Y1.0859
X1.159Y0.9859
X1.159Y0.8859
X1.159Y0.7859
X1.159Y0.6859
X1.159Y0.5859
X1.159Y0.4859
X1.159Y0.3859
X1.159Y0.2859
X1.1607Y2.7291
X1.1607Y2.6291
X1.1607Y2.5291
X1.1607Y2.4291
X1.1607Y2.3291
X1.1607Y2.2291
X1.1607Y2.1291
X1.459Y1.7859
X1.459Y1.6859
X1.459Y1.5859
X1.459Y1.4859
X1.459Y1.3859
X1.459Y1.2859
X1.459Y1.1859
X1.459Y1.0859
X1.459Y0.9859
X1.459Y0.8859
X1.459Y0.7859
X1.459Y0.6859
X1.459Y0.5859
X1.459Y0.4859
X1.459Y0.3859
X1.459Y0.2859
X1.4607Y2.7291
X1.4607Y2.6291
X1.4607Y2.5291
X1.4607Y2.4291
X1.4607Y2.3291
X1.4607Y2.2291
X1.4607Y2.1291
X1.5582Y1.787
X1.5582Y1.687
X1.5582Y1.587
X1.5582Y1.487
X1.5582Y0.987
X1.5582Y0.887
X1.5582Y0.787
X1.5582Y0.687
X1.5582Y0.587
X1.5582Y0.487
X1.5582Y0.387
X1.5582Y0.287
X1.5586Y1.3866
X1.5586Y1.2866
X1.5586Y1.1866
X1.5586Y1.0866
X1.6607Y2.7341
X1.6607Y2.6341
X1.6607Y2.5341
X1.6607Y2.4341
X1.6607Y2.3341
X1.6607Y2.2341
X1.6607Y2.1341
X1.8582Y1.787
X1.8582Y1.687
X1.8582Y1.587
X1.8582Y1.487
X1.8582Y0.987
X1.8582Y0.887
X1.8582Y0.787
X1.8582Y0.687
X1.8582Y0.587
X1.8582Y0.487
X1.8582Y0.387
X1.8582Y0.287
X1.8586Y1.3866
X1.8586Y1.2866
X1.8586Y1.1866
X1.8586Y1.0866
X1.9607Y2.7341
X1.9607Y2.6341
X1.9607Y2.5341
X1.9607Y2.4341
X1.9607Y2.3341
X1.9607Y2.2341
X1.9607Y2.1341
T3
X1.2707Y2.8291
X1.3457Y2.8291
X1.4457Y2.8291
X1.5086Y1.7366
X1.5086Y1.6366
X1.5086Y1.5366
X1.5086Y1.3366
X1.5086Y1.2366
X1.5086Y1.1366
X1.5086Y0.9366
X1.5086Y0.8366
X1.5086Y0.7366
X1.5086Y0.5366
X1.5086Y0.4366
X1.5086Y0.3366
X1.5457Y2.8291
X1.5607Y2.7191
X1.5607Y2.2341
X1.6457Y2.8291
X2.0557Y2.6341
X2.0557Y2.5341
X2.0607Y2.1341
X2.1607Y2.4341
T4
X0.9707Y2.1341
X0.9707Y2.0341
X0.9707Y1.9341
T5
X0.7531Y0.6425
X0.7535Y1.3925
X0.7535Y1.0174
X2.255Y0.6331
X2.2554Y1.3831
X2.2554Y1.0079
T6
X0.7535Y2.1429
X0.7535Y1.7677
X0.7535Y0.267
X2.2554Y2.1335
X2.2554Y1.7583
X2.2554Y0.2575
T0
M30
