M48
; DRILL file {KiCad 7.0.5} date Thu Sep 26 00:32:00 2024
; FORMAT={-:-/ absolute / inch / decimal}
; #@! TF.CreationDate,2024-09-26T00:32:00-04:00
; #@! TF.GenerationSoftware,Kicad,Pcbnew,7.0.5
; #@! TF.FileFunction,Plated,1,2,PTH
FMAT,2
INCH
; #@! TA.AperFunction,Plated,PTH,ComponentDrill
T1C0.0276
; #@! TA.AperFunction,Plated,PTH,ComponentDrill
T2C0.0315
; #@! TA.AperFunction,Plated,PTH,ViaDrill
T3C0.0390
; #@! TA.AperFunction,Plated,PTH,ComponentDrill
T4C0.0433
; #@! TA.AperFunction,Plated,PTH,ViaDrill
T5C0.0945
; #@! TA.AperFunction,Plated,PTH,ViaDrill
T6C0.1575
%
G90
G05
T1
X0.3153Y2.4066
X0.3153Y2.3016
X0.4067Y1.6552
X0.4067Y1.3552
X0.4067Y1.2552
X0.4067Y0.9552
X0.4067Y0.8552
X0.4067Y0.5552
X0.4067Y0.4552
X0.4067Y0.1552
X0.5153Y2.4066
X0.5153Y2.3016
X0.5481Y1.7966
X0.5481Y1.4966
X0.5481Y1.3966
X0.5481Y1.0966
X0.5481Y0.9966
X0.5481Y0.6966
X0.5481Y0.5966
X0.5481Y0.2966
X1.0253Y2.3466
X1.0253Y2.1466
X1.3981Y1.7966
X1.3981Y1.4966
X1.3981Y1.3966
X1.3981Y1.0966
X1.3981Y0.9966
X1.3981Y0.6966
X1.3981Y0.5966
X1.3981Y0.2966
X1.5253Y2.4466
X1.5253Y2.2466
X1.5396Y1.6552
X1.5396Y1.3552
X1.5396Y1.2552
X1.5396Y0.9552
X1.5396Y0.8552
X1.5396Y0.5552
X1.5396Y0.4552
X1.5396Y0.1552
T2
X0.6235Y1.7983
X0.6235Y1.6983
X0.6235Y1.5983
X0.6235Y1.4983
X0.6235Y1.3983
X0.6235Y1.2983
X0.6235Y1.1983
X0.6235Y1.0983
X0.6235Y0.9983
X0.6235Y0.8983
X0.6235Y0.7983
X0.6235Y0.6983
X0.6235Y0.5983
X0.6235Y0.4983
X0.6235Y0.3983
X0.6235Y0.2983
X0.6253Y2.7416
X0.6253Y2.6416
X0.6253Y2.5416
X0.6253Y2.4416
X0.6253Y2.3416
X0.6253Y2.2416
X0.6253Y2.1416
X0.9235Y1.7983
X0.9235Y1.6983
X0.9235Y1.5983
X0.9235Y1.4983
X0.9235Y1.3983
X0.9235Y1.2983
X0.9235Y1.1983
X0.9235Y1.0983
X0.9235Y0.9983
X0.9235Y0.8983
X0.9235Y0.7983
X0.9235Y0.6983
X0.9235Y0.5983
X0.9235Y0.4983
X0.9235Y0.3983
X0.9235Y0.2983
X0.9253Y2.7416
X0.9253Y2.6416
X0.9253Y2.5416
X0.9253Y2.4416
X0.9253Y2.3416
X0.9253Y2.2416
X0.9253Y2.1416
X1.0228Y1.7995
X1.0228Y1.6995
X1.0228Y1.5995
X1.0228Y1.4995
X1.0228Y0.9995
X1.0228Y0.8995
X1.0228Y0.7995
X1.0228Y0.6995
X1.0228Y0.5995
X1.0228Y0.4995
X1.0228Y0.3995
X1.0228Y0.2995
X1.0231Y1.3991
X1.0231Y1.2991
X1.0231Y1.1991
X1.0231Y1.0991
X1.1253Y2.7466
X1.1253Y2.6466
X1.1253Y2.5466
X1.1253Y2.4466
X1.1253Y2.3466
X1.1253Y2.2466
X1.1253Y2.1466
X1.3228Y1.7995
X1.3228Y1.6995
X1.3228Y1.5995
X1.3228Y1.4995
X1.3228Y0.9995
X1.3228Y0.8995
X1.3228Y0.7995
X1.3228Y0.6995
X1.3228Y0.5995
X1.3228Y0.4995
X1.3228Y0.3995
X1.3228Y0.2995
X1.3231Y1.3991
X1.3231Y1.2991
X1.3231Y1.1991
X1.3231Y1.0991
X1.4253Y2.7466
X1.4253Y2.6466
X1.4253Y2.5466
X1.4253Y2.4466
X1.4253Y2.3466
X1.4253Y2.2466
X1.4253Y2.1466
T3
X0.7353Y2.8416
X0.8103Y2.8416
X0.9103Y2.8416
X0.9731Y1.7491
X0.9731Y1.6491
X0.9731Y1.5491
X0.9731Y1.3491
X0.9731Y1.2491
X0.9731Y1.1491
X0.9731Y0.9491
X0.9731Y0.8491
X0.9731Y0.7491
X0.9731Y0.5491
X0.9731Y0.4491
X0.9731Y0.3491
X1.0103Y2.8416
X1.0253Y2.7316
X1.0253Y2.2466
X1.1103Y2.8416
X1.5203Y2.6466
X1.5203Y2.5466
X1.5253Y2.1466
X1.6253Y2.4466
T4
X0.4353Y2.1466
X0.4353Y2.0466
X0.4353Y1.9466
T5
X0.2176Y0.655
X0.218Y1.405
X0.218Y1.0298
X1.7196Y0.6456
X1.72Y1.3956
X1.72Y1.0204
T6
X0.218Y2.1554
X0.218Y1.7802
X0.218Y0.2794
X1.72Y2.146
X1.72Y1.7708
X1.72Y0.27
T0
M30
