M48
; DRILL file {KiCad 7.0.5} date Wed Sep 25 23:33:59 2024
; FORMAT={-:-/ absolute / inch / decimal}
; #@! TF.CreationDate,2024-09-25T23:33:59-04:00
; #@! TF.GenerationSoftware,Kicad,Pcbnew,7.0.5
; #@! TF.FileFunction,Plated,1,2,PTH
FMAT,2
INCH
; #@! TA.AperFunction,Plated,PTH,ComponentDrill
T1C0.0276
; #@! TA.AperFunction,Plated,PTH,ComponentDrill
T2C0.0315
; #@! TA.AperFunction,Plated,PTH,ViaDrill
T3C0.0390
; #@! TA.AperFunction,Plated,PTH,ComponentDrill
T4C0.0433
; #@! TA.AperFunction,Plated,PTH,ViaDrill
T5C0.0945
; #@! TA.AperFunction,Plated,PTH,ViaDrill
T6C0.1575
%
G90
G05
T1
X0.8086Y1.8936
X0.8086Y0.7607
X0.95Y1.7522
X0.95Y0.9022
X1.1086Y1.8936
X1.1086Y0.7607
X1.2086Y1.8936
X1.2086Y0.7607
X1.25Y1.7522
X1.25Y0.9022
X1.35Y1.7522
X1.35Y0.9022
X1.5086Y1.8936
X1.5086Y0.7607
X1.6086Y1.8936
X1.6086Y0.7607
X1.65Y1.7522
X1.65Y0.9022
X1.75Y1.7522
X1.75Y0.9022
X1.9086Y1.8936
X1.9086Y0.7607
X2.0086Y1.8936
X2.0086Y0.7607
X2.05Y1.7522
X2.05Y0.9022
X2.15Y1.7522
X2.15Y0.9022
X2.3086Y1.8936
X2.3086Y0.7607
X2.45Y1.7522
X2.45Y0.9022
X2.8Y1.275
X2.9Y0.775
X2.955Y1.985
X2.955Y1.785
X3.0Y1.275
X3.06Y1.985
X3.06Y1.785
X3.1Y0.775
T2
X0.9517Y1.6768
X0.9517Y1.3768
X0.9529Y1.2776
X0.9529Y0.9776
X1.0517Y1.6768
X1.0517Y1.3768
X1.0529Y1.2776
X1.0529Y0.9776
X1.1517Y1.6768
X1.1517Y1.3768
X1.1529Y1.2776
X1.1529Y0.9776
X1.2517Y1.6768
X1.2517Y1.3768
X1.2529Y1.2776
X1.2529Y0.9776
X1.3517Y1.6768
X1.3517Y1.3768
X1.3529Y1.2776
X1.3529Y0.9776
X1.4517Y1.6768
X1.4517Y1.3768
X1.4529Y1.2776
X1.4529Y0.9776
X1.5517Y1.6768
X1.5517Y1.3768
X1.5529Y1.2776
X1.5529Y0.9776
X1.6517Y1.6768
X1.6517Y1.3768
X1.6529Y1.2776
X1.6529Y0.9776
X1.7517Y1.6768
X1.7517Y1.3768
X1.7525Y1.2772
X1.7525Y0.9772
X1.8517Y1.6768
X1.8517Y1.3768
X1.8525Y1.2772
X1.8525Y0.9772
X1.9517Y1.6768
X1.9517Y1.3768
X1.9525Y1.2772
X1.9525Y0.9772
X2.0517Y1.6768
X2.0517Y1.3768
X2.0525Y1.2772
X2.0525Y0.9772
X2.1517Y1.6768
X2.1517Y1.3768
X2.1529Y1.2776
X2.1529Y0.9776
X2.2517Y1.6768
X2.2517Y1.3768
X2.2529Y1.2776
X2.2529Y0.9776
X2.3517Y1.6768
X2.3517Y1.3768
X2.3529Y1.2776
X2.3529Y0.9776
X2.4517Y1.6768
X2.4517Y1.3768
X2.4529Y1.2776
X2.4529Y0.9776
X2.795Y1.675
X2.795Y1.375
X2.8Y1.175
X2.8Y0.875
X2.895Y1.675
X2.895Y1.375
X2.9Y1.175
X2.9Y0.875
X2.995Y1.675
X2.995Y1.375
X3.0Y1.175
X3.0Y0.875
X3.095Y1.675
X3.095Y1.375
X3.1Y1.175
X3.1Y0.875
X3.195Y1.675
X3.195Y1.375
X3.2Y1.175
X3.2Y0.875
X3.295Y1.675
X3.295Y1.375
X3.3Y1.175
X3.3Y0.875
X3.395Y1.675
X3.395Y1.375
X3.4Y1.175
X3.4Y0.875
T3
X1.0025Y1.3272
X1.1025Y1.3272
X1.2025Y1.3272
X1.4025Y1.3272
X1.5025Y1.3272
X1.6025Y1.3272
X1.8025Y1.3272
X1.9025Y1.3272
X2.0025Y1.3272
X2.2025Y1.3272
X2.3025Y1.3272
X2.4025Y1.3272
X2.8Y0.775
X2.9Y1.275
X3.1Y0.675
X3.2Y0.78
X3.3Y0.78
X3.385Y1.275
X3.495Y1.565
X3.495Y1.49
X3.495Y1.39
X3.495Y1.29
X3.495Y1.19
T4
X2.6Y1.865
X2.7Y1.865
X2.8Y1.865
T5
X1.299Y0.5807
X1.3084Y2.0827
X1.6738Y0.5803
X1.6832Y2.0823
X2.049Y0.5803
X2.0584Y2.0823
T6
X0.9234Y0.5803
X0.9328Y2.0823
X2.4242Y0.5803
X2.4336Y2.0823
X2.7994Y0.5803
X2.8088Y2.0823
T0
M30
