G04 #@! TF.GenerationSoftware,KiCad,Pcbnew,7.0.5*
G04 #@! TF.CreationDate,2024-09-26T00:30:17-04:00*
G04 #@! TF.ProjectId,stepper_motor_controller_4_for_cnc,73746570-7065-4725-9f6d-6f746f725f63,rev?*
G04 #@! TF.SameCoordinates,Original*
G04 #@! TF.FileFunction,Copper,L2,Bot*
G04 #@! TF.FilePolarity,Positive*
%FSLAX45Y45*%
G04 Gerber Fmt 4.5, Leading zero omitted, Abs format (unit mm)*
G04 Created by KiCad (PCBNEW 7.0.5) date 2024-09-26 00:30:17*
%MOMM*%
%LPD*%
G01*
G04 APERTURE LIST*
G04 Aperture macros list*
%AMHorizOval*
0 Thick line with rounded ends*
0 $1 width*
0 $2 $3 position (X,Y) of the first rounded end (center of the circle)*
0 $4 $5 position (X,Y) of the second rounded end (center of the circle)*
0 Add line between two ends*
20,1,$1,$2,$3,$4,$5,0*
0 Add two circle primitives to create the rounded ends*
1,1,$1,$2,$3*
1,1,$1,$4,$5*%
G04 Aperture macros list end*
G04 #@! TA.AperFunction,ComponentPad*
%ADD10R,1.600000X1.600000*%
G04 #@! TD*
G04 #@! TA.AperFunction,ComponentPad*
%ADD11O,1.600000X1.600000*%
G04 #@! TD*
G04 #@! TA.AperFunction,ComponentPad*
%ADD12C,1.400000*%
G04 #@! TD*
G04 #@! TA.AperFunction,ComponentPad*
%ADD13HorizOval,1.400000X0.000000X0.000000X0.000000X0.000000X0*%
G04 #@! TD*
G04 #@! TA.AperFunction,ComponentPad*
%ADD14O,1.400000X1.400000*%
G04 #@! TD*
G04 #@! TA.AperFunction,ComponentPad*
%ADD15R,2.000000X1.905000*%
G04 #@! TD*
G04 #@! TA.AperFunction,ComponentPad*
%ADD16O,2.000000X1.905000*%
G04 #@! TD*
G04 #@! TA.AperFunction,ComponentPad*
%ADD17HorizOval,1.400000X0.000000X0.000000X0.000000X0.000000X0*%
G04 #@! TD*
G04 #@! TA.AperFunction,ViaPad*
%ADD18C,1.000000*%
G04 #@! TD*
G04 #@! TA.AperFunction,ViaPad*
%ADD19C,3.000000*%
G04 #@! TD*
G04 #@! TA.AperFunction,ViaPad*
%ADD20C,4.500000*%
G04 #@! TD*
G04 #@! TA.AperFunction,Conductor*
%ADD21C,1.500000*%
G04 #@! TD*
G04 #@! TA.AperFunction,Conductor*
%ADD22C,1.000000*%
G04 #@! TD*
G04 APERTURE END LIST*
D10*
G04 #@! TO.P,U3,1*
G04 #@! TO.N,/B_n_logic*
X3710290Y5407996D03*
D11*
G04 #@! TO.P,U3,2*
G04 #@! TO.N,/DIRECTION_upper*
X3710290Y5661996D03*
G04 #@! TO.P,U3,3*
G04 #@! TO.N,Net-(U1A-D)*
X3710290Y5915996D03*
G04 #@! TO.P,U3,4*
G04 #@! TO.N,/A_logic*
X3710290Y6169996D03*
G04 #@! TO.P,U3,5*
G04 #@! TO.N,/DIRECTION_upper*
X3710290Y6423996D03*
G04 #@! TO.P,U3,6*
G04 #@! TO.N,Net-(U1B-D)*
X3710290Y6677996D03*
G04 #@! TO.P,U3,7,GND*
G04 #@! TO.N,GND*
X3710290Y6931996D03*
G04 #@! TO.P,U3,8*
G04 #@! TO.N,N/C*
X2948290Y6931996D03*
G04 #@! TO.P,U3,9*
X2948290Y6677996D03*
G04 #@! TO.P,U3,10*
X2948290Y6423996D03*
G04 #@! TO.P,U3,11*
X2948290Y6169996D03*
G04 #@! TO.P,U3,12*
X2948290Y5915996D03*
G04 #@! TO.P,U3,13*
X2948290Y5661996D03*
G04 #@! TO.P,U3,14,VCC*
G04 #@! TO.N,+5V*
X2948290Y5407996D03*
G04 #@! TD*
D12*
G04 #@! TO.P,R72,1*
G04 #@! TO.N,Net-(R72-Pad1)*
X4911290Y1483696D03*
D13*
G04 #@! TO.P,R72,2*
G04 #@! TO.N,/D*
X5270500Y1124486D03*
G04 #@! TD*
D12*
G04 #@! TO.P,R70,1*
G04 #@! TO.N,Net-(R70-Pad1)*
X4911290Y2499696D03*
D13*
G04 #@! TO.P,R70,2*
G04 #@! TO.N,/D*
X5270500Y2140486D03*
G04 #@! TD*
D12*
G04 #@! TO.P,R69,1*
G04 #@! TO.N,Net-(R69-Pad1)*
X4911290Y1737696D03*
D13*
G04 #@! TO.P,R69,2*
G04 #@! TO.N,/C*
X5270500Y1378486D03*
G04 #@! TD*
D12*
G04 #@! TO.P,R3,1*
G04 #@! TO.N,Net-(R3-Pad1)*
X4911290Y721696D03*
D13*
G04 #@! TO.P,R3,2*
G04 #@! TO.N,/C*
X5270500Y362485D03*
G04 #@! TD*
D12*
G04 #@! TO.P,R37,1*
G04 #@! TO.N,+5V*
X2668890Y5814396D03*
D14*
G04 #@! TO.P,R37,2*
G04 #@! TO.N,Net-(U11-ADJ)*
X2160890Y5814396D03*
G04 #@! TD*
D12*
G04 #@! TO.P,R38,1*
G04 #@! TO.N,Net-(U11-ADJ)*
X2160890Y6081096D03*
D14*
G04 #@! TO.P,R38,2*
G04 #@! TO.N,GND*
X2668890Y6081096D03*
G04 #@! TD*
D10*
G04 #@! TO.P,U10,1,OA*
G04 #@! TO.N,Net-(R65-Pad1)*
X4719790Y3777076D03*
D11*
G04 #@! TO.P,U10,2,VCC*
G04 #@! TO.N,VCC*
X4719790Y4031076D03*
G04 #@! TO.P,U10,3,VCC*
X4719790Y4285076D03*
G04 #@! TO.P,U10,4,OA*
G04 #@! TO.N,Net-(R66-Pad1)*
X4719790Y4539076D03*
G04 #@! TO.P,U10,5,GND*
G04 #@! TO.N,GND*
X3957790Y4539076D03*
G04 #@! TO.P,U10,6,IA*
G04 #@! TO.N,/B_logic*
X3957790Y4285076D03*
G04 #@! TO.P,U10,7,IB*
G04 #@! TO.N,/B_n_logic*
X3957790Y4031076D03*
G04 #@! TO.P,U10,8,GND*
G04 #@! TO.N,GND*
X3957790Y3777076D03*
G04 #@! TD*
D10*
G04 #@! TO.P,U1,1,~{R}*
G04 #@! TO.N,+5V*
X4980290Y5420696D03*
D11*
G04 #@! TO.P,U1,2,D*
G04 #@! TO.N,Net-(U1A-D)*
X4980290Y5674696D03*
G04 #@! TO.P,U1,3,C*
G04 #@! TO.N,/CLOCK_upper*
X4980290Y5928696D03*
G04 #@! TO.P,U1,4,~{S}*
G04 #@! TO.N,+5V*
X4980290Y6182696D03*
G04 #@! TO.P,U1,5,Q*
G04 #@! TO.N,/A_logic*
X4980290Y6436696D03*
G04 #@! TO.P,U1,6,~{Q}*
G04 #@! TO.N,/A_n_logic*
X4980290Y6690696D03*
G04 #@! TO.P,U1,7,GND*
G04 #@! TO.N,GND*
X4980290Y6944696D03*
G04 #@! TO.P,U1,8,~{Q}*
G04 #@! TO.N,/B_n_logic*
X4218290Y6944696D03*
G04 #@! TO.P,U1,9,Q*
G04 #@! TO.N,/B_logic*
X4218290Y6690696D03*
G04 #@! TO.P,U1,10,~{S}*
G04 #@! TO.N,+5V*
X4218290Y6436696D03*
G04 #@! TO.P,U1,11,C*
G04 #@! TO.N,/CLOCK_upper*
X4218290Y6182696D03*
G04 #@! TO.P,U1,12,D*
G04 #@! TO.N,Net-(U1B-D)*
X4218290Y5928696D03*
G04 #@! TO.P,U1,13,~{R}*
G04 #@! TO.N,+5V*
X4218290Y5674696D03*
G04 #@! TO.P,U1,14,VCC*
X4218290Y5420696D03*
G04 #@! TD*
D10*
G04 #@! TO.P,U8,1,OA*
G04 #@! TO.N,Net-(R67-Pad1)*
X4720790Y2760076D03*
D11*
G04 #@! TO.P,U8,2,VCC*
G04 #@! TO.N,VCC*
X4720790Y3014076D03*
G04 #@! TO.P,U8,3,VCC*
X4720790Y3268076D03*
G04 #@! TO.P,U8,4,OA*
G04 #@! TO.N,Net-(R12-Pad1)*
X4720790Y3522076D03*
G04 #@! TO.P,U8,5,GND*
G04 #@! TO.N,GND*
X3958790Y3522076D03*
G04 #@! TO.P,U8,6,IA*
G04 #@! TO.N,/B_logic*
X3958790Y3268076D03*
G04 #@! TO.P,U8,7,IB*
G04 #@! TO.N,/B_n_logic*
X3958790Y3014076D03*
G04 #@! TO.P,U8,8,GND*
G04 #@! TO.N,GND*
X3958790Y2760076D03*
G04 #@! TD*
D10*
G04 #@! TO.P,U5,1,OA*
G04 #@! TO.N,Net-(R5-Pad1)*
X2943790Y2504076D03*
D11*
G04 #@! TO.P,U5,2,VCC*
G04 #@! TO.N,VCC*
X2943790Y2250076D03*
G04 #@! TO.P,U5,3,VCC*
X2943790Y1996076D03*
G04 #@! TO.P,U5,4,OA*
G04 #@! TO.N,Net-(R6-Pad1)*
X2943790Y1742076D03*
G04 #@! TO.P,U5,5,GND*
G04 #@! TO.N,GND*
X3705790Y1742076D03*
G04 #@! TO.P,U5,6,IA*
G04 #@! TO.N,/A_logic*
X3705790Y1996076D03*
G04 #@! TO.P,U5,7,IB*
G04 #@! TO.N,/A_n_logic*
X3705790Y2250076D03*
G04 #@! TO.P,U5,8,GND*
G04 #@! TO.N,GND*
X3705790Y2504076D03*
G04 #@! TD*
D10*
G04 #@! TO.P,U7,1,OA*
G04 #@! TO.N,Net-(R9-Pad1)*
X2943790Y3520076D03*
D11*
G04 #@! TO.P,U7,2,VCC*
G04 #@! TO.N,VCC*
X2943790Y3266076D03*
G04 #@! TO.P,U7,3,VCC*
X2943790Y3012076D03*
G04 #@! TO.P,U7,4,OA*
G04 #@! TO.N,Net-(R54-Pad1)*
X2943790Y2758076D03*
G04 #@! TO.P,U7,5,GND*
G04 #@! TO.N,GND*
X3705790Y2758076D03*
G04 #@! TO.P,U7,6,IA*
G04 #@! TO.N,/A_logic*
X3705790Y3012076D03*
G04 #@! TO.P,U7,7,IB*
G04 #@! TO.N,/A_n_logic*
X3705790Y3266076D03*
G04 #@! TO.P,U7,8,GND*
G04 #@! TO.N,GND*
X3705790Y3520076D03*
G04 #@! TD*
D10*
G04 #@! TO.P,U6,1,OA*
G04 #@! TO.N,Net-(R69-Pad1)*
X4719790Y1745076D03*
D11*
G04 #@! TO.P,U6,2,VCC*
G04 #@! TO.N,VCC*
X4719790Y1999076D03*
G04 #@! TO.P,U6,3,VCC*
X4719790Y2253076D03*
G04 #@! TO.P,U6,4,OA*
G04 #@! TO.N,Net-(R70-Pad1)*
X4719790Y2507076D03*
G04 #@! TO.P,U6,5,GND*
G04 #@! TO.N,GND*
X3957790Y2507076D03*
G04 #@! TO.P,U6,6,IA*
G04 #@! TO.N,/B_logic*
X3957790Y2253076D03*
G04 #@! TO.P,U6,7,IB*
G04 #@! TO.N,/B_n_logic*
X3957790Y1999076D03*
G04 #@! TO.P,U6,8,GND*
G04 #@! TO.N,GND*
X3957790Y1745076D03*
G04 #@! TD*
D10*
G04 #@! TO.P,U4,1,OA*
G04 #@! TO.N,Net-(R3-Pad1)*
X4719790Y729076D03*
D11*
G04 #@! TO.P,U4,2,VCC*
G04 #@! TO.N,VCC*
X4719790Y983076D03*
G04 #@! TO.P,U4,3,VCC*
X4719790Y1237076D03*
G04 #@! TO.P,U4,4,OA*
G04 #@! TO.N,Net-(R72-Pad1)*
X4719790Y1491076D03*
G04 #@! TO.P,U4,5,GND*
G04 #@! TO.N,GND*
X3957790Y1491076D03*
G04 #@! TO.P,U4,6,IA*
G04 #@! TO.N,/B_logic*
X3957790Y1237076D03*
G04 #@! TO.P,U4,7,IB*
G04 #@! TO.N,/B_n_logic*
X3957790Y983076D03*
G04 #@! TO.P,U4,8,GND*
G04 #@! TO.N,GND*
X3957790Y729076D03*
G04 #@! TD*
D14*
G04 #@! TO.P,R18,2*
G04 #@! TO.N,+5V*
X5234290Y6182696D03*
D12*
G04 #@! TO.P,R18,1*
G04 #@! TO.N,Net-(U1A-D)*
X5234290Y5674696D03*
G04 #@! TD*
G04 #@! TO.P,R17,1*
G04 #@! TO.N,Net-(U1B-D)*
X3964290Y5928696D03*
D14*
G04 #@! TO.P,R17,2*
G04 #@! TO.N,+5V*
X3964290Y5420696D03*
G04 #@! TD*
D10*
G04 #@! TO.P,U9,1,OA*
G04 #@! TO.N,Net-(R55-Pad1)*
X2943790Y4536076D03*
D11*
G04 #@! TO.P,U9,2,VCC*
G04 #@! TO.N,VCC*
X2943790Y4282076D03*
G04 #@! TO.P,U9,3,VCC*
X2943790Y4028076D03*
G04 #@! TO.P,U9,4,OA*
G04 #@! TO.N,Net-(R14-Pad1)*
X2943790Y3774076D03*
G04 #@! TO.P,U9,5,GND*
G04 #@! TO.N,GND*
X3705790Y3774076D03*
G04 #@! TO.P,U9,6,IA*
G04 #@! TO.N,/A_logic*
X3705790Y4028076D03*
G04 #@! TO.P,U9,7,IB*
G04 #@! TO.N,/A_n_logic*
X3705790Y4282076D03*
G04 #@! TO.P,U9,8,GND*
G04 #@! TO.N,GND*
X3705790Y4536076D03*
G04 #@! TD*
D15*
G04 #@! TO.P,U11,1,ADJ*
G04 #@! TO.N,Net-(U11-ADJ)*
X2465690Y5420696D03*
D16*
G04 #@! TO.P,U11,2,VO*
G04 #@! TO.N,+5V*
X2465690Y5166696D03*
G04 #@! TO.P,U11,3,VI*
G04 #@! TO.N,VCC*
X2465690Y4912696D03*
G04 #@! TD*
D10*
G04 #@! TO.P,U2,1,OA*
G04 #@! TO.N,Net-(R39-Pad1)*
X2943790Y1488076D03*
D11*
G04 #@! TO.P,U2,2,VCC*
G04 #@! TO.N,VCC*
X2943790Y1234076D03*
G04 #@! TO.P,U2,3,VCC*
X2943790Y980076D03*
G04 #@! TO.P,U2,4,OA*
G04 #@! TO.N,Net-(R2-Pad1)*
X2943790Y726076D03*
G04 #@! TO.P,U2,5,GND*
G04 #@! TO.N,GND*
X3705790Y726076D03*
G04 #@! TO.P,U2,6,IA*
G04 #@! TO.N,/B_n_logic*
X3705790Y980076D03*
G04 #@! TO.P,U2,7,IB*
G04 #@! TO.N,/A_n_logic*
X3705790Y1234076D03*
G04 #@! TO.P,U2,8,GND*
G04 #@! TO.N,GND*
X3705790Y1488076D03*
G04 #@! TD*
D12*
G04 #@! TO.P,R55,1*
G04 #@! TO.N,Net-(R55-Pad1)*
X2752290Y4531696D03*
D17*
G04 #@! TO.P,R55,2*
G04 #@! TO.N,/A*
X2393080Y4172485D03*
G04 #@! TD*
D12*
G04 #@! TO.P,R12,1*
G04 #@! TO.N,Net-(R12-Pad1)*
X4911290Y3515696D03*
D13*
G04 #@! TO.P,R12,2*
G04 #@! TO.N,/D*
X5270500Y3156485D03*
G04 #@! TD*
D12*
G04 #@! TO.P,R6,1*
G04 #@! TO.N,Net-(R6-Pad1)*
X2752290Y1737696D03*
D17*
G04 #@! TO.P,R6,2*
G04 #@! TO.N,/B*
X2393080Y1378486D03*
G04 #@! TD*
D12*
G04 #@! TO.P,R39,1*
G04 #@! TO.N,Net-(R39-Pad1)*
X2752290Y1483696D03*
D17*
G04 #@! TO.P,R39,2*
G04 #@! TO.N,/A*
X2393080Y1124486D03*
G04 #@! TD*
D12*
G04 #@! TO.P,R2,1*
G04 #@! TO.N,Net-(R2-Pad1)*
X2752290Y721696D03*
D17*
G04 #@! TO.P,R2,2*
G04 #@! TO.N,/B*
X2393080Y362485D03*
G04 #@! TD*
D12*
G04 #@! TO.P,R54,1*
G04 #@! TO.N,Net-(R54-Pad1)*
X2752290Y2753696D03*
D17*
G04 #@! TO.P,R54,2*
G04 #@! TO.N,/B*
X2393080Y2394486D03*
G04 #@! TD*
D12*
G04 #@! TO.P,R14,1*
G04 #@! TO.N,Net-(R14-Pad1)*
X2752290Y3769696D03*
D17*
G04 #@! TO.P,R14,2*
G04 #@! TO.N,/B*
X2393080Y3410485D03*
G04 #@! TD*
D12*
G04 #@! TO.P,R65,1*
G04 #@! TO.N,Net-(R65-Pad1)*
X4911290Y3769696D03*
D13*
G04 #@! TO.P,R65,2*
G04 #@! TO.N,/C*
X5270500Y3410485D03*
G04 #@! TD*
D12*
G04 #@! TO.P,R66,1*
G04 #@! TO.N,Net-(R66-Pad1)*
X4911290Y4531696D03*
D13*
G04 #@! TO.P,R66,2*
G04 #@! TO.N,/D*
X5270500Y4172485D03*
G04 #@! TD*
D12*
G04 #@! TO.P,R5,1*
G04 #@! TO.N,Net-(R5-Pad1)*
X2752290Y2499696D03*
D17*
G04 #@! TO.P,R5,2*
G04 #@! TO.N,/A*
X2393080Y2140486D03*
G04 #@! TD*
G04 #@! TO.P,R9,2*
G04 #@! TO.N,/A*
X2393080Y3156485D03*
D12*
G04 #@! TO.P,R9,1*
G04 #@! TO.N,Net-(R9-Pad1)*
X2752290Y3515696D03*
G04 #@! TD*
G04 #@! TO.P,R67,1*
G04 #@! TO.N,Net-(R67-Pad1)*
X4911290Y2753696D03*
D13*
G04 #@! TO.P,R67,2*
G04 #@! TO.N,/C*
X5270500Y2394486D03*
G04 #@! TD*
D18*
G04 #@! TO.N,/A_logic*
X4180190Y7185996D03*
G04 #@! TO.N,/DIRECTION_upper*
X3418190Y7185996D03*
G04 #@! TO.N,GND*
X3672190Y7185996D03*
G04 #@! TO.N,/DIRECTION_upper*
X3926190Y7185996D03*
G04 #@! TO.N,/A_n_logic*
X5221590Y6690696D03*
G04 #@! TO.N,/A_logic*
X5221590Y6436696D03*
G04 #@! TO.N,/B_logic*
X3964290Y6906596D03*
G04 #@! TO.N,/B_n_logic*
X3227690Y7185996D03*
G04 #@! TO.N,Net-(U1A-D)*
X3964290Y5674696D03*
G04 #@! TO.N,+5V*
X5488290Y6182696D03*
X5234290Y5420696D03*
G04 #@! TO.N,/B_logic*
X3831790Y1109076D03*
G04 #@! TO.N,/A_n_logic*
X3831790Y1363076D03*
G04 #@! TO.N,/B_n_logic*
X3831790Y1871076D03*
G04 #@! TO.N,/B_logic*
X3831790Y2125076D03*
G04 #@! TO.N,/A_n_logic*
X3831790Y2379076D03*
G04 #@! TO.N,/B_n_logic*
X3831790Y2887076D03*
G04 #@! TO.N,/B_logic*
X3831790Y3141076D03*
G04 #@! TO.N,/A_n_logic*
X3831790Y3395076D03*
G04 #@! TO.N,/B_n_logic*
X3831790Y3903076D03*
D19*
G04 #@! TO.N,/B*
X1912790Y1632076D03*
G04 #@! TO.N,/A*
X1913790Y2584076D03*
G04 #@! TO.N,/D*
X5728790Y2560076D03*
G04 #@! TO.N,/C*
X5727790Y1608076D03*
D18*
G04 #@! TO.N,/A_n_logic*
X3831790Y4411076D03*
D19*
G04 #@! TO.N,GND*
X5728790Y3513076D03*
D20*
X1913790Y4490076D03*
X5728790Y4466076D03*
X5728790Y654076D03*
X1913790Y5443076D03*
X5728790Y5419076D03*
D19*
G04 #@! TO.N,VCC*
X1913790Y3537076D03*
D20*
G04 #@! TO.N,GND*
X1913790Y678076D03*
D18*
G04 #@! TO.N,/B_n_logic*
X3831790Y855076D03*
G04 #@! TO.N,/B_logic*
X3831790Y4157076D03*
G04 #@! TD*
D21*
G04 #@! TO.N,GND*
X3710290Y7147896D02*
X3672190Y7185996D01*
X3710290Y6931996D02*
X3710290Y7147896D01*
G04 #@! TO.N,/DIRECTION_upper*
X3418190Y6423996D02*
X3418190Y7185996D01*
G04 #@! TO.N,/A_n_logic*
X4980290Y6690696D02*
X5221590Y6690696D01*
G04 #@! TO.N,/A_logic*
X4980290Y6436696D02*
X5221590Y6436696D01*
G04 #@! TO.N,/B_logic*
X3966011Y6844817D02*
X3966011Y6917574D01*
X4120133Y6690696D02*
X3966011Y6844817D01*
X4218290Y6690696D02*
X4120133Y6690696D01*
G04 #@! TO.N,Net-(U1B-D)*
X3964290Y6563696D02*
X3964290Y5928696D01*
X3849990Y6677996D02*
X3964290Y6563696D01*
X3710290Y6677996D02*
X3849990Y6677996D01*
G04 #@! TO.N,/B_n_logic*
X3218190Y5430196D02*
X3218190Y7195496D01*
X3240390Y5407996D02*
X3218190Y5430196D01*
X3389347Y5407996D02*
X3240390Y5407996D01*
X3710290Y5407996D02*
X3389347Y5407996D01*
D22*
G04 #@! TO.N,Net-(U1A-D)*
X3710848Y5915996D02*
X3964290Y5662554D01*
X3710290Y5915996D02*
X3710848Y5915996D01*
D21*
G04 #@! TO.N,/DIRECTION_upper*
X3418190Y6423996D02*
X3710290Y6423996D01*
X3418190Y5661996D02*
X3418190Y6423996D01*
X3710290Y5661996D02*
X3418190Y5661996D01*
G04 #@! TO.N,+5V*
X5234290Y6182696D02*
X5488290Y6182696D01*
X4980290Y5420696D02*
X5234290Y5420696D01*
X4230990Y5166696D02*
X4916790Y5166696D01*
X4535790Y6436696D02*
X4218290Y6436696D01*
X4980290Y6182696D02*
X4789790Y6182696D01*
X4789790Y6182696D02*
X4535790Y6436696D01*
G04 #@! TO.N,/CLOCK_upper*
X4688190Y5928696D02*
X4980290Y5928696D01*
X4434190Y6182696D02*
X4688190Y5928696D01*
X4218290Y6182696D02*
X4434190Y6182696D01*
G04 #@! TO.N,+5V*
X4980290Y6182696D02*
X5234290Y6182696D01*
G04 #@! TO.N,Net-(U1A-D)*
X4980290Y5674696D02*
X5234290Y5674696D01*
G04 #@! TO.N,Net-(U1B-D)*
X4218290Y5928696D02*
X3964290Y5928696D01*
G04 #@! TO.N,+5V*
X3976990Y5179396D02*
X3964290Y5179396D01*
X4218290Y5420696D02*
X3976990Y5179396D01*
X3964290Y5420696D02*
X4218290Y5420696D01*
X3951590Y5166696D02*
X3964290Y5179396D01*
X3964290Y5179396D02*
X3964290Y5420696D01*
X3951590Y5166696D02*
X4230990Y5166696D01*
X2948290Y5166696D02*
X3951590Y5166696D01*
X4980290Y5230196D02*
X4980290Y5420696D01*
X4916790Y5166696D02*
X4980290Y5230196D01*
X4218290Y5179396D02*
X4218290Y5674696D01*
X4230990Y5166696D02*
X4218290Y5179396D01*
X2694290Y5788996D02*
X2668890Y5814396D01*
X2694290Y5623896D02*
X2694290Y5788996D01*
X2910190Y5407996D02*
X2694290Y5623896D01*
X2948290Y5407996D02*
X2910190Y5407996D01*
X2948290Y5166696D02*
X2948290Y5407996D01*
X2465690Y5166696D02*
X2948290Y5166696D01*
G04 #@! TO.N,Net-(U11-ADJ)*
X2160890Y5814396D02*
X2160890Y6081096D01*
X2465690Y5509596D02*
X2160890Y5814396D01*
X2465690Y5420696D02*
X2465690Y5509596D01*
G04 #@! TO.N,VCC*
X2465690Y4397886D02*
X2465690Y4912696D01*
X2440290Y4372486D02*
X2465690Y4397886D01*
X2440290Y4372486D02*
X2624900Y4372486D01*
X2310237Y4372486D02*
X2440290Y4372486D01*
X4484990Y4950796D02*
X4484990Y4290396D01*
X3151490Y4950796D02*
X4484990Y4950796D01*
X3151490Y4391996D02*
X3151490Y4950796D01*
G04 #@! TO.N,/D*
X5687570Y2601296D02*
X5728790Y2560076D01*
X5470500Y2601296D02*
X5687570Y2601296D01*
X5470500Y2601296D02*
X5470500Y2677496D01*
X5470500Y2525096D02*
X5470500Y2601296D01*
X5611370Y2677496D02*
X5470500Y2677496D01*
X5728790Y2560076D02*
X5611370Y2677496D01*
X5484370Y2804496D02*
X5470500Y2804496D01*
X5728790Y2560076D02*
X5484370Y2804496D01*
X5470500Y2804496D02*
X5470500Y2961485D01*
X5470500Y2677496D02*
X5470500Y2804496D01*
G04 #@! TO.N,/A*
X1913790Y2584076D02*
X2083300Y2584076D01*
X2083300Y2584076D02*
X2193080Y2474296D01*
X2193080Y2311643D02*
X2193080Y2474296D01*
X2193080Y2474296D02*
X2193080Y2563196D01*
X1913790Y2584076D02*
X1920647Y2584076D01*
X1920647Y2584076D02*
X2193080Y2311643D01*
X2067470Y2584076D02*
X1913790Y2584076D01*
X2110090Y2626696D02*
X2067470Y2584076D01*
X2159610Y2829896D02*
X1913790Y2584076D01*
X2193080Y2829896D02*
X2159610Y2829896D01*
X2193080Y2829896D02*
X2193080Y2963556D01*
X2193080Y2563196D02*
X2193080Y2829896D01*
G04 #@! TO.N,/D*
X5470500Y2525096D02*
X5693810Y2525096D01*
X5693810Y2525096D02*
X5728790Y2560076D01*
X5470500Y2199986D02*
X5470500Y2525096D01*
G04 #@! TO.N,/C*
X5270500Y812800D02*
X5727790Y1270090D01*
X5270500Y685486D02*
X5270500Y812800D01*
X5727790Y1270090D02*
X5727790Y1608076D01*
G04 #@! TO.N,/D*
X5299343Y1124486D02*
X5277571Y1124486D01*
X5470500Y1295643D02*
X5299343Y1124486D01*
X5470500Y1476457D02*
X5470500Y1295643D01*
X5452790Y1721984D02*
X5452790Y1494167D01*
X5470500Y2199986D02*
X5470500Y1739695D01*
X5470500Y1739695D02*
X5452790Y1721984D01*
X5452790Y1494167D02*
X5470500Y1476457D01*
G04 #@! TO.N,VCC*
X4484990Y4050276D02*
X4484990Y4049096D01*
X4719790Y4285076D02*
X4484990Y4050276D01*
X4484990Y4049096D02*
X4484990Y3896696D01*
X4484990Y4188796D02*
X4484990Y4049096D01*
X4719790Y4031076D02*
X4562070Y4188796D01*
X4484990Y4290396D02*
X4484990Y4188796D01*
X4562070Y4188796D02*
X4484990Y4188796D01*
X4619370Y4031076D02*
X4484990Y3896696D01*
X4719790Y4031076D02*
X4619370Y4031076D01*
X4484990Y3896696D02*
X4484990Y3390739D01*
X2943790Y4028076D02*
X3117210Y4201496D01*
X3151490Y4201496D02*
X3151490Y4391996D01*
X3151490Y3933513D02*
X3151490Y4201496D01*
X3117210Y4201496D02*
X3151490Y4201496D01*
X2943790Y4141213D02*
X3151490Y3933513D01*
X2943790Y4282076D02*
X2943790Y4141213D01*
X3041570Y4282076D02*
X3151490Y4391996D01*
X2943790Y4282076D02*
X3041570Y4282076D01*
X4720790Y3014076D02*
X4549370Y3185496D01*
X4484990Y3185496D02*
X4484990Y2918796D01*
X4484990Y3390739D02*
X4484990Y3185496D01*
X4549370Y3185496D02*
X4484990Y3185496D01*
X4580270Y3014076D02*
X4484990Y2918796D01*
X4720790Y3014076D02*
X4580270Y3014076D01*
X4484990Y2918796D02*
X4484990Y2512396D01*
X4719790Y1999076D02*
X4562070Y2156796D01*
X4562070Y2156796D02*
X4484990Y2156796D01*
X4484990Y2156796D02*
X4484990Y1902796D01*
X4484990Y2512396D02*
X4484990Y2156796D01*
X4581270Y1999076D02*
X4484990Y1902796D01*
X4719790Y1999076D02*
X4581270Y1999076D01*
X4484990Y1902796D02*
X4484990Y1229696D01*
X3148790Y1232396D02*
X3148790Y1699596D01*
X3147110Y1234076D02*
X3148790Y1232396D01*
X2943790Y1234076D02*
X3147110Y1234076D01*
X4712410Y1229696D02*
X4719790Y1237076D01*
X4484990Y1229696D02*
X4712410Y1229696D01*
X4484990Y2512396D02*
X4484990Y2374739D01*
X4606653Y2253076D02*
X4719790Y2253076D01*
X4484990Y2374739D02*
X4606653Y2253076D01*
X4607653Y3268076D02*
X4720790Y3268076D01*
X4484990Y3390739D02*
X4607653Y3268076D01*
X4490310Y4285076D02*
X4719790Y4285076D01*
X4484990Y4290396D02*
X4490310Y4285076D01*
X3091810Y3160096D02*
X3151490Y3160096D01*
X3151490Y3160096D02*
X3151490Y2705596D01*
X2943790Y3012076D02*
X3091810Y3160096D01*
X3151490Y3502996D02*
X3151490Y3160096D01*
X2943790Y1996076D02*
X3091810Y2144096D01*
X3091810Y2144096D02*
X3148790Y2144096D01*
X3148790Y2144096D02*
X3148790Y1699596D01*
X3148790Y2423496D02*
X3148790Y2144096D01*
X3148790Y2423496D02*
X3148790Y2702896D01*
X3148790Y1699596D02*
X3148790Y1904213D01*
X3148790Y2337581D02*
X3148790Y2423496D01*
X3151490Y2705596D02*
X3148790Y2702896D01*
X3148790Y2702896D02*
X3148790Y2921496D01*
X3151490Y3502996D02*
X3151490Y3933513D01*
X3151490Y3356281D02*
X3151490Y3502996D01*
X3056927Y4028076D02*
X2943790Y4028076D01*
X3151490Y3933513D02*
X3056927Y4028076D01*
X3061284Y3266076D02*
X3151490Y3356281D01*
X2943790Y3266076D02*
X3061284Y3266076D01*
X3148790Y2921496D02*
X3058210Y3012076D01*
X3058210Y3012076D02*
X2943790Y3012076D01*
X3061284Y2250076D02*
X3148790Y2337581D01*
X2943790Y2250076D02*
X3061284Y2250076D01*
X3056927Y1996076D02*
X2943790Y1996076D01*
X3148790Y1904213D02*
X3056927Y1996076D01*
X4719790Y4031076D02*
X4719790Y4285076D01*
X4720790Y3014076D02*
X4720790Y3268076D01*
X4719790Y1999076D02*
X4719790Y2253076D01*
X4719790Y983076D02*
X4719790Y1237076D01*
X2943790Y1234076D02*
X2943790Y980076D01*
X2943790Y2250076D02*
X2943790Y1996076D01*
X2943790Y3266076D02*
X2943790Y3012076D01*
X2943790Y4282076D02*
X2943790Y4028076D01*
X2624900Y4372486D02*
X2715310Y4282076D01*
X2148190Y4210438D02*
X2310237Y4372486D01*
X2148190Y3769696D02*
X2148190Y4210438D01*
X1915570Y3537076D02*
X2148190Y3769696D01*
X1913790Y3537076D02*
X1915570Y3537076D01*
X2715310Y4282076D02*
X2943790Y4282076D01*
G04 #@! TO.N,/D*
X5270500Y3693328D02*
X5270500Y4172485D01*
X5470500Y2961485D02*
X5470500Y3493328D01*
X5470500Y3493328D02*
X5270500Y3693328D01*
G04 #@! TO.N,/A*
X2393080Y3693328D02*
X2393080Y4172485D01*
X2193080Y3493328D02*
X2393080Y3693328D01*
X2193080Y2963556D02*
X2193080Y3493328D01*
G04 #@! TO.N,/D*
X5470500Y2961485D02*
X5275500Y3156485D01*
X5419600Y2250886D02*
X5470500Y2199986D01*
X5419600Y2250886D02*
X5309200Y2140486D01*
X5728790Y2560076D02*
X5419600Y2250886D01*
X5309200Y2140486D02*
X5270500Y2140486D01*
G04 #@! TO.N,/C*
X5270500Y2394486D02*
X5153000Y2394486D01*
X5111290Y2436196D02*
X5111290Y2313196D01*
X5153000Y2394486D02*
X5111290Y2436196D01*
X5111290Y2876696D02*
X5111290Y2436196D01*
X5270500Y1378486D02*
X5153000Y1378486D01*
X5111290Y1420196D02*
X5111290Y1241047D01*
X5153000Y1378486D02*
X5111290Y1420196D01*
X5111290Y1820538D02*
X5111290Y1420196D01*
X5270500Y685486D02*
X5270500Y362485D01*
X5075500Y1205257D02*
X5075500Y880485D01*
X5075500Y880485D02*
X5270500Y685486D01*
X5111290Y1241047D02*
X5075500Y1205257D01*
X5043790Y1888038D02*
X5111290Y1820538D01*
X5043790Y2245696D02*
X5043790Y1888038D01*
X5111290Y2313196D02*
X5043790Y2245696D01*
X5075500Y2912485D02*
X5111290Y2876696D01*
X5075500Y3314480D02*
X5075500Y2912485D01*
X5171505Y3410485D02*
X5075500Y3314480D01*
X5270500Y3410485D02*
X5171505Y3410485D01*
G04 #@! TO.N,/B*
X2588080Y2351906D02*
X2552290Y2387696D01*
X2543676Y1380310D02*
X2543676Y2015310D01*
X2588080Y1335906D02*
X2543676Y1380310D01*
X2588080Y2059714D02*
X2588080Y2351906D01*
X2543676Y2015310D02*
X2588080Y2059714D01*
X2588080Y988350D02*
X2588080Y1335906D01*
X2393080Y793350D02*
X2588080Y988350D01*
X2393080Y362485D02*
X2393080Y793350D01*
X2393080Y794833D02*
X2393080Y362485D01*
X1912790Y1275123D02*
X2393080Y794833D01*
X1912790Y1632076D02*
X1912790Y1275123D01*
G04 #@! TO.N,/A*
X2364237Y2140486D02*
X2386009Y2140486D01*
X2193080Y2311643D02*
X2364237Y2140486D01*
X2193080Y2963556D02*
X2352290Y3122767D01*
X2364237Y1124486D02*
X2386009Y1124486D01*
X2193080Y1295643D02*
X2364237Y1124486D01*
X2193080Y2311643D02*
X2193080Y1295643D01*
G04 #@! TO.N,/B*
X2545500Y1378486D02*
X2588080Y1335906D01*
X2393080Y1378486D02*
X2545500Y1378486D01*
X2393080Y2394486D02*
X2545500Y2394486D01*
X2545500Y2394486D02*
X2552290Y2387696D01*
X2545500Y3410485D02*
X2393080Y3410485D01*
X2588080Y3367906D02*
X2545500Y3410485D01*
X2588080Y3075714D02*
X2588080Y3367906D01*
X2552290Y3039924D02*
X2588080Y3075714D01*
X2552290Y2387696D02*
X2552290Y3039924D01*
G04 #@! TO.N,Net-(R55-Pad1)*
X2939410Y4531696D02*
X2943790Y4536076D01*
X2752290Y4531696D02*
X2939410Y4531696D01*
G04 #@! TO.N,Net-(R14-Pad1)*
X2939410Y3769696D02*
X2943790Y3774076D01*
X2752290Y3769696D02*
X2939410Y3769696D01*
G04 #@! TO.N,Net-(R9-Pad1)*
X2939410Y3515696D02*
X2943790Y3520076D01*
X2752290Y3515696D02*
X2939410Y3515696D01*
G04 #@! TO.N,Net-(R54-Pad1)*
X2939410Y2753696D02*
X2943790Y2758076D01*
X2752290Y2753696D02*
X2939410Y2753696D01*
G04 #@! TO.N,Net-(R5-Pad1)*
X2939410Y2499696D02*
X2943790Y2504076D01*
X2752290Y2499696D02*
X2939410Y2499696D01*
G04 #@! TO.N,Net-(R6-Pad1)*
X2939410Y1737696D02*
X2943790Y1742076D01*
X2752290Y1737696D02*
X2939410Y1737696D01*
G04 #@! TO.N,Net-(R39-Pad1)*
X2752290Y1483696D02*
X2939410Y1483696D01*
X2939410Y1483696D02*
X2943790Y1488076D01*
G04 #@! TO.N,Net-(R2-Pad1)*
X2756670Y726076D02*
X2752290Y721696D01*
X2943790Y726076D02*
X2756670Y726076D01*
G04 #@! TO.N,Net-(R3-Pad1)*
X4719790Y729076D02*
X4903910Y729076D01*
X4903910Y729076D02*
X4911290Y721696D01*
G04 #@! TO.N,Net-(R72-Pad1)*
X4903910Y1491076D02*
X4911290Y1483696D01*
X4719790Y1491076D02*
X4903910Y1491076D01*
G04 #@! TO.N,Net-(R69-Pad1)*
X4719790Y1745076D02*
X4903910Y1745076D01*
X4903910Y1745076D02*
X4911290Y1737696D01*
G04 #@! TO.N,Net-(R70-Pad1)*
X4719790Y2507076D02*
X4903910Y2507076D01*
X4903910Y2507076D02*
X4911290Y2499696D01*
G04 #@! TO.N,Net-(R67-Pad1)*
X4904910Y2760076D02*
X4911290Y2753696D01*
X4720790Y2760076D02*
X4904910Y2760076D01*
G04 #@! TO.N,Net-(R12-Pad1)*
X4904910Y3522076D02*
X4911290Y3515696D01*
X4720790Y3522076D02*
X4904910Y3522076D01*
G04 #@! TO.N,Net-(R65-Pad1)*
X4903910Y3777076D02*
X4911290Y3769696D01*
X4719790Y3777076D02*
X4903910Y3777076D01*
G04 #@! TO.N,Net-(R66-Pad1)*
X4719790Y4539076D02*
X4903910Y4539076D01*
X4903910Y4539076D02*
X4911290Y4531696D01*
G04 #@! TD*
M02*
