%TF.GenerationSoftware,KiCad,Pcbnew,7.0.5*%
%TF.CreationDate,2024-11-17T15:27:36-05:00*%
%TF.ProjectId,93c76_revision_two,39336337-365f-4726-9576-6973696f6e5f,rev?*%
%TF.SameCoordinates,Original*%
%TF.FileFunction,Profile,NP*%
%FSLAX46Y46*%
G04 Gerber Fmt 4.6, Leading zero omitted, Abs format (unit mm)*
G04 Created by KiCad (PCBNEW 7.0.5) date 2024-11-17 15:27:36*
%MOMM*%
%LPD*%
G01*
G04 APERTURE LIST*
%TA.AperFunction,Profile*%
%ADD10C,0.100000*%
%TD*%
G04 APERTURE END LIST*
D10*
X27939936Y-104140000D02*
X27939936Y-22860000D01*
X253238000Y-101600000D02*
X253238000Y-97790000D01*
X251968000Y-102870000D02*
G75*
G03*
X253238000Y-101600000I0J1270000D01*
G01*
X157480000Y-96520000D02*
X165608000Y-96520000D01*
X30461948Y-106679999D02*
X147301949Y-106680000D01*
X168148000Y-102870000D02*
X251968000Y-102870000D01*
X44976040Y-21063960D02*
X46028120Y-22116040D01*
X166878000Y-101600000D02*
X166878000Y-97790000D01*
X254508000Y-96520000D02*
G75*
G03*
X253238000Y-97790000I0J-1270000D01*
G01*
X30479936Y-20320000D02*
X43180000Y-20320000D01*
X255251949Y-96520049D02*
G75*
G03*
X257791949Y-93980000I51J2539949D01*
G01*
X254508000Y-96520000D02*
X255251949Y-96520000D01*
X46028129Y-22116031D02*
G75*
G03*
X47824198Y-22860000I1796071J1796031D01*
G01*
X47828200Y-22860000D02*
X255251949Y-22860000D01*
X157480000Y-96519999D02*
G75*
G03*
X149841928Y-104140000I-18000J-7620051D01*
G01*
X27939937Y-104140000D02*
G75*
G03*
X30461948Y-106679999I2540063J0D01*
G01*
X147301949Y-106680049D02*
G75*
G03*
X149841949Y-104140000I51J2539949D01*
G01*
X257791949Y-93980000D02*
X257791949Y-25400000D01*
X44976051Y-21063949D02*
G75*
G03*
X43179963Y-20320000I-1796051J-1796051D01*
G01*
X257791900Y-25400000D02*
G75*
G03*
X255251949Y-22860000I-2540000J0D01*
G01*
X166878000Y-97790000D02*
G75*
G03*
X165608000Y-96520000I-1270000J0D01*
G01*
X166878000Y-101600000D02*
G75*
G03*
X168148000Y-102870000I1270000J0D01*
G01*
X30479936Y-20320006D02*
G75*
G03*
X27939936Y-22860000I34J-2540034D01*
G01*
M02*
