%TF.GenerationSoftware,KiCad,Pcbnew,7.0.5*%
%TF.CreationDate,2024-11-17T15:27:36-05:00*%
%TF.ProjectId,93c76_revision_two,39336337-365f-4726-9576-6973696f6e5f,rev?*%
%TF.SameCoordinates,Original*%
%TF.FileFunction,Soldermask,Bot*%
%TF.FilePolarity,Negative*%
%FSLAX46Y46*%
G04 Gerber Fmt 4.6, Leading zero omitted, Abs format (unit mm)*
G04 Created by KiCad (PCBNEW 7.0.5) date 2024-11-17 15:27:36*
%MOMM*%
%LPD*%
G01*
G04 APERTURE LIST*
%ADD10R,1.700000X1.700000*%
%ADD11O,1.700000X1.700000*%
%ADD12C,1.600000*%
%ADD13C,1.400000*%
%ADD14O,1.400000X1.400000*%
%ADD15R,1.600000X1.600000*%
%ADD16O,1.600000X1.600000*%
%ADD17R,1.070000X1.800000*%
%ADD18O,1.070000X1.800000*%
%ADD19C,4.000000*%
%ADD20R,1.524000X2.524000*%
%ADD21O,1.524000X2.524000*%
G04 APERTURE END LIST*
D10*
%TO.C,JCol4*%
X177800000Y-30480000D03*
D11*
X177800000Y-33020000D03*
X177800000Y-35560000D03*
X177800000Y-38100000D03*
X177800000Y-40640000D03*
X177800000Y-43180000D03*
X177800000Y-45720000D03*
X177800000Y-48260000D03*
X177800000Y-50800000D03*
X177800000Y-53340000D03*
X177800000Y-55880000D03*
X177800000Y-58420000D03*
X177800000Y-60960000D03*
X177800000Y-63500000D03*
X177800000Y-66040000D03*
X177800000Y-68580000D03*
X177800000Y-71120000D03*
X177800000Y-73660000D03*
X177800000Y-76200000D03*
X177800000Y-78740000D03*
X177800000Y-81280000D03*
X177800000Y-83820000D03*
X177800000Y-86360000D03*
X177800000Y-88900000D03*
X177800000Y-91440000D03*
%TD*%
D10*
%TO.C,J6*%
X50800000Y-27940000D03*
D11*
X50800000Y-30480000D03*
X50800000Y-33020000D03*
X50800000Y-35560000D03*
X50800000Y-38100000D03*
X50800000Y-40640000D03*
%TD*%
D12*
%TO.C,C5*%
X43180000Y-55840000D03*
X43180000Y-53340000D03*
%TD*%
%TO.C,C2*%
X88900000Y-60960000D03*
X88900000Y-58460000D03*
%TD*%
D10*
%TO.C,JCol7*%
X185420000Y-30480000D03*
D11*
X185420000Y-33020000D03*
X185420000Y-35560000D03*
X185420000Y-38100000D03*
X185420000Y-40640000D03*
X185420000Y-43180000D03*
X185420000Y-45720000D03*
X185420000Y-48260000D03*
X185420000Y-50800000D03*
X185420000Y-53340000D03*
X185420000Y-55880000D03*
X185420000Y-58420000D03*
X185420000Y-60960000D03*
X185420000Y-63500000D03*
X185420000Y-66040000D03*
X185420000Y-68580000D03*
X185420000Y-71120000D03*
X185420000Y-73660000D03*
X185420000Y-76200000D03*
X185420000Y-78740000D03*
X185420000Y-81280000D03*
X185420000Y-83820000D03*
X185420000Y-86360000D03*
X185420000Y-88900000D03*
X185420000Y-91440000D03*
%TD*%
D10*
%TO.C,J17*%
X154940000Y-27940000D03*
D11*
X157480000Y-27940000D03*
X160020000Y-27940000D03*
X162560000Y-27940000D03*
X165100000Y-27940000D03*
X167640000Y-27940000D03*
X170180000Y-27940000D03*
X172720000Y-27940000D03*
X175260000Y-27940000D03*
X177800000Y-27940000D03*
X180340000Y-27940000D03*
X182880000Y-27940000D03*
X185420000Y-27940000D03*
X187960000Y-27940000D03*
X190500000Y-27940000D03*
%TD*%
D10*
%TO.C,J22*%
X137160000Y-43180000D03*
D11*
X137160000Y-45720000D03*
X137160000Y-48260000D03*
%TD*%
D10*
%TO.C,JCol6*%
X223520000Y-30480000D03*
D11*
X223520000Y-33020000D03*
X223520000Y-35560000D03*
X223520000Y-38100000D03*
X223520000Y-40640000D03*
X223520000Y-43180000D03*
X223520000Y-45720000D03*
X223520000Y-48260000D03*
X223520000Y-50800000D03*
X223520000Y-53340000D03*
X223520000Y-55880000D03*
X223520000Y-58420000D03*
X223520000Y-60960000D03*
X223520000Y-63500000D03*
X223520000Y-66040000D03*
X223520000Y-68580000D03*
X223520000Y-71120000D03*
X223520000Y-73660000D03*
X223520000Y-76200000D03*
X223520000Y-78740000D03*
X223520000Y-81280000D03*
X223520000Y-83820000D03*
X223520000Y-86360000D03*
X223520000Y-88900000D03*
X223520000Y-91440000D03*
%TD*%
D13*
%TO.C,r9*%
X66040000Y-33020000D03*
D14*
X66040000Y-40640000D03*
%TD*%
D15*
%TO.C,U4*%
X45720000Y-48260000D03*
D16*
X45720000Y-50800000D03*
X45720000Y-53340000D03*
X45720000Y-55880000D03*
X53340000Y-55880000D03*
X53340000Y-53340000D03*
X53340000Y-50800000D03*
X53340000Y-48260000D03*
%TD*%
D13*
%TO.C,r16*%
X68580000Y-33020000D03*
D14*
X68580000Y-40640000D03*
%TD*%
D17*
%TO.C,D6*%
X108543009Y-91440000D03*
D18*
X109813009Y-91440000D03*
X111083009Y-91440000D03*
X112353009Y-91440000D03*
%TD*%
D10*
%TO.C,J8*%
X88900000Y-99060000D03*
D11*
X91440000Y-99060000D03*
X93980000Y-99060000D03*
%TD*%
D13*
%TO.C,r3*%
X88900000Y-71120000D03*
D14*
X88900000Y-63500000D03*
%TD*%
D12*
%TO.C,C9*%
X83820000Y-35560000D03*
X83820000Y-33060000D03*
%TD*%
D15*
%TO.C,U18*%
X86360000Y-93980000D03*
D16*
X88900000Y-93980000D03*
X91440000Y-93980000D03*
X93980000Y-93980000D03*
X96520000Y-93980000D03*
X99060000Y-93980000D03*
X101600000Y-93980000D03*
X104140000Y-93980000D03*
X104140000Y-86360000D03*
X101600000Y-86360000D03*
X99060000Y-86360000D03*
X96520000Y-86360000D03*
X93980000Y-86360000D03*
X91440000Y-86360000D03*
X88900000Y-86360000D03*
X86360000Y-86360000D03*
%TD*%
D13*
%TO.C,SW2*%
X146050000Y-80010000D03*
D14*
X151130000Y-80010000D03*
%TD*%
D12*
%TO.C,C7*%
X68620000Y-30480000D03*
X71120000Y-30480000D03*
%TD*%
D10*
%TO.C,JCol8*%
X248920000Y-30480000D03*
D11*
X248920000Y-33020000D03*
X248920000Y-35560000D03*
X248920000Y-38100000D03*
X248920000Y-40640000D03*
X248920000Y-43180000D03*
X248920000Y-45720000D03*
X248920000Y-48260000D03*
X248920000Y-50800000D03*
X248920000Y-53340000D03*
X248920000Y-55880000D03*
X248920000Y-58420000D03*
X248920000Y-60960000D03*
X248920000Y-63500000D03*
X248920000Y-66040000D03*
X248920000Y-68580000D03*
X248920000Y-71120000D03*
X248920000Y-73660000D03*
X248920000Y-76200000D03*
X248920000Y-78740000D03*
X248920000Y-81280000D03*
X248920000Y-83820000D03*
X248920000Y-86360000D03*
X248920000Y-88900000D03*
X248920000Y-91440000D03*
%TD*%
D10*
%TO.C,JCol6*%
X243840000Y-30480000D03*
D11*
X243840000Y-33020000D03*
X243840000Y-35560000D03*
X243840000Y-38100000D03*
X243840000Y-40640000D03*
X243840000Y-43180000D03*
X243840000Y-45720000D03*
X243840000Y-48260000D03*
X243840000Y-50800000D03*
X243840000Y-53340000D03*
X243840000Y-55880000D03*
X243840000Y-58420000D03*
X243840000Y-60960000D03*
X243840000Y-63500000D03*
X243840000Y-66040000D03*
X243840000Y-68580000D03*
X243840000Y-71120000D03*
X243840000Y-73660000D03*
X243840000Y-76200000D03*
X243840000Y-78740000D03*
X243840000Y-81280000D03*
X243840000Y-83820000D03*
X243840000Y-86360000D03*
X243840000Y-88900000D03*
X243840000Y-91440000D03*
%TD*%
D13*
%TO.C,SW3*%
X146050000Y-74930000D03*
D14*
X151130000Y-74930000D03*
%TD*%
D10*
%TO.C,JCol5*%
X241300000Y-30480000D03*
D11*
X241300000Y-33020000D03*
X241300000Y-35560000D03*
X241300000Y-38100000D03*
X241300000Y-40640000D03*
X241300000Y-43180000D03*
X241300000Y-45720000D03*
X241300000Y-48260000D03*
X241300000Y-50800000D03*
X241300000Y-53340000D03*
X241300000Y-55880000D03*
X241300000Y-58420000D03*
X241300000Y-60960000D03*
X241300000Y-63500000D03*
X241300000Y-66040000D03*
X241300000Y-68580000D03*
X241300000Y-71120000D03*
X241300000Y-73660000D03*
X241300000Y-76200000D03*
X241300000Y-78740000D03*
X241300000Y-81280000D03*
X241300000Y-83820000D03*
X241300000Y-86360000D03*
X241300000Y-88900000D03*
X241300000Y-91440000D03*
%TD*%
D10*
%TO.C,JCol7*%
X165100000Y-30480000D03*
D11*
X165100000Y-33020000D03*
X165100000Y-35560000D03*
X165100000Y-38100000D03*
X165100000Y-40640000D03*
X165100000Y-43180000D03*
X165100000Y-45720000D03*
X165100000Y-48260000D03*
X165100000Y-50800000D03*
X165100000Y-53340000D03*
X165100000Y-55880000D03*
X165100000Y-58420000D03*
X165100000Y-60960000D03*
X165100000Y-63500000D03*
X165100000Y-66040000D03*
X165100000Y-68580000D03*
X165100000Y-71120000D03*
X165100000Y-73660000D03*
X165100000Y-76200000D03*
X165100000Y-78740000D03*
X165100000Y-81280000D03*
X165100000Y-83820000D03*
X165100000Y-86360000D03*
X165100000Y-88900000D03*
X165100000Y-91440000D03*
%TD*%
D10*
%TO.C,JCol10*%
X233680000Y-30480000D03*
D11*
X233680000Y-33020000D03*
X233680000Y-35560000D03*
X233680000Y-38100000D03*
X233680000Y-40640000D03*
X233680000Y-43180000D03*
X233680000Y-45720000D03*
X233680000Y-48260000D03*
X233680000Y-50800000D03*
X233680000Y-53340000D03*
X233680000Y-55880000D03*
X233680000Y-58420000D03*
X233680000Y-60960000D03*
X233680000Y-63500000D03*
X233680000Y-66040000D03*
X233680000Y-68580000D03*
X233680000Y-71120000D03*
X233680000Y-73660000D03*
X233680000Y-76200000D03*
X233680000Y-78740000D03*
X233680000Y-81280000D03*
X233680000Y-83820000D03*
X233680000Y-86360000D03*
X233680000Y-88900000D03*
X233680000Y-91440000D03*
%TD*%
D19*
%TO.C,J15*%
X35760331Y-53080000D03*
X35760331Y-78080000D03*
D15*
X36060331Y-71120000D03*
D12*
X36060331Y-68350000D03*
X36060331Y-65580000D03*
X36060331Y-62810000D03*
X36060331Y-60040000D03*
X33220331Y-69735000D03*
X33220331Y-66965000D03*
X33220331Y-64195000D03*
X33220331Y-61425000D03*
%TD*%
D10*
%TO.C,JCol1*%
X254000000Y-25400000D03*
D11*
X251460000Y-25400000D03*
X248920000Y-25400000D03*
X246380000Y-25400000D03*
X243840000Y-25400000D03*
X241300000Y-25400000D03*
X238760000Y-25400000D03*
X236220000Y-25400000D03*
X233680000Y-25400000D03*
X231140000Y-25400000D03*
X228600000Y-25400000D03*
X226060000Y-25400000D03*
X223520000Y-25400000D03*
X220980000Y-25400000D03*
X218440000Y-25400000D03*
X215900000Y-25400000D03*
X213360000Y-25400000D03*
X210820000Y-25400000D03*
X208280000Y-25400000D03*
X205740000Y-25400000D03*
X203200000Y-25400000D03*
X200660000Y-25400000D03*
X198120000Y-25400000D03*
X195580000Y-25400000D03*
X193040000Y-25400000D03*
%TD*%
D10*
%TO.C,JCol3*%
X236220000Y-30480000D03*
D11*
X236220000Y-33020000D03*
X236220000Y-35560000D03*
X236220000Y-38100000D03*
X236220000Y-40640000D03*
X236220000Y-43180000D03*
X236220000Y-45720000D03*
X236220000Y-48260000D03*
X236220000Y-50800000D03*
X236220000Y-53340000D03*
X236220000Y-55880000D03*
X236220000Y-58420000D03*
X236220000Y-60960000D03*
X236220000Y-63500000D03*
X236220000Y-66040000D03*
X236220000Y-68580000D03*
X236220000Y-71120000D03*
X236220000Y-73660000D03*
X236220000Y-76200000D03*
X236220000Y-78740000D03*
X236220000Y-81280000D03*
X236220000Y-83820000D03*
X236220000Y-86360000D03*
X236220000Y-88900000D03*
X236220000Y-91440000D03*
%TD*%
D15*
%TO.C,U5*%
X119380000Y-81280000D03*
D16*
X121920000Y-81280000D03*
X124460000Y-81280000D03*
X127000000Y-81280000D03*
X129540000Y-81280000D03*
X132080000Y-81280000D03*
X134620000Y-81280000D03*
X137160000Y-81280000D03*
X139700000Y-81280000D03*
X142240000Y-81280000D03*
X142240000Y-73660000D03*
X139700000Y-73660000D03*
X137160000Y-73660000D03*
X134620000Y-73660000D03*
X132080000Y-73660000D03*
X129540000Y-73660000D03*
X127000000Y-73660000D03*
X124460000Y-73660000D03*
X121920000Y-73660000D03*
X119380000Y-73660000D03*
%TD*%
D15*
%TO.C,U17*%
X139700000Y-30480000D03*
D16*
X139700000Y-33020000D03*
X139700000Y-35560000D03*
X139700000Y-38100000D03*
X139700000Y-40640000D03*
X139700000Y-43180000D03*
X139700000Y-45720000D03*
X139700000Y-48260000D03*
X147320000Y-48260000D03*
X147320000Y-45720000D03*
X147320000Y-43180000D03*
X147320000Y-40640000D03*
X147320000Y-38100000D03*
X147320000Y-35560000D03*
X147320000Y-33020000D03*
X147320000Y-30480000D03*
%TD*%
D10*
%TO.C,JCol4*%
X238760000Y-30480000D03*
D11*
X238760000Y-33020000D03*
X238760000Y-35560000D03*
X238760000Y-38100000D03*
X238760000Y-40640000D03*
X238760000Y-43180000D03*
X238760000Y-45720000D03*
X238760000Y-48260000D03*
X238760000Y-50800000D03*
X238760000Y-53340000D03*
X238760000Y-55880000D03*
X238760000Y-58420000D03*
X238760000Y-60960000D03*
X238760000Y-63500000D03*
X238760000Y-66040000D03*
X238760000Y-68580000D03*
X238760000Y-71120000D03*
X238760000Y-73660000D03*
X238760000Y-76200000D03*
X238760000Y-78740000D03*
X238760000Y-81280000D03*
X238760000Y-83820000D03*
X238760000Y-86360000D03*
X238760000Y-88900000D03*
X238760000Y-91440000D03*
%TD*%
D10*
%TO.C,J27*%
X134620000Y-43180000D03*
D11*
X134620000Y-45720000D03*
X134620000Y-48260000D03*
%TD*%
D10*
%TO.C,JCol4*%
X198120000Y-30480000D03*
D11*
X198120000Y-33020000D03*
X198120000Y-35560000D03*
X198120000Y-38100000D03*
X198120000Y-40640000D03*
X198120000Y-43180000D03*
X198120000Y-45720000D03*
X198120000Y-48260000D03*
X198120000Y-50800000D03*
X198120000Y-53340000D03*
X198120000Y-55880000D03*
X198120000Y-58420000D03*
X198120000Y-60960000D03*
X198120000Y-63500000D03*
X198120000Y-66040000D03*
X198120000Y-68580000D03*
X198120000Y-71120000D03*
X198120000Y-73660000D03*
X198120000Y-76200000D03*
X198120000Y-78740000D03*
X198120000Y-81280000D03*
X198120000Y-83820000D03*
X198120000Y-86360000D03*
X198120000Y-88900000D03*
X198120000Y-91440000D03*
%TD*%
D10*
%TO.C,J11*%
X106680000Y-83820000D03*
D11*
X104140000Y-83820000D03*
X101600000Y-83820000D03*
X99060000Y-83820000D03*
%TD*%
D12*
%TO.C,C10*%
X66040000Y-43220000D03*
X66040000Y-45720000D03*
%TD*%
D10*
%TO.C,JCol10*%
X193040000Y-30480000D03*
D11*
X193040000Y-33020000D03*
X193040000Y-35560000D03*
X193040000Y-38100000D03*
X193040000Y-40640000D03*
X193040000Y-43180000D03*
X193040000Y-45720000D03*
X193040000Y-48260000D03*
X193040000Y-50800000D03*
X193040000Y-53340000D03*
X193040000Y-55880000D03*
X193040000Y-58420000D03*
X193040000Y-60960000D03*
X193040000Y-63500000D03*
X193040000Y-66040000D03*
X193040000Y-68580000D03*
X193040000Y-71120000D03*
X193040000Y-73660000D03*
X193040000Y-76200000D03*
X193040000Y-78740000D03*
X193040000Y-81280000D03*
X193040000Y-83820000D03*
X193040000Y-86360000D03*
X193040000Y-88900000D03*
X193040000Y-91440000D03*
%TD*%
D13*
%TO.C,r17*%
X68580000Y-48260000D03*
D14*
X68580000Y-55880000D03*
%TD*%
D10*
%TO.C,JCol9*%
X170180000Y-30480000D03*
D11*
X170180000Y-33020000D03*
X170180000Y-35560000D03*
X170180000Y-38100000D03*
X170180000Y-40640000D03*
X170180000Y-43180000D03*
X170180000Y-45720000D03*
X170180000Y-48260000D03*
X170180000Y-50800000D03*
X170180000Y-53340000D03*
X170180000Y-55880000D03*
X170180000Y-58420000D03*
X170180000Y-60960000D03*
X170180000Y-63500000D03*
X170180000Y-66040000D03*
X170180000Y-68580000D03*
X170180000Y-71120000D03*
X170180000Y-73660000D03*
X170180000Y-76200000D03*
X170180000Y-78740000D03*
X170180000Y-81280000D03*
X170180000Y-83820000D03*
X170180000Y-86360000D03*
X170180000Y-88900000D03*
X170180000Y-91440000D03*
%TD*%
D10*
%TO.C,JCol9*%
X210820000Y-30480000D03*
D11*
X210820000Y-33020000D03*
X210820000Y-35560000D03*
X210820000Y-38100000D03*
X210820000Y-40640000D03*
X210820000Y-43180000D03*
X210820000Y-45720000D03*
X210820000Y-48260000D03*
X210820000Y-50800000D03*
X210820000Y-53340000D03*
X210820000Y-55880000D03*
X210820000Y-58420000D03*
X210820000Y-60960000D03*
X210820000Y-63500000D03*
X210820000Y-66040000D03*
X210820000Y-68580000D03*
X210820000Y-71120000D03*
X210820000Y-73660000D03*
X210820000Y-76200000D03*
X210820000Y-78740000D03*
X210820000Y-81280000D03*
X210820000Y-83820000D03*
X210820000Y-86360000D03*
X210820000Y-88900000D03*
X210820000Y-91440000D03*
%TD*%
D15*
%TO.C,U14*%
X132080000Y-68580000D03*
D16*
X132080000Y-66040000D03*
X132080000Y-63500000D03*
X132080000Y-60960000D03*
X132080000Y-58420000D03*
X132080000Y-55880000D03*
X132080000Y-53340000D03*
X124460000Y-53340000D03*
X124460000Y-55880000D03*
X124460000Y-58420000D03*
X124460000Y-60960000D03*
X124460000Y-63500000D03*
X124460000Y-66040000D03*
X124460000Y-68580000D03*
%TD*%
D20*
%TO.C,U23*%
X58420000Y-78740000D03*
D21*
X60960000Y-78740000D03*
X63500000Y-78740000D03*
X66040000Y-78740000D03*
X68580000Y-78740000D03*
X68580000Y-63500000D03*
X66040000Y-63500000D03*
X63500000Y-63500000D03*
X60960000Y-63500000D03*
X58420000Y-63500000D03*
%TD*%
D10*
%TO.C,JCol3*%
X154940000Y-30480000D03*
D11*
X154940000Y-33020000D03*
X154940000Y-35560000D03*
X154940000Y-38100000D03*
X154940000Y-40640000D03*
X154940000Y-43180000D03*
X154940000Y-45720000D03*
X154940000Y-48260000D03*
X154940000Y-50800000D03*
X154940000Y-53340000D03*
X154940000Y-55880000D03*
X154940000Y-58420000D03*
X154940000Y-60960000D03*
X154940000Y-63500000D03*
X154940000Y-66040000D03*
X154940000Y-68580000D03*
X154940000Y-71120000D03*
X154940000Y-73660000D03*
X154940000Y-76200000D03*
X154940000Y-78740000D03*
X154940000Y-81280000D03*
X154940000Y-83820000D03*
X154940000Y-86360000D03*
X154940000Y-88900000D03*
X154940000Y-91440000D03*
%TD*%
D10*
%TO.C,J21*%
X137160000Y-35560000D03*
D11*
X137160000Y-33020000D03*
X137160000Y-30480000D03*
%TD*%
D10*
%TO.C,JCol3*%
X195580000Y-30480000D03*
D11*
X195580000Y-33020000D03*
X195580000Y-35560000D03*
X195580000Y-38100000D03*
X195580000Y-40640000D03*
X195580000Y-43180000D03*
X195580000Y-45720000D03*
X195580000Y-48260000D03*
X195580000Y-50800000D03*
X195580000Y-53340000D03*
X195580000Y-55880000D03*
X195580000Y-58420000D03*
X195580000Y-60960000D03*
X195580000Y-63500000D03*
X195580000Y-66040000D03*
X195580000Y-68580000D03*
X195580000Y-71120000D03*
X195580000Y-73660000D03*
X195580000Y-76200000D03*
X195580000Y-78740000D03*
X195580000Y-81280000D03*
X195580000Y-83820000D03*
X195580000Y-86360000D03*
X195580000Y-88900000D03*
X195580000Y-91440000D03*
%TD*%
D10*
%TO.C,JCol6*%
X162560000Y-30480000D03*
D11*
X162560000Y-33020000D03*
X162560000Y-35560000D03*
X162560000Y-38100000D03*
X162560000Y-40640000D03*
X162560000Y-43180000D03*
X162560000Y-45720000D03*
X162560000Y-48260000D03*
X162560000Y-50800000D03*
X162560000Y-53340000D03*
X162560000Y-55880000D03*
X162560000Y-58420000D03*
X162560000Y-60960000D03*
X162560000Y-63500000D03*
X162560000Y-66040000D03*
X162560000Y-68580000D03*
X162560000Y-71120000D03*
X162560000Y-73660000D03*
X162560000Y-76200000D03*
X162560000Y-78740000D03*
X162560000Y-81280000D03*
X162560000Y-83820000D03*
X162560000Y-86360000D03*
X162560000Y-88900000D03*
X162560000Y-91440000D03*
%TD*%
D10*
%TO.C,J18*%
X110490000Y-83820000D03*
D11*
X110490000Y-81280000D03*
X110490000Y-78740000D03*
X110490000Y-76200000D03*
%TD*%
D13*
%TO.C,SW1*%
X146050000Y-85090000D03*
D14*
X151130000Y-85090000D03*
%TD*%
D10*
%TO.C,J29*%
X81280000Y-83820000D03*
D11*
X78740000Y-83820000D03*
X76200000Y-83820000D03*
X73660000Y-83820000D03*
X71120000Y-83820000D03*
X68580000Y-83820000D03*
X66040000Y-83820000D03*
X63500000Y-83820000D03*
%TD*%
D15*
%TO.C,U12*%
X139700000Y-53340000D03*
D16*
X139700000Y-55880000D03*
X139700000Y-58420000D03*
X139700000Y-60960000D03*
X139700000Y-63500000D03*
X139700000Y-66040000D03*
X139700000Y-68580000D03*
X147320000Y-68580000D03*
X147320000Y-66040000D03*
X147320000Y-63500000D03*
X147320000Y-60960000D03*
X147320000Y-58420000D03*
X147320000Y-55880000D03*
X147320000Y-53340000D03*
%TD*%
D10*
%TO.C,J23*%
X149860000Y-43180000D03*
D11*
X149860000Y-45720000D03*
X149860000Y-48260000D03*
%TD*%
D15*
%TO.C,U20*%
X93980000Y-50800000D03*
D16*
X93980000Y-53340000D03*
X93980000Y-55880000D03*
X93980000Y-58420000D03*
X93980000Y-60960000D03*
X93980000Y-63500000D03*
X93980000Y-66040000D03*
X93980000Y-68580000D03*
X93980000Y-71120000D03*
X93980000Y-73660000D03*
X101600000Y-73660000D03*
X101600000Y-71120000D03*
X101600000Y-68580000D03*
X101600000Y-66040000D03*
X101600000Y-63500000D03*
X101600000Y-60960000D03*
X101600000Y-58420000D03*
X101600000Y-55880000D03*
X101600000Y-53340000D03*
X101600000Y-50800000D03*
%TD*%
D10*
%TO.C,JCol7*%
X226060000Y-30480000D03*
D11*
X226060000Y-33020000D03*
X226060000Y-35560000D03*
X226060000Y-38100000D03*
X226060000Y-40640000D03*
X226060000Y-43180000D03*
X226060000Y-45720000D03*
X226060000Y-48260000D03*
X226060000Y-50800000D03*
X226060000Y-53340000D03*
X226060000Y-55880000D03*
X226060000Y-58420000D03*
X226060000Y-60960000D03*
X226060000Y-63500000D03*
X226060000Y-66040000D03*
X226060000Y-68580000D03*
X226060000Y-71120000D03*
X226060000Y-73660000D03*
X226060000Y-76200000D03*
X226060000Y-78740000D03*
X226060000Y-81280000D03*
X226060000Y-83820000D03*
X226060000Y-86360000D03*
X226060000Y-88900000D03*
X226060000Y-91440000D03*
%TD*%
D10*
%TO.C,J19*%
X113030000Y-83820000D03*
D11*
X113030000Y-81280000D03*
X113030000Y-78740000D03*
X113030000Y-76200000D03*
%TD*%
D10*
%TO.C,JCol5*%
X220980000Y-30480000D03*
D11*
X220980000Y-33020000D03*
X220980000Y-35560000D03*
X220980000Y-38100000D03*
X220980000Y-40640000D03*
X220980000Y-43180000D03*
X220980000Y-45720000D03*
X220980000Y-48260000D03*
X220980000Y-50800000D03*
X220980000Y-53340000D03*
X220980000Y-55880000D03*
X220980000Y-58420000D03*
X220980000Y-60960000D03*
X220980000Y-63500000D03*
X220980000Y-66040000D03*
X220980000Y-68580000D03*
X220980000Y-71120000D03*
X220980000Y-73660000D03*
X220980000Y-76200000D03*
X220980000Y-78740000D03*
X220980000Y-81280000D03*
X220980000Y-83820000D03*
X220980000Y-86360000D03*
X220980000Y-88900000D03*
X220980000Y-91440000D03*
%TD*%
D12*
%TO.C,C12*%
X71120000Y-43220000D03*
X71120000Y-45720000D03*
%TD*%
D15*
%TO.C,U21*%
X45720000Y-60960000D03*
D16*
X45720000Y-63500000D03*
X45720000Y-66040000D03*
X45720000Y-68580000D03*
X45720000Y-71120000D03*
X45720000Y-73660000D03*
X45720000Y-76200000D03*
X45720000Y-78740000D03*
X53340000Y-78740000D03*
X53340000Y-76200000D03*
X53340000Y-73660000D03*
X53340000Y-71120000D03*
X53340000Y-68580000D03*
X53340000Y-66040000D03*
X53340000Y-63500000D03*
X53340000Y-60960000D03*
%TD*%
D13*
%TO.C,r6*%
X58420000Y-55880000D03*
D14*
X58420000Y-48260000D03*
%TD*%
D12*
%TO.C,C11*%
X68580000Y-43180000D03*
X68580000Y-45680000D03*
%TD*%
D15*
%TO.C,U15*%
X109220000Y-50800000D03*
D16*
X109220000Y-53340000D03*
X109220000Y-55880000D03*
X109220000Y-58420000D03*
X109220000Y-60960000D03*
X109220000Y-63500000D03*
X109220000Y-66040000D03*
X109220000Y-68580000D03*
X116840000Y-68580000D03*
X116840000Y-66040000D03*
X116840000Y-63500000D03*
X116840000Y-60960000D03*
X116840000Y-58420000D03*
X116840000Y-55880000D03*
X116840000Y-53340000D03*
X116840000Y-50800000D03*
%TD*%
D12*
%TO.C,C14*%
X83820000Y-60960000D03*
X83820000Y-58460000D03*
%TD*%
D10*
%TO.C,J12*%
X96520000Y-81280000D03*
D11*
X93980000Y-81280000D03*
X91440000Y-81280000D03*
X88900000Y-81280000D03*
%TD*%
D15*
%TO.C,U16*%
X119380000Y-93980000D03*
D16*
X121920000Y-93980000D03*
X124460000Y-93980000D03*
X127000000Y-93980000D03*
X129540000Y-93980000D03*
X132080000Y-93980000D03*
X134620000Y-93980000D03*
X137160000Y-93980000D03*
X139700000Y-93980000D03*
X142240000Y-93980000D03*
X142240000Y-86360000D03*
X139700000Y-86360000D03*
X137160000Y-86360000D03*
X134620000Y-86360000D03*
X132080000Y-86360000D03*
X129540000Y-86360000D03*
X127000000Y-86360000D03*
X124460000Y-86360000D03*
X121920000Y-86360000D03*
X119380000Y-86360000D03*
%TD*%
D10*
%TO.C,JCol10*%
X213360000Y-30480000D03*
D11*
X213360000Y-33020000D03*
X213360000Y-35560000D03*
X213360000Y-38100000D03*
X213360000Y-40640000D03*
X213360000Y-43180000D03*
X213360000Y-45720000D03*
X213360000Y-48260000D03*
X213360000Y-50800000D03*
X213360000Y-53340000D03*
X213360000Y-55880000D03*
X213360000Y-58420000D03*
X213360000Y-60960000D03*
X213360000Y-63500000D03*
X213360000Y-66040000D03*
X213360000Y-68580000D03*
X213360000Y-71120000D03*
X213360000Y-73660000D03*
X213360000Y-76200000D03*
X213360000Y-78740000D03*
X213360000Y-81280000D03*
X213360000Y-83820000D03*
X213360000Y-86360000D03*
X213360000Y-88900000D03*
X213360000Y-91440000D03*
%TD*%
D10*
%TO.C,J13*%
X106680000Y-81280000D03*
D11*
X104140000Y-81280000D03*
X101600000Y-81280000D03*
X99060000Y-81280000D03*
%TD*%
D10*
%TO.C,JCol4*%
X218440000Y-30480000D03*
D11*
X218440000Y-33020000D03*
X218440000Y-35560000D03*
X218440000Y-38100000D03*
X218440000Y-40640000D03*
X218440000Y-43180000D03*
X218440000Y-45720000D03*
X218440000Y-48260000D03*
X218440000Y-50800000D03*
X218440000Y-53340000D03*
X218440000Y-55880000D03*
X218440000Y-58420000D03*
X218440000Y-60960000D03*
X218440000Y-63500000D03*
X218440000Y-66040000D03*
X218440000Y-68580000D03*
X218440000Y-71120000D03*
X218440000Y-73660000D03*
X218440000Y-76200000D03*
X218440000Y-78740000D03*
X218440000Y-81280000D03*
X218440000Y-83820000D03*
X218440000Y-86360000D03*
X218440000Y-88900000D03*
X218440000Y-91440000D03*
%TD*%
D13*
%TO.C,r7*%
X55880000Y-55880000D03*
D14*
X55880000Y-48260000D03*
%TD*%
D10*
%TO.C,JCol10*%
X172720000Y-30480000D03*
D11*
X172720000Y-33020000D03*
X172720000Y-35560000D03*
X172720000Y-38100000D03*
X172720000Y-40640000D03*
X172720000Y-43180000D03*
X172720000Y-45720000D03*
X172720000Y-48260000D03*
X172720000Y-50800000D03*
X172720000Y-53340000D03*
X172720000Y-55880000D03*
X172720000Y-58420000D03*
X172720000Y-60960000D03*
X172720000Y-63500000D03*
X172720000Y-66040000D03*
X172720000Y-68580000D03*
X172720000Y-71120000D03*
X172720000Y-73660000D03*
X172720000Y-76200000D03*
X172720000Y-78740000D03*
X172720000Y-81280000D03*
X172720000Y-83820000D03*
X172720000Y-86360000D03*
X172720000Y-88900000D03*
X172720000Y-91440000D03*
%TD*%
D10*
%TO.C,JCol9*%
X231140000Y-30480000D03*
D11*
X231140000Y-33020000D03*
X231140000Y-35560000D03*
X231140000Y-38100000D03*
X231140000Y-40640000D03*
X231140000Y-43180000D03*
X231140000Y-45720000D03*
X231140000Y-48260000D03*
X231140000Y-50800000D03*
X231140000Y-53340000D03*
X231140000Y-55880000D03*
X231140000Y-58420000D03*
X231140000Y-60960000D03*
X231140000Y-63500000D03*
X231140000Y-66040000D03*
X231140000Y-68580000D03*
X231140000Y-71120000D03*
X231140000Y-73660000D03*
X231140000Y-76200000D03*
X231140000Y-78740000D03*
X231140000Y-81280000D03*
X231140000Y-83820000D03*
X231140000Y-86360000D03*
X231140000Y-88900000D03*
X231140000Y-91440000D03*
%TD*%
D10*
%TO.C,JCol8*%
X167640000Y-30480000D03*
D11*
X167640000Y-33020000D03*
X167640000Y-35560000D03*
X167640000Y-38100000D03*
X167640000Y-40640000D03*
X167640000Y-43180000D03*
X167640000Y-45720000D03*
X167640000Y-48260000D03*
X167640000Y-50800000D03*
X167640000Y-53340000D03*
X167640000Y-55880000D03*
X167640000Y-58420000D03*
X167640000Y-60960000D03*
X167640000Y-63500000D03*
X167640000Y-66040000D03*
X167640000Y-68580000D03*
X167640000Y-71120000D03*
X167640000Y-73660000D03*
X167640000Y-76200000D03*
X167640000Y-78740000D03*
X167640000Y-81280000D03*
X167640000Y-83820000D03*
X167640000Y-86360000D03*
X167640000Y-88900000D03*
X167640000Y-91440000D03*
%TD*%
D12*
%TO.C,C13*%
X71120000Y-68620000D03*
X71120000Y-71120000D03*
%TD*%
%TO.C,C6*%
X43180000Y-50760000D03*
X43180000Y-48260000D03*
%TD*%
D10*
%TO.C,JCol10*%
X254000000Y-30480000D03*
D11*
X254000000Y-33020000D03*
X254000000Y-35560000D03*
X254000000Y-38100000D03*
X254000000Y-40640000D03*
X254000000Y-43180000D03*
X254000000Y-45720000D03*
X254000000Y-48260000D03*
X254000000Y-50800000D03*
X254000000Y-53340000D03*
X254000000Y-55880000D03*
X254000000Y-58420000D03*
X254000000Y-60960000D03*
X254000000Y-63500000D03*
X254000000Y-66040000D03*
X254000000Y-68580000D03*
X254000000Y-71120000D03*
X254000000Y-73660000D03*
X254000000Y-76200000D03*
X254000000Y-78740000D03*
X254000000Y-81280000D03*
X254000000Y-83820000D03*
X254000000Y-86360000D03*
X254000000Y-88900000D03*
X254000000Y-91440000D03*
%TD*%
D12*
%TO.C,C4*%
X86360000Y-60960000D03*
X86360000Y-58460000D03*
%TD*%
D15*
%TO.C,U11*%
X109220000Y-30480000D03*
D16*
X109220000Y-33020000D03*
X109220000Y-35560000D03*
X109220000Y-38100000D03*
X109220000Y-40640000D03*
X109220000Y-43180000D03*
X109220000Y-45720000D03*
X116840000Y-45720000D03*
X116840000Y-43180000D03*
X116840000Y-40640000D03*
X116840000Y-38100000D03*
X116840000Y-35560000D03*
X116840000Y-33020000D03*
X116840000Y-30480000D03*
%TD*%
D10*
%TO.C,J16*%
X154940000Y-25400000D03*
D11*
X157480000Y-25400000D03*
X160020000Y-25400000D03*
X162560000Y-25400000D03*
X165100000Y-25400000D03*
X167640000Y-25400000D03*
X170180000Y-25400000D03*
X172720000Y-25400000D03*
X175260000Y-25400000D03*
X177800000Y-25400000D03*
X180340000Y-25400000D03*
X182880000Y-25400000D03*
X185420000Y-25400000D03*
X187960000Y-25400000D03*
X190500000Y-25400000D03*
%TD*%
D12*
%TO.C,C1*%
X88900000Y-35520000D03*
X88900000Y-33020000D03*
%TD*%
D10*
%TO.C,JCol3*%
X175260000Y-30480000D03*
D11*
X175260000Y-33020000D03*
X175260000Y-35560000D03*
X175260000Y-38100000D03*
X175260000Y-40640000D03*
X175260000Y-43180000D03*
X175260000Y-45720000D03*
X175260000Y-48260000D03*
X175260000Y-50800000D03*
X175260000Y-53340000D03*
X175260000Y-55880000D03*
X175260000Y-58420000D03*
X175260000Y-60960000D03*
X175260000Y-63500000D03*
X175260000Y-66040000D03*
X175260000Y-68580000D03*
X175260000Y-71120000D03*
X175260000Y-73660000D03*
X175260000Y-76200000D03*
X175260000Y-78740000D03*
X175260000Y-81280000D03*
X175260000Y-83820000D03*
X175260000Y-86360000D03*
X175260000Y-88900000D03*
X175260000Y-91440000D03*
%TD*%
D15*
%TO.C,U22*%
X58420000Y-93980000D03*
D16*
X60960000Y-93980000D03*
X63500000Y-93980000D03*
X66040000Y-93980000D03*
X68580000Y-93980000D03*
X71120000Y-93980000D03*
X73660000Y-93980000D03*
X76200000Y-93980000D03*
X78740000Y-93980000D03*
X81280000Y-93980000D03*
X81280000Y-86360000D03*
X78740000Y-86360000D03*
X76200000Y-86360000D03*
X73660000Y-86360000D03*
X71120000Y-86360000D03*
X68580000Y-86360000D03*
X66040000Y-86360000D03*
X63500000Y-86360000D03*
X60960000Y-86360000D03*
X58420000Y-86360000D03*
%TD*%
D10*
%TO.C,JCol8*%
X208280000Y-30480000D03*
D11*
X208280000Y-33020000D03*
X208280000Y-35560000D03*
X208280000Y-38100000D03*
X208280000Y-40640000D03*
X208280000Y-43180000D03*
X208280000Y-45720000D03*
X208280000Y-48260000D03*
X208280000Y-50800000D03*
X208280000Y-53340000D03*
X208280000Y-55880000D03*
X208280000Y-58420000D03*
X208280000Y-60960000D03*
X208280000Y-63500000D03*
X208280000Y-66040000D03*
X208280000Y-68580000D03*
X208280000Y-71120000D03*
X208280000Y-73660000D03*
X208280000Y-76200000D03*
X208280000Y-78740000D03*
X208280000Y-81280000D03*
X208280000Y-83820000D03*
X208280000Y-86360000D03*
X208280000Y-88900000D03*
X208280000Y-91440000D03*
%TD*%
D13*
%TO.C,r5*%
X86360000Y-71120000D03*
D14*
X86360000Y-63500000D03*
%TD*%
D15*
%TO.C,U2*%
X73660000Y-30480000D03*
D16*
X73660000Y-33020000D03*
X73660000Y-35560000D03*
X73660000Y-38100000D03*
X73660000Y-40640000D03*
X73660000Y-43180000D03*
X73660000Y-45720000D03*
X73660000Y-48260000D03*
X81280000Y-48260000D03*
X81280000Y-45720000D03*
X81280000Y-43180000D03*
X81280000Y-40640000D03*
X81280000Y-38100000D03*
X81280000Y-35560000D03*
X81280000Y-33020000D03*
X81280000Y-30480000D03*
%TD*%
D13*
%TO.C,r15*%
X70972000Y-40640000D03*
D14*
X70972000Y-33020000D03*
%TD*%
D15*
%TO.C,U19*%
X93980000Y-30480000D03*
D16*
X93980000Y-33020000D03*
X93980000Y-35560000D03*
X93980000Y-38100000D03*
X93980000Y-40640000D03*
X93980000Y-43180000D03*
X93980000Y-45720000D03*
X101600000Y-45720000D03*
X101600000Y-43180000D03*
X101600000Y-40640000D03*
X101600000Y-38100000D03*
X101600000Y-35560000D03*
X101600000Y-33020000D03*
X101600000Y-30480000D03*
%TD*%
D10*
%TO.C,JCol6*%
X182880000Y-30480000D03*
D11*
X182880000Y-33020000D03*
X182880000Y-35560000D03*
X182880000Y-38100000D03*
X182880000Y-40640000D03*
X182880000Y-43180000D03*
X182880000Y-45720000D03*
X182880000Y-48260000D03*
X182880000Y-50800000D03*
X182880000Y-53340000D03*
X182880000Y-55880000D03*
X182880000Y-58420000D03*
X182880000Y-60960000D03*
X182880000Y-63500000D03*
X182880000Y-66040000D03*
X182880000Y-68580000D03*
X182880000Y-71120000D03*
X182880000Y-73660000D03*
X182880000Y-76200000D03*
X182880000Y-78740000D03*
X182880000Y-81280000D03*
X182880000Y-83820000D03*
X182880000Y-86360000D03*
X182880000Y-88900000D03*
X182880000Y-91440000D03*
%TD*%
D15*
%TO.C,PROG_INTER1*%
X30490000Y-22860000D03*
D16*
X30490000Y-25400000D03*
X30490000Y-27940000D03*
X30490000Y-30480000D03*
X38110000Y-30480000D03*
X38110000Y-27940000D03*
X38110000Y-25400000D03*
X38110000Y-22860000D03*
%TD*%
D15*
%TO.C,U3*%
X73660000Y-55880000D03*
D16*
X73660000Y-58420000D03*
X73660000Y-60960000D03*
X73660000Y-63500000D03*
X73660000Y-66040000D03*
X73660000Y-68580000D03*
X73660000Y-71120000D03*
X73660000Y-73660000D03*
X81280000Y-73660000D03*
X81280000Y-71120000D03*
X81280000Y-68580000D03*
X81280000Y-66040000D03*
X81280000Y-63500000D03*
X81280000Y-60960000D03*
X81280000Y-58420000D03*
X81280000Y-55880000D03*
%TD*%
D10*
%TO.C,JCol5*%
X180340000Y-30480000D03*
D11*
X180340000Y-33020000D03*
X180340000Y-35560000D03*
X180340000Y-38100000D03*
X180340000Y-40640000D03*
X180340000Y-43180000D03*
X180340000Y-45720000D03*
X180340000Y-48260000D03*
X180340000Y-50800000D03*
X180340000Y-53340000D03*
X180340000Y-55880000D03*
X180340000Y-58420000D03*
X180340000Y-60960000D03*
X180340000Y-63500000D03*
X180340000Y-66040000D03*
X180340000Y-68580000D03*
X180340000Y-71120000D03*
X180340000Y-73660000D03*
X180340000Y-76200000D03*
X180340000Y-78740000D03*
X180340000Y-81280000D03*
X180340000Y-83820000D03*
X180340000Y-86360000D03*
X180340000Y-88900000D03*
X180340000Y-91440000D03*
%TD*%
D10*
%TO.C,JCol9*%
X251460000Y-30480000D03*
D11*
X251460000Y-33020000D03*
X251460000Y-35560000D03*
X251460000Y-38100000D03*
X251460000Y-40640000D03*
X251460000Y-43180000D03*
X251460000Y-45720000D03*
X251460000Y-48260000D03*
X251460000Y-50800000D03*
X251460000Y-53340000D03*
X251460000Y-55880000D03*
X251460000Y-58420000D03*
X251460000Y-60960000D03*
X251460000Y-63500000D03*
X251460000Y-66040000D03*
X251460000Y-68580000D03*
X251460000Y-71120000D03*
X251460000Y-73660000D03*
X251460000Y-76200000D03*
X251460000Y-78740000D03*
X251460000Y-81280000D03*
X251460000Y-83820000D03*
X251460000Y-86360000D03*
X251460000Y-88900000D03*
X251460000Y-91440000D03*
%TD*%
D10*
%TO.C,JCol7*%
X246380000Y-30480000D03*
D11*
X246380000Y-33020000D03*
X246380000Y-35560000D03*
X246380000Y-38100000D03*
X246380000Y-40640000D03*
X246380000Y-43180000D03*
X246380000Y-45720000D03*
X246380000Y-48260000D03*
X246380000Y-50800000D03*
X246380000Y-53340000D03*
X246380000Y-55880000D03*
X246380000Y-58420000D03*
X246380000Y-60960000D03*
X246380000Y-63500000D03*
X246380000Y-66040000D03*
X246380000Y-68580000D03*
X246380000Y-71120000D03*
X246380000Y-73660000D03*
X246380000Y-76200000D03*
X246380000Y-78740000D03*
X246380000Y-81280000D03*
X246380000Y-83820000D03*
X246380000Y-86360000D03*
X246380000Y-88900000D03*
X246380000Y-91440000D03*
%TD*%
D10*
%TO.C,JCol5*%
X200660000Y-30480000D03*
D11*
X200660000Y-33020000D03*
X200660000Y-35560000D03*
X200660000Y-38100000D03*
X200660000Y-40640000D03*
X200660000Y-43180000D03*
X200660000Y-45720000D03*
X200660000Y-48260000D03*
X200660000Y-50800000D03*
X200660000Y-53340000D03*
X200660000Y-55880000D03*
X200660000Y-58420000D03*
X200660000Y-60960000D03*
X200660000Y-63500000D03*
X200660000Y-66040000D03*
X200660000Y-68580000D03*
X200660000Y-71120000D03*
X200660000Y-73660000D03*
X200660000Y-76200000D03*
X200660000Y-78740000D03*
X200660000Y-81280000D03*
X200660000Y-83820000D03*
X200660000Y-86360000D03*
X200660000Y-88900000D03*
X200660000Y-91440000D03*
%TD*%
D10*
%TO.C,JCol7*%
X205740000Y-30480000D03*
D11*
X205740000Y-33020000D03*
X205740000Y-35560000D03*
X205740000Y-38100000D03*
X205740000Y-40640000D03*
X205740000Y-43180000D03*
X205740000Y-45720000D03*
X205740000Y-48260000D03*
X205740000Y-50800000D03*
X205740000Y-53340000D03*
X205740000Y-55880000D03*
X205740000Y-58420000D03*
X205740000Y-60960000D03*
X205740000Y-63500000D03*
X205740000Y-66040000D03*
X205740000Y-68580000D03*
X205740000Y-71120000D03*
X205740000Y-73660000D03*
X205740000Y-76200000D03*
X205740000Y-78740000D03*
X205740000Y-81280000D03*
X205740000Y-83820000D03*
X205740000Y-86360000D03*
X205740000Y-88900000D03*
X205740000Y-91440000D03*
%TD*%
D13*
%TO.C,r10*%
X86360000Y-45720000D03*
D14*
X86360000Y-38100000D03*
%TD*%
D10*
%TO.C,J28*%
X134620000Y-35560000D03*
D11*
X134620000Y-33020000D03*
X134620000Y-30480000D03*
%TD*%
D10*
%TO.C,JCol8*%
X187960000Y-30480000D03*
D11*
X187960000Y-33020000D03*
X187960000Y-35560000D03*
X187960000Y-38100000D03*
X187960000Y-40640000D03*
X187960000Y-43180000D03*
X187960000Y-45720000D03*
X187960000Y-48260000D03*
X187960000Y-50800000D03*
X187960000Y-53340000D03*
X187960000Y-55880000D03*
X187960000Y-58420000D03*
X187960000Y-60960000D03*
X187960000Y-63500000D03*
X187960000Y-66040000D03*
X187960000Y-68580000D03*
X187960000Y-71120000D03*
X187960000Y-73660000D03*
X187960000Y-76200000D03*
X187960000Y-78740000D03*
X187960000Y-81280000D03*
X187960000Y-83820000D03*
X187960000Y-86360000D03*
X187960000Y-88900000D03*
X187960000Y-91440000D03*
%TD*%
D10*
%TO.C,JCol6*%
X203200000Y-30480000D03*
D11*
X203200000Y-33020000D03*
X203200000Y-35560000D03*
X203200000Y-38100000D03*
X203200000Y-40640000D03*
X203200000Y-43180000D03*
X203200000Y-45720000D03*
X203200000Y-48260000D03*
X203200000Y-50800000D03*
X203200000Y-53340000D03*
X203200000Y-55880000D03*
X203200000Y-58420000D03*
X203200000Y-60960000D03*
X203200000Y-63500000D03*
X203200000Y-66040000D03*
X203200000Y-68580000D03*
X203200000Y-71120000D03*
X203200000Y-73660000D03*
X203200000Y-76200000D03*
X203200000Y-78740000D03*
X203200000Y-81280000D03*
X203200000Y-83820000D03*
X203200000Y-86360000D03*
X203200000Y-88900000D03*
X203200000Y-91440000D03*
%TD*%
D10*
%TO.C,J1*%
X139700000Y-104140000D03*
D11*
X137160000Y-104140000D03*
X134620000Y-104140000D03*
X132080000Y-104140000D03*
X129540000Y-104140000D03*
X127000000Y-104140000D03*
X124460000Y-104140000D03*
X121920000Y-104140000D03*
X119380000Y-104140000D03*
X116840000Y-104140000D03*
X114300000Y-104140000D03*
X111760000Y-104140000D03*
X109220000Y-104140000D03*
X106680000Y-104140000D03*
X104140000Y-104140000D03*
X101600000Y-104140000D03*
X99060000Y-104140000D03*
X96520000Y-104140000D03*
X93980000Y-104140000D03*
X91440000Y-104140000D03*
X88900000Y-104140000D03*
X86360000Y-104140000D03*
X83820000Y-104140000D03*
X81280000Y-104140000D03*
X78740000Y-104140000D03*
X76200000Y-104140000D03*
X73660000Y-104140000D03*
X71120000Y-104140000D03*
X68580000Y-104140000D03*
X66040000Y-104140000D03*
X63500000Y-104140000D03*
X60960000Y-104140000D03*
X58420000Y-104140000D03*
X55880000Y-104140000D03*
X53340000Y-104140000D03*
X50800000Y-104140000D03*
X48260000Y-104140000D03*
X45720000Y-104140000D03*
X43180000Y-104140000D03*
X40640000Y-104140000D03*
%TD*%
D10*
%TO.C,J20*%
X115570000Y-83820000D03*
D11*
X115570000Y-81280000D03*
X115570000Y-78740000D03*
X115570000Y-76200000D03*
%TD*%
D15*
%TO.C,U13*%
X124460000Y-30480000D03*
D16*
X124460000Y-33020000D03*
X124460000Y-35560000D03*
X124460000Y-38100000D03*
X124460000Y-40640000D03*
X124460000Y-43180000D03*
X124460000Y-45720000D03*
X124460000Y-48260000D03*
X132080000Y-48260000D03*
X132080000Y-45720000D03*
X132080000Y-43180000D03*
X132080000Y-40640000D03*
X132080000Y-38100000D03*
X132080000Y-35560000D03*
X132080000Y-33020000D03*
X132080000Y-30480000D03*
%TD*%
D10*
%TO.C,JCol3*%
X215900000Y-30480000D03*
D11*
X215900000Y-33020000D03*
X215900000Y-35560000D03*
X215900000Y-38100000D03*
X215900000Y-40640000D03*
X215900000Y-43180000D03*
X215900000Y-45720000D03*
X215900000Y-48260000D03*
X215900000Y-50800000D03*
X215900000Y-53340000D03*
X215900000Y-55880000D03*
X215900000Y-58420000D03*
X215900000Y-60960000D03*
X215900000Y-63500000D03*
X215900000Y-66040000D03*
X215900000Y-68580000D03*
X215900000Y-71120000D03*
X215900000Y-73660000D03*
X215900000Y-76200000D03*
X215900000Y-78740000D03*
X215900000Y-81280000D03*
X215900000Y-83820000D03*
X215900000Y-86360000D03*
X215900000Y-88900000D03*
X215900000Y-91440000D03*
%TD*%
D10*
%TO.C,J25*%
X121920000Y-35560000D03*
D11*
X121920000Y-33020000D03*
X121920000Y-30480000D03*
%TD*%
D10*
%TO.C,J9*%
X88915000Y-96520000D03*
D11*
X91455000Y-96520000D03*
X93995000Y-96520000D03*
%TD*%
D10*
%TO.C,J4*%
X45720000Y-27940000D03*
D11*
X45720000Y-30480000D03*
X45720000Y-33020000D03*
X45720000Y-35560000D03*
X45720000Y-38100000D03*
X45720000Y-40640000D03*
%TD*%
D10*
%TO.C,J2*%
X121920000Y-101600000D03*
D11*
X124460000Y-101600000D03*
X127000000Y-101600000D03*
%TD*%
D10*
%TO.C,JCol8*%
X228600000Y-30480000D03*
D11*
X228600000Y-33020000D03*
X228600000Y-35560000D03*
X228600000Y-38100000D03*
X228600000Y-40640000D03*
X228600000Y-43180000D03*
X228600000Y-45720000D03*
X228600000Y-48260000D03*
X228600000Y-50800000D03*
X228600000Y-53340000D03*
X228600000Y-55880000D03*
X228600000Y-58420000D03*
X228600000Y-60960000D03*
X228600000Y-63500000D03*
X228600000Y-66040000D03*
X228600000Y-68580000D03*
X228600000Y-71120000D03*
X228600000Y-73660000D03*
X228600000Y-76200000D03*
X228600000Y-78740000D03*
X228600000Y-81280000D03*
X228600000Y-83820000D03*
X228600000Y-86360000D03*
X228600000Y-88900000D03*
X228600000Y-91440000D03*
%TD*%
D10*
%TO.C,JCol9*%
X190500000Y-30480000D03*
D11*
X190500000Y-33020000D03*
X190500000Y-35560000D03*
X190500000Y-38100000D03*
X190500000Y-40640000D03*
X190500000Y-43180000D03*
X190500000Y-45720000D03*
X190500000Y-48260000D03*
X190500000Y-50800000D03*
X190500000Y-53340000D03*
X190500000Y-55880000D03*
X190500000Y-58420000D03*
X190500000Y-60960000D03*
X190500000Y-63500000D03*
X190500000Y-66040000D03*
X190500000Y-68580000D03*
X190500000Y-71120000D03*
X190500000Y-73660000D03*
X190500000Y-76200000D03*
X190500000Y-78740000D03*
X190500000Y-81280000D03*
X190500000Y-83820000D03*
X190500000Y-86360000D03*
X190500000Y-88900000D03*
X190500000Y-91440000D03*
%TD*%
D12*
%TO.C,C3*%
X71120000Y-58460000D03*
X71120000Y-60960000D03*
%TD*%
D10*
%TO.C,J24*%
X149860000Y-35560000D03*
D11*
X149860000Y-33020000D03*
X149860000Y-30480000D03*
%TD*%
D10*
%TO.C,J5*%
X48260000Y-27940000D03*
D11*
X48260000Y-30480000D03*
X48260000Y-33020000D03*
X48260000Y-35560000D03*
X48260000Y-38100000D03*
X48260000Y-40640000D03*
%TD*%
D10*
%TO.C,J10*%
X96520000Y-83820000D03*
D11*
X93980000Y-83820000D03*
X91440000Y-83820000D03*
X88900000Y-83820000D03*
%TD*%
D10*
%TO.C,J7*%
X43180000Y-76200000D03*
D11*
X43180000Y-73660000D03*
X43180000Y-71120000D03*
%TD*%
D10*
%TO.C,JCol5*%
X160020000Y-30480000D03*
D11*
X160020000Y-33020000D03*
X160020000Y-35560000D03*
X160020000Y-38100000D03*
X160020000Y-40640000D03*
X160020000Y-43180000D03*
X160020000Y-45720000D03*
X160020000Y-48260000D03*
X160020000Y-50800000D03*
X160020000Y-53340000D03*
X160020000Y-55880000D03*
X160020000Y-58420000D03*
X160020000Y-60960000D03*
X160020000Y-63500000D03*
X160020000Y-66040000D03*
X160020000Y-68580000D03*
X160020000Y-71120000D03*
X160020000Y-73660000D03*
X160020000Y-76200000D03*
X160020000Y-78740000D03*
X160020000Y-81280000D03*
X160020000Y-83820000D03*
X160020000Y-86360000D03*
X160020000Y-88900000D03*
X160020000Y-91440000D03*
%TD*%
D10*
%TO.C,JCol4*%
X157480000Y-30480000D03*
D11*
X157480000Y-33020000D03*
X157480000Y-35560000D03*
X157480000Y-38100000D03*
X157480000Y-40640000D03*
X157480000Y-43180000D03*
X157480000Y-45720000D03*
X157480000Y-48260000D03*
X157480000Y-50800000D03*
X157480000Y-53340000D03*
X157480000Y-55880000D03*
X157480000Y-58420000D03*
X157480000Y-60960000D03*
X157480000Y-63500000D03*
X157480000Y-66040000D03*
X157480000Y-68580000D03*
X157480000Y-71120000D03*
X157480000Y-73660000D03*
X157480000Y-76200000D03*
X157480000Y-78740000D03*
X157480000Y-81280000D03*
X157480000Y-83820000D03*
X157480000Y-86360000D03*
X157480000Y-88900000D03*
X157480000Y-91440000D03*
%TD*%
D12*
%TO.C,C8*%
X86360000Y-35520000D03*
X86360000Y-33020000D03*
%TD*%
D13*
%TO.C,r4*%
X71120000Y-48260000D03*
D14*
X71120000Y-55880000D03*
%TD*%
D10*
%TO.C,J26*%
X121920000Y-43180000D03*
D11*
X121920000Y-45720000D03*
X121920000Y-48260000D03*
%TD*%
D12*
%TO.C,C15*%
X71120000Y-63540000D03*
X71120000Y-66040000D03*
%TD*%
D13*
%TO.C,r2*%
X88900000Y-45720000D03*
D14*
X88900000Y-38100000D03*
%TD*%
D10*
%TO.C,J14*%
X142240000Y-83820000D03*
D11*
X139700000Y-83820000D03*
X137160000Y-83820000D03*
X134620000Y-83820000D03*
X132080000Y-83820000D03*
X129540000Y-83820000D03*
X127000000Y-83820000D03*
X124460000Y-83820000D03*
%TD*%
D10*
%TO.C,JCol2*%
X254000000Y-27940000D03*
D11*
X251460000Y-27940000D03*
X248920000Y-27940000D03*
X246380000Y-27940000D03*
X243840000Y-27940000D03*
X241300000Y-27940000D03*
X238760000Y-27940000D03*
X236220000Y-27940000D03*
X233680000Y-27940000D03*
X231140000Y-27940000D03*
X228600000Y-27940000D03*
X226060000Y-27940000D03*
X223520000Y-27940000D03*
X220980000Y-27940000D03*
X218440000Y-27940000D03*
X215900000Y-27940000D03*
X213360000Y-27940000D03*
X210820000Y-27940000D03*
X208280000Y-27940000D03*
X205740000Y-27940000D03*
X203200000Y-27940000D03*
X200660000Y-27940000D03*
X198120000Y-27940000D03*
X195580000Y-27940000D03*
X193040000Y-27940000D03*
%TD*%
G36*
X43181993Y-20320133D02*
G01*
X43507440Y-20341475D01*
X43515487Y-20342535D01*
X43833380Y-20405763D01*
X43841222Y-20407864D01*
X44148140Y-20512046D01*
X44155641Y-20515153D01*
X44446333Y-20658504D01*
X44453364Y-20662563D01*
X44722858Y-20842632D01*
X44729299Y-20847574D01*
X44974516Y-21062624D01*
X44977478Y-21065398D01*
X46028118Y-22116039D01*
X46028122Y-22116043D01*
X46277922Y-22335099D01*
X46554182Y-22519693D01*
X46852173Y-22666648D01*
X47166781Y-22773446D01*
X47166793Y-22773449D01*
X47492655Y-22838268D01*
X47492654Y-22838268D01*
X47828207Y-22859999D01*
X47828211Y-22860000D01*
X255250077Y-22860000D01*
X255253812Y-22860113D01*
X255554366Y-22878249D01*
X255561816Y-22879153D01*
X255856117Y-22933092D01*
X255863393Y-22934885D01*
X256149064Y-23023909D01*
X256156071Y-23026566D01*
X256428929Y-23149374D01*
X256435565Y-23152857D01*
X256691624Y-23307654D01*
X256697791Y-23311911D01*
X256933331Y-23496450D01*
X256938940Y-23501419D01*
X257150515Y-23712999D01*
X257155485Y-23718608D01*
X257340014Y-23954146D01*
X257344271Y-23960313D01*
X257499066Y-24216379D01*
X257502548Y-24223015D01*
X257625352Y-24495876D01*
X257628009Y-24502883D01*
X257717024Y-24788546D01*
X257718818Y-24795822D01*
X257772752Y-25090140D01*
X257773656Y-25097579D01*
X257791836Y-25398133D01*
X257791949Y-25401877D01*
X257791949Y-93978120D01*
X257791835Y-93981872D01*
X257773618Y-94282418D01*
X257772716Y-94289847D01*
X257718788Y-94584170D01*
X257716995Y-94591446D01*
X257627985Y-94877119D01*
X257625328Y-94884126D01*
X257502535Y-95156979D01*
X257499053Y-95163615D01*
X257344264Y-95419678D01*
X257340007Y-95425845D01*
X257155478Y-95661386D01*
X257150509Y-95666996D01*
X256938930Y-95878577D01*
X256933321Y-95883547D01*
X256697789Y-96068076D01*
X256691622Y-96072333D01*
X256435559Y-96227128D01*
X256428923Y-96230611D01*
X256156070Y-96353411D01*
X256149063Y-96356068D01*
X255863389Y-96445085D01*
X255856113Y-96446879D01*
X255561806Y-96500809D01*
X255554367Y-96501712D01*
X255253817Y-96519887D01*
X255250074Y-96520000D01*
X254507996Y-96520000D01*
X254287472Y-96539293D01*
X254287461Y-96539295D01*
X254073641Y-96596587D01*
X254073632Y-96596591D01*
X253873002Y-96690146D01*
X253691655Y-96817128D01*
X253535128Y-96973655D01*
X253408146Y-97155002D01*
X253314591Y-97355632D01*
X253314587Y-97355641D01*
X253257295Y-97569461D01*
X253257293Y-97569472D01*
X253238000Y-97789996D01*
X253237999Y-97789999D01*
X253237999Y-101597294D01*
X253237763Y-101602700D01*
X253219651Y-101809724D01*
X253215898Y-101831011D01*
X253164217Y-102023887D01*
X253156824Y-102044198D01*
X253072437Y-102225165D01*
X253061630Y-102243883D01*
X252947095Y-102407456D01*
X252933201Y-102424014D01*
X252792014Y-102565201D01*
X252775456Y-102579095D01*
X252611883Y-102693630D01*
X252593165Y-102704437D01*
X252412198Y-102788824D01*
X252391887Y-102796217D01*
X252199011Y-102847898D01*
X252177725Y-102851651D01*
X251970700Y-102869764D01*
X251965294Y-102870000D01*
X168150706Y-102870000D01*
X168145300Y-102869764D01*
X167938274Y-102851651D01*
X167916988Y-102847898D01*
X167724112Y-102796217D01*
X167703801Y-102788824D01*
X167522834Y-102704437D01*
X167504116Y-102693630D01*
X167340543Y-102579095D01*
X167323985Y-102565201D01*
X167182798Y-102424014D01*
X167168904Y-102407456D01*
X167054369Y-102243883D01*
X167043562Y-102225165D01*
X166959175Y-102044198D01*
X166951782Y-102023887D01*
X166900101Y-101831011D01*
X166896348Y-101809724D01*
X166878236Y-101602700D01*
X166878000Y-101597294D01*
X166878000Y-97789998D01*
X166877999Y-97789996D01*
X166858706Y-97569472D01*
X166858704Y-97569461D01*
X166801412Y-97355641D01*
X166801408Y-97355632D01*
X166707853Y-97155002D01*
X166580871Y-96973655D01*
X166424344Y-96817128D01*
X166242997Y-96690146D01*
X166042367Y-96596591D01*
X166042358Y-96596587D01*
X165828538Y-96539295D01*
X165828527Y-96539293D01*
X165608003Y-96520000D01*
X157480016Y-96520000D01*
X156935520Y-96538186D01*
X156393766Y-96595225D01*
X156393748Y-96595228D01*
X155857435Y-96690830D01*
X155329328Y-96824504D01*
X155329317Y-96824507D01*
X154812106Y-96995572D01*
X154308426Y-97203158D01*
X153820880Y-97446190D01*
X153820855Y-97446204D01*
X153351951Y-97723431D01*
X153351945Y-97723434D01*
X152904000Y-98033485D01*
X152903984Y-98033497D01*
X152479353Y-98374745D01*
X152080185Y-98745464D01*
X151708522Y-99143752D01*
X151708509Y-99143767D01*
X151366256Y-99567589D01*
X151055149Y-100014791D01*
X150776784Y-100483086D01*
X150532597Y-100970055D01*
X150323816Y-101473249D01*
X150151527Y-101990054D01*
X150016606Y-102517827D01*
X150016600Y-102517851D01*
X149919729Y-103053932D01*
X149919726Y-103053956D01*
X149861404Y-103595573D01*
X149841975Y-104139229D01*
X149841901Y-104140766D01*
X149823618Y-104442417D01*
X149822716Y-104449847D01*
X149768788Y-104744170D01*
X149766995Y-104751446D01*
X149677985Y-105037119D01*
X149675328Y-105044126D01*
X149552535Y-105316979D01*
X149549053Y-105323615D01*
X149394264Y-105579678D01*
X149390007Y-105585845D01*
X149205478Y-105821386D01*
X149200509Y-105826996D01*
X148988930Y-106038577D01*
X148983321Y-106043547D01*
X148747789Y-106228076D01*
X148741622Y-106232333D01*
X148485559Y-106387128D01*
X148478923Y-106390611D01*
X148206070Y-106513411D01*
X148199063Y-106516068D01*
X147913389Y-106605085D01*
X147906113Y-106606879D01*
X147611806Y-106660809D01*
X147604367Y-106661712D01*
X147303817Y-106679886D01*
X147300073Y-106679999D01*
X30464183Y-106679999D01*
X30459705Y-106679837D01*
X30136101Y-106656413D01*
X30128095Y-106655306D01*
X29812025Y-106590390D01*
X29804231Y-106588252D01*
X29499296Y-106482824D01*
X29491846Y-106479691D01*
X29203180Y-106335525D01*
X29196200Y-106331451D01*
X28928724Y-106151005D01*
X28922333Y-106146059D01*
X28680566Y-105932385D01*
X28674871Y-105926649D01*
X28462924Y-105683374D01*
X28458024Y-105676947D01*
X28279477Y-105408187D01*
X28275453Y-105401178D01*
X28133345Y-105111499D01*
X28130265Y-105104027D01*
X28027006Y-104798350D01*
X28024924Y-104790541D01*
X27962257Y-104474024D01*
X27961207Y-104466011D01*
X27940068Y-104142015D01*
X27939936Y-104137977D01*
X27939936Y-22861876D01*
X27940049Y-22858132D01*
X27958226Y-22557587D01*
X27959130Y-22550147D01*
X28013070Y-22255828D01*
X28014863Y-22248553D01*
X28103882Y-21962891D01*
X28106539Y-21955885D01*
X28229343Y-21683031D01*
X28232825Y-21676396D01*
X28387622Y-21420336D01*
X28391879Y-21414169D01*
X28576413Y-21178630D01*
X28581382Y-21173021D01*
X28792954Y-20961449D01*
X28798563Y-20956480D01*
X29034102Y-20771946D01*
X29040269Y-20767689D01*
X29296335Y-20612891D01*
X29302970Y-20609408D01*
X29575820Y-20486607D01*
X29582826Y-20483950D01*
X29868488Y-20394931D01*
X29875764Y-20393138D01*
X30170082Y-20339199D01*
X30177521Y-20338296D01*
X30478071Y-20320113D01*
X30481816Y-20320000D01*
X43177935Y-20320000D01*
X43181993Y-20320133D01*
G37*
G36*
X253191589Y-97559685D02*
G01*
X253237344Y-97612489D01*
X253248078Y-97674807D01*
X253238000Y-97789996D01*
X253237999Y-97789999D01*
X253237999Y-101597294D01*
X253237763Y-101602700D01*
X253219651Y-101809724D01*
X253215898Y-101831011D01*
X253164217Y-102023887D01*
X253156824Y-102044198D01*
X253072437Y-102225165D01*
X253061630Y-102243883D01*
X252947095Y-102407456D01*
X252933201Y-102424014D01*
X252792014Y-102565201D01*
X252775456Y-102579095D01*
X252611883Y-102693630D01*
X252593165Y-102704437D01*
X252412198Y-102788824D01*
X252391887Y-102796217D01*
X252199011Y-102847898D01*
X252177725Y-102851651D01*
X251970700Y-102869764D01*
X251965294Y-102870000D01*
X168150706Y-102870000D01*
X168145300Y-102869764D01*
X167938274Y-102851651D01*
X167916988Y-102847898D01*
X167724112Y-102796217D01*
X167703801Y-102788824D01*
X167522834Y-102704437D01*
X167504116Y-102693630D01*
X167340543Y-102579095D01*
X167323985Y-102565201D01*
X167182798Y-102424014D01*
X167168904Y-102407456D01*
X167054369Y-102243883D01*
X167043562Y-102225165D01*
X166959175Y-102044198D01*
X166951782Y-102023887D01*
X166900101Y-101831011D01*
X166896348Y-101809724D01*
X166878236Y-101602700D01*
X166878000Y-101597294D01*
X166878000Y-97789998D01*
X166877999Y-97789996D01*
X166867922Y-97674807D01*
X166881689Y-97606307D01*
X166930304Y-97556124D01*
X166991450Y-97540000D01*
X253124550Y-97540000D01*
X253191589Y-97559685D01*
G37*
M02*
