M48
; DRILL file {KiCad 7.0.5} date Sun Nov 17 15:27:38 2024
; FORMAT={-:-/ absolute / inch / decimal}
; #@! TF.CreationDate,2024-11-17T15:27:38-05:00
; #@! TF.GenerationSoftware,Kicad,Pcbnew,7.0.5
; #@! TF.FileFunction,Plated,1,2,PTH
FMAT,2
INCH
; #@! TA.AperFunction,Plated,PTH,ViaDrill
T1C0.0157
; #@! TA.AperFunction,Plated,PTH,ComponentDrill
T2C0.0276
; #@! TA.AperFunction,Plated,PTH,ComponentDrill
T3C0.0315
; #@! TA.AperFunction,Plated,PTH,ComponentDrill
T4C0.0354
; #@! TA.AperFunction,Plated,PTH,ComponentDrill
T5C0.0394
; #@! TA.AperFunction,Plated,PTH,ViaDrill
T6C0.1181
; #@! TA.AperFunction,Plated,PTH,ComponentDrill
T7C0.1260
%
G90
G05
T1
X1.34Y-1.24
X1.4984Y-2.48
X1.506Y-2.994
X1.5103Y-3.0858
X1.522Y-2.5819
X1.522Y-2.9552
X1.5457Y-2.6909
X1.569Y-3.0008
X1.6183Y-1.3496
X1.6576Y-1.3496
X1.6957Y-1.3811
X2.2543Y-1.5428
X2.2544Y-1.4935
X2.2546Y-1.3936
X2.2547Y-1.5931
X2.255Y-1.3439
X2.2556Y-1.644
X2.2559Y-1.4445
X2.3003Y-2.4003
X2.3279Y-2.3323
X2.3395Y-2.3981
X2.3468Y-1.3967
X2.3591Y-2.3083
X2.4456Y-2.08
X2.4693Y-2.18
X2.4929Y-2.1266
X2.5165Y-2.02
X3.4Y-3.9551
X3.4429Y-3.9315
X3.6995Y-1.1307
X3.7686Y-1.1205
X3.8315Y-2.4449
X3.8475Y-1.0765
X3.8551Y-2.4129
X3.9023Y-2.1
X3.9443Y-2.9557
X3.951Y-1.038
X4.017Y-2.9827
X4.0503Y-1.0507
X4.0663Y-2.9895
X4.1053Y-2.984
X4.1445Y-2.9818
X4.15Y-1.05
X4.1847Y-2.9815
X4.25Y-1.1
X4.35Y-1.1
X4.45Y-2.7477
X4.9551Y-1.4
X5.1449Y-1.4
X5.2Y-3.0977
X5.2259Y-3.068
X5.3472Y-2.8536
X5.55Y-2.85
X5.55Y-3.65
X5.5551Y-1.5
X5.5807Y-1.811
X5.65Y-2.85
X5.7449Y-1.5
X6.5956Y-3.7959
X6.6731Y-3.7959
X6.7507Y-3.7959
X6.8283Y-3.7959
X6.9058Y-3.7959
X6.9834Y-3.7959
X7.0609Y-3.7959
X7.1385Y-3.7959
X7.2161Y-3.7959
X7.2936Y-3.7959
X7.3712Y-3.7959
X7.4487Y-3.7959
X7.5263Y-3.7959
X7.6039Y-3.7959
X7.6814Y-3.7959
X7.759Y-3.7959
X7.8365Y-3.7959
X7.9141Y-3.7959
X7.9917Y-3.7959
X8.0692Y-3.7959
X8.1468Y-3.7959
X8.2243Y-3.7959
X8.3019Y-3.7959
X8.3794Y-3.7959
X8.457Y-3.7959
X8.5346Y-3.7959
X8.6121Y-3.7959
X8.6897Y-3.7959
X8.7672Y-3.7959
X8.8448Y-3.7959
X8.9224Y-3.7959
X8.9999Y-3.7959
X9.0775Y-3.7959
X9.155Y-3.7959
X9.2326Y-3.7959
X9.3102Y-3.7959
X9.3877Y-3.7959
X9.4653Y-3.7959
X9.5428Y-3.7959
X9.6204Y-3.7959
X9.698Y-3.7959
X9.7755Y-3.7959
X9.8531Y-3.7959
X9.9306Y-3.7959
T2
X2.2Y-1.9
X2.2Y-2.2
X2.3Y-1.9
X2.3Y-2.2
X2.6Y-1.3
X2.6Y-1.6
X2.7Y-1.3
X2.7Y-1.6
X2.7Y-1.9
X2.7Y-2.2
X2.7942Y-1.3
X2.7942Y-1.6
X2.8Y-1.9
X2.8Y-2.2
X3.4Y-1.5
X3.4Y-1.8
X3.4Y-2.5
X3.4Y-2.8
X3.5Y-1.5
X3.5Y-1.8
X3.5Y-2.5
X3.5Y-2.8
X5.75Y-2.95
X5.75Y-3.15
X5.75Y-3.35
X5.95Y-2.95
X5.95Y-3.15
X5.95Y-3.35
T3
X1.2004Y-0.9
X1.2004Y-1.0
X1.2004Y-1.1
X1.2004Y-1.2
X1.5004Y-0.9
X1.5004Y-1.0
X1.5004Y-1.1
X1.5004Y-1.2
X1.7Y-1.9
X1.7Y-1.9984
X1.7Y-2.1
X1.7Y-2.1984
X1.8Y-1.9
X1.8Y-2.0
X1.8Y-2.1
X1.8Y-2.2
X1.8Y-2.4
X1.8Y-2.5
X1.8Y-2.6
X1.8Y-2.7
X1.8Y-2.8
X1.8Y-2.9
X1.8Y-3.0
X1.8Y-3.1
X2.1Y-1.9
X2.1Y-2.0
X2.1Y-2.1
X2.1Y-2.2
X2.1Y-2.4
X2.1Y-2.5
X2.1Y-2.6
X2.1Y-2.7
X2.1Y-2.8
X2.1Y-2.9
X2.1Y-3.0
X2.1Y-3.1
X2.3Y-2.5
X2.3Y-3.1
X2.3Y-3.4
X2.3Y-3.7
X2.4Y-2.5
X2.4Y-3.1
X2.4Y-3.4
X2.4Y-3.7
X2.5Y-2.5
X2.5Y-3.1
X2.5Y-3.4
X2.5Y-3.7
X2.6Y-1.7016
X2.6Y-1.8
X2.6Y-2.5
X2.6Y-3.1
X2.6Y-3.4
X2.6Y-3.7
X2.7Y-1.7
X2.7Y-1.7984
X2.7Y-2.5
X2.7Y-3.1
X2.7Y-3.4
X2.7Y-3.7
X2.7016Y-1.2
X2.8Y-1.2
X2.8Y-1.7016
X2.8Y-1.8
X2.8Y-2.3016
X2.8Y-2.4
X2.8Y-2.5016
X2.8Y-2.6
X2.8Y-2.7016
X2.8Y-2.8
X2.8Y-3.4
X2.8Y-3.7
X2.9Y-1.2
X2.9Y-1.3
X2.9Y-1.4
X2.9Y-1.5
X2.9Y-1.6
X2.9Y-1.7
X2.9Y-1.8
X2.9Y-1.9
X2.9Y-2.2
X2.9Y-2.3
X2.9Y-2.4
X2.9Y-2.5
X2.9Y-2.6
X2.9Y-2.7
X2.9Y-2.8
X2.9Y-2.9
X2.9Y-3.4
X2.9Y-3.7
X3.0Y-3.4
X3.0Y-3.7
X3.1Y-3.4
X3.1Y-3.7
X3.2Y-1.2
X3.2Y-1.3
X3.2Y-1.4
X3.2Y-1.5
X3.2Y-1.6
X3.2Y-1.7
X3.2Y-1.8
X3.2Y-1.9
X3.2Y-2.2
X3.2Y-2.3
X3.2Y-2.4
X3.2Y-2.5
X3.2Y-2.6
X3.2Y-2.7
X3.2Y-2.8
X3.2Y-2.9
X3.2Y-3.4
X3.2Y-3.7
X3.3Y-1.3016
X3.3Y-1.4
X3.3Y-2.3016
X3.3Y-2.4
X3.4Y-1.3
X3.4Y-1.3984
X3.4Y-2.3016
X3.4Y-2.4
X3.4Y-3.4
X3.4Y-3.7
X3.5Y-1.3
X3.5Y-1.3984
X3.5Y-2.3016
X3.5Y-2.4
X3.5Y-3.4
X3.5Y-3.7
X3.6Y-3.4
X3.6Y-3.7
X3.7Y-1.2
X3.7Y-1.3
X3.7Y-1.4
X3.7Y-1.5
X3.7Y-1.6
X3.7Y-1.7
X3.7Y-1.8
X3.7Y-2.0
X3.7Y-2.1
X3.7Y-2.2
X3.7Y-2.3
X3.7Y-2.4
X3.7Y-2.5
X3.7Y-2.6
X3.7Y-2.7
X3.7Y-2.8
X3.7Y-2.9
X3.7Y-3.4
X3.7Y-3.7
X3.8Y-3.4
X3.8Y-3.7
X3.9Y-3.4
X3.9Y-3.7
X4.0Y-1.2
X4.0Y-1.3
X4.0Y-1.4
X4.0Y-1.5
X4.0Y-1.6
X4.0Y-1.7
X4.0Y-1.8
X4.0Y-2.0
X4.0Y-2.1
X4.0Y-2.2
X4.0Y-2.3
X4.0Y-2.4
X4.0Y-2.5
X4.0Y-2.6
X4.0Y-2.7
X4.0Y-2.8
X4.0Y-2.9
X4.0Y-3.4
X4.0Y-3.7
X4.1Y-3.4
X4.1Y-3.7
X4.3Y-1.2
X4.3Y-1.3
X4.3Y-1.4
X4.3Y-1.5
X4.3Y-1.6
X4.3Y-1.7
X4.3Y-1.8
X4.3Y-2.0
X4.3Y-2.1
X4.3Y-2.2
X4.3Y-2.3
X4.3Y-2.4
X4.3Y-2.5
X4.3Y-2.6
X4.3Y-2.7
X4.6Y-1.2
X4.6Y-1.3
X4.6Y-1.4
X4.6Y-1.5
X4.6Y-1.6
X4.6Y-1.7
X4.6Y-1.8
X4.6Y-2.0
X4.6Y-2.1
X4.6Y-2.2
X4.6Y-2.3
X4.6Y-2.4
X4.6Y-2.5
X4.6Y-2.6
X4.6Y-2.7
X4.7Y-2.9
X4.7Y-3.2
X4.7Y-3.4
X4.7Y-3.7
X4.8Y-2.9
X4.8Y-3.2
X4.8Y-3.4
X4.8Y-3.7
X4.9Y-1.2
X4.9Y-1.3
X4.9Y-1.4
X4.9Y-1.5
X4.9Y-1.6
X4.9Y-1.7
X4.9Y-1.8
X4.9Y-1.9
X4.9Y-2.1
X4.9Y-2.2
X4.9Y-2.3
X4.9Y-2.4
X4.9Y-2.5
X4.9Y-2.6
X4.9Y-2.7
X4.9Y-2.9
X4.9Y-3.2
X4.9Y-3.4
X4.9Y-3.7
X5.0Y-2.9
X5.0Y-3.2
X5.0Y-3.4
X5.0Y-3.7
X5.1Y-2.9
X5.1Y-3.2
X5.1Y-3.4
X5.1Y-3.7
X5.2Y-1.2
X5.2Y-1.3
X5.2Y-1.4
X5.2Y-1.5
X5.2Y-1.6
X5.2Y-1.7
X5.2Y-1.8
X5.2Y-1.9
X5.2Y-2.1
X5.2Y-2.2
X5.2Y-2.3
X5.2Y-2.4
X5.2Y-2.5
X5.2Y-2.6
X5.2Y-2.7
X5.2Y-2.9
X5.2Y-3.2
X5.2Y-3.4
X5.2Y-3.7
X5.3Y-2.9
X5.3Y-3.2
X5.3Y-3.4
X5.3Y-3.7
X5.4Y-2.9
X5.4Y-3.2
X5.4Y-3.4
X5.4Y-3.7
X5.5Y-1.2
X5.5Y-1.3
X5.5Y-1.4
X5.5Y-1.5
X5.5Y-1.6
X5.5Y-1.7
X5.5Y-1.8
X5.5Y-1.9
X5.5Y-2.1
X5.5Y-2.2
X5.5Y-2.3
X5.5Y-2.4
X5.5Y-2.5
X5.5Y-2.6
X5.5Y-2.7
X5.5Y-2.9
X5.5Y-3.2
X5.5Y-3.4
X5.5Y-3.7
X5.6Y-2.9
X5.6Y-3.2
X5.6Y-3.4
X5.6Y-3.7
X5.8Y-1.2
X5.8Y-1.3
X5.8Y-1.4
X5.8Y-1.5
X5.8Y-1.6
X5.8Y-1.7
X5.8Y-1.8
X5.8Y-1.9
X5.8Y-2.1
X5.8Y-2.2
X5.8Y-2.3
X5.8Y-2.4
X5.8Y-2.5
X5.8Y-2.6
X5.8Y-2.7
T4
X4.2733Y-3.6
X4.3233Y-3.6
X4.3733Y-3.6
X4.4233Y-3.6
T5
X1.3079Y-2.4183
X1.3079Y-2.5274
X1.3079Y-2.6364
X1.3079Y-2.7455
X1.4197Y-2.3638
X1.4197Y-2.4728
X1.4197Y-2.5819
X1.4197Y-2.6909
X1.4197Y-2.8
X1.6Y-4.1
X1.7Y-2.8
X1.7Y-2.9
X1.7Y-3.0
X1.7Y-4.1
X1.8Y-1.1
X1.8Y-1.2
X1.8Y-1.3
X1.8Y-1.4
X1.8Y-1.5
X1.8Y-1.6
X1.8Y-4.1
X1.9Y-1.1
X1.9Y-1.2
X1.9Y-1.3
X1.9Y-1.4
X1.9Y-1.5
X1.9Y-1.6
X1.9Y-4.1
X2.0Y-1.1
X2.0Y-1.2
X2.0Y-1.3
X2.0Y-1.4
X2.0Y-1.5
X2.0Y-1.6
X2.0Y-4.1
X2.1Y-4.1
X2.2Y-4.1
X2.3Y-4.1
X2.4Y-4.1
X2.5Y-3.3
X2.5Y-4.1
X2.6Y-3.3
X2.6Y-4.1
X2.7Y-3.3
X2.7Y-4.1
X2.8Y-3.3
X2.8Y-4.1
X2.9Y-3.3
X2.9Y-4.1
X3.0Y-3.3
X3.0Y-4.1
X3.1Y-3.3
X3.1Y-4.1
X3.2Y-3.3
X3.2Y-4.1
X3.3Y-4.1
X3.4Y-4.1
X3.5Y-3.2
X3.5Y-3.3
X3.5Y-3.9
X3.5Y-4.1
X3.5006Y-3.8
X3.6Y-3.2
X3.6Y-3.3
X3.6Y-3.9
X3.6Y-4.1
X3.6006Y-3.8
X3.7Y-3.2
X3.7Y-3.3
X3.7Y-3.9
X3.7Y-4.1
X3.7006Y-3.8
X3.8Y-3.2
X3.8Y-3.3
X3.8Y-4.1
X3.9Y-3.2
X3.9Y-3.3
X3.9Y-4.1
X4.0Y-3.2
X4.0Y-3.3
X4.0Y-4.1
X4.1Y-3.2
X4.1Y-3.3
X4.1Y-4.1
X4.2Y-3.2
X4.2Y-3.3
X4.2Y-4.1
X4.3Y-4.1
X4.35Y-3.0
X4.35Y-3.1
X4.35Y-3.2
X4.35Y-3.3
X4.4Y-4.1
X4.45Y-3.0
X4.45Y-3.1
X4.45Y-3.2
X4.45Y-3.3
X4.5Y-4.1
X4.55Y-3.0
X4.55Y-3.1
X4.55Y-3.2
X4.55Y-3.3
X4.6Y-4.1
X4.7Y-4.1
X4.8Y-1.2
X4.8Y-1.3
X4.8Y-1.4
X4.8Y-1.7
X4.8Y-1.8
X4.8Y-1.9
X4.8Y-4.0
X4.8Y-4.1
X4.9Y-3.3
X4.9Y-4.0
X4.9Y-4.1
X5.0Y-3.3
X5.0Y-4.0
X5.0Y-4.1
X5.1Y-3.3
X5.1Y-4.1
X5.2Y-3.3
X5.2Y-4.1
X5.3Y-1.2
X5.3Y-1.3
X5.3Y-1.4
X5.3Y-1.7
X5.3Y-1.8
X5.3Y-1.9
X5.3Y-3.3
X5.3Y-4.1
X5.4Y-1.2
X5.4Y-1.3
X5.4Y-1.4
X5.4Y-1.7
X5.4Y-1.8
X5.4Y-1.9
X5.4Y-3.3
X5.4Y-4.1
X5.5Y-3.3
X5.5Y-4.1
X5.6Y-3.3
X5.9Y-1.2
X5.9Y-1.3
X5.9Y-1.4
X5.9Y-1.7
X5.9Y-1.8
X5.9Y-1.9
X6.1Y-1.0
X6.1Y-1.1
X6.1Y-1.2
X6.1Y-1.3
X6.1Y-1.4
X6.1Y-1.5
X6.1Y-1.6
X6.1Y-1.7
X6.1Y-1.8
X6.1Y-1.9
X6.1Y-2.0
X6.1Y-2.1
X6.1Y-2.2
X6.1Y-2.3
X6.1Y-2.4
X6.1Y-2.5
X6.1Y-2.6
X6.1Y-2.7
X6.1Y-2.8
X6.1Y-2.9
X6.1Y-3.0
X6.1Y-3.1
X6.1Y-3.2
X6.1Y-3.3
X6.1Y-3.4
X6.1Y-3.5
X6.1Y-3.6
X6.2Y-1.0
X6.2Y-1.1
X6.2Y-1.2
X6.2Y-1.3
X6.2Y-1.4
X6.2Y-1.5
X6.2Y-1.6
X6.2Y-1.7
X6.2Y-1.8
X6.2Y-1.9
X6.2Y-2.0
X6.2Y-2.1
X6.2Y-2.2
X6.2Y-2.3
X6.2Y-2.4
X6.2Y-2.5
X6.2Y-2.6
X6.2Y-2.7
X6.2Y-2.8
X6.2Y-2.9
X6.2Y-3.0
X6.2Y-3.1
X6.2Y-3.2
X6.2Y-3.3
X6.2Y-3.4
X6.2Y-3.5
X6.2Y-3.6
X6.3Y-1.0
X6.3Y-1.1
X6.3Y-1.2
X6.3Y-1.3
X6.3Y-1.4
X6.3Y-1.5
X6.3Y-1.6
X6.3Y-1.7
X6.3Y-1.8
X6.3Y-1.9
X6.3Y-2.0
X6.3Y-2.1
X6.3Y-2.2
X6.3Y-2.3
X6.3Y-2.4
X6.3Y-2.5
X6.3Y-2.6
X6.3Y-2.7
X6.3Y-2.8
X6.3Y-2.9
X6.3Y-3.0
X6.3Y-3.1
X6.3Y-3.2
X6.3Y-3.3
X6.3Y-3.4
X6.3Y-3.5
X6.3Y-3.6
X6.4Y-1.0
X6.4Y-1.1
X6.4Y-1.2
X6.4Y-1.3
X6.4Y-1.4
X6.4Y-1.5
X6.4Y-1.6
X6.4Y-1.7
X6.4Y-1.8
X6.4Y-1.9
X6.4Y-2.0
X6.4Y-2.1
X6.4Y-2.2
X6.4Y-2.3
X6.4Y-2.4
X6.4Y-2.5
X6.4Y-2.6
X6.4Y-2.7
X6.4Y-2.8
X6.4Y-2.9
X6.4Y-3.0
X6.4Y-3.1
X6.4Y-3.2
X6.4Y-3.3
X6.4Y-3.4
X6.4Y-3.5
X6.4Y-3.6
X6.5Y-1.0
X6.5Y-1.1
X6.5Y-1.2
X6.5Y-1.3
X6.5Y-1.4
X6.5Y-1.5
X6.5Y-1.6
X6.5Y-1.7
X6.5Y-1.8
X6.5Y-1.9
X6.5Y-2.0
X6.5Y-2.1
X6.5Y-2.2
X6.5Y-2.3
X6.5Y-2.4
X6.5Y-2.5
X6.5Y-2.6
X6.5Y-2.7
X6.5Y-2.8
X6.5Y-2.9
X6.5Y-3.0
X6.5Y-3.1
X6.5Y-3.2
X6.5Y-3.3
X6.5Y-3.4
X6.5Y-3.5
X6.5Y-3.6
X6.6Y-1.0
X6.6Y-1.1
X6.6Y-1.2
X6.6Y-1.3
X6.6Y-1.4
X6.6Y-1.5
X6.6Y-1.6
X6.6Y-1.7
X6.6Y-1.8
X6.6Y-1.9
X6.6Y-2.0
X6.6Y-2.1
X6.6Y-2.2
X6.6Y-2.3
X6.6Y-2.4
X6.6Y-2.5
X6.6Y-2.6
X6.6Y-2.7
X6.6Y-2.8
X6.6Y-2.9
X6.6Y-3.0
X6.6Y-3.1
X6.6Y-3.2
X6.6Y-3.3
X6.6Y-3.4
X6.6Y-3.5
X6.6Y-3.6
X6.7Y-1.0
X6.7Y-1.1
X6.7Y-1.2
X6.7Y-1.3
X6.7Y-1.4
X6.7Y-1.5
X6.7Y-1.6
X6.7Y-1.7
X6.7Y-1.8
X6.7Y-1.9
X6.7Y-2.0
X6.7Y-2.1
X6.7Y-2.2
X6.7Y-2.3
X6.7Y-2.4
X6.7Y-2.5
X6.7Y-2.6
X6.7Y-2.7
X6.7Y-2.8
X6.7Y-2.9
X6.7Y-3.0
X6.7Y-3.1
X6.7Y-3.2
X6.7Y-3.3
X6.7Y-3.4
X6.7Y-3.5
X6.7Y-3.6
X6.8Y-1.0
X6.8Y-1.1
X6.8Y-1.2
X6.8Y-1.3
X6.8Y-1.4
X6.8Y-1.5
X6.8Y-1.6
X6.8Y-1.7
X6.8Y-1.8
X6.8Y-1.9
X6.8Y-2.0
X6.8Y-2.1
X6.8Y-2.2
X6.8Y-2.3
X6.8Y-2.4
X6.8Y-2.5
X6.8Y-2.6
X6.8Y-2.7
X6.8Y-2.8
X6.8Y-2.9
X6.8Y-3.0
X6.8Y-3.1
X6.8Y-3.2
X6.8Y-3.3
X6.8Y-3.4
X6.8Y-3.5
X6.8Y-3.6
X6.9Y-1.0
X6.9Y-1.1
X6.9Y-1.2
X6.9Y-1.3
X6.9Y-1.4
X6.9Y-1.5
X6.9Y-1.6
X6.9Y-1.7
X6.9Y-1.8
X6.9Y-1.9
X6.9Y-2.0
X6.9Y-2.1
X6.9Y-2.2
X6.9Y-2.3
X6.9Y-2.4
X6.9Y-2.5
X6.9Y-2.6
X6.9Y-2.7
X6.9Y-2.8
X6.9Y-2.9
X6.9Y-3.0
X6.9Y-3.1
X6.9Y-3.2
X6.9Y-3.3
X6.9Y-3.4
X6.9Y-3.5
X6.9Y-3.6
X7.0Y-1.0
X7.0Y-1.1
X7.0Y-1.2
X7.0Y-1.3
X7.0Y-1.4
X7.0Y-1.5
X7.0Y-1.6
X7.0Y-1.7
X7.0Y-1.8
X7.0Y-1.9
X7.0Y-2.0
X7.0Y-2.1
X7.0Y-2.2
X7.0Y-2.3
X7.0Y-2.4
X7.0Y-2.5
X7.0Y-2.6
X7.0Y-2.7
X7.0Y-2.8
X7.0Y-2.9
X7.0Y-3.0
X7.0Y-3.1
X7.0Y-3.2
X7.0Y-3.3
X7.0Y-3.4
X7.0Y-3.5
X7.0Y-3.6
X7.1Y-1.0
X7.1Y-1.1
X7.1Y-1.2
X7.1Y-1.3
X7.1Y-1.4
X7.1Y-1.5
X7.1Y-1.6
X7.1Y-1.7
X7.1Y-1.8
X7.1Y-1.9
X7.1Y-2.0
X7.1Y-2.1
X7.1Y-2.2
X7.1Y-2.3
X7.1Y-2.4
X7.1Y-2.5
X7.1Y-2.6
X7.1Y-2.7
X7.1Y-2.8
X7.1Y-2.9
X7.1Y-3.0
X7.1Y-3.1
X7.1Y-3.2
X7.1Y-3.3
X7.1Y-3.4
X7.1Y-3.5
X7.1Y-3.6
X7.2Y-1.0
X7.2Y-1.1
X7.2Y-1.2
X7.2Y-1.3
X7.2Y-1.4
X7.2Y-1.5
X7.2Y-1.6
X7.2Y-1.7
X7.2Y-1.8
X7.2Y-1.9
X7.2Y-2.0
X7.2Y-2.1
X7.2Y-2.2
X7.2Y-2.3
X7.2Y-2.4
X7.2Y-2.5
X7.2Y-2.6
X7.2Y-2.7
X7.2Y-2.8
X7.2Y-2.9
X7.2Y-3.0
X7.2Y-3.1
X7.2Y-3.2
X7.2Y-3.3
X7.2Y-3.4
X7.2Y-3.5
X7.2Y-3.6
X7.3Y-1.0
X7.3Y-1.1
X7.3Y-1.2
X7.3Y-1.3
X7.3Y-1.4
X7.3Y-1.5
X7.3Y-1.6
X7.3Y-1.7
X7.3Y-1.8
X7.3Y-1.9
X7.3Y-2.0
X7.3Y-2.1
X7.3Y-2.2
X7.3Y-2.3
X7.3Y-2.4
X7.3Y-2.5
X7.3Y-2.6
X7.3Y-2.7
X7.3Y-2.8
X7.3Y-2.9
X7.3Y-3.0
X7.3Y-3.1
X7.3Y-3.2
X7.3Y-3.3
X7.3Y-3.4
X7.3Y-3.5
X7.3Y-3.6
X7.4Y-1.0
X7.4Y-1.1
X7.4Y-1.2
X7.4Y-1.3
X7.4Y-1.4
X7.4Y-1.5
X7.4Y-1.6
X7.4Y-1.7
X7.4Y-1.8
X7.4Y-1.9
X7.4Y-2.0
X7.4Y-2.1
X7.4Y-2.2
X7.4Y-2.3
X7.4Y-2.4
X7.4Y-2.5
X7.4Y-2.6
X7.4Y-2.7
X7.4Y-2.8
X7.4Y-2.9
X7.4Y-3.0
X7.4Y-3.1
X7.4Y-3.2
X7.4Y-3.3
X7.4Y-3.4
X7.4Y-3.5
X7.4Y-3.6
X7.5Y-1.0
X7.5Y-1.1
X7.5Y-1.2
X7.5Y-1.3
X7.5Y-1.4
X7.5Y-1.5
X7.5Y-1.6
X7.5Y-1.7
X7.5Y-1.8
X7.5Y-1.9
X7.5Y-2.0
X7.5Y-2.1
X7.5Y-2.2
X7.5Y-2.3
X7.5Y-2.4
X7.5Y-2.5
X7.5Y-2.6
X7.5Y-2.7
X7.5Y-2.8
X7.5Y-2.9
X7.5Y-3.0
X7.5Y-3.1
X7.5Y-3.2
X7.5Y-3.3
X7.5Y-3.4
X7.5Y-3.5
X7.5Y-3.6
X7.6Y-1.0
X7.6Y-1.1
X7.6Y-1.2
X7.6Y-1.3
X7.6Y-1.4
X7.6Y-1.5
X7.6Y-1.6
X7.6Y-1.7
X7.6Y-1.8
X7.6Y-1.9
X7.6Y-2.0
X7.6Y-2.1
X7.6Y-2.2
X7.6Y-2.3
X7.6Y-2.4
X7.6Y-2.5
X7.6Y-2.6
X7.6Y-2.7
X7.6Y-2.8
X7.6Y-2.9
X7.6Y-3.0
X7.6Y-3.1
X7.6Y-3.2
X7.6Y-3.3
X7.6Y-3.4
X7.6Y-3.5
X7.6Y-3.6
X7.7Y-1.0
X7.7Y-1.1
X7.7Y-1.2
X7.7Y-1.3
X7.7Y-1.4
X7.7Y-1.5
X7.7Y-1.6
X7.7Y-1.7
X7.7Y-1.8
X7.7Y-1.9
X7.7Y-2.0
X7.7Y-2.1
X7.7Y-2.2
X7.7Y-2.3
X7.7Y-2.4
X7.7Y-2.5
X7.7Y-2.6
X7.7Y-2.7
X7.7Y-2.8
X7.7Y-2.9
X7.7Y-3.0
X7.7Y-3.1
X7.7Y-3.2
X7.7Y-3.3
X7.7Y-3.4
X7.7Y-3.5
X7.7Y-3.6
X7.8Y-1.0
X7.8Y-1.1
X7.8Y-1.2
X7.8Y-1.3
X7.8Y-1.4
X7.8Y-1.5
X7.8Y-1.6
X7.8Y-1.7
X7.8Y-1.8
X7.8Y-1.9
X7.8Y-2.0
X7.8Y-2.1
X7.8Y-2.2
X7.8Y-2.3
X7.8Y-2.4
X7.8Y-2.5
X7.8Y-2.6
X7.8Y-2.7
X7.8Y-2.8
X7.8Y-2.9
X7.8Y-3.0
X7.8Y-3.1
X7.8Y-3.2
X7.8Y-3.3
X7.8Y-3.4
X7.8Y-3.5
X7.8Y-3.6
X7.9Y-1.0
X7.9Y-1.1
X7.9Y-1.2
X7.9Y-1.3
X7.9Y-1.4
X7.9Y-1.5
X7.9Y-1.6
X7.9Y-1.7
X7.9Y-1.8
X7.9Y-1.9
X7.9Y-2.0
X7.9Y-2.1
X7.9Y-2.2
X7.9Y-2.3
X7.9Y-2.4
X7.9Y-2.5
X7.9Y-2.6
X7.9Y-2.7
X7.9Y-2.8
X7.9Y-2.9
X7.9Y-3.0
X7.9Y-3.1
X7.9Y-3.2
X7.9Y-3.3
X7.9Y-3.4
X7.9Y-3.5
X7.9Y-3.6
X8.0Y-1.0
X8.0Y-1.1
X8.0Y-1.2
X8.0Y-1.3
X8.0Y-1.4
X8.0Y-1.5
X8.0Y-1.6
X8.0Y-1.7
X8.0Y-1.8
X8.0Y-1.9
X8.0Y-2.0
X8.0Y-2.1
X8.0Y-2.2
X8.0Y-2.3
X8.0Y-2.4
X8.0Y-2.5
X8.0Y-2.6
X8.0Y-2.7
X8.0Y-2.8
X8.0Y-2.9
X8.0Y-3.0
X8.0Y-3.1
X8.0Y-3.2
X8.0Y-3.3
X8.0Y-3.4
X8.0Y-3.5
X8.0Y-3.6
X8.1Y-1.0
X8.1Y-1.1
X8.1Y-1.2
X8.1Y-1.3
X8.1Y-1.4
X8.1Y-1.5
X8.1Y-1.6
X8.1Y-1.7
X8.1Y-1.8
X8.1Y-1.9
X8.1Y-2.0
X8.1Y-2.1
X8.1Y-2.2
X8.1Y-2.3
X8.1Y-2.4
X8.1Y-2.5
X8.1Y-2.6
X8.1Y-2.7
X8.1Y-2.8
X8.1Y-2.9
X8.1Y-3.0
X8.1Y-3.1
X8.1Y-3.2
X8.1Y-3.3
X8.1Y-3.4
X8.1Y-3.5
X8.1Y-3.6
X8.2Y-1.0
X8.2Y-1.1
X8.2Y-1.2
X8.2Y-1.3
X8.2Y-1.4
X8.2Y-1.5
X8.2Y-1.6
X8.2Y-1.7
X8.2Y-1.8
X8.2Y-1.9
X8.2Y-2.0
X8.2Y-2.1
X8.2Y-2.2
X8.2Y-2.3
X8.2Y-2.4
X8.2Y-2.5
X8.2Y-2.6
X8.2Y-2.7
X8.2Y-2.8
X8.2Y-2.9
X8.2Y-3.0
X8.2Y-3.1
X8.2Y-3.2
X8.2Y-3.3
X8.2Y-3.4
X8.2Y-3.5
X8.2Y-3.6
X8.3Y-1.0
X8.3Y-1.1
X8.3Y-1.2
X8.3Y-1.3
X8.3Y-1.4
X8.3Y-1.5
X8.3Y-1.6
X8.3Y-1.7
X8.3Y-1.8
X8.3Y-1.9
X8.3Y-2.0
X8.3Y-2.1
X8.3Y-2.2
X8.3Y-2.3
X8.3Y-2.4
X8.3Y-2.5
X8.3Y-2.6
X8.3Y-2.7
X8.3Y-2.8
X8.3Y-2.9
X8.3Y-3.0
X8.3Y-3.1
X8.3Y-3.2
X8.3Y-3.3
X8.3Y-3.4
X8.3Y-3.5
X8.3Y-3.6
X8.4Y-1.0
X8.4Y-1.1
X8.4Y-1.2
X8.4Y-1.3
X8.4Y-1.4
X8.4Y-1.5
X8.4Y-1.6
X8.4Y-1.7
X8.4Y-1.8
X8.4Y-1.9
X8.4Y-2.0
X8.4Y-2.1
X8.4Y-2.2
X8.4Y-2.3
X8.4Y-2.4
X8.4Y-2.5
X8.4Y-2.6
X8.4Y-2.7
X8.4Y-2.8
X8.4Y-2.9
X8.4Y-3.0
X8.4Y-3.1
X8.4Y-3.2
X8.4Y-3.3
X8.4Y-3.4
X8.4Y-3.5
X8.4Y-3.6
X8.5Y-1.0
X8.5Y-1.1
X8.5Y-1.2
X8.5Y-1.3
X8.5Y-1.4
X8.5Y-1.5
X8.5Y-1.6
X8.5Y-1.7
X8.5Y-1.8
X8.5Y-1.9
X8.5Y-2.0
X8.5Y-2.1
X8.5Y-2.2
X8.5Y-2.3
X8.5Y-2.4
X8.5Y-2.5
X8.5Y-2.6
X8.5Y-2.7
X8.5Y-2.8
X8.5Y-2.9
X8.5Y-3.0
X8.5Y-3.1
X8.5Y-3.2
X8.5Y-3.3
X8.5Y-3.4
X8.5Y-3.5
X8.5Y-3.6
X8.6Y-1.0
X8.6Y-1.1
X8.6Y-1.2
X8.6Y-1.3
X8.6Y-1.4
X8.6Y-1.5
X8.6Y-1.6
X8.6Y-1.7
X8.6Y-1.8
X8.6Y-1.9
X8.6Y-2.0
X8.6Y-2.1
X8.6Y-2.2
X8.6Y-2.3
X8.6Y-2.4
X8.6Y-2.5
X8.6Y-2.6
X8.6Y-2.7
X8.6Y-2.8
X8.6Y-2.9
X8.6Y-3.0
X8.6Y-3.1
X8.6Y-3.2
X8.6Y-3.3
X8.6Y-3.4
X8.6Y-3.5
X8.6Y-3.6
X8.7Y-1.0
X8.7Y-1.1
X8.7Y-1.2
X8.7Y-1.3
X8.7Y-1.4
X8.7Y-1.5
X8.7Y-1.6
X8.7Y-1.7
X8.7Y-1.8
X8.7Y-1.9
X8.7Y-2.0
X8.7Y-2.1
X8.7Y-2.2
X8.7Y-2.3
X8.7Y-2.4
X8.7Y-2.5
X8.7Y-2.6
X8.7Y-2.7
X8.7Y-2.8
X8.7Y-2.9
X8.7Y-3.0
X8.7Y-3.1
X8.7Y-3.2
X8.7Y-3.3
X8.7Y-3.4
X8.7Y-3.5
X8.7Y-3.6
X8.8Y-1.0
X8.8Y-1.1
X8.8Y-1.2
X8.8Y-1.3
X8.8Y-1.4
X8.8Y-1.5
X8.8Y-1.6
X8.8Y-1.7
X8.8Y-1.8
X8.8Y-1.9
X8.8Y-2.0
X8.8Y-2.1
X8.8Y-2.2
X8.8Y-2.3
X8.8Y-2.4
X8.8Y-2.5
X8.8Y-2.6
X8.8Y-2.7
X8.8Y-2.8
X8.8Y-2.9
X8.8Y-3.0
X8.8Y-3.1
X8.8Y-3.2
X8.8Y-3.3
X8.8Y-3.4
X8.8Y-3.5
X8.8Y-3.6
X8.9Y-1.0
X8.9Y-1.1
X8.9Y-1.2
X8.9Y-1.3
X8.9Y-1.4
X8.9Y-1.5
X8.9Y-1.6
X8.9Y-1.7
X8.9Y-1.8
X8.9Y-1.9
X8.9Y-2.0
X8.9Y-2.1
X8.9Y-2.2
X8.9Y-2.3
X8.9Y-2.4
X8.9Y-2.5
X8.9Y-2.6
X8.9Y-2.7
X8.9Y-2.8
X8.9Y-2.9
X8.9Y-3.0
X8.9Y-3.1
X8.9Y-3.2
X8.9Y-3.3
X8.9Y-3.4
X8.9Y-3.5
X8.9Y-3.6
X9.0Y-1.0
X9.0Y-1.1
X9.0Y-1.2
X9.0Y-1.3
X9.0Y-1.4
X9.0Y-1.5
X9.0Y-1.6
X9.0Y-1.7
X9.0Y-1.8
X9.0Y-1.9
X9.0Y-2.0
X9.0Y-2.1
X9.0Y-2.2
X9.0Y-2.3
X9.0Y-2.4
X9.0Y-2.5
X9.0Y-2.6
X9.0Y-2.7
X9.0Y-2.8
X9.0Y-2.9
X9.0Y-3.0
X9.0Y-3.1
X9.0Y-3.2
X9.0Y-3.3
X9.0Y-3.4
X9.0Y-3.5
X9.0Y-3.6
X9.1Y-1.0
X9.1Y-1.1
X9.1Y-1.2
X9.1Y-1.3
X9.1Y-1.4
X9.1Y-1.5
X9.1Y-1.6
X9.1Y-1.7
X9.1Y-1.8
X9.1Y-1.9
X9.1Y-2.0
X9.1Y-2.1
X9.1Y-2.2
X9.1Y-2.3
X9.1Y-2.4
X9.1Y-2.5
X9.1Y-2.6
X9.1Y-2.7
X9.1Y-2.8
X9.1Y-2.9
X9.1Y-3.0
X9.1Y-3.1
X9.1Y-3.2
X9.1Y-3.3
X9.1Y-3.4
X9.1Y-3.5
X9.1Y-3.6
X9.2Y-1.0
X9.2Y-1.1
X9.2Y-1.2
X9.2Y-1.3
X9.2Y-1.4
X9.2Y-1.5
X9.2Y-1.6
X9.2Y-1.7
X9.2Y-1.8
X9.2Y-1.9
X9.2Y-2.0
X9.2Y-2.1
X9.2Y-2.2
X9.2Y-2.3
X9.2Y-2.4
X9.2Y-2.5
X9.2Y-2.6
X9.2Y-2.7
X9.2Y-2.8
X9.2Y-2.9
X9.2Y-3.0
X9.2Y-3.1
X9.2Y-3.2
X9.2Y-3.3
X9.2Y-3.4
X9.2Y-3.5
X9.2Y-3.6
X9.3Y-1.0
X9.3Y-1.1
X9.3Y-1.2
X9.3Y-1.3
X9.3Y-1.4
X9.3Y-1.5
X9.3Y-1.6
X9.3Y-1.7
X9.3Y-1.8
X9.3Y-1.9
X9.3Y-2.0
X9.3Y-2.1
X9.3Y-2.2
X9.3Y-2.3
X9.3Y-2.4
X9.3Y-2.5
X9.3Y-2.6
X9.3Y-2.7
X9.3Y-2.8
X9.3Y-2.9
X9.3Y-3.0
X9.3Y-3.1
X9.3Y-3.2
X9.3Y-3.3
X9.3Y-3.4
X9.3Y-3.5
X9.3Y-3.6
X9.4Y-1.0
X9.4Y-1.1
X9.4Y-1.2
X9.4Y-1.3
X9.4Y-1.4
X9.4Y-1.5
X9.4Y-1.6
X9.4Y-1.7
X9.4Y-1.8
X9.4Y-1.9
X9.4Y-2.0
X9.4Y-2.1
X9.4Y-2.2
X9.4Y-2.3
X9.4Y-2.4
X9.4Y-2.5
X9.4Y-2.6
X9.4Y-2.7
X9.4Y-2.8
X9.4Y-2.9
X9.4Y-3.0
X9.4Y-3.1
X9.4Y-3.2
X9.4Y-3.3
X9.4Y-3.4
X9.4Y-3.5
X9.4Y-3.6
X9.5Y-1.0
X9.5Y-1.1
X9.5Y-1.2
X9.5Y-1.3
X9.5Y-1.4
X9.5Y-1.5
X9.5Y-1.6
X9.5Y-1.7
X9.5Y-1.8
X9.5Y-1.9
X9.5Y-2.0
X9.5Y-2.1
X9.5Y-2.2
X9.5Y-2.3
X9.5Y-2.4
X9.5Y-2.5
X9.5Y-2.6
X9.5Y-2.7
X9.5Y-2.8
X9.5Y-2.9
X9.5Y-3.0
X9.5Y-3.1
X9.5Y-3.2
X9.5Y-3.3
X9.5Y-3.4
X9.5Y-3.5
X9.5Y-3.6
X9.6Y-1.0
X9.6Y-1.1
X9.6Y-1.2
X9.6Y-1.3
X9.6Y-1.4
X9.6Y-1.5
X9.6Y-1.6
X9.6Y-1.7
X9.6Y-1.8
X9.6Y-1.9
X9.6Y-2.0
X9.6Y-2.1
X9.6Y-2.2
X9.6Y-2.3
X9.6Y-2.4
X9.6Y-2.5
X9.6Y-2.6
X9.6Y-2.7
X9.6Y-2.8
X9.6Y-2.9
X9.6Y-3.0
X9.6Y-3.1
X9.6Y-3.2
X9.6Y-3.3
X9.6Y-3.4
X9.6Y-3.5
X9.6Y-3.6
X9.7Y-1.0
X9.7Y-1.1
X9.7Y-1.2
X9.7Y-1.3
X9.7Y-1.4
X9.7Y-1.5
X9.7Y-1.6
X9.7Y-1.7
X9.7Y-1.8
X9.7Y-1.9
X9.7Y-2.0
X9.7Y-2.1
X9.7Y-2.2
X9.7Y-2.3
X9.7Y-2.4
X9.7Y-2.5
X9.7Y-2.6
X9.7Y-2.7
X9.7Y-2.8
X9.7Y-2.9
X9.7Y-3.0
X9.7Y-3.1
X9.7Y-3.2
X9.7Y-3.3
X9.7Y-3.4
X9.7Y-3.5
X9.7Y-3.6
X9.8Y-1.0
X9.8Y-1.1
X9.8Y-1.2
X9.8Y-1.3
X9.8Y-1.4
X9.8Y-1.5
X9.8Y-1.6
X9.8Y-1.7
X9.8Y-1.8
X9.8Y-1.9
X9.8Y-2.0
X9.8Y-2.1
X9.8Y-2.2
X9.8Y-2.3
X9.8Y-2.4
X9.8Y-2.5
X9.8Y-2.6
X9.8Y-2.7
X9.8Y-2.8
X9.8Y-2.9
X9.8Y-3.0
X9.8Y-3.1
X9.8Y-3.2
X9.8Y-3.3
X9.8Y-3.4
X9.8Y-3.5
X9.8Y-3.6
X9.9Y-1.0
X9.9Y-1.1
X9.9Y-1.2
X9.9Y-1.3
X9.9Y-1.4
X9.9Y-1.5
X9.9Y-1.6
X9.9Y-1.7
X9.9Y-1.8
X9.9Y-1.9
X9.9Y-2.0
X9.9Y-2.1
X9.9Y-2.2
X9.9Y-2.3
X9.9Y-2.4
X9.9Y-2.5
X9.9Y-2.6
X9.9Y-2.7
X9.9Y-2.8
X9.9Y-2.9
X9.9Y-3.0
X9.9Y-3.1
X9.9Y-3.2
X9.9Y-3.3
X9.9Y-3.4
X9.9Y-3.5
X9.9Y-3.6
X10.0Y-1.0
X10.0Y-1.1
X10.0Y-1.2
X10.0Y-1.3
X10.0Y-1.4
X10.0Y-1.5
X10.0Y-1.6
X10.0Y-1.7
X10.0Y-1.8
X10.0Y-1.9
X10.0Y-2.0
X10.0Y-2.1
X10.0Y-2.2
X10.0Y-2.3
X10.0Y-2.4
X10.0Y-2.5
X10.0Y-2.6
X10.0Y-2.7
X10.0Y-2.8
X10.0Y-2.9
X10.0Y-3.0
X10.0Y-3.1
X10.0Y-3.2
X10.0Y-3.3
X10.0Y-3.4
X10.0Y-3.5
X10.0Y-3.6
T6
X1.35Y-4.05
X5.75Y-4.05
T7
X1.4079Y-2.0898
X1.4079Y-3.074
T0
M30
