%TF.GenerationSoftware,KiCad,Pcbnew,7.0.5*%
%TF.CreationDate,2024-08-20T05:02:14-04:00*%
%TF.ProjectId,processor_attempt_1,70726f63-6573-4736-9f72-5f617474656d,rev?*%
%TF.SameCoordinates,Original*%
%TF.FileFunction,Profile,NP*%
%FSLAX46Y46*%
G04 Gerber Fmt 4.6, Leading zero omitted, Abs format (unit mm)*
G04 Created by KiCad (PCBNEW 7.0.5) date 2024-08-20 05:02:14*
%MOMM*%
%LPD*%
G01*
G04 APERTURE LIST*
%TA.AperFunction,Profile*%
%ADD10C,0.100000*%
%TD*%
G04 APERTURE END LIST*
D10*
X112395000Y-53975000D02*
X112395000Y-50800000D01*
X127000000Y-55880000D02*
X114300000Y-55880000D01*
X128905000Y-50800000D02*
X128905000Y-53975000D01*
X114300000Y-48895000D02*
X127000000Y-48895000D01*
X112395000Y-53975000D02*
G75*
G03*
X114300000Y-55880000I1905000J0D01*
G01*
X127000000Y-55880000D02*
G75*
G03*
X128905000Y-53975000I0J1905000D01*
G01*
X128905000Y-50800000D02*
G75*
G03*
X127000000Y-48895000I-1905000J0D01*
G01*
X114300000Y-48895000D02*
G75*
G03*
X112395000Y-50800000I0J-1905000D01*
G01*
X152400000Y-103505000D02*
X250171949Y-103505000D01*
X22859937Y-111125000D02*
G75*
G03*
X25381948Y-113664999I2540063J0D01*
G01*
X81915000Y-29844999D02*
G75*
G03*
X88201179Y-27241179I0J8889999D01*
G01*
X99060000Y-20320000D02*
X149860000Y-20320000D01*
X252711900Y-32385000D02*
G75*
G03*
X250171949Y-29845000I-2540000J0D01*
G01*
X142221949Y-113664949D02*
G75*
G03*
X144761949Y-111125000I51J2539949D01*
G01*
X99060000Y-20320001D02*
G75*
G03*
X92324809Y-23109809I0J-9524999D01*
G01*
X156599996Y-23109812D02*
G75*
G03*
X149864808Y-20320000I-6735196J-6735188D01*
G01*
X25399936Y-29844996D02*
G75*
G03*
X22859936Y-32385000I24J-2540024D01*
G01*
X25381948Y-113664999D02*
X142221949Y-113665000D01*
X81915000Y-29845000D02*
X25399936Y-29845000D01*
X156600000Y-23109808D02*
X160731371Y-27241179D01*
X160731346Y-27241204D02*
G75*
G03*
X167017550Y-29845000I6286154J6286204D01*
G01*
X152400000Y-103504999D02*
G75*
G03*
X144761928Y-111125000I-18020J-7620031D01*
G01*
X22859936Y-111125000D02*
X22859936Y-32385000D01*
X252711949Y-100965000D02*
X252711949Y-32385000D01*
X250171949Y-103505049D02*
G75*
G03*
X252711949Y-100965000I-49J2540049D01*
G01*
X167017550Y-29845000D02*
X250171949Y-29845000D01*
X92324808Y-23109808D02*
X88193437Y-27241179D01*
M02*
