%TF.GenerationSoftware,KiCad,Pcbnew,7.0.5*%
%TF.CreationDate,2024-11-04T15:19:44-05:00*%
%TF.ProjectId,93c46a_cnc,39336334-3661-45f6-936e-632e6b696361,rev?*%
%TF.SameCoordinates,Original*%
%TF.FileFunction,Soldermask,Bot*%
%TF.FilePolarity,Negative*%
%FSLAX46Y46*%
G04 Gerber Fmt 4.6, Leading zero omitted, Abs format (unit mm)*
G04 Created by KiCad (PCBNEW 7.0.5) date 2024-11-04 15:19:44*
%MOMM*%
%LPD*%
G01*
G04 APERTURE LIST*
G04 Aperture macros list*
%AMHorizOval*
0 Thick line with rounded ends*
0 $1 width*
0 $2 $3 position (X,Y) of the first rounded end (center of the circle)*
0 $4 $5 position (X,Y) of the second rounded end (center of the circle)*
0 Add line between two ends*
20,1,$1,$2,$3,$4,$5,0*
0 Add two circle primitives to create the rounded ends*
1,1,$1,$2,$3*
1,1,$1,$4,$5*%
G04 Aperture macros list end*
%ADD10C,1.600000*%
%ADD11R,1.800000X1.800000*%
%ADD12C,1.800000*%
%ADD13C,1.400000*%
%ADD14O,1.400000X1.400000*%
%ADD15R,1.600000X1.600000*%
%ADD16O,1.600000X1.600000*%
%ADD17HorizOval,1.400000X0.000000X0.000000X0.000000X0.000000X0*%
G04 APERTURE END LIST*
D10*
%TO.C,SW1*%
X14327500Y7402102D03*
X19327500Y7402102D03*
%TD*%
D11*
%TO.C,D1*%
X6667500Y9947102D03*
D12*
X6667500Y7407102D03*
%TD*%
D13*
%TO.C,r8*%
X9207500Y12482102D03*
D14*
X9207500Y7402102D03*
%TD*%
D13*
%TO.C,r5*%
X6667500Y12482102D03*
D14*
X6667500Y17562102D03*
%TD*%
D13*
%TO.C,r4*%
X11747500Y17562102D03*
D14*
X11747500Y12482102D03*
%TD*%
D15*
%TO.C,U2*%
X16827500Y12482102D03*
D16*
X19367500Y12482102D03*
X21907500Y12482102D03*
X24447500Y12482102D03*
X26987500Y12482102D03*
X29527500Y12482102D03*
X32067500Y12482102D03*
X34607500Y12482102D03*
X34607500Y20102102D03*
X32067500Y20102102D03*
X29527500Y20102102D03*
X26987500Y20102102D03*
X24447500Y20102102D03*
X21907500Y20102102D03*
X19367500Y20102102D03*
X16827500Y20102102D03*
%TD*%
D14*
%TO.C,r3*%
X26987500Y9942102D03*
D13*
X21907500Y9942102D03*
%TD*%
%TO.C,r2*%
X14287500Y12482102D03*
D14*
X14287500Y17562102D03*
%TD*%
D10*
%TO.C,C4*%
X32027500Y9942102D03*
X29527500Y9942102D03*
%TD*%
%TO.C,C1*%
X19367500Y22642102D03*
X21867500Y22642102D03*
%TD*%
D15*
%TO.C,U4*%
X19367500Y32802102D03*
D16*
X19367500Y30262102D03*
X19367500Y27722102D03*
X19367500Y25182102D03*
X26987500Y25182102D03*
X26987500Y27722102D03*
X26987500Y30262102D03*
X26987500Y32802102D03*
%TD*%
D13*
%TO.C,r7*%
X29527500Y27722102D03*
D17*
X33926909Y30262102D03*
%TD*%
D13*
%TO.C,r6*%
X29527500Y30262102D03*
D17*
X33926909Y32802102D03*
%TD*%
D13*
%TO.C,r1*%
X14287500Y9942102D03*
D14*
X19367500Y9942102D03*
%TD*%
D10*
%TO.C,C6*%
X16827500Y30302102D03*
X16827500Y32802102D03*
%TD*%
%TO.C,C5*%
X29527500Y25182102D03*
X32027500Y25182102D03*
%TD*%
D15*
%TO.C,U1*%
X14287500Y25182102D03*
D16*
X14287500Y27722102D03*
X14287500Y30262102D03*
X14287500Y32802102D03*
X6667500Y32802102D03*
X6667500Y30262102D03*
X6667500Y27722102D03*
X6667500Y25182102D03*
%TD*%
M02*
