%TF.GenerationSoftware,KiCad,Pcbnew,7.0.5*%
%TF.CreationDate,2024-08-20T05:02:14-04:00*%
%TF.ProjectId,processor_attempt_1,70726f63-6573-4736-9f72-5f617474656d,rev?*%
%TF.SameCoordinates,Original*%
%TF.FileFunction,Paste,Bot*%
%TF.FilePolarity,Positive*%
%FSLAX46Y46*%
G04 Gerber Fmt 4.6, Leading zero omitted, Abs format (unit mm)*
G04 Created by KiCad (PCBNEW 7.0.5) date 2024-08-20 05:02:14*
%MOMM*%
%LPD*%
G01*
G04 APERTURE LIST*
G04 Aperture macros list*
%AMRoundRect*
0 Rectangle with rounded corners*
0 $1 Rounding radius*
0 $2 $3 $4 $5 $6 $7 $8 $9 X,Y pos of 4 corners*
0 Add a 4 corners polygon primitive as box body*
4,1,4,$2,$3,$4,$5,$6,$7,$8,$9,$2,$3,0*
0 Add four circle primitives for the rounded corners*
1,1,$1+$1,$2,$3*
1,1,$1+$1,$4,$5*
1,1,$1+$1,$6,$7*
1,1,$1+$1,$8,$9*
0 Add four rect primitives between the rounded corners*
20,1,$1+$1,$2,$3,$4,$5,0*
20,1,$1+$1,$4,$5,$6,$7,0*
20,1,$1+$1,$6,$7,$8,$9,0*
20,1,$1+$1,$8,$9,$2,$3,0*%
G04 Aperture macros list end*
%ADD10RoundRect,0.237500X0.237500X-0.250000X0.237500X0.250000X-0.237500X0.250000X-0.237500X-0.250000X0*%
%ADD11RoundRect,0.237500X-0.237500X0.250000X-0.237500X-0.250000X0.237500X-0.250000X0.237500X0.250000X0*%
%ADD12RoundRect,0.237500X-0.250000X-0.237500X0.250000X-0.237500X0.250000X0.237500X-0.250000X0.237500X0*%
%ADD13RoundRect,0.237500X-0.287500X-0.237500X0.287500X-0.237500X0.287500X0.237500X-0.287500X0.237500X0*%
%ADD14RoundRect,0.237500X0.250000X0.237500X-0.250000X0.237500X-0.250000X-0.237500X0.250000X-0.237500X0*%
%ADD15R,1.560000X0.650000*%
%ADD16RoundRect,0.237500X0.287500X0.237500X-0.287500X0.237500X-0.287500X-0.237500X0.287500X-0.237500X0*%
%ADD17RoundRect,0.150000X0.825000X0.150000X-0.825000X0.150000X-0.825000X-0.150000X0.825000X-0.150000X0*%
G04 APERTURE END LIST*
D10*
%TO.C,R142*%
X200025000Y-47347500D03*
X200025000Y-49172500D03*
%TD*%
D11*
%TO.C,R141*%
X184785000Y-49807500D03*
X184785000Y-47982500D03*
%TD*%
D12*
%TO.C,R102*%
X56999500Y-90551000D03*
X58824500Y-90551000D03*
%TD*%
%TO.C,R99*%
X55348500Y-81661000D03*
X57173500Y-81661000D03*
%TD*%
D11*
%TO.C,R100*%
X58928000Y-82145500D03*
X58928000Y-83970500D03*
%TD*%
D10*
%TO.C,R101*%
X58166000Y-87352500D03*
X58166000Y-89177500D03*
%TD*%
D12*
%TO.C,r60*%
X29586250Y-44450000D03*
X31411250Y-44450000D03*
%TD*%
%TO.C,r69*%
X29586250Y-68580000D03*
X31411250Y-68580000D03*
%TD*%
D13*
%TO.C,D7*%
X25813750Y-50165000D03*
X27563750Y-50165000D03*
%TD*%
D12*
%TO.C,R10*%
X85447500Y-107950000D03*
X87272500Y-107950000D03*
%TD*%
%TO.C,r73*%
X29586250Y-76200000D03*
X31411250Y-76200000D03*
%TD*%
%TO.C,R48*%
X100673805Y-108059911D03*
X102498805Y-108059911D03*
%TD*%
%TO.C,r52*%
X29586250Y-59690000D03*
X31411250Y-59690000D03*
%TD*%
D13*
%TO.C,D23*%
X25813750Y-76200000D03*
X27563750Y-76200000D03*
%TD*%
D12*
%TO.C,r58*%
X29586250Y-48260000D03*
X31411250Y-48260000D03*
%TD*%
D14*
%TO.C,R9*%
X88542500Y-109220000D03*
X86717500Y-109220000D03*
%TD*%
D12*
%TO.C,R44*%
X110833805Y-108059911D03*
X112658805Y-108059911D03*
%TD*%
D10*
%TO.C,R103*%
X113792000Y-85240500D03*
X113792000Y-83415500D03*
%TD*%
D14*
%TO.C,R5*%
X93622500Y-109220000D03*
X91797500Y-109220000D03*
%TD*%
D15*
%TO.C,Q3*%
X82630000Y-102555000D03*
X82630000Y-103505000D03*
X82630000Y-104455000D03*
X79930000Y-104455000D03*
X79930000Y-103505000D03*
X79930000Y-102555000D03*
%TD*%
D16*
%TO.C,D42*%
X250547432Y-85974948D03*
X248797432Y-85974948D03*
%TD*%
D14*
%TO.C,r94*%
X247923455Y-89787841D03*
X246098455Y-89787841D03*
%TD*%
%TO.C,R45*%
X108848805Y-109329911D03*
X107023805Y-109329911D03*
%TD*%
D12*
%TO.C,r70*%
X29586250Y-70485000D03*
X31411250Y-70485000D03*
%TD*%
D16*
%TO.C,D45*%
X250557000Y-91694000D03*
X248807000Y-91694000D03*
%TD*%
D13*
%TO.C,D19*%
X25813750Y-68580000D03*
X27563750Y-68580000D03*
%TD*%
D12*
%TO.C,R18*%
X75287500Y-107950000D03*
X77112500Y-107950000D03*
%TD*%
%TO.C,r64*%
X29586250Y-36830000D03*
X31411250Y-36830000D03*
%TD*%
D13*
%TO.C,D12*%
X25813750Y-40640000D03*
X27563750Y-40640000D03*
%TD*%
D12*
%TO.C,R24*%
X70207500Y-107950000D03*
X72032500Y-107950000D03*
%TD*%
D14*
%TO.C,r96*%
X247927500Y-93599000D03*
X246102500Y-93599000D03*
%TD*%
D13*
%TO.C,D3*%
X25813750Y-57785000D03*
X27563750Y-57785000D03*
%TD*%
D14*
%TO.C,r95*%
X247941674Y-91685466D03*
X246116674Y-91685466D03*
%TD*%
D12*
%TO.C,r62*%
X29586250Y-40640000D03*
X31411250Y-40640000D03*
%TD*%
D15*
%TO.C,Q11*%
X102856305Y-102664911D03*
X102856305Y-103614911D03*
X102856305Y-104564911D03*
X100156305Y-104564911D03*
X100156305Y-103614911D03*
X100156305Y-102664911D03*
%TD*%
D13*
%TO.C,D14*%
X25813750Y-36830000D03*
X27563750Y-36830000D03*
%TD*%
D12*
%TO.C,R46*%
X106031305Y-108059911D03*
X107856305Y-108059911D03*
%TD*%
D16*
%TO.C,D41*%
X250557000Y-84074000D03*
X248807000Y-84074000D03*
%TD*%
D14*
%TO.C,R41*%
X98067500Y-97155000D03*
X96242500Y-97155000D03*
%TD*%
D12*
%TO.C,R8*%
X90527500Y-107950000D03*
X92352500Y-107950000D03*
%TD*%
D16*
%TO.C,D47*%
X250557000Y-95504000D03*
X248807000Y-95504000D03*
%TD*%
D14*
%TO.C,R47*%
X103768805Y-109329911D03*
X101943805Y-109329911D03*
%TD*%
D12*
%TO.C,r56*%
X29586250Y-52070000D03*
X31411250Y-52070000D03*
%TD*%
D14*
%TO.C,R49*%
X98688805Y-109329911D03*
X96863805Y-109329911D03*
%TD*%
D12*
%TO.C,R35*%
X108307500Y-94615000D03*
X110132500Y-94615000D03*
%TD*%
D14*
%TO.C,R42*%
X98067500Y-92075000D03*
X96242500Y-92075000D03*
%TD*%
D13*
%TO.C,D13*%
X25813750Y-38735000D03*
X27563750Y-38735000D03*
%TD*%
D12*
%TO.C,r61*%
X29586250Y-42545000D03*
X31411250Y-42545000D03*
%TD*%
D15*
%TO.C,Q4*%
X77550000Y-102555000D03*
X77550000Y-103505000D03*
X77550000Y-104455000D03*
X74850000Y-104455000D03*
X74850000Y-103505000D03*
X74850000Y-102555000D03*
%TD*%
%TO.C,Q12*%
X97776305Y-102664911D03*
X97776305Y-103614911D03*
X97776305Y-104564911D03*
X95076305Y-104564911D03*
X95076305Y-103614911D03*
X95076305Y-102664911D03*
%TD*%
D14*
%TO.C,R17*%
X78382500Y-109220000D03*
X76557500Y-109220000D03*
%TD*%
D13*
%TO.C,D21*%
X25813750Y-72390000D03*
X27563750Y-72390000D03*
%TD*%
D12*
%TO.C,r74*%
X29586250Y-78105000D03*
X31411250Y-78105000D03*
%TD*%
%TO.C,R40*%
X97512500Y-99695000D03*
X99337500Y-99695000D03*
%TD*%
D15*
%TO.C,Q5*%
X72470000Y-102555000D03*
X72470000Y-103505000D03*
X72470000Y-104455000D03*
X69770000Y-104455000D03*
X69770000Y-103505000D03*
X69770000Y-102555000D03*
%TD*%
D13*
%TO.C,D2*%
X25813750Y-59690000D03*
X27563750Y-59690000D03*
%TD*%
D10*
%TO.C,R105*%
X106680000Y-87780500D03*
X106680000Y-85955500D03*
%TD*%
D12*
%TO.C,R32*%
X60047500Y-107950000D03*
X61872500Y-107950000D03*
%TD*%
D16*
%TO.C,D46*%
X250576134Y-93601628D03*
X248826134Y-93601628D03*
%TD*%
D15*
%TO.C,Q2*%
X87710000Y-102555000D03*
X87710000Y-103505000D03*
X87710000Y-104455000D03*
X85010000Y-104455000D03*
X85010000Y-103505000D03*
X85010000Y-102555000D03*
%TD*%
D14*
%TO.C,r97*%
X247927500Y-95504000D03*
X246102500Y-95504000D03*
%TD*%
D12*
%TO.C,r59*%
X29586250Y-46355000D03*
X31411250Y-46355000D03*
%TD*%
%TO.C,r55*%
X29586250Y-53975000D03*
X31411250Y-53975000D03*
%TD*%
%TO.C,r72*%
X29586250Y-74295000D03*
X31411250Y-74295000D03*
%TD*%
D16*
%TO.C,D48*%
X250566567Y-97409560D03*
X248816567Y-97409560D03*
%TD*%
D13*
%TO.C,D20*%
X25813750Y-70485000D03*
X27563750Y-70485000D03*
%TD*%
%TO.C,D9*%
X25813750Y-46355000D03*
X27563750Y-46355000D03*
%TD*%
D12*
%TO.C,r57*%
X29586250Y-50165000D03*
X31411250Y-50165000D03*
%TD*%
D15*
%TO.C,Q10*%
X107936305Y-102664911D03*
X107936305Y-103614911D03*
X107936305Y-104564911D03*
X105236305Y-104564911D03*
X105236305Y-103614911D03*
X105236305Y-102664911D03*
%TD*%
D13*
%TO.C,D18*%
X25813750Y-66675000D03*
X27563750Y-66675000D03*
%TD*%
D15*
%TO.C,Q6*%
X67310000Y-102555000D03*
X67310000Y-103505000D03*
X67310000Y-104455000D03*
X64610000Y-104455000D03*
X64610000Y-103505000D03*
X64610000Y-102555000D03*
%TD*%
%TO.C,Q9*%
X113016305Y-102664911D03*
X113016305Y-103614911D03*
X113016305Y-104564911D03*
X110316305Y-104564911D03*
X110316305Y-103614911D03*
X110316305Y-102664911D03*
%TD*%
D17*
%TO.C,U51*%
X121093000Y-87249000D03*
X121093000Y-88519000D03*
X121093000Y-89789000D03*
X121093000Y-91059000D03*
X121093000Y-92329000D03*
X121093000Y-93599000D03*
X121093000Y-94869000D03*
X121093000Y-96139000D03*
X116143000Y-96139000D03*
X116143000Y-94869000D03*
X116143000Y-93599000D03*
X116143000Y-92329000D03*
X116143000Y-91059000D03*
X116143000Y-89789000D03*
X116143000Y-88519000D03*
X116143000Y-87249000D03*
%TD*%
D14*
%TO.C,R38*%
X108227500Y-93345000D03*
X106402500Y-93345000D03*
%TD*%
D13*
%TO.C,D6*%
X25813750Y-52070000D03*
X27563750Y-52070000D03*
%TD*%
D14*
%TO.C,r91*%
X247800500Y-84074000D03*
X245975500Y-84074000D03*
%TD*%
D13*
%TO.C,D5*%
X25813750Y-53975000D03*
X27563750Y-53975000D03*
%TD*%
D10*
%TO.C,R106*%
X109512536Y-90428916D03*
X109512536Y-88603916D03*
%TD*%
D12*
%TO.C,r68*%
X29586250Y-66675000D03*
X31411250Y-66675000D03*
%TD*%
D15*
%TO.C,Q1*%
X92790000Y-102555000D03*
X92790000Y-103505000D03*
X92790000Y-104455000D03*
X90090000Y-104455000D03*
X90090000Y-103505000D03*
X90090000Y-102555000D03*
%TD*%
D12*
%TO.C,R16*%
X80367500Y-107950000D03*
X82192500Y-107950000D03*
%TD*%
D14*
%TO.C,R37*%
X108227500Y-97155000D03*
X106402500Y-97155000D03*
%TD*%
%TO.C,r98*%
X247927500Y-97409000D03*
X246102500Y-97409000D03*
%TD*%
D13*
%TO.C,D17*%
X25813750Y-64770000D03*
X27563750Y-64770000D03*
%TD*%
D12*
%TO.C,r67*%
X29586250Y-64770000D03*
X31411250Y-64770000D03*
%TD*%
%TO.C,r63*%
X29586250Y-38735000D03*
X31411250Y-38735000D03*
%TD*%
D13*
%TO.C,D16*%
X25813750Y-33020000D03*
X27563750Y-33020000D03*
%TD*%
D15*
%TO.C,Q7*%
X62310000Y-102555000D03*
X62310000Y-103505000D03*
X62310000Y-104455000D03*
X59610000Y-104455000D03*
X59610000Y-103505000D03*
X59610000Y-102555000D03*
%TD*%
D13*
%TO.C,D24*%
X25813750Y-78105000D03*
X27563750Y-78105000D03*
%TD*%
D12*
%TO.C,R26*%
X65127500Y-107950000D03*
X66952500Y-107950000D03*
%TD*%
D15*
%TO.C,Q8*%
X57230000Y-102555000D03*
X57230000Y-103505000D03*
X57230000Y-104455000D03*
X54530000Y-104455000D03*
X54530000Y-103505000D03*
X54530000Y-102555000D03*
%TD*%
D13*
%TO.C,D10*%
X25813750Y-44450000D03*
X27563750Y-44450000D03*
%TD*%
D12*
%TO.C,r71*%
X29586250Y-72390000D03*
X31411250Y-72390000D03*
%TD*%
%TO.C,r53*%
X29586250Y-57785000D03*
X31411250Y-57785000D03*
%TD*%
D13*
%TO.C,D11*%
X25813750Y-42545000D03*
X27563750Y-42545000D03*
%TD*%
D14*
%TO.C,r93*%
X247923885Y-87889786D03*
X246098885Y-87889786D03*
%TD*%
D13*
%TO.C,D22*%
X25813750Y-74295000D03*
X27563750Y-74295000D03*
%TD*%
D14*
%TO.C,R43*%
X113928805Y-109329911D03*
X112103805Y-109329911D03*
%TD*%
D16*
%TO.C,D44*%
X250557000Y-89790680D03*
X248807000Y-89790680D03*
%TD*%
%TO.C,D43*%
X250557000Y-87884000D03*
X248807000Y-87884000D03*
%TD*%
D14*
%TO.C,R25*%
X68222500Y-109220000D03*
X66397500Y-109220000D03*
%TD*%
D13*
%TO.C,D8*%
X25813750Y-48260000D03*
X27563750Y-48260000D03*
%TD*%
D12*
%TO.C,R50*%
X95593805Y-108059911D03*
X97418805Y-108059911D03*
%TD*%
%TO.C,r65*%
X29586250Y-34925000D03*
X31411250Y-34925000D03*
%TD*%
D13*
%TO.C,D15*%
X25813750Y-34925000D03*
X27563750Y-34925000D03*
%TD*%
D14*
%TO.C,r92*%
X247927500Y-85979000D03*
X246102500Y-85979000D03*
%TD*%
D12*
%TO.C,r66*%
X29586250Y-33020000D03*
X31411250Y-33020000D03*
%TD*%
D13*
%TO.C,D1*%
X25813750Y-61595000D03*
X27563750Y-61595000D03*
%TD*%
D12*
%TO.C,r51*%
X29586250Y-61595000D03*
X31411250Y-61595000D03*
%TD*%
D13*
%TO.C,D4*%
X25813750Y-55880000D03*
X27563750Y-55880000D03*
%TD*%
D14*
%TO.C,R33*%
X58062500Y-109220000D03*
X56237500Y-109220000D03*
%TD*%
D12*
%TO.C,r54*%
X29586250Y-55880000D03*
X31411250Y-55880000D03*
%TD*%
%TO.C,R39*%
X97512500Y-94615000D03*
X99337500Y-94615000D03*
%TD*%
D14*
%TO.C,R23*%
X73302500Y-109220000D03*
X71477500Y-109220000D03*
%TD*%
D10*
%TO.C,R104*%
X109474000Y-85240500D03*
X109474000Y-83415500D03*
%TD*%
D12*
%TO.C,R36*%
X107672500Y-99695000D03*
X109497500Y-99695000D03*
%TD*%
D14*
%TO.C,R31*%
X63142500Y-109220000D03*
X61317500Y-109220000D03*
%TD*%
%TO.C,R15*%
X83462500Y-109220000D03*
X81637500Y-109220000D03*
%TD*%
D12*
%TO.C,R34*%
X54967500Y-107950000D03*
X56792500Y-107950000D03*
%TD*%
M02*
