%TF.GenerationSoftware,KiCad,Pcbnew,7.0.5*%
%TF.CreationDate,2025-04-14T03:26:47-04:00*%
%TF.ProjectId,okay_this_one_is_not_work,6f6b6179-5f74-4686-9973-5f6f6e655f69,rev?*%
%TF.SameCoordinates,Original*%
%TF.FileFunction,Legend,Top*%
%TF.FilePolarity,Positive*%
%FSLAX46Y46*%
G04 Gerber Fmt 4.6, Leading zero omitted, Abs format (unit mm)*
G04 Created by KiCad (PCBNEW 7.0.5) date 2025-04-14 03:26:47*
%MOMM*%
%LPD*%
G01*
G04 APERTURE LIST*
%ADD10C,0.150000*%
%ADD11C,0.450000*%
%ADD12C,0.300000*%
%ADD13C,0.120000*%
G04 APERTURE END LIST*
D10*
X73203172Y-22439057D02*
X73393648Y-22439057D01*
X73393648Y-22439057D02*
X73488886Y-22486676D01*
X73488886Y-22486676D02*
X73584124Y-22581914D01*
X73584124Y-22581914D02*
X73631743Y-22772390D01*
X73631743Y-22772390D02*
X73631743Y-23105723D01*
X73631743Y-23105723D02*
X73584124Y-23296199D01*
X73584124Y-23296199D02*
X73488886Y-23391438D01*
X73488886Y-23391438D02*
X73393648Y-23439057D01*
X73393648Y-23439057D02*
X73203172Y-23439057D01*
X73203172Y-23439057D02*
X73107934Y-23391438D01*
X73107934Y-23391438D02*
X73012696Y-23296199D01*
X73012696Y-23296199D02*
X72965077Y-23105723D01*
X72965077Y-23105723D02*
X72965077Y-22772390D01*
X72965077Y-22772390D02*
X73012696Y-22581914D01*
X73012696Y-22581914D02*
X73107934Y-22486676D01*
X73107934Y-22486676D02*
X73203172Y-22439057D01*
X74060315Y-22439057D02*
X74060315Y-23248580D01*
X74060315Y-23248580D02*
X74107934Y-23343818D01*
X74107934Y-23343818D02*
X74155553Y-23391438D01*
X74155553Y-23391438D02*
X74250791Y-23439057D01*
X74250791Y-23439057D02*
X74441267Y-23439057D01*
X74441267Y-23439057D02*
X74536505Y-23391438D01*
X74536505Y-23391438D02*
X74584124Y-23343818D01*
X74584124Y-23343818D02*
X74631743Y-23248580D01*
X74631743Y-23248580D02*
X74631743Y-22439057D01*
X74965077Y-22439057D02*
X75536505Y-22439057D01*
X75250791Y-23439057D02*
X75250791Y-22439057D01*
X22282527Y-23356391D02*
X22282527Y-22356391D01*
X22758717Y-23356391D02*
X22758717Y-22356391D01*
X22758717Y-22356391D02*
X23330145Y-23356391D01*
X23330145Y-23356391D02*
X23330145Y-22356391D01*
D11*
X24973490Y-52711176D02*
X26973490Y-52711176D01*
X26973490Y-52711176D02*
X25687776Y-55711176D01*
X28116347Y-55711176D02*
X28116347Y-53711176D01*
X28116347Y-53996890D02*
X28259204Y-53854033D01*
X28259204Y-53854033D02*
X28544919Y-53711176D01*
X28544919Y-53711176D02*
X28973490Y-53711176D01*
X28973490Y-53711176D02*
X29259204Y-53854033D01*
X29259204Y-53854033D02*
X29402062Y-54139747D01*
X29402062Y-54139747D02*
X29402062Y-55711176D01*
X29402062Y-54139747D02*
X29544919Y-53854033D01*
X29544919Y-53854033D02*
X29830633Y-53711176D01*
X29830633Y-53711176D02*
X30259204Y-53711176D01*
X30259204Y-53711176D02*
X30544919Y-53854033D01*
X30544919Y-53854033D02*
X30687776Y-54139747D01*
X30687776Y-54139747D02*
X30687776Y-55711176D01*
X32116347Y-55711176D02*
X32116347Y-53711176D01*
X32116347Y-53996890D02*
X32259204Y-53854033D01*
X32259204Y-53854033D02*
X32544919Y-53711176D01*
X32544919Y-53711176D02*
X32973490Y-53711176D01*
X32973490Y-53711176D02*
X33259204Y-53854033D01*
X33259204Y-53854033D02*
X33402062Y-54139747D01*
X33402062Y-54139747D02*
X33402062Y-55711176D01*
X33402062Y-54139747D02*
X33544919Y-53854033D01*
X33544919Y-53854033D02*
X33830633Y-53711176D01*
X33830633Y-53711176D02*
X34259204Y-53711176D01*
X34259204Y-53711176D02*
X34544919Y-53854033D01*
X34544919Y-53854033D02*
X34687776Y-54139747D01*
X34687776Y-54139747D02*
X34687776Y-55711176D01*
X38402061Y-55711176D02*
X38402061Y-52711176D01*
X39687775Y-55568319D02*
X39973489Y-55711176D01*
X39973489Y-55711176D02*
X40544918Y-55711176D01*
X40544918Y-55711176D02*
X40830632Y-55568319D01*
X40830632Y-55568319D02*
X40973489Y-55282604D01*
X40973489Y-55282604D02*
X40973489Y-55139747D01*
X40973489Y-55139747D02*
X40830632Y-54854033D01*
X40830632Y-54854033D02*
X40544918Y-54711176D01*
X40544918Y-54711176D02*
X40116347Y-54711176D01*
X40116347Y-54711176D02*
X39830632Y-54568319D01*
X39830632Y-54568319D02*
X39687775Y-54282604D01*
X39687775Y-54282604D02*
X39687775Y-54139747D01*
X39687775Y-54139747D02*
X39830632Y-53854033D01*
X39830632Y-53854033D02*
X40116347Y-53711176D01*
X40116347Y-53711176D02*
X40544918Y-53711176D01*
X40544918Y-53711176D02*
X40830632Y-53854033D01*
X42687775Y-55711176D02*
X42402060Y-55568319D01*
X42402060Y-55568319D02*
X42259203Y-55425461D01*
X42259203Y-55425461D02*
X42116346Y-55139747D01*
X42116346Y-55139747D02*
X42116346Y-54282604D01*
X42116346Y-54282604D02*
X42259203Y-53996890D01*
X42259203Y-53996890D02*
X42402060Y-53854033D01*
X42402060Y-53854033D02*
X42687775Y-53711176D01*
X42687775Y-53711176D02*
X43116346Y-53711176D01*
X43116346Y-53711176D02*
X43402060Y-53854033D01*
X43402060Y-53854033D02*
X43544918Y-53996890D01*
X43544918Y-53996890D02*
X43687775Y-54282604D01*
X43687775Y-54282604D02*
X43687775Y-55139747D01*
X43687775Y-55139747D02*
X43544918Y-55425461D01*
X43544918Y-55425461D02*
X43402060Y-55568319D01*
X43402060Y-55568319D02*
X43116346Y-55711176D01*
X43116346Y-55711176D02*
X42687775Y-55711176D01*
X45402061Y-55711176D02*
X45116346Y-55568319D01*
X45116346Y-55568319D02*
X44973489Y-55282604D01*
X44973489Y-55282604D02*
X44973489Y-52711176D01*
X47830633Y-55711176D02*
X47830633Y-54139747D01*
X47830633Y-54139747D02*
X47687775Y-53854033D01*
X47687775Y-53854033D02*
X47402061Y-53711176D01*
X47402061Y-53711176D02*
X46830633Y-53711176D01*
X46830633Y-53711176D02*
X46544918Y-53854033D01*
X47830633Y-55568319D02*
X47544918Y-55711176D01*
X47544918Y-55711176D02*
X46830633Y-55711176D01*
X46830633Y-55711176D02*
X46544918Y-55568319D01*
X46544918Y-55568319D02*
X46402061Y-55282604D01*
X46402061Y-55282604D02*
X46402061Y-54996890D01*
X46402061Y-54996890D02*
X46544918Y-54711176D01*
X46544918Y-54711176D02*
X46830633Y-54568319D01*
X46830633Y-54568319D02*
X47544918Y-54568319D01*
X47544918Y-54568319D02*
X47830633Y-54425461D01*
X48830633Y-53711176D02*
X49973490Y-53711176D01*
X49259204Y-52711176D02*
X49259204Y-55282604D01*
X49259204Y-55282604D02*
X49402061Y-55568319D01*
X49402061Y-55568319D02*
X49687776Y-55711176D01*
X49687776Y-55711176D02*
X49973490Y-55711176D01*
X50973490Y-55711176D02*
X50973490Y-53711176D01*
X50973490Y-52711176D02*
X50830633Y-52854033D01*
X50830633Y-52854033D02*
X50973490Y-52996890D01*
X50973490Y-52996890D02*
X51116347Y-52854033D01*
X51116347Y-52854033D02*
X50973490Y-52711176D01*
X50973490Y-52711176D02*
X50973490Y-52996890D01*
X52830633Y-55711176D02*
X52544918Y-55568319D01*
X52544918Y-55568319D02*
X52402061Y-55425461D01*
X52402061Y-55425461D02*
X52259204Y-55139747D01*
X52259204Y-55139747D02*
X52259204Y-54282604D01*
X52259204Y-54282604D02*
X52402061Y-53996890D01*
X52402061Y-53996890D02*
X52544918Y-53854033D01*
X52544918Y-53854033D02*
X52830633Y-53711176D01*
X52830633Y-53711176D02*
X53259204Y-53711176D01*
X53259204Y-53711176D02*
X53544918Y-53854033D01*
X53544918Y-53854033D02*
X53687776Y-53996890D01*
X53687776Y-53996890D02*
X53830633Y-54282604D01*
X53830633Y-54282604D02*
X53830633Y-55139747D01*
X53830633Y-55139747D02*
X53687776Y-55425461D01*
X53687776Y-55425461D02*
X53544918Y-55568319D01*
X53544918Y-55568319D02*
X53259204Y-55711176D01*
X53259204Y-55711176D02*
X52830633Y-55711176D01*
X55116347Y-53711176D02*
X55116347Y-55711176D01*
X55116347Y-53996890D02*
X55259204Y-53854033D01*
X55259204Y-53854033D02*
X55544919Y-53711176D01*
X55544919Y-53711176D02*
X55973490Y-53711176D01*
X55973490Y-53711176D02*
X56259204Y-53854033D01*
X56259204Y-53854033D02*
X56402062Y-54139747D01*
X56402062Y-54139747D02*
X56402062Y-55711176D01*
X61116347Y-54139747D02*
X61544919Y-54282604D01*
X61544919Y-54282604D02*
X61687776Y-54425461D01*
X61687776Y-54425461D02*
X61830633Y-54711176D01*
X61830633Y-54711176D02*
X61830633Y-55139747D01*
X61830633Y-55139747D02*
X61687776Y-55425461D01*
X61687776Y-55425461D02*
X61544919Y-55568319D01*
X61544919Y-55568319D02*
X61259204Y-55711176D01*
X61259204Y-55711176D02*
X60116347Y-55711176D01*
X60116347Y-55711176D02*
X60116347Y-52711176D01*
X60116347Y-52711176D02*
X61116347Y-52711176D01*
X61116347Y-52711176D02*
X61402062Y-52854033D01*
X61402062Y-52854033D02*
X61544919Y-52996890D01*
X61544919Y-52996890D02*
X61687776Y-53282604D01*
X61687776Y-53282604D02*
X61687776Y-53568319D01*
X61687776Y-53568319D02*
X61544919Y-53854033D01*
X61544919Y-53854033D02*
X61402062Y-53996890D01*
X61402062Y-53996890D02*
X61116347Y-54139747D01*
X61116347Y-54139747D02*
X60116347Y-54139747D01*
X64402062Y-55711176D02*
X64402062Y-54139747D01*
X64402062Y-54139747D02*
X64259204Y-53854033D01*
X64259204Y-53854033D02*
X63973490Y-53711176D01*
X63973490Y-53711176D02*
X63402062Y-53711176D01*
X63402062Y-53711176D02*
X63116347Y-53854033D01*
X64402062Y-55568319D02*
X64116347Y-55711176D01*
X64116347Y-55711176D02*
X63402062Y-55711176D01*
X63402062Y-55711176D02*
X63116347Y-55568319D01*
X63116347Y-55568319D02*
X62973490Y-55282604D01*
X62973490Y-55282604D02*
X62973490Y-54996890D01*
X62973490Y-54996890D02*
X63116347Y-54711176D01*
X63116347Y-54711176D02*
X63402062Y-54568319D01*
X63402062Y-54568319D02*
X64116347Y-54568319D01*
X64116347Y-54568319D02*
X64402062Y-54425461D01*
X65830633Y-55711176D02*
X65830633Y-53711176D01*
X65830633Y-54282604D02*
X65973490Y-53996890D01*
X65973490Y-53996890D02*
X66116348Y-53854033D01*
X66116348Y-53854033D02*
X66402062Y-53711176D01*
X66402062Y-53711176D02*
X66687776Y-53711176D01*
X67687776Y-55711176D02*
X67687776Y-53711176D01*
X67687776Y-54282604D02*
X67830633Y-53996890D01*
X67830633Y-53996890D02*
X67973491Y-53854033D01*
X67973491Y-53854033D02*
X68259205Y-53711176D01*
X68259205Y-53711176D02*
X68544919Y-53711176D01*
X69544919Y-55711176D02*
X69544919Y-53711176D01*
X69544919Y-52711176D02*
X69402062Y-52854033D01*
X69402062Y-52854033D02*
X69544919Y-52996890D01*
X69544919Y-52996890D02*
X69687776Y-52854033D01*
X69687776Y-52854033D02*
X69544919Y-52711176D01*
X69544919Y-52711176D02*
X69544919Y-52996890D01*
X72116347Y-55568319D02*
X71830633Y-55711176D01*
X71830633Y-55711176D02*
X71259205Y-55711176D01*
X71259205Y-55711176D02*
X70973490Y-55568319D01*
X70973490Y-55568319D02*
X70830633Y-55282604D01*
X70830633Y-55282604D02*
X70830633Y-54139747D01*
X70830633Y-54139747D02*
X70973490Y-53854033D01*
X70973490Y-53854033D02*
X71259205Y-53711176D01*
X71259205Y-53711176D02*
X71830633Y-53711176D01*
X71830633Y-53711176D02*
X72116347Y-53854033D01*
X72116347Y-53854033D02*
X72259205Y-54139747D01*
X72259205Y-54139747D02*
X72259205Y-54425461D01*
X72259205Y-54425461D02*
X70830633Y-54711176D01*
X73544919Y-55711176D02*
X73544919Y-53711176D01*
X73544919Y-54282604D02*
X73687776Y-53996890D01*
X73687776Y-53996890D02*
X73830634Y-53854033D01*
X73830634Y-53854033D02*
X74116348Y-53711176D01*
X74116348Y-53711176D02*
X74402062Y-53711176D01*
D10*
X60327358Y-72005557D02*
X60374977Y-71957938D01*
X60374977Y-71957938D02*
X60470215Y-71910319D01*
X60470215Y-71910319D02*
X60708310Y-71910319D01*
X60708310Y-71910319D02*
X60803548Y-71957938D01*
X60803548Y-71957938D02*
X60851167Y-72005557D01*
X60851167Y-72005557D02*
X60898786Y-72100795D01*
X60898786Y-72100795D02*
X60898786Y-72196033D01*
X60898786Y-72196033D02*
X60851167Y-72338890D01*
X60851167Y-72338890D02*
X60279739Y-72910319D01*
X60279739Y-72910319D02*
X60898786Y-72910319D01*
X61755929Y-72243652D02*
X61755929Y-72910319D01*
X61517834Y-71862700D02*
X61279739Y-72576985D01*
X61279739Y-72576985D02*
X61898786Y-72576985D01*
X62136882Y-71910319D02*
X62470215Y-72910319D01*
X62470215Y-72910319D02*
X62803548Y-71910319D01*
X45794822Y-72012429D02*
X45699584Y-71964810D01*
X45699584Y-71964810D02*
X45556727Y-71964810D01*
X45556727Y-71964810D02*
X45413870Y-72012429D01*
X45413870Y-72012429D02*
X45318632Y-72107667D01*
X45318632Y-72107667D02*
X45271013Y-72202905D01*
X45271013Y-72202905D02*
X45223394Y-72393381D01*
X45223394Y-72393381D02*
X45223394Y-72536238D01*
X45223394Y-72536238D02*
X45271013Y-72726714D01*
X45271013Y-72726714D02*
X45318632Y-72821952D01*
X45318632Y-72821952D02*
X45413870Y-72917191D01*
X45413870Y-72917191D02*
X45556727Y-72964810D01*
X45556727Y-72964810D02*
X45651965Y-72964810D01*
X45651965Y-72964810D02*
X45794822Y-72917191D01*
X45794822Y-72917191D02*
X45842441Y-72869571D01*
X45842441Y-72869571D02*
X45842441Y-72536238D01*
X45842441Y-72536238D02*
X45651965Y-72536238D01*
X46271013Y-72964810D02*
X46271013Y-71964810D01*
X46271013Y-71964810D02*
X46842441Y-72964810D01*
X46842441Y-72964810D02*
X46842441Y-71964810D01*
X47318632Y-72964810D02*
X47318632Y-71964810D01*
X47318632Y-71964810D02*
X47556727Y-71964810D01*
X47556727Y-71964810D02*
X47699584Y-72012429D01*
X47699584Y-72012429D02*
X47794822Y-72107667D01*
X47794822Y-72107667D02*
X47842441Y-72202905D01*
X47842441Y-72202905D02*
X47890060Y-72393381D01*
X47890060Y-72393381D02*
X47890060Y-72536238D01*
X47890060Y-72536238D02*
X47842441Y-72726714D01*
X47842441Y-72726714D02*
X47794822Y-72821952D01*
X47794822Y-72821952D02*
X47699584Y-72917191D01*
X47699584Y-72917191D02*
X47556727Y-72964810D01*
X47556727Y-72964810D02*
X47318632Y-72964810D01*
X38654104Y-73545856D02*
X37987437Y-73545856D01*
X37654104Y-73545856D02*
X37701723Y-73593475D01*
X37701723Y-73593475D02*
X37749342Y-73545856D01*
X37749342Y-73545856D02*
X37701723Y-73498237D01*
X37701723Y-73498237D02*
X37654104Y-73545856D01*
X37654104Y-73545856D02*
X37749342Y-73545856D01*
X38606485Y-72641095D02*
X38654104Y-72736333D01*
X38654104Y-72736333D02*
X38654104Y-72926809D01*
X38654104Y-72926809D02*
X38606485Y-73022047D01*
X38606485Y-73022047D02*
X38558865Y-73069666D01*
X38558865Y-73069666D02*
X38463627Y-73117285D01*
X38463627Y-73117285D02*
X38177913Y-73117285D01*
X38177913Y-73117285D02*
X38082675Y-73069666D01*
X38082675Y-73069666D02*
X38035056Y-73022047D01*
X38035056Y-73022047D02*
X37987437Y-72926809D01*
X37987437Y-72926809D02*
X37987437Y-72736333D01*
X37987437Y-72736333D02*
X38035056Y-72641095D01*
X38654104Y-72212523D02*
X37987437Y-72212523D01*
X38082675Y-72212523D02*
X38035056Y-72164904D01*
X38035056Y-72164904D02*
X37987437Y-72069666D01*
X37987437Y-72069666D02*
X37987437Y-71926809D01*
X37987437Y-71926809D02*
X38035056Y-71831571D01*
X38035056Y-71831571D02*
X38130294Y-71783952D01*
X38130294Y-71783952D02*
X38654104Y-71783952D01*
X38130294Y-71783952D02*
X38035056Y-71736333D01*
X38035056Y-71736333D02*
X37987437Y-71641095D01*
X37987437Y-71641095D02*
X37987437Y-71498238D01*
X37987437Y-71498238D02*
X38035056Y-71402999D01*
X38035056Y-71402999D02*
X38130294Y-71355380D01*
X38130294Y-71355380D02*
X38654104Y-71355380D01*
X38654104Y-70450619D02*
X37654104Y-70450619D01*
X38606485Y-70450619D02*
X38654104Y-70545857D01*
X38654104Y-70545857D02*
X38654104Y-70736333D01*
X38654104Y-70736333D02*
X38606485Y-70831571D01*
X38606485Y-70831571D02*
X38558865Y-70879190D01*
X38558865Y-70879190D02*
X38463627Y-70926809D01*
X38463627Y-70926809D02*
X38177913Y-70926809D01*
X38177913Y-70926809D02*
X38082675Y-70879190D01*
X38082675Y-70879190D02*
X38035056Y-70831571D01*
X38035056Y-70831571D02*
X37987437Y-70736333D01*
X37987437Y-70736333D02*
X37987437Y-70545857D01*
X37987437Y-70545857D02*
X38035056Y-70450619D01*
X37987437Y-69974428D02*
X38987437Y-69974428D01*
X38035056Y-69974428D02*
X37987437Y-69879190D01*
X37987437Y-69879190D02*
X37987437Y-69688714D01*
X37987437Y-69688714D02*
X38035056Y-69593476D01*
X38035056Y-69593476D02*
X38082675Y-69545857D01*
X38082675Y-69545857D02*
X38177913Y-69498238D01*
X38177913Y-69498238D02*
X38463627Y-69498238D01*
X38463627Y-69498238D02*
X38558865Y-69545857D01*
X38558865Y-69545857D02*
X38606485Y-69593476D01*
X38606485Y-69593476D02*
X38654104Y-69688714D01*
X38654104Y-69688714D02*
X38654104Y-69879190D01*
X38654104Y-69879190D02*
X38606485Y-69974428D01*
X36085910Y-73545856D02*
X35419243Y-73545856D01*
X35085910Y-73545856D02*
X35133529Y-73593475D01*
X35133529Y-73593475D02*
X35181148Y-73545856D01*
X35181148Y-73545856D02*
X35133529Y-73498237D01*
X35133529Y-73498237D02*
X35085910Y-73545856D01*
X35085910Y-73545856D02*
X35181148Y-73545856D01*
X36038291Y-72641095D02*
X36085910Y-72736333D01*
X36085910Y-72736333D02*
X36085910Y-72926809D01*
X36085910Y-72926809D02*
X36038291Y-73022047D01*
X36038291Y-73022047D02*
X35990671Y-73069666D01*
X35990671Y-73069666D02*
X35895433Y-73117285D01*
X35895433Y-73117285D02*
X35609719Y-73117285D01*
X35609719Y-73117285D02*
X35514481Y-73069666D01*
X35514481Y-73069666D02*
X35466862Y-73022047D01*
X35466862Y-73022047D02*
X35419243Y-72926809D01*
X35419243Y-72926809D02*
X35419243Y-72736333D01*
X35419243Y-72736333D02*
X35466862Y-72641095D01*
X36085910Y-72212523D02*
X35419243Y-72212523D01*
X35514481Y-72212523D02*
X35466862Y-72164904D01*
X35466862Y-72164904D02*
X35419243Y-72069666D01*
X35419243Y-72069666D02*
X35419243Y-71926809D01*
X35419243Y-71926809D02*
X35466862Y-71831571D01*
X35466862Y-71831571D02*
X35562100Y-71783952D01*
X35562100Y-71783952D02*
X36085910Y-71783952D01*
X35562100Y-71783952D02*
X35466862Y-71736333D01*
X35466862Y-71736333D02*
X35419243Y-71641095D01*
X35419243Y-71641095D02*
X35419243Y-71498238D01*
X35419243Y-71498238D02*
X35466862Y-71402999D01*
X35466862Y-71402999D02*
X35562100Y-71355380D01*
X35562100Y-71355380D02*
X36085910Y-71355380D01*
X36085910Y-70450619D02*
X35085910Y-70450619D01*
X36038291Y-70450619D02*
X36085910Y-70545857D01*
X36085910Y-70545857D02*
X36085910Y-70736333D01*
X36085910Y-70736333D02*
X36038291Y-70831571D01*
X36038291Y-70831571D02*
X35990671Y-70879190D01*
X35990671Y-70879190D02*
X35895433Y-70926809D01*
X35895433Y-70926809D02*
X35609719Y-70926809D01*
X35609719Y-70926809D02*
X35514481Y-70879190D01*
X35514481Y-70879190D02*
X35466862Y-70831571D01*
X35466862Y-70831571D02*
X35419243Y-70736333D01*
X35419243Y-70736333D02*
X35419243Y-70545857D01*
X35419243Y-70545857D02*
X35466862Y-70450619D01*
X35419243Y-69974428D02*
X36085910Y-69974428D01*
X35514481Y-69974428D02*
X35466862Y-69926809D01*
X35466862Y-69926809D02*
X35419243Y-69831571D01*
X35419243Y-69831571D02*
X35419243Y-69688714D01*
X35419243Y-69688714D02*
X35466862Y-69593476D01*
X35466862Y-69593476D02*
X35562100Y-69545857D01*
X35562100Y-69545857D02*
X36085910Y-69545857D01*
X33591093Y-72944165D02*
X32924426Y-72944165D01*
X32591093Y-72944165D02*
X32638712Y-72991784D01*
X32638712Y-72991784D02*
X32686331Y-72944165D01*
X32686331Y-72944165D02*
X32638712Y-72896546D01*
X32638712Y-72896546D02*
X32591093Y-72944165D01*
X32591093Y-72944165D02*
X32686331Y-72944165D01*
X32924426Y-72610832D02*
X32924426Y-72229880D01*
X32591093Y-72467975D02*
X33448235Y-72467975D01*
X33448235Y-72467975D02*
X33543474Y-72420356D01*
X33543474Y-72420356D02*
X33591093Y-72325118D01*
X33591093Y-72325118D02*
X33591093Y-72229880D01*
X33591093Y-71753689D02*
X33543474Y-71848927D01*
X33543474Y-71848927D02*
X33448235Y-71896546D01*
X33448235Y-71896546D02*
X32591093Y-71896546D01*
X33591093Y-71372736D02*
X32924426Y-71372736D01*
X33019664Y-71372736D02*
X32972045Y-71325117D01*
X32972045Y-71325117D02*
X32924426Y-71229879D01*
X32924426Y-71229879D02*
X32924426Y-71087022D01*
X32924426Y-71087022D02*
X32972045Y-70991784D01*
X32972045Y-70991784D02*
X33067283Y-70944165D01*
X33067283Y-70944165D02*
X33591093Y-70944165D01*
X33067283Y-70944165D02*
X32972045Y-70896546D01*
X32972045Y-70896546D02*
X32924426Y-70801308D01*
X32924426Y-70801308D02*
X32924426Y-70658451D01*
X32924426Y-70658451D02*
X32972045Y-70563212D01*
X32972045Y-70563212D02*
X33067283Y-70515593D01*
X33067283Y-70515593D02*
X33591093Y-70515593D01*
X32924426Y-70039403D02*
X33924426Y-70039403D01*
X32972045Y-70039403D02*
X32924426Y-69944165D01*
X32924426Y-69944165D02*
X32924426Y-69753689D01*
X32924426Y-69753689D02*
X32972045Y-69658451D01*
X32972045Y-69658451D02*
X33019664Y-69610832D01*
X33019664Y-69610832D02*
X33114902Y-69563213D01*
X33114902Y-69563213D02*
X33400616Y-69563213D01*
X33400616Y-69563213D02*
X33495854Y-69610832D01*
X33495854Y-69610832D02*
X33543474Y-69658451D01*
X33543474Y-69658451D02*
X33591093Y-69753689D01*
X33591093Y-69753689D02*
X33591093Y-69944165D01*
X33591093Y-69944165D02*
X33543474Y-70039403D01*
X30949522Y-72973516D02*
X30282855Y-72973516D01*
X29949522Y-72973516D02*
X29997141Y-73021135D01*
X29997141Y-73021135D02*
X30044760Y-72973516D01*
X30044760Y-72973516D02*
X29997141Y-72925897D01*
X29997141Y-72925897D02*
X29949522Y-72973516D01*
X29949522Y-72973516D02*
X30044760Y-72973516D01*
X30282855Y-72640183D02*
X30282855Y-72259231D01*
X29949522Y-72497326D02*
X30806664Y-72497326D01*
X30806664Y-72497326D02*
X30901903Y-72449707D01*
X30901903Y-72449707D02*
X30949522Y-72354469D01*
X30949522Y-72354469D02*
X30949522Y-72259231D01*
X30949522Y-71783040D02*
X30901903Y-71878278D01*
X30901903Y-71878278D02*
X30806664Y-71925897D01*
X30806664Y-71925897D02*
X29949522Y-71925897D01*
X30949522Y-71402087D02*
X30282855Y-71402087D01*
X30378093Y-71402087D02*
X30330474Y-71354468D01*
X30330474Y-71354468D02*
X30282855Y-71259230D01*
X30282855Y-71259230D02*
X30282855Y-71116373D01*
X30282855Y-71116373D02*
X30330474Y-71021135D01*
X30330474Y-71021135D02*
X30425712Y-70973516D01*
X30425712Y-70973516D02*
X30949522Y-70973516D01*
X30425712Y-70973516D02*
X30330474Y-70925897D01*
X30330474Y-70925897D02*
X30282855Y-70830659D01*
X30282855Y-70830659D02*
X30282855Y-70687802D01*
X30282855Y-70687802D02*
X30330474Y-70592563D01*
X30330474Y-70592563D02*
X30425712Y-70544944D01*
X30425712Y-70544944D02*
X30949522Y-70544944D01*
X30282855Y-70068754D02*
X30949522Y-70068754D01*
X30378093Y-70068754D02*
X30330474Y-70021135D01*
X30330474Y-70021135D02*
X30282855Y-69925897D01*
X30282855Y-69925897D02*
X30282855Y-69783040D01*
X30282855Y-69783040D02*
X30330474Y-69687802D01*
X30330474Y-69687802D02*
X30425712Y-69640183D01*
X30425712Y-69640183D02*
X30949522Y-69640183D01*
X27707779Y-71642560D02*
X27660160Y-71737798D01*
X27660160Y-71737798D02*
X27660160Y-71880655D01*
X27660160Y-71880655D02*
X27707779Y-72023512D01*
X27707779Y-72023512D02*
X27803017Y-72118750D01*
X27803017Y-72118750D02*
X27898255Y-72166369D01*
X27898255Y-72166369D02*
X28088731Y-72213988D01*
X28088731Y-72213988D02*
X28231588Y-72213988D01*
X28231588Y-72213988D02*
X28422064Y-72166369D01*
X28422064Y-72166369D02*
X28517302Y-72118750D01*
X28517302Y-72118750D02*
X28612541Y-72023512D01*
X28612541Y-72023512D02*
X28660160Y-71880655D01*
X28660160Y-71880655D02*
X28660160Y-71785417D01*
X28660160Y-71785417D02*
X28612541Y-71642560D01*
X28612541Y-71642560D02*
X28564921Y-71594941D01*
X28564921Y-71594941D02*
X28231588Y-71594941D01*
X28231588Y-71594941D02*
X28231588Y-71785417D01*
X28660160Y-71166369D02*
X27660160Y-71166369D01*
X27660160Y-71166369D02*
X28660160Y-70594941D01*
X28660160Y-70594941D02*
X27660160Y-70594941D01*
X28660160Y-70118750D02*
X27660160Y-70118750D01*
X27660160Y-70118750D02*
X27660160Y-69880655D01*
X27660160Y-69880655D02*
X27707779Y-69737798D01*
X27707779Y-69737798D02*
X27803017Y-69642560D01*
X27803017Y-69642560D02*
X27898255Y-69594941D01*
X27898255Y-69594941D02*
X28088731Y-69547322D01*
X28088731Y-69547322D02*
X28231588Y-69547322D01*
X28231588Y-69547322D02*
X28422064Y-69594941D01*
X28422064Y-69594941D02*
X28517302Y-69642560D01*
X28517302Y-69642560D02*
X28612541Y-69737798D01*
X28612541Y-69737798D02*
X28660160Y-69880655D01*
X28660160Y-69880655D02*
X28660160Y-70118750D01*
X25183612Y-71686587D02*
X25135993Y-71781825D01*
X25135993Y-71781825D02*
X25135993Y-71924682D01*
X25135993Y-71924682D02*
X25183612Y-72067539D01*
X25183612Y-72067539D02*
X25278850Y-72162777D01*
X25278850Y-72162777D02*
X25374088Y-72210396D01*
X25374088Y-72210396D02*
X25564564Y-72258015D01*
X25564564Y-72258015D02*
X25707421Y-72258015D01*
X25707421Y-72258015D02*
X25897897Y-72210396D01*
X25897897Y-72210396D02*
X25993135Y-72162777D01*
X25993135Y-72162777D02*
X26088374Y-72067539D01*
X26088374Y-72067539D02*
X26135993Y-71924682D01*
X26135993Y-71924682D02*
X26135993Y-71829444D01*
X26135993Y-71829444D02*
X26088374Y-71686587D01*
X26088374Y-71686587D02*
X26040754Y-71638968D01*
X26040754Y-71638968D02*
X25707421Y-71638968D01*
X25707421Y-71638968D02*
X25707421Y-71829444D01*
X26135993Y-71210396D02*
X25135993Y-71210396D01*
X25135993Y-71210396D02*
X26135993Y-70638968D01*
X26135993Y-70638968D02*
X25135993Y-70638968D01*
X26135993Y-70162777D02*
X25135993Y-70162777D01*
X25135993Y-70162777D02*
X25135993Y-69924682D01*
X25135993Y-69924682D02*
X25183612Y-69781825D01*
X25183612Y-69781825D02*
X25278850Y-69686587D01*
X25278850Y-69686587D02*
X25374088Y-69638968D01*
X25374088Y-69638968D02*
X25564564Y-69591349D01*
X25564564Y-69591349D02*
X25707421Y-69591349D01*
X25707421Y-69591349D02*
X25897897Y-69638968D01*
X25897897Y-69638968D02*
X25993135Y-69686587D01*
X25993135Y-69686587D02*
X26088374Y-69781825D01*
X26088374Y-69781825D02*
X26135993Y-69924682D01*
X26135993Y-69924682D02*
X26135993Y-70162777D01*
D11*
X33551083Y-18800964D02*
X33551083Y-15800964D01*
X33551083Y-17229535D02*
X35265369Y-17229535D01*
X35265369Y-18800964D02*
X35265369Y-15800964D01*
X36693940Y-18800964D02*
X36693940Y-15800964D01*
X39693940Y-15943821D02*
X39408226Y-15800964D01*
X39408226Y-15800964D02*
X38979654Y-15800964D01*
X38979654Y-15800964D02*
X38551083Y-15943821D01*
X38551083Y-15943821D02*
X38265368Y-16229535D01*
X38265368Y-16229535D02*
X38122511Y-16515249D01*
X38122511Y-16515249D02*
X37979654Y-17086678D01*
X37979654Y-17086678D02*
X37979654Y-17515249D01*
X37979654Y-17515249D02*
X38122511Y-18086678D01*
X38122511Y-18086678D02*
X38265368Y-18372392D01*
X38265368Y-18372392D02*
X38551083Y-18658107D01*
X38551083Y-18658107D02*
X38979654Y-18800964D01*
X38979654Y-18800964D02*
X39265368Y-18800964D01*
X39265368Y-18800964D02*
X39693940Y-18658107D01*
X39693940Y-18658107D02*
X39836797Y-18515249D01*
X39836797Y-18515249D02*
X39836797Y-17515249D01*
X39836797Y-17515249D02*
X39265368Y-17515249D01*
X41122511Y-18800964D02*
X41122511Y-15800964D01*
X41122511Y-17229535D02*
X42836797Y-17229535D01*
X42836797Y-18800964D02*
X42836797Y-15800964D01*
X46122511Y-15800964D02*
X47122511Y-18800964D01*
X47122511Y-18800964D02*
X48122511Y-15800964D01*
X49693940Y-15800964D02*
X50265368Y-15800964D01*
X50265368Y-15800964D02*
X50551083Y-15943821D01*
X50551083Y-15943821D02*
X50836797Y-16229535D01*
X50836797Y-16229535D02*
X50979654Y-16800964D01*
X50979654Y-16800964D02*
X50979654Y-17800964D01*
X50979654Y-17800964D02*
X50836797Y-18372392D01*
X50836797Y-18372392D02*
X50551083Y-18658107D01*
X50551083Y-18658107D02*
X50265368Y-18800964D01*
X50265368Y-18800964D02*
X49693940Y-18800964D01*
X49693940Y-18800964D02*
X49408226Y-18658107D01*
X49408226Y-18658107D02*
X49122511Y-18372392D01*
X49122511Y-18372392D02*
X48979654Y-17800964D01*
X48979654Y-17800964D02*
X48979654Y-16800964D01*
X48979654Y-16800964D02*
X49122511Y-16229535D01*
X49122511Y-16229535D02*
X49408226Y-15943821D01*
X49408226Y-15943821D02*
X49693940Y-15800964D01*
X53693940Y-18800964D02*
X52265368Y-18800964D01*
X52265368Y-18800964D02*
X52265368Y-15800964D01*
X54265368Y-15800964D02*
X55979654Y-15800964D01*
X55122511Y-18800964D02*
X55122511Y-15800964D01*
X56836796Y-17943821D02*
X58265368Y-17943821D01*
X56551082Y-18800964D02*
X57551082Y-15800964D01*
X57551082Y-15800964D02*
X58551082Y-18800964D01*
X61122511Y-15943821D02*
X60836797Y-15800964D01*
X60836797Y-15800964D02*
X60408225Y-15800964D01*
X60408225Y-15800964D02*
X59979654Y-15943821D01*
X59979654Y-15943821D02*
X59693939Y-16229535D01*
X59693939Y-16229535D02*
X59551082Y-16515249D01*
X59551082Y-16515249D02*
X59408225Y-17086678D01*
X59408225Y-17086678D02*
X59408225Y-17515249D01*
X59408225Y-17515249D02*
X59551082Y-18086678D01*
X59551082Y-18086678D02*
X59693939Y-18372392D01*
X59693939Y-18372392D02*
X59979654Y-18658107D01*
X59979654Y-18658107D02*
X60408225Y-18800964D01*
X60408225Y-18800964D02*
X60693939Y-18800964D01*
X60693939Y-18800964D02*
X61122511Y-18658107D01*
X61122511Y-18658107D02*
X61265368Y-18515249D01*
X61265368Y-18515249D02*
X61265368Y-17515249D01*
X61265368Y-17515249D02*
X60693939Y-17515249D01*
X62551082Y-17229535D02*
X63551082Y-17229535D01*
X63979654Y-18800964D02*
X62551082Y-18800964D01*
X62551082Y-18800964D02*
X62551082Y-15800964D01*
X62551082Y-15800964D02*
X63979654Y-15800964D01*
D10*
X74853559Y-39921974D02*
X74853559Y-39588641D01*
X75377369Y-39445784D02*
X75377369Y-39921974D01*
X75377369Y-39921974D02*
X74377369Y-39921974D01*
X74377369Y-39921974D02*
X74377369Y-39445784D01*
X75377369Y-39017212D02*
X74377369Y-39017212D01*
X74377369Y-39017212D02*
X74377369Y-38636260D01*
X74377369Y-38636260D02*
X74424988Y-38541022D01*
X74424988Y-38541022D02*
X74472607Y-38493403D01*
X74472607Y-38493403D02*
X74567845Y-38445784D01*
X74567845Y-38445784D02*
X74710702Y-38445784D01*
X74710702Y-38445784D02*
X74805940Y-38493403D01*
X74805940Y-38493403D02*
X74853559Y-38541022D01*
X74853559Y-38541022D02*
X74901178Y-38636260D01*
X74901178Y-38636260D02*
X74901178Y-39017212D01*
X75377369Y-37445784D02*
X74901178Y-37779117D01*
X75377369Y-38017212D02*
X74377369Y-38017212D01*
X74377369Y-38017212D02*
X74377369Y-37636260D01*
X74377369Y-37636260D02*
X74424988Y-37541022D01*
X74424988Y-37541022D02*
X74472607Y-37493403D01*
X74472607Y-37493403D02*
X74567845Y-37445784D01*
X74567845Y-37445784D02*
X74710702Y-37445784D01*
X74710702Y-37445784D02*
X74805940Y-37493403D01*
X74805940Y-37493403D02*
X74853559Y-37541022D01*
X74853559Y-37541022D02*
X74901178Y-37636260D01*
X74901178Y-37636260D02*
X74901178Y-38017212D01*
X75377369Y-37017212D02*
X74377369Y-37017212D01*
X74377369Y-36683879D02*
X74377369Y-36112451D01*
X75377369Y-36398165D02*
X74377369Y-36398165D01*
X75282130Y-35207689D02*
X75329750Y-35255308D01*
X75329750Y-35255308D02*
X75377369Y-35398165D01*
X75377369Y-35398165D02*
X75377369Y-35493403D01*
X75377369Y-35493403D02*
X75329750Y-35636260D01*
X75329750Y-35636260D02*
X75234511Y-35731498D01*
X75234511Y-35731498D02*
X75139273Y-35779117D01*
X75139273Y-35779117D02*
X74948797Y-35826736D01*
X74948797Y-35826736D02*
X74805940Y-35826736D01*
X74805940Y-35826736D02*
X74615464Y-35779117D01*
X74615464Y-35779117D02*
X74520226Y-35731498D01*
X74520226Y-35731498D02*
X74424988Y-35636260D01*
X74424988Y-35636260D02*
X74377369Y-35493403D01*
X74377369Y-35493403D02*
X74377369Y-35398165D01*
X74377369Y-35398165D02*
X74424988Y-35255308D01*
X74424988Y-35255308D02*
X74472607Y-35207689D01*
X75377369Y-34779117D02*
X74377369Y-34779117D01*
X74853559Y-34779117D02*
X74853559Y-34207689D01*
X75377369Y-34207689D02*
X74377369Y-34207689D01*
X75091654Y-33779117D02*
X75091654Y-33302927D01*
X75377369Y-33874355D02*
X74377369Y-33541022D01*
X74377369Y-33541022D02*
X75377369Y-33207689D01*
X75377369Y-32302927D02*
X74901178Y-32636260D01*
X75377369Y-32874355D02*
X74377369Y-32874355D01*
X74377369Y-32874355D02*
X74377369Y-32493403D01*
X74377369Y-32493403D02*
X74424988Y-32398165D01*
X74424988Y-32398165D02*
X74472607Y-32350546D01*
X74472607Y-32350546D02*
X74567845Y-32302927D01*
X74567845Y-32302927D02*
X74710702Y-32302927D01*
X74710702Y-32302927D02*
X74805940Y-32350546D01*
X74805940Y-32350546D02*
X74853559Y-32398165D01*
X74853559Y-32398165D02*
X74901178Y-32493403D01*
X74901178Y-32493403D02*
X74901178Y-32874355D01*
X75377369Y-31874355D02*
X74377369Y-31874355D01*
X74377369Y-31874355D02*
X74377369Y-31636260D01*
X74377369Y-31636260D02*
X74424988Y-31493403D01*
X74424988Y-31493403D02*
X74520226Y-31398165D01*
X74520226Y-31398165D02*
X74615464Y-31350546D01*
X74615464Y-31350546D02*
X74805940Y-31302927D01*
X74805940Y-31302927D02*
X74948797Y-31302927D01*
X74948797Y-31302927D02*
X75139273Y-31350546D01*
X75139273Y-31350546D02*
X75234511Y-31398165D01*
X75234511Y-31398165D02*
X75329750Y-31493403D01*
X75329750Y-31493403D02*
X75377369Y-31636260D01*
X75377369Y-31636260D02*
X75377369Y-31874355D01*
X74377369Y-30064831D02*
X74567845Y-30160069D01*
X74472607Y-29683879D02*
X74424988Y-29636260D01*
X74424988Y-29636260D02*
X74377369Y-29541022D01*
X74377369Y-29541022D02*
X74377369Y-29302927D01*
X74377369Y-29302927D02*
X74424988Y-29207689D01*
X74424988Y-29207689D02*
X74472607Y-29160070D01*
X74472607Y-29160070D02*
X74567845Y-29112451D01*
X74567845Y-29112451D02*
X74663083Y-29112451D01*
X74663083Y-29112451D02*
X74805940Y-29160070D01*
X74805940Y-29160070D02*
X75377369Y-29731498D01*
X75377369Y-29731498D02*
X75377369Y-29112451D01*
X74377369Y-28207689D02*
X74377369Y-28683879D01*
X74377369Y-28683879D02*
X74853559Y-28731498D01*
X74853559Y-28731498D02*
X74805940Y-28683879D01*
X74805940Y-28683879D02*
X74758321Y-28588641D01*
X74758321Y-28588641D02*
X74758321Y-28350546D01*
X74758321Y-28350546D02*
X74805940Y-28255308D01*
X74805940Y-28255308D02*
X74853559Y-28207689D01*
X74853559Y-28207689D02*
X74948797Y-28160070D01*
X74948797Y-28160070D02*
X75186892Y-28160070D01*
X75186892Y-28160070D02*
X75282130Y-28207689D01*
X75282130Y-28207689D02*
X75329750Y-28255308D01*
X75329750Y-28255308D02*
X75377369Y-28350546D01*
X75377369Y-28350546D02*
X75377369Y-28588641D01*
X75377369Y-28588641D02*
X75329750Y-28683879D01*
X75329750Y-28683879D02*
X75282130Y-28731498D01*
D12*
X18007798Y-57888000D02*
X21307798Y-57888000D01*
X22507798Y-57888000D02*
X25807798Y-57888000D01*
X27007798Y-57888000D02*
X30307798Y-57888000D01*
X31507798Y-57888000D02*
X34807798Y-57888000D01*
X36007798Y-57888000D02*
X39307798Y-57888000D01*
X40507798Y-57888000D02*
X43807798Y-57888000D01*
X45007798Y-57888000D02*
X48307798Y-57888000D01*
X49507798Y-57888000D02*
X52807798Y-57888000D01*
X54007798Y-57888000D02*
X57307798Y-57888000D01*
X58507798Y-57888000D02*
X61807798Y-57888000D01*
X63007798Y-57888000D02*
X66307798Y-57888000D01*
X67507798Y-57888000D02*
X70807798Y-57888000D01*
X72007798Y-57888000D02*
X75307798Y-57888000D01*
X76507798Y-57888000D02*
X78967798Y-57888000D01*
X18007798Y-50572800D02*
X21307798Y-50572800D01*
X22507798Y-50572800D02*
X25807798Y-50572800D01*
X27007798Y-50572800D02*
X30307798Y-50572800D01*
X31507798Y-50572800D02*
X34807798Y-50572800D01*
X36007798Y-50572800D02*
X39307798Y-50572800D01*
X40507798Y-50572800D02*
X43807798Y-50572800D01*
X45007798Y-50572800D02*
X48307798Y-50572800D01*
X49507798Y-50572800D02*
X52807798Y-50572800D01*
X54007798Y-50572800D02*
X57307798Y-50572800D01*
X58507798Y-50572800D02*
X61807798Y-50572800D01*
X63007798Y-50572800D02*
X66307798Y-50572800D01*
X67507798Y-50572800D02*
X70807798Y-50572800D01*
X72007798Y-50572800D02*
X75307798Y-50572800D01*
X76507798Y-50572800D02*
X78967798Y-50572800D01*
D10*
%TO.C,U7*%
X69170308Y-69670717D02*
X69979831Y-69670717D01*
X69979831Y-69670717D02*
X70075069Y-69623098D01*
X70075069Y-69623098D02*
X70122689Y-69575479D01*
X70122689Y-69575479D02*
X70170308Y-69480241D01*
X70170308Y-69480241D02*
X70170308Y-69289765D01*
X70170308Y-69289765D02*
X70122689Y-69194527D01*
X70122689Y-69194527D02*
X70075069Y-69146908D01*
X70075069Y-69146908D02*
X69979831Y-69099289D01*
X69979831Y-69099289D02*
X69170308Y-69099289D01*
X69170308Y-68718336D02*
X69170308Y-68051670D01*
X69170308Y-68051670D02*
X70170308Y-68480241D01*
%TO.C,C18*%
X67763560Y-40794894D02*
X67811180Y-40842513D01*
X67811180Y-40842513D02*
X67858799Y-40985370D01*
X67858799Y-40985370D02*
X67858799Y-41080608D01*
X67858799Y-41080608D02*
X67811180Y-41223465D01*
X67811180Y-41223465D02*
X67715941Y-41318703D01*
X67715941Y-41318703D02*
X67620703Y-41366322D01*
X67620703Y-41366322D02*
X67430227Y-41413941D01*
X67430227Y-41413941D02*
X67287370Y-41413941D01*
X67287370Y-41413941D02*
X67096894Y-41366322D01*
X67096894Y-41366322D02*
X67001656Y-41318703D01*
X67001656Y-41318703D02*
X66906418Y-41223465D01*
X66906418Y-41223465D02*
X66858799Y-41080608D01*
X66858799Y-41080608D02*
X66858799Y-40985370D01*
X66858799Y-40985370D02*
X66906418Y-40842513D01*
X66906418Y-40842513D02*
X66954037Y-40794894D01*
X67858799Y-39842513D02*
X67858799Y-40413941D01*
X67858799Y-40128227D02*
X66858799Y-40128227D01*
X66858799Y-40128227D02*
X67001656Y-40223465D01*
X67001656Y-40223465D02*
X67096894Y-40318703D01*
X67096894Y-40318703D02*
X67144513Y-40413941D01*
X67287370Y-39271084D02*
X67239751Y-39366322D01*
X67239751Y-39366322D02*
X67192132Y-39413941D01*
X67192132Y-39413941D02*
X67096894Y-39461560D01*
X67096894Y-39461560D02*
X67049275Y-39461560D01*
X67049275Y-39461560D02*
X66954037Y-39413941D01*
X66954037Y-39413941D02*
X66906418Y-39366322D01*
X66906418Y-39366322D02*
X66858799Y-39271084D01*
X66858799Y-39271084D02*
X66858799Y-39080608D01*
X66858799Y-39080608D02*
X66906418Y-38985370D01*
X66906418Y-38985370D02*
X66954037Y-38937751D01*
X66954037Y-38937751D02*
X67049275Y-38890132D01*
X67049275Y-38890132D02*
X67096894Y-38890132D01*
X67096894Y-38890132D02*
X67192132Y-38937751D01*
X67192132Y-38937751D02*
X67239751Y-38985370D01*
X67239751Y-38985370D02*
X67287370Y-39080608D01*
X67287370Y-39080608D02*
X67287370Y-39271084D01*
X67287370Y-39271084D02*
X67334989Y-39366322D01*
X67334989Y-39366322D02*
X67382608Y-39413941D01*
X67382608Y-39413941D02*
X67477846Y-39461560D01*
X67477846Y-39461560D02*
X67668322Y-39461560D01*
X67668322Y-39461560D02*
X67763560Y-39413941D01*
X67763560Y-39413941D02*
X67811180Y-39366322D01*
X67811180Y-39366322D02*
X67858799Y-39271084D01*
X67858799Y-39271084D02*
X67858799Y-39080608D01*
X67858799Y-39080608D02*
X67811180Y-38985370D01*
X67811180Y-38985370D02*
X67763560Y-38937751D01*
X67763560Y-38937751D02*
X67668322Y-38890132D01*
X67668322Y-38890132D02*
X67477846Y-38890132D01*
X67477846Y-38890132D02*
X67382608Y-38937751D01*
X67382608Y-38937751D02*
X67334989Y-38985370D01*
X67334989Y-38985370D02*
X67287370Y-39080608D01*
%TO.C,C17*%
X69282464Y-40816907D02*
X69330084Y-40864526D01*
X69330084Y-40864526D02*
X69377703Y-41007383D01*
X69377703Y-41007383D02*
X69377703Y-41102621D01*
X69377703Y-41102621D02*
X69330084Y-41245478D01*
X69330084Y-41245478D02*
X69234845Y-41340716D01*
X69234845Y-41340716D02*
X69139607Y-41388335D01*
X69139607Y-41388335D02*
X68949131Y-41435954D01*
X68949131Y-41435954D02*
X68806274Y-41435954D01*
X68806274Y-41435954D02*
X68615798Y-41388335D01*
X68615798Y-41388335D02*
X68520560Y-41340716D01*
X68520560Y-41340716D02*
X68425322Y-41245478D01*
X68425322Y-41245478D02*
X68377703Y-41102621D01*
X68377703Y-41102621D02*
X68377703Y-41007383D01*
X68377703Y-41007383D02*
X68425322Y-40864526D01*
X68425322Y-40864526D02*
X68472941Y-40816907D01*
X69377703Y-39864526D02*
X69377703Y-40435954D01*
X69377703Y-40150240D02*
X68377703Y-40150240D01*
X68377703Y-40150240D02*
X68520560Y-40245478D01*
X68520560Y-40245478D02*
X68615798Y-40340716D01*
X68615798Y-40340716D02*
X68663417Y-40435954D01*
X68377703Y-39531192D02*
X68377703Y-38864526D01*
X68377703Y-38864526D02*
X69377703Y-39293097D01*
%TO.C,C16*%
X61080207Y-61777732D02*
X61127827Y-61825351D01*
X61127827Y-61825351D02*
X61175446Y-61968208D01*
X61175446Y-61968208D02*
X61175446Y-62063446D01*
X61175446Y-62063446D02*
X61127827Y-62206303D01*
X61127827Y-62206303D02*
X61032588Y-62301541D01*
X61032588Y-62301541D02*
X60937350Y-62349160D01*
X60937350Y-62349160D02*
X60746874Y-62396779D01*
X60746874Y-62396779D02*
X60604017Y-62396779D01*
X60604017Y-62396779D02*
X60413541Y-62349160D01*
X60413541Y-62349160D02*
X60318303Y-62301541D01*
X60318303Y-62301541D02*
X60223065Y-62206303D01*
X60223065Y-62206303D02*
X60175446Y-62063446D01*
X60175446Y-62063446D02*
X60175446Y-61968208D01*
X60175446Y-61968208D02*
X60223065Y-61825351D01*
X60223065Y-61825351D02*
X60270684Y-61777732D01*
X61175446Y-60825351D02*
X61175446Y-61396779D01*
X61175446Y-61111065D02*
X60175446Y-61111065D01*
X60175446Y-61111065D02*
X60318303Y-61206303D01*
X60318303Y-61206303D02*
X60413541Y-61301541D01*
X60413541Y-61301541D02*
X60461160Y-61396779D01*
X60175446Y-59968208D02*
X60175446Y-60158684D01*
X60175446Y-60158684D02*
X60223065Y-60253922D01*
X60223065Y-60253922D02*
X60270684Y-60301541D01*
X60270684Y-60301541D02*
X60413541Y-60396779D01*
X60413541Y-60396779D02*
X60604017Y-60444398D01*
X60604017Y-60444398D02*
X60984969Y-60444398D01*
X60984969Y-60444398D02*
X61080207Y-60396779D01*
X61080207Y-60396779D02*
X61127827Y-60349160D01*
X61127827Y-60349160D02*
X61175446Y-60253922D01*
X61175446Y-60253922D02*
X61175446Y-60063446D01*
X61175446Y-60063446D02*
X61127827Y-59968208D01*
X61127827Y-59968208D02*
X61080207Y-59920589D01*
X61080207Y-59920589D02*
X60984969Y-59872970D01*
X60984969Y-59872970D02*
X60746874Y-59872970D01*
X60746874Y-59872970D02*
X60651636Y-59920589D01*
X60651636Y-59920589D02*
X60604017Y-59968208D01*
X60604017Y-59968208D02*
X60556398Y-60063446D01*
X60556398Y-60063446D02*
X60556398Y-60253922D01*
X60556398Y-60253922D02*
X60604017Y-60349160D01*
X60604017Y-60349160D02*
X60651636Y-60396779D01*
X60651636Y-60396779D02*
X60746874Y-60444398D01*
%TO.C,C15*%
X64659714Y-40706841D02*
X64707334Y-40754460D01*
X64707334Y-40754460D02*
X64754953Y-40897317D01*
X64754953Y-40897317D02*
X64754953Y-40992555D01*
X64754953Y-40992555D02*
X64707334Y-41135412D01*
X64707334Y-41135412D02*
X64612095Y-41230650D01*
X64612095Y-41230650D02*
X64516857Y-41278269D01*
X64516857Y-41278269D02*
X64326381Y-41325888D01*
X64326381Y-41325888D02*
X64183524Y-41325888D01*
X64183524Y-41325888D02*
X63993048Y-41278269D01*
X63993048Y-41278269D02*
X63897810Y-41230650D01*
X63897810Y-41230650D02*
X63802572Y-41135412D01*
X63802572Y-41135412D02*
X63754953Y-40992555D01*
X63754953Y-40992555D02*
X63754953Y-40897317D01*
X63754953Y-40897317D02*
X63802572Y-40754460D01*
X63802572Y-40754460D02*
X63850191Y-40706841D01*
X64754953Y-39754460D02*
X64754953Y-40325888D01*
X64754953Y-40040174D02*
X63754953Y-40040174D01*
X63754953Y-40040174D02*
X63897810Y-40135412D01*
X63897810Y-40135412D02*
X63993048Y-40230650D01*
X63993048Y-40230650D02*
X64040667Y-40325888D01*
X63754953Y-38849698D02*
X63754953Y-39325888D01*
X63754953Y-39325888D02*
X64231143Y-39373507D01*
X64231143Y-39373507D02*
X64183524Y-39325888D01*
X64183524Y-39325888D02*
X64135905Y-39230650D01*
X64135905Y-39230650D02*
X64135905Y-38992555D01*
X64135905Y-38992555D02*
X64183524Y-38897317D01*
X64183524Y-38897317D02*
X64231143Y-38849698D01*
X64231143Y-38849698D02*
X64326381Y-38802079D01*
X64326381Y-38802079D02*
X64564476Y-38802079D01*
X64564476Y-38802079D02*
X64659714Y-38849698D01*
X64659714Y-38849698D02*
X64707334Y-38897317D01*
X64707334Y-38897317D02*
X64754953Y-38992555D01*
X64754953Y-38992555D02*
X64754953Y-39230650D01*
X64754953Y-39230650D02*
X64707334Y-39325888D01*
X64707334Y-39325888D02*
X64659714Y-39373507D01*
%TO.C,R14*%
X74366180Y-69127659D02*
X73889989Y-69460992D01*
X74366180Y-69699087D02*
X73366180Y-69699087D01*
X73366180Y-69699087D02*
X73366180Y-69318135D01*
X73366180Y-69318135D02*
X73413799Y-69222897D01*
X73413799Y-69222897D02*
X73461418Y-69175278D01*
X73461418Y-69175278D02*
X73556656Y-69127659D01*
X73556656Y-69127659D02*
X73699513Y-69127659D01*
X73699513Y-69127659D02*
X73794751Y-69175278D01*
X73794751Y-69175278D02*
X73842370Y-69222897D01*
X73842370Y-69222897D02*
X73889989Y-69318135D01*
X73889989Y-69318135D02*
X73889989Y-69699087D01*
X74366180Y-68175278D02*
X74366180Y-68746706D01*
X74366180Y-68460992D02*
X73366180Y-68460992D01*
X73366180Y-68460992D02*
X73509037Y-68556230D01*
X73509037Y-68556230D02*
X73604275Y-68651468D01*
X73604275Y-68651468D02*
X73651894Y-68746706D01*
X73699513Y-67318135D02*
X74366180Y-67318135D01*
X73318561Y-67556230D02*
X74032846Y-67794325D01*
X74032846Y-67794325D02*
X74032846Y-67175278D01*
%TO.C,D4*%
X72688978Y-71228983D02*
X72688978Y-70228983D01*
X72688978Y-70228983D02*
X72927073Y-70228983D01*
X72927073Y-70228983D02*
X73069930Y-70276602D01*
X73069930Y-70276602D02*
X73165168Y-70371840D01*
X73165168Y-70371840D02*
X73212787Y-70467078D01*
X73212787Y-70467078D02*
X73260406Y-70657554D01*
X73260406Y-70657554D02*
X73260406Y-70800411D01*
X73260406Y-70800411D02*
X73212787Y-70990887D01*
X73212787Y-70990887D02*
X73165168Y-71086125D01*
X73165168Y-71086125D02*
X73069930Y-71181364D01*
X73069930Y-71181364D02*
X72927073Y-71228983D01*
X72927073Y-71228983D02*
X72688978Y-71228983D01*
X74117549Y-70562316D02*
X74117549Y-71228983D01*
X73879454Y-70181364D02*
X73641359Y-70895649D01*
X73641359Y-70895649D02*
X74260406Y-70895649D01*
%TO.C,U6*%
X37970619Y-48766218D02*
X37970619Y-49575741D01*
X37970619Y-49575741D02*
X38018238Y-49670979D01*
X38018238Y-49670979D02*
X38065857Y-49718599D01*
X38065857Y-49718599D02*
X38161095Y-49766218D01*
X38161095Y-49766218D02*
X38351571Y-49766218D01*
X38351571Y-49766218D02*
X38446809Y-49718599D01*
X38446809Y-49718599D02*
X38494428Y-49670979D01*
X38494428Y-49670979D02*
X38542047Y-49575741D01*
X38542047Y-49575741D02*
X38542047Y-48766218D01*
X39446809Y-48766218D02*
X39256333Y-48766218D01*
X39256333Y-48766218D02*
X39161095Y-48813837D01*
X39161095Y-48813837D02*
X39113476Y-48861456D01*
X39113476Y-48861456D02*
X39018238Y-49004313D01*
X39018238Y-49004313D02*
X38970619Y-49194789D01*
X38970619Y-49194789D02*
X38970619Y-49575741D01*
X38970619Y-49575741D02*
X39018238Y-49670979D01*
X39018238Y-49670979D02*
X39065857Y-49718599D01*
X39065857Y-49718599D02*
X39161095Y-49766218D01*
X39161095Y-49766218D02*
X39351571Y-49766218D01*
X39351571Y-49766218D02*
X39446809Y-49718599D01*
X39446809Y-49718599D02*
X39494428Y-49670979D01*
X39494428Y-49670979D02*
X39542047Y-49575741D01*
X39542047Y-49575741D02*
X39542047Y-49337646D01*
X39542047Y-49337646D02*
X39494428Y-49242408D01*
X39494428Y-49242408D02*
X39446809Y-49194789D01*
X39446809Y-49194789D02*
X39351571Y-49147170D01*
X39351571Y-49147170D02*
X39161095Y-49147170D01*
X39161095Y-49147170D02*
X39065857Y-49194789D01*
X39065857Y-49194789D02*
X39018238Y-49242408D01*
X39018238Y-49242408D02*
X38970619Y-49337646D01*
%TO.C,U4*%
X58321126Y-37361520D02*
X58321126Y-38171043D01*
X58321126Y-38171043D02*
X58368745Y-38266281D01*
X58368745Y-38266281D02*
X58416364Y-38313901D01*
X58416364Y-38313901D02*
X58511602Y-38361520D01*
X58511602Y-38361520D02*
X58702078Y-38361520D01*
X58702078Y-38361520D02*
X58797316Y-38313901D01*
X58797316Y-38313901D02*
X58844935Y-38266281D01*
X58844935Y-38266281D02*
X58892554Y-38171043D01*
X58892554Y-38171043D02*
X58892554Y-37361520D01*
X59797316Y-37694853D02*
X59797316Y-38361520D01*
X59559221Y-37313901D02*
X59321126Y-38028186D01*
X59321126Y-38028186D02*
X59940173Y-38028186D01*
%TO.C,U3*%
X39775693Y-35216483D02*
X39775693Y-36026006D01*
X39775693Y-36026006D02*
X39823312Y-36121244D01*
X39823312Y-36121244D02*
X39870931Y-36168864D01*
X39870931Y-36168864D02*
X39966169Y-36216483D01*
X39966169Y-36216483D02*
X40156645Y-36216483D01*
X40156645Y-36216483D02*
X40251883Y-36168864D01*
X40251883Y-36168864D02*
X40299502Y-36121244D01*
X40299502Y-36121244D02*
X40347121Y-36026006D01*
X40347121Y-36026006D02*
X40347121Y-35216483D01*
X40728074Y-35216483D02*
X41347121Y-35216483D01*
X41347121Y-35216483D02*
X41013788Y-35597435D01*
X41013788Y-35597435D02*
X41156645Y-35597435D01*
X41156645Y-35597435D02*
X41251883Y-35645054D01*
X41251883Y-35645054D02*
X41299502Y-35692673D01*
X41299502Y-35692673D02*
X41347121Y-35787911D01*
X41347121Y-35787911D02*
X41347121Y-36026006D01*
X41347121Y-36026006D02*
X41299502Y-36121244D01*
X41299502Y-36121244D02*
X41251883Y-36168864D01*
X41251883Y-36168864D02*
X41156645Y-36216483D01*
X41156645Y-36216483D02*
X40870931Y-36216483D01*
X40870931Y-36216483D02*
X40775693Y-36168864D01*
X40775693Y-36168864D02*
X40728074Y-36121244D01*
%TO.C,U2*%
X25643287Y-48766218D02*
X25643287Y-49575741D01*
X25643287Y-49575741D02*
X25690906Y-49670979D01*
X25690906Y-49670979D02*
X25738525Y-49718599D01*
X25738525Y-49718599D02*
X25833763Y-49766218D01*
X25833763Y-49766218D02*
X26024239Y-49766218D01*
X26024239Y-49766218D02*
X26119477Y-49718599D01*
X26119477Y-49718599D02*
X26167096Y-49670979D01*
X26167096Y-49670979D02*
X26214715Y-49575741D01*
X26214715Y-49575741D02*
X26214715Y-48766218D01*
X26643287Y-48861456D02*
X26690906Y-48813837D01*
X26690906Y-48813837D02*
X26786144Y-48766218D01*
X26786144Y-48766218D02*
X27024239Y-48766218D01*
X27024239Y-48766218D02*
X27119477Y-48813837D01*
X27119477Y-48813837D02*
X27167096Y-48861456D01*
X27167096Y-48861456D02*
X27214715Y-48956694D01*
X27214715Y-48956694D02*
X27214715Y-49051932D01*
X27214715Y-49051932D02*
X27167096Y-49194789D01*
X27167096Y-49194789D02*
X26595668Y-49766218D01*
X26595668Y-49766218D02*
X27214715Y-49766218D01*
%TO.C,U1*%
X39392976Y-31567450D02*
X39392976Y-32376973D01*
X39392976Y-32376973D02*
X39440595Y-32472211D01*
X39440595Y-32472211D02*
X39488214Y-32519831D01*
X39488214Y-32519831D02*
X39583452Y-32567450D01*
X39583452Y-32567450D02*
X39773928Y-32567450D01*
X39773928Y-32567450D02*
X39869166Y-32519831D01*
X39869166Y-32519831D02*
X39916785Y-32472211D01*
X39916785Y-32472211D02*
X39964404Y-32376973D01*
X39964404Y-32376973D02*
X39964404Y-31567450D01*
X40964404Y-32567450D02*
X40392976Y-32567450D01*
X40678690Y-32567450D02*
X40678690Y-31567450D01*
X40678690Y-31567450D02*
X40583452Y-31710307D01*
X40583452Y-31710307D02*
X40488214Y-31805545D01*
X40488214Y-31805545D02*
X40392976Y-31853164D01*
%TO.C,R13*%
X53289110Y-47364875D02*
X52955777Y-46888684D01*
X52717682Y-47364875D02*
X52717682Y-46364875D01*
X52717682Y-46364875D02*
X53098634Y-46364875D01*
X53098634Y-46364875D02*
X53193872Y-46412494D01*
X53193872Y-46412494D02*
X53241491Y-46460113D01*
X53241491Y-46460113D02*
X53289110Y-46555351D01*
X53289110Y-46555351D02*
X53289110Y-46698208D01*
X53289110Y-46698208D02*
X53241491Y-46793446D01*
X53241491Y-46793446D02*
X53193872Y-46841065D01*
X53193872Y-46841065D02*
X53098634Y-46888684D01*
X53098634Y-46888684D02*
X52717682Y-46888684D01*
X54241491Y-47364875D02*
X53670063Y-47364875D01*
X53955777Y-47364875D02*
X53955777Y-46364875D01*
X53955777Y-46364875D02*
X53860539Y-46507732D01*
X53860539Y-46507732D02*
X53765301Y-46602970D01*
X53765301Y-46602970D02*
X53670063Y-46650589D01*
X54574825Y-46364875D02*
X55193872Y-46364875D01*
X55193872Y-46364875D02*
X54860539Y-46745827D01*
X54860539Y-46745827D02*
X55003396Y-46745827D01*
X55003396Y-46745827D02*
X55098634Y-46793446D01*
X55098634Y-46793446D02*
X55146253Y-46841065D01*
X55146253Y-46841065D02*
X55193872Y-46936303D01*
X55193872Y-46936303D02*
X55193872Y-47174398D01*
X55193872Y-47174398D02*
X55146253Y-47269636D01*
X55146253Y-47269636D02*
X55098634Y-47317256D01*
X55098634Y-47317256D02*
X55003396Y-47364875D01*
X55003396Y-47364875D02*
X54717682Y-47364875D01*
X54717682Y-47364875D02*
X54622444Y-47317256D01*
X54622444Y-47317256D02*
X54574825Y-47269636D01*
%TO.C,R12*%
X34581090Y-65690178D02*
X34247757Y-65213987D01*
X34009662Y-65690178D02*
X34009662Y-64690178D01*
X34009662Y-64690178D02*
X34390614Y-64690178D01*
X34390614Y-64690178D02*
X34485852Y-64737797D01*
X34485852Y-64737797D02*
X34533471Y-64785416D01*
X34533471Y-64785416D02*
X34581090Y-64880654D01*
X34581090Y-64880654D02*
X34581090Y-65023511D01*
X34581090Y-65023511D02*
X34533471Y-65118749D01*
X34533471Y-65118749D02*
X34485852Y-65166368D01*
X34485852Y-65166368D02*
X34390614Y-65213987D01*
X34390614Y-65213987D02*
X34009662Y-65213987D01*
X35533471Y-65690178D02*
X34962043Y-65690178D01*
X35247757Y-65690178D02*
X35247757Y-64690178D01*
X35247757Y-64690178D02*
X35152519Y-64833035D01*
X35152519Y-64833035D02*
X35057281Y-64928273D01*
X35057281Y-64928273D02*
X34962043Y-64975892D01*
X35914424Y-64785416D02*
X35962043Y-64737797D01*
X35962043Y-64737797D02*
X36057281Y-64690178D01*
X36057281Y-64690178D02*
X36295376Y-64690178D01*
X36295376Y-64690178D02*
X36390614Y-64737797D01*
X36390614Y-64737797D02*
X36438233Y-64785416D01*
X36438233Y-64785416D02*
X36485852Y-64880654D01*
X36485852Y-64880654D02*
X36485852Y-64975892D01*
X36485852Y-64975892D02*
X36438233Y-65118749D01*
X36438233Y-65118749D02*
X35866805Y-65690178D01*
X35866805Y-65690178D02*
X36485852Y-65690178D01*
%TO.C,R11*%
X34639791Y-63973157D02*
X34306458Y-63496966D01*
X34068363Y-63973157D02*
X34068363Y-62973157D01*
X34068363Y-62973157D02*
X34449315Y-62973157D01*
X34449315Y-62973157D02*
X34544553Y-63020776D01*
X34544553Y-63020776D02*
X34592172Y-63068395D01*
X34592172Y-63068395D02*
X34639791Y-63163633D01*
X34639791Y-63163633D02*
X34639791Y-63306490D01*
X34639791Y-63306490D02*
X34592172Y-63401728D01*
X34592172Y-63401728D02*
X34544553Y-63449347D01*
X34544553Y-63449347D02*
X34449315Y-63496966D01*
X34449315Y-63496966D02*
X34068363Y-63496966D01*
X35592172Y-63973157D02*
X35020744Y-63973157D01*
X35306458Y-63973157D02*
X35306458Y-62973157D01*
X35306458Y-62973157D02*
X35211220Y-63116014D01*
X35211220Y-63116014D02*
X35115982Y-63211252D01*
X35115982Y-63211252D02*
X35020744Y-63258871D01*
X36544553Y-63973157D02*
X35973125Y-63973157D01*
X36258839Y-63973157D02*
X36258839Y-62973157D01*
X36258839Y-62973157D02*
X36163601Y-63116014D01*
X36163601Y-63116014D02*
X36068363Y-63211252D01*
X36068363Y-63211252D02*
X35973125Y-63258871D01*
%TO.C,R10*%
X48487278Y-40574763D02*
X48011087Y-40908096D01*
X48487278Y-41146191D02*
X47487278Y-41146191D01*
X47487278Y-41146191D02*
X47487278Y-40765239D01*
X47487278Y-40765239D02*
X47534897Y-40670001D01*
X47534897Y-40670001D02*
X47582516Y-40622382D01*
X47582516Y-40622382D02*
X47677754Y-40574763D01*
X47677754Y-40574763D02*
X47820611Y-40574763D01*
X47820611Y-40574763D02*
X47915849Y-40622382D01*
X47915849Y-40622382D02*
X47963468Y-40670001D01*
X47963468Y-40670001D02*
X48011087Y-40765239D01*
X48011087Y-40765239D02*
X48011087Y-41146191D01*
X48487278Y-39622382D02*
X48487278Y-40193810D01*
X48487278Y-39908096D02*
X47487278Y-39908096D01*
X47487278Y-39908096D02*
X47630135Y-40003334D01*
X47630135Y-40003334D02*
X47725373Y-40098572D01*
X47725373Y-40098572D02*
X47772992Y-40193810D01*
X47487278Y-39003334D02*
X47487278Y-38908096D01*
X47487278Y-38908096D02*
X47534897Y-38812858D01*
X47534897Y-38812858D02*
X47582516Y-38765239D01*
X47582516Y-38765239D02*
X47677754Y-38717620D01*
X47677754Y-38717620D02*
X47868230Y-38670001D01*
X47868230Y-38670001D02*
X48106325Y-38670001D01*
X48106325Y-38670001D02*
X48296801Y-38717620D01*
X48296801Y-38717620D02*
X48392039Y-38765239D01*
X48392039Y-38765239D02*
X48439659Y-38812858D01*
X48439659Y-38812858D02*
X48487278Y-38908096D01*
X48487278Y-38908096D02*
X48487278Y-39003334D01*
X48487278Y-39003334D02*
X48439659Y-39098572D01*
X48439659Y-39098572D02*
X48392039Y-39146191D01*
X48392039Y-39146191D02*
X48296801Y-39193810D01*
X48296801Y-39193810D02*
X48106325Y-39241429D01*
X48106325Y-39241429D02*
X47868230Y-39241429D01*
X47868230Y-39241429D02*
X47677754Y-39193810D01*
X47677754Y-39193810D02*
X47582516Y-39146191D01*
X47582516Y-39146191D02*
X47534897Y-39098572D01*
X47534897Y-39098572D02*
X47487278Y-39003334D01*
%TO.C,R9*%
X38999636Y-41771567D02*
X38523445Y-42104900D01*
X38999636Y-42342995D02*
X37999636Y-42342995D01*
X37999636Y-42342995D02*
X37999636Y-41962043D01*
X37999636Y-41962043D02*
X38047255Y-41866805D01*
X38047255Y-41866805D02*
X38094874Y-41819186D01*
X38094874Y-41819186D02*
X38190112Y-41771567D01*
X38190112Y-41771567D02*
X38332969Y-41771567D01*
X38332969Y-41771567D02*
X38428207Y-41819186D01*
X38428207Y-41819186D02*
X38475826Y-41866805D01*
X38475826Y-41866805D02*
X38523445Y-41962043D01*
X38523445Y-41962043D02*
X38523445Y-42342995D01*
X38999636Y-41295376D02*
X38999636Y-41104900D01*
X38999636Y-41104900D02*
X38952017Y-41009662D01*
X38952017Y-41009662D02*
X38904397Y-40962043D01*
X38904397Y-40962043D02*
X38761540Y-40866805D01*
X38761540Y-40866805D02*
X38571064Y-40819186D01*
X38571064Y-40819186D02*
X38190112Y-40819186D01*
X38190112Y-40819186D02*
X38094874Y-40866805D01*
X38094874Y-40866805D02*
X38047255Y-40914424D01*
X38047255Y-40914424D02*
X37999636Y-41009662D01*
X37999636Y-41009662D02*
X37999636Y-41200138D01*
X37999636Y-41200138D02*
X38047255Y-41295376D01*
X38047255Y-41295376D02*
X38094874Y-41342995D01*
X38094874Y-41342995D02*
X38190112Y-41390614D01*
X38190112Y-41390614D02*
X38428207Y-41390614D01*
X38428207Y-41390614D02*
X38523445Y-41342995D01*
X38523445Y-41342995D02*
X38571064Y-41295376D01*
X38571064Y-41295376D02*
X38618683Y-41200138D01*
X38618683Y-41200138D02*
X38618683Y-41009662D01*
X38618683Y-41009662D02*
X38571064Y-40914424D01*
X38571064Y-40914424D02*
X38523445Y-40866805D01*
X38523445Y-40866805D02*
X38428207Y-40819186D01*
%TO.C,R8*%
X35785724Y-41727540D02*
X35309533Y-42060873D01*
X35785724Y-42298968D02*
X34785724Y-42298968D01*
X34785724Y-42298968D02*
X34785724Y-41918016D01*
X34785724Y-41918016D02*
X34833343Y-41822778D01*
X34833343Y-41822778D02*
X34880962Y-41775159D01*
X34880962Y-41775159D02*
X34976200Y-41727540D01*
X34976200Y-41727540D02*
X35119057Y-41727540D01*
X35119057Y-41727540D02*
X35214295Y-41775159D01*
X35214295Y-41775159D02*
X35261914Y-41822778D01*
X35261914Y-41822778D02*
X35309533Y-41918016D01*
X35309533Y-41918016D02*
X35309533Y-42298968D01*
X35214295Y-41156111D02*
X35166676Y-41251349D01*
X35166676Y-41251349D02*
X35119057Y-41298968D01*
X35119057Y-41298968D02*
X35023819Y-41346587D01*
X35023819Y-41346587D02*
X34976200Y-41346587D01*
X34976200Y-41346587D02*
X34880962Y-41298968D01*
X34880962Y-41298968D02*
X34833343Y-41251349D01*
X34833343Y-41251349D02*
X34785724Y-41156111D01*
X34785724Y-41156111D02*
X34785724Y-40965635D01*
X34785724Y-40965635D02*
X34833343Y-40870397D01*
X34833343Y-40870397D02*
X34880962Y-40822778D01*
X34880962Y-40822778D02*
X34976200Y-40775159D01*
X34976200Y-40775159D02*
X35023819Y-40775159D01*
X35023819Y-40775159D02*
X35119057Y-40822778D01*
X35119057Y-40822778D02*
X35166676Y-40870397D01*
X35166676Y-40870397D02*
X35214295Y-40965635D01*
X35214295Y-40965635D02*
X35214295Y-41156111D01*
X35214295Y-41156111D02*
X35261914Y-41251349D01*
X35261914Y-41251349D02*
X35309533Y-41298968D01*
X35309533Y-41298968D02*
X35404771Y-41346587D01*
X35404771Y-41346587D02*
X35595247Y-41346587D01*
X35595247Y-41346587D02*
X35690485Y-41298968D01*
X35690485Y-41298968D02*
X35738105Y-41251349D01*
X35738105Y-41251349D02*
X35785724Y-41156111D01*
X35785724Y-41156111D02*
X35785724Y-40965635D01*
X35785724Y-40965635D02*
X35738105Y-40870397D01*
X35738105Y-40870397D02*
X35690485Y-40822778D01*
X35690485Y-40822778D02*
X35595247Y-40775159D01*
X35595247Y-40775159D02*
X35404771Y-40775159D01*
X35404771Y-40775159D02*
X35309533Y-40822778D01*
X35309533Y-40822778D02*
X35261914Y-40870397D01*
X35261914Y-40870397D02*
X35214295Y-40965635D01*
%TO.C,R7*%
X37524758Y-41749554D02*
X37048567Y-42082887D01*
X37524758Y-42320982D02*
X36524758Y-42320982D01*
X36524758Y-42320982D02*
X36524758Y-41940030D01*
X36524758Y-41940030D02*
X36572377Y-41844792D01*
X36572377Y-41844792D02*
X36619996Y-41797173D01*
X36619996Y-41797173D02*
X36715234Y-41749554D01*
X36715234Y-41749554D02*
X36858091Y-41749554D01*
X36858091Y-41749554D02*
X36953329Y-41797173D01*
X36953329Y-41797173D02*
X37000948Y-41844792D01*
X37000948Y-41844792D02*
X37048567Y-41940030D01*
X37048567Y-41940030D02*
X37048567Y-42320982D01*
X36524758Y-41416220D02*
X36524758Y-40749554D01*
X36524758Y-40749554D02*
X37524758Y-41178125D01*
%TO.C,R6*%
X34244808Y-41705527D02*
X33768617Y-42038860D01*
X34244808Y-42276955D02*
X33244808Y-42276955D01*
X33244808Y-42276955D02*
X33244808Y-41896003D01*
X33244808Y-41896003D02*
X33292427Y-41800765D01*
X33292427Y-41800765D02*
X33340046Y-41753146D01*
X33340046Y-41753146D02*
X33435284Y-41705527D01*
X33435284Y-41705527D02*
X33578141Y-41705527D01*
X33578141Y-41705527D02*
X33673379Y-41753146D01*
X33673379Y-41753146D02*
X33720998Y-41800765D01*
X33720998Y-41800765D02*
X33768617Y-41896003D01*
X33768617Y-41896003D02*
X33768617Y-42276955D01*
X33244808Y-40848384D02*
X33244808Y-41038860D01*
X33244808Y-41038860D02*
X33292427Y-41134098D01*
X33292427Y-41134098D02*
X33340046Y-41181717D01*
X33340046Y-41181717D02*
X33482903Y-41276955D01*
X33482903Y-41276955D02*
X33673379Y-41324574D01*
X33673379Y-41324574D02*
X34054331Y-41324574D01*
X34054331Y-41324574D02*
X34149569Y-41276955D01*
X34149569Y-41276955D02*
X34197189Y-41229336D01*
X34197189Y-41229336D02*
X34244808Y-41134098D01*
X34244808Y-41134098D02*
X34244808Y-40943622D01*
X34244808Y-40943622D02*
X34197189Y-40848384D01*
X34197189Y-40848384D02*
X34149569Y-40800765D01*
X34149569Y-40800765D02*
X34054331Y-40753146D01*
X34054331Y-40753146D02*
X33816236Y-40753146D01*
X33816236Y-40753146D02*
X33720998Y-40800765D01*
X33720998Y-40800765D02*
X33673379Y-40848384D01*
X33673379Y-40848384D02*
X33625760Y-40943622D01*
X33625760Y-40943622D02*
X33625760Y-41134098D01*
X33625760Y-41134098D02*
X33673379Y-41229336D01*
X33673379Y-41229336D02*
X33720998Y-41276955D01*
X33720998Y-41276955D02*
X33816236Y-41324574D01*
%TO.C,R5*%
X27133060Y-41632150D02*
X26656869Y-41965483D01*
X27133060Y-42203578D02*
X26133060Y-42203578D01*
X26133060Y-42203578D02*
X26133060Y-41822626D01*
X26133060Y-41822626D02*
X26180679Y-41727388D01*
X26180679Y-41727388D02*
X26228298Y-41679769D01*
X26228298Y-41679769D02*
X26323536Y-41632150D01*
X26323536Y-41632150D02*
X26466393Y-41632150D01*
X26466393Y-41632150D02*
X26561631Y-41679769D01*
X26561631Y-41679769D02*
X26609250Y-41727388D01*
X26609250Y-41727388D02*
X26656869Y-41822626D01*
X26656869Y-41822626D02*
X26656869Y-42203578D01*
X26133060Y-40727388D02*
X26133060Y-41203578D01*
X26133060Y-41203578D02*
X26609250Y-41251197D01*
X26609250Y-41251197D02*
X26561631Y-41203578D01*
X26561631Y-41203578D02*
X26514012Y-41108340D01*
X26514012Y-41108340D02*
X26514012Y-40870245D01*
X26514012Y-40870245D02*
X26561631Y-40775007D01*
X26561631Y-40775007D02*
X26609250Y-40727388D01*
X26609250Y-40727388D02*
X26704488Y-40679769D01*
X26704488Y-40679769D02*
X26942583Y-40679769D01*
X26942583Y-40679769D02*
X27037821Y-40727388D01*
X27037821Y-40727388D02*
X27085441Y-40775007D01*
X27085441Y-40775007D02*
X27133060Y-40870245D01*
X27133060Y-40870245D02*
X27133060Y-41108340D01*
X27133060Y-41108340D02*
X27085441Y-41203578D01*
X27085441Y-41203578D02*
X27037821Y-41251197D01*
%TO.C,R4*%
X28527223Y-41632150D02*
X28051032Y-41965483D01*
X28527223Y-42203578D02*
X27527223Y-42203578D01*
X27527223Y-42203578D02*
X27527223Y-41822626D01*
X27527223Y-41822626D02*
X27574842Y-41727388D01*
X27574842Y-41727388D02*
X27622461Y-41679769D01*
X27622461Y-41679769D02*
X27717699Y-41632150D01*
X27717699Y-41632150D02*
X27860556Y-41632150D01*
X27860556Y-41632150D02*
X27955794Y-41679769D01*
X27955794Y-41679769D02*
X28003413Y-41727388D01*
X28003413Y-41727388D02*
X28051032Y-41822626D01*
X28051032Y-41822626D02*
X28051032Y-42203578D01*
X27860556Y-40775007D02*
X28527223Y-40775007D01*
X27479604Y-41013102D02*
X28193889Y-41251197D01*
X28193889Y-41251197D02*
X28193889Y-40632150D01*
%TO.C,R3*%
X48881503Y-31129261D02*
X48548170Y-30653070D01*
X48310075Y-31129261D02*
X48310075Y-30129261D01*
X48310075Y-30129261D02*
X48691027Y-30129261D01*
X48691027Y-30129261D02*
X48786265Y-30176880D01*
X48786265Y-30176880D02*
X48833884Y-30224499D01*
X48833884Y-30224499D02*
X48881503Y-30319737D01*
X48881503Y-30319737D02*
X48881503Y-30462594D01*
X48881503Y-30462594D02*
X48833884Y-30557832D01*
X48833884Y-30557832D02*
X48786265Y-30605451D01*
X48786265Y-30605451D02*
X48691027Y-30653070D01*
X48691027Y-30653070D02*
X48310075Y-30653070D01*
X49214837Y-30129261D02*
X49833884Y-30129261D01*
X49833884Y-30129261D02*
X49500551Y-30510213D01*
X49500551Y-30510213D02*
X49643408Y-30510213D01*
X49643408Y-30510213D02*
X49738646Y-30557832D01*
X49738646Y-30557832D02*
X49786265Y-30605451D01*
X49786265Y-30605451D02*
X49833884Y-30700689D01*
X49833884Y-30700689D02*
X49833884Y-30938784D01*
X49833884Y-30938784D02*
X49786265Y-31034022D01*
X49786265Y-31034022D02*
X49738646Y-31081642D01*
X49738646Y-31081642D02*
X49643408Y-31129261D01*
X49643408Y-31129261D02*
X49357694Y-31129261D01*
X49357694Y-31129261D02*
X49262456Y-31081642D01*
X49262456Y-31081642D02*
X49214837Y-31034022D01*
%TO.C,R2*%
X47870543Y-33403112D02*
X47394352Y-33736445D01*
X47870543Y-33974540D02*
X46870543Y-33974540D01*
X46870543Y-33974540D02*
X46870543Y-33593588D01*
X46870543Y-33593588D02*
X46918162Y-33498350D01*
X46918162Y-33498350D02*
X46965781Y-33450731D01*
X46965781Y-33450731D02*
X47061019Y-33403112D01*
X47061019Y-33403112D02*
X47203876Y-33403112D01*
X47203876Y-33403112D02*
X47299114Y-33450731D01*
X47299114Y-33450731D02*
X47346733Y-33498350D01*
X47346733Y-33498350D02*
X47394352Y-33593588D01*
X47394352Y-33593588D02*
X47394352Y-33974540D01*
X46965781Y-33022159D02*
X46918162Y-32974540D01*
X46918162Y-32974540D02*
X46870543Y-32879302D01*
X46870543Y-32879302D02*
X46870543Y-32641207D01*
X46870543Y-32641207D02*
X46918162Y-32545969D01*
X46918162Y-32545969D02*
X46965781Y-32498350D01*
X46965781Y-32498350D02*
X47061019Y-32450731D01*
X47061019Y-32450731D02*
X47156257Y-32450731D01*
X47156257Y-32450731D02*
X47299114Y-32498350D01*
X47299114Y-32498350D02*
X47870543Y-33069778D01*
X47870543Y-33069778D02*
X47870543Y-32450731D01*
%TO.C,D3*%
X49705503Y-47337019D02*
X49705503Y-46337019D01*
X49705503Y-46337019D02*
X49943598Y-46337019D01*
X49943598Y-46337019D02*
X50086455Y-46384638D01*
X50086455Y-46384638D02*
X50181693Y-46479876D01*
X50181693Y-46479876D02*
X50229312Y-46575114D01*
X50229312Y-46575114D02*
X50276931Y-46765590D01*
X50276931Y-46765590D02*
X50276931Y-46908447D01*
X50276931Y-46908447D02*
X50229312Y-47098923D01*
X50229312Y-47098923D02*
X50181693Y-47194161D01*
X50181693Y-47194161D02*
X50086455Y-47289400D01*
X50086455Y-47289400D02*
X49943598Y-47337019D01*
X49943598Y-47337019D02*
X49705503Y-47337019D01*
X50610265Y-46337019D02*
X51229312Y-46337019D01*
X51229312Y-46337019D02*
X50895979Y-46717971D01*
X50895979Y-46717971D02*
X51038836Y-46717971D01*
X51038836Y-46717971D02*
X51134074Y-46765590D01*
X51134074Y-46765590D02*
X51181693Y-46813209D01*
X51181693Y-46813209D02*
X51229312Y-46908447D01*
X51229312Y-46908447D02*
X51229312Y-47146542D01*
X51229312Y-47146542D02*
X51181693Y-47241780D01*
X51181693Y-47241780D02*
X51134074Y-47289400D01*
X51134074Y-47289400D02*
X51038836Y-47337019D01*
X51038836Y-47337019D02*
X50753122Y-47337019D01*
X50753122Y-47337019D02*
X50657884Y-47289400D01*
X50657884Y-47289400D02*
X50610265Y-47241780D01*
%TO.C,D2*%
X72038236Y-30895612D02*
X72038236Y-29895612D01*
X72038236Y-29895612D02*
X72276331Y-29895612D01*
X72276331Y-29895612D02*
X72419188Y-29943231D01*
X72419188Y-29943231D02*
X72514426Y-30038469D01*
X72514426Y-30038469D02*
X72562045Y-30133707D01*
X72562045Y-30133707D02*
X72609664Y-30324183D01*
X72609664Y-30324183D02*
X72609664Y-30467040D01*
X72609664Y-30467040D02*
X72562045Y-30657516D01*
X72562045Y-30657516D02*
X72514426Y-30752754D01*
X72514426Y-30752754D02*
X72419188Y-30847993D01*
X72419188Y-30847993D02*
X72276331Y-30895612D01*
X72276331Y-30895612D02*
X72038236Y-30895612D01*
X72990617Y-29990850D02*
X73038236Y-29943231D01*
X73038236Y-29943231D02*
X73133474Y-29895612D01*
X73133474Y-29895612D02*
X73371569Y-29895612D01*
X73371569Y-29895612D02*
X73466807Y-29943231D01*
X73466807Y-29943231D02*
X73514426Y-29990850D01*
X73514426Y-29990850D02*
X73562045Y-30086088D01*
X73562045Y-30086088D02*
X73562045Y-30181326D01*
X73562045Y-30181326D02*
X73514426Y-30324183D01*
X73514426Y-30324183D02*
X72942998Y-30895612D01*
X72942998Y-30895612D02*
X73562045Y-30895612D01*
%TO.C,D1*%
X71979535Y-36971225D02*
X71979535Y-35971225D01*
X71979535Y-35971225D02*
X72217630Y-35971225D01*
X72217630Y-35971225D02*
X72360487Y-36018844D01*
X72360487Y-36018844D02*
X72455725Y-36114082D01*
X72455725Y-36114082D02*
X72503344Y-36209320D01*
X72503344Y-36209320D02*
X72550963Y-36399796D01*
X72550963Y-36399796D02*
X72550963Y-36542653D01*
X72550963Y-36542653D02*
X72503344Y-36733129D01*
X72503344Y-36733129D02*
X72455725Y-36828367D01*
X72455725Y-36828367D02*
X72360487Y-36923606D01*
X72360487Y-36923606D02*
X72217630Y-36971225D01*
X72217630Y-36971225D02*
X71979535Y-36971225D01*
X73503344Y-36971225D02*
X72931916Y-36971225D01*
X73217630Y-36971225D02*
X73217630Y-35971225D01*
X73217630Y-35971225D02*
X73122392Y-36114082D01*
X73122392Y-36114082D02*
X73027154Y-36209320D01*
X73027154Y-36209320D02*
X72931916Y-36256939D01*
%TO.C,C14*%
X38558122Y-62072844D02*
X38510503Y-62120464D01*
X38510503Y-62120464D02*
X38367646Y-62168083D01*
X38367646Y-62168083D02*
X38272408Y-62168083D01*
X38272408Y-62168083D02*
X38129551Y-62120464D01*
X38129551Y-62120464D02*
X38034313Y-62025225D01*
X38034313Y-62025225D02*
X37986694Y-61929987D01*
X37986694Y-61929987D02*
X37939075Y-61739511D01*
X37939075Y-61739511D02*
X37939075Y-61596654D01*
X37939075Y-61596654D02*
X37986694Y-61406178D01*
X37986694Y-61406178D02*
X38034313Y-61310940D01*
X38034313Y-61310940D02*
X38129551Y-61215702D01*
X38129551Y-61215702D02*
X38272408Y-61168083D01*
X38272408Y-61168083D02*
X38367646Y-61168083D01*
X38367646Y-61168083D02*
X38510503Y-61215702D01*
X38510503Y-61215702D02*
X38558122Y-61263321D01*
X39510503Y-62168083D02*
X38939075Y-62168083D01*
X39224789Y-62168083D02*
X39224789Y-61168083D01*
X39224789Y-61168083D02*
X39129551Y-61310940D01*
X39129551Y-61310940D02*
X39034313Y-61406178D01*
X39034313Y-61406178D02*
X38939075Y-61453797D01*
X40367646Y-61501416D02*
X40367646Y-62168083D01*
X40129551Y-61120464D02*
X39891456Y-61834749D01*
X39891456Y-61834749D02*
X40510503Y-61834749D01*
%TO.C,C13*%
X38481275Y-46700766D02*
X38433656Y-46748386D01*
X38433656Y-46748386D02*
X38290799Y-46796005D01*
X38290799Y-46796005D02*
X38195561Y-46796005D01*
X38195561Y-46796005D02*
X38052704Y-46748386D01*
X38052704Y-46748386D02*
X37957466Y-46653147D01*
X37957466Y-46653147D02*
X37909847Y-46557909D01*
X37909847Y-46557909D02*
X37862228Y-46367433D01*
X37862228Y-46367433D02*
X37862228Y-46224576D01*
X37862228Y-46224576D02*
X37909847Y-46034100D01*
X37909847Y-46034100D02*
X37957466Y-45938862D01*
X37957466Y-45938862D02*
X38052704Y-45843624D01*
X38052704Y-45843624D02*
X38195561Y-45796005D01*
X38195561Y-45796005D02*
X38290799Y-45796005D01*
X38290799Y-45796005D02*
X38433656Y-45843624D01*
X38433656Y-45843624D02*
X38481275Y-45891243D01*
X39433656Y-46796005D02*
X38862228Y-46796005D01*
X39147942Y-46796005D02*
X39147942Y-45796005D01*
X39147942Y-45796005D02*
X39052704Y-45938862D01*
X39052704Y-45938862D02*
X38957466Y-46034100D01*
X38957466Y-46034100D02*
X38862228Y-46081719D01*
X39766990Y-45796005D02*
X40386037Y-45796005D01*
X40386037Y-45796005D02*
X40052704Y-46176957D01*
X40052704Y-46176957D02*
X40195561Y-46176957D01*
X40195561Y-46176957D02*
X40290799Y-46224576D01*
X40290799Y-46224576D02*
X40338418Y-46272195D01*
X40338418Y-46272195D02*
X40386037Y-46367433D01*
X40386037Y-46367433D02*
X40386037Y-46605528D01*
X40386037Y-46605528D02*
X40338418Y-46700766D01*
X40338418Y-46700766D02*
X40290799Y-46748386D01*
X40290799Y-46748386D02*
X40195561Y-46796005D01*
X40195561Y-46796005D02*
X39909847Y-46796005D01*
X39909847Y-46796005D02*
X39814609Y-46748386D01*
X39814609Y-46748386D02*
X39766990Y-46700766D01*
%TO.C,C12*%
X50087047Y-40618789D02*
X50134667Y-40666408D01*
X50134667Y-40666408D02*
X50182286Y-40809265D01*
X50182286Y-40809265D02*
X50182286Y-40904503D01*
X50182286Y-40904503D02*
X50134667Y-41047360D01*
X50134667Y-41047360D02*
X50039428Y-41142598D01*
X50039428Y-41142598D02*
X49944190Y-41190217D01*
X49944190Y-41190217D02*
X49753714Y-41237836D01*
X49753714Y-41237836D02*
X49610857Y-41237836D01*
X49610857Y-41237836D02*
X49420381Y-41190217D01*
X49420381Y-41190217D02*
X49325143Y-41142598D01*
X49325143Y-41142598D02*
X49229905Y-41047360D01*
X49229905Y-41047360D02*
X49182286Y-40904503D01*
X49182286Y-40904503D02*
X49182286Y-40809265D01*
X49182286Y-40809265D02*
X49229905Y-40666408D01*
X49229905Y-40666408D02*
X49277524Y-40618789D01*
X50182286Y-39666408D02*
X50182286Y-40237836D01*
X50182286Y-39952122D02*
X49182286Y-39952122D01*
X49182286Y-39952122D02*
X49325143Y-40047360D01*
X49325143Y-40047360D02*
X49420381Y-40142598D01*
X49420381Y-40142598D02*
X49468000Y-40237836D01*
X49277524Y-39285455D02*
X49229905Y-39237836D01*
X49229905Y-39237836D02*
X49182286Y-39142598D01*
X49182286Y-39142598D02*
X49182286Y-38904503D01*
X49182286Y-38904503D02*
X49229905Y-38809265D01*
X49229905Y-38809265D02*
X49277524Y-38761646D01*
X49277524Y-38761646D02*
X49372762Y-38714027D01*
X49372762Y-38714027D02*
X49468000Y-38714027D01*
X49468000Y-38714027D02*
X49610857Y-38761646D01*
X49610857Y-38761646D02*
X50182286Y-39333074D01*
X50182286Y-39333074D02*
X50182286Y-38714027D01*
%TO.C,C11*%
X41177746Y-66326487D02*
X41110402Y-66326487D01*
X41110402Y-66326487D02*
X40975715Y-66259143D01*
X40975715Y-66259143D02*
X40908372Y-66191800D01*
X40908372Y-66191800D02*
X40841028Y-66057113D01*
X40841028Y-66057113D02*
X40841028Y-65922426D01*
X40841028Y-65922426D02*
X40874700Y-65821411D01*
X40874700Y-65821411D02*
X40975715Y-65653052D01*
X40975715Y-65653052D02*
X41076730Y-65552037D01*
X41076730Y-65552037D02*
X41245089Y-65451021D01*
X41245089Y-65451021D02*
X41346104Y-65417350D01*
X41346104Y-65417350D02*
X41480791Y-65417350D01*
X41480791Y-65417350D02*
X41615478Y-65484693D01*
X41615478Y-65484693D02*
X41682822Y-65552037D01*
X41682822Y-65552037D02*
X41750165Y-65686724D01*
X41750165Y-65686724D02*
X41750165Y-65754067D01*
X41783837Y-67067265D02*
X41379776Y-66663204D01*
X41581807Y-66865235D02*
X42288913Y-66158128D01*
X42288913Y-66158128D02*
X42120555Y-66191800D01*
X42120555Y-66191800D02*
X41985868Y-66191800D01*
X41985868Y-66191800D02*
X41884852Y-66158128D01*
X42457272Y-67740701D02*
X42053211Y-67336640D01*
X42255242Y-67538670D02*
X42962349Y-66831563D01*
X42962349Y-66831563D02*
X42793990Y-66865235D01*
X42793990Y-66865235D02*
X42659303Y-66865235D01*
X42659303Y-66865235D02*
X42558288Y-66831563D01*
%TO.C,C10*%
X39273746Y-44602184D02*
X39226127Y-44649804D01*
X39226127Y-44649804D02*
X39083270Y-44697423D01*
X39083270Y-44697423D02*
X38988032Y-44697423D01*
X38988032Y-44697423D02*
X38845175Y-44649804D01*
X38845175Y-44649804D02*
X38749937Y-44554565D01*
X38749937Y-44554565D02*
X38702318Y-44459327D01*
X38702318Y-44459327D02*
X38654699Y-44268851D01*
X38654699Y-44268851D02*
X38654699Y-44125994D01*
X38654699Y-44125994D02*
X38702318Y-43935518D01*
X38702318Y-43935518D02*
X38749937Y-43840280D01*
X38749937Y-43840280D02*
X38845175Y-43745042D01*
X38845175Y-43745042D02*
X38988032Y-43697423D01*
X38988032Y-43697423D02*
X39083270Y-43697423D01*
X39083270Y-43697423D02*
X39226127Y-43745042D01*
X39226127Y-43745042D02*
X39273746Y-43792661D01*
X40226127Y-44697423D02*
X39654699Y-44697423D01*
X39940413Y-44697423D02*
X39940413Y-43697423D01*
X39940413Y-43697423D02*
X39845175Y-43840280D01*
X39845175Y-43840280D02*
X39749937Y-43935518D01*
X39749937Y-43935518D02*
X39654699Y-43983137D01*
X40845175Y-43697423D02*
X40940413Y-43697423D01*
X40940413Y-43697423D02*
X41035651Y-43745042D01*
X41035651Y-43745042D02*
X41083270Y-43792661D01*
X41083270Y-43792661D02*
X41130889Y-43887899D01*
X41130889Y-43887899D02*
X41178508Y-44078375D01*
X41178508Y-44078375D02*
X41178508Y-44316470D01*
X41178508Y-44316470D02*
X41130889Y-44506946D01*
X41130889Y-44506946D02*
X41083270Y-44602184D01*
X41083270Y-44602184D02*
X41035651Y-44649804D01*
X41035651Y-44649804D02*
X40940413Y-44697423D01*
X40940413Y-44697423D02*
X40845175Y-44697423D01*
X40845175Y-44697423D02*
X40749937Y-44649804D01*
X40749937Y-44649804D02*
X40702318Y-44602184D01*
X40702318Y-44602184D02*
X40654699Y-44506946D01*
X40654699Y-44506946D02*
X40607080Y-44316470D01*
X40607080Y-44316470D02*
X40607080Y-44078375D01*
X40607080Y-44078375D02*
X40654699Y-43887899D01*
X40654699Y-43887899D02*
X40702318Y-43792661D01*
X40702318Y-43792661D02*
X40749937Y-43745042D01*
X40749937Y-43745042D02*
X40845175Y-43697423D01*
%TO.C,C9*%
X26776888Y-64391556D02*
X26729269Y-64439176D01*
X26729269Y-64439176D02*
X26586412Y-64486795D01*
X26586412Y-64486795D02*
X26491174Y-64486795D01*
X26491174Y-64486795D02*
X26348317Y-64439176D01*
X26348317Y-64439176D02*
X26253079Y-64343937D01*
X26253079Y-64343937D02*
X26205460Y-64248699D01*
X26205460Y-64248699D02*
X26157841Y-64058223D01*
X26157841Y-64058223D02*
X26157841Y-63915366D01*
X26157841Y-63915366D02*
X26205460Y-63724890D01*
X26205460Y-63724890D02*
X26253079Y-63629652D01*
X26253079Y-63629652D02*
X26348317Y-63534414D01*
X26348317Y-63534414D02*
X26491174Y-63486795D01*
X26491174Y-63486795D02*
X26586412Y-63486795D01*
X26586412Y-63486795D02*
X26729269Y-63534414D01*
X26729269Y-63534414D02*
X26776888Y-63582033D01*
X27253079Y-64486795D02*
X27443555Y-64486795D01*
X27443555Y-64486795D02*
X27538793Y-64439176D01*
X27538793Y-64439176D02*
X27586412Y-64391556D01*
X27586412Y-64391556D02*
X27681650Y-64248699D01*
X27681650Y-64248699D02*
X27729269Y-64058223D01*
X27729269Y-64058223D02*
X27729269Y-63677271D01*
X27729269Y-63677271D02*
X27681650Y-63582033D01*
X27681650Y-63582033D02*
X27634031Y-63534414D01*
X27634031Y-63534414D02*
X27538793Y-63486795D01*
X27538793Y-63486795D02*
X27348317Y-63486795D01*
X27348317Y-63486795D02*
X27253079Y-63534414D01*
X27253079Y-63534414D02*
X27205460Y-63582033D01*
X27205460Y-63582033D02*
X27157841Y-63677271D01*
X27157841Y-63677271D02*
X27157841Y-63915366D01*
X27157841Y-63915366D02*
X27205460Y-64010604D01*
X27205460Y-64010604D02*
X27253079Y-64058223D01*
X27253079Y-64058223D02*
X27348317Y-64105842D01*
X27348317Y-64105842D02*
X27538793Y-64105842D01*
X27538793Y-64105842D02*
X27634031Y-64058223D01*
X27634031Y-64058223D02*
X27681650Y-64010604D01*
X27681650Y-64010604D02*
X27729269Y-63915366D01*
%TO.C,C8*%
X27701438Y-44631535D02*
X27653819Y-44679155D01*
X27653819Y-44679155D02*
X27510962Y-44726774D01*
X27510962Y-44726774D02*
X27415724Y-44726774D01*
X27415724Y-44726774D02*
X27272867Y-44679155D01*
X27272867Y-44679155D02*
X27177629Y-44583916D01*
X27177629Y-44583916D02*
X27130010Y-44488678D01*
X27130010Y-44488678D02*
X27082391Y-44298202D01*
X27082391Y-44298202D02*
X27082391Y-44155345D01*
X27082391Y-44155345D02*
X27130010Y-43964869D01*
X27130010Y-43964869D02*
X27177629Y-43869631D01*
X27177629Y-43869631D02*
X27272867Y-43774393D01*
X27272867Y-43774393D02*
X27415724Y-43726774D01*
X27415724Y-43726774D02*
X27510962Y-43726774D01*
X27510962Y-43726774D02*
X27653819Y-43774393D01*
X27653819Y-43774393D02*
X27701438Y-43822012D01*
X28272867Y-44155345D02*
X28177629Y-44107726D01*
X28177629Y-44107726D02*
X28130010Y-44060107D01*
X28130010Y-44060107D02*
X28082391Y-43964869D01*
X28082391Y-43964869D02*
X28082391Y-43917250D01*
X28082391Y-43917250D02*
X28130010Y-43822012D01*
X28130010Y-43822012D02*
X28177629Y-43774393D01*
X28177629Y-43774393D02*
X28272867Y-43726774D01*
X28272867Y-43726774D02*
X28463343Y-43726774D01*
X28463343Y-43726774D02*
X28558581Y-43774393D01*
X28558581Y-43774393D02*
X28606200Y-43822012D01*
X28606200Y-43822012D02*
X28653819Y-43917250D01*
X28653819Y-43917250D02*
X28653819Y-43964869D01*
X28653819Y-43964869D02*
X28606200Y-44060107D01*
X28606200Y-44060107D02*
X28558581Y-44107726D01*
X28558581Y-44107726D02*
X28463343Y-44155345D01*
X28463343Y-44155345D02*
X28272867Y-44155345D01*
X28272867Y-44155345D02*
X28177629Y-44202964D01*
X28177629Y-44202964D02*
X28130010Y-44250583D01*
X28130010Y-44250583D02*
X28082391Y-44345821D01*
X28082391Y-44345821D02*
X28082391Y-44536297D01*
X28082391Y-44536297D02*
X28130010Y-44631535D01*
X28130010Y-44631535D02*
X28177629Y-44679155D01*
X28177629Y-44679155D02*
X28272867Y-44726774D01*
X28272867Y-44726774D02*
X28463343Y-44726774D01*
X28463343Y-44726774D02*
X28558581Y-44679155D01*
X28558581Y-44679155D02*
X28606200Y-44631535D01*
X28606200Y-44631535D02*
X28653819Y-44536297D01*
X28653819Y-44536297D02*
X28653819Y-44345821D01*
X28653819Y-44345821D02*
X28606200Y-44250583D01*
X28606200Y-44250583D02*
X28558581Y-44202964D01*
X28558581Y-44202964D02*
X28463343Y-44155345D01*
%TO.C,C7*%
X37975617Y-32279297D02*
X38023237Y-32326916D01*
X38023237Y-32326916D02*
X38070856Y-32469773D01*
X38070856Y-32469773D02*
X38070856Y-32565011D01*
X38070856Y-32565011D02*
X38023237Y-32707868D01*
X38023237Y-32707868D02*
X37927998Y-32803106D01*
X37927998Y-32803106D02*
X37832760Y-32850725D01*
X37832760Y-32850725D02*
X37642284Y-32898344D01*
X37642284Y-32898344D02*
X37499427Y-32898344D01*
X37499427Y-32898344D02*
X37308951Y-32850725D01*
X37308951Y-32850725D02*
X37213713Y-32803106D01*
X37213713Y-32803106D02*
X37118475Y-32707868D01*
X37118475Y-32707868D02*
X37070856Y-32565011D01*
X37070856Y-32565011D02*
X37070856Y-32469773D01*
X37070856Y-32469773D02*
X37118475Y-32326916D01*
X37118475Y-32326916D02*
X37166094Y-32279297D01*
X37070856Y-31945963D02*
X37070856Y-31279297D01*
X37070856Y-31279297D02*
X38070856Y-31707868D01*
%TO.C,C6*%
X48910854Y-28847389D02*
X48863235Y-28895009D01*
X48863235Y-28895009D02*
X48720378Y-28942628D01*
X48720378Y-28942628D02*
X48625140Y-28942628D01*
X48625140Y-28942628D02*
X48482283Y-28895009D01*
X48482283Y-28895009D02*
X48387045Y-28799770D01*
X48387045Y-28799770D02*
X48339426Y-28704532D01*
X48339426Y-28704532D02*
X48291807Y-28514056D01*
X48291807Y-28514056D02*
X48291807Y-28371199D01*
X48291807Y-28371199D02*
X48339426Y-28180723D01*
X48339426Y-28180723D02*
X48387045Y-28085485D01*
X48387045Y-28085485D02*
X48482283Y-27990247D01*
X48482283Y-27990247D02*
X48625140Y-27942628D01*
X48625140Y-27942628D02*
X48720378Y-27942628D01*
X48720378Y-27942628D02*
X48863235Y-27990247D01*
X48863235Y-27990247D02*
X48910854Y-28037866D01*
X49767997Y-27942628D02*
X49577521Y-27942628D01*
X49577521Y-27942628D02*
X49482283Y-27990247D01*
X49482283Y-27990247D02*
X49434664Y-28037866D01*
X49434664Y-28037866D02*
X49339426Y-28180723D01*
X49339426Y-28180723D02*
X49291807Y-28371199D01*
X49291807Y-28371199D02*
X49291807Y-28752151D01*
X49291807Y-28752151D02*
X49339426Y-28847389D01*
X49339426Y-28847389D02*
X49387045Y-28895009D01*
X49387045Y-28895009D02*
X49482283Y-28942628D01*
X49482283Y-28942628D02*
X49672759Y-28942628D01*
X49672759Y-28942628D02*
X49767997Y-28895009D01*
X49767997Y-28895009D02*
X49815616Y-28847389D01*
X49815616Y-28847389D02*
X49863235Y-28752151D01*
X49863235Y-28752151D02*
X49863235Y-28514056D01*
X49863235Y-28514056D02*
X49815616Y-28418818D01*
X49815616Y-28418818D02*
X49767997Y-28371199D01*
X49767997Y-28371199D02*
X49672759Y-28323580D01*
X49672759Y-28323580D02*
X49482283Y-28323580D01*
X49482283Y-28323580D02*
X49387045Y-28371199D01*
X49387045Y-28371199D02*
X49339426Y-28418818D01*
X49339426Y-28418818D02*
X49291807Y-28514056D01*
%TO.C,C5*%
X47687620Y-44699308D02*
X47735240Y-44746927D01*
X47735240Y-44746927D02*
X47782859Y-44889784D01*
X47782859Y-44889784D02*
X47782859Y-44985022D01*
X47782859Y-44985022D02*
X47735240Y-45127879D01*
X47735240Y-45127879D02*
X47640001Y-45223117D01*
X47640001Y-45223117D02*
X47544763Y-45270736D01*
X47544763Y-45270736D02*
X47354287Y-45318355D01*
X47354287Y-45318355D02*
X47211430Y-45318355D01*
X47211430Y-45318355D02*
X47020954Y-45270736D01*
X47020954Y-45270736D02*
X46925716Y-45223117D01*
X46925716Y-45223117D02*
X46830478Y-45127879D01*
X46830478Y-45127879D02*
X46782859Y-44985022D01*
X46782859Y-44985022D02*
X46782859Y-44889784D01*
X46782859Y-44889784D02*
X46830478Y-44746927D01*
X46830478Y-44746927D02*
X46878097Y-44699308D01*
X46782859Y-43794546D02*
X46782859Y-44270736D01*
X46782859Y-44270736D02*
X47259049Y-44318355D01*
X47259049Y-44318355D02*
X47211430Y-44270736D01*
X47211430Y-44270736D02*
X47163811Y-44175498D01*
X47163811Y-44175498D02*
X47163811Y-43937403D01*
X47163811Y-43937403D02*
X47211430Y-43842165D01*
X47211430Y-43842165D02*
X47259049Y-43794546D01*
X47259049Y-43794546D02*
X47354287Y-43746927D01*
X47354287Y-43746927D02*
X47592382Y-43746927D01*
X47592382Y-43746927D02*
X47687620Y-43794546D01*
X47687620Y-43794546D02*
X47735240Y-43842165D01*
X47735240Y-43842165D02*
X47782859Y-43937403D01*
X47782859Y-43937403D02*
X47782859Y-44175498D01*
X47782859Y-44175498D02*
X47735240Y-44270736D01*
X47735240Y-44270736D02*
X47687620Y-44318355D01*
%TO.C,C4*%
X66244657Y-40670912D02*
X66292277Y-40718531D01*
X66292277Y-40718531D02*
X66339896Y-40861388D01*
X66339896Y-40861388D02*
X66339896Y-40956626D01*
X66339896Y-40956626D02*
X66292277Y-41099483D01*
X66292277Y-41099483D02*
X66197038Y-41194721D01*
X66197038Y-41194721D02*
X66101800Y-41242340D01*
X66101800Y-41242340D02*
X65911324Y-41289959D01*
X65911324Y-41289959D02*
X65768467Y-41289959D01*
X65768467Y-41289959D02*
X65577991Y-41242340D01*
X65577991Y-41242340D02*
X65482753Y-41194721D01*
X65482753Y-41194721D02*
X65387515Y-41099483D01*
X65387515Y-41099483D02*
X65339896Y-40956626D01*
X65339896Y-40956626D02*
X65339896Y-40861388D01*
X65339896Y-40861388D02*
X65387515Y-40718531D01*
X65387515Y-40718531D02*
X65435134Y-40670912D01*
X65673229Y-39813769D02*
X66339896Y-39813769D01*
X65292277Y-40051864D02*
X66006562Y-40289959D01*
X66006562Y-40289959D02*
X66006562Y-39670912D01*
%TO.C,C3*%
X72531907Y-65591648D02*
X72579527Y-65639267D01*
X72579527Y-65639267D02*
X72627146Y-65782124D01*
X72627146Y-65782124D02*
X72627146Y-65877362D01*
X72627146Y-65877362D02*
X72579527Y-66020219D01*
X72579527Y-66020219D02*
X72484288Y-66115457D01*
X72484288Y-66115457D02*
X72389050Y-66163076D01*
X72389050Y-66163076D02*
X72198574Y-66210695D01*
X72198574Y-66210695D02*
X72055717Y-66210695D01*
X72055717Y-66210695D02*
X71865241Y-66163076D01*
X71865241Y-66163076D02*
X71770003Y-66115457D01*
X71770003Y-66115457D02*
X71674765Y-66020219D01*
X71674765Y-66020219D02*
X71627146Y-65877362D01*
X71627146Y-65877362D02*
X71627146Y-65782124D01*
X71627146Y-65782124D02*
X71674765Y-65639267D01*
X71674765Y-65639267D02*
X71722384Y-65591648D01*
X71627146Y-65258314D02*
X71627146Y-64639267D01*
X71627146Y-64639267D02*
X72008098Y-64972600D01*
X72008098Y-64972600D02*
X72008098Y-64829743D01*
X72008098Y-64829743D02*
X72055717Y-64734505D01*
X72055717Y-64734505D02*
X72103336Y-64686886D01*
X72103336Y-64686886D02*
X72198574Y-64639267D01*
X72198574Y-64639267D02*
X72436669Y-64639267D01*
X72436669Y-64639267D02*
X72531907Y-64686886D01*
X72531907Y-64686886D02*
X72579527Y-64734505D01*
X72579527Y-64734505D02*
X72627146Y-64829743D01*
X72627146Y-64829743D02*
X72627146Y-65115457D01*
X72627146Y-65115457D02*
X72579527Y-65210695D01*
X72579527Y-65210695D02*
X72531907Y-65258314D01*
%TO.C,C2*%
X26732862Y-62381027D02*
X26685243Y-62428647D01*
X26685243Y-62428647D02*
X26542386Y-62476266D01*
X26542386Y-62476266D02*
X26447148Y-62476266D01*
X26447148Y-62476266D02*
X26304291Y-62428647D01*
X26304291Y-62428647D02*
X26209053Y-62333408D01*
X26209053Y-62333408D02*
X26161434Y-62238170D01*
X26161434Y-62238170D02*
X26113815Y-62047694D01*
X26113815Y-62047694D02*
X26113815Y-61904837D01*
X26113815Y-61904837D02*
X26161434Y-61714361D01*
X26161434Y-61714361D02*
X26209053Y-61619123D01*
X26209053Y-61619123D02*
X26304291Y-61523885D01*
X26304291Y-61523885D02*
X26447148Y-61476266D01*
X26447148Y-61476266D02*
X26542386Y-61476266D01*
X26542386Y-61476266D02*
X26685243Y-61523885D01*
X26685243Y-61523885D02*
X26732862Y-61571504D01*
X27113815Y-61571504D02*
X27161434Y-61523885D01*
X27161434Y-61523885D02*
X27256672Y-61476266D01*
X27256672Y-61476266D02*
X27494767Y-61476266D01*
X27494767Y-61476266D02*
X27590005Y-61523885D01*
X27590005Y-61523885D02*
X27637624Y-61571504D01*
X27637624Y-61571504D02*
X27685243Y-61666742D01*
X27685243Y-61666742D02*
X27685243Y-61761980D01*
X27685243Y-61761980D02*
X27637624Y-61904837D01*
X27637624Y-61904837D02*
X27066196Y-62476266D01*
X27066196Y-62476266D02*
X27685243Y-62476266D01*
%TO.C,C1*%
X26967668Y-46671415D02*
X26920049Y-46719035D01*
X26920049Y-46719035D02*
X26777192Y-46766654D01*
X26777192Y-46766654D02*
X26681954Y-46766654D01*
X26681954Y-46766654D02*
X26539097Y-46719035D01*
X26539097Y-46719035D02*
X26443859Y-46623796D01*
X26443859Y-46623796D02*
X26396240Y-46528558D01*
X26396240Y-46528558D02*
X26348621Y-46338082D01*
X26348621Y-46338082D02*
X26348621Y-46195225D01*
X26348621Y-46195225D02*
X26396240Y-46004749D01*
X26396240Y-46004749D02*
X26443859Y-45909511D01*
X26443859Y-45909511D02*
X26539097Y-45814273D01*
X26539097Y-45814273D02*
X26681954Y-45766654D01*
X26681954Y-45766654D02*
X26777192Y-45766654D01*
X26777192Y-45766654D02*
X26920049Y-45814273D01*
X26920049Y-45814273D02*
X26967668Y-45861892D01*
X27920049Y-46766654D02*
X27348621Y-46766654D01*
X27634335Y-46766654D02*
X27634335Y-45766654D01*
X27634335Y-45766654D02*
X27539097Y-45909511D01*
X27539097Y-45909511D02*
X27443859Y-46004749D01*
X27443859Y-46004749D02*
X27348621Y-46052368D01*
D13*
%TO.C,J1*%
X26903975Y-69341322D02*
X39663975Y-69341322D01*
X25633975Y-69341322D02*
X24303975Y-69341322D01*
X24303975Y-69341322D02*
X24303975Y-68011322D01*
X26903975Y-69341322D02*
X26903975Y-66681322D01*
X39663975Y-69341322D02*
X39663975Y-66681322D01*
X26903975Y-66681322D02*
X39663975Y-66681322D01*
%TO.C,U7*%
X68625489Y-64808813D02*
X68625489Y-70818813D01*
X61805489Y-67058813D02*
X61805489Y-70818813D01*
X61805489Y-70818813D02*
X63065489Y-70818813D01*
X68625489Y-70818813D02*
X67365489Y-70818813D01*
%TO.C,C18*%
X58474398Y-46381748D02*
X58474398Y-47804252D01*
X60294398Y-46381748D02*
X60294398Y-47804252D01*
%TO.C,J2*%
X48418198Y-58420500D02*
X60038198Y-58420500D01*
X48418198Y-73040500D02*
X48418198Y-58420500D01*
X49028198Y-73040500D02*
X49278198Y-71540500D01*
X49278198Y-71540500D02*
X52778198Y-71540500D01*
X50528198Y-57620500D02*
X50828198Y-58220500D01*
X50528198Y-57620500D02*
X51128198Y-57620500D01*
X51128198Y-57620500D02*
X50828198Y-58220500D01*
X53028198Y-73040500D02*
X52778198Y-71540500D01*
X54028198Y-73040500D02*
X54278198Y-71540500D01*
X54278198Y-71540500D02*
X57778198Y-71540500D01*
X58028198Y-73040500D02*
X57778198Y-71540500D01*
X60038198Y-58420500D02*
X60038198Y-73040500D01*
X60038198Y-73040500D02*
X48418198Y-73040500D01*
%TO.C,C17*%
X61186168Y-46376918D02*
X61186168Y-47799422D01*
X63006168Y-46376918D02*
X63006168Y-47799422D01*
%TO.C,C16*%
X63357327Y-62185706D02*
X63357327Y-60763202D01*
X61537327Y-62185706D02*
X61537327Y-60763202D01*
%TO.C,C15*%
X58423598Y-41987652D02*
X58423598Y-40565148D01*
X60243598Y-41987652D02*
X60243598Y-40565148D01*
%TO.C,R14*%
X72887085Y-67891382D02*
X72887085Y-68400830D01*
X71842085Y-67891382D02*
X71842085Y-68400830D01*
%TO.C,D4*%
X71593661Y-70075843D02*
X69133661Y-70075843D01*
X69133661Y-71545843D02*
X71593661Y-71545843D01*
X69133661Y-70075843D02*
X69133661Y-71545843D01*
%TO.C,U6*%
X46113403Y-58039600D02*
X45543403Y-58039600D01*
X40043403Y-50319600D02*
X40613403Y-50319600D01*
X46113403Y-50319600D02*
X45543403Y-50319600D01*
X40043403Y-54179600D02*
X40043403Y-58039600D01*
X46113403Y-54179600D02*
X46113403Y-58039600D01*
X40043403Y-54179600D02*
X40043403Y-50319600D01*
X46113403Y-54179600D02*
X46113403Y-50319600D01*
X40043403Y-58039600D02*
X40613403Y-58039600D01*
X40613403Y-58039600D02*
X40613403Y-60404600D01*
%TO.C,U5*%
X60968119Y-30742590D02*
X60968119Y-31842590D01*
X61658119Y-30742590D02*
X60968119Y-30742590D01*
X61658119Y-29242590D02*
X61658119Y-30742590D01*
X51948119Y-30742590D02*
X51948119Y-35867590D01*
X51258119Y-30742590D02*
X51948119Y-30742590D01*
X51258119Y-29242590D02*
X51258119Y-30742590D01*
%TO.C,U4*%
X50919798Y-39925200D02*
X52179798Y-39925200D01*
X57739798Y-39925200D02*
X56479798Y-39925200D01*
X57739798Y-43685200D02*
X57739798Y-39925200D01*
X50919798Y-45935200D02*
X50919798Y-39925200D01*
%TO.C,U3*%
X41777220Y-35761664D02*
X41777220Y-33811664D01*
X46897220Y-35761664D02*
X46897220Y-32311664D01*
X41777220Y-35761664D02*
X41777220Y-37711664D01*
X46897220Y-35761664D02*
X46897220Y-37711664D01*
%TO.C,U2*%
X27596598Y-50345000D02*
X28166598Y-50345000D01*
X33666598Y-58065000D02*
X33096598Y-58065000D01*
X27596598Y-58065000D02*
X28166598Y-58065000D01*
X33666598Y-54205000D02*
X33666598Y-50345000D01*
X27596598Y-54205000D02*
X27596598Y-50345000D01*
X33666598Y-54205000D02*
X33666598Y-58065000D01*
X27596598Y-54205000D02*
X27596598Y-58065000D01*
X33666598Y-50345000D02*
X33096598Y-50345000D01*
X33096598Y-50345000D02*
X33096598Y-47980000D01*
%TO.C,U1*%
X42552121Y-27917356D02*
X40752121Y-27917356D01*
X40752121Y-31137356D02*
X43202121Y-31137356D01*
%TO.C,R13*%
X54254322Y-48834700D02*
X53744874Y-48834700D01*
X54254322Y-47789700D02*
X53744874Y-47789700D01*
%TO.C,R12*%
X38123874Y-64680700D02*
X38633322Y-64680700D01*
X38123874Y-65725700D02*
X38633322Y-65725700D01*
%TO.C,R11*%
X38149274Y-62928100D02*
X38658722Y-62928100D01*
X38149274Y-63973100D02*
X38658722Y-63973100D01*
%TO.C,R10*%
X48558540Y-36667907D02*
X48558540Y-37177355D01*
X47513540Y-36667907D02*
X47513540Y-37177355D01*
%TO.C,R9*%
X46470298Y-41326476D02*
X46470298Y-41835924D01*
X45425298Y-41326476D02*
X45425298Y-41835924D01*
%TO.C,R8*%
X40882298Y-41326476D02*
X40882298Y-41835924D01*
X39837298Y-41326476D02*
X39837298Y-41835924D01*
%TO.C,R7*%
X43545698Y-41835019D02*
X43545698Y-41325571D01*
X44590698Y-41835019D02*
X44590698Y-41325571D01*
%TO.C,R6*%
X41691498Y-41835924D02*
X41691498Y-41326476D01*
X42736498Y-41835924D02*
X42736498Y-41326476D01*
%TO.C,R5*%
X30239698Y-41224876D02*
X30239698Y-41734324D01*
X29194698Y-41224876D02*
X29194698Y-41734324D01*
%TO.C,R4*%
X32119298Y-41224876D02*
X32119298Y-41734324D01*
X31074298Y-41224876D02*
X31074298Y-41734324D01*
%TO.C,R3*%
X46150274Y-31105500D02*
X46659722Y-31105500D01*
X46150274Y-30060500D02*
X46659722Y-30060500D01*
%TO.C,R2*%
X49368224Y-33491170D02*
X49368224Y-32981722D01*
X48323224Y-33491170D02*
X48323224Y-32981722D01*
%TO.C,PS1*%
X73774798Y-41900000D02*
X64354798Y-41900000D01*
X74074798Y-64270000D02*
X74074798Y-63020000D01*
X72824798Y-64270000D02*
X74074798Y-64270000D01*
X64354798Y-41900000D02*
X64354798Y-63970000D01*
X73774798Y-63970000D02*
X73774798Y-41900000D01*
X64354798Y-63970000D02*
X73774798Y-63970000D01*
%TO.C,F1*%
X29787556Y-30078628D02*
X29787556Y-36178628D01*
X26567556Y-30078628D02*
X26567556Y-36178628D01*
%TO.C,D3*%
X51243598Y-47577200D02*
X48783598Y-47577200D01*
X48783598Y-49047200D02*
X51243598Y-49047200D01*
X48783598Y-47577200D02*
X48783598Y-49047200D01*
%TO.C,D2*%
X71591641Y-28267302D02*
X66781641Y-28267302D01*
X71591641Y-28267302D02*
X71591641Y-32517302D01*
X66781641Y-32517302D02*
X71591641Y-32517302D01*
%TO.C,D1*%
X71591641Y-34229960D02*
X66781641Y-34229960D01*
X71591641Y-34229960D02*
X71591641Y-38479960D01*
X66781641Y-38479960D02*
X71591641Y-38479960D01*
%TO.C,C14*%
X42493346Y-62963600D02*
X43915850Y-62963600D01*
X42493346Y-61143600D02*
X43915850Y-61143600D01*
%TO.C,C13*%
X42391746Y-47215600D02*
X43814250Y-47215600D01*
X42391746Y-45395600D02*
X43814250Y-45395600D01*
%TO.C,C12*%
X50295515Y-36776364D02*
X50295515Y-37068898D01*
X49275515Y-36776364D02*
X49275515Y-37068898D01*
%TO.C,C11*%
X42826796Y-64561349D02*
X43033649Y-64768202D01*
X42105547Y-65282598D02*
X42312400Y-65489451D01*
%TO.C,C10*%
X42982131Y-44732800D02*
X43274665Y-44732800D01*
X42982131Y-43712800D02*
X43274665Y-43712800D01*
%TO.C,C9*%
X30676265Y-64544800D02*
X30383731Y-64544800D01*
X30676265Y-63524800D02*
X30383731Y-63524800D01*
%TO.C,C8*%
X30777865Y-44732800D02*
X30485331Y-44732800D01*
X30777865Y-43712800D02*
X30485331Y-43712800D01*
%TO.C,C7*%
X38138328Y-29369426D02*
X38138328Y-29661960D01*
X37118328Y-29369426D02*
X37118328Y-29661960D01*
%TO.C,C6*%
X46233331Y-28959400D02*
X46525865Y-28959400D01*
X46233331Y-27939400D02*
X46525865Y-27939400D01*
%TO.C,C5*%
X50312198Y-43054348D02*
X50312198Y-44476852D01*
X48492198Y-43054348D02*
X48492198Y-44476852D01*
%TO.C,C4*%
X62971018Y-41991626D02*
X62971018Y-40569122D01*
X61151018Y-41991626D02*
X61151018Y-40569122D01*
%TO.C,C3*%
X71158512Y-68057565D02*
X71158512Y-66635061D01*
X69338512Y-68057565D02*
X69338512Y-66635061D01*
%TO.C,C2*%
X31292050Y-61092800D02*
X29869546Y-61092800D01*
X31292050Y-62912800D02*
X29869546Y-62912800D01*
%TO.C,C1*%
X31342850Y-45370200D02*
X29920346Y-45370200D01*
X31342850Y-47190200D02*
X29920346Y-47190200D01*
%TD*%
M02*
