M48
; DRILL file {KiCad 7.0.5} date Mon Apr 14 03:26:49 2025
; FORMAT={-:-/ absolute / inch / decimal}
; #@! TF.CreationDate,2025-04-14T03:26:49-04:00
; #@! TF.GenerationSoftware,Kicad,Pcbnew,7.0.5
; #@! TF.FileFunction,Plated,1,2,PTH
FMAT,2
INCH
; #@! TA.AperFunction,Plated,PTH,ViaDrill
T1C0.0157
; #@! TA.AperFunction,Plated,PTH,ComponentDrill
T2C0.0335
; #@! TA.AperFunction,Plated,PTH,ComponentDrill
T3C0.0394
; #@! TA.AperFunction,Plated,PTH,ComponentDrill
T4C0.0433
; #@! TA.AperFunction,Plated,PTH,ViaDrill
T5C0.1969
%
G90
G05
T1
X0.896Y-1.7181
X0.896Y-1.8181
X0.896Y-2.4181
X0.896Y-2.5181
X0.996Y-1.7181
X0.996Y-1.8181
X0.996Y-2.4181
X0.996Y-2.5181
X1.096Y-2.8181
X1.196Y-2.8181
X1.296Y-2.8181
X1.396Y-1.7181
X1.396Y-2.8181
X1.496Y-1.6181
X1.496Y-1.7181
X1.496Y-2.8181
X1.596Y-1.5181
X1.596Y-2.8181
X1.696Y-2.7181
X1.696Y-2.8181
X1.796Y-1.7181
X1.796Y-1.8181
X1.796Y-2.6181
X1.796Y-2.7181
X1.796Y-2.8181
X1.896Y-1.5581
X1.896Y-1.8181
X1.896Y-2.5181
X1.896Y-2.6181
X1.896Y-2.7181
X1.896Y-2.8181
X1.959Y-1.5581
X1.996Y-1.3181
X1.996Y-1.5181
X1.996Y-2.5181
X1.996Y-2.6181
X2.096Y-2.5181
X2.096Y-2.6181
X2.096Y-2.7181
X2.096Y-2.8181
X2.196Y-1.4181
X2.238Y-1.8661
X2.296Y-1.4181
X2.296Y-1.5181
X2.296Y-1.6181
X2.296Y-2.6181
X2.296Y-2.7181
X2.391Y-1.8581
X2.396Y-1.4181
X2.396Y-1.5181
X2.396Y-1.6181
X2.396Y-2.6181
X2.396Y-2.7181
X2.496Y-1.2181
X2.496Y-1.3181
X2.496Y-1.4181
X2.496Y-1.5181
X2.496Y-1.6181
X2.796Y-1.7181
X2.796Y-1.8181
X2.796Y-2.4181
X2.796Y-2.5181
X2.896Y-1.7181
X2.896Y-1.8181
X2.896Y-2.4181
X2.896Y-2.5181
T2
X2.664Y-1.7341
X2.664Y-1.8341
X2.664Y-1.9341
X2.664Y-2.0341
X2.664Y-2.2341
X2.664Y-2.3341
X2.664Y-2.4341
T3
X1.0092Y-2.6776
X1.1092Y-2.6776
X1.2092Y-2.6776
X1.3092Y-2.6776
X1.4092Y-2.6776
X1.5092Y-2.6776
T4
X2.0011Y-2.404
X2.0011Y-2.7268
X2.198Y-2.404
X2.198Y-2.7268
T5
X1.1Y-0.9
X2.7Y-0.9
T0
M30
