%TF.GenerationSoftware,KiCad,Pcbnew,7.0.5*%
%TF.CreationDate,2025-04-14T03:26:47-04:00*%
%TF.ProjectId,okay_this_one_is_not_work,6f6b6179-5f74-4686-9973-5f6f6e655f69,rev?*%
%TF.SameCoordinates,Original*%
%TF.FileFunction,Copper,L2,Bot*%
%TF.FilePolarity,Positive*%
%FSLAX46Y46*%
G04 Gerber Fmt 4.6, Leading zero omitted, Abs format (unit mm)*
G04 Created by KiCad (PCBNEW 7.0.5) date 2025-04-14 03:26:47*
%MOMM*%
%LPD*%
G01*
G04 APERTURE LIST*
G04 Aperture macros list*
%AMRoundRect*
0 Rectangle with rounded corners*
0 $1 Rounding radius*
0 $2 $3 $4 $5 $6 $7 $8 $9 X,Y pos of 4 corners*
0 Add a 4 corners polygon primitive as box body*
4,1,4,$2,$3,$4,$5,$6,$7,$8,$9,$2,$3,0*
0 Add four circle primitives for the rounded corners*
1,1,$1+$1,$2,$3*
1,1,$1+$1,$4,$5*
1,1,$1+$1,$6,$7*
1,1,$1+$1,$8,$9*
0 Add four rect primitives between the rounded corners*
20,1,$1+$1,$2,$3,$4,$5,0*
20,1,$1+$1,$4,$5,$6,$7,0*
20,1,$1+$1,$6,$7,$8,$9,0*
20,1,$1+$1,$8,$9,$2,$3,0*%
G04 Aperture macros list end*
%TA.AperFunction,ComponentPad*%
%ADD10R,1.700000X1.700000*%
%TD*%
%TA.AperFunction,ComponentPad*%
%ADD11O,1.700000X1.700000*%
%TD*%
%TA.AperFunction,ComponentPad*%
%ADD12RoundRect,0.250000X-0.650000X-1.400000X0.650000X-1.400000X0.650000X1.400000X-0.650000X1.400000X0*%
%TD*%
%TA.AperFunction,ComponentPad*%
%ADD13O,1.800000X3.300000*%
%TD*%
%TA.AperFunction,ComponentPad*%
%ADD14C,1.850000*%
%TD*%
%TA.AperFunction,ComponentPad*%
%ADD15R,1.850000X1.850000*%
%TD*%
%TA.AperFunction,ViaPad*%
%ADD16C,0.800000*%
%TD*%
%TA.AperFunction,ViaPad*%
%ADD17C,8.000000*%
%TD*%
G04 APERTURE END LIST*
D10*
%TO.P,J1,1,Pin_1*%
%TO.N,GND*%
X25633975Y-68011322D03*
D11*
%TO.P,J1,2,Pin_2*%
X28173975Y-68011322D03*
%TO.P,J1,3,Pin_3*%
%TO.N,/i_tlm_n*%
X30713975Y-68011322D03*
%TO.P,J1,4,Pin_4*%
%TO.N,/i_tlm_p*%
X33253975Y-68011322D03*
%TO.P,J1,5,Pin_5*%
%TO.N,/i_cmd_n*%
X35793975Y-68011322D03*
%TO.P,J1,6,Pin_6*%
%TO.N,/i_cmd_p*%
X38333975Y-68011322D03*
%TD*%
D12*
%TO.P,J2,1,Pin_1*%
%TO.N,GND*%
X50828198Y-61060500D03*
X50828198Y-69260500D03*
D13*
%TO.P,J2,2,Pin_2*%
%TO.N,+24V*%
X55828198Y-61060500D03*
X55828198Y-69260500D03*
%TD*%
D14*
%TO.P,PS1,8,-Vout*%
%TO.N,/iso_gnd*%
X67664798Y-44045000D03*
%TO.P,PS1,7,Common*%
%TO.N,unconnected-(PS1-Common-Pad7)*%
X67664798Y-46585000D03*
%TO.P,PS1,6,+Vout*%
%TO.N,/iso_12v*%
X67664798Y-49125000D03*
%TO.P,PS1,5,NC*%
%TO.N,unconnected-(PS1-NC-Pad5)*%
X67664798Y-51665000D03*
%TO.P,PS1,3,OnOff*%
%TO.N,unconnected-(PS1-OnOff-Pad3)*%
X67664798Y-56745000D03*
%TO.P,PS1,2,+Vin*%
%TO.N,+24V*%
X67664798Y-59285000D03*
D15*
%TO.P,PS1,1,-Vin*%
%TO.N,GND*%
X67664798Y-61825000D03*
%TD*%
D16*
%TO.N,/iso_gnd*%
X60730598Y-47194600D03*
X56844398Y-47397800D03*
X48157598Y-39574600D03*
X49757798Y-39574600D03*
X48157598Y-46178600D03*
X45617598Y-46178600D03*
X45617598Y-43638600D03*
X55777598Y-36018600D03*
X63397598Y-41098600D03*
X63397598Y-38558600D03*
X60857598Y-41098600D03*
X58317598Y-41098600D03*
X50697598Y-33478600D03*
X50697598Y-38558600D03*
X58317598Y-38558600D03*
X58317598Y-36018600D03*
X60857598Y-38558600D03*
X60857598Y-36018600D03*
X63397598Y-30938600D03*
X63397598Y-36018600D03*
X63397598Y-33478600D03*
X71017598Y-46178600D03*
X73557598Y-46178600D03*
X73557598Y-43638600D03*
X71017598Y-43638600D03*
X40537598Y-38558600D03*
X37997598Y-41098600D03*
X37997598Y-43638600D03*
X35457598Y-43638600D03*
X22757598Y-46178600D03*
X25297598Y-46178600D03*
X25297598Y-43638600D03*
X22757598Y-43638600D03*
%TO.N,GND*%
X60857598Y-69038600D03*
X58317598Y-69038600D03*
X60857598Y-66498600D03*
X58317598Y-66498600D03*
X53237598Y-71578600D03*
X53237598Y-69038600D03*
X45617598Y-66498600D03*
X48157598Y-71578600D03*
X48157598Y-69038600D03*
X53237598Y-66498600D03*
X53237598Y-63958600D03*
X50697598Y-66498600D03*
X48157598Y-66498600D03*
X50697598Y-63958600D03*
X48157598Y-63958600D03*
X45617598Y-69038600D03*
X43077598Y-69038600D03*
X45617598Y-71578600D03*
X43077598Y-71578600D03*
X40537598Y-71578600D03*
X37997598Y-71578600D03*
X35457598Y-71578600D03*
X32917598Y-71578600D03*
X30377598Y-71578600D03*
X27837598Y-71578600D03*
X22757598Y-63958600D03*
X25297598Y-63958600D03*
X25297598Y-61418600D03*
X22757598Y-61418600D03*
X71017598Y-63958600D03*
X71017598Y-61418600D03*
X73557598Y-63958600D03*
X73557598Y-61418600D03*
D17*
%TO.N,/to_eload*%
X68580000Y-22860000D03*
%TO.N,/from_dut*%
X27940000Y-22860000D03*
%TD*%
%TA.AperFunction,Conductor*%
%TO.N,GND*%
G36*
X55111756Y-58898285D02*
G01*
X55157511Y-58951089D01*
X55167455Y-59020247D01*
X55138430Y-59083803D01*
X55109733Y-59108187D01*
X55023698Y-59161161D01*
X54992401Y-59180432D01*
X54813443Y-59337935D01*
X54741127Y-59427497D01*
X54663675Y-59523420D01*
X54663673Y-59523422D01*
X54663674Y-59523422D01*
X54547408Y-59731544D01*
X54467986Y-59956329D01*
X54427698Y-60191290D01*
X54427698Y-61870015D01*
X54442850Y-62048036D01*
X54502922Y-62278748D01*
X54601117Y-62495980D01*
X54601122Y-62495988D01*
X54734611Y-62693493D01*
X54734616Y-62693498D01*
X54734619Y-62693503D01*
X54899577Y-62865618D01*
X55091251Y-63007379D01*
X55304124Y-63114707D01*
X55532075Y-63184516D01*
X55768544Y-63214798D01*
X56006730Y-63204680D01*
X56239779Y-63154454D01*
X56460988Y-63065564D01*
X56663993Y-62940569D01*
X56842953Y-62783064D01*
X56992721Y-62597580D01*
X57108988Y-62389454D01*
X57188409Y-62164671D01*
X57208408Y-62048036D01*
X57228697Y-61929709D01*
X57228698Y-61929698D01*
X57228698Y-60251003D01*
X57228697Y-60250984D01*
X57213545Y-60072963D01*
X57153473Y-59842251D01*
X57055278Y-59625019D01*
X57055273Y-59625011D01*
X56921784Y-59427506D01*
X56921780Y-59427501D01*
X56921777Y-59427497D01*
X56756819Y-59255382D01*
X56565145Y-59113621D01*
X56565142Y-59113619D01*
X56565140Y-59113618D01*
X56564556Y-59113324D01*
X56564352Y-59113133D01*
X56560660Y-59110860D01*
X56561122Y-59110108D01*
X56513555Y-59065568D01*
X56496470Y-58997819D01*
X56518725Y-58931588D01*
X56573254Y-58887903D01*
X56620378Y-58878600D01*
X66137901Y-58878600D01*
X66204940Y-58898285D01*
X66250695Y-58951089D01*
X66260639Y-59020247D01*
X66258107Y-59033040D01*
X66253921Y-59049569D01*
X66234413Y-59284994D01*
X66234413Y-59285005D01*
X66253921Y-59520430D01*
X66311915Y-59749445D01*
X66406811Y-59965787D01*
X66536023Y-60163562D01*
X66696021Y-60337364D01*
X66696025Y-60337368D01*
X66882452Y-60482470D01*
X67090219Y-60594908D01*
X67313659Y-60671616D01*
X67546678Y-60710500D01*
X67546679Y-60710500D01*
X67782917Y-60710500D01*
X67782918Y-60710500D01*
X68015937Y-60671616D01*
X68239377Y-60594908D01*
X68447144Y-60482470D01*
X68633571Y-60337368D01*
X68793573Y-60163561D01*
X68922784Y-59965788D01*
X69017681Y-59749445D01*
X69075674Y-59520434D01*
X69095183Y-59285000D01*
X69075674Y-59049566D01*
X69071489Y-59033039D01*
X69074114Y-58963220D01*
X69114071Y-58905902D01*
X69178672Y-58879286D01*
X69191695Y-58878600D01*
X76075500Y-58878600D01*
X76142539Y-58898285D01*
X76188294Y-58951089D01*
X76199500Y-59002600D01*
X76199500Y-66497532D01*
X76199464Y-66499649D01*
X76188510Y-66820279D01*
X76181338Y-67021092D01*
X76181053Y-67025220D01*
X76151410Y-67313560D01*
X76125957Y-67550310D01*
X76125410Y-67554218D01*
X76077422Y-67832542D01*
X76033798Y-68074337D01*
X76033020Y-68078008D01*
X75966852Y-68349530D01*
X75905319Y-68590614D01*
X75904340Y-68594038D01*
X75820271Y-68858918D01*
X75741150Y-69096639D01*
X75739999Y-69099805D01*
X75638404Y-69357434D01*
X75542076Y-69589990D01*
X75540786Y-69592892D01*
X75422392Y-69841839D01*
X75421843Y-69842963D01*
X75309109Y-70068176D01*
X75307710Y-70070811D01*
X75172820Y-70310714D01*
X75172098Y-70311964D01*
X75043359Y-70528942D01*
X75041881Y-70531309D01*
X74891108Y-70761181D01*
X74890193Y-70762537D01*
X74746138Y-70970015D01*
X74744612Y-70972118D01*
X74578645Y-71190978D01*
X74577519Y-71192418D01*
X74418904Y-71389249D01*
X74417358Y-71391093D01*
X74236911Y-71598037D01*
X74235559Y-71599538D01*
X74063246Y-71784616D01*
X74061709Y-71786209D01*
X73867609Y-71980309D01*
X73866016Y-71981846D01*
X73680938Y-72154159D01*
X73679437Y-72155511D01*
X73472493Y-72335958D01*
X73470649Y-72337504D01*
X73273818Y-72496119D01*
X73272378Y-72497245D01*
X73053518Y-72663212D01*
X73051415Y-72664738D01*
X72843937Y-72808793D01*
X72842581Y-72809708D01*
X72612709Y-72960481D01*
X72610342Y-72961959D01*
X72393364Y-73090698D01*
X72392114Y-73091420D01*
X72152211Y-73226310D01*
X72149576Y-73227709D01*
X71924363Y-73340443D01*
X71923239Y-73340992D01*
X71674292Y-73459386D01*
X71671390Y-73460676D01*
X71438834Y-73557004D01*
X71181205Y-73658599D01*
X71178039Y-73659750D01*
X70940318Y-73738871D01*
X70675438Y-73822940D01*
X70672014Y-73823919D01*
X70430930Y-73885452D01*
X70159408Y-73951620D01*
X70155737Y-73952398D01*
X69913942Y-73996022D01*
X69635618Y-74044010D01*
X69631710Y-74044557D01*
X69394960Y-74070010D01*
X69106620Y-74099653D01*
X69102492Y-74099938D01*
X68901870Y-74107103D01*
X68581049Y-74118064D01*
X68578932Y-74118100D01*
X27941067Y-74118100D01*
X27938950Y-74118064D01*
X27619188Y-74107139D01*
X27619141Y-74107139D01*
X27619097Y-74107137D01*
X27618616Y-74107120D01*
X27618225Y-74107107D01*
X27618225Y-74107106D01*
X27417506Y-74099938D01*
X27413378Y-74099653D01*
X27125144Y-74070021D01*
X26888288Y-74044558D01*
X26884379Y-74044011D01*
X26605989Y-73996011D01*
X26364262Y-73952397D01*
X26360591Y-73951620D01*
X26089030Y-73885443D01*
X25935562Y-73846273D01*
X25847991Y-73823922D01*
X25844585Y-73822948D01*
X25579671Y-73738868D01*
X25471257Y-73702784D01*
X25341961Y-73659750D01*
X25338795Y-73658600D01*
X25081155Y-73557001D01*
X24848614Y-73460679D01*
X24845712Y-73459389D01*
X24596746Y-73340985D01*
X24595622Y-73340437D01*
X24370423Y-73227710D01*
X24367789Y-73226311D01*
X24127884Y-73091420D01*
X24126634Y-73090698D01*
X24029960Y-73033338D01*
X23909632Y-72961945D01*
X23907273Y-72960472D01*
X23677434Y-72809720D01*
X23676078Y-72808805D01*
X23468595Y-72664747D01*
X23466492Y-72663221D01*
X23247605Y-72497234D01*
X23246165Y-72496108D01*
X23049340Y-72337497D01*
X23047531Y-72335980D01*
X22840560Y-72155511D01*
X22839075Y-72154173D01*
X22653982Y-71981846D01*
X22652417Y-71980336D01*
X22458261Y-71786180D01*
X22456752Y-71784616D01*
X22284425Y-71599523D01*
X22283073Y-71598022D01*
X22102610Y-71391058D01*
X22101116Y-71389276D01*
X21942478Y-71192418D01*
X21941364Y-71190993D01*
X21903126Y-71140569D01*
X21775373Y-70972100D01*
X21773851Y-70970003D01*
X21629793Y-70762520D01*
X21628897Y-70761192D01*
X21478107Y-70531294D01*
X21476669Y-70528991D01*
X21347877Y-70311924D01*
X21347178Y-70310714D01*
X21212287Y-70070809D01*
X21211865Y-70070015D01*
X54427698Y-70070015D01*
X54442850Y-70248036D01*
X54502922Y-70478748D01*
X54601117Y-70695980D01*
X54601122Y-70695988D01*
X54734611Y-70893493D01*
X54734616Y-70893498D01*
X54734619Y-70893503D01*
X54899577Y-71065618D01*
X55091251Y-71207379D01*
X55304124Y-71314707D01*
X55532075Y-71384516D01*
X55768544Y-71414798D01*
X56006730Y-71404680D01*
X56239779Y-71354454D01*
X56460988Y-71265564D01*
X56663993Y-71140569D01*
X56842953Y-70983064D01*
X56992721Y-70797580D01*
X57108988Y-70589454D01*
X57188409Y-70364671D01*
X57210529Y-70235663D01*
X57228697Y-70129709D01*
X57228698Y-70129698D01*
X57228698Y-68451003D01*
X57228697Y-68450984D01*
X57213545Y-68272963D01*
X57153473Y-68042251D01*
X57055278Y-67825019D01*
X57055273Y-67825011D01*
X56921784Y-67627506D01*
X56921780Y-67627501D01*
X56921777Y-67627497D01*
X56756819Y-67455382D01*
X56565145Y-67313621D01*
X56352272Y-67206293D01*
X56222481Y-67166545D01*
X56124319Y-67136483D01*
X55887845Y-67106201D01*
X55649669Y-67116319D01*
X55649665Y-67116319D01*
X55416617Y-67166545D01*
X55195409Y-67255435D01*
X54992401Y-67380432D01*
X54813443Y-67537935D01*
X54803419Y-67550350D01*
X54663675Y-67723420D01*
X54663673Y-67723422D01*
X54663674Y-67723422D01*
X54547408Y-67931544D01*
X54467986Y-68156329D01*
X54427698Y-68391290D01*
X54427698Y-70070015D01*
X21211865Y-70070015D01*
X21210888Y-70068175D01*
X21098136Y-69842926D01*
X21097613Y-69841852D01*
X21065053Y-69773388D01*
X20979197Y-69592859D01*
X20977922Y-69589990D01*
X20881594Y-69357434D01*
X20779998Y-69099803D01*
X20778849Y-69096639D01*
X20699728Y-68858918D01*
X20615637Y-68593968D01*
X20614689Y-68590654D01*
X20553165Y-68349605D01*
X20486974Y-68077990D01*
X20486201Y-68074336D01*
X20474832Y-68011322D01*
X29358316Y-68011322D01*
X29378911Y-68246725D01*
X29378913Y-68246735D01*
X29440069Y-68474977D01*
X29440071Y-68474981D01*
X29440072Y-68474985D01*
X29519979Y-68646345D01*
X29539940Y-68689152D01*
X29539942Y-68689156D01*
X29648256Y-68843843D01*
X29675480Y-68882723D01*
X29842574Y-69049817D01*
X29913964Y-69099805D01*
X30036140Y-69185354D01*
X30036142Y-69185355D01*
X30036145Y-69185357D01*
X30250312Y-69285225D01*
X30478567Y-69346385D01*
X30666893Y-69362861D01*
X30713974Y-69366981D01*
X30713975Y-69366981D01*
X30713976Y-69366981D01*
X30753209Y-69363548D01*
X30949383Y-69346385D01*
X31177638Y-69285225D01*
X31391805Y-69185357D01*
X31585376Y-69049817D01*
X31752470Y-68882723D01*
X31882399Y-68697164D01*
X31936977Y-68653539D01*
X32006475Y-68646345D01*
X32068830Y-68677868D01*
X32085550Y-68697164D01*
X32215475Y-68882717D01*
X32215480Y-68882723D01*
X32382574Y-69049817D01*
X32453964Y-69099805D01*
X32576140Y-69185354D01*
X32576142Y-69185355D01*
X32576145Y-69185357D01*
X32790312Y-69285225D01*
X33018567Y-69346385D01*
X33206893Y-69362861D01*
X33253974Y-69366981D01*
X33253975Y-69366981D01*
X33253976Y-69366981D01*
X33293209Y-69363548D01*
X33489383Y-69346385D01*
X33717638Y-69285225D01*
X33931805Y-69185357D01*
X34125376Y-69049817D01*
X34292470Y-68882723D01*
X34422399Y-68697164D01*
X34476977Y-68653539D01*
X34546475Y-68646345D01*
X34608830Y-68677868D01*
X34625550Y-68697164D01*
X34755475Y-68882717D01*
X34755480Y-68882723D01*
X34922574Y-69049817D01*
X34993964Y-69099805D01*
X35116140Y-69185354D01*
X35116142Y-69185355D01*
X35116145Y-69185357D01*
X35330312Y-69285225D01*
X35558567Y-69346385D01*
X35746893Y-69362861D01*
X35793974Y-69366981D01*
X35793975Y-69366981D01*
X35793976Y-69366981D01*
X35833209Y-69363548D01*
X36029383Y-69346385D01*
X36257638Y-69285225D01*
X36471805Y-69185357D01*
X36665376Y-69049817D01*
X36832470Y-68882723D01*
X36962399Y-68697164D01*
X37016977Y-68653539D01*
X37086475Y-68646345D01*
X37148830Y-68677868D01*
X37165550Y-68697164D01*
X37295475Y-68882717D01*
X37295480Y-68882723D01*
X37462574Y-69049817D01*
X37533964Y-69099805D01*
X37656140Y-69185354D01*
X37656142Y-69185355D01*
X37656145Y-69185357D01*
X37870312Y-69285225D01*
X38098567Y-69346385D01*
X38286893Y-69362861D01*
X38333974Y-69366981D01*
X38333975Y-69366981D01*
X38333976Y-69366981D01*
X38373209Y-69363548D01*
X38569383Y-69346385D01*
X38797638Y-69285225D01*
X39011805Y-69185357D01*
X39205376Y-69049817D01*
X39372470Y-68882723D01*
X39508010Y-68689152D01*
X39607878Y-68474985D01*
X39669038Y-68246730D01*
X39689634Y-68011322D01*
X39669038Y-67775914D01*
X39609636Y-67554219D01*
X39607880Y-67547666D01*
X39607879Y-67547665D01*
X39607878Y-67547659D01*
X39508010Y-67333493D01*
X39502400Y-67325480D01*
X39372469Y-67139919D01*
X39205377Y-66972828D01*
X39205370Y-66972823D01*
X39011809Y-66837289D01*
X39011805Y-66837287D01*
X38843755Y-66758924D01*
X38797638Y-66737419D01*
X38797634Y-66737418D01*
X38797630Y-66737416D01*
X38569388Y-66676260D01*
X38569378Y-66676258D01*
X38333976Y-66655663D01*
X38333974Y-66655663D01*
X38098571Y-66676258D01*
X38098561Y-66676260D01*
X37870319Y-66737416D01*
X37870310Y-66737420D01*
X37656146Y-66837286D01*
X37656144Y-66837287D01*
X37462572Y-66972827D01*
X37295480Y-67139919D01*
X37165550Y-67325480D01*
X37110973Y-67369105D01*
X37041475Y-67376299D01*
X36979120Y-67344776D01*
X36962400Y-67325480D01*
X36832469Y-67139919D01*
X36665377Y-66972828D01*
X36665370Y-66972823D01*
X36471809Y-66837289D01*
X36471805Y-66837287D01*
X36303755Y-66758924D01*
X36257638Y-66737419D01*
X36257634Y-66737418D01*
X36257630Y-66737416D01*
X36029388Y-66676260D01*
X36029378Y-66676258D01*
X35793976Y-66655663D01*
X35793974Y-66655663D01*
X35558571Y-66676258D01*
X35558561Y-66676260D01*
X35330319Y-66737416D01*
X35330310Y-66737420D01*
X35116146Y-66837286D01*
X35116144Y-66837287D01*
X34922572Y-66972827D01*
X34755480Y-67139919D01*
X34625550Y-67325480D01*
X34570973Y-67369105D01*
X34501475Y-67376299D01*
X34439120Y-67344776D01*
X34422400Y-67325480D01*
X34292469Y-67139919D01*
X34125377Y-66972828D01*
X34125370Y-66972823D01*
X33931809Y-66837289D01*
X33931805Y-66837287D01*
X33763755Y-66758924D01*
X33717638Y-66737419D01*
X33717634Y-66737418D01*
X33717630Y-66737416D01*
X33489388Y-66676260D01*
X33489378Y-66676258D01*
X33253976Y-66655663D01*
X33253974Y-66655663D01*
X33018571Y-66676258D01*
X33018561Y-66676260D01*
X32790319Y-66737416D01*
X32790310Y-66737420D01*
X32576146Y-66837286D01*
X32576144Y-66837287D01*
X32382572Y-66972827D01*
X32215480Y-67139919D01*
X32085550Y-67325480D01*
X32030973Y-67369105D01*
X31961475Y-67376299D01*
X31899120Y-67344776D01*
X31882400Y-67325480D01*
X31752469Y-67139919D01*
X31585377Y-66972828D01*
X31585370Y-66972823D01*
X31391809Y-66837289D01*
X31391805Y-66837287D01*
X31223755Y-66758924D01*
X31177638Y-66737419D01*
X31177634Y-66737418D01*
X31177630Y-66737416D01*
X30949388Y-66676260D01*
X30949378Y-66676258D01*
X30713976Y-66655663D01*
X30713974Y-66655663D01*
X30478571Y-66676258D01*
X30478561Y-66676260D01*
X30250319Y-66737416D01*
X30250310Y-66737420D01*
X30036146Y-66837286D01*
X30036144Y-66837287D01*
X29842572Y-66972827D01*
X29675480Y-67139919D01*
X29539940Y-67333491D01*
X29539939Y-67333493D01*
X29440073Y-67547657D01*
X29440069Y-67547666D01*
X29378913Y-67775908D01*
X29378911Y-67775918D01*
X29358316Y-68011321D01*
X29358316Y-68011322D01*
X20474832Y-68011322D01*
X20460438Y-67931544D01*
X20442600Y-67832682D01*
X20394581Y-67554179D01*
X20394045Y-67550350D01*
X20368577Y-67313454D01*
X20364969Y-67278359D01*
X20338942Y-67025180D01*
X20338661Y-67021118D01*
X20331489Y-66820278D01*
X20320536Y-66499649D01*
X20320500Y-66497533D01*
X20320500Y-59002600D01*
X20340185Y-58935561D01*
X20392989Y-58889806D01*
X20444500Y-58878600D01*
X55044717Y-58878600D01*
X55111756Y-58898285D01*
G37*
%TD.AperFunction*%
%TD*%
%TA.AperFunction,Conductor*%
%TO.N,/iso_gnd*%
G36*
X48173275Y-28418285D02*
G01*
X48193917Y-28434919D01*
X50697598Y-30938600D01*
X65813598Y-30938600D01*
X65880637Y-30958285D01*
X65926392Y-31011089D01*
X65937598Y-31062600D01*
X65937598Y-38558600D01*
X68477598Y-41098600D01*
X76075500Y-41098600D01*
X76142539Y-41118285D01*
X76188294Y-41171089D01*
X76199500Y-41222600D01*
X76199500Y-48594600D01*
X76179815Y-48661639D01*
X76127011Y-48707394D01*
X76075500Y-48718600D01*
X69124155Y-48718600D01*
X69057116Y-48698915D01*
X69011361Y-48646111D01*
X69010599Y-48644410D01*
X68922784Y-48444212D01*
X68793572Y-48246437D01*
X68633574Y-48072635D01*
X68633564Y-48072626D01*
X68479680Y-47952853D01*
X68438867Y-47896143D01*
X68435192Y-47826370D01*
X68469824Y-47765687D01*
X68479680Y-47757147D01*
X68577966Y-47680647D01*
X68633571Y-47637368D01*
X68793573Y-47463561D01*
X68922784Y-47265788D01*
X69017681Y-47049445D01*
X69075674Y-46820434D01*
X69095183Y-46585000D01*
X69075674Y-46349566D01*
X69017681Y-46120555D01*
X68922784Y-45904212D01*
X68793573Y-45706439D01*
X68793572Y-45706437D01*
X68633574Y-45532635D01*
X68633573Y-45532634D01*
X68633571Y-45532632D01*
X68540357Y-45460080D01*
X68447146Y-45387531D01*
X68239378Y-45275092D01*
X68239369Y-45275089D01*
X68015939Y-45198384D01*
X67860590Y-45172461D01*
X67782918Y-45159500D01*
X67546678Y-45159500D01*
X67488423Y-45169220D01*
X67313656Y-45198384D01*
X67090226Y-45275089D01*
X67090217Y-45275092D01*
X66882449Y-45387531D01*
X66696026Y-45532631D01*
X66696021Y-45532635D01*
X66536023Y-45706437D01*
X66406811Y-45904212D01*
X66311915Y-46120554D01*
X66253921Y-46349569D01*
X66234413Y-46584994D01*
X66234413Y-46585005D01*
X66253921Y-46820430D01*
X66311915Y-47049445D01*
X66406811Y-47265787D01*
X66536023Y-47463562D01*
X66696021Y-47637364D01*
X66696031Y-47637373D01*
X66849916Y-47757147D01*
X66890729Y-47813857D01*
X66894404Y-47883630D01*
X66859772Y-47944313D01*
X66849916Y-47952853D01*
X66696031Y-48072626D01*
X66696021Y-48072635D01*
X66536023Y-48246437D01*
X66406811Y-48444212D01*
X66318997Y-48644410D01*
X66274041Y-48697896D01*
X66207305Y-48718586D01*
X66205441Y-48718600D01*
X20444500Y-48718600D01*
X20377461Y-48698915D01*
X20331706Y-48646111D01*
X20320500Y-48594600D01*
X20320500Y-41222600D01*
X20340185Y-41155561D01*
X20392989Y-41109806D01*
X20444500Y-41098600D01*
X35457598Y-41098600D01*
X40537598Y-36018600D01*
X40537598Y-28522600D01*
X40557283Y-28455561D01*
X40610087Y-28409806D01*
X40661598Y-28398600D01*
X48106236Y-28398600D01*
X48173275Y-28418285D01*
G37*
%TD.AperFunction*%
%TD*%
M02*
