%TF.GenerationSoftware,KiCad,Pcbnew,7.0.5*%
%TF.CreationDate,2025-04-14T03:26:47-04:00*%
%TF.ProjectId,okay_this_one_is_not_work,6f6b6179-5f74-4686-9973-5f6f6e655f69,rev?*%
%TF.SameCoordinates,Original*%
%TF.FileFunction,Soldermask,Top*%
%TF.FilePolarity,Negative*%
%FSLAX46Y46*%
G04 Gerber Fmt 4.6, Leading zero omitted, Abs format (unit mm)*
G04 Created by KiCad (PCBNEW 7.0.5) date 2025-04-14 03:26:47*
%MOMM*%
%LPD*%
G01*
G04 APERTURE LIST*
G04 Aperture macros list*
%AMRoundRect*
0 Rectangle with rounded corners*
0 $1 Rounding radius*
0 $2 $3 $4 $5 $6 $7 $8 $9 X,Y pos of 4 corners*
0 Add a 4 corners polygon primitive as box body*
4,1,4,$2,$3,$4,$5,$6,$7,$8,$9,$2,$3,0*
0 Add four circle primitives for the rounded corners*
1,1,$1+$1,$2,$3*
1,1,$1+$1,$4,$5*
1,1,$1+$1,$6,$7*
1,1,$1+$1,$8,$9*
0 Add four rect primitives between the rounded corners*
20,1,$1+$1,$2,$3,$4,$5,0*
20,1,$1+$1,$4,$5,$6,$7,0*
20,1,$1+$1,$6,$7,$8,$9,0*
20,1,$1+$1,$8,$9,$2,$3,0*%
G04 Aperture macros list end*
%ADD10C,4.066707*%
%ADD11R,1.700000X1.700000*%
%ADD12O,1.700000X1.700000*%
%ADD13R,1.500000X2.000000*%
%ADD14R,3.800000X2.000000*%
%ADD15RoundRect,0.250000X-0.650000X0.412500X-0.650000X-0.412500X0.650000X-0.412500X0.650000X0.412500X0*%
%ADD16RoundRect,0.250000X-0.650000X-1.400000X0.650000X-1.400000X0.650000X1.400000X-0.650000X1.400000X0*%
%ADD17O,1.800000X3.300000*%
%ADD18RoundRect,0.250000X0.650000X-0.412500X0.650000X0.412500X-0.650000X0.412500X-0.650000X-0.412500X0*%
%ADD19RoundRect,0.237500X-0.237500X0.250000X-0.237500X-0.250000X0.237500X-0.250000X0.237500X0.250000X0*%
%ADD20RoundRect,0.237500X-0.287500X-0.237500X0.287500X-0.237500X0.287500X0.237500X-0.287500X0.237500X0*%
%ADD21RoundRect,0.150000X0.150000X-0.750000X0.150000X0.750000X-0.150000X0.750000X-0.150000X-0.750000X0*%
%ADD22RoundRect,0.250002X5.149998X-4.449998X5.149998X4.449998X-5.149998X4.449998X-5.149998X-4.449998X0*%
%ADD23RoundRect,0.200000X0.200000X-2.100000X0.200000X2.100000X-0.200000X2.100000X-0.200000X-2.100000X0*%
%ADD24RoundRect,0.150000X-0.150000X0.825000X-0.150000X-0.825000X0.150000X-0.825000X0.150000X0.825000X0*%
%ADD25RoundRect,0.150000X-0.150000X0.750000X-0.150000X-0.750000X0.150000X-0.750000X0.150000X0.750000X0*%
%ADD26R,1.560000X0.650000*%
%ADD27RoundRect,0.237500X0.250000X0.237500X-0.250000X0.237500X-0.250000X-0.237500X0.250000X-0.237500X0*%
%ADD28RoundRect,0.237500X-0.250000X-0.237500X0.250000X-0.237500X0.250000X0.237500X-0.250000X0.237500X0*%
%ADD29RoundRect,0.237500X0.237500X-0.250000X0.237500X0.250000X-0.237500X0.250000X-0.237500X-0.250000X0*%
%ADD30RoundRect,0.875000X-0.875000X-2.625000X0.875000X-2.625000X0.875000X2.625000X-0.875000X2.625000X0*%
%ADD31C,1.850000*%
%ADD32R,1.850000X1.850000*%
%ADD33RoundRect,0.250000X-1.625000X0.750000X-1.625000X-0.750000X1.625000X-0.750000X1.625000X0.750000X0*%
%ADD34R,1.400000X1.390000*%
%ADD35R,4.860000X3.360000*%
%ADD36RoundRect,0.250000X-0.412500X-0.650000X0.412500X-0.650000X0.412500X0.650000X-0.412500X0.650000X0*%
%ADD37RoundRect,0.237500X-0.237500X0.300000X-0.237500X-0.300000X0.237500X-0.300000X0.237500X0.300000X0*%
%ADD38RoundRect,0.237500X-0.380070X0.044194X0.044194X-0.380070X0.380070X-0.044194X-0.044194X0.380070X0*%
%ADD39RoundRect,0.237500X-0.300000X-0.237500X0.300000X-0.237500X0.300000X0.237500X-0.300000X0.237500X0*%
%ADD40RoundRect,0.237500X0.300000X0.237500X-0.300000X0.237500X-0.300000X-0.237500X0.300000X-0.237500X0*%
%ADD41RoundRect,0.250000X0.412500X0.650000X-0.412500X0.650000X-0.412500X-0.650000X0.412500X-0.650000X0*%
G04 APERTURE END LIST*
D10*
X29938147Y-22812298D02*
G75*
G03*
X29938147Y-22812298I-2033353J0D01*
G01*
X70589220Y-22868554D02*
G75*
G03*
X70589220Y-22868554I-2033353J0D01*
G01*
D11*
%TO.C,J1*%
X25633975Y-68011322D03*
D12*
X28173975Y-68011322D03*
X30713975Y-68011322D03*
X33253975Y-68011322D03*
X35793975Y-68011322D03*
X38333975Y-68011322D03*
%TD*%
D13*
%TO.C,U7*%
X67515489Y-65758813D03*
D14*
X65215489Y-72058813D03*
D13*
X65215489Y-65758813D03*
X62915489Y-65758813D03*
%TD*%
D15*
%TO.C,C18*%
X59384398Y-45530500D03*
X59384398Y-48655500D03*
%TD*%
D16*
%TO.C,J2*%
X50828198Y-61060500D03*
X50828198Y-69260500D03*
D17*
X55828198Y-61060500D03*
X55828198Y-69260500D03*
%TD*%
D15*
%TO.C,C17*%
X62096168Y-45525670D03*
X62096168Y-48650670D03*
%TD*%
D18*
%TO.C,C16*%
X62447327Y-63036954D03*
X62447327Y-59911954D03*
%TD*%
%TO.C,C15*%
X59333598Y-39713900D03*
X59333598Y-42838900D03*
%TD*%
D19*
%TO.C,R14*%
X72364585Y-67233606D03*
X72364585Y-69058606D03*
%TD*%
D20*
%TO.C,D4*%
X69918661Y-70810843D03*
X71668661Y-70810843D03*
%TD*%
D21*
%TO.C,U6*%
X41173403Y-48854600D03*
X42443403Y-48854600D03*
X43713403Y-48854600D03*
X44983403Y-48854600D03*
X44983403Y-59504600D03*
X43713403Y-59504600D03*
X42443403Y-59504600D03*
X41173403Y-59504600D03*
%TD*%
D22*
%TO.C,U5*%
X56458119Y-24417590D03*
D23*
X60268119Y-33567590D03*
X58998119Y-33567590D03*
X57728119Y-33567590D03*
X55188119Y-33567590D03*
X53918119Y-33567590D03*
X52648119Y-33567590D03*
%TD*%
D13*
%TO.C,U4*%
X56629798Y-44985200D03*
X54329798Y-44985200D03*
D14*
X54329798Y-38685200D03*
D13*
X52029798Y-44985200D03*
%TD*%
D24*
%TO.C,U3*%
X46242220Y-38236664D03*
X44972220Y-38236664D03*
X43702220Y-38236664D03*
X42432220Y-38236664D03*
X42432220Y-33286664D03*
X43702220Y-33286664D03*
X44972220Y-33286664D03*
X46242220Y-33286664D03*
%TD*%
D25*
%TO.C,U2*%
X32536598Y-59530000D03*
X31266598Y-59530000D03*
X29996598Y-59530000D03*
X28726598Y-59530000D03*
X28726598Y-48880000D03*
X29996598Y-48880000D03*
X31266598Y-48880000D03*
X32536598Y-48880000D03*
%TD*%
D26*
%TO.C,U1*%
X40302121Y-30477356D03*
X40302121Y-28577356D03*
X43002121Y-28577356D03*
X43002121Y-29527356D03*
X43002121Y-30477356D03*
%TD*%
D27*
%TO.C,R13*%
X54912098Y-48312200D03*
X53087098Y-48312200D03*
%TD*%
D28*
%TO.C,R12*%
X37466098Y-65203200D03*
X39291098Y-65203200D03*
%TD*%
%TO.C,R11*%
X37491498Y-63450600D03*
X39316498Y-63450600D03*
%TD*%
D19*
%TO.C,R10*%
X48036040Y-36010131D03*
X48036040Y-37835131D03*
%TD*%
%TO.C,R9*%
X45947798Y-40668700D03*
X45947798Y-42493700D03*
%TD*%
%TO.C,R8*%
X40359798Y-40668700D03*
X40359798Y-42493700D03*
%TD*%
D29*
%TO.C,R7*%
X44068198Y-42492795D03*
X44068198Y-40667795D03*
%TD*%
%TO.C,R6*%
X42213998Y-42493700D03*
X42213998Y-40668700D03*
%TD*%
D19*
%TO.C,R5*%
X29717198Y-40567100D03*
X29717198Y-42392100D03*
%TD*%
%TO.C,R4*%
X31596798Y-40567100D03*
X31596798Y-42392100D03*
%TD*%
D28*
%TO.C,R3*%
X47317498Y-30583000D03*
X45492498Y-30583000D03*
%TD*%
D29*
%TO.C,R2*%
X48845724Y-32323946D03*
X48845724Y-34148946D03*
%TD*%
D30*
%TO.C,R1*%
X44814602Y-22998776D03*
X36711711Y-22998776D03*
%TD*%
D31*
%TO.C,PS1*%
X67664798Y-44045000D03*
X67664798Y-46585000D03*
X67664798Y-49125000D03*
X67664798Y-51665000D03*
X67664798Y-56745000D03*
X67664798Y-59285000D03*
D32*
X67664798Y-61825000D03*
%TD*%
D33*
%TO.C,F1*%
X28177556Y-37378628D03*
X28177556Y-28878628D03*
%TD*%
D20*
%TO.C,D3*%
X49568598Y-48312200D03*
X51318598Y-48312200D03*
%TD*%
D34*
%TO.C,D2*%
X64919641Y-29472302D03*
X64919641Y-31312302D03*
D35*
X68901641Y-30392302D03*
%TD*%
D34*
%TO.C,D1*%
X64919641Y-35434960D03*
X64919641Y-37274960D03*
D35*
X68901641Y-36354960D03*
%TD*%
D36*
%TO.C,C14*%
X41642098Y-62053600D03*
X44767098Y-62053600D03*
%TD*%
%TO.C,C13*%
X41540498Y-46305600D03*
X44665498Y-46305600D03*
%TD*%
D37*
%TO.C,C12*%
X49785515Y-36060131D03*
X49785515Y-37785131D03*
%TD*%
D38*
%TO.C,C11*%
X41959718Y-64415520D03*
X43179478Y-65635280D03*
%TD*%
D39*
%TO.C,C10*%
X43990898Y-44222800D03*
X42265898Y-44222800D03*
%TD*%
D40*
%TO.C,C9*%
X31392498Y-64034800D03*
X29667498Y-64034800D03*
%TD*%
%TO.C,C8*%
X31494098Y-44222800D03*
X29769098Y-44222800D03*
%TD*%
D37*
%TO.C,C7*%
X37628328Y-28653193D03*
X37628328Y-30378193D03*
%TD*%
D39*
%TO.C,C6*%
X47242098Y-28449400D03*
X45517098Y-28449400D03*
%TD*%
D15*
%TO.C,C5*%
X49402198Y-45328100D03*
X49402198Y-42203100D03*
%TD*%
D18*
%TO.C,C4*%
X62061018Y-42842874D03*
X62061018Y-39717874D03*
%TD*%
%TO.C,C3*%
X70248512Y-68908813D03*
X70248512Y-65783813D03*
%TD*%
D41*
%TO.C,C2*%
X32143298Y-62002800D03*
X29018298Y-62002800D03*
%TD*%
%TO.C,C1*%
X32194098Y-46280200D03*
X29069098Y-46280200D03*
%TD*%
M02*
