%TF.GenerationSoftware,KiCad,Pcbnew,7.0.5*%
%TF.CreationDate,2025-04-14T03:26:47-04:00*%
%TF.ProjectId,okay_this_one_is_not_work,6f6b6179-5f74-4686-9973-5f6f6e655f69,rev?*%
%TF.SameCoordinates,Original*%
%TF.FileFunction,Legend,Bot*%
%TF.FilePolarity,Positive*%
%FSLAX46Y46*%
G04 Gerber Fmt 4.6, Leading zero omitted, Abs format (unit mm)*
G04 Created by KiCad (PCBNEW 7.0.5) date 2025-04-14 03:26:47*
%MOMM*%
%LPD*%
G01*
G04 APERTURE LIST*
%ADD10C,0.450000*%
%ADD11C,0.300000*%
G04 APERTURE END LIST*
D10*
X73895701Y-52711176D02*
X71895701Y-52711176D01*
X71895701Y-52711176D02*
X73181415Y-55711176D01*
X70752844Y-55711176D02*
X70752844Y-53711176D01*
X70752844Y-53996890D02*
X70609987Y-53854033D01*
X70609987Y-53854033D02*
X70324272Y-53711176D01*
X70324272Y-53711176D02*
X69895701Y-53711176D01*
X69895701Y-53711176D02*
X69609987Y-53854033D01*
X69609987Y-53854033D02*
X69467130Y-54139747D01*
X69467130Y-54139747D02*
X69467130Y-55711176D01*
X69467130Y-54139747D02*
X69324272Y-53854033D01*
X69324272Y-53854033D02*
X69038558Y-53711176D01*
X69038558Y-53711176D02*
X68609987Y-53711176D01*
X68609987Y-53711176D02*
X68324272Y-53854033D01*
X68324272Y-53854033D02*
X68181415Y-54139747D01*
X68181415Y-54139747D02*
X68181415Y-55711176D01*
X66752844Y-55711176D02*
X66752844Y-53711176D01*
X66752844Y-53996890D02*
X66609987Y-53854033D01*
X66609987Y-53854033D02*
X66324272Y-53711176D01*
X66324272Y-53711176D02*
X65895701Y-53711176D01*
X65895701Y-53711176D02*
X65609987Y-53854033D01*
X65609987Y-53854033D02*
X65467130Y-54139747D01*
X65467130Y-54139747D02*
X65467130Y-55711176D01*
X65467130Y-54139747D02*
X65324272Y-53854033D01*
X65324272Y-53854033D02*
X65038558Y-53711176D01*
X65038558Y-53711176D02*
X64609987Y-53711176D01*
X64609987Y-53711176D02*
X64324272Y-53854033D01*
X64324272Y-53854033D02*
X64181415Y-54139747D01*
X64181415Y-54139747D02*
X64181415Y-55711176D01*
X60467130Y-55711176D02*
X60467130Y-52711176D01*
X59181416Y-55568319D02*
X58895702Y-55711176D01*
X58895702Y-55711176D02*
X58324273Y-55711176D01*
X58324273Y-55711176D02*
X58038559Y-55568319D01*
X58038559Y-55568319D02*
X57895702Y-55282604D01*
X57895702Y-55282604D02*
X57895702Y-55139747D01*
X57895702Y-55139747D02*
X58038559Y-54854033D01*
X58038559Y-54854033D02*
X58324273Y-54711176D01*
X58324273Y-54711176D02*
X58752845Y-54711176D01*
X58752845Y-54711176D02*
X59038559Y-54568319D01*
X59038559Y-54568319D02*
X59181416Y-54282604D01*
X59181416Y-54282604D02*
X59181416Y-54139747D01*
X59181416Y-54139747D02*
X59038559Y-53854033D01*
X59038559Y-53854033D02*
X58752845Y-53711176D01*
X58752845Y-53711176D02*
X58324273Y-53711176D01*
X58324273Y-53711176D02*
X58038559Y-53854033D01*
X56181416Y-55711176D02*
X56467131Y-55568319D01*
X56467131Y-55568319D02*
X56609988Y-55425461D01*
X56609988Y-55425461D02*
X56752845Y-55139747D01*
X56752845Y-55139747D02*
X56752845Y-54282604D01*
X56752845Y-54282604D02*
X56609988Y-53996890D01*
X56609988Y-53996890D02*
X56467131Y-53854033D01*
X56467131Y-53854033D02*
X56181416Y-53711176D01*
X56181416Y-53711176D02*
X55752845Y-53711176D01*
X55752845Y-53711176D02*
X55467131Y-53854033D01*
X55467131Y-53854033D02*
X55324274Y-53996890D01*
X55324274Y-53996890D02*
X55181416Y-54282604D01*
X55181416Y-54282604D02*
X55181416Y-55139747D01*
X55181416Y-55139747D02*
X55324274Y-55425461D01*
X55324274Y-55425461D02*
X55467131Y-55568319D01*
X55467131Y-55568319D02*
X55752845Y-55711176D01*
X55752845Y-55711176D02*
X56181416Y-55711176D01*
X53467130Y-55711176D02*
X53752845Y-55568319D01*
X53752845Y-55568319D02*
X53895702Y-55282604D01*
X53895702Y-55282604D02*
X53895702Y-52711176D01*
X51038559Y-55711176D02*
X51038559Y-54139747D01*
X51038559Y-54139747D02*
X51181416Y-53854033D01*
X51181416Y-53854033D02*
X51467130Y-53711176D01*
X51467130Y-53711176D02*
X52038559Y-53711176D01*
X52038559Y-53711176D02*
X52324273Y-53854033D01*
X51038559Y-55568319D02*
X51324273Y-55711176D01*
X51324273Y-55711176D02*
X52038559Y-55711176D01*
X52038559Y-55711176D02*
X52324273Y-55568319D01*
X52324273Y-55568319D02*
X52467130Y-55282604D01*
X52467130Y-55282604D02*
X52467130Y-54996890D01*
X52467130Y-54996890D02*
X52324273Y-54711176D01*
X52324273Y-54711176D02*
X52038559Y-54568319D01*
X52038559Y-54568319D02*
X51324273Y-54568319D01*
X51324273Y-54568319D02*
X51038559Y-54425461D01*
X50038558Y-53711176D02*
X48895701Y-53711176D01*
X49609987Y-52711176D02*
X49609987Y-55282604D01*
X49609987Y-55282604D02*
X49467130Y-55568319D01*
X49467130Y-55568319D02*
X49181415Y-55711176D01*
X49181415Y-55711176D02*
X48895701Y-55711176D01*
X47895701Y-55711176D02*
X47895701Y-53711176D01*
X47895701Y-52711176D02*
X48038558Y-52854033D01*
X48038558Y-52854033D02*
X47895701Y-52996890D01*
X47895701Y-52996890D02*
X47752844Y-52854033D01*
X47752844Y-52854033D02*
X47895701Y-52711176D01*
X47895701Y-52711176D02*
X47895701Y-52996890D01*
X46038558Y-55711176D02*
X46324273Y-55568319D01*
X46324273Y-55568319D02*
X46467130Y-55425461D01*
X46467130Y-55425461D02*
X46609987Y-55139747D01*
X46609987Y-55139747D02*
X46609987Y-54282604D01*
X46609987Y-54282604D02*
X46467130Y-53996890D01*
X46467130Y-53996890D02*
X46324273Y-53854033D01*
X46324273Y-53854033D02*
X46038558Y-53711176D01*
X46038558Y-53711176D02*
X45609987Y-53711176D01*
X45609987Y-53711176D02*
X45324273Y-53854033D01*
X45324273Y-53854033D02*
X45181416Y-53996890D01*
X45181416Y-53996890D02*
X45038558Y-54282604D01*
X45038558Y-54282604D02*
X45038558Y-55139747D01*
X45038558Y-55139747D02*
X45181416Y-55425461D01*
X45181416Y-55425461D02*
X45324273Y-55568319D01*
X45324273Y-55568319D02*
X45609987Y-55711176D01*
X45609987Y-55711176D02*
X46038558Y-55711176D01*
X43752844Y-53711176D02*
X43752844Y-55711176D01*
X43752844Y-53996890D02*
X43609987Y-53854033D01*
X43609987Y-53854033D02*
X43324272Y-53711176D01*
X43324272Y-53711176D02*
X42895701Y-53711176D01*
X42895701Y-53711176D02*
X42609987Y-53854033D01*
X42609987Y-53854033D02*
X42467130Y-54139747D01*
X42467130Y-54139747D02*
X42467130Y-55711176D01*
X37752844Y-54139747D02*
X37324272Y-54282604D01*
X37324272Y-54282604D02*
X37181415Y-54425461D01*
X37181415Y-54425461D02*
X37038558Y-54711176D01*
X37038558Y-54711176D02*
X37038558Y-55139747D01*
X37038558Y-55139747D02*
X37181415Y-55425461D01*
X37181415Y-55425461D02*
X37324272Y-55568319D01*
X37324272Y-55568319D02*
X37609987Y-55711176D01*
X37609987Y-55711176D02*
X38752844Y-55711176D01*
X38752844Y-55711176D02*
X38752844Y-52711176D01*
X38752844Y-52711176D02*
X37752844Y-52711176D01*
X37752844Y-52711176D02*
X37467130Y-52854033D01*
X37467130Y-52854033D02*
X37324272Y-52996890D01*
X37324272Y-52996890D02*
X37181415Y-53282604D01*
X37181415Y-53282604D02*
X37181415Y-53568319D01*
X37181415Y-53568319D02*
X37324272Y-53854033D01*
X37324272Y-53854033D02*
X37467130Y-53996890D01*
X37467130Y-53996890D02*
X37752844Y-54139747D01*
X37752844Y-54139747D02*
X38752844Y-54139747D01*
X34467130Y-55711176D02*
X34467130Y-54139747D01*
X34467130Y-54139747D02*
X34609987Y-53854033D01*
X34609987Y-53854033D02*
X34895701Y-53711176D01*
X34895701Y-53711176D02*
X35467130Y-53711176D01*
X35467130Y-53711176D02*
X35752844Y-53854033D01*
X34467130Y-55568319D02*
X34752844Y-55711176D01*
X34752844Y-55711176D02*
X35467130Y-55711176D01*
X35467130Y-55711176D02*
X35752844Y-55568319D01*
X35752844Y-55568319D02*
X35895701Y-55282604D01*
X35895701Y-55282604D02*
X35895701Y-54996890D01*
X35895701Y-54996890D02*
X35752844Y-54711176D01*
X35752844Y-54711176D02*
X35467130Y-54568319D01*
X35467130Y-54568319D02*
X34752844Y-54568319D01*
X34752844Y-54568319D02*
X34467130Y-54425461D01*
X33038558Y-55711176D02*
X33038558Y-53711176D01*
X33038558Y-54282604D02*
X32895701Y-53996890D01*
X32895701Y-53996890D02*
X32752844Y-53854033D01*
X32752844Y-53854033D02*
X32467129Y-53711176D01*
X32467129Y-53711176D02*
X32181415Y-53711176D01*
X31181415Y-55711176D02*
X31181415Y-53711176D01*
X31181415Y-54282604D02*
X31038558Y-53996890D01*
X31038558Y-53996890D02*
X30895701Y-53854033D01*
X30895701Y-53854033D02*
X30609986Y-53711176D01*
X30609986Y-53711176D02*
X30324272Y-53711176D01*
X29324272Y-55711176D02*
X29324272Y-53711176D01*
X29324272Y-52711176D02*
X29467129Y-52854033D01*
X29467129Y-52854033D02*
X29324272Y-52996890D01*
X29324272Y-52996890D02*
X29181415Y-52854033D01*
X29181415Y-52854033D02*
X29324272Y-52711176D01*
X29324272Y-52711176D02*
X29324272Y-52996890D01*
X26752844Y-55568319D02*
X27038558Y-55711176D01*
X27038558Y-55711176D02*
X27609987Y-55711176D01*
X27609987Y-55711176D02*
X27895701Y-55568319D01*
X27895701Y-55568319D02*
X28038558Y-55282604D01*
X28038558Y-55282604D02*
X28038558Y-54139747D01*
X28038558Y-54139747D02*
X27895701Y-53854033D01*
X27895701Y-53854033D02*
X27609987Y-53711176D01*
X27609987Y-53711176D02*
X27038558Y-53711176D01*
X27038558Y-53711176D02*
X26752844Y-53854033D01*
X26752844Y-53854033D02*
X26609987Y-54139747D01*
X26609987Y-54139747D02*
X26609987Y-54425461D01*
X26609987Y-54425461D02*
X28038558Y-54711176D01*
X25324272Y-55711176D02*
X25324272Y-53711176D01*
X25324272Y-54282604D02*
X25181415Y-53996890D01*
X25181415Y-53996890D02*
X25038558Y-53854033D01*
X25038558Y-53854033D02*
X24752843Y-53711176D01*
X24752843Y-53711176D02*
X24467129Y-53711176D01*
X63774084Y-18900023D02*
X63774084Y-15900023D01*
X63774084Y-17328594D02*
X62059798Y-17328594D01*
X62059798Y-18900023D02*
X62059798Y-15900023D01*
X60631227Y-18900023D02*
X60631227Y-15900023D01*
X57631227Y-16042880D02*
X57916942Y-15900023D01*
X57916942Y-15900023D02*
X58345513Y-15900023D01*
X58345513Y-15900023D02*
X58774084Y-16042880D01*
X58774084Y-16042880D02*
X59059799Y-16328594D01*
X59059799Y-16328594D02*
X59202656Y-16614308D01*
X59202656Y-16614308D02*
X59345513Y-17185737D01*
X59345513Y-17185737D02*
X59345513Y-17614308D01*
X59345513Y-17614308D02*
X59202656Y-18185737D01*
X59202656Y-18185737D02*
X59059799Y-18471451D01*
X59059799Y-18471451D02*
X58774084Y-18757166D01*
X58774084Y-18757166D02*
X58345513Y-18900023D01*
X58345513Y-18900023D02*
X58059799Y-18900023D01*
X58059799Y-18900023D02*
X57631227Y-18757166D01*
X57631227Y-18757166D02*
X57488370Y-18614308D01*
X57488370Y-18614308D02*
X57488370Y-17614308D01*
X57488370Y-17614308D02*
X58059799Y-17614308D01*
X56202656Y-18900023D02*
X56202656Y-15900023D01*
X56202656Y-17328594D02*
X54488370Y-17328594D01*
X54488370Y-18900023D02*
X54488370Y-15900023D01*
X51202656Y-15900023D02*
X50202656Y-18900023D01*
X50202656Y-18900023D02*
X49202656Y-15900023D01*
X47631227Y-15900023D02*
X47059799Y-15900023D01*
X47059799Y-15900023D02*
X46774084Y-16042880D01*
X46774084Y-16042880D02*
X46488370Y-16328594D01*
X46488370Y-16328594D02*
X46345513Y-16900023D01*
X46345513Y-16900023D02*
X46345513Y-17900023D01*
X46345513Y-17900023D02*
X46488370Y-18471451D01*
X46488370Y-18471451D02*
X46774084Y-18757166D01*
X46774084Y-18757166D02*
X47059799Y-18900023D01*
X47059799Y-18900023D02*
X47631227Y-18900023D01*
X47631227Y-18900023D02*
X47916942Y-18757166D01*
X47916942Y-18757166D02*
X48202656Y-18471451D01*
X48202656Y-18471451D02*
X48345513Y-17900023D01*
X48345513Y-17900023D02*
X48345513Y-16900023D01*
X48345513Y-16900023D02*
X48202656Y-16328594D01*
X48202656Y-16328594D02*
X47916942Y-16042880D01*
X47916942Y-16042880D02*
X47631227Y-15900023D01*
X43631227Y-18900023D02*
X45059799Y-18900023D01*
X45059799Y-18900023D02*
X45059799Y-15900023D01*
X43059799Y-15900023D02*
X41345514Y-15900023D01*
X42202656Y-18900023D02*
X42202656Y-15900023D01*
X40488371Y-18042880D02*
X39059800Y-18042880D01*
X40774085Y-18900023D02*
X39774085Y-15900023D01*
X39774085Y-15900023D02*
X38774085Y-18900023D01*
X36202656Y-16042880D02*
X36488371Y-15900023D01*
X36488371Y-15900023D02*
X36916942Y-15900023D01*
X36916942Y-15900023D02*
X37345513Y-16042880D01*
X37345513Y-16042880D02*
X37631228Y-16328594D01*
X37631228Y-16328594D02*
X37774085Y-16614308D01*
X37774085Y-16614308D02*
X37916942Y-17185737D01*
X37916942Y-17185737D02*
X37916942Y-17614308D01*
X37916942Y-17614308D02*
X37774085Y-18185737D01*
X37774085Y-18185737D02*
X37631228Y-18471451D01*
X37631228Y-18471451D02*
X37345513Y-18757166D01*
X37345513Y-18757166D02*
X36916942Y-18900023D01*
X36916942Y-18900023D02*
X36631228Y-18900023D01*
X36631228Y-18900023D02*
X36202656Y-18757166D01*
X36202656Y-18757166D02*
X36059799Y-18614308D01*
X36059799Y-18614308D02*
X36059799Y-17614308D01*
X36059799Y-17614308D02*
X36631228Y-17614308D01*
X34774085Y-17328594D02*
X33774085Y-17328594D01*
X33345513Y-18900023D02*
X34774085Y-18900023D01*
X34774085Y-18900023D02*
X34774085Y-15900023D01*
X34774085Y-15900023D02*
X33345513Y-15900023D01*
D11*
X18007798Y-57888000D02*
X21307798Y-57888000D01*
X22507798Y-57888000D02*
X25807798Y-57888000D01*
X27007798Y-57888000D02*
X30307798Y-57888000D01*
X31507798Y-57888000D02*
X34807798Y-57888000D01*
X36007798Y-57888000D02*
X39307798Y-57888000D01*
X40507798Y-57888000D02*
X43807798Y-57888000D01*
X45007798Y-57888000D02*
X48307798Y-57888000D01*
X49507798Y-57888000D02*
X52807798Y-57888000D01*
X54007798Y-57888000D02*
X57307798Y-57888000D01*
X58507798Y-57888000D02*
X61807798Y-57888000D01*
X63007798Y-57888000D02*
X66307798Y-57888000D01*
X67507798Y-57888000D02*
X70807798Y-57888000D01*
X72007798Y-57888000D02*
X75307798Y-57888000D01*
X76507798Y-57888000D02*
X78967798Y-57888000D01*
X18007798Y-50572800D02*
X21307798Y-50572800D01*
X22507798Y-50572800D02*
X25807798Y-50572800D01*
X27007798Y-50572800D02*
X30307798Y-50572800D01*
X31507798Y-50572800D02*
X34807798Y-50572800D01*
X36007798Y-50572800D02*
X39307798Y-50572800D01*
X40507798Y-50572800D02*
X43807798Y-50572800D01*
X45007798Y-50572800D02*
X48307798Y-50572800D01*
X49507798Y-50572800D02*
X52807798Y-50572800D01*
X54007798Y-50572800D02*
X57307798Y-50572800D01*
X58507798Y-50572800D02*
X61807798Y-50572800D01*
X63007798Y-50572800D02*
X66307798Y-50572800D01*
X67507798Y-50572800D02*
X70807798Y-50572800D01*
X72007798Y-50572800D02*
X75307798Y-50572800D01*
X76507798Y-50572800D02*
X78967798Y-50572800D01*
M02*
