%TF.GenerationSoftware,KiCad,Pcbnew,7.0.5*%
%TF.CreationDate,2025-04-14T03:26:47-04:00*%
%TF.ProjectId,okay_this_one_is_not_work,6f6b6179-5f74-4686-9973-5f6f6e655f69,rev?*%
%TF.SameCoordinates,Original*%
%TF.FileFunction,Copper,L1,Top*%
%TF.FilePolarity,Positive*%
%FSLAX46Y46*%
G04 Gerber Fmt 4.6, Leading zero omitted, Abs format (unit mm)*
G04 Created by KiCad (PCBNEW 7.0.5) date 2025-04-14 03:26:47*
%MOMM*%
%LPD*%
G01*
G04 APERTURE LIST*
G04 Aperture macros list*
%AMRoundRect*
0 Rectangle with rounded corners*
0 $1 Rounding radius*
0 $2 $3 $4 $5 $6 $7 $8 $9 X,Y pos of 4 corners*
0 Add a 4 corners polygon primitive as box body*
4,1,4,$2,$3,$4,$5,$6,$7,$8,$9,$2,$3,0*
0 Add four circle primitives for the rounded corners*
1,1,$1+$1,$2,$3*
1,1,$1+$1,$4,$5*
1,1,$1+$1,$6,$7*
1,1,$1+$1,$8,$9*
0 Add four rect primitives between the rounded corners*
20,1,$1+$1,$2,$3,$4,$5,0*
20,1,$1+$1,$4,$5,$6,$7,0*
20,1,$1+$1,$6,$7,$8,$9,0*
20,1,$1+$1,$8,$9,$2,$3,0*%
G04 Aperture macros list end*
%TA.AperFunction,ComponentPad*%
%ADD10R,1.700000X1.700000*%
%TD*%
%TA.AperFunction,ComponentPad*%
%ADD11O,1.700000X1.700000*%
%TD*%
%TA.AperFunction,SMDPad,CuDef*%
%ADD12R,1.500000X2.000000*%
%TD*%
%TA.AperFunction,SMDPad,CuDef*%
%ADD13R,3.800000X2.000000*%
%TD*%
%TA.AperFunction,SMDPad,CuDef*%
%ADD14RoundRect,0.250000X-0.650000X0.412500X-0.650000X-0.412500X0.650000X-0.412500X0.650000X0.412500X0*%
%TD*%
%TA.AperFunction,ComponentPad*%
%ADD15RoundRect,0.250000X-0.650000X-1.400000X0.650000X-1.400000X0.650000X1.400000X-0.650000X1.400000X0*%
%TD*%
%TA.AperFunction,ComponentPad*%
%ADD16O,1.800000X3.300000*%
%TD*%
%TA.AperFunction,SMDPad,CuDef*%
%ADD17RoundRect,0.250000X0.650000X-0.412500X0.650000X0.412500X-0.650000X0.412500X-0.650000X-0.412500X0*%
%TD*%
%TA.AperFunction,SMDPad,CuDef*%
%ADD18RoundRect,0.237500X-0.237500X0.250000X-0.237500X-0.250000X0.237500X-0.250000X0.237500X0.250000X0*%
%TD*%
%TA.AperFunction,SMDPad,CuDef*%
%ADD19RoundRect,0.237500X-0.287500X-0.237500X0.287500X-0.237500X0.287500X0.237500X-0.287500X0.237500X0*%
%TD*%
%TA.AperFunction,SMDPad,CuDef*%
%ADD20RoundRect,0.150000X0.150000X-0.750000X0.150000X0.750000X-0.150000X0.750000X-0.150000X-0.750000X0*%
%TD*%
%TA.AperFunction,SMDPad,CuDef*%
%ADD21RoundRect,0.250000X2.375000X-2.025000X2.375000X2.025000X-2.375000X2.025000X-2.375000X-2.025000X0*%
%TD*%
%TA.AperFunction,SMDPad,CuDef*%
%ADD22RoundRect,0.250002X5.149998X-4.449998X5.149998X4.449998X-5.149998X4.449998X-5.149998X-4.449998X0*%
%TD*%
%TA.AperFunction,SMDPad,CuDef*%
%ADD23RoundRect,0.200000X0.200000X-2.100000X0.200000X2.100000X-0.200000X2.100000X-0.200000X-2.100000X0*%
%TD*%
%TA.AperFunction,SMDPad,CuDef*%
%ADD24RoundRect,0.150000X-0.150000X0.825000X-0.150000X-0.825000X0.150000X-0.825000X0.150000X0.825000X0*%
%TD*%
%TA.AperFunction,SMDPad,CuDef*%
%ADD25RoundRect,0.150000X-0.150000X0.750000X-0.150000X-0.750000X0.150000X-0.750000X0.150000X0.750000X0*%
%TD*%
%TA.AperFunction,SMDPad,CuDef*%
%ADD26R,1.560000X0.650000*%
%TD*%
%TA.AperFunction,SMDPad,CuDef*%
%ADD27RoundRect,0.237500X0.250000X0.237500X-0.250000X0.237500X-0.250000X-0.237500X0.250000X-0.237500X0*%
%TD*%
%TA.AperFunction,SMDPad,CuDef*%
%ADD28RoundRect,0.237500X-0.250000X-0.237500X0.250000X-0.237500X0.250000X0.237500X-0.250000X0.237500X0*%
%TD*%
%TA.AperFunction,SMDPad,CuDef*%
%ADD29RoundRect,0.237500X0.237500X-0.250000X0.237500X0.250000X-0.237500X0.250000X-0.237500X-0.250000X0*%
%TD*%
%TA.AperFunction,SMDPad,CuDef*%
%ADD30RoundRect,0.875000X-0.875000X-2.625000X0.875000X-2.625000X0.875000X2.625000X-0.875000X2.625000X0*%
%TD*%
%TA.AperFunction,ComponentPad*%
%ADD31C,1.850000*%
%TD*%
%TA.AperFunction,ComponentPad*%
%ADD32R,1.850000X1.850000*%
%TD*%
%TA.AperFunction,SMDPad,CuDef*%
%ADD33RoundRect,0.250000X-1.625000X0.750000X-1.625000X-0.750000X1.625000X-0.750000X1.625000X0.750000X0*%
%TD*%
%TA.AperFunction,SMDPad,CuDef*%
%ADD34R,1.400000X1.390000*%
%TD*%
%TA.AperFunction,SMDPad,CuDef*%
%ADD35R,4.860000X3.360000*%
%TD*%
%TA.AperFunction,SMDPad,CuDef*%
%ADD36RoundRect,0.250000X-0.412500X-0.650000X0.412500X-0.650000X0.412500X0.650000X-0.412500X0.650000X0*%
%TD*%
%TA.AperFunction,SMDPad,CuDef*%
%ADD37RoundRect,0.237500X-0.237500X0.300000X-0.237500X-0.300000X0.237500X-0.300000X0.237500X0.300000X0*%
%TD*%
%TA.AperFunction,SMDPad,CuDef*%
%ADD38RoundRect,0.237500X-0.380070X0.044194X0.044194X-0.380070X0.380070X-0.044194X-0.044194X0.380070X0*%
%TD*%
%TA.AperFunction,SMDPad,CuDef*%
%ADD39RoundRect,0.237500X-0.300000X-0.237500X0.300000X-0.237500X0.300000X0.237500X-0.300000X0.237500X0*%
%TD*%
%TA.AperFunction,SMDPad,CuDef*%
%ADD40RoundRect,0.237500X0.300000X0.237500X-0.300000X0.237500X-0.300000X-0.237500X0.300000X-0.237500X0*%
%TD*%
%TA.AperFunction,SMDPad,CuDef*%
%ADD41RoundRect,0.250000X0.412500X0.650000X-0.412500X0.650000X-0.412500X-0.650000X0.412500X-0.650000X0*%
%TD*%
%TA.AperFunction,ViaPad*%
%ADD42C,0.800000*%
%TD*%
%TA.AperFunction,ViaPad*%
%ADD43C,8.000000*%
%TD*%
%TA.AperFunction,Conductor*%
%ADD44C,4.000000*%
%TD*%
%TA.AperFunction,Conductor*%
%ADD45C,0.400000*%
%TD*%
%TA.AperFunction,Conductor*%
%ADD46C,0.750000*%
%TD*%
%TA.AperFunction,Conductor*%
%ADD47C,0.250000*%
%TD*%
%TA.AperFunction,Conductor*%
%ADD48C,0.500000*%
%TD*%
G04 APERTURE END LIST*
D10*
%TO.P,J1,1,Pin_1*%
%TO.N,GND*%
X25633975Y-68011322D03*
D11*
%TO.P,J1,2,Pin_2*%
X28173975Y-68011322D03*
%TO.P,J1,3,Pin_3*%
%TO.N,/i_tlm_n*%
X30713975Y-68011322D03*
%TO.P,J1,4,Pin_4*%
%TO.N,/i_tlm_p*%
X33253975Y-68011322D03*
%TO.P,J1,5,Pin_5*%
%TO.N,/i_cmd_n*%
X35793975Y-68011322D03*
%TO.P,J1,6,Pin_6*%
%TO.N,/i_cmd_p*%
X38333975Y-68011322D03*
%TD*%
D12*
%TO.P,U7,1,GND*%
%TO.N,GND*%
X67515489Y-65758813D03*
D13*
%TO.P,U7,2,VO*%
%TO.N,+5V*%
X65215489Y-72058813D03*
D12*
X65215489Y-65758813D03*
%TO.P,U7,3,VI*%
%TO.N,+24V*%
X62915489Y-65758813D03*
%TD*%
D14*
%TO.P,C18,1*%
%TO.N,/iso_12v*%
X59384398Y-45530500D03*
%TO.P,C18,2*%
%TO.N,/iso_gnd*%
X59384398Y-48655500D03*
%TD*%
D15*
%TO.P,J2,1,Pin_1*%
%TO.N,GND*%
X50828198Y-61060500D03*
X50828198Y-69260500D03*
D16*
%TO.P,J2,2,Pin_2*%
%TO.N,+24V*%
X55828198Y-61060500D03*
X55828198Y-69260500D03*
%TD*%
D14*
%TO.P,C17,1*%
%TO.N,/iso_12v*%
X62096168Y-45525670D03*
%TO.P,C17,2*%
%TO.N,/iso_gnd*%
X62096168Y-48650670D03*
%TD*%
D17*
%TO.P,C16,1*%
%TO.N,+24V*%
X62447327Y-63036954D03*
%TO.P,C16,2*%
%TO.N,GND*%
X62447327Y-59911954D03*
%TD*%
%TO.P,C15,2*%
%TO.N,/iso_gnd*%
X59333598Y-39713900D03*
%TO.P,C15,1*%
%TO.N,/iso_12v*%
X59333598Y-42838900D03*
%TD*%
D18*
%TO.P,R14,1*%
%TO.N,+24V*%
X72364585Y-67233606D03*
%TO.P,R14,2*%
%TO.N,/24v_on*%
X72364585Y-69058606D03*
%TD*%
D19*
%TO.P,D4,1,K*%
%TO.N,GND*%
X69918661Y-70810843D03*
%TO.P,D4,2,A*%
%TO.N,/24v_on*%
X71668661Y-70810843D03*
%TD*%
D20*
%TO.P,U6,8,V+*%
%TO.N,/iso_5v*%
X41173403Y-48854600D03*
%TO.P,U6,7,+*%
%TO.N,/i_cmd_p_iso_prebuf*%
X42443403Y-48854600D03*
%TO.P,U6,6,-*%
%TO.N,/i_cmd_n_iso_prebuf*%
X43713403Y-48854600D03*
%TO.P,U6,5,V-*%
%TO.N,/iso_gnd*%
X44983403Y-48854600D03*
%TO.P,U6,4,V-*%
%TO.N,GND*%
X44983403Y-59504600D03*
%TO.P,U6,3,-*%
%TO.N,/i_cmd_n_prebuf*%
X43713403Y-59504600D03*
%TO.P,U6,2,+*%
%TO.N,/i_cmd_p_prebuf*%
X42443403Y-59504600D03*
%TO.P,U6,1,V+*%
%TO.N,+5V*%
X41173403Y-59504600D03*
%TD*%
D21*
%TO.P,U5,4*%
%TO.N,/R_SHUNT_LS*%
X59233119Y-26842590D03*
X53683119Y-21992590D03*
X53683119Y-26842590D03*
X59233119Y-21992590D03*
D22*
X56458119Y-24417590D03*
D23*
%TO.P,U5,7*%
%TO.N,/iso_gnd*%
X60268119Y-33567590D03*
%TO.P,U5,6*%
X58998119Y-33567590D03*
%TO.P,U5,5*%
X57728119Y-33567590D03*
%TO.P,U5,3*%
X55188119Y-33567590D03*
%TO.P,U5,2*%
X53918119Y-33567590D03*
%TO.P,U5,1*%
%TO.N,/gate*%
X52648119Y-33567590D03*
%TD*%
D12*
%TO.P,U4,3,VI*%
%TO.N,/iso_12v*%
X56629798Y-44985200D03*
%TO.P,U4,2,VO*%
%TO.N,/iso_5v*%
X54329798Y-44985200D03*
D13*
X54329798Y-38685200D03*
D12*
%TO.P,U4,1,GND*%
%TO.N,/iso_gnd*%
X52029798Y-44985200D03*
%TD*%
D24*
%TO.P,U3,8,V+*%
%TO.N,/iso_12v*%
X46242220Y-38236664D03*
%TO.P,U3,7*%
%TO.N,/i_cmd_buf*%
X44972220Y-38236664D03*
%TO.P,U3,6,-*%
%TO.N,/i_cmd_n_iso*%
X43702220Y-38236664D03*
%TO.P,U3,5,+*%
%TO.N,/i_cmd_p_iso*%
X42432220Y-38236664D03*
%TO.P,U3,4,V-*%
%TO.N,/iso_gnd*%
X42432220Y-33286664D03*
%TO.P,U3,3,+*%
%TO.N,/i_fb*%
X43702220Y-33286664D03*
%TO.P,U3,2,-*%
%TO.N,/i_cmd_single_iso*%
X44972220Y-33286664D03*
%TO.P,U3,1*%
%TO.N,/to_gate*%
X46242220Y-33286664D03*
%TD*%
D25*
%TO.P,U2,8,V+*%
%TO.N,+5V*%
X32536598Y-59530000D03*
%TO.P,U2,7,+*%
%TO.N,/i_tlm_p*%
X31266598Y-59530000D03*
%TO.P,U2,6,-*%
%TO.N,/i_tlm_n*%
X29996598Y-59530000D03*
%TO.P,U2,5,V-*%
%TO.N,GND*%
X28726598Y-59530000D03*
%TO.P,U2,4,V-*%
%TO.N,/iso_gnd*%
X28726598Y-48880000D03*
%TO.P,U2,3,-*%
%TO.N,/R_SHUNT_LS_prebuf*%
X29996598Y-48880000D03*
%TO.P,U2,2,+*%
%TO.N,/R_SHUNT_HS_prebuf*%
X31266598Y-48880000D03*
%TO.P,U2,1,V+*%
%TO.N,/iso_5v*%
X32536598Y-48880000D03*
%TD*%
D26*
%TO.P,U1,5,IN-*%
%TO.N,/R_SHUNT_LS*%
X40302121Y-30477356D03*
%TO.P,U1,4,IN+*%
%TO.N,/R_SHUNT_HS*%
X40302121Y-28577356D03*
%TO.P,U1,3,Vs*%
%TO.N,/iso_12v*%
X43002121Y-28577356D03*
%TO.P,U1,2,GND*%
%TO.N,/iso_gnd*%
X43002121Y-29527356D03*
%TO.P,U1,1,OUT*%
%TO.N,/i_fb*%
X43002121Y-30477356D03*
%TD*%
D27*
%TO.P,R13,1*%
%TO.N,/iso_5v*%
X54912098Y-48312200D03*
%TO.P,R13,2*%
%TO.N,/5v_on*%
X53087098Y-48312200D03*
%TD*%
D28*
%TO.P,R12,1*%
%TO.N,/i_cmd_n*%
X37466098Y-65203200D03*
%TO.P,R12,2*%
%TO.N,/i_cmd_n_prebuf*%
X39291098Y-65203200D03*
%TD*%
%TO.P,R11,1*%
%TO.N,/i_cmd_p*%
X37491498Y-63450600D03*
%TO.P,R11,2*%
%TO.N,/i_cmd_p_prebuf*%
X39316498Y-63450600D03*
%TD*%
D18*
%TO.P,R10,1*%
%TO.N,/i_cmd_single_iso*%
X48036040Y-36010131D03*
%TO.P,R10,2*%
%TO.N,/i_cmd_buf*%
X48036040Y-37835131D03*
%TD*%
%TO.P,R9,1*%
%TO.N,/i_cmd_buf*%
X45947798Y-40668700D03*
%TO.P,R9,2*%
%TO.N,/i_cmd_n_iso*%
X45947798Y-42493700D03*
%TD*%
%TO.P,R8,1*%
%TO.N,/i_cmd_p_iso*%
X40359798Y-40668700D03*
%TO.P,R8,2*%
%TO.N,/iso_gnd*%
X40359798Y-42493700D03*
%TD*%
D29*
%TO.P,R7,1*%
%TO.N,/i_cmd_n_iso_prebuf*%
X44068198Y-42492795D03*
%TO.P,R7,2*%
%TO.N,/i_cmd_n_iso*%
X44068198Y-40667795D03*
%TD*%
%TO.P,R6,1*%
%TO.N,/i_cmd_p_iso_prebuf*%
X42213998Y-42493700D03*
%TO.P,R6,2*%
%TO.N,/i_cmd_p_iso*%
X42213998Y-40668700D03*
%TD*%
D18*
%TO.P,R5,1*%
%TO.N,/R_SHUNT_LS*%
X29717198Y-40567100D03*
%TO.P,R5,2*%
%TO.N,/R_SHUNT_LS_prebuf*%
X29717198Y-42392100D03*
%TD*%
%TO.P,R4,1*%
%TO.N,/R_SHUNT_HS*%
X31596798Y-40567100D03*
%TO.P,R4,2*%
%TO.N,/R_SHUNT_HS_prebuf*%
X31596798Y-42392100D03*
%TD*%
D28*
%TO.P,R3,2*%
%TO.N,/gate*%
X47317498Y-30583000D03*
%TO.P,R3,1*%
%TO.N,/r_c_gate*%
X45492498Y-30583000D03*
%TD*%
D29*
%TO.P,R2,2*%
%TO.N,/gate*%
X48845724Y-32323946D03*
%TO.P,R2,1*%
%TO.N,/to_gate*%
X48845724Y-34148946D03*
%TD*%
D30*
%TO.P,R1,2*%
%TO.N,/R_SHUNT_LS*%
X44814602Y-22998776D03*
%TO.P,R1,1*%
%TO.N,/R_SHUNT_HS*%
X36711711Y-22998776D03*
%TD*%
D31*
%TO.P,PS1,8,-Vout*%
%TO.N,/iso_gnd*%
X67664798Y-44045000D03*
%TO.P,PS1,7,Common*%
%TO.N,unconnected-(PS1-Common-Pad7)*%
X67664798Y-46585000D03*
%TO.P,PS1,6,+Vout*%
%TO.N,/iso_12v*%
X67664798Y-49125000D03*
%TO.P,PS1,5,NC*%
%TO.N,unconnected-(PS1-NC-Pad5)*%
X67664798Y-51665000D03*
%TO.P,PS1,3,OnOff*%
%TO.N,unconnected-(PS1-OnOff-Pad3)*%
X67664798Y-56745000D03*
%TO.P,PS1,2,+Vin*%
%TO.N,+24V*%
X67664798Y-59285000D03*
D32*
%TO.P,PS1,1,-Vin*%
%TO.N,GND*%
X67664798Y-61825000D03*
%TD*%
D33*
%TO.P,F1,2*%
%TO.N,/R_SHUNT_HS*%
X28177556Y-37378628D03*
%TO.P,F1,1*%
%TO.N,/from_dut*%
X28177556Y-28878628D03*
%TD*%
D19*
%TO.P,D3,1,K*%
%TO.N,/iso_gnd*%
X49568598Y-48312200D03*
%TO.P,D3,2,A*%
%TO.N,/5v_on*%
X51318598Y-48312200D03*
%TD*%
D34*
%TO.P,D2,2,A*%
%TO.N,/iso_gnd*%
X64919641Y-29472302D03*
X64919641Y-31312302D03*
D35*
%TO.P,D2,1,K*%
%TO.N,/to_eload*%
X68901641Y-30392302D03*
%TD*%
D34*
%TO.P,D1,2,A*%
%TO.N,/iso_gnd*%
X64919641Y-35434960D03*
X64919641Y-37274960D03*
D35*
%TO.P,D1,1,K*%
%TO.N,/to_eload*%
X68901641Y-36354960D03*
%TD*%
D36*
%TO.P,C14,1*%
%TO.N,+5V*%
X41642098Y-62053600D03*
%TO.P,C14,2*%
%TO.N,GND*%
X44767098Y-62053600D03*
%TD*%
%TO.P,C13,1*%
%TO.N,/iso_5v*%
X41540498Y-46305600D03*
%TO.P,C13,2*%
%TO.N,/iso_gnd*%
X44665498Y-46305600D03*
%TD*%
D37*
%TO.P,C12,1*%
%TO.N,/i_cmd_single_iso*%
X49785515Y-36060131D03*
%TO.P,C12,2*%
%TO.N,/iso_gnd*%
X49785515Y-37785131D03*
%TD*%
D38*
%TO.P,C11,1*%
%TO.N,/i_cmd_p_prebuf*%
X41959718Y-64415520D03*
%TO.P,C11,2*%
%TO.N,/i_cmd_n_prebuf*%
X43179478Y-65635280D03*
%TD*%
D39*
%TO.P,C10,2*%
%TO.N,/i_cmd_n_iso_prebuf*%
X43990898Y-44222800D03*
%TO.P,C10,1*%
%TO.N,/i_cmd_p_iso_prebuf*%
X42265898Y-44222800D03*
%TD*%
D40*
%TO.P,C9,1*%
%TO.N,/i_tlm_p*%
X31392498Y-64034800D03*
%TO.P,C9,2*%
%TO.N,/i_tlm_n*%
X29667498Y-64034800D03*
%TD*%
%TO.P,C8,1*%
%TO.N,/R_SHUNT_HS_prebuf*%
X31494098Y-44222800D03*
%TO.P,C8,2*%
%TO.N,/R_SHUNT_LS_prebuf*%
X29769098Y-44222800D03*
%TD*%
D37*
%TO.P,C7,1*%
%TO.N,/R_SHUNT_HS*%
X37628328Y-28653193D03*
%TO.P,C7,2*%
%TO.N,/R_SHUNT_LS*%
X37628328Y-30378193D03*
%TD*%
D39*
%TO.P,C6,2*%
%TO.N,/r_c_gate*%
X47242098Y-28449400D03*
%TO.P,C6,1*%
%TO.N,/R_SHUNT_LS*%
X45517098Y-28449400D03*
%TD*%
D14*
%TO.P,C5,2*%
%TO.N,/iso_gnd*%
X49402198Y-45328100D03*
%TO.P,C5,1*%
%TO.N,/iso_5v*%
X49402198Y-42203100D03*
%TD*%
D17*
%TO.P,C4,1*%
%TO.N,/iso_12v*%
X62061018Y-42842874D03*
%TO.P,C4,2*%
%TO.N,/iso_gnd*%
X62061018Y-39717874D03*
%TD*%
%TO.P,C3,1*%
%TO.N,+24V*%
X70248512Y-68908813D03*
%TO.P,C3,2*%
%TO.N,GND*%
X70248512Y-65783813D03*
%TD*%
D41*
%TO.P,C2,1*%
%TO.N,+5V*%
X32143298Y-62002800D03*
%TO.P,C2,2*%
%TO.N,GND*%
X29018298Y-62002800D03*
%TD*%
%TO.P,C1,1*%
%TO.N,/iso_5v*%
X32194098Y-46280200D03*
%TO.P,C1,2*%
%TO.N,/iso_gnd*%
X29069098Y-46280200D03*
%TD*%
D42*
%TO.N,/iso_gnd*%
X60730598Y-47194600D03*
X56844398Y-47397800D03*
X48157598Y-39574600D03*
X49757798Y-39574600D03*
X48157598Y-46178600D03*
X45617598Y-46178600D03*
X45617598Y-43638600D03*
X55777598Y-36018600D03*
X63397598Y-41098600D03*
X63397598Y-38558600D03*
X60857598Y-41098600D03*
X58317598Y-41098600D03*
X50697598Y-33478600D03*
X50697598Y-38558600D03*
X58317598Y-38558600D03*
X58317598Y-36018600D03*
X60857598Y-38558600D03*
X60857598Y-36018600D03*
X63397598Y-30938600D03*
X63397598Y-36018600D03*
X63397598Y-33478600D03*
X71017598Y-46178600D03*
X73557598Y-46178600D03*
X73557598Y-43638600D03*
X71017598Y-43638600D03*
X40537598Y-38558600D03*
X37997598Y-41098600D03*
X37997598Y-43638600D03*
X35457598Y-43638600D03*
X22757598Y-46178600D03*
X25297598Y-46178600D03*
X25297598Y-43638600D03*
X22757598Y-43638600D03*
%TO.N,GND*%
X60857598Y-69038600D03*
X58317598Y-69038600D03*
X60857598Y-66498600D03*
X58317598Y-66498600D03*
X53237598Y-71578600D03*
X53237598Y-69038600D03*
X45617598Y-66498600D03*
X48157598Y-71578600D03*
X48157598Y-69038600D03*
X53237598Y-66498600D03*
X53237598Y-63958600D03*
X50697598Y-66498600D03*
X48157598Y-66498600D03*
X50697598Y-63958600D03*
X48157598Y-63958600D03*
X45617598Y-69038600D03*
X43077598Y-69038600D03*
X45617598Y-71578600D03*
X43077598Y-71578600D03*
X40537598Y-71578600D03*
X37997598Y-71578600D03*
X35457598Y-71578600D03*
X32917598Y-71578600D03*
X30377598Y-71578600D03*
X27837598Y-71578600D03*
X22757598Y-63958600D03*
X25297598Y-63958600D03*
X25297598Y-61418600D03*
X22757598Y-61418600D03*
X71017598Y-63958600D03*
X71017598Y-61418600D03*
X73557598Y-63958600D03*
X73557598Y-61418600D03*
D43*
%TO.N,/to_eload*%
X68580000Y-22860000D03*
%TO.N,/from_dut*%
X27940000Y-22860000D03*
%TD*%
D44*
%TO.N,/from_dut*%
X28177556Y-23097556D02*
X27940000Y-22860000D01*
X28177556Y-28878628D02*
X28177556Y-23097556D01*
%TO.N,/R_SHUNT_HS*%
X36711711Y-22998776D02*
X37677774Y-22998776D01*
D45*
%TO.N,+5V*%
X65215489Y-66008813D02*
X65215489Y-65758813D01*
X66949876Y-67743200D02*
X65215489Y-66008813D01*
X72079343Y-66129787D02*
X70465930Y-67743200D01*
X73405198Y-66129787D02*
X72079343Y-66129787D01*
X70465930Y-67743200D02*
X66949876Y-67743200D01*
X73405198Y-70500867D02*
X73405198Y-66129787D01*
X71847252Y-72058813D02*
X73405198Y-70500867D01*
X65215489Y-72058813D02*
X71847252Y-72058813D01*
D46*
%TO.N,/iso_5v*%
X54329798Y-42240800D02*
X54292098Y-42203100D01*
X54329798Y-44985200D02*
X54329798Y-42240800D01*
D47*
%TO.N,/iso_12v*%
X56554798Y-37360200D02*
X56629798Y-37435200D01*
X52104798Y-39691400D02*
X52104798Y-37360200D01*
X52104798Y-37360200D02*
X56554798Y-37360200D01*
X56629798Y-37435200D02*
X56629798Y-44985200D01*
X50697598Y-41098600D02*
X52104798Y-39691400D01*
X46785998Y-41462573D02*
X47149971Y-41098600D01*
X47149971Y-41098600D02*
X50697598Y-41098600D01*
X46785998Y-41113495D02*
X46785998Y-41462573D01*
D46*
%TO.N,/iso_gnd*%
X44792498Y-46178600D02*
X44665498Y-46305600D01*
X45617598Y-46178600D02*
X44792498Y-46178600D01*
X45617598Y-45353500D02*
X45617598Y-46178600D01*
X45642998Y-45328100D02*
X45617598Y-45353500D01*
X49402198Y-45328100D02*
X45642998Y-45328100D01*
D47*
%TO.N,/iso_12v*%
X46785998Y-38780442D02*
X46242220Y-38236664D01*
X46785998Y-41113495D02*
X46785998Y-38780442D01*
X46418293Y-41481200D02*
X46785998Y-41113495D01*
X44347220Y-39663822D02*
X45017220Y-40333822D01*
X45017220Y-40333822D02*
X45017220Y-41021117D01*
X44347220Y-34328415D02*
X44347220Y-39663822D01*
X44032121Y-28577356D02*
X44327220Y-28872455D01*
X44327220Y-34308415D02*
X44347220Y-34328415D01*
X45017220Y-41021117D02*
X45477303Y-41481200D01*
X43002121Y-28577356D02*
X44032121Y-28577356D01*
X44327220Y-28872455D02*
X44327220Y-34308415D01*
X45477303Y-41481200D02*
X46418293Y-41481200D01*
D45*
%TO.N,/i_cmd_n_iso*%
X45463298Y-42493700D02*
X45947798Y-42493700D01*
X44068198Y-40667795D02*
X44068198Y-41098600D01*
X44068198Y-41098600D02*
X45463298Y-42493700D01*
%TO.N,/i_cmd_buf*%
X45542220Y-40263122D02*
X45947798Y-40668700D01*
X44972220Y-38236664D02*
X45542220Y-38806664D01*
X45542220Y-38806664D02*
X45542220Y-40263122D01*
D46*
%TO.N,/iso_gnd*%
X63636001Y-38558600D02*
X64919641Y-37274960D01*
X63397598Y-38558600D02*
X63636001Y-38558600D01*
X63397598Y-38797003D02*
X63397598Y-38558600D01*
D45*
%TO.N,/iso_5v*%
X41173403Y-49262417D02*
X42065586Y-50154600D01*
X42065586Y-50154600D02*
X53069698Y-50154600D01*
X53069698Y-50154600D02*
X54912098Y-48312200D01*
X41173403Y-48854600D02*
X41173403Y-49262417D01*
D46*
X54329798Y-47729900D02*
X54912098Y-48312200D01*
X54329798Y-44985200D02*
X54329798Y-47729900D01*
D45*
%TO.N,+5V*%
X37666227Y-72378600D02*
X34522398Y-69234771D01*
X34522398Y-69234771D02*
X34522398Y-62002800D01*
X34522398Y-62002800D02*
X35457598Y-62002800D01*
X65215489Y-72058813D02*
X64895702Y-72378600D01*
X64895702Y-72378600D02*
X37666227Y-72378600D01*
D46*
X35457598Y-62002800D02*
X41591298Y-62002800D01*
X32143298Y-62002800D02*
X35457598Y-62002800D01*
%TO.N,GND*%
X53237598Y-71578600D02*
X53146298Y-71578600D01*
X50828198Y-66368000D02*
X50828198Y-64089200D01*
X50697598Y-66498600D02*
X50828198Y-66368000D01*
X50828198Y-66629200D02*
X50697598Y-66498600D01*
X50828198Y-63828000D02*
X50828198Y-61060500D01*
X50697598Y-63958600D02*
X50828198Y-63828000D01*
X50828198Y-64089200D02*
X50697598Y-63958600D01*
X45760198Y-61060500D02*
X44767098Y-62053600D01*
X50828198Y-61060500D02*
X45760198Y-61060500D01*
%TO.N,+24V*%
X70689378Y-68908813D02*
X72364585Y-67233606D01*
X70248512Y-68908813D02*
X70689378Y-68908813D01*
%TO.N,/24v_on*%
X71668661Y-69754530D02*
X72364585Y-69058606D01*
X71668661Y-70810843D02*
X71668661Y-69754530D01*
%TO.N,GND*%
X61370873Y-58835500D02*
X62447327Y-59911954D01*
X53053198Y-58835500D02*
X61370873Y-58835500D01*
X50828198Y-61060500D02*
X53053198Y-58835500D01*
X50828198Y-69260500D02*
X50828198Y-66629200D01*
X53146298Y-71578600D02*
X50828198Y-69260500D01*
X56346063Y-71578600D02*
X53237598Y-71578600D01*
X68966631Y-69858813D02*
X58065850Y-69858813D01*
X58065850Y-69858813D02*
X56346063Y-71578600D01*
X69918661Y-70810843D02*
X68966631Y-69858813D01*
X70223512Y-65758813D02*
X70248512Y-65783813D01*
X67515489Y-65758813D02*
X70223512Y-65758813D01*
X67664798Y-65609504D02*
X67515489Y-65758813D01*
X67664798Y-61825000D02*
X67664798Y-65609504D01*
%TO.N,+24V*%
X64315489Y-68908813D02*
X70248512Y-68908813D01*
X62915489Y-65758813D02*
X62915489Y-67508813D01*
X62915489Y-67508813D02*
X64315489Y-68908813D01*
X62447327Y-65290651D02*
X62915489Y-65758813D01*
X62447327Y-63036954D02*
X62447327Y-65290651D01*
X66199281Y-59285000D02*
X67664798Y-59285000D01*
X62447327Y-63036954D02*
X66199281Y-59285000D01*
X55828198Y-65013408D02*
X57804652Y-63036954D01*
X55828198Y-69260500D02*
X55828198Y-65013408D01*
X57804652Y-63036954D02*
X55828198Y-61060500D01*
X62447327Y-63036954D02*
X57804652Y-63036954D01*
%TO.N,+5V*%
X41591298Y-62002800D02*
X41642098Y-62053600D01*
%TO.N,/iso_5v*%
X41515098Y-46280200D02*
X41540498Y-46305600D01*
X32194098Y-46280200D02*
X41515098Y-46280200D01*
X49402198Y-42203100D02*
X54292098Y-42203100D01*
X54329798Y-42165400D02*
X54329798Y-38685200D01*
X54292098Y-42203100D02*
X54329798Y-42165400D01*
%TO.N,/iso_gnd*%
X49402198Y-48145800D02*
X49568598Y-48312200D01*
X49402198Y-45328100D02*
X49402198Y-48145800D01*
X59333598Y-33903069D02*
X58998119Y-33567590D01*
X59333598Y-39713900D02*
X59333598Y-33903069D01*
X62061018Y-39717874D02*
X63337672Y-39717874D01*
X63337672Y-39717874D02*
X67664798Y-44045000D01*
X62476727Y-39717874D02*
X63397598Y-38797003D01*
X62061018Y-39717874D02*
X62476727Y-39717874D01*
X62057044Y-39713900D02*
X62061018Y-39717874D01*
X59333598Y-39713900D02*
X62057044Y-39713900D01*
X51686898Y-45328100D02*
X52029798Y-44985200D01*
X49402198Y-45328100D02*
X51686898Y-45328100D01*
X53918119Y-33567590D02*
X53918119Y-35769879D01*
%TO.N,/iso_12v*%
X57187298Y-44985200D02*
X59333598Y-42838900D01*
X56629798Y-44985200D02*
X57187298Y-44985200D01*
X59384398Y-42889700D02*
X59333598Y-42838900D01*
X59384398Y-45530500D02*
X59384398Y-42889700D01*
X59337572Y-42842874D02*
X59333598Y-42838900D01*
X62061018Y-42842874D02*
X59337572Y-42842874D01*
X62096168Y-45525670D02*
X62096168Y-42878024D01*
X62096168Y-42878024D02*
X62061018Y-42842874D01*
X57175098Y-45530500D02*
X56629798Y-44985200D01*
X59384398Y-45530500D02*
X57175098Y-45530500D01*
X62292298Y-45530500D02*
X59384398Y-45530500D01*
X65886798Y-49125000D02*
X62292298Y-45530500D01*
X67664798Y-49125000D02*
X65886798Y-49125000D01*
D45*
%TO.N,/5v_on*%
X51318598Y-48312200D02*
X53087098Y-48312200D01*
D46*
%TO.N,GND*%
X28726598Y-61711100D02*
X29018298Y-62002800D01*
X28726598Y-59530000D02*
X28726598Y-61711100D01*
%TO.N,+5V*%
X32536598Y-59530000D02*
X32536598Y-61609500D01*
X32536598Y-61609500D02*
X32143298Y-62002800D01*
%TO.N,/iso_gnd*%
X28726598Y-46622700D02*
X29069098Y-46280200D01*
X28726598Y-48880000D02*
X28726598Y-46622700D01*
%TO.N,/iso_5v*%
X32536598Y-46622700D02*
X32194098Y-46280200D01*
X32536598Y-48880000D02*
X32536598Y-46622700D01*
%TO.N,/iso_gnd*%
X44983403Y-46623505D02*
X44665498Y-46305600D01*
X44983403Y-48854600D02*
X44983403Y-46623505D01*
%TO.N,/iso_5v*%
X41173403Y-46672695D02*
X41540498Y-46305600D01*
D45*
X41173403Y-48854600D02*
X41173403Y-46672695D01*
D46*
%TO.N,GND*%
X44983403Y-61837295D02*
X44767098Y-62053600D01*
X44983403Y-59504600D02*
X44983403Y-61837295D01*
%TO.N,+5V*%
X41173403Y-61584905D02*
X41642098Y-62053600D01*
X41173403Y-59504600D02*
X41173403Y-61584905D01*
D45*
%TO.N,/iso_gnd*%
X41822121Y-31130923D02*
X41822121Y-29810884D01*
X41822121Y-29810884D02*
X42105649Y-29527356D01*
X42432220Y-31741022D02*
X41822121Y-31130923D01*
X42432220Y-33286664D02*
X42432220Y-31741022D01*
X42105649Y-29527356D02*
X43002121Y-29527356D01*
%TO.N,/R_SHUNT_HS*%
X35674384Y-31434786D02*
X34121398Y-31434786D01*
X36575198Y-36171000D02*
X36575198Y-32335600D01*
X32179098Y-40567100D02*
X36575198Y-36171000D01*
X36575198Y-32335600D02*
X35674384Y-31434786D01*
X31596798Y-40567100D02*
X32179098Y-40567100D01*
%TO.N,/R_SHUNT_LS*%
X32359198Y-41504600D02*
X37628328Y-36235470D01*
X30654698Y-41504600D02*
X32359198Y-41504600D01*
X37628328Y-36235470D02*
X37628328Y-30378193D01*
X29717198Y-40567100D02*
X30654698Y-41504600D01*
%TO.N,/i_tlm_p*%
X31392498Y-66116500D02*
X33232398Y-67956400D01*
X31392498Y-64034800D02*
X31392498Y-66116500D01*
X33232398Y-67956400D02*
X33232398Y-68098800D01*
%TO.N,/i_tlm_n*%
X30692398Y-65059700D02*
X30692398Y-68098800D01*
X29667498Y-64034800D02*
X30692398Y-65059700D01*
%TO.N,/i_cmd_n*%
X37466098Y-66405100D02*
X35772398Y-68098800D01*
X37466098Y-65203200D02*
X37466098Y-66405100D01*
%TO.N,/i_cmd_p*%
X38353598Y-68057600D02*
X38312398Y-68098800D01*
X38353598Y-64701639D02*
X38353598Y-68057600D01*
X37491498Y-63450600D02*
X37491498Y-63839539D01*
X37491498Y-63839539D02*
X38353598Y-64701639D01*
%TO.N,/i_cmd_n_prebuf*%
X41122078Y-65635280D02*
X43179478Y-65635280D01*
X39291098Y-65203200D02*
X40689998Y-65203200D01*
X40689998Y-65203200D02*
X41122078Y-65635280D01*
%TO.N,/i_cmd_p_prebuf*%
X40994798Y-63450600D02*
X41959718Y-64415520D01*
X39316498Y-63450600D02*
X40994798Y-63450600D01*
%TO.N,/i_cmd_n_prebuf*%
X43704598Y-65110160D02*
X43179478Y-65635280D01*
X43713403Y-59504600D02*
X43704598Y-59513405D01*
X43704598Y-59513405D02*
X43704598Y-65110160D01*
%TO.N,/i_cmd_p_prebuf*%
X42704598Y-63670640D02*
X41959718Y-64415520D01*
X42704598Y-59765795D02*
X42704598Y-63670640D01*
X42443403Y-59504600D02*
X42704598Y-59765795D01*
%TO.N,/i_tlm_p*%
X31080798Y-59715800D02*
X31080798Y-63723100D01*
X31080798Y-63723100D02*
X31392498Y-64034800D01*
X31266598Y-59530000D02*
X31080798Y-59715800D01*
%TO.N,/i_tlm_n*%
X30080798Y-63621500D02*
X29667498Y-64034800D01*
X30080798Y-59614200D02*
X30080798Y-63621500D01*
X29996598Y-59530000D02*
X30080798Y-59614200D01*
%TO.N,/R_SHUNT_LS_prebuf*%
X29717198Y-44170900D02*
X29769098Y-44222800D01*
X29717198Y-42392100D02*
X29717198Y-44170900D01*
%TO.N,/R_SHUNT_HS_prebuf*%
X31596798Y-42392100D02*
X31596798Y-44120100D01*
X31596798Y-44120100D02*
X31494098Y-44222800D01*
X31131598Y-48745000D02*
X31131598Y-44585300D01*
X31131598Y-44585300D02*
X31494098Y-44222800D01*
X31266598Y-48880000D02*
X31131598Y-48745000D01*
%TO.N,/R_SHUNT_LS_prebuf*%
X30131598Y-44585300D02*
X29769098Y-44222800D01*
X30131598Y-48745000D02*
X30131598Y-44585300D01*
X29996598Y-48880000D02*
X30131598Y-48745000D01*
%TO.N,/i_cmd_p_iso*%
X40359798Y-40668700D02*
X42213998Y-40668700D01*
%TO.N,/i_cmd_n_iso_prebuf*%
X43602998Y-48744195D02*
X43602998Y-44610700D01*
X43713403Y-48854600D02*
X43602998Y-48744195D01*
X43602998Y-44610700D02*
X43990898Y-44222800D01*
%TO.N,/i_cmd_p_iso_prebuf*%
X42602998Y-44559900D02*
X42265898Y-44222800D01*
X42602998Y-48695005D02*
X42602998Y-44559900D01*
X42443403Y-48854600D02*
X42602998Y-48695005D01*
%TO.N,/i_cmd_n_iso_prebuf*%
X44068198Y-44145500D02*
X43990898Y-44222800D01*
X44068198Y-42492795D02*
X44068198Y-44145500D01*
%TO.N,/i_cmd_p_iso_prebuf*%
X42213998Y-44170900D02*
X42265898Y-44222800D01*
X42213998Y-42493700D02*
X42213998Y-44170900D01*
%TO.N,/i_cmd_n_iso*%
X43702220Y-40301817D02*
X44068198Y-40667795D01*
X43702220Y-38236664D02*
X43702220Y-40301817D01*
%TO.N,/i_cmd_p_iso*%
X42432220Y-40450478D02*
X42213998Y-40668700D01*
X42432220Y-38236664D02*
X42432220Y-40450478D01*
%TO.N,/i_cmd_buf*%
X44972220Y-37753847D02*
X44972220Y-38236664D01*
X45864403Y-36861664D02*
X44972220Y-37753847D01*
X47062573Y-36861664D02*
X45864403Y-36861664D01*
X48036040Y-37835131D02*
X47062573Y-36861664D01*
%TO.N,/i_cmd_single_iso*%
X49735515Y-36010131D02*
X49785515Y-36060131D01*
X48036040Y-36010131D02*
X49735515Y-36010131D01*
X47212870Y-36010131D02*
X48036040Y-36010131D01*
X44972220Y-33769481D02*
X47212870Y-36010131D01*
X44972220Y-33286664D02*
X44972220Y-33769481D01*
%TO.N,/to_gate*%
X47104502Y-34148946D02*
X46242220Y-33286664D01*
X48845724Y-34148946D02*
X47104502Y-34148946D01*
%TO.N,/gate*%
X52588852Y-32323946D02*
X52627998Y-32284800D01*
X48845724Y-32323946D02*
X52588852Y-32323946D01*
X47317498Y-30795720D02*
X48845724Y-32323946D01*
X47317498Y-30583000D02*
X47317498Y-30795720D01*
%TO.N,/r_c_gate*%
X47242098Y-28833400D02*
X45492498Y-30583000D01*
X47242098Y-28449400D02*
X47242098Y-28833400D01*
%TO.N,/R_SHUNT_LS*%
X45517098Y-23701272D02*
X44814602Y-22998776D01*
X45517098Y-28449400D02*
X45517098Y-23701272D01*
%TO.N,/i_fb*%
X43702220Y-30979022D02*
X43200554Y-30477356D01*
X43200554Y-30477356D02*
X43002121Y-30477356D01*
X43702220Y-33286664D02*
X43702220Y-30979022D01*
%TO.N,/R_SHUNT_LS*%
X41482121Y-29302356D02*
X41482121Y-26331257D01*
X41477121Y-29302356D02*
X41482121Y-29302356D01*
X41482121Y-26331257D02*
X41532121Y-26281257D01*
X40302121Y-30477356D02*
X41477121Y-29302356D01*
D48*
X41532121Y-26281257D02*
X44814602Y-22998776D01*
X40202958Y-30378193D02*
X40302121Y-30477356D01*
X37628328Y-30378193D02*
X40202958Y-30378193D01*
%TO.N,/R_SHUNT_HS*%
X34300154Y-28577356D02*
X34121398Y-28398600D01*
D44*
X34121398Y-28398600D02*
X34121398Y-25589089D01*
X34121398Y-31434786D02*
X34121398Y-28398600D01*
D48*
X40302121Y-28577356D02*
X34300154Y-28577356D01*
D44*
%TO.N,/to_eload*%
X68901641Y-23181641D02*
X68580000Y-22860000D01*
X68901641Y-36354960D02*
X68901641Y-23181641D01*
%TO.N,/R_SHUNT_HS*%
X28177556Y-37378628D02*
X34121398Y-31434786D01*
%TO.N,/R_SHUNT_LS*%
X55039305Y-22998776D02*
X56458119Y-24417590D01*
X44814602Y-22998776D02*
X55039305Y-22998776D01*
%TO.N,/R_SHUNT_HS*%
X34121398Y-25589089D02*
X36711711Y-22998776D01*
%TO.N,/from_dut*%
X28380897Y-23300897D02*
X27940000Y-22860000D01*
%TD*%
%TA.AperFunction,Conductor*%
%TO.N,/iso_gnd*%
G36*
X65880637Y-28418285D02*
G01*
X65926392Y-28471089D01*
X65937598Y-28522599D01*
X65937598Y-30938600D01*
X60857598Y-30938600D01*
X63361278Y-28434919D01*
X63422602Y-28401434D01*
X63448960Y-28398600D01*
X65813598Y-28398600D01*
X65880637Y-28418285D01*
G37*
%TD.AperFunction*%
%TD*%
%TA.AperFunction,Conductor*%
%TO.N,GND*%
G36*
X29139137Y-58898285D02*
G01*
X29184892Y-58951089D01*
X29196098Y-59002600D01*
X29196098Y-60345701D01*
X29198999Y-60382567D01*
X29199000Y-60382573D01*
X29244852Y-60540393D01*
X29244853Y-60540396D01*
X29244854Y-60540398D01*
X29328517Y-60681865D01*
X29328521Y-60681869D01*
X29343977Y-60697325D01*
X29377464Y-60758647D01*
X29380298Y-60785008D01*
X29380298Y-62940991D01*
X29360613Y-63008030D01*
X29307809Y-63053785D01*
X29268900Y-63064349D01*
X29217245Y-63069626D01*
X29053482Y-63123892D01*
X29053479Y-63123893D01*
X28906646Y-63214461D01*
X28784659Y-63336448D01*
X28694091Y-63483281D01*
X28694089Y-63483284D01*
X28694090Y-63483284D01*
X28639824Y-63647047D01*
X28639824Y-63647048D01*
X28639823Y-63647048D01*
X28629498Y-63748115D01*
X28629498Y-64321469D01*
X28629499Y-64321487D01*
X28639823Y-64422552D01*
X28670949Y-64516482D01*
X28694090Y-64586316D01*
X28784658Y-64733150D01*
X28906648Y-64855140D01*
X29053482Y-64945708D01*
X29217245Y-64999974D01*
X29318321Y-65010300D01*
X29600978Y-65010299D01*
X29668017Y-65029983D01*
X29688659Y-65046618D01*
X29955579Y-65313537D01*
X29989064Y-65374860D01*
X29991898Y-65401218D01*
X29991898Y-66803718D01*
X29972213Y-66870757D01*
X29939023Y-66905292D01*
X29842570Y-66972830D01*
X29675480Y-67139919D01*
X29539940Y-67333491D01*
X29539939Y-67333493D01*
X29440073Y-67547657D01*
X29440069Y-67547666D01*
X29378913Y-67775908D01*
X29378911Y-67775918D01*
X29358316Y-68011321D01*
X29358316Y-68011322D01*
X29378911Y-68246725D01*
X29378913Y-68246735D01*
X29440069Y-68474977D01*
X29440071Y-68474981D01*
X29440072Y-68474985D01*
X29519979Y-68646345D01*
X29539940Y-68689152D01*
X29539942Y-68689156D01*
X29648256Y-68843843D01*
X29675480Y-68882723D01*
X29842574Y-69049817D01*
X29913964Y-69099805D01*
X30036140Y-69185354D01*
X30036142Y-69185355D01*
X30036145Y-69185357D01*
X30250312Y-69285225D01*
X30250318Y-69285226D01*
X30250319Y-69285227D01*
X30289939Y-69295843D01*
X30478567Y-69346385D01*
X30666893Y-69362861D01*
X30713974Y-69366981D01*
X30713975Y-69366981D01*
X30713976Y-69366981D01*
X30753209Y-69363548D01*
X30949383Y-69346385D01*
X31177638Y-69285225D01*
X31391805Y-69185357D01*
X31585376Y-69049817D01*
X31752470Y-68882723D01*
X31882399Y-68697164D01*
X31936977Y-68653539D01*
X32006475Y-68646345D01*
X32068830Y-68677868D01*
X32085550Y-68697164D01*
X32215475Y-68882717D01*
X32215480Y-68882723D01*
X32382574Y-69049817D01*
X32453964Y-69099805D01*
X32576140Y-69185354D01*
X32576142Y-69185355D01*
X32576145Y-69185357D01*
X32790312Y-69285225D01*
X32790318Y-69285226D01*
X32790319Y-69285227D01*
X32829939Y-69295843D01*
X33018567Y-69346385D01*
X33206893Y-69362861D01*
X33253974Y-69366981D01*
X33253975Y-69366981D01*
X33253976Y-69366981D01*
X33293209Y-69363548D01*
X33489383Y-69346385D01*
X33681593Y-69294883D01*
X33751440Y-69296546D01*
X33809303Y-69335708D01*
X33835352Y-69396384D01*
X33835462Y-69396357D01*
X33835625Y-69397020D01*
X33836779Y-69399707D01*
X33837256Y-69403634D01*
X33837258Y-69403645D01*
X33840849Y-69413114D01*
X33846872Y-69434717D01*
X33848702Y-69444701D01*
X33874157Y-69501261D01*
X33875587Y-69504712D01*
X33897580Y-69562701D01*
X33897581Y-69562702D01*
X33903334Y-69571037D01*
X33914359Y-69590584D01*
X33918518Y-69599826D01*
X33918522Y-69599831D01*
X33956769Y-69648649D01*
X33958989Y-69651667D01*
X33994210Y-69702695D01*
X33994214Y-69702699D01*
X33994215Y-69702700D01*
X34040648Y-69743835D01*
X34043339Y-69746369D01*
X37154619Y-72857648D01*
X37157155Y-72860342D01*
X37198298Y-72906783D01*
X37245858Y-72939611D01*
X37249342Y-72942016D01*
X37252347Y-72944226D01*
X37301171Y-72982478D01*
X37301173Y-72982479D01*
X37301176Y-72982481D01*
X37310404Y-72986634D01*
X37329958Y-72997662D01*
X37338293Y-73003416D01*
X37338295Y-73003416D01*
X37338297Y-73003418D01*
X37396306Y-73025417D01*
X37399703Y-73026824D01*
X37446997Y-73048109D01*
X37456291Y-73052293D01*
X37456292Y-73052293D01*
X37456296Y-73052295D01*
X37466261Y-73054121D01*
X37487883Y-73060148D01*
X37491004Y-73061331D01*
X37497355Y-73063740D01*
X37542478Y-73069218D01*
X37558901Y-73071213D01*
X37562598Y-73071775D01*
X37623621Y-73082958D01*
X37678979Y-73079609D01*
X37685530Y-73079213D01*
X37689275Y-73079100D01*
X62702781Y-73079100D01*
X62769820Y-73098785D01*
X62815575Y-73151589D01*
X62818963Y-73159767D01*
X62871691Y-73301141D01*
X62871695Y-73301148D01*
X62957941Y-73416357D01*
X62957944Y-73416360D01*
X63073153Y-73502606D01*
X63073160Y-73502610D01*
X63208006Y-73552904D01*
X63208005Y-73552904D01*
X63214933Y-73553648D01*
X63267616Y-73559313D01*
X67163361Y-73559312D01*
X67222972Y-73552904D01*
X67357820Y-73502609D01*
X67473035Y-73416359D01*
X67559285Y-73301144D01*
X67609580Y-73166296D01*
X67615989Y-73106686D01*
X67615989Y-72883313D01*
X67635674Y-72816274D01*
X67688478Y-72770519D01*
X67739989Y-72759313D01*
X71824204Y-72759313D01*
X71827949Y-72759426D01*
X71835294Y-72759870D01*
X71889858Y-72763171D01*
X71927566Y-72756260D01*
X71950873Y-72751990D01*
X71954577Y-72751426D01*
X71972422Y-72749259D01*
X72016124Y-72743953D01*
X72025587Y-72740363D01*
X72047213Y-72734335D01*
X72048145Y-72734164D01*
X72057184Y-72732508D01*
X72113764Y-72707042D01*
X72117194Y-72705622D01*
X72175182Y-72683631D01*
X72183518Y-72677875D01*
X72203073Y-72666847D01*
X72212309Y-72662691D01*
X72261148Y-72624426D01*
X72264128Y-72622234D01*
X72315181Y-72586996D01*
X72356317Y-72540561D01*
X72358851Y-72537869D01*
X73884254Y-71012466D01*
X73886946Y-71009932D01*
X73933381Y-70968796D01*
X73968625Y-70917733D01*
X73970815Y-70914757D01*
X74009075Y-70865924D01*
X74013227Y-70856695D01*
X74024260Y-70837135D01*
X74024617Y-70836617D01*
X74030016Y-70828797D01*
X74052010Y-70770800D01*
X74053429Y-70767372D01*
X74078892Y-70710799D01*
X74080718Y-70700832D01*
X74086746Y-70679207D01*
X74090338Y-70669739D01*
X74096982Y-70615017D01*
X74097813Y-70608176D01*
X74098377Y-70604472D01*
X74102654Y-70581125D01*
X74109555Y-70543473D01*
X74105811Y-70481574D01*
X74105698Y-70477830D01*
X74105698Y-66044730D01*
X74096381Y-66006934D01*
X74095030Y-65999560D01*
X74090338Y-65960917D01*
X74090338Y-65960915D01*
X74076527Y-65924499D01*
X74074308Y-65917377D01*
X74064988Y-65879562D01*
X74046885Y-65845070D01*
X74043825Y-65838271D01*
X74030016Y-65801857D01*
X74007892Y-65769805D01*
X74004021Y-65763401D01*
X73985934Y-65728938D01*
X73985930Y-65728932D01*
X73971348Y-65712472D01*
X73960114Y-65699792D01*
X73955497Y-65693898D01*
X73933383Y-65661860D01*
X73931770Y-65660431D01*
X73904235Y-65636037D01*
X73898941Y-65630742D01*
X73873131Y-65601608D01*
X73873128Y-65601606D01*
X73873127Y-65601604D01*
X73873123Y-65601601D01*
X73841080Y-65579482D01*
X73835184Y-65574862D01*
X73806049Y-65549052D01*
X73806046Y-65549050D01*
X73771585Y-65530964D01*
X73765172Y-65527087D01*
X73733131Y-65504970D01*
X73733129Y-65504969D01*
X73696722Y-65491161D01*
X73689891Y-65488086D01*
X73655424Y-65469997D01*
X73655419Y-65469996D01*
X73639138Y-65465983D01*
X73617622Y-65460679D01*
X73610474Y-65458452D01*
X73574074Y-65444648D01*
X73574067Y-65444646D01*
X73535421Y-65439953D01*
X73528053Y-65438603D01*
X73490256Y-65429287D01*
X73490254Y-65429287D01*
X73447570Y-65429287D01*
X72102391Y-65429287D01*
X72098646Y-65429174D01*
X72036739Y-65425429D01*
X72036732Y-65425429D01*
X71975729Y-65436608D01*
X71972028Y-65437171D01*
X71910471Y-65444646D01*
X71910464Y-65444648D01*
X71900990Y-65448241D01*
X71879392Y-65454262D01*
X71869412Y-65456091D01*
X71812862Y-65481542D01*
X71809403Y-65482975D01*
X71751414Y-65504968D01*
X71751406Y-65504972D01*
X71743064Y-65510730D01*
X71723532Y-65521747D01*
X71714289Y-65525907D01*
X71665478Y-65564147D01*
X71662463Y-65566366D01*
X71611415Y-65601603D01*
X71611408Y-65601609D01*
X71570278Y-65648035D01*
X71567711Y-65650761D01*
X70212092Y-67006381D01*
X70150769Y-67039866D01*
X70124411Y-67042700D01*
X67291395Y-67042700D01*
X67224356Y-67023015D01*
X67203714Y-67006381D01*
X66502307Y-66304974D01*
X66468822Y-66243651D01*
X66465988Y-66217293D01*
X66465988Y-64710942D01*
X66465987Y-64710936D01*
X66459580Y-64651329D01*
X66409286Y-64516484D01*
X66409282Y-64516477D01*
X66323036Y-64401268D01*
X66323033Y-64401265D01*
X66207824Y-64315019D01*
X66207817Y-64315015D01*
X66072971Y-64264721D01*
X66072972Y-64264721D01*
X66013372Y-64258314D01*
X66013370Y-64258313D01*
X66013362Y-64258313D01*
X66013353Y-64258313D01*
X64417618Y-64258313D01*
X64417612Y-64258314D01*
X64358005Y-64264721D01*
X64223160Y-64315015D01*
X64223158Y-64315016D01*
X64139800Y-64377419D01*
X64074336Y-64401836D01*
X64006063Y-64386985D01*
X63991178Y-64377419D01*
X63907819Y-64315016D01*
X63907817Y-64315015D01*
X63772971Y-64264721D01*
X63772972Y-64264721D01*
X63713372Y-64258314D01*
X63713370Y-64258313D01*
X63713362Y-64258313D01*
X63713354Y-64258313D01*
X63649198Y-64258313D01*
X63582159Y-64238628D01*
X63536404Y-64185824D01*
X63526460Y-64116666D01*
X63555485Y-64053110D01*
X63561517Y-64046632D01*
X63606034Y-64002115D01*
X63690039Y-63918110D01*
X63782141Y-63768788D01*
X63837326Y-63602251D01*
X63847827Y-63499463D01*
X63847826Y-62925958D01*
X63867510Y-62858920D01*
X63884140Y-62838283D01*
X66455590Y-60266833D01*
X66516911Y-60233350D01*
X66586603Y-60238334D01*
X66634498Y-60270533D01*
X66696021Y-60337364D01*
X66696025Y-60337368D01*
X66882452Y-60482470D01*
X67090219Y-60594908D01*
X67313659Y-60671616D01*
X67546678Y-60710500D01*
X67546679Y-60710500D01*
X67782917Y-60710500D01*
X67782918Y-60710500D01*
X68015937Y-60671616D01*
X68239377Y-60594908D01*
X68447144Y-60482470D01*
X68633571Y-60337368D01*
X68793573Y-60163561D01*
X68922784Y-59965788D01*
X69017681Y-59749445D01*
X69075674Y-59520434D01*
X69095183Y-59285000D01*
X69086030Y-59174547D01*
X69075674Y-59049569D01*
X69075674Y-59049566D01*
X69071489Y-59033039D01*
X69074114Y-58963220D01*
X69114071Y-58905902D01*
X69178672Y-58879286D01*
X69191695Y-58878600D01*
X76075500Y-58878600D01*
X76142539Y-58898285D01*
X76188294Y-58951089D01*
X76199500Y-59002600D01*
X76199500Y-66497532D01*
X76199464Y-66499649D01*
X76188510Y-66820279D01*
X76181338Y-67021092D01*
X76181053Y-67025220D01*
X76151410Y-67313560D01*
X76125957Y-67550310D01*
X76125410Y-67554218D01*
X76077422Y-67832542D01*
X76033798Y-68074337D01*
X76033020Y-68078008D01*
X75966852Y-68349530D01*
X75905319Y-68590614D01*
X75904340Y-68594038D01*
X75820271Y-68858918D01*
X75741150Y-69096639D01*
X75739999Y-69099805D01*
X75638404Y-69357434D01*
X75542076Y-69589990D01*
X75540786Y-69592892D01*
X75422392Y-69841839D01*
X75421843Y-69842963D01*
X75309109Y-70068176D01*
X75307710Y-70070811D01*
X75172820Y-70310714D01*
X75172098Y-70311964D01*
X75043359Y-70528942D01*
X75041881Y-70531309D01*
X74891108Y-70761181D01*
X74890193Y-70762537D01*
X74746138Y-70970015D01*
X74744612Y-70972118D01*
X74578645Y-71190978D01*
X74577519Y-71192418D01*
X74418904Y-71389249D01*
X74417358Y-71391093D01*
X74236911Y-71598037D01*
X74235559Y-71599538D01*
X74063246Y-71784616D01*
X74061709Y-71786209D01*
X73867609Y-71980309D01*
X73866016Y-71981846D01*
X73680938Y-72154159D01*
X73679437Y-72155511D01*
X73472493Y-72335958D01*
X73470649Y-72337504D01*
X73273818Y-72496119D01*
X73272378Y-72497245D01*
X73053518Y-72663212D01*
X73051415Y-72664738D01*
X72843937Y-72808793D01*
X72842581Y-72809708D01*
X72612709Y-72960481D01*
X72610342Y-72961959D01*
X72393364Y-73090698D01*
X72392114Y-73091420D01*
X72152211Y-73226310D01*
X72149576Y-73227709D01*
X71924363Y-73340443D01*
X71923239Y-73340992D01*
X71674292Y-73459386D01*
X71671390Y-73460676D01*
X71438834Y-73557004D01*
X71181205Y-73658599D01*
X71178039Y-73659750D01*
X70940318Y-73738871D01*
X70675438Y-73822940D01*
X70672014Y-73823919D01*
X70430930Y-73885452D01*
X70159408Y-73951620D01*
X70155737Y-73952398D01*
X69913942Y-73996022D01*
X69635618Y-74044010D01*
X69631710Y-74044557D01*
X69394960Y-74070010D01*
X69106620Y-74099653D01*
X69102492Y-74099938D01*
X68901870Y-74107103D01*
X68581049Y-74118064D01*
X68578932Y-74118100D01*
X27941067Y-74118100D01*
X27938950Y-74118064D01*
X27619188Y-74107139D01*
X27619141Y-74107139D01*
X27619097Y-74107137D01*
X27618616Y-74107120D01*
X27618225Y-74107107D01*
X27618225Y-74107106D01*
X27417506Y-74099938D01*
X27413378Y-74099653D01*
X27125144Y-74070021D01*
X26888288Y-74044558D01*
X26884379Y-74044011D01*
X26605989Y-73996011D01*
X26364262Y-73952397D01*
X26360591Y-73951620D01*
X26089030Y-73885443D01*
X25935562Y-73846273D01*
X25847991Y-73823922D01*
X25844585Y-73822948D01*
X25579671Y-73738868D01*
X25471257Y-73702784D01*
X25341961Y-73659750D01*
X25338795Y-73658600D01*
X25081155Y-73557001D01*
X24848614Y-73460679D01*
X24845712Y-73459389D01*
X24596746Y-73340985D01*
X24595622Y-73340437D01*
X24370423Y-73227710D01*
X24367789Y-73226311D01*
X24127884Y-73091420D01*
X24126634Y-73090698D01*
X24016588Y-73025405D01*
X23909632Y-72961945D01*
X23907273Y-72960472D01*
X23882519Y-72944236D01*
X23677434Y-72809720D01*
X23676078Y-72808805D01*
X23468595Y-72664747D01*
X23466492Y-72663221D01*
X23247605Y-72497234D01*
X23246165Y-72496108D01*
X23049340Y-72337497D01*
X23047531Y-72335980D01*
X22840560Y-72155511D01*
X22839075Y-72154173D01*
X22653982Y-71981846D01*
X22652417Y-71980336D01*
X22458261Y-71786180D01*
X22456752Y-71784616D01*
X22284425Y-71599523D01*
X22283073Y-71598022D01*
X22244775Y-71554100D01*
X22102610Y-71391058D01*
X22101116Y-71389276D01*
X21952795Y-71205221D01*
X21942490Y-71192433D01*
X21941364Y-71190993D01*
X21903126Y-71140569D01*
X21775373Y-70972100D01*
X21773851Y-70970003D01*
X21629793Y-70762520D01*
X21628897Y-70761192D01*
X21478107Y-70531294D01*
X21476669Y-70528991D01*
X21347877Y-70311924D01*
X21347178Y-70310714D01*
X21212287Y-70070809D01*
X21210888Y-70068175D01*
X21207453Y-70061312D01*
X21098136Y-69842926D01*
X21097613Y-69841852D01*
X21087521Y-69820632D01*
X20979197Y-69592859D01*
X20977922Y-69589990D01*
X20881594Y-69357434D01*
X20779998Y-69099803D01*
X20778849Y-69096639D01*
X20699728Y-68858918D01*
X20615637Y-68593968D01*
X20614689Y-68590654D01*
X20553165Y-68349605D01*
X20486975Y-68077994D01*
X20486200Y-68074337D01*
X20442576Y-67832542D01*
X20441278Y-67825014D01*
X20394581Y-67554179D01*
X20394045Y-67550350D01*
X20368577Y-67313454D01*
X20363938Y-67268329D01*
X20338942Y-67025180D01*
X20338661Y-67021118D01*
X20331489Y-66820278D01*
X20320536Y-66499649D01*
X20320500Y-66497533D01*
X20320500Y-59002600D01*
X20340185Y-58935561D01*
X20392989Y-58889806D01*
X20444500Y-58878600D01*
X29072098Y-58878600D01*
X29139137Y-58898285D01*
G37*
%TD.AperFunction*%
%TA.AperFunction,Conductor*%
G36*
X55111756Y-58898285D02*
G01*
X55157511Y-58951089D01*
X55167455Y-59020247D01*
X55138430Y-59083803D01*
X55109733Y-59108187D01*
X55042187Y-59149778D01*
X54992401Y-59180432D01*
X54813443Y-59337935D01*
X54741127Y-59427497D01*
X54663675Y-59523420D01*
X54663673Y-59523422D01*
X54663674Y-59523422D01*
X54547408Y-59731544D01*
X54467986Y-59956329D01*
X54427698Y-60191290D01*
X54427698Y-61870015D01*
X54442850Y-62048036D01*
X54502922Y-62278748D01*
X54601117Y-62495980D01*
X54601122Y-62495988D01*
X54734611Y-62693493D01*
X54734616Y-62693498D01*
X54734619Y-62693503D01*
X54899577Y-62865618D01*
X55091251Y-63007379D01*
X55304124Y-63114707D01*
X55532075Y-63184516D01*
X55768544Y-63214798D01*
X56006730Y-63204680D01*
X56095130Y-63185628D01*
X56164811Y-63190747D01*
X56220664Y-63232726D01*
X56244955Y-63298237D01*
X56229972Y-63366481D01*
X56208935Y-63394526D01*
X55236071Y-64367390D01*
X55232368Y-64370804D01*
X55188839Y-64407778D01*
X55138893Y-64473481D01*
X55137859Y-64474804D01*
X55086168Y-64539109D01*
X55086166Y-64539112D01*
X55086077Y-64539293D01*
X55073727Y-64559204D01*
X55073598Y-64559372D01*
X55073598Y-64559373D01*
X55038939Y-64634286D01*
X55038214Y-64635798D01*
X55001556Y-64709715D01*
X55001552Y-64709727D01*
X55001507Y-64709911D01*
X54993725Y-64732017D01*
X54993639Y-64732202D01*
X54993633Y-64732218D01*
X54975890Y-64812822D01*
X54975508Y-64814454D01*
X54955597Y-64894519D01*
X54955592Y-64894718D01*
X54952743Y-64917983D01*
X54952698Y-64918186D01*
X54952698Y-65000710D01*
X54952675Y-65002389D01*
X54950441Y-65084880D01*
X54950476Y-65085063D01*
X54952698Y-65108431D01*
X54952698Y-67359323D01*
X54933013Y-67426362D01*
X54910623Y-67452406D01*
X54813442Y-67537937D01*
X54813439Y-67537939D01*
X54663676Y-67723418D01*
X54547408Y-67931544D01*
X54467986Y-68156329D01*
X54427698Y-68391290D01*
X54427698Y-70070015D01*
X54442850Y-70248036D01*
X54502922Y-70478748D01*
X54601117Y-70695980D01*
X54601122Y-70695988D01*
X54734611Y-70893493D01*
X54734616Y-70893498D01*
X54734619Y-70893503D01*
X54899577Y-71065618D01*
X55091251Y-71207379D01*
X55304124Y-71314707D01*
X55532075Y-71384516D01*
X55768544Y-71414798D01*
X56006730Y-71404680D01*
X56239779Y-71354454D01*
X56460988Y-71265564D01*
X56663993Y-71140569D01*
X56842953Y-70983064D01*
X56992721Y-70797580D01*
X57108988Y-70589454D01*
X57188409Y-70364671D01*
X57206472Y-70259327D01*
X57228697Y-70129709D01*
X57228698Y-70129698D01*
X57228698Y-68451003D01*
X57228697Y-68450984D01*
X57213545Y-68272963D01*
X57153473Y-68042251D01*
X57055278Y-67825019D01*
X57055273Y-67825011D01*
X56921784Y-67627506D01*
X56921780Y-67627501D01*
X56921777Y-67627497D01*
X56756819Y-67455382D01*
X56756818Y-67455381D01*
X56756815Y-67455378D01*
X56753959Y-67453266D01*
X56753046Y-67452062D01*
X56752865Y-67451902D01*
X56752897Y-67451864D01*
X56711767Y-67397574D01*
X56703698Y-67353574D01*
X56703698Y-65427413D01*
X56723383Y-65360374D01*
X56740017Y-65339732D01*
X58130977Y-63948773D01*
X58192300Y-63915288D01*
X58218658Y-63912454D01*
X61147597Y-63912454D01*
X61214636Y-63932139D01*
X61235278Y-63948773D01*
X61328671Y-64042166D01*
X61477993Y-64134268D01*
X61486825Y-64137194D01*
X61544271Y-64176962D01*
X61571098Y-64241476D01*
X61571827Y-64254902D01*
X61571827Y-65252548D01*
X61571622Y-65257582D01*
X61566987Y-65314495D01*
X61578128Y-65396272D01*
X61578332Y-65397937D01*
X61587254Y-65479967D01*
X61587256Y-65479978D01*
X61587317Y-65480157D01*
X61592667Y-65502982D01*
X61592693Y-65503176D01*
X61592695Y-65503186D01*
X61592696Y-65503188D01*
X61609545Y-65549050D01*
X61621157Y-65580658D01*
X61621714Y-65582241D01*
X61648058Y-65660427D01*
X61650881Y-65666528D01*
X61649488Y-65667172D01*
X61664989Y-65722995D01*
X61664989Y-66806683D01*
X61664990Y-66806689D01*
X61671397Y-66866296D01*
X61721691Y-67001141D01*
X61721695Y-67001148D01*
X61807941Y-67116357D01*
X61807944Y-67116360D01*
X61923153Y-67202606D01*
X61923162Y-67202611D01*
X61959320Y-67216097D01*
X62015254Y-67257967D01*
X62039672Y-67323432D01*
X62039988Y-67332279D01*
X62039988Y-67470710D01*
X62039783Y-67475743D01*
X62035149Y-67532656D01*
X62046290Y-67614434D01*
X62046494Y-67616099D01*
X62055416Y-67698129D01*
X62055418Y-67698140D01*
X62055479Y-67698319D01*
X62060829Y-67721144D01*
X62060855Y-67721338D01*
X62060857Y-67721348D01*
X62060858Y-67721350D01*
X62078181Y-67768503D01*
X62089319Y-67798820D01*
X62089876Y-67800403D01*
X62116220Y-67878589D01*
X62116223Y-67878595D01*
X62116321Y-67878758D01*
X62126458Y-67899912D01*
X62126525Y-67900096D01*
X62126529Y-67900103D01*
X62170987Y-67969659D01*
X62171871Y-67971085D01*
X62194432Y-68008580D01*
X62209313Y-68033313D01*
X62214401Y-68041768D01*
X62214531Y-68041905D01*
X62228984Y-68060392D01*
X62229090Y-68060558D01*
X62287441Y-68118909D01*
X62288613Y-68120113D01*
X62345355Y-68180016D01*
X62345357Y-68180017D01*
X62345360Y-68180020D01*
X62345517Y-68180127D01*
X62363610Y-68195078D01*
X63669481Y-69500949D01*
X63672885Y-69504642D01*
X63709851Y-69548163D01*
X63709855Y-69548167D01*
X63709858Y-69548170D01*
X63775612Y-69598154D01*
X63776824Y-69599101D01*
X63813772Y-69628802D01*
X63841191Y-69650843D01*
X63841361Y-69650927D01*
X63861303Y-69663296D01*
X63861460Y-69663415D01*
X63936394Y-69698083D01*
X63937855Y-69698783D01*
X64011796Y-69735454D01*
X64011970Y-69735497D01*
X64034115Y-69743293D01*
X64034292Y-69743375D01*
X64034295Y-69743375D01*
X64034296Y-69743376D01*
X64041956Y-69745062D01*
X64114921Y-69761122D01*
X64116512Y-69761496D01*
X64144448Y-69768443D01*
X64196600Y-69781413D01*
X64196773Y-69781417D01*
X64220091Y-69784273D01*
X64220273Y-69784313D01*
X64302792Y-69784313D01*
X64304471Y-69784336D01*
X64339874Y-69785294D01*
X64386962Y-69786570D01*
X64387144Y-69786534D01*
X64410512Y-69784313D01*
X68948782Y-69784313D01*
X69015821Y-69803998D01*
X69036463Y-69820632D01*
X69129856Y-69914025D01*
X69279178Y-70006127D01*
X69445715Y-70061312D01*
X69548503Y-70071813D01*
X70601238Y-70071812D01*
X70668277Y-70091496D01*
X70714032Y-70144300D01*
X70723976Y-70213459D01*
X70709882Y-70252347D01*
X70710807Y-70252779D01*
X70707752Y-70259327D01*
X70707753Y-70259327D01*
X70653487Y-70423090D01*
X70653487Y-70423091D01*
X70653486Y-70423091D01*
X70643161Y-70524158D01*
X70643161Y-71097512D01*
X70643162Y-71097530D01*
X70653486Y-71198595D01*
X70654905Y-71205221D01*
X70652756Y-71205680D01*
X70654794Y-71265154D01*
X70619054Y-71325191D01*
X70556529Y-71356375D01*
X70534691Y-71358313D01*
X67739988Y-71358313D01*
X67672949Y-71338628D01*
X67627194Y-71285824D01*
X67615988Y-71234313D01*
X67615988Y-71010942D01*
X67615987Y-71010936D01*
X67615986Y-71010929D01*
X67609580Y-70951330D01*
X67597055Y-70917750D01*
X67559286Y-70816484D01*
X67559282Y-70816477D01*
X67473036Y-70701268D01*
X67473033Y-70701265D01*
X67357824Y-70615019D01*
X67357817Y-70615015D01*
X67222971Y-70564721D01*
X67222972Y-70564721D01*
X67163372Y-70558314D01*
X67163370Y-70558313D01*
X67163362Y-70558313D01*
X67163353Y-70558313D01*
X63267618Y-70558313D01*
X63267612Y-70558314D01*
X63208005Y-70564721D01*
X63073160Y-70615015D01*
X63073153Y-70615019D01*
X62957944Y-70701265D01*
X62957941Y-70701268D01*
X62871695Y-70816477D01*
X62871691Y-70816484D01*
X62821397Y-70951330D01*
X62817986Y-70983064D01*
X62814990Y-71010936D01*
X62814989Y-71010948D01*
X62814989Y-71554100D01*
X62795304Y-71621139D01*
X62742500Y-71666894D01*
X62690989Y-71678100D01*
X38007745Y-71678100D01*
X37940706Y-71658415D01*
X37920064Y-71641781D01*
X35845261Y-69566977D01*
X35811776Y-69505654D01*
X35816760Y-69435962D01*
X35858632Y-69380029D01*
X35922134Y-69355768D01*
X36029383Y-69346385D01*
X36257638Y-69285225D01*
X36471805Y-69185357D01*
X36665376Y-69049817D01*
X36832470Y-68882723D01*
X36962399Y-68697164D01*
X37016977Y-68653539D01*
X37086475Y-68646345D01*
X37148830Y-68677868D01*
X37165550Y-68697164D01*
X37295475Y-68882717D01*
X37295480Y-68882723D01*
X37462574Y-69049817D01*
X37533964Y-69099805D01*
X37656140Y-69185354D01*
X37656142Y-69185355D01*
X37656145Y-69185357D01*
X37870312Y-69285225D01*
X37870318Y-69285226D01*
X37870319Y-69285227D01*
X37909939Y-69295843D01*
X38098567Y-69346385D01*
X38286893Y-69362861D01*
X38333974Y-69366981D01*
X38333975Y-69366981D01*
X38333976Y-69366981D01*
X38373209Y-69363548D01*
X38569383Y-69346385D01*
X38797638Y-69285225D01*
X39011805Y-69185357D01*
X39205376Y-69049817D01*
X39372470Y-68882723D01*
X39508010Y-68689152D01*
X39607878Y-68474985D01*
X39669038Y-68246730D01*
X39689634Y-68011322D01*
X39669038Y-67775914D01*
X39609636Y-67554219D01*
X39607880Y-67547666D01*
X39607879Y-67547665D01*
X39607878Y-67547659D01*
X39508010Y-67333493D01*
X39500966Y-67323432D01*
X39372469Y-67139919D01*
X39205379Y-66972830D01*
X39205376Y-66972827D01*
X39205371Y-66972823D01*
X39205368Y-66972821D01*
X39106973Y-66903923D01*
X39063348Y-66849346D01*
X39054097Y-66802353D01*
X39054097Y-66302698D01*
X39073782Y-66235660D01*
X39126586Y-66189905D01*
X39178097Y-66178699D01*
X39590268Y-66178699D01*
X39590274Y-66178699D01*
X39691351Y-66168374D01*
X39855114Y-66114108D01*
X40001948Y-66023540D01*
X40085469Y-65940018D01*
X40146792Y-65906534D01*
X40173150Y-65903700D01*
X40348479Y-65903700D01*
X40415518Y-65923385D01*
X40436160Y-65940019D01*
X40610477Y-66114336D01*
X40613013Y-66117030D01*
X40654149Y-66163463D01*
X40685509Y-66185109D01*
X40705188Y-66198693D01*
X40708205Y-66200913D01*
X40757016Y-66239154D01*
X40757021Y-66239157D01*
X40766252Y-66243311D01*
X40785805Y-66254339D01*
X40794148Y-66260098D01*
X40852135Y-66282089D01*
X40855590Y-66283519D01*
X40885171Y-66296833D01*
X40912141Y-66308972D01*
X40912142Y-66308972D01*
X40912146Y-66308974D01*
X40922108Y-66310799D01*
X40943729Y-66316826D01*
X40953203Y-66320419D01*
X40953206Y-66320420D01*
X40969949Y-66322453D01*
X41014767Y-66327895D01*
X41018464Y-66328457D01*
X41079472Y-66339637D01*
X41079473Y-66339636D01*
X41079474Y-66339637D01*
X41141371Y-66335893D01*
X41145115Y-66335780D01*
X42449052Y-66335780D01*
X42516091Y-66355465D01*
X42536733Y-66372099D01*
X42736601Y-66571967D01*
X42736609Y-66571973D01*
X42736614Y-66571978D01*
X42815365Y-66636132D01*
X42815370Y-66636135D01*
X42815374Y-66636138D01*
X42934732Y-66696081D01*
X42969546Y-66713565D01*
X43137411Y-66753350D01*
X43137412Y-66753350D01*
X43309929Y-66753350D01*
X43309932Y-66753350D01*
X43477801Y-66713564D01*
X43631970Y-66636138D01*
X43710744Y-66571968D01*
X44116165Y-66166546D01*
X44180336Y-66087772D01*
X44257762Y-65933603D01*
X44297548Y-65765734D01*
X44297548Y-65593214D01*
X44294947Y-65582241D01*
X44292231Y-65570779D01*
X44295926Y-65501007D01*
X44306771Y-65478036D01*
X44308469Y-65475224D01*
X44308476Y-65475216D01*
X44312635Y-65465973D01*
X44323659Y-65446428D01*
X44329416Y-65438090D01*
X44351408Y-65380099D01*
X44352830Y-65376663D01*
X44378293Y-65320091D01*
X44380120Y-65310119D01*
X44386144Y-65288507D01*
X44389738Y-65279032D01*
X44397211Y-65217484D01*
X44397775Y-65213779D01*
X44401133Y-65195449D01*
X44408956Y-65152766D01*
X44405211Y-65090856D01*
X44405098Y-65087111D01*
X44405098Y-60650457D01*
X44422366Y-60587336D01*
X44450125Y-60540398D01*
X44465147Y-60514998D01*
X44511001Y-60357169D01*
X44513903Y-60320294D01*
X44513903Y-59002600D01*
X44533588Y-58935561D01*
X44586392Y-58889806D01*
X44637903Y-58878600D01*
X55044717Y-58878600D01*
X55111756Y-58898285D01*
G37*
%TD.AperFunction*%
%TA.AperFunction,Conductor*%
G36*
X65135213Y-58898285D02*
G01*
X65180968Y-58951089D01*
X65190912Y-59020247D01*
X65161887Y-59083803D01*
X65155855Y-59090281D01*
X62408500Y-61837635D01*
X62347177Y-61871120D01*
X62320819Y-61873954D01*
X61747325Y-61873954D01*
X61747307Y-61873955D01*
X61644530Y-61884454D01*
X61644527Y-61884455D01*
X61477995Y-61939639D01*
X61477990Y-61939641D01*
X61328669Y-62031743D01*
X61235278Y-62125135D01*
X61173955Y-62158620D01*
X61147597Y-62161454D01*
X58218658Y-62161454D01*
X58151619Y-62141769D01*
X58130977Y-62125135D01*
X57265017Y-61259175D01*
X57231532Y-61197852D01*
X57228698Y-61171494D01*
X57228698Y-60251003D01*
X57228697Y-60250984D01*
X57213545Y-60072963D01*
X57153473Y-59842251D01*
X57055278Y-59625019D01*
X57055273Y-59625011D01*
X56921784Y-59427506D01*
X56921780Y-59427501D01*
X56921777Y-59427497D01*
X56756819Y-59255382D01*
X56713580Y-59223403D01*
X56659145Y-59183143D01*
X56565145Y-59113621D01*
X56565142Y-59113619D01*
X56565140Y-59113618D01*
X56564556Y-59113324D01*
X56564352Y-59113133D01*
X56560660Y-59110860D01*
X56561122Y-59110108D01*
X56513555Y-59065568D01*
X56496470Y-58997819D01*
X56518725Y-58931588D01*
X56573254Y-58887903D01*
X56620378Y-58878600D01*
X65068174Y-58878600D01*
X65135213Y-58898285D01*
G37*
%TD.AperFunction*%
%TD*%
%TA.AperFunction,Conductor*%
%TO.N,/iso_gnd*%
G36*
X28784066Y-41118285D02*
G01*
X28822565Y-41157502D01*
X28868957Y-41232716D01*
X28896859Y-41277951D01*
X29010827Y-41391919D01*
X29044312Y-41453242D01*
X29039328Y-41522934D01*
X29010827Y-41567281D01*
X28896859Y-41681248D01*
X28806291Y-41828081D01*
X28806289Y-41828086D01*
X28803116Y-41837662D01*
X28752024Y-41991847D01*
X28752024Y-41991848D01*
X28752023Y-41991848D01*
X28741698Y-42092915D01*
X28741698Y-42691269D01*
X28741699Y-42691287D01*
X28752023Y-42792352D01*
X28777398Y-42868926D01*
X28806290Y-42956116D01*
X28896857Y-43102949D01*
X28896859Y-43102951D01*
X28980379Y-43186471D01*
X29013864Y-43247794D01*
X29016698Y-43274152D01*
X29016698Y-43342648D01*
X28997013Y-43409687D01*
X28980379Y-43430329D01*
X28886259Y-43524448D01*
X28795691Y-43671281D01*
X28795689Y-43671286D01*
X28778211Y-43724031D01*
X28741424Y-43835047D01*
X28741424Y-43835048D01*
X28741423Y-43835048D01*
X28731098Y-43936115D01*
X28731098Y-44509469D01*
X28731099Y-44509487D01*
X28741423Y-44610552D01*
X28777707Y-44720048D01*
X28795690Y-44774316D01*
X28886258Y-44921150D01*
X29008248Y-45043140D01*
X29155082Y-45133708D01*
X29318845Y-45187974D01*
X29319696Y-45188060D01*
X29320186Y-45188261D01*
X29325469Y-45189392D01*
X29325267Y-45190333D01*
X29384387Y-45214453D01*
X29424541Y-45271632D01*
X29431098Y-45311419D01*
X29431098Y-47574191D01*
X29411413Y-47641230D01*
X29394779Y-47661872D01*
X29328521Y-47728129D01*
X29328515Y-47728137D01*
X29244853Y-47869603D01*
X29244852Y-47869606D01*
X29199000Y-48027426D01*
X29198999Y-48027432D01*
X29196098Y-48064298D01*
X29196098Y-48594600D01*
X29176413Y-48661639D01*
X29123609Y-48707394D01*
X29072098Y-48718600D01*
X20444500Y-48718600D01*
X20377461Y-48698915D01*
X20331706Y-48646111D01*
X20320500Y-48594600D01*
X20320500Y-41222600D01*
X20340185Y-41155561D01*
X20392989Y-41109806D01*
X20444500Y-41098600D01*
X28717027Y-41098600D01*
X28784066Y-41118285D01*
G37*
%TD.AperFunction*%
%TA.AperFunction,Conductor*%
G36*
X47944737Y-41743785D02*
G01*
X47990492Y-41796589D01*
X48001698Y-41848100D01*
X48001698Y-42665601D01*
X48001699Y-42665619D01*
X48012198Y-42768396D01*
X48012199Y-42768399D01*
X48053804Y-42893952D01*
X48067384Y-42934934D01*
X48159486Y-43084256D01*
X48283542Y-43208312D01*
X48432864Y-43300414D01*
X48599401Y-43355599D01*
X48702189Y-43366100D01*
X50102206Y-43366099D01*
X50204995Y-43355599D01*
X50371532Y-43300414D01*
X50520854Y-43208312D01*
X50614247Y-43114919D01*
X50675570Y-43081434D01*
X50701928Y-43078600D01*
X53330298Y-43078600D01*
X53397337Y-43098285D01*
X53443092Y-43151089D01*
X53454298Y-43202601D01*
X53454297Y-43411734D01*
X53434612Y-43478773D01*
X53381808Y-43524528D01*
X53373634Y-43527914D01*
X53348277Y-43537371D01*
X53337473Y-43541402D01*
X53337462Y-43541406D01*
X53222253Y-43627652D01*
X53222250Y-43627655D01*
X53136004Y-43742864D01*
X53136000Y-43742871D01*
X53085706Y-43877717D01*
X53079299Y-43937316D01*
X53079298Y-43937335D01*
X53079298Y-46033070D01*
X53079299Y-46033076D01*
X53085706Y-46092683D01*
X53136000Y-46227528D01*
X53136004Y-46227535D01*
X53222250Y-46342744D01*
X53222253Y-46342747D01*
X53337462Y-46428993D01*
X53337467Y-46428996D01*
X53373630Y-46442484D01*
X53429564Y-46484354D01*
X53453982Y-46549818D01*
X53454298Y-46558666D01*
X53454298Y-47212700D01*
X53434613Y-47279739D01*
X53381809Y-47325494D01*
X53330298Y-47336700D01*
X52787928Y-47336700D01*
X52787910Y-47336701D01*
X52686845Y-47347025D01*
X52523082Y-47401292D01*
X52523079Y-47401293D01*
X52376246Y-47491861D01*
X52309279Y-47558829D01*
X52247956Y-47592314D01*
X52178264Y-47587330D01*
X52133917Y-47558829D01*
X52066949Y-47491861D01*
X52066948Y-47491860D01*
X51920114Y-47401292D01*
X51756351Y-47347026D01*
X51756349Y-47347025D01*
X51655276Y-47336700D01*
X50981928Y-47336700D01*
X50981910Y-47336701D01*
X50880845Y-47347025D01*
X50717082Y-47401292D01*
X50717079Y-47401293D01*
X50570246Y-47491861D01*
X50448259Y-47613848D01*
X50357691Y-47760681D01*
X50357689Y-47760686D01*
X50340070Y-47813857D01*
X50303424Y-47924447D01*
X50303424Y-47924448D01*
X50303423Y-47924448D01*
X50293098Y-48025515D01*
X50293098Y-48025528D01*
X50293099Y-48594600D01*
X50273415Y-48661639D01*
X50220611Y-48707394D01*
X50169099Y-48718600D01*
X44637903Y-48718600D01*
X44570864Y-48698915D01*
X44525109Y-48646111D01*
X44513903Y-48594600D01*
X44513903Y-48038913D01*
X44513902Y-48038898D01*
X44512999Y-48027426D01*
X44511001Y-48002031D01*
X44496713Y-47952853D01*
X44465148Y-47844206D01*
X44465147Y-47844203D01*
X44465147Y-47844202D01*
X44381484Y-47702735D01*
X44381477Y-47702728D01*
X44339815Y-47661064D01*
X44306331Y-47599741D01*
X44303498Y-47573385D01*
X44303498Y-45314013D01*
X44323183Y-45246974D01*
X44375987Y-45201219D01*
X44414896Y-45190655D01*
X44441151Y-45187974D01*
X44604914Y-45133708D01*
X44751748Y-45043140D01*
X44873738Y-44921150D01*
X44964306Y-44774316D01*
X45018572Y-44610553D01*
X45028898Y-44509477D01*
X45028897Y-43936124D01*
X45018572Y-43835047D01*
X44964306Y-43671284D01*
X44873738Y-43524450D01*
X44808416Y-43459128D01*
X44774931Y-43397805D01*
X44779915Y-43328113D01*
X44808412Y-43283770D01*
X44888538Y-43203645D01*
X44902179Y-43181528D01*
X44954124Y-43134804D01*
X45023087Y-43123580D01*
X45087169Y-43151422D01*
X45113255Y-43181525D01*
X45127455Y-43204547D01*
X45127458Y-43204550D01*
X45249448Y-43326540D01*
X45396282Y-43417108D01*
X45560045Y-43471374D01*
X45661121Y-43481700D01*
X46234474Y-43481699D01*
X46234482Y-43481698D01*
X46234485Y-43481698D01*
X46314797Y-43473494D01*
X46335551Y-43471374D01*
X46499314Y-43417108D01*
X46646148Y-43326540D01*
X46768138Y-43204550D01*
X46858706Y-43057716D01*
X46912972Y-42893953D01*
X46923298Y-42792877D01*
X46923297Y-42194524D01*
X46922911Y-42190744D01*
X46921850Y-42180356D01*
X46934620Y-42111663D01*
X46982501Y-42060779D01*
X47010616Y-42048678D01*
X47036388Y-42041191D01*
X47036396Y-42041186D01*
X47043546Y-42038093D01*
X47043660Y-42038358D01*
X47047504Y-42036622D01*
X47047381Y-42036361D01*
X47054435Y-42033041D01*
X47054439Y-42033040D01*
X47112066Y-41996467D01*
X47113625Y-41995511D01*
X47172418Y-41960743D01*
X47172423Y-41960737D01*
X47178580Y-41955963D01*
X47178757Y-41956192D01*
X47182048Y-41953555D01*
X47181863Y-41953332D01*
X47187871Y-41948361D01*
X47187875Y-41948359D01*
X47234619Y-41898580D01*
X47235888Y-41897271D01*
X47372743Y-41760417D01*
X47434066Y-41726934D01*
X47460423Y-41724100D01*
X47877698Y-41724100D01*
X47944737Y-41743785D01*
G37*
%TD.AperFunction*%
%TA.AperFunction,Conductor*%
G36*
X55539223Y-46357028D02*
G01*
X55554108Y-46366594D01*
X55606748Y-46406000D01*
X55634250Y-46426588D01*
X55637466Y-46428995D01*
X55637469Y-46428997D01*
X55772315Y-46479291D01*
X55772314Y-46479291D01*
X55779242Y-46480035D01*
X55831925Y-46485700D01*
X57427670Y-46485699D01*
X57487281Y-46479291D01*
X57622129Y-46428996D01*
X57622132Y-46428993D01*
X57629912Y-46424746D01*
X57630918Y-46426588D01*
X57685278Y-46406316D01*
X57694120Y-46406000D01*
X58084668Y-46406000D01*
X58151707Y-46425685D01*
X58172349Y-46442319D01*
X58265742Y-46535712D01*
X58415064Y-46627814D01*
X58581601Y-46682999D01*
X58684389Y-46693500D01*
X60084406Y-46693499D01*
X60187195Y-46682999D01*
X60353732Y-46627814D01*
X60503054Y-46535712D01*
X60596447Y-46442318D01*
X60657770Y-46408834D01*
X60684128Y-46406000D01*
X60801268Y-46406000D01*
X60868307Y-46425685D01*
X60888949Y-46442319D01*
X60977512Y-46530882D01*
X61126834Y-46622984D01*
X61293371Y-46678169D01*
X61396159Y-46688670D01*
X62160961Y-46688669D01*
X62228000Y-46708353D01*
X62248642Y-46724988D01*
X64030573Y-48506919D01*
X64064058Y-48568242D01*
X64059074Y-48637934D01*
X64017202Y-48693867D01*
X63951738Y-48718284D01*
X63942892Y-48718600D01*
X56024098Y-48718600D01*
X55957059Y-48698915D01*
X55911304Y-48646111D01*
X55900098Y-48594600D01*
X55900097Y-48025530D01*
X55900096Y-48025512D01*
X55889772Y-47924447D01*
X55880393Y-47896143D01*
X55835506Y-47760684D01*
X55744938Y-47613850D01*
X55622948Y-47491860D01*
X55476114Y-47401292D01*
X55312351Y-47347026D01*
X55312347Y-47347025D01*
X55305727Y-47345608D01*
X55306240Y-47343211D01*
X55251970Y-47321046D01*
X55211839Y-47263852D01*
X55205298Y-47224111D01*
X55205298Y-46558666D01*
X55224983Y-46491627D01*
X55277787Y-46445872D01*
X55285954Y-46442488D01*
X55322129Y-46428996D01*
X55405486Y-46366594D01*
X55470949Y-46342177D01*
X55539223Y-46357028D01*
G37*
%TD.AperFunction*%
%TA.AperFunction,Conductor*%
G36*
X65937597Y-38558599D02*
G01*
X65937598Y-38558600D01*
X68477598Y-41098600D01*
X76075500Y-41098600D01*
X76142539Y-41118285D01*
X76188294Y-41171089D01*
X76199500Y-41222600D01*
X76199500Y-48594600D01*
X76179815Y-48661639D01*
X76127011Y-48707394D01*
X76075500Y-48718600D01*
X69124155Y-48718600D01*
X69057116Y-48698915D01*
X69011361Y-48646111D01*
X69010599Y-48644410D01*
X68922784Y-48444212D01*
X68793572Y-48246437D01*
X68633574Y-48072635D01*
X68633564Y-48072626D01*
X68479680Y-47952853D01*
X68438867Y-47896143D01*
X68435192Y-47826370D01*
X68469824Y-47765687D01*
X68479680Y-47757147D01*
X68628609Y-47641230D01*
X68633571Y-47637368D01*
X68793573Y-47463561D01*
X68922784Y-47265788D01*
X69017681Y-47049445D01*
X69075674Y-46820434D01*
X69084344Y-46715796D01*
X69095183Y-46585005D01*
X69095183Y-46584994D01*
X69080419Y-46406826D01*
X69075674Y-46349566D01*
X69017681Y-46120555D01*
X68922784Y-45904212D01*
X68793573Y-45706439D01*
X68793572Y-45706437D01*
X68633574Y-45532635D01*
X68633573Y-45532634D01*
X68633571Y-45532632D01*
X68521448Y-45445363D01*
X68447146Y-45387531D01*
X68239378Y-45275092D01*
X68239369Y-45275089D01*
X68015939Y-45198384D01*
X67860590Y-45172461D01*
X67782918Y-45159500D01*
X67546678Y-45159500D01*
X67488423Y-45169220D01*
X67313656Y-45198384D01*
X67090226Y-45275089D01*
X67090217Y-45275092D01*
X66882449Y-45387531D01*
X66696026Y-45532631D01*
X66696021Y-45532635D01*
X66536023Y-45706437D01*
X66406811Y-45904212D01*
X66311915Y-46120554D01*
X66253921Y-46349569D01*
X66234413Y-46584994D01*
X66234413Y-46585005D01*
X66253921Y-46820430D01*
X66311915Y-47049445D01*
X66406811Y-47265787D01*
X66536023Y-47463562D01*
X66696021Y-47637364D01*
X66696031Y-47637373D01*
X66849916Y-47757147D01*
X66890729Y-47813857D01*
X66894404Y-47883630D01*
X66859772Y-47944313D01*
X66849916Y-47952853D01*
X66696031Y-48072626D01*
X66696021Y-48072635D01*
X66570043Y-48209483D01*
X66510156Y-48245474D01*
X66478814Y-48249500D01*
X66300804Y-48249500D01*
X66233765Y-48229815D01*
X66213123Y-48213181D01*
X63532986Y-45533044D01*
X63499501Y-45471721D01*
X63496667Y-45445363D01*
X63496667Y-45063168D01*
X63496666Y-45063151D01*
X63486167Y-44960373D01*
X63486166Y-44960370D01*
X63471331Y-44915601D01*
X63430982Y-44793836D01*
X63338880Y-44644514D01*
X63214824Y-44520458D01*
X63065502Y-44428356D01*
X63065501Y-44428355D01*
X63065500Y-44428355D01*
X63056661Y-44425426D01*
X62999217Y-44385652D01*
X62972396Y-44321135D01*
X62971668Y-44307721D01*
X62971668Y-44045590D01*
X62991353Y-43978551D01*
X63030568Y-43940054D01*
X63179674Y-43848086D01*
X63303730Y-43724030D01*
X63395832Y-43574708D01*
X63451017Y-43408171D01*
X63461518Y-43305383D01*
X63461517Y-42380366D01*
X63451017Y-42277577D01*
X63395832Y-42111040D01*
X63303730Y-41961718D01*
X63179674Y-41837662D01*
X63030352Y-41745560D01*
X62863815Y-41690375D01*
X62863813Y-41690374D01*
X62761028Y-41679874D01*
X61361016Y-41679874D01*
X61360999Y-41679875D01*
X61258221Y-41690374D01*
X61258218Y-41690375D01*
X61091686Y-41745559D01*
X61091681Y-41745561D01*
X60942360Y-41837663D01*
X60848969Y-41931055D01*
X60787646Y-41964540D01*
X60761288Y-41967374D01*
X60637303Y-41967374D01*
X60570264Y-41947689D01*
X60549622Y-41931056D01*
X60515805Y-41897239D01*
X60452254Y-41833688D01*
X60309375Y-41745560D01*
X60302934Y-41741587D01*
X60302929Y-41741585D01*
X60258715Y-41726934D01*
X60136395Y-41686401D01*
X60136393Y-41686400D01*
X60033608Y-41675900D01*
X58633596Y-41675900D01*
X58633579Y-41675901D01*
X58530801Y-41686400D01*
X58530798Y-41686401D01*
X58364266Y-41741585D01*
X58364261Y-41741587D01*
X58214940Y-41833689D01*
X58090887Y-41957742D01*
X57998785Y-42107063D01*
X57998783Y-42107068D01*
X57975531Y-42177240D01*
X57943599Y-42273603D01*
X57943599Y-42273604D01*
X57943598Y-42273604D01*
X57933098Y-42376383D01*
X57933098Y-42949893D01*
X57913413Y-43016932D01*
X57896779Y-43037574D01*
X57485972Y-43448381D01*
X57424649Y-43481866D01*
X57398291Y-43484700D01*
X57379298Y-43484700D01*
X57312259Y-43465015D01*
X57266504Y-43412211D01*
X57255298Y-43360700D01*
X57255298Y-37517942D01*
X57257022Y-37502322D01*
X57256737Y-37502296D01*
X57257471Y-37494533D01*
X57255329Y-37426352D01*
X57255298Y-37424405D01*
X57255298Y-37395854D01*
X57255298Y-37395850D01*
X57254429Y-37388972D01*
X57253970Y-37383143D01*
X57252507Y-37336572D01*
X57246920Y-37317344D01*
X57242972Y-37298284D01*
X57240812Y-37281181D01*
X57240462Y-37278408D01*
X57240461Y-37278406D01*
X57240461Y-37278404D01*
X57223310Y-37235087D01*
X57221417Y-37229558D01*
X57208416Y-37184809D01*
X57208414Y-37184806D01*
X57198221Y-37167571D01*
X57189659Y-37150094D01*
X57182285Y-37131470D01*
X57182284Y-37131468D01*
X57154890Y-37093764D01*
X57151687Y-37088886D01*
X57127967Y-37048779D01*
X57113800Y-37034611D01*
X57101175Y-37019830D01*
X57089392Y-37003613D01*
X57089389Y-37003610D01*
X57089388Y-37003609D01*
X57062281Y-36981185D01*
X57046641Y-36963438D01*
X57045558Y-36964335D01*
X57040586Y-36958325D01*
X56990862Y-36911630D01*
X56989463Y-36910274D01*
X56969274Y-36890084D01*
X56963784Y-36885825D01*
X56959359Y-36882047D01*
X56925380Y-36850138D01*
X56925378Y-36850136D01*
X56925375Y-36850135D01*
X56907827Y-36840488D01*
X56891561Y-36829804D01*
X56880188Y-36820982D01*
X56875734Y-36817527D01*
X56875733Y-36817526D01*
X56875731Y-36817525D01*
X56832966Y-36799018D01*
X56827720Y-36796448D01*
X56786891Y-36774003D01*
X56786890Y-36774002D01*
X56767491Y-36769022D01*
X56749079Y-36762718D01*
X56730696Y-36754762D01*
X56730690Y-36754760D01*
X56684672Y-36747472D01*
X56678950Y-36746287D01*
X56633819Y-36734700D01*
X56633817Y-36734700D01*
X56613782Y-36734700D01*
X56594384Y-36733173D01*
X56580493Y-36730973D01*
X56574603Y-36730040D01*
X56574602Y-36730040D01*
X56528214Y-36734425D01*
X56522376Y-36734700D01*
X52175645Y-36734700D01*
X52152413Y-36732504D01*
X52144386Y-36730973D01*
X52144384Y-36730973D01*
X52135431Y-36731536D01*
X52087073Y-36734578D01*
X52083201Y-36734700D01*
X52065441Y-36734700D01*
X52047830Y-36736925D01*
X52043962Y-36737290D01*
X52012173Y-36739290D01*
X51986657Y-36740896D01*
X51978883Y-36743422D01*
X51956118Y-36748510D01*
X51948016Y-36749533D01*
X51948003Y-36749537D01*
X51894608Y-36770677D01*
X51890952Y-36771992D01*
X51836357Y-36789733D01*
X51836354Y-36789734D01*
X51829450Y-36794115D01*
X51808678Y-36804699D01*
X51801071Y-36807711D01*
X51801060Y-36807717D01*
X51754612Y-36841463D01*
X51751393Y-36843651D01*
X51702921Y-36874413D01*
X51702918Y-36874416D01*
X51697327Y-36880370D01*
X51679827Y-36895799D01*
X51673211Y-36900605D01*
X51673210Y-36900606D01*
X51636610Y-36944846D01*
X51634036Y-36947765D01*
X51594735Y-36989617D01*
X51594733Y-36989620D01*
X51590792Y-36996789D01*
X51577687Y-37016073D01*
X51572475Y-37022373D01*
X51572472Y-37022378D01*
X51548029Y-37074321D01*
X51546262Y-37077789D01*
X51518602Y-37128103D01*
X51518601Y-37128108D01*
X51516567Y-37136028D01*
X51508668Y-37157968D01*
X51505184Y-37165372D01*
X51505182Y-37165378D01*
X51494427Y-37221761D01*
X51493577Y-37225561D01*
X51479298Y-37281176D01*
X51479298Y-37289352D01*
X51477103Y-37312579D01*
X51475571Y-37320612D01*
X51479176Y-37377924D01*
X51479298Y-37381795D01*
X51479298Y-39380946D01*
X51459613Y-39447985D01*
X51442979Y-39468627D01*
X50474826Y-40436781D01*
X50413503Y-40470266D01*
X50387145Y-40473100D01*
X47535498Y-40473100D01*
X47468459Y-40453415D01*
X47422704Y-40400611D01*
X47411498Y-40349100D01*
X47411498Y-38906060D01*
X47431183Y-38839021D01*
X47483987Y-38793266D01*
X47553145Y-38783322D01*
X47574489Y-38788350D01*
X47648287Y-38812805D01*
X47749363Y-38823131D01*
X48322716Y-38823130D01*
X48322724Y-38823129D01*
X48322727Y-38823129D01*
X48392261Y-38816026D01*
X48423793Y-38812805D01*
X48587556Y-38758539D01*
X48734390Y-38667971D01*
X48856380Y-38545981D01*
X48946948Y-38399147D01*
X49001214Y-38235384D01*
X49011540Y-38134308D01*
X49011539Y-37535955D01*
X49008103Y-37502322D01*
X49001214Y-37434878D01*
X48997744Y-37424405D01*
X48946948Y-37271115D01*
X48856380Y-37124281D01*
X48742411Y-37010312D01*
X48708926Y-36948989D01*
X48713910Y-36879297D01*
X48742407Y-36834953D01*
X48774631Y-36802729D01*
X48835950Y-36769246D01*
X48905642Y-36774230D01*
X48960612Y-36815378D01*
X48960694Y-36815314D01*
X48960937Y-36815622D01*
X48961576Y-36816100D01*
X48963185Y-36818465D01*
X48965175Y-36820981D01*
X49087165Y-36942971D01*
X49233999Y-37033539D01*
X49397762Y-37087805D01*
X49498838Y-37098131D01*
X50072191Y-37098130D01*
X50072199Y-37098129D01*
X50072202Y-37098129D01*
X50138045Y-37091403D01*
X50173268Y-37087805D01*
X50337031Y-37033539D01*
X50483865Y-36942971D01*
X50605855Y-36820981D01*
X50696423Y-36674147D01*
X50750689Y-36510384D01*
X50761015Y-36409308D01*
X50761014Y-35710955D01*
X50756429Y-35666074D01*
X50750689Y-35609878D01*
X50750688Y-35609878D01*
X50696423Y-35446115D01*
X50605855Y-35299281D01*
X50483865Y-35177291D01*
X50337031Y-35086723D01*
X50173268Y-35032457D01*
X50173266Y-35032456D01*
X50072199Y-35022131D01*
X49788109Y-35022131D01*
X49721070Y-35002446D01*
X49675315Y-34949642D01*
X49665371Y-34880484D01*
X49682571Y-34833034D01*
X49756627Y-34712970D01*
X49756626Y-34712970D01*
X49756632Y-34712962D01*
X49810898Y-34549199D01*
X49821224Y-34448123D01*
X49821223Y-33849770D01*
X49810898Y-33748693D01*
X49756632Y-33584930D01*
X49666064Y-33438096D01*
X49552095Y-33324126D01*
X49518610Y-33262804D01*
X49523594Y-33193112D01*
X49552095Y-33148765D01*
X49640095Y-33060765D01*
X49701418Y-33027280D01*
X49727776Y-33024446D01*
X51623619Y-33024446D01*
X51690658Y-33044131D01*
X51736413Y-33096935D01*
X51747619Y-33148446D01*
X51747619Y-35724203D01*
X51754032Y-35794782D01*
X51754032Y-35794784D01*
X51754033Y-35794786D01*
X51804641Y-35957196D01*
X51884535Y-36089357D01*
X51892649Y-36102778D01*
X52012930Y-36223059D01*
X52012932Y-36223060D01*
X52012934Y-36223062D01*
X52158513Y-36311068D01*
X52320923Y-36361676D01*
X52391503Y-36368090D01*
X52391506Y-36368090D01*
X52904732Y-36368090D01*
X52904735Y-36368090D01*
X52975315Y-36361676D01*
X53137725Y-36311068D01*
X53283304Y-36223062D01*
X53403591Y-36102775D01*
X53491597Y-35957196D01*
X53542205Y-35794786D01*
X53548619Y-35724206D01*
X53548619Y-31410974D01*
X53542205Y-31340394D01*
X53491597Y-31177984D01*
X53460624Y-31126749D01*
X53442788Y-31059196D01*
X53464305Y-30992722D01*
X53518345Y-30948434D01*
X53566741Y-30938600D01*
X65937598Y-30938600D01*
X65937597Y-38558599D01*
G37*
%TD.AperFunction*%
%TA.AperFunction,Conductor*%
G36*
X41711547Y-30952317D02*
G01*
X41760953Y-31001722D01*
X41768303Y-31017818D01*
X41778322Y-31044682D01*
X41778327Y-31044691D01*
X41864573Y-31159900D01*
X41864576Y-31159903D01*
X41979785Y-31246149D01*
X41979792Y-31246153D01*
X42114638Y-31296447D01*
X42114637Y-31296447D01*
X42121565Y-31297191D01*
X42174248Y-31302856D01*
X42877720Y-31302855D01*
X42944759Y-31322539D01*
X42990514Y-31375343D01*
X43001720Y-31426855D01*
X43001720Y-32080694D01*
X42984452Y-32143814D01*
X42950477Y-32201263D01*
X42950474Y-32201270D01*
X42904622Y-32359090D01*
X42904621Y-32359096D01*
X42901720Y-32395962D01*
X42901720Y-34177365D01*
X42904621Y-34214231D01*
X42904622Y-34214237D01*
X42950474Y-34372057D01*
X42950475Y-34372060D01*
X43034137Y-34513526D01*
X43034143Y-34513534D01*
X43150349Y-34629740D01*
X43150353Y-34629743D01*
X43150355Y-34629745D01*
X43291822Y-34713408D01*
X43333444Y-34725500D01*
X43449646Y-34759261D01*
X43449649Y-34759261D01*
X43449651Y-34759262D01*
X43486526Y-34762164D01*
X43597720Y-34762164D01*
X43664759Y-34781849D01*
X43710514Y-34834653D01*
X43721720Y-34886164D01*
X43721720Y-36637164D01*
X43702035Y-36704203D01*
X43649231Y-36749958D01*
X43597720Y-36761164D01*
X43486518Y-36761164D01*
X43449652Y-36764065D01*
X43449646Y-36764066D01*
X43291826Y-36809918D01*
X43291823Y-36809919D01*
X43150357Y-36893581D01*
X43144189Y-36898366D01*
X43142292Y-36895920D01*
X43093578Y-36922521D01*
X43023886Y-36917537D01*
X42991516Y-36896733D01*
X42990251Y-36898366D01*
X42984082Y-36893581D01*
X42897896Y-36842611D01*
X42842618Y-36809920D01*
X42842617Y-36809919D01*
X42842616Y-36809919D01*
X42842613Y-36809918D01*
X42684793Y-36764066D01*
X42684787Y-36764065D01*
X42647921Y-36761164D01*
X42647914Y-36761164D01*
X42216526Y-36761164D01*
X42216518Y-36761164D01*
X42179652Y-36764065D01*
X42179646Y-36764066D01*
X42021826Y-36809918D01*
X42021823Y-36809919D01*
X41880357Y-36893581D01*
X41880349Y-36893587D01*
X41764143Y-37009793D01*
X41764137Y-37009801D01*
X41680475Y-37151267D01*
X41680474Y-37151270D01*
X41634622Y-37309090D01*
X41634621Y-37309096D01*
X41631720Y-37345962D01*
X41631720Y-39127365D01*
X41634621Y-39164231D01*
X41634622Y-39164237D01*
X41680474Y-39322057D01*
X41680475Y-39322060D01*
X41714452Y-39379512D01*
X41731720Y-39442634D01*
X41731719Y-39634010D01*
X41712034Y-39701049D01*
X41667612Y-39739853D01*
X41668629Y-39741501D01*
X41662483Y-39745291D01*
X41662482Y-39745292D01*
X41598770Y-39784590D01*
X41515646Y-39835861D01*
X41419627Y-39931881D01*
X41358304Y-39965366D01*
X41331946Y-39968200D01*
X41241850Y-39968200D01*
X41174811Y-39948515D01*
X41154169Y-39931881D01*
X41058149Y-39835861D01*
X41058148Y-39835860D01*
X40911314Y-39745292D01*
X40747551Y-39691026D01*
X40747549Y-39691025D01*
X40646476Y-39680700D01*
X40073128Y-39680700D01*
X40073110Y-39680701D01*
X39972045Y-39691025D01*
X39808282Y-39745292D01*
X39808279Y-39745293D01*
X39661446Y-39835861D01*
X39539459Y-39957848D01*
X39448891Y-40104681D01*
X39448889Y-40104684D01*
X39448890Y-40104684D01*
X39394624Y-40268447D01*
X39394624Y-40268448D01*
X39394623Y-40268448D01*
X39384298Y-40369515D01*
X39384298Y-40967869D01*
X39384299Y-40967887D01*
X39394623Y-41068952D01*
X39415223Y-41131116D01*
X39448890Y-41232716D01*
X39539458Y-41379550D01*
X39661448Y-41501540D01*
X39808282Y-41592108D01*
X39972045Y-41646374D01*
X40073121Y-41656700D01*
X40646474Y-41656699D01*
X40646482Y-41656698D01*
X40646485Y-41656698D01*
X40701828Y-41651044D01*
X40747551Y-41646374D01*
X40911314Y-41592108D01*
X41058148Y-41501540D01*
X41154168Y-41405519D01*
X41215492Y-41372034D01*
X41241850Y-41369200D01*
X41331946Y-41369200D01*
X41398985Y-41388885D01*
X41419627Y-41405519D01*
X41507627Y-41493519D01*
X41541112Y-41554842D01*
X41536128Y-41624534D01*
X41507627Y-41668881D01*
X41393659Y-41782848D01*
X41303091Y-41929681D01*
X41303089Y-41929686D01*
X41275717Y-42012288D01*
X41248824Y-42093447D01*
X41248824Y-42093448D01*
X41248823Y-42093448D01*
X41238498Y-42194515D01*
X41238498Y-42792869D01*
X41238499Y-42792887D01*
X41248823Y-42893952D01*
X41284381Y-43001255D01*
X41300624Y-43050275D01*
X41303090Y-43057715D01*
X41303091Y-43057718D01*
X41330991Y-43102951D01*
X41383714Y-43188429D01*
X41393660Y-43204553D01*
X41460626Y-43271519D01*
X41494111Y-43332842D01*
X41489127Y-43402534D01*
X41460627Y-43446881D01*
X41383057Y-43524451D01*
X41292491Y-43671281D01*
X41292489Y-43671286D01*
X41275011Y-43724031D01*
X41238224Y-43835047D01*
X41238224Y-43835048D01*
X41238223Y-43835048D01*
X41227898Y-43936115D01*
X41227898Y-44509469D01*
X41227899Y-44509487D01*
X41238223Y-44610552D01*
X41238224Y-44610555D01*
X41281813Y-44742096D01*
X41284215Y-44811924D01*
X41248483Y-44871966D01*
X41185963Y-44903159D01*
X41164108Y-44905100D01*
X41077997Y-44905100D01*
X41077978Y-44905101D01*
X40975201Y-44915600D01*
X40975198Y-44915601D01*
X40808666Y-44970785D01*
X40808661Y-44970787D01*
X40659340Y-45062889D01*
X40535287Y-45186942D01*
X40528230Y-45198384D01*
X40445686Y-45332211D01*
X40439393Y-45342413D01*
X40437493Y-45341241D01*
X40398485Y-45385544D01*
X40332276Y-45404700D01*
X33412047Y-45404700D01*
X33345008Y-45385015D01*
X33299253Y-45332211D01*
X33294342Y-45319707D01*
X33291412Y-45310867D01*
X33291412Y-45310866D01*
X33199310Y-45161544D01*
X33075254Y-45037488D01*
X32925932Y-44945386D01*
X32759395Y-44890201D01*
X32759393Y-44890200D01*
X32656614Y-44879700D01*
X32656607Y-44879700D01*
X32604305Y-44879700D01*
X32537266Y-44860015D01*
X32491511Y-44807211D01*
X32481567Y-44738053D01*
X32486599Y-44716696D01*
X32521772Y-44610553D01*
X32532098Y-44509477D01*
X32532097Y-43936124D01*
X32521772Y-43835047D01*
X32467506Y-43671284D01*
X32376938Y-43524450D01*
X32333617Y-43481129D01*
X32300132Y-43419806D01*
X32297298Y-43393448D01*
X32297298Y-43274152D01*
X32316983Y-43207113D01*
X32333617Y-43186471D01*
X32368999Y-43151089D01*
X32417138Y-43102950D01*
X32507706Y-42956116D01*
X32561972Y-42792353D01*
X32572298Y-42691277D01*
X32572297Y-42258557D01*
X32591981Y-42191519D01*
X32644785Y-42145764D01*
X32652313Y-42142620D01*
X32687128Y-42129418D01*
X32695464Y-42123662D01*
X32715019Y-42112634D01*
X32724255Y-42108478D01*
X32773094Y-42070213D01*
X32776074Y-42068021D01*
X32827127Y-42032783D01*
X32868263Y-41986348D01*
X32870797Y-41983656D01*
X33719534Y-41134919D01*
X33780858Y-41101434D01*
X33807216Y-41098600D01*
X35457598Y-41098600D01*
X40537598Y-36018600D01*
X40537598Y-31426855D01*
X40557283Y-31359816D01*
X40610087Y-31314061D01*
X40661596Y-31302855D01*
X41129993Y-31302855D01*
X41189604Y-31296447D01*
X41324452Y-31246152D01*
X41439667Y-31159902D01*
X41525917Y-31044687D01*
X41530498Y-31032405D01*
X41535939Y-31017818D01*
X41577809Y-30961884D01*
X41643274Y-30937466D01*
X41711547Y-30952317D01*
G37*
%TD.AperFunction*%
%TA.AperFunction,Conductor*%
G36*
X43644759Y-29422540D02*
G01*
X43690514Y-29475344D01*
X43701720Y-29526855D01*
X43701720Y-29527856D01*
X43682035Y-29594895D01*
X43629231Y-29640650D01*
X43577720Y-29651856D01*
X42278402Y-29651856D01*
X42211363Y-29632171D01*
X42165608Y-29579367D01*
X42155664Y-29510209D01*
X42162513Y-29483746D01*
X42162894Y-29482745D01*
X42205138Y-29427093D01*
X42270764Y-29403115D01*
X42278783Y-29402855D01*
X43577720Y-29402855D01*
X43644759Y-29422540D01*
G37*
%TD.AperFunction*%
%TD*%
M02*
