M48
; DRILL file {KiCad 7.0.5} date Wed Sep 18 03:37:12 2024
; FORMAT={-:-/ absolute / inch / decimal}
; #@! TF.CreationDate,2024-09-18T03:37:12-04:00
; #@! TF.GenerationSoftware,Kicad,Pcbnew,7.0.5
; #@! TF.FileFunction,Plated,1,2,PTH
FMAT,2
INCH
; #@! TA.AperFunction,Plated,PTH,ViaDrill
T1C0.0157
; #@! TA.AperFunction,Plated,PTH,ComponentDrill
T2C0.0276
; #@! TA.AperFunction,Plated,PTH,ComponentDrill
T3C0.0315
; #@! TA.AperFunction,Plated,PTH,ComponentDrill
T4C0.0394
; #@! TA.AperFunction,Plated,PTH,ViaDrill
T5C0.0945
%
G90
G05
T1
X1.4618Y-0.8963
X1.5386Y-1.0015
X1.8Y-0.75
X1.9131Y-0.8951
X1.9152Y-1.3291
X1.9748Y-1.606
X1.975Y-1.45
X1.9888Y-1.0054
X1.9902Y-0.7889
X2.275Y-0.725
X2.375Y-0.9
X2.425Y-1.35
X2.426Y-0.7869
X2.45Y-1.0
X2.725Y-0.725
X2.8251Y-0.8985
X2.9015Y-0.9998
X3.25Y-0.9
X3.25Y-0.95
X3.25Y-1.0
X3.25Y-1.05
X3.25Y-1.1
X3.25Y-1.15
X3.25Y-1.2
X3.25Y-1.25
X3.25Y-1.3
X3.25Y-1.35
X3.25Y-1.4
X3.25Y-1.45
X3.25Y-1.5
X3.8742Y-1.1721
X4.3224Y-1.1705
X4.777Y-1.1672
X5.2283Y-1.1689
X5.6797Y-1.1689
X6.1258Y-1.1708
X6.575Y-1.1697
T2
X1.45Y-0.775
X1.65Y-0.775
X1.9Y-0.775
X2.1Y-0.775
X2.35Y-0.775
X2.55Y-0.775
X2.8Y-0.775
X3.0Y-0.775
T3
X1.3504Y-0.8998
X1.3504Y-0.9998
X1.3504Y-1.0998
X1.3504Y-1.1998
X1.3504Y-1.2998
X1.3504Y-1.3998
X1.3504Y-1.4998
X1.6504Y-0.8998
X1.6504Y-0.9998
X1.6504Y-1.0998
X1.6504Y-1.1998
X1.6504Y-1.2998
X1.6504Y-1.3998
X1.6504Y-1.4998
X1.8Y-0.9
X1.8Y-1.0
X1.8Y-1.1
X1.8Y-1.2
X1.8Y-1.3
X1.8Y-1.4
X1.8Y-1.5
X2.1Y-0.9
X2.1Y-1.0
X2.1Y-1.1
X2.1Y-1.2
X2.1Y-1.3
X2.1Y-1.4
X2.1Y-1.5
X2.2504Y-0.8998
X2.2504Y-0.9998
X2.2504Y-1.0998
X2.2504Y-1.1998
X2.2504Y-1.2998
X2.2504Y-1.3998
X2.2504Y-1.4998
X2.5504Y-0.8998
X2.5504Y-0.9998
X2.5504Y-1.0998
X2.5504Y-1.1998
X2.5504Y-1.2998
X2.5504Y-1.3998
X2.5504Y-1.4998
X2.7Y-0.9
X2.7Y-1.0
X2.7Y-1.1
X2.7Y-1.2
X2.7Y-1.3
X2.7Y-1.4
X2.7Y-1.5
X3.0Y-0.9
X3.0Y-1.0
X3.0Y-1.1
X3.0Y-1.2
X3.0Y-1.3
X3.0Y-1.4
X3.0Y-1.5
X3.5004Y-0.7996
X3.5004Y-1.0996
X3.5008Y-1.3008
X3.5008Y-1.6008
X3.6004Y-0.7996
X3.6004Y-1.0996
X3.6008Y-1.3008
X3.6008Y-1.6008
X3.7004Y-0.7996
X3.7004Y-1.0996
X3.7008Y-1.3008
X3.7008Y-1.6008
X3.8004Y-0.7996
X3.8004Y-1.0996
X3.8008Y-1.3008
X3.8008Y-1.6008
X3.95Y-0.7996
X3.95Y-1.0996
X3.9512Y-1.3008
X3.9512Y-1.6008
X4.05Y-0.7996
X4.05Y-1.0996
X4.0512Y-1.3008
X4.0512Y-1.6008
X4.15Y-0.7996
X4.15Y-1.0996
X4.1512Y-1.3008
X4.1512Y-1.6008
X4.25Y-0.7996
X4.25Y-1.0996
X4.2512Y-1.3008
X4.2512Y-1.6008
X4.4Y-0.7996
X4.4Y-1.0996
X4.4004Y-1.3008
X4.4004Y-1.6008
X4.5Y-0.7996
X4.5Y-1.0996
X4.5004Y-1.3008
X4.5004Y-1.6008
X4.6Y-0.7996
X4.6Y-1.0996
X4.6004Y-1.3008
X4.6004Y-1.6008
X4.7Y-0.7996
X4.7Y-1.0996
X4.7004Y-1.3008
X4.7004Y-1.6008
X4.8496Y-0.7996
X4.8496Y-1.0996
X4.8508Y-1.3008
X4.8508Y-1.6008
X4.9496Y-0.7996
X4.9496Y-1.0996
X4.9508Y-1.3008
X4.9508Y-1.6008
X5.0496Y-0.7996
X5.0496Y-1.0996
X5.0508Y-1.3008
X5.0508Y-1.6008
X5.1496Y-0.7996
X5.1496Y-1.0996
X5.1508Y-1.3008
X5.1508Y-1.6008
X5.3Y-0.8
X5.3Y-1.1
X5.3004Y-1.3012
X5.3004Y-1.6012
X5.4Y-0.8
X5.4Y-1.1
X5.4004Y-1.3012
X5.4004Y-1.6012
X5.5Y-0.8
X5.5Y-1.1
X5.5004Y-1.3012
X5.5004Y-1.6012
X5.6Y-0.8
X5.6Y-1.1
X5.6004Y-1.3012
X5.6004Y-1.6012
X5.7496Y-0.8
X5.7496Y-1.1
X5.7508Y-1.3008
X5.7508Y-1.6008
X5.8496Y-0.8
X5.8496Y-1.1
X5.8508Y-1.3008
X5.8508Y-1.6008
X5.9496Y-0.8
X5.9496Y-1.1
X5.9508Y-1.3008
X5.9508Y-1.6008
X6.0496Y-0.8
X6.0496Y-1.1
X6.0508Y-1.3008
X6.0508Y-1.6008
X6.2Y-0.7996
X6.2Y-1.0996
X6.2012Y-1.3004
X6.2012Y-1.6004
X6.3Y-0.7996
X6.3Y-1.0996
X6.3012Y-1.3004
X6.3012Y-1.6004
X6.4Y-0.7996
X6.4Y-1.0996
X6.4012Y-1.3004
X6.4012Y-1.6004
X6.5Y-0.7996
X6.5Y-1.0996
X6.5012Y-1.3004
X6.5012Y-1.6004
X6.6504Y-0.7996
X6.6504Y-1.0996
X6.6508Y-1.3008
X6.6508Y-1.6008
X6.7504Y-0.7996
X6.7504Y-1.0996
X6.7508Y-1.3008
X6.7508Y-1.6008
X6.8504Y-0.7996
X6.8504Y-1.0996
X6.8508Y-1.3008
X6.8508Y-1.6008
X6.9504Y-0.7996
X6.9504Y-1.0996
X6.9508Y-1.3008
X6.9508Y-1.6008
T4
X1.2Y-1.0504
X1.2Y-1.1504
X1.2Y-1.2504
X1.2Y-1.3504
X3.15Y-1.0496
X3.15Y-1.1496
X3.15Y-1.2496
X3.15Y-1.3496
X3.35Y-1.0504
X3.35Y-1.1504
X3.35Y-1.2504
X3.35Y-1.3504
X7.1Y-1.0496
X7.1Y-1.1496
X7.1Y-1.2496
X7.1Y-1.3496
T5
X1.2Y-0.85
X1.2Y-1.55
X3.15Y-0.85
X3.15Y-1.55
X3.35Y-0.85
X3.35Y-1.55
X7.1Y-0.85
X7.1Y-1.55
T0
M30
