%TF.GenerationSoftware,KiCad,Pcbnew,7.0.5*%
%TF.CreationDate,2024-09-18T03:37:09-04:00*%
%TF.ProjectId,stepper_motor_controller,73746570-7065-4725-9f6d-6f746f725f63,rev?*%
%TF.SameCoordinates,Original*%
%TF.FileFunction,Legend,Top*%
%TF.FilePolarity,Positive*%
%FSLAX46Y46*%
G04 Gerber Fmt 4.6, Leading zero omitted, Abs format (unit mm)*
G04 Created by KiCad (PCBNEW 7.0.5) date 2024-09-18 03:37:09*
%MOMM*%
%LPD*%
G01*
G04 APERTURE LIST*
%ADD10C,0.150000*%
%ADD11C,0.120000*%
G04 APERTURE END LIST*
D10*
X86613922Y-30659819D02*
X86947255Y-31659819D01*
X86947255Y-31659819D02*
X87280588Y-30659819D01*
X88185350Y-31564580D02*
X88137731Y-31612200D01*
X88137731Y-31612200D02*
X87994874Y-31659819D01*
X87994874Y-31659819D02*
X87899636Y-31659819D01*
X87899636Y-31659819D02*
X87756779Y-31612200D01*
X87756779Y-31612200D02*
X87661541Y-31516961D01*
X87661541Y-31516961D02*
X87613922Y-31421723D01*
X87613922Y-31421723D02*
X87566303Y-31231247D01*
X87566303Y-31231247D02*
X87566303Y-31088390D01*
X87566303Y-31088390D02*
X87613922Y-30897914D01*
X87613922Y-30897914D02*
X87661541Y-30802676D01*
X87661541Y-30802676D02*
X87756779Y-30707438D01*
X87756779Y-30707438D02*
X87899636Y-30659819D01*
X87899636Y-30659819D02*
X87994874Y-30659819D01*
X87994874Y-30659819D02*
X88137731Y-30707438D01*
X88137731Y-30707438D02*
X88185350Y-30755057D01*
X89185350Y-31564580D02*
X89137731Y-31612200D01*
X89137731Y-31612200D02*
X88994874Y-31659819D01*
X88994874Y-31659819D02*
X88899636Y-31659819D01*
X88899636Y-31659819D02*
X88756779Y-31612200D01*
X88756779Y-31612200D02*
X88661541Y-31516961D01*
X88661541Y-31516961D02*
X88613922Y-31421723D01*
X88613922Y-31421723D02*
X88566303Y-31231247D01*
X88566303Y-31231247D02*
X88566303Y-31088390D01*
X88566303Y-31088390D02*
X88613922Y-30897914D01*
X88613922Y-30897914D02*
X88661541Y-30802676D01*
X88661541Y-30802676D02*
X88756779Y-30707438D01*
X88756779Y-30707438D02*
X88899636Y-30659819D01*
X88899636Y-30659819D02*
X88994874Y-30659819D01*
X88994874Y-30659819D02*
X89137731Y-30707438D01*
X89137731Y-30707438D02*
X89185350Y-30755057D01*
X84371415Y-35871484D02*
X84276177Y-35823865D01*
X84276177Y-35823865D02*
X84133320Y-35823865D01*
X84133320Y-35823865D02*
X83990463Y-35871484D01*
X83990463Y-35871484D02*
X83895225Y-35966722D01*
X83895225Y-35966722D02*
X83847606Y-36061960D01*
X83847606Y-36061960D02*
X83799987Y-36252436D01*
X83799987Y-36252436D02*
X83799987Y-36395293D01*
X83799987Y-36395293D02*
X83847606Y-36585769D01*
X83847606Y-36585769D02*
X83895225Y-36681007D01*
X83895225Y-36681007D02*
X83990463Y-36776246D01*
X83990463Y-36776246D02*
X84133320Y-36823865D01*
X84133320Y-36823865D02*
X84228558Y-36823865D01*
X84228558Y-36823865D02*
X84371415Y-36776246D01*
X84371415Y-36776246D02*
X84419034Y-36728626D01*
X84419034Y-36728626D02*
X84419034Y-36395293D01*
X84419034Y-36395293D02*
X84228558Y-36395293D01*
X84847606Y-36823865D02*
X84847606Y-35823865D01*
X84847606Y-35823865D02*
X85419034Y-36823865D01*
X85419034Y-36823865D02*
X85419034Y-35823865D01*
X85895225Y-36823865D02*
X85895225Y-35823865D01*
X85895225Y-35823865D02*
X86133320Y-35823865D01*
X86133320Y-35823865D02*
X86276177Y-35871484D01*
X86276177Y-35871484D02*
X86371415Y-35966722D01*
X86371415Y-35966722D02*
X86419034Y-36061960D01*
X86419034Y-36061960D02*
X86466653Y-36252436D01*
X86466653Y-36252436D02*
X86466653Y-36395293D01*
X86466653Y-36395293D02*
X86419034Y-36585769D01*
X86419034Y-36585769D02*
X86371415Y-36681007D01*
X86371415Y-36681007D02*
X86276177Y-36776246D01*
X86276177Y-36776246D02*
X86133320Y-36823865D01*
X86133320Y-36823865D02*
X85895225Y-36823865D01*
X84620588Y-24267438D02*
X84525350Y-24219819D01*
X84525350Y-24219819D02*
X84382493Y-24219819D01*
X84382493Y-24219819D02*
X84239636Y-24267438D01*
X84239636Y-24267438D02*
X84144398Y-24362676D01*
X84144398Y-24362676D02*
X84096779Y-24457914D01*
X84096779Y-24457914D02*
X84049160Y-24648390D01*
X84049160Y-24648390D02*
X84049160Y-24791247D01*
X84049160Y-24791247D02*
X84096779Y-24981723D01*
X84096779Y-24981723D02*
X84144398Y-25076961D01*
X84144398Y-25076961D02*
X84239636Y-25172200D01*
X84239636Y-25172200D02*
X84382493Y-25219819D01*
X84382493Y-25219819D02*
X84477731Y-25219819D01*
X84477731Y-25219819D02*
X84620588Y-25172200D01*
X84620588Y-25172200D02*
X84668207Y-25124580D01*
X84668207Y-25124580D02*
X84668207Y-24791247D01*
X84668207Y-24791247D02*
X84477731Y-24791247D01*
X85096779Y-25219819D02*
X85096779Y-24219819D01*
X85096779Y-24219819D02*
X85668207Y-25219819D01*
X85668207Y-25219819D02*
X85668207Y-24219819D01*
X86144398Y-25219819D02*
X86144398Y-24219819D01*
X86144398Y-24219819D02*
X86382493Y-24219819D01*
X86382493Y-24219819D02*
X86525350Y-24267438D01*
X86525350Y-24267438D02*
X86620588Y-24362676D01*
X86620588Y-24362676D02*
X86668207Y-24457914D01*
X86668207Y-24457914D02*
X86715826Y-24648390D01*
X86715826Y-24648390D02*
X86715826Y-24791247D01*
X86715826Y-24791247D02*
X86668207Y-24981723D01*
X86668207Y-24981723D02*
X86620588Y-25076961D01*
X86620588Y-25076961D02*
X86525350Y-25172200D01*
X86525350Y-25172200D02*
X86382493Y-25219819D01*
X86382493Y-25219819D02*
X86144398Y-25219819D01*
X86665641Y-29098063D02*
X86998974Y-30098063D01*
X86998974Y-30098063D02*
X87332307Y-29098063D01*
X88237069Y-30002824D02*
X88189450Y-30050444D01*
X88189450Y-30050444D02*
X88046593Y-30098063D01*
X88046593Y-30098063D02*
X87951355Y-30098063D01*
X87951355Y-30098063D02*
X87808498Y-30050444D01*
X87808498Y-30050444D02*
X87713260Y-29955205D01*
X87713260Y-29955205D02*
X87665641Y-29859967D01*
X87665641Y-29859967D02*
X87618022Y-29669491D01*
X87618022Y-29669491D02*
X87618022Y-29526634D01*
X87618022Y-29526634D02*
X87665641Y-29336158D01*
X87665641Y-29336158D02*
X87713260Y-29240920D01*
X87713260Y-29240920D02*
X87808498Y-29145682D01*
X87808498Y-29145682D02*
X87951355Y-29098063D01*
X87951355Y-29098063D02*
X88046593Y-29098063D01*
X88046593Y-29098063D02*
X88189450Y-29145682D01*
X88189450Y-29145682D02*
X88237069Y-29193301D01*
X89237069Y-30002824D02*
X89189450Y-30050444D01*
X89189450Y-30050444D02*
X89046593Y-30098063D01*
X89046593Y-30098063D02*
X88951355Y-30098063D01*
X88951355Y-30098063D02*
X88808498Y-30050444D01*
X88808498Y-30050444D02*
X88713260Y-29955205D01*
X88713260Y-29955205D02*
X88665641Y-29859967D01*
X88665641Y-29859967D02*
X88618022Y-29669491D01*
X88618022Y-29669491D02*
X88618022Y-29526634D01*
X88618022Y-29526634D02*
X88665641Y-29336158D01*
X88665641Y-29336158D02*
X88713260Y-29240920D01*
X88713260Y-29240920D02*
X88808498Y-29145682D01*
X88808498Y-29145682D02*
X88951355Y-29098063D01*
X88951355Y-29098063D02*
X89046593Y-29098063D01*
X89046593Y-29098063D02*
X89189450Y-29145682D01*
X89189450Y-29145682D02*
X89237069Y-29193301D01*
X27257325Y-34801553D02*
X27257325Y-33801553D01*
X27257325Y-33801553D02*
X27495420Y-33801553D01*
X27495420Y-33801553D02*
X27638277Y-33849172D01*
X27638277Y-33849172D02*
X27733515Y-33944410D01*
X27733515Y-33944410D02*
X27781134Y-34039648D01*
X27781134Y-34039648D02*
X27828753Y-34230124D01*
X27828753Y-34230124D02*
X27828753Y-34372981D01*
X27828753Y-34372981D02*
X27781134Y-34563457D01*
X27781134Y-34563457D02*
X27733515Y-34658695D01*
X27733515Y-34658695D02*
X27638277Y-34753934D01*
X27638277Y-34753934D02*
X27495420Y-34801553D01*
X27495420Y-34801553D02*
X27257325Y-34801553D01*
X28828753Y-34801553D02*
X28495420Y-34325362D01*
X28257325Y-34801553D02*
X28257325Y-33801553D01*
X28257325Y-33801553D02*
X28638277Y-33801553D01*
X28638277Y-33801553D02*
X28733515Y-33849172D01*
X28733515Y-33849172D02*
X28781134Y-33896791D01*
X28781134Y-33896791D02*
X28828753Y-33992029D01*
X28828753Y-33992029D02*
X28828753Y-34134886D01*
X28828753Y-34134886D02*
X28781134Y-34230124D01*
X28781134Y-34230124D02*
X28733515Y-34277743D01*
X28733515Y-34277743D02*
X28638277Y-34325362D01*
X28638277Y-34325362D02*
X28257325Y-34325362D01*
X27816321Y-32145248D02*
X27768702Y-32192868D01*
X27768702Y-32192868D02*
X27625845Y-32240487D01*
X27625845Y-32240487D02*
X27530607Y-32240487D01*
X27530607Y-32240487D02*
X27387750Y-32192868D01*
X27387750Y-32192868D02*
X27292512Y-32097629D01*
X27292512Y-32097629D02*
X27244893Y-32002391D01*
X27244893Y-32002391D02*
X27197274Y-31811915D01*
X27197274Y-31811915D02*
X27197274Y-31669058D01*
X27197274Y-31669058D02*
X27244893Y-31478582D01*
X27244893Y-31478582D02*
X27292512Y-31383344D01*
X27292512Y-31383344D02*
X27387750Y-31288106D01*
X27387750Y-31288106D02*
X27530607Y-31240487D01*
X27530607Y-31240487D02*
X27625845Y-31240487D01*
X27625845Y-31240487D02*
X27768702Y-31288106D01*
X27768702Y-31288106D02*
X27816321Y-31335725D01*
X28244893Y-32240487D02*
X28244893Y-31240487D01*
X28816321Y-32240487D02*
X28387750Y-31669058D01*
X28816321Y-31240487D02*
X28244893Y-31811915D01*
X27797627Y-28829851D02*
X27702389Y-28782232D01*
X27702389Y-28782232D02*
X27559532Y-28782232D01*
X27559532Y-28782232D02*
X27416675Y-28829851D01*
X27416675Y-28829851D02*
X27321437Y-28925089D01*
X27321437Y-28925089D02*
X27273818Y-29020327D01*
X27273818Y-29020327D02*
X27226199Y-29210803D01*
X27226199Y-29210803D02*
X27226199Y-29353660D01*
X27226199Y-29353660D02*
X27273818Y-29544136D01*
X27273818Y-29544136D02*
X27321437Y-29639374D01*
X27321437Y-29639374D02*
X27416675Y-29734613D01*
X27416675Y-29734613D02*
X27559532Y-29782232D01*
X27559532Y-29782232D02*
X27654770Y-29782232D01*
X27654770Y-29782232D02*
X27797627Y-29734613D01*
X27797627Y-29734613D02*
X27845246Y-29686993D01*
X27845246Y-29686993D02*
X27845246Y-29353660D01*
X27845246Y-29353660D02*
X27654770Y-29353660D01*
X28273818Y-29782232D02*
X28273818Y-28782232D01*
X28273818Y-28782232D02*
X28511913Y-28782232D01*
X28511913Y-28782232D02*
X28654770Y-28829851D01*
X28654770Y-28829851D02*
X28750008Y-28925089D01*
X28750008Y-28925089D02*
X28797627Y-29020327D01*
X28797627Y-29020327D02*
X28845246Y-29210803D01*
X28845246Y-29210803D02*
X28845246Y-29353660D01*
X28845246Y-29353660D02*
X28797627Y-29544136D01*
X28797627Y-29544136D02*
X28750008Y-29639374D01*
X28750008Y-29639374D02*
X28654770Y-29734613D01*
X28654770Y-29734613D02*
X28511913Y-29782232D01*
X28511913Y-29782232D02*
X28273818Y-29782232D01*
X27874332Y-26208734D02*
X27398142Y-26208734D01*
X27398142Y-26208734D02*
X27350523Y-26684924D01*
X27350523Y-26684924D02*
X27398142Y-26637305D01*
X27398142Y-26637305D02*
X27493380Y-26589686D01*
X27493380Y-26589686D02*
X27731475Y-26589686D01*
X27731475Y-26589686D02*
X27826713Y-26637305D01*
X27826713Y-26637305D02*
X27874332Y-26684924D01*
X27874332Y-26684924D02*
X27921951Y-26780162D01*
X27921951Y-26780162D02*
X27921951Y-27018257D01*
X27921951Y-27018257D02*
X27874332Y-27113495D01*
X27874332Y-27113495D02*
X27826713Y-27161115D01*
X27826713Y-27161115D02*
X27731475Y-27208734D01*
X27731475Y-27208734D02*
X27493380Y-27208734D01*
X27493380Y-27208734D02*
X27398142Y-27161115D01*
X27398142Y-27161115D02*
X27350523Y-27113495D01*
X28207666Y-26208734D02*
X28540999Y-27208734D01*
X28540999Y-27208734D02*
X28874332Y-26208734D01*
X77714485Y-34847915D02*
X77714485Y-33847915D01*
X77714485Y-33847915D02*
X77952580Y-33847915D01*
X77952580Y-33847915D02*
X78095437Y-33895534D01*
X78095437Y-33895534D02*
X78190675Y-33990772D01*
X78190675Y-33990772D02*
X78238294Y-34086010D01*
X78238294Y-34086010D02*
X78285913Y-34276486D01*
X78285913Y-34276486D02*
X78285913Y-34419343D01*
X78285913Y-34419343D02*
X78238294Y-34609819D01*
X78238294Y-34609819D02*
X78190675Y-34705057D01*
X78190675Y-34705057D02*
X78095437Y-34800296D01*
X78095437Y-34800296D02*
X77952580Y-34847915D01*
X77952580Y-34847915D02*
X77714485Y-34847915D01*
X78207689Y-32139696D02*
X78160070Y-32187316D01*
X78160070Y-32187316D02*
X78017213Y-32234935D01*
X78017213Y-32234935D02*
X77921975Y-32234935D01*
X77921975Y-32234935D02*
X77779118Y-32187316D01*
X77779118Y-32187316D02*
X77683880Y-32092077D01*
X77683880Y-32092077D02*
X77636261Y-31996839D01*
X77636261Y-31996839D02*
X77588642Y-31806363D01*
X77588642Y-31806363D02*
X77588642Y-31663506D01*
X77588642Y-31663506D02*
X77636261Y-31473030D01*
X77636261Y-31473030D02*
X77683880Y-31377792D01*
X77683880Y-31377792D02*
X77779118Y-31282554D01*
X77779118Y-31282554D02*
X77921975Y-31234935D01*
X77921975Y-31234935D02*
X78017213Y-31234935D01*
X78017213Y-31234935D02*
X78160070Y-31282554D01*
X78160070Y-31282554D02*
X78207689Y-31330173D01*
X77982027Y-29100329D02*
X78124884Y-29147948D01*
X78124884Y-29147948D02*
X78172503Y-29195567D01*
X78172503Y-29195567D02*
X78220122Y-29290805D01*
X78220122Y-29290805D02*
X78220122Y-29433662D01*
X78220122Y-29433662D02*
X78172503Y-29528900D01*
X78172503Y-29528900D02*
X78124884Y-29576520D01*
X78124884Y-29576520D02*
X78029646Y-29624139D01*
X78029646Y-29624139D02*
X77648694Y-29624139D01*
X77648694Y-29624139D02*
X77648694Y-28624139D01*
X77648694Y-28624139D02*
X77982027Y-28624139D01*
X77982027Y-28624139D02*
X78077265Y-28671758D01*
X78077265Y-28671758D02*
X78124884Y-28719377D01*
X78124884Y-28719377D02*
X78172503Y-28814615D01*
X78172503Y-28814615D02*
X78172503Y-28909853D01*
X78172503Y-28909853D02*
X78124884Y-29005091D01*
X78124884Y-29005091D02*
X78077265Y-29052710D01*
X78077265Y-29052710D02*
X77982027Y-29100329D01*
X77982027Y-29100329D02*
X77648694Y-29100329D01*
X77675669Y-26901682D02*
X78151859Y-26901682D01*
X77580431Y-27187397D02*
X77913764Y-26187397D01*
X77913764Y-26187397D02*
X78247097Y-27187397D01*
X182458064Y-34799654D02*
X182458064Y-33799654D01*
X182458064Y-33799654D02*
X182696159Y-33799654D01*
X182696159Y-33799654D02*
X182839016Y-33847273D01*
X182839016Y-33847273D02*
X182934254Y-33942511D01*
X182934254Y-33942511D02*
X182981873Y-34037749D01*
X182981873Y-34037749D02*
X183029492Y-34228225D01*
X183029492Y-34228225D02*
X183029492Y-34371082D01*
X183029492Y-34371082D02*
X182981873Y-34561558D01*
X182981873Y-34561558D02*
X182934254Y-34656796D01*
X182934254Y-34656796D02*
X182839016Y-34752035D01*
X182839016Y-34752035D02*
X182696159Y-34799654D01*
X182696159Y-34799654D02*
X182458064Y-34799654D01*
X183004627Y-32106052D02*
X182957008Y-32153672D01*
X182957008Y-32153672D02*
X182814151Y-32201291D01*
X182814151Y-32201291D02*
X182718913Y-32201291D01*
X182718913Y-32201291D02*
X182576056Y-32153672D01*
X182576056Y-32153672D02*
X182480818Y-32058433D01*
X182480818Y-32058433D02*
X182433199Y-31963195D01*
X182433199Y-31963195D02*
X182385580Y-31772719D01*
X182385580Y-31772719D02*
X182385580Y-31629862D01*
X182385580Y-31629862D02*
X182433199Y-31439386D01*
X182433199Y-31439386D02*
X182480818Y-31344148D01*
X182480818Y-31344148D02*
X182576056Y-31248910D01*
X182576056Y-31248910D02*
X182718913Y-31201291D01*
X182718913Y-31201291D02*
X182814151Y-31201291D01*
X182814151Y-31201291D02*
X182957008Y-31248910D01*
X182957008Y-31248910D02*
X183004627Y-31296529D01*
X182756862Y-29136092D02*
X182899719Y-29183711D01*
X182899719Y-29183711D02*
X182947338Y-29231330D01*
X182947338Y-29231330D02*
X182994957Y-29326568D01*
X182994957Y-29326568D02*
X182994957Y-29469425D01*
X182994957Y-29469425D02*
X182947338Y-29564663D01*
X182947338Y-29564663D02*
X182899719Y-29612283D01*
X182899719Y-29612283D02*
X182804481Y-29659902D01*
X182804481Y-29659902D02*
X182423529Y-29659902D01*
X182423529Y-29659902D02*
X182423529Y-28659902D01*
X182423529Y-28659902D02*
X182756862Y-28659902D01*
X182756862Y-28659902D02*
X182852100Y-28707521D01*
X182852100Y-28707521D02*
X182899719Y-28755140D01*
X182899719Y-28755140D02*
X182947338Y-28850378D01*
X182947338Y-28850378D02*
X182947338Y-28945616D01*
X182947338Y-28945616D02*
X182899719Y-29040854D01*
X182899719Y-29040854D02*
X182852100Y-29088473D01*
X182852100Y-29088473D02*
X182756862Y-29136092D01*
X182756862Y-29136092D02*
X182423529Y-29136092D01*
X182408368Y-26886255D02*
X182884558Y-26886255D01*
X182313130Y-27171970D02*
X182646463Y-26171970D01*
X182646463Y-26171970D02*
X182979796Y-27171970D01*
X181168922Y-23634819D02*
X181502255Y-24634819D01*
X181502255Y-24634819D02*
X181835588Y-23634819D01*
X182740350Y-24539580D02*
X182692731Y-24587200D01*
X182692731Y-24587200D02*
X182549874Y-24634819D01*
X182549874Y-24634819D02*
X182454636Y-24634819D01*
X182454636Y-24634819D02*
X182311779Y-24587200D01*
X182311779Y-24587200D02*
X182216541Y-24491961D01*
X182216541Y-24491961D02*
X182168922Y-24396723D01*
X182168922Y-24396723D02*
X182121303Y-24206247D01*
X182121303Y-24206247D02*
X182121303Y-24063390D01*
X182121303Y-24063390D02*
X182168922Y-23872914D01*
X182168922Y-23872914D02*
X182216541Y-23777676D01*
X182216541Y-23777676D02*
X182311779Y-23682438D01*
X182311779Y-23682438D02*
X182454636Y-23634819D01*
X182454636Y-23634819D02*
X182549874Y-23634819D01*
X182549874Y-23634819D02*
X182692731Y-23682438D01*
X182692731Y-23682438D02*
X182740350Y-23730057D01*
X183740350Y-24539580D02*
X183692731Y-24587200D01*
X183692731Y-24587200D02*
X183549874Y-24634819D01*
X183549874Y-24634819D02*
X183454636Y-24634819D01*
X183454636Y-24634819D02*
X183311779Y-24587200D01*
X183311779Y-24587200D02*
X183216541Y-24491961D01*
X183216541Y-24491961D02*
X183168922Y-24396723D01*
X183168922Y-24396723D02*
X183121303Y-24206247D01*
X183121303Y-24206247D02*
X183121303Y-24063390D01*
X183121303Y-24063390D02*
X183168922Y-23872914D01*
X183168922Y-23872914D02*
X183216541Y-23777676D01*
X183216541Y-23777676D02*
X183311779Y-23682438D01*
X183311779Y-23682438D02*
X183454636Y-23634819D01*
X183454636Y-23634819D02*
X183549874Y-23634819D01*
X183549874Y-23634819D02*
X183692731Y-23682438D01*
X183692731Y-23682438D02*
X183740350Y-23730057D01*
X112561917Y-42926704D02*
X112085727Y-42926704D01*
X112085727Y-42926704D02*
X112085727Y-41926704D01*
X112942870Y-42926704D02*
X113133346Y-42926704D01*
X113133346Y-42926704D02*
X113228584Y-42879085D01*
X113228584Y-42879085D02*
X113276203Y-42831465D01*
X113276203Y-42831465D02*
X113371441Y-42688608D01*
X113371441Y-42688608D02*
X113419060Y-42498132D01*
X113419060Y-42498132D02*
X113419060Y-42117180D01*
X113419060Y-42117180D02*
X113371441Y-42021942D01*
X113371441Y-42021942D02*
X113323822Y-41974323D01*
X113323822Y-41974323D02*
X113228584Y-41926704D01*
X113228584Y-41926704D02*
X113038108Y-41926704D01*
X113038108Y-41926704D02*
X112942870Y-41974323D01*
X112942870Y-41974323D02*
X112895251Y-42021942D01*
X112895251Y-42021942D02*
X112847632Y-42117180D01*
X112847632Y-42117180D02*
X112847632Y-42355275D01*
X112847632Y-42355275D02*
X112895251Y-42450513D01*
X112895251Y-42450513D02*
X112942870Y-42498132D01*
X112942870Y-42498132D02*
X113038108Y-42545751D01*
X113038108Y-42545751D02*
X113228584Y-42545751D01*
X113228584Y-42545751D02*
X113323822Y-42498132D01*
X113323822Y-42498132D02*
X113371441Y-42450513D01*
X113371441Y-42450513D02*
X113419060Y-42355275D01*
X114371441Y-42926704D02*
X113800013Y-42926704D01*
X114085727Y-42926704D02*
X114085727Y-41926704D01*
X114085727Y-41926704D02*
X113990489Y-42069561D01*
X113990489Y-42069561D02*
X113895251Y-42164799D01*
X113895251Y-42164799D02*
X113800013Y-42212418D01*
X115323822Y-42926704D02*
X114752394Y-42926704D01*
X115038108Y-42926704D02*
X115038108Y-41926704D01*
X115038108Y-41926704D02*
X114942870Y-42069561D01*
X114942870Y-42069561D02*
X114847632Y-42164799D01*
X114847632Y-42164799D02*
X114752394Y-42212418D01*
X115942870Y-41926704D02*
X116038108Y-41926704D01*
X116038108Y-41926704D02*
X116133346Y-41974323D01*
X116133346Y-41974323D02*
X116180965Y-42021942D01*
X116180965Y-42021942D02*
X116228584Y-42117180D01*
X116228584Y-42117180D02*
X116276203Y-42307656D01*
X116276203Y-42307656D02*
X116276203Y-42545751D01*
X116276203Y-42545751D02*
X116228584Y-42736227D01*
X116228584Y-42736227D02*
X116180965Y-42831465D01*
X116180965Y-42831465D02*
X116133346Y-42879085D01*
X116133346Y-42879085D02*
X116038108Y-42926704D01*
X116038108Y-42926704D02*
X115942870Y-42926704D01*
X115942870Y-42926704D02*
X115847632Y-42879085D01*
X115847632Y-42879085D02*
X115800013Y-42831465D01*
X115800013Y-42831465D02*
X115752394Y-42736227D01*
X115752394Y-42736227D02*
X115704775Y-42545751D01*
X115704775Y-42545751D02*
X115704775Y-42307656D01*
X115704775Y-42307656D02*
X115752394Y-42117180D01*
X115752394Y-42117180D02*
X115800013Y-42021942D01*
X115800013Y-42021942D02*
X115847632Y-41974323D01*
X115847632Y-41974323D02*
X115942870Y-41926704D01*
X116704775Y-42926704D02*
X116704775Y-41926704D01*
X116704775Y-42402894D02*
X117276203Y-42402894D01*
X117276203Y-42926704D02*
X117276203Y-41926704D01*
X118514299Y-42926704D02*
X118514299Y-41926704D01*
X118514299Y-41926704D02*
X118752394Y-41926704D01*
X118752394Y-41926704D02*
X118895251Y-41974323D01*
X118895251Y-41974323D02*
X118990489Y-42069561D01*
X118990489Y-42069561D02*
X119038108Y-42164799D01*
X119038108Y-42164799D02*
X119085727Y-42355275D01*
X119085727Y-42355275D02*
X119085727Y-42498132D01*
X119085727Y-42498132D02*
X119038108Y-42688608D01*
X119038108Y-42688608D02*
X118990489Y-42783846D01*
X118990489Y-42783846D02*
X118895251Y-42879085D01*
X118895251Y-42879085D02*
X118752394Y-42926704D01*
X118752394Y-42926704D02*
X118514299Y-42926704D01*
X120085727Y-42926704D02*
X119752394Y-42450513D01*
X119514299Y-42926704D02*
X119514299Y-41926704D01*
X119514299Y-41926704D02*
X119895251Y-41926704D01*
X119895251Y-41926704D02*
X119990489Y-41974323D01*
X119990489Y-41974323D02*
X120038108Y-42021942D01*
X120038108Y-42021942D02*
X120085727Y-42117180D01*
X120085727Y-42117180D02*
X120085727Y-42260037D01*
X120085727Y-42260037D02*
X120038108Y-42355275D01*
X120038108Y-42355275D02*
X119990489Y-42402894D01*
X119990489Y-42402894D02*
X119895251Y-42450513D01*
X119895251Y-42450513D02*
X119514299Y-42450513D01*
X120514299Y-42926704D02*
X120514299Y-41926704D01*
X120847632Y-41926704D02*
X121180965Y-42926704D01*
X121180965Y-42926704D02*
X121514298Y-41926704D01*
X121847632Y-42402894D02*
X122180965Y-42402894D01*
X122323822Y-42926704D02*
X121847632Y-42926704D01*
X121847632Y-42926704D02*
X121847632Y-41926704D01*
X121847632Y-41926704D02*
X122323822Y-41926704D01*
X123323822Y-42926704D02*
X122990489Y-42450513D01*
X122752394Y-42926704D02*
X122752394Y-41926704D01*
X122752394Y-41926704D02*
X123133346Y-41926704D01*
X123133346Y-41926704D02*
X123228584Y-41974323D01*
X123228584Y-41974323D02*
X123276203Y-42021942D01*
X123276203Y-42021942D02*
X123323822Y-42117180D01*
X123323822Y-42117180D02*
X123323822Y-42260037D01*
X123323822Y-42260037D02*
X123276203Y-42355275D01*
X123276203Y-42355275D02*
X123228584Y-42402894D01*
X123228584Y-42402894D02*
X123133346Y-42450513D01*
X123133346Y-42450513D02*
X122752394Y-42450513D01*
X124466680Y-42640989D02*
X124942870Y-42640989D01*
X124371442Y-42926704D02*
X124704775Y-41926704D01*
X124704775Y-41926704D02*
X125038108Y-42926704D01*
X125942870Y-42926704D02*
X125609537Y-42450513D01*
X125371442Y-42926704D02*
X125371442Y-41926704D01*
X125371442Y-41926704D02*
X125752394Y-41926704D01*
X125752394Y-41926704D02*
X125847632Y-41974323D01*
X125847632Y-41974323D02*
X125895251Y-42021942D01*
X125895251Y-42021942D02*
X125942870Y-42117180D01*
X125942870Y-42117180D02*
X125942870Y-42260037D01*
X125942870Y-42260037D02*
X125895251Y-42355275D01*
X125895251Y-42355275D02*
X125847632Y-42402894D01*
X125847632Y-42402894D02*
X125752394Y-42450513D01*
X125752394Y-42450513D02*
X125371442Y-42450513D01*
X126942870Y-42926704D02*
X126609537Y-42450513D01*
X126371442Y-42926704D02*
X126371442Y-41926704D01*
X126371442Y-41926704D02*
X126752394Y-41926704D01*
X126752394Y-41926704D02*
X126847632Y-41974323D01*
X126847632Y-41974323D02*
X126895251Y-42021942D01*
X126895251Y-42021942D02*
X126942870Y-42117180D01*
X126942870Y-42117180D02*
X126942870Y-42260037D01*
X126942870Y-42260037D02*
X126895251Y-42355275D01*
X126895251Y-42355275D02*
X126847632Y-42402894D01*
X126847632Y-42402894D02*
X126752394Y-42450513D01*
X126752394Y-42450513D02*
X126371442Y-42450513D01*
X127323823Y-42640989D02*
X127800013Y-42640989D01*
X127228585Y-42926704D02*
X127561918Y-41926704D01*
X127561918Y-41926704D02*
X127895251Y-42926704D01*
X128419061Y-42450513D02*
X128419061Y-42926704D01*
X128085728Y-41926704D02*
X128419061Y-42450513D01*
X128419061Y-42450513D02*
X128752394Y-41926704D01*
X129847633Y-42402894D02*
X130180966Y-42402894D01*
X130323823Y-42926704D02*
X129847633Y-42926704D01*
X129847633Y-42926704D02*
X129847633Y-41926704D01*
X129847633Y-41926704D02*
X130323823Y-41926704D01*
X130752395Y-42831465D02*
X130800014Y-42879085D01*
X130800014Y-42879085D02*
X130752395Y-42926704D01*
X130752395Y-42926704D02*
X130704776Y-42879085D01*
X130704776Y-42879085D02*
X130752395Y-42831465D01*
X130752395Y-42831465D02*
X130752395Y-42926704D01*
X131228585Y-42926704D02*
X131228585Y-41926704D01*
X131228585Y-41926704D02*
X131609537Y-41926704D01*
X131609537Y-41926704D02*
X131704775Y-41974323D01*
X131704775Y-41974323D02*
X131752394Y-42021942D01*
X131752394Y-42021942D02*
X131800013Y-42117180D01*
X131800013Y-42117180D02*
X131800013Y-42260037D01*
X131800013Y-42260037D02*
X131752394Y-42355275D01*
X131752394Y-42355275D02*
X131704775Y-42402894D01*
X131704775Y-42402894D02*
X131609537Y-42450513D01*
X131609537Y-42450513D02*
X131228585Y-42450513D01*
X132800013Y-42926704D02*
X132466680Y-42450513D01*
X132228585Y-42926704D02*
X132228585Y-41926704D01*
X132228585Y-41926704D02*
X132609537Y-41926704D01*
X132609537Y-41926704D02*
X132704775Y-41974323D01*
X132704775Y-41974323D02*
X132752394Y-42021942D01*
X132752394Y-42021942D02*
X132800013Y-42117180D01*
X132800013Y-42117180D02*
X132800013Y-42260037D01*
X132800013Y-42260037D02*
X132752394Y-42355275D01*
X132752394Y-42355275D02*
X132704775Y-42402894D01*
X132704775Y-42402894D02*
X132609537Y-42450513D01*
X132609537Y-42450513D02*
X132228585Y-42450513D01*
X133228585Y-42926704D02*
X133228585Y-41926704D01*
X133561918Y-41926704D02*
X134133346Y-41926704D01*
X133847632Y-42926704D02*
X133847632Y-41926704D01*
X135038108Y-42831465D02*
X134990489Y-42879085D01*
X134990489Y-42879085D02*
X134847632Y-42926704D01*
X134847632Y-42926704D02*
X134752394Y-42926704D01*
X134752394Y-42926704D02*
X134609537Y-42879085D01*
X134609537Y-42879085D02*
X134514299Y-42783846D01*
X134514299Y-42783846D02*
X134466680Y-42688608D01*
X134466680Y-42688608D02*
X134419061Y-42498132D01*
X134419061Y-42498132D02*
X134419061Y-42355275D01*
X134419061Y-42355275D02*
X134466680Y-42164799D01*
X134466680Y-42164799D02*
X134514299Y-42069561D01*
X134514299Y-42069561D02*
X134609537Y-41974323D01*
X134609537Y-41974323D02*
X134752394Y-41926704D01*
X134752394Y-41926704D02*
X134847632Y-41926704D01*
X134847632Y-41926704D02*
X134990489Y-41974323D01*
X134990489Y-41974323D02*
X135038108Y-42021942D01*
X135466680Y-42926704D02*
X135466680Y-41926704D01*
X135466680Y-42402894D02*
X136038108Y-42402894D01*
X136038108Y-42926704D02*
X136038108Y-41926704D01*
X136466680Y-42640989D02*
X136942870Y-42640989D01*
X136371442Y-42926704D02*
X136704775Y-41926704D01*
X136704775Y-41926704D02*
X137038108Y-42926704D01*
X137942870Y-42926704D02*
X137609537Y-42450513D01*
X137371442Y-42926704D02*
X137371442Y-41926704D01*
X137371442Y-41926704D02*
X137752394Y-41926704D01*
X137752394Y-41926704D02*
X137847632Y-41974323D01*
X137847632Y-41974323D02*
X137895251Y-42021942D01*
X137895251Y-42021942D02*
X137942870Y-42117180D01*
X137942870Y-42117180D02*
X137942870Y-42260037D01*
X137942870Y-42260037D02*
X137895251Y-42355275D01*
X137895251Y-42355275D02*
X137847632Y-42402894D01*
X137847632Y-42402894D02*
X137752394Y-42450513D01*
X137752394Y-42450513D02*
X137371442Y-42450513D01*
X138371442Y-42926704D02*
X138371442Y-41926704D01*
X138371442Y-41926704D02*
X138609537Y-41926704D01*
X138609537Y-41926704D02*
X138752394Y-41974323D01*
X138752394Y-41974323D02*
X138847632Y-42069561D01*
X138847632Y-42069561D02*
X138895251Y-42164799D01*
X138895251Y-42164799D02*
X138942870Y-42355275D01*
X138942870Y-42355275D02*
X138942870Y-42498132D01*
X138942870Y-42498132D02*
X138895251Y-42688608D01*
X138895251Y-42688608D02*
X138847632Y-42783846D01*
X138847632Y-42783846D02*
X138752394Y-42879085D01*
X138752394Y-42879085D02*
X138609537Y-42926704D01*
X138609537Y-42926704D02*
X138371442Y-42926704D01*
X140085728Y-42021942D02*
X140133347Y-41974323D01*
X140133347Y-41974323D02*
X140228585Y-41926704D01*
X140228585Y-41926704D02*
X140466680Y-41926704D01*
X140466680Y-41926704D02*
X140561918Y-41974323D01*
X140561918Y-41974323D02*
X140609537Y-42021942D01*
X140609537Y-42021942D02*
X140657156Y-42117180D01*
X140657156Y-42117180D02*
X140657156Y-42212418D01*
X140657156Y-42212418D02*
X140609537Y-42355275D01*
X140609537Y-42355275D02*
X140038109Y-42926704D01*
X140038109Y-42926704D02*
X140657156Y-42926704D01*
X141514299Y-42260037D02*
X141514299Y-42926704D01*
X141276204Y-41879085D02*
X141038109Y-42593370D01*
X141038109Y-42593370D02*
X141657156Y-42593370D01*
X40364868Y-42094637D02*
X40507725Y-42142256D01*
X40507725Y-42142256D02*
X40745820Y-42142256D01*
X40745820Y-42142256D02*
X40841058Y-42094637D01*
X40841058Y-42094637D02*
X40888677Y-42047017D01*
X40888677Y-42047017D02*
X40936296Y-41951779D01*
X40936296Y-41951779D02*
X40936296Y-41856541D01*
X40936296Y-41856541D02*
X40888677Y-41761303D01*
X40888677Y-41761303D02*
X40841058Y-41713684D01*
X40841058Y-41713684D02*
X40745820Y-41666065D01*
X40745820Y-41666065D02*
X40555344Y-41618446D01*
X40555344Y-41618446D02*
X40460106Y-41570827D01*
X40460106Y-41570827D02*
X40412487Y-41523208D01*
X40412487Y-41523208D02*
X40364868Y-41427970D01*
X40364868Y-41427970D02*
X40364868Y-41332732D01*
X40364868Y-41332732D02*
X40412487Y-41237494D01*
X40412487Y-41237494D02*
X40460106Y-41189875D01*
X40460106Y-41189875D02*
X40555344Y-41142256D01*
X40555344Y-41142256D02*
X40793439Y-41142256D01*
X40793439Y-41142256D02*
X40936296Y-41189875D01*
X41222011Y-41142256D02*
X41793439Y-41142256D01*
X41507725Y-42142256D02*
X41507725Y-41142256D01*
X42126773Y-41618446D02*
X42460106Y-41618446D01*
X42602963Y-42142256D02*
X42126773Y-42142256D01*
X42126773Y-42142256D02*
X42126773Y-41142256D01*
X42126773Y-41142256D02*
X42602963Y-41142256D01*
X43031535Y-42142256D02*
X43031535Y-41142256D01*
X43031535Y-41142256D02*
X43412487Y-41142256D01*
X43412487Y-41142256D02*
X43507725Y-41189875D01*
X43507725Y-41189875D02*
X43555344Y-41237494D01*
X43555344Y-41237494D02*
X43602963Y-41332732D01*
X43602963Y-41332732D02*
X43602963Y-41475589D01*
X43602963Y-41475589D02*
X43555344Y-41570827D01*
X43555344Y-41570827D02*
X43507725Y-41618446D01*
X43507725Y-41618446D02*
X43412487Y-41666065D01*
X43412487Y-41666065D02*
X43031535Y-41666065D01*
X44031535Y-42142256D02*
X44031535Y-41142256D01*
X44031535Y-41142256D02*
X44412487Y-41142256D01*
X44412487Y-41142256D02*
X44507725Y-41189875D01*
X44507725Y-41189875D02*
X44555344Y-41237494D01*
X44555344Y-41237494D02*
X44602963Y-41332732D01*
X44602963Y-41332732D02*
X44602963Y-41475589D01*
X44602963Y-41475589D02*
X44555344Y-41570827D01*
X44555344Y-41570827D02*
X44507725Y-41618446D01*
X44507725Y-41618446D02*
X44412487Y-41666065D01*
X44412487Y-41666065D02*
X44031535Y-41666065D01*
X45031535Y-41618446D02*
X45364868Y-41618446D01*
X45507725Y-42142256D02*
X45031535Y-42142256D01*
X45031535Y-42142256D02*
X45031535Y-41142256D01*
X45031535Y-41142256D02*
X45507725Y-41142256D01*
X46507725Y-42142256D02*
X46174392Y-41666065D01*
X45936297Y-42142256D02*
X45936297Y-41142256D01*
X45936297Y-41142256D02*
X46317249Y-41142256D01*
X46317249Y-41142256D02*
X46412487Y-41189875D01*
X46412487Y-41189875D02*
X46460106Y-41237494D01*
X46460106Y-41237494D02*
X46507725Y-41332732D01*
X46507725Y-41332732D02*
X46507725Y-41475589D01*
X46507725Y-41475589D02*
X46460106Y-41570827D01*
X46460106Y-41570827D02*
X46412487Y-41618446D01*
X46412487Y-41618446D02*
X46317249Y-41666065D01*
X46317249Y-41666065D02*
X45936297Y-41666065D01*
X47698202Y-42142256D02*
X47698202Y-41142256D01*
X47698202Y-41142256D02*
X48031535Y-41856541D01*
X48031535Y-41856541D02*
X48364868Y-41142256D01*
X48364868Y-41142256D02*
X48364868Y-42142256D01*
X49031535Y-41142256D02*
X49222011Y-41142256D01*
X49222011Y-41142256D02*
X49317249Y-41189875D01*
X49317249Y-41189875D02*
X49412487Y-41285113D01*
X49412487Y-41285113D02*
X49460106Y-41475589D01*
X49460106Y-41475589D02*
X49460106Y-41808922D01*
X49460106Y-41808922D02*
X49412487Y-41999398D01*
X49412487Y-41999398D02*
X49317249Y-42094637D01*
X49317249Y-42094637D02*
X49222011Y-42142256D01*
X49222011Y-42142256D02*
X49031535Y-42142256D01*
X49031535Y-42142256D02*
X48936297Y-42094637D01*
X48936297Y-42094637D02*
X48841059Y-41999398D01*
X48841059Y-41999398D02*
X48793440Y-41808922D01*
X48793440Y-41808922D02*
X48793440Y-41475589D01*
X48793440Y-41475589D02*
X48841059Y-41285113D01*
X48841059Y-41285113D02*
X48936297Y-41189875D01*
X48936297Y-41189875D02*
X49031535Y-41142256D01*
X49745821Y-41142256D02*
X50317249Y-41142256D01*
X50031535Y-42142256D02*
X50031535Y-41142256D01*
X50841059Y-41142256D02*
X51031535Y-41142256D01*
X51031535Y-41142256D02*
X51126773Y-41189875D01*
X51126773Y-41189875D02*
X51222011Y-41285113D01*
X51222011Y-41285113D02*
X51269630Y-41475589D01*
X51269630Y-41475589D02*
X51269630Y-41808922D01*
X51269630Y-41808922D02*
X51222011Y-41999398D01*
X51222011Y-41999398D02*
X51126773Y-42094637D01*
X51126773Y-42094637D02*
X51031535Y-42142256D01*
X51031535Y-42142256D02*
X50841059Y-42142256D01*
X50841059Y-42142256D02*
X50745821Y-42094637D01*
X50745821Y-42094637D02*
X50650583Y-41999398D01*
X50650583Y-41999398D02*
X50602964Y-41808922D01*
X50602964Y-41808922D02*
X50602964Y-41475589D01*
X50602964Y-41475589D02*
X50650583Y-41285113D01*
X50650583Y-41285113D02*
X50745821Y-41189875D01*
X50745821Y-41189875D02*
X50841059Y-41142256D01*
X52269630Y-42142256D02*
X51936297Y-41666065D01*
X51698202Y-42142256D02*
X51698202Y-41142256D01*
X51698202Y-41142256D02*
X52079154Y-41142256D01*
X52079154Y-41142256D02*
X52174392Y-41189875D01*
X52174392Y-41189875D02*
X52222011Y-41237494D01*
X52222011Y-41237494D02*
X52269630Y-41332732D01*
X52269630Y-41332732D02*
X52269630Y-41475589D01*
X52269630Y-41475589D02*
X52222011Y-41570827D01*
X52222011Y-41570827D02*
X52174392Y-41618446D01*
X52174392Y-41618446D02*
X52079154Y-41666065D01*
X52079154Y-41666065D02*
X51698202Y-41666065D01*
X53460107Y-42142256D02*
X53460107Y-41142256D01*
X53460107Y-41142256D02*
X53698202Y-41142256D01*
X53698202Y-41142256D02*
X53841059Y-41189875D01*
X53841059Y-41189875D02*
X53936297Y-41285113D01*
X53936297Y-41285113D02*
X53983916Y-41380351D01*
X53983916Y-41380351D02*
X54031535Y-41570827D01*
X54031535Y-41570827D02*
X54031535Y-41713684D01*
X54031535Y-41713684D02*
X53983916Y-41904160D01*
X53983916Y-41904160D02*
X53936297Y-41999398D01*
X53936297Y-41999398D02*
X53841059Y-42094637D01*
X53841059Y-42094637D02*
X53698202Y-42142256D01*
X53698202Y-42142256D02*
X53460107Y-42142256D01*
X55031535Y-42142256D02*
X54698202Y-41666065D01*
X54460107Y-42142256D02*
X54460107Y-41142256D01*
X54460107Y-41142256D02*
X54841059Y-41142256D01*
X54841059Y-41142256D02*
X54936297Y-41189875D01*
X54936297Y-41189875D02*
X54983916Y-41237494D01*
X54983916Y-41237494D02*
X55031535Y-41332732D01*
X55031535Y-41332732D02*
X55031535Y-41475589D01*
X55031535Y-41475589D02*
X54983916Y-41570827D01*
X54983916Y-41570827D02*
X54936297Y-41618446D01*
X54936297Y-41618446D02*
X54841059Y-41666065D01*
X54841059Y-41666065D02*
X54460107Y-41666065D01*
X55460107Y-42142256D02*
X55460107Y-41142256D01*
X55793440Y-41142256D02*
X56126773Y-42142256D01*
X56126773Y-42142256D02*
X56460106Y-41142256D01*
X56793440Y-41618446D02*
X57126773Y-41618446D01*
X57269630Y-42142256D02*
X56793440Y-42142256D01*
X56793440Y-42142256D02*
X56793440Y-41142256D01*
X56793440Y-41142256D02*
X57269630Y-41142256D01*
X58269630Y-42142256D02*
X57936297Y-41666065D01*
X57698202Y-42142256D02*
X57698202Y-41142256D01*
X57698202Y-41142256D02*
X58079154Y-41142256D01*
X58079154Y-41142256D02*
X58174392Y-41189875D01*
X58174392Y-41189875D02*
X58222011Y-41237494D01*
X58222011Y-41237494D02*
X58269630Y-41332732D01*
X58269630Y-41332732D02*
X58269630Y-41475589D01*
X58269630Y-41475589D02*
X58222011Y-41570827D01*
X58222011Y-41570827D02*
X58174392Y-41618446D01*
X58174392Y-41618446D02*
X58079154Y-41666065D01*
X58079154Y-41666065D02*
X57698202Y-41666065D01*
X59460107Y-41618446D02*
X59793440Y-41618446D01*
X59936297Y-42142256D02*
X59460107Y-42142256D01*
X59460107Y-42142256D02*
X59460107Y-41142256D01*
X59460107Y-41142256D02*
X59936297Y-41142256D01*
X60364869Y-42047017D02*
X60412488Y-42094637D01*
X60412488Y-42094637D02*
X60364869Y-42142256D01*
X60364869Y-42142256D02*
X60317250Y-42094637D01*
X60317250Y-42094637D02*
X60364869Y-42047017D01*
X60364869Y-42047017D02*
X60364869Y-42142256D01*
X60841059Y-42142256D02*
X60841059Y-41142256D01*
X60841059Y-41142256D02*
X61222011Y-41142256D01*
X61222011Y-41142256D02*
X61317249Y-41189875D01*
X61317249Y-41189875D02*
X61364868Y-41237494D01*
X61364868Y-41237494D02*
X61412487Y-41332732D01*
X61412487Y-41332732D02*
X61412487Y-41475589D01*
X61412487Y-41475589D02*
X61364868Y-41570827D01*
X61364868Y-41570827D02*
X61317249Y-41618446D01*
X61317249Y-41618446D02*
X61222011Y-41666065D01*
X61222011Y-41666065D02*
X60841059Y-41666065D01*
X62412487Y-42142256D02*
X62079154Y-41666065D01*
X61841059Y-42142256D02*
X61841059Y-41142256D01*
X61841059Y-41142256D02*
X62222011Y-41142256D01*
X62222011Y-41142256D02*
X62317249Y-41189875D01*
X62317249Y-41189875D02*
X62364868Y-41237494D01*
X62364868Y-41237494D02*
X62412487Y-41332732D01*
X62412487Y-41332732D02*
X62412487Y-41475589D01*
X62412487Y-41475589D02*
X62364868Y-41570827D01*
X62364868Y-41570827D02*
X62317249Y-41618446D01*
X62317249Y-41618446D02*
X62222011Y-41666065D01*
X62222011Y-41666065D02*
X61841059Y-41666065D01*
X62841059Y-42142256D02*
X62841059Y-41142256D01*
X63174392Y-41142256D02*
X63745820Y-41142256D01*
X63460106Y-42142256D02*
X63460106Y-41142256D01*
X64650582Y-42047017D02*
X64602963Y-42094637D01*
X64602963Y-42094637D02*
X64460106Y-42142256D01*
X64460106Y-42142256D02*
X64364868Y-42142256D01*
X64364868Y-42142256D02*
X64222011Y-42094637D01*
X64222011Y-42094637D02*
X64126773Y-41999398D01*
X64126773Y-41999398D02*
X64079154Y-41904160D01*
X64079154Y-41904160D02*
X64031535Y-41713684D01*
X64031535Y-41713684D02*
X64031535Y-41570827D01*
X64031535Y-41570827D02*
X64079154Y-41380351D01*
X64079154Y-41380351D02*
X64126773Y-41285113D01*
X64126773Y-41285113D02*
X64222011Y-41189875D01*
X64222011Y-41189875D02*
X64364868Y-41142256D01*
X64364868Y-41142256D02*
X64460106Y-41142256D01*
X64460106Y-41142256D02*
X64602963Y-41189875D01*
X64602963Y-41189875D02*
X64650582Y-41237494D01*
X65079154Y-42142256D02*
X65079154Y-41142256D01*
X65079154Y-41618446D02*
X65650582Y-41618446D01*
X65650582Y-42142256D02*
X65650582Y-41142256D01*
X66079154Y-41856541D02*
X66555344Y-41856541D01*
X65983916Y-42142256D02*
X66317249Y-41142256D01*
X66317249Y-41142256D02*
X66650582Y-42142256D01*
X67555344Y-42142256D02*
X67222011Y-41666065D01*
X66983916Y-42142256D02*
X66983916Y-41142256D01*
X66983916Y-41142256D02*
X67364868Y-41142256D01*
X67364868Y-41142256D02*
X67460106Y-41189875D01*
X67460106Y-41189875D02*
X67507725Y-41237494D01*
X67507725Y-41237494D02*
X67555344Y-41332732D01*
X67555344Y-41332732D02*
X67555344Y-41475589D01*
X67555344Y-41475589D02*
X67507725Y-41570827D01*
X67507725Y-41570827D02*
X67460106Y-41618446D01*
X67460106Y-41618446D02*
X67364868Y-41666065D01*
X67364868Y-41666065D02*
X66983916Y-41666065D01*
X67983916Y-42142256D02*
X67983916Y-41142256D01*
X67983916Y-41142256D02*
X68222011Y-41142256D01*
X68222011Y-41142256D02*
X68364868Y-41189875D01*
X68364868Y-41189875D02*
X68460106Y-41285113D01*
X68460106Y-41285113D02*
X68507725Y-41380351D01*
X68507725Y-41380351D02*
X68555344Y-41570827D01*
X68555344Y-41570827D02*
X68555344Y-41713684D01*
X68555344Y-41713684D02*
X68507725Y-41904160D01*
X68507725Y-41904160D02*
X68460106Y-41999398D01*
X68460106Y-41999398D02*
X68364868Y-42094637D01*
X68364868Y-42094637D02*
X68222011Y-42142256D01*
X68222011Y-42142256D02*
X67983916Y-42142256D01*
X69698202Y-41237494D02*
X69745821Y-41189875D01*
X69745821Y-41189875D02*
X69841059Y-41142256D01*
X69841059Y-41142256D02*
X70079154Y-41142256D01*
X70079154Y-41142256D02*
X70174392Y-41189875D01*
X70174392Y-41189875D02*
X70222011Y-41237494D01*
X70222011Y-41237494D02*
X70269630Y-41332732D01*
X70269630Y-41332732D02*
X70269630Y-41427970D01*
X70269630Y-41427970D02*
X70222011Y-41570827D01*
X70222011Y-41570827D02*
X69650583Y-42142256D01*
X69650583Y-42142256D02*
X70269630Y-42142256D01*
X71126773Y-41475589D02*
X71126773Y-42142256D01*
X70888678Y-41094637D02*
X70650583Y-41808922D01*
X70650583Y-41808922D02*
X71269630Y-41808922D01*
D11*
%TO.C,R7*%
X73894060Y-36517518D02*
X73894060Y-36992034D01*
X74939060Y-36517518D02*
X74939060Y-36992034D01*
%TO.C,R6*%
X69962500Y-34242742D02*
X69962500Y-34717258D01*
X71007500Y-34242742D02*
X71007500Y-34717258D01*
%TO.C,R4*%
X73772500Y-28972742D02*
X73772500Y-29447258D01*
X74817500Y-28972742D02*
X74817500Y-29447258D01*
%TO.C,R3*%
X69962500Y-26432742D02*
X69962500Y-26907258D01*
X71007500Y-26432742D02*
X71007500Y-26907258D01*
%TO.C,R14*%
X37450000Y-18765000D02*
X41290000Y-18765000D01*
X37450000Y-20605000D02*
X41290000Y-20605000D01*
%TO.C,R11*%
X48880000Y-20605000D02*
X52720000Y-20605000D01*
X48880000Y-18765000D02*
X52720000Y-18765000D01*
%TO.C,R8*%
X60310000Y-20605000D02*
X64150000Y-20605000D01*
X60310000Y-18765000D02*
X64150000Y-18765000D01*
%TO.C,R5*%
X71740000Y-20605000D02*
X75580000Y-20605000D01*
X71740000Y-18765000D02*
X75580000Y-18765000D01*
%TO.C,C8*%
X167529722Y-30628171D02*
X167529722Y-30347011D01*
X166509722Y-30628171D02*
X166509722Y-30347011D01*
%TO.C,C7*%
X156062681Y-30664950D02*
X156062681Y-30383790D01*
X155042681Y-30664950D02*
X155042681Y-30383790D01*
%TO.C,C6*%
X144721805Y-30620580D02*
X144721805Y-30339420D01*
X143701805Y-30620580D02*
X143701805Y-30339420D01*
%TO.C,C5*%
X133247435Y-30657237D02*
X133247435Y-30376077D01*
X132227435Y-30657237D02*
X132227435Y-30376077D01*
%TO.C,C3*%
X121806818Y-30620580D02*
X121806818Y-30339420D01*
X120786818Y-30620580D02*
X120786818Y-30339420D01*
%TO.C,C2*%
X110312667Y-30663997D02*
X110312667Y-30382837D01*
X109292667Y-30663997D02*
X109292667Y-30382837D01*
%TO.C,C1*%
X98931393Y-30662545D02*
X98931393Y-30381385D01*
X97911393Y-30662545D02*
X97911393Y-30381385D01*
%TO.C,U3*%
X35460000Y-21525000D02*
X35460000Y-39425000D01*
X40760000Y-21525000D02*
X39110000Y-21525000D01*
X35460000Y-39425000D02*
X40760000Y-39425000D01*
X40760000Y-39425000D02*
X40760000Y-21525000D01*
X37110000Y-21525000D02*
X35460000Y-21525000D01*
X37110000Y-21525000D02*
G75*
G03*
X39110000Y-21525000I1000000J0D01*
G01*
%TO.C,U2*%
X46880000Y-21530000D02*
X46880000Y-39430000D01*
X52180000Y-21530000D02*
X50530000Y-21530000D01*
X46880000Y-39430000D02*
X52180000Y-39430000D01*
X52180000Y-39430000D02*
X52180000Y-21530000D01*
X48530000Y-21530000D02*
X46880000Y-21530000D01*
X48530000Y-21530000D02*
G75*
G03*
X50530000Y-21530000I1000000J0D01*
G01*
%TO.C,U20*%
X69740000Y-21530000D02*
X69740000Y-39430000D01*
X75040000Y-21530000D02*
X73390000Y-21530000D01*
X69740000Y-39430000D02*
X75040000Y-39430000D01*
X75040000Y-39430000D02*
X75040000Y-21530000D01*
X71390000Y-21530000D02*
X69740000Y-21530000D01*
X71390000Y-21530000D02*
G75*
G03*
X73390000Y-21530000I1000000J0D01*
G01*
%TO.C,J3*%
X83760000Y-25350000D02*
X85090000Y-25350000D01*
X83760000Y-26680000D02*
X83760000Y-25350000D01*
X83760000Y-27950000D02*
X83760000Y-35630000D01*
X83760000Y-27950000D02*
X86420000Y-27950000D01*
X83760000Y-35630000D02*
X86420000Y-35630000D01*
X86420000Y-27950000D02*
X86420000Y-35630000D01*
%TO.C,U7*%
X109310000Y-34200000D02*
X99030000Y-34200000D01*
X99030000Y-34200000D02*
X99030000Y-39500000D01*
X109310000Y-35850000D02*
X109310000Y-34200000D01*
X109310000Y-39500000D02*
X109310000Y-37850000D01*
X99030000Y-39500000D02*
X109310000Y-39500000D01*
X109310000Y-35850000D02*
G75*
G03*
X109310000Y-37850000I0J-1000000D01*
G01*
%TO.C,D2*%
X183402500Y-26242742D02*
X183402500Y-26717258D01*
X182357500Y-26242742D02*
X182357500Y-26717258D01*
%TO.C,U13*%
X143580000Y-34210000D02*
X133300000Y-34210000D01*
X133300000Y-34210000D02*
X133300000Y-39510000D01*
X143580000Y-35860000D02*
X143580000Y-34210000D01*
X143580000Y-39510000D02*
X143580000Y-37860000D01*
X133300000Y-39510000D02*
X143580000Y-39510000D01*
X143580000Y-35860000D02*
G75*
G03*
X143580000Y-37860000I0J-1000000D01*
G01*
%TO.C,U15*%
X155020000Y-34200000D02*
X144740000Y-34200000D01*
X144740000Y-34200000D02*
X144740000Y-39500000D01*
X155020000Y-35850000D02*
X155020000Y-34200000D01*
X155020000Y-39500000D02*
X155020000Y-37850000D01*
X144740000Y-39500000D02*
X155020000Y-39500000D01*
X155020000Y-35850000D02*
G75*
G03*
X155020000Y-37850000I0J-1000000D01*
G01*
%TO.C,J1*%
X29150000Y-25350000D02*
X30480000Y-25350000D01*
X29150000Y-26680000D02*
X29150000Y-25350000D01*
X29150000Y-27950000D02*
X29150000Y-35630000D01*
X29150000Y-27950000D02*
X31810000Y-27950000D01*
X29150000Y-35630000D02*
X31810000Y-35630000D01*
X31810000Y-27950000D02*
X31810000Y-35630000D01*
%TO.C,R2*%
X182357500Y-30082258D02*
X182357500Y-29607742D01*
X183402500Y-30082258D02*
X183402500Y-29607742D01*
%TO.C,U5*%
X87580000Y-26770000D02*
X97860000Y-26770000D01*
X97860000Y-26770000D02*
X97860000Y-21470000D01*
X87580000Y-25120000D02*
X87580000Y-26770000D01*
X87580000Y-21470000D02*
X87580000Y-23120000D01*
X97860000Y-21470000D02*
X87580000Y-21470000D01*
X87580000Y-25120000D02*
G75*
G03*
X87580000Y-23120000I0J1000000D01*
G01*
%TO.C,J2*%
X181670000Y-35610000D02*
X180340000Y-35610000D01*
X181670000Y-34280000D02*
X181670000Y-35610000D01*
X181670000Y-33010000D02*
X181670000Y-25330000D01*
X181670000Y-33010000D02*
X179010000Y-33010000D01*
X181670000Y-25330000D02*
X179010000Y-25330000D01*
X179010000Y-33010000D02*
X179010000Y-25330000D01*
%TO.C,U18*%
X167590000Y-26770000D02*
X177870000Y-26770000D01*
X177870000Y-26770000D02*
X177870000Y-21470000D01*
X167590000Y-25120000D02*
X167590000Y-26770000D01*
X167590000Y-21470000D02*
X167590000Y-23120000D01*
X177870000Y-21470000D02*
X167590000Y-21470000D01*
X167590000Y-25120000D02*
G75*
G03*
X167590000Y-23120000I0J1000000D01*
G01*
%TO.C,U8*%
X110430000Y-26770000D02*
X120710000Y-26770000D01*
X120710000Y-26770000D02*
X120710000Y-21470000D01*
X110430000Y-25120000D02*
X110430000Y-26770000D01*
X110430000Y-21470000D02*
X110430000Y-23120000D01*
X120710000Y-21470000D02*
X110430000Y-21470000D01*
X110430000Y-25120000D02*
G75*
G03*
X110430000Y-23120000I0J1000000D01*
G01*
%TO.C,R1*%
X34052742Y-19162500D02*
X34527258Y-19162500D01*
X34052742Y-20207500D02*
X34527258Y-20207500D01*
%TO.C,U11*%
X132160000Y-34200000D02*
X121880000Y-34200000D01*
X121880000Y-34200000D02*
X121880000Y-39500000D01*
X132160000Y-35850000D02*
X132160000Y-34200000D01*
X132160000Y-39500000D02*
X132160000Y-37850000D01*
X121880000Y-39500000D02*
X132160000Y-39500000D01*
X132160000Y-35850000D02*
G75*
G03*
X132160000Y-37850000I0J-1000000D01*
G01*
%TO.C,U12*%
X133290000Y-26780000D02*
X143570000Y-26780000D01*
X143570000Y-26780000D02*
X143570000Y-21480000D01*
X133290000Y-25130000D02*
X133290000Y-26780000D01*
X133290000Y-21480000D02*
X133290000Y-23130000D01*
X143570000Y-21480000D02*
X133290000Y-21480000D01*
X133290000Y-25130000D02*
G75*
G03*
X133290000Y-23130000I0J1000000D01*
G01*
%TO.C,U19*%
X177880000Y-34200000D02*
X167600000Y-34200000D01*
X167600000Y-34200000D02*
X167600000Y-39500000D01*
X177880000Y-35850000D02*
X177880000Y-34200000D01*
X177880000Y-39500000D02*
X177880000Y-37850000D01*
X167600000Y-39500000D02*
X177880000Y-39500000D01*
X177880000Y-35850000D02*
G75*
G03*
X177880000Y-37850000I0J-1000000D01*
G01*
%TO.C,U9*%
X120720000Y-34200000D02*
X110440000Y-34200000D01*
X110440000Y-34200000D02*
X110440000Y-39500000D01*
X120720000Y-35850000D02*
X120720000Y-34200000D01*
X120720000Y-39500000D02*
X120720000Y-37850000D01*
X110440000Y-39500000D02*
X120720000Y-39500000D01*
X120720000Y-35850000D02*
G75*
G03*
X120720000Y-37850000I0J-1000000D01*
G01*
%TO.C,U4*%
X97870000Y-34200000D02*
X87590000Y-34200000D01*
X87590000Y-34200000D02*
X87590000Y-39500000D01*
X97870000Y-35850000D02*
X97870000Y-34200000D01*
X97870000Y-39500000D02*
X97870000Y-37850000D01*
X87590000Y-39500000D02*
X97870000Y-39500000D01*
X97870000Y-35850000D02*
G75*
G03*
X97870000Y-37850000I0J-1000000D01*
G01*
%TO.C,U1*%
X58320000Y-21525000D02*
X58320000Y-39425000D01*
X58320000Y-39425000D02*
X63620000Y-39425000D01*
X59970000Y-21525000D02*
X58320000Y-21525000D01*
X63620000Y-21525000D02*
X61970000Y-21525000D01*
X63620000Y-39425000D02*
X63620000Y-21525000D01*
X59970000Y-21525000D02*
G75*
G03*
X61970000Y-21525000I1000000J0D01*
G01*
%TO.C,U14*%
X144710000Y-26780000D02*
X154990000Y-26780000D01*
X154990000Y-26780000D02*
X154990000Y-21480000D01*
X144710000Y-25130000D02*
X144710000Y-26780000D01*
X144710000Y-21480000D02*
X144710000Y-23130000D01*
X154990000Y-21480000D02*
X144710000Y-21480000D01*
X144710000Y-25130000D02*
G75*
G03*
X144710000Y-23130000I0J1000000D01*
G01*
%TO.C,D1*%
X45322258Y-20207500D02*
X44847742Y-20207500D01*
X45322258Y-19162500D02*
X44847742Y-19162500D01*
%TO.C,U10*%
X121850000Y-26770000D02*
X132130000Y-26770000D01*
X132130000Y-26770000D02*
X132130000Y-21470000D01*
X121850000Y-25120000D02*
X121850000Y-26770000D01*
X121850000Y-21470000D02*
X121850000Y-23120000D01*
X132130000Y-21470000D02*
X121850000Y-21470000D01*
X121850000Y-25120000D02*
G75*
G03*
X121850000Y-23120000I0J1000000D01*
G01*
%TO.C,U16*%
X156150000Y-26770000D02*
X166430000Y-26770000D01*
X166430000Y-26770000D02*
X166430000Y-21470000D01*
X156150000Y-25120000D02*
X156150000Y-26770000D01*
X156150000Y-21470000D02*
X156150000Y-23120000D01*
X166430000Y-21470000D02*
X156150000Y-21470000D01*
X156150000Y-25120000D02*
G75*
G03*
X156150000Y-23120000I0J1000000D01*
G01*
%TO.C,U17*%
X166460000Y-34190000D02*
X156180000Y-34190000D01*
X156180000Y-34190000D02*
X156180000Y-39490000D01*
X166460000Y-35840000D02*
X166460000Y-34190000D01*
X166460000Y-39490000D02*
X166460000Y-37840000D01*
X156180000Y-39490000D02*
X166460000Y-39490000D01*
X166460000Y-35840000D02*
G75*
G03*
X166460000Y-37840000I0J-1000000D01*
G01*
%TO.C,U6*%
X99000000Y-26770000D02*
X109280000Y-26770000D01*
X109280000Y-26770000D02*
X109280000Y-21470000D01*
X99000000Y-25120000D02*
X99000000Y-26770000D01*
X99000000Y-21470000D02*
X99000000Y-23120000D01*
X109280000Y-21470000D02*
X99000000Y-21470000D01*
X99000000Y-25120000D02*
G75*
G03*
X99000000Y-23120000I0J1000000D01*
G01*
%TO.C,J4*%
X81340000Y-35610000D02*
X80010000Y-35610000D01*
X81340000Y-34280000D02*
X81340000Y-35610000D01*
X81340000Y-33010000D02*
X81340000Y-25330000D01*
X81340000Y-33010000D02*
X78680000Y-33010000D01*
X81340000Y-25330000D02*
X78680000Y-25330000D01*
X78680000Y-33010000D02*
X78680000Y-25330000D01*
%TD*%
M02*
