%TF.GenerationSoftware,KiCad,Pcbnew,7.0.5*%
%TF.CreationDate,2024-09-18T03:37:09-04:00*%
%TF.ProjectId,stepper_motor_controller,73746570-7065-4725-9f6d-6f746f725f63,rev?*%
%TF.SameCoordinates,Original*%
%TF.FileFunction,Soldermask,Bot*%
%TF.FilePolarity,Negative*%
%FSLAX46Y46*%
G04 Gerber Fmt 4.6, Leading zero omitted, Abs format (unit mm)*
G04 Created by KiCad (PCBNEW 7.0.5) date 2024-09-18 03:37:09*
%MOMM*%
%LPD*%
G01*
G04 APERTURE LIST*
G04 Aperture macros list*
%AMRoundRect*
0 Rectangle with rounded corners*
0 $1 Rounding radius*
0 $2 $3 $4 $5 $6 $7 $8 $9 X,Y pos of 4 corners*
0 Add a 4 corners polygon primitive as box body*
4,1,4,$2,$3,$4,$5,$6,$7,$8,$9,$2,$3,0*
0 Add four circle primitives for the rounded corners*
1,1,$1+$1,$2,$3*
1,1,$1+$1,$4,$5*
1,1,$1+$1,$6,$7*
1,1,$1+$1,$8,$9*
0 Add four rect primitives between the rounded corners*
20,1,$1+$1,$2,$3,$4,$5,0*
20,1,$1+$1,$4,$5,$6,$7,0*
20,1,$1+$1,$6,$7,$8,$9,0*
20,1,$1+$1,$8,$9,$2,$3,0*%
G04 Aperture macros list end*
%ADD10O,1.400000X1.400000*%
%ADD11C,1.400000*%
%ADD12RoundRect,0.225000X-0.225000X-0.250000X0.225000X-0.250000X0.225000X0.250000X-0.225000X0.250000X0*%
%ADD13R,0.650000X1.560000*%
%ADD14R,1.600000X1.600000*%
%ADD15O,1.600000X1.600000*%
%ADD16R,1.700000X1.700000*%
%ADD17O,1.700000X1.700000*%
G04 APERTURE END LIST*
D10*
%TO.C,R14*%
X41910000Y-19685000D03*
D11*
X36830000Y-19685000D03*
%TD*%
%TO.C,R11*%
X48260000Y-19685000D03*
D10*
X53340000Y-19685000D03*
%TD*%
D11*
%TO.C,R8*%
X59690000Y-19685000D03*
D10*
X64770000Y-19685000D03*
%TD*%
D11*
%TO.C,R5*%
X71120000Y-19685000D03*
D10*
X76200000Y-19685000D03*
%TD*%
D12*
%TO.C,C20*%
X67170000Y-19685000D03*
X68720000Y-19685000D03*
%TD*%
%TO.C,C19*%
X55740000Y-19685000D03*
X57290000Y-19685000D03*
%TD*%
%TO.C,C18*%
X44310000Y-19685000D03*
X45860000Y-19685000D03*
%TD*%
D13*
%TO.C,Q4*%
X37150000Y-25480000D03*
X38100000Y-25480000D03*
X39050000Y-25480000D03*
X39050000Y-22780000D03*
X38100000Y-22780000D03*
X37150000Y-22780000D03*
%TD*%
%TO.C,Q3*%
X48580000Y-22780000D03*
X49530000Y-22780000D03*
X50480000Y-22780000D03*
X50480000Y-25480000D03*
X49530000Y-25480000D03*
X48580000Y-25480000D03*
%TD*%
%TO.C,Q2*%
X60325000Y-22780000D03*
X61275000Y-22780000D03*
X62225000Y-22780000D03*
X62225000Y-25480000D03*
X61275000Y-25480000D03*
X60325000Y-25480000D03*
%TD*%
%TO.C,Q1*%
X71755000Y-22780000D03*
X72705000Y-22780000D03*
X73655000Y-22780000D03*
X73655000Y-25480000D03*
X72705000Y-25480000D03*
X71755000Y-25480000D03*
%TD*%
D14*
%TO.C,U3*%
X34300000Y-22855000D03*
D15*
X34300000Y-25395000D03*
X34300000Y-27935000D03*
X34300000Y-30475000D03*
X34300000Y-33015000D03*
X34300000Y-35555000D03*
X34300000Y-38095000D03*
X41920000Y-38095000D03*
X41920000Y-35555000D03*
X41920000Y-33015000D03*
X41920000Y-30475000D03*
X41920000Y-27935000D03*
X41920000Y-25395000D03*
X41920000Y-22855000D03*
%TD*%
D14*
%TO.C,U2*%
X45720000Y-22860000D03*
D15*
X45720000Y-25400000D03*
X45720000Y-27940000D03*
X45720000Y-30480000D03*
X45720000Y-33020000D03*
X45720000Y-35560000D03*
X45720000Y-38100000D03*
X53340000Y-38100000D03*
X53340000Y-35560000D03*
X53340000Y-33020000D03*
X53340000Y-30480000D03*
X53340000Y-27940000D03*
X53340000Y-25400000D03*
X53340000Y-22860000D03*
%TD*%
D14*
%TO.C,U20*%
X68580000Y-22860000D03*
D15*
X68580000Y-25400000D03*
X68580000Y-27940000D03*
X68580000Y-30480000D03*
X68580000Y-33020000D03*
X68580000Y-35560000D03*
X68580000Y-38100000D03*
X76200000Y-38100000D03*
X76200000Y-35560000D03*
X76200000Y-33020000D03*
X76200000Y-30480000D03*
X76200000Y-27940000D03*
X76200000Y-25400000D03*
X76200000Y-22860000D03*
%TD*%
D16*
%TO.C,J3*%
X85090000Y-26680000D03*
D17*
X85090000Y-29220000D03*
X85090000Y-31760000D03*
X85090000Y-34300000D03*
%TD*%
D14*
%TO.C,U7*%
X107980000Y-33040000D03*
D15*
X105440000Y-33040000D03*
X102900000Y-33040000D03*
X100360000Y-33040000D03*
X100360000Y-40660000D03*
X102900000Y-40660000D03*
X105440000Y-40660000D03*
X107980000Y-40660000D03*
%TD*%
D14*
%TO.C,U13*%
X142250000Y-33050000D03*
D15*
X139710000Y-33050000D03*
X137170000Y-33050000D03*
X134630000Y-33050000D03*
X134630000Y-40670000D03*
X137170000Y-40670000D03*
X139710000Y-40670000D03*
X142250000Y-40670000D03*
%TD*%
D14*
%TO.C,U15*%
X153690000Y-33040000D03*
D15*
X151150000Y-33040000D03*
X148610000Y-33040000D03*
X146070000Y-33040000D03*
X146070000Y-40660000D03*
X148610000Y-40660000D03*
X151150000Y-40660000D03*
X153690000Y-40660000D03*
%TD*%
D16*
%TO.C,J1*%
X30480000Y-26680000D03*
D17*
X30480000Y-29220000D03*
X30480000Y-31760000D03*
X30480000Y-34300000D03*
%TD*%
D14*
%TO.C,U5*%
X88910000Y-27930000D03*
D15*
X91450000Y-27930000D03*
X93990000Y-27930000D03*
X96530000Y-27930000D03*
X96530000Y-20310000D03*
X93990000Y-20310000D03*
X91450000Y-20310000D03*
X88910000Y-20310000D03*
%TD*%
D16*
%TO.C,J2*%
X180340000Y-34280000D03*
D17*
X180340000Y-31740000D03*
X180340000Y-29200000D03*
X180340000Y-26660000D03*
%TD*%
D14*
%TO.C,U18*%
X168920000Y-27930000D03*
D15*
X171460000Y-27930000D03*
X174000000Y-27930000D03*
X176540000Y-27930000D03*
X176540000Y-20310000D03*
X174000000Y-20310000D03*
X171460000Y-20310000D03*
X168920000Y-20310000D03*
%TD*%
D14*
%TO.C,U8*%
X111760000Y-27930000D03*
D15*
X114300000Y-27930000D03*
X116840000Y-27930000D03*
X119380000Y-27930000D03*
X119380000Y-20310000D03*
X116840000Y-20310000D03*
X114300000Y-20310000D03*
X111760000Y-20310000D03*
%TD*%
D14*
%TO.C,U11*%
X130830000Y-33040000D03*
D15*
X128290000Y-33040000D03*
X125750000Y-33040000D03*
X123210000Y-33040000D03*
X123210000Y-40660000D03*
X125750000Y-40660000D03*
X128290000Y-40660000D03*
X130830000Y-40660000D03*
%TD*%
D14*
%TO.C,U12*%
X134620000Y-27940000D03*
D15*
X137160000Y-27940000D03*
X139700000Y-27940000D03*
X142240000Y-27940000D03*
X142240000Y-20320000D03*
X139700000Y-20320000D03*
X137160000Y-20320000D03*
X134620000Y-20320000D03*
%TD*%
D14*
%TO.C,U19*%
X176550000Y-33040000D03*
D15*
X174010000Y-33040000D03*
X171470000Y-33040000D03*
X168930000Y-33040000D03*
X168930000Y-40660000D03*
X171470000Y-40660000D03*
X174010000Y-40660000D03*
X176550000Y-40660000D03*
%TD*%
D14*
%TO.C,U9*%
X119390000Y-33040000D03*
D15*
X116850000Y-33040000D03*
X114310000Y-33040000D03*
X111770000Y-33040000D03*
X111770000Y-40660000D03*
X114310000Y-40660000D03*
X116850000Y-40660000D03*
X119390000Y-40660000D03*
%TD*%
D14*
%TO.C,U4*%
X96540000Y-33040000D03*
D15*
X94000000Y-33040000D03*
X91460000Y-33040000D03*
X88920000Y-33040000D03*
X88920000Y-40660000D03*
X91460000Y-40660000D03*
X94000000Y-40660000D03*
X96540000Y-40660000D03*
%TD*%
D14*
%TO.C,U1*%
X57160000Y-22855000D03*
D15*
X57160000Y-25395000D03*
X57160000Y-27935000D03*
X57160000Y-30475000D03*
X57160000Y-33015000D03*
X57160000Y-35555000D03*
X57160000Y-38095000D03*
X64780000Y-38095000D03*
X64780000Y-35555000D03*
X64780000Y-33015000D03*
X64780000Y-30475000D03*
X64780000Y-27935000D03*
X64780000Y-25395000D03*
X64780000Y-22855000D03*
%TD*%
D14*
%TO.C,U14*%
X146040000Y-27940000D03*
D15*
X148580000Y-27940000D03*
X151120000Y-27940000D03*
X153660000Y-27940000D03*
X153660000Y-20320000D03*
X151120000Y-20320000D03*
X148580000Y-20320000D03*
X146040000Y-20320000D03*
%TD*%
D14*
%TO.C,U10*%
X123180000Y-27930000D03*
D15*
X125720000Y-27930000D03*
X128260000Y-27930000D03*
X130800000Y-27930000D03*
X130800000Y-20310000D03*
X128260000Y-20310000D03*
X125720000Y-20310000D03*
X123180000Y-20310000D03*
%TD*%
D14*
%TO.C,U16*%
X157480000Y-27930000D03*
D15*
X160020000Y-27930000D03*
X162560000Y-27930000D03*
X165100000Y-27930000D03*
X165100000Y-20310000D03*
X162560000Y-20310000D03*
X160020000Y-20310000D03*
X157480000Y-20310000D03*
%TD*%
D14*
%TO.C,U17*%
X165130000Y-33030000D03*
D15*
X162590000Y-33030000D03*
X160050000Y-33030000D03*
X157510000Y-33030000D03*
X157510000Y-40650000D03*
X160050000Y-40650000D03*
X162590000Y-40650000D03*
X165130000Y-40650000D03*
%TD*%
D14*
%TO.C,U6*%
X100330000Y-27930000D03*
D15*
X102870000Y-27930000D03*
X105410000Y-27930000D03*
X107950000Y-27930000D03*
X107950000Y-20310000D03*
X105410000Y-20310000D03*
X102870000Y-20310000D03*
X100330000Y-20310000D03*
%TD*%
D16*
%TO.C,J4*%
X80010000Y-34280000D03*
D17*
X80010000Y-31740000D03*
X80010000Y-29200000D03*
X80010000Y-26660000D03*
%TD*%
M02*
