M48
; DRILL file {KiCad 7.0.5} date Tue Sep 17 16:51:37 2024
; FORMAT={-:-/ absolute / inch / decimal}
; #@! TF.CreationDate,2024-09-17T16:51:37-04:00
; #@! TF.GenerationSoftware,Kicad,Pcbnew,7.0.5
; #@! TF.FileFunction,Plated,1,2,PTH
FMAT,2
INCH
; #@! TA.AperFunction,Plated,PTH,ViaDrill
T1C0.0157
; #@! TA.AperFunction,Plated,PTH,ComponentDrill
T2C0.0315
; #@! TA.AperFunction,Plated,PTH,ComponentDrill
T3C0.0394
%
G90
G05
T1
X1.2Y-0.95
X1.2Y-1.35
X1.2505Y-1.359
X1.2532Y-0.9582
X1.3005Y-1.3919
X1.3032Y-0.9893
X1.4006Y-1.3099
X1.4008Y-0.9117
X1.4399Y-0.9079
X1.45Y-1.3092
X1.5Y-1.0
X1.5Y-1.425
X1.6016Y-0.9766
X1.6998Y-0.976
X1.75Y-1.025
X1.8Y-0.9996
X1.8Y-1.375
X1.8528Y-1.025
X2.0Y-1.375
X2.0518Y-1.35
X2.1Y-1.4
X2.225Y-1.375
X2.5Y-0.7
X2.8Y-0.7
X2.8Y-1.3
X2.95Y-1.35
T2
X1.2Y-0.8
X1.2Y-1.1
X1.2Y-1.2
X1.2Y-1.5
X1.3Y-0.8
X1.3Y-1.1
X1.3Y-1.2
X1.3Y-1.5
X1.4Y-0.8
X1.4Y-1.1
X1.4Y-1.2
X1.4Y-1.5
X1.5Y-0.8
X1.5Y-1.1
X1.5Y-1.2
X1.5Y-1.5
X1.6Y-0.8
X1.6Y-1.1
X1.6Y-1.2
X1.6Y-1.5
X1.7Y-0.8
X1.7Y-1.1
X1.7Y-1.2
X1.7Y-1.5
X1.8Y-0.8
X1.8Y-1.1
X1.8Y-1.2
X1.8Y-1.5
X1.9Y-0.8
X1.9Y-1.1
X1.9Y-1.2
X1.9Y-1.5
X2.0Y-1.1
X2.0Y-1.1984
X2.099Y-1.2
X2.099Y-1.5
X2.1Y-0.8
X2.1Y-1.1
X2.199Y-1.2
X2.199Y-1.5
X2.2Y-0.8
X2.2Y-1.1
X2.299Y-1.2
X2.299Y-1.5
X2.3Y-0.8
X2.3Y-1.1
X2.399Y-1.2
X2.399Y-1.5
X2.4Y-0.8
X2.4Y-1.1
X2.499Y-1.2
X2.499Y-1.5
X2.5Y-0.8
X2.5Y-1.1
X2.599Y-1.2
X2.599Y-1.5
X2.6Y-0.8
X2.6Y-1.1
X2.699Y-1.2
X2.699Y-1.5
X2.7Y-0.8
X2.7Y-1.1
X2.799Y-1.2
X2.799Y-1.5
X2.8Y-0.8
X2.8Y-1.1
X2.9Y-1.1
X2.9Y-1.1984
T3
X0.6Y-0.8
X0.6Y-0.9
X0.6Y-1.0
X0.6Y-1.1
X0.6Y-1.2
X0.6Y-1.3
X0.6Y-1.4
X0.6Y-1.5
X2.4Y-1.6
X2.5Y-1.6
X2.6Y-0.7
X2.7Y-0.7
X3.1Y-1.3
X3.1Y-1.4
X3.2Y-0.7
X3.2Y-0.8
X3.2Y-0.9
X3.2Y-1.0
X3.2Y-1.1
X3.2Y-1.2
X3.2Y-1.3
X3.2Y-1.4
X3.2Y-1.5
X3.2Y-1.6
T0
M30
