%TF.GenerationSoftware,KiCad,Pcbnew,7.0.5*%
%TF.CreationDate,2024-09-17T16:51:35-04:00*%
%TF.ProjectId,8_bit_logic_analyzer_rev_2,385f6269-745f-46c6-9f67-69635f616e61,rev?*%
%TF.SameCoordinates,Original*%
%TF.FileFunction,Soldermask,Bot*%
%TF.FilePolarity,Negative*%
%FSLAX46Y46*%
G04 Gerber Fmt 4.6, Leading zero omitted, Abs format (unit mm)*
G04 Created by KiCad (PCBNEW 7.0.5) date 2024-09-17 16:51:35*
%MOMM*%
%LPD*%
G01*
G04 APERTURE LIST*
G04 Aperture macros list*
%AMRoundRect*
0 Rectangle with rounded corners*
0 $1 Rounding radius*
0 $2 $3 $4 $5 $6 $7 $8 $9 X,Y pos of 4 corners*
0 Add a 4 corners polygon primitive as box body*
4,1,4,$2,$3,$4,$5,$6,$7,$8,$9,$2,$3,0*
0 Add four circle primitives for the rounded corners*
1,1,$1+$1,$2,$3*
1,1,$1+$1,$4,$5*
1,1,$1+$1,$6,$7*
1,1,$1+$1,$8,$9*
0 Add four rect primitives between the rounded corners*
20,1,$1+$1,$2,$3,$4,$5,0*
20,1,$1+$1,$4,$5,$6,$7,0*
20,1,$1+$1,$6,$7,$8,$9,0*
20,1,$1+$1,$8,$9,$2,$3,0*%
G04 Aperture macros list end*
%ADD10R,1.700000X1.700000*%
%ADD11O,1.700000X1.700000*%
%ADD12R,1.600000X1.600000*%
%ADD13O,1.600000X1.600000*%
%ADD14C,1.600000*%
%ADD15RoundRect,0.200000X0.275000X-0.200000X0.275000X0.200000X-0.275000X0.200000X-0.275000X-0.200000X0*%
%ADD16RoundRect,0.200000X-0.275000X0.200000X-0.275000X-0.200000X0.275000X-0.200000X0.275000X0.200000X0*%
G04 APERTURE END LIST*
D10*
%TO.C,J2*%
X81280000Y-17780000D03*
D11*
X81280000Y-20320000D03*
X81280000Y-22860000D03*
X81280000Y-25400000D03*
X81280000Y-27940000D03*
X81280000Y-30480000D03*
X81280000Y-33020000D03*
X81280000Y-35560000D03*
X81280000Y-38100000D03*
X81280000Y-40640000D03*
%TD*%
D12*
%TO.C,U3*%
X48260000Y-30480000D03*
D13*
X45720000Y-30480000D03*
X43180000Y-30480000D03*
X40640000Y-30480000D03*
X38100000Y-30480000D03*
X35560000Y-30480000D03*
X33020000Y-30480000D03*
X30480000Y-30480000D03*
X30480000Y-38100000D03*
X33020000Y-38100000D03*
X35560000Y-38100000D03*
X38100000Y-38100000D03*
X40640000Y-38100000D03*
X43180000Y-38100000D03*
X45720000Y-38100000D03*
X48260000Y-38100000D03*
%TD*%
D10*
%TO.C,J4*%
X60960000Y-40640000D03*
D11*
X63500000Y-40640000D03*
%TD*%
D14*
%TO.C,C1*%
X50800000Y-27940000D03*
X50800000Y-30440000D03*
%TD*%
D10*
%TO.C,J5*%
X78740000Y-35560000D03*
D11*
X78740000Y-33020000D03*
%TD*%
D12*
%TO.C,U4*%
X71095000Y-30480000D03*
D13*
X68555000Y-30480000D03*
X66015000Y-30480000D03*
X63475000Y-30480000D03*
X60935000Y-30480000D03*
X58395000Y-30480000D03*
X55855000Y-30480000D03*
X53315000Y-30480000D03*
X53315000Y-38100000D03*
X55855000Y-38100000D03*
X58395000Y-38100000D03*
X60935000Y-38100000D03*
X63475000Y-38100000D03*
X66015000Y-38100000D03*
X68555000Y-38100000D03*
X71095000Y-38100000D03*
%TD*%
D12*
%TO.C,U2*%
X71120000Y-20320000D03*
D13*
X68580000Y-20320000D03*
X66040000Y-20320000D03*
X63500000Y-20320000D03*
X60960000Y-20320000D03*
X58420000Y-20320000D03*
X55880000Y-20320000D03*
X53340000Y-20320000D03*
X53340000Y-27940000D03*
X55880000Y-27940000D03*
X58420000Y-27940000D03*
X60960000Y-27940000D03*
X63500000Y-27940000D03*
X66040000Y-27940000D03*
X68580000Y-27940000D03*
X71120000Y-27940000D03*
%TD*%
D14*
%TO.C,C2*%
X73660000Y-27940000D03*
X73660000Y-30440000D03*
%TD*%
D12*
%TO.C,U1*%
X48260000Y-20320000D03*
D13*
X45720000Y-20320000D03*
X43180000Y-20320000D03*
X40640000Y-20320000D03*
X38100000Y-20320000D03*
X35560000Y-20320000D03*
X33020000Y-20320000D03*
X30480000Y-20320000D03*
X30480000Y-27940000D03*
X33020000Y-27940000D03*
X35560000Y-27940000D03*
X38100000Y-27940000D03*
X40640000Y-27940000D03*
X43180000Y-27940000D03*
X45720000Y-27940000D03*
X48260000Y-27940000D03*
%TD*%
D10*
%TO.C,J3*%
X66040000Y-17780000D03*
D11*
X68580000Y-17780000D03*
%TD*%
D10*
%TO.C,J1*%
X15240000Y-20320000D03*
D11*
X15240000Y-22860000D03*
X15240000Y-25400000D03*
X15240000Y-27940000D03*
X15240000Y-30480000D03*
X15240000Y-33020000D03*
X15240000Y-35560000D03*
X15240000Y-38100000D03*
%TD*%
D15*
%TO.C,R11*%
X77470000Y-40830000D03*
X77470000Y-39180000D03*
%TD*%
%TO.C,R3*%
X66040000Y-26225000D03*
X66040000Y-24575000D03*
%TD*%
D16*
%TO.C,D1*%
X60960000Y-22035000D03*
X60960000Y-23685000D03*
%TD*%
%TO.C,D2*%
X63500000Y-22035000D03*
X63500000Y-23685000D03*
%TD*%
%TO.C,D3*%
X66040000Y-22035000D03*
X66040000Y-23685000D03*
%TD*%
%TO.C,D9*%
X75565000Y-38355000D03*
X75565000Y-40005000D03*
%TD*%
%TO.C,D4*%
X68580000Y-22035000D03*
X68580000Y-23685000D03*
%TD*%
%TO.C,D7*%
X66040000Y-32195000D03*
X66040000Y-33845000D03*
%TD*%
%TO.C,D5*%
X60960000Y-32195000D03*
X60960000Y-33845000D03*
%TD*%
D15*
%TO.C,R10*%
X68580000Y-36385000D03*
X68580000Y-34735000D03*
%TD*%
%TO.C,R8*%
X63500000Y-36385000D03*
X63500000Y-34735000D03*
%TD*%
D16*
%TO.C,D6*%
X63500000Y-32195000D03*
X63500000Y-33845000D03*
%TD*%
D15*
%TO.C,R1*%
X60960000Y-26225000D03*
X60960000Y-24575000D03*
%TD*%
%TO.C,R7*%
X60960000Y-36385000D03*
X60960000Y-34735000D03*
%TD*%
D16*
%TO.C,D8*%
X68580000Y-32195000D03*
X68580000Y-33845000D03*
%TD*%
D15*
%TO.C,R4*%
X68580000Y-26225000D03*
X68580000Y-24575000D03*
%TD*%
%TO.C,R2*%
X63500000Y-26225000D03*
X63500000Y-24575000D03*
%TD*%
%TO.C,R9*%
X66040000Y-36385000D03*
X66040000Y-34735000D03*
%TD*%
M02*
