%TF.GenerationSoftware,KiCad,Pcbnew,7.0.5*%
%TF.CreationDate,2024-09-17T16:51:35-04:00*%
%TF.ProjectId,8_bit_logic_analyzer_rev_2,385f6269-745f-46c6-9f67-69635f616e61,rev?*%
%TF.SameCoordinates,Original*%
%TF.FileFunction,Legend,Top*%
%TF.FilePolarity,Positive*%
%FSLAX46Y46*%
G04 Gerber Fmt 4.6, Leading zero omitted, Abs format (unit mm)*
G04 Created by KiCad (PCBNEW 7.0.5) date 2024-09-17 16:51:35*
%MOMM*%
%LPD*%
G01*
G04 APERTURE LIST*
%ADD10C,0.300000*%
%ADD11C,0.150000*%
%ADD12C,0.120000*%
G04 APERTURE END LIST*
D10*
X24207971Y-31266917D02*
X23779400Y-30695489D01*
X23779400Y-30695489D02*
X24207971Y-30124060D01*
X24207971Y-29552631D02*
X23779400Y-28981203D01*
X23779400Y-28981203D02*
X24207971Y-28409774D01*
X24207971Y-27838345D02*
X23779400Y-27266917D01*
X23779400Y-27266917D02*
X24207971Y-26695488D01*
D11*
X82791541Y-27444819D02*
X83029636Y-28444819D01*
X83029636Y-28444819D02*
X83220112Y-27730533D01*
X83220112Y-27730533D02*
X83410588Y-28444819D01*
X83410588Y-28444819D02*
X83648684Y-27444819D01*
X84029636Y-27921009D02*
X84362969Y-27921009D01*
X84505826Y-28444819D02*
X84029636Y-28444819D01*
X84029636Y-28444819D02*
X84029636Y-27444819D01*
X84029636Y-27444819D02*
X84505826Y-27444819D01*
X82839160Y-23079104D02*
X83315350Y-23079104D01*
X82743922Y-23364819D02*
X83077255Y-22364819D01*
X83077255Y-22364819D02*
X83410588Y-23364819D01*
X84267731Y-23364819D02*
X83696303Y-23364819D01*
X83982017Y-23364819D02*
X83982017Y-22364819D01*
X83982017Y-22364819D02*
X83886779Y-22507676D01*
X83886779Y-22507676D02*
X83791541Y-22602914D01*
X83791541Y-22602914D02*
X83696303Y-22650533D01*
X83410588Y-37652438D02*
X83315350Y-37604819D01*
X83315350Y-37604819D02*
X83172493Y-37604819D01*
X83172493Y-37604819D02*
X83029636Y-37652438D01*
X83029636Y-37652438D02*
X82934398Y-37747676D01*
X82934398Y-37747676D02*
X82886779Y-37842914D01*
X82886779Y-37842914D02*
X82839160Y-38033390D01*
X82839160Y-38033390D02*
X82839160Y-38176247D01*
X82839160Y-38176247D02*
X82886779Y-38366723D01*
X82886779Y-38366723D02*
X82934398Y-38461961D01*
X82934398Y-38461961D02*
X83029636Y-38557200D01*
X83029636Y-38557200D02*
X83172493Y-38604819D01*
X83172493Y-38604819D02*
X83267731Y-38604819D01*
X83267731Y-38604819D02*
X83410588Y-38557200D01*
X83410588Y-38557200D02*
X83458207Y-38509580D01*
X83458207Y-38509580D02*
X83458207Y-38176247D01*
X83458207Y-38176247D02*
X83267731Y-38176247D01*
X83886779Y-38604819D02*
X83886779Y-37604819D01*
X83886779Y-37604819D02*
X84458207Y-38604819D01*
X84458207Y-38604819D02*
X84458207Y-37604819D01*
X83458207Y-35969580D02*
X83410588Y-36017200D01*
X83410588Y-36017200D02*
X83267731Y-36064819D01*
X83267731Y-36064819D02*
X83172493Y-36064819D01*
X83172493Y-36064819D02*
X83029636Y-36017200D01*
X83029636Y-36017200D02*
X82934398Y-35921961D01*
X82934398Y-35921961D02*
X82886779Y-35826723D01*
X82886779Y-35826723D02*
X82839160Y-35636247D01*
X82839160Y-35636247D02*
X82839160Y-35493390D01*
X82839160Y-35493390D02*
X82886779Y-35302914D01*
X82886779Y-35302914D02*
X82934398Y-35207676D01*
X82934398Y-35207676D02*
X83029636Y-35112438D01*
X83029636Y-35112438D02*
X83172493Y-35064819D01*
X83172493Y-35064819D02*
X83267731Y-35064819D01*
X83267731Y-35064819D02*
X83410588Y-35112438D01*
X83410588Y-35112438D02*
X83458207Y-35160057D01*
X83886779Y-36064819D02*
X83886779Y-35064819D01*
X84458207Y-36064819D02*
X84029636Y-35493390D01*
X84458207Y-35064819D02*
X83886779Y-35636247D01*
X82839160Y-20539104D02*
X83315350Y-20539104D01*
X82743922Y-20824819D02*
X83077255Y-19824819D01*
X83077255Y-19824819D02*
X83410588Y-20824819D01*
X83696303Y-19920057D02*
X83743922Y-19872438D01*
X83743922Y-19872438D02*
X83839160Y-19824819D01*
X83839160Y-19824819D02*
X84077255Y-19824819D01*
X84077255Y-19824819D02*
X84172493Y-19872438D01*
X84172493Y-19872438D02*
X84220112Y-19920057D01*
X84220112Y-19920057D02*
X84267731Y-20015295D01*
X84267731Y-20015295D02*
X84267731Y-20110533D01*
X84267731Y-20110533D02*
X84220112Y-20253390D01*
X84220112Y-20253390D02*
X83648684Y-20824819D01*
X83648684Y-20824819D02*
X84267731Y-20824819D01*
X83458207Y-33524819D02*
X83124874Y-33048628D01*
X82886779Y-33524819D02*
X82886779Y-32524819D01*
X82886779Y-32524819D02*
X83267731Y-32524819D01*
X83267731Y-32524819D02*
X83362969Y-32572438D01*
X83362969Y-32572438D02*
X83410588Y-32620057D01*
X83410588Y-32620057D02*
X83458207Y-32715295D01*
X83458207Y-32715295D02*
X83458207Y-32858152D01*
X83458207Y-32858152D02*
X83410588Y-32953390D01*
X83410588Y-32953390D02*
X83362969Y-33001009D01*
X83362969Y-33001009D02*
X83267731Y-33048628D01*
X83267731Y-33048628D02*
X82886779Y-33048628D01*
X83886779Y-33001009D02*
X84220112Y-33001009D01*
X84362969Y-33524819D02*
X83886779Y-33524819D01*
X83886779Y-33524819D02*
X83886779Y-32524819D01*
X83886779Y-32524819D02*
X84362969Y-32524819D01*
D10*
X25147742Y-25676653D02*
X28147742Y-25676653D01*
X28147742Y-25676653D02*
X28147742Y-26390939D01*
X28147742Y-26390939D02*
X28004885Y-26819510D01*
X28004885Y-26819510D02*
X27719171Y-27105225D01*
X27719171Y-27105225D02*
X27433457Y-27248082D01*
X27433457Y-27248082D02*
X26862028Y-27390939D01*
X26862028Y-27390939D02*
X26433457Y-27390939D01*
X26433457Y-27390939D02*
X25862028Y-27248082D01*
X25862028Y-27248082D02*
X25576314Y-27105225D01*
X25576314Y-27105225D02*
X25290600Y-26819510D01*
X25290600Y-26819510D02*
X25147742Y-26390939D01*
X25147742Y-26390939D02*
X25147742Y-25676653D01*
X28147742Y-28676653D02*
X25719171Y-28676653D01*
X25719171Y-28676653D02*
X25433457Y-28819510D01*
X25433457Y-28819510D02*
X25290600Y-28962368D01*
X25290600Y-28962368D02*
X25147742Y-29248082D01*
X25147742Y-29248082D02*
X25147742Y-29819510D01*
X25147742Y-29819510D02*
X25290600Y-30105225D01*
X25290600Y-30105225D02*
X25433457Y-30248082D01*
X25433457Y-30248082D02*
X25719171Y-30390939D01*
X25719171Y-30390939D02*
X28147742Y-30390939D01*
X28147742Y-31390939D02*
X28147742Y-33105225D01*
X25147742Y-32248082D02*
X28147742Y-32248082D01*
D11*
X82839160Y-25619104D02*
X83315350Y-25619104D01*
X82743922Y-25904819D02*
X83077255Y-24904819D01*
X83077255Y-24904819D02*
X83410588Y-25904819D01*
X83934398Y-24904819D02*
X84029636Y-24904819D01*
X84029636Y-24904819D02*
X84124874Y-24952438D01*
X84124874Y-24952438D02*
X84172493Y-25000057D01*
X84172493Y-25000057D02*
X84220112Y-25095295D01*
X84220112Y-25095295D02*
X84267731Y-25285771D01*
X84267731Y-25285771D02*
X84267731Y-25523866D01*
X84267731Y-25523866D02*
X84220112Y-25714342D01*
X84220112Y-25714342D02*
X84172493Y-25809580D01*
X84172493Y-25809580D02*
X84124874Y-25857200D01*
X84124874Y-25857200D02*
X84029636Y-25904819D01*
X84029636Y-25904819D02*
X83934398Y-25904819D01*
X83934398Y-25904819D02*
X83839160Y-25857200D01*
X83839160Y-25857200D02*
X83791541Y-25809580D01*
X83791541Y-25809580D02*
X83743922Y-25714342D01*
X83743922Y-25714342D02*
X83696303Y-25523866D01*
X83696303Y-25523866D02*
X83696303Y-25285771D01*
X83696303Y-25285771D02*
X83743922Y-25095295D01*
X83743922Y-25095295D02*
X83791541Y-25000057D01*
X83791541Y-25000057D02*
X83839160Y-24952438D01*
X83839160Y-24952438D02*
X83934398Y-24904819D01*
X82886779Y-30984819D02*
X82886779Y-29984819D01*
X82886779Y-29984819D02*
X83267731Y-29984819D01*
X83267731Y-29984819D02*
X83362969Y-30032438D01*
X83362969Y-30032438D02*
X83410588Y-30080057D01*
X83410588Y-30080057D02*
X83458207Y-30175295D01*
X83458207Y-30175295D02*
X83458207Y-30318152D01*
X83458207Y-30318152D02*
X83410588Y-30413390D01*
X83410588Y-30413390D02*
X83362969Y-30461009D01*
X83362969Y-30461009D02*
X83267731Y-30508628D01*
X83267731Y-30508628D02*
X82886779Y-30508628D01*
X84362969Y-30984819D02*
X83886779Y-30984819D01*
X83886779Y-30984819D02*
X83886779Y-29984819D01*
X83362969Y-40144819D02*
X82886779Y-40144819D01*
X82886779Y-40144819D02*
X82839160Y-40621009D01*
X82839160Y-40621009D02*
X82886779Y-40573390D01*
X82886779Y-40573390D02*
X82982017Y-40525771D01*
X82982017Y-40525771D02*
X83220112Y-40525771D01*
X83220112Y-40525771D02*
X83315350Y-40573390D01*
X83315350Y-40573390D02*
X83362969Y-40621009D01*
X83362969Y-40621009D02*
X83410588Y-40716247D01*
X83410588Y-40716247D02*
X83410588Y-40954342D01*
X83410588Y-40954342D02*
X83362969Y-41049580D01*
X83362969Y-41049580D02*
X83315350Y-41097200D01*
X83315350Y-41097200D02*
X83220112Y-41144819D01*
X83220112Y-41144819D02*
X82982017Y-41144819D01*
X82982017Y-41144819D02*
X82886779Y-41097200D01*
X82886779Y-41097200D02*
X82839160Y-41049580D01*
X83696303Y-40144819D02*
X84029636Y-41144819D01*
X84029636Y-41144819D02*
X84362969Y-40144819D01*
X44786779Y-40621009D02*
X45120112Y-40621009D01*
X45262969Y-41144819D02*
X44786779Y-41144819D01*
X44786779Y-41144819D02*
X44786779Y-40144819D01*
X44786779Y-40144819D02*
X45262969Y-40144819D01*
X45691541Y-41049580D02*
X45739160Y-41097200D01*
X45739160Y-41097200D02*
X45691541Y-41144819D01*
X45691541Y-41144819D02*
X45643922Y-41097200D01*
X45643922Y-41097200D02*
X45691541Y-41049580D01*
X45691541Y-41049580D02*
X45691541Y-41144819D01*
X46167731Y-41144819D02*
X46167731Y-40144819D01*
X46167731Y-40144819D02*
X46548683Y-40144819D01*
X46548683Y-40144819D02*
X46643921Y-40192438D01*
X46643921Y-40192438D02*
X46691540Y-40240057D01*
X46691540Y-40240057D02*
X46739159Y-40335295D01*
X46739159Y-40335295D02*
X46739159Y-40478152D01*
X46739159Y-40478152D02*
X46691540Y-40573390D01*
X46691540Y-40573390D02*
X46643921Y-40621009D01*
X46643921Y-40621009D02*
X46548683Y-40668628D01*
X46548683Y-40668628D02*
X46167731Y-40668628D01*
X47739159Y-41144819D02*
X47405826Y-40668628D01*
X47167731Y-41144819D02*
X47167731Y-40144819D01*
X47167731Y-40144819D02*
X47548683Y-40144819D01*
X47548683Y-40144819D02*
X47643921Y-40192438D01*
X47643921Y-40192438D02*
X47691540Y-40240057D01*
X47691540Y-40240057D02*
X47739159Y-40335295D01*
X47739159Y-40335295D02*
X47739159Y-40478152D01*
X47739159Y-40478152D02*
X47691540Y-40573390D01*
X47691540Y-40573390D02*
X47643921Y-40621009D01*
X47643921Y-40621009D02*
X47548683Y-40668628D01*
X47548683Y-40668628D02*
X47167731Y-40668628D01*
X48167731Y-41144819D02*
X48167731Y-40144819D01*
X48501064Y-40144819D02*
X49072492Y-40144819D01*
X48786778Y-41144819D02*
X48786778Y-40144819D01*
X49977254Y-41049580D02*
X49929635Y-41097200D01*
X49929635Y-41097200D02*
X49786778Y-41144819D01*
X49786778Y-41144819D02*
X49691540Y-41144819D01*
X49691540Y-41144819D02*
X49548683Y-41097200D01*
X49548683Y-41097200D02*
X49453445Y-41001961D01*
X49453445Y-41001961D02*
X49405826Y-40906723D01*
X49405826Y-40906723D02*
X49358207Y-40716247D01*
X49358207Y-40716247D02*
X49358207Y-40573390D01*
X49358207Y-40573390D02*
X49405826Y-40382914D01*
X49405826Y-40382914D02*
X49453445Y-40287676D01*
X49453445Y-40287676D02*
X49548683Y-40192438D01*
X49548683Y-40192438D02*
X49691540Y-40144819D01*
X49691540Y-40144819D02*
X49786778Y-40144819D01*
X49786778Y-40144819D02*
X49929635Y-40192438D01*
X49929635Y-40192438D02*
X49977254Y-40240057D01*
X50405826Y-41144819D02*
X50405826Y-40144819D01*
X50405826Y-40621009D02*
X50977254Y-40621009D01*
X50977254Y-41144819D02*
X50977254Y-40144819D01*
X51405826Y-40859104D02*
X51882016Y-40859104D01*
X51310588Y-41144819D02*
X51643921Y-40144819D01*
X51643921Y-40144819D02*
X51977254Y-41144819D01*
X52882016Y-41144819D02*
X52548683Y-40668628D01*
X52310588Y-41144819D02*
X52310588Y-40144819D01*
X52310588Y-40144819D02*
X52691540Y-40144819D01*
X52691540Y-40144819D02*
X52786778Y-40192438D01*
X52786778Y-40192438D02*
X52834397Y-40240057D01*
X52834397Y-40240057D02*
X52882016Y-40335295D01*
X52882016Y-40335295D02*
X52882016Y-40478152D01*
X52882016Y-40478152D02*
X52834397Y-40573390D01*
X52834397Y-40573390D02*
X52786778Y-40621009D01*
X52786778Y-40621009D02*
X52691540Y-40668628D01*
X52691540Y-40668628D02*
X52310588Y-40668628D01*
X53310588Y-41144819D02*
X53310588Y-40144819D01*
X53310588Y-40144819D02*
X53548683Y-40144819D01*
X53548683Y-40144819D02*
X53691540Y-40192438D01*
X53691540Y-40192438D02*
X53786778Y-40287676D01*
X53786778Y-40287676D02*
X53834397Y-40382914D01*
X53834397Y-40382914D02*
X53882016Y-40573390D01*
X53882016Y-40573390D02*
X53882016Y-40716247D01*
X53882016Y-40716247D02*
X53834397Y-40906723D01*
X53834397Y-40906723D02*
X53786778Y-41001961D01*
X53786778Y-41001961D02*
X53691540Y-41097200D01*
X53691540Y-41097200D02*
X53548683Y-41144819D01*
X53548683Y-41144819D02*
X53310588Y-41144819D01*
X55024874Y-40240057D02*
X55072493Y-40192438D01*
X55072493Y-40192438D02*
X55167731Y-40144819D01*
X55167731Y-40144819D02*
X55405826Y-40144819D01*
X55405826Y-40144819D02*
X55501064Y-40192438D01*
X55501064Y-40192438D02*
X55548683Y-40240057D01*
X55548683Y-40240057D02*
X55596302Y-40335295D01*
X55596302Y-40335295D02*
X55596302Y-40430533D01*
X55596302Y-40430533D02*
X55548683Y-40573390D01*
X55548683Y-40573390D02*
X54977255Y-41144819D01*
X54977255Y-41144819D02*
X55596302Y-41144819D01*
X56453445Y-40478152D02*
X56453445Y-41144819D01*
X56215350Y-40097200D02*
X55977255Y-40811485D01*
X55977255Y-40811485D02*
X56596302Y-40811485D01*
X22704636Y-40573390D02*
X22609398Y-40525771D01*
X22609398Y-40525771D02*
X22561779Y-40478152D01*
X22561779Y-40478152D02*
X22514160Y-40382914D01*
X22514160Y-40382914D02*
X22514160Y-40335295D01*
X22514160Y-40335295D02*
X22561779Y-40240057D01*
X22561779Y-40240057D02*
X22609398Y-40192438D01*
X22609398Y-40192438D02*
X22704636Y-40144819D01*
X22704636Y-40144819D02*
X22895112Y-40144819D01*
X22895112Y-40144819D02*
X22990350Y-40192438D01*
X22990350Y-40192438D02*
X23037969Y-40240057D01*
X23037969Y-40240057D02*
X23085588Y-40335295D01*
X23085588Y-40335295D02*
X23085588Y-40382914D01*
X23085588Y-40382914D02*
X23037969Y-40478152D01*
X23037969Y-40478152D02*
X22990350Y-40525771D01*
X22990350Y-40525771D02*
X22895112Y-40573390D01*
X22895112Y-40573390D02*
X22704636Y-40573390D01*
X22704636Y-40573390D02*
X22609398Y-40621009D01*
X22609398Y-40621009D02*
X22561779Y-40668628D01*
X22561779Y-40668628D02*
X22514160Y-40763866D01*
X22514160Y-40763866D02*
X22514160Y-40954342D01*
X22514160Y-40954342D02*
X22561779Y-41049580D01*
X22561779Y-41049580D02*
X22609398Y-41097200D01*
X22609398Y-41097200D02*
X22704636Y-41144819D01*
X22704636Y-41144819D02*
X22895112Y-41144819D01*
X22895112Y-41144819D02*
X22990350Y-41097200D01*
X22990350Y-41097200D02*
X23037969Y-41049580D01*
X23037969Y-41049580D02*
X23085588Y-40954342D01*
X23085588Y-40954342D02*
X23085588Y-40763866D01*
X23085588Y-40763866D02*
X23037969Y-40668628D01*
X23037969Y-40668628D02*
X22990350Y-40621009D01*
X22990350Y-40621009D02*
X22895112Y-40573390D01*
X23847493Y-40621009D02*
X23990350Y-40668628D01*
X23990350Y-40668628D02*
X24037969Y-40716247D01*
X24037969Y-40716247D02*
X24085588Y-40811485D01*
X24085588Y-40811485D02*
X24085588Y-40954342D01*
X24085588Y-40954342D02*
X24037969Y-41049580D01*
X24037969Y-41049580D02*
X23990350Y-41097200D01*
X23990350Y-41097200D02*
X23895112Y-41144819D01*
X23895112Y-41144819D02*
X23514160Y-41144819D01*
X23514160Y-41144819D02*
X23514160Y-40144819D01*
X23514160Y-40144819D02*
X23847493Y-40144819D01*
X23847493Y-40144819D02*
X23942731Y-40192438D01*
X23942731Y-40192438D02*
X23990350Y-40240057D01*
X23990350Y-40240057D02*
X24037969Y-40335295D01*
X24037969Y-40335295D02*
X24037969Y-40430533D01*
X24037969Y-40430533D02*
X23990350Y-40525771D01*
X23990350Y-40525771D02*
X23942731Y-40573390D01*
X23942731Y-40573390D02*
X23847493Y-40621009D01*
X23847493Y-40621009D02*
X23514160Y-40621009D01*
X24514160Y-41144819D02*
X24514160Y-40144819D01*
X24847493Y-40144819D02*
X25418921Y-40144819D01*
X25133207Y-41144819D02*
X25133207Y-40144819D01*
X26990350Y-41144819D02*
X26514160Y-41144819D01*
X26514160Y-41144819D02*
X26514160Y-40144819D01*
X27466541Y-41144819D02*
X27371303Y-41097200D01*
X27371303Y-41097200D02*
X27323684Y-41049580D01*
X27323684Y-41049580D02*
X27276065Y-40954342D01*
X27276065Y-40954342D02*
X27276065Y-40668628D01*
X27276065Y-40668628D02*
X27323684Y-40573390D01*
X27323684Y-40573390D02*
X27371303Y-40525771D01*
X27371303Y-40525771D02*
X27466541Y-40478152D01*
X27466541Y-40478152D02*
X27609398Y-40478152D01*
X27609398Y-40478152D02*
X27704636Y-40525771D01*
X27704636Y-40525771D02*
X27752255Y-40573390D01*
X27752255Y-40573390D02*
X27799874Y-40668628D01*
X27799874Y-40668628D02*
X27799874Y-40954342D01*
X27799874Y-40954342D02*
X27752255Y-41049580D01*
X27752255Y-41049580D02*
X27704636Y-41097200D01*
X27704636Y-41097200D02*
X27609398Y-41144819D01*
X27609398Y-41144819D02*
X27466541Y-41144819D01*
X28657017Y-40478152D02*
X28657017Y-41287676D01*
X28657017Y-41287676D02*
X28609398Y-41382914D01*
X28609398Y-41382914D02*
X28561779Y-41430533D01*
X28561779Y-41430533D02*
X28466541Y-41478152D01*
X28466541Y-41478152D02*
X28323684Y-41478152D01*
X28323684Y-41478152D02*
X28228446Y-41430533D01*
X28657017Y-41097200D02*
X28561779Y-41144819D01*
X28561779Y-41144819D02*
X28371303Y-41144819D01*
X28371303Y-41144819D02*
X28276065Y-41097200D01*
X28276065Y-41097200D02*
X28228446Y-41049580D01*
X28228446Y-41049580D02*
X28180827Y-40954342D01*
X28180827Y-40954342D02*
X28180827Y-40668628D01*
X28180827Y-40668628D02*
X28228446Y-40573390D01*
X28228446Y-40573390D02*
X28276065Y-40525771D01*
X28276065Y-40525771D02*
X28371303Y-40478152D01*
X28371303Y-40478152D02*
X28561779Y-40478152D01*
X28561779Y-40478152D02*
X28657017Y-40525771D01*
X29133208Y-41144819D02*
X29133208Y-40478152D01*
X29133208Y-40144819D02*
X29085589Y-40192438D01*
X29085589Y-40192438D02*
X29133208Y-40240057D01*
X29133208Y-40240057D02*
X29180827Y-40192438D01*
X29180827Y-40192438D02*
X29133208Y-40144819D01*
X29133208Y-40144819D02*
X29133208Y-40240057D01*
X30037969Y-41097200D02*
X29942731Y-41144819D01*
X29942731Y-41144819D02*
X29752255Y-41144819D01*
X29752255Y-41144819D02*
X29657017Y-41097200D01*
X29657017Y-41097200D02*
X29609398Y-41049580D01*
X29609398Y-41049580D02*
X29561779Y-40954342D01*
X29561779Y-40954342D02*
X29561779Y-40668628D01*
X29561779Y-40668628D02*
X29609398Y-40573390D01*
X29609398Y-40573390D02*
X29657017Y-40525771D01*
X29657017Y-40525771D02*
X29752255Y-40478152D01*
X29752255Y-40478152D02*
X29942731Y-40478152D01*
X29942731Y-40478152D02*
X30037969Y-40525771D01*
X31180827Y-40859104D02*
X31657017Y-40859104D01*
X31085589Y-41144819D02*
X31418922Y-40144819D01*
X31418922Y-40144819D02*
X31752255Y-41144819D01*
X32085589Y-40478152D02*
X32085589Y-41144819D01*
X32085589Y-40573390D02*
X32133208Y-40525771D01*
X32133208Y-40525771D02*
X32228446Y-40478152D01*
X32228446Y-40478152D02*
X32371303Y-40478152D01*
X32371303Y-40478152D02*
X32466541Y-40525771D01*
X32466541Y-40525771D02*
X32514160Y-40621009D01*
X32514160Y-40621009D02*
X32514160Y-41144819D01*
X33418922Y-41144819D02*
X33418922Y-40621009D01*
X33418922Y-40621009D02*
X33371303Y-40525771D01*
X33371303Y-40525771D02*
X33276065Y-40478152D01*
X33276065Y-40478152D02*
X33085589Y-40478152D01*
X33085589Y-40478152D02*
X32990351Y-40525771D01*
X33418922Y-41097200D02*
X33323684Y-41144819D01*
X33323684Y-41144819D02*
X33085589Y-41144819D01*
X33085589Y-41144819D02*
X32990351Y-41097200D01*
X32990351Y-41097200D02*
X32942732Y-41001961D01*
X32942732Y-41001961D02*
X32942732Y-40906723D01*
X32942732Y-40906723D02*
X32990351Y-40811485D01*
X32990351Y-40811485D02*
X33085589Y-40763866D01*
X33085589Y-40763866D02*
X33323684Y-40763866D01*
X33323684Y-40763866D02*
X33418922Y-40716247D01*
X34037970Y-41144819D02*
X33942732Y-41097200D01*
X33942732Y-41097200D02*
X33895113Y-41001961D01*
X33895113Y-41001961D02*
X33895113Y-40144819D01*
X34323685Y-40478152D02*
X34561780Y-41144819D01*
X34799875Y-40478152D02*
X34561780Y-41144819D01*
X34561780Y-41144819D02*
X34466542Y-41382914D01*
X34466542Y-41382914D02*
X34418923Y-41430533D01*
X34418923Y-41430533D02*
X34323685Y-41478152D01*
X35085590Y-40478152D02*
X35609399Y-40478152D01*
X35609399Y-40478152D02*
X35085590Y-41144819D01*
X35085590Y-41144819D02*
X35609399Y-41144819D01*
X36371304Y-41097200D02*
X36276066Y-41144819D01*
X36276066Y-41144819D02*
X36085590Y-41144819D01*
X36085590Y-41144819D02*
X35990352Y-41097200D01*
X35990352Y-41097200D02*
X35942733Y-41001961D01*
X35942733Y-41001961D02*
X35942733Y-40621009D01*
X35942733Y-40621009D02*
X35990352Y-40525771D01*
X35990352Y-40525771D02*
X36085590Y-40478152D01*
X36085590Y-40478152D02*
X36276066Y-40478152D01*
X36276066Y-40478152D02*
X36371304Y-40525771D01*
X36371304Y-40525771D02*
X36418923Y-40621009D01*
X36418923Y-40621009D02*
X36418923Y-40716247D01*
X36418923Y-40716247D02*
X35942733Y-40811485D01*
X36847495Y-41144819D02*
X36847495Y-40478152D01*
X36847495Y-40668628D02*
X36895114Y-40573390D01*
X36895114Y-40573390D02*
X36942733Y-40525771D01*
X36942733Y-40525771D02*
X37037971Y-40478152D01*
X37037971Y-40478152D02*
X37133209Y-40478152D01*
X82839160Y-17999104D02*
X83315350Y-17999104D01*
X82743922Y-18284819D02*
X83077255Y-17284819D01*
X83077255Y-17284819D02*
X83410588Y-18284819D01*
X83648684Y-17284819D02*
X84267731Y-17284819D01*
X84267731Y-17284819D02*
X83934398Y-17665771D01*
X83934398Y-17665771D02*
X84077255Y-17665771D01*
X84077255Y-17665771D02*
X84172493Y-17713390D01*
X84172493Y-17713390D02*
X84220112Y-17761009D01*
X84220112Y-17761009D02*
X84267731Y-17856247D01*
X84267731Y-17856247D02*
X84267731Y-18094342D01*
X84267731Y-18094342D02*
X84220112Y-18189580D01*
X84220112Y-18189580D02*
X84172493Y-18237200D01*
X84172493Y-18237200D02*
X84077255Y-18284819D01*
X84077255Y-18284819D02*
X83791541Y-18284819D01*
X83791541Y-18284819D02*
X83696303Y-18237200D01*
X83696303Y-18237200D02*
X83648684Y-18189580D01*
%TO.C,J2*%
X80946666Y-14904819D02*
X80946666Y-15619104D01*
X80946666Y-15619104D02*
X80899047Y-15761961D01*
X80899047Y-15761961D02*
X80803809Y-15857200D01*
X80803809Y-15857200D02*
X80660952Y-15904819D01*
X80660952Y-15904819D02*
X80565714Y-15904819D01*
X81375238Y-15000057D02*
X81422857Y-14952438D01*
X81422857Y-14952438D02*
X81518095Y-14904819D01*
X81518095Y-14904819D02*
X81756190Y-14904819D01*
X81756190Y-14904819D02*
X81851428Y-14952438D01*
X81851428Y-14952438D02*
X81899047Y-15000057D01*
X81899047Y-15000057D02*
X81946666Y-15095295D01*
X81946666Y-15095295D02*
X81946666Y-15190533D01*
X81946666Y-15190533D02*
X81899047Y-15333390D01*
X81899047Y-15333390D02*
X81327619Y-15904819D01*
X81327619Y-15904819D02*
X81946666Y-15904819D01*
D12*
X79950000Y-16450000D02*
X81280000Y-16450000D01*
X79950000Y-17780000D02*
X79950000Y-16450000D01*
X79950000Y-19050000D02*
X79950000Y-41970000D01*
X79950000Y-19050000D02*
X82610000Y-19050000D01*
X79950000Y-41970000D02*
X82610000Y-41970000D01*
X82610000Y-19050000D02*
X82610000Y-41970000D01*
%TO.C,U3*%
X49590000Y-31640000D02*
X29150000Y-31640000D01*
X29150000Y-31640000D02*
X29150000Y-36940000D01*
X49590000Y-33290000D02*
X49590000Y-31640000D01*
X49590000Y-36940000D02*
X49590000Y-35290000D01*
X29150000Y-36940000D02*
X49590000Y-36940000D01*
X49590000Y-33290000D02*
G75*
G03*
X49590000Y-35290000I0J-1000000D01*
G01*
%TO.C,J4*%
X59630000Y-41970000D02*
X59630000Y-40640000D01*
X60960000Y-41970000D02*
X59630000Y-41970000D01*
X62230000Y-41970000D02*
X64830000Y-41970000D01*
X62230000Y-41970000D02*
X62230000Y-39310000D01*
X64830000Y-41970000D02*
X64830000Y-39310000D01*
X62230000Y-39310000D02*
X64830000Y-39310000D01*
%TO.C,C1*%
X51920000Y-27570000D02*
X51855000Y-27570000D01*
X51920000Y-27570000D02*
X51920000Y-30810000D01*
X49745000Y-27570000D02*
X49680000Y-27570000D01*
X49680000Y-27570000D02*
X49680000Y-30810000D01*
X51920000Y-30810000D02*
X51855000Y-30810000D01*
X49745000Y-30810000D02*
X49680000Y-30810000D01*
%TO.C,J5*%
X80070000Y-36890000D02*
X78740000Y-36890000D01*
X80070000Y-35560000D02*
X80070000Y-36890000D01*
X80070000Y-34290000D02*
X80070000Y-31690000D01*
X80070000Y-34290000D02*
X77410000Y-34290000D01*
X80070000Y-31690000D02*
X77410000Y-31690000D01*
X77410000Y-34290000D02*
X77410000Y-31690000D01*
%TO.C,U4*%
X72425000Y-31640000D02*
X51985000Y-31640000D01*
X51985000Y-31640000D02*
X51985000Y-36940000D01*
X72425000Y-33290000D02*
X72425000Y-31640000D01*
X72425000Y-36940000D02*
X72425000Y-35290000D01*
X51985000Y-36940000D02*
X72425000Y-36940000D01*
X72425000Y-33290000D02*
G75*
G03*
X72425000Y-35290000I0J-1000000D01*
G01*
%TO.C,U2*%
X72450000Y-21480000D02*
X52010000Y-21480000D01*
X52010000Y-21480000D02*
X52010000Y-26780000D01*
X72450000Y-23130000D02*
X72450000Y-21480000D01*
X72450000Y-26780000D02*
X72450000Y-25130000D01*
X52010000Y-26780000D02*
X72450000Y-26780000D01*
X72450000Y-23130000D02*
G75*
G03*
X72450000Y-25130000I0J-1000000D01*
G01*
%TO.C,C2*%
X74780000Y-27570000D02*
X74715000Y-27570000D01*
X74780000Y-27570000D02*
X74780000Y-30810000D01*
X72605000Y-27570000D02*
X72540000Y-27570000D01*
X72540000Y-27570000D02*
X72540000Y-30810000D01*
X74780000Y-30810000D02*
X74715000Y-30810000D01*
X72605000Y-30810000D02*
X72540000Y-30810000D01*
%TO.C,U1*%
X49590000Y-21480000D02*
X29150000Y-21480000D01*
X29150000Y-21480000D02*
X29150000Y-26780000D01*
X49590000Y-23130000D02*
X49590000Y-21480000D01*
X49590000Y-26780000D02*
X49590000Y-25130000D01*
X29150000Y-26780000D02*
X49590000Y-26780000D01*
X49590000Y-23130000D02*
G75*
G03*
X49590000Y-25130000I0J-1000000D01*
G01*
%TO.C,J3*%
X64710000Y-19110000D02*
X64710000Y-17780000D01*
X66040000Y-19110000D02*
X64710000Y-19110000D01*
X67310000Y-19110000D02*
X69910000Y-19110000D01*
X67310000Y-19110000D02*
X67310000Y-16450000D01*
X69910000Y-19110000D02*
X69910000Y-16450000D01*
X67310000Y-16450000D02*
X69910000Y-16450000D01*
%TO.C,J1*%
X13910000Y-18990000D02*
X15240000Y-18990000D01*
X13910000Y-20320000D02*
X13910000Y-18990000D01*
X13910000Y-21590000D02*
X13910000Y-39430000D01*
X13910000Y-21590000D02*
X16570000Y-21590000D01*
X13910000Y-39430000D02*
X16570000Y-39430000D01*
X16570000Y-21590000D02*
X16570000Y-39430000D01*
%TD*%
M02*
