%TF.GenerationSoftware,KiCad,Pcbnew,7.0.5*%
%TF.CreationDate,2024-09-17T16:51:35-04:00*%
%TF.ProjectId,8_bit_logic_analyzer_rev_2,385f6269-745f-46c6-9f67-69635f616e61,rev?*%
%TF.SameCoordinates,Original*%
%TF.FileFunction,Copper,L2,Bot*%
%TF.FilePolarity,Positive*%
%FSLAX46Y46*%
G04 Gerber Fmt 4.6, Leading zero omitted, Abs format (unit mm)*
G04 Created by KiCad (PCBNEW 7.0.5) date 2024-09-17 16:51:35*
%MOMM*%
%LPD*%
G01*
G04 APERTURE LIST*
G04 Aperture macros list*
%AMRoundRect*
0 Rectangle with rounded corners*
0 $1 Rounding radius*
0 $2 $3 $4 $5 $6 $7 $8 $9 X,Y pos of 4 corners*
0 Add a 4 corners polygon primitive as box body*
4,1,4,$2,$3,$4,$5,$6,$7,$8,$9,$2,$3,0*
0 Add four circle primitives for the rounded corners*
1,1,$1+$1,$2,$3*
1,1,$1+$1,$4,$5*
1,1,$1+$1,$6,$7*
1,1,$1+$1,$8,$9*
0 Add four rect primitives between the rounded corners*
20,1,$1+$1,$2,$3,$4,$5,0*
20,1,$1+$1,$4,$5,$6,$7,0*
20,1,$1+$1,$6,$7,$8,$9,0*
20,1,$1+$1,$8,$9,$2,$3,0*%
G04 Aperture macros list end*
%TA.AperFunction,ComponentPad*%
%ADD10R,1.700000X1.700000*%
%TD*%
%TA.AperFunction,ComponentPad*%
%ADD11O,1.700000X1.700000*%
%TD*%
%TA.AperFunction,ComponentPad*%
%ADD12R,1.600000X1.600000*%
%TD*%
%TA.AperFunction,ComponentPad*%
%ADD13O,1.600000X1.600000*%
%TD*%
%TA.AperFunction,ComponentPad*%
%ADD14C,1.600000*%
%TD*%
%TA.AperFunction,SMDPad,CuDef*%
%ADD15RoundRect,0.200000X0.275000X-0.200000X0.275000X0.200000X-0.275000X0.200000X-0.275000X-0.200000X0*%
%TD*%
%TA.AperFunction,SMDPad,CuDef*%
%ADD16RoundRect,0.200000X-0.275000X0.200000X-0.275000X-0.200000X0.275000X-0.200000X0.275000X0.200000X0*%
%TD*%
%TA.AperFunction,ViaPad*%
%ADD17C,0.800000*%
%TD*%
%TA.AperFunction,Conductor*%
%ADD18C,0.400000*%
%TD*%
G04 APERTURE END LIST*
D10*
%TO.P,J2,1,Pin_1*%
%TO.N,/addr_3*%
X81280000Y-17780000D03*
D11*
%TO.P,J2,2,Pin_2*%
%TO.N,/addr_2*%
X81280000Y-20320000D03*
%TO.P,J2,3,Pin_3*%
%TO.N,/addr_1*%
X81280000Y-22860000D03*
%TO.P,J2,4,Pin_4*%
%TO.N,/addr_0*%
X81280000Y-25400000D03*
%TO.P,J2,5,Pin_5*%
%TO.N,/write*%
X81280000Y-27940000D03*
%TO.P,J2,6,Pin_6*%
%TO.N,/load*%
X81280000Y-30480000D03*
%TO.P,J2,7,Pin_7*%
%TO.N,/clear*%
X81280000Y-33020000D03*
%TO.P,J2,8,Pin_8*%
%TO.N,/clk*%
X81280000Y-35560000D03*
%TO.P,J2,9,Pin_9*%
%TO.N,GND*%
X81280000Y-38100000D03*
%TO.P,J2,10,Pin_10*%
%TO.N,VCC*%
X81280000Y-40640000D03*
%TD*%
D12*
%TO.P,U3,1,A0*%
%TO.N,/addr_0*%
X48260000Y-30480000D03*
D13*
%TO.P,U3,2,~CS*%
%TO.N,GND*%
X45720000Y-30480000D03*
%TO.P,U3,3,~WE*%
%TO.N,/write*%
X43180000Y-30480000D03*
%TO.P,U3,4,D0*%
%TO.N,Net-(J1-Pin_5)*%
X40640000Y-30480000D03*
%TO.P,U3,5,S0_n*%
%TO.N,Net-(U3-S0_n)*%
X38100000Y-30480000D03*
%TO.P,U3,6,D1*%
%TO.N,Net-(J1-Pin_6)*%
X35560000Y-30480000D03*
%TO.P,U3,7,S1_n*%
%TO.N,Net-(U3-S1_n)*%
X33020000Y-30480000D03*
%TO.P,U3,8,GND*%
%TO.N,GND*%
X30480000Y-30480000D03*
%TO.P,U3,9,S2_n*%
%TO.N,Net-(U3-S2_n)*%
X30480000Y-38100000D03*
%TO.P,U3,10,D2*%
%TO.N,Net-(J1-Pin_7)*%
X33020000Y-38100000D03*
%TO.P,U3,11,S3_n*%
%TO.N,Net-(U3-S3_n)*%
X35560000Y-38100000D03*
%TO.P,U3,12,D3*%
%TO.N,Net-(J1-Pin_8)*%
X38100000Y-38100000D03*
%TO.P,U3,13,A3*%
%TO.N,/addr_3*%
X40640000Y-38100000D03*
%TO.P,U3,14,A2*%
%TO.N,/addr_2*%
X43180000Y-38100000D03*
%TO.P,U3,15,A1*%
%TO.N,/addr_1*%
X45720000Y-38100000D03*
%TO.P,U3,16,VCC*%
%TO.N,VCC*%
X48260000Y-38100000D03*
%TD*%
D10*
%TO.P,J4,1,Pin_1*%
%TO.N,/s_out*%
X60960000Y-40640000D03*
D11*
%TO.P,J4,2,Pin_2*%
X63500000Y-40640000D03*
%TD*%
D14*
%TO.P,C1,1*%
%TO.N,VCC*%
X50800000Y-27940000D03*
%TO.P,C1,2*%
%TO.N,GND*%
X50800000Y-30440000D03*
%TD*%
D10*
%TO.P,J5,1,Pin_1*%
%TO.N,/clk*%
X78740000Y-35560000D03*
D11*
%TO.P,J5,2,Pin_2*%
%TO.N,VCC*%
X78740000Y-33020000D03*
%TD*%
D12*
%TO.P,U4,1,~{MR}*%
%TO.N,/clear*%
X71095000Y-30480000D03*
D13*
%TO.P,U4,2,J*%
%TO.N,Net-(U2-Q3)*%
X68555000Y-30480000D03*
%TO.P,U4,3,~{K}*%
X66015000Y-30480000D03*
%TO.P,U4,4,P0*%
%TO.N,Net-(U3-S0_n)*%
X63475000Y-30480000D03*
%TO.P,U4,5,P1*%
%TO.N,Net-(U3-S1_n)*%
X60935000Y-30480000D03*
%TO.P,U4,6,P2*%
%TO.N,Net-(U3-S2_n)*%
X58395000Y-30480000D03*
%TO.P,U4,7,P3*%
%TO.N,Net-(U3-S3_n)*%
X55855000Y-30480000D03*
%TO.P,U4,8,GND*%
%TO.N,GND*%
X53315000Y-30480000D03*
%TO.P,U4,9,~{PE}*%
%TO.N,/load*%
X53315000Y-38100000D03*
%TO.P,U4,10,CP*%
%TO.N,/clk*%
X55855000Y-38100000D03*
%TO.P,U4,11,~{Q3}*%
%TO.N,unconnected-(U4-~{Q3}-Pad11)*%
X58395000Y-38100000D03*
%TO.P,U4,12,Q3*%
%TO.N,/s_out*%
X60935000Y-38100000D03*
%TO.P,U4,13,Q2*%
%TO.N,Net-(U4-Q2)*%
X63475000Y-38100000D03*
%TO.P,U4,14,Q1*%
%TO.N,Net-(U4-Q1)*%
X66015000Y-38100000D03*
%TO.P,U4,15,Q0*%
%TO.N,Net-(U4-Q0)*%
X68555000Y-38100000D03*
%TO.P,U4,16,VCC*%
%TO.N,VCC*%
X71095000Y-38100000D03*
%TD*%
D12*
%TO.P,U2,1,~{MR}*%
%TO.N,/clear*%
X71120000Y-20320000D03*
D13*
%TO.P,U2,2,J*%
%TO.N,/s_in*%
X68580000Y-20320000D03*
%TO.P,U2,3,~{K}*%
X66040000Y-20320000D03*
%TO.P,U2,4,P0*%
%TO.N,Net-(U1-S0_n)*%
X63500000Y-20320000D03*
%TO.P,U2,5,P1*%
%TO.N,Net-(U1-S1_n)*%
X60960000Y-20320000D03*
%TO.P,U2,6,P2*%
%TO.N,Net-(U1-S2_n)*%
X58420000Y-20320000D03*
%TO.P,U2,7,P3*%
%TO.N,Net-(U1-S3_n)*%
X55880000Y-20320000D03*
%TO.P,U2,8,GND*%
%TO.N,GND*%
X53340000Y-20320000D03*
%TO.P,U2,9,~{PE}*%
%TO.N,/load*%
X53340000Y-27940000D03*
%TO.P,U2,10,CP*%
%TO.N,/clk*%
X55880000Y-27940000D03*
%TO.P,U2,11,~{Q3}*%
%TO.N,unconnected-(U2-~{Q3}-Pad11)*%
X58420000Y-27940000D03*
%TO.P,U2,12,Q3*%
%TO.N,Net-(U2-Q3)*%
X60960000Y-27940000D03*
%TO.P,U2,13,Q2*%
%TO.N,Net-(U2-Q2)*%
X63500000Y-27940000D03*
%TO.P,U2,14,Q1*%
%TO.N,Net-(U2-Q1)*%
X66040000Y-27940000D03*
%TO.P,U2,15,Q0*%
%TO.N,Net-(U2-Q0)*%
X68580000Y-27940000D03*
%TO.P,U2,16,VCC*%
%TO.N,VCC*%
X71120000Y-27940000D03*
%TD*%
D14*
%TO.P,C2,1*%
%TO.N,VCC*%
X73660000Y-27940000D03*
%TO.P,C2,2*%
%TO.N,GND*%
X73660000Y-30440000D03*
%TD*%
D12*
%TO.P,U1,1,A0*%
%TO.N,/addr_0*%
X48260000Y-20320000D03*
D13*
%TO.P,U1,2,~CS*%
%TO.N,GND*%
X45720000Y-20320000D03*
%TO.P,U1,3,~WE*%
%TO.N,/write*%
X43180000Y-20320000D03*
%TO.P,U1,4,D0*%
%TO.N,Net-(J1-Pin_1)*%
X40640000Y-20320000D03*
%TO.P,U1,5,S0_n*%
%TO.N,Net-(U1-S0_n)*%
X38100000Y-20320000D03*
%TO.P,U1,6,D1*%
%TO.N,Net-(J1-Pin_2)*%
X35560000Y-20320000D03*
%TO.P,U1,7,S1_n*%
%TO.N,Net-(U1-S1_n)*%
X33020000Y-20320000D03*
%TO.P,U1,8,GND*%
%TO.N,GND*%
X30480000Y-20320000D03*
%TO.P,U1,9,S2_n*%
%TO.N,Net-(U1-S2_n)*%
X30480000Y-27940000D03*
%TO.P,U1,10,D2*%
%TO.N,Net-(J1-Pin_3)*%
X33020000Y-27940000D03*
%TO.P,U1,11,S3_n*%
%TO.N,Net-(U1-S3_n)*%
X35560000Y-27940000D03*
%TO.P,U1,12,D3*%
%TO.N,Net-(J1-Pin_4)*%
X38100000Y-27940000D03*
%TO.P,U1,13,A3*%
%TO.N,/addr_3*%
X40640000Y-27940000D03*
%TO.P,U1,14,A2*%
%TO.N,/addr_2*%
X43180000Y-27940000D03*
%TO.P,U1,15,A1*%
%TO.N,/addr_1*%
X45720000Y-27940000D03*
%TO.P,U1,16,VCC*%
%TO.N,VCC*%
X48260000Y-27940000D03*
%TD*%
D10*
%TO.P,J3,1,Pin_1*%
%TO.N,/s_in*%
X66040000Y-17780000D03*
D11*
%TO.P,J3,2,Pin_2*%
X68580000Y-17780000D03*
%TD*%
D10*
%TO.P,J1,1,Pin_1*%
%TO.N,Net-(J1-Pin_1)*%
X15240000Y-20320000D03*
D11*
%TO.P,J1,2,Pin_2*%
%TO.N,Net-(J1-Pin_2)*%
X15240000Y-22860000D03*
%TO.P,J1,3,Pin_3*%
%TO.N,Net-(J1-Pin_3)*%
X15240000Y-25400000D03*
%TO.P,J1,4,Pin_4*%
%TO.N,Net-(J1-Pin_4)*%
X15240000Y-27940000D03*
%TO.P,J1,5,Pin_5*%
%TO.N,Net-(J1-Pin_5)*%
X15240000Y-30480000D03*
%TO.P,J1,6,Pin_6*%
%TO.N,Net-(J1-Pin_6)*%
X15240000Y-33020000D03*
%TO.P,J1,7,Pin_7*%
%TO.N,Net-(J1-Pin_7)*%
X15240000Y-35560000D03*
%TO.P,J1,8,Pin_8*%
%TO.N,Net-(J1-Pin_8)*%
X15240000Y-38100000D03*
%TD*%
D15*
%TO.P,R11,1*%
%TO.N,VCC*%
X77470000Y-40830000D03*
%TO.P,R11,2*%
%TO.N,Net-(D9-A)*%
X77470000Y-39180000D03*
%TD*%
%TO.P,R3,1*%
%TO.N,Net-(U2-Q1)*%
X66040000Y-26225000D03*
%TO.P,R3,2*%
%TO.N,Net-(D3-A)*%
X66040000Y-24575000D03*
%TD*%
D16*
%TO.P,D1,1,K*%
%TO.N,GND*%
X60960000Y-22035000D03*
%TO.P,D1,2,A*%
%TO.N,Net-(D1-A)*%
X60960000Y-23685000D03*
%TD*%
%TO.P,D2,1,K*%
%TO.N,GND*%
X63500000Y-22035000D03*
%TO.P,D2,2,A*%
%TO.N,Net-(D2-A)*%
X63500000Y-23685000D03*
%TD*%
%TO.P,D3,1,K*%
%TO.N,GND*%
X66040000Y-22035000D03*
%TO.P,D3,2,A*%
%TO.N,Net-(D3-A)*%
X66040000Y-23685000D03*
%TD*%
%TO.P,D9,1,K*%
%TO.N,GND*%
X75565000Y-38355000D03*
%TO.P,D9,2,A*%
%TO.N,Net-(D9-A)*%
X75565000Y-40005000D03*
%TD*%
%TO.P,D4,1,K*%
%TO.N,GND*%
X68580000Y-22035000D03*
%TO.P,D4,2,A*%
%TO.N,Net-(D4-A)*%
X68580000Y-23685000D03*
%TD*%
%TO.P,D7,1,K*%
%TO.N,GND*%
X66040000Y-32195000D03*
%TO.P,D7,2,A*%
%TO.N,Net-(D7-A)*%
X66040000Y-33845000D03*
%TD*%
%TO.P,D5,1,K*%
%TO.N,GND*%
X60960000Y-32195000D03*
%TO.P,D5,2,A*%
%TO.N,Net-(D5-A)*%
X60960000Y-33845000D03*
%TD*%
D15*
%TO.P,R10,1*%
%TO.N,Net-(U4-Q0)*%
X68580000Y-36385000D03*
%TO.P,R10,2*%
%TO.N,Net-(D8-A)*%
X68580000Y-34735000D03*
%TD*%
%TO.P,R8,1*%
%TO.N,Net-(U4-Q2)*%
X63500000Y-36385000D03*
%TO.P,R8,2*%
%TO.N,Net-(D6-A)*%
X63500000Y-34735000D03*
%TD*%
D16*
%TO.P,D6,1,K*%
%TO.N,GND*%
X63500000Y-32195000D03*
%TO.P,D6,2,A*%
%TO.N,Net-(D6-A)*%
X63500000Y-33845000D03*
%TD*%
D15*
%TO.P,R1,1*%
%TO.N,Net-(U2-Q3)*%
X60960000Y-26225000D03*
%TO.P,R1,2*%
%TO.N,Net-(D1-A)*%
X60960000Y-24575000D03*
%TD*%
%TO.P,R7,1*%
%TO.N,/s_out*%
X60960000Y-36385000D03*
%TO.P,R7,2*%
%TO.N,Net-(D5-A)*%
X60960000Y-34735000D03*
%TD*%
D16*
%TO.P,D8,1,K*%
%TO.N,GND*%
X68580000Y-32195000D03*
%TO.P,D8,2,A*%
%TO.N,Net-(D8-A)*%
X68580000Y-33845000D03*
%TD*%
D15*
%TO.P,R4,1*%
%TO.N,Net-(U2-Q0)*%
X68580000Y-26225000D03*
%TO.P,R4,2*%
%TO.N,Net-(D4-A)*%
X68580000Y-24575000D03*
%TD*%
%TO.P,R2,1*%
%TO.N,Net-(U2-Q2)*%
X63500000Y-26225000D03*
%TO.P,R2,2*%
%TO.N,Net-(D2-A)*%
X63500000Y-24575000D03*
%TD*%
%TO.P,R9,1*%
%TO.N,Net-(U4-Q1)*%
X66040000Y-36385000D03*
%TO.P,R9,2*%
%TO.N,Net-(D7-A)*%
X66040000Y-34735000D03*
%TD*%
D17*
%TO.N,GND*%
X50800000Y-34925000D03*
X56515000Y-34925000D03*
X53340000Y-35560000D03*
X71120000Y-17780000D03*
X45720000Y-34925000D03*
X74930000Y-34290000D03*
X63500000Y-17780000D03*
%TO.N,Net-(J1-Pin_2)*%
X35579818Y-23157276D03*
%TO.N,Net-(J1-Pin_3)*%
X33102516Y-25129208D03*
%TO.N,Net-(J1-Pin_6)*%
X35574863Y-33272684D03*
%TO.N,Net-(J1-Pin_7)*%
X33033151Y-35353618D03*
%TO.N,/addr_3*%
X40679888Y-24804888D03*
%TO.N,/addr_2*%
X43175856Y-24789500D03*
%TO.N,/addr_1*%
X45720000Y-25389500D03*
%TO.N,/addr_0*%
X47060000Y-26035000D03*
%TO.N,/write*%
X44450000Y-26035000D03*
%TO.N,/load*%
X52115000Y-34290000D03*
%TO.N,/clear*%
X71120000Y-33020000D03*
%TO.N,Net-(U1-S0_n)*%
X38100000Y-25400000D03*
%TO.N,Net-(U1-S1_n)*%
X31830084Y-24337282D03*
%TO.N,Net-(U1-S2_n)*%
X30480000Y-24130000D03*
%TO.N,Net-(U1-S3_n)*%
X36574516Y-23059397D03*
%TO.N,Net-(U3-S0_n)*%
X38100000Y-36195000D03*
%TO.N,Net-(U3-S1_n)*%
X31762341Y-34517911D03*
%TO.N,Net-(U3-S2_n)*%
X30480000Y-34290000D03*
%TO.N,Net-(U3-S3_n)*%
X36830000Y-33252671D03*
%TD*%
D18*
%TO.N,VCC*%
X49530000Y-29210000D02*
X50800000Y-27940000D01*
X49530000Y-36830000D02*
X48260000Y-38100000D01*
X49530000Y-29210000D02*
X49530000Y-36830000D01*
X80030000Y-34310000D02*
X81935000Y-34310000D01*
X82530000Y-34905000D02*
X82530000Y-39390000D01*
X71120000Y-27940000D02*
X72295000Y-29115000D01*
X77470000Y-40830000D02*
X81090000Y-40830000D01*
X82530000Y-39390000D02*
X81280000Y-40640000D01*
X81935000Y-34310000D02*
X82530000Y-34905000D01*
X72295000Y-29115000D02*
X72295000Y-36900000D01*
X48260000Y-27940000D02*
X49530000Y-29210000D01*
X72295000Y-36900000D02*
X71095000Y-38100000D01*
X81090000Y-40830000D02*
X81280000Y-40640000D01*
X78740000Y-33020000D02*
X80030000Y-34310000D01*
%TO.N,GND*%
X55055000Y-22035000D02*
X53340000Y-20320000D01*
X78780000Y-38100000D02*
X81280000Y-38100000D01*
X73660000Y-32980000D02*
X74930000Y-34250000D01*
X68580000Y-32195000D02*
X60960000Y-32195000D01*
X50800000Y-30440000D02*
X50800000Y-29637057D01*
X60960000Y-32195000D02*
X58230000Y-34925000D01*
X74860000Y-29240000D02*
X74860000Y-21520000D01*
X50800000Y-29637057D02*
X52070000Y-28367057D01*
X45720000Y-30480000D02*
X45720000Y-34925000D01*
X53340000Y-35560000D02*
X53315000Y-35535000D01*
X58230000Y-34925000D02*
X56515000Y-34925000D01*
X52070000Y-21590000D02*
X53340000Y-20320000D01*
X74970000Y-34290000D02*
X78780000Y-38100000D01*
X68580000Y-22035000D02*
X60960000Y-22035000D01*
X74930000Y-34250000D02*
X74930000Y-34290000D01*
X73660000Y-30440000D02*
X73660000Y-32980000D01*
X53315000Y-35535000D02*
X53315000Y-30480000D01*
X60960000Y-22035000D02*
X55055000Y-22035000D01*
X74930000Y-34290000D02*
X74970000Y-34290000D01*
X52070000Y-28367057D02*
X52070000Y-21590000D01*
X50800000Y-34925000D02*
X50800000Y-30440000D01*
X73660000Y-30440000D02*
X74860000Y-29240000D01*
X74860000Y-21520000D02*
X71120000Y-17780000D01*
%TO.N,Net-(D1-A)*%
X60960000Y-23685000D02*
X60960000Y-24575000D01*
%TO.N,Net-(D2-A)*%
X63500000Y-23685000D02*
X63500000Y-24575000D01*
%TO.N,Net-(D3-A)*%
X66040000Y-23685000D02*
X66040000Y-24575000D01*
%TO.N,Net-(D4-A)*%
X68580000Y-23685000D02*
X68580000Y-24575000D01*
%TO.N,Net-(D5-A)*%
X60960000Y-33845000D02*
X60960000Y-34735000D01*
%TO.N,Net-(D6-A)*%
X63500000Y-33845000D02*
X63500000Y-34735000D01*
%TO.N,Net-(D7-A)*%
X66040000Y-33845000D02*
X66040000Y-34735000D01*
%TO.N,Net-(D8-A)*%
X68580000Y-33845000D02*
X68580000Y-34735000D01*
%TO.N,Net-(D9-A)*%
X77470000Y-39180000D02*
X76390000Y-39180000D01*
X76390000Y-39180000D02*
X75565000Y-40005000D01*
%TO.N,Net-(J1-Pin_2)*%
X35579818Y-20339818D02*
X35560000Y-20320000D01*
X35579818Y-23157276D02*
X35579818Y-20339818D01*
%TO.N,Net-(J1-Pin_3)*%
X33102516Y-27857484D02*
X33020000Y-27940000D01*
X33102516Y-25129208D02*
X33102516Y-27857484D01*
%TO.N,Net-(J1-Pin_6)*%
X35560000Y-30480000D02*
X35560000Y-33257821D01*
X35560000Y-33257821D02*
X35574863Y-33272684D01*
%TO.N,Net-(J1-Pin_7)*%
X33033151Y-38086849D02*
X33020000Y-38100000D01*
X33033151Y-35353618D02*
X33033151Y-38086849D01*
%TO.N,/addr_3*%
X40640000Y-24844776D02*
X40640000Y-27940000D01*
X40679888Y-24804888D02*
X40640000Y-24844776D01*
X40640000Y-27940000D02*
X39300000Y-29280000D01*
X39300000Y-29280000D02*
X39300000Y-36760000D01*
X39300000Y-36760000D02*
X40640000Y-38100000D01*
%TO.N,/addr_2*%
X41840000Y-36760000D02*
X43180000Y-38100000D01*
X41840000Y-29280000D02*
X41840000Y-36760000D01*
X43180000Y-27940000D02*
X41840000Y-29280000D01*
X43175856Y-24789500D02*
X43175856Y-27935856D01*
X43175856Y-27935856D02*
X43180000Y-27940000D01*
%TO.N,/addr_1*%
X45222943Y-28437057D02*
X45222943Y-29280000D01*
X44380000Y-30122943D02*
X44380000Y-36760000D01*
X44380000Y-36760000D02*
X45720000Y-38100000D01*
X45720000Y-27940000D02*
X45222943Y-28437057D01*
X45720000Y-25389500D02*
X45720000Y-27940000D01*
X45222943Y-29280000D02*
X44380000Y-30122943D01*
%TO.N,/addr_0*%
X47060000Y-29280000D02*
X48260000Y-30480000D01*
X48260000Y-20320000D02*
X47060000Y-21520000D01*
X47060000Y-21520000D02*
X47060000Y-29280000D01*
%TO.N,/write*%
X43180000Y-30480000D02*
X43180000Y-29777057D01*
X43180000Y-29777057D02*
X44520000Y-28437057D01*
X44520000Y-26105000D02*
X44450000Y-26035000D01*
X44520000Y-25965000D02*
X44520000Y-21660000D01*
X44450000Y-26035000D02*
X44520000Y-25965000D01*
X44520000Y-28437057D02*
X44520000Y-26105000D01*
X44520000Y-21660000D02*
X43180000Y-20320000D01*
%TO.N,/load*%
X53340000Y-28575000D02*
X53340000Y-27940000D01*
X52115000Y-29800000D02*
X53340000Y-28575000D01*
X53315000Y-38100000D02*
X52115000Y-36900000D01*
X52115000Y-36900000D02*
X52115000Y-29800000D01*
%TO.N,/clear*%
X71095000Y-32995000D02*
X71120000Y-33020000D01*
X69920000Y-21520000D02*
X71120000Y-20320000D01*
X71095000Y-30480000D02*
X71095000Y-32995000D01*
X69920000Y-29305000D02*
X69920000Y-21520000D01*
X71095000Y-30480000D02*
X69920000Y-29305000D01*
%TO.N,/clk*%
X54655000Y-35605000D02*
X55855000Y-36805000D01*
X55855000Y-36805000D02*
X55855000Y-38100000D01*
X55880000Y-27940000D02*
X54655000Y-29165000D01*
X54655000Y-29165000D02*
X54655000Y-35605000D01*
%TO.N,/s_in*%
X66040000Y-20320000D02*
X66040000Y-17780000D01*
X68580000Y-20320000D02*
X68580000Y-17780000D01*
%TO.N,/s_out*%
X60935000Y-38100000D02*
X60935000Y-40615000D01*
X60935000Y-40615000D02*
X60960000Y-40640000D01*
X60960000Y-36385000D02*
X60960000Y-38075000D01*
X60960000Y-38075000D02*
X60935000Y-38100000D01*
%TO.N,Net-(U2-Q3)*%
X60960000Y-26225000D02*
X60960000Y-27940000D01*
%TO.N,Net-(U2-Q2)*%
X63500000Y-26225000D02*
X63500000Y-27940000D01*
%TO.N,Net-(U2-Q1)*%
X66040000Y-26225000D02*
X66040000Y-27940000D01*
%TO.N,Net-(U2-Q0)*%
X68580000Y-26225000D02*
X68580000Y-27940000D01*
%TO.N,Net-(U4-Q2)*%
X63475000Y-38100000D02*
X63475000Y-36410000D01*
X63475000Y-36410000D02*
X63500000Y-36385000D01*
%TO.N,Net-(U4-Q1)*%
X66040000Y-38075000D02*
X66015000Y-38100000D01*
X66040000Y-36385000D02*
X66040000Y-38075000D01*
%TO.N,Net-(U4-Q0)*%
X68580000Y-36385000D02*
X68580000Y-38075000D01*
X68580000Y-38075000D02*
X68555000Y-38100000D01*
%TO.N,Net-(U1-S0_n)*%
X38100000Y-20320000D02*
X38100000Y-25400000D01*
%TO.N,Net-(U1-S1_n)*%
X33020000Y-20320000D02*
X33020000Y-23147366D01*
X33020000Y-23147366D02*
X31830084Y-24337282D01*
%TO.N,Net-(U1-S2_n)*%
X30480000Y-24130000D02*
X30480000Y-27940000D01*
%TO.N,Net-(U1-S3_n)*%
X36574516Y-26925484D02*
X35560000Y-27940000D01*
X36574516Y-23059397D02*
X36574516Y-26925484D01*
%TO.N,Net-(U3-S0_n)*%
X38100000Y-36195000D02*
X38100000Y-30480000D01*
%TO.N,Net-(U3-S1_n)*%
X31762341Y-34517911D02*
X33020000Y-33260252D01*
X33020000Y-33260252D02*
X33020000Y-30480000D01*
%TO.N,Net-(U3-S2_n)*%
X30480000Y-34290000D02*
X30480000Y-38100000D01*
%TO.N,Net-(U3-S3_n)*%
X35560000Y-34522671D02*
X35560000Y-38100000D01*
X36830000Y-33252671D02*
X35560000Y-34522671D01*
%TD*%
%TA.AperFunction,Conductor*%
%TO.N,GND*%
G36*
X64700993Y-16530185D02*
G01*
X64746748Y-16582989D01*
X64756692Y-16652147D01*
X64747820Y-16678806D01*
X64749303Y-16679359D01*
X64695908Y-16822517D01*
X64689501Y-16882116D01*
X64689500Y-16882135D01*
X64689500Y-18677870D01*
X64689501Y-18677876D01*
X64695908Y-18737483D01*
X64746202Y-18872328D01*
X64746206Y-18872335D01*
X64832452Y-18987544D01*
X64832455Y-18987547D01*
X64947664Y-19073793D01*
X64947671Y-19073797D01*
X65082513Y-19124090D01*
X65082514Y-19124090D01*
X65082517Y-19124091D01*
X65108530Y-19126887D01*
X65173078Y-19153623D01*
X65212927Y-19211014D01*
X65215423Y-19280839D01*
X65182956Y-19337857D01*
X65039951Y-19480862D01*
X64909432Y-19667265D01*
X64909431Y-19667267D01*
X64882382Y-19725275D01*
X64836209Y-19777714D01*
X64769016Y-19796866D01*
X64702135Y-19776650D01*
X64657618Y-19725275D01*
X64630686Y-19667520D01*
X64630568Y-19667266D01*
X64517273Y-19505462D01*
X64500045Y-19480858D01*
X64339141Y-19319954D01*
X64152734Y-19189432D01*
X64152732Y-19189431D01*
X63946497Y-19093261D01*
X63946488Y-19093258D01*
X63726697Y-19034366D01*
X63726693Y-19034365D01*
X63726692Y-19034365D01*
X63726691Y-19034364D01*
X63726686Y-19034364D01*
X63500002Y-19014532D01*
X63499998Y-19014532D01*
X63273313Y-19034364D01*
X63273302Y-19034366D01*
X63053511Y-19093258D01*
X63053502Y-19093261D01*
X62847267Y-19189431D01*
X62847265Y-19189432D01*
X62660858Y-19319954D01*
X62499954Y-19480858D01*
X62369432Y-19667265D01*
X62369431Y-19667267D01*
X62342382Y-19725275D01*
X62296209Y-19777714D01*
X62229016Y-19796866D01*
X62162135Y-19776650D01*
X62117618Y-19725275D01*
X62090686Y-19667520D01*
X62090568Y-19667266D01*
X61977273Y-19505462D01*
X61960045Y-19480858D01*
X61799141Y-19319954D01*
X61612734Y-19189432D01*
X61612732Y-19189431D01*
X61406497Y-19093261D01*
X61406488Y-19093258D01*
X61186697Y-19034366D01*
X61186693Y-19034365D01*
X61186692Y-19034365D01*
X61186691Y-19034364D01*
X61186686Y-19034364D01*
X60960002Y-19014532D01*
X60959998Y-19014532D01*
X60733313Y-19034364D01*
X60733302Y-19034366D01*
X60513511Y-19093258D01*
X60513502Y-19093261D01*
X60307267Y-19189431D01*
X60307265Y-19189432D01*
X60120858Y-19319954D01*
X59959954Y-19480858D01*
X59829432Y-19667265D01*
X59829431Y-19667267D01*
X59802382Y-19725275D01*
X59756209Y-19777714D01*
X59689016Y-19796866D01*
X59622135Y-19776650D01*
X59577618Y-19725275D01*
X59550686Y-19667520D01*
X59550568Y-19667266D01*
X59437273Y-19505462D01*
X59420045Y-19480858D01*
X59259141Y-19319954D01*
X59072734Y-19189432D01*
X59072732Y-19189431D01*
X58866497Y-19093261D01*
X58866488Y-19093258D01*
X58646697Y-19034366D01*
X58646693Y-19034365D01*
X58646692Y-19034365D01*
X58646691Y-19034364D01*
X58646686Y-19034364D01*
X58420002Y-19014532D01*
X58419998Y-19014532D01*
X58193313Y-19034364D01*
X58193302Y-19034366D01*
X57973511Y-19093258D01*
X57973502Y-19093261D01*
X57767267Y-19189431D01*
X57767265Y-19189432D01*
X57580858Y-19319954D01*
X57419954Y-19480858D01*
X57289432Y-19667265D01*
X57289431Y-19667267D01*
X57262382Y-19725275D01*
X57216209Y-19777714D01*
X57149016Y-19796866D01*
X57082135Y-19776650D01*
X57037618Y-19725275D01*
X57010686Y-19667520D01*
X57010568Y-19667266D01*
X56897273Y-19505462D01*
X56880045Y-19480858D01*
X56719141Y-19319954D01*
X56532734Y-19189432D01*
X56532732Y-19189431D01*
X56326497Y-19093261D01*
X56326488Y-19093258D01*
X56106697Y-19034366D01*
X56106693Y-19034365D01*
X56106692Y-19034365D01*
X56106691Y-19034364D01*
X56106686Y-19034364D01*
X55880002Y-19014532D01*
X55879998Y-19014532D01*
X55653313Y-19034364D01*
X55653302Y-19034366D01*
X55433511Y-19093258D01*
X55433502Y-19093261D01*
X55227267Y-19189431D01*
X55227265Y-19189432D01*
X55040858Y-19319954D01*
X54879954Y-19480858D01*
X54749434Y-19667263D01*
X54749432Y-19667266D01*
X54722383Y-19725274D01*
X54722106Y-19725867D01*
X54675933Y-19778306D01*
X54608739Y-19797457D01*
X54541858Y-19777241D01*
X54497342Y-19725865D01*
X54470135Y-19667520D01*
X54470134Y-19667518D01*
X54339657Y-19481179D01*
X54178820Y-19320342D01*
X53992482Y-19189865D01*
X53786328Y-19093734D01*
X53589999Y-19041127D01*
X53589999Y-20004313D01*
X53578045Y-19992359D01*
X53465148Y-19934835D01*
X53371481Y-19920000D01*
X53308519Y-19920000D01*
X53214852Y-19934835D01*
X53101955Y-19992359D01*
X53090000Y-20004313D01*
X53090000Y-19041127D01*
X52893671Y-19093734D01*
X52687517Y-19189865D01*
X52501179Y-19320342D01*
X52340342Y-19481179D01*
X52209865Y-19667517D01*
X52113734Y-19873673D01*
X52113730Y-19873682D01*
X52061127Y-20069999D01*
X52061128Y-20070000D01*
X53024314Y-20070000D01*
X53012359Y-20081955D01*
X52954835Y-20194852D01*
X52935014Y-20320000D01*
X52954835Y-20445148D01*
X53012359Y-20558045D01*
X53024314Y-20570000D01*
X52061128Y-20570000D01*
X52113730Y-20766317D01*
X52113734Y-20766326D01*
X52209865Y-20972482D01*
X52340342Y-21158820D01*
X52501179Y-21319657D01*
X52687517Y-21450134D01*
X52893673Y-21546265D01*
X52893682Y-21546269D01*
X53089999Y-21598872D01*
X53090000Y-21598871D01*
X53090000Y-20635685D01*
X53101955Y-20647641D01*
X53214852Y-20705165D01*
X53308519Y-20720000D01*
X53371481Y-20720000D01*
X53465148Y-20705165D01*
X53578045Y-20647641D01*
X53589999Y-20635686D01*
X53589999Y-21598871D01*
X53589999Y-21598872D01*
X53786317Y-21546269D01*
X53786326Y-21546265D01*
X53992482Y-21450134D01*
X54178820Y-21319657D01*
X54339657Y-21158820D01*
X54470132Y-20972484D01*
X54497341Y-20914134D01*
X54543513Y-20861695D01*
X54610707Y-20842542D01*
X54677588Y-20862757D01*
X54722105Y-20914132D01*
X54744088Y-20961275D01*
X54749431Y-20972732D01*
X54749432Y-20972734D01*
X54879954Y-21159141D01*
X55040858Y-21320045D01*
X55040861Y-21320047D01*
X55227266Y-21450568D01*
X55433504Y-21546739D01*
X55433509Y-21546740D01*
X55433511Y-21546741D01*
X55486415Y-21560916D01*
X55653308Y-21605635D01*
X55815230Y-21619801D01*
X55879998Y-21625468D01*
X55880000Y-21625468D01*
X55880002Y-21625468D01*
X55936807Y-21620498D01*
X56106692Y-21605635D01*
X56326496Y-21546739D01*
X56532734Y-21450568D01*
X56719139Y-21320047D01*
X56880047Y-21159139D01*
X57010568Y-20972734D01*
X57037618Y-20914724D01*
X57083790Y-20862285D01*
X57150983Y-20843133D01*
X57217865Y-20863348D01*
X57262382Y-20914725D01*
X57289429Y-20972728D01*
X57289432Y-20972734D01*
X57419954Y-21159141D01*
X57580858Y-21320045D01*
X57580861Y-21320047D01*
X57767266Y-21450568D01*
X57973504Y-21546739D01*
X57973509Y-21546740D01*
X57973511Y-21546741D01*
X58026415Y-21560916D01*
X58193308Y-21605635D01*
X58355230Y-21619801D01*
X58419998Y-21625468D01*
X58420000Y-21625468D01*
X58420002Y-21625468D01*
X58476807Y-21620498D01*
X58646692Y-21605635D01*
X58866496Y-21546739D01*
X59072734Y-21450568D01*
X59259139Y-21320047D01*
X59420047Y-21159139D01*
X59550568Y-20972734D01*
X59577618Y-20914724D01*
X59623790Y-20862285D01*
X59690983Y-20843133D01*
X59757865Y-20863348D01*
X59802382Y-20914725D01*
X59829429Y-20972728D01*
X59829432Y-20972734D01*
X59959951Y-21159137D01*
X59959952Y-21159138D01*
X59959953Y-21159139D01*
X60087987Y-21287173D01*
X60121471Y-21348494D01*
X60116487Y-21418186D01*
X60106422Y-21439002D01*
X60041982Y-21545599D01*
X60041980Y-21545603D01*
X59991409Y-21707893D01*
X59985000Y-21778427D01*
X59985000Y-21785000D01*
X61934999Y-21785000D01*
X61934999Y-21778417D01*
X61928591Y-21707897D01*
X61928590Y-21707892D01*
X61878018Y-21545603D01*
X61813577Y-21439004D01*
X61795741Y-21371450D01*
X61817258Y-21304976D01*
X61832008Y-21287177D01*
X61960047Y-21159139D01*
X62090568Y-20972734D01*
X62117618Y-20914724D01*
X62163790Y-20862285D01*
X62230983Y-20843133D01*
X62297865Y-20863348D01*
X62342382Y-20914725D01*
X62369429Y-20972728D01*
X62369432Y-20972734D01*
X62499951Y-21159137D01*
X62499952Y-21159138D01*
X62499953Y-21159139D01*
X62627987Y-21287173D01*
X62661471Y-21348494D01*
X62656487Y-21418186D01*
X62646422Y-21439002D01*
X62581982Y-21545599D01*
X62581980Y-21545603D01*
X62531409Y-21707893D01*
X62525000Y-21778427D01*
X62525000Y-21785000D01*
X64474999Y-21785000D01*
X64474999Y-21778417D01*
X64468591Y-21707897D01*
X64468590Y-21707892D01*
X64418018Y-21545603D01*
X64353577Y-21439004D01*
X64335741Y-21371450D01*
X64357258Y-21304976D01*
X64372008Y-21287177D01*
X64500047Y-21159139D01*
X64630568Y-20972734D01*
X64657618Y-20914724D01*
X64703790Y-20862285D01*
X64770983Y-20843133D01*
X64837865Y-20863348D01*
X64882382Y-20914725D01*
X64909429Y-20972728D01*
X64909432Y-20972734D01*
X65039951Y-21159137D01*
X65039952Y-21159138D01*
X65039953Y-21159139D01*
X65167987Y-21287173D01*
X65201471Y-21348494D01*
X65196487Y-21418186D01*
X65186422Y-21439002D01*
X65121982Y-21545599D01*
X65121980Y-21545603D01*
X65071409Y-21707893D01*
X65065000Y-21778427D01*
X65065000Y-21785000D01*
X67014999Y-21785000D01*
X67014999Y-21778417D01*
X67008591Y-21707897D01*
X67008590Y-21707892D01*
X66958018Y-21545603D01*
X66893577Y-21439004D01*
X66875741Y-21371450D01*
X66897258Y-21304976D01*
X66912008Y-21287177D01*
X67040047Y-21159139D01*
X67170568Y-20972734D01*
X67197619Y-20914721D01*
X67243788Y-20862286D01*
X67310981Y-20843133D01*
X67377862Y-20863348D01*
X67422380Y-20914722D01*
X67449432Y-20972734D01*
X67449433Y-20972735D01*
X67579951Y-21159137D01*
X67579952Y-21159138D01*
X67579953Y-21159139D01*
X67707987Y-21287173D01*
X67741471Y-21348494D01*
X67736487Y-21418186D01*
X67726422Y-21439002D01*
X67661982Y-21545599D01*
X67661980Y-21545603D01*
X67611409Y-21707893D01*
X67605000Y-21778427D01*
X67605000Y-21785000D01*
X68706000Y-21785000D01*
X68773039Y-21804685D01*
X68818794Y-21857489D01*
X68830000Y-21909000D01*
X68830000Y-22161000D01*
X68810315Y-22228039D01*
X68757511Y-22273794D01*
X68706000Y-22285000D01*
X67605001Y-22285000D01*
X67605001Y-22291582D01*
X67611408Y-22362102D01*
X67611409Y-22362107D01*
X67661981Y-22524396D01*
X67749927Y-22669877D01*
X67852015Y-22771965D01*
X67885500Y-22833288D01*
X67880516Y-22902980D01*
X67852015Y-22947327D01*
X67749531Y-23049810D01*
X67749530Y-23049811D01*
X67661522Y-23195393D01*
X67610913Y-23357807D01*
X67606207Y-23409598D01*
X67604500Y-23428384D01*
X67604500Y-23941616D01*
X67606883Y-23967837D01*
X67610914Y-24012197D01*
X67615971Y-24028425D01*
X67632977Y-24083002D01*
X67636127Y-24093109D01*
X67637277Y-24162969D01*
X67636127Y-24166888D01*
X67610914Y-24247800D01*
X67610914Y-24247804D01*
X67604512Y-24318259D01*
X67604500Y-24318386D01*
X67604500Y-24831613D01*
X67610913Y-24902192D01*
X67610913Y-24902194D01*
X67610914Y-24902196D01*
X67661522Y-25064606D01*
X67742419Y-25198426D01*
X67749530Y-25210188D01*
X67851661Y-25312319D01*
X67885146Y-25373642D01*
X67880162Y-25443334D01*
X67851661Y-25487681D01*
X67749531Y-25589810D01*
X67749530Y-25589811D01*
X67661522Y-25735393D01*
X67610913Y-25897807D01*
X67604500Y-25968386D01*
X67604500Y-26481613D01*
X67610913Y-26552192D01*
X67610913Y-26552194D01*
X67610914Y-26552196D01*
X67661522Y-26714606D01*
X67726058Y-26821361D01*
X67743894Y-26888914D01*
X67722377Y-26955388D01*
X67707622Y-26973191D01*
X67579954Y-27100858D01*
X67449432Y-27287265D01*
X67449430Y-27287268D01*
X67422380Y-27345277D01*
X67376207Y-27397715D01*
X67309013Y-27416866D01*
X67242132Y-27396649D01*
X67197619Y-27345277D01*
X67170568Y-27287266D01*
X67152997Y-27262171D01*
X67040045Y-27100858D01*
X66912378Y-26973191D01*
X66878893Y-26911868D01*
X66883877Y-26842176D01*
X66893939Y-26821365D01*
X66958478Y-26714606D01*
X67009086Y-26552196D01*
X67015500Y-26481616D01*
X67015500Y-25968384D01*
X67009086Y-25897804D01*
X66958478Y-25735394D01*
X66870472Y-25589815D01*
X66870470Y-25589813D01*
X66870469Y-25589811D01*
X66768338Y-25487680D01*
X66734853Y-25426357D01*
X66739837Y-25356665D01*
X66768337Y-25312319D01*
X66870472Y-25210185D01*
X66958478Y-25064606D01*
X67009086Y-24902196D01*
X67015500Y-24831616D01*
X67015500Y-24318384D01*
X67009086Y-24247804D01*
X66983871Y-24166888D01*
X66982720Y-24097030D01*
X66983861Y-24093144D01*
X67009086Y-24012196D01*
X67015500Y-23941616D01*
X67015500Y-23428384D01*
X67009086Y-23357804D01*
X66958478Y-23195394D01*
X66870472Y-23049815D01*
X66870470Y-23049813D01*
X66870469Y-23049811D01*
X66767984Y-22947326D01*
X66734499Y-22886003D01*
X66739483Y-22816311D01*
X66767985Y-22771963D01*
X66870071Y-22669878D01*
X66870072Y-22669877D01*
X66958019Y-22524395D01*
X67008590Y-22362106D01*
X67015000Y-22291572D01*
X67015000Y-22285000D01*
X65065001Y-22285000D01*
X65065001Y-22291582D01*
X65071408Y-22362102D01*
X65071409Y-22362107D01*
X65121981Y-22524396D01*
X65209927Y-22669877D01*
X65312015Y-22771965D01*
X65345500Y-22833288D01*
X65340516Y-22902980D01*
X65312015Y-22947327D01*
X65209531Y-23049810D01*
X65209530Y-23049811D01*
X65121522Y-23195393D01*
X65070913Y-23357807D01*
X65066207Y-23409598D01*
X65064500Y-23428384D01*
X65064500Y-23941616D01*
X65066883Y-23967837D01*
X65070914Y-24012197D01*
X65075971Y-24028425D01*
X65092977Y-24083002D01*
X65096127Y-24093109D01*
X65097277Y-24162969D01*
X65096127Y-24166888D01*
X65070914Y-24247800D01*
X65070914Y-24247804D01*
X65064512Y-24318259D01*
X65064500Y-24318386D01*
X65064500Y-24831613D01*
X65070913Y-24902192D01*
X65070913Y-24902194D01*
X65070914Y-24902196D01*
X65121522Y-25064606D01*
X65202419Y-25198426D01*
X65209530Y-25210188D01*
X65311661Y-25312319D01*
X65345146Y-25373642D01*
X65340162Y-25443334D01*
X65311661Y-25487681D01*
X65209531Y-25589810D01*
X65209530Y-25589811D01*
X65121522Y-25735393D01*
X65070913Y-25897807D01*
X65064500Y-25968386D01*
X65064500Y-26481613D01*
X65070913Y-26552192D01*
X65070913Y-26552194D01*
X65070914Y-26552196D01*
X65121522Y-26714606D01*
X65186058Y-26821361D01*
X65203894Y-26888914D01*
X65182377Y-26955388D01*
X65167622Y-26973191D01*
X65039954Y-27100858D01*
X64909432Y-27287265D01*
X64909431Y-27287267D01*
X64882382Y-27345275D01*
X64836209Y-27397714D01*
X64769016Y-27416866D01*
X64702135Y-27396650D01*
X64657618Y-27345275D01*
X64657618Y-27345274D01*
X64630568Y-27287266D01*
X64518469Y-27127171D01*
X64500045Y-27100858D01*
X64372378Y-26973191D01*
X64338893Y-26911868D01*
X64343877Y-26842176D01*
X64353939Y-26821365D01*
X64418478Y-26714606D01*
X64469086Y-26552196D01*
X64475500Y-26481616D01*
X64475500Y-25968384D01*
X64469086Y-25897804D01*
X64418478Y-25735394D01*
X64330472Y-25589815D01*
X64330470Y-25589813D01*
X64330469Y-25589811D01*
X64228339Y-25487681D01*
X64194854Y-25426358D01*
X64199838Y-25356666D01*
X64228339Y-25312319D01*
X64330468Y-25210189D01*
X64330469Y-25210188D01*
X64330472Y-25210185D01*
X64418478Y-25064606D01*
X64469086Y-24902196D01*
X64475500Y-24831616D01*
X64475500Y-24318384D01*
X64469086Y-24247804D01*
X64443871Y-24166888D01*
X64442720Y-24097030D01*
X64443861Y-24093144D01*
X64469086Y-24012196D01*
X64475500Y-23941616D01*
X64475500Y-23428384D01*
X64469086Y-23357804D01*
X64418478Y-23195394D01*
X64330472Y-23049815D01*
X64330470Y-23049813D01*
X64330469Y-23049811D01*
X64227984Y-22947326D01*
X64194499Y-22886003D01*
X64199483Y-22816311D01*
X64227985Y-22771963D01*
X64330071Y-22669878D01*
X64330072Y-22669877D01*
X64418019Y-22524395D01*
X64468590Y-22362106D01*
X64475000Y-22291572D01*
X64475000Y-22285000D01*
X62525001Y-22285000D01*
X62525001Y-22291582D01*
X62531408Y-22362102D01*
X62531409Y-22362107D01*
X62581981Y-22524396D01*
X62669927Y-22669877D01*
X62772015Y-22771965D01*
X62805500Y-22833288D01*
X62800516Y-22902980D01*
X62772015Y-22947327D01*
X62669531Y-23049810D01*
X62669530Y-23049811D01*
X62581522Y-23195393D01*
X62530913Y-23357807D01*
X62526207Y-23409598D01*
X62524500Y-23428384D01*
X62524500Y-23941616D01*
X62526883Y-23967837D01*
X62530914Y-24012197D01*
X62535971Y-24028425D01*
X62552977Y-24083002D01*
X62556127Y-24093109D01*
X62557277Y-24162969D01*
X62556127Y-24166888D01*
X62530914Y-24247800D01*
X62530914Y-24247804D01*
X62524512Y-24318259D01*
X62524500Y-24318386D01*
X62524500Y-24831613D01*
X62530913Y-24902192D01*
X62530913Y-24902194D01*
X62530914Y-24902196D01*
X62581522Y-25064606D01*
X62662419Y-25198426D01*
X62669530Y-25210188D01*
X62771661Y-25312319D01*
X62805146Y-25373642D01*
X62800162Y-25443334D01*
X62771661Y-25487681D01*
X62669531Y-25589810D01*
X62669530Y-25589811D01*
X62581522Y-25735393D01*
X62530913Y-25897807D01*
X62524500Y-25968386D01*
X62524500Y-26481613D01*
X62530913Y-26552192D01*
X62530913Y-26552194D01*
X62530914Y-26552196D01*
X62581522Y-26714606D01*
X62646058Y-26821361D01*
X62663894Y-26888914D01*
X62642377Y-26955388D01*
X62627622Y-26973191D01*
X62499954Y-27100858D01*
X62369432Y-27287265D01*
X62369431Y-27287267D01*
X62342382Y-27345275D01*
X62296209Y-27397714D01*
X62229016Y-27416866D01*
X62162135Y-27396650D01*
X62117618Y-27345275D01*
X62117618Y-27345274D01*
X62090568Y-27287266D01*
X61978469Y-27127171D01*
X61960045Y-27100858D01*
X61832378Y-26973191D01*
X61798893Y-26911868D01*
X61803877Y-26842176D01*
X61813939Y-26821365D01*
X61878478Y-26714606D01*
X61929086Y-26552196D01*
X61935500Y-26481616D01*
X61935500Y-25968384D01*
X61929086Y-25897804D01*
X61878478Y-25735394D01*
X61790472Y-25589815D01*
X61790470Y-25589813D01*
X61790469Y-25589811D01*
X61688338Y-25487680D01*
X61654853Y-25426357D01*
X61659837Y-25356665D01*
X61688337Y-25312319D01*
X61790472Y-25210185D01*
X61878478Y-25064606D01*
X61929086Y-24902196D01*
X61935500Y-24831616D01*
X61935500Y-24318384D01*
X61929086Y-24247804D01*
X61903871Y-24166888D01*
X61902720Y-24097030D01*
X61903861Y-24093144D01*
X61929086Y-24012196D01*
X61935500Y-23941616D01*
X61935500Y-23428384D01*
X61929086Y-23357804D01*
X61878478Y-23195394D01*
X61790472Y-23049815D01*
X61790470Y-23049813D01*
X61790469Y-23049811D01*
X61687984Y-22947326D01*
X61654499Y-22886003D01*
X61659483Y-22816311D01*
X61687985Y-22771963D01*
X61790071Y-22669878D01*
X61790072Y-22669877D01*
X61878019Y-22524395D01*
X61928590Y-22362106D01*
X61935000Y-22291572D01*
X61935000Y-22285000D01*
X59985001Y-22285000D01*
X59985001Y-22291582D01*
X59991408Y-22362102D01*
X59991409Y-22362107D01*
X60041981Y-22524396D01*
X60129927Y-22669877D01*
X60232015Y-22771965D01*
X60265500Y-22833288D01*
X60260516Y-22902980D01*
X60232015Y-22947327D01*
X60129531Y-23049810D01*
X60129530Y-23049811D01*
X60041522Y-23195393D01*
X59990913Y-23357807D01*
X59986207Y-23409598D01*
X59984500Y-23428384D01*
X59984500Y-23941616D01*
X59986883Y-23967837D01*
X59990914Y-24012197D01*
X59995971Y-24028425D01*
X60012977Y-24083002D01*
X60016127Y-24093109D01*
X60017277Y-24162969D01*
X60016127Y-24166888D01*
X59990914Y-24247800D01*
X59990914Y-24247804D01*
X59984512Y-24318259D01*
X59984500Y-24318386D01*
X59984500Y-24831613D01*
X59990913Y-24902192D01*
X59990913Y-24902194D01*
X59990914Y-24902196D01*
X60041522Y-25064606D01*
X60122419Y-25198426D01*
X60129530Y-25210188D01*
X60231661Y-25312319D01*
X60265146Y-25373642D01*
X60260162Y-25443334D01*
X60231661Y-25487681D01*
X60129531Y-25589810D01*
X60129530Y-25589811D01*
X60041522Y-25735393D01*
X59990913Y-25897807D01*
X59984500Y-25968386D01*
X59984500Y-26481613D01*
X59990913Y-26552192D01*
X59990913Y-26552194D01*
X59990914Y-26552196D01*
X60041522Y-26714606D01*
X60106058Y-26821361D01*
X60123894Y-26888914D01*
X60102377Y-26955388D01*
X60087622Y-26973191D01*
X59959954Y-27100858D01*
X59829432Y-27287265D01*
X59829431Y-27287267D01*
X59802382Y-27345275D01*
X59756209Y-27397714D01*
X59689016Y-27416866D01*
X59622135Y-27396650D01*
X59577618Y-27345275D01*
X59577618Y-27345274D01*
X59550568Y-27287266D01*
X59438469Y-27127171D01*
X59420045Y-27100858D01*
X59259141Y-26939954D01*
X59072734Y-26809432D01*
X59072732Y-26809431D01*
X58866497Y-26713261D01*
X58866488Y-26713258D01*
X58646697Y-26654366D01*
X58646693Y-26654365D01*
X58646692Y-26654365D01*
X58646691Y-26654364D01*
X58646686Y-26654364D01*
X58420002Y-26634532D01*
X58419998Y-26634532D01*
X58193313Y-26654364D01*
X58193302Y-26654366D01*
X57973511Y-26713258D01*
X57973502Y-26713261D01*
X57767267Y-26809431D01*
X57767265Y-26809432D01*
X57580858Y-26939954D01*
X57419954Y-27100858D01*
X57289432Y-27287265D01*
X57289431Y-27287267D01*
X57262382Y-27345275D01*
X57216209Y-27397714D01*
X57149016Y-27416866D01*
X57082135Y-27396650D01*
X57037618Y-27345275D01*
X57037618Y-27345274D01*
X57010568Y-27287266D01*
X56898469Y-27127171D01*
X56880045Y-27100858D01*
X56719141Y-26939954D01*
X56532734Y-26809432D01*
X56532732Y-26809431D01*
X56326497Y-26713261D01*
X56326488Y-26713258D01*
X56106697Y-26654366D01*
X56106693Y-26654365D01*
X56106692Y-26654365D01*
X56106691Y-26654364D01*
X56106686Y-26654364D01*
X55880002Y-26634532D01*
X55879998Y-26634532D01*
X55653313Y-26654364D01*
X55653302Y-26654366D01*
X55433511Y-26713258D01*
X55433502Y-26713261D01*
X55227267Y-26809431D01*
X55227265Y-26809432D01*
X55040858Y-26939954D01*
X54879954Y-27100858D01*
X54749432Y-27287265D01*
X54749431Y-27287267D01*
X54722382Y-27345275D01*
X54676209Y-27397714D01*
X54609016Y-27416866D01*
X54542135Y-27396650D01*
X54497618Y-27345275D01*
X54497618Y-27345274D01*
X54470568Y-27287266D01*
X54358469Y-27127171D01*
X54340045Y-27100858D01*
X54179141Y-26939954D01*
X53992734Y-26809432D01*
X53992732Y-26809431D01*
X53786497Y-26713261D01*
X53786488Y-26713258D01*
X53566697Y-26654366D01*
X53566693Y-26654365D01*
X53566692Y-26654365D01*
X53566691Y-26654364D01*
X53566686Y-26654364D01*
X53340002Y-26634532D01*
X53339998Y-26634532D01*
X53113313Y-26654364D01*
X53113302Y-26654366D01*
X52893511Y-26713258D01*
X52893502Y-26713261D01*
X52687267Y-26809431D01*
X52687265Y-26809432D01*
X52500858Y-26939954D01*
X52339954Y-27100858D01*
X52209432Y-27287265D01*
X52209431Y-27287267D01*
X52182382Y-27345275D01*
X52136209Y-27397714D01*
X52069016Y-27416866D01*
X52002135Y-27396650D01*
X51957618Y-27345275D01*
X51957618Y-27345274D01*
X51930568Y-27287266D01*
X51818469Y-27127171D01*
X51800045Y-27100858D01*
X51639141Y-26939954D01*
X51452734Y-26809432D01*
X51452732Y-26809431D01*
X51246497Y-26713261D01*
X51246488Y-26713258D01*
X51026697Y-26654366D01*
X51026693Y-26654365D01*
X51026692Y-26654365D01*
X51026691Y-26654364D01*
X51026686Y-26654364D01*
X50800002Y-26634532D01*
X50799998Y-26634532D01*
X50573313Y-26654364D01*
X50573302Y-26654366D01*
X50353511Y-26713258D01*
X50353502Y-26713261D01*
X50147267Y-26809431D01*
X50147265Y-26809432D01*
X49960858Y-26939954D01*
X49799954Y-27100858D01*
X49669432Y-27287265D01*
X49669431Y-27287267D01*
X49642382Y-27345275D01*
X49596209Y-27397714D01*
X49529016Y-27416866D01*
X49462135Y-27396650D01*
X49417618Y-27345275D01*
X49417618Y-27345274D01*
X49390568Y-27287266D01*
X49278469Y-27127171D01*
X49260045Y-27100858D01*
X49099141Y-26939954D01*
X48912734Y-26809432D01*
X48912732Y-26809431D01*
X48706497Y-26713261D01*
X48706488Y-26713258D01*
X48486697Y-26654366D01*
X48486693Y-26654365D01*
X48486692Y-26654365D01*
X48486691Y-26654364D01*
X48486686Y-26654364D01*
X48260002Y-26634532D01*
X48259998Y-26634532D01*
X48033313Y-26654364D01*
X48033299Y-26654367D01*
X47978104Y-26669156D01*
X47908254Y-26667493D01*
X47850392Y-26628330D01*
X47822889Y-26564101D01*
X47834476Y-26495199D01*
X47838617Y-26487395D01*
X47887179Y-26403284D01*
X47945674Y-26223256D01*
X47965460Y-26035000D01*
X47945674Y-25846744D01*
X47887179Y-25666716D01*
X47792533Y-25502784D01*
X47792344Y-25502574D01*
X47792273Y-25502427D01*
X47788714Y-25497528D01*
X47789610Y-25496876D01*
X47762119Y-25439580D01*
X47760500Y-25419608D01*
X47760500Y-21861518D01*
X47780185Y-21794479D01*
X47796815Y-21773841D01*
X47913838Y-21656817D01*
X47975161Y-21623333D01*
X48001519Y-21620499D01*
X49107871Y-21620499D01*
X49107872Y-21620499D01*
X49167483Y-21614091D01*
X49302331Y-21563796D01*
X49417546Y-21477546D01*
X49503796Y-21362331D01*
X49554091Y-21227483D01*
X49560500Y-21167873D01*
X49560499Y-19472128D01*
X49554091Y-19412517D01*
X49535442Y-19362517D01*
X49503797Y-19277671D01*
X49503793Y-19277664D01*
X49417547Y-19162455D01*
X49417544Y-19162452D01*
X49302335Y-19076206D01*
X49302328Y-19076202D01*
X49167482Y-19025908D01*
X49167483Y-19025908D01*
X49107883Y-19019501D01*
X49107881Y-19019500D01*
X49107873Y-19019500D01*
X49107864Y-19019500D01*
X47412129Y-19019500D01*
X47412123Y-19019501D01*
X47352516Y-19025908D01*
X47217671Y-19076202D01*
X47217664Y-19076206D01*
X47102455Y-19162452D01*
X47102452Y-19162455D01*
X47016206Y-19277664D01*
X47016202Y-19277671D01*
X46965908Y-19412517D01*
X46962056Y-19448352D01*
X46935318Y-19512903D01*
X46877926Y-19552752D01*
X46808101Y-19555245D01*
X46748012Y-19519593D01*
X46737192Y-19506221D01*
X46719657Y-19481179D01*
X46558820Y-19320342D01*
X46372482Y-19189865D01*
X46166328Y-19093734D01*
X45970000Y-19041127D01*
X45970000Y-20004314D01*
X45958045Y-19992359D01*
X45845148Y-19934835D01*
X45751481Y-19920000D01*
X45688519Y-19920000D01*
X45594852Y-19934835D01*
X45481955Y-19992359D01*
X45470000Y-20004313D01*
X45470000Y-19041127D01*
X45273671Y-19093734D01*
X45067517Y-19189865D01*
X44881179Y-19320342D01*
X44720342Y-19481179D01*
X44589867Y-19667515D01*
X44562657Y-19725867D01*
X44516484Y-19778306D01*
X44449290Y-19797457D01*
X44382409Y-19777241D01*
X44337893Y-19725865D01*
X44337617Y-19725274D01*
X44310568Y-19667266D01*
X44197273Y-19505462D01*
X44180045Y-19480858D01*
X44019141Y-19319954D01*
X43832734Y-19189432D01*
X43832732Y-19189431D01*
X43626497Y-19093261D01*
X43626488Y-19093258D01*
X43406697Y-19034366D01*
X43406693Y-19034365D01*
X43406692Y-19034365D01*
X43406691Y-19034364D01*
X43406686Y-19034364D01*
X43180002Y-19014532D01*
X43179998Y-19014532D01*
X42953313Y-19034364D01*
X42953302Y-19034366D01*
X42733511Y-19093258D01*
X42733502Y-19093261D01*
X42527267Y-19189431D01*
X42527265Y-19189432D01*
X42340858Y-19319954D01*
X42179954Y-19480858D01*
X42049432Y-19667265D01*
X42049431Y-19667267D01*
X42022382Y-19725275D01*
X41976209Y-19777714D01*
X41909016Y-19796866D01*
X41842135Y-19776650D01*
X41797618Y-19725275D01*
X41770686Y-19667520D01*
X41770568Y-19667266D01*
X41657273Y-19505462D01*
X41640045Y-19480858D01*
X41479141Y-19319954D01*
X41292734Y-19189432D01*
X41292732Y-19189431D01*
X41086497Y-19093261D01*
X41086488Y-19093258D01*
X40866697Y-19034366D01*
X40866693Y-19034365D01*
X40866692Y-19034365D01*
X40866691Y-19034364D01*
X40866686Y-19034364D01*
X40640002Y-19014532D01*
X40639998Y-19014532D01*
X40413313Y-19034364D01*
X40413302Y-19034366D01*
X40193511Y-19093258D01*
X40193502Y-19093261D01*
X39987267Y-19189431D01*
X39987265Y-19189432D01*
X39800858Y-19319954D01*
X39639954Y-19480858D01*
X39509432Y-19667265D01*
X39509431Y-19667267D01*
X39482382Y-19725275D01*
X39436209Y-19777714D01*
X39369016Y-19796866D01*
X39302135Y-19776650D01*
X39257618Y-19725275D01*
X39230686Y-19667520D01*
X39230568Y-19667266D01*
X39117273Y-19505462D01*
X39100045Y-19480858D01*
X38939141Y-19319954D01*
X38752734Y-19189432D01*
X38752732Y-19189431D01*
X38546497Y-19093261D01*
X38546488Y-19093258D01*
X38326697Y-19034366D01*
X38326693Y-19034365D01*
X38326692Y-19034365D01*
X38326691Y-19034364D01*
X38326686Y-19034364D01*
X38100002Y-19014532D01*
X38099998Y-19014532D01*
X37873313Y-19034364D01*
X37873302Y-19034366D01*
X37653511Y-19093258D01*
X37653502Y-19093261D01*
X37447267Y-19189431D01*
X37447265Y-19189432D01*
X37260858Y-19319954D01*
X37099954Y-19480858D01*
X36969432Y-19667265D01*
X36969431Y-19667267D01*
X36942382Y-19725275D01*
X36896209Y-19777714D01*
X36829016Y-19796866D01*
X36762135Y-19776650D01*
X36717618Y-19725275D01*
X36690686Y-19667520D01*
X36690568Y-19667266D01*
X36577273Y-19505462D01*
X36560045Y-19480858D01*
X36399141Y-19319954D01*
X36212734Y-19189432D01*
X36212732Y-19189431D01*
X36006497Y-19093261D01*
X36006488Y-19093258D01*
X35786697Y-19034366D01*
X35786693Y-19034365D01*
X35786692Y-19034365D01*
X35786691Y-19034364D01*
X35786686Y-19034364D01*
X35560002Y-19014532D01*
X35559998Y-19014532D01*
X35333313Y-19034364D01*
X35333302Y-19034366D01*
X35113511Y-19093258D01*
X35113502Y-19093261D01*
X34907267Y-19189431D01*
X34907265Y-19189432D01*
X34720858Y-19319954D01*
X34559954Y-19480858D01*
X34429432Y-19667265D01*
X34429431Y-19667267D01*
X34402382Y-19725275D01*
X34356209Y-19777714D01*
X34289016Y-19796866D01*
X34222135Y-19776650D01*
X34177618Y-19725275D01*
X34150686Y-19667520D01*
X34150568Y-19667266D01*
X34037273Y-19505462D01*
X34020045Y-19480858D01*
X33859141Y-19319954D01*
X33672734Y-19189432D01*
X33672732Y-19189431D01*
X33466497Y-19093261D01*
X33466488Y-19093258D01*
X33246697Y-19034366D01*
X33246693Y-19034365D01*
X33246692Y-19034365D01*
X33246691Y-19034364D01*
X33246686Y-19034364D01*
X33020002Y-19014532D01*
X33019998Y-19014532D01*
X32793313Y-19034364D01*
X32793302Y-19034366D01*
X32573511Y-19093258D01*
X32573502Y-19093261D01*
X32367267Y-19189431D01*
X32367265Y-19189432D01*
X32180858Y-19319954D01*
X32019954Y-19480858D01*
X31889434Y-19667263D01*
X31889432Y-19667266D01*
X31862383Y-19725274D01*
X31862106Y-19725867D01*
X31815933Y-19778306D01*
X31748739Y-19797457D01*
X31681858Y-19777241D01*
X31637342Y-19725865D01*
X31610135Y-19667520D01*
X31610134Y-19667518D01*
X31479657Y-19481179D01*
X31318820Y-19320342D01*
X31132482Y-19189865D01*
X30926328Y-19093734D01*
X30729999Y-19041127D01*
X30729999Y-20004313D01*
X30718045Y-19992359D01*
X30605148Y-19934835D01*
X30511481Y-19920000D01*
X30448519Y-19920000D01*
X30354852Y-19934835D01*
X30241955Y-19992359D01*
X30230000Y-20004314D01*
X30230000Y-19041127D01*
X30033671Y-19093734D01*
X29827517Y-19189865D01*
X29641179Y-19320342D01*
X29480342Y-19481179D01*
X29349865Y-19667517D01*
X29253734Y-19873673D01*
X29253730Y-19873682D01*
X29201127Y-20069999D01*
X29201128Y-20070000D01*
X30164314Y-20070000D01*
X30152359Y-20081955D01*
X30094835Y-20194852D01*
X30075014Y-20320000D01*
X30094835Y-20445148D01*
X30152359Y-20558045D01*
X30164314Y-20570000D01*
X29201128Y-20570000D01*
X29253730Y-20766317D01*
X29253734Y-20766326D01*
X29349865Y-20972482D01*
X29480342Y-21158820D01*
X29641179Y-21319657D01*
X29827517Y-21450134D01*
X30033673Y-21546265D01*
X30033682Y-21546269D01*
X30229999Y-21598872D01*
X30230000Y-21598871D01*
X30230000Y-20635686D01*
X30241955Y-20647641D01*
X30354852Y-20705165D01*
X30448519Y-20720000D01*
X30511481Y-20720000D01*
X30605148Y-20705165D01*
X30718045Y-20647641D01*
X30729999Y-20635686D01*
X30730000Y-21598871D01*
X30730000Y-21598872D01*
X30926317Y-21546269D01*
X30926326Y-21546265D01*
X31132482Y-21450134D01*
X31318820Y-21319657D01*
X31479657Y-21158820D01*
X31610132Y-20972484D01*
X31637341Y-20914134D01*
X31683513Y-20861695D01*
X31750707Y-20842542D01*
X31817588Y-20862757D01*
X31862105Y-20914132D01*
X31884088Y-20961275D01*
X31889431Y-20972732D01*
X31889432Y-20972734D01*
X32019954Y-21159141D01*
X32180858Y-21320045D01*
X32266622Y-21380097D01*
X32310247Y-21434673D01*
X32319499Y-21481672D01*
X32319499Y-22805847D01*
X32299814Y-22872886D01*
X32283180Y-22893528D01*
X31767110Y-23409598D01*
X31705787Y-23443083D01*
X31705210Y-23443207D01*
X31550281Y-23476137D01*
X31550276Y-23476139D01*
X31377354Y-23553130D01*
X31377350Y-23553133D01*
X31343734Y-23577556D01*
X31277927Y-23601035D01*
X31209873Y-23585208D01*
X31178700Y-23560209D01*
X31158553Y-23537834D01*
X31085871Y-23457112D01*
X31085870Y-23457111D01*
X30932734Y-23345851D01*
X30932729Y-23345848D01*
X30759807Y-23268857D01*
X30759802Y-23268855D01*
X30614001Y-23237865D01*
X30574646Y-23229500D01*
X30385354Y-23229500D01*
X30352897Y-23236398D01*
X30200197Y-23268855D01*
X30200192Y-23268857D01*
X30027270Y-23345848D01*
X30027265Y-23345851D01*
X29874129Y-23457111D01*
X29747466Y-23597785D01*
X29652821Y-23761715D01*
X29652818Y-23761722D01*
X29594328Y-23941737D01*
X29594327Y-23941738D01*
X29594326Y-23941742D01*
X29594326Y-23941744D01*
X29574540Y-24130000D01*
X29594326Y-24318256D01*
X29594327Y-24318259D01*
X29652818Y-24498277D01*
X29652821Y-24498284D01*
X29747467Y-24662216D01*
X29747657Y-24662427D01*
X29747728Y-24662576D01*
X29751285Y-24667471D01*
X29750389Y-24668121D01*
X29777880Y-24725422D01*
X29779499Y-24745391D01*
X29779500Y-26778326D01*
X29759815Y-26845365D01*
X29726624Y-26879901D01*
X29640863Y-26939951D01*
X29479951Y-27100862D01*
X29349432Y-27287265D01*
X29349431Y-27287267D01*
X29253261Y-27493502D01*
X29253258Y-27493511D01*
X29194366Y-27713302D01*
X29194364Y-27713313D01*
X29174532Y-27939998D01*
X29174532Y-27940001D01*
X29194364Y-28166686D01*
X29194366Y-28166697D01*
X29253258Y-28386488D01*
X29253261Y-28386497D01*
X29349431Y-28592732D01*
X29349432Y-28592734D01*
X29479954Y-28779141D01*
X29640858Y-28940045D01*
X29640861Y-28940047D01*
X29827266Y-29070568D01*
X29885865Y-29097893D01*
X29938305Y-29144065D01*
X29957457Y-29211258D01*
X29937242Y-29278139D01*
X29885867Y-29322657D01*
X29827515Y-29349867D01*
X29641179Y-29480342D01*
X29480342Y-29641179D01*
X29349865Y-29827517D01*
X29253734Y-30033673D01*
X29253730Y-30033682D01*
X29201127Y-30229999D01*
X29201128Y-30230000D01*
X30164314Y-30230000D01*
X30152359Y-30241955D01*
X30094835Y-30354852D01*
X30075014Y-30480000D01*
X30094835Y-30605148D01*
X30152359Y-30718045D01*
X30164314Y-30730000D01*
X29201128Y-30730000D01*
X29253730Y-30926317D01*
X29253734Y-30926326D01*
X29349865Y-31132482D01*
X29480342Y-31318820D01*
X29641179Y-31479657D01*
X29827517Y-31610134D01*
X30033673Y-31706265D01*
X30033682Y-31706269D01*
X30229999Y-31758872D01*
X30230000Y-31758871D01*
X30230000Y-30795686D01*
X30241955Y-30807641D01*
X30354852Y-30865165D01*
X30448519Y-30880000D01*
X30511481Y-30880000D01*
X30605148Y-30865165D01*
X30718045Y-30807641D01*
X30730000Y-30795686D01*
X30730000Y-31758872D01*
X30926317Y-31706269D01*
X30926326Y-31706265D01*
X31132482Y-31610134D01*
X31318820Y-31479657D01*
X31479657Y-31318820D01*
X31610132Y-31132484D01*
X31637341Y-31074134D01*
X31683513Y-31021695D01*
X31750707Y-31002542D01*
X31817588Y-31022757D01*
X31862106Y-31074133D01*
X31889431Y-31132732D01*
X31889432Y-31132734D01*
X32019954Y-31319141D01*
X32180857Y-31480044D01*
X32180860Y-31480046D01*
X32180861Y-31480047D01*
X32266623Y-31540097D01*
X32310248Y-31594673D01*
X32319500Y-31641672D01*
X32319500Y-32918732D01*
X32299815Y-32985771D01*
X32283181Y-33006413D01*
X31699367Y-33590227D01*
X31638044Y-33623712D01*
X31637467Y-33623836D01*
X31482538Y-33656766D01*
X31482533Y-33656768D01*
X31307175Y-33734844D01*
X31237925Y-33744129D01*
X31174648Y-33714501D01*
X31164589Y-33704537D01*
X31137197Y-33674115D01*
X31085871Y-33617112D01*
X31085870Y-33617111D01*
X30932734Y-33505851D01*
X30932729Y-33505848D01*
X30759807Y-33428857D01*
X30759802Y-33428855D01*
X30614001Y-33397865D01*
X30574646Y-33389500D01*
X30385354Y-33389500D01*
X30352897Y-33396398D01*
X30200197Y-33428855D01*
X30200192Y-33428857D01*
X30027270Y-33505848D01*
X30027265Y-33505851D01*
X29874129Y-33617111D01*
X29747466Y-33757785D01*
X29652821Y-33921715D01*
X29652818Y-33921722D01*
X29594327Y-34101740D01*
X29594326Y-34101744D01*
X29574540Y-34290000D01*
X29594326Y-34478256D01*
X29594914Y-34480065D01*
X29652818Y-34658277D01*
X29652821Y-34658284D01*
X29747467Y-34822216D01*
X29747648Y-34822417D01*
X29747657Y-34822427D01*
X29747728Y-34822576D01*
X29751285Y-34827471D01*
X29750389Y-34828121D01*
X29777880Y-34885422D01*
X29779499Y-34905391D01*
X29779500Y-36938326D01*
X29759815Y-37005365D01*
X29726624Y-37039901D01*
X29640863Y-37099951D01*
X29479951Y-37260862D01*
X29349432Y-37447265D01*
X29349431Y-37447267D01*
X29253261Y-37653502D01*
X29253258Y-37653511D01*
X29194366Y-37873302D01*
X29194364Y-37873313D01*
X29174532Y-38099998D01*
X29174532Y-38100001D01*
X29194364Y-38326686D01*
X29194366Y-38326697D01*
X29253258Y-38546488D01*
X29253261Y-38546497D01*
X29349431Y-38752732D01*
X29349432Y-38752734D01*
X29479954Y-38939141D01*
X29640858Y-39100045D01*
X29656381Y-39110914D01*
X29827266Y-39230568D01*
X30033504Y-39326739D01*
X30253308Y-39385635D01*
X30415230Y-39399801D01*
X30479998Y-39405468D01*
X30480000Y-39405468D01*
X30480002Y-39405468D01*
X30536673Y-39400509D01*
X30706692Y-39385635D01*
X30926496Y-39326739D01*
X31132734Y-39230568D01*
X31319139Y-39100047D01*
X31480047Y-38939139D01*
X31610568Y-38752734D01*
X31637618Y-38694724D01*
X31683790Y-38642285D01*
X31750983Y-38623133D01*
X31817865Y-38643348D01*
X31862382Y-38694725D01*
X31889429Y-38752728D01*
X31889432Y-38752734D01*
X32019954Y-38939141D01*
X32180858Y-39100045D01*
X32196381Y-39110914D01*
X32367266Y-39230568D01*
X32573504Y-39326739D01*
X32793308Y-39385635D01*
X32955230Y-39399801D01*
X33019998Y-39405468D01*
X33020000Y-39405468D01*
X33020002Y-39405468D01*
X33076673Y-39400509D01*
X33246692Y-39385635D01*
X33466496Y-39326739D01*
X33672734Y-39230568D01*
X33859139Y-39100047D01*
X34020047Y-38939139D01*
X34150568Y-38752734D01*
X34177618Y-38694724D01*
X34223790Y-38642285D01*
X34290983Y-38623133D01*
X34357865Y-38643348D01*
X34402382Y-38694725D01*
X34429429Y-38752728D01*
X34429432Y-38752734D01*
X34559954Y-38939141D01*
X34720858Y-39100045D01*
X34736381Y-39110914D01*
X34907266Y-39230568D01*
X35113504Y-39326739D01*
X35333308Y-39385635D01*
X35495230Y-39399801D01*
X35559998Y-39405468D01*
X35560000Y-39405468D01*
X35560002Y-39405468D01*
X35616673Y-39400509D01*
X35786692Y-39385635D01*
X36006496Y-39326739D01*
X36212734Y-39230568D01*
X36399139Y-39100047D01*
X36560047Y-38939139D01*
X36690568Y-38752734D01*
X36717618Y-38694724D01*
X36763790Y-38642285D01*
X36830983Y-38623133D01*
X36897865Y-38643348D01*
X36942382Y-38694725D01*
X36969429Y-38752728D01*
X36969432Y-38752734D01*
X37099954Y-38939141D01*
X37260858Y-39100045D01*
X37276381Y-39110914D01*
X37447266Y-39230568D01*
X37653504Y-39326739D01*
X37873308Y-39385635D01*
X38035230Y-39399801D01*
X38099998Y-39405468D01*
X38100000Y-39405468D01*
X38100002Y-39405468D01*
X38156673Y-39400509D01*
X38326692Y-39385635D01*
X38546496Y-39326739D01*
X38752734Y-39230568D01*
X38939139Y-39100047D01*
X39100047Y-38939139D01*
X39230568Y-38752734D01*
X39257618Y-38694724D01*
X39303790Y-38642285D01*
X39370983Y-38623133D01*
X39437865Y-38643348D01*
X39482382Y-38694725D01*
X39509429Y-38752728D01*
X39509432Y-38752734D01*
X39639954Y-38939141D01*
X39800858Y-39100045D01*
X39816381Y-39110914D01*
X39987266Y-39230568D01*
X40193504Y-39326739D01*
X40413308Y-39385635D01*
X40575230Y-39399801D01*
X40639998Y-39405468D01*
X40640000Y-39405468D01*
X40640002Y-39405468D01*
X40696673Y-39400509D01*
X40866692Y-39385635D01*
X41086496Y-39326739D01*
X41292734Y-39230568D01*
X41479139Y-39100047D01*
X41640047Y-38939139D01*
X41770568Y-38752734D01*
X41797618Y-38694724D01*
X41843790Y-38642285D01*
X41910983Y-38623133D01*
X41977865Y-38643348D01*
X42022382Y-38694725D01*
X42049429Y-38752728D01*
X42049432Y-38752734D01*
X42179954Y-38939141D01*
X42340858Y-39100045D01*
X42356381Y-39110914D01*
X42527266Y-39230568D01*
X42733504Y-39326739D01*
X42953308Y-39385635D01*
X43115230Y-39399801D01*
X43179998Y-39405468D01*
X43180000Y-39405468D01*
X43180002Y-39405468D01*
X43236673Y-39400509D01*
X43406692Y-39385635D01*
X43626496Y-39326739D01*
X43832734Y-39230568D01*
X44019139Y-39100047D01*
X44180047Y-38939139D01*
X44310568Y-38752734D01*
X44337618Y-38694724D01*
X44383790Y-38642285D01*
X44450983Y-38623133D01*
X44517865Y-38643348D01*
X44562382Y-38694725D01*
X44589429Y-38752728D01*
X44589432Y-38752734D01*
X44719954Y-38939141D01*
X44880858Y-39100045D01*
X44896381Y-39110914D01*
X45067266Y-39230568D01*
X45273504Y-39326739D01*
X45493308Y-39385635D01*
X45655230Y-39399801D01*
X45719998Y-39405468D01*
X45720000Y-39405468D01*
X45720002Y-39405468D01*
X45776673Y-39400509D01*
X45946692Y-39385635D01*
X46166496Y-39326739D01*
X46372734Y-39230568D01*
X46559139Y-39100047D01*
X46720047Y-38939139D01*
X46850568Y-38752734D01*
X46877618Y-38694724D01*
X46923790Y-38642285D01*
X46990983Y-38623133D01*
X47057865Y-38643348D01*
X47102382Y-38694725D01*
X47129429Y-38752728D01*
X47129432Y-38752734D01*
X47259954Y-38939141D01*
X47420858Y-39100045D01*
X47436381Y-39110914D01*
X47607266Y-39230568D01*
X47813504Y-39326739D01*
X48033308Y-39385635D01*
X48195230Y-39399801D01*
X48259998Y-39405468D01*
X48260000Y-39405468D01*
X48260002Y-39405468D01*
X48316673Y-39400509D01*
X48486692Y-39385635D01*
X48706496Y-39326739D01*
X48912734Y-39230568D01*
X49099139Y-39100047D01*
X49260047Y-38939139D01*
X49390568Y-38752734D01*
X49486739Y-38546496D01*
X49545635Y-38326692D01*
X49565468Y-38100000D01*
X49545635Y-37873308D01*
X49545633Y-37873303D01*
X49545180Y-37868117D01*
X49558946Y-37799617D01*
X49581024Y-37769631D01*
X50009056Y-37341599D01*
X50011748Y-37339065D01*
X50058183Y-37297929D01*
X50093436Y-37246855D01*
X50095613Y-37243896D01*
X50133878Y-37195057D01*
X50138037Y-37185815D01*
X50149062Y-37166268D01*
X50154818Y-37157930D01*
X50176820Y-37099912D01*
X50178235Y-37096495D01*
X50203694Y-37039932D01*
X50205520Y-37029965D01*
X50211548Y-37008340D01*
X50215140Y-36998872D01*
X50222221Y-36940554D01*
X50222615Y-36937309D01*
X50223179Y-36933605D01*
X50228656Y-36903715D01*
X50234357Y-36872606D01*
X50234131Y-36868876D01*
X50230613Y-36810707D01*
X50230500Y-36806963D01*
X50230500Y-31794862D01*
X50250185Y-31727823D01*
X50302989Y-31682068D01*
X50372147Y-31672124D01*
X50386594Y-31675087D01*
X50573393Y-31725140D01*
X50573400Y-31725141D01*
X50799998Y-31744966D01*
X50800002Y-31744966D01*
X51026599Y-31725141D01*
X51026610Y-31725139D01*
X51246315Y-31666269D01*
X51248073Y-31665630D01*
X51248900Y-31665577D01*
X51251555Y-31664866D01*
X51251697Y-31665399D01*
X51317802Y-31661189D01*
X51378862Y-31695151D01*
X51411868Y-31756733D01*
X51414500Y-31782146D01*
X51414500Y-33674608D01*
X51394815Y-33741647D01*
X51382656Y-33757574D01*
X51382468Y-33757782D01*
X51382464Y-33757787D01*
X51287821Y-33921715D01*
X51287818Y-33921722D01*
X51229327Y-34101740D01*
X51229326Y-34101744D01*
X51209540Y-34290000D01*
X51229326Y-34478256D01*
X51229914Y-34480065D01*
X51287818Y-34658277D01*
X51287821Y-34658284D01*
X51382466Y-34822215D01*
X51382648Y-34822417D01*
X51382716Y-34822559D01*
X51386285Y-34827471D01*
X51385386Y-34828123D01*
X51412879Y-34885408D01*
X51414500Y-34905391D01*
X51414500Y-36876951D01*
X51414387Y-36880696D01*
X51410642Y-36942603D01*
X51410642Y-36942605D01*
X51421821Y-37003612D01*
X51422384Y-37007313D01*
X51429859Y-37068870D01*
X51429860Y-37068874D01*
X51433451Y-37078343D01*
X51439474Y-37099946D01*
X51441304Y-37109930D01*
X51466759Y-37166490D01*
X51468189Y-37169941D01*
X51490182Y-37227930D01*
X51490870Y-37228926D01*
X51495936Y-37236266D01*
X51506961Y-37255813D01*
X51511120Y-37265055D01*
X51511124Y-37265060D01*
X51527926Y-37286506D01*
X51536875Y-37297929D01*
X51549371Y-37313878D01*
X51551591Y-37316896D01*
X51586812Y-37367924D01*
X51586816Y-37367928D01*
X51586817Y-37367929D01*
X51633250Y-37409064D01*
X51635941Y-37411598D01*
X51824270Y-37599927D01*
X51993972Y-37769629D01*
X52027457Y-37830952D01*
X52029819Y-37868117D01*
X52009532Y-38099998D01*
X52009532Y-38100001D01*
X52029364Y-38326686D01*
X52029366Y-38326697D01*
X52088258Y-38546488D01*
X52088261Y-38546497D01*
X52184431Y-38752732D01*
X52184432Y-38752734D01*
X52314954Y-38939141D01*
X52475858Y-39100045D01*
X52491381Y-39110914D01*
X52662266Y-39230568D01*
X52868504Y-39326739D01*
X53088308Y-39385635D01*
X53250230Y-39399801D01*
X53314998Y-39405468D01*
X53315000Y-39405468D01*
X53315002Y-39405468D01*
X53371673Y-39400509D01*
X53541692Y-39385635D01*
X53761496Y-39326739D01*
X53967734Y-39230568D01*
X54154139Y-39100047D01*
X54315047Y-38939139D01*
X54445568Y-38752734D01*
X54472618Y-38694724D01*
X54518790Y-38642285D01*
X54585983Y-38623133D01*
X54652865Y-38643348D01*
X54697382Y-38694725D01*
X54724429Y-38752728D01*
X54724432Y-38752734D01*
X54854954Y-38939141D01*
X55015858Y-39100045D01*
X55031381Y-39110914D01*
X55202266Y-39230568D01*
X55408504Y-39326739D01*
X55628308Y-39385635D01*
X55790230Y-39399801D01*
X55854998Y-39405468D01*
X55855000Y-39405468D01*
X55855002Y-39405468D01*
X55911672Y-39400509D01*
X56081692Y-39385635D01*
X56301496Y-39326739D01*
X56507734Y-39230568D01*
X56694139Y-39100047D01*
X56855047Y-38939139D01*
X56985568Y-38752734D01*
X57012618Y-38694724D01*
X57058790Y-38642285D01*
X57125983Y-38623133D01*
X57192865Y-38643348D01*
X57237382Y-38694725D01*
X57264429Y-38752728D01*
X57264432Y-38752734D01*
X57394954Y-38939141D01*
X57555858Y-39100045D01*
X57571381Y-39110914D01*
X57742266Y-39230568D01*
X57948504Y-39326739D01*
X58168308Y-39385635D01*
X58330230Y-39399801D01*
X58394998Y-39405468D01*
X58395000Y-39405468D01*
X58395002Y-39405468D01*
X58451673Y-39400509D01*
X58621692Y-39385635D01*
X58841496Y-39326739D01*
X59047734Y-39230568D01*
X59234139Y-39100047D01*
X59395047Y-38939139D01*
X59525568Y-38752734D01*
X59552618Y-38694724D01*
X59598790Y-38642285D01*
X59665983Y-38623133D01*
X59732865Y-38643348D01*
X59777382Y-38694725D01*
X59804429Y-38752728D01*
X59804432Y-38752734D01*
X59934954Y-38939141D01*
X60080381Y-39084568D01*
X60113866Y-39145891D01*
X60108882Y-39215583D01*
X60067010Y-39271516D01*
X60010024Y-39293938D01*
X60010068Y-39294124D01*
X60008777Y-39294428D01*
X60005959Y-39295538D01*
X60002519Y-39295907D01*
X59867671Y-39346202D01*
X59867664Y-39346206D01*
X59752455Y-39432452D01*
X59752452Y-39432455D01*
X59666206Y-39547664D01*
X59666202Y-39547671D01*
X59615908Y-39682517D01*
X59609501Y-39742116D01*
X59609500Y-39742135D01*
X59609500Y-41537870D01*
X59609501Y-41537876D01*
X59615908Y-41597483D01*
X59669303Y-41740641D01*
X59666208Y-41741795D01*
X59677637Y-41794362D01*
X59653211Y-41859823D01*
X59597272Y-41901687D01*
X59553954Y-41909500D01*
X16511741Y-41909500D01*
X16508264Y-41909402D01*
X16394508Y-41903013D01*
X16222330Y-41892599D01*
X16215683Y-41891835D01*
X16079655Y-41868722D01*
X15930780Y-41841440D01*
X15924789Y-41840032D01*
X15788604Y-41800798D01*
X15787322Y-41800413D01*
X15647183Y-41756744D01*
X15641899Y-41754831D01*
X15509426Y-41699959D01*
X15507707Y-41699216D01*
X15375398Y-41639668D01*
X15370851Y-41637393D01*
X15244613Y-41567624D01*
X15242528Y-41566419D01*
X15119064Y-41491781D01*
X15115260Y-41489287D01*
X14997272Y-41405571D01*
X14994912Y-41403811D01*
X14881666Y-41315088D01*
X14878589Y-41312512D01*
X14770568Y-41215980D01*
X14768041Y-41213590D01*
X14666408Y-41111957D01*
X14664018Y-41109430D01*
X14567486Y-41001409D01*
X14564910Y-40998332D01*
X14550874Y-40980416D01*
X14476176Y-40885072D01*
X14474427Y-40882726D01*
X14390711Y-40764738D01*
X14388217Y-40760934D01*
X14340141Y-40681408D01*
X14313568Y-40637451D01*
X14312374Y-40635385D01*
X14242605Y-40509147D01*
X14240330Y-40504600D01*
X14180754Y-40372227D01*
X14180058Y-40370617D01*
X14125164Y-40238092D01*
X14123259Y-40232830D01*
X14079569Y-40092624D01*
X14079200Y-40091394D01*
X14058677Y-40020156D01*
X14039963Y-39955198D01*
X14038561Y-39949232D01*
X14011288Y-39800416D01*
X13988161Y-39664299D01*
X13987401Y-39657691D01*
X13976989Y-39485549D01*
X13972317Y-39402360D01*
X13970598Y-39371735D01*
X13970500Y-39368259D01*
X13970500Y-39034769D01*
X13990185Y-38967730D01*
X14042989Y-38921975D01*
X14112147Y-38912031D01*
X14175703Y-38941056D01*
X14196073Y-38963644D01*
X14201505Y-38971401D01*
X14368599Y-39138495D01*
X14379162Y-39145891D01*
X14562165Y-39274032D01*
X14562167Y-39274033D01*
X14562170Y-39274035D01*
X14776337Y-39373903D01*
X15004592Y-39435063D01*
X15192918Y-39451539D01*
X15239999Y-39455659D01*
X15240000Y-39455659D01*
X15240001Y-39455659D01*
X15279234Y-39452226D01*
X15475408Y-39435063D01*
X15703663Y-39373903D01*
X15917830Y-39274035D01*
X16111401Y-39138495D01*
X16278495Y-38971401D01*
X16414035Y-38777830D01*
X16513903Y-38563663D01*
X16575063Y-38335408D01*
X16595659Y-38100000D01*
X16575063Y-37864592D01*
X16513903Y-37636337D01*
X16414035Y-37422171D01*
X16406645Y-37411616D01*
X16278494Y-37228597D01*
X16111402Y-37061506D01*
X16111396Y-37061501D01*
X15925842Y-36931575D01*
X15882217Y-36876998D01*
X15875023Y-36807500D01*
X15906546Y-36745145D01*
X15925842Y-36728425D01*
X15949025Y-36712192D01*
X16111401Y-36598495D01*
X16278495Y-36431401D01*
X16414035Y-36237830D01*
X16513903Y-36023663D01*
X16575063Y-35795408D01*
X16595659Y-35560000D01*
X16575063Y-35324592D01*
X16513903Y-35096337D01*
X16414035Y-34882171D01*
X16376191Y-34828123D01*
X16278494Y-34688597D01*
X16111402Y-34521506D01*
X16111396Y-34521501D01*
X15925842Y-34391575D01*
X15882217Y-34336998D01*
X15875023Y-34267500D01*
X15906546Y-34205145D01*
X15925842Y-34188425D01*
X15969843Y-34157615D01*
X16111401Y-34058495D01*
X16278495Y-33891401D01*
X16414035Y-33697830D01*
X16513903Y-33483663D01*
X16575063Y-33255408D01*
X16595659Y-33020000D01*
X16575063Y-32784592D01*
X16513903Y-32556337D01*
X16414035Y-32342171D01*
X16408425Y-32334158D01*
X16278494Y-32148597D01*
X16111402Y-31981506D01*
X16111396Y-31981501D01*
X15925842Y-31851575D01*
X15882217Y-31796998D01*
X15875023Y-31727500D01*
X15906546Y-31665145D01*
X15925842Y-31648425D01*
X15980527Y-31610134D01*
X16111401Y-31518495D01*
X16278495Y-31351401D01*
X16414035Y-31157830D01*
X16513903Y-30943663D01*
X16575063Y-30715408D01*
X16595659Y-30480000D01*
X16575063Y-30244592D01*
X16513903Y-30016337D01*
X16414035Y-29802171D01*
X16339235Y-29695344D01*
X16278494Y-29608597D01*
X16111402Y-29441506D01*
X16111396Y-29441501D01*
X15925842Y-29311575D01*
X15882217Y-29256998D01*
X15875023Y-29187500D01*
X15906546Y-29125145D01*
X15925842Y-29108425D01*
X15989364Y-29063946D01*
X16111401Y-28978495D01*
X16278495Y-28811401D01*
X16414035Y-28617830D01*
X16513903Y-28403663D01*
X16575063Y-28175408D01*
X16595659Y-27940000D01*
X16575063Y-27704592D01*
X16513903Y-27476337D01*
X16414035Y-27262171D01*
X16320566Y-27128682D01*
X16278494Y-27068597D01*
X16111402Y-26901506D01*
X16111396Y-26901501D01*
X15925842Y-26771575D01*
X15882217Y-26716998D01*
X15875023Y-26647500D01*
X15906546Y-26585145D01*
X15925842Y-26568425D01*
X16030419Y-26495199D01*
X16111401Y-26438495D01*
X16278495Y-26271401D01*
X16414035Y-26077830D01*
X16513903Y-25863663D01*
X16575063Y-25635408D01*
X16595659Y-25400000D01*
X16575063Y-25164592D01*
X16515140Y-24940952D01*
X16513905Y-24936344D01*
X16513904Y-24936343D01*
X16513903Y-24936337D01*
X16414035Y-24722171D01*
X16372307Y-24662576D01*
X16278494Y-24528597D01*
X16111402Y-24361506D01*
X16111396Y-24361501D01*
X15925842Y-24231575D01*
X15882217Y-24176998D01*
X15875023Y-24107500D01*
X15906546Y-24045145D01*
X15925842Y-24028425D01*
X16046777Y-23943745D01*
X16111401Y-23898495D01*
X16278495Y-23731401D01*
X16414035Y-23537830D01*
X16513903Y-23323663D01*
X16575063Y-23095408D01*
X16595659Y-22860000D01*
X16575063Y-22624592D01*
X16513903Y-22396337D01*
X16414035Y-22182171D01*
X16397738Y-22158897D01*
X16278496Y-21988600D01*
X16240052Y-21950156D01*
X16156567Y-21866671D01*
X16123084Y-21805351D01*
X16128068Y-21735659D01*
X16169939Y-21679725D01*
X16200915Y-21662810D01*
X16332331Y-21613796D01*
X16447546Y-21527546D01*
X16533796Y-21412331D01*
X16584091Y-21277483D01*
X16590500Y-21217873D01*
X16590499Y-19422128D01*
X16584091Y-19362517D01*
X16574894Y-19337859D01*
X16533797Y-19227671D01*
X16533793Y-19227664D01*
X16447547Y-19112455D01*
X16447544Y-19112452D01*
X16332335Y-19026206D01*
X16332328Y-19026202D01*
X16197482Y-18975908D01*
X16197483Y-18975908D01*
X16137883Y-18969501D01*
X16137881Y-18969500D01*
X16137873Y-18969500D01*
X16137864Y-18969500D01*
X14342129Y-18969500D01*
X14342123Y-18969501D01*
X14282515Y-18975909D01*
X14145987Y-19026830D01*
X14076296Y-19031814D01*
X14014973Y-18998328D01*
X13981489Y-18937005D01*
X13978881Y-18903168D01*
X13987401Y-18762304D01*
X13988160Y-18755704D01*
X14011281Y-18619623D01*
X14038562Y-18470758D01*
X14039960Y-18464810D01*
X14079225Y-18328518D01*
X14079552Y-18327428D01*
X14123264Y-18187155D01*
X14125159Y-18181921D01*
X14180080Y-18049330D01*
X14180732Y-18047820D01*
X14240343Y-17915370D01*
X14242599Y-17910861D01*
X14312393Y-17784579D01*
X14313542Y-17782591D01*
X14388221Y-17659057D01*
X14390701Y-17655274D01*
X14474461Y-17537226D01*
X14476145Y-17534967D01*
X14564932Y-17421638D01*
X14567472Y-17418605D01*
X14664052Y-17310531D01*
X14666373Y-17308077D01*
X14768077Y-17206373D01*
X14770531Y-17204052D01*
X14878605Y-17107472D01*
X14881638Y-17104932D01*
X14994967Y-17016145D01*
X14997226Y-17014461D01*
X15115274Y-16930701D01*
X15119057Y-16928221D01*
X15242591Y-16853542D01*
X15244579Y-16852393D01*
X15370861Y-16782599D01*
X15375370Y-16780343D01*
X15507820Y-16720732D01*
X15509330Y-16720080D01*
X15641921Y-16665159D01*
X15647155Y-16663264D01*
X15787428Y-16619552D01*
X15788518Y-16619225D01*
X15924810Y-16579960D01*
X15930758Y-16578562D01*
X16079626Y-16551281D01*
X16215704Y-16528160D01*
X16222304Y-16527401D01*
X16394288Y-16516998D01*
X16485501Y-16511875D01*
X16508264Y-16510598D01*
X16511740Y-16510500D01*
X64633954Y-16510500D01*
X64700993Y-16530185D01*
G37*
%TD.AperFunction*%
%TA.AperFunction,Conductor*%
G36*
X79940993Y-16530185D02*
G01*
X79986748Y-16582989D01*
X79996692Y-16652147D01*
X79987820Y-16678806D01*
X79989303Y-16679359D01*
X79935908Y-16822517D01*
X79929501Y-16882116D01*
X79929500Y-16882135D01*
X79929500Y-18677870D01*
X79929501Y-18677876D01*
X79935908Y-18737483D01*
X79986202Y-18872328D01*
X79986206Y-18872335D01*
X80072452Y-18987544D01*
X80072455Y-18987547D01*
X80187664Y-19073793D01*
X80187671Y-19073797D01*
X80319081Y-19122810D01*
X80375015Y-19164681D01*
X80399432Y-19230145D01*
X80384580Y-19298418D01*
X80363430Y-19326673D01*
X80241503Y-19448600D01*
X80105965Y-19642169D01*
X80105964Y-19642171D01*
X80006098Y-19856335D01*
X80006094Y-19856344D01*
X79944938Y-20084586D01*
X79944936Y-20084596D01*
X79924341Y-20319999D01*
X79924341Y-20320000D01*
X79944936Y-20555403D01*
X79944938Y-20555413D01*
X80006094Y-20783655D01*
X80006096Y-20783659D01*
X80006097Y-20783663D01*
X80067213Y-20914726D01*
X80105965Y-20997830D01*
X80105967Y-20997834D01*
X80180761Y-21104650D01*
X80218913Y-21159137D01*
X80241501Y-21191395D01*
X80241506Y-21191402D01*
X80408597Y-21358493D01*
X80408603Y-21358498D01*
X80594158Y-21488425D01*
X80637783Y-21543002D01*
X80644977Y-21612500D01*
X80613454Y-21674855D01*
X80594158Y-21691575D01*
X80408597Y-21821505D01*
X80241505Y-21988597D01*
X80105965Y-22182169D01*
X80105964Y-22182171D01*
X80006098Y-22396335D01*
X80006094Y-22396344D01*
X79944938Y-22624586D01*
X79944936Y-22624596D01*
X79924341Y-22859999D01*
X79924341Y-22860000D01*
X79944936Y-23095403D01*
X79944938Y-23095413D01*
X80006094Y-23323655D01*
X80006096Y-23323659D01*
X80006097Y-23323663D01*
X80100240Y-23525553D01*
X80105965Y-23537830D01*
X80105967Y-23537834D01*
X80241501Y-23731395D01*
X80241506Y-23731402D01*
X80408597Y-23898493D01*
X80408603Y-23898498D01*
X80594158Y-24028425D01*
X80637783Y-24083002D01*
X80644977Y-24152500D01*
X80613454Y-24214855D01*
X80594158Y-24231575D01*
X80408597Y-24361505D01*
X80241505Y-24528597D01*
X80105965Y-24722169D01*
X80105964Y-24722171D01*
X80006098Y-24936335D01*
X80006094Y-24936344D01*
X79944938Y-25164586D01*
X79944936Y-25164596D01*
X79924341Y-25399999D01*
X79924341Y-25400000D01*
X79944936Y-25635403D01*
X79944938Y-25635413D01*
X80006094Y-25863655D01*
X80006096Y-25863659D01*
X80006097Y-25863663D01*
X80083583Y-26029831D01*
X80105965Y-26077830D01*
X80105967Y-26077834D01*
X80241501Y-26271395D01*
X80241506Y-26271402D01*
X80408597Y-26438493D01*
X80408603Y-26438498D01*
X80594158Y-26568425D01*
X80637783Y-26623002D01*
X80644977Y-26692500D01*
X80613454Y-26754855D01*
X80594158Y-26771575D01*
X80408597Y-26901505D01*
X80241505Y-27068597D01*
X80105965Y-27262169D01*
X80105964Y-27262171D01*
X80006098Y-27476335D01*
X80006094Y-27476344D01*
X79944938Y-27704586D01*
X79944936Y-27704596D01*
X79924341Y-27939999D01*
X79924341Y-27940000D01*
X79944936Y-28175403D01*
X79944938Y-28175413D01*
X80006094Y-28403655D01*
X80006096Y-28403659D01*
X80006097Y-28403663D01*
X80067213Y-28534726D01*
X80105965Y-28617830D01*
X80105967Y-28617834D01*
X80241501Y-28811395D01*
X80241506Y-28811402D01*
X80408597Y-28978493D01*
X80408603Y-28978498D01*
X80594158Y-29108425D01*
X80637783Y-29163002D01*
X80644977Y-29232500D01*
X80613454Y-29294855D01*
X80594158Y-29311575D01*
X80408597Y-29441505D01*
X80241505Y-29608597D01*
X80105965Y-29802169D01*
X80105964Y-29802171D01*
X80006098Y-30016335D01*
X80006094Y-30016344D01*
X79944938Y-30244586D01*
X79944936Y-30244596D01*
X79924341Y-30479999D01*
X79924341Y-30480000D01*
X79944936Y-30715403D01*
X79944938Y-30715413D01*
X80006094Y-30943655D01*
X80006096Y-30943659D01*
X80006097Y-30943663D01*
X80075491Y-31092478D01*
X80105965Y-31157830D01*
X80105967Y-31157834D01*
X80214281Y-31312521D01*
X80218913Y-31319137D01*
X80241501Y-31351395D01*
X80241506Y-31351402D01*
X80408597Y-31518493D01*
X80408603Y-31518498D01*
X80594158Y-31648425D01*
X80637783Y-31703002D01*
X80644977Y-31772500D01*
X80613454Y-31834855D01*
X80594158Y-31851575D01*
X80408597Y-31981505D01*
X80241505Y-32148597D01*
X80111575Y-32334158D01*
X80056998Y-32377783D01*
X79987500Y-32384977D01*
X79925145Y-32353454D01*
X79908425Y-32334158D01*
X79778494Y-32148597D01*
X79611402Y-31981506D01*
X79611395Y-31981501D01*
X79417834Y-31845967D01*
X79417830Y-31845965D01*
X79417828Y-31845964D01*
X79203663Y-31746097D01*
X79203659Y-31746096D01*
X79203655Y-31746094D01*
X78975413Y-31684938D01*
X78975403Y-31684936D01*
X78740001Y-31664341D01*
X78739999Y-31664341D01*
X78504596Y-31684936D01*
X78504586Y-31684938D01*
X78276344Y-31746094D01*
X78276335Y-31746098D01*
X78062171Y-31845964D01*
X78062169Y-31845965D01*
X77868597Y-31981505D01*
X77701505Y-32148597D01*
X77565965Y-32342169D01*
X77565964Y-32342171D01*
X77466098Y-32556335D01*
X77466094Y-32556344D01*
X77404938Y-32784586D01*
X77404936Y-32784596D01*
X77384341Y-33019999D01*
X77384341Y-33020000D01*
X77404936Y-33255403D01*
X77404938Y-33255413D01*
X77466094Y-33483655D01*
X77466096Y-33483659D01*
X77466097Y-33483663D01*
X77565964Y-33697830D01*
X77565965Y-33697830D01*
X77565967Y-33697834D01*
X77701501Y-33891395D01*
X77701506Y-33891402D01*
X77823430Y-34013326D01*
X77856915Y-34074649D01*
X77851931Y-34144341D01*
X77810059Y-34200274D01*
X77779083Y-34217189D01*
X77647669Y-34266203D01*
X77647664Y-34266206D01*
X77532455Y-34352452D01*
X77532452Y-34352455D01*
X77446206Y-34467664D01*
X77446202Y-34467671D01*
X77395908Y-34602517D01*
X77389501Y-34662116D01*
X77389500Y-34662135D01*
X77389500Y-36457870D01*
X77389501Y-36457876D01*
X77395908Y-36517483D01*
X77446202Y-36652328D01*
X77446206Y-36652335D01*
X77532452Y-36767544D01*
X77532455Y-36767547D01*
X77647664Y-36853793D01*
X77647671Y-36853797D01*
X77782517Y-36904091D01*
X77782516Y-36904091D01*
X77789444Y-36904835D01*
X77842127Y-36910500D01*
X79637872Y-36910499D01*
X79697483Y-36904091D01*
X79832331Y-36853796D01*
X79947546Y-36767546D01*
X80033796Y-36652331D01*
X80082810Y-36520916D01*
X80124681Y-36464984D01*
X80190145Y-36440566D01*
X80258418Y-36455417D01*
X80286673Y-36476569D01*
X80408597Y-36598493D01*
X80408603Y-36598498D01*
X80433767Y-36616118D01*
X80592431Y-36727216D01*
X80594594Y-36728730D01*
X80638219Y-36783307D01*
X80645413Y-36852805D01*
X80613890Y-36915160D01*
X80594595Y-36931880D01*
X80408922Y-37061890D01*
X80408920Y-37061891D01*
X80241891Y-37228920D01*
X80241886Y-37228926D01*
X80106400Y-37422420D01*
X80106399Y-37422422D01*
X80006570Y-37636507D01*
X80006567Y-37636513D01*
X79949364Y-37849999D01*
X79949364Y-37850000D01*
X80846314Y-37850000D01*
X80820507Y-37890156D01*
X80780000Y-38028111D01*
X80780000Y-38171889D01*
X80820507Y-38309844D01*
X80846314Y-38350000D01*
X79949364Y-38350000D01*
X80006567Y-38563486D01*
X80006570Y-38563492D01*
X80106399Y-38777578D01*
X80241894Y-38971082D01*
X80408917Y-39138105D01*
X80594595Y-39268119D01*
X80638219Y-39322696D01*
X80645412Y-39392195D01*
X80613890Y-39454549D01*
X80594595Y-39471269D01*
X80408594Y-39601508D01*
X80241506Y-39768596D01*
X80105965Y-39962170D01*
X80105962Y-39962176D01*
X80061324Y-40057904D01*
X80015152Y-40110344D01*
X79948942Y-40129500D01*
X78286520Y-40129500D01*
X78219481Y-40109815D01*
X78198926Y-40093269D01*
X78198423Y-40092766D01*
X78164879Y-40031479D01*
X78169794Y-39961783D01*
X78198336Y-39917320D01*
X78300472Y-39815185D01*
X78388478Y-39669606D01*
X78439086Y-39507196D01*
X78445500Y-39436616D01*
X78445500Y-38923384D01*
X78439086Y-38852804D01*
X78388478Y-38690394D01*
X78300472Y-38544815D01*
X78300470Y-38544813D01*
X78300469Y-38544811D01*
X78180188Y-38424530D01*
X78034606Y-38336522D01*
X78003060Y-38326692D01*
X77872196Y-38285914D01*
X77872194Y-38285913D01*
X77872192Y-38285913D01*
X77822778Y-38281423D01*
X77801616Y-38279500D01*
X77138384Y-38279500D01*
X77119145Y-38281248D01*
X77067807Y-38285913D01*
X76905393Y-38336522D01*
X76759811Y-38424530D01*
X76759810Y-38424531D01*
X76741161Y-38443181D01*
X76679838Y-38476666D01*
X76653480Y-38479500D01*
X76413037Y-38479500D01*
X76409293Y-38479387D01*
X76347397Y-38475643D01*
X76347390Y-38475643D01*
X76286402Y-38486819D01*
X76282701Y-38487382D01*
X76221125Y-38494860D01*
X76211642Y-38498456D01*
X76190038Y-38504478D01*
X76188535Y-38504754D01*
X76180065Y-38506306D01*
X76123522Y-38531754D01*
X76120063Y-38533187D01*
X76089405Y-38544815D01*
X76062070Y-38555182D01*
X76062068Y-38555183D01*
X76062066Y-38555184D01*
X76062061Y-38555186D01*
X76053722Y-38560942D01*
X76034190Y-38571959D01*
X76024943Y-38576121D01*
X76021763Y-38578613D01*
X76019008Y-38579709D01*
X76018530Y-38579999D01*
X76018481Y-38579919D01*
X75956850Y-38604460D01*
X75945293Y-38605000D01*
X74590001Y-38605000D01*
X74590001Y-38611582D01*
X74596408Y-38682102D01*
X74596409Y-38682107D01*
X74646981Y-38844396D01*
X74734927Y-38989877D01*
X74837015Y-39091965D01*
X74870500Y-39153288D01*
X74865516Y-39222980D01*
X74837015Y-39267327D01*
X74734531Y-39369810D01*
X74734530Y-39369811D01*
X74646522Y-39515393D01*
X74595913Y-39677807D01*
X74589500Y-39748386D01*
X74589500Y-40261613D01*
X74595913Y-40332192D01*
X74646522Y-40494606D01*
X74734530Y-40640188D01*
X74854811Y-40760469D01*
X74854813Y-40760470D01*
X74854815Y-40760472D01*
X75000394Y-40848478D01*
X75162804Y-40899086D01*
X75233384Y-40905500D01*
X75233387Y-40905500D01*
X75896613Y-40905500D01*
X75896616Y-40905500D01*
X75967196Y-40899086D01*
X76129606Y-40848478D01*
X76275185Y-40760472D01*
X76275189Y-40760467D01*
X76282819Y-40752839D01*
X76344142Y-40719354D01*
X76413834Y-40724338D01*
X76469767Y-40766210D01*
X76494184Y-40831674D01*
X76494500Y-40840520D01*
X76494500Y-41086613D01*
X76500913Y-41157192D01*
X76500913Y-41157194D01*
X76500914Y-41157196D01*
X76535220Y-41267289D01*
X76551522Y-41319606D01*
X76639530Y-41465188D01*
X76759811Y-41585469D01*
X76759813Y-41585470D01*
X76759815Y-41585472D01*
X76905394Y-41673478D01*
X76905395Y-41673478D01*
X76911813Y-41677358D01*
X76910788Y-41679052D01*
X76956110Y-41717892D01*
X76976160Y-41784823D01*
X76956842Y-41851969D01*
X76904289Y-41898011D01*
X76852162Y-41909500D01*
X64434770Y-41909500D01*
X64367731Y-41889815D01*
X64321976Y-41837011D01*
X64312032Y-41767853D01*
X64341057Y-41704297D01*
X64363646Y-41683926D01*
X64371393Y-41678501D01*
X64371395Y-41678499D01*
X64371401Y-41678495D01*
X64538495Y-41511401D01*
X64674035Y-41317830D01*
X64773903Y-41103663D01*
X64835063Y-40875408D01*
X64855659Y-40640000D01*
X64835063Y-40404592D01*
X64773903Y-40176337D01*
X64674035Y-39962171D01*
X64674034Y-39962169D01*
X64538494Y-39768597D01*
X64371402Y-39601506D01*
X64371395Y-39601501D01*
X64177834Y-39465967D01*
X64177824Y-39465962D01*
X64140449Y-39448533D01*
X64088010Y-39402360D01*
X64068859Y-39335167D01*
X64089076Y-39268286D01*
X64124246Y-39235026D01*
X64123299Y-39233673D01*
X64127732Y-39230568D01*
X64127734Y-39230568D01*
X64314139Y-39100047D01*
X64475047Y-38939139D01*
X64605568Y-38752734D01*
X64632618Y-38694724D01*
X64678790Y-38642285D01*
X64745983Y-38623133D01*
X64812865Y-38643348D01*
X64857382Y-38694725D01*
X64884429Y-38752728D01*
X64884432Y-38752734D01*
X65014954Y-38939141D01*
X65175858Y-39100045D01*
X65191381Y-39110914D01*
X65362266Y-39230568D01*
X65568504Y-39326739D01*
X65788308Y-39385635D01*
X65950230Y-39399801D01*
X66014998Y-39405468D01*
X66015000Y-39405468D01*
X66015002Y-39405468D01*
X66071673Y-39400509D01*
X66241692Y-39385635D01*
X66461496Y-39326739D01*
X66667734Y-39230568D01*
X66854139Y-39100047D01*
X67015047Y-38939139D01*
X67145568Y-38752734D01*
X67172618Y-38694724D01*
X67218790Y-38642285D01*
X67285983Y-38623133D01*
X67352865Y-38643348D01*
X67397382Y-38694725D01*
X67424429Y-38752728D01*
X67424432Y-38752734D01*
X67554954Y-38939141D01*
X67715858Y-39100045D01*
X67731381Y-39110914D01*
X67902266Y-39230568D01*
X68108504Y-39326739D01*
X68328308Y-39385635D01*
X68490230Y-39399801D01*
X68554998Y-39405468D01*
X68555000Y-39405468D01*
X68555002Y-39405468D01*
X68611672Y-39400509D01*
X68781692Y-39385635D01*
X69001496Y-39326739D01*
X69207734Y-39230568D01*
X69394139Y-39100047D01*
X69555047Y-38939139D01*
X69685568Y-38752734D01*
X69712618Y-38694724D01*
X69758790Y-38642285D01*
X69825983Y-38623133D01*
X69892865Y-38643348D01*
X69937382Y-38694725D01*
X69964429Y-38752728D01*
X69964432Y-38752734D01*
X70094954Y-38939141D01*
X70255858Y-39100045D01*
X70271381Y-39110914D01*
X70442266Y-39230568D01*
X70648504Y-39326739D01*
X70868308Y-39385635D01*
X71030230Y-39399801D01*
X71094998Y-39405468D01*
X71095000Y-39405468D01*
X71095002Y-39405468D01*
X71151673Y-39400509D01*
X71321692Y-39385635D01*
X71541496Y-39326739D01*
X71747734Y-39230568D01*
X71934139Y-39100047D01*
X72095047Y-38939139D01*
X72225568Y-38752734D01*
X72321739Y-38546496D01*
X72380635Y-38326692D01*
X72400031Y-38105000D01*
X74590000Y-38105000D01*
X75315000Y-38105000D01*
X75315000Y-37455000D01*
X75815000Y-37455000D01*
X75815000Y-38105000D01*
X76539999Y-38105000D01*
X76539999Y-38098417D01*
X76533591Y-38027897D01*
X76533590Y-38027892D01*
X76483018Y-37865603D01*
X76395072Y-37720122D01*
X76274877Y-37599927D01*
X76129395Y-37511980D01*
X76129396Y-37511980D01*
X75967105Y-37461409D01*
X75967106Y-37461409D01*
X75896572Y-37455000D01*
X75815000Y-37455000D01*
X75315000Y-37455000D01*
X75314999Y-37454999D01*
X75233417Y-37455000D01*
X75162897Y-37461408D01*
X75162892Y-37461409D01*
X75000603Y-37511981D01*
X74855122Y-37599927D01*
X74734927Y-37720122D01*
X74646980Y-37865604D01*
X74596409Y-38027893D01*
X74590000Y-38098427D01*
X74590000Y-38105000D01*
X72400031Y-38105000D01*
X72400468Y-38100000D01*
X72380635Y-37873308D01*
X72380633Y-37873303D01*
X72380180Y-37868117D01*
X72393946Y-37799617D01*
X72416024Y-37769631D01*
X72774056Y-37411599D01*
X72776748Y-37409065D01*
X72823183Y-37367929D01*
X72823187Y-37367924D01*
X72841345Y-37341616D01*
X72858427Y-37316866D01*
X72860617Y-37313890D01*
X72898877Y-37265057D01*
X72903029Y-37255828D01*
X72914062Y-37236268D01*
X72919130Y-37228926D01*
X72919818Y-37227930D01*
X72941812Y-37169933D01*
X72943238Y-37166490D01*
X72968694Y-37109932D01*
X72970520Y-37099965D01*
X72976548Y-37078340D01*
X72980140Y-37068872D01*
X72987490Y-37008336D01*
X72987615Y-37007309D01*
X72988179Y-37003605D01*
X72999357Y-36942605D01*
X72999357Y-36942603D01*
X72995613Y-36880707D01*
X72995500Y-36876963D01*
X72995500Y-31759171D01*
X73015185Y-31692132D01*
X73067989Y-31646377D01*
X73137147Y-31636433D01*
X73171905Y-31646789D01*
X73213673Y-31666266D01*
X73213682Y-31666269D01*
X73433389Y-31725139D01*
X73433400Y-31725141D01*
X73659998Y-31744966D01*
X73660002Y-31744966D01*
X73886599Y-31725141D01*
X73886610Y-31725139D01*
X74106317Y-31666269D01*
X74106331Y-31666264D01*
X74312478Y-31570136D01*
X74385472Y-31519025D01*
X73704401Y-30837953D01*
X73785148Y-30825165D01*
X73898045Y-30767641D01*
X73987641Y-30678045D01*
X74045165Y-30565148D01*
X74057953Y-30484399D01*
X74739025Y-31165472D01*
X74790136Y-31092478D01*
X74886264Y-30886331D01*
X74886269Y-30886317D01*
X74945139Y-30666610D01*
X74945141Y-30666599D01*
X74964966Y-30440002D01*
X74964966Y-30439997D01*
X74945141Y-30213400D01*
X74945139Y-30213389D01*
X74886269Y-29993682D01*
X74886265Y-29993673D01*
X74790133Y-29787516D01*
X74790131Y-29787512D01*
X74739026Y-29714526D01*
X74739025Y-29714526D01*
X74057953Y-30395597D01*
X74045165Y-30314852D01*
X73987641Y-30201955D01*
X73898045Y-30112359D01*
X73785148Y-30054835D01*
X73704400Y-30042046D01*
X74385472Y-29360974D01*
X74385471Y-29360973D01*
X74312483Y-29309866D01*
X74312481Y-29309865D01*
X74297023Y-29302657D01*
X74244584Y-29256484D01*
X74225432Y-29189290D01*
X74245648Y-29122409D01*
X74297023Y-29077893D01*
X74312734Y-29070568D01*
X74499139Y-28940047D01*
X74660047Y-28779139D01*
X74790568Y-28592734D01*
X74886739Y-28386496D01*
X74945635Y-28166692D01*
X74965468Y-27940000D01*
X74945635Y-27713308D01*
X74886739Y-27493504D01*
X74790568Y-27287266D01*
X74678469Y-27127171D01*
X74660045Y-27100858D01*
X74499141Y-26939954D01*
X74312734Y-26809432D01*
X74312732Y-26809431D01*
X74106497Y-26713261D01*
X74106488Y-26713258D01*
X73886697Y-26654366D01*
X73886693Y-26654365D01*
X73886692Y-26654365D01*
X73886691Y-26654364D01*
X73886686Y-26654364D01*
X73660002Y-26634532D01*
X73659998Y-26634532D01*
X73433313Y-26654364D01*
X73433302Y-26654366D01*
X73213511Y-26713258D01*
X73213502Y-26713261D01*
X73007267Y-26809431D01*
X73007265Y-26809432D01*
X72820858Y-26939954D01*
X72659954Y-27100858D01*
X72529432Y-27287265D01*
X72529431Y-27287267D01*
X72502382Y-27345275D01*
X72456209Y-27397714D01*
X72389016Y-27416866D01*
X72322135Y-27396650D01*
X72277618Y-27345275D01*
X72277618Y-27345274D01*
X72250568Y-27287266D01*
X72138469Y-27127171D01*
X72120045Y-27100858D01*
X71959141Y-26939954D01*
X71772734Y-26809432D01*
X71772732Y-26809431D01*
X71566497Y-26713261D01*
X71566488Y-26713258D01*
X71346697Y-26654366D01*
X71346693Y-26654365D01*
X71346692Y-26654365D01*
X71346691Y-26654364D01*
X71346686Y-26654364D01*
X71120002Y-26634532D01*
X71119998Y-26634532D01*
X70893313Y-26654364D01*
X70893302Y-26654366D01*
X70776593Y-26685638D01*
X70706743Y-26683975D01*
X70648881Y-26644812D01*
X70621377Y-26580583D01*
X70620500Y-26565863D01*
X70620500Y-21861518D01*
X70640185Y-21794479D01*
X70656815Y-21773841D01*
X70773838Y-21656817D01*
X70835161Y-21623333D01*
X70861519Y-21620499D01*
X71967871Y-21620499D01*
X71967872Y-21620499D01*
X72027483Y-21614091D01*
X72162331Y-21563796D01*
X72277546Y-21477546D01*
X72363796Y-21362331D01*
X72414091Y-21227483D01*
X72420500Y-21167873D01*
X72420499Y-19472128D01*
X72414091Y-19412517D01*
X72395442Y-19362517D01*
X72363797Y-19277671D01*
X72363793Y-19277664D01*
X72277547Y-19162455D01*
X72277544Y-19162452D01*
X72162335Y-19076206D01*
X72162328Y-19076202D01*
X72027482Y-19025908D01*
X72027483Y-19025908D01*
X71967883Y-19019501D01*
X71967881Y-19019500D01*
X71967873Y-19019500D01*
X71967864Y-19019500D01*
X70272129Y-19019500D01*
X70272123Y-19019501D01*
X70212516Y-19025908D01*
X70077671Y-19076202D01*
X70077664Y-19076206D01*
X69962455Y-19162452D01*
X69962452Y-19162455D01*
X69876206Y-19277664D01*
X69876202Y-19277671D01*
X69825908Y-19412516D01*
X69822137Y-19447596D01*
X69795398Y-19512146D01*
X69738006Y-19551994D01*
X69668180Y-19554487D01*
X69608092Y-19518834D01*
X69597273Y-19505462D01*
X69580048Y-19480862D01*
X69511702Y-19412516D01*
X69419139Y-19319953D01*
X69333376Y-19259901D01*
X69289751Y-19205324D01*
X69280500Y-19158326D01*
X69280500Y-19002711D01*
X69300185Y-18935672D01*
X69333377Y-18901136D01*
X69374519Y-18872328D01*
X69451401Y-18818495D01*
X69618495Y-18651401D01*
X69754035Y-18457830D01*
X69853903Y-18243663D01*
X69915063Y-18015408D01*
X69935659Y-17780000D01*
X69915063Y-17544592D01*
X69853903Y-17316337D01*
X69754035Y-17102171D01*
X69693800Y-17016145D01*
X69618494Y-16908597D01*
X69451402Y-16741506D01*
X69451393Y-16741498D01*
X69443646Y-16736074D01*
X69400021Y-16681497D01*
X69392829Y-16611998D01*
X69424352Y-16549644D01*
X69484582Y-16514231D01*
X69514770Y-16510500D01*
X79873954Y-16510500D01*
X79940993Y-16530185D01*
G37*
%TD.AperFunction*%
%TA.AperFunction,Conductor*%
G36*
X45970000Y-31758872D02*
G01*
X46166317Y-31706269D01*
X46166326Y-31706265D01*
X46372482Y-31610134D01*
X46558820Y-31479657D01*
X46719658Y-31318819D01*
X46737190Y-31293781D01*
X46791766Y-31250155D01*
X46861264Y-31242961D01*
X46923619Y-31274482D01*
X46959034Y-31334712D01*
X46962055Y-31351647D01*
X46965907Y-31387480D01*
X47016202Y-31522328D01*
X47016206Y-31522335D01*
X47102452Y-31637544D01*
X47102455Y-31637547D01*
X47217664Y-31723793D01*
X47217671Y-31723797D01*
X47352517Y-31774091D01*
X47352516Y-31774091D01*
X47359444Y-31774835D01*
X47412127Y-31780500D01*
X48705499Y-31780499D01*
X48772538Y-31800184D01*
X48818293Y-31852987D01*
X48829499Y-31904499D01*
X48829500Y-36488480D01*
X48809815Y-36555519D01*
X48793181Y-36576161D01*
X48590369Y-36778972D01*
X48529046Y-36812457D01*
X48491881Y-36814819D01*
X48486680Y-36814364D01*
X48467171Y-36812657D01*
X48260002Y-36794532D01*
X48259998Y-36794532D01*
X48033313Y-36814364D01*
X48033302Y-36814366D01*
X47813511Y-36873258D01*
X47813502Y-36873261D01*
X47607267Y-36969431D01*
X47607265Y-36969432D01*
X47420858Y-37099954D01*
X47259954Y-37260858D01*
X47129432Y-37447265D01*
X47129431Y-37447267D01*
X47102382Y-37505275D01*
X47056209Y-37557714D01*
X46989016Y-37576866D01*
X46922135Y-37556650D01*
X46877618Y-37505275D01*
X46857163Y-37461409D01*
X46850568Y-37447266D01*
X46738469Y-37287171D01*
X46720045Y-37260858D01*
X46559141Y-37099954D01*
X46372734Y-36969432D01*
X46372732Y-36969431D01*
X46166497Y-36873261D01*
X46166488Y-36873258D01*
X45946697Y-36814366D01*
X45946693Y-36814365D01*
X45946692Y-36814365D01*
X45946691Y-36814364D01*
X45946686Y-36814364D01*
X45720002Y-36794532D01*
X45719998Y-36794532D01*
X45488117Y-36814819D01*
X45419617Y-36801052D01*
X45389629Y-36778972D01*
X45116819Y-36506162D01*
X45083334Y-36444839D01*
X45080500Y-36418481D01*
X45080500Y-31810828D01*
X45100185Y-31743789D01*
X45152989Y-31698034D01*
X45222147Y-31688090D01*
X45256908Y-31698448D01*
X45273669Y-31706264D01*
X45273682Y-31706269D01*
X45469999Y-31758872D01*
X45470000Y-31758871D01*
X45470000Y-30795686D01*
X45481955Y-30807641D01*
X45594852Y-30865165D01*
X45688519Y-30880000D01*
X45751481Y-30880000D01*
X45845148Y-30865165D01*
X45958045Y-30807641D01*
X45970000Y-30795685D01*
X45970000Y-31758872D01*
G37*
%TD.AperFunction*%
%TA.AperFunction,Conductor*%
G36*
X53565000Y-31758872D02*
G01*
X53761317Y-31706269D01*
X53761330Y-31706264D01*
X53778092Y-31698448D01*
X53847169Y-31687953D01*
X53910954Y-31716471D01*
X53949195Y-31774947D01*
X53954500Y-31810828D01*
X53954500Y-35581951D01*
X53954387Y-35585696D01*
X53950642Y-35647603D01*
X53950642Y-35647605D01*
X53961821Y-35708612D01*
X53962384Y-35712313D01*
X53969859Y-35773870D01*
X53969860Y-35773874D01*
X53973451Y-35783343D01*
X53979474Y-35804946D01*
X53981304Y-35814930D01*
X54006759Y-35871490D01*
X54008189Y-35874941D01*
X54030182Y-35932930D01*
X54030183Y-35932931D01*
X54035936Y-35941266D01*
X54046961Y-35960813D01*
X54051120Y-35970055D01*
X54051124Y-35970060D01*
X54089371Y-36018878D01*
X54091591Y-36021896D01*
X54126812Y-36072924D01*
X54126816Y-36072928D01*
X54126817Y-36072929D01*
X54173250Y-36114064D01*
X54175941Y-36116598D01*
X54594400Y-36535057D01*
X54999897Y-36940554D01*
X55033382Y-37001877D01*
X55028398Y-37071569D01*
X54999897Y-37115916D01*
X54854954Y-37260858D01*
X54724432Y-37447265D01*
X54724431Y-37447267D01*
X54697382Y-37505275D01*
X54651209Y-37557714D01*
X54584016Y-37576866D01*
X54517135Y-37556650D01*
X54472618Y-37505275D01*
X54452163Y-37461409D01*
X54445568Y-37447266D01*
X54333469Y-37287171D01*
X54315045Y-37260858D01*
X54154141Y-37099954D01*
X53967734Y-36969432D01*
X53967732Y-36969431D01*
X53761497Y-36873261D01*
X53761488Y-36873258D01*
X53541697Y-36814366D01*
X53541693Y-36814365D01*
X53541692Y-36814365D01*
X53541691Y-36814364D01*
X53541686Y-36814364D01*
X53315002Y-36794532D01*
X53314998Y-36794532D01*
X53083117Y-36814819D01*
X53014617Y-36801052D01*
X52984629Y-36778972D01*
X52851819Y-36646162D01*
X52818334Y-36584839D01*
X52815500Y-36558481D01*
X52815500Y-34905391D01*
X52835185Y-34838352D01*
X52847352Y-34822417D01*
X52847533Y-34822216D01*
X52942179Y-34658284D01*
X53000674Y-34478256D01*
X53020460Y-34290000D01*
X53000674Y-34101744D01*
X52942179Y-33921716D01*
X52865171Y-33788334D01*
X52847535Y-33757787D01*
X52847534Y-33757785D01*
X52847533Y-33757784D01*
X52847344Y-33757574D01*
X52847273Y-33757427D01*
X52843714Y-33752528D01*
X52844610Y-33751876D01*
X52817119Y-33694580D01*
X52815500Y-33674608D01*
X52815500Y-31853619D01*
X52835185Y-31786580D01*
X52887989Y-31740825D01*
X52957147Y-31730881D01*
X52971594Y-31733844D01*
X53064999Y-31758871D01*
X53065000Y-31758871D01*
X53065000Y-30795686D01*
X53076955Y-30807641D01*
X53189852Y-30865165D01*
X53283519Y-30880000D01*
X53346481Y-30880000D01*
X53440148Y-30865165D01*
X53553045Y-30807641D01*
X53565000Y-30795685D01*
X53565000Y-31758872D01*
G37*
%TD.AperFunction*%
%TA.AperFunction,Conductor*%
G36*
X67352865Y-31023348D02*
G01*
X67397382Y-31074725D01*
X67424429Y-31132728D01*
X67424432Y-31132734D01*
X67554951Y-31319137D01*
X67554952Y-31319138D01*
X67554953Y-31319139D01*
X67698568Y-31462754D01*
X67732052Y-31524075D01*
X67727068Y-31593767D01*
X67717003Y-31614583D01*
X67661982Y-31705599D01*
X67661980Y-31705603D01*
X67611409Y-31867893D01*
X67605000Y-31938427D01*
X67605000Y-31945000D01*
X69554999Y-31945000D01*
X69554999Y-31938417D01*
X69548591Y-31867897D01*
X69548590Y-31867892D01*
X69498018Y-31705603D01*
X69424158Y-31583423D01*
X69406322Y-31515868D01*
X69427840Y-31449395D01*
X69442589Y-31431596D01*
X69555047Y-31319139D01*
X69572271Y-31294539D01*
X69626848Y-31250913D01*
X69696346Y-31243718D01*
X69758701Y-31275239D01*
X69794116Y-31335468D01*
X69797138Y-31352406D01*
X69800908Y-31387483D01*
X69851202Y-31522328D01*
X69851206Y-31522335D01*
X69937452Y-31637544D01*
X69937455Y-31637547D01*
X70052664Y-31723793D01*
X70052671Y-31723797D01*
X70073051Y-31731398D01*
X70187517Y-31774091D01*
X70247127Y-31780500D01*
X70270497Y-31780499D01*
X70337536Y-31800181D01*
X70383292Y-31852983D01*
X70394500Y-31904499D01*
X70394500Y-32442376D01*
X70377887Y-32504375D01*
X70292823Y-32651710D01*
X70292818Y-32651722D01*
X70234932Y-32829878D01*
X70234326Y-32831744D01*
X70214540Y-33020000D01*
X70234326Y-33208256D01*
X70234327Y-33208259D01*
X70292818Y-33388277D01*
X70292821Y-33388284D01*
X70387467Y-33552216D01*
X70497226Y-33674115D01*
X70514129Y-33692888D01*
X70667265Y-33804148D01*
X70667270Y-33804151D01*
X70840192Y-33881142D01*
X70840197Y-33881144D01*
X71025354Y-33920500D01*
X71025355Y-33920500D01*
X71214644Y-33920500D01*
X71214646Y-33920500D01*
X71399803Y-33881144D01*
X71420062Y-33872123D01*
X71489311Y-33862837D01*
X71552589Y-33892464D01*
X71589803Y-33951598D01*
X71594500Y-33985402D01*
X71594500Y-36558480D01*
X71574815Y-36625519D01*
X71558181Y-36646162D01*
X71425369Y-36778973D01*
X71364046Y-36812457D01*
X71326881Y-36814819D01*
X71321680Y-36814364D01*
X71302171Y-36812657D01*
X71095002Y-36794532D01*
X71094998Y-36794532D01*
X70868313Y-36814364D01*
X70868302Y-36814366D01*
X70648511Y-36873258D01*
X70648502Y-36873261D01*
X70442267Y-36969431D01*
X70442265Y-36969432D01*
X70255858Y-37099954D01*
X70094954Y-37260858D01*
X69964432Y-37447265D01*
X69964431Y-37447267D01*
X69937382Y-37505275D01*
X69891209Y-37557714D01*
X69824016Y-37576866D01*
X69757135Y-37556650D01*
X69712618Y-37505275D01*
X69692163Y-37461409D01*
X69685568Y-37447266D01*
X69573469Y-37287171D01*
X69555045Y-37260858D01*
X69442959Y-37148772D01*
X69409474Y-37087449D01*
X69414458Y-37017757D01*
X69424520Y-36996945D01*
X69498478Y-36874606D01*
X69549086Y-36712196D01*
X69555500Y-36641616D01*
X69555500Y-36128384D01*
X69549086Y-36057804D01*
X69498478Y-35895394D01*
X69410472Y-35749815D01*
X69410470Y-35749813D01*
X69410469Y-35749811D01*
X69308339Y-35647681D01*
X69274854Y-35586358D01*
X69279838Y-35516666D01*
X69308339Y-35472319D01*
X69410468Y-35370189D01*
X69410469Y-35370188D01*
X69410469Y-35370187D01*
X69410472Y-35370185D01*
X69498478Y-35224606D01*
X69549086Y-35062196D01*
X69555500Y-34991616D01*
X69555500Y-34478384D01*
X69549086Y-34407804D01*
X69523871Y-34326888D01*
X69522720Y-34257030D01*
X69523861Y-34253144D01*
X69549086Y-34172196D01*
X69555500Y-34101616D01*
X69555500Y-33588384D01*
X69549086Y-33517804D01*
X69498478Y-33355394D01*
X69410472Y-33209815D01*
X69410470Y-33209813D01*
X69410469Y-33209811D01*
X69307984Y-33107326D01*
X69274499Y-33046003D01*
X69279483Y-32976311D01*
X69307985Y-32931963D01*
X69410071Y-32829878D01*
X69410072Y-32829877D01*
X69498019Y-32684395D01*
X69548590Y-32522106D01*
X69555000Y-32451572D01*
X69555000Y-32445000D01*
X67605001Y-32445000D01*
X67605001Y-32451582D01*
X67611408Y-32522102D01*
X67611409Y-32522107D01*
X67661981Y-32684396D01*
X67749927Y-32829877D01*
X67852015Y-32931965D01*
X67885500Y-32993288D01*
X67880516Y-33062980D01*
X67852015Y-33107327D01*
X67749531Y-33209810D01*
X67749530Y-33209811D01*
X67661522Y-33355393D01*
X67610913Y-33517807D01*
X67609788Y-33530191D01*
X67604500Y-33588384D01*
X67604500Y-34101616D01*
X67605609Y-34113815D01*
X67610914Y-34172198D01*
X67636127Y-34253111D01*
X67637277Y-34322971D01*
X67636127Y-34326889D01*
X67610914Y-34407801D01*
X67610059Y-34417208D01*
X67604512Y-34478259D01*
X67604500Y-34478386D01*
X67604500Y-34991613D01*
X67610913Y-35062192D01*
X67610913Y-35062194D01*
X67610914Y-35062196D01*
X67661522Y-35224606D01*
X67748498Y-35368482D01*
X67749530Y-35370188D01*
X67851661Y-35472319D01*
X67885146Y-35533642D01*
X67880162Y-35603334D01*
X67851661Y-35647681D01*
X67749531Y-35749810D01*
X67749530Y-35749811D01*
X67661522Y-35895393D01*
X67610913Y-36057807D01*
X67605803Y-36114047D01*
X67604500Y-36128384D01*
X67604500Y-36641616D01*
X67605474Y-36652331D01*
X67610913Y-36712192D01*
X67610913Y-36712194D01*
X67610914Y-36712196D01*
X67661522Y-36874606D01*
X67716639Y-36965781D01*
X67734475Y-37033333D01*
X67712958Y-37099807D01*
X67698203Y-37117610D01*
X67554954Y-37260858D01*
X67424432Y-37447265D01*
X67424431Y-37447267D01*
X67397382Y-37505275D01*
X67351209Y-37557714D01*
X67284016Y-37576866D01*
X67217135Y-37556650D01*
X67172618Y-37505275D01*
X67152163Y-37461409D01*
X67145568Y-37447266D01*
X67033469Y-37287171D01*
X67015045Y-37260858D01*
X66902959Y-37148772D01*
X66869474Y-37087449D01*
X66874458Y-37017757D01*
X66884520Y-36996945D01*
X66958478Y-36874606D01*
X67009086Y-36712196D01*
X67015500Y-36641616D01*
X67015500Y-36128384D01*
X67009086Y-36057804D01*
X66958478Y-35895394D01*
X66870472Y-35749815D01*
X66768336Y-35647679D01*
X66734853Y-35586359D01*
X66739837Y-35516667D01*
X66768336Y-35472320D01*
X66870472Y-35370185D01*
X66958478Y-35224606D01*
X67009086Y-35062196D01*
X67015500Y-34991616D01*
X67015500Y-34478384D01*
X67009086Y-34407804D01*
X66983871Y-34326888D01*
X66982720Y-34257030D01*
X66983861Y-34253144D01*
X67009086Y-34172196D01*
X67015500Y-34101616D01*
X67015500Y-33588384D01*
X67009086Y-33517804D01*
X66958478Y-33355394D01*
X66870472Y-33209815D01*
X66870470Y-33209813D01*
X66870469Y-33209811D01*
X66767984Y-33107326D01*
X66734499Y-33046003D01*
X66739483Y-32976311D01*
X66767985Y-32931963D01*
X66870071Y-32829878D01*
X66870072Y-32829877D01*
X66958019Y-32684395D01*
X67008590Y-32522106D01*
X67015000Y-32451572D01*
X67015000Y-32445000D01*
X65065001Y-32445000D01*
X65065001Y-32451582D01*
X65071408Y-32522102D01*
X65071409Y-32522107D01*
X65121981Y-32684396D01*
X65209927Y-32829877D01*
X65312015Y-32931965D01*
X65345500Y-32993288D01*
X65340516Y-33062980D01*
X65312015Y-33107327D01*
X65209531Y-33209810D01*
X65209530Y-33209811D01*
X65121522Y-33355393D01*
X65070913Y-33517807D01*
X65069788Y-33530191D01*
X65064500Y-33588384D01*
X65064500Y-34101616D01*
X65065609Y-34113815D01*
X65070914Y-34172198D01*
X65096127Y-34253111D01*
X65097277Y-34322971D01*
X65096127Y-34326889D01*
X65070914Y-34407801D01*
X65070059Y-34417208D01*
X65064512Y-34478259D01*
X65064500Y-34478386D01*
X65064500Y-34991613D01*
X65070913Y-35062192D01*
X65070913Y-35062194D01*
X65070914Y-35062196D01*
X65121522Y-35224606D01*
X65208498Y-35368482D01*
X65209530Y-35370188D01*
X65311661Y-35472319D01*
X65345146Y-35533642D01*
X65340162Y-35603334D01*
X65311661Y-35647681D01*
X65209531Y-35749810D01*
X65209530Y-35749811D01*
X65121522Y-35895393D01*
X65070913Y-36057807D01*
X65065803Y-36114047D01*
X65064500Y-36128384D01*
X65064500Y-36641616D01*
X65065474Y-36652331D01*
X65070913Y-36712192D01*
X65070913Y-36712194D01*
X65070914Y-36712196D01*
X65121522Y-36874606D01*
X65176639Y-36965781D01*
X65194475Y-37033333D01*
X65172958Y-37099807D01*
X65158203Y-37117610D01*
X65014954Y-37260858D01*
X64884432Y-37447265D01*
X64884431Y-37447267D01*
X64857382Y-37505275D01*
X64811209Y-37557714D01*
X64744016Y-37576866D01*
X64677135Y-37556650D01*
X64632618Y-37505275D01*
X64612163Y-37461409D01*
X64605568Y-37447266D01*
X64493469Y-37287171D01*
X64475045Y-37260858D01*
X64362959Y-37148772D01*
X64329474Y-37087449D01*
X64334458Y-37017757D01*
X64344520Y-36996945D01*
X64418478Y-36874606D01*
X64469086Y-36712196D01*
X64475500Y-36641616D01*
X64475500Y-36128384D01*
X64469086Y-36057804D01*
X64418478Y-35895394D01*
X64330472Y-35749815D01*
X64330470Y-35749813D01*
X64330469Y-35749811D01*
X64228339Y-35647681D01*
X64194854Y-35586358D01*
X64199838Y-35516666D01*
X64228339Y-35472319D01*
X64330468Y-35370189D01*
X64330469Y-35370188D01*
X64330472Y-35370185D01*
X64418478Y-35224606D01*
X64469086Y-35062196D01*
X64475500Y-34991616D01*
X64475500Y-34478384D01*
X64469086Y-34407804D01*
X64443871Y-34326888D01*
X64442720Y-34257030D01*
X64443861Y-34253144D01*
X64469086Y-34172196D01*
X64475500Y-34101616D01*
X64475500Y-33588384D01*
X64469086Y-33517804D01*
X64418478Y-33355394D01*
X64330472Y-33209815D01*
X64330470Y-33209813D01*
X64330469Y-33209811D01*
X64227984Y-33107326D01*
X64194499Y-33046003D01*
X64199483Y-32976311D01*
X64227985Y-32931963D01*
X64330071Y-32829878D01*
X64330072Y-32829877D01*
X64418019Y-32684395D01*
X64468590Y-32522106D01*
X64475000Y-32451572D01*
X64475000Y-32445000D01*
X62525001Y-32445000D01*
X62525001Y-32451582D01*
X62531408Y-32522102D01*
X62531409Y-32522107D01*
X62581981Y-32684396D01*
X62669927Y-32829877D01*
X62772015Y-32931965D01*
X62805500Y-32993288D01*
X62800516Y-33062980D01*
X62772015Y-33107327D01*
X62669531Y-33209810D01*
X62669530Y-33209811D01*
X62581522Y-33355393D01*
X62530913Y-33517807D01*
X62529788Y-33530191D01*
X62524500Y-33588384D01*
X62524500Y-34101616D01*
X62525609Y-34113815D01*
X62530914Y-34172198D01*
X62556127Y-34253111D01*
X62557277Y-34322971D01*
X62556127Y-34326889D01*
X62530914Y-34407801D01*
X62530059Y-34417208D01*
X62524512Y-34478259D01*
X62524500Y-34478386D01*
X62524500Y-34991613D01*
X62530913Y-35062192D01*
X62530913Y-35062194D01*
X62530914Y-35062196D01*
X62581522Y-35224606D01*
X62668498Y-35368482D01*
X62669530Y-35370188D01*
X62771661Y-35472319D01*
X62805146Y-35533642D01*
X62800162Y-35603334D01*
X62771661Y-35647681D01*
X62669531Y-35749810D01*
X62669530Y-35749811D01*
X62581522Y-35895393D01*
X62530913Y-36057807D01*
X62525803Y-36114047D01*
X62524500Y-36128384D01*
X62524500Y-36641616D01*
X62525474Y-36652331D01*
X62530913Y-36712192D01*
X62530913Y-36712194D01*
X62530914Y-36712196D01*
X62581522Y-36874606D01*
X62636639Y-36965781D01*
X62654475Y-37033333D01*
X62632958Y-37099807D01*
X62618203Y-37117610D01*
X62474954Y-37260858D01*
X62344432Y-37447265D01*
X62344431Y-37447267D01*
X62317382Y-37505275D01*
X62271209Y-37557714D01*
X62204016Y-37576866D01*
X62137135Y-37556650D01*
X62092618Y-37505275D01*
X62072163Y-37461409D01*
X62065568Y-37447266D01*
X61953469Y-37287171D01*
X61935045Y-37260858D01*
X61822959Y-37148772D01*
X61789474Y-37087449D01*
X61794458Y-37017757D01*
X61804520Y-36996945D01*
X61878478Y-36874606D01*
X61929086Y-36712196D01*
X61935500Y-36641616D01*
X61935500Y-36128384D01*
X61929086Y-36057804D01*
X61878478Y-35895394D01*
X61790472Y-35749815D01*
X61688336Y-35647679D01*
X61654853Y-35586359D01*
X61659837Y-35516667D01*
X61688336Y-35472320D01*
X61790472Y-35370185D01*
X61878478Y-35224606D01*
X61929086Y-35062196D01*
X61935500Y-34991616D01*
X61935500Y-34478384D01*
X61929086Y-34407804D01*
X61903871Y-34326888D01*
X61902720Y-34257030D01*
X61903861Y-34253144D01*
X61929086Y-34172196D01*
X61935500Y-34101616D01*
X61935500Y-33588384D01*
X61929086Y-33517804D01*
X61878478Y-33355394D01*
X61790472Y-33209815D01*
X61790470Y-33209813D01*
X61790469Y-33209811D01*
X61687984Y-33107326D01*
X61654499Y-33046003D01*
X61659483Y-32976311D01*
X61687985Y-32931963D01*
X61790071Y-32829878D01*
X61790072Y-32829877D01*
X61878019Y-32684395D01*
X61928590Y-32522106D01*
X61935000Y-32451572D01*
X61935000Y-32445000D01*
X59985001Y-32445000D01*
X59985001Y-32451582D01*
X59991408Y-32522102D01*
X59991409Y-32522107D01*
X60041981Y-32684396D01*
X60129927Y-32829877D01*
X60232015Y-32931965D01*
X60265500Y-32993288D01*
X60260516Y-33062980D01*
X60232015Y-33107327D01*
X60129531Y-33209810D01*
X60129530Y-33209811D01*
X60041522Y-33355393D01*
X59990913Y-33517807D01*
X59989788Y-33530191D01*
X59984500Y-33588384D01*
X59984500Y-34101616D01*
X59985609Y-34113815D01*
X59990914Y-34172198D01*
X60016127Y-34253111D01*
X60017277Y-34322971D01*
X60016127Y-34326889D01*
X59990914Y-34407801D01*
X59990059Y-34417208D01*
X59984512Y-34478259D01*
X59984500Y-34478386D01*
X59984500Y-34991613D01*
X59990913Y-35062192D01*
X59990913Y-35062194D01*
X59990914Y-35062196D01*
X60041522Y-35224606D01*
X60128498Y-35368482D01*
X60129530Y-35370188D01*
X60231661Y-35472319D01*
X60265146Y-35533642D01*
X60260162Y-35603334D01*
X60231661Y-35647681D01*
X60129531Y-35749810D01*
X60129530Y-35749811D01*
X60041522Y-35895393D01*
X59990913Y-36057807D01*
X59985803Y-36114047D01*
X59984500Y-36128384D01*
X59984500Y-36641616D01*
X59985474Y-36652331D01*
X59990913Y-36712192D01*
X59990913Y-36712194D01*
X59990914Y-36712196D01*
X60041522Y-36874606D01*
X60096639Y-36965781D01*
X60114475Y-37033333D01*
X60092958Y-37099807D01*
X60078203Y-37117610D01*
X59934954Y-37260858D01*
X59804432Y-37447265D01*
X59804431Y-37447267D01*
X59777382Y-37505275D01*
X59731209Y-37557714D01*
X59664016Y-37576866D01*
X59597135Y-37556650D01*
X59552618Y-37505275D01*
X59532163Y-37461409D01*
X59525568Y-37447266D01*
X59413469Y-37287171D01*
X59395045Y-37260858D01*
X59234141Y-37099954D01*
X59047734Y-36969432D01*
X59047732Y-36969431D01*
X58841497Y-36873261D01*
X58841488Y-36873258D01*
X58621697Y-36814366D01*
X58621693Y-36814365D01*
X58621692Y-36814365D01*
X58621691Y-36814364D01*
X58621686Y-36814364D01*
X58395002Y-36794532D01*
X58394998Y-36794532D01*
X58168313Y-36814364D01*
X58168302Y-36814366D01*
X57948511Y-36873258D01*
X57948502Y-36873261D01*
X57742267Y-36969431D01*
X57742265Y-36969432D01*
X57555858Y-37099954D01*
X57394954Y-37260858D01*
X57264432Y-37447265D01*
X57264431Y-37447267D01*
X57237382Y-37505275D01*
X57191209Y-37557714D01*
X57124016Y-37576866D01*
X57057135Y-37556650D01*
X57012618Y-37505275D01*
X56992163Y-37461409D01*
X56985568Y-37447266D01*
X56881002Y-37297929D01*
X56855048Y-37260862D01*
X56780005Y-37185819D01*
X56694139Y-37099953D01*
X56694135Y-37099950D01*
X56694134Y-37099949D01*
X56694130Y-37099946D01*
X56608376Y-37039901D01*
X56564751Y-36985324D01*
X56555500Y-36938330D01*
X56555500Y-36828034D01*
X56555613Y-36824290D01*
X56559357Y-36762394D01*
X56548177Y-36701386D01*
X56547615Y-36697689D01*
X56540140Y-36636129D01*
X56540139Y-36636125D01*
X56536546Y-36626651D01*
X56530519Y-36605029D01*
X56529322Y-36598495D01*
X56528694Y-36595068D01*
X56520184Y-36576161D01*
X56510894Y-36555519D01*
X56503239Y-36538512D01*
X56501809Y-36535057D01*
X56479818Y-36477070D01*
X56474059Y-36468727D01*
X56463030Y-36449172D01*
X56458877Y-36439943D01*
X56458874Y-36439938D01*
X56420633Y-36391127D01*
X56418413Y-36388110D01*
X56404829Y-36368431D01*
X56383183Y-36337071D01*
X56336750Y-36295935D01*
X56334056Y-36293399D01*
X55391818Y-35351161D01*
X55358334Y-35289839D01*
X55355500Y-35263481D01*
X55355500Y-31854136D01*
X55375185Y-31787097D01*
X55427989Y-31741342D01*
X55497147Y-31731398D01*
X55511582Y-31734358D01*
X55628308Y-31765635D01*
X55790230Y-31779801D01*
X55854998Y-31785468D01*
X55855000Y-31785468D01*
X55855002Y-31785468D01*
X55911807Y-31780498D01*
X56081692Y-31765635D01*
X56301496Y-31706739D01*
X56507734Y-31610568D01*
X56694139Y-31480047D01*
X56855047Y-31319139D01*
X56985568Y-31132734D01*
X57012618Y-31074724D01*
X57058790Y-31022285D01*
X57125983Y-31003133D01*
X57192865Y-31023348D01*
X57237382Y-31074725D01*
X57264429Y-31132728D01*
X57264432Y-31132734D01*
X57394954Y-31319141D01*
X57555858Y-31480045D01*
X57555861Y-31480047D01*
X57742266Y-31610568D01*
X57948504Y-31706739D01*
X57948509Y-31706740D01*
X57948511Y-31706741D01*
X58001415Y-31720916D01*
X58168308Y-31765635D01*
X58330230Y-31779801D01*
X58394998Y-31785468D01*
X58395000Y-31785468D01*
X58395002Y-31785468D01*
X58451807Y-31780498D01*
X58621692Y-31765635D01*
X58841496Y-31706739D01*
X59047734Y-31610568D01*
X59234139Y-31480047D01*
X59395047Y-31319139D01*
X59525568Y-31132734D01*
X59552618Y-31074724D01*
X59598790Y-31022285D01*
X59665983Y-31003133D01*
X59732865Y-31023348D01*
X59777382Y-31074725D01*
X59804429Y-31132728D01*
X59804432Y-31132734D01*
X59934951Y-31319137D01*
X59934952Y-31319138D01*
X59934953Y-31319139D01*
X60078568Y-31462754D01*
X60112052Y-31524075D01*
X60107068Y-31593767D01*
X60097003Y-31614583D01*
X60041982Y-31705599D01*
X60041980Y-31705603D01*
X59991409Y-31867893D01*
X59985000Y-31938427D01*
X59985000Y-31945000D01*
X61934999Y-31945000D01*
X61934999Y-31938417D01*
X61928591Y-31867897D01*
X61928590Y-31867892D01*
X61878018Y-31705603D01*
X61804158Y-31583423D01*
X61786322Y-31515868D01*
X61807840Y-31449395D01*
X61822589Y-31431596D01*
X61935047Y-31319139D01*
X62065568Y-31132734D01*
X62092618Y-31074724D01*
X62138790Y-31022285D01*
X62205983Y-31003133D01*
X62272865Y-31023348D01*
X62317382Y-31074725D01*
X62344429Y-31132728D01*
X62344432Y-31132734D01*
X62474951Y-31319137D01*
X62474952Y-31319138D01*
X62474953Y-31319139D01*
X62618568Y-31462754D01*
X62652052Y-31524075D01*
X62647068Y-31593767D01*
X62637003Y-31614583D01*
X62581982Y-31705599D01*
X62581980Y-31705603D01*
X62531409Y-31867893D01*
X62525000Y-31938427D01*
X62525000Y-31945000D01*
X64474999Y-31945000D01*
X64474999Y-31938417D01*
X64468591Y-31867897D01*
X64468590Y-31867892D01*
X64418018Y-31705603D01*
X64344158Y-31583423D01*
X64326322Y-31515868D01*
X64347840Y-31449395D01*
X64362589Y-31431596D01*
X64475047Y-31319139D01*
X64605568Y-31132734D01*
X64632618Y-31074724D01*
X64678790Y-31022285D01*
X64745983Y-31003133D01*
X64812865Y-31023348D01*
X64857382Y-31074725D01*
X64884429Y-31132728D01*
X64884432Y-31132734D01*
X65014951Y-31319137D01*
X65014952Y-31319138D01*
X65014953Y-31319139D01*
X65158568Y-31462754D01*
X65192052Y-31524075D01*
X65187068Y-31593767D01*
X65177003Y-31614583D01*
X65121982Y-31705599D01*
X65121980Y-31705603D01*
X65071409Y-31867893D01*
X65065000Y-31938427D01*
X65065000Y-31945000D01*
X67014999Y-31945000D01*
X67014999Y-31938417D01*
X67008591Y-31867897D01*
X67008590Y-31867892D01*
X66958018Y-31705603D01*
X66884158Y-31583423D01*
X66866322Y-31515868D01*
X66887840Y-31449395D01*
X66902589Y-31431596D01*
X67015047Y-31319139D01*
X67145568Y-31132734D01*
X67172618Y-31074724D01*
X67218790Y-31022285D01*
X67285983Y-31003133D01*
X67352865Y-31023348D01*
G37*
%TD.AperFunction*%
%TA.AperFunction,Conductor*%
G36*
X51763424Y-28941513D02*
G01*
X51811237Y-28992461D01*
X51823915Y-29061171D01*
X51797433Y-29125828D01*
X51788255Y-29136086D01*
X51635967Y-29288375D01*
X51633241Y-29290941D01*
X51614736Y-29307335D01*
X51551504Y-29337059D01*
X51482241Y-29327878D01*
X51461384Y-29316099D01*
X51452481Y-29309865D01*
X51437023Y-29302657D01*
X51384584Y-29256484D01*
X51365432Y-29189290D01*
X51385648Y-29122409D01*
X51437023Y-29077893D01*
X51452734Y-29070568D01*
X51629452Y-28946829D01*
X51695657Y-28924503D01*
X51763424Y-28941513D01*
G37*
%TD.AperFunction*%
%TA.AperFunction,Conductor*%
G36*
X52137862Y-28483348D02*
G01*
X52182381Y-28534724D01*
X52211591Y-28597365D01*
X52222083Y-28666443D01*
X52193563Y-28730227D01*
X52186890Y-28737451D01*
X51996086Y-28928255D01*
X51934763Y-28961740D01*
X51865071Y-28956756D01*
X51809138Y-28914884D01*
X51784721Y-28849420D01*
X51799573Y-28781147D01*
X51806825Y-28769457D01*
X51930568Y-28592734D01*
X51957619Y-28534721D01*
X52003788Y-28482286D01*
X52070981Y-28463133D01*
X52137862Y-28483348D01*
G37*
%TD.AperFunction*%
%TA.AperFunction,Conductor*%
G36*
X45970000Y-21598872D02*
G01*
X46166317Y-21546269D01*
X46166330Y-21546264D01*
X46183092Y-21538448D01*
X46252169Y-21527953D01*
X46315954Y-21556471D01*
X46354195Y-21614947D01*
X46359500Y-21650828D01*
X46359500Y-24498406D01*
X46339815Y-24565445D01*
X46287011Y-24611200D01*
X46217853Y-24621144D01*
X46178823Y-24607638D01*
X46178666Y-24607992D01*
X46174551Y-24606159D01*
X46173511Y-24605800D01*
X46172729Y-24605348D01*
X45999807Y-24528357D01*
X45999802Y-24528355D01*
X45854001Y-24497365D01*
X45814646Y-24489000D01*
X45625354Y-24489000D01*
X45595159Y-24495418D01*
X45440197Y-24528355D01*
X45440192Y-24528357D01*
X45394936Y-24548507D01*
X45325686Y-24557792D01*
X45262409Y-24528164D01*
X45225196Y-24469029D01*
X45220500Y-24435228D01*
X45220500Y-21693619D01*
X45240185Y-21626580D01*
X45292989Y-21580825D01*
X45362147Y-21570881D01*
X45376594Y-21573844D01*
X45469999Y-21598871D01*
X45470000Y-21598871D01*
X45470000Y-20635686D01*
X45481955Y-20647641D01*
X45594852Y-20705165D01*
X45688519Y-20720000D01*
X45751481Y-20720000D01*
X45845148Y-20705165D01*
X45958045Y-20647641D01*
X45970000Y-20635686D01*
X45970000Y-21598872D01*
G37*
%TD.AperFunction*%
%TD*%
M02*
