%TF.GenerationSoftware,KiCad,Pcbnew,7.0.5*%
%TF.CreationDate,2024-09-17T16:51:35-04:00*%
%TF.ProjectId,8_bit_logic_analyzer_rev_2,385f6269-745f-46c6-9f67-69635f616e61,rev?*%
%TF.SameCoordinates,Original*%
%TF.FileFunction,Copper,L1,Top*%
%TF.FilePolarity,Positive*%
%FSLAX46Y46*%
G04 Gerber Fmt 4.6, Leading zero omitted, Abs format (unit mm)*
G04 Created by KiCad (PCBNEW 7.0.5) date 2024-09-17 16:51:35*
%MOMM*%
%LPD*%
G01*
G04 APERTURE LIST*
%TA.AperFunction,ComponentPad*%
%ADD10R,1.700000X1.700000*%
%TD*%
%TA.AperFunction,ComponentPad*%
%ADD11O,1.700000X1.700000*%
%TD*%
%TA.AperFunction,ComponentPad*%
%ADD12R,1.600000X1.600000*%
%TD*%
%TA.AperFunction,ComponentPad*%
%ADD13O,1.600000X1.600000*%
%TD*%
%TA.AperFunction,ComponentPad*%
%ADD14C,1.600000*%
%TD*%
%TA.AperFunction,ViaPad*%
%ADD15C,0.800000*%
%TD*%
%TA.AperFunction,Conductor*%
%ADD16C,0.400000*%
%TD*%
G04 APERTURE END LIST*
D10*
%TO.P,J2,1,Pin_1*%
%TO.N,/addr_3*%
X81280000Y-17780000D03*
D11*
%TO.P,J2,2,Pin_2*%
%TO.N,/addr_2*%
X81280000Y-20320000D03*
%TO.P,J2,3,Pin_3*%
%TO.N,/addr_1*%
X81280000Y-22860000D03*
%TO.P,J2,4,Pin_4*%
%TO.N,/addr_0*%
X81280000Y-25400000D03*
%TO.P,J2,5,Pin_5*%
%TO.N,/write*%
X81280000Y-27940000D03*
%TO.P,J2,6,Pin_6*%
%TO.N,/load*%
X81280000Y-30480000D03*
%TO.P,J2,7,Pin_7*%
%TO.N,/clear*%
X81280000Y-33020000D03*
%TO.P,J2,8,Pin_8*%
%TO.N,/clk*%
X81280000Y-35560000D03*
%TO.P,J2,9,Pin_9*%
%TO.N,GND*%
X81280000Y-38100000D03*
%TO.P,J2,10,Pin_10*%
%TO.N,VCC*%
X81280000Y-40640000D03*
%TD*%
D12*
%TO.P,U3,1,A0*%
%TO.N,/addr_0*%
X48260000Y-30480000D03*
D13*
%TO.P,U3,2,~CS*%
%TO.N,GND*%
X45720000Y-30480000D03*
%TO.P,U3,3,~WE*%
%TO.N,/write*%
X43180000Y-30480000D03*
%TO.P,U3,4,D0*%
%TO.N,Net-(J1-Pin_5)*%
X40640000Y-30480000D03*
%TO.P,U3,5,S0_n*%
%TO.N,Net-(U3-S0_n)*%
X38100000Y-30480000D03*
%TO.P,U3,6,D1*%
%TO.N,Net-(J1-Pin_6)*%
X35560000Y-30480000D03*
%TO.P,U3,7,S1_n*%
%TO.N,Net-(U3-S1_n)*%
X33020000Y-30480000D03*
%TO.P,U3,8,GND*%
%TO.N,GND*%
X30480000Y-30480000D03*
%TO.P,U3,9,S2_n*%
%TO.N,Net-(U3-S2_n)*%
X30480000Y-38100000D03*
%TO.P,U3,10,D2*%
%TO.N,Net-(J1-Pin_7)*%
X33020000Y-38100000D03*
%TO.P,U3,11,S3_n*%
%TO.N,Net-(U3-S3_n)*%
X35560000Y-38100000D03*
%TO.P,U3,12,D3*%
%TO.N,Net-(J1-Pin_8)*%
X38100000Y-38100000D03*
%TO.P,U3,13,A3*%
%TO.N,/addr_3*%
X40640000Y-38100000D03*
%TO.P,U3,14,A2*%
%TO.N,/addr_2*%
X43180000Y-38100000D03*
%TO.P,U3,15,A1*%
%TO.N,/addr_1*%
X45720000Y-38100000D03*
%TO.P,U3,16,VCC*%
%TO.N,VCC*%
X48260000Y-38100000D03*
%TD*%
D10*
%TO.P,J4,1,Pin_1*%
%TO.N,/s_out*%
X60960000Y-40640000D03*
D11*
%TO.P,J4,2,Pin_2*%
X63500000Y-40640000D03*
%TD*%
D14*
%TO.P,C1,1*%
%TO.N,VCC*%
X50800000Y-27940000D03*
%TO.P,C1,2*%
%TO.N,GND*%
X50800000Y-30440000D03*
%TD*%
D10*
%TO.P,J5,1,Pin_1*%
%TO.N,/clk*%
X78740000Y-35560000D03*
D11*
%TO.P,J5,2,Pin_2*%
%TO.N,VCC*%
X78740000Y-33020000D03*
%TD*%
D12*
%TO.P,U4,1,~{MR}*%
%TO.N,/clear*%
X71095000Y-30480000D03*
D13*
%TO.P,U4,2,J*%
%TO.N,Net-(U2-Q3)*%
X68555000Y-30480000D03*
%TO.P,U4,3,~{K}*%
X66015000Y-30480000D03*
%TO.P,U4,4,P0*%
%TO.N,Net-(U3-S0_n)*%
X63475000Y-30480000D03*
%TO.P,U4,5,P1*%
%TO.N,Net-(U3-S1_n)*%
X60935000Y-30480000D03*
%TO.P,U4,6,P2*%
%TO.N,Net-(U3-S2_n)*%
X58395000Y-30480000D03*
%TO.P,U4,7,P3*%
%TO.N,Net-(U3-S3_n)*%
X55855000Y-30480000D03*
%TO.P,U4,8,GND*%
%TO.N,GND*%
X53315000Y-30480000D03*
%TO.P,U4,9,~{PE}*%
%TO.N,/load*%
X53315000Y-38100000D03*
%TO.P,U4,10,CP*%
%TO.N,/clk*%
X55855000Y-38100000D03*
%TO.P,U4,11,~{Q3}*%
%TO.N,unconnected-(U4-~{Q3}-Pad11)*%
X58395000Y-38100000D03*
%TO.P,U4,12,Q3*%
%TO.N,/s_out*%
X60935000Y-38100000D03*
%TO.P,U4,13,Q2*%
%TO.N,Net-(U4-Q2)*%
X63475000Y-38100000D03*
%TO.P,U4,14,Q1*%
%TO.N,Net-(U4-Q1)*%
X66015000Y-38100000D03*
%TO.P,U4,15,Q0*%
%TO.N,Net-(U4-Q0)*%
X68555000Y-38100000D03*
%TO.P,U4,16,VCC*%
%TO.N,VCC*%
X71095000Y-38100000D03*
%TD*%
D12*
%TO.P,U2,1,~{MR}*%
%TO.N,/clear*%
X71120000Y-20320000D03*
D13*
%TO.P,U2,2,J*%
%TO.N,/s_in*%
X68580000Y-20320000D03*
%TO.P,U2,3,~{K}*%
X66040000Y-20320000D03*
%TO.P,U2,4,P0*%
%TO.N,Net-(U1-S0_n)*%
X63500000Y-20320000D03*
%TO.P,U2,5,P1*%
%TO.N,Net-(U1-S1_n)*%
X60960000Y-20320000D03*
%TO.P,U2,6,P2*%
%TO.N,Net-(U1-S2_n)*%
X58420000Y-20320000D03*
%TO.P,U2,7,P3*%
%TO.N,Net-(U1-S3_n)*%
X55880000Y-20320000D03*
%TO.P,U2,8,GND*%
%TO.N,GND*%
X53340000Y-20320000D03*
%TO.P,U2,9,~{PE}*%
%TO.N,/load*%
X53340000Y-27940000D03*
%TO.P,U2,10,CP*%
%TO.N,/clk*%
X55880000Y-27940000D03*
%TO.P,U2,11,~{Q3}*%
%TO.N,unconnected-(U2-~{Q3}-Pad11)*%
X58420000Y-27940000D03*
%TO.P,U2,12,Q3*%
%TO.N,Net-(U2-Q3)*%
X60960000Y-27940000D03*
%TO.P,U2,13,Q2*%
%TO.N,Net-(U2-Q2)*%
X63500000Y-27940000D03*
%TO.P,U2,14,Q1*%
%TO.N,Net-(U2-Q1)*%
X66040000Y-27940000D03*
%TO.P,U2,15,Q0*%
%TO.N,Net-(U2-Q0)*%
X68580000Y-27940000D03*
%TO.P,U2,16,VCC*%
%TO.N,VCC*%
X71120000Y-27940000D03*
%TD*%
D14*
%TO.P,C2,1*%
%TO.N,VCC*%
X73660000Y-27940000D03*
%TO.P,C2,2*%
%TO.N,GND*%
X73660000Y-30440000D03*
%TD*%
D12*
%TO.P,U1,1,A0*%
%TO.N,/addr_0*%
X48260000Y-20320000D03*
D13*
%TO.P,U1,2,~CS*%
%TO.N,GND*%
X45720000Y-20320000D03*
%TO.P,U1,3,~WE*%
%TO.N,/write*%
X43180000Y-20320000D03*
%TO.P,U1,4,D0*%
%TO.N,Net-(J1-Pin_1)*%
X40640000Y-20320000D03*
%TO.P,U1,5,S0_n*%
%TO.N,Net-(U1-S0_n)*%
X38100000Y-20320000D03*
%TO.P,U1,6,D1*%
%TO.N,Net-(J1-Pin_2)*%
X35560000Y-20320000D03*
%TO.P,U1,7,S1_n*%
%TO.N,Net-(U1-S1_n)*%
X33020000Y-20320000D03*
%TO.P,U1,8,GND*%
%TO.N,GND*%
X30480000Y-20320000D03*
%TO.P,U1,9,S2_n*%
%TO.N,Net-(U1-S2_n)*%
X30480000Y-27940000D03*
%TO.P,U1,10,D2*%
%TO.N,Net-(J1-Pin_3)*%
X33020000Y-27940000D03*
%TO.P,U1,11,S3_n*%
%TO.N,Net-(U1-S3_n)*%
X35560000Y-27940000D03*
%TO.P,U1,12,D3*%
%TO.N,Net-(J1-Pin_4)*%
X38100000Y-27940000D03*
%TO.P,U1,13,A3*%
%TO.N,/addr_3*%
X40640000Y-27940000D03*
%TO.P,U1,14,A2*%
%TO.N,/addr_2*%
X43180000Y-27940000D03*
%TO.P,U1,15,A1*%
%TO.N,/addr_1*%
X45720000Y-27940000D03*
%TO.P,U1,16,VCC*%
%TO.N,VCC*%
X48260000Y-27940000D03*
%TD*%
D10*
%TO.P,J3,1,Pin_1*%
%TO.N,/s_in*%
X66040000Y-17780000D03*
D11*
%TO.P,J3,2,Pin_2*%
X68580000Y-17780000D03*
%TD*%
D10*
%TO.P,J1,1,Pin_1*%
%TO.N,Net-(J1-Pin_1)*%
X15240000Y-20320000D03*
D11*
%TO.P,J1,2,Pin_2*%
%TO.N,Net-(J1-Pin_2)*%
X15240000Y-22860000D03*
%TO.P,J1,3,Pin_3*%
%TO.N,Net-(J1-Pin_3)*%
X15240000Y-25400000D03*
%TO.P,J1,4,Pin_4*%
%TO.N,Net-(J1-Pin_4)*%
X15240000Y-27940000D03*
%TO.P,J1,5,Pin_5*%
%TO.N,Net-(J1-Pin_5)*%
X15240000Y-30480000D03*
%TO.P,J1,6,Pin_6*%
%TO.N,Net-(J1-Pin_6)*%
X15240000Y-33020000D03*
%TO.P,J1,7,Pin_7*%
%TO.N,Net-(J1-Pin_7)*%
X15240000Y-35560000D03*
%TO.P,J1,8,Pin_8*%
%TO.N,Net-(J1-Pin_8)*%
X15240000Y-38100000D03*
%TD*%
D15*
%TO.N,GND*%
X50800000Y-34925000D03*
X56515000Y-34925000D03*
X53340000Y-35560000D03*
X71120000Y-17780000D03*
X45720000Y-34925000D03*
X74930000Y-34290000D03*
X63500000Y-17780000D03*
%TO.N,Net-(J1-Pin_2)*%
X35579818Y-23157276D03*
%TO.N,Net-(J1-Pin_3)*%
X33102516Y-25129208D03*
%TO.N,Net-(J1-Pin_6)*%
X35574863Y-33272684D03*
%TO.N,Net-(J1-Pin_7)*%
X33033151Y-35353618D03*
%TO.N,/addr_3*%
X40679888Y-24804888D03*
%TO.N,/addr_2*%
X43175856Y-24789500D03*
%TO.N,/addr_1*%
X45720000Y-25389500D03*
%TO.N,/addr_0*%
X47060000Y-26035000D03*
%TO.N,/write*%
X44450000Y-26035000D03*
%TO.N,/load*%
X52115000Y-34290000D03*
%TO.N,/clear*%
X71120000Y-33020000D03*
%TO.N,Net-(U1-S0_n)*%
X38100000Y-25400000D03*
%TO.N,Net-(U1-S1_n)*%
X31830084Y-24337282D03*
%TO.N,Net-(U1-S2_n)*%
X30480000Y-24130000D03*
%TO.N,Net-(U1-S3_n)*%
X36574516Y-23059397D03*
%TO.N,Net-(U3-S0_n)*%
X38100000Y-36195000D03*
%TO.N,Net-(U3-S1_n)*%
X31762341Y-34517911D03*
%TO.N,Net-(U3-S2_n)*%
X30480000Y-34290000D03*
%TO.N,Net-(U3-S3_n)*%
X36830000Y-33252671D03*
%TD*%
D16*
%TO.N,VCC*%
X81280000Y-40640000D02*
X73635000Y-40640000D01*
X73635000Y-40640000D02*
X71095000Y-38100000D01*
X73660000Y-27940000D02*
X71120000Y-27940000D01*
X69895000Y-39300000D02*
X49460000Y-39300000D01*
X49460000Y-39300000D02*
X48260000Y-38100000D01*
X71095000Y-38100000D02*
X69895000Y-39300000D01*
%TO.N,GND*%
X69870000Y-19030000D02*
X71120000Y-17780000D01*
X49640000Y-29280000D02*
X46920000Y-29280000D01*
X51435000Y-35560000D02*
X50800000Y-34925000D01*
X46920000Y-29280000D02*
X45720000Y-30480000D01*
X64750000Y-19030000D02*
X69870000Y-19030000D01*
X53340000Y-35560000D02*
X51435000Y-35560000D01*
X53275000Y-30440000D02*
X53315000Y-30480000D01*
X63500000Y-17780000D02*
X64750000Y-19030000D01*
X53975000Y-34925000D02*
X53340000Y-35560000D01*
X50800000Y-30440000D02*
X53275000Y-30440000D01*
X74930000Y-34290000D02*
X74295000Y-34925000D01*
X50800000Y-34925000D02*
X45720000Y-34925000D01*
X74295000Y-34925000D02*
X53975000Y-34925000D01*
X50800000Y-30440000D02*
X49640000Y-29280000D01*
%TO.N,Net-(J1-Pin_1)*%
X15240000Y-20320000D02*
X17145000Y-22225000D01*
X17145000Y-22225000D02*
X38735000Y-22225000D01*
X38735000Y-22225000D02*
X40640000Y-20320000D01*
%TO.N,Net-(J1-Pin_2)*%
X35579818Y-23157276D02*
X35560000Y-22860000D01*
X15240000Y-22860000D02*
X35560000Y-22860000D01*
%TO.N,Net-(J1-Pin_3)*%
X33102516Y-25129208D02*
X33020000Y-25400000D01*
X33102516Y-25317484D02*
X33102516Y-25129208D01*
X15240000Y-25400000D02*
X32831724Y-25400000D01*
X32831724Y-25400000D02*
X33102516Y-25129208D01*
X33020000Y-25400000D02*
X33102516Y-25317484D01*
%TO.N,Net-(J1-Pin_4)*%
X17180000Y-26000000D02*
X36160000Y-26000000D01*
X36160000Y-26000000D02*
X38100000Y-27940000D01*
X15240000Y-27940000D02*
X17180000Y-26000000D01*
%TO.N,Net-(J1-Pin_5)*%
X15261186Y-30513171D02*
X17201186Y-32453171D01*
X38721186Y-32453171D02*
X40661186Y-30513171D01*
X17201186Y-32453171D02*
X38721186Y-32453171D01*
%TO.N,Net-(J1-Pin_6)*%
X35574863Y-33272684D02*
X35581186Y-33053171D01*
X15261186Y-33053171D02*
X35355350Y-33053171D01*
X35355350Y-33053171D02*
X35574863Y-33272684D01*
%TO.N,Net-(J1-Pin_7)*%
X15261186Y-35593171D02*
X32793598Y-35593171D01*
X33033151Y-35353618D02*
X33041186Y-35593171D01*
X32793598Y-35593171D02*
X33033151Y-35353618D01*
%TO.N,Net-(J1-Pin_8)*%
X15261186Y-38133171D02*
X17201186Y-36193171D01*
X17201186Y-36193171D02*
X36181186Y-36193171D01*
X36181186Y-36193171D02*
X38121186Y-38133171D01*
%TO.N,/addr_3*%
X40679888Y-24804888D02*
X41494776Y-23990000D01*
X75070000Y-23990000D02*
X81280000Y-17780000D01*
X41494776Y-23990000D02*
X75070000Y-23990000D01*
%TO.N,/addr_2*%
X43175856Y-24789500D02*
X43375356Y-24590000D01*
X77010000Y-24590000D02*
X81280000Y-20320000D01*
X43375356Y-24590000D02*
X77010000Y-24590000D01*
%TO.N,/addr_1*%
X78950000Y-25190000D02*
X81280000Y-22860000D01*
X45919500Y-25190000D02*
X78950000Y-25190000D01*
X45720000Y-25389500D02*
X45919500Y-25190000D01*
%TO.N,/addr_0*%
X80645000Y-24765000D02*
X81280000Y-25400000D01*
X47305000Y-25790000D02*
X79198528Y-25790000D01*
X80223528Y-24765000D02*
X80645000Y-24765000D01*
X79198528Y-25790000D02*
X80223528Y-24765000D01*
X47060000Y-26035000D02*
X47305000Y-25790000D01*
%TO.N,/write*%
X45918994Y-26233994D02*
X44648994Y-26233994D01*
X81280000Y-27940000D02*
X80080000Y-26740000D01*
X46520000Y-26835000D02*
X45918994Y-26233994D01*
X80080000Y-26740000D02*
X47762943Y-26740000D01*
X47762943Y-26740000D02*
X47667943Y-26835000D01*
X44648994Y-26233994D02*
X44450000Y-26035000D01*
X47667943Y-26835000D02*
X46520000Y-26835000D01*
%TO.N,/load*%
X63053528Y-31750000D02*
X72390000Y-31750000D01*
X60723528Y-34080000D02*
X63053528Y-31750000D01*
X52325000Y-34080000D02*
X60723528Y-34080000D01*
X80120000Y-31640000D02*
X81280000Y-30480000D01*
X52115000Y-34290000D02*
X52325000Y-34080000D01*
X72500000Y-31640000D02*
X80120000Y-31640000D01*
X72390000Y-31750000D02*
X72500000Y-31640000D01*
%TO.N,/clear*%
X81280000Y-33020000D02*
X78740000Y-33020000D01*
X78740000Y-33020000D02*
X71120000Y-33020000D01*
%TO.N,/clk*%
X78740000Y-35560000D02*
X58395000Y-35560000D01*
X58395000Y-35560000D02*
X55855000Y-38100000D01*
X81280000Y-35560000D02*
X78740000Y-35560000D01*
%TO.N,/s_in*%
X66040000Y-17780000D02*
X68580000Y-17780000D01*
%TO.N,/s_out*%
X60960000Y-40640000D02*
X63500000Y-40640000D01*
%TO.N,Net-(U2-Q3)*%
X62300000Y-29280000D02*
X66040000Y-29280000D01*
X66040000Y-29280000D02*
X67355000Y-29280000D01*
X67355000Y-29280000D02*
X68555000Y-30480000D01*
X66015000Y-29305000D02*
X66040000Y-29280000D01*
X66015000Y-30480000D02*
X66015000Y-29305000D01*
X60960000Y-27940000D02*
X62300000Y-29280000D01*
%TO.N,Net-(U1-S0_n)*%
X40964112Y-23390000D02*
X38954112Y-25400000D01*
X60430000Y-23390000D02*
X40964112Y-23390000D01*
X38954112Y-25400000D02*
X38100000Y-25400000D01*
X63500000Y-20320000D02*
X60430000Y-23390000D01*
%TO.N,Net-(U1-S1_n)*%
X33234679Y-24130000D02*
X32037366Y-24130000D01*
X32037366Y-24130000D02*
X31830084Y-24337282D01*
X58490000Y-22790000D02*
X40715584Y-22790000D01*
X33661955Y-24557276D02*
X33234679Y-24130000D01*
X38948308Y-24557276D02*
X33661955Y-24557276D01*
X31830084Y-24337282D02*
X31750000Y-24130000D01*
X60960000Y-20320000D02*
X58490000Y-22790000D01*
X40715584Y-22790000D02*
X38948308Y-24557276D01*
%TO.N,Net-(U1-S2_n)*%
X31150000Y-23460000D02*
X30480000Y-24130000D01*
X56550000Y-22190000D02*
X40467056Y-22190000D01*
X38699780Y-23957276D02*
X35248447Y-23957276D01*
X58420000Y-20320000D02*
X56550000Y-22190000D01*
X35248447Y-23957276D02*
X34751171Y-23460000D01*
X40467056Y-22190000D02*
X38699780Y-23957276D01*
X34751171Y-23460000D02*
X31150000Y-23460000D01*
%TO.N,Net-(U1-S3_n)*%
X54610000Y-21590000D02*
X55880000Y-20320000D01*
X40218528Y-21590000D02*
X54610000Y-21590000D01*
X36574516Y-23059397D02*
X38749131Y-23059397D01*
X38749131Y-23059397D02*
X40218528Y-21590000D01*
%TO.N,Net-(U3-S0_n)*%
X38373469Y-36195000D02*
X38100000Y-36195000D01*
X63475000Y-30480000D02*
X60475000Y-33480000D01*
X41088469Y-33480000D02*
X38373469Y-36195000D01*
X60475000Y-33480000D02*
X41088469Y-33480000D01*
%TO.N,Net-(U3-S1_n)*%
X60935000Y-30480000D02*
X58535000Y-32880000D01*
X39047257Y-34672684D02*
X34037684Y-34672684D01*
X58535000Y-32880000D02*
X40839941Y-32880000D01*
X40839941Y-32880000D02*
X39047257Y-34672684D01*
X33882911Y-34517911D02*
X31762341Y-34517911D01*
X34037684Y-34672684D02*
X33882911Y-34517911D01*
%TO.N,Net-(U3-S2_n)*%
X38798729Y-34072684D02*
X35243492Y-34072684D01*
X58395000Y-30480000D02*
X56595000Y-32280000D01*
X31116829Y-33653171D02*
X30480000Y-34290000D01*
X35243492Y-34072684D02*
X34823979Y-33653171D01*
X56595000Y-32280000D02*
X40591413Y-32280000D01*
X34823979Y-33653171D02*
X31116829Y-33653171D01*
X40591413Y-32280000D02*
X38798729Y-34072684D01*
%TO.N,Net-(U3-S3_n)*%
X38969714Y-33053171D02*
X40342885Y-31680000D01*
X54655000Y-31680000D02*
X55855000Y-30480000D01*
X37029500Y-33053171D02*
X38969714Y-33053171D01*
X40342885Y-31680000D02*
X54655000Y-31680000D01*
X36830000Y-33252671D02*
X37029500Y-33053171D01*
%TD*%
%TA.AperFunction,Conductor*%
%TO.N,GND*%
G36*
X77332540Y-36280185D02*
G01*
X77378295Y-36332989D01*
X77389501Y-36384500D01*
X77389501Y-36457876D01*
X77395908Y-36517483D01*
X77446202Y-36652328D01*
X77446206Y-36652335D01*
X77532452Y-36767544D01*
X77532455Y-36767547D01*
X77647664Y-36853793D01*
X77647671Y-36853797D01*
X77782517Y-36904091D01*
X77782516Y-36904091D01*
X77789444Y-36904835D01*
X77842127Y-36910500D01*
X79637872Y-36910499D01*
X79697483Y-36904091D01*
X79832331Y-36853796D01*
X79947546Y-36767546D01*
X80033796Y-36652331D01*
X80082810Y-36520916D01*
X80124681Y-36464984D01*
X80190145Y-36440566D01*
X80258418Y-36455417D01*
X80286673Y-36476569D01*
X80408597Y-36598493D01*
X80408603Y-36598498D01*
X80594594Y-36728730D01*
X80638219Y-36783307D01*
X80645413Y-36852805D01*
X80613890Y-36915160D01*
X80594595Y-36931880D01*
X80408922Y-37061890D01*
X80408920Y-37061891D01*
X80241891Y-37228920D01*
X80241886Y-37228926D01*
X80106400Y-37422420D01*
X80106399Y-37422422D01*
X80006570Y-37636507D01*
X80006567Y-37636513D01*
X79949364Y-37849999D01*
X79949364Y-37850000D01*
X80846314Y-37850000D01*
X80820507Y-37890156D01*
X80780000Y-38028111D01*
X80780000Y-38171889D01*
X80820507Y-38309844D01*
X80846314Y-38350000D01*
X79949364Y-38350000D01*
X80006567Y-38563486D01*
X80006570Y-38563492D01*
X80106399Y-38777578D01*
X80241894Y-38971082D01*
X80408917Y-39138105D01*
X80594595Y-39268119D01*
X80638219Y-39322696D01*
X80645412Y-39392195D01*
X80613890Y-39454549D01*
X80594595Y-39471269D01*
X80408594Y-39601508D01*
X80241506Y-39768596D01*
X80158864Y-39886623D01*
X80104287Y-39930248D01*
X80057289Y-39939500D01*
X73976519Y-39939500D01*
X73909480Y-39919815D01*
X73888838Y-39903181D01*
X72416027Y-38430370D01*
X72382542Y-38369047D01*
X72380180Y-38331881D01*
X72380633Y-38326697D01*
X72380635Y-38326692D01*
X72400468Y-38100000D01*
X72380635Y-37873308D01*
X72321739Y-37653504D01*
X72225568Y-37447266D01*
X72113469Y-37287171D01*
X72095045Y-37260858D01*
X71934141Y-37099954D01*
X71747734Y-36969432D01*
X71747732Y-36969431D01*
X71541497Y-36873261D01*
X71541488Y-36873258D01*
X71321697Y-36814366D01*
X71321693Y-36814365D01*
X71321692Y-36814365D01*
X71321691Y-36814364D01*
X71321686Y-36814364D01*
X71095002Y-36794532D01*
X71094998Y-36794532D01*
X70868313Y-36814364D01*
X70868302Y-36814366D01*
X70648511Y-36873258D01*
X70648502Y-36873261D01*
X70442267Y-36969431D01*
X70442265Y-36969432D01*
X70255858Y-37099954D01*
X70094954Y-37260858D01*
X69964432Y-37447265D01*
X69964431Y-37447267D01*
X69937382Y-37505275D01*
X69891209Y-37557714D01*
X69824016Y-37576866D01*
X69757135Y-37556650D01*
X69712618Y-37505275D01*
X69685568Y-37447267D01*
X69685567Y-37447265D01*
X69555045Y-37260858D01*
X69394141Y-37099954D01*
X69207734Y-36969432D01*
X69207732Y-36969431D01*
X69001497Y-36873261D01*
X69001488Y-36873258D01*
X68781697Y-36814366D01*
X68781693Y-36814365D01*
X68781692Y-36814365D01*
X68781691Y-36814364D01*
X68781686Y-36814364D01*
X68555002Y-36794532D01*
X68554998Y-36794532D01*
X68328313Y-36814364D01*
X68328302Y-36814366D01*
X68108511Y-36873258D01*
X68108502Y-36873261D01*
X67902267Y-36969431D01*
X67902265Y-36969432D01*
X67715858Y-37099954D01*
X67554954Y-37260858D01*
X67424432Y-37447265D01*
X67424431Y-37447267D01*
X67397382Y-37505275D01*
X67351209Y-37557714D01*
X67284016Y-37576866D01*
X67217135Y-37556650D01*
X67172618Y-37505275D01*
X67145568Y-37447267D01*
X67145567Y-37447265D01*
X67015045Y-37260858D01*
X66854141Y-37099954D01*
X66667734Y-36969432D01*
X66667732Y-36969431D01*
X66461497Y-36873261D01*
X66461488Y-36873258D01*
X66241697Y-36814366D01*
X66241693Y-36814365D01*
X66241692Y-36814365D01*
X66241691Y-36814364D01*
X66241686Y-36814364D01*
X66015002Y-36794532D01*
X66014998Y-36794532D01*
X65788313Y-36814364D01*
X65788302Y-36814366D01*
X65568511Y-36873258D01*
X65568502Y-36873261D01*
X65362267Y-36969431D01*
X65362265Y-36969432D01*
X65175858Y-37099954D01*
X65014954Y-37260858D01*
X64884432Y-37447265D01*
X64884431Y-37447267D01*
X64857382Y-37505275D01*
X64811209Y-37557714D01*
X64744016Y-37576866D01*
X64677135Y-37556650D01*
X64632618Y-37505275D01*
X64605568Y-37447267D01*
X64605567Y-37447265D01*
X64475045Y-37260858D01*
X64314141Y-37099954D01*
X64127734Y-36969432D01*
X64127732Y-36969431D01*
X63921497Y-36873261D01*
X63921488Y-36873258D01*
X63701697Y-36814366D01*
X63701693Y-36814365D01*
X63701692Y-36814365D01*
X63701691Y-36814364D01*
X63701686Y-36814364D01*
X63475002Y-36794532D01*
X63474998Y-36794532D01*
X63248313Y-36814364D01*
X63248302Y-36814366D01*
X63028511Y-36873258D01*
X63028502Y-36873261D01*
X62822267Y-36969431D01*
X62822265Y-36969432D01*
X62635858Y-37099954D01*
X62474954Y-37260858D01*
X62344432Y-37447265D01*
X62344431Y-37447267D01*
X62317382Y-37505275D01*
X62271209Y-37557714D01*
X62204016Y-37576866D01*
X62137135Y-37556650D01*
X62092618Y-37505275D01*
X62065568Y-37447267D01*
X62065567Y-37447265D01*
X61935045Y-37260858D01*
X61774141Y-37099954D01*
X61587734Y-36969432D01*
X61587732Y-36969431D01*
X61381497Y-36873261D01*
X61381488Y-36873258D01*
X61161697Y-36814366D01*
X61161693Y-36814365D01*
X61161692Y-36814365D01*
X61161691Y-36814364D01*
X61161686Y-36814364D01*
X60935002Y-36794532D01*
X60934998Y-36794532D01*
X60708313Y-36814364D01*
X60708302Y-36814366D01*
X60488511Y-36873258D01*
X60488502Y-36873261D01*
X60282267Y-36969431D01*
X60282265Y-36969432D01*
X60095858Y-37099954D01*
X59934954Y-37260858D01*
X59804432Y-37447265D01*
X59804431Y-37447267D01*
X59777382Y-37505275D01*
X59731209Y-37557714D01*
X59664016Y-37576866D01*
X59597135Y-37556650D01*
X59552618Y-37505275D01*
X59525568Y-37447267D01*
X59525567Y-37447265D01*
X59395045Y-37260858D01*
X59234141Y-37099954D01*
X59047734Y-36969432D01*
X59047732Y-36969431D01*
X58841497Y-36873261D01*
X58841488Y-36873258D01*
X58621697Y-36814366D01*
X58621687Y-36814364D01*
X58435650Y-36798088D01*
X58370582Y-36772635D01*
X58329603Y-36716044D01*
X58325725Y-36646282D01*
X58358777Y-36586879D01*
X58424740Y-36520917D01*
X58648837Y-36296819D01*
X58710161Y-36263334D01*
X58736519Y-36260500D01*
X77265501Y-36260500D01*
X77332540Y-36280185D01*
G37*
%TD.AperFunction*%
%TA.AperFunction,Conductor*%
G36*
X51153420Y-34200185D02*
G01*
X51199175Y-34252989D01*
X51209701Y-34291535D01*
X51229326Y-34478256D01*
X51229327Y-34478259D01*
X51287818Y-34658277D01*
X51287820Y-34658281D01*
X51287821Y-34658284D01*
X51382467Y-34822216D01*
X51463781Y-34912524D01*
X51509129Y-34962888D01*
X51662265Y-35074148D01*
X51662270Y-35074151D01*
X51835192Y-35151142D01*
X51835197Y-35151144D01*
X52020354Y-35190500D01*
X52020355Y-35190500D01*
X52209644Y-35190500D01*
X52209646Y-35190500D01*
X52394803Y-35151144D01*
X52567730Y-35074151D01*
X52720871Y-34962888D01*
X52847533Y-34822216D01*
X52847533Y-34822214D01*
X52848152Y-34821528D01*
X52907639Y-34784879D01*
X52940302Y-34780500D01*
X57893236Y-34780500D01*
X57960275Y-34800185D01*
X58006030Y-34852989D01*
X58015974Y-34922147D01*
X57986949Y-34985703D01*
X57963677Y-35006549D01*
X57927075Y-35031813D01*
X57927065Y-35031822D01*
X57885942Y-35078240D01*
X57883375Y-35080966D01*
X56185369Y-36778972D01*
X56124046Y-36812457D01*
X56086881Y-36814819D01*
X56081680Y-36814364D01*
X56062171Y-36812657D01*
X55855002Y-36794532D01*
X55854998Y-36794532D01*
X55628313Y-36814364D01*
X55628302Y-36814366D01*
X55408511Y-36873258D01*
X55408502Y-36873261D01*
X55202267Y-36969431D01*
X55202265Y-36969432D01*
X55015858Y-37099954D01*
X54854954Y-37260858D01*
X54724432Y-37447265D01*
X54724431Y-37447267D01*
X54697382Y-37505275D01*
X54651209Y-37557714D01*
X54584016Y-37576866D01*
X54517135Y-37556650D01*
X54472618Y-37505275D01*
X54445568Y-37447267D01*
X54445567Y-37447265D01*
X54315045Y-37260858D01*
X54154141Y-37099954D01*
X53967734Y-36969432D01*
X53967732Y-36969431D01*
X53761497Y-36873261D01*
X53761488Y-36873258D01*
X53541697Y-36814366D01*
X53541693Y-36814365D01*
X53541692Y-36814365D01*
X53541691Y-36814364D01*
X53541686Y-36814364D01*
X53315002Y-36794532D01*
X53314998Y-36794532D01*
X53088313Y-36814364D01*
X53088302Y-36814366D01*
X52868511Y-36873258D01*
X52868502Y-36873261D01*
X52662267Y-36969431D01*
X52662265Y-36969432D01*
X52475858Y-37099954D01*
X52314954Y-37260858D01*
X52184432Y-37447265D01*
X52184431Y-37447267D01*
X52088261Y-37653502D01*
X52088258Y-37653511D01*
X52029366Y-37873302D01*
X52029364Y-37873313D01*
X52009532Y-38099998D01*
X52009532Y-38100001D01*
X52029364Y-38326686D01*
X52029366Y-38326697D01*
X52060638Y-38443407D01*
X52058975Y-38513257D01*
X52019812Y-38571119D01*
X51955583Y-38598623D01*
X51940863Y-38599500D01*
X49801519Y-38599500D01*
X49734480Y-38579815D01*
X49713838Y-38563181D01*
X49581027Y-38430370D01*
X49547542Y-38369047D01*
X49545180Y-38331881D01*
X49545633Y-38326697D01*
X49545635Y-38326692D01*
X49565468Y-38100000D01*
X49545635Y-37873308D01*
X49486739Y-37653504D01*
X49390568Y-37447266D01*
X49278469Y-37287171D01*
X49260045Y-37260858D01*
X49099141Y-37099954D01*
X48912734Y-36969432D01*
X48912732Y-36969431D01*
X48706497Y-36873261D01*
X48706488Y-36873258D01*
X48486697Y-36814366D01*
X48486693Y-36814365D01*
X48486692Y-36814365D01*
X48486691Y-36814364D01*
X48486686Y-36814364D01*
X48260002Y-36794532D01*
X48259998Y-36794532D01*
X48033313Y-36814364D01*
X48033302Y-36814366D01*
X47813511Y-36873258D01*
X47813502Y-36873261D01*
X47607267Y-36969431D01*
X47607265Y-36969432D01*
X47420858Y-37099954D01*
X47259954Y-37260858D01*
X47129432Y-37447265D01*
X47129431Y-37447267D01*
X47102382Y-37505275D01*
X47056209Y-37557714D01*
X46989016Y-37576866D01*
X46922135Y-37556650D01*
X46877618Y-37505275D01*
X46850568Y-37447267D01*
X46850567Y-37447265D01*
X46720045Y-37260858D01*
X46559141Y-37099954D01*
X46372734Y-36969432D01*
X46372732Y-36969431D01*
X46166497Y-36873261D01*
X46166488Y-36873258D01*
X45946697Y-36814366D01*
X45946693Y-36814365D01*
X45946692Y-36814365D01*
X45946691Y-36814364D01*
X45946686Y-36814364D01*
X45720002Y-36794532D01*
X45719998Y-36794532D01*
X45493313Y-36814364D01*
X45493302Y-36814366D01*
X45273511Y-36873258D01*
X45273502Y-36873261D01*
X45067267Y-36969431D01*
X45067265Y-36969432D01*
X44880858Y-37099954D01*
X44719954Y-37260858D01*
X44589432Y-37447265D01*
X44589431Y-37447267D01*
X44562382Y-37505275D01*
X44516209Y-37557714D01*
X44449016Y-37576866D01*
X44382135Y-37556650D01*
X44337618Y-37505275D01*
X44310568Y-37447267D01*
X44310567Y-37447265D01*
X44180045Y-37260858D01*
X44019141Y-37099954D01*
X43832734Y-36969432D01*
X43832732Y-36969431D01*
X43626497Y-36873261D01*
X43626488Y-36873258D01*
X43406697Y-36814366D01*
X43406693Y-36814365D01*
X43406692Y-36814365D01*
X43406691Y-36814364D01*
X43406686Y-36814364D01*
X43180002Y-36794532D01*
X43179998Y-36794532D01*
X42953313Y-36814364D01*
X42953302Y-36814366D01*
X42733511Y-36873258D01*
X42733502Y-36873261D01*
X42527267Y-36969431D01*
X42527265Y-36969432D01*
X42340858Y-37099954D01*
X42179954Y-37260858D01*
X42049432Y-37447265D01*
X42049431Y-37447267D01*
X42022382Y-37505275D01*
X41976209Y-37557714D01*
X41909016Y-37576866D01*
X41842135Y-37556650D01*
X41797618Y-37505275D01*
X41770568Y-37447267D01*
X41770567Y-37447265D01*
X41640045Y-37260858D01*
X41479141Y-37099954D01*
X41292734Y-36969432D01*
X41292732Y-36969431D01*
X41086497Y-36873261D01*
X41086488Y-36873258D01*
X40866697Y-36814366D01*
X40866693Y-36814365D01*
X40866692Y-36814365D01*
X40866691Y-36814364D01*
X40866686Y-36814364D01*
X40640002Y-36794532D01*
X40639998Y-36794532D01*
X40413313Y-36814364D01*
X40413302Y-36814366D01*
X40193511Y-36873258D01*
X40193502Y-36873261D01*
X39987267Y-36969431D01*
X39987265Y-36969432D01*
X39800858Y-37099954D01*
X39639954Y-37260858D01*
X39509432Y-37447265D01*
X39509431Y-37447267D01*
X39482382Y-37505275D01*
X39436209Y-37557714D01*
X39369016Y-37576866D01*
X39302135Y-37556650D01*
X39257618Y-37505275D01*
X39230568Y-37447267D01*
X39230567Y-37447265D01*
X39100045Y-37260858D01*
X38939141Y-37099954D01*
X38782725Y-36990432D01*
X38739100Y-36935856D01*
X38731906Y-36866357D01*
X38761697Y-36805886D01*
X38817833Y-36743540D01*
X38839540Y-36724465D01*
X38841398Y-36723183D01*
X38882550Y-36676730D01*
X38885068Y-36674056D01*
X41342306Y-34216819D01*
X41403630Y-34183334D01*
X41429988Y-34180500D01*
X51086381Y-34180500D01*
X51153420Y-34200185D01*
G37*
%TD.AperFunction*%
%TA.AperFunction,Conductor*%
G36*
X70261258Y-32470185D02*
G01*
X70307013Y-32522989D01*
X70316957Y-32592147D01*
X70301607Y-32636499D01*
X70292820Y-32651718D01*
X70292818Y-32651722D01*
X70234327Y-32831740D01*
X70234326Y-32831744D01*
X70214540Y-33020000D01*
X70234326Y-33208256D01*
X70234327Y-33208259D01*
X70292818Y-33388277D01*
X70292821Y-33388284D01*
X70387467Y-33552216D01*
X70514129Y-33692887D01*
X70514129Y-33692888D01*
X70667265Y-33804148D01*
X70667270Y-33804151D01*
X70840192Y-33881142D01*
X70840197Y-33881144D01*
X71025354Y-33920500D01*
X71025355Y-33920500D01*
X71214644Y-33920500D01*
X71214646Y-33920500D01*
X71399803Y-33881144D01*
X71572730Y-33804151D01*
X71642210Y-33753671D01*
X71655271Y-33744182D01*
X71721077Y-33720702D01*
X71728156Y-33720500D01*
X77517289Y-33720500D01*
X77584328Y-33740185D01*
X77618864Y-33773377D01*
X77701503Y-33891399D01*
X77701504Y-33891400D01*
X77701505Y-33891401D01*
X77823431Y-34013327D01*
X77856915Y-34074648D01*
X77851931Y-34144340D01*
X77810060Y-34200274D01*
X77779083Y-34217189D01*
X77647669Y-34266203D01*
X77647664Y-34266206D01*
X77532455Y-34352452D01*
X77532452Y-34352455D01*
X77446206Y-34467664D01*
X77446202Y-34467671D01*
X77395908Y-34602517D01*
X77389501Y-34662116D01*
X77389500Y-34662135D01*
X77389500Y-34735500D01*
X77369815Y-34802539D01*
X77317011Y-34848294D01*
X77265500Y-34859500D01*
X61225291Y-34859500D01*
X61158252Y-34839815D01*
X61112497Y-34787011D01*
X61102553Y-34717853D01*
X61131578Y-34654297D01*
X61154851Y-34633450D01*
X61165725Y-34625944D01*
X61191457Y-34608183D01*
X61232593Y-34561748D01*
X61235127Y-34559056D01*
X63307364Y-32486818D01*
X63368688Y-32453334D01*
X63395046Y-32450500D01*
X70194219Y-32450500D01*
X70261258Y-32470185D01*
G37*
%TD.AperFunction*%
%TA.AperFunction,Conductor*%
G36*
X29656597Y-26720185D02*
G01*
X29702352Y-26772989D01*
X29712296Y-26842147D01*
X29683271Y-26905703D01*
X29660680Y-26926076D01*
X29640857Y-26939955D01*
X29479954Y-27100858D01*
X29349432Y-27287265D01*
X29349431Y-27287267D01*
X29253261Y-27493502D01*
X29253258Y-27493511D01*
X29194366Y-27713302D01*
X29194364Y-27713313D01*
X29174532Y-27939998D01*
X29174532Y-27940001D01*
X29194364Y-28166686D01*
X29194366Y-28166697D01*
X29253258Y-28386488D01*
X29253261Y-28386497D01*
X29349431Y-28592732D01*
X29349432Y-28592734D01*
X29479954Y-28779141D01*
X29640858Y-28940045D01*
X29668787Y-28959601D01*
X29827266Y-29070568D01*
X29885865Y-29097893D01*
X29938305Y-29144065D01*
X29957457Y-29211258D01*
X29937242Y-29278139D01*
X29885867Y-29322657D01*
X29827515Y-29349867D01*
X29641179Y-29480342D01*
X29480342Y-29641179D01*
X29349865Y-29827517D01*
X29253734Y-30033673D01*
X29253730Y-30033682D01*
X29201127Y-30229999D01*
X29201128Y-30230000D01*
X30164314Y-30230000D01*
X30152359Y-30241955D01*
X30094835Y-30354852D01*
X30075014Y-30480000D01*
X30094835Y-30605148D01*
X30152359Y-30718045D01*
X30164314Y-30730000D01*
X29201128Y-30730000D01*
X29253730Y-30926317D01*
X29253734Y-30926326D01*
X29349865Y-31132482D01*
X29480342Y-31318820D01*
X29641179Y-31479657D01*
X29708928Y-31527096D01*
X29752553Y-31581673D01*
X29759745Y-31651172D01*
X29728223Y-31713527D01*
X29667993Y-31748940D01*
X29637804Y-31752671D01*
X17542705Y-31752671D01*
X17475666Y-31732986D01*
X17455024Y-31716352D01*
X16600119Y-30861447D01*
X16566634Y-30800124D01*
X16568025Y-30741672D01*
X16575063Y-30715408D01*
X16595659Y-30480000D01*
X16575063Y-30244592D01*
X16513903Y-30016337D01*
X16414035Y-29802171D01*
X16355967Y-29719240D01*
X16278494Y-29608597D01*
X16111402Y-29441506D01*
X16111396Y-29441501D01*
X15925842Y-29311575D01*
X15882217Y-29256998D01*
X15875023Y-29187500D01*
X15906546Y-29125145D01*
X15925842Y-29108425D01*
X15967842Y-29079016D01*
X16111401Y-28978495D01*
X16278495Y-28811401D01*
X16414035Y-28617830D01*
X16513903Y-28403663D01*
X16575063Y-28175408D01*
X16595659Y-27940000D01*
X16575063Y-27704592D01*
X16570558Y-27687778D01*
X16572219Y-27617932D01*
X16602649Y-27568006D01*
X17433837Y-26736819D01*
X17495161Y-26703334D01*
X17521519Y-26700500D01*
X29589558Y-26700500D01*
X29656597Y-26720185D01*
G37*
%TD.AperFunction*%
%TA.AperFunction,Conductor*%
G36*
X79805520Y-27460185D02*
G01*
X79826162Y-27476819D01*
X79917348Y-27568005D01*
X79950833Y-27629328D01*
X79949442Y-27687778D01*
X79944939Y-27704584D01*
X79944936Y-27704597D01*
X79924341Y-27939999D01*
X79924341Y-27940000D01*
X79944936Y-28175403D01*
X79944938Y-28175413D01*
X80006094Y-28403655D01*
X80006096Y-28403659D01*
X80006097Y-28403663D01*
X80067213Y-28534726D01*
X80105965Y-28617830D01*
X80105967Y-28617834D01*
X80241501Y-28811395D01*
X80241506Y-28811402D01*
X80408597Y-28978493D01*
X80408603Y-28978498D01*
X80594158Y-29108425D01*
X80637783Y-29163002D01*
X80644977Y-29232500D01*
X80613454Y-29294855D01*
X80594158Y-29311575D01*
X80408597Y-29441505D01*
X80241505Y-29608597D01*
X80105965Y-29802169D01*
X80105964Y-29802171D01*
X80006098Y-30016335D01*
X80006094Y-30016344D01*
X79944938Y-30244586D01*
X79944936Y-30244596D01*
X79924341Y-30479999D01*
X79924341Y-30480000D01*
X79944937Y-30715408D01*
X79949442Y-30732223D01*
X79947777Y-30802073D01*
X79917349Y-30851992D01*
X79866163Y-30903180D01*
X79804840Y-30936666D01*
X79778480Y-30939500D01*
X75033619Y-30939500D01*
X74966580Y-30919815D01*
X74920825Y-30867011D01*
X74910881Y-30797853D01*
X74913844Y-30783407D01*
X74945139Y-30666609D01*
X74945141Y-30666599D01*
X74964966Y-30440002D01*
X74964966Y-30439997D01*
X74945141Y-30213400D01*
X74945139Y-30213389D01*
X74886269Y-29993682D01*
X74886265Y-29993673D01*
X74790133Y-29787516D01*
X74790131Y-29787512D01*
X74739025Y-29714526D01*
X74057953Y-30395598D01*
X74045165Y-30314852D01*
X73987641Y-30201955D01*
X73898045Y-30112359D01*
X73785148Y-30054835D01*
X73704400Y-30042046D01*
X74385472Y-29360974D01*
X74385471Y-29360973D01*
X74312483Y-29309866D01*
X74312481Y-29309865D01*
X74297023Y-29302657D01*
X74244584Y-29256484D01*
X74225432Y-29189290D01*
X74245648Y-29122409D01*
X74297023Y-29077893D01*
X74312734Y-29070568D01*
X74499139Y-28940047D01*
X74660047Y-28779139D01*
X74790568Y-28592734D01*
X74886739Y-28386496D01*
X74945635Y-28166692D01*
X74965468Y-27940000D01*
X74945635Y-27713308D01*
X74923133Y-27629328D01*
X74914362Y-27596593D01*
X74916025Y-27526743D01*
X74955188Y-27468881D01*
X75019417Y-27441377D01*
X75034137Y-27440500D01*
X79738481Y-27440500D01*
X79805520Y-27460185D01*
G37*
%TD.AperFunction*%
%TA.AperFunction,Conductor*%
G36*
X49597862Y-28483348D02*
G01*
X49642380Y-28534722D01*
X49669432Y-28592734D01*
X49669433Y-28592735D01*
X49799954Y-28779141D01*
X49960858Y-28940045D01*
X49988787Y-28959601D01*
X50147266Y-29070568D01*
X50162975Y-29077893D01*
X50215414Y-29124064D01*
X50234567Y-29191257D01*
X50214352Y-29258138D01*
X50162979Y-29302656D01*
X50147512Y-29309868D01*
X50074527Y-29360972D01*
X50074526Y-29360973D01*
X50755600Y-30042046D01*
X50674852Y-30054835D01*
X50561955Y-30112359D01*
X50472359Y-30201955D01*
X50414835Y-30314852D01*
X50402046Y-30395600D01*
X49720972Y-29714526D01*
X49691874Y-29717073D01*
X49623374Y-29703307D01*
X49573191Y-29654692D01*
X49557776Y-29606798D01*
X49554091Y-29572516D01*
X49503797Y-29437671D01*
X49503793Y-29437664D01*
X49417547Y-29322455D01*
X49417544Y-29322452D01*
X49302335Y-29236206D01*
X49302328Y-29236202D01*
X49167482Y-29185908D01*
X49167483Y-29185908D01*
X49132404Y-29182137D01*
X49067853Y-29155399D01*
X49028005Y-29098006D01*
X49025512Y-29028181D01*
X49061165Y-28968092D01*
X49074539Y-28957272D01*
X49099140Y-28940046D01*
X49260045Y-28779141D01*
X49260044Y-28779141D01*
X49260047Y-28779139D01*
X49390568Y-28592734D01*
X49417619Y-28534721D01*
X49463788Y-28482286D01*
X49530981Y-28463133D01*
X49597862Y-28483348D01*
G37*
%TD.AperFunction*%
%TA.AperFunction,Conductor*%
G36*
X72565366Y-28660185D02*
G01*
X72599902Y-28693377D01*
X72659954Y-28779141D01*
X72820858Y-28940045D01*
X72848787Y-28959601D01*
X73007266Y-29070568D01*
X73022975Y-29077893D01*
X73075414Y-29124064D01*
X73094567Y-29191257D01*
X73074352Y-29258138D01*
X73022979Y-29302656D01*
X73007512Y-29309868D01*
X72934527Y-29360972D01*
X72934526Y-29360973D01*
X73615600Y-30042046D01*
X73534852Y-30054835D01*
X73421955Y-30112359D01*
X73332359Y-30201955D01*
X73274835Y-30314852D01*
X73262046Y-30395600D01*
X72580972Y-29714526D01*
X72527107Y-29719240D01*
X72458607Y-29705474D01*
X72408424Y-29656859D01*
X72393009Y-29608965D01*
X72389091Y-29572516D01*
X72338797Y-29437671D01*
X72338793Y-29437664D01*
X72252547Y-29322455D01*
X72252544Y-29322452D01*
X72137335Y-29236206D01*
X72137328Y-29236202D01*
X72002483Y-29185908D01*
X71989074Y-29184467D01*
X71924524Y-29157728D01*
X71884677Y-29100335D01*
X71882184Y-29030509D01*
X71917838Y-28970421D01*
X71931199Y-28959610D01*
X71959139Y-28940047D01*
X72120047Y-28779139D01*
X72180096Y-28693377D01*
X72234675Y-28649752D01*
X72281673Y-28640500D01*
X72498327Y-28640500D01*
X72565366Y-28660185D01*
G37*
%TD.AperFunction*%
%TA.AperFunction,Conductor*%
G36*
X52137862Y-28483348D02*
G01*
X52182380Y-28534722D01*
X52209432Y-28592734D01*
X52209433Y-28592735D01*
X52339954Y-28779141D01*
X52500858Y-28940045D01*
X52626731Y-29028181D01*
X52687266Y-29070568D01*
X52733368Y-29092066D01*
X52785804Y-29138235D01*
X52804957Y-29205429D01*
X52784742Y-29272310D01*
X52733367Y-29316828D01*
X52662515Y-29349867D01*
X52476179Y-29480342D01*
X52315342Y-29641179D01*
X52184866Y-29827516D01*
X52179207Y-29839653D01*
X52133033Y-29892091D01*
X52065839Y-29911241D01*
X51998958Y-29891023D01*
X51954444Y-29839650D01*
X51930133Y-29787516D01*
X51930131Y-29787512D01*
X51879025Y-29714526D01*
X51197953Y-30395598D01*
X51185165Y-30314852D01*
X51127641Y-30201955D01*
X51038045Y-30112359D01*
X50925148Y-30054835D01*
X50844400Y-30042046D01*
X51525472Y-29360974D01*
X51525471Y-29360973D01*
X51452483Y-29309866D01*
X51452481Y-29309865D01*
X51437023Y-29302657D01*
X51384584Y-29256484D01*
X51365432Y-29189290D01*
X51385648Y-29122409D01*
X51437023Y-29077893D01*
X51452734Y-29070568D01*
X51639139Y-28940047D01*
X51800047Y-28779139D01*
X51930568Y-28592734D01*
X51957619Y-28534721D01*
X52003788Y-28482286D01*
X52070981Y-28463133D01*
X52137862Y-28483348D01*
G37*
%TD.AperFunction*%
%TA.AperFunction,Conductor*%
G36*
X47057865Y-28483348D02*
G01*
X47102382Y-28534725D01*
X47129429Y-28592728D01*
X47129432Y-28592734D01*
X47259954Y-28779141D01*
X47420858Y-28940045D01*
X47445462Y-28957273D01*
X47489087Y-29011849D01*
X47496281Y-29081348D01*
X47464758Y-29143703D01*
X47404529Y-29179117D01*
X47387593Y-29182138D01*
X47352516Y-29185908D01*
X47217671Y-29236202D01*
X47217664Y-29236206D01*
X47102455Y-29322452D01*
X47102452Y-29322455D01*
X47016206Y-29437664D01*
X47016202Y-29437671D01*
X46965908Y-29572517D01*
X46962056Y-29608352D01*
X46935318Y-29672903D01*
X46877926Y-29712752D01*
X46808101Y-29715245D01*
X46748012Y-29679593D01*
X46737192Y-29666221D01*
X46719657Y-29641179D01*
X46558820Y-29480342D01*
X46372482Y-29349865D01*
X46314133Y-29322657D01*
X46261694Y-29276484D01*
X46242542Y-29209291D01*
X46262758Y-29142410D01*
X46314129Y-29097895D01*
X46372734Y-29070568D01*
X46559139Y-28940047D01*
X46720047Y-28779139D01*
X46850568Y-28592734D01*
X46877618Y-28534724D01*
X46923790Y-28482285D01*
X46990983Y-28463133D01*
X47057865Y-28483348D01*
G37*
%TD.AperFunction*%
%TA.AperFunction,Conductor*%
G36*
X79940993Y-16530185D02*
G01*
X79986748Y-16582989D01*
X79996692Y-16652147D01*
X79987820Y-16678806D01*
X79989303Y-16679359D01*
X79935908Y-16822517D01*
X79929501Y-16882116D01*
X79929500Y-16882135D01*
X79929500Y-18088480D01*
X79909815Y-18155519D01*
X79893181Y-18176161D01*
X74816162Y-23253181D01*
X74754839Y-23286666D01*
X74728481Y-23289500D01*
X61820519Y-23289500D01*
X61753480Y-23269815D01*
X61707725Y-23217011D01*
X61697781Y-23147853D01*
X61726806Y-23084297D01*
X61732838Y-23077819D01*
X61974213Y-22836444D01*
X63169630Y-21641025D01*
X63230951Y-21607542D01*
X63268117Y-21605180D01*
X63273303Y-21605633D01*
X63273308Y-21605635D01*
X63478263Y-21623566D01*
X63499999Y-21625468D01*
X63500000Y-21625468D01*
X63500002Y-21625468D01*
X63556807Y-21620498D01*
X63726692Y-21605635D01*
X63946496Y-21546739D01*
X64152734Y-21450568D01*
X64339139Y-21320047D01*
X64500047Y-21159139D01*
X64630568Y-20972734D01*
X64657618Y-20914724D01*
X64703790Y-20862285D01*
X64770983Y-20843133D01*
X64837865Y-20863348D01*
X64882382Y-20914725D01*
X64909429Y-20972728D01*
X64909432Y-20972734D01*
X65039954Y-21159141D01*
X65200858Y-21320045D01*
X65200861Y-21320047D01*
X65387266Y-21450568D01*
X65593504Y-21546739D01*
X65813308Y-21605635D01*
X65975230Y-21619801D01*
X66039998Y-21625468D01*
X66040000Y-21625468D01*
X66040002Y-21625468D01*
X66096807Y-21620498D01*
X66266692Y-21605635D01*
X66486496Y-21546739D01*
X66692734Y-21450568D01*
X66879139Y-21320047D01*
X67040047Y-21159139D01*
X67170568Y-20972734D01*
X67197619Y-20914721D01*
X67243788Y-20862286D01*
X67310981Y-20843133D01*
X67377862Y-20863348D01*
X67422380Y-20914722D01*
X67449432Y-20972734D01*
X67449433Y-20972735D01*
X67579954Y-21159141D01*
X67740858Y-21320045D01*
X67740861Y-21320047D01*
X67927266Y-21450568D01*
X68133504Y-21546739D01*
X68353308Y-21605635D01*
X68515230Y-21619801D01*
X68579998Y-21625468D01*
X68580000Y-21625468D01*
X68580002Y-21625468D01*
X68636807Y-21620498D01*
X68806692Y-21605635D01*
X69026496Y-21546739D01*
X69232734Y-21450568D01*
X69419139Y-21320047D01*
X69580047Y-21159139D01*
X69597271Y-21134539D01*
X69651848Y-21090913D01*
X69721346Y-21083718D01*
X69783701Y-21115239D01*
X69819116Y-21175468D01*
X69822138Y-21192406D01*
X69825908Y-21227483D01*
X69876202Y-21362328D01*
X69876206Y-21362335D01*
X69962452Y-21477544D01*
X69962455Y-21477547D01*
X70077664Y-21563793D01*
X70077671Y-21563797D01*
X70212517Y-21614091D01*
X70212516Y-21614091D01*
X70219444Y-21614835D01*
X70272127Y-21620500D01*
X71967872Y-21620499D01*
X72027483Y-21614091D01*
X72162331Y-21563796D01*
X72277546Y-21477546D01*
X72363796Y-21362331D01*
X72414091Y-21227483D01*
X72420500Y-21167873D01*
X72420499Y-19472128D01*
X72414091Y-19412517D01*
X72395442Y-19362517D01*
X72363797Y-19277671D01*
X72363793Y-19277664D01*
X72277547Y-19162455D01*
X72277544Y-19162452D01*
X72162335Y-19076206D01*
X72162328Y-19076202D01*
X72027482Y-19025908D01*
X72027483Y-19025908D01*
X71967883Y-19019501D01*
X71967881Y-19019500D01*
X71967873Y-19019500D01*
X71967864Y-19019500D01*
X70272129Y-19019500D01*
X70272123Y-19019501D01*
X70212516Y-19025908D01*
X70077671Y-19076202D01*
X70077664Y-19076206D01*
X69962455Y-19162452D01*
X69962452Y-19162455D01*
X69876206Y-19277664D01*
X69876202Y-19277671D01*
X69825908Y-19412516D01*
X69822137Y-19447596D01*
X69795398Y-19512146D01*
X69738006Y-19551994D01*
X69668180Y-19554487D01*
X69608092Y-19518834D01*
X69597273Y-19505462D01*
X69580045Y-19480858D01*
X69419141Y-19319954D01*
X69232734Y-19189432D01*
X69228043Y-19186724D01*
X69228767Y-19185469D01*
X69181431Y-19143778D01*
X69162289Y-19076582D01*
X69182515Y-19009704D01*
X69233881Y-18965202D01*
X69257830Y-18954035D01*
X69451401Y-18818495D01*
X69618495Y-18651401D01*
X69754035Y-18457830D01*
X69853903Y-18243663D01*
X69915063Y-18015408D01*
X69935659Y-17780000D01*
X69915063Y-17544592D01*
X69853903Y-17316337D01*
X69754035Y-17102171D01*
X69693800Y-17016145D01*
X69618494Y-16908597D01*
X69451402Y-16741506D01*
X69451393Y-16741498D01*
X69443646Y-16736074D01*
X69400021Y-16681497D01*
X69392829Y-16611998D01*
X69424352Y-16549644D01*
X69484582Y-16514231D01*
X69514770Y-16510500D01*
X79873954Y-16510500D01*
X79940993Y-16530185D01*
G37*
%TD.AperFunction*%
%TA.AperFunction,Conductor*%
G36*
X64700993Y-16530185D02*
G01*
X64746748Y-16582989D01*
X64756692Y-16652147D01*
X64747820Y-16678806D01*
X64749303Y-16679359D01*
X64695908Y-16822517D01*
X64689501Y-16882116D01*
X64689500Y-16882135D01*
X64689500Y-18677870D01*
X64689501Y-18677876D01*
X64695908Y-18737483D01*
X64746202Y-18872328D01*
X64746206Y-18872335D01*
X64832452Y-18987544D01*
X64832455Y-18987547D01*
X64947664Y-19073793D01*
X64947671Y-19073797D01*
X65082513Y-19124090D01*
X65082514Y-19124090D01*
X65082517Y-19124091D01*
X65108530Y-19126887D01*
X65173078Y-19153623D01*
X65212927Y-19211014D01*
X65215423Y-19280839D01*
X65182956Y-19337857D01*
X65039951Y-19480862D01*
X64909432Y-19667265D01*
X64909431Y-19667267D01*
X64882382Y-19725275D01*
X64836209Y-19777714D01*
X64769016Y-19796866D01*
X64702135Y-19776650D01*
X64657618Y-19725275D01*
X64630686Y-19667520D01*
X64630568Y-19667266D01*
X64517273Y-19505462D01*
X64500045Y-19480858D01*
X64339141Y-19319954D01*
X64152734Y-19189432D01*
X64152732Y-19189431D01*
X63946497Y-19093261D01*
X63946488Y-19093258D01*
X63726697Y-19034366D01*
X63726693Y-19034365D01*
X63726692Y-19034365D01*
X63726691Y-19034364D01*
X63726686Y-19034364D01*
X63500002Y-19014532D01*
X63499998Y-19014532D01*
X63273313Y-19034364D01*
X63273302Y-19034366D01*
X63053511Y-19093258D01*
X63053502Y-19093261D01*
X62847267Y-19189431D01*
X62847265Y-19189432D01*
X62660858Y-19319954D01*
X62499954Y-19480858D01*
X62369432Y-19667265D01*
X62369431Y-19667267D01*
X62342382Y-19725275D01*
X62296209Y-19777714D01*
X62229016Y-19796866D01*
X62162135Y-19776650D01*
X62117618Y-19725275D01*
X62090686Y-19667520D01*
X62090568Y-19667266D01*
X61977273Y-19505462D01*
X61960045Y-19480858D01*
X61799141Y-19319954D01*
X61612734Y-19189432D01*
X61612732Y-19189431D01*
X61406497Y-19093261D01*
X61406488Y-19093258D01*
X61186697Y-19034366D01*
X61186693Y-19034365D01*
X61186692Y-19034365D01*
X61186691Y-19034364D01*
X61186686Y-19034364D01*
X60960002Y-19014532D01*
X60959998Y-19014532D01*
X60733313Y-19034364D01*
X60733302Y-19034366D01*
X60513511Y-19093258D01*
X60513502Y-19093261D01*
X60307267Y-19189431D01*
X60307265Y-19189432D01*
X60120858Y-19319954D01*
X59959954Y-19480858D01*
X59829432Y-19667265D01*
X59829431Y-19667267D01*
X59802382Y-19725275D01*
X59756209Y-19777714D01*
X59689016Y-19796866D01*
X59622135Y-19776650D01*
X59577618Y-19725275D01*
X59550686Y-19667520D01*
X59550568Y-19667266D01*
X59437273Y-19505462D01*
X59420045Y-19480858D01*
X59259141Y-19319954D01*
X59072734Y-19189432D01*
X59072732Y-19189431D01*
X58866497Y-19093261D01*
X58866488Y-19093258D01*
X58646697Y-19034366D01*
X58646693Y-19034365D01*
X58646692Y-19034365D01*
X58646691Y-19034364D01*
X58646686Y-19034364D01*
X58420002Y-19014532D01*
X58419998Y-19014532D01*
X58193313Y-19034364D01*
X58193302Y-19034366D01*
X57973511Y-19093258D01*
X57973502Y-19093261D01*
X57767267Y-19189431D01*
X57767265Y-19189432D01*
X57580858Y-19319954D01*
X57419954Y-19480858D01*
X57289432Y-19667265D01*
X57289431Y-19667267D01*
X57262382Y-19725275D01*
X57216209Y-19777714D01*
X57149016Y-19796866D01*
X57082135Y-19776650D01*
X57037618Y-19725275D01*
X57010686Y-19667520D01*
X57010568Y-19667266D01*
X56897273Y-19505462D01*
X56880045Y-19480858D01*
X56719141Y-19319954D01*
X56532734Y-19189432D01*
X56532732Y-19189431D01*
X56326497Y-19093261D01*
X56326488Y-19093258D01*
X56106697Y-19034366D01*
X56106693Y-19034365D01*
X56106692Y-19034365D01*
X56106691Y-19034364D01*
X56106686Y-19034364D01*
X55880002Y-19014532D01*
X55879998Y-19014532D01*
X55653313Y-19034364D01*
X55653302Y-19034366D01*
X55433511Y-19093258D01*
X55433502Y-19093261D01*
X55227267Y-19189431D01*
X55227265Y-19189432D01*
X55040858Y-19319954D01*
X54879954Y-19480858D01*
X54749434Y-19667263D01*
X54749432Y-19667266D01*
X54722383Y-19725274D01*
X54722106Y-19725867D01*
X54675933Y-19778306D01*
X54608739Y-19797457D01*
X54541858Y-19777241D01*
X54497342Y-19725865D01*
X54470135Y-19667520D01*
X54470134Y-19667518D01*
X54339657Y-19481179D01*
X54178820Y-19320342D01*
X53992482Y-19189865D01*
X53786328Y-19093734D01*
X53589999Y-19041127D01*
X53589999Y-20004313D01*
X53578045Y-19992359D01*
X53465148Y-19934835D01*
X53371481Y-19920000D01*
X53308519Y-19920000D01*
X53214852Y-19934835D01*
X53101955Y-19992359D01*
X53090000Y-20004313D01*
X53090000Y-19041127D01*
X52893671Y-19093734D01*
X52687517Y-19189865D01*
X52501179Y-19320342D01*
X52340342Y-19481179D01*
X52209865Y-19667517D01*
X52113734Y-19873673D01*
X52113730Y-19873682D01*
X52061127Y-20069999D01*
X52061128Y-20070000D01*
X53024314Y-20070000D01*
X53012359Y-20081955D01*
X52954835Y-20194852D01*
X52935014Y-20320000D01*
X52954835Y-20445148D01*
X53012359Y-20558045D01*
X53024314Y-20570000D01*
X52061128Y-20570000D01*
X52104912Y-20733407D01*
X52103249Y-20803257D01*
X52064086Y-20861119D01*
X51999858Y-20888623D01*
X51985137Y-20889500D01*
X49684500Y-20889500D01*
X49617461Y-20869815D01*
X49571706Y-20817011D01*
X49560500Y-20765500D01*
X49560499Y-19472129D01*
X49560498Y-19472123D01*
X49557969Y-19448599D01*
X49554091Y-19412517D01*
X49535442Y-19362517D01*
X49503797Y-19277671D01*
X49503793Y-19277664D01*
X49417547Y-19162455D01*
X49417544Y-19162452D01*
X49302335Y-19076206D01*
X49302328Y-19076202D01*
X49167482Y-19025908D01*
X49167483Y-19025908D01*
X49107883Y-19019501D01*
X49107881Y-19019500D01*
X49107873Y-19019500D01*
X49107864Y-19019500D01*
X47412129Y-19019500D01*
X47412123Y-19019501D01*
X47352516Y-19025908D01*
X47217671Y-19076202D01*
X47217664Y-19076206D01*
X47102455Y-19162452D01*
X47102452Y-19162455D01*
X47016206Y-19277664D01*
X47016202Y-19277671D01*
X46965908Y-19412517D01*
X46962056Y-19448352D01*
X46935318Y-19512903D01*
X46877926Y-19552752D01*
X46808101Y-19555245D01*
X46748012Y-19519593D01*
X46737192Y-19506221D01*
X46719657Y-19481179D01*
X46558820Y-19320342D01*
X46372482Y-19189865D01*
X46166328Y-19093734D01*
X45970000Y-19041127D01*
X45970000Y-20004313D01*
X45958045Y-19992359D01*
X45845148Y-19934835D01*
X45751481Y-19920000D01*
X45688519Y-19920000D01*
X45594852Y-19934835D01*
X45481955Y-19992359D01*
X45470000Y-20004314D01*
X45470000Y-19041127D01*
X45273671Y-19093734D01*
X45067517Y-19189865D01*
X44881179Y-19320342D01*
X44720342Y-19481179D01*
X44589867Y-19667515D01*
X44562657Y-19725867D01*
X44516484Y-19778306D01*
X44449290Y-19797457D01*
X44382409Y-19777241D01*
X44337893Y-19725865D01*
X44337617Y-19725274D01*
X44310568Y-19667266D01*
X44197273Y-19505462D01*
X44180045Y-19480858D01*
X44019141Y-19319954D01*
X43832734Y-19189432D01*
X43832732Y-19189431D01*
X43626497Y-19093261D01*
X43626488Y-19093258D01*
X43406697Y-19034366D01*
X43406693Y-19034365D01*
X43406692Y-19034365D01*
X43406691Y-19034364D01*
X43406686Y-19034364D01*
X43180002Y-19014532D01*
X43179998Y-19014532D01*
X42953313Y-19034364D01*
X42953302Y-19034366D01*
X42733511Y-19093258D01*
X42733502Y-19093261D01*
X42527267Y-19189431D01*
X42527265Y-19189432D01*
X42340858Y-19319954D01*
X42179954Y-19480858D01*
X42049432Y-19667265D01*
X42049431Y-19667267D01*
X42022382Y-19725275D01*
X41976209Y-19777714D01*
X41909016Y-19796866D01*
X41842135Y-19776650D01*
X41797618Y-19725275D01*
X41770686Y-19667520D01*
X41770568Y-19667266D01*
X41657273Y-19505462D01*
X41640045Y-19480858D01*
X41479141Y-19319954D01*
X41292734Y-19189432D01*
X41292732Y-19189431D01*
X41086497Y-19093261D01*
X41086488Y-19093258D01*
X40866697Y-19034366D01*
X40866693Y-19034365D01*
X40866692Y-19034365D01*
X40866691Y-19034364D01*
X40866686Y-19034364D01*
X40640002Y-19014532D01*
X40639998Y-19014532D01*
X40413313Y-19034364D01*
X40413302Y-19034366D01*
X40193511Y-19093258D01*
X40193502Y-19093261D01*
X39987267Y-19189431D01*
X39987265Y-19189432D01*
X39800858Y-19319954D01*
X39639954Y-19480858D01*
X39509432Y-19667265D01*
X39509431Y-19667267D01*
X39482382Y-19725275D01*
X39436209Y-19777714D01*
X39369016Y-19796866D01*
X39302135Y-19776650D01*
X39257618Y-19725275D01*
X39230686Y-19667520D01*
X39230568Y-19667266D01*
X39117273Y-19505462D01*
X39100045Y-19480858D01*
X38939141Y-19319954D01*
X38752734Y-19189432D01*
X38752732Y-19189431D01*
X38546497Y-19093261D01*
X38546488Y-19093258D01*
X38326697Y-19034366D01*
X38326693Y-19034365D01*
X38326692Y-19034365D01*
X38326691Y-19034364D01*
X38326686Y-19034364D01*
X38100002Y-19014532D01*
X38099998Y-19014532D01*
X37873313Y-19034364D01*
X37873302Y-19034366D01*
X37653511Y-19093258D01*
X37653502Y-19093261D01*
X37447267Y-19189431D01*
X37447265Y-19189432D01*
X37260858Y-19319954D01*
X37099954Y-19480858D01*
X36969432Y-19667265D01*
X36969431Y-19667267D01*
X36942382Y-19725275D01*
X36896209Y-19777714D01*
X36829016Y-19796866D01*
X36762135Y-19776650D01*
X36717618Y-19725275D01*
X36690686Y-19667520D01*
X36690568Y-19667266D01*
X36577273Y-19505462D01*
X36560045Y-19480858D01*
X36399141Y-19319954D01*
X36212734Y-19189432D01*
X36212732Y-19189431D01*
X36006497Y-19093261D01*
X36006488Y-19093258D01*
X35786697Y-19034366D01*
X35786693Y-19034365D01*
X35786692Y-19034365D01*
X35786691Y-19034364D01*
X35786686Y-19034364D01*
X35560002Y-19014532D01*
X35559998Y-19014532D01*
X35333313Y-19034364D01*
X35333302Y-19034366D01*
X35113511Y-19093258D01*
X35113502Y-19093261D01*
X34907267Y-19189431D01*
X34907265Y-19189432D01*
X34720858Y-19319954D01*
X34559954Y-19480858D01*
X34429432Y-19667265D01*
X34429431Y-19667267D01*
X34402382Y-19725275D01*
X34356209Y-19777714D01*
X34289016Y-19796866D01*
X34222135Y-19776650D01*
X34177618Y-19725275D01*
X34150686Y-19667520D01*
X34150568Y-19667266D01*
X34037273Y-19505462D01*
X34020045Y-19480858D01*
X33859141Y-19319954D01*
X33672734Y-19189432D01*
X33672732Y-19189431D01*
X33466497Y-19093261D01*
X33466488Y-19093258D01*
X33246697Y-19034366D01*
X33246693Y-19034365D01*
X33246692Y-19034365D01*
X33246691Y-19034364D01*
X33246686Y-19034364D01*
X33020002Y-19014532D01*
X33019998Y-19014532D01*
X32793313Y-19034364D01*
X32793302Y-19034366D01*
X32573511Y-19093258D01*
X32573502Y-19093261D01*
X32367267Y-19189431D01*
X32367265Y-19189432D01*
X32180858Y-19319954D01*
X32019954Y-19480858D01*
X31889434Y-19667263D01*
X31889432Y-19667266D01*
X31862383Y-19725274D01*
X31862106Y-19725867D01*
X31815933Y-19778306D01*
X31748739Y-19797457D01*
X31681858Y-19777241D01*
X31637342Y-19725865D01*
X31610135Y-19667520D01*
X31610134Y-19667518D01*
X31479657Y-19481179D01*
X31318820Y-19320342D01*
X31132482Y-19189865D01*
X30926328Y-19093734D01*
X30730000Y-19041127D01*
X30730000Y-20004314D01*
X30718045Y-19992359D01*
X30605148Y-19934835D01*
X30511481Y-19920000D01*
X30448519Y-19920000D01*
X30354852Y-19934835D01*
X30241955Y-19992359D01*
X30230000Y-20004314D01*
X30230000Y-19041127D01*
X30033671Y-19093734D01*
X29827517Y-19189865D01*
X29641179Y-19320342D01*
X29480342Y-19481179D01*
X29349865Y-19667517D01*
X29253734Y-19873673D01*
X29253730Y-19873682D01*
X29201127Y-20069999D01*
X29201128Y-20070000D01*
X30164314Y-20070000D01*
X30152359Y-20081955D01*
X30094835Y-20194852D01*
X30075014Y-20320000D01*
X30094835Y-20445148D01*
X30152359Y-20558045D01*
X30164314Y-20570000D01*
X29201128Y-20570000D01*
X29253730Y-20766317D01*
X29253734Y-20766326D01*
X29349865Y-20972482D01*
X29480342Y-21158820D01*
X29634341Y-21312819D01*
X29667826Y-21374142D01*
X29662842Y-21443834D01*
X29620970Y-21499767D01*
X29555506Y-21524184D01*
X29546660Y-21524500D01*
X17486519Y-21524500D01*
X17419480Y-21504815D01*
X17398838Y-21488181D01*
X16626818Y-20716161D01*
X16593333Y-20654838D01*
X16590499Y-20628480D01*
X16590499Y-19422129D01*
X16590498Y-19422123D01*
X16589465Y-19412517D01*
X16584091Y-19362517D01*
X16574893Y-19337857D01*
X16533797Y-19227671D01*
X16533793Y-19227664D01*
X16447547Y-19112455D01*
X16447544Y-19112452D01*
X16332335Y-19026206D01*
X16332328Y-19026202D01*
X16197482Y-18975908D01*
X16197483Y-18975908D01*
X16137883Y-18969501D01*
X16137881Y-18969500D01*
X16137873Y-18969500D01*
X16137864Y-18969500D01*
X14342129Y-18969500D01*
X14342123Y-18969501D01*
X14282515Y-18975909D01*
X14145987Y-19026830D01*
X14076296Y-19031814D01*
X14014973Y-18998328D01*
X13981489Y-18937005D01*
X13978881Y-18903168D01*
X13987401Y-18762304D01*
X13988160Y-18755704D01*
X14011281Y-18619623D01*
X14038562Y-18470758D01*
X14039960Y-18464810D01*
X14079225Y-18328518D01*
X14079552Y-18327428D01*
X14123264Y-18187155D01*
X14125159Y-18181921D01*
X14180080Y-18049330D01*
X14180732Y-18047820D01*
X14240343Y-17915370D01*
X14242599Y-17910861D01*
X14312393Y-17784579D01*
X14313542Y-17782591D01*
X14388221Y-17659057D01*
X14390701Y-17655274D01*
X14474461Y-17537226D01*
X14476145Y-17534967D01*
X14564932Y-17421638D01*
X14567472Y-17418605D01*
X14664052Y-17310531D01*
X14666373Y-17308077D01*
X14768077Y-17206373D01*
X14770531Y-17204052D01*
X14878605Y-17107472D01*
X14881638Y-17104932D01*
X14994967Y-17016145D01*
X14997226Y-17014461D01*
X15115274Y-16930701D01*
X15119057Y-16928221D01*
X15242591Y-16853542D01*
X15244579Y-16852393D01*
X15370861Y-16782599D01*
X15375370Y-16780343D01*
X15507820Y-16720732D01*
X15509330Y-16720080D01*
X15641921Y-16665159D01*
X15647155Y-16663264D01*
X15787428Y-16619552D01*
X15788518Y-16619225D01*
X15924810Y-16579960D01*
X15930758Y-16578562D01*
X16079626Y-16551281D01*
X16215704Y-16528160D01*
X16222304Y-16527401D01*
X16394288Y-16516998D01*
X16485501Y-16511875D01*
X16508264Y-16510598D01*
X16511740Y-16510500D01*
X64633954Y-16510500D01*
X64700993Y-16530185D01*
G37*
%TD.AperFunction*%
%TA.AperFunction,Conductor*%
G36*
X67558418Y-18675417D02*
G01*
X67586673Y-18696569D01*
X67708599Y-18818495D01*
X67902170Y-18954035D01*
X67926120Y-18965203D01*
X67978557Y-19011373D01*
X67997710Y-19078567D01*
X67977495Y-19145448D01*
X67931261Y-19185519D01*
X67931957Y-19186724D01*
X67927265Y-19189432D01*
X67740858Y-19319954D01*
X67579954Y-19480858D01*
X67449432Y-19667265D01*
X67449430Y-19667268D01*
X67422380Y-19725277D01*
X67376207Y-19777715D01*
X67309013Y-19796866D01*
X67242132Y-19776649D01*
X67197619Y-19725277D01*
X67170568Y-19667266D01*
X67152997Y-19642171D01*
X67040045Y-19480858D01*
X66897045Y-19337858D01*
X66863560Y-19276535D01*
X66868544Y-19206843D01*
X66910416Y-19150910D01*
X66971473Y-19126887D01*
X66997483Y-19124091D01*
X67078874Y-19093734D01*
X67132331Y-19073796D01*
X67247546Y-18987546D01*
X67333796Y-18872331D01*
X67382810Y-18740916D01*
X67424681Y-18684984D01*
X67490145Y-18660566D01*
X67558418Y-18675417D01*
G37*
%TD.AperFunction*%
%TD*%
M02*
