%TF.GenerationSoftware,KiCad,Pcbnew,7.0.5*%
%TF.CreationDate,2024-09-27T00:58:09-04:00*%
%TF.ProjectId,74ls195_for_cnc,37346c73-3139-4355-9f66-6f725f636e63,rev?*%
%TF.SameCoordinates,Original*%
%TF.FileFunction,Legend,Top*%
%TF.FilePolarity,Positive*%
%FSLAX46Y46*%
G04 Gerber Fmt 4.6, Leading zero omitted, Abs format (unit mm)*
G04 Created by KiCad (PCBNEW 7.0.5) date 2024-09-27 00:58:09*
%MOMM*%
%LPD*%
G01*
G04 APERTURE LIST*
%ADD10C,0.150000*%
%ADD11C,0.120000*%
G04 APERTURE END LIST*
D10*
%TO.C,J1*%
X17220709Y11081963D02*
X17934994Y11081963D01*
X17934994Y11081963D02*
X18077851Y11034344D01*
X18077851Y11034344D02*
X18173090Y10939106D01*
X18173090Y10939106D02*
X18220709Y10796249D01*
X18220709Y10796249D02*
X18220709Y10701011D01*
X18220709Y12081963D02*
X18220709Y11510535D01*
X18220709Y11796249D02*
X17220709Y11796249D01*
X17220709Y11796249D02*
X17363566Y11701011D01*
X17363566Y11701011D02*
X17458804Y11605773D01*
X17458804Y11605773D02*
X17506423Y11510535D01*
%TO.C,J2*%
X31720709Y30187183D02*
X32434994Y30187183D01*
X32434994Y30187183D02*
X32577851Y30139564D01*
X32577851Y30139564D02*
X32673090Y30044326D01*
X32673090Y30044326D02*
X32720709Y29901469D01*
X32720709Y29901469D02*
X32720709Y29806231D01*
X31815947Y30615755D02*
X31768328Y30663374D01*
X31768328Y30663374D02*
X31720709Y30758612D01*
X31720709Y30758612D02*
X31720709Y30996707D01*
X31720709Y30996707D02*
X31768328Y31091945D01*
X31768328Y31091945D02*
X31815947Y31139564D01*
X31815947Y31139564D02*
X31911185Y31187183D01*
X31911185Y31187183D02*
X32006423Y31187183D01*
X32006423Y31187183D02*
X32149280Y31139564D01*
X32149280Y31139564D02*
X32720709Y30568136D01*
X32720709Y30568136D02*
X32720709Y31187183D01*
%TO.C,D1*%
X13993118Y34732636D02*
X12993118Y34732636D01*
X12993118Y34732636D02*
X12993118Y34970731D01*
X12993118Y34970731D02*
X13040737Y35113588D01*
X13040737Y35113588D02*
X13135975Y35208826D01*
X13135975Y35208826D02*
X13231213Y35256445D01*
X13231213Y35256445D02*
X13421689Y35304064D01*
X13421689Y35304064D02*
X13564546Y35304064D01*
X13564546Y35304064D02*
X13755022Y35256445D01*
X13755022Y35256445D02*
X13850260Y35208826D01*
X13850260Y35208826D02*
X13945499Y35113588D01*
X13945499Y35113588D02*
X13993118Y34970731D01*
X13993118Y34970731D02*
X13993118Y34732636D01*
X13993118Y36256445D02*
X13993118Y35685017D01*
X13993118Y35970731D02*
X12993118Y35970731D01*
X12993118Y35970731D02*
X13135975Y35875493D01*
X13135975Y35875493D02*
X13231213Y35780255D01*
X13231213Y35780255D02*
X13278832Y35685017D01*
%TO.C,U1*%
X9600709Y17288612D02*
X10410232Y17288612D01*
X10410232Y17288612D02*
X10505470Y17336231D01*
X10505470Y17336231D02*
X10553090Y17383850D01*
X10553090Y17383850D02*
X10600709Y17479088D01*
X10600709Y17479088D02*
X10600709Y17669564D01*
X10600709Y17669564D02*
X10553090Y17764802D01*
X10553090Y17764802D02*
X10505470Y17812421D01*
X10505470Y17812421D02*
X10410232Y17860040D01*
X10410232Y17860040D02*
X9600709Y17860040D01*
X10600709Y18860040D02*
X10600709Y18288612D01*
X10600709Y18574326D02*
X9600709Y18574326D01*
X9600709Y18574326D02*
X9743566Y18479088D01*
X9743566Y18479088D02*
X9838804Y18383850D01*
X9838804Y18383850D02*
X9886423Y18288612D01*
%TO.C,R6*%
X18144711Y26803194D02*
X18245726Y27375613D01*
X17740650Y27207255D02*
X18447757Y27914361D01*
X18447757Y27914361D02*
X18717131Y27644987D01*
X18717131Y27644987D02*
X18750803Y27543972D01*
X18750803Y27543972D02*
X18750803Y27476629D01*
X18750803Y27476629D02*
X18717131Y27375613D01*
X18717131Y27375613D02*
X18616116Y27274598D01*
X18616116Y27274598D02*
X18515100Y27240926D01*
X18515100Y27240926D02*
X18447757Y27240926D01*
X18447757Y27240926D02*
X18346742Y27274598D01*
X18346742Y27274598D02*
X18077368Y27543972D01*
X19457909Y26904209D02*
X19323222Y27038896D01*
X19323222Y27038896D02*
X19222207Y27072568D01*
X19222207Y27072568D02*
X19154864Y27072568D01*
X19154864Y27072568D02*
X18986505Y27038896D01*
X18986505Y27038896D02*
X18818146Y26937881D01*
X18818146Y26937881D02*
X18548772Y26668507D01*
X18548772Y26668507D02*
X18515100Y26567491D01*
X18515100Y26567491D02*
X18515100Y26500148D01*
X18515100Y26500148D02*
X18548772Y26399133D01*
X18548772Y26399133D02*
X18683459Y26264446D01*
X18683459Y26264446D02*
X18784474Y26230774D01*
X18784474Y26230774D02*
X18851818Y26230774D01*
X18851818Y26230774D02*
X18952833Y26264446D01*
X18952833Y26264446D02*
X19121192Y26432804D01*
X19121192Y26432804D02*
X19154864Y26533820D01*
X19154864Y26533820D02*
X19154864Y26601163D01*
X19154864Y26601163D02*
X19121192Y26702178D01*
X19121192Y26702178D02*
X18986505Y26836865D01*
X18986505Y26836865D02*
X18885490Y26870537D01*
X18885490Y26870537D02*
X18818146Y26870537D01*
X18818146Y26870537D02*
X18717131Y26836865D01*
%TO.C,R5*%
X15604711Y26803194D02*
X15705726Y27375613D01*
X15200650Y27207255D02*
X15907757Y27914361D01*
X15907757Y27914361D02*
X16177131Y27644987D01*
X16177131Y27644987D02*
X16210803Y27543972D01*
X16210803Y27543972D02*
X16210803Y27476629D01*
X16210803Y27476629D02*
X16177131Y27375613D01*
X16177131Y27375613D02*
X16076116Y27274598D01*
X16076116Y27274598D02*
X15975100Y27240926D01*
X15975100Y27240926D02*
X15907757Y27240926D01*
X15907757Y27240926D02*
X15806742Y27274598D01*
X15806742Y27274598D02*
X15537368Y27543972D01*
X16951581Y26870537D02*
X16614864Y27207255D01*
X16614864Y27207255D02*
X16244474Y26904209D01*
X16244474Y26904209D02*
X16311818Y26904209D01*
X16311818Y26904209D02*
X16412833Y26870537D01*
X16412833Y26870537D02*
X16581192Y26702178D01*
X16581192Y26702178D02*
X16614864Y26601163D01*
X16614864Y26601163D02*
X16614864Y26533820D01*
X16614864Y26533820D02*
X16581192Y26432804D01*
X16581192Y26432804D02*
X16412833Y26264446D01*
X16412833Y26264446D02*
X16311818Y26230774D01*
X16311818Y26230774D02*
X16244474Y26230774D01*
X16244474Y26230774D02*
X16143459Y26264446D01*
X16143459Y26264446D02*
X15975100Y26432804D01*
X15975100Y26432804D02*
X15941429Y26533820D01*
X15941429Y26533820D02*
X15941429Y26601163D01*
%TO.C,R4*%
X13064711Y26803194D02*
X13165726Y27375613D01*
X12660650Y27207255D02*
X13367757Y27914361D01*
X13367757Y27914361D02*
X13637131Y27644987D01*
X13637131Y27644987D02*
X13670803Y27543972D01*
X13670803Y27543972D02*
X13670803Y27476629D01*
X13670803Y27476629D02*
X13637131Y27375613D01*
X13637131Y27375613D02*
X13536116Y27274598D01*
X13536116Y27274598D02*
X13435100Y27240926D01*
X13435100Y27240926D02*
X13367757Y27240926D01*
X13367757Y27240926D02*
X13266742Y27274598D01*
X13266742Y27274598D02*
X12997368Y27543972D01*
X14142207Y26668507D02*
X13670803Y26197102D01*
X14243222Y27106239D02*
X13569787Y26769522D01*
X13569787Y26769522D02*
X14007520Y26331789D01*
%TO.C,R3*%
X10524711Y26803194D02*
X10625726Y27375613D01*
X10120650Y27207255D02*
X10827757Y27914361D01*
X10827757Y27914361D02*
X11097131Y27644987D01*
X11097131Y27644987D02*
X11130803Y27543972D01*
X11130803Y27543972D02*
X11130803Y27476629D01*
X11130803Y27476629D02*
X11097131Y27375613D01*
X11097131Y27375613D02*
X10996116Y27274598D01*
X10996116Y27274598D02*
X10895100Y27240926D01*
X10895100Y27240926D02*
X10827757Y27240926D01*
X10827757Y27240926D02*
X10726742Y27274598D01*
X10726742Y27274598D02*
X10457368Y27543972D01*
X11467520Y27274598D02*
X11905253Y26836865D01*
X11905253Y26836865D02*
X11400177Y26803194D01*
X11400177Y26803194D02*
X11501192Y26702178D01*
X11501192Y26702178D02*
X11534864Y26601163D01*
X11534864Y26601163D02*
X11534864Y26533820D01*
X11534864Y26533820D02*
X11501192Y26432804D01*
X11501192Y26432804D02*
X11332833Y26264446D01*
X11332833Y26264446D02*
X11231818Y26230774D01*
X11231818Y26230774D02*
X11164474Y26230774D01*
X11164474Y26230774D02*
X11063459Y26264446D01*
X11063459Y26264446D02*
X10861429Y26466476D01*
X10861429Y26466476D02*
X10827757Y26567491D01*
X10827757Y26567491D02*
X10827757Y26634835D01*
%TO.C,R2*%
X11976262Y17787432D02*
X11500071Y17454099D01*
X11976262Y17216004D02*
X10976262Y17216004D01*
X10976262Y17216004D02*
X10976262Y17596956D01*
X10976262Y17596956D02*
X11023881Y17692194D01*
X11023881Y17692194D02*
X11071500Y17739813D01*
X11071500Y17739813D02*
X11166738Y17787432D01*
X11166738Y17787432D02*
X11309595Y17787432D01*
X11309595Y17787432D02*
X11404833Y17739813D01*
X11404833Y17739813D02*
X11452452Y17692194D01*
X11452452Y17692194D02*
X11500071Y17596956D01*
X11500071Y17596956D02*
X11500071Y17216004D01*
X11071500Y18168385D02*
X11023881Y18216004D01*
X11023881Y18216004D02*
X10976262Y18311242D01*
X10976262Y18311242D02*
X10976262Y18549337D01*
X10976262Y18549337D02*
X11023881Y18644575D01*
X11023881Y18644575D02*
X11071500Y18692194D01*
X11071500Y18692194D02*
X11166738Y18739813D01*
X11166738Y18739813D02*
X11261976Y18739813D01*
X11261976Y18739813D02*
X11404833Y18692194D01*
X11404833Y18692194D02*
X11976262Y18120766D01*
X11976262Y18120766D02*
X11976262Y18739813D01*
%TO.C,R1*%
X26054429Y32182643D02*
X25721096Y32658834D01*
X25483001Y32182643D02*
X25483001Y33182643D01*
X25483001Y33182643D02*
X25863953Y33182643D01*
X25863953Y33182643D02*
X25959191Y33135024D01*
X25959191Y33135024D02*
X26006810Y33087405D01*
X26006810Y33087405D02*
X26054429Y32992167D01*
X26054429Y32992167D02*
X26054429Y32849310D01*
X26054429Y32849310D02*
X26006810Y32754072D01*
X26006810Y32754072D02*
X25959191Y32706453D01*
X25959191Y32706453D02*
X25863953Y32658834D01*
X25863953Y32658834D02*
X25483001Y32658834D01*
X27006810Y32182643D02*
X26435382Y32182643D01*
X26721096Y32182643D02*
X26721096Y33182643D01*
X26721096Y33182643D02*
X26625858Y33039786D01*
X26625858Y33039786D02*
X26530620Y32944548D01*
X26530620Y32944548D02*
X26435382Y32896929D01*
%TO.C,D4*%
X21613118Y34732636D02*
X20613118Y34732636D01*
X20613118Y34732636D02*
X20613118Y34970731D01*
X20613118Y34970731D02*
X20660737Y35113588D01*
X20660737Y35113588D02*
X20755975Y35208826D01*
X20755975Y35208826D02*
X20851213Y35256445D01*
X20851213Y35256445D02*
X21041689Y35304064D01*
X21041689Y35304064D02*
X21184546Y35304064D01*
X21184546Y35304064D02*
X21375022Y35256445D01*
X21375022Y35256445D02*
X21470260Y35208826D01*
X21470260Y35208826D02*
X21565499Y35113588D01*
X21565499Y35113588D02*
X21613118Y34970731D01*
X21613118Y34970731D02*
X21613118Y34732636D01*
X20946451Y36161207D02*
X21613118Y36161207D01*
X20565499Y35923112D02*
X21279784Y35685017D01*
X21279784Y35685017D02*
X21279784Y36304064D01*
%TO.C,D3*%
X19073118Y34732636D02*
X18073118Y34732636D01*
X18073118Y34732636D02*
X18073118Y34970731D01*
X18073118Y34970731D02*
X18120737Y35113588D01*
X18120737Y35113588D02*
X18215975Y35208826D01*
X18215975Y35208826D02*
X18311213Y35256445D01*
X18311213Y35256445D02*
X18501689Y35304064D01*
X18501689Y35304064D02*
X18644546Y35304064D01*
X18644546Y35304064D02*
X18835022Y35256445D01*
X18835022Y35256445D02*
X18930260Y35208826D01*
X18930260Y35208826D02*
X19025499Y35113588D01*
X19025499Y35113588D02*
X19073118Y34970731D01*
X19073118Y34970731D02*
X19073118Y34732636D01*
X18073118Y35637398D02*
X18073118Y36256445D01*
X18073118Y36256445D02*
X18454070Y35923112D01*
X18454070Y35923112D02*
X18454070Y36065969D01*
X18454070Y36065969D02*
X18501689Y36161207D01*
X18501689Y36161207D02*
X18549308Y36208826D01*
X18549308Y36208826D02*
X18644546Y36256445D01*
X18644546Y36256445D02*
X18882641Y36256445D01*
X18882641Y36256445D02*
X18977879Y36208826D01*
X18977879Y36208826D02*
X19025499Y36161207D01*
X19025499Y36161207D02*
X19073118Y36065969D01*
X19073118Y36065969D02*
X19073118Y35780255D01*
X19073118Y35780255D02*
X19025499Y35685017D01*
X19025499Y35685017D02*
X18977879Y35637398D01*
%TO.C,D2*%
X16533118Y34732636D02*
X15533118Y34732636D01*
X15533118Y34732636D02*
X15533118Y34970731D01*
X15533118Y34970731D02*
X15580737Y35113588D01*
X15580737Y35113588D02*
X15675975Y35208826D01*
X15675975Y35208826D02*
X15771213Y35256445D01*
X15771213Y35256445D02*
X15961689Y35304064D01*
X15961689Y35304064D02*
X16104546Y35304064D01*
X16104546Y35304064D02*
X16295022Y35256445D01*
X16295022Y35256445D02*
X16390260Y35208826D01*
X16390260Y35208826D02*
X16485499Y35113588D01*
X16485499Y35113588D02*
X16533118Y34970731D01*
X16533118Y34970731D02*
X16533118Y34732636D01*
X15628356Y35685017D02*
X15580737Y35732636D01*
X15580737Y35732636D02*
X15533118Y35827874D01*
X15533118Y35827874D02*
X15533118Y36065969D01*
X15533118Y36065969D02*
X15580737Y36161207D01*
X15580737Y36161207D02*
X15628356Y36208826D01*
X15628356Y36208826D02*
X15723594Y36256445D01*
X15723594Y36256445D02*
X15818832Y36256445D01*
X15818832Y36256445D02*
X15961689Y36208826D01*
X15961689Y36208826D02*
X16533118Y35637398D01*
X16533118Y35637398D02*
X16533118Y36256445D01*
D11*
%TO.C,J1*%
X21365890Y12745297D02*
X29045890Y12745297D01*
X20095890Y10085297D02*
X18765890Y10085297D01*
X29045890Y10085297D02*
X29045890Y12745297D01*
X21365890Y10085297D02*
X21365890Y12745297D01*
X18765890Y10085297D02*
X18765890Y11415297D01*
X21365890Y10085297D02*
X29045890Y10085297D01*
%TO.C,J2*%
X41845890Y23920517D02*
X33005890Y23920517D01*
X32744565Y36060517D02*
X32311552Y35810517D01*
X41845890Y21910517D02*
X41845890Y23920517D01*
X41845890Y37120517D02*
X41845890Y39130517D01*
X33005890Y37120517D02*
X41845890Y37120517D01*
X32311552Y36310517D02*
X32744565Y36060517D01*
X41845890Y39130517D02*
X45945890Y39130517D01*
X45945890Y21910517D02*
X41845890Y21910517D01*
X33005890Y23920517D02*
X33005890Y37120517D01*
X32311552Y35810517D02*
X32311552Y36310517D01*
%TO.C,D1*%
X11123299Y38030731D02*
X8033299Y38030731D01*
X8033469Y38030731D02*
G75*
G03*
X9578761Y32480731I1544830J-2560000D01*
G01*
X9577837Y32480732D02*
G75*
G03*
X11123129Y38030730I462J2989999D01*
G01*
X12078299Y35470731D02*
G75*
G03*
X12078299Y35470731I-2500000J0D01*
G01*
%TO.C,U1*%
X11145890Y20700517D02*
X11145890Y19050517D01*
X11145890Y15400517D02*
X31585890Y15400517D01*
X31585890Y20700517D02*
X11145890Y20700517D01*
X31585890Y15400517D02*
X31585890Y20700517D01*
X11145890Y17050517D02*
X11145890Y15400517D01*
X11145890Y17050517D02*
G75*
G03*
X11145890Y19050517I0J1000000D01*
G01*
%TO.C,R6*%
X19234706Y30372777D02*
X17933630Y29071701D01*
X17933630Y29071701D02*
X20648920Y26356411D01*
X21949996Y27657487D02*
X19234706Y30372777D01*
X17912417Y30393990D02*
X18584168Y29722239D01*
X20648920Y26356411D02*
X21949996Y27657487D01*
X21971210Y26335197D02*
X21299458Y27006949D01*
%TO.C,R5*%
X16694706Y30372777D02*
X15393630Y29071701D01*
X15393630Y29071701D02*
X18108920Y26356411D01*
X19409996Y27657487D02*
X16694706Y30372777D01*
X15372417Y30393990D02*
X16044168Y29722239D01*
X18108920Y26356411D02*
X19409996Y27657487D01*
X19431210Y26335197D02*
X18759458Y27006949D01*
%TO.C,R4*%
X14154706Y30372777D02*
X12853630Y29071701D01*
X12853630Y29071701D02*
X15568920Y26356411D01*
X16869996Y27657487D02*
X14154706Y30372777D01*
X12832417Y30393990D02*
X13504168Y29722239D01*
X15568920Y26356411D02*
X16869996Y27657487D01*
X16891210Y26335197D02*
X16219458Y27006949D01*
%TO.C,R3*%
X14351210Y26335197D02*
X13679458Y27006949D01*
X13028920Y26356411D02*
X14329996Y27657487D01*
X10292417Y30393990D02*
X10964168Y29722239D01*
X14329996Y27657487D02*
X11614706Y30372777D01*
X10313630Y29071701D02*
X13028920Y26356411D01*
X11614706Y30372777D02*
X10313630Y29071701D01*
%TO.C,R2*%
X8681443Y16034099D02*
X10521443Y16034099D01*
X10521443Y16034099D02*
X10521443Y19874099D01*
X8681443Y19874099D02*
X8681443Y16034099D01*
X9601443Y15084099D02*
X9601443Y16034099D01*
X10521443Y19874099D02*
X8681443Y19874099D01*
X9601443Y20824099D02*
X9601443Y19874099D01*
%TO.C,R1*%
X28141096Y29797463D02*
X28141096Y31637463D01*
X28141096Y31637463D02*
X24301096Y31637463D01*
X24301096Y29797463D02*
X28141096Y29797463D01*
X29091096Y30717463D02*
X28141096Y30717463D01*
X24301096Y31637463D02*
X24301096Y29797463D01*
X23351096Y30717463D02*
X24301096Y30717463D01*
%TO.C,D4*%
X18743299Y38030731D02*
X15653299Y38030731D01*
X15653469Y38030731D02*
G75*
G03*
X17198761Y32480731I1544830J-2560000D01*
G01*
X17197837Y32480732D02*
G75*
G03*
X18743129Y38030730I462J2989999D01*
G01*
X19698299Y35470731D02*
G75*
G03*
X19698299Y35470731I-2500000J0D01*
G01*
%TO.C,D3*%
X16203299Y38030731D02*
X13113299Y38030731D01*
X13113469Y38030731D02*
G75*
G03*
X14658761Y32480731I1544830J-2560000D01*
G01*
X14657837Y32480732D02*
G75*
G03*
X16203129Y38030730I462J2989999D01*
G01*
X17158299Y35470731D02*
G75*
G03*
X17158299Y35470731I-2500000J0D01*
G01*
%TO.C,D2*%
X13663299Y38030731D02*
X10573299Y38030731D01*
X10573469Y38030731D02*
G75*
G03*
X12118761Y32480731I1544830J-2560000D01*
G01*
X12117837Y32480732D02*
G75*
G03*
X13663129Y38030730I462J2989999D01*
G01*
X14618299Y35470731D02*
G75*
G03*
X14618299Y35470731I-2500000J0D01*
G01*
%TD*%
M02*
