%TF.GenerationSoftware,KiCad,Pcbnew,7.0.5*%
%TF.CreationDate,2024-09-27T00:58:09-04:00*%
%TF.ProjectId,74ls195_for_cnc,37346c73-3139-4355-9f66-6f725f636e63,rev?*%
%TF.SameCoordinates,Original*%
%TF.FileFunction,Copper,L2,Bot*%
%TF.FilePolarity,Positive*%
%FSLAX46Y46*%
G04 Gerber Fmt 4.6, Leading zero omitted, Abs format (unit mm)*
G04 Created by KiCad (PCBNEW 7.0.5) date 2024-09-27 00:58:09*
%MOMM*%
%LPD*%
G01*
G04 APERTURE LIST*
G04 Aperture macros list*
%AMHorizOval*
0 Thick line with rounded ends*
0 $1 width*
0 $2 $3 position (X,Y) of the first rounded end (center of the circle)*
0 $4 $5 position (X,Y) of the second rounded end (center of the circle)*
0 Add line between two ends*
20,1,$1,$2,$3,$4,$5,0*
0 Add two circle primitives to create the rounded ends*
1,1,$1,$2,$3*
1,1,$1,$4,$5*%
G04 Aperture macros list end*
%TA.AperFunction,NonConductor*%
%ADD10C,1.500000*%
%TD*%
%TA.AperFunction,ComponentPad*%
%ADD11R,1.700000X1.700000*%
%TD*%
%TA.AperFunction,ComponentPad*%
%ADD12O,1.700000X1.700000*%
%TD*%
%TA.AperFunction,ComponentPad*%
%ADD13C,1.600000*%
%TD*%
%TA.AperFunction,ComponentPad*%
%ADD14R,1.600000X1.600000*%
%TD*%
%TA.AperFunction,ComponentPad*%
%ADD15R,1.800000X1.800000*%
%TD*%
%TA.AperFunction,ComponentPad*%
%ADD16C,1.800000*%
%TD*%
%TA.AperFunction,ComponentPad*%
%ADD17O,1.600000X1.600000*%
%TD*%
%TA.AperFunction,ComponentPad*%
%ADD18C,1.400000*%
%TD*%
%TA.AperFunction,ComponentPad*%
%ADD19HorizOval,1.400000X0.000000X0.000000X0.000000X0.000000X0*%
%TD*%
%TA.AperFunction,ComponentPad*%
%ADD20O,1.400000X1.400000*%
%TD*%
%TA.AperFunction,Conductor*%
%ADD21C,1.750000*%
%TD*%
G04 APERTURE END LIST*
D10*
X7767445Y13330304D02*
G75*
G03*
X9408471Y11689278I1641026J0D01*
G01*
X18049815Y10635298D02*
G75*
G03*
X17085218Y11599895I-964597J0D01*
G01*
X18043916Y10102688D02*
G75*
G03*
X19045222Y9101382I1001306J0D01*
G01*
X39595198Y26534992D02*
G75*
G03*
X36958344Y29171846I-2636854J0D01*
G01*
X30480000Y14240517D02*
G75*
G03*
X39370000Y23130517I0J8890000D01*
G01*
X11430000Y14461357D02*
G75*
G03*
X12479160Y15510517I0J1049160D01*
G01*
X10160000Y21860517D02*
G75*
G03*
X12700000Y24400517I0J2540000D01*
G01*
X15240000Y28368996D02*
G75*
G03*
X12541521Y25670517I0J-2698479D01*
G01*
X19591066Y28259812D02*
G75*
G03*
X21960013Y30628759I0J2368947D01*
G01*
X33020000Y41813635D02*
G75*
G03*
X21956882Y30750517I0J-11063118D01*
G01*
X39801272Y36812844D02*
G75*
G03*
X35041636Y41572480I-4759636J0D01*
G01*
X36906954Y31755257D02*
G75*
G03*
X39606855Y34455158I0J2699901D01*
G01*
X24502845Y25469139D02*
G75*
G03*
X22939491Y23905785I0J-1563354D01*
G01*
X36932349Y36791411D02*
G75*
G03*
X34752628Y38971132I-2179721J0D01*
G01*
X33020000Y38943156D02*
G75*
G03*
X24827361Y30750517I0J-8192639D01*
G01*
X20320000Y16780517D02*
G75*
G03*
X17780000Y14240517I0J-2540000D01*
G01*
X17780000Y16780517D02*
G75*
G03*
X15240000Y14240517I0J-2540000D01*
G01*
X29210000Y16780517D02*
G75*
G03*
X36830000Y24400517I0J7620000D01*
G01*
X15240000Y14240517D02*
X17780000Y16780517D01*
X17780000Y16780517D02*
X17780000Y14240517D01*
X30480000Y19320517D02*
G75*
G03*
X34290000Y23130517I0J3810000D01*
G01*
X16117352Y19341678D02*
G75*
G03*
X12463986Y15688312I0J-3653366D01*
G01*
X34290000Y23130517D02*
X34290000Y24400517D01*
X33020000Y35830517D02*
G75*
G03*
X27940000Y30750517I0J-5080000D01*
G01*
X33020000Y33290517D02*
G75*
G03*
X30480000Y30750517I0J-2540000D01*
G01*
D11*
%TO.P,J1,1,Pin_1*%
%TO.N,/p0*%
X20095890Y11415297D03*
D12*
%TO.P,J1,2,Pin_2*%
%TO.N,/p1*%
X22635890Y11415297D03*
%TO.P,J1,3,Pin_3*%
%TO.N,/p2*%
X25175890Y11415297D03*
%TO.P,J1,4,Pin_4*%
%TO.N,/p3*%
X27715890Y11415297D03*
%TD*%
D13*
%TO.P,J2,9,9*%
%TO.N,/data_input*%
X36605890Y26365517D03*
%TO.P,J2,8,8*%
%TO.N,GND*%
X36605890Y29135517D03*
%TO.P,J2,7,7*%
%TO.N,+5V*%
X36605890Y31905517D03*
%TO.P,J2,6,6*%
%TO.N,/data_output*%
X36605890Y34675517D03*
%TO.P,J2,5,5*%
%TO.N,/reset*%
X34065890Y24980517D03*
%TO.P,J2,4,4*%
%TO.N,unconnected-(J2-Pad4)*%
X34065890Y27750517D03*
%TO.P,J2,3,3*%
%TO.N,unconnected-(J2-Pad3)*%
X34065890Y30520517D03*
%TO.P,J2,2,2*%
%TO.N,/parallel_load*%
X34065890Y33290517D03*
D14*
%TO.P,J2,1,1*%
%TO.N,/clock*%
X34065890Y36060517D03*
%TD*%
D15*
%TO.P,D1,1,K*%
%TO.N,GND*%
X9578299Y36740731D03*
D16*
%TO.P,D1,2,A*%
%TO.N,Net-(D1-A)*%
X9578299Y34200731D03*
%TD*%
D14*
%TO.P,U1,1,~{MR}*%
%TO.N,/reset*%
X12475890Y14240517D03*
D17*
%TO.P,U1,2,J*%
%TO.N,/data_input*%
X15015890Y14240517D03*
%TO.P,U1,3,~{K}*%
X17555890Y14240517D03*
%TO.P,U1,4,P0*%
%TO.N,/p0*%
X20095890Y14240517D03*
%TO.P,U1,5,P1*%
%TO.N,/p1*%
X22635890Y14240517D03*
%TO.P,U1,6,P2*%
%TO.N,/p2*%
X25175890Y14240517D03*
%TO.P,U1,7,P3*%
%TO.N,/p3*%
X27715890Y14240517D03*
%TO.P,U1,8,GND*%
%TO.N,GND*%
X30255890Y14240517D03*
%TO.P,U1,9,~{PE}*%
%TO.N,/parallel_load*%
X30255890Y21860517D03*
%TO.P,U1,10,CP*%
%TO.N,/clock*%
X27715890Y21860517D03*
%TO.P,U1,11,~{Q3}*%
%TO.N,unconnected-(U1-~{Q3}-Pad11)*%
X25175890Y21860517D03*
%TO.P,U1,12,Q3*%
%TO.N,/data_output*%
X22635890Y21860517D03*
%TO.P,U1,13,Q2*%
%TO.N,Net-(U1-Q2)*%
X20095890Y21860517D03*
%TO.P,U1,14,Q1*%
%TO.N,Net-(U1-Q1)*%
X17555890Y21860517D03*
%TO.P,U1,15,Q0*%
%TO.N,Net-(U1-Q0)*%
X15015890Y21860517D03*
%TO.P,U1,16,VCC*%
%TO.N,+5V*%
X12475890Y21860517D03*
%TD*%
D18*
%TO.P,R6,1*%
%TO.N,/data_output*%
X22635890Y25670517D03*
D19*
%TO.P,R6,2*%
%TO.N,Net-(D4-A)*%
X17247736Y31058671D03*
%TD*%
D18*
%TO.P,R5,1*%
%TO.N,Net-(U1-Q2)*%
X20095890Y25670517D03*
D19*
%TO.P,R5,2*%
%TO.N,Net-(D3-A)*%
X14707736Y31058671D03*
%TD*%
D18*
%TO.P,R4,1*%
%TO.N,Net-(U1-Q1)*%
X17555890Y25670517D03*
D19*
%TO.P,R4,2*%
%TO.N,Net-(D2-A)*%
X12167736Y31058671D03*
%TD*%
%TO.P,R3,2*%
%TO.N,Net-(D1-A)*%
X9627736Y31058671D03*
D18*
%TO.P,R3,1*%
%TO.N,Net-(U1-Q0)*%
X15015890Y25670517D03*
%TD*%
%TO.P,R2,1*%
%TO.N,+5V*%
X9601443Y21764099D03*
D20*
%TO.P,R2,2*%
%TO.N,/reset*%
X9601443Y14144099D03*
%TD*%
D18*
%TO.P,R1,1*%
%TO.N,+5V*%
X22411096Y30717463D03*
D20*
%TO.P,R1,2*%
%TO.N,/parallel_load*%
X30031096Y30717463D03*
%TD*%
D15*
%TO.P,D4,1,K*%
%TO.N,GND*%
X17198299Y36740731D03*
D16*
%TO.P,D4,2,A*%
%TO.N,Net-(D4-A)*%
X17198299Y34200731D03*
%TD*%
D15*
%TO.P,D3,1,K*%
%TO.N,GND*%
X14658299Y36740731D03*
D16*
%TO.P,D3,2,A*%
%TO.N,Net-(D3-A)*%
X14658299Y34200731D03*
%TD*%
D15*
%TO.P,D2,1,K*%
%TO.N,GND*%
X12118299Y36740731D03*
D16*
%TO.P,D2,2,A*%
%TO.N,Net-(D2-A)*%
X12118299Y34200731D03*
%TD*%
D21*
%TO.N,GND*%
X7134776Y36834019D02*
X7228064Y36740731D01*
X7620000Y27784429D02*
X7134776Y28269653D01*
X7134776Y28269653D02*
X7134776Y36834019D01*
X7620000Y11483858D02*
X7620000Y27784429D01*
X16755064Y11483858D02*
X7620000Y11483858D01*
X7228064Y36740731D02*
X17422409Y36740731D01*
X17808405Y10430517D02*
X16755064Y11483858D01*
%TO.N,/reset*%
X9825553Y14144099D02*
X12603582Y14144099D01*
X12603582Y14144099D02*
X12700000Y14240517D01*
%TO.N,+5V*%
X9921971Y21860517D02*
X9825553Y21764099D01*
X12700000Y21860517D02*
X9921971Y21860517D01*
%TO.N,GND*%
X8890000Y10430517D02*
X7620000Y10430517D01*
X17808405Y10430517D02*
X8890000Y10430517D01*
X7620000Y10430517D02*
X7620000Y25505490D01*
X7620000Y25505490D02*
X6134293Y26991197D01*
X6134293Y10430517D02*
X6134293Y26991197D01*
X6134293Y26991197D02*
X6134293Y38370517D01*
X7620000Y10430517D02*
X6134293Y10430517D01*
X19916669Y38370517D02*
X21186669Y39640517D01*
X6134293Y38370517D02*
X19916669Y38370517D01*
X21186669Y39640517D02*
X22668259Y39640517D01*
X6134293Y39640517D02*
X21186669Y39640517D01*
X6134293Y38370517D02*
X6134293Y39640517D01*
X24277839Y41250097D02*
X22936841Y39909099D01*
X22936841Y39909099D02*
X19761308Y36733566D01*
X6134293Y39640517D02*
X6134293Y41162216D01*
X22668259Y39640517D02*
X22936841Y39909099D01*
X6134293Y41162216D02*
X6350000Y41377923D01*
X6350000Y41377923D02*
X24277839Y41377923D01*
X4784320Y41377923D02*
X6350000Y41377923D01*
X17808405Y8941535D02*
X17808405Y10430517D01*
X6134293Y10430517D02*
X4864293Y9160517D01*
X17589423Y9160517D02*
X17808405Y8941535D01*
X4864293Y9160517D02*
X17589423Y9160517D01*
X4864293Y9160517D02*
X4864293Y41297950D01*
X4864293Y7890517D02*
X4864293Y9160517D01*
X32304269Y6620517D02*
X32419280Y6735528D01*
X4864293Y6620517D02*
X32304269Y6620517D01*
X4864293Y6620517D02*
X4864293Y7890517D01*
X4864293Y6066248D02*
X4864293Y6620517D01*
X32419280Y7890517D02*
X4864293Y7890517D01*
X32419280Y7890517D02*
X32419280Y6735528D01*
X32419280Y14240517D02*
X32419280Y7890517D01*
X39356765Y16780517D02*
X36830000Y14253752D01*
X39816812Y16780517D02*
X39356765Y16780517D01*
X39816812Y15970564D02*
X38100000Y14253752D01*
X39816812Y16780517D02*
X39816812Y15970564D01*
X39816812Y16780517D02*
X39816812Y19320517D01*
X39816812Y14564475D02*
X39816812Y16780517D01*
X39816812Y19320517D02*
X39816812Y28943842D01*
X39816812Y18510564D02*
X35560000Y14253752D01*
X39816812Y19320517D02*
X39816812Y18510564D01*
X39816812Y28943842D02*
X39625137Y29135517D01*
X39506089Y14253752D02*
X39816812Y14564475D01*
X40640000Y13119841D02*
X40640000Y6066248D01*
X39506089Y14253752D02*
X40640000Y13119841D01*
X40640000Y6066248D02*
X39370000Y6066248D01*
X41318772Y6066248D02*
X40640000Y6066248D01*
X39370000Y14117663D02*
X39506089Y14253752D01*
X39370000Y6066248D02*
X38100000Y6066248D01*
X39370000Y6066248D02*
X39370000Y14117663D01*
X38100000Y6066248D02*
X38100000Y14253752D01*
X38100000Y14253752D02*
X39506089Y14253752D01*
X36830000Y14253752D02*
X38100000Y14253752D01*
X38100000Y6066248D02*
X36830000Y6066248D01*
X36830000Y6066248D02*
X36830000Y14253752D01*
X35560000Y14253752D02*
X36830000Y14253752D01*
X36830000Y6066248D02*
X35560000Y6066248D01*
X35560000Y6066248D02*
X35560000Y14253752D01*
X35560000Y6066248D02*
X34290000Y6066248D01*
X34290000Y14253752D02*
X35560000Y14253752D01*
X34290000Y6066248D02*
X34290000Y14253752D01*
X33020000Y14253752D02*
X34290000Y14253752D01*
X34290000Y6066248D02*
X33020000Y6066248D01*
X33020000Y6066248D02*
X33020000Y14253752D01*
X32432515Y14253752D02*
X33020000Y14253752D01*
X33020000Y6066248D02*
X31750000Y6066248D01*
X31750000Y6066248D02*
X31750000Y14240517D01*
X31750000Y14240517D02*
X32419280Y14240517D01*
X30480000Y14240517D02*
X31750000Y14240517D01*
X32419280Y6735528D02*
X31750000Y6066248D01*
X31750000Y6066248D02*
X4864293Y6066248D01*
X19754143Y36740731D02*
X17422409Y36740731D01*
X19761308Y36733566D02*
X19754143Y36740731D01*
X4864293Y41297950D02*
X4784320Y41377923D01*
X24277839Y41377923D02*
X24277839Y41250097D01*
X41318772Y30829152D02*
X41318772Y6066248D01*
X39625137Y29135517D02*
X41318772Y30829152D01*
X36830000Y29135517D02*
X39625137Y29135517D01*
X17928809Y8821131D02*
X17808405Y8941535D01*
X30430417Y8821131D02*
X17928809Y8821131D01*
X30494331Y8885045D02*
X30430417Y8821131D01*
X30480000Y8899376D02*
X30494331Y8885045D01*
X30480000Y14240517D02*
X30480000Y8899376D01*
X32419280Y14240517D02*
X32432515Y14253752D01*
%TO.N,/p3*%
X27940000Y14240517D02*
X27940000Y11415297D01*
%TO.N,/p2*%
X25400000Y14240517D02*
X25400000Y11415297D01*
%TO.N,/p1*%
X22860000Y14240517D02*
X22860000Y11415297D01*
%TO.N,/p0*%
X20320000Y14240517D02*
X20320000Y11415297D01*
%TO.N,*%
X39704077Y34680418D02*
X39725381Y34659114D01*
X39704077Y36789553D02*
X39704077Y34680418D01*
%TO.N,+5V*%
X34441892Y41689563D02*
X34463196Y41668259D01*
X33099715Y41689563D02*
X34441892Y41689563D01*
%TO.N,*%
X15240000Y28210517D02*
X19050000Y28210517D01*
%TO.N,+5V*%
X12700000Y24955723D02*
X12668803Y24986920D01*
X12700000Y21860517D02*
X12700000Y24955723D01*
%TO.N,Net-(D4-A)*%
X17471846Y34151294D02*
X17422409Y34200731D01*
X17471846Y31058671D02*
X17471846Y34151294D01*
%TO.N,Net-(D3-A)*%
X14882409Y31108108D02*
X14931846Y31058671D01*
X14882409Y34200731D02*
X14882409Y31108108D01*
%TO.N,Net-(D2-A)*%
X12342409Y31108108D02*
X12391846Y31058671D01*
X12342409Y34200731D02*
X12342409Y31108108D01*
%TO.N,Net-(D1-A)*%
X9851846Y34151294D02*
X9802409Y34200731D01*
X9851846Y31058671D02*
X9851846Y34151294D01*
%TO.N,/data_output*%
X24846085Y25734431D02*
X24846085Y30527919D01*
X24846085Y30527919D02*
X24952607Y30634441D01*
X24782171Y25670517D02*
X24846085Y25734431D01*
X22860000Y25670517D02*
X24782171Y25670517D01*
X36830000Y34675517D02*
X36830000Y36469649D01*
X36830000Y36469649D02*
X36818121Y36481528D01*
%TO.N,*%
X34432029Y38924432D02*
X33111156Y38924432D01*
X34446232Y38938635D02*
X34432029Y38924432D01*
%TO.N,/data_input*%
X20320000Y16780517D02*
X29210000Y16780517D01*
X20320000Y16780517D02*
X17780000Y16780517D01*
X36830000Y26365517D02*
X36830000Y24400517D01*
%TO.N,*%
X17780000Y19320517D02*
X16510000Y19320517D01*
%TO.N,/reset*%
X12700000Y14240517D02*
X12700000Y15510517D01*
%TO.N,*%
X30480000Y19320517D02*
X17780000Y19320517D01*
%TO.N,/data_input*%
X15240000Y14240517D02*
X17780000Y14240517D01*
%TO.N,/clock*%
X27940000Y21860517D02*
X27940000Y30750517D01*
X32725652Y36060517D02*
X32725224Y36060089D01*
X34290000Y36060517D02*
X32725652Y36060517D01*
%TO.N,/parallel_load*%
X30480000Y21860517D02*
X30480000Y30750517D01*
X34290000Y33290517D02*
X33020000Y33290517D01*
%TO.N,/data_output*%
X22860000Y25670517D02*
X22860000Y21860517D01*
%TO.N,Net-(U1-Q2)*%
X20320000Y21860517D02*
X20320000Y25670517D01*
%TO.N,Net-(U1-Q1)*%
X17780000Y25670517D02*
X17780000Y21860517D01*
%TO.N,Net-(U1-Q0)*%
X15240000Y21860517D02*
X15240000Y25670517D01*
%TD*%
M02*
