%TF.GenerationSoftware,KiCad,Pcbnew,7.0.5*%
%TF.CreationDate,2024-09-27T00:58:09-04:00*%
%TF.ProjectId,74ls195_for_cnc,37346c73-3139-4355-9f66-6f725f636e63,rev?*%
%TF.SameCoordinates,Original*%
%TF.FileFunction,Copper,L1,Top*%
%TF.FilePolarity,Positive*%
%FSLAX46Y46*%
G04 Gerber Fmt 4.6, Leading zero omitted, Abs format (unit mm)*
G04 Created by KiCad (PCBNEW 7.0.5) date 2024-09-27 00:58:09*
%MOMM*%
%LPD*%
G01*
G04 APERTURE LIST*
G04 Aperture macros list*
%AMHorizOval*
0 Thick line with rounded ends*
0 $1 width*
0 $2 $3 position (X,Y) of the first rounded end (center of the circle)*
0 $4 $5 position (X,Y) of the second rounded end (center of the circle)*
0 Add line between two ends*
20,1,$1,$2,$3,$4,$5,0*
0 Add two circle primitives to create the rounded ends*
1,1,$1,$2,$3*
1,1,$1,$4,$5*%
G04 Aperture macros list end*
%TA.AperFunction,ComponentPad*%
%ADD10R,1.700000X1.700000*%
%TD*%
%TA.AperFunction,ComponentPad*%
%ADD11O,1.700000X1.700000*%
%TD*%
%TA.AperFunction,ComponentPad*%
%ADD12C,1.600000*%
%TD*%
%TA.AperFunction,ComponentPad*%
%ADD13R,1.600000X1.600000*%
%TD*%
%TA.AperFunction,ComponentPad*%
%ADD14R,1.800000X1.800000*%
%TD*%
%TA.AperFunction,ComponentPad*%
%ADD15C,1.800000*%
%TD*%
%TA.AperFunction,ComponentPad*%
%ADD16O,1.600000X1.600000*%
%TD*%
%TA.AperFunction,ComponentPad*%
%ADD17C,1.400000*%
%TD*%
%TA.AperFunction,ComponentPad*%
%ADD18HorizOval,1.400000X0.000000X0.000000X0.000000X0.000000X0*%
%TD*%
%TA.AperFunction,ComponentPad*%
%ADD19O,1.400000X1.400000*%
%TD*%
G04 APERTURE END LIST*
D10*
%TO.P,J1,1,Pin_1*%
%TO.N,/p0*%
X20095890Y11415297D03*
D11*
%TO.P,J1,2,Pin_2*%
%TO.N,/p1*%
X22635890Y11415297D03*
%TO.P,J1,3,Pin_3*%
%TO.N,/p2*%
X25175890Y11415297D03*
%TO.P,J1,4,Pin_4*%
%TO.N,/p3*%
X27715890Y11415297D03*
%TD*%
D12*
%TO.P,J2,9,9*%
%TO.N,/data_input*%
X36605890Y26365517D03*
%TO.P,J2,8,8*%
%TO.N,GND*%
X36605890Y29135517D03*
%TO.P,J2,7,7*%
%TO.N,+5V*%
X36605890Y31905517D03*
%TO.P,J2,6,6*%
%TO.N,/data_output*%
X36605890Y34675517D03*
%TO.P,J2,5,5*%
%TO.N,/reset*%
X34065890Y24980517D03*
%TO.P,J2,4,4*%
%TO.N,unconnected-(J2-Pad4)*%
X34065890Y27750517D03*
%TO.P,J2,3,3*%
%TO.N,unconnected-(J2-Pad3)*%
X34065890Y30520517D03*
%TO.P,J2,2,2*%
%TO.N,/parallel_load*%
X34065890Y33290517D03*
D13*
%TO.P,J2,1,1*%
%TO.N,/clock*%
X34065890Y36060517D03*
%TD*%
D14*
%TO.P,D1,1,K*%
%TO.N,GND*%
X9578299Y36740731D03*
D15*
%TO.P,D1,2,A*%
%TO.N,Net-(D1-A)*%
X9578299Y34200731D03*
%TD*%
D13*
%TO.P,U1,1,~{MR}*%
%TO.N,/reset*%
X12475890Y14240517D03*
D16*
%TO.P,U1,2,J*%
%TO.N,/data_input*%
X15015890Y14240517D03*
%TO.P,U1,3,~{K}*%
X17555890Y14240517D03*
%TO.P,U1,4,P0*%
%TO.N,/p0*%
X20095890Y14240517D03*
%TO.P,U1,5,P1*%
%TO.N,/p1*%
X22635890Y14240517D03*
%TO.P,U1,6,P2*%
%TO.N,/p2*%
X25175890Y14240517D03*
%TO.P,U1,7,P3*%
%TO.N,/p3*%
X27715890Y14240517D03*
%TO.P,U1,8,GND*%
%TO.N,GND*%
X30255890Y14240517D03*
%TO.P,U1,9,~{PE}*%
%TO.N,/parallel_load*%
X30255890Y21860517D03*
%TO.P,U1,10,CP*%
%TO.N,/clock*%
X27715890Y21860517D03*
%TO.P,U1,11,~{Q3}*%
%TO.N,unconnected-(U1-~{Q3}-Pad11)*%
X25175890Y21860517D03*
%TO.P,U1,12,Q3*%
%TO.N,/data_output*%
X22635890Y21860517D03*
%TO.P,U1,13,Q2*%
%TO.N,Net-(U1-Q2)*%
X20095890Y21860517D03*
%TO.P,U1,14,Q1*%
%TO.N,Net-(U1-Q1)*%
X17555890Y21860517D03*
%TO.P,U1,15,Q0*%
%TO.N,Net-(U1-Q0)*%
X15015890Y21860517D03*
%TO.P,U1,16,VCC*%
%TO.N,+5V*%
X12475890Y21860517D03*
%TD*%
D17*
%TO.P,R6,1*%
%TO.N,/data_output*%
X22635890Y25670517D03*
D18*
%TO.P,R6,2*%
%TO.N,Net-(D4-A)*%
X17247736Y31058671D03*
%TD*%
D17*
%TO.P,R5,1*%
%TO.N,Net-(U1-Q2)*%
X20095890Y25670517D03*
D18*
%TO.P,R5,2*%
%TO.N,Net-(D3-A)*%
X14707736Y31058671D03*
%TD*%
D17*
%TO.P,R4,1*%
%TO.N,Net-(U1-Q1)*%
X17555890Y25670517D03*
D18*
%TO.P,R4,2*%
%TO.N,Net-(D2-A)*%
X12167736Y31058671D03*
%TD*%
%TO.P,R3,2*%
%TO.N,Net-(D1-A)*%
X9627736Y31058671D03*
D17*
%TO.P,R3,1*%
%TO.N,Net-(U1-Q0)*%
X15015890Y25670517D03*
%TD*%
%TO.P,R2,1*%
%TO.N,+5V*%
X9601443Y21764099D03*
D19*
%TO.P,R2,2*%
%TO.N,/reset*%
X9601443Y14144099D03*
%TD*%
D17*
%TO.P,R1,1*%
%TO.N,+5V*%
X22411096Y30717463D03*
D19*
%TO.P,R1,2*%
%TO.N,/parallel_load*%
X30031096Y30717463D03*
%TD*%
D14*
%TO.P,D4,1,K*%
%TO.N,GND*%
X17198299Y36740731D03*
D15*
%TO.P,D4,2,A*%
%TO.N,Net-(D4-A)*%
X17198299Y34200731D03*
%TD*%
D14*
%TO.P,D3,1,K*%
%TO.N,GND*%
X14658299Y36740731D03*
D15*
%TO.P,D3,2,A*%
%TO.N,Net-(D3-A)*%
X14658299Y34200731D03*
%TD*%
D14*
%TO.P,D2,1,K*%
%TO.N,GND*%
X12118299Y36740731D03*
D15*
%TO.P,D2,2,A*%
%TO.N,Net-(D2-A)*%
X12118299Y34200731D03*
%TD*%
M02*
