%TF.GenerationSoftware,KiCad,Pcbnew,7.0.5*%
%TF.CreationDate,2024-09-17T03:27:58-04:00*%
%TF.ProjectId,motherboard,6d6f7468-6572-4626-9f61-72642e6b6963,rev?*%
%TF.SameCoordinates,Original*%
%TF.FileFunction,Paste,Top*%
%TF.FilePolarity,Positive*%
%FSLAX46Y46*%
G04 Gerber Fmt 4.6, Leading zero omitted, Abs format (unit mm)*
G04 Created by KiCad (PCBNEW 7.0.5) date 2024-09-17 03:27:58*
%MOMM*%
%LPD*%
G01*
G04 APERTURE LIST*
G04 Aperture macros list*
%AMRoundRect*
0 Rectangle with rounded corners*
0 $1 Rounding radius*
0 $2 $3 $4 $5 $6 $7 $8 $9 X,Y pos of 4 corners*
0 Add a 4 corners polygon primitive as box body*
4,1,4,$2,$3,$4,$5,$6,$7,$8,$9,$2,$3,0*
0 Add four circle primitives for the rounded corners*
1,1,$1+$1,$2,$3*
1,1,$1+$1,$4,$5*
1,1,$1+$1,$6,$7*
1,1,$1+$1,$8,$9*
0 Add four rect primitives between the rounded corners*
20,1,$1+$1,$2,$3,$4,$5,0*
20,1,$1+$1,$4,$5,$6,$7,0*
20,1,$1+$1,$6,$7,$8,$9,0*
20,1,$1+$1,$8,$9,$2,$3,0*%
G04 Aperture macros list end*
%ADD10RoundRect,0.237500X0.250000X0.237500X-0.250000X0.237500X-0.250000X-0.237500X0.250000X-0.237500X0*%
%ADD11RoundRect,0.237500X-0.237500X0.250000X-0.237500X-0.250000X0.237500X-0.250000X0.237500X0.250000X0*%
%ADD12RoundRect,0.237500X-0.237500X0.287500X-0.237500X-0.287500X0.237500X-0.287500X0.237500X0.287500X0*%
G04 APERTURE END LIST*
D10*
%TO.C,r144*%
X248562500Y-146260000D03*
X246737500Y-146260000D03*
%TD*%
%TO.C,r143*%
X248562500Y-143330000D03*
X246737500Y-143330000D03*
%TD*%
%TO.C,r142*%
X248562500Y-140820000D03*
X246737500Y-140820000D03*
%TD*%
%TO.C,r141*%
X248562500Y-138310000D03*
X246737500Y-138310000D03*
%TD*%
%TO.C,r140*%
X248562500Y-135800000D03*
X246737500Y-135800000D03*
%TD*%
%TO.C,r139*%
X248562500Y-133290000D03*
X246737500Y-133290000D03*
%TD*%
%TO.C,r138*%
X248562500Y-130780000D03*
X246737500Y-130780000D03*
%TD*%
%TO.C,r137*%
X248562500Y-128270000D03*
X246737500Y-128270000D03*
%TD*%
D11*
%TO.C,r136*%
X241300000Y-42267500D03*
X241300000Y-44092500D03*
%TD*%
D10*
%TO.C,r135*%
X235524338Y-146050000D03*
X233699338Y-146050000D03*
%TD*%
%TO.C,r134*%
X235524338Y-143510000D03*
X233699338Y-143510000D03*
%TD*%
%TO.C,r133*%
X235524338Y-140970000D03*
X233699338Y-140970000D03*
%TD*%
%TO.C,r132*%
X233699338Y-138430000D03*
X235524338Y-138430000D03*
%TD*%
%TO.C,r131*%
X235524338Y-135683756D03*
X233699338Y-135683756D03*
%TD*%
%TO.C,r130*%
X235524338Y-133173756D03*
X233699338Y-133173756D03*
%TD*%
%TO.C,r129*%
X235524338Y-130663756D03*
X233699338Y-130663756D03*
%TD*%
%TO.C,r128*%
X235524338Y-128153756D03*
X233699338Y-128153756D03*
%TD*%
D11*
%TO.C,r127*%
X228600000Y-42267500D03*
X228600000Y-44092500D03*
%TD*%
D10*
%TO.C,r126*%
X223162500Y-145870000D03*
X221337500Y-145870000D03*
%TD*%
%TO.C,r125*%
X223162500Y-143360000D03*
X221337500Y-143360000D03*
%TD*%
%TO.C,r124*%
X223162500Y-140850000D03*
X221337500Y-140850000D03*
%TD*%
%TO.C,r123*%
X223162500Y-138340000D03*
X221337500Y-138340000D03*
%TD*%
%TO.C,r122*%
X223162500Y-135830000D03*
X221337500Y-135830000D03*
%TD*%
%TO.C,r121*%
X223162500Y-133320000D03*
X221337500Y-133320000D03*
%TD*%
%TO.C,r120*%
X223162500Y-130810000D03*
X221337500Y-130810000D03*
%TD*%
%TO.C,r119*%
X222805000Y-128270000D03*
X220980000Y-128270000D03*
%TD*%
D11*
%TO.C,r118*%
X215900000Y-42267500D03*
X215900000Y-44092500D03*
%TD*%
D10*
%TO.C,r117*%
X210462500Y-145840000D03*
X208637500Y-145840000D03*
%TD*%
%TO.C,r116*%
X210462500Y-143330000D03*
X208637500Y-143330000D03*
%TD*%
%TO.C,r115*%
X210462500Y-140820000D03*
X208637500Y-140820000D03*
%TD*%
%TO.C,r114*%
X210462500Y-138310000D03*
X208637500Y-138310000D03*
%TD*%
%TO.C,r113*%
X210462500Y-135800000D03*
X208637500Y-135800000D03*
%TD*%
%TO.C,r112*%
X210462500Y-133290000D03*
X208637500Y-133290000D03*
%TD*%
%TO.C,r111*%
X210462500Y-130780000D03*
X208637500Y-130780000D03*
%TD*%
%TO.C,r110*%
X210462500Y-128270000D03*
X208637500Y-128270000D03*
%TD*%
D11*
%TO.C,r109*%
X203200000Y-42267500D03*
X203200000Y-44092500D03*
%TD*%
D10*
%TO.C,r108*%
X197403333Y-145840234D03*
X195578333Y-145840234D03*
%TD*%
%TO.C,r107*%
X197403333Y-143330234D03*
X195578333Y-143330234D03*
%TD*%
%TO.C,r106*%
X197403333Y-140820234D03*
X195578333Y-140820234D03*
%TD*%
%TO.C,r105*%
X197403333Y-138310234D03*
X195578333Y-138310234D03*
%TD*%
%TO.C,r104*%
X197403333Y-135800234D03*
X195578333Y-135800234D03*
%TD*%
%TO.C,r103*%
X197403333Y-133290234D03*
X195578333Y-133290234D03*
%TD*%
%TO.C,r102*%
X197377845Y-130609199D03*
X195552845Y-130609199D03*
%TD*%
%TO.C,r101*%
X197377845Y-128099199D03*
X195552845Y-128099199D03*
%TD*%
D11*
%TO.C,r100*%
X190500000Y-42267500D03*
X190500000Y-44092500D03*
%TD*%
D10*
%TO.C,r99*%
X184505108Y-146050000D03*
X182680108Y-146050000D03*
%TD*%
%TO.C,r98*%
X184505108Y-143510000D03*
X182680108Y-143510000D03*
%TD*%
%TO.C,r97*%
X184505108Y-140970000D03*
X182680108Y-140970000D03*
%TD*%
%TO.C,r96*%
X184505108Y-138430000D03*
X182680108Y-138430000D03*
%TD*%
%TO.C,r95*%
X184505108Y-135890000D03*
X182680108Y-135890000D03*
%TD*%
%TO.C,r94*%
X184505108Y-133350000D03*
X182680108Y-133350000D03*
%TD*%
%TO.C,r93*%
X184505108Y-130810000D03*
X182680108Y-130810000D03*
%TD*%
%TO.C,r92*%
X184505108Y-128164940D03*
X182680108Y-128164940D03*
%TD*%
D11*
%TO.C,r91*%
X177800000Y-42267500D03*
X177800000Y-44092500D03*
%TD*%
D10*
%TO.C,r90*%
X172094980Y-146050000D03*
X170269980Y-146050000D03*
%TD*%
%TO.C,r89*%
X172094980Y-143540000D03*
X170269980Y-143540000D03*
%TD*%
%TO.C,r88*%
X172094980Y-141030000D03*
X170269980Y-141030000D03*
%TD*%
%TO.C,r87*%
X172094980Y-138520000D03*
X170269980Y-138520000D03*
%TD*%
%TO.C,r86*%
X172094980Y-136010000D03*
X170269980Y-136010000D03*
%TD*%
%TO.C,r85*%
X172184941Y-133290000D03*
X170359941Y-133290000D03*
%TD*%
%TO.C,r84*%
X172184941Y-130780000D03*
X170359941Y-130780000D03*
%TD*%
%TO.C,r83*%
X172184941Y-128270000D03*
X170359941Y-128270000D03*
%TD*%
D11*
%TO.C,r82*%
X165100000Y-42267500D03*
X165100000Y-44092500D03*
%TD*%
D10*
%TO.C,r81*%
X159320361Y-146050000D03*
X157495361Y-146050000D03*
%TD*%
%TO.C,r80*%
X159320361Y-143510000D03*
X157495361Y-143510000D03*
%TD*%
%TO.C,r79*%
X159320361Y-140970000D03*
X157495361Y-140970000D03*
%TD*%
%TO.C,r78*%
X159320361Y-138430000D03*
X157495361Y-138430000D03*
%TD*%
%TO.C,r77*%
X159320361Y-135890000D03*
X157495361Y-135890000D03*
%TD*%
%TO.C,r76*%
X159320361Y-133350000D03*
X157495361Y-133350000D03*
%TD*%
%TO.C,r75*%
X157495361Y-130810000D03*
X159320361Y-130810000D03*
%TD*%
%TO.C,r74*%
X159320361Y-128198876D03*
X157495361Y-128198876D03*
%TD*%
D11*
%TO.C,r73*%
X152400000Y-42267500D03*
X152400000Y-44092500D03*
%TD*%
D10*
%TO.C,r72*%
X146496337Y-145951860D03*
X144671337Y-145951860D03*
%TD*%
%TO.C,r71*%
X146496337Y-143441860D03*
X144671337Y-143441860D03*
%TD*%
%TO.C,r70*%
X146496337Y-140931860D03*
X144671337Y-140931860D03*
%TD*%
%TO.C,r69*%
X146496337Y-138421860D03*
X144671337Y-138421860D03*
%TD*%
%TO.C,r68*%
X146564593Y-135890000D03*
X144739593Y-135890000D03*
%TD*%
%TO.C,r67*%
X146564593Y-133144069D03*
X144739593Y-133144069D03*
%TD*%
%TO.C,r66*%
X146564593Y-130634069D03*
X144739593Y-130634069D03*
%TD*%
%TO.C,r65*%
X146564593Y-128124069D03*
X144739593Y-128124069D03*
%TD*%
D11*
%TO.C,r64*%
X139700000Y-42625000D03*
X139700000Y-44450000D03*
%TD*%
D10*
%TO.C,r63*%
X133905000Y-145840000D03*
X132080000Y-145840000D03*
%TD*%
%TO.C,r62*%
X133905000Y-143330000D03*
X132080000Y-143330000D03*
%TD*%
%TO.C,r61*%
X133905000Y-140820000D03*
X132080000Y-140820000D03*
%TD*%
%TO.C,r60*%
X133905000Y-138310000D03*
X132080000Y-138310000D03*
%TD*%
%TO.C,r59*%
X133905000Y-135800000D03*
X132080000Y-135800000D03*
%TD*%
%TO.C,r58*%
X133905000Y-133290000D03*
X132080000Y-133290000D03*
%TD*%
%TO.C,r57*%
X133905000Y-130780000D03*
X132080000Y-130780000D03*
%TD*%
%TO.C,r56*%
X133905000Y-128270000D03*
X132080000Y-128270000D03*
%TD*%
D11*
%TO.C,r55*%
X127000000Y-42267500D03*
X127000000Y-44092500D03*
%TD*%
D10*
%TO.C,r54*%
X121562500Y-145990000D03*
X119737500Y-145990000D03*
%TD*%
%TO.C,r53*%
X121562500Y-143480000D03*
X119737500Y-143480000D03*
%TD*%
%TO.C,r52*%
X121562500Y-140970000D03*
X119737500Y-140970000D03*
%TD*%
%TO.C,r51*%
X121562500Y-138310000D03*
X119737500Y-138310000D03*
%TD*%
%TO.C,r50*%
X121562500Y-135800000D03*
X119737500Y-135800000D03*
%TD*%
%TO.C,r49*%
X121562500Y-133290000D03*
X119737500Y-133290000D03*
%TD*%
%TO.C,r48*%
X121562500Y-130780000D03*
X119737500Y-130780000D03*
%TD*%
%TO.C,r47*%
X121562500Y-128270000D03*
X119737500Y-128270000D03*
%TD*%
D11*
%TO.C,r46*%
X114300000Y-42267500D03*
X114300000Y-44092500D03*
%TD*%
D10*
%TO.C,r45*%
X108564780Y-145880439D03*
X106739780Y-145880439D03*
%TD*%
%TO.C,r44*%
X106739780Y-143370439D03*
X108564780Y-143370439D03*
%TD*%
%TO.C,r43*%
X108564780Y-140860439D03*
X106739780Y-140860439D03*
%TD*%
%TO.C,r42*%
X108564780Y-138350439D03*
X106739780Y-138350439D03*
%TD*%
%TO.C,r41*%
X108564780Y-135840439D03*
X106739780Y-135840439D03*
%TD*%
%TO.C,r40*%
X108564780Y-133330439D03*
X106739780Y-133330439D03*
%TD*%
%TO.C,r39*%
X108564780Y-130820439D03*
X106739780Y-130820439D03*
%TD*%
%TO.C,r38*%
X108564780Y-128310439D03*
X106739780Y-128310439D03*
%TD*%
D11*
%TO.C,r37*%
X101600000Y-42267500D03*
X101600000Y-44092500D03*
%TD*%
D10*
%TO.C,r36*%
X96162500Y-146050000D03*
X94337500Y-146050000D03*
%TD*%
%TO.C,r35*%
X96162500Y-143510000D03*
X94337500Y-143510000D03*
%TD*%
%TO.C,r34*%
X96162500Y-140970000D03*
X94337500Y-140970000D03*
%TD*%
%TO.C,r33*%
X96162500Y-138430000D03*
X94337500Y-138430000D03*
%TD*%
%TO.C,r32*%
X96162500Y-135890000D03*
X94337500Y-135890000D03*
%TD*%
%TO.C,r31*%
X96162500Y-133350000D03*
X94337500Y-133350000D03*
%TD*%
%TO.C,r30*%
X96162500Y-130810000D03*
X94337500Y-130810000D03*
%TD*%
%TO.C,r29*%
X96162500Y-128270000D03*
X94337500Y-128270000D03*
%TD*%
D11*
%TO.C,r28*%
X88900000Y-42267500D03*
X88900000Y-44092500D03*
%TD*%
D10*
%TO.C,r27*%
X83462500Y-146050000D03*
X81637500Y-146050000D03*
%TD*%
%TO.C,r26*%
X83462500Y-143540000D03*
X81637500Y-143540000D03*
%TD*%
%TO.C,r25*%
X83462500Y-141030000D03*
X81637500Y-141030000D03*
%TD*%
%TO.C,r24*%
X83462500Y-138520000D03*
X81637500Y-138520000D03*
%TD*%
%TO.C,r23*%
X83462500Y-136010000D03*
X81637500Y-136010000D03*
%TD*%
%TO.C,r22*%
X83462500Y-133500000D03*
X81637500Y-133500000D03*
%TD*%
%TO.C,r21*%
X83462500Y-130990000D03*
X81637500Y-130990000D03*
%TD*%
%TO.C,r20*%
X83462500Y-128480000D03*
X81637500Y-128480000D03*
%TD*%
D11*
%TO.C,r19*%
X76200000Y-42267500D03*
X76200000Y-44092500D03*
%TD*%
D10*
%TO.C,r18*%
X58062500Y-146050000D03*
X56237500Y-146050000D03*
%TD*%
%TO.C,r17*%
X58062500Y-143510000D03*
X56237500Y-143510000D03*
%TD*%
%TO.C,r16*%
X58062500Y-140970000D03*
X56237500Y-140970000D03*
%TD*%
%TO.C,r15*%
X58062500Y-138490000D03*
X56237500Y-138490000D03*
%TD*%
%TO.C,r14*%
X58062500Y-135980000D03*
X56237500Y-135980000D03*
%TD*%
%TO.C,r13*%
X56237500Y-133470000D03*
X58062500Y-133470000D03*
%TD*%
%TO.C,r12*%
X58062500Y-130810000D03*
X56237500Y-130810000D03*
%TD*%
%TO.C,r11*%
X56237500Y-128270000D03*
X58062500Y-128270000D03*
%TD*%
D11*
%TO.C,r10*%
X50800000Y-42267500D03*
X50800000Y-44092500D03*
%TD*%
D10*
%TO.C,r9*%
X70762500Y-146050000D03*
X68937500Y-146050000D03*
%TD*%
%TO.C,r8*%
X68937500Y-143330000D03*
X70762500Y-143330000D03*
%TD*%
%TO.C,r7*%
X70762500Y-140820000D03*
X68937500Y-140820000D03*
%TD*%
%TO.C,r6*%
X70762500Y-138310000D03*
X68937500Y-138310000D03*
%TD*%
%TO.C,r5*%
X70762500Y-135800000D03*
X68937500Y-135800000D03*
%TD*%
%TO.C,r4*%
X70762500Y-133290000D03*
X68937500Y-133290000D03*
%TD*%
%TO.C,r3*%
X70762500Y-130780000D03*
X68937500Y-130780000D03*
%TD*%
%TO.C,r2*%
X70762500Y-128270000D03*
X68937500Y-128270000D03*
%TD*%
D11*
%TO.C,r1*%
X63500000Y-44092500D03*
X63500000Y-42267500D03*
%TD*%
D12*
%TO.C,D16*%
X241300000Y-38495000D03*
X241300000Y-40245000D03*
%TD*%
%TO.C,D15*%
X228600000Y-38495000D03*
X228600000Y-40245000D03*
%TD*%
%TO.C,D14*%
X215900000Y-38495000D03*
X215900000Y-40245000D03*
%TD*%
%TO.C,D13*%
X203200000Y-38495000D03*
X203200000Y-40245000D03*
%TD*%
%TO.C,D12*%
X190500000Y-38495000D03*
X190500000Y-40245000D03*
%TD*%
%TO.C,D11*%
X177800000Y-38495000D03*
X177800000Y-40245000D03*
%TD*%
%TO.C,D10*%
X165100000Y-38495000D03*
X165100000Y-40245000D03*
%TD*%
%TO.C,D9*%
X152400000Y-38495000D03*
X152400000Y-40245000D03*
%TD*%
%TO.C,D8*%
X139700000Y-38495000D03*
X139700000Y-40245000D03*
%TD*%
%TO.C,D7*%
X127000000Y-38495000D03*
X127000000Y-40245000D03*
%TD*%
%TO.C,D6*%
X114300000Y-38495000D03*
X114300000Y-40245000D03*
%TD*%
%TO.C,D5*%
X101600000Y-38495000D03*
X101600000Y-40245000D03*
%TD*%
%TO.C,D4*%
X88900000Y-38495000D03*
X88900000Y-40245000D03*
%TD*%
%TO.C,D3*%
X76200000Y-38495000D03*
X76200000Y-40245000D03*
%TD*%
%TO.C,D2*%
X50800000Y-38495000D03*
X50800000Y-40245000D03*
%TD*%
%TO.C,D1*%
X63500000Y-38495000D03*
X63500000Y-40245000D03*
%TD*%
M02*
