M48
; DRILL file {KiCad 7.0.5} date Tue Sep 17 03:28:02 2024
; FORMAT={-:-/ absolute / inch / decimal}
; #@! TF.CreationDate,2024-09-17T03:28:02-04:00
; #@! TF.GenerationSoftware,Kicad,Pcbnew,7.0.5
; #@! TF.FileFunction,Plated,1,2,PTH
FMAT,2
INCH
; #@! TA.AperFunction,Plated,PTH,ComponentDrill
T1C0.0394
; #@! TA.AperFunction,Plated,PTH,ViaDrill
T2C0.1575
%
G90
G05
T1
X2.0Y-1.85
X2.0Y-1.95
X2.0Y-2.05
X2.0Y-2.15
X2.0Y-2.25
X2.0Y-2.35
X2.0Y-2.45
X2.0Y-2.55
X2.0Y-2.65
X2.0Y-2.75
X2.0Y-2.85
X2.0Y-2.95
X2.0Y-3.05
X2.0Y-3.15
X2.0Y-3.25
X2.0Y-3.35
X2.0Y-3.45
X2.0Y-3.55
X2.0Y-3.65
X2.0Y-3.75
X2.0Y-3.85
X2.0Y-3.95
X2.0Y-4.05
X2.0Y-4.15
X2.0Y-4.25
X2.0Y-4.35
X2.0Y-4.45
X2.0Y-4.55
X2.0Y-4.65
X2.0Y-4.75
X2.0Y-4.85
X2.0Y-4.95
X2.0Y-5.05
X2.0Y-5.15
X2.0Y-5.25
X2.0Y-5.35
X2.0Y-5.45
X2.0Y-5.55
X2.0Y-5.65
X2.0Y-5.75
X2.1Y-1.85
X2.1Y-5.05
X2.1Y-5.15
X2.1Y-5.25
X2.1Y-5.35
X2.1Y-5.45
X2.1Y-5.55
X2.1Y-5.65
X2.1Y-5.75
X2.2Y-1.85
X2.5Y-1.85
X2.5Y-1.95
X2.5Y-2.05
X2.5Y-2.15
X2.5Y-2.25
X2.5Y-2.35
X2.5Y-2.45
X2.5Y-2.55
X2.5Y-2.65
X2.5Y-2.75
X2.5Y-2.85
X2.5Y-2.95
X2.5Y-3.05
X2.5Y-3.15
X2.5Y-3.25
X2.5Y-3.35
X2.5Y-3.45
X2.5Y-3.55
X2.5Y-3.65
X2.5Y-3.75
X2.5Y-3.85
X2.5Y-3.95
X2.5Y-4.05
X2.5Y-4.15
X2.5Y-4.25
X2.5Y-4.35
X2.5Y-4.45
X2.5Y-4.55
X2.5Y-4.65
X2.5Y-4.75
X2.5Y-4.85
X2.5Y-4.95
X2.5Y-5.05
X2.5Y-5.15
X2.5Y-5.25
X2.5Y-5.35
X2.5Y-5.45
X2.5Y-5.55
X2.5Y-5.65
X2.5Y-5.75
X2.6Y-1.85
X2.6Y-5.05
X2.6Y-5.15
X2.6Y-5.25
X2.6Y-5.35
X2.6Y-5.45
X2.6Y-5.55
X2.6Y-5.65
X2.6Y-5.75
X2.7Y-1.85
X3.0Y-1.85
X3.0Y-1.95
X3.0Y-2.05
X3.0Y-2.15
X3.0Y-2.25
X3.0Y-2.35
X3.0Y-2.45
X3.0Y-2.55
X3.0Y-2.65
X3.0Y-2.75
X3.0Y-2.85
X3.0Y-2.95
X3.0Y-3.05
X3.0Y-3.15
X3.0Y-3.25
X3.0Y-3.35
X3.0Y-3.45
X3.0Y-3.55
X3.0Y-3.65
X3.0Y-3.75
X3.0Y-3.85
X3.0Y-3.95
X3.0Y-4.05
X3.0Y-4.15
X3.0Y-4.25
X3.0Y-4.35
X3.0Y-4.45
X3.0Y-4.55
X3.0Y-4.65
X3.0Y-4.75
X3.0Y-4.85
X3.0Y-4.95
X3.0Y-5.05
X3.0Y-5.15
X3.0Y-5.25
X3.0Y-5.35
X3.0Y-5.45
X3.0Y-5.55
X3.0Y-5.65
X3.0Y-5.75
X3.1Y-1.85
X3.1Y-5.05
X3.1Y-5.15
X3.1Y-5.25
X3.1Y-5.35
X3.1Y-5.45
X3.1Y-5.55
X3.1Y-5.65
X3.1Y-5.75
X3.2Y-1.85
X3.5Y-1.85
X3.5Y-1.95
X3.5Y-2.05
X3.5Y-2.15
X3.5Y-2.25
X3.5Y-2.35
X3.5Y-2.45
X3.5Y-2.55
X3.5Y-2.65
X3.5Y-2.75
X3.5Y-2.85
X3.5Y-2.95
X3.5Y-3.05
X3.5Y-3.15
X3.5Y-3.25
X3.5Y-3.35
X3.5Y-3.45
X3.5Y-3.55
X3.5Y-3.65
X3.5Y-3.75
X3.5Y-3.85
X3.5Y-3.95
X3.5Y-4.05
X3.5Y-4.15
X3.5Y-4.25
X3.5Y-4.35
X3.5Y-4.45
X3.5Y-4.55
X3.5Y-4.65
X3.5Y-4.75
X3.5Y-4.85
X3.5Y-4.95
X3.5Y-5.05
X3.5Y-5.15
X3.5Y-5.25
X3.5Y-5.35
X3.5Y-5.45
X3.5Y-5.55
X3.5Y-5.65
X3.5Y-5.75
X3.6Y-1.85
X3.6Y-5.05
X3.6Y-5.15
X3.6Y-5.25
X3.6Y-5.35
X3.6Y-5.45
X3.6Y-5.55
X3.6Y-5.65
X3.6Y-5.75
X3.7Y-1.85
X4.0Y-1.85
X4.0Y-1.95
X4.0Y-2.05
X4.0Y-2.15
X4.0Y-2.25
X4.0Y-2.35
X4.0Y-2.45
X4.0Y-2.55
X4.0Y-2.65
X4.0Y-2.75
X4.0Y-2.85
X4.0Y-2.95
X4.0Y-3.05
X4.0Y-3.15
X4.0Y-3.25
X4.0Y-3.35
X4.0Y-3.45
X4.0Y-3.55
X4.0Y-3.65
X4.0Y-3.75
X4.0Y-3.85
X4.0Y-3.95
X4.0Y-4.05
X4.0Y-4.15
X4.0Y-4.25
X4.0Y-4.35
X4.0Y-4.45
X4.0Y-4.55
X4.0Y-4.65
X4.0Y-4.75
X4.0Y-4.85
X4.0Y-4.95
X4.0Y-5.05
X4.0Y-5.15
X4.0Y-5.25
X4.0Y-5.35
X4.0Y-5.45
X4.0Y-5.55
X4.0Y-5.65
X4.0Y-5.75
X4.1Y-1.85
X4.1Y-5.05
X4.1Y-5.15
X4.1Y-5.25
X4.1Y-5.35
X4.1Y-5.45
X4.1Y-5.55
X4.1Y-5.65
X4.1Y-5.75
X4.2Y-1.85
X4.5Y-1.85
X4.5Y-1.95
X4.5Y-2.05
X4.5Y-2.15
X4.5Y-2.25
X4.5Y-2.35
X4.5Y-2.45
X4.5Y-2.55
X4.5Y-2.65
X4.5Y-2.75
X4.5Y-2.85
X4.5Y-2.95
X4.5Y-3.05
X4.5Y-3.15
X4.5Y-3.25
X4.5Y-3.35
X4.5Y-3.45
X4.5Y-3.55
X4.5Y-3.65
X4.5Y-3.75
X4.5Y-3.85
X4.5Y-3.95
X4.5Y-4.05
X4.5Y-4.15
X4.5Y-4.25
X4.5Y-4.35
X4.5Y-4.45
X4.5Y-4.55
X4.5Y-4.65
X4.5Y-4.75
X4.5Y-4.85
X4.5Y-4.95
X4.5Y-5.05
X4.5Y-5.15
X4.5Y-5.25
X4.5Y-5.35
X4.5Y-5.45
X4.5Y-5.55
X4.5Y-5.65
X4.5Y-5.75
X4.6Y-1.85
X4.6Y-5.05
X4.6Y-5.15
X4.6Y-5.25
X4.6Y-5.35
X4.6Y-5.45
X4.6Y-5.55
X4.6Y-5.65
X4.6Y-5.75
X4.7Y-1.85
X5.0Y-1.85
X5.0Y-1.95
X5.0Y-2.05
X5.0Y-2.15
X5.0Y-2.25
X5.0Y-2.35
X5.0Y-2.45
X5.0Y-2.55
X5.0Y-2.65
X5.0Y-2.75
X5.0Y-2.85
X5.0Y-2.95
X5.0Y-3.05
X5.0Y-3.15
X5.0Y-3.25
X5.0Y-3.35
X5.0Y-3.45
X5.0Y-3.55
X5.0Y-3.65
X5.0Y-3.75
X5.0Y-3.85
X5.0Y-3.95
X5.0Y-4.05
X5.0Y-4.15
X5.0Y-4.25
X5.0Y-4.35
X5.0Y-4.45
X5.0Y-4.55
X5.0Y-4.65
X5.0Y-4.75
X5.0Y-4.85
X5.0Y-4.95
X5.0Y-5.05
X5.0Y-5.15
X5.0Y-5.25
X5.0Y-5.35
X5.0Y-5.45
X5.0Y-5.55
X5.0Y-5.65
X5.0Y-5.75
X5.1Y-1.85
X5.1Y-5.05
X5.1Y-5.15
X5.1Y-5.25
X5.1Y-5.35
X5.1Y-5.45
X5.1Y-5.55
X5.1Y-5.65
X5.1Y-5.75
X5.2Y-1.85
X5.5Y-1.85
X5.5Y-1.95
X5.5Y-2.05
X5.5Y-2.15
X5.5Y-2.25
X5.5Y-2.35
X5.5Y-2.45
X5.5Y-2.55
X5.5Y-2.65
X5.5Y-2.75
X5.5Y-2.85
X5.5Y-2.95
X5.5Y-3.05
X5.5Y-3.15
X5.5Y-3.25
X5.5Y-3.35
X5.5Y-3.45
X5.5Y-3.55
X5.5Y-3.65
X5.5Y-3.75
X5.5Y-3.85
X5.5Y-3.95
X5.5Y-4.05
X5.5Y-4.15
X5.5Y-4.25
X5.5Y-4.35
X5.5Y-4.45
X5.5Y-4.55
X5.5Y-4.65
X5.5Y-4.75
X5.5Y-4.85
X5.5Y-4.95
X5.5Y-5.05
X5.5Y-5.15
X5.5Y-5.25
X5.5Y-5.35
X5.5Y-5.45
X5.5Y-5.55
X5.5Y-5.65
X5.5Y-5.75
X5.6Y-1.85
X5.6Y-5.05
X5.6Y-5.15
X5.6Y-5.25
X5.6Y-5.35
X5.6Y-5.45
X5.6Y-5.55
X5.6Y-5.65
X5.6Y-5.75
X5.7Y-1.85
X6.0Y-1.85
X6.0Y-1.95
X6.0Y-2.05
X6.0Y-2.15
X6.0Y-2.25
X6.0Y-2.35
X6.0Y-2.45
X6.0Y-2.55
X6.0Y-2.65
X6.0Y-2.75
X6.0Y-2.85
X6.0Y-2.95
X6.0Y-3.05
X6.0Y-3.15
X6.0Y-3.25
X6.0Y-3.35
X6.0Y-3.45
X6.0Y-3.55
X6.0Y-3.65
X6.0Y-3.75
X6.0Y-3.85
X6.0Y-3.95
X6.0Y-4.05
X6.0Y-4.15
X6.0Y-4.25
X6.0Y-4.35
X6.0Y-4.45
X6.0Y-4.55
X6.0Y-4.65
X6.0Y-4.75
X6.0Y-4.85
X6.0Y-4.95
X6.0Y-5.05
X6.0Y-5.15
X6.0Y-5.25
X6.0Y-5.35
X6.0Y-5.45
X6.0Y-5.55
X6.0Y-5.65
X6.0Y-5.75
X6.1Y-1.85
X6.1Y-5.05
X6.1Y-5.15
X6.1Y-5.25
X6.1Y-5.35
X6.1Y-5.45
X6.1Y-5.55
X6.1Y-5.65
X6.1Y-5.75
X6.2Y-1.85
X6.5Y-1.85
X6.5Y-1.95
X6.5Y-2.05
X6.5Y-2.15
X6.5Y-2.25
X6.5Y-2.35
X6.5Y-2.45
X6.5Y-2.55
X6.5Y-2.65
X6.5Y-2.75
X6.5Y-2.85
X6.5Y-2.95
X6.5Y-3.05
X6.5Y-3.15
X6.5Y-3.25
X6.5Y-3.35
X6.5Y-3.45
X6.5Y-3.55
X6.5Y-3.65
X6.5Y-3.75
X6.5Y-3.85
X6.5Y-3.95
X6.5Y-4.05
X6.5Y-4.15
X6.5Y-4.25
X6.5Y-4.35
X6.5Y-4.45
X6.5Y-4.55
X6.5Y-4.65
X6.5Y-4.75
X6.5Y-4.85
X6.5Y-4.95
X6.5Y-5.05
X6.5Y-5.15
X6.5Y-5.25
X6.5Y-5.35
X6.5Y-5.45
X6.5Y-5.55
X6.5Y-5.65
X6.5Y-5.75
X6.6Y-1.85
X6.6Y-5.05
X6.6Y-5.15
X6.6Y-5.25
X6.6Y-5.35
X6.6Y-5.45
X6.6Y-5.55
X6.6Y-5.65
X6.6Y-5.75
X6.7Y-1.85
X7.0Y-1.85
X7.0Y-1.95
X7.0Y-2.05
X7.0Y-2.15
X7.0Y-2.25
X7.0Y-2.35
X7.0Y-2.45
X7.0Y-2.55
X7.0Y-2.65
X7.0Y-2.75
X7.0Y-2.85
X7.0Y-2.95
X7.0Y-3.05
X7.0Y-3.15
X7.0Y-3.25
X7.0Y-3.35
X7.0Y-3.45
X7.0Y-3.55
X7.0Y-3.65
X7.0Y-3.75
X7.0Y-3.85
X7.0Y-3.95
X7.0Y-4.05
X7.0Y-4.15
X7.0Y-4.25
X7.0Y-4.35
X7.0Y-4.45
X7.0Y-4.55
X7.0Y-4.65
X7.0Y-4.75
X7.0Y-4.85
X7.0Y-4.95
X7.0Y-5.05
X7.0Y-5.15
X7.0Y-5.25
X7.0Y-5.35
X7.0Y-5.45
X7.0Y-5.55
X7.0Y-5.65
X7.0Y-5.75
X7.1Y-1.85
X7.1Y-5.05
X7.1Y-5.15
X7.1Y-5.25
X7.1Y-5.35
X7.1Y-5.45
X7.1Y-5.55
X7.1Y-5.65
X7.1Y-5.75
X7.2Y-1.85
X7.5Y-1.85
X7.5Y-1.95
X7.5Y-2.05
X7.5Y-2.15
X7.5Y-2.25
X7.5Y-2.35
X7.5Y-2.45
X7.5Y-2.55
X7.5Y-2.65
X7.5Y-2.75
X7.5Y-2.85
X7.5Y-2.95
X7.5Y-3.05
X7.5Y-3.15
X7.5Y-3.25
X7.5Y-3.35
X7.5Y-3.45
X7.5Y-3.55
X7.5Y-3.65
X7.5Y-3.75
X7.5Y-3.85
X7.5Y-3.95
X7.5Y-4.05
X7.5Y-4.15
X7.5Y-4.25
X7.5Y-4.35
X7.5Y-4.45
X7.5Y-4.55
X7.5Y-4.65
X7.5Y-4.75
X7.5Y-4.85
X7.5Y-4.95
X7.5Y-5.05
X7.5Y-5.15
X7.5Y-5.25
X7.5Y-5.35
X7.5Y-5.45
X7.5Y-5.55
X7.5Y-5.65
X7.5Y-5.75
X7.6Y-1.85
X7.6Y-5.05
X7.6Y-5.15
X7.6Y-5.25
X7.6Y-5.35
X7.6Y-5.45
X7.6Y-5.55
X7.6Y-5.65
X7.6Y-5.75
X7.7Y-1.85
X8.0Y-1.85
X8.0Y-1.95
X8.0Y-2.05
X8.0Y-2.15
X8.0Y-2.25
X8.0Y-2.35
X8.0Y-2.45
X8.0Y-2.55
X8.0Y-2.65
X8.0Y-2.75
X8.0Y-2.85
X8.0Y-2.95
X8.0Y-3.05
X8.0Y-3.15
X8.0Y-3.25
X8.0Y-3.35
X8.0Y-3.45
X8.0Y-3.55
X8.0Y-3.65
X8.0Y-3.75
X8.0Y-3.85
X8.0Y-3.95
X8.0Y-4.05
X8.0Y-4.15
X8.0Y-4.25
X8.0Y-4.35
X8.0Y-4.45
X8.0Y-4.55
X8.0Y-4.65
X8.0Y-4.75
X8.0Y-4.85
X8.0Y-4.95
X8.0Y-5.05
X8.0Y-5.15
X8.0Y-5.25
X8.0Y-5.35
X8.0Y-5.45
X8.0Y-5.55
X8.0Y-5.65
X8.0Y-5.75
X8.1Y-1.85
X8.1Y-5.05
X8.1Y-5.15
X8.1Y-5.25
X8.1Y-5.35
X8.1Y-5.45
X8.1Y-5.55
X8.1Y-5.65
X8.1Y-5.75
X8.2Y-1.85
X8.5Y-1.85
X8.5Y-1.95
X8.5Y-2.05
X8.5Y-2.15
X8.5Y-2.25
X8.5Y-2.35
X8.5Y-2.45
X8.5Y-2.55
X8.5Y-2.65
X8.5Y-2.75
X8.5Y-2.85
X8.5Y-2.95
X8.5Y-3.05
X8.5Y-3.15
X8.5Y-3.25
X8.5Y-3.35
X8.5Y-3.45
X8.5Y-3.55
X8.5Y-3.65
X8.5Y-3.75
X8.5Y-3.85
X8.5Y-3.95
X8.5Y-4.05
X8.5Y-4.15
X8.5Y-4.25
X8.5Y-4.35
X8.5Y-4.45
X8.5Y-4.55
X8.5Y-4.65
X8.5Y-4.75
X8.5Y-4.85
X8.5Y-4.95
X8.5Y-5.05
X8.5Y-5.15
X8.5Y-5.25
X8.5Y-5.35
X8.5Y-5.45
X8.5Y-5.55
X8.5Y-5.65
X8.5Y-5.75
X8.6Y-1.85
X8.6Y-5.05
X8.6Y-5.15
X8.6Y-5.25
X8.6Y-5.35
X8.6Y-5.45
X8.6Y-5.55
X8.6Y-5.65
X8.6Y-5.75
X8.7Y-1.85
X9.0Y-1.85
X9.0Y-1.95
X9.0Y-2.05
X9.0Y-2.15
X9.0Y-2.25
X9.0Y-2.35
X9.0Y-2.45
X9.0Y-2.55
X9.0Y-2.65
X9.0Y-2.75
X9.0Y-2.85
X9.0Y-2.95
X9.0Y-3.05
X9.0Y-3.15
X9.0Y-3.25
X9.0Y-3.35
X9.0Y-3.45
X9.0Y-3.55
X9.0Y-3.65
X9.0Y-3.75
X9.0Y-3.85
X9.0Y-3.95
X9.0Y-4.05
X9.0Y-4.15
X9.0Y-4.25
X9.0Y-4.35
X9.0Y-4.45
X9.0Y-4.55
X9.0Y-4.65
X9.0Y-4.75
X9.0Y-4.85
X9.0Y-4.95
X9.0Y-5.05
X9.0Y-5.15
X9.0Y-5.25
X9.0Y-5.35
X9.0Y-5.45
X9.0Y-5.55
X9.0Y-5.65
X9.0Y-5.75
X9.1Y-1.85
X9.1Y-5.05
X9.1Y-5.15
X9.1Y-5.25
X9.1Y-5.35
X9.1Y-5.45
X9.1Y-5.55
X9.1Y-5.65
X9.1Y-5.75
X9.2Y-1.85
X9.5Y-1.85
X9.5Y-1.95
X9.5Y-2.05
X9.5Y-2.15
X9.5Y-2.25
X9.5Y-2.35
X9.5Y-2.45
X9.5Y-2.55
X9.5Y-2.65
X9.5Y-2.75
X9.5Y-2.85
X9.5Y-2.95
X9.5Y-3.05
X9.5Y-3.15
X9.5Y-3.25
X9.5Y-3.35
X9.5Y-3.45
X9.5Y-3.55
X9.5Y-3.65
X9.5Y-3.75
X9.5Y-3.85
X9.5Y-3.95
X9.5Y-4.05
X9.5Y-4.15
X9.5Y-4.25
X9.5Y-4.35
X9.5Y-4.45
X9.5Y-4.55
X9.5Y-4.65
X9.5Y-4.75
X9.5Y-4.85
X9.5Y-4.95
X9.5Y-5.05
X9.5Y-5.15
X9.5Y-5.25
X9.5Y-5.35
X9.5Y-5.45
X9.5Y-5.55
X9.5Y-5.65
X9.5Y-5.75
X9.6Y-1.85
X9.6Y-5.05
X9.6Y-5.15
X9.6Y-5.25
X9.6Y-5.35
X9.6Y-5.45
X9.6Y-5.55
X9.6Y-5.65
X9.6Y-5.75
X9.7Y-1.85
T2
X1.75Y-1.5
X1.75Y-6.0
X3.75Y-1.5
X3.75Y-6.0
X5.75Y-1.5
X5.75Y-6.0
X7.75Y-1.5
X7.75Y-6.0
X10.0Y-1.5
X10.0Y-6.0
T0
M30
