%TF.GenerationSoftware,KiCad,Pcbnew,7.0.5*%
%TF.CreationDate,2024-12-02T20:01:47-05:00*%
%TF.ProjectId,eddie_bldc,65646469-655f-4626-9c64-632e6b696361,rev?*%
%TF.SameCoordinates,Original*%
%TF.FileFunction,Copper,L1,Top*%
%TF.FilePolarity,Positive*%
%FSLAX46Y46*%
G04 Gerber Fmt 4.6, Leading zero omitted, Abs format (unit mm)*
G04 Created by KiCad (PCBNEW 7.0.5) date 2024-12-02 20:01:47*
%MOMM*%
%LPD*%
G01*
G04 APERTURE LIST*
G04 Aperture macros list*
%AMRoundRect*
0 Rectangle with rounded corners*
0 $1 Rounding radius*
0 $2 $3 $4 $5 $6 $7 $8 $9 X,Y pos of 4 corners*
0 Add a 4 corners polygon primitive as box body*
4,1,4,$2,$3,$4,$5,$6,$7,$8,$9,$2,$3,0*
0 Add four circle primitives for the rounded corners*
1,1,$1+$1,$2,$3*
1,1,$1+$1,$4,$5*
1,1,$1+$1,$6,$7*
1,1,$1+$1,$8,$9*
0 Add four rect primitives between the rounded corners*
20,1,$1+$1,$2,$3,$4,$5,0*
20,1,$1+$1,$4,$5,$6,$7,0*
20,1,$1+$1,$6,$7,$8,$9,0*
20,1,$1+$1,$8,$9,$2,$3,0*%
G04 Aperture macros list end*
%TA.AperFunction,ComponentPad*%
%ADD10R,1.700000X1.700000*%
%TD*%
%TA.AperFunction,ComponentPad*%
%ADD11O,1.700000X1.700000*%
%TD*%
%TA.AperFunction,SMDPad,CuDef*%
%ADD12RoundRect,0.200000X-0.275000X0.200000X-0.275000X-0.200000X0.275000X-0.200000X0.275000X0.200000X0*%
%TD*%
%TA.AperFunction,SMDPad,CuDef*%
%ADD13RoundRect,0.200000X0.275000X-0.200000X0.275000X0.200000X-0.275000X0.200000X-0.275000X-0.200000X0*%
%TD*%
%TA.AperFunction,SMDPad,CuDef*%
%ADD14RoundRect,0.225000X-0.375000X0.225000X-0.375000X-0.225000X0.375000X-0.225000X0.375000X0.225000X0*%
%TD*%
%TA.AperFunction,SMDPad,CuDef*%
%ADD15RoundRect,0.200000X0.200000X0.275000X-0.200000X0.275000X-0.200000X-0.275000X0.200000X-0.275000X0*%
%TD*%
%TA.AperFunction,SMDPad,CuDef*%
%ADD16RoundRect,0.150000X-0.512500X-0.150000X0.512500X-0.150000X0.512500X0.150000X-0.512500X0.150000X0*%
%TD*%
%TA.AperFunction,SMDPad,CuDef*%
%ADD17RoundRect,0.200000X-0.200000X-0.275000X0.200000X-0.275000X0.200000X0.275000X-0.200000X0.275000X0*%
%TD*%
%TA.AperFunction,SMDPad,CuDef*%
%ADD18RoundRect,0.150000X0.150000X-0.825000X0.150000X0.825000X-0.150000X0.825000X-0.150000X-0.825000X0*%
%TD*%
%TA.AperFunction,SMDPad,CuDef*%
%ADD19RoundRect,0.250000X-0.312500X-0.625000X0.312500X-0.625000X0.312500X0.625000X-0.312500X0.625000X0*%
%TD*%
%TA.AperFunction,SMDPad,CuDef*%
%ADD20RoundRect,0.250000X0.850000X0.350000X-0.850000X0.350000X-0.850000X-0.350000X0.850000X-0.350000X0*%
%TD*%
%TA.AperFunction,SMDPad,CuDef*%
%ADD21RoundRect,0.250000X1.275000X1.125000X-1.275000X1.125000X-1.275000X-1.125000X1.275000X-1.125000X0*%
%TD*%
%TA.AperFunction,SMDPad,CuDef*%
%ADD22RoundRect,0.249997X2.950003X2.650003X-2.950003X2.650003X-2.950003X-2.650003X2.950003X-2.650003X0*%
%TD*%
%TA.AperFunction,ViaPad*%
%ADD23C,0.800000*%
%TD*%
%TA.AperFunction,ViaPad*%
%ADD24C,4.500000*%
%TD*%
%TA.AperFunction,Conductor*%
%ADD25C,0.400000*%
%TD*%
%TA.AperFunction,Conductor*%
%ADD26C,0.600000*%
%TD*%
%TA.AperFunction,Conductor*%
%ADD27C,1.000000*%
%TD*%
%TA.AperFunction,Conductor*%
%ADD28C,0.500000*%
%TD*%
%TA.AperFunction,Conductor*%
%ADD29C,1.250000*%
%TD*%
%TA.AperFunction,Conductor*%
%ADD30C,2.000000*%
%TD*%
%TA.AperFunction,Conductor*%
%ADD31C,0.250000*%
%TD*%
G04 APERTURE END LIST*
D10*
%TO.P,J17,1,Pin_1*%
%TO.N,Net-(U5-LO)*%
X35560000Y-60960000D03*
%TD*%
%TO.P,J16,1,Pin_1*%
%TO.N,Net-(U1-HO)*%
X25400000Y-60960000D03*
%TD*%
%TO.P,J16,1,Pin_1*%
%TO.N,Net-(U1-LO)*%
X27940000Y-60960000D03*
%TD*%
%TO.P,J18,1,Pin_1*%
%TO.N,N/C*%
X43180000Y-60960000D03*
%TD*%
%TO.P,J16,1,Pin_1*%
%TO.N,Net-(U3-HO)*%
X30480000Y-60960000D03*
%TD*%
%TO.P,J16,1,Pin_1*%
%TO.N,Net-(U3-LO)*%
X22860000Y-60960000D03*
%TD*%
%TO.P,J17,1,Pin_1*%
%TO.N,N/C*%
X40640000Y-60960000D03*
%TD*%
%TO.P,J17,1,Pin_1*%
%TO.N,Net-(U5-HO)*%
X33020000Y-60960000D03*
%TD*%
%TO.P,J18,1,Pin_1*%
%TO.N,N/C*%
X48260000Y-60960000D03*
%TD*%
%TO.P,J17,1,Pin_1*%
%TO.N,N/C*%
X38100000Y-60960000D03*
%TD*%
%TO.P,J18,1,Pin_1*%
%TO.N,N/C*%
X45720000Y-60960000D03*
%TD*%
%TO.P,J18,1,Pin_1*%
%TO.N,N/C*%
X50800000Y-60960000D03*
%TD*%
%TO.P,J3,1,Pin_1*%
%TO.N,/Single_Phase2/en_hs*%
X12700000Y-48255000D03*
D11*
%TO.P,J3,2,Pin_2*%
%TO.N,/Single_Phase2/en_ls*%
X12700000Y-50795000D03*
%TD*%
D10*
%TO.P,J7,1,Pin_1*%
%TO.N,+5V*%
X12700000Y-22855000D03*
D11*
%TO.P,J7,2,Pin_2*%
%TO.N,GND*%
X12700000Y-25395000D03*
%TD*%
D10*
%TO.P,J5,1,Pin_1*%
%TO.N,/Single_Phase1/I_SENSE*%
X12700000Y-38095000D03*
%TD*%
%TO.P,J1,1,Pin_1*%
%TO.N,/Single_Phase/en_hs*%
X12700000Y-30475000D03*
D11*
%TO.P,J1,2,Pin_2*%
%TO.N,/Single_Phase/en_ls*%
X12700000Y-33015000D03*
%TD*%
D10*
%TO.P,J4,1,Pin_1*%
%TO.N,/Single_Phase/I_SENSE*%
X12700000Y-35555000D03*
%TD*%
%TO.P,J2,1,Pin_1*%
%TO.N,/Single_Phase1/en_hs*%
X12700000Y-40635000D03*
D11*
%TO.P,J2,2,Pin_2*%
%TO.N,/Single_Phase1/en_ls*%
X12700000Y-43175000D03*
%TD*%
D10*
%TO.P,J6,1,Pin_1*%
%TO.N,/Single_Phase2/I_SENSE*%
X12700000Y-45715000D03*
%TD*%
%TO.P,J13,1,Pin_1*%
%TO.N,GND*%
X12700000Y-27935000D03*
%TD*%
%TO.P,J13,1,Pin_1*%
%TO.N,GND*%
X50800000Y-12700000D03*
%TD*%
%TO.P,J12,1,Pin_1*%
%TO.N,VD*%
X25400000Y-12700000D03*
%TD*%
%TO.P,J13,1,Pin_1*%
%TO.N,GND*%
X43180000Y-12700000D03*
%TD*%
%TO.P,J14,1,Pin_1*%
%TO.N,GND*%
X45720000Y-12700000D03*
%TD*%
%TO.P,J12,1,Pin_1*%
%TO.N,VD*%
X33020000Y-12700000D03*
%TD*%
%TO.P,J10,1,Pin_1*%
%TO.N,VD*%
X35560000Y-12700000D03*
%TD*%
%TO.P,J15,1,Pin_1*%
%TO.N,GND*%
X48260000Y-12700000D03*
%TD*%
%TO.P,J11,1,Pin_1*%
%TO.N,VD*%
X30480000Y-12700000D03*
%TD*%
%TO.P,J11,1,Pin_1*%
%TO.N,VD*%
X22860000Y-12700000D03*
%TD*%
%TO.P,J14,1,Pin_1*%
%TO.N,GND*%
X38100000Y-12700000D03*
%TD*%
%TO.P,J10,1,Pin_1*%
%TO.N,VD*%
X27940000Y-12700000D03*
%TD*%
%TO.P,J15,1,Pin_1*%
%TO.N,GND*%
X40640000Y-12700000D03*
%TD*%
%TO.P,J18,1,Pin_1*%
%TO.N,/Single_Phase2/OUTPUT*%
X60960000Y-48260000D03*
%TD*%
%TO.P,J17,1,Pin_1*%
%TO.N,/Single_Phase1/OUTPUT*%
X60960000Y-33020000D03*
%TD*%
%TO.P,J16,1,Pin_1*%
%TO.N,/Single_Phase/OUTPUT*%
X60960000Y-27940000D03*
%TD*%
%TO.P,J18,1,Pin_1*%
%TO.N,/Single_Phase2/OUTPUT*%
X60960000Y-43180000D03*
%TD*%
%TO.P,J16,1,Pin_1*%
%TO.N,/Single_Phase/OUTPUT*%
X60960000Y-30480000D03*
%TD*%
%TO.P,J17,1,Pin_1*%
%TO.N,/Single_Phase1/OUTPUT*%
X60960000Y-38100000D03*
%TD*%
%TO.P,J18,1,Pin_1*%
%TO.N,/Single_Phase2/OUTPUT*%
X60960000Y-50800000D03*
%TD*%
%TO.P,J16,1,Pin_1*%
%TO.N,/Single_Phase/OUTPUT*%
X60960000Y-22860000D03*
%TD*%
%TO.P,J17,1,Pin_1*%
%TO.N,/Single_Phase1/OUTPUT*%
X60960000Y-35560000D03*
%TD*%
%TO.P,J17,1,Pin_1*%
%TO.N,/Single_Phase1/OUTPUT*%
X60960000Y-40640000D03*
%TD*%
%TO.P,J16,1,Pin_1*%
%TO.N,/Single_Phase/OUTPUT*%
X60960000Y-25400000D03*
%TD*%
%TO.P,J18,1,Pin_1*%
%TO.N,/Single_Phase2/OUTPUT*%
X60960000Y-45720000D03*
%TD*%
%TO.P,J13,1,Pin_1*%
%TO.N,GND*%
X15240000Y-27940000D03*
%TD*%
D12*
%TO.P,D4,1,K*%
%TO.N,Net-(D4-K)*%
X14634379Y-18989512D03*
%TO.P,D4,2,A*%
%TO.N,+5V*%
X14634379Y-20639512D03*
%TD*%
D13*
%TO.P,R9,1*%
%TO.N,Net-(U5-HO)*%
X34635608Y-55147584D03*
%TO.P,R9,2*%
%TO.N,Net-(Q5-D)*%
X34635608Y-53497584D03*
%TD*%
D10*
%TO.P,J18,1,Pin_1*%
%TO.N,N/C*%
X45720000Y-58420000D03*
%TD*%
%TO.P,J11,1,Pin_1*%
%TO.N,VD*%
X30480000Y-15240000D03*
%TD*%
D14*
%TO.P,D1,1,K*%
%TO.N,Net-(D1-K)*%
X18319206Y-22462100D03*
%TO.P,D1,2,A*%
%TO.N,+5V*%
X18319206Y-25762100D03*
%TD*%
D10*
%TO.P,J14,1,Pin_1*%
%TO.N,GND*%
X38100000Y-15240000D03*
%TD*%
%TO.P,J17,1,Pin_1*%
%TO.N,N/C*%
X38100000Y-58420000D03*
%TD*%
D15*
%TO.P,C2,1*%
%TO.N,VD*%
X26527686Y-30175338D03*
%TO.P,C2,2*%
%TO.N,GND*%
X24877686Y-30175338D03*
%TD*%
D16*
%TO.P,U2,1*%
%TO.N,Net-(R3-Pad1)*%
X49662500Y-21148000D03*
%TO.P,U2,2,GND*%
%TO.N,GND*%
X49662500Y-22098000D03*
%TO.P,U2,3,+*%
%TO.N,/Single_Phase/OUTPUT_PRE_S*%
X49662500Y-23048000D03*
%TO.P,U2,4,-*%
%TO.N,/Single_Phase/OUTPUT*%
X51937500Y-23048000D03*
%TO.P,U2,5,V+*%
%TO.N,+5V*%
X51937500Y-21148000D03*
%TD*%
D10*
%TO.P,J15,1,Pin_1*%
%TO.N,GND*%
X48260000Y-15240000D03*
%TD*%
D15*
%TO.P,C1,1*%
%TO.N,+5V*%
X25420881Y-28644376D03*
%TO.P,C1,2*%
%TO.N,GND*%
X23770881Y-28644376D03*
%TD*%
D13*
%TO.P,R1,1*%
%TO.N,Net-(U1-HO)*%
X34908869Y-29773516D03*
%TO.P,R1,2*%
%TO.N,Net-(Q1-D)*%
X34908869Y-28123516D03*
%TD*%
D10*
%TO.P,J2,1,Pin_1*%
%TO.N,/Single_Phase1/en_hs*%
X15240000Y-40640000D03*
D11*
%TO.P,J2,2,Pin_2*%
%TO.N,/Single_Phase1/en_ls*%
X15240000Y-43180000D03*
%TD*%
D10*
%TO.P,J11,1,Pin_1*%
%TO.N,VD*%
X22860000Y-15240000D03*
%TD*%
D17*
%TO.P,R6,1*%
%TO.N,Net-(U3-LO)*%
X45817381Y-41406592D03*
%TO.P,R6,2*%
%TO.N,Net-(Q4-D)*%
X47467381Y-41406592D03*
%TD*%
D10*
%TO.P,J18,1,Pin_1*%
%TO.N,N/C*%
X50800000Y-58420000D03*
%TD*%
D17*
%TO.P,R11,1*%
%TO.N,Net-(R11-Pad1)*%
X47435000Y-44958000D03*
%TO.P,R11,2*%
%TO.N,/Single_Phase2/I_SENSE*%
X49085000Y-44958000D03*
%TD*%
D10*
%TO.P,J15,1,Pin_1*%
%TO.N,GND*%
X40640000Y-15240000D03*
%TD*%
%TO.P,J6,1,Pin_1*%
%TO.N,/Single_Phase2/I_SENSE*%
X15240000Y-45720000D03*
%TD*%
%TO.P,J18,1,Pin_1*%
%TO.N,/Single_Phase2/OUTPUT*%
X58420000Y-45720000D03*
%TD*%
D18*
%TO.P,U5,1,VCC*%
%TO.N,+5V*%
X20196061Y-50735000D03*
%TO.P,U5,2,HIN*%
%TO.N,/Single_Phase2/en_hs*%
X21466061Y-50735000D03*
%TO.P,U5,3,LIN*%
%TO.N,/Single_Phase2/en_ls*%
X22736061Y-50735000D03*
%TO.P,U5,4,COM*%
%TO.N,GND*%
X24006061Y-50735000D03*
%TO.P,U5,5,LO*%
%TO.N,Net-(U5-LO)*%
X24006061Y-45785000D03*
%TO.P,U5,6,VS*%
%TO.N,/Single_Phase2/OUTPUT_PRE_S*%
X22736061Y-45785000D03*
%TO.P,U5,7,HO*%
%TO.N,Net-(U5-HO)*%
X21466061Y-45785000D03*
%TO.P,U5,8,VB*%
%TO.N,Net-(D3-K)*%
X20196061Y-45785000D03*
%TD*%
D19*
%TO.P,R3_SHUNT3,1*%
%TO.N,/Single_Phase2/OUTPUT_PRE_S*%
X49591500Y-50292000D03*
%TO.P,R3_SHUNT3,2*%
%TO.N,/Single_Phase2/OUTPUT*%
X52516500Y-50292000D03*
%TD*%
D10*
%TO.P,J18,1,Pin_1*%
%TO.N,N/C*%
X48260000Y-58420000D03*
%TD*%
%TO.P,J10,1,Pin_1*%
%TO.N,VD*%
X27940000Y-15240000D03*
%TD*%
D20*
%TO.P,Q4,1,D*%
%TO.N,Net-(Q4-D)*%
X47345000Y-39365000D03*
%TO.P,Q4,2,G*%
%TO.N,/Single_Phase1/OUTPUT_PRE_S*%
X47345000Y-37085000D03*
D21*
X42720000Y-38610000D03*
X42720000Y-35560000D03*
D22*
X41045000Y-37085000D03*
D21*
X39370000Y-38610000D03*
X39370000Y-35560000D03*
D20*
%TO.P,Q4,3,S*%
%TO.N,GND*%
X47345000Y-34805000D03*
%TD*%
D10*
%TO.P,J17,1,Pin_1*%
%TO.N,/Single_Phase1/OUTPUT*%
X58420000Y-38100000D03*
%TD*%
D19*
%TO.P,R3_SHUNT1,1*%
%TO.N,/Single_Phase/OUTPUT_PRE_S*%
X49591500Y-25146000D03*
%TO.P,R3_SHUNT1,2*%
%TO.N,/Single_Phase/OUTPUT*%
X52516500Y-25146000D03*
%TD*%
D10*
%TO.P,J12,1,Pin_1*%
%TO.N,VD*%
X33020000Y-15240000D03*
%TD*%
D18*
%TO.P,U3,1,VCC*%
%TO.N,+5V*%
X20247167Y-39338085D03*
%TO.P,U3,2,HIN*%
%TO.N,/Single_Phase1/en_hs*%
X21517167Y-39338085D03*
%TO.P,U3,3,LIN*%
%TO.N,/Single_Phase1/en_ls*%
X22787167Y-39338085D03*
%TO.P,U3,4,COM*%
%TO.N,GND*%
X24057167Y-39338085D03*
%TO.P,U3,5,LO*%
%TO.N,Net-(U3-LO)*%
X24057167Y-34388085D03*
%TO.P,U3,6,VS*%
%TO.N,/Single_Phase1/OUTPUT_PRE_S*%
X22787167Y-34388085D03*
%TO.P,U3,7,HO*%
%TO.N,Net-(U3-HO)*%
X21517167Y-34388085D03*
%TO.P,U3,8,VB*%
%TO.N,Net-(D2-K)*%
X20247167Y-34388085D03*
%TD*%
D10*
%TO.P,J17,1,Pin_1*%
%TO.N,/Single_Phase1/OUTPUT*%
X58420000Y-35560000D03*
%TD*%
%TO.P,J17,1,Pin_1*%
%TO.N,N/C*%
X40640000Y-58420000D03*
%TD*%
%TO.P,J17,1,Pin_1*%
%TO.N,Net-(U5-HO)*%
X33020000Y-58420000D03*
%TD*%
%TO.P,J16,1,Pin_1*%
%TO.N,/Single_Phase/OUTPUT*%
X58420000Y-22860000D03*
%TD*%
D17*
%TO.P,R2,1*%
%TO.N,Net-(U1-LO)*%
X45818366Y-28235527D03*
%TO.P,R2,2*%
%TO.N,Net-(Q2-D)*%
X47468366Y-28235527D03*
%TD*%
%TO.P,R10,1*%
%TO.N,Net-(U5-LO)*%
X45722080Y-53576520D03*
%TO.P,R10,2*%
%TO.N,Net-(Q6-D)*%
X47372080Y-53576520D03*
%TD*%
D15*
%TO.P,R12,1*%
%TO.N,GND*%
X52133000Y-44958000D03*
%TO.P,R12,2*%
%TO.N,/Single_Phase2/I_SENSE*%
X50483000Y-44958000D03*
%TD*%
D19*
%TO.P,R3_SHUNT2,1*%
%TO.N,/Single_Phase1/OUTPUT_PRE_S*%
X49591500Y-38354000D03*
%TO.P,R3_SHUNT2,2*%
%TO.N,/Single_Phase1/OUTPUT*%
X52516500Y-38354000D03*
%TD*%
D10*
%TO.P,J16,1,Pin_1*%
%TO.N,/Single_Phase/OUTPUT*%
X58420000Y-25400000D03*
%TD*%
D20*
%TO.P,Q2,1,D*%
%TO.N,Net-(Q2-D)*%
X47345000Y-26155000D03*
%TO.P,Q2,2,G*%
%TO.N,/Single_Phase/OUTPUT_PRE_S*%
X47345000Y-23875000D03*
D21*
X42720000Y-25400000D03*
X42720000Y-22350000D03*
D22*
X41045000Y-23875000D03*
D21*
X39370000Y-25400000D03*
X39370000Y-22350000D03*
D20*
%TO.P,Q2,3,S*%
%TO.N,GND*%
X47345000Y-21595000D03*
%TD*%
D10*
%TO.P,J18,1,Pin_1*%
%TO.N,/Single_Phase2/OUTPUT*%
X58420000Y-50800000D03*
%TD*%
%TO.P,J1,1,Pin_1*%
%TO.N,/Single_Phase/en_hs*%
X15240000Y-30480000D03*
D11*
%TO.P,J1,2,Pin_2*%
%TO.N,/Single_Phase/en_ls*%
X15240000Y-33020000D03*
%TD*%
D10*
%TO.P,J4,1,Pin_1*%
%TO.N,/Single_Phase/I_SENSE*%
X15240000Y-35560000D03*
%TD*%
%TO.P,J17,1,Pin_1*%
%TO.N,/Single_Phase1/OUTPUT*%
X58420000Y-40640000D03*
%TD*%
D17*
%TO.P,R7,1*%
%TO.N,Net-(R7-Pad1)*%
X47435000Y-32512000D03*
%TO.P,R7,2*%
%TO.N,/Single_Phase1/I_SENSE*%
X49085000Y-32512000D03*
%TD*%
%TO.P,C1_BOOT3,1*%
%TO.N,Net-(D3-K)*%
X20159379Y-43644275D03*
%TO.P,C1_BOOT3,2*%
%TO.N,/Single_Phase2/OUTPUT_PRE_S*%
X21809379Y-43644275D03*
%TD*%
D10*
%TO.P,J14,1,Pin_1*%
%TO.N,GND*%
X45720000Y-15240000D03*
%TD*%
D14*
%TO.P,D3,1,K*%
%TO.N,Net-(D3-K)*%
X18268100Y-45340000D03*
%TO.P,D3,2,A*%
%TO.N,+5V*%
X18268100Y-48640000D03*
%TD*%
D13*
%TO.P,C12,1*%
%TO.N,+5V*%
X53594000Y-21907000D03*
%TO.P,C12,2*%
%TO.N,GND*%
X53594000Y-20257000D03*
%TD*%
D10*
%TO.P,J10,1,Pin_1*%
%TO.N,VD*%
X35560000Y-15240000D03*
%TD*%
D20*
%TO.P,Q5,1,D*%
%TO.N,Net-(Q5-D)*%
X35560000Y-51550000D03*
%TO.P,Q5,2,G*%
%TO.N,VD*%
X35560000Y-49270000D03*
D21*
X30935000Y-50795000D03*
X30935000Y-47745000D03*
D22*
X29260000Y-49270000D03*
D21*
X27585000Y-50795000D03*
X27585000Y-47745000D03*
D20*
%TO.P,Q5,3,S*%
%TO.N,/Single_Phase2/OUTPUT_PRE_S*%
X35560000Y-46990000D03*
%TD*%
D10*
%TO.P,J16,1,Pin_1*%
%TO.N,Net-(U3-LO)*%
X22860000Y-58420000D03*
%TD*%
D13*
%TO.P,R13,1*%
%TO.N,Net-(D4-K)*%
X14634379Y-18479512D03*
%TO.P,R13,2*%
%TO.N,GND*%
X14634379Y-16829512D03*
%TD*%
D10*
%TO.P,J16,1,Pin_1*%
%TO.N,Net-(U3-HO)*%
X30480000Y-58420000D03*
%TD*%
D20*
%TO.P,Q3,1,D*%
%TO.N,Net-(Q3-D)*%
X35560000Y-39365000D03*
%TO.P,Q3,2,G*%
%TO.N,VD*%
X35560000Y-37085000D03*
D21*
X30935000Y-38610000D03*
X30935000Y-35560000D03*
D22*
X29260000Y-37085000D03*
D21*
X27585000Y-38610000D03*
X27585000Y-35560000D03*
D20*
%TO.P,Q3,3,S*%
%TO.N,/Single_Phase1/OUTPUT_PRE_S*%
X35560000Y-34805000D03*
%TD*%
D17*
%TO.P,C7,1*%
%TO.N,/Single_Phase1/OUTPUT_PRE_S*%
X40590742Y-41381903D03*
%TO.P,C7,2*%
%TO.N,GND*%
X42240742Y-41381903D03*
%TD*%
D10*
%TO.P,J13,1,Pin_1*%
%TO.N,GND*%
X43180000Y-15240000D03*
%TD*%
%TO.P,J5,1,Pin_1*%
%TO.N,/Single_Phase1/I_SENSE*%
X15240000Y-38100000D03*
%TD*%
D15*
%TO.P,C5,1*%
%TO.N,+5V*%
X25223615Y-41406344D03*
%TO.P,C5,2*%
%TO.N,GND*%
X23573615Y-41406344D03*
%TD*%
D10*
%TO.P,J7,1,Pin_1*%
%TO.N,+5V*%
X15240000Y-22860000D03*
D11*
%TO.P,J7,2,Pin_2*%
%TO.N,GND*%
X15240000Y-25400000D03*
%TD*%
D15*
%TO.P,C9,1*%
%TO.N,+5V*%
X24688703Y-52708324D03*
%TO.P,C9,2*%
%TO.N,GND*%
X23038703Y-52708324D03*
%TD*%
%TO.P,R8,1*%
%TO.N,GND*%
X52133000Y-32512000D03*
%TO.P,R8,2*%
%TO.N,/Single_Phase1/I_SENSE*%
X50483000Y-32512000D03*
%TD*%
D10*
%TO.P,J3,1,Pin_1*%
%TO.N,/Single_Phase2/en_hs*%
X15240000Y-48260000D03*
D11*
%TO.P,J3,2,Pin_2*%
%TO.N,/Single_Phase2/en_ls*%
X15240000Y-50800000D03*
%TD*%
D10*
%TO.P,J16,1,Pin_1*%
%TO.N,Net-(U1-LO)*%
X27940000Y-58420000D03*
%TD*%
%TO.P,J13,1,Pin_1*%
%TO.N,GND*%
X50800000Y-15240000D03*
%TD*%
D13*
%TO.P,C8,1*%
%TO.N,+5V*%
X53594000Y-46545000D03*
%TO.P,C8,2*%
%TO.N,GND*%
X53594000Y-44895000D03*
%TD*%
D10*
%TO.P,J16,1,Pin_1*%
%TO.N,/Single_Phase/OUTPUT*%
X58420000Y-30480000D03*
%TD*%
D17*
%TO.P,C1_BOOT1,1*%
%TO.N,Net-(D1-K)*%
X20738583Y-19564517D03*
%TO.P,C1_BOOT1,2*%
%TO.N,/Single_Phase/OUTPUT_PRE_S*%
X22388583Y-19564517D03*
%TD*%
D10*
%TO.P,J18,1,Pin_1*%
%TO.N,/Single_Phase2/OUTPUT*%
X58420000Y-43180000D03*
%TD*%
D16*
%TO.P,U6,1*%
%TO.N,Net-(R11-Pad1)*%
X49662500Y-46548000D03*
%TO.P,U6,2,GND*%
%TO.N,GND*%
X49662500Y-47498000D03*
%TO.P,U6,3,+*%
%TO.N,/Single_Phase2/OUTPUT_PRE_S*%
X49662500Y-48448000D03*
%TO.P,U6,4,-*%
%TO.N,/Single_Phase2/OUTPUT*%
X51937500Y-48448000D03*
%TO.P,U6,5,V+*%
%TO.N,+5V*%
X51937500Y-46548000D03*
%TD*%
D10*
%TO.P,J12,1,Pin_1*%
%TO.N,VD*%
X25400000Y-15240000D03*
%TD*%
D17*
%TO.P,R3,1*%
%TO.N,Net-(R3-Pad1)*%
X47435000Y-19558000D03*
%TO.P,R3,2*%
%TO.N,/Single_Phase/I_SENSE*%
X49085000Y-19558000D03*
%TD*%
%TO.P,C1_BOOT2,1*%
%TO.N,Net-(D2-K)*%
X20150972Y-32272913D03*
%TO.P,C1_BOOT2,2*%
%TO.N,/Single_Phase1/OUTPUT_PRE_S*%
X21800972Y-32272913D03*
%TD*%
%TO.P,C3,1*%
%TO.N,/Single_Phase/OUTPUT_PRE_S*%
X40333467Y-28180470D03*
%TO.P,C3,2*%
%TO.N,GND*%
X41983467Y-28180470D03*
%TD*%
%TO.P,C11,1*%
%TO.N,/Single_Phase2/OUTPUT_PRE_S*%
X40261375Y-53578495D03*
%TO.P,C11,2*%
%TO.N,GND*%
X41911375Y-53578495D03*
%TD*%
D15*
%TO.P,R4,1*%
%TO.N,GND*%
X52133000Y-19558000D03*
%TO.P,R4,2*%
%TO.N,/Single_Phase/I_SENSE*%
X50483000Y-19558000D03*
%TD*%
%TO.P,C10,1*%
%TO.N,VD*%
X26494603Y-54273740D03*
%TO.P,C10,2*%
%TO.N,GND*%
X24844603Y-54273740D03*
%TD*%
D10*
%TO.P,J16,1,Pin_1*%
%TO.N,Net-(U1-HO)*%
X25400000Y-58420000D03*
%TD*%
D14*
%TO.P,D2,1,K*%
%TO.N,Net-(D2-K)*%
X18293653Y-35264191D03*
%TO.P,D2,2,A*%
%TO.N,+5V*%
X18293653Y-38564191D03*
%TD*%
D13*
%TO.P,C4,1*%
%TO.N,+5V*%
X53594000Y-34099000D03*
%TO.P,C4,2*%
%TO.N,GND*%
X53594000Y-32449000D03*
%TD*%
D10*
%TO.P,J16,1,Pin_1*%
%TO.N,/Single_Phase/OUTPUT*%
X58420000Y-27940000D03*
%TD*%
D20*
%TO.P,Q6,1,D*%
%TO.N,Net-(Q6-D)*%
X47345000Y-51555000D03*
%TO.P,Q6,2,G*%
%TO.N,/Single_Phase2/OUTPUT_PRE_S*%
X47345000Y-49275000D03*
D21*
X42720000Y-50800000D03*
X42720000Y-47750000D03*
D22*
X41045000Y-49275000D03*
D21*
X39370000Y-50800000D03*
X39370000Y-47750000D03*
D20*
%TO.P,Q6,3,S*%
%TO.N,GND*%
X47345000Y-46995000D03*
%TD*%
D10*
%TO.P,J17,1,Pin_1*%
%TO.N,/Single_Phase1/OUTPUT*%
X58420000Y-33020000D03*
%TD*%
D16*
%TO.P,U4,1*%
%TO.N,Net-(R7-Pad1)*%
X49662500Y-34356000D03*
%TO.P,U4,2,GND*%
%TO.N,GND*%
X49662500Y-35306000D03*
%TO.P,U4,3,+*%
%TO.N,/Single_Phase1/OUTPUT_PRE_S*%
X49662500Y-36256000D03*
%TO.P,U4,4,-*%
%TO.N,/Single_Phase1/OUTPUT*%
X51937500Y-36256000D03*
%TO.P,U4,5,V+*%
%TO.N,+5V*%
X51937500Y-34356000D03*
%TD*%
D10*
%TO.P,J18,1,Pin_1*%
%TO.N,/Single_Phase2/OUTPUT*%
X58420000Y-48260000D03*
%TD*%
D18*
%TO.P,U1,1,VCC*%
%TO.N,+5V*%
X20349379Y-26638206D03*
%TO.P,U1,2,HIN*%
%TO.N,/Single_Phase/en_hs*%
X21619379Y-26638206D03*
%TO.P,U1,3,LIN*%
%TO.N,/Single_Phase/en_ls*%
X22889379Y-26638206D03*
%TO.P,U1,4,COM*%
%TO.N,GND*%
X24159379Y-26638206D03*
%TO.P,U1,5,LO*%
%TO.N,Net-(U1-LO)*%
X24159379Y-21688206D03*
%TO.P,U1,6,VS*%
%TO.N,/Single_Phase/OUTPUT_PRE_S*%
X22889379Y-21688206D03*
%TO.P,U1,7,HO*%
%TO.N,Net-(U1-HO)*%
X21619379Y-21688206D03*
%TO.P,U1,8,VB*%
%TO.N,Net-(D1-K)*%
X20349379Y-21688206D03*
%TD*%
D20*
%TO.P,Q1,1,D*%
%TO.N,Net-(Q1-D)*%
X35560000Y-26155000D03*
%TO.P,Q1,2,G*%
%TO.N,VD*%
X35560000Y-23875000D03*
D21*
X30935000Y-25400000D03*
X30935000Y-22350000D03*
D22*
X29260000Y-23875000D03*
D21*
X27585000Y-25400000D03*
X27585000Y-22350000D03*
D20*
%TO.P,Q1,3,S*%
%TO.N,/Single_Phase/OUTPUT_PRE_S*%
X35560000Y-21595000D03*
%TD*%
D10*
%TO.P,J17,1,Pin_1*%
%TO.N,Net-(U5-LO)*%
X35560000Y-58420000D03*
%TD*%
%TO.P,J18,1,Pin_1*%
%TO.N,N/C*%
X43180000Y-58420000D03*
%TD*%
D13*
%TO.P,R5,1*%
%TO.N,Net-(U3-HO)*%
X34629720Y-43006848D03*
%TO.P,R5,2*%
%TO.N,Net-(Q3-D)*%
X34629720Y-41356848D03*
%TD*%
D15*
%TO.P,C6,1*%
%TO.N,VD*%
X26545709Y-42928174D03*
%TO.P,C6,2*%
%TO.N,GND*%
X24895709Y-42928174D03*
%TD*%
D23*
%TO.N,Net-(U3-LO)*%
X26035000Y-44450000D03*
%TO.N,+5V*%
X19104050Y-49475950D03*
X52705000Y-21590000D03*
X20394802Y-24597609D03*
X19050000Y-36830000D03*
X52705000Y-33655000D03*
X52705000Y-46355000D03*
D24*
%TO.N,GND*%
X17780000Y-55900000D03*
D23*
X23495000Y-53975000D03*
D24*
X55930000Y-56140000D03*
D23*
X42545000Y-53975000D03*
X43180000Y-41910000D03*
X23495000Y-29845000D03*
D24*
X55930000Y-18020000D03*
D23*
X43180000Y-28575000D03*
D24*
X17780000Y-17780000D03*
D23*
X24103635Y-41936365D03*
%TO.N,/Single_Phase/OUTPUT_PRE_S*%
X36830000Y-20690500D03*
X23495000Y-19685000D03*
%TO.N,Net-(U1-HO)*%
X21590000Y-23495000D03*
X36195000Y-27940000D03*
%TO.N,Net-(U1-LO)*%
X24130000Y-23495000D03*
X45085000Y-27305000D03*
%TO.N,/Single_Phase/I_SENSE*%
X50165000Y-18415000D03*
X19686043Y-29846043D03*
%TO.N,/Single_Phase1/OUTPUT_PRE_S*%
X36830000Y-33390500D03*
X22860000Y-32385000D03*
%TO.N,/Single_Phase2/OUTPUT_PRE_S*%
X36830000Y-44820500D03*
X22860000Y-43815000D03*
%TO.N,Net-(U3-HO)*%
X36195000Y-41275000D03*
X22860000Y-36963585D03*
%TO.N,Net-(U3-LO)*%
X45085000Y-40640000D03*
X24130000Y-36195000D03*
%TO.N,/Single_Phase1/I_SENSE*%
X50165000Y-31115000D03*
%TO.N,Net-(U5-HO)*%
X36195000Y-53340000D03*
X21590000Y-47625000D03*
%TO.N,Net-(U5-LO)*%
X24130000Y-47625000D03*
X45085000Y-52705000D03*
%TO.N,/Single_Phase2/I_SENSE*%
X50165000Y-43815000D03*
%TD*%
D25*
%TO.N,Net-(U5-LO)*%
X44523600Y-54775000D02*
X45722080Y-53576520D01*
X35813091Y-54775000D02*
X44523600Y-54775000D01*
X35560000Y-55028091D02*
X35813091Y-54775000D01*
X35560000Y-58420000D02*
X35560000Y-55028091D01*
%TO.N,Net-(U5-HO)*%
X33020000Y-58420000D02*
X33020000Y-56763192D01*
X33020000Y-56763192D02*
X34635608Y-55147584D01*
%TO.N,Net-(U1-HO)*%
X25400000Y-58460000D02*
X25400000Y-60760000D01*
X26690000Y-57170000D02*
X25400000Y-58460000D01*
X27879241Y-57170000D02*
X26690000Y-57170000D01*
X32860000Y-31822385D02*
X32860000Y-52189241D01*
X32860000Y-52189241D02*
X27879241Y-57170000D01*
X34908869Y-29773516D02*
X32860000Y-31822385D01*
%TO.N,Net-(U1-LO)*%
X27940000Y-57957769D02*
X27940000Y-60760000D01*
X33460000Y-52437769D02*
X27940000Y-57957769D01*
X33460000Y-32580000D02*
X33460000Y-52437769D01*
X37336002Y-28703998D02*
X33460000Y-32580000D01*
X39884939Y-29055470D02*
X39533467Y-28703998D01*
X40781995Y-29055470D02*
X39884939Y-29055470D01*
X39533467Y-28703998D02*
X37336002Y-28703998D01*
X41133467Y-27706942D02*
X41133467Y-28703998D01*
X45085000Y-27305000D02*
X41535409Y-27305000D01*
X41535409Y-27305000D02*
X41133467Y-27706942D01*
X41133467Y-28703998D02*
X40781995Y-29055470D01*
%TO.N,Net-(U3-HO)*%
X30480000Y-56329664D02*
X30480000Y-58420000D01*
X34060000Y-52749664D02*
X30480000Y-56329664D01*
X34629720Y-43006848D02*
X34629720Y-43135560D01*
X34629720Y-43135560D02*
X34060000Y-43705280D01*
X34060000Y-43705280D02*
X34060000Y-52749664D01*
%TO.N,Net-(U5-LO)*%
X35560000Y-58420000D02*
X35560000Y-60760000D01*
%TO.N,Net-(U5-HO)*%
X33020000Y-58420000D02*
X33020000Y-60760000D01*
%TO.N,Net-(U3-HO)*%
X30480000Y-58420000D02*
X30480000Y-60760000D01*
%TO.N,Net-(U3-LO)*%
X22860000Y-58420000D02*
X22860000Y-60760000D01*
X25644603Y-55635397D02*
X22860000Y-58420000D01*
X25644603Y-44840397D02*
X25644603Y-55635397D01*
X26035000Y-44450000D02*
X25644603Y-44840397D01*
D26*
%TO.N,+5V*%
X20196061Y-50110761D02*
X20196061Y-50735000D01*
X24425300Y-49260000D02*
X21046822Y-49260000D01*
X24806061Y-49640761D02*
X24425300Y-49260000D01*
X24806061Y-52590966D02*
X24806061Y-49640761D01*
X24688703Y-52708324D02*
X24806061Y-52590966D01*
D25*
X25695709Y-41878438D02*
X25223615Y-41406344D01*
X24765000Y-46865759D02*
X24765000Y-44382411D01*
X25695709Y-43451702D02*
X25695709Y-41878438D01*
X24955000Y-47055759D02*
X24765000Y-46865759D01*
X24955000Y-52442027D02*
X24955000Y-47055759D01*
X24688703Y-52708324D02*
X24955000Y-52442027D01*
X24765000Y-44382411D02*
X25695709Y-43451702D01*
D26*
X21046822Y-49260000D02*
X20196061Y-50110761D01*
%TO.N,GND*%
X24103635Y-42136100D02*
X24895709Y-42928174D01*
X24103635Y-41936365D02*
X24103635Y-42136100D01*
X23573615Y-41406345D02*
X23573615Y-41406344D01*
X24103635Y-41936365D02*
X23573615Y-41406345D01*
%TO.N,Net-(U3-HO)*%
X21517167Y-35620752D02*
X21517167Y-34388085D01*
X22860000Y-36963585D02*
X21517167Y-35620752D01*
%TO.N,GND*%
X23736810Y-54216810D02*
X23736810Y-52673028D01*
X23793740Y-54273740D02*
X23736810Y-54216810D01*
X23536061Y-52472279D02*
X23736810Y-52673028D01*
X24006061Y-50735000D02*
X23536061Y-51205000D01*
X23536061Y-51205000D02*
X23536061Y-52472279D01*
%TO.N,Net-(Q5-D)*%
X34686505Y-53578495D02*
X34925000Y-53340000D01*
X34925000Y-53340000D02*
X34925000Y-52185000D01*
X34925000Y-52185000D02*
X35560000Y-51550000D01*
X34620231Y-53578495D02*
X34686505Y-53578495D01*
%TO.N,Net-(U1-LO)*%
X45818366Y-28038366D02*
X45085000Y-27305000D01*
X45818366Y-28235527D02*
X45818366Y-28038366D01*
%TO.N,+5V*%
X13005000Y-22860000D02*
X13000000Y-22855000D01*
X15240000Y-22860000D02*
X13005000Y-22860000D01*
D27*
%TO.N,GND*%
X13205000Y-25400000D02*
X13200000Y-25395000D01*
X15240000Y-25400000D02*
X13205000Y-25400000D01*
X13205000Y-27940000D02*
X13200000Y-27935000D01*
X15240000Y-27940000D02*
X13205000Y-27940000D01*
D26*
%TO.N,/Single_Phase/en_hs*%
X13005000Y-30480000D02*
X13000000Y-30475000D01*
X15240000Y-30480000D02*
X13005000Y-30480000D01*
%TO.N,/Single_Phase/en_ls*%
X13005000Y-33020000D02*
X13000000Y-33015000D01*
X15240000Y-33020000D02*
X13005000Y-33020000D01*
%TO.N,/Single_Phase/I_SENSE*%
X15240000Y-35560000D02*
X13005000Y-35560000D01*
X13005000Y-35560000D02*
X13000000Y-35555000D01*
%TO.N,/Single_Phase1/I_SENSE*%
X15240000Y-38100000D02*
X13005000Y-38100000D01*
X13005000Y-38100000D02*
X13000000Y-38095000D01*
%TO.N,/Single_Phase1/en_hs*%
X15240000Y-40640000D02*
X13005000Y-40640000D01*
X13005000Y-40640000D02*
X13000000Y-40635000D01*
%TO.N,/Single_Phase1/en_ls*%
X15240000Y-43180000D02*
X13005000Y-43180000D01*
X13005000Y-43180000D02*
X13000000Y-43175000D01*
%TO.N,/Single_Phase2/I_SENSE*%
X13005000Y-45720000D02*
X13000000Y-45715000D01*
X15240000Y-45720000D02*
X13005000Y-45720000D01*
%TO.N,/Single_Phase2/en_hs*%
X13005000Y-48260000D02*
X13000000Y-48255000D01*
X15240000Y-48260000D02*
X13005000Y-48260000D01*
%TO.N,/Single_Phase2/en_ls*%
X13005000Y-50800000D02*
X13000000Y-50795000D01*
X15240000Y-50800000D02*
X13005000Y-50800000D01*
D27*
%TO.N,/Single_Phase2/OUTPUT*%
X58420000Y-50800000D02*
X60460000Y-50800000D01*
X58420000Y-48260000D02*
X60460000Y-48260000D01*
X58420000Y-45720000D02*
X60460000Y-45720000D01*
X58420000Y-43180000D02*
X60460000Y-43180000D01*
%TO.N,/Single_Phase1/OUTPUT*%
X58420000Y-40640000D02*
X60460000Y-40640000D01*
X58420000Y-38100000D02*
X60460000Y-38100000D01*
X58420000Y-35560000D02*
X60460000Y-35560000D01*
X58420000Y-33020000D02*
X60460000Y-33020000D01*
%TO.N,/Single_Phase/OUTPUT*%
X58420000Y-30480000D02*
X60460000Y-30480000D01*
X58420000Y-27940000D02*
X60460000Y-27940000D01*
X58420000Y-25400000D02*
X60460000Y-25400000D01*
X58420000Y-22860000D02*
X60460000Y-22860000D01*
%TO.N,GND*%
X50800000Y-15240000D02*
X50800000Y-13200000D01*
X48260000Y-15240000D02*
X48260000Y-13200000D01*
X45720000Y-15240000D02*
X45720000Y-13200000D01*
X43180000Y-15240000D02*
X43180000Y-13200000D01*
X40640000Y-15240000D02*
X40640000Y-13200000D01*
X38100000Y-15240000D02*
X38100000Y-13200000D01*
%TO.N,VD*%
X35560000Y-15240000D02*
X35560000Y-13200000D01*
X33020000Y-15240000D02*
X33020000Y-13200000D01*
X30480000Y-15240000D02*
X30480000Y-13200000D01*
X27940000Y-15240000D02*
X27940000Y-13200000D01*
X25400000Y-15240000D02*
X25400000Y-13200000D01*
X22860000Y-15240000D02*
X22860000Y-13200000D01*
D26*
%TO.N,+5V*%
X20196061Y-50735000D02*
X20196061Y-50567961D01*
X20196061Y-50567961D02*
X18268100Y-48640000D01*
%TO.N,Net-(D3-K)*%
X18713100Y-45785000D02*
X18268100Y-45340000D01*
X20196061Y-45785000D02*
X18713100Y-45785000D01*
%TO.N,+5V*%
X20959173Y-25404173D02*
X20394802Y-24839802D01*
X52263000Y-21148000D02*
X52705000Y-21590000D01*
D25*
X25677686Y-28901181D02*
X25677686Y-34148073D01*
D26*
X25173615Y-38560294D02*
X25173615Y-38735000D01*
X51937500Y-34356000D02*
X53287000Y-34356000D01*
D25*
X25420881Y-28644376D02*
X25677686Y-28901181D01*
D26*
X53287000Y-34356000D02*
X53594000Y-34049000D01*
X52895000Y-46545000D02*
X52705000Y-46355000D01*
X20349379Y-24643032D02*
X20394802Y-24597609D01*
X18293653Y-38564191D02*
X19473273Y-38564191D01*
X19473273Y-25762100D02*
X20349379Y-26638206D01*
X51937500Y-34356000D02*
X52004000Y-34356000D01*
X20959173Y-25404173D02*
X21200140Y-25163206D01*
X19987279Y-25762100D02*
X20349379Y-25400000D01*
X25173615Y-38735000D02*
X25173615Y-41406344D01*
X53594000Y-46545000D02*
X52895000Y-46545000D01*
X18293653Y-38564191D02*
X18293653Y-37586347D01*
X19473273Y-38564191D02*
X20247167Y-39338085D01*
X15417106Y-22860000D02*
X18319206Y-25762100D01*
X51937500Y-21148000D02*
X52263000Y-21148000D01*
X18293653Y-37586347D02*
X19050000Y-36830000D01*
X21097928Y-37863085D02*
X21590000Y-37863085D01*
X52512000Y-46548000D02*
X52705000Y-46355000D01*
X20394802Y-24839802D02*
X20394802Y-24597609D01*
X20247167Y-39338085D02*
X20247167Y-38713846D01*
X53594000Y-21857000D02*
X52646500Y-21857000D01*
X51937500Y-46548000D02*
X52512000Y-46548000D01*
X51937500Y-46548000D02*
X53541000Y-46548000D01*
X53149000Y-34099000D02*
X52705000Y-33655000D01*
D25*
X25173615Y-34652144D02*
X25173615Y-38735000D01*
D26*
X20960399Y-25163206D02*
X20394802Y-24597609D01*
X53022000Y-21907000D02*
X52705000Y-21590000D01*
X52646500Y-21857000D02*
X51937500Y-21148000D01*
X15240000Y-22860000D02*
X15417106Y-22860000D01*
X53541000Y-46548000D02*
X53594000Y-46495000D01*
X21590000Y-37863085D02*
X24476406Y-37863085D01*
X52004000Y-34356000D02*
X52705000Y-33655000D01*
X20349379Y-26638206D02*
X20349379Y-26013967D01*
X19322900Y-25762100D02*
X19987279Y-25762100D01*
X15240000Y-21245133D02*
X14634379Y-20639512D01*
X24476406Y-37863085D02*
X25173615Y-38560294D01*
X21590000Y-37863085D02*
X20083085Y-37863085D01*
D25*
X25677686Y-34148073D02*
X25173615Y-34652144D01*
D26*
X21200140Y-25163206D02*
X20960399Y-25163206D01*
X21200140Y-25163206D02*
X24578618Y-25163206D01*
X20349379Y-25400000D02*
X20349379Y-24643032D01*
X18319206Y-25762100D02*
X19473273Y-25762100D01*
X20349379Y-26638206D02*
X20349379Y-25400000D01*
X19322900Y-25762100D02*
X20320000Y-24765000D01*
X20349379Y-26013967D02*
X20959173Y-25404173D01*
X15240000Y-22860000D02*
X15240000Y-21245133D01*
X18319206Y-25762100D02*
X19322900Y-25762100D01*
X20083085Y-37863085D02*
X19050000Y-36830000D01*
X25370881Y-25955469D02*
X25370881Y-28644376D01*
X20247167Y-38713846D02*
X21097928Y-37863085D01*
X53594000Y-21907000D02*
X53022000Y-21907000D01*
X53594000Y-34099000D02*
X53149000Y-34099000D01*
X24578618Y-25163206D02*
X25370881Y-25955469D01*
D28*
%TO.N,GND*%
X50825000Y-21648000D02*
X50825000Y-20749472D01*
D26*
X24159379Y-26638206D02*
X24159379Y-28255878D01*
D28*
X50800000Y-49449890D02*
X51435000Y-50084890D01*
D26*
X23736810Y-52673028D02*
X23495000Y-52914838D01*
X24057167Y-40922792D02*
X23573615Y-41406344D01*
X24877686Y-30175338D02*
X23825338Y-30175338D01*
X23495000Y-28920257D02*
X23495000Y-29845000D01*
X24877686Y-29751181D02*
X23770881Y-28644376D01*
X23770881Y-28644376D02*
X23495000Y-28920257D01*
D28*
X50825000Y-20749472D02*
X52016472Y-19558000D01*
D26*
X52146000Y-44945000D02*
X52133000Y-44958000D01*
X23495000Y-52914838D02*
X23495000Y-53975000D01*
D28*
X50835356Y-46956883D02*
X50800000Y-46992239D01*
X50419000Y-35306000D02*
X50825000Y-34900000D01*
D26*
X49662500Y-22098000D02*
X50375000Y-22098000D01*
X42651903Y-41381903D02*
X43180000Y-41910000D01*
X24057167Y-39338085D02*
X24057167Y-40922792D01*
X41911375Y-53578495D02*
X42148495Y-53578495D01*
D28*
X50825000Y-34900000D02*
X50825000Y-33820000D01*
D26*
X49662500Y-35306000D02*
X50419000Y-35306000D01*
X49662500Y-47498000D02*
X50294239Y-47498000D01*
D28*
X52016472Y-44958000D02*
X52133000Y-44958000D01*
D26*
X53594000Y-44945000D02*
X52146000Y-44945000D01*
D28*
X50825000Y-46149472D02*
X52016472Y-44958000D01*
D26*
X24895709Y-42928174D02*
X24895709Y-42728438D01*
X47846000Y-35306000D02*
X47345000Y-34805000D01*
X42240742Y-41381903D02*
X42651903Y-41381903D01*
X49662500Y-22098000D02*
X47848000Y-22098000D01*
D28*
X50835356Y-46956883D02*
X50825000Y-46946528D01*
D26*
X24159379Y-28255878D02*
X23770881Y-28644376D01*
X49662500Y-35306000D02*
X47846000Y-35306000D01*
X47848000Y-47498000D02*
X47345000Y-46995000D01*
X52133000Y-19558000D02*
X52845000Y-19558000D01*
X52845000Y-19558000D02*
X53594000Y-20307000D01*
X24895709Y-42728438D02*
X23573615Y-41406344D01*
X53594000Y-32499000D02*
X52146000Y-32499000D01*
D28*
X50825000Y-46946528D02*
X50825000Y-46149472D01*
D26*
X47848000Y-22098000D02*
X47345000Y-21595000D01*
D28*
X51435000Y-50084890D02*
X51435000Y-51645000D01*
D26*
X42785470Y-28180470D02*
X43180000Y-28575000D01*
X52146000Y-32499000D02*
X52133000Y-32512000D01*
X23793740Y-54273740D02*
X23495000Y-53975000D01*
D28*
X50294239Y-47498000D02*
X50835356Y-46956883D01*
X50800000Y-46992239D02*
X50800000Y-49449890D01*
D26*
X41983467Y-28180470D02*
X42785470Y-28180470D01*
D28*
X50825000Y-33820000D02*
X52133000Y-32512000D01*
D26*
X23825338Y-30175338D02*
X23495000Y-29845000D01*
X49662500Y-47498000D02*
X47848000Y-47498000D01*
X42148495Y-53578495D02*
X42545000Y-53975000D01*
D28*
X51435000Y-51645000D02*
X55930000Y-56140000D01*
X52016472Y-19558000D02*
X52133000Y-19558000D01*
D26*
X24877686Y-30175338D02*
X24877686Y-29751181D01*
X24844603Y-54273740D02*
X23793740Y-54273740D01*
D28*
X50375000Y-22098000D02*
X50825000Y-21648000D01*
D26*
%TO.N,Net-(D1-K)*%
X20349379Y-21688206D02*
X19093100Y-21688206D01*
X20349379Y-21688206D02*
X20349379Y-20003721D01*
X19093100Y-21688206D02*
X18319206Y-22462100D01*
X20349379Y-20003721D02*
X20788583Y-19564517D01*
D29*
%TO.N,/Single_Phase/OUTPUT_PRE_S*%
X36830000Y-21595000D02*
X38615000Y-21595000D01*
D30*
X48320500Y-23875000D02*
X49591500Y-25146000D01*
D26*
X22889379Y-20115313D02*
X23064687Y-20115313D01*
D27*
X44245000Y-23875000D02*
X42720000Y-25400000D01*
D26*
X40333467Y-26363467D02*
X39370000Y-25400000D01*
X23495000Y-19685000D02*
X22509066Y-19685000D01*
D30*
X47345000Y-23875000D02*
X48320500Y-23875000D01*
D26*
X49662500Y-23048000D02*
X49147500Y-23048000D01*
X22889379Y-21688206D02*
X22889379Y-20115313D01*
X49147500Y-23048000D02*
X48320500Y-23875000D01*
D29*
X35560000Y-21595000D02*
X36830000Y-21595000D01*
D26*
X40333467Y-28180470D02*
X40333467Y-26363467D01*
D30*
X47345000Y-23875000D02*
X44245000Y-23875000D01*
D26*
X22509066Y-19685000D02*
X22388583Y-19564517D01*
X23064687Y-20115313D02*
X23495000Y-19685000D01*
D31*
X38615000Y-21595000D02*
X39370000Y-22350000D01*
D26*
X22889379Y-20115313D02*
X22338583Y-19564517D01*
X36830000Y-21595000D02*
X36830000Y-20690500D01*
%TO.N,VD*%
X26545709Y-39649291D02*
X27585000Y-38610000D01*
X26527686Y-26457314D02*
X27585000Y-25400000D01*
X26545709Y-42928174D02*
X26545709Y-39649291D01*
X26494603Y-51885397D02*
X27585000Y-50795000D01*
X26494603Y-54273740D02*
X26494603Y-51885397D01*
X26527686Y-30175338D02*
X26527686Y-26457314D01*
%TO.N,Net-(U1-HO)*%
X36195000Y-28487385D02*
X36195000Y-27940000D01*
X34908869Y-29773516D02*
X36195000Y-28487385D01*
X21619379Y-21688206D02*
X21619379Y-23465621D01*
X21619379Y-23465621D02*
X21590000Y-23495000D01*
%TO.N,Net-(U1-LO)*%
X24159379Y-21688206D02*
X24159379Y-23465621D01*
X24159379Y-23465621D02*
X24130000Y-23495000D01*
%TO.N,Net-(R3-Pad1)*%
X47498000Y-19558000D02*
X47435000Y-19558000D01*
X48473000Y-20533000D02*
X47498000Y-19558000D01*
X49047500Y-20533000D02*
X48473000Y-20533000D01*
X49662500Y-21148000D02*
X49047500Y-20533000D01*
%TO.N,/Single_Phase/I_SENSE*%
X49085000Y-19558000D02*
X50483000Y-19558000D01*
X19686043Y-29846043D02*
X19685000Y-29845000D01*
X19685000Y-29845000D02*
X19546370Y-29845000D01*
X50483000Y-18733000D02*
X50165000Y-18415000D01*
X16590000Y-34845000D02*
X15875000Y-35560000D01*
X50483000Y-19558000D02*
X50483000Y-18733000D01*
X16590000Y-32801370D02*
X16590000Y-34845000D01*
X15875000Y-35560000D02*
X15240000Y-35560000D01*
X49085000Y-19558000D02*
X49085000Y-19495000D01*
X49085000Y-19495000D02*
X50165000Y-18415000D01*
X19546370Y-29845000D02*
X16590000Y-32801370D01*
%TO.N,/Single_Phase/OUTPUT*%
X52258000Y-23048000D02*
X52705000Y-23495000D01*
X51937500Y-23048000D02*
X52258000Y-23048000D01*
X52705000Y-23495000D02*
X52516500Y-23683500D01*
X52516500Y-23683500D02*
X52516500Y-25146000D01*
%TO.N,/Single_Phase/en_hs*%
X16510000Y-30480000D02*
X18876794Y-28113206D01*
X20768618Y-28113206D02*
X21619379Y-27262445D01*
X18876794Y-28113206D02*
X20768618Y-28113206D01*
X21619379Y-27262445D02*
X21619379Y-26638206D01*
X15240000Y-30480000D02*
X16510000Y-30480000D01*
%TO.N,/Single_Phase/en_ls*%
X22889379Y-27262445D02*
X21238618Y-28913206D01*
X21238618Y-28913206D02*
X19346794Y-28913206D01*
X22889379Y-26638206D02*
X22889379Y-27262445D01*
X19346794Y-28913206D02*
X15240000Y-33020000D01*
%TO.N,Net-(D2-K)*%
X20247167Y-32319108D02*
X20200972Y-32272913D01*
X19169759Y-34388085D02*
X18293653Y-35264191D01*
X20247167Y-34388085D02*
X19169759Y-34388085D01*
X20247167Y-34388085D02*
X20247167Y-32319108D01*
%TO.N,/Single_Phase1/OUTPUT_PRE_S*%
X49151500Y-36256000D02*
X48322500Y-37085000D01*
X36830000Y-34832171D02*
X36830000Y-33390500D01*
X22787167Y-34388085D02*
X22787167Y-32457833D01*
X22787167Y-32457833D02*
X22860000Y-32385000D01*
X22787167Y-34388085D02*
X22787167Y-33309108D01*
D30*
X47345000Y-37085000D02*
X41045000Y-37085000D01*
D26*
X40590742Y-39830742D02*
X39370000Y-38610000D01*
X49662500Y-36256000D02*
X49151500Y-36256000D01*
X40590742Y-41381903D02*
X40590742Y-39830742D01*
D30*
X47345000Y-37085000D02*
X48322500Y-37085000D01*
D26*
X22787167Y-33309108D02*
X21750972Y-32272913D01*
X21800972Y-32272913D02*
X22747913Y-32272913D01*
D29*
X36830000Y-34832171D02*
X38327379Y-34832171D01*
D26*
X36830000Y-33390500D02*
X36830000Y-33655000D01*
X22747913Y-32272913D02*
X22860000Y-32385000D01*
D29*
X35272379Y-34832171D02*
X36830000Y-34832171D01*
D30*
X48322500Y-37085000D02*
X49591500Y-38354000D01*
D26*
%TO.N,Net-(D3-K)*%
X20196061Y-43657593D02*
X20209379Y-43644275D01*
X20196061Y-45785000D02*
X20196061Y-43657593D01*
X20196061Y-45011663D02*
X20209379Y-44998345D01*
%TO.N,/Single_Phase2/OUTPUT_PRE_S*%
X40261375Y-51691375D02*
X39370000Y-50800000D01*
X36830000Y-46969881D02*
X36830000Y-44820500D01*
X40261375Y-53578495D02*
X40261375Y-51691375D01*
X21809379Y-43644275D02*
X22689275Y-43644275D01*
D29*
X35346205Y-46969881D02*
X36830000Y-46969881D01*
D30*
X47345000Y-49275000D02*
X44245000Y-49275000D01*
D26*
X49401500Y-48448000D02*
X48574500Y-49275000D01*
D29*
X36830000Y-46969881D02*
X38401205Y-46969881D01*
D27*
X44245000Y-49275000D02*
X42720000Y-50800000D01*
D30*
X47345000Y-49275000D02*
X48574500Y-49275000D01*
D26*
X22689275Y-43644275D02*
X22860000Y-43815000D01*
X22736061Y-44620957D02*
X22736061Y-45785000D01*
X22736061Y-43938939D02*
X22860000Y-43815000D01*
X22736061Y-45785000D02*
X22736061Y-43938939D01*
X49662500Y-48448000D02*
X49401500Y-48448000D01*
D30*
X48574500Y-49275000D02*
X49591500Y-50292000D01*
D26*
X21759379Y-43644275D02*
X22736061Y-44620957D01*
%TO.N,/Single_Phase1/OUTPUT*%
X52131000Y-36256000D02*
X52705000Y-36830000D01*
X52516500Y-37018500D02*
X52516500Y-38354000D01*
X51937500Y-36256000D02*
X52131000Y-36256000D01*
X52705000Y-36830000D02*
X52516500Y-37018500D01*
%TO.N,/Single_Phase2/OUTPUT*%
X52516500Y-49083500D02*
X52516500Y-50292000D01*
D27*
X52516500Y-50292000D02*
X52578000Y-50292000D01*
X57912000Y-50292000D02*
X58420000Y-50800000D01*
D26*
X52258000Y-48448000D02*
X52705000Y-48895000D01*
X52705000Y-48895000D02*
X52516500Y-49083500D01*
D27*
X52516500Y-50292000D02*
X57912000Y-50292000D01*
X52516500Y-50292000D02*
X52832000Y-50292000D01*
D26*
X51937500Y-48448000D02*
X52258000Y-48448000D01*
%TO.N,Net-(U3-HO)*%
X36195000Y-41441568D02*
X36195000Y-41275000D01*
X34629720Y-43006848D02*
X36195000Y-41441568D01*
%TO.N,Net-(U3-LO)*%
X45817381Y-41372381D02*
X45085000Y-40640000D01*
X24057167Y-34388085D02*
X24057167Y-36122167D01*
X45817381Y-41406592D02*
X45817381Y-41372381D01*
X24057167Y-36122167D02*
X24130000Y-36195000D01*
%TO.N,Net-(R7-Pad1)*%
X49662500Y-34356000D02*
X49279000Y-34356000D01*
X49279000Y-34356000D02*
X47435000Y-32512000D01*
%TO.N,/Single_Phase1/I_SENSE*%
X49085000Y-32195000D02*
X50165000Y-31115000D01*
X49085000Y-32512000D02*
X50483000Y-32512000D01*
X50483000Y-31433000D02*
X50165000Y-31115000D01*
X50483000Y-32512000D02*
X50483000Y-31433000D01*
X49085000Y-32512000D02*
X49085000Y-32195000D01*
%TO.N,Net-(U5-HO)*%
X21466061Y-47501061D02*
X21590000Y-47625000D01*
X34635608Y-54962533D02*
X36195000Y-53403141D01*
X36195000Y-53403141D02*
X36195000Y-53340000D01*
X21466061Y-45785000D02*
X21466061Y-47501061D01*
X34635608Y-55147584D02*
X34635608Y-54962533D01*
%TO.N,Net-(U5-LO)*%
X45722080Y-53342080D02*
X45085000Y-52705000D01*
X24006061Y-45785000D02*
X24006061Y-47501061D01*
X24006061Y-47501061D02*
X24130000Y-47625000D01*
X45722080Y-53576520D02*
X45722080Y-53342080D01*
%TO.N,Net-(R11-Pad1)*%
X49662500Y-46548000D02*
X49158660Y-46548000D01*
X47568660Y-44958000D02*
X47435000Y-44958000D01*
X49158660Y-46548000D02*
X47568660Y-44958000D01*
%TO.N,/Single_Phase2/I_SENSE*%
X49085000Y-44895000D02*
X50165000Y-43815000D01*
X49085000Y-44958000D02*
X50483000Y-44958000D01*
X50483000Y-44133000D02*
X50165000Y-43815000D01*
X49085000Y-44958000D02*
X49085000Y-44895000D01*
X50483000Y-44958000D02*
X50483000Y-44133000D01*
%TO.N,/Single_Phase1/en_hs*%
X21517167Y-39338085D02*
X21517167Y-39962324D01*
X20666406Y-40813085D02*
X15413085Y-40813085D01*
X15413085Y-40813085D02*
X15240000Y-40640000D01*
X21517167Y-39962324D02*
X20666406Y-40813085D01*
%TO.N,/Single_Phase1/en_ls*%
X22787167Y-40712833D02*
X22787167Y-39338085D01*
X21510000Y-41990000D02*
X22787167Y-40712833D01*
X15240000Y-43180000D02*
X16430000Y-41990000D01*
X16430000Y-41990000D02*
X21510000Y-41990000D01*
%TO.N,/Single_Phase2/en_hs*%
X18891689Y-52210000D02*
X15240000Y-48558311D01*
X20615300Y-52210000D02*
X18891689Y-52210000D01*
X21466061Y-51359239D02*
X20615300Y-52210000D01*
X21466061Y-50735000D02*
X21466061Y-51359239D01*
X15240000Y-48558311D02*
X15240000Y-48260000D01*
%TO.N,/Single_Phase2/en_ls*%
X17450000Y-53010000D02*
X21085300Y-53010000D01*
X21085300Y-53010000D02*
X22736061Y-51359239D01*
X15240000Y-50800000D02*
X17450000Y-53010000D01*
X22736061Y-51359239D02*
X22736061Y-50735000D01*
%TO.N,Net-(Q1-D)*%
X34908869Y-28123516D02*
X34908869Y-26806131D01*
X34908869Y-26806131D02*
X35560000Y-26155000D01*
%TO.N,Net-(Q2-D)*%
X47468366Y-28235527D02*
X47468366Y-26278366D01*
X47468366Y-26278366D02*
X47345000Y-26155000D01*
%TO.N,Net-(Q3-D)*%
X34571595Y-41372521D02*
X34571595Y-40353405D01*
X34571595Y-40353405D02*
X35560000Y-39365000D01*
%TO.N,Net-(Q4-D)*%
X47467381Y-41406592D02*
X47467381Y-39487381D01*
X47467381Y-39487381D02*
X47345000Y-39365000D01*
%TO.N,Net-(Q6-D)*%
X47372080Y-53576520D02*
X47372080Y-51582080D01*
X47372080Y-51582080D02*
X47345000Y-51555000D01*
%TO.N,Net-(D4-K)*%
X14634379Y-18989512D02*
X14634379Y-18479512D01*
%TD*%
%TA.AperFunction,Conductor*%
%TO.N,/Single_Phase1/OUTPUT*%
G36*
X60902539Y-32404685D02*
G01*
X60948294Y-32457489D01*
X60959500Y-32509000D01*
X60959500Y-41151000D01*
X60939815Y-41218039D01*
X60887011Y-41263794D01*
X60835500Y-41275000D01*
X52194000Y-41275000D01*
X52126961Y-41255315D01*
X52081206Y-41202511D01*
X52070000Y-41151000D01*
X52070000Y-35280500D01*
X52089685Y-35213461D01*
X52142489Y-35167706D01*
X52194000Y-35156500D01*
X53377194Y-35156500D01*
X53411249Y-35148726D01*
X53417905Y-35147208D01*
X53424760Y-35146043D01*
X53466255Y-35141368D01*
X53505680Y-35127571D01*
X53512321Y-35125658D01*
X53553061Y-35116360D01*
X53590693Y-35098236D01*
X53597105Y-35095580D01*
X53636522Y-35081789D01*
X53671889Y-35059565D01*
X53677961Y-35056209D01*
X53715587Y-35038091D01*
X53730053Y-35026553D01*
X53794739Y-35000145D01*
X53807367Y-34999500D01*
X53925613Y-34999500D01*
X53925616Y-34999500D01*
X53996196Y-34993086D01*
X54158606Y-34942478D01*
X54304185Y-34854472D01*
X54424472Y-34734185D01*
X54512478Y-34588606D01*
X54563086Y-34426196D01*
X54569500Y-34355616D01*
X54569500Y-33842384D01*
X54563086Y-33771804D01*
X54512478Y-33609394D01*
X54424472Y-33463815D01*
X54424470Y-33463813D01*
X54424469Y-33463811D01*
X54322339Y-33361681D01*
X54288854Y-33300358D01*
X54293838Y-33230666D01*
X54322339Y-33186319D01*
X54424468Y-33084189D01*
X54424469Y-33084188D01*
X54424472Y-33084185D01*
X54512478Y-32938606D01*
X54563086Y-32776196D01*
X54569500Y-32705616D01*
X54569500Y-32509000D01*
X54589185Y-32441961D01*
X54641989Y-32396206D01*
X54693500Y-32385000D01*
X60835500Y-32385000D01*
X60902539Y-32404685D01*
G37*
%TD.AperFunction*%
%TD*%
%TA.AperFunction,Conductor*%
%TO.N,GND*%
G36*
X16663598Y-53359685D02*
G01*
X16684240Y-53376319D01*
X16837619Y-53529698D01*
X16837625Y-53529703D01*
X16947738Y-53639816D01*
X16983089Y-53662028D01*
X16988765Y-53666055D01*
X17021411Y-53692090D01*
X17021412Y-53692091D01*
X17042548Y-53702269D01*
X17059035Y-53710208D01*
X17065112Y-53713567D01*
X17082635Y-53724577D01*
X17100477Y-53735789D01*
X17139891Y-53749581D01*
X17146320Y-53752244D01*
X17183941Y-53770361D01*
X17224641Y-53779650D01*
X17231328Y-53781576D01*
X17270742Y-53795367D01*
X17270745Y-53795368D01*
X17312241Y-53800043D01*
X17319093Y-53801207D01*
X17359806Y-53810500D01*
X17359808Y-53810500D01*
X21175494Y-53810500D01*
X21216203Y-53801208D01*
X21223060Y-53800043D01*
X21264555Y-53795368D01*
X21303980Y-53781571D01*
X21310621Y-53779658D01*
X21351361Y-53770360D01*
X21388993Y-53752236D01*
X21395405Y-53749580D01*
X21434822Y-53735789D01*
X21470189Y-53713565D01*
X21476261Y-53710209D01*
X21513887Y-53692091D01*
X21546536Y-53666052D01*
X21552195Y-53662037D01*
X21587562Y-53639816D01*
X21715116Y-53512262D01*
X21715115Y-53512261D01*
X21851059Y-53376316D01*
X21912381Y-53342834D01*
X21938738Y-53340000D01*
X23815835Y-53340000D01*
X23882874Y-53359685D01*
X23921952Y-53399851D01*
X23933231Y-53418509D01*
X23933234Y-53418513D01*
X24053514Y-53538793D01*
X24053516Y-53538794D01*
X24053518Y-53538796D01*
X24199097Y-53626802D01*
X24361507Y-53677410D01*
X24432087Y-53683824D01*
X24820103Y-53683824D01*
X24887142Y-53703509D01*
X24932897Y-53756313D01*
X24944103Y-53807824D01*
X24944103Y-55293877D01*
X24924418Y-55360916D01*
X24907784Y-55381558D01*
X23256160Y-57033181D01*
X23194837Y-57066666D01*
X23168479Y-57069500D01*
X21962129Y-57069500D01*
X21962123Y-57069501D01*
X21902516Y-57075908D01*
X21767671Y-57126202D01*
X21767664Y-57126206D01*
X21652455Y-57212452D01*
X21652452Y-57212455D01*
X21566206Y-57327664D01*
X21566202Y-57327671D01*
X21515908Y-57462517D01*
X21509501Y-57522116D01*
X21509501Y-57522123D01*
X21509500Y-57522135D01*
X21509500Y-59317870D01*
X21509501Y-59317876D01*
X21515908Y-59377483D01*
X21566202Y-59512328D01*
X21566203Y-59512330D01*
X21643578Y-59615689D01*
X21667995Y-59681153D01*
X21653144Y-59749426D01*
X21643578Y-59764311D01*
X21566203Y-59867669D01*
X21566202Y-59867671D01*
X21515908Y-60002517D01*
X21509501Y-60062116D01*
X21509501Y-60062123D01*
X21509500Y-60062135D01*
X21509500Y-60835500D01*
X21489815Y-60902539D01*
X21437011Y-60948294D01*
X21385500Y-60959500D01*
X17781280Y-60959500D01*
X17778719Y-60959447D01*
X17772264Y-60959180D01*
X17562732Y-60950513D01*
X17357288Y-60941543D01*
X17352322Y-60941126D01*
X17134252Y-60913943D01*
X16929192Y-60886947D01*
X16924559Y-60886157D01*
X16709682Y-60841103D01*
X16507286Y-60796232D01*
X16503013Y-60795124D01*
X16292540Y-60732463D01*
X16094657Y-60670072D01*
X16090785Y-60668708D01*
X15958255Y-60616995D01*
X15886701Y-60589074D01*
X15885512Y-60588596D01*
X15694235Y-60509366D01*
X15690731Y-60507786D01*
X15636184Y-60481119D01*
X15493942Y-60411582D01*
X15492583Y-60410896D01*
X15308937Y-60315294D01*
X15305828Y-60313561D01*
X15117669Y-60201443D01*
X15116123Y-60200490D01*
X14941494Y-60089239D01*
X14938786Y-60087412D01*
X14760559Y-59960160D01*
X14758843Y-59958889D01*
X14594593Y-59832856D01*
X14592265Y-59830979D01*
X14425155Y-59689444D01*
X14423338Y-59687844D01*
X14270673Y-59547952D01*
X14268742Y-59546104D01*
X14113893Y-59391255D01*
X14112059Y-59389339D01*
X13972143Y-59236648D01*
X13970554Y-59234843D01*
X13829019Y-59067733D01*
X13827142Y-59065405D01*
X13701109Y-58901155D01*
X13699838Y-58899439D01*
X13572580Y-58721203D01*
X13570771Y-58718522D01*
X13459485Y-58543839D01*
X13458555Y-58542329D01*
X13346437Y-58354170D01*
X13344704Y-58351061D01*
X13317045Y-58297930D01*
X13249064Y-58167341D01*
X13248450Y-58166123D01*
X13152202Y-57969246D01*
X13150632Y-57965763D01*
X13071402Y-57774486D01*
X13070943Y-57773346D01*
X12991277Y-57569180D01*
X12989939Y-57565378D01*
X12927529Y-57367438D01*
X12915688Y-57327664D01*
X12864869Y-57156969D01*
X12863766Y-57152712D01*
X12845747Y-57071434D01*
X12818896Y-56950316D01*
X12773837Y-56735420D01*
X12773058Y-56730849D01*
X12746055Y-56525746D01*
X12718870Y-56307654D01*
X12718456Y-56302732D01*
X12709497Y-56097528D01*
X12700552Y-55881280D01*
X12700500Y-55878719D01*
X12700500Y-53464000D01*
X12720185Y-53396961D01*
X12772989Y-53351206D01*
X12824500Y-53340000D01*
X16596559Y-53340000D01*
X16663598Y-53359685D01*
G37*
%TD.AperFunction*%
%TA.AperFunction,Conductor*%
G36*
X57321650Y-52089685D02*
G01*
X57327209Y-52093544D01*
X57327665Y-52093793D01*
X57327669Y-52093796D01*
X57327672Y-52093797D01*
X57462517Y-52144091D01*
X57462516Y-52144091D01*
X57469444Y-52144835D01*
X57522127Y-52150500D01*
X59317872Y-52150499D01*
X59377483Y-52144091D01*
X59512331Y-52093796D01*
X59512336Y-52093791D01*
X59520109Y-52089548D01*
X59520933Y-52091057D01*
X59576543Y-52070316D01*
X59585389Y-52070000D01*
X59794611Y-52070000D01*
X59861650Y-52089685D01*
X59867209Y-52093544D01*
X59867665Y-52093793D01*
X59867669Y-52093796D01*
X59867672Y-52093797D01*
X60002517Y-52144091D01*
X60002516Y-52144091D01*
X60009444Y-52144835D01*
X60062127Y-52150500D01*
X60835500Y-52150499D01*
X60902539Y-52170183D01*
X60948294Y-52222987D01*
X60959500Y-52274499D01*
X60959500Y-55878719D01*
X60959447Y-55881281D01*
X60950518Y-56097156D01*
X60941543Y-56302710D01*
X60941126Y-56307676D01*
X60913943Y-56525746D01*
X60886947Y-56730806D01*
X60886157Y-56735439D01*
X60841103Y-56950316D01*
X60796232Y-57152712D01*
X60795124Y-57156985D01*
X60732463Y-57367458D01*
X60670072Y-57565341D01*
X60668700Y-57569237D01*
X60589074Y-57773297D01*
X60588596Y-57774486D01*
X60509366Y-57965763D01*
X60507786Y-57969267D01*
X60411602Y-58166016D01*
X60410896Y-58167415D01*
X60315294Y-58351061D01*
X60313561Y-58354170D01*
X60201443Y-58542329D01*
X60200472Y-58543905D01*
X60089244Y-58718497D01*
X60087412Y-58721212D01*
X59960160Y-58899439D01*
X59958889Y-58901155D01*
X59832856Y-59065405D01*
X59830979Y-59067733D01*
X59689444Y-59234843D01*
X59687844Y-59236660D01*
X59547952Y-59389325D01*
X59546082Y-59391279D01*
X59391279Y-59546082D01*
X59389325Y-59547952D01*
X59236660Y-59687844D01*
X59234843Y-59689444D01*
X59067733Y-59830979D01*
X59065405Y-59832856D01*
X58901155Y-59958889D01*
X58899439Y-59960160D01*
X58721212Y-60087412D01*
X58718497Y-60089244D01*
X58543905Y-60200472D01*
X58542329Y-60201443D01*
X58354170Y-60313561D01*
X58351061Y-60315294D01*
X58167415Y-60410896D01*
X58166016Y-60411602D01*
X57969267Y-60507786D01*
X57965763Y-60509366D01*
X57774486Y-60588596D01*
X57773297Y-60589074D01*
X57569237Y-60668700D01*
X57565341Y-60670072D01*
X57367458Y-60732463D01*
X57156985Y-60795124D01*
X57152712Y-60796232D01*
X56950316Y-60841103D01*
X56735439Y-60886157D01*
X56730806Y-60886947D01*
X56525746Y-60913943D01*
X56307676Y-60941126D01*
X56302710Y-60941543D01*
X56097266Y-60950513D01*
X55887125Y-60959205D01*
X55881280Y-60959447D01*
X55878720Y-60959500D01*
X52274499Y-60959500D01*
X52207460Y-60939815D01*
X52161705Y-60887011D01*
X52150499Y-60835500D01*
X52150499Y-60062129D01*
X52150498Y-60062123D01*
X52150497Y-60062116D01*
X52144091Y-60002517D01*
X52093796Y-59867669D01*
X52016421Y-59764309D01*
X51992004Y-59698848D01*
X52006855Y-59630575D01*
X52016416Y-59615696D01*
X52093796Y-59512331D01*
X52144091Y-59377483D01*
X52150500Y-59317873D01*
X52150499Y-57522128D01*
X52144091Y-57462517D01*
X52108636Y-57367458D01*
X52093797Y-57327671D01*
X52093793Y-57327664D01*
X52007547Y-57212455D01*
X52007544Y-57212452D01*
X51892335Y-57126206D01*
X51892328Y-57126202D01*
X51757482Y-57075908D01*
X51757483Y-57075908D01*
X51697883Y-57069501D01*
X51697881Y-57069500D01*
X51697873Y-57069500D01*
X51697864Y-57069500D01*
X49902129Y-57069500D01*
X49902123Y-57069501D01*
X49842516Y-57075908D01*
X49707671Y-57126202D01*
X49707669Y-57126203D01*
X49604311Y-57203578D01*
X49538847Y-57227995D01*
X49470574Y-57213144D01*
X49455689Y-57203578D01*
X49352330Y-57126203D01*
X49352328Y-57126202D01*
X49217482Y-57075908D01*
X49217483Y-57075908D01*
X49157883Y-57069501D01*
X49157881Y-57069500D01*
X49157873Y-57069500D01*
X49157864Y-57069500D01*
X47362129Y-57069500D01*
X47362123Y-57069501D01*
X47302516Y-57075908D01*
X47167671Y-57126202D01*
X47167669Y-57126203D01*
X47064311Y-57203578D01*
X46998847Y-57227995D01*
X46930574Y-57213144D01*
X46915689Y-57203578D01*
X46812330Y-57126203D01*
X46812328Y-57126202D01*
X46677482Y-57075908D01*
X46677483Y-57075908D01*
X46617883Y-57069501D01*
X46617881Y-57069500D01*
X46617873Y-57069500D01*
X46617864Y-57069500D01*
X44822129Y-57069500D01*
X44822123Y-57069501D01*
X44762516Y-57075908D01*
X44627671Y-57126202D01*
X44627669Y-57126203D01*
X44524311Y-57203578D01*
X44458847Y-57227995D01*
X44390574Y-57213144D01*
X44375689Y-57203578D01*
X44272330Y-57126203D01*
X44272328Y-57126202D01*
X44137482Y-57075908D01*
X44137483Y-57075908D01*
X44077883Y-57069501D01*
X44077881Y-57069500D01*
X44077873Y-57069500D01*
X44077864Y-57069500D01*
X42282129Y-57069500D01*
X42282123Y-57069501D01*
X42222516Y-57075908D01*
X42087671Y-57126202D01*
X42087669Y-57126203D01*
X41984311Y-57203578D01*
X41918847Y-57227995D01*
X41850574Y-57213144D01*
X41835689Y-57203578D01*
X41732330Y-57126203D01*
X41732328Y-57126202D01*
X41597482Y-57075908D01*
X41597483Y-57075908D01*
X41537883Y-57069501D01*
X41537881Y-57069500D01*
X41537873Y-57069500D01*
X41537864Y-57069500D01*
X39742129Y-57069500D01*
X39742123Y-57069501D01*
X39682516Y-57075908D01*
X39547671Y-57126202D01*
X39547669Y-57126203D01*
X39444311Y-57203578D01*
X39378847Y-57227995D01*
X39310574Y-57213144D01*
X39295689Y-57203578D01*
X39192330Y-57126203D01*
X39192328Y-57126202D01*
X39057482Y-57075908D01*
X39057483Y-57075908D01*
X38997883Y-57069501D01*
X38997881Y-57069500D01*
X38997873Y-57069500D01*
X38997864Y-57069500D01*
X37202129Y-57069500D01*
X37202123Y-57069501D01*
X37142516Y-57075908D01*
X37007671Y-57126202D01*
X37007669Y-57126203D01*
X36904311Y-57203578D01*
X36838847Y-57227995D01*
X36770574Y-57213144D01*
X36755689Y-57203578D01*
X36652330Y-57126203D01*
X36652328Y-57126202D01*
X36517482Y-57075908D01*
X36517483Y-57075908D01*
X36457883Y-57069501D01*
X36457881Y-57069500D01*
X36457873Y-57069500D01*
X36457865Y-57069500D01*
X36384500Y-57069500D01*
X36317461Y-57049815D01*
X36271706Y-56997011D01*
X36260500Y-56945500D01*
X36260500Y-55599500D01*
X36280185Y-55532461D01*
X36332989Y-55486706D01*
X36384500Y-55475500D01*
X44500552Y-55475500D01*
X44504297Y-55475613D01*
X44511642Y-55476057D01*
X44566206Y-55479358D01*
X44603914Y-55472447D01*
X44627221Y-55468177D01*
X44630925Y-55467613D01*
X44648770Y-55465446D01*
X44692472Y-55460140D01*
X44701935Y-55456550D01*
X44723561Y-55450522D01*
X44724493Y-55450351D01*
X44733532Y-55448695D01*
X44790112Y-55423229D01*
X44793542Y-55421809D01*
X44851530Y-55399818D01*
X44859866Y-55394062D01*
X44879421Y-55383034D01*
X44888657Y-55378878D01*
X44937496Y-55340613D01*
X44940476Y-55338421D01*
X44991529Y-55303183D01*
X45032665Y-55256748D01*
X45035199Y-55254056D01*
X45700917Y-54588339D01*
X45762241Y-54554854D01*
X45788599Y-54552020D01*
X45978693Y-54552020D01*
X45978696Y-54552020D01*
X46049276Y-54545606D01*
X46211686Y-54494998D01*
X46357265Y-54406992D01*
X46398340Y-54365917D01*
X46459399Y-54304859D01*
X46520722Y-54271374D01*
X46590414Y-54276358D01*
X46634761Y-54304859D01*
X46736891Y-54406989D01*
X46736893Y-54406990D01*
X46736895Y-54406992D01*
X46882474Y-54494998D01*
X47044884Y-54545606D01*
X47115464Y-54552020D01*
X47115467Y-54552020D01*
X47628693Y-54552020D01*
X47628696Y-54552020D01*
X47699276Y-54545606D01*
X47861686Y-54494998D01*
X48007265Y-54406992D01*
X48127552Y-54286705D01*
X48215558Y-54141126D01*
X48266166Y-53978716D01*
X48272580Y-53908136D01*
X48272580Y-53463999D01*
X48292265Y-53396961D01*
X48345069Y-53351206D01*
X48396580Y-53340000D01*
X49530000Y-53340000D01*
X49530000Y-52194000D01*
X49549685Y-52126961D01*
X49602489Y-52081206D01*
X49654000Y-52070000D01*
X57254611Y-52070000D01*
X57321650Y-52089685D01*
G37*
%TD.AperFunction*%
%TA.AperFunction,Conductor*%
G36*
X44456845Y-53359685D02*
G01*
X44473805Y-53374098D01*
X44474305Y-53373544D01*
X44479135Y-53377893D01*
X44622843Y-53482303D01*
X44665509Y-53537633D01*
X44671488Y-53607246D01*
X44638883Y-53669041D01*
X44637639Y-53670302D01*
X44269762Y-54038181D01*
X44208439Y-54071666D01*
X44182081Y-54074500D01*
X41282715Y-54074500D01*
X41215676Y-54054815D01*
X41169921Y-54002011D01*
X41159224Y-53939278D01*
X41161875Y-53910111D01*
X41161875Y-53464000D01*
X41181560Y-53396961D01*
X41234364Y-53351206D01*
X41285875Y-53340000D01*
X44389806Y-53340000D01*
X44456845Y-53359685D01*
G37*
%TD.AperFunction*%
%TD*%
%TA.AperFunction,Conductor*%
%TO.N,/Single_Phase2/OUTPUT*%
G36*
X60902539Y-42564685D02*
G01*
X60948294Y-42617489D01*
X60959500Y-42669000D01*
X60959500Y-51311000D01*
X60939815Y-51378039D01*
X60887011Y-51423794D01*
X60835500Y-51435000D01*
X52337730Y-51435000D01*
X52270691Y-51415315D01*
X52250049Y-51398681D01*
X52221819Y-51370451D01*
X52188334Y-51309128D01*
X52185500Y-51282770D01*
X52185500Y-50148581D01*
X52186808Y-50130628D01*
X52190289Y-50106867D01*
X52185735Y-50054821D01*
X52185500Y-50049418D01*
X52185500Y-50041186D01*
X52185500Y-50041181D01*
X52181795Y-50009492D01*
X52181618Y-50007766D01*
X52174999Y-49932093D01*
X52174999Y-49932091D01*
X52173539Y-49925019D01*
X52173597Y-49925006D01*
X52171965Y-49917647D01*
X52171906Y-49917662D01*
X52170241Y-49910641D01*
X52170241Y-49910635D01*
X52144267Y-49839272D01*
X52143691Y-49837613D01*
X52121029Y-49769224D01*
X52119814Y-49765556D01*
X52119810Y-49765549D01*
X52116760Y-49759008D01*
X52116815Y-49758982D01*
X52113531Y-49752199D01*
X52113478Y-49752227D01*
X52110239Y-49745780D01*
X52110237Y-49745773D01*
X52090400Y-49715612D01*
X52070007Y-49648785D01*
X52070000Y-49647473D01*
X52070000Y-47472500D01*
X52089685Y-47405461D01*
X52142489Y-47359706D01*
X52194000Y-47348500D01*
X52421806Y-47348500D01*
X52602194Y-47348500D01*
X52928695Y-47348500D01*
X52992844Y-47366382D01*
X53029394Y-47388478D01*
X53191804Y-47439086D01*
X53262384Y-47445500D01*
X53262387Y-47445500D01*
X53925613Y-47445500D01*
X53925616Y-47445500D01*
X53996196Y-47439086D01*
X54158606Y-47388478D01*
X54304185Y-47300472D01*
X54424472Y-47180185D01*
X54512478Y-47034606D01*
X54563086Y-46872196D01*
X54569500Y-46801616D01*
X54569500Y-46288384D01*
X54563086Y-46217804D01*
X54512478Y-46055394D01*
X54424472Y-45909815D01*
X54424470Y-45909813D01*
X54424469Y-45909811D01*
X54322339Y-45807681D01*
X54288854Y-45746358D01*
X54293838Y-45676666D01*
X54322339Y-45632319D01*
X54424468Y-45530189D01*
X54424469Y-45530188D01*
X54424469Y-45530187D01*
X54424472Y-45530185D01*
X54512478Y-45384606D01*
X54563086Y-45222196D01*
X54569500Y-45151616D01*
X54569500Y-44638384D01*
X54563086Y-44567804D01*
X54512478Y-44405394D01*
X54424472Y-44259815D01*
X54424470Y-44259813D01*
X54424469Y-44259811D01*
X54304188Y-44139530D01*
X54284334Y-44127528D01*
X54158606Y-44051522D01*
X53996196Y-44000914D01*
X53996194Y-44000913D01*
X53996192Y-44000913D01*
X53946778Y-43996423D01*
X53925616Y-43994500D01*
X53262384Y-43994500D01*
X53243145Y-43996248D01*
X53191807Y-44000913D01*
X53029393Y-44051522D01*
X52959575Y-44093729D01*
X52905171Y-44126617D01*
X52841023Y-44144500D01*
X52830827Y-44144500D01*
X52766676Y-44126616D01*
X52635349Y-44047225D01*
X52588162Y-43995697D01*
X52575500Y-43941109D01*
X52575500Y-42669000D01*
X52595185Y-42601961D01*
X52647989Y-42556206D01*
X52699500Y-42545000D01*
X60835500Y-42545000D01*
X60902539Y-42564685D01*
G37*
%TD.AperFunction*%
%TD*%
%TA.AperFunction,Conductor*%
%TO.N,/Single_Phase1/OUTPUT_PRE_S*%
G36*
X44393039Y-33674685D02*
G01*
X44438794Y-33727489D01*
X44450000Y-33779000D01*
X44450000Y-39951862D01*
X44430315Y-40018901D01*
X44418150Y-40034834D01*
X44352470Y-40107778D01*
X44352465Y-40107785D01*
X44257821Y-40271715D01*
X44257818Y-40271722D01*
X44211974Y-40412817D01*
X44199326Y-40451744D01*
X44191210Y-40528963D01*
X44164627Y-40593576D01*
X44107329Y-40633561D01*
X44067890Y-40640000D01*
X43015858Y-40640000D01*
X42948819Y-40620315D01*
X42928176Y-40603680D01*
X42875931Y-40551434D01*
X42875930Y-40551433D01*
X42730348Y-40463425D01*
X42695702Y-40452629D01*
X42567938Y-40412817D01*
X42567936Y-40412816D01*
X42567934Y-40412816D01*
X42518520Y-40408326D01*
X42497358Y-40406403D01*
X41984126Y-40406403D01*
X41964886Y-40408151D01*
X41913549Y-40412816D01*
X41751135Y-40463425D01*
X41605553Y-40551433D01*
X41605552Y-40551434D01*
X41553308Y-40603680D01*
X41491985Y-40637166D01*
X41465626Y-40640000D01*
X36890194Y-40640000D01*
X36823155Y-40620315D01*
X36806194Y-40605901D01*
X36805695Y-40606456D01*
X36800868Y-40602109D01*
X36767097Y-40577573D01*
X36724432Y-40522243D01*
X36718453Y-40452629D01*
X36751059Y-40390834D01*
X36774882Y-40371719D01*
X36878656Y-40307712D01*
X37002712Y-40183656D01*
X37094814Y-40034334D01*
X37149999Y-39867797D01*
X37160500Y-39765009D01*
X37160499Y-38964992D01*
X37149999Y-38862203D01*
X37094814Y-38695666D01*
X37002712Y-38546344D01*
X36878656Y-38422288D01*
X36878655Y-38422287D01*
X36729906Y-38330539D01*
X36683181Y-38278591D01*
X36671958Y-38209629D01*
X36699801Y-38145546D01*
X36729906Y-38119461D01*
X36878656Y-38027712D01*
X37002712Y-37903656D01*
X37094814Y-37754334D01*
X37149999Y-37587797D01*
X37160500Y-37485009D01*
X37160499Y-36684992D01*
X37149999Y-36582203D01*
X37094814Y-36415666D01*
X37002712Y-36266344D01*
X36878656Y-36142288D01*
X36729334Y-36050186D01*
X36562797Y-35995001D01*
X36562795Y-35995000D01*
X36460010Y-35984500D01*
X34659998Y-35984500D01*
X34659981Y-35984501D01*
X34557203Y-35995000D01*
X34557200Y-35995001D01*
X34453004Y-36029529D01*
X34383176Y-36031931D01*
X34323134Y-35996199D01*
X34291941Y-35933679D01*
X34290000Y-35911823D01*
X34290000Y-33779000D01*
X34309685Y-33711961D01*
X34362489Y-33666206D01*
X34414000Y-33655000D01*
X44326000Y-33655000D01*
X44393039Y-33674685D01*
G37*
%TD.AperFunction*%
%TD*%
%TA.AperFunction,Conductor*%
%TO.N,GND*%
G36*
X44393039Y-28025185D02*
G01*
X44438794Y-28077989D01*
X44450000Y-28129499D01*
X44450000Y-29210000D01*
X45547638Y-29210000D01*
X45553236Y-29210253D01*
X45561750Y-29211027D01*
X45561752Y-29211027D01*
X46074980Y-29211027D01*
X46074982Y-29211027D01*
X46083495Y-29210253D01*
X46089094Y-29210000D01*
X47197638Y-29210000D01*
X47203236Y-29210253D01*
X47211750Y-29211027D01*
X47211752Y-29211027D01*
X47724980Y-29211027D01*
X47724982Y-29211027D01*
X47733495Y-29210253D01*
X47739094Y-29210000D01*
X51946000Y-29210000D01*
X52013039Y-29229685D01*
X52058794Y-29282489D01*
X52070000Y-29334000D01*
X52069999Y-32966862D01*
X52050314Y-33033901D01*
X52038150Y-33049833D01*
X51972470Y-33122778D01*
X51972465Y-33122785D01*
X51877821Y-33286714D01*
X51877820Y-33286718D01*
X51856510Y-33352299D01*
X51826262Y-33401658D01*
X51708742Y-33519180D01*
X51647419Y-33552666D01*
X51621060Y-33555500D01*
X51359298Y-33555500D01*
X51322432Y-33558401D01*
X51322426Y-33558402D01*
X51164606Y-33604254D01*
X51164598Y-33604257D01*
X51160218Y-33606848D01*
X51117691Y-33617635D01*
X51104823Y-33637422D01*
X51087254Y-33649999D01*
X51023138Y-33687916D01*
X51023129Y-33687923D01*
X50906923Y-33804129D01*
X50906914Y-33804140D01*
X50906729Y-33804455D01*
X50906519Y-33804650D01*
X50902139Y-33810298D01*
X50901227Y-33809591D01*
X50855657Y-33852136D01*
X50786915Y-33864637D01*
X50722327Y-33837988D01*
X50698143Y-33810078D01*
X50697861Y-33810298D01*
X50693823Y-33805092D01*
X50693271Y-33804455D01*
X50693085Y-33804140D01*
X50693076Y-33804129D01*
X50588128Y-33699181D01*
X50554643Y-33637858D01*
X50559627Y-33568166D01*
X50601499Y-33512233D01*
X50666963Y-33487816D01*
X50675809Y-33487500D01*
X50739613Y-33487500D01*
X50739616Y-33487500D01*
X50810196Y-33481086D01*
X50972606Y-33430478D01*
X50972612Y-33430474D01*
X50973238Y-33430193D01*
X50973742Y-33430123D01*
X50979767Y-33428246D01*
X50980079Y-33429247D01*
X51001009Y-33426354D01*
X51006470Y-33415485D01*
X51032946Y-33394000D01*
X51118185Y-33342472D01*
X51238472Y-33222185D01*
X51326478Y-33076606D01*
X51377086Y-32914196D01*
X51383500Y-32843616D01*
X51383500Y-32180384D01*
X51377086Y-32109804D01*
X51326478Y-31947394D01*
X51308000Y-31916827D01*
X51301383Y-31905881D01*
X51283500Y-31841732D01*
X51283500Y-31342807D01*
X51283500Y-31342806D01*
X51274207Y-31302093D01*
X51273042Y-31295233D01*
X51268368Y-31253745D01*
X51264210Y-31241862D01*
X51254576Y-31214328D01*
X51252653Y-31207655D01*
X51243360Y-31166939D01*
X51232872Y-31145161D01*
X51225239Y-31129310D01*
X51222576Y-31122881D01*
X51208789Y-31083478D01*
X51208787Y-31083475D01*
X51208787Y-31083474D01*
X51203233Y-31074637D01*
X51186569Y-31048116D01*
X51183218Y-31042054D01*
X51165092Y-31004413D01*
X51139048Y-30971755D01*
X51135032Y-30966095D01*
X51112816Y-30930738D01*
X51043736Y-30861658D01*
X51013486Y-30812294D01*
X50992179Y-30746716D01*
X50992177Y-30746712D01*
X50897534Y-30582785D01*
X50770870Y-30442111D01*
X50617734Y-30330851D01*
X50617729Y-30330848D01*
X50444807Y-30253857D01*
X50444802Y-30253855D01*
X50299000Y-30222865D01*
X50259646Y-30214500D01*
X50070354Y-30214500D01*
X50037897Y-30221398D01*
X49885197Y-30253855D01*
X49885192Y-30253857D01*
X49712270Y-30330848D01*
X49712265Y-30330851D01*
X49559129Y-30442111D01*
X49432466Y-30582785D01*
X49337821Y-30746715D01*
X49337816Y-30746725D01*
X49316510Y-30812298D01*
X49286261Y-30861659D01*
X49105877Y-31042044D01*
X48582738Y-31565183D01*
X48582738Y-31565184D01*
X48502380Y-31645539D01*
X48478854Y-31663972D01*
X48449814Y-31681528D01*
X48347680Y-31783662D01*
X48286357Y-31817146D01*
X48216665Y-31812162D01*
X48172319Y-31783662D01*
X48070185Y-31681528D01*
X47924606Y-31593522D01*
X47762196Y-31542914D01*
X47762194Y-31542913D01*
X47762192Y-31542913D01*
X47712778Y-31538423D01*
X47691616Y-31536500D01*
X47178384Y-31536500D01*
X47159145Y-31538248D01*
X47107807Y-31542913D01*
X46945393Y-31593522D01*
X46799811Y-31681530D01*
X46679530Y-31801811D01*
X46591522Y-31947393D01*
X46540913Y-32109807D01*
X46534500Y-32180386D01*
X46534500Y-32843613D01*
X46540913Y-32914192D01*
X46540913Y-32914194D01*
X46540914Y-32914196D01*
X46591522Y-33076606D01*
X46656370Y-33183878D01*
X46679530Y-33222188D01*
X46799811Y-33342469D01*
X46799813Y-33342470D01*
X46799815Y-33342472D01*
X46945394Y-33430478D01*
X47107804Y-33481086D01*
X47178384Y-33487500D01*
X47227060Y-33487500D01*
X47294099Y-33507185D01*
X47314741Y-33523819D01*
X48504241Y-34713319D01*
X48537726Y-34774642D01*
X48532742Y-34844334D01*
X48490870Y-34900267D01*
X48425406Y-34924684D01*
X48416560Y-34925000D01*
X45209000Y-34925000D01*
X45141961Y-34905315D01*
X45096206Y-34852511D01*
X45085000Y-34801000D01*
X45085000Y-33020000D01*
X37727491Y-33020000D01*
X37660452Y-33000315D01*
X37620104Y-32958000D01*
X37569787Y-32870849D01*
X37562533Y-32858284D01*
X37435871Y-32717612D01*
X37421535Y-32707196D01*
X37282734Y-32606351D01*
X37282729Y-32606348D01*
X37109807Y-32529357D01*
X37109802Y-32529355D01*
X36964001Y-32498365D01*
X36924646Y-32490000D01*
X36735354Y-32490000D01*
X36702897Y-32496898D01*
X36550197Y-32529355D01*
X36550192Y-32529357D01*
X36377270Y-32606348D01*
X36377265Y-32606351D01*
X36224129Y-32717611D01*
X36097466Y-32858285D01*
X36039896Y-32958000D01*
X35989329Y-33006215D01*
X35932509Y-33020000D01*
X34414000Y-33020000D01*
X34346961Y-33000315D01*
X34301206Y-32947511D01*
X34290000Y-32896000D01*
X34290000Y-32792018D01*
X34309685Y-32724979D01*
X34326315Y-32704341D01*
X37589839Y-29440816D01*
X37651162Y-29407332D01*
X37677520Y-29404498D01*
X39191949Y-29404498D01*
X39258988Y-29424183D01*
X39279630Y-29440817D01*
X39373320Y-29534507D01*
X39375875Y-29537222D01*
X39417008Y-29583651D01*
X39417010Y-29583653D01*
X39468072Y-29618898D01*
X39471076Y-29621109D01*
X39519878Y-29659345D01*
X39519881Y-29659346D01*
X39519882Y-29659347D01*
X39529113Y-29663501D01*
X39548667Y-29674530D01*
X39557009Y-29680288D01*
X39614983Y-29702274D01*
X39614996Y-29702279D01*
X39618447Y-29703708D01*
X39648032Y-29717023D01*
X39675002Y-29729162D01*
X39675003Y-29729162D01*
X39675007Y-29729164D01*
X39684969Y-29730989D01*
X39706590Y-29737016D01*
X39706606Y-29737022D01*
X39716067Y-29740610D01*
X39732810Y-29742643D01*
X39777628Y-29748085D01*
X39781325Y-29748647D01*
X39842333Y-29759827D01*
X39842334Y-29759826D01*
X39842335Y-29759827D01*
X39904231Y-29756083D01*
X39907975Y-29755970D01*
X40758947Y-29755970D01*
X40762692Y-29756083D01*
X40770037Y-29756527D01*
X40824601Y-29759828D01*
X40862309Y-29752917D01*
X40885616Y-29748647D01*
X40889320Y-29748083D01*
X40907165Y-29745916D01*
X40950867Y-29740610D01*
X40960330Y-29737020D01*
X40981956Y-29730992D01*
X40982888Y-29730821D01*
X40991927Y-29729165D01*
X41048507Y-29703699D01*
X41051937Y-29702279D01*
X41109925Y-29680288D01*
X41118261Y-29674532D01*
X41137816Y-29663504D01*
X41147052Y-29659348D01*
X41195891Y-29621083D01*
X41198871Y-29618891D01*
X41249924Y-29583653D01*
X41291075Y-29537200D01*
X41293595Y-29534524D01*
X41612508Y-29215611D01*
X41615219Y-29213060D01*
X41624754Y-29204613D01*
X41661650Y-29171927D01*
X41696890Y-29120870D01*
X41699097Y-29117871D01*
X41737344Y-29069055D01*
X41741496Y-29059826D01*
X41752529Y-29040266D01*
X41752886Y-29039748D01*
X41758285Y-29031928D01*
X41780279Y-28973931D01*
X41781698Y-28970503D01*
X41807161Y-28913930D01*
X41808987Y-28903963D01*
X41815015Y-28882338D01*
X41818607Y-28872870D01*
X41826082Y-28811307D01*
X41826646Y-28807603D01*
X41830923Y-28784256D01*
X41837824Y-28746604D01*
X41834080Y-28684705D01*
X41833967Y-28680961D01*
X41833967Y-28129500D01*
X41853652Y-28062461D01*
X41906456Y-28016706D01*
X41957967Y-28005500D01*
X44326000Y-28005500D01*
X44393039Y-28025185D01*
G37*
%TD.AperFunction*%
%TD*%
%TA.AperFunction,Conductor*%
%TO.N,/Single_Phase2/OUTPUT_PRE_S*%
G36*
X44393039Y-45739685D02*
G01*
X44438794Y-45792489D01*
X44450000Y-45844000D01*
X44450000Y-52016862D01*
X44430315Y-52083901D01*
X44418150Y-52099834D01*
X44352470Y-52172778D01*
X44352465Y-52172785D01*
X44257821Y-52336715D01*
X44257818Y-52336722D01*
X44206937Y-52493319D01*
X44199326Y-52516744D01*
X44191210Y-52593963D01*
X44164627Y-52658576D01*
X44107329Y-52698561D01*
X44067890Y-52705000D01*
X42509960Y-52705000D01*
X42445811Y-52687117D01*
X42400983Y-52660018D01*
X42400982Y-52660017D01*
X42400981Y-52660017D01*
X42238571Y-52609409D01*
X42238569Y-52609408D01*
X42238567Y-52609408D01*
X42189153Y-52604918D01*
X42167991Y-52602995D01*
X41654759Y-52602995D01*
X41635520Y-52604743D01*
X41584182Y-52609408D01*
X41584178Y-52609409D01*
X41584179Y-52609409D01*
X41426394Y-52658576D01*
X41421766Y-52660018D01*
X41376939Y-52687117D01*
X41312790Y-52705000D01*
X36965730Y-52705000D01*
X36898691Y-52685315D01*
X36852936Y-52632511D01*
X36842992Y-52563353D01*
X36872017Y-52499797D01*
X36878049Y-52493319D01*
X36911861Y-52459507D01*
X37002712Y-52368656D01*
X37094814Y-52219334D01*
X37149999Y-52052797D01*
X37160500Y-51950009D01*
X37160499Y-51149992D01*
X37149999Y-51047203D01*
X37094814Y-50880666D01*
X37002712Y-50731344D01*
X36878656Y-50607288D01*
X36878656Y-50607287D01*
X36878655Y-50607287D01*
X36729906Y-50515539D01*
X36683181Y-50463591D01*
X36671958Y-50394629D01*
X36699801Y-50330546D01*
X36729906Y-50304461D01*
X36878656Y-50212712D01*
X37002712Y-50088656D01*
X37094814Y-49939334D01*
X37149999Y-49772797D01*
X37160500Y-49670009D01*
X37160499Y-48869992D01*
X37149999Y-48767203D01*
X37094814Y-48600666D01*
X37002712Y-48451344D01*
X36878656Y-48327288D01*
X36729334Y-48235186D01*
X36562797Y-48180001D01*
X36562795Y-48180000D01*
X36460016Y-48169500D01*
X36460009Y-48169500D01*
X34884500Y-48169500D01*
X34817461Y-48149815D01*
X34771706Y-48097011D01*
X34760500Y-48045500D01*
X34760500Y-45844000D01*
X34780185Y-45776961D01*
X34832989Y-45731206D01*
X34884500Y-45720000D01*
X44326000Y-45720000D01*
X44393039Y-45739685D01*
G37*
%TD.AperFunction*%
%TD*%
%TA.AperFunction,Conductor*%
%TO.N,GND*%
G36*
X39633281Y-41294685D02*
G01*
X39679036Y-41347489D01*
X39690242Y-41399000D01*
X39690242Y-41713516D01*
X39696655Y-41784095D01*
X39696655Y-41784097D01*
X39696656Y-41784099D01*
X39735412Y-41908474D01*
X39747264Y-41946509D01*
X39835272Y-42092091D01*
X39955553Y-42212372D01*
X39955555Y-42212373D01*
X39955557Y-42212375D01*
X40101136Y-42300381D01*
X40263546Y-42350989D01*
X40334126Y-42357403D01*
X40334129Y-42357403D01*
X40847355Y-42357403D01*
X40847358Y-42357403D01*
X40917938Y-42350989D01*
X41080348Y-42300381D01*
X41225927Y-42212375D01*
X41346214Y-42092088D01*
X41434220Y-41946509D01*
X41484828Y-41784099D01*
X41491242Y-41713519D01*
X41491242Y-41398999D01*
X41510927Y-41331961D01*
X41563731Y-41286206D01*
X41615242Y-41275000D01*
X44326000Y-41275000D01*
X44393039Y-41294685D01*
X44438794Y-41347489D01*
X44450000Y-41398999D01*
X44450000Y-42545000D01*
X51946000Y-42545000D01*
X52013039Y-42564685D01*
X52058794Y-42617489D01*
X52070000Y-42669000D01*
X52070000Y-45623500D01*
X52050315Y-45690539D01*
X51997511Y-45736294D01*
X51946000Y-45747500D01*
X51410382Y-45747500D01*
X51343343Y-45727815D01*
X51297588Y-45675011D01*
X51287644Y-45605853D01*
X51304265Y-45559350D01*
X51326478Y-45522606D01*
X51377086Y-45360196D01*
X51383500Y-45289616D01*
X51383500Y-44626384D01*
X51377086Y-44555804D01*
X51326478Y-44393394D01*
X51308000Y-44362827D01*
X51301383Y-44351881D01*
X51283500Y-44287732D01*
X51283500Y-44042807D01*
X51283500Y-44042806D01*
X51274207Y-44002093D01*
X51273042Y-43995233D01*
X51268368Y-43953745D01*
X51264210Y-43941862D01*
X51254576Y-43914328D01*
X51252653Y-43907655D01*
X51243360Y-43866939D01*
X51232872Y-43845161D01*
X51225239Y-43829310D01*
X51222576Y-43822881D01*
X51208789Y-43783478D01*
X51208787Y-43783475D01*
X51208787Y-43783474D01*
X51195494Y-43762320D01*
X51186569Y-43748116D01*
X51183218Y-43742054D01*
X51165092Y-43704413D01*
X51139048Y-43671755D01*
X51135032Y-43666095D01*
X51112816Y-43630738D01*
X51043736Y-43561658D01*
X51013486Y-43512294D01*
X51008339Y-43496454D01*
X50992179Y-43446716D01*
X50992177Y-43446712D01*
X50897534Y-43282785D01*
X50770870Y-43142111D01*
X50617734Y-43030851D01*
X50617729Y-43030848D01*
X50444807Y-42953857D01*
X50444802Y-42953855D01*
X50299000Y-42922865D01*
X50259646Y-42914500D01*
X50070354Y-42914500D01*
X50037897Y-42921398D01*
X49885197Y-42953855D01*
X49885192Y-42953857D01*
X49712270Y-43030848D01*
X49712265Y-43030851D01*
X49559129Y-43142111D01*
X49432466Y-43282785D01*
X49337821Y-43446715D01*
X49337816Y-43446725D01*
X49316510Y-43512298D01*
X49286261Y-43561659D01*
X48900870Y-43947051D01*
X48839547Y-43980536D01*
X48824412Y-43982860D01*
X48757804Y-43988914D01*
X48649530Y-44022652D01*
X48595393Y-44039522D01*
X48449811Y-44127530D01*
X48449810Y-44127531D01*
X48347681Y-44229661D01*
X48286358Y-44263146D01*
X48216666Y-44258162D01*
X48172319Y-44229661D01*
X48070188Y-44127530D01*
X47924606Y-44039522D01*
X47804496Y-44002095D01*
X47762196Y-43988914D01*
X47762194Y-43988913D01*
X47762192Y-43988913D01*
X47712778Y-43984423D01*
X47691616Y-43982500D01*
X47178384Y-43982500D01*
X47159145Y-43984248D01*
X47107807Y-43988913D01*
X46945393Y-44039522D01*
X46799811Y-44127530D01*
X46679530Y-44247811D01*
X46591522Y-44393393D01*
X46540913Y-44555807D01*
X46534500Y-44626386D01*
X46534500Y-45289613D01*
X46540913Y-45360192D01*
X46591522Y-45522606D01*
X46679530Y-45668188D01*
X46799811Y-45788469D01*
X46799813Y-45788470D01*
X46799815Y-45788472D01*
X46945394Y-45876478D01*
X47107804Y-45927086D01*
X47178384Y-45933500D01*
X47360720Y-45933500D01*
X47427759Y-45953185D01*
X47448401Y-45969819D01*
X48256901Y-46778319D01*
X48290386Y-46839642D01*
X48285402Y-46909334D01*
X48243530Y-46965267D01*
X48178066Y-46989684D01*
X48169220Y-46990000D01*
X45209000Y-46990000D01*
X45141961Y-46970315D01*
X45096206Y-46917511D01*
X45085000Y-46866000D01*
X45085000Y-45085000D01*
X37845376Y-45085000D01*
X37778337Y-45065315D01*
X37732582Y-45012511D01*
X37722055Y-44948039D01*
X37735460Y-44820500D01*
X37715674Y-44632244D01*
X37657179Y-44452216D01*
X37562533Y-44288284D01*
X37435871Y-44147612D01*
X37408232Y-44127531D01*
X37282734Y-44036351D01*
X37282729Y-44036348D01*
X37109807Y-43959357D01*
X37109802Y-43959355D01*
X36964000Y-43928365D01*
X36924646Y-43920000D01*
X36735354Y-43920000D01*
X36702897Y-43926898D01*
X36550197Y-43959355D01*
X36550192Y-43959357D01*
X36377270Y-44036348D01*
X36377265Y-44036351D01*
X36224129Y-44147611D01*
X36097466Y-44288285D01*
X36002821Y-44452215D01*
X36002818Y-44452222D01*
X35946230Y-44626384D01*
X35944326Y-44632244D01*
X35924540Y-44820499D01*
X35924540Y-44820500D01*
X35937945Y-44948039D01*
X35925375Y-45016768D01*
X35877643Y-45067792D01*
X35814624Y-45085000D01*
X34884500Y-45085000D01*
X34817461Y-45065315D01*
X34771706Y-45012511D01*
X34760500Y-44961000D01*
X34760500Y-44046799D01*
X34780185Y-43979760D01*
X34796819Y-43959118D01*
X34812270Y-43943667D01*
X34873593Y-43910182D01*
X34899951Y-43907348D01*
X34961333Y-43907348D01*
X34961336Y-43907348D01*
X35031916Y-43900934D01*
X35194326Y-43850326D01*
X35339905Y-43762320D01*
X35460192Y-43642033D01*
X35548198Y-43496454D01*
X35598806Y-43334044D01*
X35605220Y-43263464D01*
X35605220Y-43214787D01*
X35624905Y-43147749D01*
X35641539Y-43127107D01*
X36203961Y-42564685D01*
X36792826Y-41975820D01*
X36792826Y-41975819D01*
X36824816Y-41943830D01*
X36847037Y-41908463D01*
X36851052Y-41902804D01*
X36877091Y-41870155D01*
X36877093Y-41870149D01*
X36880799Y-41864254D01*
X36881125Y-41864458D01*
X36896124Y-41842097D01*
X36927533Y-41807216D01*
X37022179Y-41643284D01*
X37080674Y-41463256D01*
X37088789Y-41386036D01*
X37115373Y-41321424D01*
X37172671Y-41281439D01*
X37212110Y-41275000D01*
X39566242Y-41275000D01*
X39633281Y-41294685D01*
G37*
%TD.AperFunction*%
%TD*%
%TA.AperFunction,Conductor*%
%TO.N,GND*%
G36*
X55881279Y-12700552D02*
G01*
X56097547Y-12709497D01*
X56302732Y-12718456D01*
X56307654Y-12718870D01*
X56525758Y-12746057D01*
X56730849Y-12773058D01*
X56735420Y-12773837D01*
X56950328Y-12818898D01*
X57152714Y-12863766D01*
X57156969Y-12864869D01*
X57367452Y-12927533D01*
X57565378Y-12989939D01*
X57569180Y-12991277D01*
X57773348Y-13070944D01*
X57774453Y-13071388D01*
X57910777Y-13127856D01*
X57965763Y-13150632D01*
X57969246Y-13152202D01*
X58166123Y-13248450D01*
X58167341Y-13249064D01*
X58297930Y-13317045D01*
X58351061Y-13344704D01*
X58354170Y-13346437D01*
X58542329Y-13458555D01*
X58543839Y-13459485D01*
X58718522Y-13570771D01*
X58721212Y-13572586D01*
X58899439Y-13699838D01*
X58901155Y-13701109D01*
X59065405Y-13827142D01*
X59067733Y-13829019D01*
X59234843Y-13970554D01*
X59236648Y-13972143D01*
X59389339Y-14112059D01*
X59391255Y-14113893D01*
X59546104Y-14268742D01*
X59547952Y-14270673D01*
X59687844Y-14423338D01*
X59689444Y-14425155D01*
X59830979Y-14592265D01*
X59832856Y-14594593D01*
X59958889Y-14758843D01*
X59960160Y-14760559D01*
X60087412Y-14938786D01*
X60089239Y-14941494D01*
X60200490Y-15116123D01*
X60201443Y-15117669D01*
X60313561Y-15305828D01*
X60315294Y-15308937D01*
X60410896Y-15492583D01*
X60411582Y-15493942D01*
X60437400Y-15546754D01*
X60507786Y-15690731D01*
X60509366Y-15694235D01*
X60588596Y-15885512D01*
X60589074Y-15886701D01*
X60621194Y-15969017D01*
X60668708Y-16090785D01*
X60670072Y-16094657D01*
X60732463Y-16292540D01*
X60795124Y-16503013D01*
X60796232Y-16507286D01*
X60841103Y-16709682D01*
X60886157Y-16924559D01*
X60886947Y-16929192D01*
X60913943Y-17134252D01*
X60941126Y-17352322D01*
X60941543Y-17357288D01*
X60950518Y-17562843D01*
X60959447Y-17778718D01*
X60959500Y-17781280D01*
X60959500Y-20831000D01*
X60939815Y-20898039D01*
X60887011Y-20943794D01*
X60835500Y-20955000D01*
X53400194Y-20955000D01*
X53333155Y-20935315D01*
X53316194Y-20920901D01*
X53315695Y-20921456D01*
X53310864Y-20917106D01*
X53157736Y-20805852D01*
X53157731Y-20805849D01*
X53157730Y-20805849D01*
X53104796Y-20782281D01*
X53051563Y-20737033D01*
X53048529Y-20732165D01*
X52968081Y-20596135D01*
X52968076Y-20596129D01*
X52851870Y-20479923D01*
X52851862Y-20479917D01*
X52710396Y-20396255D01*
X52710393Y-20396254D01*
X52552573Y-20350402D01*
X52552567Y-20350401D01*
X52515701Y-20347500D01*
X52515694Y-20347500D01*
X51410382Y-20347500D01*
X51343343Y-20327815D01*
X51297588Y-20275011D01*
X51287644Y-20205853D01*
X51304265Y-20159350D01*
X51326478Y-20122606D01*
X51377086Y-19960196D01*
X51383500Y-19889616D01*
X51383500Y-19226384D01*
X51377086Y-19155804D01*
X51326478Y-18993394D01*
X51308000Y-18962827D01*
X51301383Y-18951881D01*
X51283500Y-18887732D01*
X51283500Y-18642807D01*
X51283500Y-18642806D01*
X51274207Y-18602093D01*
X51273042Y-18595233D01*
X51268368Y-18553745D01*
X51264210Y-18541862D01*
X51254576Y-18514328D01*
X51252653Y-18507655D01*
X51243360Y-18466939D01*
X51232872Y-18445161D01*
X51225239Y-18429310D01*
X51222576Y-18422881D01*
X51208789Y-18383478D01*
X51208787Y-18383475D01*
X51208787Y-18383474D01*
X51203233Y-18374637D01*
X51186569Y-18348116D01*
X51183218Y-18342054D01*
X51165092Y-18304413D01*
X51139048Y-18271755D01*
X51135032Y-18266095D01*
X51112816Y-18230738D01*
X51043736Y-18161657D01*
X51013486Y-18112294D01*
X50992179Y-18046716D01*
X50992177Y-18046712D01*
X50897534Y-17882785D01*
X50770870Y-17742111D01*
X50617734Y-17630851D01*
X50617729Y-17630848D01*
X50444807Y-17553857D01*
X50444802Y-17553855D01*
X50299001Y-17522865D01*
X50259646Y-17514500D01*
X50070354Y-17514500D01*
X50037897Y-17521398D01*
X49885197Y-17553855D01*
X49885192Y-17553857D01*
X49712270Y-17630848D01*
X49712265Y-17630851D01*
X49559129Y-17742111D01*
X49432466Y-17882785D01*
X49337821Y-18046715D01*
X49337816Y-18046725D01*
X49316510Y-18112298D01*
X49286261Y-18161659D01*
X48900870Y-18547051D01*
X48839547Y-18580536D01*
X48824412Y-18582860D01*
X48757804Y-18588914D01*
X48649530Y-18622652D01*
X48595393Y-18639522D01*
X48449813Y-18727529D01*
X48347680Y-18829662D01*
X48286357Y-18863146D01*
X48216665Y-18858162D01*
X48172319Y-18829662D01*
X48070185Y-18727528D01*
X47924606Y-18639522D01*
X47762196Y-18588914D01*
X47762194Y-18588913D01*
X47762192Y-18588913D01*
X47712778Y-18584423D01*
X47691616Y-18582500D01*
X47178384Y-18582500D01*
X47159144Y-18584248D01*
X47107807Y-18588913D01*
X46945393Y-18639522D01*
X46799811Y-18727530D01*
X46679530Y-18847811D01*
X46591522Y-18993393D01*
X46540913Y-19155807D01*
X46534500Y-19226386D01*
X46534500Y-19889613D01*
X46540913Y-19960192D01*
X46591522Y-20122606D01*
X46679530Y-20268188D01*
X46799811Y-20388469D01*
X46799813Y-20388470D01*
X46799815Y-20388472D01*
X46945394Y-20476478D01*
X47107804Y-20527086D01*
X47178384Y-20533500D01*
X47290060Y-20533500D01*
X47357099Y-20553185D01*
X47377741Y-20569819D01*
X47551241Y-20743319D01*
X47584726Y-20804642D01*
X47579742Y-20874334D01*
X47537870Y-20930267D01*
X47472406Y-20954684D01*
X47463560Y-20955000D01*
X45209000Y-20955000D01*
X45141961Y-20935315D01*
X45096206Y-20882511D01*
X45085000Y-20831000D01*
X45085000Y-19685000D01*
X37589000Y-19685000D01*
X37521961Y-19665315D01*
X37476206Y-19612511D01*
X37465000Y-19561000D01*
X37465000Y-12824500D01*
X37484685Y-12757461D01*
X37537489Y-12711706D01*
X37589000Y-12700500D01*
X55878720Y-12700500D01*
X55881279Y-12700552D01*
G37*
%TD.AperFunction*%
%TD*%
%TA.AperFunction,Conductor*%
%TO.N,GND*%
G36*
X23948600Y-50080185D02*
G01*
X23994355Y-50132989D01*
X24005561Y-50184500D01*
X24005561Y-51874446D01*
X23985876Y-51941485D01*
X23969242Y-51962127D01*
X23933234Y-51998134D01*
X23933231Y-51998137D01*
X23925968Y-52010153D01*
X23874439Y-52057339D01*
X23819853Y-52070000D01*
X23557586Y-52070000D01*
X23490547Y-52050315D01*
X23444792Y-51997511D01*
X23434848Y-51928353D01*
X23450854Y-51882879D01*
X23455841Y-51874446D01*
X23487805Y-51820398D01*
X23533659Y-51662569D01*
X23536561Y-51625694D01*
X23536561Y-50184499D01*
X23556246Y-50117461D01*
X23609050Y-50071706D01*
X23660561Y-50060500D01*
X23881561Y-50060500D01*
X23948600Y-50080185D01*
G37*
%TD.AperFunction*%
%TA.AperFunction,Conductor*%
G36*
X24160505Y-38683270D02*
G01*
X24181141Y-38699898D01*
X24336798Y-38855555D01*
X24370281Y-38916875D01*
X24373115Y-38943233D01*
X24373115Y-40845398D01*
X24367501Y-40882287D01*
X24350084Y-40938182D01*
X24329529Y-41004148D01*
X24324240Y-41062355D01*
X24323115Y-41074730D01*
X24323115Y-41737957D01*
X24329528Y-41808536D01*
X24329528Y-41808538D01*
X24329529Y-41808540D01*
X24357906Y-41899606D01*
X24380137Y-41970950D01*
X24468145Y-42116532D01*
X24588426Y-42236813D01*
X24588428Y-42236814D01*
X24588430Y-42236816D01*
X24734009Y-42324822D01*
X24896419Y-42375430D01*
X24896423Y-42375430D01*
X24902683Y-42377381D01*
X24902239Y-42378805D01*
X24957306Y-42407607D01*
X24991884Y-42468321D01*
X24995209Y-42496844D01*
X24995209Y-43110182D01*
X24975524Y-43177221D01*
X24958890Y-43197863D01*
X24285966Y-43870786D01*
X24283240Y-43873353D01*
X24236818Y-43914479D01*
X24201586Y-43965520D01*
X24199368Y-43968535D01*
X24161124Y-44017350D01*
X24161119Y-44017359D01*
X24156960Y-44026599D01*
X24145942Y-44046134D01*
X24140187Y-44054472D01*
X24140183Y-44054478D01*
X24140182Y-44054481D01*
X24140180Y-44054485D01*
X24140179Y-44054488D01*
X24118189Y-44112466D01*
X24116757Y-44115924D01*
X24091305Y-44172479D01*
X24089477Y-44182453D01*
X24083453Y-44204064D01*
X24079861Y-44213536D01*
X24079459Y-44215168D01*
X24078837Y-44216235D01*
X24077201Y-44220551D01*
X24076483Y-44220278D01*
X24044306Y-44275550D01*
X23982089Y-44307343D01*
X23959060Y-44309500D01*
X23816841Y-44309500D01*
X23749802Y-44289815D01*
X23704047Y-44237011D01*
X23694103Y-44167853D01*
X23698910Y-44147182D01*
X23720181Y-44081716D01*
X23745674Y-44003256D01*
X23765460Y-43815000D01*
X23745674Y-43626744D01*
X23687179Y-43446716D01*
X23592533Y-43282784D01*
X23465871Y-43142112D01*
X23465870Y-43142111D01*
X23312734Y-43030851D01*
X23312729Y-43030848D01*
X23139805Y-42953856D01*
X23139806Y-42953856D01*
X23093768Y-42944070D01*
X23053584Y-42927776D01*
X23038800Y-42918487D01*
X22999389Y-42904696D01*
X22992963Y-42902034D01*
X22955336Y-42883914D01*
X22914620Y-42874620D01*
X22907937Y-42872695D01*
X22868534Y-42858907D01*
X22827038Y-42854230D01*
X22820183Y-42853066D01*
X22779475Y-42843776D01*
X22779471Y-42843775D01*
X22779469Y-42843775D01*
X22779466Y-42843775D01*
X22525611Y-42843775D01*
X22458572Y-42824090D01*
X22449144Y-42817390D01*
X22444571Y-42813808D01*
X22444565Y-42813804D01*
X22444564Y-42813803D01*
X22298985Y-42725797D01*
X22195411Y-42693522D01*
X22137265Y-42654787D01*
X22109290Y-42590762D01*
X22120371Y-42521776D01*
X22144622Y-42487456D01*
X22198375Y-42433703D01*
X22198387Y-42433689D01*
X23384993Y-41247085D01*
X23384993Y-41247084D01*
X23416983Y-41215095D01*
X23439208Y-41179722D01*
X23443206Y-41174088D01*
X23469259Y-41141420D01*
X23487375Y-41103798D01*
X23490742Y-41097707D01*
X23512956Y-41062355D01*
X23526745Y-41022942D01*
X23529402Y-41016528D01*
X23547527Y-40978894D01*
X23556819Y-40938182D01*
X23558740Y-40931509D01*
X23572535Y-40892088D01*
X23577210Y-40850593D01*
X23578375Y-40843738D01*
X23579893Y-40837082D01*
X23587667Y-40803027D01*
X23587667Y-40622639D01*
X23587667Y-39293131D01*
X23587667Y-39293130D01*
X23587667Y-38787585D01*
X23607352Y-38720546D01*
X23660156Y-38674791D01*
X23711667Y-38663585D01*
X24093466Y-38663585D01*
X24160505Y-38683270D01*
G37*
%TD.AperFunction*%
%TA.AperFunction,Conductor*%
G36*
X24262717Y-25983391D02*
G01*
X24283359Y-26000025D01*
X24534062Y-26250728D01*
X24567547Y-26312051D01*
X24570381Y-26338409D01*
X24570381Y-28083430D01*
X24564767Y-28120319D01*
X24526795Y-28242181D01*
X24520381Y-28312762D01*
X24520381Y-28975989D01*
X24526794Y-29046568D01*
X24577403Y-29208982D01*
X24665411Y-29354564D01*
X24785692Y-29474845D01*
X24785694Y-29474846D01*
X24785696Y-29474848D01*
X24917337Y-29554428D01*
X24964524Y-29605955D01*
X24977186Y-29660544D01*
X24977186Y-33133956D01*
X24957501Y-33200995D01*
X24904697Y-33246750D01*
X24835539Y-33256694D01*
X24771983Y-33227669D01*
X24746454Y-33197077D01*
X24725250Y-33161223D01*
X24725243Y-33161214D01*
X24609037Y-33045008D01*
X24609029Y-33045002D01*
X24467563Y-32961340D01*
X24467560Y-32961339D01*
X24309740Y-32915487D01*
X24309734Y-32915486D01*
X24272868Y-32912585D01*
X24272861Y-32912585D01*
X23841473Y-32912585D01*
X23841455Y-32912585D01*
X23815014Y-32914666D01*
X23746638Y-32900300D01*
X23696883Y-32851246D01*
X23681546Y-32783081D01*
X23687359Y-32752730D01*
X23745674Y-32573256D01*
X23765460Y-32385000D01*
X23745674Y-32196744D01*
X23687179Y-32016716D01*
X23592533Y-31852784D01*
X23465871Y-31712112D01*
X23460634Y-31708307D01*
X23312734Y-31600851D01*
X23312729Y-31600848D01*
X23139807Y-31523857D01*
X23139802Y-31523855D01*
X22994001Y-31492865D01*
X22954646Y-31484500D01*
X22954645Y-31484500D01*
X22903628Y-31484500D01*
X22896678Y-31484109D01*
X22894374Y-31483849D01*
X22885662Y-31482866D01*
X22878815Y-31481703D01*
X22838112Y-31472413D01*
X22838107Y-31472413D01*
X22792867Y-31472413D01*
X22517204Y-31472413D01*
X22450165Y-31452728D01*
X22440737Y-31446028D01*
X22436164Y-31442446D01*
X22436158Y-31442442D01*
X22436157Y-31442441D01*
X22290578Y-31354435D01*
X22128168Y-31303827D01*
X22128166Y-31303826D01*
X22128164Y-31303826D01*
X22078750Y-31299336D01*
X22057588Y-31297413D01*
X21544356Y-31297413D01*
X21525117Y-31299161D01*
X21473779Y-31303826D01*
X21311365Y-31354435D01*
X21165783Y-31442443D01*
X21165782Y-31442444D01*
X21063653Y-31544574D01*
X21002330Y-31578059D01*
X20932638Y-31573075D01*
X20888291Y-31544574D01*
X20786160Y-31442443D01*
X20769684Y-31432483D01*
X20640578Y-31354435D01*
X20478168Y-31303827D01*
X20478166Y-31303826D01*
X20478164Y-31303826D01*
X20428750Y-31299336D01*
X20407588Y-31297413D01*
X19894356Y-31297413D01*
X19875117Y-31299161D01*
X19823779Y-31303826D01*
X19661365Y-31354435D01*
X19515783Y-31442443D01*
X19395502Y-31562724D01*
X19307494Y-31708306D01*
X19256885Y-31870720D01*
X19250472Y-31941299D01*
X19250472Y-32604526D01*
X19256885Y-32675105D01*
X19256885Y-32675107D01*
X19256886Y-32675109D01*
X19307494Y-32837519D01*
X19382347Y-32961341D01*
X19395502Y-32983101D01*
X19410346Y-32997944D01*
X19443833Y-33059266D01*
X19446667Y-33085627D01*
X19446667Y-33463585D01*
X19426982Y-33530624D01*
X19374178Y-33576379D01*
X19322667Y-33587585D01*
X19259953Y-33587585D01*
X19079565Y-33587585D01*
X19073647Y-33588935D01*
X19038848Y-33596876D01*
X19031994Y-33598040D01*
X18990503Y-33602717D01*
X18951100Y-33616504D01*
X18944418Y-33618429D01*
X18903698Y-33627724D01*
X18866079Y-33645840D01*
X18859654Y-33648501D01*
X18820242Y-33662293D01*
X18820235Y-33662297D01*
X18784879Y-33684512D01*
X18778792Y-33687876D01*
X18741169Y-33705995D01*
X18708528Y-33732026D01*
X18702855Y-33736051D01*
X18667498Y-33758268D01*
X18618066Y-33807699D01*
X18618065Y-33807700D01*
X18148392Y-34277372D01*
X18087069Y-34310857D01*
X18060712Y-34313691D01*
X17870316Y-34313691D01*
X17870297Y-34313692D01*
X17770945Y-34323841D01*
X17770942Y-34323842D01*
X17609958Y-34377187D01*
X17609953Y-34377189D01*
X17579597Y-34395914D01*
X17512204Y-34414354D01*
X17445541Y-34393431D01*
X17400771Y-34339789D01*
X17390500Y-34290375D01*
X17390500Y-33184310D01*
X17410185Y-33117271D01*
X17426819Y-33096629D01*
X18582151Y-31941297D01*
X19749913Y-30773534D01*
X19811234Y-30740051D01*
X19811364Y-30740022D01*
X19965846Y-30707187D01*
X19965850Y-30707185D01*
X19965851Y-30707185D01*
X20024101Y-30681249D01*
X20138773Y-30630194D01*
X20291914Y-30518931D01*
X20418576Y-30378259D01*
X20513222Y-30214327D01*
X20571717Y-30034299D01*
X20591503Y-29846043D01*
X20591503Y-29846040D01*
X20591503Y-29839544D01*
X20594021Y-29839544D01*
X20604564Y-29781927D01*
X20652301Y-29730908D01*
X20715310Y-29713706D01*
X21328812Y-29713706D01*
X21369521Y-29704414D01*
X21376378Y-29703249D01*
X21417873Y-29698574D01*
X21457298Y-29684777D01*
X21463939Y-29682864D01*
X21504679Y-29673566D01*
X21542311Y-29655442D01*
X21548723Y-29652786D01*
X21588140Y-29638995D01*
X21623507Y-29616771D01*
X21629579Y-29613415D01*
X21667205Y-29595297D01*
X21699854Y-29569258D01*
X21705513Y-29565243D01*
X21740880Y-29543022D01*
X21868434Y-29415468D01*
X21868434Y-29415467D01*
X23163342Y-28120558D01*
X23216424Y-28089166D01*
X23299777Y-28064950D01*
X23441244Y-27981287D01*
X23557460Y-27865071D01*
X23641123Y-27723604D01*
X23686977Y-27565775D01*
X23689879Y-27528900D01*
X23689878Y-26087705D01*
X23709564Y-26020667D01*
X23762368Y-25974912D01*
X23813879Y-25963706D01*
X24195678Y-25963706D01*
X24262717Y-25983391D01*
G37*
%TD.AperFunction*%
%TA.AperFunction,Conductor*%
G36*
X14026085Y-24064355D02*
G01*
X14040971Y-24073922D01*
X14147664Y-24153793D01*
X14147671Y-24153797D01*
X14282517Y-24204091D01*
X14282516Y-24204091D01*
X14289444Y-24204835D01*
X14342127Y-24210500D01*
X15584165Y-24210499D01*
X15651204Y-24230184D01*
X15671846Y-24246818D01*
X17182387Y-25757359D01*
X17215872Y-25818682D01*
X17218706Y-25845039D01*
X17218706Y-26035436D01*
X17218707Y-26035455D01*
X17228856Y-26134807D01*
X17228857Y-26134810D01*
X17282202Y-26295794D01*
X17282207Y-26295805D01*
X17371235Y-26440140D01*
X17371238Y-26440144D01*
X17491161Y-26560067D01*
X17491165Y-26560070D01*
X17635500Y-26649098D01*
X17635503Y-26649099D01*
X17635509Y-26649103D01*
X17796498Y-26702449D01*
X17895861Y-26712600D01*
X18742550Y-26712599D01*
X18742558Y-26712598D01*
X18742561Y-26712598D01*
X18796966Y-26707040D01*
X18841914Y-26702449D01*
X19002903Y-26649103D01*
X19058799Y-26614625D01*
X19126188Y-26596184D01*
X19192853Y-26617105D01*
X19211577Y-26632482D01*
X19512561Y-26933466D01*
X19546045Y-26994787D01*
X19548879Y-27021145D01*
X19548879Y-27188706D01*
X19529194Y-27255745D01*
X19476390Y-27301500D01*
X19424879Y-27312706D01*
X18966988Y-27312706D01*
X18786600Y-27312706D01*
X18780682Y-27314056D01*
X18745883Y-27321997D01*
X18739029Y-27323161D01*
X18697538Y-27327838D01*
X18658135Y-27341625D01*
X18651453Y-27343550D01*
X18610733Y-27352845D01*
X18573114Y-27370961D01*
X18566689Y-27373622D01*
X18527277Y-27387414D01*
X18527270Y-27387418D01*
X18491914Y-27409633D01*
X18485827Y-27412997D01*
X18448204Y-27431116D01*
X18415563Y-27457147D01*
X18409890Y-27461172D01*
X18374533Y-27483389D01*
X18283958Y-27573961D01*
X18283954Y-27573967D01*
X16602397Y-29255523D01*
X16541074Y-29289008D01*
X16471382Y-29284024D01*
X16440405Y-29267108D01*
X16332335Y-29186206D01*
X16332328Y-29186202D01*
X16197482Y-29135908D01*
X16197483Y-29135908D01*
X16137883Y-29129501D01*
X16137881Y-29129500D01*
X16137873Y-29129500D01*
X16137864Y-29129500D01*
X14342129Y-29129500D01*
X14342123Y-29129501D01*
X14282516Y-29135908D01*
X14147671Y-29186202D01*
X14147668Y-29186204D01*
X14047650Y-29261078D01*
X13982186Y-29285495D01*
X13913913Y-29270643D01*
X13899028Y-29261077D01*
X13792335Y-29181206D01*
X13792328Y-29181202D01*
X13657482Y-29130908D01*
X13657483Y-29130908D01*
X13597883Y-29124501D01*
X13597881Y-29124500D01*
X13597873Y-29124500D01*
X13597865Y-29124500D01*
X12824500Y-29124500D01*
X12757461Y-29104815D01*
X12711706Y-29052011D01*
X12700500Y-29000500D01*
X12700500Y-24329499D01*
X12720185Y-24262460D01*
X12772989Y-24216705D01*
X12824500Y-24205499D01*
X13597871Y-24205499D01*
X13597872Y-24205499D01*
X13657483Y-24199091D01*
X13792331Y-24148796D01*
X13892351Y-24073920D01*
X13957812Y-24049504D01*
X14026085Y-24064355D01*
G37*
%TD.AperFunction*%
%TA.AperFunction,Conductor*%
G36*
X20898039Y-12720185D02*
G01*
X20943794Y-12772989D01*
X20955000Y-12824500D01*
X20955000Y-18465017D01*
X20935315Y-18532056D01*
X20882511Y-18577811D01*
X20831000Y-18589017D01*
X20481967Y-18589017D01*
X20462728Y-18590765D01*
X20411390Y-18595430D01*
X20248976Y-18646039D01*
X20103394Y-18734047D01*
X19983113Y-18854328D01*
X19895105Y-18999910D01*
X19844496Y-19162324D01*
X19838083Y-19232903D01*
X19838083Y-19331577D01*
X19818398Y-19398616D01*
X19801764Y-19419258D01*
X19719565Y-19501456D01*
X19719562Y-19501460D01*
X19697345Y-19536817D01*
X19693320Y-19542490D01*
X19667289Y-19575131D01*
X19649170Y-19612754D01*
X19645806Y-19618841D01*
X19623591Y-19654197D01*
X19623587Y-19654204D01*
X19609795Y-19693616D01*
X19607134Y-19700041D01*
X19589018Y-19737660D01*
X19579723Y-19778380D01*
X19577798Y-19785062D01*
X19564011Y-19824465D01*
X19559334Y-19865956D01*
X19558170Y-19872810D01*
X19548879Y-19913527D01*
X19548879Y-20763706D01*
X19529194Y-20830745D01*
X19476390Y-20876500D01*
X19424879Y-20887706D01*
X19183294Y-20887706D01*
X19002905Y-20887706D01*
X19002903Y-20887706D01*
X19002897Y-20887707D01*
X18962198Y-20896996D01*
X18955342Y-20898161D01*
X18913843Y-20902838D01*
X18874428Y-20916629D01*
X18867746Y-20918554D01*
X18827040Y-20927846D01*
X18789426Y-20945959D01*
X18783001Y-20948620D01*
X18743582Y-20962415D01*
X18743574Y-20962419D01*
X18708217Y-20984634D01*
X18702132Y-20987997D01*
X18664513Y-21006114D01*
X18664511Y-21006115D01*
X18631869Y-21032147D01*
X18626196Y-21036172D01*
X18590839Y-21058389D01*
X18590835Y-21058392D01*
X18558848Y-21090380D01*
X18173945Y-21475281D01*
X18112622Y-21508766D01*
X18086265Y-21511600D01*
X17895869Y-21511600D01*
X17895850Y-21511601D01*
X17796498Y-21521750D01*
X17796495Y-21521751D01*
X17635511Y-21575096D01*
X17635500Y-21575101D01*
X17491165Y-21664129D01*
X17491161Y-21664132D01*
X17371238Y-21784055D01*
X17371235Y-21784059D01*
X17282207Y-21928394D01*
X17282202Y-21928405D01*
X17228857Y-22089390D01*
X17218706Y-22188747D01*
X17218706Y-22735437D01*
X17218707Y-22735455D01*
X17228856Y-22834807D01*
X17228857Y-22834810D01*
X17282202Y-22995794D01*
X17282207Y-22995805D01*
X17371235Y-23140140D01*
X17371238Y-23140144D01*
X17491161Y-23260067D01*
X17491165Y-23260070D01*
X17635500Y-23349098D01*
X17635503Y-23349099D01*
X17635509Y-23349103D01*
X17796498Y-23402449D01*
X17895861Y-23412600D01*
X18742550Y-23412599D01*
X18742558Y-23412598D01*
X18742561Y-23412598D01*
X18796966Y-23407040D01*
X18841914Y-23402449D01*
X19002903Y-23349103D01*
X19147250Y-23260068D01*
X19267174Y-23140144D01*
X19356209Y-22995797D01*
X19404375Y-22850439D01*
X19444147Y-22792995D01*
X19508663Y-22766172D01*
X19577439Y-22778487D01*
X19628639Y-22826030D01*
X19628764Y-22826241D01*
X19653526Y-22868111D01*
X19681296Y-22915068D01*
X19681302Y-22915076D01*
X19797508Y-23031282D01*
X19797512Y-23031285D01*
X19797514Y-23031287D01*
X19938981Y-23114950D01*
X19979479Y-23126716D01*
X20096805Y-23160803D01*
X20096808Y-23160803D01*
X20096810Y-23160804D01*
X20133685Y-23163706D01*
X20133693Y-23163706D01*
X20565065Y-23163706D01*
X20565073Y-23163706D01*
X20572071Y-23163155D01*
X20640448Y-23177519D01*
X20690206Y-23226570D01*
X20705545Y-23294735D01*
X20704785Y-23300257D01*
X20705006Y-23300281D01*
X20704327Y-23306740D01*
X20704326Y-23306744D01*
X20684540Y-23494999D01*
X20684540Y-23495000D01*
X20692886Y-23574407D01*
X20680316Y-23643137D01*
X20632584Y-23694160D01*
X20564844Y-23711278D01*
X20543789Y-23708659D01*
X20489448Y-23697109D01*
X20300156Y-23697109D01*
X20267699Y-23704007D01*
X20114999Y-23736464D01*
X20114994Y-23736466D01*
X19942072Y-23813457D01*
X19942067Y-23813460D01*
X19788931Y-23924720D01*
X19662268Y-24065394D01*
X19567623Y-24229324D01*
X19567620Y-24229331D01*
X19509129Y-24409348D01*
X19507778Y-24415707D01*
X19505166Y-24415151D01*
X19483048Y-24468833D01*
X19474033Y-24478887D01*
X19113259Y-24839661D01*
X19051936Y-24873146D01*
X18986574Y-24869686D01*
X18841915Y-24821751D01*
X18742558Y-24811600D01*
X18742551Y-24811600D01*
X18552146Y-24811600D01*
X18485107Y-24791915D01*
X18464465Y-24775281D01*
X16626818Y-22937634D01*
X16593333Y-22876311D01*
X16590499Y-22849953D01*
X16590499Y-21962129D01*
X16590498Y-21962123D01*
X16584091Y-21902516D01*
X16533797Y-21767671D01*
X16533793Y-21767664D01*
X16447547Y-21652455D01*
X16447544Y-21652452D01*
X16332335Y-21566206D01*
X16332328Y-21566202D01*
X16197483Y-21515908D01*
X16151243Y-21510937D01*
X16086693Y-21484199D01*
X16046845Y-21426806D01*
X16040500Y-21387648D01*
X16040500Y-21154938D01*
X16040499Y-21154935D01*
X16031203Y-21114209D01*
X16030044Y-21107384D01*
X16025368Y-21065878D01*
X16011574Y-21026457D01*
X16009652Y-21019788D01*
X16000359Y-20979072D01*
X15982245Y-20941459D01*
X15979583Y-20935031D01*
X15965789Y-20895611D01*
X15943563Y-20860239D01*
X15940213Y-20854177D01*
X15922091Y-20816546D01*
X15896049Y-20783890D01*
X15892038Y-20778237D01*
X15878017Y-20755923D01*
X15869818Y-20742873D01*
X15869815Y-20742870D01*
X15869814Y-20742869D01*
X15742262Y-20615317D01*
X15742261Y-20615317D01*
X15646196Y-20519251D01*
X15612712Y-20457927D01*
X15609878Y-20431572D01*
X15609879Y-20382896D01*
X15603465Y-20312316D01*
X15552857Y-20149906D01*
X15464851Y-20004327D01*
X15464849Y-20004325D01*
X15464848Y-20004323D01*
X15362718Y-19902193D01*
X15329233Y-19840870D01*
X15334217Y-19771178D01*
X15362718Y-19726831D01*
X15464847Y-19624701D01*
X15464848Y-19624700D01*
X15464851Y-19624697D01*
X15552857Y-19479118D01*
X15603465Y-19316708D01*
X15609879Y-19246128D01*
X15609879Y-18732896D01*
X15609879Y-18222896D01*
X15603465Y-18152316D01*
X15552857Y-17989906D01*
X15464851Y-17844327D01*
X15464849Y-17844325D01*
X15464848Y-17844323D01*
X15344567Y-17724042D01*
X15198985Y-17636034D01*
X15198984Y-17636034D01*
X15036575Y-17585426D01*
X15036573Y-17585425D01*
X15036571Y-17585425D01*
X14987157Y-17580935D01*
X14965995Y-17579012D01*
X14302763Y-17579012D01*
X14283523Y-17580760D01*
X14232186Y-17585425D01*
X14069772Y-17636034D01*
X13924190Y-17724042D01*
X13803909Y-17844323D01*
X13715901Y-17989905D01*
X13665292Y-18152319D01*
X13658878Y-18222898D01*
X13658878Y-19246125D01*
X13665292Y-19316704D01*
X13665292Y-19316706D01*
X13665293Y-19316708D01*
X13715901Y-19479118D01*
X13803907Y-19624697D01*
X13906041Y-19726831D01*
X13939525Y-19788152D01*
X13934541Y-19857844D01*
X13906041Y-19902192D01*
X13803908Y-20004325D01*
X13715901Y-20149905D01*
X13665292Y-20312319D01*
X13662311Y-20345125D01*
X13658879Y-20382896D01*
X13658879Y-20896128D01*
X13659064Y-20898161D01*
X13665292Y-20966704D01*
X13665292Y-20966706D01*
X13665293Y-20966708D01*
X13715901Y-21129118D01*
X13803909Y-21274700D01*
X13864662Y-21335453D01*
X13898147Y-21396776D01*
X13893163Y-21466468D01*
X13851291Y-21522401D01*
X13785827Y-21546818D01*
X13733649Y-21539316D01*
X13657485Y-21510909D01*
X13657483Y-21510908D01*
X13597883Y-21504501D01*
X13597881Y-21504500D01*
X13597873Y-21504500D01*
X13597865Y-21504500D01*
X12824500Y-21504500D01*
X12757461Y-21484815D01*
X12711706Y-21432011D01*
X12700500Y-21380500D01*
X12700500Y-17781279D01*
X12700553Y-17778716D01*
X12702814Y-17724042D01*
X12709492Y-17562583D01*
X12718457Y-17357263D01*
X12718869Y-17352349D01*
X12746064Y-17134185D01*
X12773059Y-16929141D01*
X12773835Y-16924588D01*
X12818906Y-16709633D01*
X12863769Y-16507271D01*
X12864865Y-16503044D01*
X12927543Y-16292513D01*
X12989945Y-16094602D01*
X12991270Y-16090838D01*
X13070973Y-15886578D01*
X13071361Y-15885612D01*
X13150640Y-15694216D01*
X13152190Y-15690777D01*
X13248483Y-15493808D01*
X13249031Y-15492722D01*
X13344712Y-15308921D01*
X13346428Y-15305842D01*
X13458593Y-15117606D01*
X13459448Y-15116218D01*
X13570794Y-14941441D01*
X13572555Y-14938831D01*
X13699882Y-14760499D01*
X13701074Y-14758889D01*
X13827169Y-14594559D01*
X13828999Y-14592289D01*
X13970561Y-14425146D01*
X13972098Y-14423400D01*
X14112103Y-14270613D01*
X14113848Y-14268789D01*
X14268789Y-14113848D01*
X14270613Y-14112103D01*
X14423400Y-13972098D01*
X14425155Y-13970554D01*
X14425809Y-13970000D01*
X14592289Y-13828999D01*
X14594559Y-13827169D01*
X14758889Y-13701074D01*
X14760499Y-13699882D01*
X14938831Y-13572555D01*
X14941441Y-13570794D01*
X15116218Y-13459448D01*
X15117606Y-13458593D01*
X15305842Y-13346428D01*
X15308921Y-13344712D01*
X15492722Y-13249031D01*
X15493808Y-13248483D01*
X15690777Y-13152190D01*
X15694216Y-13150640D01*
X15885612Y-13071361D01*
X15886578Y-13070973D01*
X16090838Y-12991270D01*
X16094602Y-12989945D01*
X16292513Y-12927543D01*
X16503044Y-12864865D01*
X16507271Y-12863769D01*
X16709633Y-12818906D01*
X16924588Y-12773835D01*
X16929141Y-12773059D01*
X17134185Y-12746064D01*
X17352349Y-12718869D01*
X17357263Y-12718457D01*
X17562682Y-12709488D01*
X17778720Y-12700552D01*
X17781280Y-12700500D01*
X20831000Y-12700500D01*
X20898039Y-12720185D01*
G37*
%TD.AperFunction*%
%TD*%
%TA.AperFunction,Conductor*%
%TO.N,/Single_Phase/OUTPUT_PRE_S*%
G36*
X44393039Y-20339685D02*
G01*
X44438794Y-20392489D01*
X44450000Y-20444000D01*
X44450000Y-26480500D01*
X44430315Y-26547539D01*
X44377511Y-26593294D01*
X44326000Y-26604500D01*
X41558457Y-26604500D01*
X41554712Y-26604387D01*
X41492805Y-26600642D01*
X41492798Y-26600642D01*
X41431795Y-26611821D01*
X41428094Y-26612384D01*
X41366537Y-26619859D01*
X41366530Y-26619861D01*
X41357056Y-26623454D01*
X41335458Y-26629475D01*
X41325478Y-26631304D01*
X41268928Y-26656755D01*
X41265469Y-26658188D01*
X41207480Y-26680181D01*
X41207475Y-26680184D01*
X41199131Y-26685943D01*
X41179596Y-26696961D01*
X41170356Y-26701120D01*
X41170354Y-26701121D01*
X41121545Y-26739359D01*
X41118531Y-26741576D01*
X41067479Y-26776817D01*
X41067477Y-26776818D01*
X41026351Y-26823240D01*
X41023784Y-26825966D01*
X40654433Y-27195317D01*
X40651707Y-27197884D01*
X40605285Y-27239010D01*
X40605283Y-27239013D01*
X40596704Y-27251442D01*
X40542420Y-27295431D01*
X40494656Y-27305000D01*
X36970730Y-27305000D01*
X36903691Y-27285315D01*
X36857936Y-27232511D01*
X36847992Y-27163353D01*
X36877017Y-27099797D01*
X36883049Y-27093319D01*
X36883049Y-27093318D01*
X37002712Y-26973656D01*
X37094814Y-26824334D01*
X37149999Y-26657797D01*
X37160500Y-26555009D01*
X37160499Y-25754992D01*
X37149999Y-25652203D01*
X37094814Y-25485666D01*
X37002712Y-25336344D01*
X36878656Y-25212288D01*
X36878655Y-25212287D01*
X36729906Y-25120539D01*
X36683181Y-25068591D01*
X36671958Y-24999629D01*
X36699801Y-24935546D01*
X36729906Y-24909461D01*
X36878656Y-24817712D01*
X37002712Y-24693656D01*
X37094814Y-24544334D01*
X37149999Y-24377797D01*
X37160500Y-24275009D01*
X37160499Y-23474992D01*
X37149999Y-23372203D01*
X37094814Y-23205666D01*
X37002712Y-23056344D01*
X36878656Y-22932288D01*
X36729334Y-22840186D01*
X36562797Y-22785001D01*
X36562795Y-22785000D01*
X36460010Y-22774500D01*
X34659998Y-22774500D01*
X34659981Y-22774501D01*
X34557203Y-22785000D01*
X34557200Y-22785001D01*
X34453004Y-22819529D01*
X34383176Y-22821931D01*
X34323134Y-22786199D01*
X34291941Y-22723679D01*
X34290000Y-22701823D01*
X34290000Y-20444000D01*
X34309685Y-20376961D01*
X34362489Y-20331206D01*
X34414000Y-20320000D01*
X44326000Y-20320000D01*
X44393039Y-20339685D01*
G37*
%TD.AperFunction*%
%TD*%
%TA.AperFunction,Conductor*%
%TO.N,/Single_Phase/OUTPUT*%
G36*
X60902539Y-22244685D02*
G01*
X60948294Y-22297489D01*
X60959500Y-22349000D01*
X60959500Y-30991000D01*
X60939815Y-31058039D01*
X60887011Y-31103794D01*
X60835500Y-31115000D01*
X52699500Y-31115000D01*
X52632461Y-31095315D01*
X52586706Y-31042511D01*
X52575500Y-30991000D01*
X52575500Y-29334010D01*
X52575499Y-29334009D01*
X52575500Y-29334000D01*
X52563947Y-29226544D01*
X52552741Y-29175033D01*
X52522234Y-29083374D01*
X52518616Y-29072502D01*
X52518613Y-29072496D01*
X52470190Y-28997149D01*
X52440825Y-28951457D01*
X52430170Y-28939160D01*
X52395076Y-28898659D01*
X52395072Y-28898656D01*
X52395070Y-28898653D01*
X52286336Y-28804433D01*
X52286333Y-28804431D01*
X52286331Y-28804430D01*
X52155457Y-28744660D01*
X52151315Y-28743116D01*
X52152017Y-28741232D01*
X52100182Y-28707825D01*
X52071239Y-28644231D01*
X52070000Y-28626743D01*
X52070000Y-22665204D01*
X52089685Y-22598165D01*
X52142489Y-22552410D01*
X52211647Y-22542466D01*
X52247790Y-22553479D01*
X52255541Y-22557211D01*
X52261600Y-22560560D01*
X52296978Y-22582789D01*
X52336398Y-22596583D01*
X52342826Y-22599245D01*
X52380439Y-22617359D01*
X52421155Y-22626652D01*
X52427824Y-22628574D01*
X52467245Y-22642368D01*
X52508751Y-22647044D01*
X52515576Y-22648203D01*
X52556305Y-22657500D01*
X52601546Y-22657500D01*
X52707163Y-22657500D01*
X52748702Y-22666981D01*
X52749374Y-22665062D01*
X52755933Y-22667357D01*
X52755939Y-22667360D01*
X52786145Y-22674254D01*
X52796641Y-22676650D01*
X52803328Y-22678576D01*
X52842742Y-22692367D01*
X52842745Y-22692368D01*
X52884241Y-22697043D01*
X52891093Y-22698207D01*
X52931806Y-22707500D01*
X52931814Y-22707500D01*
X52937356Y-22708125D01*
X52987626Y-22725228D01*
X53029394Y-22750478D01*
X53191804Y-22801086D01*
X53262384Y-22807500D01*
X53262387Y-22807500D01*
X53925613Y-22807500D01*
X53925616Y-22807500D01*
X53996196Y-22801086D01*
X54158606Y-22750478D01*
X54304185Y-22662472D01*
X54424472Y-22542185D01*
X54512478Y-22396606D01*
X54538807Y-22312108D01*
X54577545Y-22253962D01*
X54641570Y-22225988D01*
X54657193Y-22225000D01*
X60835500Y-22225000D01*
X60902539Y-22244685D01*
G37*
%TD.AperFunction*%
%TD*%
%TA.AperFunction,Conductor*%
%TO.N,VD*%
G36*
X36138039Y-12720185D02*
G01*
X36183794Y-12772989D01*
X36195000Y-12824500D01*
X36195000Y-19561000D01*
X36175315Y-19628039D01*
X36122511Y-19673794D01*
X36071000Y-19685000D01*
X33655000Y-19685000D01*
X33655000Y-29985365D01*
X33635315Y-30052404D01*
X33618681Y-30073046D01*
X32380966Y-31310760D01*
X32378240Y-31313327D01*
X32331818Y-31354453D01*
X32296586Y-31405494D01*
X32294368Y-31408509D01*
X32256124Y-31457324D01*
X32256119Y-31457333D01*
X32251960Y-31466573D01*
X32240942Y-31486108D01*
X32235187Y-31494446D01*
X32235183Y-31494452D01*
X32235182Y-31494455D01*
X32235180Y-31494459D01*
X32235179Y-31494462D01*
X32213189Y-31552440D01*
X32211757Y-31555898D01*
X32186305Y-31612453D01*
X32184477Y-31622427D01*
X32178453Y-31644038D01*
X32174860Y-31653512D01*
X32174859Y-31653513D01*
X32167384Y-31715070D01*
X32166821Y-31718771D01*
X32155642Y-31779775D01*
X32155642Y-31779780D01*
X32159387Y-31841687D01*
X32159500Y-31845432D01*
X32159500Y-51847722D01*
X32139815Y-51914761D01*
X32123181Y-51935403D01*
X32024903Y-52033681D01*
X31963580Y-52067166D01*
X31937222Y-52070000D01*
X26469103Y-52070000D01*
X26402064Y-52050315D01*
X26356309Y-51997511D01*
X26345103Y-51946000D01*
X26345103Y-45378179D01*
X26364788Y-45311140D01*
X26417592Y-45265385D01*
X26418667Y-45264900D01*
X26423655Y-45262679D01*
X26487730Y-45234151D01*
X26640871Y-45122888D01*
X26767533Y-44982216D01*
X26862179Y-44818284D01*
X26920674Y-44638256D01*
X26940460Y-44450000D01*
X26920674Y-44261744D01*
X26862179Y-44081716D01*
X26767533Y-43917784D01*
X26640871Y-43777112D01*
X26615455Y-43758646D01*
X26487730Y-43665848D01*
X26466731Y-43656499D01*
X26413494Y-43611248D01*
X26393173Y-43544399D01*
X26395199Y-43520866D01*
X26400066Y-43494308D01*
X26400066Y-43494305D01*
X26396322Y-43432409D01*
X26396209Y-43428665D01*
X26396209Y-42668775D01*
X26396209Y-41901450D01*
X26396320Y-41897770D01*
X26400067Y-41835832D01*
X26388884Y-41774809D01*
X26388322Y-41771112D01*
X26384243Y-41737519D01*
X26380849Y-41709566D01*
X26377257Y-41700094D01*
X26371230Y-41678472D01*
X26369404Y-41668509D01*
X26369404Y-41668507D01*
X26343933Y-41611914D01*
X26342526Y-41608517D01*
X26320527Y-41550508D01*
X26320525Y-41550506D01*
X26320525Y-41550504D01*
X26314771Y-41542169D01*
X26303743Y-41522615D01*
X26299589Y-41513385D01*
X26299587Y-41513382D01*
X26261330Y-41464550D01*
X26259136Y-41461568D01*
X26223892Y-41410509D01*
X26177459Y-41369373D01*
X26174765Y-41366837D01*
X26160433Y-41352506D01*
X26126949Y-41291183D01*
X26124115Y-41264825D01*
X26124115Y-41074730D01*
X26122655Y-41058662D01*
X26117701Y-41004148D01*
X26067093Y-40841738D01*
X26052882Y-40818230D01*
X26035000Y-40754081D01*
X26035000Y-34832777D01*
X26054685Y-34765738D01*
X26071312Y-34745102D01*
X26156758Y-34659656D01*
X26159417Y-34657153D01*
X26205869Y-34616002D01*
X26241107Y-34564949D01*
X26243299Y-34561969D01*
X26281564Y-34513130D01*
X26285720Y-34503894D01*
X26296748Y-34484339D01*
X26302504Y-34476003D01*
X26324495Y-34418015D01*
X26325915Y-34414585D01*
X26351381Y-34358005D01*
X26353207Y-34348034D01*
X26359238Y-34326404D01*
X26362826Y-34316944D01*
X26362826Y-34316941D01*
X26364416Y-34303853D01*
X26370299Y-34255398D01*
X26370863Y-34251694D01*
X26375133Y-34228387D01*
X26382044Y-34190679D01*
X26378297Y-34128740D01*
X26378186Y-34125058D01*
X26378186Y-28924216D01*
X26378299Y-28920471D01*
X26382043Y-28858575D01*
X26370863Y-28797567D01*
X26370301Y-28793870D01*
X26362826Y-28732310D01*
X26362825Y-28732306D01*
X26359232Y-28722832D01*
X26353205Y-28701210D01*
X26351380Y-28691249D01*
X26332304Y-28648866D01*
X26321381Y-28597976D01*
X26321381Y-28312762D01*
X26314967Y-28242183D01*
X26314967Y-28242180D01*
X26264359Y-28079770D01*
X26189263Y-27955547D01*
X26171381Y-27891399D01*
X26171381Y-25865276D01*
X26171381Y-25865275D01*
X26162088Y-25824562D01*
X26160923Y-25817702D01*
X26156249Y-25776214D01*
X26148823Y-25754991D01*
X26142457Y-25736797D01*
X26140531Y-25730110D01*
X26131242Y-25689410D01*
X26113125Y-25651789D01*
X26110462Y-25645360D01*
X26096670Y-25605947D01*
X26074453Y-25570588D01*
X26071088Y-25564499D01*
X26049951Y-25520610D01*
X26051505Y-25519861D01*
X26035000Y-25462555D01*
X26035000Y-19685000D01*
X24512110Y-19685000D01*
X24445071Y-19665315D01*
X24399316Y-19612511D01*
X24388790Y-19573964D01*
X24380674Y-19496744D01*
X24322179Y-19316716D01*
X24227533Y-19152784D01*
X24100871Y-19012112D01*
X24084078Y-18999911D01*
X23947734Y-18900851D01*
X23947729Y-18900848D01*
X23774807Y-18823857D01*
X23774802Y-18823855D01*
X23629000Y-18792865D01*
X23589646Y-18784500D01*
X23400354Y-18784500D01*
X23363322Y-18792371D01*
X23215193Y-18823856D01*
X23210760Y-18825297D01*
X23140919Y-18827288D01*
X23084769Y-18795046D01*
X23023768Y-18734045D01*
X22878189Y-18646039D01*
X22715779Y-18595431D01*
X22715777Y-18595430D01*
X22715775Y-18595430D01*
X22666361Y-18590940D01*
X22645199Y-18589017D01*
X22349000Y-18589017D01*
X22281961Y-18569332D01*
X22236206Y-18516528D01*
X22225000Y-18465017D01*
X22225000Y-12824500D01*
X22244685Y-12757461D01*
X22297489Y-12711706D01*
X22349000Y-12700500D01*
X36071000Y-12700500D01*
X36138039Y-12720185D01*
G37*
%TD.AperFunction*%
%TD*%
M02*
