%TF.GenerationSoftware,KiCad,Pcbnew,7.0.5*%
%TF.CreationDate,2024-12-02T20:01:47-05:00*%
%TF.ProjectId,eddie_bldc,65646469-655f-4626-9c64-632e6b696361,rev?*%
%TF.SameCoordinates,Original*%
%TF.FileFunction,Paste,Top*%
%TF.FilePolarity,Positive*%
%FSLAX46Y46*%
G04 Gerber Fmt 4.6, Leading zero omitted, Abs format (unit mm)*
G04 Created by KiCad (PCBNEW 7.0.5) date 2024-12-02 20:01:47*
%MOMM*%
%LPD*%
G01*
G04 APERTURE LIST*
G04 Aperture macros list*
%AMRoundRect*
0 Rectangle with rounded corners*
0 $1 Rounding radius*
0 $2 $3 $4 $5 $6 $7 $8 $9 X,Y pos of 4 corners*
0 Add a 4 corners polygon primitive as box body*
4,1,4,$2,$3,$4,$5,$6,$7,$8,$9,$2,$3,0*
0 Add four circle primitives for the rounded corners*
1,1,$1+$1,$2,$3*
1,1,$1+$1,$4,$5*
1,1,$1+$1,$6,$7*
1,1,$1+$1,$8,$9*
0 Add four rect primitives between the rounded corners*
20,1,$1+$1,$2,$3,$4,$5,0*
20,1,$1+$1,$4,$5,$6,$7,0*
20,1,$1+$1,$6,$7,$8,$9,0*
20,1,$1+$1,$8,$9,$2,$3,0*%
G04 Aperture macros list end*
%ADD10RoundRect,0.200000X-0.275000X0.200000X-0.275000X-0.200000X0.275000X-0.200000X0.275000X0.200000X0*%
%ADD11RoundRect,0.200000X0.275000X-0.200000X0.275000X0.200000X-0.275000X0.200000X-0.275000X-0.200000X0*%
%ADD12RoundRect,0.225000X-0.375000X0.225000X-0.375000X-0.225000X0.375000X-0.225000X0.375000X0.225000X0*%
%ADD13RoundRect,0.200000X0.200000X0.275000X-0.200000X0.275000X-0.200000X-0.275000X0.200000X-0.275000X0*%
%ADD14RoundRect,0.150000X-0.512500X-0.150000X0.512500X-0.150000X0.512500X0.150000X-0.512500X0.150000X0*%
%ADD15RoundRect,0.200000X-0.200000X-0.275000X0.200000X-0.275000X0.200000X0.275000X-0.200000X0.275000X0*%
%ADD16RoundRect,0.150000X0.150000X-0.825000X0.150000X0.825000X-0.150000X0.825000X-0.150000X-0.825000X0*%
%ADD17RoundRect,0.250000X-0.312500X-0.625000X0.312500X-0.625000X0.312500X0.625000X-0.312500X0.625000X0*%
%ADD18RoundRect,0.250000X0.850000X0.350000X-0.850000X0.350000X-0.850000X-0.350000X0.850000X-0.350000X0*%
%ADD19RoundRect,0.250000X1.275000X1.125000X-1.275000X1.125000X-1.275000X-1.125000X1.275000X-1.125000X0*%
G04 APERTURE END LIST*
D10*
%TO.C,D4*%
X14634379Y-18989512D03*
X14634379Y-20639512D03*
%TD*%
D11*
%TO.C,R9*%
X34635608Y-55147584D03*
X34635608Y-53497584D03*
%TD*%
D12*
%TO.C,D1*%
X18319206Y-22462100D03*
X18319206Y-25762100D03*
%TD*%
D13*
%TO.C,C2*%
X26527686Y-30175338D03*
X24877686Y-30175338D03*
%TD*%
D14*
%TO.C,U2*%
X49662500Y-21148000D03*
X49662500Y-22098000D03*
X49662500Y-23048000D03*
X51937500Y-23048000D03*
X51937500Y-21148000D03*
%TD*%
D13*
%TO.C,C1*%
X25420881Y-28644376D03*
X23770881Y-28644376D03*
%TD*%
D11*
%TO.C,R1*%
X34908869Y-29773516D03*
X34908869Y-28123516D03*
%TD*%
D15*
%TO.C,R6*%
X45817381Y-41406592D03*
X47467381Y-41406592D03*
%TD*%
%TO.C,R11*%
X47435000Y-44958000D03*
X49085000Y-44958000D03*
%TD*%
D16*
%TO.C,U5*%
X20196061Y-50735000D03*
X21466061Y-50735000D03*
X22736061Y-50735000D03*
X24006061Y-50735000D03*
X24006061Y-45785000D03*
X22736061Y-45785000D03*
X21466061Y-45785000D03*
X20196061Y-45785000D03*
%TD*%
D17*
%TO.C,R3_SHUNT3*%
X49591500Y-50292000D03*
X52516500Y-50292000D03*
%TD*%
D18*
%TO.C,Q4*%
X47345000Y-39365000D03*
X47345000Y-37085000D03*
D19*
X42720000Y-38610000D03*
X42720000Y-35560000D03*
X39370000Y-38610000D03*
X39370000Y-35560000D03*
D18*
X47345000Y-34805000D03*
%TD*%
D17*
%TO.C,R3_SHUNT1*%
X49591500Y-25146000D03*
X52516500Y-25146000D03*
%TD*%
D16*
%TO.C,U3*%
X20247167Y-39338085D03*
X21517167Y-39338085D03*
X22787167Y-39338085D03*
X24057167Y-39338085D03*
X24057167Y-34388085D03*
X22787167Y-34388085D03*
X21517167Y-34388085D03*
X20247167Y-34388085D03*
%TD*%
D15*
%TO.C,R2*%
X45818366Y-28235527D03*
X47468366Y-28235527D03*
%TD*%
%TO.C,R10*%
X45722080Y-53576520D03*
X47372080Y-53576520D03*
%TD*%
D13*
%TO.C,R12*%
X52133000Y-44958000D03*
X50483000Y-44958000D03*
%TD*%
D17*
%TO.C,R3_SHUNT2*%
X49591500Y-38354000D03*
X52516500Y-38354000D03*
%TD*%
D18*
%TO.C,Q2*%
X47345000Y-26155000D03*
X47345000Y-23875000D03*
D19*
X42720000Y-25400000D03*
X42720000Y-22350000D03*
X39370000Y-25400000D03*
X39370000Y-22350000D03*
D18*
X47345000Y-21595000D03*
%TD*%
D15*
%TO.C,R7*%
X47435000Y-32512000D03*
X49085000Y-32512000D03*
%TD*%
%TO.C,C1_BOOT3*%
X20159379Y-43644275D03*
X21809379Y-43644275D03*
%TD*%
D12*
%TO.C,D3*%
X18268100Y-45340000D03*
X18268100Y-48640000D03*
%TD*%
D11*
%TO.C,C12*%
X53594000Y-21907000D03*
X53594000Y-20257000D03*
%TD*%
D18*
%TO.C,Q5*%
X35560000Y-51550000D03*
X35560000Y-49270000D03*
D19*
X30935000Y-50795000D03*
X30935000Y-47745000D03*
X27585000Y-50795000D03*
X27585000Y-47745000D03*
D18*
X35560000Y-46990000D03*
%TD*%
D11*
%TO.C,R13*%
X14634379Y-18479512D03*
X14634379Y-16829512D03*
%TD*%
D18*
%TO.C,Q3*%
X35560000Y-39365000D03*
X35560000Y-37085000D03*
D19*
X30935000Y-38610000D03*
X30935000Y-35560000D03*
X27585000Y-38610000D03*
X27585000Y-35560000D03*
D18*
X35560000Y-34805000D03*
%TD*%
D15*
%TO.C,C7*%
X40590742Y-41381903D03*
X42240742Y-41381903D03*
%TD*%
D13*
%TO.C,C5*%
X25223615Y-41406344D03*
X23573615Y-41406344D03*
%TD*%
%TO.C,C9*%
X24688703Y-52708324D03*
X23038703Y-52708324D03*
%TD*%
%TO.C,R8*%
X52133000Y-32512000D03*
X50483000Y-32512000D03*
%TD*%
D11*
%TO.C,C8*%
X53594000Y-46545000D03*
X53594000Y-44895000D03*
%TD*%
D15*
%TO.C,C1_BOOT1*%
X20738583Y-19564517D03*
X22388583Y-19564517D03*
%TD*%
D14*
%TO.C,U6*%
X49662500Y-46548000D03*
X49662500Y-47498000D03*
X49662500Y-48448000D03*
X51937500Y-48448000D03*
X51937500Y-46548000D03*
%TD*%
D15*
%TO.C,R3*%
X47435000Y-19558000D03*
X49085000Y-19558000D03*
%TD*%
%TO.C,C1_BOOT2*%
X20150972Y-32272913D03*
X21800972Y-32272913D03*
%TD*%
%TO.C,C3*%
X40333467Y-28180470D03*
X41983467Y-28180470D03*
%TD*%
%TO.C,C11*%
X40261375Y-53578495D03*
X41911375Y-53578495D03*
%TD*%
D13*
%TO.C,R4*%
X52133000Y-19558000D03*
X50483000Y-19558000D03*
%TD*%
%TO.C,C10*%
X26494603Y-54273740D03*
X24844603Y-54273740D03*
%TD*%
D12*
%TO.C,D2*%
X18293653Y-35264191D03*
X18293653Y-38564191D03*
%TD*%
D11*
%TO.C,C4*%
X53594000Y-34099000D03*
X53594000Y-32449000D03*
%TD*%
D18*
%TO.C,Q6*%
X47345000Y-51555000D03*
X47345000Y-49275000D03*
D19*
X42720000Y-50800000D03*
X42720000Y-47750000D03*
X39370000Y-50800000D03*
X39370000Y-47750000D03*
D18*
X47345000Y-46995000D03*
%TD*%
D14*
%TO.C,U4*%
X49662500Y-34356000D03*
X49662500Y-35306000D03*
X49662500Y-36256000D03*
X51937500Y-36256000D03*
X51937500Y-34356000D03*
%TD*%
D16*
%TO.C,U1*%
X20349379Y-26638206D03*
X21619379Y-26638206D03*
X22889379Y-26638206D03*
X24159379Y-26638206D03*
X24159379Y-21688206D03*
X22889379Y-21688206D03*
X21619379Y-21688206D03*
X20349379Y-21688206D03*
%TD*%
D18*
%TO.C,Q1*%
X35560000Y-26155000D03*
X35560000Y-23875000D03*
D19*
X30935000Y-25400000D03*
X30935000Y-22350000D03*
X27585000Y-25400000D03*
X27585000Y-22350000D03*
D18*
X35560000Y-21595000D03*
%TD*%
D11*
%TO.C,R5*%
X34629720Y-43006848D03*
X34629720Y-41356848D03*
%TD*%
D13*
%TO.C,C6*%
X26545709Y-42928174D03*
X24895709Y-42928174D03*
%TD*%
M02*
