M48
; DRILL file {KiCad 7.0.5} date Mon Dec  2 20:01:50 2024
; FORMAT={-:-/ absolute / inch / decimal}
; #@! TF.CreationDate,2024-12-02T20:01:50-05:00
; #@! TF.GenerationSoftware,Kicad,Pcbnew,7.0.5
; #@! TF.FileFunction,Plated,1,2,PTH
FMAT,2
INCH
; #@! TA.AperFunction,Plated,PTH,ViaDrill
T1C0.0157
; #@! TA.AperFunction,Plated,PTH,ComponentDrill
T2C0.0394
; #@! TA.AperFunction,Plated,PTH,ViaDrill
T3C0.1575
%
G90
G05
T1
X0.75Y-1.45
X0.7521Y-1.9479
X0.775Y-1.175
X0.8029Y-0.9684
X0.85Y-0.925
X0.85Y-1.875
X0.9Y-1.275
X0.9Y-1.4553
X0.9Y-1.725
X0.925Y-0.775
X0.925Y-1.175
X0.925Y-2.125
X0.949Y-1.651
X0.95Y-0.925
X0.95Y-1.425
X0.95Y-1.875
X1.025Y-1.75
X1.425Y-1.1
X1.425Y-1.625
X1.425Y-2.1
X1.45Y-0.8146
X1.45Y-1.3146
X1.45Y-1.7646
X1.675Y-2.125
X1.7Y-1.125
X1.7Y-1.65
X1.775Y-1.075
X1.775Y-1.6
X1.775Y-2.075
X1.975Y-0.725
X1.975Y-1.225
X1.975Y-1.725
X2.075Y-0.85
X2.075Y-1.325
X2.075Y-1.825
T2
X0.5Y-0.8998
X0.5Y-0.9998
X0.5Y-1.0998
X0.5Y-1.1998
X0.5Y-1.2998
X0.5Y-1.3998
X0.5Y-1.4998
X0.5Y-1.5998
X0.5Y-1.6998
X0.5Y-1.7998
X0.5Y-1.8998
X0.5Y-1.9998
X0.6Y-0.9
X0.6Y-1.0
X0.6Y-1.1
X0.6Y-1.2
X0.6Y-1.3
X0.6Y-1.4
X0.6Y-1.5
X0.6Y-1.6
X0.6Y-1.7
X0.6Y-1.8
X0.6Y-1.9
X0.6Y-2.0
X0.9Y-0.5
X0.9Y-0.6
X0.9Y-2.3
X0.9Y-2.4
X1.0Y-0.5
X1.0Y-0.6
X1.0Y-2.3
X1.0Y-2.4
X1.1Y-0.5
X1.1Y-0.6
X1.1Y-2.3
X1.1Y-2.4
X1.2Y-0.5
X1.2Y-0.6
X1.2Y-2.3
X1.2Y-2.4
X1.3Y-0.5
X1.3Y-0.6
X1.3Y-2.3
X1.3Y-2.4
X1.4Y-0.5
X1.4Y-0.6
X1.4Y-2.3
X1.4Y-2.4
X1.5Y-0.5
X1.5Y-0.6
X1.5Y-2.3
X1.5Y-2.4
X1.6Y-0.5
X1.6Y-0.6
X1.6Y-2.3
X1.6Y-2.4
X1.7Y-0.5
X1.7Y-0.6
X1.7Y-2.3
X1.7Y-2.4
X1.8Y-0.5
X1.8Y-0.6
X1.8Y-2.3
X1.8Y-2.4
X1.9Y-0.5
X1.9Y-0.6
X1.9Y-2.3
X1.9Y-2.4
X2.0Y-0.5
X2.0Y-0.6
X2.0Y-2.3
X2.0Y-2.4
X2.3Y-0.9
X2.3Y-1.0
X2.3Y-1.1
X2.3Y-1.2
X2.3Y-1.3
X2.3Y-1.4
X2.3Y-1.5
X2.3Y-1.6
X2.3Y-1.7
X2.3Y-1.8
X2.3Y-1.9
X2.3Y-2.0
X2.4Y-0.9
X2.4Y-1.0
X2.4Y-1.1
X2.4Y-1.2
X2.4Y-1.3
X2.4Y-1.4
X2.4Y-1.5
X2.4Y-1.6
X2.4Y-1.7
X2.4Y-1.8
X2.4Y-1.9
X2.4Y-2.0
T3
X0.7Y-0.7
X0.7Y-2.2008
X2.202Y-0.7094
X2.202Y-2.2102
T0
M30
