%TF.GenerationSoftware,KiCad,Pcbnew,7.0.5*%
%TF.CreationDate,2024-12-02T20:01:47-05:00*%
%TF.ProjectId,eddie_bldc,65646469-655f-4626-9c64-632e6b696361,rev?*%
%TF.SameCoordinates,Original*%
%TF.FileFunction,Copper,L2,Bot*%
%TF.FilePolarity,Positive*%
%FSLAX46Y46*%
G04 Gerber Fmt 4.6, Leading zero omitted, Abs format (unit mm)*
G04 Created by KiCad (PCBNEW 7.0.5) date 2024-12-02 20:01:47*
%MOMM*%
%LPD*%
G01*
G04 APERTURE LIST*
%TA.AperFunction,ComponentPad*%
%ADD10R,1.700000X1.700000*%
%TD*%
%TA.AperFunction,ComponentPad*%
%ADD11O,1.700000X1.700000*%
%TD*%
%TA.AperFunction,ViaPad*%
%ADD12C,0.800000*%
%TD*%
%TA.AperFunction,ViaPad*%
%ADD13C,4.500000*%
%TD*%
%TA.AperFunction,Conductor*%
%ADD14C,0.400000*%
%TD*%
%TA.AperFunction,Conductor*%
%ADD15C,0.600000*%
%TD*%
G04 APERTURE END LIST*
D10*
%TO.P,J17,1,Pin_1*%
%TO.N,Net-(U5-LO)*%
X35560000Y-60960000D03*
%TD*%
%TO.P,J16,1,Pin_1*%
%TO.N,Net-(U1-HO)*%
X25400000Y-60960000D03*
%TD*%
%TO.P,J16,1,Pin_1*%
%TO.N,Net-(U1-LO)*%
X27940000Y-60960000D03*
%TD*%
%TO.P,J18,1,Pin_1*%
%TO.N,N/C*%
X43180000Y-60960000D03*
%TD*%
%TO.P,J16,1,Pin_1*%
%TO.N,Net-(U3-HO)*%
X30480000Y-60960000D03*
%TD*%
%TO.P,J16,1,Pin_1*%
%TO.N,Net-(U3-LO)*%
X22860000Y-60960000D03*
%TD*%
%TO.P,J17,1,Pin_1*%
%TO.N,N/C*%
X40640000Y-60960000D03*
%TD*%
%TO.P,J17,1,Pin_1*%
%TO.N,Net-(U5-HO)*%
X33020000Y-60960000D03*
%TD*%
%TO.P,J18,1,Pin_1*%
%TO.N,N/C*%
X48260000Y-60960000D03*
%TD*%
%TO.P,J17,1,Pin_1*%
%TO.N,N/C*%
X38100000Y-60960000D03*
%TD*%
%TO.P,J18,1,Pin_1*%
%TO.N,N/C*%
X45720000Y-60960000D03*
%TD*%
%TO.P,J18,1,Pin_1*%
%TO.N,N/C*%
X50800000Y-60960000D03*
%TD*%
%TO.P,J3,1,Pin_1*%
%TO.N,/Single_Phase2/en_hs*%
X12700000Y-48255000D03*
D11*
%TO.P,J3,2,Pin_2*%
%TO.N,/Single_Phase2/en_ls*%
X12700000Y-50795000D03*
%TD*%
D10*
%TO.P,J7,1,Pin_1*%
%TO.N,+5V*%
X12700000Y-22855000D03*
D11*
%TO.P,J7,2,Pin_2*%
%TO.N,GND*%
X12700000Y-25395000D03*
%TD*%
D10*
%TO.P,J5,1,Pin_1*%
%TO.N,/Single_Phase1/I_SENSE*%
X12700000Y-38095000D03*
%TD*%
%TO.P,J1,1,Pin_1*%
%TO.N,/Single_Phase/en_hs*%
X12700000Y-30475000D03*
D11*
%TO.P,J1,2,Pin_2*%
%TO.N,/Single_Phase/en_ls*%
X12700000Y-33015000D03*
%TD*%
D10*
%TO.P,J4,1,Pin_1*%
%TO.N,/Single_Phase/I_SENSE*%
X12700000Y-35555000D03*
%TD*%
%TO.P,J2,1,Pin_1*%
%TO.N,/Single_Phase1/en_hs*%
X12700000Y-40635000D03*
D11*
%TO.P,J2,2,Pin_2*%
%TO.N,/Single_Phase1/en_ls*%
X12700000Y-43175000D03*
%TD*%
D10*
%TO.P,J6,1,Pin_1*%
%TO.N,/Single_Phase2/I_SENSE*%
X12700000Y-45715000D03*
%TD*%
%TO.P,J13,1,Pin_1*%
%TO.N,GND*%
X12700000Y-27935000D03*
%TD*%
%TO.P,J13,1,Pin_1*%
%TO.N,GND*%
X50800000Y-12700000D03*
%TD*%
%TO.P,J12,1,Pin_1*%
%TO.N,VD*%
X25400000Y-12700000D03*
%TD*%
%TO.P,J13,1,Pin_1*%
%TO.N,GND*%
X43180000Y-12700000D03*
%TD*%
%TO.P,J14,1,Pin_1*%
%TO.N,GND*%
X45720000Y-12700000D03*
%TD*%
%TO.P,J12,1,Pin_1*%
%TO.N,VD*%
X33020000Y-12700000D03*
%TD*%
%TO.P,J10,1,Pin_1*%
%TO.N,VD*%
X35560000Y-12700000D03*
%TD*%
%TO.P,J15,1,Pin_1*%
%TO.N,GND*%
X48260000Y-12700000D03*
%TD*%
%TO.P,J11,1,Pin_1*%
%TO.N,VD*%
X30480000Y-12700000D03*
%TD*%
%TO.P,J11,1,Pin_1*%
%TO.N,VD*%
X22860000Y-12700000D03*
%TD*%
%TO.P,J14,1,Pin_1*%
%TO.N,GND*%
X38100000Y-12700000D03*
%TD*%
%TO.P,J10,1,Pin_1*%
%TO.N,VD*%
X27940000Y-12700000D03*
%TD*%
%TO.P,J15,1,Pin_1*%
%TO.N,GND*%
X40640000Y-12700000D03*
%TD*%
%TO.P,J18,1,Pin_1*%
%TO.N,/Single_Phase2/OUTPUT*%
X60960000Y-48260000D03*
%TD*%
%TO.P,J17,1,Pin_1*%
%TO.N,/Single_Phase1/OUTPUT*%
X60960000Y-33020000D03*
%TD*%
%TO.P,J16,1,Pin_1*%
%TO.N,/Single_Phase/OUTPUT*%
X60960000Y-27940000D03*
%TD*%
%TO.P,J18,1,Pin_1*%
%TO.N,/Single_Phase2/OUTPUT*%
X60960000Y-43180000D03*
%TD*%
%TO.P,J16,1,Pin_1*%
%TO.N,/Single_Phase/OUTPUT*%
X60960000Y-30480000D03*
%TD*%
%TO.P,J17,1,Pin_1*%
%TO.N,/Single_Phase1/OUTPUT*%
X60960000Y-38100000D03*
%TD*%
%TO.P,J18,1,Pin_1*%
%TO.N,/Single_Phase2/OUTPUT*%
X60960000Y-50800000D03*
%TD*%
%TO.P,J16,1,Pin_1*%
%TO.N,/Single_Phase/OUTPUT*%
X60960000Y-22860000D03*
%TD*%
%TO.P,J17,1,Pin_1*%
%TO.N,/Single_Phase1/OUTPUT*%
X60960000Y-35560000D03*
%TD*%
%TO.P,J17,1,Pin_1*%
%TO.N,/Single_Phase1/OUTPUT*%
X60960000Y-40640000D03*
%TD*%
%TO.P,J16,1,Pin_1*%
%TO.N,/Single_Phase/OUTPUT*%
X60960000Y-25400000D03*
%TD*%
%TO.P,J18,1,Pin_1*%
%TO.N,/Single_Phase2/OUTPUT*%
X60960000Y-45720000D03*
%TD*%
%TO.P,J13,1,Pin_1*%
%TO.N,GND*%
X15240000Y-27940000D03*
%TD*%
%TO.P,J18,1,Pin_1*%
%TO.N,N/C*%
X45720000Y-58420000D03*
%TD*%
%TO.P,J11,1,Pin_1*%
%TO.N,VD*%
X30480000Y-15240000D03*
%TD*%
%TO.P,J14,1,Pin_1*%
%TO.N,GND*%
X38100000Y-15240000D03*
%TD*%
%TO.P,J17,1,Pin_1*%
%TO.N,N/C*%
X38100000Y-58420000D03*
%TD*%
%TO.P,J15,1,Pin_1*%
%TO.N,GND*%
X48260000Y-15240000D03*
%TD*%
%TO.P,J2,1,Pin_1*%
%TO.N,/Single_Phase1/en_hs*%
X15240000Y-40640000D03*
D11*
%TO.P,J2,2,Pin_2*%
%TO.N,/Single_Phase1/en_ls*%
X15240000Y-43180000D03*
%TD*%
D10*
%TO.P,J11,1,Pin_1*%
%TO.N,VD*%
X22860000Y-15240000D03*
%TD*%
%TO.P,J18,1,Pin_1*%
%TO.N,N/C*%
X50800000Y-58420000D03*
%TD*%
%TO.P,J15,1,Pin_1*%
%TO.N,GND*%
X40640000Y-15240000D03*
%TD*%
%TO.P,J6,1,Pin_1*%
%TO.N,/Single_Phase2/I_SENSE*%
X15240000Y-45720000D03*
%TD*%
%TO.P,J18,1,Pin_1*%
%TO.N,/Single_Phase2/OUTPUT*%
X58420000Y-45720000D03*
%TD*%
%TO.P,J18,1,Pin_1*%
%TO.N,N/C*%
X48260000Y-58420000D03*
%TD*%
%TO.P,J10,1,Pin_1*%
%TO.N,VD*%
X27940000Y-15240000D03*
%TD*%
%TO.P,J17,1,Pin_1*%
%TO.N,/Single_Phase1/OUTPUT*%
X58420000Y-38100000D03*
%TD*%
%TO.P,J12,1,Pin_1*%
%TO.N,VD*%
X33020000Y-15240000D03*
%TD*%
%TO.P,J17,1,Pin_1*%
%TO.N,/Single_Phase1/OUTPUT*%
X58420000Y-35560000D03*
%TD*%
%TO.P,J17,1,Pin_1*%
%TO.N,N/C*%
X40640000Y-58420000D03*
%TD*%
%TO.P,J17,1,Pin_1*%
%TO.N,Net-(U5-HO)*%
X33020000Y-58420000D03*
%TD*%
%TO.P,J16,1,Pin_1*%
%TO.N,/Single_Phase/OUTPUT*%
X58420000Y-22860000D03*
%TD*%
%TO.P,J16,1,Pin_1*%
%TO.N,/Single_Phase/OUTPUT*%
X58420000Y-25400000D03*
%TD*%
%TO.P,J18,1,Pin_1*%
%TO.N,/Single_Phase2/OUTPUT*%
X58420000Y-50800000D03*
%TD*%
%TO.P,J1,1,Pin_1*%
%TO.N,/Single_Phase/en_hs*%
X15240000Y-30480000D03*
D11*
%TO.P,J1,2,Pin_2*%
%TO.N,/Single_Phase/en_ls*%
X15240000Y-33020000D03*
%TD*%
D10*
%TO.P,J4,1,Pin_1*%
%TO.N,/Single_Phase/I_SENSE*%
X15240000Y-35560000D03*
%TD*%
%TO.P,J17,1,Pin_1*%
%TO.N,/Single_Phase1/OUTPUT*%
X58420000Y-40640000D03*
%TD*%
%TO.P,J14,1,Pin_1*%
%TO.N,GND*%
X45720000Y-15240000D03*
%TD*%
%TO.P,J10,1,Pin_1*%
%TO.N,VD*%
X35560000Y-15240000D03*
%TD*%
%TO.P,J16,1,Pin_1*%
%TO.N,Net-(U3-LO)*%
X22860000Y-58420000D03*
%TD*%
%TO.P,J16,1,Pin_1*%
%TO.N,Net-(U3-HO)*%
X30480000Y-58420000D03*
%TD*%
%TO.P,J13,1,Pin_1*%
%TO.N,GND*%
X43180000Y-15240000D03*
%TD*%
%TO.P,J5,1,Pin_1*%
%TO.N,/Single_Phase1/I_SENSE*%
X15240000Y-38100000D03*
%TD*%
%TO.P,J7,1,Pin_1*%
%TO.N,+5V*%
X15240000Y-22860000D03*
D11*
%TO.P,J7,2,Pin_2*%
%TO.N,GND*%
X15240000Y-25400000D03*
%TD*%
D10*
%TO.P,J3,1,Pin_1*%
%TO.N,/Single_Phase2/en_hs*%
X15240000Y-48260000D03*
D11*
%TO.P,J3,2,Pin_2*%
%TO.N,/Single_Phase2/en_ls*%
X15240000Y-50800000D03*
%TD*%
D10*
%TO.P,J16,1,Pin_1*%
%TO.N,Net-(U1-LO)*%
X27940000Y-58420000D03*
%TD*%
%TO.P,J13,1,Pin_1*%
%TO.N,GND*%
X50800000Y-15240000D03*
%TD*%
%TO.P,J16,1,Pin_1*%
%TO.N,/Single_Phase/OUTPUT*%
X58420000Y-30480000D03*
%TD*%
%TO.P,J18,1,Pin_1*%
%TO.N,/Single_Phase2/OUTPUT*%
X58420000Y-43180000D03*
%TD*%
%TO.P,J12,1,Pin_1*%
%TO.N,VD*%
X25400000Y-15240000D03*
%TD*%
%TO.P,J16,1,Pin_1*%
%TO.N,Net-(U1-HO)*%
X25400000Y-58420000D03*
%TD*%
%TO.P,J16,1,Pin_1*%
%TO.N,/Single_Phase/OUTPUT*%
X58420000Y-27940000D03*
%TD*%
%TO.P,J17,1,Pin_1*%
%TO.N,/Single_Phase1/OUTPUT*%
X58420000Y-33020000D03*
%TD*%
%TO.P,J18,1,Pin_1*%
%TO.N,/Single_Phase2/OUTPUT*%
X58420000Y-48260000D03*
%TD*%
%TO.P,J17,1,Pin_1*%
%TO.N,Net-(U5-LO)*%
X35560000Y-58420000D03*
%TD*%
%TO.P,J18,1,Pin_1*%
%TO.N,N/C*%
X43180000Y-58420000D03*
%TD*%
D12*
%TO.N,Net-(U3-LO)*%
X26035000Y-44450000D03*
%TO.N,+5V*%
X19104050Y-49475950D03*
X52705000Y-21590000D03*
X20394802Y-24597609D03*
X19050000Y-36830000D03*
X52705000Y-33655000D03*
X52705000Y-46355000D03*
D13*
%TO.N,GND*%
X17780000Y-55900000D03*
D12*
X23495000Y-53975000D03*
D13*
X55930000Y-56140000D03*
D12*
X42545000Y-53975000D03*
X43180000Y-41910000D03*
X23495000Y-29845000D03*
D13*
X55930000Y-18020000D03*
D12*
X43180000Y-28575000D03*
D13*
X17780000Y-17780000D03*
D12*
X24103635Y-41936365D03*
%TO.N,/Single_Phase/OUTPUT_PRE_S*%
X36830000Y-20690500D03*
X23495000Y-19685000D03*
%TO.N,Net-(U1-HO)*%
X21590000Y-23495000D03*
X36195000Y-27940000D03*
%TO.N,Net-(U1-LO)*%
X24130000Y-23495000D03*
X45085000Y-27305000D03*
%TO.N,/Single_Phase/I_SENSE*%
X50165000Y-18415000D03*
X19686043Y-29846043D03*
%TO.N,/Single_Phase1/OUTPUT_PRE_S*%
X36830000Y-33390500D03*
X22860000Y-32385000D03*
%TO.N,/Single_Phase2/OUTPUT_PRE_S*%
X36830000Y-44820500D03*
X22860000Y-43815000D03*
%TO.N,Net-(U3-HO)*%
X36195000Y-41275000D03*
X22860000Y-36963585D03*
%TO.N,Net-(U3-LO)*%
X45085000Y-40640000D03*
X24130000Y-36195000D03*
%TO.N,/Single_Phase1/I_SENSE*%
X50165000Y-31115000D03*
%TO.N,Net-(U5-HO)*%
X36195000Y-53340000D03*
X21590000Y-47625000D03*
%TO.N,Net-(U5-LO)*%
X24130000Y-47625000D03*
X45085000Y-52705000D03*
%TO.N,/Single_Phase2/I_SENSE*%
X50165000Y-43815000D03*
%TD*%
D14*
%TO.N,Net-(U3-LO)*%
X25805000Y-44220000D02*
X26035000Y-44450000D01*
X24535000Y-44220000D02*
X25805000Y-44220000D01*
X22060000Y-41745000D02*
X24535000Y-44220000D01*
X22060000Y-36632214D02*
X22060000Y-41745000D01*
X22528629Y-36163585D02*
X22060000Y-36632214D01*
X24098585Y-36163585D02*
X22528629Y-36163585D01*
X24130000Y-36195000D02*
X24098585Y-36163585D01*
D15*
%TO.N,/Single_Phase2/OUTPUT_PRE_S*%
X23965000Y-44920000D02*
X22860000Y-43815000D01*
X24960533Y-44920000D02*
X23965000Y-44920000D01*
X25735533Y-45695000D02*
X24960533Y-44920000D01*
X36830000Y-44820500D02*
X35955500Y-45695000D01*
X35955500Y-45695000D02*
X25735533Y-45695000D01*
%TO.N,/Single_Phase2/I_SENSE*%
X24629163Y-45720000D02*
X15240000Y-45720000D01*
X25404163Y-46495000D02*
X24629163Y-45720000D01*
X47485000Y-46495000D02*
X25404163Y-46495000D01*
X50165000Y-43815000D02*
X47485000Y-46495000D01*
%TO.N,+5V*%
X25072793Y-47295000D02*
X51765000Y-47295000D01*
X51765000Y-47295000D02*
X52705000Y-46355000D01*
X24502793Y-46725000D02*
X25072793Y-47295000D01*
X21217207Y-46725000D02*
X24502793Y-46725000D01*
%TO.N,Net-(U5-LO)*%
X24600000Y-48095000D02*
X24130000Y-47625000D01*
X40475000Y-48095000D02*
X24600000Y-48095000D01*
X45085000Y-52705000D02*
X40475000Y-48095000D01*
%TO.N,Net-(U5-HO)*%
X22860000Y-48895000D02*
X21590000Y-47625000D01*
X31750000Y-48895000D02*
X22860000Y-48895000D01*
X36195000Y-53340000D02*
X31750000Y-48895000D01*
D14*
%TO.N,+5V*%
X20972207Y-46970000D02*
X21217207Y-46725000D01*
X13970000Y-46950000D02*
X13990000Y-46970000D01*
X13970000Y-39330000D02*
X13970000Y-46950000D01*
X13990000Y-46970000D02*
X20972207Y-46970000D01*
X13970000Y-39330000D02*
X14010000Y-39370000D01*
X14010000Y-39370000D02*
X16510000Y-39370000D01*
X16510000Y-39370000D02*
X19050000Y-36830000D01*
X13970000Y-24130000D02*
X13970000Y-39330000D01*
X15240000Y-22860000D02*
X13970000Y-24130000D01*
D15*
%TO.N,Net-(U3-HO)*%
X32015000Y-37095000D02*
X36195000Y-41275000D01*
X22860000Y-36963585D02*
X22991415Y-37095000D01*
X22991415Y-37095000D02*
X32015000Y-37095000D01*
%TO.N,+5V*%
X19104050Y-48838157D02*
X21217207Y-46725000D01*
X19104050Y-49475950D02*
X19104050Y-48838157D01*
X20585000Y-35295000D02*
X51065000Y-35295000D01*
X20394802Y-24597609D02*
X20394802Y-22785198D01*
X20790000Y-22390000D02*
X51905000Y-22390000D01*
X51065000Y-35295000D02*
X52705000Y-33655000D01*
X51905000Y-22390000D02*
X52705000Y-21590000D01*
X20394802Y-22785198D02*
X20790000Y-22390000D01*
X19050000Y-36830000D02*
X20585000Y-35295000D01*
%TO.N,/Single_Phase/OUTPUT_PRE_S*%
X36830000Y-20690500D02*
X24500500Y-20690500D01*
X24500500Y-20690500D02*
X23495000Y-19685000D01*
%TO.N,Net-(U1-HO)*%
X32650000Y-24395000D02*
X22490000Y-24395000D01*
X22490000Y-24395000D02*
X21590000Y-23495000D01*
X36195000Y-27940000D02*
X32650000Y-24395000D01*
%TO.N,Net-(U1-LO)*%
X45085000Y-27305000D02*
X41275000Y-23495000D01*
X41275000Y-23495000D02*
X24130000Y-23495000D01*
%TO.N,/Single_Phase/I_SENSE*%
X19050000Y-22860000D02*
X20320000Y-21590000D01*
X19686043Y-28678957D02*
X19050000Y-28042914D01*
X19050000Y-28042914D02*
X19050000Y-22860000D01*
X19686043Y-29846043D02*
X19686043Y-28678957D01*
X20320000Y-21590000D02*
X46990000Y-21590000D01*
X46990000Y-21590000D02*
X50165000Y-18415000D01*
%TO.N,/Single_Phase1/OUTPUT_PRE_S*%
X23865500Y-33390500D02*
X22860000Y-32385000D01*
X36830000Y-33390500D02*
X23865500Y-33390500D01*
%TO.N,Net-(U3-LO)*%
X45085000Y-40640000D02*
X40640000Y-36195000D01*
X40640000Y-36195000D02*
X24130000Y-36195000D01*
%TO.N,/Single_Phase1/I_SENSE*%
X19050000Y-34290000D02*
X15240000Y-38100000D01*
X50165000Y-31115000D02*
X46990000Y-34290000D01*
X46990000Y-34290000D02*
X19050000Y-34290000D01*
%TD*%
%TA.AperFunction,Conductor*%
%TO.N,GND*%
G36*
X21452540Y-12720185D02*
G01*
X21498295Y-12772989D01*
X21509501Y-12824500D01*
X21509501Y-13597876D01*
X21515908Y-13657483D01*
X21566202Y-13792328D01*
X21566203Y-13792330D01*
X21592284Y-13827169D01*
X21643576Y-13895687D01*
X21643578Y-13895689D01*
X21667995Y-13961153D01*
X21653144Y-14029426D01*
X21643578Y-14044311D01*
X21566203Y-14147669D01*
X21566202Y-14147671D01*
X21515908Y-14282517D01*
X21509756Y-14339748D01*
X21509501Y-14342123D01*
X21509500Y-14342135D01*
X21509500Y-16137870D01*
X21509501Y-16137876D01*
X21515908Y-16197483D01*
X21566202Y-16332328D01*
X21566206Y-16332335D01*
X21652452Y-16447544D01*
X21652455Y-16447547D01*
X21767664Y-16533793D01*
X21767671Y-16533797D01*
X21902517Y-16584091D01*
X21902516Y-16584091D01*
X21909444Y-16584835D01*
X21962127Y-16590500D01*
X23757872Y-16590499D01*
X23817483Y-16584091D01*
X23952331Y-16533796D01*
X24055690Y-16456421D01*
X24121152Y-16432004D01*
X24189425Y-16446855D01*
X24204303Y-16456416D01*
X24307665Y-16533793D01*
X24307668Y-16533795D01*
X24307671Y-16533797D01*
X24442517Y-16584091D01*
X24442516Y-16584091D01*
X24449444Y-16584835D01*
X24502127Y-16590500D01*
X26297872Y-16590499D01*
X26357483Y-16584091D01*
X26492331Y-16533796D01*
X26595690Y-16456421D01*
X26661152Y-16432004D01*
X26729425Y-16446855D01*
X26744303Y-16456416D01*
X26847665Y-16533793D01*
X26847668Y-16533795D01*
X26847671Y-16533797D01*
X26982517Y-16584091D01*
X26982516Y-16584091D01*
X26989444Y-16584835D01*
X27042127Y-16590500D01*
X28837872Y-16590499D01*
X28897483Y-16584091D01*
X29032331Y-16533796D01*
X29135690Y-16456421D01*
X29201152Y-16432004D01*
X29269425Y-16446855D01*
X29284303Y-16456416D01*
X29387665Y-16533793D01*
X29387668Y-16533795D01*
X29387671Y-16533797D01*
X29522517Y-16584091D01*
X29522516Y-16584091D01*
X29529444Y-16584835D01*
X29582127Y-16590500D01*
X31377872Y-16590499D01*
X31437483Y-16584091D01*
X31572331Y-16533796D01*
X31675690Y-16456421D01*
X31741152Y-16432004D01*
X31809425Y-16446855D01*
X31824303Y-16456416D01*
X31927665Y-16533793D01*
X31927668Y-16533795D01*
X31927671Y-16533797D01*
X32062517Y-16584091D01*
X32062516Y-16584091D01*
X32069444Y-16584835D01*
X32122127Y-16590500D01*
X33917872Y-16590499D01*
X33977483Y-16584091D01*
X34112331Y-16533796D01*
X34215690Y-16456421D01*
X34281152Y-16432004D01*
X34349425Y-16446855D01*
X34364303Y-16456416D01*
X34467665Y-16533793D01*
X34467668Y-16533795D01*
X34467671Y-16533797D01*
X34602517Y-16584091D01*
X34602516Y-16584091D01*
X34609444Y-16584835D01*
X34662127Y-16590500D01*
X36457872Y-16590499D01*
X36517483Y-16584091D01*
X36652331Y-16533796D01*
X36767546Y-16447546D01*
X36853796Y-16332331D01*
X36904091Y-16197483D01*
X36910500Y-16137873D01*
X36910499Y-14342128D01*
X36904091Y-14282517D01*
X36899669Y-14270662D01*
X36853797Y-14147671D01*
X36853793Y-14147664D01*
X36776422Y-14044310D01*
X36752004Y-13978846D01*
X36766855Y-13910573D01*
X36776411Y-13895702D01*
X36853796Y-13792331D01*
X36904091Y-13657483D01*
X36910500Y-13597873D01*
X36910500Y-12824499D01*
X36930185Y-12757461D01*
X36982989Y-12711706D01*
X37034500Y-12700500D01*
X55878720Y-12700500D01*
X55881279Y-12700552D01*
X56097547Y-12709497D01*
X56302732Y-12718456D01*
X56307654Y-12718870D01*
X56525758Y-12746057D01*
X56730849Y-12773058D01*
X56735420Y-12773837D01*
X56950328Y-12818898D01*
X57152714Y-12863766D01*
X57156969Y-12864869D01*
X57367452Y-12927533D01*
X57565378Y-12989939D01*
X57569180Y-12991277D01*
X57773348Y-13070944D01*
X57774453Y-13071388D01*
X57910777Y-13127856D01*
X57965763Y-13150632D01*
X57969246Y-13152202D01*
X58166123Y-13248450D01*
X58167341Y-13249064D01*
X58297930Y-13317045D01*
X58351061Y-13344704D01*
X58354170Y-13346437D01*
X58542329Y-13458555D01*
X58543839Y-13459485D01*
X58718522Y-13570771D01*
X58721203Y-13572580D01*
X58818020Y-13641706D01*
X58899439Y-13699838D01*
X58901155Y-13701109D01*
X59065405Y-13827142D01*
X59067733Y-13829019D01*
X59234843Y-13970554D01*
X59236648Y-13972143D01*
X59389339Y-14112059D01*
X59391255Y-14113893D01*
X59546104Y-14268742D01*
X59547942Y-14270662D01*
X59613435Y-14342135D01*
X59687844Y-14423338D01*
X59689444Y-14425155D01*
X59830979Y-14592265D01*
X59832856Y-14594593D01*
X59958889Y-14758843D01*
X59960160Y-14760559D01*
X60087412Y-14938786D01*
X60089239Y-14941494D01*
X60200490Y-15116123D01*
X60201443Y-15117669D01*
X60313561Y-15305828D01*
X60315294Y-15308937D01*
X60410896Y-15492583D01*
X60411582Y-15493942D01*
X60437400Y-15546754D01*
X60507786Y-15690731D01*
X60509366Y-15694235D01*
X60588596Y-15885512D01*
X60589074Y-15886701D01*
X60621194Y-15969017D01*
X60668708Y-16090785D01*
X60670072Y-16094657D01*
X60732463Y-16292540D01*
X60795124Y-16503013D01*
X60796232Y-16507286D01*
X60841103Y-16709682D01*
X60886157Y-16924559D01*
X60886947Y-16929192D01*
X60913943Y-17134252D01*
X60941126Y-17352322D01*
X60941543Y-17357288D01*
X60950518Y-17562844D01*
X60959446Y-17778718D01*
X60959499Y-17781281D01*
X60959500Y-21385500D01*
X60939815Y-21452539D01*
X60887011Y-21498294D01*
X60835500Y-21509500D01*
X60062129Y-21509500D01*
X60062123Y-21509501D01*
X60002516Y-21515908D01*
X59867671Y-21566202D01*
X59867669Y-21566203D01*
X59778216Y-21633168D01*
X59767651Y-21641078D01*
X59764311Y-21643578D01*
X59698847Y-21667995D01*
X59630574Y-21653144D01*
X59615689Y-21643578D01*
X59612349Y-21641078D01*
X59544117Y-21589999D01*
X59512330Y-21566203D01*
X59512328Y-21566202D01*
X59377482Y-21515908D01*
X59377483Y-21515908D01*
X59317883Y-21509501D01*
X59317881Y-21509500D01*
X59317873Y-21509500D01*
X59317864Y-21509500D01*
X57522129Y-21509500D01*
X57522123Y-21509501D01*
X57462516Y-21515908D01*
X57327671Y-21566202D01*
X57327664Y-21566206D01*
X57212455Y-21652452D01*
X57212452Y-21652455D01*
X57126206Y-21767664D01*
X57126202Y-21767671D01*
X57075908Y-21902517D01*
X57069914Y-21958277D01*
X57069501Y-21962123D01*
X57069500Y-21962135D01*
X57069500Y-23757870D01*
X57069501Y-23757876D01*
X57075908Y-23817483D01*
X57126202Y-23952328D01*
X57126203Y-23952330D01*
X57203578Y-24055689D01*
X57227995Y-24121153D01*
X57213144Y-24189426D01*
X57203578Y-24204311D01*
X57126203Y-24307669D01*
X57126202Y-24307671D01*
X57075908Y-24442517D01*
X57069501Y-24502116D01*
X57069500Y-24502135D01*
X57069500Y-26297870D01*
X57069501Y-26297876D01*
X57075908Y-26357483D01*
X57126202Y-26492328D01*
X57126203Y-26492330D01*
X57203578Y-26595689D01*
X57227995Y-26661153D01*
X57213144Y-26729426D01*
X57203578Y-26744311D01*
X57126203Y-26847669D01*
X57126202Y-26847671D01*
X57075908Y-26982517D01*
X57069501Y-27042116D01*
X57069500Y-27042135D01*
X57069500Y-28837870D01*
X57069501Y-28837876D01*
X57075908Y-28897483D01*
X57126202Y-29032328D01*
X57126203Y-29032330D01*
X57203578Y-29135689D01*
X57227995Y-29201153D01*
X57213144Y-29269426D01*
X57203578Y-29284311D01*
X57126203Y-29387669D01*
X57126202Y-29387671D01*
X57075908Y-29522517D01*
X57069501Y-29582116D01*
X57069501Y-29582123D01*
X57069500Y-29582135D01*
X57069500Y-31377870D01*
X57069501Y-31377876D01*
X57075908Y-31437483D01*
X57126202Y-31572328D01*
X57126203Y-31572330D01*
X57203578Y-31675689D01*
X57227995Y-31741153D01*
X57213144Y-31809426D01*
X57203578Y-31824311D01*
X57126203Y-31927669D01*
X57126202Y-31927671D01*
X57075908Y-32062517D01*
X57069501Y-32122116D01*
X57069500Y-32122135D01*
X57069500Y-33917870D01*
X57069501Y-33917876D01*
X57075908Y-33977483D01*
X57126202Y-34112328D01*
X57126203Y-34112330D01*
X57203578Y-34215689D01*
X57227995Y-34281153D01*
X57213144Y-34349426D01*
X57203578Y-34364311D01*
X57126203Y-34467669D01*
X57126202Y-34467671D01*
X57075908Y-34602517D01*
X57069501Y-34662116D01*
X57069501Y-34662123D01*
X57069500Y-34662135D01*
X57069500Y-36457870D01*
X57069501Y-36457876D01*
X57075908Y-36517483D01*
X57126202Y-36652328D01*
X57126203Y-36652330D01*
X57203578Y-36755689D01*
X57227995Y-36821153D01*
X57213144Y-36889426D01*
X57203578Y-36904311D01*
X57126203Y-37007669D01*
X57126202Y-37007671D01*
X57075908Y-37142517D01*
X57069501Y-37202116D01*
X57069500Y-37202135D01*
X57069500Y-38997870D01*
X57069501Y-38997876D01*
X57075908Y-39057483D01*
X57126202Y-39192328D01*
X57126203Y-39192330D01*
X57203578Y-39295689D01*
X57227995Y-39361153D01*
X57213144Y-39429426D01*
X57203578Y-39444311D01*
X57126203Y-39547669D01*
X57126202Y-39547671D01*
X57075908Y-39682517D01*
X57069501Y-39742116D01*
X57069500Y-39742135D01*
X57069500Y-41537870D01*
X57069501Y-41537876D01*
X57075908Y-41597483D01*
X57126202Y-41732328D01*
X57126203Y-41732330D01*
X57203578Y-41835689D01*
X57227995Y-41901153D01*
X57213144Y-41969426D01*
X57203578Y-41984311D01*
X57126203Y-42087669D01*
X57126202Y-42087671D01*
X57075908Y-42222517D01*
X57069501Y-42282116D01*
X57069500Y-42282135D01*
X57069500Y-44077870D01*
X57069501Y-44077876D01*
X57075908Y-44137483D01*
X57126202Y-44272328D01*
X57126203Y-44272330D01*
X57203578Y-44375689D01*
X57227995Y-44441153D01*
X57213144Y-44509426D01*
X57203578Y-44524311D01*
X57126203Y-44627669D01*
X57126202Y-44627671D01*
X57075908Y-44762517D01*
X57069501Y-44822116D01*
X57069500Y-44822135D01*
X57069500Y-46617870D01*
X57069501Y-46617876D01*
X57075908Y-46677483D01*
X57126202Y-46812328D01*
X57126203Y-46812330D01*
X57203578Y-46915689D01*
X57227995Y-46981153D01*
X57213144Y-47049426D01*
X57203578Y-47064311D01*
X57126203Y-47167669D01*
X57126202Y-47167671D01*
X57075908Y-47302517D01*
X57069501Y-47362116D01*
X57069500Y-47362135D01*
X57069500Y-49157870D01*
X57069501Y-49157876D01*
X57075908Y-49217483D01*
X57126202Y-49352328D01*
X57126203Y-49352330D01*
X57203578Y-49455689D01*
X57227995Y-49521153D01*
X57213144Y-49589426D01*
X57203578Y-49604311D01*
X57126203Y-49707669D01*
X57126202Y-49707671D01*
X57075908Y-49842517D01*
X57069501Y-49902116D01*
X57069500Y-49902135D01*
X57069500Y-51697870D01*
X57069501Y-51697876D01*
X57075908Y-51757483D01*
X57126202Y-51892328D01*
X57126206Y-51892335D01*
X57212452Y-52007544D01*
X57212455Y-52007547D01*
X57327664Y-52093793D01*
X57327671Y-52093797D01*
X57462517Y-52144091D01*
X57462516Y-52144091D01*
X57469444Y-52144835D01*
X57522127Y-52150500D01*
X59317872Y-52150499D01*
X59377483Y-52144091D01*
X59512331Y-52093796D01*
X59615690Y-52016421D01*
X59681152Y-51992004D01*
X59749425Y-52006855D01*
X59764303Y-52016416D01*
X59867665Y-52093793D01*
X59867668Y-52093795D01*
X59867671Y-52093797D01*
X60002517Y-52144091D01*
X60002516Y-52144091D01*
X60009444Y-52144835D01*
X60062127Y-52150500D01*
X60835500Y-52150499D01*
X60902539Y-52170183D01*
X60948294Y-52222987D01*
X60959500Y-52274499D01*
X60959500Y-55878719D01*
X60959447Y-55881281D01*
X60950518Y-56097156D01*
X60941543Y-56302710D01*
X60941126Y-56307676D01*
X60913943Y-56525746D01*
X60886947Y-56730806D01*
X60886157Y-56735439D01*
X60841103Y-56950316D01*
X60796232Y-57152712D01*
X60795124Y-57156985D01*
X60732463Y-57367458D01*
X60670072Y-57565341D01*
X60668700Y-57569237D01*
X60589074Y-57773297D01*
X60588596Y-57774486D01*
X60509366Y-57965763D01*
X60507786Y-57969267D01*
X60411602Y-58166016D01*
X60410896Y-58167415D01*
X60315294Y-58351061D01*
X60313561Y-58354170D01*
X60201443Y-58542329D01*
X60200472Y-58543905D01*
X60089244Y-58718497D01*
X60087412Y-58721212D01*
X59960160Y-58899439D01*
X59958889Y-58901155D01*
X59832856Y-59065405D01*
X59830979Y-59067733D01*
X59689444Y-59234843D01*
X59687844Y-59236660D01*
X59547952Y-59389325D01*
X59546082Y-59391279D01*
X59391279Y-59546082D01*
X59389325Y-59547952D01*
X59236660Y-59687844D01*
X59234843Y-59689444D01*
X59067733Y-59830979D01*
X59065405Y-59832856D01*
X58901155Y-59958889D01*
X58899439Y-59960160D01*
X58721212Y-60087412D01*
X58718497Y-60089244D01*
X58543905Y-60200472D01*
X58542329Y-60201443D01*
X58354170Y-60313561D01*
X58351061Y-60315294D01*
X58167415Y-60410896D01*
X58166016Y-60411602D01*
X57969267Y-60507786D01*
X57965763Y-60509366D01*
X57774486Y-60588596D01*
X57773297Y-60589074D01*
X57569237Y-60668700D01*
X57565341Y-60670072D01*
X57367458Y-60732463D01*
X57156985Y-60795124D01*
X57152712Y-60796232D01*
X56950316Y-60841103D01*
X56735439Y-60886157D01*
X56730806Y-60886947D01*
X56525746Y-60913943D01*
X56307676Y-60941126D01*
X56302710Y-60941543D01*
X56097266Y-60950513D01*
X55887125Y-60959205D01*
X55881280Y-60959447D01*
X55878720Y-60959500D01*
X52274499Y-60959500D01*
X52207460Y-60939815D01*
X52161705Y-60887011D01*
X52150499Y-60835500D01*
X52150499Y-60062129D01*
X52150498Y-60062123D01*
X52150497Y-60062116D01*
X52144091Y-60002517D01*
X52093796Y-59867669D01*
X52016421Y-59764309D01*
X51992004Y-59698848D01*
X52006855Y-59630575D01*
X52016416Y-59615696D01*
X52093796Y-59512331D01*
X52144091Y-59377483D01*
X52150500Y-59317873D01*
X52150499Y-57522128D01*
X52144091Y-57462517D01*
X52108636Y-57367458D01*
X52093797Y-57327671D01*
X52093793Y-57327664D01*
X52007547Y-57212455D01*
X52007544Y-57212452D01*
X51892335Y-57126206D01*
X51892328Y-57126202D01*
X51757482Y-57075908D01*
X51757483Y-57075908D01*
X51697883Y-57069501D01*
X51697881Y-57069500D01*
X51697873Y-57069500D01*
X51697864Y-57069500D01*
X49902129Y-57069500D01*
X49902123Y-57069501D01*
X49842516Y-57075908D01*
X49707671Y-57126202D01*
X49707669Y-57126203D01*
X49604311Y-57203578D01*
X49538847Y-57227995D01*
X49470574Y-57213144D01*
X49455689Y-57203578D01*
X49352330Y-57126203D01*
X49352328Y-57126202D01*
X49217482Y-57075908D01*
X49217483Y-57075908D01*
X49157883Y-57069501D01*
X49157881Y-57069500D01*
X49157873Y-57069500D01*
X49157864Y-57069500D01*
X47362129Y-57069500D01*
X47362123Y-57069501D01*
X47302516Y-57075908D01*
X47167671Y-57126202D01*
X47167669Y-57126203D01*
X47064311Y-57203578D01*
X46998847Y-57227995D01*
X46930574Y-57213144D01*
X46915689Y-57203578D01*
X46812330Y-57126203D01*
X46812328Y-57126202D01*
X46677482Y-57075908D01*
X46677483Y-57075908D01*
X46617883Y-57069501D01*
X46617881Y-57069500D01*
X46617873Y-57069500D01*
X46617864Y-57069500D01*
X44822129Y-57069500D01*
X44822123Y-57069501D01*
X44762516Y-57075908D01*
X44627671Y-57126202D01*
X44627669Y-57126203D01*
X44524311Y-57203578D01*
X44458847Y-57227995D01*
X44390574Y-57213144D01*
X44375689Y-57203578D01*
X44272330Y-57126203D01*
X44272328Y-57126202D01*
X44137482Y-57075908D01*
X44137483Y-57075908D01*
X44077883Y-57069501D01*
X44077881Y-57069500D01*
X44077873Y-57069500D01*
X44077864Y-57069500D01*
X42282129Y-57069500D01*
X42282123Y-57069501D01*
X42222516Y-57075908D01*
X42087671Y-57126202D01*
X42087669Y-57126203D01*
X41984311Y-57203578D01*
X41918847Y-57227995D01*
X41850574Y-57213144D01*
X41835689Y-57203578D01*
X41732330Y-57126203D01*
X41732328Y-57126202D01*
X41597482Y-57075908D01*
X41597483Y-57075908D01*
X41537883Y-57069501D01*
X41537881Y-57069500D01*
X41537873Y-57069500D01*
X41537864Y-57069500D01*
X39742129Y-57069500D01*
X39742123Y-57069501D01*
X39682516Y-57075908D01*
X39547671Y-57126202D01*
X39547669Y-57126203D01*
X39444311Y-57203578D01*
X39378847Y-57227995D01*
X39310574Y-57213144D01*
X39295689Y-57203578D01*
X39192330Y-57126203D01*
X39192328Y-57126202D01*
X39057482Y-57075908D01*
X39057483Y-57075908D01*
X38997883Y-57069501D01*
X38997881Y-57069500D01*
X38997873Y-57069500D01*
X38997864Y-57069500D01*
X37202129Y-57069500D01*
X37202123Y-57069501D01*
X37142516Y-57075908D01*
X37007671Y-57126202D01*
X37007669Y-57126203D01*
X36904311Y-57203578D01*
X36838847Y-57227995D01*
X36770574Y-57213144D01*
X36755689Y-57203578D01*
X36652330Y-57126203D01*
X36652328Y-57126202D01*
X36517482Y-57075908D01*
X36517483Y-57075908D01*
X36457883Y-57069501D01*
X36457881Y-57069500D01*
X36457873Y-57069500D01*
X36457864Y-57069500D01*
X34662129Y-57069500D01*
X34662123Y-57069501D01*
X34602516Y-57075908D01*
X34467671Y-57126202D01*
X34467669Y-57126203D01*
X34364311Y-57203578D01*
X34298847Y-57227995D01*
X34230574Y-57213144D01*
X34215689Y-57203578D01*
X34112330Y-57126203D01*
X34112328Y-57126202D01*
X33977482Y-57075908D01*
X33977483Y-57075908D01*
X33917883Y-57069501D01*
X33917881Y-57069500D01*
X33917873Y-57069500D01*
X33917864Y-57069500D01*
X32122129Y-57069500D01*
X32122123Y-57069501D01*
X32062516Y-57075908D01*
X31927671Y-57126202D01*
X31927669Y-57126203D01*
X31824311Y-57203578D01*
X31758847Y-57227995D01*
X31690574Y-57213144D01*
X31675689Y-57203578D01*
X31572330Y-57126203D01*
X31572328Y-57126202D01*
X31437482Y-57075908D01*
X31437483Y-57075908D01*
X31377883Y-57069501D01*
X31377881Y-57069500D01*
X31377873Y-57069500D01*
X31377864Y-57069500D01*
X29582129Y-57069500D01*
X29582123Y-57069501D01*
X29522516Y-57075908D01*
X29387671Y-57126202D01*
X29387669Y-57126203D01*
X29284311Y-57203578D01*
X29218847Y-57227995D01*
X29150574Y-57213144D01*
X29135689Y-57203578D01*
X29032330Y-57126203D01*
X29032328Y-57126202D01*
X28897482Y-57075908D01*
X28897483Y-57075908D01*
X28837883Y-57069501D01*
X28837881Y-57069500D01*
X28837873Y-57069500D01*
X28837864Y-57069500D01*
X27042129Y-57069500D01*
X27042123Y-57069501D01*
X26982516Y-57075908D01*
X26847671Y-57126202D01*
X26847669Y-57126203D01*
X26744311Y-57203578D01*
X26678847Y-57227995D01*
X26610574Y-57213144D01*
X26595689Y-57203578D01*
X26492330Y-57126203D01*
X26492328Y-57126202D01*
X26357482Y-57075908D01*
X26357483Y-57075908D01*
X26297883Y-57069501D01*
X26297881Y-57069500D01*
X26297873Y-57069500D01*
X26297864Y-57069500D01*
X24502129Y-57069500D01*
X24502123Y-57069501D01*
X24442516Y-57075908D01*
X24307671Y-57126202D01*
X24307669Y-57126203D01*
X24204311Y-57203578D01*
X24138847Y-57227995D01*
X24070574Y-57213144D01*
X24055689Y-57203578D01*
X23952330Y-57126203D01*
X23952328Y-57126202D01*
X23817482Y-57075908D01*
X23817483Y-57075908D01*
X23757883Y-57069501D01*
X23757881Y-57069500D01*
X23757873Y-57069500D01*
X23757864Y-57069500D01*
X21962129Y-57069500D01*
X21962123Y-57069501D01*
X21902516Y-57075908D01*
X21767671Y-57126202D01*
X21767664Y-57126206D01*
X21652455Y-57212452D01*
X21652452Y-57212455D01*
X21566206Y-57327664D01*
X21566202Y-57327671D01*
X21515908Y-57462517D01*
X21509501Y-57522116D01*
X21509501Y-57522123D01*
X21509500Y-57522135D01*
X21509500Y-59317870D01*
X21509501Y-59317876D01*
X21515908Y-59377483D01*
X21566202Y-59512328D01*
X21566203Y-59512330D01*
X21643578Y-59615689D01*
X21667995Y-59681153D01*
X21653144Y-59749426D01*
X21643578Y-59764311D01*
X21566203Y-59867669D01*
X21566202Y-59867671D01*
X21515908Y-60002517D01*
X21509501Y-60062116D01*
X21509501Y-60062123D01*
X21509500Y-60062135D01*
X21509500Y-60835500D01*
X21489815Y-60902539D01*
X21437011Y-60948294D01*
X21385500Y-60959500D01*
X17781280Y-60959500D01*
X17778719Y-60959447D01*
X17772264Y-60959180D01*
X17562732Y-60950513D01*
X17357288Y-60941543D01*
X17352322Y-60941126D01*
X17134252Y-60913943D01*
X16929192Y-60886947D01*
X16924559Y-60886157D01*
X16709682Y-60841103D01*
X16507286Y-60796232D01*
X16503013Y-60795124D01*
X16292540Y-60732463D01*
X16094657Y-60670072D01*
X16090785Y-60668708D01*
X15958255Y-60616995D01*
X15886701Y-60589074D01*
X15885512Y-60588596D01*
X15694235Y-60509366D01*
X15690731Y-60507786D01*
X15636184Y-60481119D01*
X15493942Y-60411582D01*
X15492583Y-60410896D01*
X15308937Y-60315294D01*
X15305828Y-60313561D01*
X15117669Y-60201443D01*
X15116123Y-60200490D01*
X14941494Y-60089239D01*
X14938786Y-60087412D01*
X14760559Y-59960160D01*
X14758843Y-59958889D01*
X14594593Y-59832856D01*
X14592265Y-59830979D01*
X14425155Y-59689444D01*
X14423338Y-59687844D01*
X14270673Y-59547952D01*
X14268742Y-59546104D01*
X14113893Y-59391255D01*
X14112059Y-59389339D01*
X13972143Y-59236648D01*
X13970554Y-59234843D01*
X13829019Y-59067733D01*
X13827142Y-59065405D01*
X13701109Y-58901155D01*
X13699838Y-58899439D01*
X13572580Y-58721203D01*
X13570771Y-58718522D01*
X13459485Y-58543839D01*
X13458555Y-58542329D01*
X13346437Y-58354170D01*
X13344704Y-58351061D01*
X13317045Y-58297930D01*
X13249064Y-58167341D01*
X13248450Y-58166123D01*
X13152202Y-57969246D01*
X13150632Y-57965763D01*
X13071402Y-57774486D01*
X13070943Y-57773346D01*
X12991277Y-57569180D01*
X12989939Y-57565378D01*
X12927529Y-57367438D01*
X12915688Y-57327664D01*
X12864869Y-57156969D01*
X12863766Y-57152712D01*
X12846739Y-57075908D01*
X12818896Y-56950316D01*
X12773837Y-56735420D01*
X12773058Y-56730849D01*
X12746055Y-56525746D01*
X12718870Y-56307654D01*
X12718456Y-56302732D01*
X12709502Y-56097672D01*
X12700552Y-55881280D01*
X12700500Y-55878719D01*
X12700500Y-52264239D01*
X12720185Y-52197200D01*
X12772989Y-52151445D01*
X12813688Y-52140712D01*
X12935408Y-52130063D01*
X13163663Y-52068903D01*
X13377830Y-51969035D01*
X13571401Y-51833495D01*
X13738495Y-51666401D01*
X13866674Y-51483341D01*
X13921251Y-51439717D01*
X13990749Y-51432523D01*
X14053104Y-51464046D01*
X14069823Y-51483340D01*
X14201505Y-51671401D01*
X14368599Y-51838495D01*
X14465384Y-51906265D01*
X14562165Y-51974032D01*
X14562167Y-51974033D01*
X14562170Y-51974035D01*
X14776337Y-52073903D01*
X15004592Y-52135063D01*
X15181034Y-52150500D01*
X15239999Y-52155659D01*
X15240000Y-52155659D01*
X15240001Y-52155659D01*
X15288165Y-52151445D01*
X15475408Y-52135063D01*
X15703663Y-52073903D01*
X15917830Y-51974035D01*
X16111401Y-51838495D01*
X16278495Y-51671401D01*
X16414035Y-51477830D01*
X16513903Y-51263663D01*
X16575063Y-51035408D01*
X16595659Y-50800000D01*
X16575063Y-50564592D01*
X16513903Y-50336337D01*
X16414035Y-50122171D01*
X16406674Y-50111659D01*
X16278496Y-49928600D01*
X16252012Y-49902116D01*
X16156567Y-49806671D01*
X16123084Y-49745351D01*
X16128068Y-49675659D01*
X16169939Y-49619725D01*
X16200915Y-49602810D01*
X16332331Y-49553796D01*
X16447546Y-49467546D01*
X16533796Y-49352331D01*
X16584091Y-49217483D01*
X16590500Y-49157873D01*
X16590499Y-47794499D01*
X16610184Y-47727461D01*
X16662987Y-47681706D01*
X16714499Y-47670500D01*
X18840267Y-47670500D01*
X18907306Y-47690185D01*
X18953061Y-47742989D01*
X18963005Y-47812147D01*
X18933980Y-47875703D01*
X18927953Y-47882175D01*
X18754768Y-48055360D01*
X18584347Y-48225781D01*
X18584346Y-48225781D01*
X18584347Y-48225782D01*
X18474233Y-48335896D01*
X18452016Y-48371253D01*
X18447991Y-48376926D01*
X18421960Y-48409567D01*
X18403841Y-48447190D01*
X18400477Y-48453277D01*
X18378262Y-48488633D01*
X18378258Y-48488640D01*
X18364466Y-48528052D01*
X18361805Y-48534477D01*
X18343689Y-48572096D01*
X18334394Y-48612816D01*
X18332469Y-48619498D01*
X18318682Y-48658901D01*
X18314005Y-48700392D01*
X18312841Y-48707246D01*
X18303550Y-48747963D01*
X18303550Y-49028229D01*
X18286938Y-49090227D01*
X18276871Y-49107663D01*
X18241189Y-49217482D01*
X18218376Y-49287694D01*
X18198590Y-49475950D01*
X18218376Y-49664206D01*
X18218377Y-49664209D01*
X18276868Y-49844227D01*
X18276871Y-49844234D01*
X18371517Y-50008166D01*
X18464703Y-50111659D01*
X18498179Y-50148838D01*
X18651315Y-50260098D01*
X18651320Y-50260101D01*
X18824242Y-50337092D01*
X18824247Y-50337094D01*
X19009404Y-50376450D01*
X19009405Y-50376450D01*
X19198694Y-50376450D01*
X19198696Y-50376450D01*
X19383853Y-50337094D01*
X19556780Y-50260101D01*
X19709921Y-50148838D01*
X19836583Y-50008166D01*
X19931229Y-49844234D01*
X19989724Y-49664206D01*
X20009510Y-49475950D01*
X19989724Y-49287694D01*
X19963387Y-49206641D01*
X19961392Y-49136804D01*
X19993636Y-49080647D01*
X20793310Y-48280973D01*
X20854631Y-48247490D01*
X20924323Y-48252474D01*
X20973138Y-48285682D01*
X20984127Y-48297886D01*
X20984130Y-48297889D01*
X21137265Y-48409148D01*
X21137270Y-48409151D01*
X21305190Y-48483915D01*
X21342435Y-48509513D01*
X22247619Y-49414698D01*
X22247625Y-49414703D01*
X22357738Y-49524816D01*
X22393089Y-49547028D01*
X22398765Y-49551055D01*
X22431411Y-49577090D01*
X22431412Y-49577091D01*
X22452548Y-49587269D01*
X22469035Y-49595208D01*
X22475112Y-49598567D01*
X22486146Y-49605500D01*
X22510477Y-49620789D01*
X22549891Y-49634581D01*
X22556320Y-49637244D01*
X22593941Y-49655361D01*
X22634641Y-49664650D01*
X22641328Y-49666576D01*
X22680742Y-49680367D01*
X22680745Y-49680368D01*
X22722241Y-49685043D01*
X22729093Y-49686207D01*
X22769806Y-49695500D01*
X22815046Y-49695500D01*
X31367060Y-49695500D01*
X31434099Y-49715185D01*
X31454741Y-49731819D01*
X35316262Y-53593340D01*
X35346512Y-53642703D01*
X35367818Y-53708277D01*
X35367821Y-53708284D01*
X35462467Y-53872216D01*
X35589129Y-54012888D01*
X35742265Y-54124148D01*
X35742270Y-54124151D01*
X35915192Y-54201142D01*
X35915197Y-54201144D01*
X36100354Y-54240500D01*
X36100355Y-54240500D01*
X36289644Y-54240500D01*
X36289646Y-54240500D01*
X36474803Y-54201144D01*
X36647730Y-54124151D01*
X36800871Y-54012888D01*
X36927533Y-53872216D01*
X37022179Y-53708284D01*
X37080674Y-53528256D01*
X37100460Y-53340000D01*
X37080674Y-53151744D01*
X37022179Y-52971716D01*
X36927533Y-52807784D01*
X36800871Y-52667112D01*
X36800870Y-52667111D01*
X36647734Y-52555851D01*
X36647729Y-52555848D01*
X36479809Y-52481084D01*
X36442564Y-52455486D01*
X33094259Y-49107181D01*
X33060774Y-49045858D01*
X33065758Y-48976166D01*
X33107630Y-48920233D01*
X33173094Y-48895816D01*
X33181940Y-48895500D01*
X40092060Y-48895500D01*
X40159099Y-48915185D01*
X40179741Y-48931819D01*
X44206262Y-52958340D01*
X44236512Y-53007703D01*
X44257818Y-53073277D01*
X44257821Y-53073284D01*
X44352467Y-53237216D01*
X44479129Y-53377888D01*
X44632265Y-53489148D01*
X44632270Y-53489151D01*
X44805192Y-53566142D01*
X44805197Y-53566144D01*
X44990354Y-53605500D01*
X44990355Y-53605500D01*
X45179644Y-53605500D01*
X45179646Y-53605500D01*
X45364803Y-53566144D01*
X45537730Y-53489151D01*
X45690871Y-53377888D01*
X45817533Y-53237216D01*
X45912179Y-53073284D01*
X45970674Y-52893256D01*
X45990460Y-52705000D01*
X45970674Y-52516744D01*
X45912179Y-52336716D01*
X45817533Y-52172784D01*
X45690871Y-52032112D01*
X45690870Y-52032111D01*
X45537734Y-51920851D01*
X45537729Y-51920848D01*
X45369809Y-51846084D01*
X45332564Y-51820486D01*
X41819259Y-48307181D01*
X41785774Y-48245858D01*
X41790758Y-48176166D01*
X41832630Y-48120233D01*
X41898094Y-48095816D01*
X41906940Y-48095500D01*
X51855194Y-48095500D01*
X51895903Y-48086208D01*
X51902760Y-48085043D01*
X51944255Y-48080368D01*
X51983680Y-48066571D01*
X51990321Y-48064658D01*
X52031061Y-48055360D01*
X52068693Y-48037236D01*
X52075105Y-48034580D01*
X52114522Y-48020789D01*
X52149889Y-47998565D01*
X52155961Y-47995209D01*
X52193587Y-47977091D01*
X52226236Y-47951052D01*
X52231895Y-47947037D01*
X52267262Y-47924816D01*
X52394816Y-47797262D01*
X52952566Y-47239510D01*
X52989801Y-47213918D01*
X53157730Y-47139151D01*
X53310871Y-47027888D01*
X53437533Y-46887216D01*
X53532179Y-46723284D01*
X53590674Y-46543256D01*
X53610460Y-46355000D01*
X53590674Y-46166744D01*
X53532179Y-45986716D01*
X53437533Y-45822784D01*
X53310871Y-45682112D01*
X53277933Y-45658181D01*
X53157734Y-45570851D01*
X53157729Y-45570848D01*
X52984807Y-45493857D01*
X52984802Y-45493855D01*
X52839001Y-45462865D01*
X52799646Y-45454500D01*
X52610354Y-45454500D01*
X52577897Y-45461398D01*
X52425197Y-45493855D01*
X52425192Y-45493857D01*
X52252270Y-45570848D01*
X52252265Y-45570851D01*
X52099129Y-45682111D01*
X51972466Y-45822785D01*
X51877821Y-45986715D01*
X51877816Y-45986725D01*
X51856510Y-46052298D01*
X51826261Y-46101659D01*
X51469741Y-46458181D01*
X51408418Y-46491666D01*
X51382060Y-46494500D01*
X48916940Y-46494500D01*
X48849901Y-46474815D01*
X48804146Y-46422011D01*
X48794202Y-46352853D01*
X48823227Y-46289297D01*
X48829259Y-46282819D01*
X49125363Y-45986715D01*
X50412566Y-44699510D01*
X50449801Y-44673918D01*
X50617730Y-44599151D01*
X50770871Y-44487888D01*
X50897533Y-44347216D01*
X50992179Y-44183284D01*
X51050674Y-44003256D01*
X51070460Y-43815000D01*
X51050674Y-43626744D01*
X50992179Y-43446716D01*
X50897533Y-43282784D01*
X50770871Y-43142112D01*
X50763904Y-43137050D01*
X50617734Y-43030851D01*
X50617729Y-43030848D01*
X50444807Y-42953857D01*
X50444802Y-42953855D01*
X50299000Y-42922865D01*
X50259646Y-42914500D01*
X50070354Y-42914500D01*
X50037897Y-42921398D01*
X49885197Y-42953855D01*
X49885192Y-42953857D01*
X49712270Y-43030848D01*
X49712265Y-43030851D01*
X49559129Y-43142111D01*
X49432466Y-43282785D01*
X49337821Y-43446715D01*
X49337816Y-43446725D01*
X49316510Y-43512298D01*
X49286261Y-43561659D01*
X47189741Y-45658181D01*
X47128418Y-45691666D01*
X47102060Y-45694500D01*
X37533297Y-45694500D01*
X37466258Y-45674815D01*
X37420503Y-45622011D01*
X37410559Y-45552853D01*
X37439584Y-45489297D01*
X37441147Y-45487528D01*
X37562533Y-45352716D01*
X37657179Y-45188784D01*
X37715674Y-45008756D01*
X37735460Y-44820500D01*
X37715674Y-44632244D01*
X37657179Y-44452216D01*
X37562533Y-44288284D01*
X37435871Y-44147612D01*
X37421930Y-44137483D01*
X37282734Y-44036351D01*
X37282729Y-44036348D01*
X37109807Y-43959357D01*
X37109802Y-43959355D01*
X36964000Y-43928365D01*
X36924646Y-43920000D01*
X36735354Y-43920000D01*
X36702897Y-43926898D01*
X36550197Y-43959355D01*
X36550192Y-43959357D01*
X36377270Y-44036348D01*
X36377265Y-44036351D01*
X36224129Y-44147611D01*
X36097466Y-44288285D01*
X36002821Y-44452215D01*
X36002816Y-44452225D01*
X35981510Y-44517798D01*
X35951261Y-44567159D01*
X35660239Y-44858182D01*
X35598919Y-44891666D01*
X35572560Y-44894500D01*
X27008087Y-44894500D01*
X26941048Y-44874815D01*
X26895293Y-44822011D01*
X26885349Y-44752853D01*
X26890156Y-44732182D01*
X26901345Y-44697741D01*
X26920674Y-44638256D01*
X26940460Y-44450000D01*
X26920674Y-44261744D01*
X26862179Y-44081716D01*
X26767533Y-43917784D01*
X26640871Y-43777112D01*
X26640870Y-43777111D01*
X26487734Y-43665851D01*
X26487729Y-43665848D01*
X26314807Y-43588857D01*
X26314802Y-43588855D01*
X26169001Y-43557865D01*
X26129646Y-43549500D01*
X26129645Y-43549500D01*
X26043632Y-43549500D01*
X26021269Y-43547467D01*
X26014932Y-43546305D01*
X26013452Y-43546033D01*
X26004945Y-43544474D01*
X25983343Y-43538451D01*
X25973874Y-43534860D01*
X25973870Y-43534859D01*
X25912313Y-43527384D01*
X25908612Y-43526821D01*
X25847608Y-43515642D01*
X25847603Y-43515642D01*
X25785697Y-43519387D01*
X25781952Y-43519500D01*
X24876518Y-43519500D01*
X24809479Y-43499815D01*
X24788837Y-43483181D01*
X22796819Y-41491162D01*
X22763334Y-41429839D01*
X22760500Y-41403481D01*
X22760500Y-38018400D01*
X22780185Y-37951361D01*
X22832989Y-37905606D01*
X22894257Y-37895840D01*
X22894257Y-37895500D01*
X22896391Y-37895500D01*
X22898392Y-37895181D01*
X22901220Y-37895499D01*
X22901221Y-37895500D01*
X22946461Y-37895500D01*
X31632060Y-37895500D01*
X31699099Y-37915185D01*
X31719741Y-37931819D01*
X35316260Y-41528337D01*
X35346509Y-41577698D01*
X35367817Y-41643274D01*
X35367821Y-41643284D01*
X35462467Y-41807216D01*
X35576441Y-41933797D01*
X35589129Y-41947888D01*
X35742265Y-42059148D01*
X35742270Y-42059151D01*
X35915192Y-42136142D01*
X35915197Y-42136144D01*
X36100354Y-42175500D01*
X36100355Y-42175500D01*
X36289644Y-42175500D01*
X36289646Y-42175500D01*
X36474803Y-42136144D01*
X36647730Y-42059151D01*
X36800871Y-41947888D01*
X36927533Y-41807216D01*
X37022179Y-41643284D01*
X37080674Y-41463256D01*
X37100460Y-41275000D01*
X37080674Y-41086744D01*
X37022179Y-40906716D01*
X36927533Y-40742784D01*
X36800871Y-40602112D01*
X36800870Y-40602111D01*
X36647734Y-40490851D01*
X36647729Y-40490848D01*
X36479808Y-40416084D01*
X36442563Y-40390486D01*
X33259259Y-37207181D01*
X33225774Y-37145858D01*
X33230758Y-37076166D01*
X33272630Y-37020233D01*
X33338094Y-36995816D01*
X33346940Y-36995500D01*
X40257060Y-36995500D01*
X40324099Y-37015185D01*
X40344741Y-37031819D01*
X44206262Y-40893340D01*
X44236512Y-40942703D01*
X44257818Y-41008277D01*
X44257821Y-41008284D01*
X44352467Y-41172216D01*
X44479129Y-41312888D01*
X44632265Y-41424148D01*
X44632270Y-41424151D01*
X44805192Y-41501142D01*
X44805197Y-41501144D01*
X44990354Y-41540500D01*
X44990355Y-41540500D01*
X45179644Y-41540500D01*
X45179646Y-41540500D01*
X45364803Y-41501144D01*
X45537730Y-41424151D01*
X45690871Y-41312888D01*
X45817533Y-41172216D01*
X45912179Y-41008284D01*
X45970674Y-40828256D01*
X45990460Y-40640000D01*
X45970674Y-40451744D01*
X45912179Y-40271716D01*
X45817533Y-40107784D01*
X45690871Y-39967112D01*
X45690870Y-39967111D01*
X45537734Y-39855851D01*
X45537729Y-39855848D01*
X45369809Y-39781084D01*
X45332564Y-39755486D01*
X41884259Y-36307181D01*
X41850774Y-36245858D01*
X41855758Y-36176166D01*
X41897630Y-36120233D01*
X41963094Y-36095816D01*
X41971940Y-36095500D01*
X51155194Y-36095500D01*
X51195903Y-36086208D01*
X51202760Y-36085043D01*
X51244255Y-36080368D01*
X51283680Y-36066571D01*
X51290321Y-36064658D01*
X51331061Y-36055360D01*
X51368693Y-36037236D01*
X51375105Y-36034580D01*
X51414522Y-36020789D01*
X51449889Y-35998565D01*
X51455961Y-35995209D01*
X51493587Y-35977091D01*
X51526236Y-35951052D01*
X51531895Y-35947037D01*
X51567262Y-35924816D01*
X51694816Y-35797262D01*
X51753375Y-35738703D01*
X51753388Y-35738688D01*
X52952566Y-34539510D01*
X52989801Y-34513918D01*
X53157730Y-34439151D01*
X53310871Y-34327888D01*
X53437533Y-34187216D01*
X53532179Y-34023284D01*
X53590674Y-33843256D01*
X53610460Y-33655000D01*
X53590674Y-33466744D01*
X53532179Y-33286716D01*
X53437533Y-33122784D01*
X53310871Y-32982112D01*
X53310870Y-32982111D01*
X53157734Y-32870851D01*
X53157729Y-32870848D01*
X52984807Y-32793857D01*
X52984802Y-32793855D01*
X52839001Y-32762865D01*
X52799646Y-32754500D01*
X52610354Y-32754500D01*
X52577897Y-32761398D01*
X52425197Y-32793855D01*
X52425192Y-32793857D01*
X52252270Y-32870848D01*
X52252265Y-32870851D01*
X52099129Y-32982111D01*
X51972466Y-33122785D01*
X51877821Y-33286715D01*
X51877816Y-33286725D01*
X51856510Y-33352298D01*
X51826261Y-33401659D01*
X50769741Y-34458181D01*
X50708418Y-34491666D01*
X50682060Y-34494500D01*
X48216940Y-34494500D01*
X48149901Y-34474815D01*
X48104146Y-34422011D01*
X48094202Y-34352853D01*
X48123227Y-34289297D01*
X48129259Y-34282819D01*
X48624340Y-33787738D01*
X50412566Y-31999510D01*
X50449801Y-31973918D01*
X50617730Y-31899151D01*
X50770871Y-31787888D01*
X50897533Y-31647216D01*
X50992179Y-31483284D01*
X51050674Y-31303256D01*
X51070460Y-31115000D01*
X51050674Y-30926744D01*
X50992179Y-30746716D01*
X50897533Y-30582784D01*
X50770871Y-30442112D01*
X50682985Y-30378259D01*
X50617734Y-30330851D01*
X50617729Y-30330848D01*
X50444807Y-30253857D01*
X50444802Y-30253855D01*
X50299000Y-30222865D01*
X50259646Y-30214500D01*
X50070354Y-30214500D01*
X50037897Y-30221398D01*
X49885197Y-30253855D01*
X49885192Y-30253857D01*
X49712270Y-30330848D01*
X49712265Y-30330851D01*
X49559129Y-30442111D01*
X49432466Y-30582785D01*
X49337821Y-30746715D01*
X49337816Y-30746725D01*
X49316510Y-30812298D01*
X49286261Y-30861659D01*
X46694741Y-33453181D01*
X46633418Y-33486666D01*
X46607060Y-33489500D01*
X37857515Y-33489500D01*
X37790476Y-33469815D01*
X37744721Y-33417011D01*
X37734195Y-33378465D01*
X37715674Y-33202244D01*
X37657179Y-33022216D01*
X37562533Y-32858284D01*
X37435871Y-32717612D01*
X37435870Y-32717611D01*
X37282734Y-32606351D01*
X37282729Y-32606348D01*
X37109807Y-32529357D01*
X37109802Y-32529355D01*
X36964001Y-32498365D01*
X36924646Y-32490000D01*
X36735354Y-32490000D01*
X36702897Y-32496898D01*
X36550197Y-32529355D01*
X36550192Y-32529357D01*
X36438069Y-32579279D01*
X36387633Y-32590000D01*
X24248440Y-32590000D01*
X24181401Y-32570315D01*
X24160759Y-32553681D01*
X23738736Y-32131658D01*
X23708486Y-32082294D01*
X23690414Y-32026674D01*
X23687179Y-32016716D01*
X23687177Y-32016712D01*
X23592534Y-31852785D01*
X23465870Y-31712111D01*
X23312734Y-31600851D01*
X23312729Y-31600848D01*
X23139807Y-31523857D01*
X23139802Y-31523855D01*
X22994001Y-31492865D01*
X22954646Y-31484500D01*
X22765354Y-31484500D01*
X22732897Y-31491398D01*
X22580197Y-31523855D01*
X22580192Y-31523857D01*
X22407270Y-31600848D01*
X22407265Y-31600851D01*
X22254129Y-31712111D01*
X22127466Y-31852785D01*
X22032821Y-32016715D01*
X22032818Y-32016722D01*
X21989969Y-32148599D01*
X21974326Y-32196744D01*
X21954540Y-32385000D01*
X21974326Y-32573256D01*
X21974327Y-32573259D01*
X22032818Y-32753277D01*
X22032821Y-32753284D01*
X22127467Y-32917216D01*
X22222009Y-33022215D01*
X22254129Y-33057888D01*
X22407265Y-33169148D01*
X22407270Y-33169151D01*
X22575190Y-33243915D01*
X22612435Y-33269513D01*
X22620741Y-33277819D01*
X22654226Y-33339142D01*
X22649242Y-33408834D01*
X22607370Y-33464767D01*
X22541906Y-33489184D01*
X22533060Y-33489500D01*
X19140195Y-33489500D01*
X18959806Y-33489500D01*
X18953888Y-33490850D01*
X18919089Y-33498791D01*
X18912235Y-33499955D01*
X18870743Y-33504632D01*
X18831339Y-33518419D01*
X18824658Y-33520344D01*
X18783935Y-33529641D01*
X18746308Y-33547759D01*
X18739885Y-33550420D01*
X18700481Y-33564210D01*
X18700475Y-33564212D01*
X18665122Y-33586425D01*
X18659036Y-33589789D01*
X18621416Y-33607906D01*
X18621412Y-33607908D01*
X18588767Y-33633941D01*
X18583095Y-33637966D01*
X18547738Y-33660183D01*
X18420184Y-33787738D01*
X18420182Y-33787740D01*
X16802180Y-35405741D01*
X16740857Y-35439226D01*
X16671165Y-35434242D01*
X16615232Y-35392370D01*
X16590815Y-35326906D01*
X16590499Y-35318060D01*
X16590499Y-34662129D01*
X16590498Y-34662123D01*
X16590497Y-34662116D01*
X16584091Y-34602517D01*
X16551044Y-34513914D01*
X16533797Y-34467671D01*
X16533793Y-34467664D01*
X16447547Y-34352455D01*
X16447544Y-34352452D01*
X16332335Y-34266206D01*
X16332328Y-34266202D01*
X16200917Y-34217189D01*
X16144983Y-34175318D01*
X16120566Y-34109853D01*
X16135418Y-34041580D01*
X16156563Y-34013332D01*
X16278495Y-33891401D01*
X16414035Y-33697830D01*
X16513903Y-33483663D01*
X16575063Y-33255408D01*
X16595659Y-33020000D01*
X16575063Y-32784592D01*
X16513903Y-32556337D01*
X16414035Y-32342171D01*
X16312206Y-32196744D01*
X16278496Y-32148600D01*
X16240504Y-32110608D01*
X16156567Y-32026671D01*
X16123084Y-31965351D01*
X16128068Y-31895659D01*
X16169939Y-31839725D01*
X16200915Y-31822810D01*
X16332331Y-31773796D01*
X16447546Y-31687546D01*
X16533796Y-31572331D01*
X16584091Y-31437483D01*
X16590500Y-31377873D01*
X16590499Y-29582128D01*
X16584091Y-29522517D01*
X16567397Y-29477759D01*
X16533797Y-29387671D01*
X16533793Y-29387664D01*
X16447547Y-29272455D01*
X16447544Y-29272452D01*
X16332335Y-29186206D01*
X16332328Y-29186202D01*
X16197482Y-29135908D01*
X16197483Y-29135908D01*
X16137883Y-29129501D01*
X16137881Y-29129500D01*
X16137873Y-29129500D01*
X16137865Y-29129500D01*
X14794500Y-29129500D01*
X14727461Y-29109815D01*
X14681706Y-29057011D01*
X14670500Y-29005500D01*
X14670500Y-28133105D01*
X18249500Y-28133105D01*
X18249501Y-28133114D01*
X18258791Y-28173822D01*
X18259955Y-28180677D01*
X18264632Y-28222173D01*
X18278420Y-28261576D01*
X18280345Y-28268259D01*
X18289639Y-28308975D01*
X18307759Y-28346602D01*
X18310421Y-28353028D01*
X18324212Y-28392439D01*
X18346422Y-28427786D01*
X18349787Y-28433873D01*
X18367910Y-28471503D01*
X18393940Y-28504143D01*
X18397966Y-28509818D01*
X18420182Y-28545173D01*
X18420184Y-28545176D01*
X18849224Y-28974216D01*
X18882709Y-29035539D01*
X18885543Y-29061897D01*
X18885543Y-29398322D01*
X18868931Y-29460320D01*
X18858864Y-29477756D01*
X18800370Y-29657783D01*
X18800369Y-29657787D01*
X18780583Y-29846043D01*
X18800369Y-30034299D01*
X18800370Y-30034302D01*
X18858861Y-30214320D01*
X18858864Y-30214327D01*
X18953510Y-30378259D01*
X19011003Y-30442111D01*
X19080172Y-30518931D01*
X19233308Y-30630191D01*
X19233313Y-30630194D01*
X19406235Y-30707185D01*
X19406240Y-30707187D01*
X19591397Y-30746543D01*
X19591398Y-30746543D01*
X19780687Y-30746543D01*
X19780689Y-30746543D01*
X19965846Y-30707187D01*
X20138773Y-30630194D01*
X20291914Y-30518931D01*
X20418576Y-30378259D01*
X20513222Y-30214327D01*
X20571717Y-30034299D01*
X20591503Y-29846043D01*
X20571717Y-29657787D01*
X20513222Y-29477759D01*
X20513221Y-29477758D01*
X20513221Y-29477756D01*
X20503155Y-29460320D01*
X20486543Y-29398322D01*
X20486543Y-28588764D01*
X20486543Y-28588763D01*
X20477250Y-28548050D01*
X20476085Y-28541190D01*
X20471411Y-28499702D01*
X20471410Y-28499699D01*
X20457619Y-28460285D01*
X20455693Y-28453598D01*
X20446403Y-28412896D01*
X20428281Y-28375264D01*
X20425626Y-28368856D01*
X20411832Y-28329435D01*
X20389617Y-28294080D01*
X20386251Y-28287990D01*
X20376749Y-28268259D01*
X20368135Y-28250371D01*
X20362020Y-28242703D01*
X20342103Y-28217727D01*
X20338076Y-28212053D01*
X20315859Y-28176695D01*
X20188305Y-28049141D01*
X19886819Y-27747654D01*
X19853334Y-27686331D01*
X19850500Y-27659973D01*
X19850500Y-25531933D01*
X19870185Y-25464894D01*
X19922989Y-25419139D01*
X19992147Y-25409195D01*
X20024936Y-25418654D01*
X20056843Y-25432860D01*
X20114999Y-25458753D01*
X20300156Y-25498109D01*
X20300157Y-25498109D01*
X20489446Y-25498109D01*
X20489448Y-25498109D01*
X20674605Y-25458753D01*
X20847532Y-25381760D01*
X21000673Y-25270497D01*
X21127335Y-25129825D01*
X21221981Y-24965893D01*
X21280476Y-24785865D01*
X21297841Y-24620636D01*
X21324424Y-24556026D01*
X21381721Y-24516041D01*
X21451540Y-24513381D01*
X21508842Y-24545921D01*
X21877619Y-24914698D01*
X21877625Y-24914703D01*
X21987738Y-25024816D01*
X22023089Y-25047028D01*
X22028765Y-25051055D01*
X22061411Y-25077090D01*
X22061412Y-25077091D01*
X22082548Y-25087269D01*
X22099035Y-25095208D01*
X22105112Y-25098567D01*
X22122635Y-25109577D01*
X22140477Y-25120789D01*
X22179891Y-25134581D01*
X22186320Y-25137244D01*
X22223941Y-25155361D01*
X22264641Y-25164650D01*
X22271328Y-25166576D01*
X22310742Y-25180367D01*
X22310745Y-25180368D01*
X22352241Y-25185043D01*
X22359093Y-25186207D01*
X22399806Y-25195500D01*
X22445046Y-25195500D01*
X32267060Y-25195500D01*
X32334099Y-25215185D01*
X32354741Y-25231819D01*
X35316262Y-28193340D01*
X35346512Y-28242703D01*
X35367818Y-28308277D01*
X35367821Y-28308284D01*
X35462467Y-28472216D01*
X35556965Y-28577166D01*
X35589129Y-28612888D01*
X35742265Y-28724148D01*
X35742270Y-28724151D01*
X35915192Y-28801142D01*
X35915197Y-28801144D01*
X36100354Y-28840500D01*
X36100355Y-28840500D01*
X36289644Y-28840500D01*
X36289646Y-28840500D01*
X36474803Y-28801144D01*
X36647730Y-28724151D01*
X36800871Y-28612888D01*
X36927533Y-28472216D01*
X37022179Y-28308284D01*
X37080674Y-28128256D01*
X37100460Y-27940000D01*
X37080674Y-27751744D01*
X37022179Y-27571716D01*
X36927533Y-27407784D01*
X36800871Y-27267112D01*
X36800870Y-27267111D01*
X36647734Y-27155851D01*
X36647729Y-27155848D01*
X36479809Y-27081084D01*
X36442564Y-27055486D01*
X33894259Y-24507181D01*
X33860774Y-24445858D01*
X33865758Y-24376166D01*
X33907630Y-24320233D01*
X33973094Y-24295816D01*
X33981940Y-24295500D01*
X40892060Y-24295500D01*
X40959099Y-24315185D01*
X40979741Y-24331819D01*
X44206260Y-27558337D01*
X44236509Y-27607698D01*
X44257817Y-27673274D01*
X44257821Y-27673284D01*
X44352467Y-27837216D01*
X44456467Y-27952719D01*
X44479129Y-27977888D01*
X44632265Y-28089148D01*
X44632270Y-28089151D01*
X44805192Y-28166142D01*
X44805197Y-28166144D01*
X44990354Y-28205500D01*
X44990355Y-28205500D01*
X45179644Y-28205500D01*
X45179646Y-28205500D01*
X45364803Y-28166144D01*
X45537730Y-28089151D01*
X45690871Y-27977888D01*
X45817533Y-27837216D01*
X45912179Y-27673284D01*
X45970674Y-27493256D01*
X45990460Y-27305000D01*
X45970674Y-27116744D01*
X45912179Y-26936716D01*
X45817533Y-26772784D01*
X45690871Y-26632112D01*
X45657059Y-26607546D01*
X45537734Y-26520851D01*
X45537729Y-26520848D01*
X45369808Y-26446084D01*
X45332563Y-26420486D01*
X42314259Y-23402181D01*
X42280774Y-23340858D01*
X42285758Y-23271166D01*
X42327630Y-23215233D01*
X42393094Y-23190816D01*
X42401940Y-23190500D01*
X51995194Y-23190500D01*
X52035903Y-23181208D01*
X52042760Y-23180043D01*
X52084255Y-23175368D01*
X52123680Y-23161571D01*
X52130321Y-23159658D01*
X52171061Y-23150360D01*
X52208693Y-23132236D01*
X52215105Y-23129580D01*
X52254522Y-23115789D01*
X52289889Y-23093565D01*
X52295961Y-23090209D01*
X52333587Y-23072091D01*
X52366236Y-23046052D01*
X52371895Y-23042037D01*
X52407262Y-23019816D01*
X52534816Y-22892262D01*
X52534816Y-22892261D01*
X52952566Y-22474510D01*
X52989801Y-22448918D01*
X53157730Y-22374151D01*
X53310871Y-22262888D01*
X53437533Y-22122216D01*
X53532179Y-21958284D01*
X53590674Y-21778256D01*
X53610460Y-21590000D01*
X53590674Y-21401744D01*
X53532179Y-21221716D01*
X53437533Y-21057784D01*
X53310871Y-20917112D01*
X53310870Y-20917111D01*
X53157734Y-20805851D01*
X53157729Y-20805848D01*
X52984807Y-20728857D01*
X52984802Y-20728855D01*
X52839001Y-20697865D01*
X52799646Y-20689500D01*
X52610354Y-20689500D01*
X52577897Y-20696398D01*
X52425197Y-20728855D01*
X52425192Y-20728857D01*
X52252270Y-20805848D01*
X52252265Y-20805851D01*
X52099129Y-20917111D01*
X51972466Y-21057785D01*
X51877821Y-21221715D01*
X51877816Y-21221725D01*
X51856510Y-21287298D01*
X51826261Y-21336659D01*
X51609739Y-21553182D01*
X51548419Y-21586666D01*
X51522060Y-21589500D01*
X48421940Y-21589500D01*
X48354901Y-21569815D01*
X48309146Y-21517011D01*
X48299202Y-21447853D01*
X48328227Y-21384297D01*
X48334259Y-21377819D01*
X48847870Y-20864208D01*
X50412566Y-19299510D01*
X50449801Y-19273918D01*
X50617730Y-19199151D01*
X50770871Y-19087888D01*
X50897533Y-18947216D01*
X50992179Y-18783284D01*
X51050674Y-18603256D01*
X51070460Y-18415000D01*
X51050674Y-18226744D01*
X50992179Y-18046716D01*
X50897533Y-17882784D01*
X50770871Y-17742112D01*
X50770870Y-17742111D01*
X50617734Y-17630851D01*
X50617729Y-17630848D01*
X50444807Y-17553857D01*
X50444802Y-17553855D01*
X50299001Y-17522865D01*
X50259646Y-17514500D01*
X50070354Y-17514500D01*
X50037897Y-17521398D01*
X49885197Y-17553855D01*
X49885192Y-17553857D01*
X49712270Y-17630848D01*
X49712265Y-17630851D01*
X49559129Y-17742111D01*
X49432466Y-17882785D01*
X49337821Y-18046715D01*
X49337816Y-18046725D01*
X49316510Y-18112298D01*
X49286261Y-18161659D01*
X46694741Y-20753181D01*
X46633418Y-20786666D01*
X46607060Y-20789500D01*
X37857515Y-20789500D01*
X37790476Y-20769815D01*
X37744721Y-20717011D01*
X37734195Y-20678465D01*
X37715674Y-20502244D01*
X37657179Y-20322216D01*
X37562533Y-20158284D01*
X37435871Y-20017612D01*
X37435870Y-20017611D01*
X37282734Y-19906351D01*
X37282729Y-19906348D01*
X37109807Y-19829357D01*
X37109802Y-19829355D01*
X36964000Y-19798365D01*
X36924646Y-19790000D01*
X36735354Y-19790000D01*
X36702897Y-19796898D01*
X36550197Y-19829355D01*
X36550192Y-19829357D01*
X36438069Y-19879279D01*
X36387633Y-19890000D01*
X24883440Y-19890000D01*
X24816401Y-19870315D01*
X24795759Y-19853681D01*
X24373736Y-19431658D01*
X24343486Y-19382294D01*
X24322179Y-19316716D01*
X24322177Y-19316712D01*
X24227534Y-19152785D01*
X24100870Y-19012111D01*
X23947734Y-18900851D01*
X23947729Y-18900848D01*
X23774807Y-18823857D01*
X23774802Y-18823855D01*
X23629000Y-18792865D01*
X23589646Y-18784500D01*
X23400354Y-18784500D01*
X23367897Y-18791398D01*
X23215197Y-18823855D01*
X23215192Y-18823857D01*
X23042270Y-18900848D01*
X23042265Y-18900851D01*
X22889129Y-19012111D01*
X22762466Y-19152785D01*
X22667821Y-19316715D01*
X22667818Y-19316722D01*
X22609327Y-19496740D01*
X22609326Y-19496744D01*
X22589540Y-19685000D01*
X22609326Y-19873256D01*
X22609327Y-19873259D01*
X22667818Y-20053277D01*
X22667821Y-20053284D01*
X22762467Y-20217216D01*
X22857009Y-20322215D01*
X22889129Y-20357888D01*
X23042265Y-20469148D01*
X23042270Y-20469151D01*
X23210190Y-20543915D01*
X23247435Y-20569513D01*
X23255741Y-20577819D01*
X23289226Y-20639142D01*
X23284242Y-20708834D01*
X23242370Y-20764767D01*
X23176906Y-20789184D01*
X23168060Y-20789500D01*
X20410194Y-20789500D01*
X20229806Y-20789500D01*
X20223888Y-20790850D01*
X20189089Y-20798791D01*
X20182235Y-20799955D01*
X20140744Y-20804632D01*
X20101341Y-20818419D01*
X20094659Y-20820344D01*
X20053939Y-20829639D01*
X20016320Y-20847755D01*
X20009895Y-20850416D01*
X19970483Y-20864208D01*
X19970476Y-20864212D01*
X19935120Y-20886427D01*
X19929033Y-20889791D01*
X19891410Y-20907910D01*
X19858769Y-20933941D01*
X19853096Y-20937966D01*
X19817739Y-20960183D01*
X19768307Y-21009614D01*
X19768306Y-21009615D01*
X18547738Y-22230184D01*
X18420186Y-22357735D01*
X18420183Y-22357739D01*
X18397966Y-22393096D01*
X18393941Y-22398769D01*
X18367910Y-22431410D01*
X18349791Y-22469033D01*
X18346427Y-22475120D01*
X18324212Y-22510476D01*
X18324208Y-22510483D01*
X18310416Y-22549895D01*
X18307755Y-22556320D01*
X18289639Y-22593939D01*
X18280344Y-22634659D01*
X18278419Y-22641341D01*
X18264632Y-22680744D01*
X18259955Y-22722235D01*
X18258791Y-22729089D01*
X18249500Y-22769806D01*
X18249500Y-28133105D01*
X14670500Y-28133105D01*
X14670499Y-24471518D01*
X14690184Y-24404479D01*
X14706809Y-24383846D01*
X14843840Y-24246815D01*
X14905161Y-24213333D01*
X14931519Y-24210499D01*
X16137871Y-24210499D01*
X16137872Y-24210499D01*
X16197483Y-24204091D01*
X16332331Y-24153796D01*
X16447546Y-24067546D01*
X16533796Y-23952331D01*
X16584091Y-23817483D01*
X16590500Y-23757873D01*
X16590499Y-21962128D01*
X16584091Y-21902517D01*
X16533796Y-21767669D01*
X16533795Y-21767668D01*
X16533793Y-21767664D01*
X16447547Y-21652455D01*
X16447544Y-21652452D01*
X16332335Y-21566206D01*
X16332328Y-21566202D01*
X16197482Y-21515908D01*
X16197483Y-21515908D01*
X16137883Y-21509501D01*
X16137881Y-21509500D01*
X16137873Y-21509500D01*
X16137864Y-21509500D01*
X14342129Y-21509500D01*
X14342123Y-21509501D01*
X14282516Y-21515908D01*
X14147671Y-21566202D01*
X14147668Y-21566204D01*
X14047650Y-21641078D01*
X13982186Y-21665495D01*
X13913913Y-21650643D01*
X13899028Y-21641077D01*
X13792335Y-21561206D01*
X13792328Y-21561202D01*
X13657482Y-21510908D01*
X13657483Y-21510908D01*
X13597883Y-21504501D01*
X13597881Y-21504500D01*
X13597873Y-21504500D01*
X13597865Y-21504500D01*
X12824500Y-21504500D01*
X12757461Y-21484815D01*
X12711706Y-21432011D01*
X12700500Y-21380500D01*
X12700500Y-17781279D01*
X12700553Y-17778716D01*
X12702067Y-17742111D01*
X12709492Y-17562583D01*
X12718457Y-17357263D01*
X12718869Y-17352349D01*
X12746064Y-17134185D01*
X12773059Y-16929141D01*
X12773835Y-16924588D01*
X12818906Y-16709633D01*
X12863769Y-16507271D01*
X12864865Y-16503044D01*
X12927543Y-16292513D01*
X12989945Y-16094602D01*
X12991270Y-16090838D01*
X13070973Y-15886578D01*
X13071361Y-15885612D01*
X13150640Y-15694216D01*
X13152190Y-15690777D01*
X13248483Y-15493808D01*
X13249031Y-15492722D01*
X13344712Y-15308921D01*
X13346428Y-15305842D01*
X13458593Y-15117606D01*
X13459448Y-15116218D01*
X13570794Y-14941441D01*
X13572555Y-14938831D01*
X13699882Y-14760499D01*
X13701074Y-14758889D01*
X13827169Y-14594559D01*
X13828999Y-14592289D01*
X13970561Y-14425146D01*
X13972098Y-14423400D01*
X14112103Y-14270613D01*
X14113848Y-14268789D01*
X14268789Y-14113848D01*
X14270613Y-14112103D01*
X14423400Y-13972098D01*
X14425155Y-13970554D01*
X14425809Y-13970000D01*
X14592289Y-13828999D01*
X14594559Y-13827169D01*
X14758889Y-13701074D01*
X14760499Y-13699882D01*
X14938831Y-13572555D01*
X14941441Y-13570794D01*
X15116218Y-13459448D01*
X15117606Y-13458593D01*
X15305842Y-13346428D01*
X15308921Y-13344712D01*
X15492722Y-13249031D01*
X15493808Y-13248483D01*
X15690777Y-13152190D01*
X15694216Y-13150640D01*
X15885612Y-13071361D01*
X15886578Y-13070973D01*
X16090838Y-12991270D01*
X16094602Y-12989945D01*
X16292513Y-12927543D01*
X16503044Y-12864865D01*
X16507271Y-12863769D01*
X16709633Y-12818906D01*
X16924588Y-12773835D01*
X16929141Y-12773059D01*
X17134185Y-12746064D01*
X17352349Y-12718869D01*
X17357263Y-12718457D01*
X17562682Y-12709488D01*
X17778720Y-12700552D01*
X17781280Y-12700500D01*
X21385501Y-12700500D01*
X21452540Y-12720185D01*
G37*
%TD.AperFunction*%
%TA.AperFunction,Conductor*%
G36*
X13212539Y-24225184D02*
G01*
X13258294Y-24277988D01*
X13269500Y-24329499D01*
X13269500Y-29000500D01*
X13249815Y-29067539D01*
X13197011Y-29113294D01*
X13145500Y-29124500D01*
X12824500Y-29124500D01*
X12757461Y-29104815D01*
X12711706Y-29052011D01*
X12700500Y-29000500D01*
X12700500Y-24329499D01*
X12720185Y-24262460D01*
X12772989Y-24216705D01*
X12824500Y-24205499D01*
X13145500Y-24205499D01*
X13212539Y-24225184D01*
G37*
%TD.AperFunction*%
%TD*%
M02*
