%TF.GenerationSoftware,KiCad,Pcbnew,7.0.5*%
%TF.CreationDate,2024-12-02T20:01:48-05:00*%
%TF.ProjectId,eddie_bldc,65646469-655f-4626-9c64-632e6b696361,rev?*%
%TF.SameCoordinates,Original*%
%TF.FileFunction,Legend,Top*%
%TF.FilePolarity,Positive*%
%FSLAX46Y46*%
G04 Gerber Fmt 4.6, Leading zero omitted, Abs format (unit mm)*
G04 Created by KiCad (PCBNEW 7.0.5) date 2024-12-02 20:01:48*
%MOMM*%
%LPD*%
G01*
G04 APERTURE LIST*
%ADD10C,0.450000*%
%ADD11C,0.150000*%
%ADD12C,0.300000*%
%ADD13C,0.120000*%
G04 APERTURE END LIST*
D10*
X21530243Y-53975000D02*
G75*
G03*
X19685000Y-52129757I-1845243J0D01*
G01*
X53975000Y-52070000D02*
G75*
G03*
X52070000Y-53975000I0J-1905000D01*
G01*
X52164326Y-19685000D02*
G75*
G03*
X54010301Y-21530975I1845975J0D01*
G01*
X19685000Y-21530243D02*
G75*
G03*
X21530243Y-19685000I0J1845243D01*
G01*
D11*
X24323922Y-55384819D02*
X24895350Y-55384819D01*
X24609636Y-56384819D02*
X24609636Y-55384819D01*
X25228684Y-55861009D02*
X25562017Y-55861009D01*
X25704874Y-56384819D02*
X25228684Y-56384819D01*
X25228684Y-56384819D02*
X25228684Y-55384819D01*
X25228684Y-55384819D02*
X25704874Y-55384819D01*
X26085827Y-56337200D02*
X26228684Y-56384819D01*
X26228684Y-56384819D02*
X26466779Y-56384819D01*
X26466779Y-56384819D02*
X26562017Y-56337200D01*
X26562017Y-56337200D02*
X26609636Y-56289580D01*
X26609636Y-56289580D02*
X26657255Y-56194342D01*
X26657255Y-56194342D02*
X26657255Y-56099104D01*
X26657255Y-56099104D02*
X26609636Y-56003866D01*
X26609636Y-56003866D02*
X26562017Y-55956247D01*
X26562017Y-55956247D02*
X26466779Y-55908628D01*
X26466779Y-55908628D02*
X26276303Y-55861009D01*
X26276303Y-55861009D02*
X26181065Y-55813390D01*
X26181065Y-55813390D02*
X26133446Y-55765771D01*
X26133446Y-55765771D02*
X26085827Y-55670533D01*
X26085827Y-55670533D02*
X26085827Y-55575295D01*
X26085827Y-55575295D02*
X26133446Y-55480057D01*
X26133446Y-55480057D02*
X26181065Y-55432438D01*
X26181065Y-55432438D02*
X26276303Y-55384819D01*
X26276303Y-55384819D02*
X26514398Y-55384819D01*
X26514398Y-55384819D02*
X26657255Y-55432438D01*
X26942970Y-55384819D02*
X27514398Y-55384819D01*
X27228684Y-56384819D02*
X27228684Y-55384819D01*
X28609637Y-56384819D02*
X28609637Y-55384819D01*
X28609637Y-55384819D02*
X28990589Y-55384819D01*
X28990589Y-55384819D02*
X29085827Y-55432438D01*
X29085827Y-55432438D02*
X29133446Y-55480057D01*
X29133446Y-55480057D02*
X29181065Y-55575295D01*
X29181065Y-55575295D02*
X29181065Y-55718152D01*
X29181065Y-55718152D02*
X29133446Y-55813390D01*
X29133446Y-55813390D02*
X29085827Y-55861009D01*
X29085827Y-55861009D02*
X28990589Y-55908628D01*
X28990589Y-55908628D02*
X28609637Y-55908628D01*
X29800113Y-55384819D02*
X29990589Y-55384819D01*
X29990589Y-55384819D02*
X30085827Y-55432438D01*
X30085827Y-55432438D02*
X30181065Y-55527676D01*
X30181065Y-55527676D02*
X30228684Y-55718152D01*
X30228684Y-55718152D02*
X30228684Y-56051485D01*
X30228684Y-56051485D02*
X30181065Y-56241961D01*
X30181065Y-56241961D02*
X30085827Y-56337200D01*
X30085827Y-56337200D02*
X29990589Y-56384819D01*
X29990589Y-56384819D02*
X29800113Y-56384819D01*
X29800113Y-56384819D02*
X29704875Y-56337200D01*
X29704875Y-56337200D02*
X29609637Y-56241961D01*
X29609637Y-56241961D02*
X29562018Y-56051485D01*
X29562018Y-56051485D02*
X29562018Y-55718152D01*
X29562018Y-55718152D02*
X29609637Y-55527676D01*
X29609637Y-55527676D02*
X29704875Y-55432438D01*
X29704875Y-55432438D02*
X29800113Y-55384819D01*
X30657256Y-56384819D02*
X30657256Y-55384819D01*
X31133446Y-56384819D02*
X31133446Y-55384819D01*
X31133446Y-55384819D02*
X31704874Y-56384819D01*
X31704874Y-56384819D02*
X31704874Y-55384819D01*
X32038208Y-55384819D02*
X32609636Y-55384819D01*
X32323922Y-56384819D02*
X32323922Y-55384819D01*
X32895351Y-56337200D02*
X33038208Y-56384819D01*
X33038208Y-56384819D02*
X33276303Y-56384819D01*
X33276303Y-56384819D02*
X33371541Y-56337200D01*
X33371541Y-56337200D02*
X33419160Y-56289580D01*
X33419160Y-56289580D02*
X33466779Y-56194342D01*
X33466779Y-56194342D02*
X33466779Y-56099104D01*
X33466779Y-56099104D02*
X33419160Y-56003866D01*
X33419160Y-56003866D02*
X33371541Y-55956247D01*
X33371541Y-55956247D02*
X33276303Y-55908628D01*
X33276303Y-55908628D02*
X33085827Y-55861009D01*
X33085827Y-55861009D02*
X32990589Y-55813390D01*
X32990589Y-55813390D02*
X32942970Y-55765771D01*
X32942970Y-55765771D02*
X32895351Y-55670533D01*
X32895351Y-55670533D02*
X32895351Y-55575295D01*
X32895351Y-55575295D02*
X32942970Y-55480057D01*
X32942970Y-55480057D02*
X32990589Y-55432438D01*
X32990589Y-55432438D02*
X33085827Y-55384819D01*
X33085827Y-55384819D02*
X33323922Y-55384819D01*
X33323922Y-55384819D02*
X33466779Y-55432438D01*
X41611779Y-55384819D02*
X41611779Y-56194342D01*
X41611779Y-56194342D02*
X41659398Y-56289580D01*
X41659398Y-56289580D02*
X41707017Y-56337200D01*
X41707017Y-56337200D02*
X41802255Y-56384819D01*
X41802255Y-56384819D02*
X41992731Y-56384819D01*
X41992731Y-56384819D02*
X42087969Y-56337200D01*
X42087969Y-56337200D02*
X42135588Y-56289580D01*
X42135588Y-56289580D02*
X42183207Y-56194342D01*
X42183207Y-56194342D02*
X42183207Y-55384819D01*
X42659398Y-56384819D02*
X42659398Y-55384819D01*
X42659398Y-55384819D02*
X43230826Y-56384819D01*
X43230826Y-56384819D02*
X43230826Y-55384819D01*
X43707017Y-55384819D02*
X43707017Y-56194342D01*
X43707017Y-56194342D02*
X43754636Y-56289580D01*
X43754636Y-56289580D02*
X43802255Y-56337200D01*
X43802255Y-56337200D02*
X43897493Y-56384819D01*
X43897493Y-56384819D02*
X44087969Y-56384819D01*
X44087969Y-56384819D02*
X44183207Y-56337200D01*
X44183207Y-56337200D02*
X44230826Y-56289580D01*
X44230826Y-56289580D02*
X44278445Y-56194342D01*
X44278445Y-56194342D02*
X44278445Y-55384819D01*
X44707017Y-56337200D02*
X44849874Y-56384819D01*
X44849874Y-56384819D02*
X45087969Y-56384819D01*
X45087969Y-56384819D02*
X45183207Y-56337200D01*
X45183207Y-56337200D02*
X45230826Y-56289580D01*
X45230826Y-56289580D02*
X45278445Y-56194342D01*
X45278445Y-56194342D02*
X45278445Y-56099104D01*
X45278445Y-56099104D02*
X45230826Y-56003866D01*
X45230826Y-56003866D02*
X45183207Y-55956247D01*
X45183207Y-55956247D02*
X45087969Y-55908628D01*
X45087969Y-55908628D02*
X44897493Y-55861009D01*
X44897493Y-55861009D02*
X44802255Y-55813390D01*
X44802255Y-55813390D02*
X44754636Y-55765771D01*
X44754636Y-55765771D02*
X44707017Y-55670533D01*
X44707017Y-55670533D02*
X44707017Y-55575295D01*
X44707017Y-55575295D02*
X44754636Y-55480057D01*
X44754636Y-55480057D02*
X44802255Y-55432438D01*
X44802255Y-55432438D02*
X44897493Y-55384819D01*
X44897493Y-55384819D02*
X45135588Y-55384819D01*
X45135588Y-55384819D02*
X45278445Y-55432438D01*
X45707017Y-55861009D02*
X46040350Y-55861009D01*
X46183207Y-56384819D02*
X45707017Y-56384819D01*
X45707017Y-56384819D02*
X45707017Y-55384819D01*
X45707017Y-55384819D02*
X46183207Y-55384819D01*
X46611779Y-56384819D02*
X46611779Y-55384819D01*
X46611779Y-55384819D02*
X46849874Y-55384819D01*
X46849874Y-55384819D02*
X46992731Y-55432438D01*
X46992731Y-55432438D02*
X47087969Y-55527676D01*
X47087969Y-55527676D02*
X47135588Y-55622914D01*
X47135588Y-55622914D02*
X47183207Y-55813390D01*
X47183207Y-55813390D02*
X47183207Y-55956247D01*
X47183207Y-55956247D02*
X47135588Y-56146723D01*
X47135588Y-56146723D02*
X47087969Y-56241961D01*
X47087969Y-56241961D02*
X46992731Y-56337200D01*
X46992731Y-56337200D02*
X46849874Y-56384819D01*
X46849874Y-56384819D02*
X46611779Y-56384819D01*
D10*
X52070000Y-53975000D02*
X52070000Y-62925000D01*
X36770000Y-53280000D02*
X36770000Y-62230000D01*
X21530243Y-53975000D02*
X21530243Y-62925000D01*
D12*
X18971389Y-51378678D02*
X18876151Y-51473917D01*
X18876151Y-51473917D02*
X18590437Y-51569155D01*
X18590437Y-51569155D02*
X18399961Y-51569155D01*
X18399961Y-51569155D02*
X18114246Y-51473917D01*
X18114246Y-51473917D02*
X17923770Y-51283440D01*
X17923770Y-51283440D02*
X17828532Y-51092964D01*
X17828532Y-51092964D02*
X17733294Y-50712012D01*
X17733294Y-50712012D02*
X17733294Y-50426297D01*
X17733294Y-50426297D02*
X17828532Y-50045345D01*
X17828532Y-50045345D02*
X17923770Y-49854869D01*
X17923770Y-49854869D02*
X18114246Y-49664393D01*
X18114246Y-49664393D02*
X18399961Y-49569155D01*
X18399961Y-49569155D02*
X18590437Y-49569155D01*
X18590437Y-49569155D02*
X18876151Y-49664393D01*
X18876151Y-49664393D02*
X18971389Y-49759631D01*
X18485225Y-42507019D02*
X18770939Y-42602257D01*
X18770939Y-42602257D02*
X18866177Y-42697495D01*
X18866177Y-42697495D02*
X18961415Y-42887971D01*
X18961415Y-42887971D02*
X18961415Y-43173685D01*
X18961415Y-43173685D02*
X18866177Y-43364161D01*
X18866177Y-43364161D02*
X18770939Y-43459400D01*
X18770939Y-43459400D02*
X18580463Y-43554638D01*
X18580463Y-43554638D02*
X17818558Y-43554638D01*
X17818558Y-43554638D02*
X17818558Y-41554638D01*
X17818558Y-41554638D02*
X18485225Y-41554638D01*
X18485225Y-41554638D02*
X18675701Y-41649876D01*
X18675701Y-41649876D02*
X18770939Y-41745114D01*
X18770939Y-41745114D02*
X18866177Y-41935590D01*
X18866177Y-41935590D02*
X18866177Y-42126066D01*
X18866177Y-42126066D02*
X18770939Y-42316542D01*
X18770939Y-42316542D02*
X18675701Y-42411780D01*
X18675701Y-42411780D02*
X18485225Y-42507019D01*
X18485225Y-42507019D02*
X17818558Y-42507019D01*
X17871973Y-33722400D02*
X18824354Y-33722400D01*
X17681497Y-34293829D02*
X18348163Y-32293829D01*
X18348163Y-32293829D02*
X19014830Y-34293829D01*
D11*
X16846779Y-46224819D02*
X16846779Y-45224819D01*
X17382969Y-51304819D02*
X16906779Y-51304819D01*
X16906779Y-51304819D02*
X16906779Y-50304819D01*
X16846779Y-48764819D02*
X16846779Y-47764819D01*
X16846779Y-48241009D02*
X17418207Y-48241009D01*
X17418207Y-48764819D02*
X17418207Y-47764819D01*
X17382969Y-43684819D02*
X16906779Y-43684819D01*
X16906779Y-43684819D02*
X16906779Y-42684819D01*
X16846779Y-41144819D02*
X16846779Y-40144819D01*
X16846779Y-40621009D02*
X17418207Y-40621009D01*
X17418207Y-41144819D02*
X17418207Y-40144819D01*
X16846779Y-38604819D02*
X16846779Y-37604819D01*
X16846779Y-36064819D02*
X16846779Y-35064819D01*
X17322969Y-33524819D02*
X16846779Y-33524819D01*
X16846779Y-33524819D02*
X16846779Y-32524819D01*
X16846779Y-30984819D02*
X16846779Y-29984819D01*
X16846779Y-30461009D02*
X17418207Y-30461009D01*
X17418207Y-30984819D02*
X17418207Y-29984819D01*
X17370588Y-27492438D02*
X17275350Y-27444819D01*
X17275350Y-27444819D02*
X17132493Y-27444819D01*
X17132493Y-27444819D02*
X16989636Y-27492438D01*
X16989636Y-27492438D02*
X16894398Y-27587676D01*
X16894398Y-27587676D02*
X16846779Y-27682914D01*
X16846779Y-27682914D02*
X16799160Y-27873390D01*
X16799160Y-27873390D02*
X16799160Y-28016247D01*
X16799160Y-28016247D02*
X16846779Y-28206723D01*
X16846779Y-28206723D02*
X16894398Y-28301961D01*
X16894398Y-28301961D02*
X16989636Y-28397200D01*
X16989636Y-28397200D02*
X17132493Y-28444819D01*
X17132493Y-28444819D02*
X17227731Y-28444819D01*
X17227731Y-28444819D02*
X17370588Y-28397200D01*
X17370588Y-28397200D02*
X17418207Y-28349580D01*
X17418207Y-28349580D02*
X17418207Y-28016247D01*
X17418207Y-28016247D02*
X17227731Y-28016247D01*
X17846779Y-28444819D02*
X17846779Y-27444819D01*
X17846779Y-27444819D02*
X18418207Y-28444819D01*
X18418207Y-28444819D02*
X18418207Y-27444819D01*
X18894398Y-28444819D02*
X18894398Y-27444819D01*
X18894398Y-27444819D02*
X19132493Y-27444819D01*
X19132493Y-27444819D02*
X19275350Y-27492438D01*
X19275350Y-27492438D02*
X19370588Y-27587676D01*
X19370588Y-27587676D02*
X19418207Y-27682914D01*
X19418207Y-27682914D02*
X19465826Y-27873390D01*
X19465826Y-27873390D02*
X19465826Y-28016247D01*
X19465826Y-28016247D02*
X19418207Y-28206723D01*
X19418207Y-28206723D02*
X19370588Y-28301961D01*
X19370588Y-28301961D02*
X19275350Y-28397200D01*
X19275350Y-28397200D02*
X19132493Y-28444819D01*
X19132493Y-28444819D02*
X18894398Y-28444819D01*
X17370588Y-24952438D02*
X17275350Y-24904819D01*
X17275350Y-24904819D02*
X17132493Y-24904819D01*
X17132493Y-24904819D02*
X16989636Y-24952438D01*
X16989636Y-24952438D02*
X16894398Y-25047676D01*
X16894398Y-25047676D02*
X16846779Y-25142914D01*
X16846779Y-25142914D02*
X16799160Y-25333390D01*
X16799160Y-25333390D02*
X16799160Y-25476247D01*
X16799160Y-25476247D02*
X16846779Y-25666723D01*
X16846779Y-25666723D02*
X16894398Y-25761961D01*
X16894398Y-25761961D02*
X16989636Y-25857200D01*
X16989636Y-25857200D02*
X17132493Y-25904819D01*
X17132493Y-25904819D02*
X17227731Y-25904819D01*
X17227731Y-25904819D02*
X17370588Y-25857200D01*
X17370588Y-25857200D02*
X17418207Y-25809580D01*
X17418207Y-25809580D02*
X17418207Y-25476247D01*
X17418207Y-25476247D02*
X17227731Y-25476247D01*
X16703922Y-22364819D02*
X17037255Y-23364819D01*
X17037255Y-23364819D02*
X17370588Y-22364819D01*
D10*
X19715000Y-52130000D02*
X10765000Y-52130000D01*
X19715000Y-44390000D02*
X10765000Y-44390000D01*
X19715000Y-36890000D02*
X10765000Y-36890000D01*
X19715000Y-29150000D02*
X10765000Y-29150000D01*
X19715000Y-21530000D02*
X10765000Y-21530000D01*
X52164326Y-10735000D02*
X52164326Y-19685000D01*
X21530243Y-19685000D02*
X21530243Y-10735000D01*
X36830000Y-11400000D02*
X36830000Y-20350000D01*
X62925000Y-52070000D02*
X53975000Y-52070000D01*
X62230000Y-41850000D02*
X53280000Y-41850000D01*
X62960301Y-21530975D02*
X54010301Y-21530975D01*
X62290000Y-31810000D02*
X53340000Y-31810000D01*
X56064623Y-50758742D02*
X55921766Y-50901600D01*
X55921766Y-50901600D02*
X55493194Y-51044457D01*
X55493194Y-51044457D02*
X55207480Y-51044457D01*
X55207480Y-51044457D02*
X54778909Y-50901600D01*
X54778909Y-50901600D02*
X54493194Y-50615885D01*
X54493194Y-50615885D02*
X54350337Y-50330171D01*
X54350337Y-50330171D02*
X54207480Y-49758742D01*
X54207480Y-49758742D02*
X54207480Y-49330171D01*
X54207480Y-49330171D02*
X54350337Y-48758742D01*
X54350337Y-48758742D02*
X54493194Y-48473028D01*
X54493194Y-48473028D02*
X54778909Y-48187314D01*
X54778909Y-48187314D02*
X55207480Y-48044457D01*
X55207480Y-48044457D02*
X55493194Y-48044457D01*
X55493194Y-48044457D02*
X55921766Y-48187314D01*
X55921766Y-48187314D02*
X56064623Y-48330171D01*
X55350337Y-39313028D02*
X55778909Y-39455885D01*
X55778909Y-39455885D02*
X55921766Y-39598742D01*
X55921766Y-39598742D02*
X56064623Y-39884457D01*
X56064623Y-39884457D02*
X56064623Y-40313028D01*
X56064623Y-40313028D02*
X55921766Y-40598742D01*
X55921766Y-40598742D02*
X55778909Y-40741600D01*
X55778909Y-40741600D02*
X55493194Y-40884457D01*
X55493194Y-40884457D02*
X54350337Y-40884457D01*
X54350337Y-40884457D02*
X54350337Y-37884457D01*
X54350337Y-37884457D02*
X55350337Y-37884457D01*
X55350337Y-37884457D02*
X55636052Y-38027314D01*
X55636052Y-38027314D02*
X55778909Y-38170171D01*
X55778909Y-38170171D02*
X55921766Y-38455885D01*
X55921766Y-38455885D02*
X55921766Y-38741600D01*
X55921766Y-38741600D02*
X55778909Y-39027314D01*
X55778909Y-39027314D02*
X55636052Y-39170171D01*
X55636052Y-39170171D02*
X55350337Y-39313028D01*
X55350337Y-39313028D02*
X54350337Y-39313028D01*
X54207480Y-29867314D02*
X55636052Y-29867314D01*
X53921766Y-30724457D02*
X54921766Y-27724457D01*
X54921766Y-27724457D02*
X55921766Y-30724457D01*
D11*
X38389160Y-18237200D02*
X38532017Y-18284819D01*
X38532017Y-18284819D02*
X38770112Y-18284819D01*
X38770112Y-18284819D02*
X38865350Y-18237200D01*
X38865350Y-18237200D02*
X38912969Y-18189580D01*
X38912969Y-18189580D02*
X38960588Y-18094342D01*
X38960588Y-18094342D02*
X38960588Y-17999104D01*
X38960588Y-17999104D02*
X38912969Y-17903866D01*
X38912969Y-17903866D02*
X38865350Y-17856247D01*
X38865350Y-17856247D02*
X38770112Y-17808628D01*
X38770112Y-17808628D02*
X38579636Y-17761009D01*
X38579636Y-17761009D02*
X38484398Y-17713390D01*
X38484398Y-17713390D02*
X38436779Y-17665771D01*
X38436779Y-17665771D02*
X38389160Y-17570533D01*
X38389160Y-17570533D02*
X38389160Y-17475295D01*
X38389160Y-17475295D02*
X38436779Y-17380057D01*
X38436779Y-17380057D02*
X38484398Y-17332438D01*
X38484398Y-17332438D02*
X38579636Y-17284819D01*
X38579636Y-17284819D02*
X38817731Y-17284819D01*
X38817731Y-17284819D02*
X38960588Y-17332438D01*
X39389160Y-17284819D02*
X39389160Y-18094342D01*
X39389160Y-18094342D02*
X39436779Y-18189580D01*
X39436779Y-18189580D02*
X39484398Y-18237200D01*
X39484398Y-18237200D02*
X39579636Y-18284819D01*
X39579636Y-18284819D02*
X39770112Y-18284819D01*
X39770112Y-18284819D02*
X39865350Y-18237200D01*
X39865350Y-18237200D02*
X39912969Y-18189580D01*
X39912969Y-18189580D02*
X39960588Y-18094342D01*
X39960588Y-18094342D02*
X39960588Y-17284819D01*
X40436779Y-18284819D02*
X40436779Y-17284819D01*
X40436779Y-17284819D02*
X40817731Y-17284819D01*
X40817731Y-17284819D02*
X40912969Y-17332438D01*
X40912969Y-17332438D02*
X40960588Y-17380057D01*
X40960588Y-17380057D02*
X41008207Y-17475295D01*
X41008207Y-17475295D02*
X41008207Y-17618152D01*
X41008207Y-17618152D02*
X40960588Y-17713390D01*
X40960588Y-17713390D02*
X40912969Y-17761009D01*
X40912969Y-17761009D02*
X40817731Y-17808628D01*
X40817731Y-17808628D02*
X40436779Y-17808628D01*
X41436779Y-18284819D02*
X41436779Y-17284819D01*
X41436779Y-17284819D02*
X41817731Y-17284819D01*
X41817731Y-17284819D02*
X41912969Y-17332438D01*
X41912969Y-17332438D02*
X41960588Y-17380057D01*
X41960588Y-17380057D02*
X42008207Y-17475295D01*
X42008207Y-17475295D02*
X42008207Y-17618152D01*
X42008207Y-17618152D02*
X41960588Y-17713390D01*
X41960588Y-17713390D02*
X41912969Y-17761009D01*
X41912969Y-17761009D02*
X41817731Y-17808628D01*
X41817731Y-17808628D02*
X41436779Y-17808628D01*
X42912969Y-18284819D02*
X42436779Y-18284819D01*
X42436779Y-18284819D02*
X42436779Y-17284819D01*
X43436779Y-17808628D02*
X43436779Y-18284819D01*
X43103446Y-17284819D02*
X43436779Y-17808628D01*
X43436779Y-17808628D02*
X43770112Y-17284819D01*
X45436779Y-18189580D02*
X45389160Y-18237200D01*
X45389160Y-18237200D02*
X45246303Y-18284819D01*
X45246303Y-18284819D02*
X45151065Y-18284819D01*
X45151065Y-18284819D02*
X45008208Y-18237200D01*
X45008208Y-18237200D02*
X44912970Y-18141961D01*
X44912970Y-18141961D02*
X44865351Y-18046723D01*
X44865351Y-18046723D02*
X44817732Y-17856247D01*
X44817732Y-17856247D02*
X44817732Y-17713390D01*
X44817732Y-17713390D02*
X44865351Y-17522914D01*
X44865351Y-17522914D02*
X44912970Y-17427676D01*
X44912970Y-17427676D02*
X45008208Y-17332438D01*
X45008208Y-17332438D02*
X45151065Y-17284819D01*
X45151065Y-17284819D02*
X45246303Y-17284819D01*
X45246303Y-17284819D02*
X45389160Y-17332438D01*
X45389160Y-17332438D02*
X45436779Y-17380057D01*
X46055827Y-17284819D02*
X46246303Y-17284819D01*
X46246303Y-17284819D02*
X46341541Y-17332438D01*
X46341541Y-17332438D02*
X46436779Y-17427676D01*
X46436779Y-17427676D02*
X46484398Y-17618152D01*
X46484398Y-17618152D02*
X46484398Y-17951485D01*
X46484398Y-17951485D02*
X46436779Y-18141961D01*
X46436779Y-18141961D02*
X46341541Y-18237200D01*
X46341541Y-18237200D02*
X46246303Y-18284819D01*
X46246303Y-18284819D02*
X46055827Y-18284819D01*
X46055827Y-18284819D02*
X45960589Y-18237200D01*
X45960589Y-18237200D02*
X45865351Y-18141961D01*
X45865351Y-18141961D02*
X45817732Y-17951485D01*
X45817732Y-17951485D02*
X45817732Y-17618152D01*
X45817732Y-17618152D02*
X45865351Y-17427676D01*
X45865351Y-17427676D02*
X45960589Y-17332438D01*
X45960589Y-17332438D02*
X46055827Y-17284819D01*
X46912970Y-18284819D02*
X46912970Y-17284819D01*
X46912970Y-17284819D02*
X47246303Y-17999104D01*
X47246303Y-17999104D02*
X47579636Y-17284819D01*
X47579636Y-17284819D02*
X47579636Y-18284819D01*
X48055827Y-18284819D02*
X48055827Y-17284819D01*
X48055827Y-17284819D02*
X48389160Y-17999104D01*
X48389160Y-17999104D02*
X48722493Y-17284819D01*
X48722493Y-17284819D02*
X48722493Y-18284819D01*
X49389160Y-17284819D02*
X49579636Y-17284819D01*
X49579636Y-17284819D02*
X49674874Y-17332438D01*
X49674874Y-17332438D02*
X49770112Y-17427676D01*
X49770112Y-17427676D02*
X49817731Y-17618152D01*
X49817731Y-17618152D02*
X49817731Y-17951485D01*
X49817731Y-17951485D02*
X49770112Y-18141961D01*
X49770112Y-18141961D02*
X49674874Y-18237200D01*
X49674874Y-18237200D02*
X49579636Y-18284819D01*
X49579636Y-18284819D02*
X49389160Y-18284819D01*
X49389160Y-18284819D02*
X49293922Y-18237200D01*
X49293922Y-18237200D02*
X49198684Y-18141961D01*
X49198684Y-18141961D02*
X49151065Y-17951485D01*
X49151065Y-17951485D02*
X49151065Y-17618152D01*
X49151065Y-17618152D02*
X49198684Y-17427676D01*
X49198684Y-17427676D02*
X49293922Y-17332438D01*
X49293922Y-17332438D02*
X49389160Y-17284819D01*
X50246303Y-18284819D02*
X50246303Y-17284819D01*
X50246303Y-17284819D02*
X50817731Y-18284819D01*
X50817731Y-18284819D02*
X50817731Y-17284819D01*
X22514160Y-18237200D02*
X22657017Y-18284819D01*
X22657017Y-18284819D02*
X22895112Y-18284819D01*
X22895112Y-18284819D02*
X22990350Y-18237200D01*
X22990350Y-18237200D02*
X23037969Y-18189580D01*
X23037969Y-18189580D02*
X23085588Y-18094342D01*
X23085588Y-18094342D02*
X23085588Y-17999104D01*
X23085588Y-17999104D02*
X23037969Y-17903866D01*
X23037969Y-17903866D02*
X22990350Y-17856247D01*
X22990350Y-17856247D02*
X22895112Y-17808628D01*
X22895112Y-17808628D02*
X22704636Y-17761009D01*
X22704636Y-17761009D02*
X22609398Y-17713390D01*
X22609398Y-17713390D02*
X22561779Y-17665771D01*
X22561779Y-17665771D02*
X22514160Y-17570533D01*
X22514160Y-17570533D02*
X22514160Y-17475295D01*
X22514160Y-17475295D02*
X22561779Y-17380057D01*
X22561779Y-17380057D02*
X22609398Y-17332438D01*
X22609398Y-17332438D02*
X22704636Y-17284819D01*
X22704636Y-17284819D02*
X22942731Y-17284819D01*
X22942731Y-17284819D02*
X23085588Y-17332438D01*
X23514160Y-17284819D02*
X23514160Y-18094342D01*
X23514160Y-18094342D02*
X23561779Y-18189580D01*
X23561779Y-18189580D02*
X23609398Y-18237200D01*
X23609398Y-18237200D02*
X23704636Y-18284819D01*
X23704636Y-18284819D02*
X23895112Y-18284819D01*
X23895112Y-18284819D02*
X23990350Y-18237200D01*
X23990350Y-18237200D02*
X24037969Y-18189580D01*
X24037969Y-18189580D02*
X24085588Y-18094342D01*
X24085588Y-18094342D02*
X24085588Y-17284819D01*
X24561779Y-18284819D02*
X24561779Y-17284819D01*
X24561779Y-17284819D02*
X24942731Y-17284819D01*
X24942731Y-17284819D02*
X25037969Y-17332438D01*
X25037969Y-17332438D02*
X25085588Y-17380057D01*
X25085588Y-17380057D02*
X25133207Y-17475295D01*
X25133207Y-17475295D02*
X25133207Y-17618152D01*
X25133207Y-17618152D02*
X25085588Y-17713390D01*
X25085588Y-17713390D02*
X25037969Y-17761009D01*
X25037969Y-17761009D02*
X24942731Y-17808628D01*
X24942731Y-17808628D02*
X24561779Y-17808628D01*
X25561779Y-18284819D02*
X25561779Y-17284819D01*
X25561779Y-17284819D02*
X25942731Y-17284819D01*
X25942731Y-17284819D02*
X26037969Y-17332438D01*
X26037969Y-17332438D02*
X26085588Y-17380057D01*
X26085588Y-17380057D02*
X26133207Y-17475295D01*
X26133207Y-17475295D02*
X26133207Y-17618152D01*
X26133207Y-17618152D02*
X26085588Y-17713390D01*
X26085588Y-17713390D02*
X26037969Y-17761009D01*
X26037969Y-17761009D02*
X25942731Y-17808628D01*
X25942731Y-17808628D02*
X25561779Y-17808628D01*
X27037969Y-18284819D02*
X26561779Y-18284819D01*
X26561779Y-18284819D02*
X26561779Y-17284819D01*
X27561779Y-17808628D02*
X27561779Y-18284819D01*
X27228446Y-17284819D02*
X27561779Y-17808628D01*
X27561779Y-17808628D02*
X27895112Y-17284819D01*
X28990351Y-18284819D02*
X28990351Y-17284819D01*
X28990351Y-17284819D02*
X29371303Y-17284819D01*
X29371303Y-17284819D02*
X29466541Y-17332438D01*
X29466541Y-17332438D02*
X29514160Y-17380057D01*
X29514160Y-17380057D02*
X29561779Y-17475295D01*
X29561779Y-17475295D02*
X29561779Y-17618152D01*
X29561779Y-17618152D02*
X29514160Y-17713390D01*
X29514160Y-17713390D02*
X29466541Y-17761009D01*
X29466541Y-17761009D02*
X29371303Y-17808628D01*
X29371303Y-17808628D02*
X28990351Y-17808628D01*
X30180827Y-17284819D02*
X30371303Y-17284819D01*
X30371303Y-17284819D02*
X30466541Y-17332438D01*
X30466541Y-17332438D02*
X30561779Y-17427676D01*
X30561779Y-17427676D02*
X30609398Y-17618152D01*
X30609398Y-17618152D02*
X30609398Y-17951485D01*
X30609398Y-17951485D02*
X30561779Y-18141961D01*
X30561779Y-18141961D02*
X30466541Y-18237200D01*
X30466541Y-18237200D02*
X30371303Y-18284819D01*
X30371303Y-18284819D02*
X30180827Y-18284819D01*
X30180827Y-18284819D02*
X30085589Y-18237200D01*
X30085589Y-18237200D02*
X29990351Y-18141961D01*
X29990351Y-18141961D02*
X29942732Y-17951485D01*
X29942732Y-17951485D02*
X29942732Y-17618152D01*
X29942732Y-17618152D02*
X29990351Y-17427676D01*
X29990351Y-17427676D02*
X30085589Y-17332438D01*
X30085589Y-17332438D02*
X30180827Y-17284819D01*
X30990351Y-18237200D02*
X31133208Y-18284819D01*
X31133208Y-18284819D02*
X31371303Y-18284819D01*
X31371303Y-18284819D02*
X31466541Y-18237200D01*
X31466541Y-18237200D02*
X31514160Y-18189580D01*
X31514160Y-18189580D02*
X31561779Y-18094342D01*
X31561779Y-18094342D02*
X31561779Y-17999104D01*
X31561779Y-17999104D02*
X31514160Y-17903866D01*
X31514160Y-17903866D02*
X31466541Y-17856247D01*
X31466541Y-17856247D02*
X31371303Y-17808628D01*
X31371303Y-17808628D02*
X31180827Y-17761009D01*
X31180827Y-17761009D02*
X31085589Y-17713390D01*
X31085589Y-17713390D02*
X31037970Y-17665771D01*
X31037970Y-17665771D02*
X30990351Y-17570533D01*
X30990351Y-17570533D02*
X30990351Y-17475295D01*
X30990351Y-17475295D02*
X31037970Y-17380057D01*
X31037970Y-17380057D02*
X31085589Y-17332438D01*
X31085589Y-17332438D02*
X31180827Y-17284819D01*
X31180827Y-17284819D02*
X31418922Y-17284819D01*
X31418922Y-17284819D02*
X31561779Y-17332438D01*
X31990351Y-18284819D02*
X31990351Y-17284819D01*
X32323684Y-17284819D02*
X32895112Y-17284819D01*
X32609398Y-18284819D02*
X32609398Y-17284819D01*
X33228446Y-18284819D02*
X33228446Y-17284819D01*
X33561779Y-17284819D02*
X33895112Y-18284819D01*
X33895112Y-18284819D02*
X34228445Y-17284819D01*
X34561779Y-17761009D02*
X34895112Y-17761009D01*
X35037969Y-18284819D02*
X34561779Y-18284819D01*
X34561779Y-18284819D02*
X34561779Y-17284819D01*
X34561779Y-17284819D02*
X35037969Y-17284819D01*
D13*
%TO.C,J17*%
X34230000Y-59630000D02*
X35560000Y-59630000D01*
X34230000Y-60960000D02*
X34230000Y-59630000D01*
X34230000Y-62230000D02*
X34230000Y-62290000D01*
X34230000Y-62230000D02*
X36890000Y-62230000D01*
X34230000Y-62290000D02*
X36890000Y-62290000D01*
X36890000Y-62230000D02*
X36890000Y-62290000D01*
%TO.C,J16*%
X24070000Y-59630000D02*
X25400000Y-59630000D01*
X24070000Y-60960000D02*
X24070000Y-59630000D01*
X24070000Y-62230000D02*
X24070000Y-62290000D01*
X24070000Y-62230000D02*
X26730000Y-62230000D01*
X24070000Y-62290000D02*
X26730000Y-62290000D01*
X26730000Y-62230000D02*
X26730000Y-62290000D01*
X26610000Y-59630000D02*
X27940000Y-59630000D01*
X26610000Y-60960000D02*
X26610000Y-59630000D01*
X26610000Y-62230000D02*
X26610000Y-62290000D01*
X26610000Y-62230000D02*
X29270000Y-62230000D01*
X26610000Y-62290000D02*
X29270000Y-62290000D01*
X29270000Y-62230000D02*
X29270000Y-62290000D01*
%TO.C,J18*%
X41850000Y-59630000D02*
X43180000Y-59630000D01*
X41850000Y-60960000D02*
X41850000Y-59630000D01*
X41850000Y-62230000D02*
X41850000Y-62290000D01*
X41850000Y-62230000D02*
X44510000Y-62230000D01*
X41850000Y-62290000D02*
X44510000Y-62290000D01*
X44510000Y-62230000D02*
X44510000Y-62290000D01*
%TO.C,J16*%
X29150000Y-59630000D02*
X30480000Y-59630000D01*
X29150000Y-60960000D02*
X29150000Y-59630000D01*
X29150000Y-62230000D02*
X29150000Y-62290000D01*
X29150000Y-62230000D02*
X31810000Y-62230000D01*
X29150000Y-62290000D02*
X31810000Y-62290000D01*
X31810000Y-62230000D02*
X31810000Y-62290000D01*
X21530000Y-59630000D02*
X22860000Y-59630000D01*
X21530000Y-60960000D02*
X21530000Y-59630000D01*
X21530000Y-62230000D02*
X21530000Y-62290000D01*
X21530000Y-62230000D02*
X24190000Y-62230000D01*
X21530000Y-62290000D02*
X24190000Y-62290000D01*
X24190000Y-62230000D02*
X24190000Y-62290000D01*
%TO.C,J17*%
X39310000Y-59630000D02*
X40640000Y-59630000D01*
X39310000Y-60960000D02*
X39310000Y-59630000D01*
X39310000Y-62230000D02*
X39310000Y-62290000D01*
X39310000Y-62230000D02*
X41970000Y-62230000D01*
X39310000Y-62290000D02*
X41970000Y-62290000D01*
X41970000Y-62230000D02*
X41970000Y-62290000D01*
X31690000Y-59630000D02*
X33020000Y-59630000D01*
X31690000Y-60960000D02*
X31690000Y-59630000D01*
X31690000Y-62230000D02*
X31690000Y-62290000D01*
X31690000Y-62230000D02*
X34350000Y-62230000D01*
X31690000Y-62290000D02*
X34350000Y-62290000D01*
X34350000Y-62230000D02*
X34350000Y-62290000D01*
%TO.C,J18*%
X46930000Y-59630000D02*
X48260000Y-59630000D01*
X46930000Y-60960000D02*
X46930000Y-59630000D01*
X46930000Y-62230000D02*
X46930000Y-62290000D01*
X46930000Y-62230000D02*
X49590000Y-62230000D01*
X46930000Y-62290000D02*
X49590000Y-62290000D01*
X49590000Y-62230000D02*
X49590000Y-62290000D01*
%TO.C,J17*%
X36770000Y-59630000D02*
X38100000Y-59630000D01*
X36770000Y-60960000D02*
X36770000Y-59630000D01*
X36770000Y-62230000D02*
X36770000Y-62290000D01*
X36770000Y-62230000D02*
X39430000Y-62230000D01*
X36770000Y-62290000D02*
X39430000Y-62290000D01*
X39430000Y-62230000D02*
X39430000Y-62290000D01*
%TO.C,J18*%
X44390000Y-59630000D02*
X45720000Y-59630000D01*
X44390000Y-60960000D02*
X44390000Y-59630000D01*
X44390000Y-62230000D02*
X44390000Y-62290000D01*
X44390000Y-62230000D02*
X47050000Y-62230000D01*
X44390000Y-62290000D02*
X47050000Y-62290000D01*
X47050000Y-62230000D02*
X47050000Y-62290000D01*
X49470000Y-59630000D02*
X50800000Y-59630000D01*
X49470000Y-60960000D02*
X49470000Y-59630000D01*
X49470000Y-62230000D02*
X49470000Y-62290000D01*
X49470000Y-62230000D02*
X52130000Y-62230000D01*
X49470000Y-62290000D02*
X52130000Y-62290000D01*
X52130000Y-62230000D02*
X52130000Y-62290000D01*
%TO.C,J3*%
X11370000Y-46925000D02*
X12700000Y-46925000D01*
X11370000Y-48255000D02*
X11370000Y-46925000D01*
X11370000Y-49525000D02*
X11370000Y-52125000D01*
X11370000Y-49525000D02*
X14030000Y-49525000D01*
X11370000Y-52125000D02*
X14030000Y-52125000D01*
X14030000Y-49525000D02*
X14030000Y-52125000D01*
%TO.C,J7*%
X11370000Y-21525000D02*
X12700000Y-21525000D01*
X11370000Y-22855000D02*
X11370000Y-21525000D01*
X11370000Y-24125000D02*
X11370000Y-26725000D01*
X11370000Y-24125000D02*
X14030000Y-24125000D01*
X11370000Y-26725000D02*
X14030000Y-26725000D01*
X14030000Y-24125000D02*
X14030000Y-26725000D01*
%TO.C,J5*%
X11370000Y-36765000D02*
X12700000Y-36765000D01*
X11370000Y-38095000D02*
X11370000Y-36765000D01*
X11370000Y-39365000D02*
X11370000Y-39425000D01*
X11370000Y-39365000D02*
X14030000Y-39365000D01*
X11370000Y-39425000D02*
X14030000Y-39425000D01*
X14030000Y-39365000D02*
X14030000Y-39425000D01*
%TO.C,J1*%
X11370000Y-29145000D02*
X12700000Y-29145000D01*
X11370000Y-30475000D02*
X11370000Y-29145000D01*
X11370000Y-31745000D02*
X11370000Y-34345000D01*
X11370000Y-31745000D02*
X14030000Y-31745000D01*
X11370000Y-34345000D02*
X14030000Y-34345000D01*
X14030000Y-31745000D02*
X14030000Y-34345000D01*
%TO.C,J4*%
X11370000Y-34225000D02*
X12700000Y-34225000D01*
X11370000Y-35555000D02*
X11370000Y-34225000D01*
X11370000Y-36825000D02*
X11370000Y-36885000D01*
X11370000Y-36825000D02*
X14030000Y-36825000D01*
X11370000Y-36885000D02*
X14030000Y-36885000D01*
X14030000Y-36825000D02*
X14030000Y-36885000D01*
%TO.C,J2*%
X11370000Y-39305000D02*
X12700000Y-39305000D01*
X11370000Y-40635000D02*
X11370000Y-39305000D01*
X11370000Y-41905000D02*
X11370000Y-44505000D01*
X11370000Y-41905000D02*
X14030000Y-41905000D01*
X11370000Y-44505000D02*
X14030000Y-44505000D01*
X14030000Y-41905000D02*
X14030000Y-44505000D01*
%TO.C,J6*%
X11370000Y-44385000D02*
X12700000Y-44385000D01*
X11370000Y-45715000D02*
X11370000Y-44385000D01*
X11370000Y-46985000D02*
X11370000Y-47045000D01*
X11370000Y-46985000D02*
X14030000Y-46985000D01*
X11370000Y-47045000D02*
X14030000Y-47045000D01*
X14030000Y-46985000D02*
X14030000Y-47045000D01*
%TO.C,J13*%
X11370000Y-26605000D02*
X12700000Y-26605000D01*
X11370000Y-27935000D02*
X11370000Y-26605000D01*
X11370000Y-29205000D02*
X11370000Y-29265000D01*
X11370000Y-29205000D02*
X14030000Y-29205000D01*
X11370000Y-29265000D02*
X14030000Y-29265000D01*
X14030000Y-29205000D02*
X14030000Y-29265000D01*
X49470000Y-11370000D02*
X50800000Y-11370000D01*
X49470000Y-12700000D02*
X49470000Y-11370000D01*
X49470000Y-13970000D02*
X49470000Y-14030000D01*
X49470000Y-13970000D02*
X52130000Y-13970000D01*
X49470000Y-14030000D02*
X52130000Y-14030000D01*
X52130000Y-13970000D02*
X52130000Y-14030000D01*
%TO.C,J12*%
X24070000Y-11370000D02*
X25400000Y-11370000D01*
X24070000Y-12700000D02*
X24070000Y-11370000D01*
X24070000Y-13970000D02*
X24070000Y-14030000D01*
X24070000Y-13970000D02*
X26730000Y-13970000D01*
X24070000Y-14030000D02*
X26730000Y-14030000D01*
X26730000Y-13970000D02*
X26730000Y-14030000D01*
%TO.C,J13*%
X41850000Y-11370000D02*
X43180000Y-11370000D01*
X41850000Y-12700000D02*
X41850000Y-11370000D01*
X41850000Y-13970000D02*
X41850000Y-14030000D01*
X41850000Y-13970000D02*
X44510000Y-13970000D01*
X41850000Y-14030000D02*
X44510000Y-14030000D01*
X44510000Y-13970000D02*
X44510000Y-14030000D01*
%TO.C,J14*%
X44390000Y-11370000D02*
X45720000Y-11370000D01*
X44390000Y-12700000D02*
X44390000Y-11370000D01*
X44390000Y-13970000D02*
X44390000Y-14030000D01*
X44390000Y-13970000D02*
X47050000Y-13970000D01*
X44390000Y-14030000D02*
X47050000Y-14030000D01*
X47050000Y-13970000D02*
X47050000Y-14030000D01*
%TO.C,J12*%
X31690000Y-11370000D02*
X33020000Y-11370000D01*
X31690000Y-12700000D02*
X31690000Y-11370000D01*
X31690000Y-13970000D02*
X31690000Y-14030000D01*
X31690000Y-13970000D02*
X34350000Y-13970000D01*
X31690000Y-14030000D02*
X34350000Y-14030000D01*
X34350000Y-13970000D02*
X34350000Y-14030000D01*
%TO.C,J10*%
X34230000Y-11370000D02*
X35560000Y-11370000D01*
X34230000Y-12700000D02*
X34230000Y-11370000D01*
X34230000Y-13970000D02*
X34230000Y-14030000D01*
X34230000Y-13970000D02*
X36890000Y-13970000D01*
X34230000Y-14030000D02*
X36890000Y-14030000D01*
X36890000Y-13970000D02*
X36890000Y-14030000D01*
%TO.C,J15*%
X46930000Y-11370000D02*
X48260000Y-11370000D01*
X46930000Y-12700000D02*
X46930000Y-11370000D01*
X46930000Y-13970000D02*
X46930000Y-14030000D01*
X46930000Y-13970000D02*
X49590000Y-13970000D01*
X46930000Y-14030000D02*
X49590000Y-14030000D01*
X49590000Y-13970000D02*
X49590000Y-14030000D01*
%TO.C,J11*%
X29150000Y-11370000D02*
X30480000Y-11370000D01*
X29150000Y-12700000D02*
X29150000Y-11370000D01*
X29150000Y-13970000D02*
X29150000Y-14030000D01*
X29150000Y-13970000D02*
X31810000Y-13970000D01*
X29150000Y-14030000D02*
X31810000Y-14030000D01*
X31810000Y-13970000D02*
X31810000Y-14030000D01*
X21530000Y-11370000D02*
X22860000Y-11370000D01*
X21530000Y-12700000D02*
X21530000Y-11370000D01*
X21530000Y-13970000D02*
X21530000Y-14030000D01*
X21530000Y-13970000D02*
X24190000Y-13970000D01*
X21530000Y-14030000D02*
X24190000Y-14030000D01*
X24190000Y-13970000D02*
X24190000Y-14030000D01*
%TO.C,J14*%
X36770000Y-11370000D02*
X38100000Y-11370000D01*
X36770000Y-12700000D02*
X36770000Y-11370000D01*
X36770000Y-13970000D02*
X36770000Y-14030000D01*
X36770000Y-13970000D02*
X39430000Y-13970000D01*
X36770000Y-14030000D02*
X39430000Y-14030000D01*
X39430000Y-13970000D02*
X39430000Y-14030000D01*
%TO.C,J10*%
X26610000Y-11370000D02*
X27940000Y-11370000D01*
X26610000Y-12700000D02*
X26610000Y-11370000D01*
X26610000Y-13970000D02*
X26610000Y-14030000D01*
X26610000Y-13970000D02*
X29270000Y-13970000D01*
X26610000Y-14030000D02*
X29270000Y-14030000D01*
X29270000Y-13970000D02*
X29270000Y-14030000D01*
%TO.C,J15*%
X39310000Y-11370000D02*
X40640000Y-11370000D01*
X39310000Y-12700000D02*
X39310000Y-11370000D01*
X39310000Y-13970000D02*
X39310000Y-14030000D01*
X39310000Y-13970000D02*
X41970000Y-13970000D01*
X39310000Y-14030000D02*
X41970000Y-14030000D01*
X41970000Y-13970000D02*
X41970000Y-14030000D01*
%TO.C,J18*%
X59630000Y-46930000D02*
X60960000Y-46930000D01*
X59630000Y-48260000D02*
X59630000Y-46930000D01*
X59630000Y-49530000D02*
X59630000Y-49590000D01*
X59630000Y-49530000D02*
X62290000Y-49530000D01*
X59630000Y-49590000D02*
X62290000Y-49590000D01*
X62290000Y-49530000D02*
X62290000Y-49590000D01*
%TO.C,J17*%
X59630000Y-31690000D02*
X60960000Y-31690000D01*
X59630000Y-33020000D02*
X59630000Y-31690000D01*
X59630000Y-34290000D02*
X59630000Y-34350000D01*
X59630000Y-34290000D02*
X62290000Y-34290000D01*
X59630000Y-34350000D02*
X62290000Y-34350000D01*
X62290000Y-34290000D02*
X62290000Y-34350000D01*
%TO.C,J16*%
X59630000Y-26610000D02*
X60960000Y-26610000D01*
X59630000Y-27940000D02*
X59630000Y-26610000D01*
X59630000Y-29210000D02*
X59630000Y-29270000D01*
X59630000Y-29210000D02*
X62290000Y-29210000D01*
X59630000Y-29270000D02*
X62290000Y-29270000D01*
X62290000Y-29210000D02*
X62290000Y-29270000D01*
%TO.C,J18*%
X59630000Y-41850000D02*
X60960000Y-41850000D01*
X59630000Y-43180000D02*
X59630000Y-41850000D01*
X59630000Y-44450000D02*
X59630000Y-44510000D01*
X59630000Y-44450000D02*
X62290000Y-44450000D01*
X59630000Y-44510000D02*
X62290000Y-44510000D01*
X62290000Y-44450000D02*
X62290000Y-44510000D01*
%TO.C,J16*%
X59630000Y-29150000D02*
X60960000Y-29150000D01*
X59630000Y-30480000D02*
X59630000Y-29150000D01*
X59630000Y-31750000D02*
X59630000Y-31810000D01*
X59630000Y-31750000D02*
X62290000Y-31750000D01*
X59630000Y-31810000D02*
X62290000Y-31810000D01*
X62290000Y-31750000D02*
X62290000Y-31810000D01*
%TO.C,J17*%
X59630000Y-36770000D02*
X60960000Y-36770000D01*
X59630000Y-38100000D02*
X59630000Y-36770000D01*
X59630000Y-39370000D02*
X59630000Y-39430000D01*
X59630000Y-39370000D02*
X62290000Y-39370000D01*
X59630000Y-39430000D02*
X62290000Y-39430000D01*
X62290000Y-39370000D02*
X62290000Y-39430000D01*
%TO.C,J18*%
X59630000Y-49470000D02*
X60960000Y-49470000D01*
X59630000Y-50800000D02*
X59630000Y-49470000D01*
X59630000Y-52070000D02*
X59630000Y-52130000D01*
X59630000Y-52070000D02*
X62290000Y-52070000D01*
X59630000Y-52130000D02*
X62290000Y-52130000D01*
X62290000Y-52070000D02*
X62290000Y-52130000D01*
%TO.C,J16*%
X59630000Y-21530000D02*
X60960000Y-21530000D01*
X59630000Y-22860000D02*
X59630000Y-21530000D01*
X59630000Y-24130000D02*
X59630000Y-24190000D01*
X59630000Y-24130000D02*
X62290000Y-24130000D01*
X59630000Y-24190000D02*
X62290000Y-24190000D01*
X62290000Y-24130000D02*
X62290000Y-24190000D01*
%TO.C,J17*%
X59630000Y-34230000D02*
X60960000Y-34230000D01*
X59630000Y-35560000D02*
X59630000Y-34230000D01*
X59630000Y-36830000D02*
X59630000Y-36890000D01*
X59630000Y-36830000D02*
X62290000Y-36830000D01*
X59630000Y-36890000D02*
X62290000Y-36890000D01*
X62290000Y-36830000D02*
X62290000Y-36890000D01*
X59630000Y-39310000D02*
X60960000Y-39310000D01*
X59630000Y-40640000D02*
X59630000Y-39310000D01*
X59630000Y-41910000D02*
X59630000Y-41970000D01*
X59630000Y-41910000D02*
X62290000Y-41910000D01*
X59630000Y-41970000D02*
X62290000Y-41970000D01*
X62290000Y-41910000D02*
X62290000Y-41970000D01*
%TO.C,J16*%
X59630000Y-24070000D02*
X60960000Y-24070000D01*
X59630000Y-25400000D02*
X59630000Y-24070000D01*
X59630000Y-26670000D02*
X59630000Y-26730000D01*
X59630000Y-26670000D02*
X62290000Y-26670000D01*
X59630000Y-26730000D02*
X62290000Y-26730000D01*
X62290000Y-26670000D02*
X62290000Y-26730000D01*
%TO.C,J18*%
X59630000Y-44390000D02*
X60960000Y-44390000D01*
X59630000Y-45720000D02*
X59630000Y-44390000D01*
X59630000Y-46990000D02*
X59630000Y-47050000D01*
X59630000Y-46990000D02*
X62290000Y-46990000D01*
X59630000Y-47050000D02*
X62290000Y-47050000D01*
X62290000Y-46990000D02*
X62290000Y-47050000D01*
%TO.C,J13*%
X13910000Y-26610000D02*
X15240000Y-26610000D01*
X13910000Y-27940000D02*
X13910000Y-26610000D01*
X13910000Y-29210000D02*
X13910000Y-29270000D01*
X13910000Y-29210000D02*
X16570000Y-29210000D01*
X13910000Y-29270000D02*
X16570000Y-29270000D01*
X16570000Y-29210000D02*
X16570000Y-29270000D01*
%TO.C,D4*%
X15156879Y-19577254D02*
X15156879Y-20051770D01*
X14111879Y-19577254D02*
X14111879Y-20051770D01*
%TO.C,R9*%
X34113108Y-54559842D02*
X34113108Y-54085326D01*
X35158108Y-54559842D02*
X35158108Y-54085326D01*
%TO.C,J18*%
X44390000Y-57090000D02*
X45720000Y-57090000D01*
X44390000Y-58420000D02*
X44390000Y-57090000D01*
X44390000Y-59690000D02*
X44390000Y-59750000D01*
X44390000Y-59690000D02*
X47050000Y-59690000D01*
X44390000Y-59750000D02*
X47050000Y-59750000D01*
X47050000Y-59690000D02*
X47050000Y-59750000D01*
%TO.C,J11*%
X29150000Y-13910000D02*
X30480000Y-13910000D01*
X29150000Y-15240000D02*
X29150000Y-13910000D01*
X29150000Y-16510000D02*
X29150000Y-16570000D01*
X29150000Y-16510000D02*
X31810000Y-16510000D01*
X29150000Y-16570000D02*
X31810000Y-16570000D01*
X31810000Y-16510000D02*
X31810000Y-16570000D01*
%TO.C,D1*%
X19319206Y-21752100D02*
X17319206Y-21752100D01*
X19319206Y-21752100D02*
X19319206Y-25762100D01*
X17319206Y-21752100D02*
X17319206Y-25762100D01*
%TO.C,J14*%
X36770000Y-13910000D02*
X38100000Y-13910000D01*
X36770000Y-15240000D02*
X36770000Y-13910000D01*
X36770000Y-16510000D02*
X36770000Y-16570000D01*
X36770000Y-16510000D02*
X39430000Y-16510000D01*
X36770000Y-16570000D02*
X39430000Y-16570000D01*
X39430000Y-16510000D02*
X39430000Y-16570000D01*
%TO.C,J17*%
X36770000Y-57090000D02*
X38100000Y-57090000D01*
X36770000Y-58420000D02*
X36770000Y-57090000D01*
X36770000Y-59690000D02*
X36770000Y-59750000D01*
X36770000Y-59690000D02*
X39430000Y-59690000D01*
X36770000Y-59750000D02*
X39430000Y-59750000D01*
X39430000Y-59690000D02*
X39430000Y-59750000D01*
%TO.C,C2*%
X25939944Y-30697838D02*
X25465428Y-30697838D01*
X25939944Y-29652838D02*
X25465428Y-29652838D01*
%TO.C,U2*%
X50800000Y-20538000D02*
X49000000Y-20538000D01*
X50800000Y-20538000D02*
X51600000Y-20538000D01*
X50800000Y-23658000D02*
X50000000Y-23658000D01*
X50800000Y-23658000D02*
X51600000Y-23658000D01*
%TO.C,J15*%
X46930000Y-13910000D02*
X48260000Y-13910000D01*
X46930000Y-15240000D02*
X46930000Y-13910000D01*
X46930000Y-16510000D02*
X46930000Y-16570000D01*
X46930000Y-16510000D02*
X49590000Y-16510000D01*
X46930000Y-16570000D02*
X49590000Y-16570000D01*
X49590000Y-16510000D02*
X49590000Y-16570000D01*
%TO.C,C1*%
X24833139Y-29166876D02*
X24358623Y-29166876D01*
X24833139Y-28121876D02*
X24358623Y-28121876D01*
%TO.C,R1*%
X34386369Y-29185774D02*
X34386369Y-28711258D01*
X35431369Y-29185774D02*
X35431369Y-28711258D01*
%TO.C,J2*%
X13910000Y-39310000D02*
X15240000Y-39310000D01*
X13910000Y-40640000D02*
X13910000Y-39310000D01*
X13910000Y-41910000D02*
X13910000Y-44510000D01*
X13910000Y-41910000D02*
X16570000Y-41910000D01*
X13910000Y-44510000D02*
X16570000Y-44510000D01*
X16570000Y-41910000D02*
X16570000Y-44510000D01*
%TO.C,J11*%
X21530000Y-13910000D02*
X22860000Y-13910000D01*
X21530000Y-15240000D02*
X21530000Y-13910000D01*
X21530000Y-16510000D02*
X21530000Y-16570000D01*
X21530000Y-16510000D02*
X24190000Y-16510000D01*
X21530000Y-16570000D02*
X24190000Y-16570000D01*
X24190000Y-16510000D02*
X24190000Y-16570000D01*
%TO.C,R6*%
X46405123Y-40884092D02*
X46879639Y-40884092D01*
X46405123Y-41929092D02*
X46879639Y-41929092D01*
%TO.C,J18*%
X49470000Y-57090000D02*
X50800000Y-57090000D01*
X49470000Y-58420000D02*
X49470000Y-57090000D01*
X49470000Y-59690000D02*
X49470000Y-59750000D01*
X49470000Y-59690000D02*
X52130000Y-59690000D01*
X49470000Y-59750000D02*
X52130000Y-59750000D01*
X52130000Y-59690000D02*
X52130000Y-59750000D01*
%TO.C,R11*%
X48022742Y-44435500D02*
X48497258Y-44435500D01*
X48022742Y-45480500D02*
X48497258Y-45480500D01*
%TO.C,J15*%
X39310000Y-13910000D02*
X40640000Y-13910000D01*
X39310000Y-15240000D02*
X39310000Y-13910000D01*
X39310000Y-16510000D02*
X39310000Y-16570000D01*
X39310000Y-16510000D02*
X41970000Y-16510000D01*
X39310000Y-16570000D02*
X41970000Y-16570000D01*
X41970000Y-16510000D02*
X41970000Y-16570000D01*
%TO.C,J6*%
X13910000Y-44390000D02*
X15240000Y-44390000D01*
X13910000Y-45720000D02*
X13910000Y-44390000D01*
X13910000Y-46990000D02*
X13910000Y-47050000D01*
X13910000Y-46990000D02*
X16570000Y-46990000D01*
X13910000Y-47050000D02*
X16570000Y-47050000D01*
X16570000Y-46990000D02*
X16570000Y-47050000D01*
%TO.C,J18*%
X57090000Y-44390000D02*
X58420000Y-44390000D01*
X57090000Y-45720000D02*
X57090000Y-44390000D01*
X57090000Y-46990000D02*
X57090000Y-47050000D01*
X57090000Y-46990000D02*
X59750000Y-46990000D01*
X57090000Y-47050000D02*
X59750000Y-47050000D01*
X59750000Y-46990000D02*
X59750000Y-47050000D01*
%TO.C,U5*%
X19541061Y-48260000D02*
X19541061Y-51710000D01*
X19541061Y-48260000D02*
X19541061Y-46310000D01*
X24661061Y-48260000D02*
X24661061Y-50210000D01*
X24661061Y-48260000D02*
X24661061Y-46310000D01*
%TO.C,R3_SHUNT3*%
X50326936Y-49382000D02*
X51781064Y-49382000D01*
X50326936Y-51202000D02*
X51781064Y-51202000D01*
%TO.C,J18*%
X46930000Y-57090000D02*
X48260000Y-57090000D01*
X46930000Y-58420000D02*
X46930000Y-57090000D01*
X46930000Y-59690000D02*
X46930000Y-59750000D01*
X46930000Y-59690000D02*
X49590000Y-59690000D01*
X46930000Y-59750000D02*
X49590000Y-59750000D01*
X49590000Y-59690000D02*
X49590000Y-59750000D01*
%TO.C,J10*%
X26610000Y-13910000D02*
X27940000Y-13910000D01*
X26610000Y-15240000D02*
X26610000Y-13910000D01*
X26610000Y-16510000D02*
X26610000Y-16570000D01*
X26610000Y-16510000D02*
X29270000Y-16510000D01*
X26610000Y-16570000D02*
X29270000Y-16570000D01*
X29270000Y-16510000D02*
X29270000Y-16570000D01*
%TO.C,Q4*%
X45615000Y-40535000D02*
X45615000Y-40265000D01*
X45615000Y-40265000D02*
X48445000Y-40265000D01*
X45615000Y-33905000D02*
X46715000Y-33905000D01*
X45615000Y-33635000D02*
X45615000Y-33905000D01*
X39195000Y-40535000D02*
X45615000Y-40535000D01*
X39195000Y-33635000D02*
X45615000Y-33635000D01*
%TO.C,J17*%
X57090000Y-36770000D02*
X58420000Y-36770000D01*
X57090000Y-38100000D02*
X57090000Y-36770000D01*
X57090000Y-39370000D02*
X57090000Y-39430000D01*
X57090000Y-39370000D02*
X59750000Y-39370000D01*
X57090000Y-39430000D02*
X59750000Y-39430000D01*
X59750000Y-39370000D02*
X59750000Y-39430000D01*
%TO.C,R3_SHUNT1*%
X50326936Y-24236000D02*
X51781064Y-24236000D01*
X50326936Y-26056000D02*
X51781064Y-26056000D01*
%TO.C,J12*%
X31690000Y-13910000D02*
X33020000Y-13910000D01*
X31690000Y-15240000D02*
X31690000Y-13910000D01*
X31690000Y-16510000D02*
X31690000Y-16570000D01*
X31690000Y-16510000D02*
X34350000Y-16510000D01*
X31690000Y-16570000D02*
X34350000Y-16570000D01*
X34350000Y-16510000D02*
X34350000Y-16570000D01*
%TO.C,U3*%
X19592167Y-36863085D02*
X19592167Y-40313085D01*
X19592167Y-36863085D02*
X19592167Y-34913085D01*
X24712167Y-36863085D02*
X24712167Y-38813085D01*
X24712167Y-36863085D02*
X24712167Y-34913085D01*
%TO.C,J17*%
X57090000Y-34230000D02*
X58420000Y-34230000D01*
X57090000Y-35560000D02*
X57090000Y-34230000D01*
X57090000Y-36830000D02*
X57090000Y-36890000D01*
X57090000Y-36830000D02*
X59750000Y-36830000D01*
X57090000Y-36890000D02*
X59750000Y-36890000D01*
X59750000Y-36830000D02*
X59750000Y-36890000D01*
X39310000Y-57090000D02*
X40640000Y-57090000D01*
X39310000Y-58420000D02*
X39310000Y-57090000D01*
X39310000Y-59690000D02*
X39310000Y-59750000D01*
X39310000Y-59690000D02*
X41970000Y-59690000D01*
X39310000Y-59750000D02*
X41970000Y-59750000D01*
X41970000Y-59690000D02*
X41970000Y-59750000D01*
X31690000Y-57090000D02*
X33020000Y-57090000D01*
X31690000Y-58420000D02*
X31690000Y-57090000D01*
X31690000Y-59690000D02*
X31690000Y-59750000D01*
X31690000Y-59690000D02*
X34350000Y-59690000D01*
X31690000Y-59750000D02*
X34350000Y-59750000D01*
X34350000Y-59690000D02*
X34350000Y-59750000D01*
%TO.C,J16*%
X57090000Y-21530000D02*
X58420000Y-21530000D01*
X57090000Y-22860000D02*
X57090000Y-21530000D01*
X57090000Y-24130000D02*
X57090000Y-24190000D01*
X57090000Y-24130000D02*
X59750000Y-24130000D01*
X57090000Y-24190000D02*
X59750000Y-24190000D01*
X59750000Y-24130000D02*
X59750000Y-24190000D01*
%TO.C,R2*%
X46406108Y-27713027D02*
X46880624Y-27713027D01*
X46406108Y-28758027D02*
X46880624Y-28758027D01*
%TO.C,R10*%
X46309822Y-53054020D02*
X46784338Y-53054020D01*
X46309822Y-54099020D02*
X46784338Y-54099020D01*
%TO.C,R12*%
X51545258Y-45480500D02*
X51070742Y-45480500D01*
X51545258Y-44435500D02*
X51070742Y-44435500D01*
%TO.C,R3_SHUNT2*%
X50326936Y-37444000D02*
X51781064Y-37444000D01*
X50326936Y-39264000D02*
X51781064Y-39264000D01*
%TO.C,J16*%
X57090000Y-24070000D02*
X58420000Y-24070000D01*
X57090000Y-25400000D02*
X57090000Y-24070000D01*
X57090000Y-26670000D02*
X57090000Y-26730000D01*
X57090000Y-26670000D02*
X59750000Y-26670000D01*
X57090000Y-26730000D02*
X59750000Y-26730000D01*
X59750000Y-26670000D02*
X59750000Y-26730000D01*
%TO.C,Q2*%
X45615000Y-27325000D02*
X45615000Y-27055000D01*
X45615000Y-27055000D02*
X48445000Y-27055000D01*
X45615000Y-20695000D02*
X46715000Y-20695000D01*
X45615000Y-20425000D02*
X45615000Y-20695000D01*
X39195000Y-27325000D02*
X45615000Y-27325000D01*
X39195000Y-20425000D02*
X45615000Y-20425000D01*
%TO.C,J18*%
X57090000Y-49470000D02*
X58420000Y-49470000D01*
X57090000Y-50800000D02*
X57090000Y-49470000D01*
X57090000Y-52070000D02*
X57090000Y-52130000D01*
X57090000Y-52070000D02*
X59750000Y-52070000D01*
X57090000Y-52130000D02*
X59750000Y-52130000D01*
X59750000Y-52070000D02*
X59750000Y-52130000D01*
%TO.C,J1*%
X13910000Y-29150000D02*
X15240000Y-29150000D01*
X13910000Y-30480000D02*
X13910000Y-29150000D01*
X13910000Y-31750000D02*
X13910000Y-34350000D01*
X13910000Y-31750000D02*
X16570000Y-31750000D01*
X13910000Y-34350000D02*
X16570000Y-34350000D01*
X16570000Y-31750000D02*
X16570000Y-34350000D01*
%TO.C,J4*%
X13910000Y-34230000D02*
X15240000Y-34230000D01*
X13910000Y-35560000D02*
X13910000Y-34230000D01*
X13910000Y-36830000D02*
X13910000Y-36890000D01*
X13910000Y-36830000D02*
X16570000Y-36830000D01*
X13910000Y-36890000D02*
X16570000Y-36890000D01*
X16570000Y-36830000D02*
X16570000Y-36890000D01*
%TO.C,J17*%
X57090000Y-39310000D02*
X58420000Y-39310000D01*
X57090000Y-40640000D02*
X57090000Y-39310000D01*
X57090000Y-41910000D02*
X57090000Y-41970000D01*
X57090000Y-41910000D02*
X59750000Y-41910000D01*
X57090000Y-41970000D02*
X59750000Y-41970000D01*
X59750000Y-41910000D02*
X59750000Y-41970000D01*
%TO.C,R7*%
X48022742Y-31989500D02*
X48497258Y-31989500D01*
X48022742Y-33034500D02*
X48497258Y-33034500D01*
%TO.C,C1_BOOT3*%
X20747121Y-43121775D02*
X21221637Y-43121775D01*
X20747121Y-44166775D02*
X21221637Y-44166775D01*
%TO.C,J14*%
X44390000Y-13910000D02*
X45720000Y-13910000D01*
X44390000Y-15240000D02*
X44390000Y-13910000D01*
X44390000Y-16510000D02*
X44390000Y-16570000D01*
X44390000Y-16510000D02*
X47050000Y-16510000D01*
X44390000Y-16570000D02*
X47050000Y-16570000D01*
X47050000Y-16510000D02*
X47050000Y-16570000D01*
%TO.C,D3*%
X19268100Y-44630000D02*
X17268100Y-44630000D01*
X19268100Y-44630000D02*
X19268100Y-48640000D01*
X17268100Y-44630000D02*
X17268100Y-48640000D01*
%TO.C,C12*%
X53071500Y-21319258D02*
X53071500Y-20844742D01*
X54116500Y-21319258D02*
X54116500Y-20844742D01*
%TO.C,J10*%
X34230000Y-13910000D02*
X35560000Y-13910000D01*
X34230000Y-15240000D02*
X34230000Y-13910000D01*
X34230000Y-16510000D02*
X34230000Y-16570000D01*
X34230000Y-16510000D02*
X36890000Y-16510000D01*
X34230000Y-16570000D02*
X36890000Y-16570000D01*
X36890000Y-16510000D02*
X36890000Y-16570000D01*
%TO.C,Q5*%
X33830000Y-52720000D02*
X33830000Y-52450000D01*
X33830000Y-52450000D02*
X36660000Y-52450000D01*
X33830000Y-46090000D02*
X34930000Y-46090000D01*
X33830000Y-45820000D02*
X33830000Y-46090000D01*
X27410000Y-52720000D02*
X33830000Y-52720000D01*
X27410000Y-45820000D02*
X33830000Y-45820000D01*
%TO.C,J16*%
X21530000Y-57090000D02*
X22860000Y-57090000D01*
X21530000Y-58420000D02*
X21530000Y-57090000D01*
X21530000Y-59690000D02*
X21530000Y-59750000D01*
X21530000Y-59690000D02*
X24190000Y-59690000D01*
X21530000Y-59750000D02*
X24190000Y-59750000D01*
X24190000Y-59690000D02*
X24190000Y-59750000D01*
%TO.C,R13*%
X14111879Y-17891770D02*
X14111879Y-17417254D01*
X15156879Y-17891770D02*
X15156879Y-17417254D01*
%TO.C,J16*%
X29150000Y-57090000D02*
X30480000Y-57090000D01*
X29150000Y-58420000D02*
X29150000Y-57090000D01*
X29150000Y-59690000D02*
X29150000Y-59750000D01*
X29150000Y-59690000D02*
X31810000Y-59690000D01*
X29150000Y-59750000D02*
X31810000Y-59750000D01*
X31810000Y-59690000D02*
X31810000Y-59750000D01*
%TO.C,Q3*%
X33830000Y-40535000D02*
X33830000Y-40265000D01*
X33830000Y-40265000D02*
X36660000Y-40265000D01*
X33830000Y-33905000D02*
X34930000Y-33905000D01*
X33830000Y-33635000D02*
X33830000Y-33905000D01*
X27410000Y-40535000D02*
X33830000Y-40535000D01*
X27410000Y-33635000D02*
X33830000Y-33635000D01*
%TO.C,C7*%
X41178484Y-40859403D02*
X41653000Y-40859403D01*
X41178484Y-41904403D02*
X41653000Y-41904403D01*
%TO.C,J13*%
X41850000Y-13910000D02*
X43180000Y-13910000D01*
X41850000Y-15240000D02*
X41850000Y-13910000D01*
X41850000Y-16510000D02*
X41850000Y-16570000D01*
X41850000Y-16510000D02*
X44510000Y-16510000D01*
X41850000Y-16570000D02*
X44510000Y-16570000D01*
X44510000Y-16510000D02*
X44510000Y-16570000D01*
%TO.C,J5*%
X13910000Y-36770000D02*
X15240000Y-36770000D01*
X13910000Y-38100000D02*
X13910000Y-36770000D01*
X13910000Y-39370000D02*
X13910000Y-39430000D01*
X13910000Y-39370000D02*
X16570000Y-39370000D01*
X13910000Y-39430000D02*
X16570000Y-39430000D01*
X16570000Y-39370000D02*
X16570000Y-39430000D01*
%TO.C,C5*%
X24635873Y-41928844D02*
X24161357Y-41928844D01*
X24635873Y-40883844D02*
X24161357Y-40883844D01*
%TO.C,J7*%
X13910000Y-21530000D02*
X15240000Y-21530000D01*
X13910000Y-22860000D02*
X13910000Y-21530000D01*
X13910000Y-24130000D02*
X13910000Y-26730000D01*
X13910000Y-24130000D02*
X16570000Y-24130000D01*
X13910000Y-26730000D02*
X16570000Y-26730000D01*
X16570000Y-24130000D02*
X16570000Y-26730000D01*
%TO.C,C9*%
X24100961Y-53230824D02*
X23626445Y-53230824D01*
X24100961Y-52185824D02*
X23626445Y-52185824D01*
%TO.C,R8*%
X51545258Y-33034500D02*
X51070742Y-33034500D01*
X51545258Y-31989500D02*
X51070742Y-31989500D01*
%TO.C,J3*%
X13910000Y-46930000D02*
X15240000Y-46930000D01*
X13910000Y-48260000D02*
X13910000Y-46930000D01*
X13910000Y-49530000D02*
X13910000Y-52130000D01*
X13910000Y-49530000D02*
X16570000Y-49530000D01*
X13910000Y-52130000D02*
X16570000Y-52130000D01*
X16570000Y-49530000D02*
X16570000Y-52130000D01*
%TO.C,J16*%
X26610000Y-57090000D02*
X27940000Y-57090000D01*
X26610000Y-58420000D02*
X26610000Y-57090000D01*
X26610000Y-59690000D02*
X26610000Y-59750000D01*
X26610000Y-59690000D02*
X29270000Y-59690000D01*
X26610000Y-59750000D02*
X29270000Y-59750000D01*
X29270000Y-59690000D02*
X29270000Y-59750000D01*
%TO.C,J13*%
X49470000Y-13910000D02*
X50800000Y-13910000D01*
X49470000Y-15240000D02*
X49470000Y-13910000D01*
X49470000Y-16510000D02*
X49470000Y-16570000D01*
X49470000Y-16510000D02*
X52130000Y-16510000D01*
X49470000Y-16570000D02*
X52130000Y-16570000D01*
X52130000Y-16510000D02*
X52130000Y-16570000D01*
%TO.C,C8*%
X53071500Y-45957258D02*
X53071500Y-45482742D01*
X54116500Y-45957258D02*
X54116500Y-45482742D01*
%TO.C,J16*%
X57090000Y-29150000D02*
X58420000Y-29150000D01*
X57090000Y-30480000D02*
X57090000Y-29150000D01*
X57090000Y-31750000D02*
X57090000Y-31810000D01*
X57090000Y-31750000D02*
X59750000Y-31750000D01*
X57090000Y-31810000D02*
X59750000Y-31810000D01*
X59750000Y-31750000D02*
X59750000Y-31810000D01*
%TO.C,C1_BOOT1*%
X21326325Y-19042017D02*
X21800841Y-19042017D01*
X21326325Y-20087017D02*
X21800841Y-20087017D01*
%TO.C,J18*%
X57090000Y-41850000D02*
X58420000Y-41850000D01*
X57090000Y-43180000D02*
X57090000Y-41850000D01*
X57090000Y-44450000D02*
X57090000Y-44510000D01*
X57090000Y-44450000D02*
X59750000Y-44450000D01*
X57090000Y-44510000D02*
X59750000Y-44510000D01*
X59750000Y-44450000D02*
X59750000Y-44510000D01*
%TO.C,U6*%
X50800000Y-45938000D02*
X49000000Y-45938000D01*
X50800000Y-45938000D02*
X51600000Y-45938000D01*
X50800000Y-49058000D02*
X50000000Y-49058000D01*
X50800000Y-49058000D02*
X51600000Y-49058000D01*
%TO.C,J12*%
X24070000Y-13910000D02*
X25400000Y-13910000D01*
X24070000Y-15240000D02*
X24070000Y-13910000D01*
X24070000Y-16510000D02*
X24070000Y-16570000D01*
X24070000Y-16510000D02*
X26730000Y-16510000D01*
X24070000Y-16570000D02*
X26730000Y-16570000D01*
X26730000Y-16510000D02*
X26730000Y-16570000D01*
%TO.C,R3*%
X48022742Y-19035500D02*
X48497258Y-19035500D01*
X48022742Y-20080500D02*
X48497258Y-20080500D01*
%TO.C,C1_BOOT2*%
X20738714Y-31750413D02*
X21213230Y-31750413D01*
X20738714Y-32795413D02*
X21213230Y-32795413D01*
%TO.C,C3*%
X40921209Y-27657970D02*
X41395725Y-27657970D01*
X40921209Y-28702970D02*
X41395725Y-28702970D01*
%TO.C,C11*%
X40849117Y-53055995D02*
X41323633Y-53055995D01*
X40849117Y-54100995D02*
X41323633Y-54100995D01*
%TO.C,R4*%
X51545258Y-20080500D02*
X51070742Y-20080500D01*
X51545258Y-19035500D02*
X51070742Y-19035500D01*
%TO.C,C10*%
X25906861Y-54796240D02*
X25432345Y-54796240D01*
X25906861Y-53751240D02*
X25432345Y-53751240D01*
%TO.C,J16*%
X24070000Y-57090000D02*
X25400000Y-57090000D01*
X24070000Y-58420000D02*
X24070000Y-57090000D01*
X24070000Y-59690000D02*
X24070000Y-59750000D01*
X24070000Y-59690000D02*
X26730000Y-59690000D01*
X24070000Y-59750000D02*
X26730000Y-59750000D01*
X26730000Y-59690000D02*
X26730000Y-59750000D01*
%TO.C,D2*%
X19293653Y-34554191D02*
X17293653Y-34554191D01*
X19293653Y-34554191D02*
X19293653Y-38564191D01*
X17293653Y-34554191D02*
X17293653Y-38564191D01*
%TO.C,C4*%
X53071500Y-33511258D02*
X53071500Y-33036742D01*
X54116500Y-33511258D02*
X54116500Y-33036742D01*
%TO.C,J16*%
X57090000Y-26610000D02*
X58420000Y-26610000D01*
X57090000Y-27940000D02*
X57090000Y-26610000D01*
X57090000Y-29210000D02*
X57090000Y-29270000D01*
X57090000Y-29210000D02*
X59750000Y-29210000D01*
X57090000Y-29270000D02*
X59750000Y-29270000D01*
X59750000Y-29210000D02*
X59750000Y-29270000D01*
%TO.C,Q6*%
X45615000Y-52725000D02*
X45615000Y-52455000D01*
X45615000Y-52455000D02*
X48445000Y-52455000D01*
X45615000Y-46095000D02*
X46715000Y-46095000D01*
X45615000Y-45825000D02*
X45615000Y-46095000D01*
X39195000Y-52725000D02*
X45615000Y-52725000D01*
X39195000Y-45825000D02*
X45615000Y-45825000D01*
%TO.C,J17*%
X57090000Y-31690000D02*
X58420000Y-31690000D01*
X57090000Y-33020000D02*
X57090000Y-31690000D01*
X57090000Y-34290000D02*
X57090000Y-34350000D01*
X57090000Y-34290000D02*
X59750000Y-34290000D01*
X57090000Y-34350000D02*
X59750000Y-34350000D01*
X59750000Y-34290000D02*
X59750000Y-34350000D01*
%TO.C,U4*%
X50800000Y-33746000D02*
X49000000Y-33746000D01*
X50800000Y-33746000D02*
X51600000Y-33746000D01*
X50800000Y-36866000D02*
X50000000Y-36866000D01*
X50800000Y-36866000D02*
X51600000Y-36866000D01*
%TO.C,J18*%
X57090000Y-46930000D02*
X58420000Y-46930000D01*
X57090000Y-48260000D02*
X57090000Y-46930000D01*
X57090000Y-49530000D02*
X57090000Y-49590000D01*
X57090000Y-49530000D02*
X59750000Y-49530000D01*
X57090000Y-49590000D02*
X59750000Y-49590000D01*
X59750000Y-49530000D02*
X59750000Y-49590000D01*
%TO.C,U1*%
X19694379Y-24163206D02*
X19694379Y-27613206D01*
X19694379Y-24163206D02*
X19694379Y-22213206D01*
X24814379Y-24163206D02*
X24814379Y-26113206D01*
X24814379Y-24163206D02*
X24814379Y-22213206D01*
%TO.C,Q1*%
X33830000Y-27325000D02*
X33830000Y-27055000D01*
X33830000Y-27055000D02*
X36660000Y-27055000D01*
X33830000Y-20695000D02*
X34930000Y-20695000D01*
X33830000Y-20425000D02*
X33830000Y-20695000D01*
X27410000Y-27325000D02*
X33830000Y-27325000D01*
X27410000Y-20425000D02*
X33830000Y-20425000D01*
%TO.C,J17*%
X34230000Y-57090000D02*
X35560000Y-57090000D01*
X34230000Y-58420000D02*
X34230000Y-57090000D01*
X34230000Y-59690000D02*
X34230000Y-59750000D01*
X34230000Y-59690000D02*
X36890000Y-59690000D01*
X34230000Y-59750000D02*
X36890000Y-59750000D01*
X36890000Y-59690000D02*
X36890000Y-59750000D01*
%TO.C,J18*%
X41850000Y-57090000D02*
X43180000Y-57090000D01*
X41850000Y-58420000D02*
X41850000Y-57090000D01*
X41850000Y-59690000D02*
X41850000Y-59750000D01*
X41850000Y-59690000D02*
X44510000Y-59690000D01*
X41850000Y-59750000D02*
X44510000Y-59750000D01*
X44510000Y-59690000D02*
X44510000Y-59750000D01*
%TO.C,R5*%
X34107220Y-42419106D02*
X34107220Y-41944590D01*
X35152220Y-42419106D02*
X35152220Y-41944590D01*
%TO.C,C6*%
X25957967Y-43450674D02*
X25483451Y-43450674D01*
X25957967Y-42405674D02*
X25483451Y-42405674D01*
%TD*%
M02*
