%TF.GenerationSoftware,KiCad,Pcbnew,7.0.5*%
%TF.CreationDate,2024-12-02T14:14:43-05:00*%
%TF.ProjectId,isabel_model,69736162-656c-45f6-9d6f-64656c2e6b69,rev?*%
%TF.SameCoordinates,Original*%
%TF.FileFunction,Profile,NP*%
%FSLAX46Y46*%
G04 Gerber Fmt 4.6, Leading zero omitted, Abs format (unit mm)*
G04 Created by KiCad (PCBNEW 7.0.5) date 2024-12-02 14:14:43*
%MOMM*%
%LPD*%
G01*
G04 APERTURE LIST*
%TA.AperFunction,Profile*%
%ADD10C,0.100000*%
%TD*%
G04 APERTURE END LIST*
D10*
X34548325Y-16578950D02*
X55450000Y-16578950D01*
X34548325Y-83420000D02*
X34548325Y-16578950D01*
X55450000Y-16578950D02*
X55450000Y-83420000D01*
X55450000Y-83420000D02*
X34550000Y-83420000D01*
%TA.AperFunction,Profile*%
%TO.C,G\u002A\u002A\u002A*%
G36*
X36210024Y-72763007D02*
G01*
X36261563Y-72847893D01*
X36262685Y-72936584D01*
X36213870Y-73010857D01*
X36203279Y-73018926D01*
X36107457Y-73061886D01*
X36020977Y-73046119D01*
X35964915Y-73002863D01*
X35919021Y-72931368D01*
X35921109Y-72858889D01*
X35967358Y-72762910D01*
X36040494Y-72712247D01*
X36126708Y-72711484D01*
X36210024Y-72763007D01*
G37*
%TD.AperFunction*%
%TA.AperFunction,Profile*%
G36*
X36219320Y-65431753D02*
G01*
X36253440Y-65498344D01*
X36258255Y-65581818D01*
X36219108Y-65647894D01*
X36151724Y-65689746D01*
X36071833Y-65700550D01*
X35995161Y-65673480D01*
X35952280Y-65629032D01*
X35923696Y-65539000D01*
X35945721Y-65453642D01*
X36011069Y-65392210D01*
X36046936Y-65378842D01*
X36146270Y-65378001D01*
X36219320Y-65431753D01*
G37*
%TD.AperFunction*%
%TA.AperFunction,Profile*%
G36*
X37304186Y-67238615D02*
G01*
X37352812Y-67305170D01*
X37361814Y-67371678D01*
X37338306Y-67464720D01*
X37278751Y-67526300D01*
X37199597Y-67549301D01*
X37117297Y-67526605D01*
X37078564Y-67494213D01*
X37035498Y-67410265D01*
X37043041Y-67325830D01*
X37093435Y-67256806D01*
X37178926Y-67219094D01*
X37214165Y-67216229D01*
X37304186Y-67238615D01*
G37*
%TD.AperFunction*%
%TA.AperFunction,Profile*%
G36*
X40592843Y-65382860D02*
G01*
X40668612Y-65425805D01*
X40701273Y-65472984D01*
X40715288Y-65559633D01*
X40683917Y-65631603D01*
X40621992Y-65681182D01*
X40544345Y-65700656D01*
X40465808Y-65682314D01*
X40406180Y-65626425D01*
X40374634Y-65544737D01*
X40377224Y-65489996D01*
X40427373Y-65415994D01*
X40505838Y-65379936D01*
X40592843Y-65382860D01*
G37*
%TD.AperFunction*%
%TA.AperFunction,Profile*%
G36*
X40659024Y-21283912D02*
G01*
X40711424Y-21341908D01*
X40726253Y-21436921D01*
X40702197Y-21534735D01*
X40640660Y-21599748D01*
X40557586Y-21625011D01*
X40468921Y-21603580D01*
X40423150Y-21568974D01*
X40370855Y-21483005D01*
X40370330Y-21395611D01*
X40414856Y-21321306D01*
X40497715Y-21274605D01*
X40563449Y-21265871D01*
X40659024Y-21283912D01*
G37*
%TD.AperFunction*%
%TA.AperFunction,Profile*%
G36*
X41717709Y-23093718D02*
G01*
X41794797Y-23140174D01*
X41841269Y-23221210D01*
X41847733Y-23271615D01*
X41822243Y-23359553D01*
X41757962Y-23420188D01*
X41673170Y-23446457D01*
X41586148Y-23431296D01*
X41534172Y-23392781D01*
X41490603Y-23306500D01*
X41493048Y-23211715D01*
X41539439Y-23134650D01*
X41626944Y-23089369D01*
X41717709Y-23093718D01*
G37*
%TD.AperFunction*%
%TA.AperFunction,Profile*%
G36*
X41718462Y-67225098D02*
G01*
X41794142Y-67276888D01*
X41803996Y-67290390D01*
X41831550Y-67375150D01*
X41811962Y-67452926D01*
X41758626Y-67513479D01*
X41684934Y-67546568D01*
X41604278Y-67541955D01*
X41535503Y-67495683D01*
X41489253Y-67408468D01*
X41498982Y-67320750D01*
X41539439Y-67266393D01*
X41626727Y-67220980D01*
X41718462Y-67225098D01*
G37*
%TD.AperFunction*%
%TA.AperFunction,Profile*%
G36*
X45039700Y-76381120D02*
G01*
X45114843Y-76438897D01*
X45115957Y-76440080D01*
X45172942Y-76531857D01*
X45169385Y-76622267D01*
X45120060Y-76697626D01*
X45036112Y-76754934D01*
X44949773Y-76751993D01*
X44878759Y-76703342D01*
X44825917Y-76614728D01*
X44830659Y-76520310D01*
X44888290Y-76435833D01*
X44968580Y-76380180D01*
X45039700Y-76381120D01*
G37*
%TD.AperFunction*%
%TA.AperFunction,Profile*%
G36*
X45042816Y-80072069D02*
G01*
X45114433Y-80110329D01*
X45163054Y-80174758D01*
X45177935Y-80254383D01*
X45148331Y-80338232D01*
X45121241Y-80370883D01*
X45035080Y-80422476D01*
X44943267Y-80423034D01*
X44868301Y-80376074D01*
X44824732Y-80289793D01*
X44827177Y-80195009D01*
X44873568Y-80117944D01*
X44958946Y-80070950D01*
X45042816Y-80072069D01*
G37*
%TD.AperFunction*%
%TA.AperFunction,Profile*%
G36*
X47313319Y-17623765D02*
G01*
X47367782Y-17687476D01*
X47390847Y-17770575D01*
X47376901Y-17854172D01*
X47327146Y-17914869D01*
X47234085Y-17957792D01*
X47154982Y-17943330D01*
X47111261Y-17906623D01*
X47068022Y-17822238D01*
X47070478Y-17732132D01*
X47111614Y-17654060D01*
X47184415Y-17605774D01*
X47233071Y-17598330D01*
X47313319Y-17623765D01*
G37*
%TD.AperFunction*%
%TA.AperFunction,Profile*%
G36*
X47327394Y-24954689D02*
G01*
X47386301Y-25018328D01*
X47402088Y-25105427D01*
X47376655Y-25189299D01*
X47312783Y-25245532D01*
X47229118Y-25266895D01*
X47144304Y-25246158D01*
X47108728Y-25219196D01*
X47062261Y-25137804D01*
X47064566Y-25051932D01*
X47108436Y-24979270D01*
X47186665Y-24937506D01*
X47225159Y-24933413D01*
X47327394Y-24954689D01*
G37*
%TD.AperFunction*%
%TA.AperFunction,Profile*%
G36*
X48426580Y-74575900D02*
G01*
X48486790Y-74637850D01*
X48513914Y-74719444D01*
X48501835Y-74802963D01*
X48448626Y-74867852D01*
X48352279Y-74910883D01*
X48265626Y-74895068D01*
X48212888Y-74854416D01*
X48161852Y-74768799D01*
X48161430Y-74680035D01*
X48204818Y-74604424D01*
X48285214Y-74558265D01*
X48339395Y-74551313D01*
X48426580Y-74575900D01*
G37*
%TD.AperFunction*%
%TA.AperFunction,Profile*%
G36*
X48434959Y-81931653D02*
G01*
X48498201Y-82001119D01*
X48515990Y-82087041D01*
X48490565Y-82170637D01*
X48426464Y-82227152D01*
X48341947Y-82250318D01*
X48255273Y-82233867D01*
X48202430Y-82194690D01*
X48156135Y-82107327D01*
X48161154Y-82020162D01*
X48210239Y-81949051D01*
X48296141Y-81909851D01*
X48334129Y-81906603D01*
X48434959Y-81931653D01*
G37*
%TD.AperFunction*%
%TA.AperFunction,Profile*%
G36*
X52854716Y-81905213D02*
G01*
X52927511Y-81960794D01*
X52988175Y-82039302D01*
X52994781Y-82108540D01*
X52948866Y-82183507D01*
X52857994Y-82252036D01*
X52757151Y-82261535D01*
X52698806Y-82241182D01*
X52635618Y-82180139D01*
X52609103Y-82093340D01*
X52621157Y-82003836D01*
X52673582Y-81934742D01*
X52768317Y-81891257D01*
X52854716Y-81905213D01*
G37*
%TD.AperFunction*%
%TA.AperFunction,Profile*%
G36*
X36169844Y-80083953D02*
G01*
X36223014Y-80115411D01*
X36265191Y-80194701D01*
X36264863Y-80287057D01*
X36223942Y-80366412D01*
X36203279Y-80384320D01*
X36106933Y-80427350D01*
X36020280Y-80411536D01*
X35967542Y-80370883D01*
X35914522Y-80284096D01*
X35912224Y-80195245D01*
X35954328Y-80120132D01*
X36034512Y-80074559D01*
X36088783Y-80067781D01*
X36169844Y-80083953D01*
G37*
%TD.AperFunction*%
%TA.AperFunction,Profile*%
G36*
X37282392Y-81920926D02*
G01*
X37352692Y-81982517D01*
X37389712Y-82076472D01*
X37392124Y-82110452D01*
X37365631Y-82176869D01*
X37298549Y-82223769D01*
X37209472Y-82244752D01*
X37116996Y-82233418D01*
X37081444Y-82217382D01*
X37036871Y-82160596D01*
X37026348Y-82078289D01*
X37048274Y-81993965D01*
X37100967Y-81931178D01*
X37193566Y-81900785D01*
X37282392Y-81920926D01*
G37*
%TD.AperFunction*%
%TA.AperFunction,Profile*%
G36*
X38343856Y-69045896D02*
G01*
X38388278Y-69067904D01*
X38455884Y-69133433D01*
X38481119Y-69218030D01*
X38461864Y-69301317D01*
X38417632Y-69350191D01*
X38343181Y-69391439D01*
X38281536Y-69388644D01*
X38217245Y-69351384D01*
X38159794Y-69279667D01*
X38150725Y-69192662D01*
X38189171Y-69110434D01*
X38229149Y-69075235D01*
X38292120Y-69041861D01*
X38343856Y-69045896D01*
G37*
%TD.AperFunction*%
%TA.AperFunction,Profile*%
G36*
X39511061Y-81924777D02*
G01*
X39516831Y-81927470D01*
X39574452Y-81983947D01*
X39602029Y-82066357D01*
X39596234Y-82150564D01*
X39555900Y-82210894D01*
X39465970Y-82246054D01*
X39368524Y-82240030D01*
X39291213Y-82194690D01*
X39247046Y-82109211D01*
X39250225Y-82017955D01*
X39264864Y-81986801D01*
X39329743Y-81933890D01*
X39421525Y-81910927D01*
X39511061Y-81924777D01*
G37*
%TD.AperFunction*%
%TA.AperFunction,Profile*%
G36*
X39522905Y-19438809D02*
G01*
X39574463Y-19477566D01*
X39627758Y-19561305D01*
X39621982Y-19650784D01*
X39587899Y-19713304D01*
X39518312Y-19765711D01*
X39425413Y-19781007D01*
X39334595Y-19758171D01*
X39291213Y-19725239D01*
X39244405Y-19640100D01*
X39246598Y-19556952D01*
X39286668Y-19485523D01*
X39353492Y-19435538D01*
X39435946Y-19416725D01*
X39522905Y-19438809D01*
G37*
%TD.AperFunction*%
%TA.AperFunction,Profile*%
G36*
X39531802Y-78260923D02*
G01*
X39586631Y-78336118D01*
X39598832Y-78390282D01*
X39584278Y-78484431D01*
X39530634Y-78551153D01*
X39454124Y-78584338D01*
X39370976Y-78577872D01*
X39297414Y-78525643D01*
X39284876Y-78508555D01*
X39246654Y-78409219D01*
X39264810Y-78322215D01*
X39337181Y-78256686D01*
X39345402Y-78252572D01*
X39446955Y-78230664D01*
X39531802Y-78260923D01*
G37*
%TD.AperFunction*%
%TA.AperFunction,Profile*%
G36*
X40650664Y-61739053D02*
G01*
X40685863Y-61779030D01*
X40719237Y-61841996D01*
X40715205Y-61893722D01*
X40693183Y-61938159D01*
X40624917Y-62008011D01*
X40537441Y-62027778D01*
X40449072Y-61994985D01*
X40424986Y-61974390D01*
X40372230Y-61903448D01*
X40371790Y-61835576D01*
X40409714Y-61767126D01*
X40481431Y-61709676D01*
X40568436Y-61700606D01*
X40650664Y-61739053D01*
G37*
%TD.AperFunction*%
%TA.AperFunction,Profile*%
G36*
X40652517Y-69080401D02*
G01*
X40705942Y-69141778D01*
X40722237Y-69221331D01*
X40692170Y-69306057D01*
X40665632Y-69337948D01*
X40602748Y-69385761D01*
X40537014Y-69391674D01*
X40463703Y-69368300D01*
X40396305Y-69313895D01*
X40369260Y-69234931D01*
X40382071Y-69151633D01*
X40434237Y-69084229D01*
X40471209Y-69064169D01*
X40571196Y-69050197D01*
X40652517Y-69080401D01*
G37*
%TD.AperFunction*%
%TA.AperFunction,Profile*%
G36*
X41701852Y-70894395D02*
G01*
X41782769Y-70938584D01*
X41814674Y-70978787D01*
X41842228Y-71042131D01*
X41833431Y-71093789D01*
X41807343Y-71137916D01*
X41735420Y-71199803D01*
X41643795Y-71217807D01*
X41555647Y-71189269D01*
X41531640Y-71169554D01*
X41489799Y-71089577D01*
X41493679Y-70997502D01*
X41533277Y-70929765D01*
X41610852Y-70890090D01*
X41701852Y-70894395D01*
G37*
%TD.AperFunction*%
%TA.AperFunction,Profile*%
G36*
X42817878Y-61690812D02*
G01*
X42876731Y-61728521D01*
X42929896Y-61813462D01*
X42934012Y-61898277D01*
X42899134Y-61971086D01*
X42835320Y-62020004D01*
X42752626Y-62033151D01*
X42661108Y-61998643D01*
X42652959Y-61992923D01*
X42610155Y-61929026D01*
X42599999Y-61842949D01*
X42624108Y-61764588D01*
X42639588Y-61745774D01*
X42729720Y-61690353D01*
X42817878Y-61690812D01*
G37*
%TD.AperFunction*%
%TA.AperFunction,Profile*%
G36*
X42874756Y-80094881D02*
G01*
X42943506Y-80164523D01*
X42969212Y-80256387D01*
X42942934Y-80329180D01*
X42878464Y-80393118D01*
X42797351Y-80429047D01*
X42772196Y-80431504D01*
X42693793Y-80410423D01*
X42635799Y-80370883D01*
X42583131Y-80284826D01*
X42582545Y-80197848D01*
X42627363Y-80123942D01*
X42710909Y-80077099D01*
X42780441Y-80067781D01*
X42874756Y-80094881D01*
G37*
%TD.AperFunction*%
%TA.AperFunction,Profile*%
G36*
X42886939Y-21287561D02*
G01*
X42937834Y-21354039D01*
X42954681Y-21439338D01*
X42929974Y-21529894D01*
X42889286Y-21583950D01*
X42809533Y-21625475D01*
X42715096Y-21610317D01*
X42689214Y-21597064D01*
X42618032Y-21526833D01*
X42593372Y-21438836D01*
X42613927Y-21351286D01*
X42678392Y-21282399D01*
X42713016Y-21265324D01*
X42809498Y-21253468D01*
X42886939Y-21287561D01*
G37*
%TD.AperFunction*%
%TA.AperFunction,Profile*%
G36*
X43936520Y-78235185D02*
G01*
X44021340Y-78293546D01*
X44037533Y-78313296D01*
X44075268Y-78372895D01*
X44077007Y-78421550D01*
X44049229Y-78483907D01*
X43981958Y-78576877D01*
X43907071Y-78609744D01*
X43824058Y-78582609D01*
X43771056Y-78538490D01*
X43708462Y-78446920D01*
X43706398Y-78358040D01*
X43759115Y-78277639D01*
X43844087Y-78229240D01*
X43936520Y-78235185D01*
G37*
%TD.AperFunction*%
%TA.AperFunction,Profile*%
G36*
X43974025Y-74576334D02*
G01*
X44032322Y-74639207D01*
X44057858Y-74721651D01*
X44044624Y-74805382D01*
X43993017Y-74867852D01*
X43903161Y-74910286D01*
X43824854Y-74896273D01*
X43762563Y-74844884D01*
X43715718Y-74779780D01*
X43696659Y-74723643D01*
X43722566Y-74653787D01*
X43785537Y-74590681D01*
X43863439Y-74554154D01*
X43888978Y-74551313D01*
X43974025Y-74576334D01*
G37*
%TD.AperFunction*%
%TA.AperFunction,Profile*%
G36*
X43999518Y-19466482D02*
G01*
X44050634Y-19538650D01*
X44060382Y-19594808D01*
X44036559Y-19687706D01*
X43976160Y-19751105D01*
X43895791Y-19779390D01*
X43812058Y-19766946D01*
X43741566Y-19708157D01*
X43738523Y-19703651D01*
X43709409Y-19611967D01*
X43734728Y-19523839D01*
X43809304Y-19453833D01*
X43831367Y-19442510D01*
X43920425Y-19430443D01*
X43999518Y-19466482D01*
G37*
%TD.AperFunction*%
%TA.AperFunction,Profile*%
G36*
X45053616Y-69049565D02*
G01*
X45131365Y-69105087D01*
X45150595Y-69133354D01*
X45179951Y-69199465D01*
X45173865Y-69253424D01*
X45150606Y-69300060D01*
X45084565Y-69369786D01*
X45000156Y-69396624D01*
X44916913Y-69378313D01*
X44866515Y-69332907D01*
X44822684Y-69231147D01*
X44834796Y-69137721D01*
X44876078Y-69082736D01*
X44961688Y-69040856D01*
X45053616Y-69049565D01*
G37*
%TD.AperFunction*%
%TA.AperFunction,Profile*%
G36*
X46144658Y-19427512D02*
G01*
X46203444Y-19466245D01*
X46278760Y-19542067D01*
X46296315Y-19619489D01*
X46259686Y-19706383D01*
X46189167Y-19765736D01*
X46099554Y-19779334D01*
X46013004Y-19745848D01*
X45987509Y-19722728D01*
X45945789Y-19637216D01*
X45954312Y-19545164D01*
X46009308Y-19467549D01*
X46036737Y-19448834D01*
X46097353Y-19421329D01*
X46144658Y-19427512D01*
G37*
%TD.AperFunction*%
%TA.AperFunction,Profile*%
G36*
X47269148Y-72712634D02*
G01*
X47352823Y-72771248D01*
X47362531Y-72782925D01*
X47406795Y-72877134D01*
X47392828Y-72966407D01*
X47340191Y-73028222D01*
X47255016Y-73062352D01*
X47159024Y-73056110D01*
X47081689Y-73011489D01*
X47080951Y-73010680D01*
X47035375Y-72923118D01*
X47049199Y-72831043D01*
X47092589Y-72768723D01*
X47178781Y-72711602D01*
X47269148Y-72712634D01*
G37*
%TD.AperFunction*%
%TA.AperFunction,Profile*%
G36*
X47311529Y-65385526D02*
G01*
X47381954Y-65440314D01*
X47409197Y-65487067D01*
X47410651Y-65573328D01*
X47369067Y-65648576D01*
X47299688Y-65702681D01*
X47217759Y-65725515D01*
X47138524Y-65706951D01*
X47110714Y-65685382D01*
X47052197Y-65592111D01*
X47048004Y-65494945D01*
X47096171Y-65408854D01*
X47152449Y-65367078D01*
X47226825Y-65357281D01*
X47311529Y-65385526D01*
G37*
%TD.AperFunction*%
%TA.AperFunction,Profile*%
G36*
X49502172Y-21278594D02*
G01*
X49580821Y-21322236D01*
X49619013Y-21391937D01*
X49619187Y-21470914D01*
X49583779Y-21542387D01*
X49515224Y-21589577D01*
X49455608Y-21599284D01*
X49366186Y-21575366D01*
X49315611Y-21522267D01*
X49282879Y-21452191D01*
X49292337Y-21386674D01*
X49299495Y-21369865D01*
X49356309Y-21293104D01*
X49437588Y-21269214D01*
X49502172Y-21278594D01*
G37*
%TD.AperFunction*%
%TA.AperFunction,Profile*%
G36*
X49525546Y-80089507D02*
G01*
X49598983Y-80143912D01*
X49636149Y-80214831D01*
X49637470Y-80230413D01*
X49611995Y-80325781D01*
X49546890Y-80391730D01*
X49459135Y-80419356D01*
X49365711Y-80399754D01*
X49341945Y-80385371D01*
X49286130Y-80315548D01*
X49273940Y-80230624D01*
X49299969Y-80148878D01*
X49358812Y-80088589D01*
X49435874Y-80067781D01*
X49525546Y-80089507D01*
G37*
%TD.AperFunction*%
%TA.AperFunction,Profile*%
G36*
X50651971Y-81919762D02*
G01*
X50723349Y-81977222D01*
X50758013Y-82063049D01*
X50758950Y-82080880D01*
X50733478Y-82164344D01*
X50669020Y-82222101D01*
X50583514Y-82249291D01*
X50494899Y-82241051D01*
X50421113Y-82192522D01*
X50408567Y-82175828D01*
X50376533Y-82081732D01*
X50403181Y-81993749D01*
X50471817Y-81928541D01*
X50562064Y-81900319D01*
X50651971Y-81919762D01*
G37*
%TD.AperFunction*%
%TA.AperFunction,Profile*%
G36*
X50678588Y-19472585D02*
G01*
X50692267Y-19483628D01*
X50724580Y-19553319D01*
X50721320Y-19641316D01*
X50684731Y-19718545D01*
X50673210Y-19730505D01*
X50590738Y-19776088D01*
X50509012Y-19761332D01*
X50455847Y-19720048D01*
X50402911Y-19634900D01*
X50406538Y-19549057D01*
X50442857Y-19494886D01*
X50513844Y-19457316D01*
X50602583Y-19449424D01*
X50678588Y-19472585D01*
G37*
%TD.AperFunction*%
%TA.AperFunction,Profile*%
G36*
X51726624Y-17612577D02*
G01*
X51770851Y-17638719D01*
X51836417Y-17711010D01*
X51845131Y-17802623D01*
X51818742Y-17873115D01*
X51763925Y-17919471D01*
X51683207Y-17934234D01*
X51602219Y-17917737D01*
X51546589Y-17870315D01*
X51546180Y-17869558D01*
X51521198Y-17770090D01*
X51552091Y-17682558D01*
X51611722Y-17631456D01*
X51675033Y-17603845D01*
X51726624Y-17612577D01*
G37*
%TD.AperFunction*%
%TA.AperFunction,Profile*%
G36*
X51763445Y-21289982D02*
G01*
X51818207Y-21350083D01*
X51846719Y-21427825D01*
X51842735Y-21504859D01*
X51800011Y-21562837D01*
X51791491Y-21567908D01*
X51687544Y-21597619D01*
X51595330Y-21575614D01*
X51564337Y-21551654D01*
X51522865Y-21474248D01*
X51528188Y-21389418D01*
X51572277Y-21315614D01*
X51647107Y-21271287D01*
X51688679Y-21265871D01*
X51763445Y-21289982D01*
G37*
%TD.AperFunction*%
%TA.AperFunction,Profile*%
G36*
X52862998Y-74545751D02*
G01*
X52935762Y-74605959D01*
X52988353Y-74680575D01*
X53001909Y-74731797D01*
X52975727Y-74815831D01*
X52909501Y-74877197D01*
X52821713Y-74909025D01*
X52730845Y-74904445D01*
X52658039Y-74859606D01*
X52616110Y-74775779D01*
X52617608Y-74682151D01*
X52655462Y-74596715D01*
X52722600Y-74537465D01*
X52791115Y-74521003D01*
X52862998Y-74545751D01*
G37*
%TD.AperFunction*%
%TA.AperFunction,Profile*%
G36*
X52902817Y-19471157D02*
G01*
X52940222Y-19505884D01*
X52969568Y-19600684D01*
X52942803Y-19682602D01*
X52910978Y-19720048D01*
X52826947Y-19773273D01*
X52744521Y-19767577D01*
X52688349Y-19725239D01*
X52647498Y-19646705D01*
X52641589Y-19557586D01*
X52672231Y-19486045D01*
X52674558Y-19483628D01*
X52740323Y-19451684D01*
X52825492Y-19448288D01*
X52902817Y-19471157D01*
G37*
%TD.AperFunction*%
%TA.AperFunction,Profile*%
G36*
X54003611Y-80090110D02*
G01*
X54071454Y-80153991D01*
X54093079Y-80247110D01*
X54067333Y-80340170D01*
X54000787Y-80404133D01*
X53909475Y-80430987D01*
X53809432Y-80412719D01*
X53785781Y-80400659D01*
X53731189Y-80337439D01*
X53712804Y-80247671D01*
X53734624Y-80156160D01*
X53743826Y-80140347D01*
X53804361Y-80083980D01*
X53894596Y-80067781D01*
X54003611Y-80090110D01*
G37*
%TD.AperFunction*%
%TA.AperFunction,Profile*%
G36*
X54005387Y-61698118D02*
G01*
X54067439Y-61762003D01*
X54093027Y-61861307D01*
X54093079Y-61866468D01*
X54069025Y-61961782D01*
X54007659Y-62030379D01*
X53925171Y-62064457D01*
X53837753Y-62056213D01*
X53778971Y-62017840D01*
X53718186Y-61925012D01*
X53717587Y-61829671D01*
X53751887Y-61764317D01*
X53832466Y-61694741D01*
X53922014Y-61674186D01*
X54005387Y-61698118D01*
G37*
%TD.AperFunction*%
%TA.AperFunction,Profile*%
G36*
X36136632Y-24906752D02*
G01*
X36213355Y-24945028D01*
X36267468Y-25010678D01*
X36287225Y-25093463D01*
X36260877Y-25183149D01*
X36248113Y-25202270D01*
X36170133Y-25268563D01*
X36078167Y-25292247D01*
X35991955Y-25270538D01*
X35958415Y-25243177D01*
X35916183Y-25159246D01*
X35911442Y-25060555D01*
X35943823Y-24974211D01*
X35962351Y-24953266D01*
X36049048Y-24906086D01*
X36136632Y-24906752D01*
G37*
%TD.AperFunction*%
%TA.AperFunction,Profile*%
G36*
X37233054Y-78235103D02*
G01*
X37271447Y-78249399D01*
X37353987Y-78310038D01*
X37384342Y-78394787D01*
X37358795Y-78491345D01*
X37349301Y-78507023D01*
X37278425Y-78566313D01*
X37186817Y-78582757D01*
X37098997Y-78553851D01*
X37076031Y-78534947D01*
X37032248Y-78453286D01*
X37034803Y-78360170D01*
X37081167Y-78280019D01*
X37104355Y-78261416D01*
X37169656Y-78229640D01*
X37233054Y-78235103D01*
G37*
%TD.AperFunction*%
%TA.AperFunction,Profile*%
G36*
X37290643Y-74579090D02*
G01*
X37358411Y-74652880D01*
X37375791Y-74694782D01*
X37375058Y-74761766D01*
X37325894Y-74832362D01*
X37319608Y-74838756D01*
X37244316Y-74899350D01*
X37178379Y-74909553D01*
X37101723Y-74871975D01*
X37095766Y-74867852D01*
X37041517Y-74799062D01*
X37031541Y-74714708D01*
X37059844Y-74633114D01*
X37120434Y-74572606D01*
X37199278Y-74551313D01*
X37290643Y-74579090D01*
G37*
%TD.AperFunction*%
%TA.AperFunction,Profile*%
G36*
X37311762Y-70909101D02*
G01*
X37325441Y-70920143D01*
X37351529Y-70974881D01*
X37361814Y-71050478D01*
X37343995Y-71148760D01*
X37286733Y-71202384D01*
X37195107Y-71217184D01*
X37116624Y-71206094D01*
X37064773Y-71180812D01*
X37033471Y-71112933D01*
X37033574Y-71024546D01*
X37063706Y-70946136D01*
X37076031Y-70931402D01*
X37147018Y-70893832D01*
X37235757Y-70885939D01*
X37311762Y-70909101D01*
G37*
%TD.AperFunction*%
%TA.AperFunction,Profile*%
G36*
X38419215Y-76428711D02*
G01*
X38421174Y-76429747D01*
X38468925Y-76484902D01*
X38485766Y-76565735D01*
X38471369Y-76646606D01*
X38425404Y-76701875D01*
X38424665Y-76702275D01*
X38316918Y-76733794D01*
X38221649Y-76712504D01*
X38159960Y-76654383D01*
X38126586Y-76591418D01*
X38130618Y-76539692D01*
X38152640Y-76495255D01*
X38221866Y-76427162D01*
X38317318Y-76403372D01*
X38419215Y-76428711D01*
G37*
%TD.AperFunction*%
%TA.AperFunction,Profile*%
G36*
X40622298Y-72728845D02*
G01*
X40688953Y-72794030D01*
X40724535Y-72876656D01*
X40726253Y-72897685D01*
X40700426Y-72978850D01*
X40635592Y-73035476D01*
X40550725Y-73060726D01*
X40464796Y-73047764D01*
X40412693Y-73010680D01*
X40372738Y-72940396D01*
X40362530Y-72889439D01*
X40387811Y-72810727D01*
X40449315Y-72741602D01*
X40525528Y-72704191D01*
X40544391Y-72702387D01*
X40622298Y-72728845D01*
G37*
%TD.AperFunction*%
%TA.AperFunction,Profile*%
G36*
X40622564Y-76417391D02*
G01*
X40676090Y-76455669D01*
X40721611Y-76542017D01*
X40708195Y-76629027D01*
X40646390Y-76701142D01*
X40583042Y-76747380D01*
X40540137Y-76759131D01*
X40491246Y-76740351D01*
X40468616Y-76727743D01*
X40392975Y-76667622D01*
X40364390Y-76590938D01*
X40362994Y-76564066D01*
X40388072Y-76483428D01*
X40452166Y-76427786D01*
X40536566Y-76403614D01*
X40622564Y-76417391D01*
G37*
%TD.AperFunction*%
%TA.AperFunction,Profile*%
G36*
X40622691Y-24930436D02*
G01*
X40651961Y-24946753D01*
X40718393Y-25020919D01*
X40734053Y-25112032D01*
X40698453Y-25203178D01*
X40660558Y-25244093D01*
X40590971Y-25288720D01*
X40526816Y-25287101D01*
X40447512Y-25238314D01*
X40442393Y-25234316D01*
X40381750Y-25157796D01*
X40369567Y-25074908D01*
X40396706Y-24998191D01*
X40454032Y-24940181D01*
X40532406Y-24913417D01*
X40622691Y-24930436D01*
G37*
%TD.AperFunction*%
%TA.AperFunction,Profile*%
G36*
X40647841Y-80093756D02*
G01*
X40708961Y-80164652D01*
X40726253Y-80250089D01*
X40699342Y-80336956D01*
X40632197Y-80404205D01*
X40545202Y-80431501D01*
X40544391Y-80431504D01*
X40484908Y-80414919D01*
X40429894Y-80384320D01*
X40373253Y-80314796D01*
X40363245Y-80232059D01*
X40393562Y-80152431D01*
X40457900Y-80092235D01*
X40549952Y-80067793D01*
X40552190Y-80067781D01*
X40647841Y-80093756D01*
G37*
%TD.AperFunction*%
%TA.AperFunction,Profile*%
G36*
X41702571Y-19424938D02*
G01*
X41749224Y-19448212D01*
X41818806Y-19514497D01*
X41842991Y-19597713D01*
X41826022Y-19680936D01*
X41772142Y-19747245D01*
X41685594Y-19779720D01*
X41665871Y-19780669D01*
X41583939Y-19759556D01*
X41531901Y-19722728D01*
X41490020Y-19637118D01*
X41498730Y-19545191D01*
X41554251Y-19467441D01*
X41582518Y-19448212D01*
X41648623Y-19418856D01*
X41702571Y-19424938D01*
G37*
%TD.AperFunction*%
%TA.AperFunction,Profile*%
G36*
X41743437Y-81912886D02*
G01*
X41810646Y-81978193D01*
X41846149Y-82061081D01*
X41847733Y-82081248D01*
X41822628Y-82168595D01*
X41758456Y-82226780D01*
X41671928Y-82250375D01*
X41579758Y-82233955D01*
X41514320Y-82189499D01*
X41469319Y-82128958D01*
X41453699Y-82082035D01*
X41477928Y-82020666D01*
X41536503Y-81954589D01*
X41608257Y-81903450D01*
X41664493Y-81886396D01*
X41743437Y-81912886D01*
G37*
%TD.AperFunction*%
%TA.AperFunction,Profile*%
G36*
X42856625Y-72729271D02*
G01*
X42912998Y-72796303D01*
X42938659Y-72883050D01*
X42938902Y-72892048D01*
X42914412Y-72985860D01*
X42851380Y-73045405D01*
X42765462Y-73063570D01*
X42672314Y-73033241D01*
X42654743Y-73021146D01*
X42608058Y-72953814D01*
X42604885Y-72870776D01*
X42638021Y-72789529D01*
X42700258Y-72727569D01*
X42784393Y-72702395D01*
X42786011Y-72702387D01*
X42856625Y-72729271D01*
G37*
%TD.AperFunction*%
%TA.AperFunction,Profile*%
G36*
X43938009Y-81897931D02*
G01*
X44021721Y-81958726D01*
X44027871Y-81966260D01*
X44079263Y-82047049D01*
X44083357Y-82111373D01*
X44041068Y-82179517D01*
X44037649Y-82183507D01*
X43950292Y-82252361D01*
X43859593Y-82260690D01*
X43777197Y-82218140D01*
X43711311Y-82135540D01*
X43702029Y-82043553D01*
X43750245Y-81954339D01*
X43757279Y-81947017D01*
X43845702Y-81893733D01*
X43938009Y-81897931D01*
G37*
%TD.AperFunction*%
%TA.AperFunction,Profile*%
G36*
X45083353Y-21285684D02*
G01*
X45144203Y-21351326D01*
X45175853Y-21424143D01*
X45176120Y-21426162D01*
X45159965Y-21510972D01*
X45103910Y-21584902D01*
X45026469Y-21626568D01*
X45000000Y-21629595D01*
X44934577Y-21609033D01*
X44876923Y-21567138D01*
X44828399Y-21482269D01*
X44834770Y-21390065D01*
X44894095Y-21304275D01*
X44916647Y-21285684D01*
X45000000Y-21223725D01*
X45083353Y-21285684D01*
G37*
%TD.AperFunction*%
%TA.AperFunction,Profile*%
G36*
X46175146Y-67204683D02*
G01*
X46237437Y-67256071D01*
X46293345Y-67339957D01*
X46291617Y-67418585D01*
X46231888Y-67502587D01*
X46228943Y-67505555D01*
X46147902Y-67566756D01*
X46076151Y-67571738D01*
X46002115Y-67521197D01*
X46000238Y-67519332D01*
X45949805Y-67434663D01*
X45943118Y-67340266D01*
X45979657Y-67258118D01*
X46006983Y-67233103D01*
X46096839Y-67190669D01*
X46175146Y-67204683D01*
G37*
%TD.AperFunction*%
%TA.AperFunction,Profile*%
G36*
X46179193Y-23108874D02*
G01*
X46247777Y-23167412D01*
X46294717Y-23238172D01*
X46303341Y-23275880D01*
X46277433Y-23345736D01*
X46214463Y-23408842D01*
X46136560Y-23445369D01*
X46111022Y-23448210D01*
X46034810Y-23426368D01*
X45989781Y-23392781D01*
X45946625Y-23308523D01*
X45949005Y-23218448D01*
X45989931Y-23140339D01*
X46062409Y-23091977D01*
X46111005Y-23084487D01*
X46179193Y-23108874D01*
G37*
%TD.AperFunction*%
%TA.AperFunction,Profile*%
G36*
X47297365Y-76412180D02*
G01*
X47381318Y-76481405D01*
X47413251Y-76565993D01*
X47392831Y-76651736D01*
X47319726Y-76724423D01*
X47304878Y-76732957D01*
X47218024Y-76761572D01*
X47146482Y-76737870D01*
X47092260Y-76682385D01*
X47042668Y-76587730D01*
X47052646Y-76503056D01*
X47122611Y-76425094D01*
X47125229Y-76423131D01*
X47184224Y-76385526D01*
X47232203Y-76383245D01*
X47297365Y-76412180D01*
G37*
%TD.AperFunction*%
%TA.AperFunction,Profile*%
G36*
X48370829Y-78226848D02*
G01*
X48417482Y-78250121D01*
X48487064Y-78316407D01*
X48511249Y-78399622D01*
X48494280Y-78482845D01*
X48440400Y-78549155D01*
X48353851Y-78581629D01*
X48334129Y-78582578D01*
X48252197Y-78561465D01*
X48200158Y-78524638D01*
X48158278Y-78439028D01*
X48166987Y-78347101D01*
X48222509Y-78269351D01*
X48250775Y-78250121D01*
X48316881Y-78220765D01*
X48370829Y-78226848D01*
G37*
%TD.AperFunction*%
%TA.AperFunction,Profile*%
G36*
X48416891Y-67211385D02*
G01*
X48486322Y-67275362D01*
X48515911Y-67359218D01*
X48515990Y-67363706D01*
X48493479Y-67469111D01*
X48434680Y-67537813D01*
X48352693Y-67562692D01*
X48260617Y-67536624D01*
X48232805Y-67517663D01*
X48171669Y-67446205D01*
X48152267Y-67380736D01*
X48175786Y-67300127D01*
X48233302Y-67228849D01*
X48305255Y-67188662D01*
X48327384Y-67185919D01*
X48416891Y-67211385D01*
G37*
%TD.AperFunction*%
%TA.AperFunction,Profile*%
G36*
X49531026Y-72729082D02*
G01*
X49601806Y-72795257D01*
X49636627Y-72880048D01*
X49637470Y-72894706D01*
X49611608Y-72980060D01*
X49545579Y-73039031D01*
X49456715Y-73064429D01*
X49362351Y-73049067D01*
X49321217Y-73025858D01*
X49274272Y-72959702D01*
X49269666Y-72876243D01*
X49300488Y-72793521D01*
X49359824Y-72729578D01*
X49440764Y-72702453D01*
X49445151Y-72702387D01*
X49531026Y-72729082D01*
G37*
%TD.AperFunction*%
%TA.AperFunction,Profile*%
G36*
X50637923Y-63540484D02*
G01*
X50713195Y-63594649D01*
X50755562Y-63670875D01*
X50758950Y-63700239D01*
X50732275Y-63784957D01*
X50663628Y-63846673D01*
X50570077Y-63876141D01*
X50468688Y-63864117D01*
X50461466Y-63861374D01*
X50407516Y-63811293D01*
X50386263Y-63731354D01*
X50397284Y-63642470D01*
X50440153Y-63565554D01*
X50467962Y-63541574D01*
X50549571Y-63519189D01*
X50637923Y-63540484D01*
G37*
%TD.AperFunction*%
%TA.AperFunction,Profile*%
G36*
X50676738Y-78251253D02*
G01*
X50737397Y-78312912D01*
X50758950Y-78397737D01*
X50733932Y-78487281D01*
X50670434Y-78550989D01*
X50585782Y-78582992D01*
X50497307Y-78577421D01*
X50422338Y-78528406D01*
X50412100Y-78515213D01*
X50372454Y-78442930D01*
X50374934Y-78381603D01*
X50421291Y-78306991D01*
X50427737Y-78298718D01*
X50505067Y-78239121D01*
X50593681Y-78224978D01*
X50676738Y-78251253D01*
G37*
%TD.AperFunction*%
%TA.AperFunction,Profile*%
G36*
X51727747Y-61680986D02*
G01*
X51811458Y-61741780D01*
X51817609Y-61749315D01*
X51869000Y-61830104D01*
X51873094Y-61894427D01*
X51830805Y-61962572D01*
X51827386Y-61966562D01*
X51740030Y-62035415D01*
X51649330Y-62043745D01*
X51566934Y-62001195D01*
X51501048Y-61918595D01*
X51491766Y-61826608D01*
X51539982Y-61737394D01*
X51547017Y-61730072D01*
X51635440Y-61676788D01*
X51727747Y-61680986D01*
G37*
%TD.AperFunction*%
%TA.AperFunction,Profile*%
G36*
X51764722Y-80075850D02*
G01*
X51840921Y-80118382D01*
X51856616Y-80137875D01*
X51879473Y-80221121D01*
X51865873Y-80314791D01*
X51825000Y-80381341D01*
X51741811Y-80422680D01*
X51643387Y-80426865D01*
X51557271Y-80394399D01*
X51536559Y-80376074D01*
X51495657Y-80294783D01*
X51489525Y-80199251D01*
X51510448Y-80137489D01*
X51575481Y-80085377D01*
X51668240Y-80064840D01*
X51764722Y-80075850D01*
G37*
%TD.AperFunction*%
%TA.AperFunction,Profile*%
G36*
X51796555Y-69064178D02*
G01*
X51830266Y-69090275D01*
X51872296Y-69173617D01*
X51868030Y-69262625D01*
X51826762Y-69342100D01*
X51757784Y-69396843D01*
X51670390Y-69411654D01*
X51637947Y-69404835D01*
X51550864Y-69352472D01*
X51498704Y-69271404D01*
X51487286Y-69179681D01*
X51522430Y-69095353D01*
X51534026Y-69082476D01*
X51609923Y-69043659D01*
X51707120Y-69037815D01*
X51796555Y-69064178D01*
G37*
%TD.AperFunction*%
%TA.AperFunction,Profile*%
G36*
X52891646Y-59861974D02*
G01*
X52932629Y-59889806D01*
X52971407Y-59964881D01*
X52979285Y-60061670D01*
X52955141Y-60149084D01*
X52942629Y-60167478D01*
X52877128Y-60205114D01*
X52787166Y-60212217D01*
X52700175Y-60189593D01*
X52658039Y-60159129D01*
X52614366Y-60070009D01*
X52616614Y-59967138D01*
X52649051Y-59897042D01*
X52713608Y-59853801D01*
X52803474Y-59841882D01*
X52891646Y-59861974D01*
G37*
%TD.AperFunction*%
%TA.AperFunction,Profile*%
G36*
X53989734Y-69028674D02*
G01*
X54057266Y-69083991D01*
X54091507Y-69174706D01*
X54093079Y-69202250D01*
X54071264Y-69309413D01*
X54032458Y-69368258D01*
X53967997Y-69417386D01*
X53902790Y-69422531D01*
X53820790Y-69389900D01*
X53741009Y-69321137D01*
X53708703Y-69229456D01*
X53728953Y-69132212D01*
X53739869Y-69113451D01*
X53815788Y-69039571D01*
X53904159Y-69012589D01*
X53989734Y-69028674D01*
G37*
%TD.AperFunction*%
%TA.AperFunction,Profile*%
G36*
X36138176Y-76405901D02*
G01*
X36215751Y-76445745D01*
X36263413Y-76518286D01*
X36270644Y-76566910D01*
X36248757Y-76627727D01*
X36196469Y-76695181D01*
X36133838Y-76747538D01*
X36088783Y-76763962D01*
X36051981Y-76746910D01*
X35992285Y-76705428D01*
X35986784Y-76701142D01*
X35922460Y-76621702D01*
X35911907Y-76535371D01*
X35956470Y-76455949D01*
X35962351Y-76450402D01*
X36047954Y-76405278D01*
X36138176Y-76405901D01*
G37*
%TD.AperFunction*%
%TA.AperFunction,Profile*%
G36*
X36164301Y-69060503D02*
G01*
X36231835Y-69122432D01*
X36268817Y-69198062D01*
X36270644Y-69216707D01*
X36246060Y-69289930D01*
X36187002Y-69357268D01*
X36115514Y-69395953D01*
X36094576Y-69398568D01*
X36024542Y-69380632D01*
X35990149Y-69360680D01*
X35931621Y-69283980D01*
X35919378Y-69192424D01*
X35955561Y-69108308D01*
X35964915Y-69098092D01*
X36031182Y-69051529D01*
X36088783Y-69034845D01*
X36164301Y-69060503D01*
G37*
%TD.AperFunction*%
%TA.AperFunction,Profile*%
G36*
X36172132Y-61727680D02*
G01*
X36225494Y-61775303D01*
X36237369Y-61794777D01*
X36265105Y-61858015D01*
X36256516Y-61909459D01*
X36230255Y-61953906D01*
X36158151Y-62018692D01*
X36071360Y-62034556D01*
X35988955Y-62001148D01*
X35950657Y-61959014D01*
X35919655Y-61896253D01*
X35926329Y-61837830D01*
X35942789Y-61799885D01*
X35985323Y-61739000D01*
X36048761Y-61716573D01*
X36088029Y-61714917D01*
X36172132Y-61727680D01*
G37*
%TD.AperFunction*%
%TA.AperFunction,Profile*%
G36*
X38343856Y-72713437D02*
G01*
X38388278Y-72735446D01*
X38454166Y-72799166D01*
X38479188Y-72881117D01*
X38466809Y-72964072D01*
X38420491Y-73030802D01*
X38343696Y-73064079D01*
X38321999Y-73065188D01*
X38241800Y-73050105D01*
X38202923Y-73033372D01*
X38157137Y-72975940D01*
X38147402Y-72893622D01*
X38171706Y-72808714D01*
X38228038Y-72743512D01*
X38229149Y-72742777D01*
X38292120Y-72709403D01*
X38343856Y-72713437D01*
G37*
%TD.AperFunction*%
%TA.AperFunction,Profile*%
G36*
X39518417Y-74576334D02*
G01*
X39576713Y-74639207D01*
X39602249Y-74721651D01*
X39589015Y-74805382D01*
X39537408Y-74867852D01*
X39465125Y-74907498D01*
X39403798Y-74905018D01*
X39329186Y-74858661D01*
X39320913Y-74852216D01*
X39265529Y-74792222D01*
X39241108Y-74733253D01*
X39241050Y-74730975D01*
X39267267Y-74655298D01*
X39331425Y-74589292D01*
X39411785Y-74553266D01*
X39433369Y-74551313D01*
X39518417Y-74576334D01*
G37*
%TD.AperFunction*%
%TA.AperFunction,Profile*%
G36*
X41708093Y-56195802D02*
G01*
X41738825Y-56206803D01*
X41796556Y-56248718D01*
X41816629Y-56316741D01*
X41817422Y-56343288D01*
X41807072Y-56423802D01*
X41782068Y-56479278D01*
X41781050Y-56480334D01*
X41710924Y-56512868D01*
X41622611Y-56508857D01*
X41544329Y-56470762D01*
X41531737Y-56458586D01*
X41492382Y-56379931D01*
X41501239Y-56301076D01*
X41547408Y-56235269D01*
X41619992Y-56195761D01*
X41708093Y-56195802D01*
G37*
%TD.AperFunction*%
%TA.AperFunction,Profile*%
G36*
X41753825Y-74577973D02*
G01*
X41818349Y-74643762D01*
X41847528Y-74727393D01*
X41847733Y-74734635D01*
X41824276Y-74792745D01*
X41768666Y-74856186D01*
X41703045Y-74903323D01*
X41663084Y-74915036D01*
X41605936Y-74898549D01*
X41551374Y-74867852D01*
X41494679Y-74798313D01*
X41484666Y-74715615D01*
X41515024Y-74636033D01*
X41579441Y-74575846D01*
X41671605Y-74551328D01*
X41674116Y-74551313D01*
X41753825Y-74577973D01*
G37*
%TD.AperFunction*%
%TA.AperFunction,Profile*%
G36*
X41754600Y-26778906D02*
G01*
X41818673Y-26845904D01*
X41847509Y-26932569D01*
X41847733Y-26940635D01*
X41822915Y-27009296D01*
X41763900Y-27074427D01*
X41693846Y-27112869D01*
X41672615Y-27115752D01*
X41607435Y-27098928D01*
X41551374Y-27068568D01*
X41494679Y-26999029D01*
X41484666Y-26916331D01*
X41515024Y-26836749D01*
X41579441Y-26776562D01*
X41671605Y-26752044D01*
X41674116Y-26752029D01*
X41754600Y-26778906D01*
G37*
%TD.AperFunction*%
%TA.AperFunction,Profile*%
G36*
X41787112Y-78279475D02*
G01*
X41840396Y-78367898D01*
X41836198Y-78460205D01*
X41775403Y-78543917D01*
X41767869Y-78550068D01*
X41704912Y-78596275D01*
X41660904Y-78608337D01*
X41607310Y-78589790D01*
X41575444Y-78573909D01*
X41509491Y-78517082D01*
X41469974Y-78449960D01*
X41455792Y-78386581D01*
X41475569Y-78338603D01*
X41524204Y-78291475D01*
X41621797Y-78230678D01*
X41708951Y-78228126D01*
X41787112Y-78279475D01*
G37*
%TD.AperFunction*%
%TA.AperFunction,Profile*%
G36*
X42858060Y-24933185D02*
G01*
X42892997Y-24963310D01*
X42956296Y-25052064D01*
X42960075Y-25139930D01*
X42904404Y-25221659D01*
X42889349Y-25234316D01*
X42826279Y-25280572D01*
X42782472Y-25292639D01*
X42729813Y-25274145D01*
X42699583Y-25258802D01*
X42625024Y-25192861D01*
X42597831Y-25108116D01*
X42616273Y-25021319D01*
X42678619Y-24949224D01*
X42734512Y-24920642D01*
X42801278Y-24908102D01*
X42858060Y-24933185D01*
G37*
%TD.AperFunction*%
%TA.AperFunction,Profile*%
G36*
X46144845Y-74531591D02*
G01*
X46203444Y-74570088D01*
X46276350Y-74652520D01*
X46296618Y-74744374D01*
X46262310Y-74832335D01*
X46244557Y-74852579D01*
X46155506Y-74906800D01*
X46061297Y-74902327D01*
X45970226Y-74839575D01*
X45969515Y-74838821D01*
X45921982Y-74775592D01*
X45916216Y-74717570D01*
X45926744Y-74680630D01*
X45974654Y-74605202D01*
X46037137Y-74552873D01*
X46097543Y-74525375D01*
X46144845Y-74531591D01*
G37*
%TD.AperFunction*%
%TA.AperFunction,Profile*%
G36*
X46166925Y-70876524D02*
G01*
X46231311Y-70931636D01*
X46283611Y-70997683D01*
X46303341Y-71050478D01*
X46280833Y-71107718D01*
X46227045Y-71173690D01*
X46162585Y-71227278D01*
X46111060Y-71247494D01*
X46056792Y-71229543D01*
X45999808Y-71192620D01*
X45942594Y-71110507D01*
X45932040Y-71050478D01*
X45956093Y-70966573D01*
X46015387Y-70894521D01*
X46090630Y-70855555D01*
X46111060Y-70853461D01*
X46166925Y-70876524D01*
G37*
%TD.AperFunction*%
%TA.AperFunction,Profile*%
G36*
X46182314Y-63540484D02*
G01*
X46257586Y-63594649D01*
X46299954Y-63670875D01*
X46303341Y-63700239D01*
X46278341Y-63783323D01*
X46215558Y-63843979D01*
X46133318Y-63874568D01*
X46049944Y-63867448D01*
X45994391Y-63829058D01*
X45948384Y-63770171D01*
X45927671Y-63738753D01*
X45925697Y-63684904D01*
X45952938Y-63613955D01*
X45997574Y-63553428D01*
X46012354Y-63541574D01*
X46093962Y-63519189D01*
X46182314Y-63540484D01*
G37*
%TD.AperFunction*%
%TA.AperFunction,Profile*%
G36*
X46193359Y-81918629D02*
G01*
X46237437Y-81956548D01*
X46294155Y-82047694D01*
X46290722Y-82134557D01*
X46227277Y-82214576D01*
X46223478Y-82217609D01*
X46139678Y-82269501D01*
X46071030Y-82270635D01*
X45998151Y-82220076D01*
X45983706Y-82206032D01*
X45928062Y-82141357D01*
X45913505Y-82085267D01*
X45937017Y-82013083D01*
X45955551Y-81975822D01*
X46019773Y-81905000D01*
X46103667Y-81885619D01*
X46193359Y-81918629D01*
G37*
%TD.AperFunction*%
%TA.AperFunction,Profile*%
G36*
X47332593Y-79976604D02*
G01*
X47426623Y-80044715D01*
X47464510Y-80096475D01*
X47510606Y-80218557D01*
X47497213Y-80331292D01*
X47432398Y-80429944D01*
X47326211Y-80514334D01*
X47217091Y-80538819D01*
X47106563Y-80506531D01*
X47004940Y-80436807D01*
X46953041Y-80351847D01*
X46939857Y-80247937D01*
X46964319Y-80124719D01*
X47028952Y-80032187D01*
X47120629Y-79974130D01*
X47226218Y-79954339D01*
X47332593Y-79976604D01*
G37*
%TD.AperFunction*%
%TA.AperFunction,Profile*%
G36*
X51731375Y-76387406D02*
G01*
X51796736Y-76429769D01*
X51800566Y-76432749D01*
X51866001Y-76515191D01*
X51874914Y-76607261D01*
X51826418Y-76696479D01*
X51819809Y-76703342D01*
X51730342Y-76755780D01*
X51633495Y-76752993D01*
X51548197Y-76697626D01*
X51502657Y-76626639D01*
X51486396Y-76563430D01*
X51510457Y-76499548D01*
X51568202Y-76432195D01*
X51637974Y-76382643D01*
X51683413Y-76369929D01*
X51731375Y-76387406D01*
G37*
%TD.AperFunction*%
%TA.AperFunction,Profile*%
G36*
X51751119Y-65361464D02*
G01*
X51820240Y-65420443D01*
X51869363Y-65492279D01*
X51880429Y-65536210D01*
X51855771Y-65625126D01*
X51793127Y-65690269D01*
X51709497Y-65725391D01*
X51621877Y-65724248D01*
X51547267Y-65680592D01*
X51533580Y-65663662D01*
X51497139Y-65587136D01*
X51486396Y-65529466D01*
X51510424Y-65466286D01*
X51568065Y-65399385D01*
X51637655Y-65349925D01*
X51683413Y-65336993D01*
X51751119Y-65361464D01*
G37*
%TD.AperFunction*%
%TA.AperFunction,Profile*%
G36*
X52918359Y-78259846D02*
G01*
X52975136Y-78322559D01*
X52991553Y-78405469D01*
X52988088Y-78426076D01*
X52944410Y-78515935D01*
X52871407Y-78584428D01*
X52789278Y-78612849D01*
X52786379Y-78612888D01*
X52723118Y-78592429D01*
X52668496Y-78552268D01*
X52619432Y-78467811D01*
X52612383Y-78370693D01*
X52647801Y-78285524D01*
X52663305Y-78269018D01*
X52746700Y-78225462D01*
X52836965Y-78224942D01*
X52918359Y-78259846D01*
G37*
%TD.AperFunction*%
%TA.AperFunction,Profile*%
G36*
X53982168Y-76395588D02*
G01*
X54047473Y-76457940D01*
X54088145Y-76535046D01*
X54093079Y-76568126D01*
X54069634Y-76649333D01*
X54012216Y-76720915D01*
X53940194Y-76761211D01*
X53917961Y-76763962D01*
X53852781Y-76747138D01*
X53796720Y-76716778D01*
X53740734Y-76646429D01*
X53728576Y-76559009D01*
X53754372Y-76472153D01*
X53812247Y-76403497D01*
X53896329Y-76370677D01*
X53912246Y-76369929D01*
X53982168Y-76395588D01*
G37*
%TD.AperFunction*%
%TA.AperFunction,Profile*%
G36*
X38391847Y-79967478D02*
G01*
X38493825Y-80037494D01*
X38497394Y-80040610D01*
X38582769Y-80144900D01*
X38608121Y-80253074D01*
X38573296Y-80361893D01*
X38515935Y-80433835D01*
X38406485Y-80507150D01*
X38288147Y-80521879D01*
X38168304Y-80477833D01*
X38121896Y-80443965D01*
X38049123Y-80348586D01*
X38027292Y-80238555D01*
X38053995Y-80128003D01*
X38126821Y-80031063D01*
X38200931Y-79980397D01*
X38299277Y-79949474D01*
X38391847Y-79967478D01*
G37*
%TD.AperFunction*%
%TA.AperFunction,Profile*%
G36*
X45062126Y-61694673D02*
G01*
X45128280Y-61755854D01*
X45173285Y-61831271D01*
X45181861Y-61873799D01*
X45159750Y-61930098D01*
X45107244Y-61994806D01*
X45045089Y-62046287D01*
X45000000Y-62063485D01*
X44963198Y-62046432D01*
X44903502Y-62004951D01*
X44898001Y-62000664D01*
X44837425Y-61929573D01*
X44818138Y-61864268D01*
X44841907Y-61783047D01*
X44900118Y-61711725D01*
X44973124Y-61671978D01*
X44994716Y-61669451D01*
X45062126Y-61694673D01*
G37*
%TD.AperFunction*%
%TA.AperFunction,Profile*%
G36*
X50646610Y-74575811D02*
G01*
X50718691Y-74636327D01*
X50757086Y-74713390D01*
X50758950Y-74733175D01*
X50732515Y-74811008D01*
X50667436Y-74877696D01*
X50585052Y-74913319D01*
X50564133Y-74915036D01*
X50488310Y-74889590D01*
X50427737Y-74835173D01*
X50384246Y-74768295D01*
X50364971Y-74715728D01*
X50364916Y-74713932D01*
X50390677Y-74650900D01*
X50453144Y-74591982D01*
X50530096Y-74555520D01*
X50561933Y-74551313D01*
X50646610Y-74575811D01*
G37*
%TD.AperFunction*%
%TA.AperFunction,Profile*%
G36*
X43960246Y-67211780D02*
G01*
X44020145Y-67274624D01*
X44056547Y-67352346D01*
X44060382Y-67382936D01*
X44042222Y-67449944D01*
X43998835Y-67519521D01*
X43946864Y-67568947D01*
X43916408Y-67579506D01*
X43874973Y-67566705D01*
X43818403Y-67540974D01*
X43752451Y-67484146D01*
X43712934Y-67417024D01*
X43698752Y-67353645D01*
X43718529Y-67305668D01*
X43767164Y-67258540D01*
X43834621Y-67210152D01*
X43889699Y-67186412D01*
X43895365Y-67185919D01*
X43960246Y-67211780D01*
G37*
%TD.AperFunction*%
%TA.AperFunction,Profile*%
G36*
X46195373Y-78244353D02*
G01*
X46264659Y-78306503D01*
X46301696Y-78383788D01*
X46303341Y-78402094D01*
X46280655Y-78468754D01*
X46225778Y-78540104D01*
X46158487Y-78594988D01*
X46106324Y-78612888D01*
X46053229Y-78592720D01*
X45988980Y-78543649D01*
X45983706Y-78538490D01*
X45932653Y-78471884D01*
X45909439Y-78410889D01*
X45909308Y-78407378D01*
X45934723Y-78338527D01*
X45996575Y-78271848D01*
X46073269Y-78227048D01*
X46115855Y-78218855D01*
X46195373Y-78244353D01*
G37*
%TD.AperFunction*%
%TA.AperFunction,Profile*%
G36*
X50615949Y-23105592D02*
G01*
X50680175Y-23155821D01*
X50734871Y-23215544D01*
X50758922Y-23265133D01*
X50758950Y-23266349D01*
X50736246Y-23315280D01*
X50682212Y-23374983D01*
X50617964Y-23425827D01*
X50564619Y-23448185D01*
X50563311Y-23448210D01*
X50508427Y-23428100D01*
X50455847Y-23387590D01*
X50410435Y-23321606D01*
X50395227Y-23266349D01*
X50418362Y-23196415D01*
X50473603Y-23129458D01*
X50539696Y-23088470D01*
X50563311Y-23084487D01*
X50615949Y-23105592D01*
G37*
%TD.AperFunction*%
%TA.AperFunction,Profile*%
G36*
X50654135Y-67212657D02*
G01*
X50722774Y-67279102D01*
X50757728Y-67364604D01*
X50758950Y-67382936D01*
X50734219Y-67468161D01*
X50673040Y-67540261D01*
X50594936Y-67578245D01*
X50575710Y-67579953D01*
X50512487Y-67559402D01*
X50443383Y-67509535D01*
X50439314Y-67505555D01*
X50388262Y-67438948D01*
X50365048Y-67377953D01*
X50364916Y-67374442D01*
X50390332Y-67305591D01*
X50452183Y-67238912D01*
X50528878Y-67194112D01*
X50571464Y-67185919D01*
X50654135Y-67212657D01*
G37*
%TD.AperFunction*%
%TA.AperFunction,Profile*%
G36*
X39501325Y-63543410D02*
G01*
X39563209Y-63603178D01*
X39601092Y-63674689D01*
X39604773Y-63700239D01*
X39581637Y-63770173D01*
X39526397Y-63837130D01*
X39460304Y-63878117D01*
X39436689Y-63882101D01*
X39384598Y-63861970D01*
X39320842Y-63812979D01*
X39315448Y-63807703D01*
X39265093Y-63748570D01*
X39241329Y-63703383D01*
X39241050Y-63700239D01*
X39263754Y-63651308D01*
X39317788Y-63591605D01*
X39382036Y-63540760D01*
X39435381Y-63518403D01*
X39436689Y-63518377D01*
X39501325Y-63543410D01*
G37*
%TD.AperFunction*%
%TA.AperFunction,Profile*%
G36*
X50731256Y-70691865D02*
G01*
X50849768Y-70780690D01*
X50911835Y-70862685D01*
X50967528Y-71000312D01*
X50963051Y-71133014D01*
X50898224Y-71262264D01*
X50856329Y-71312285D01*
X50730519Y-71411958D01*
X50595489Y-71455486D01*
X50458626Y-71441516D01*
X50372217Y-71400984D01*
X50251933Y-71297010D01*
X50179747Y-71172292D01*
X50158674Y-71037749D01*
X50191733Y-70904299D01*
X50220943Y-70853446D01*
X50332143Y-70735226D01*
X50461535Y-70668987D01*
X50598209Y-70654582D01*
X50731256Y-70691865D01*
G37*
%TD.AperFunction*%
%TA.AperFunction,Profile*%
G36*
X52864132Y-70654770D02*
G01*
X52995207Y-70702893D01*
X53109720Y-70799607D01*
X53153624Y-70860761D01*
X53206506Y-70998379D01*
X53200000Y-71136247D01*
X53135155Y-71269918D01*
X53030982Y-71380280D01*
X52920086Y-71439483D01*
X52788323Y-71460885D01*
X52661994Y-71441648D01*
X52623031Y-71424295D01*
X52486354Y-71322637D01*
X52405171Y-71201335D01*
X52380990Y-71063909D01*
X52410050Y-70927137D01*
X52489454Y-70791422D01*
X52599463Y-70700087D01*
X52728287Y-70654186D01*
X52864132Y-70654770D01*
G37*
%TD.AperFunction*%
%TA.AperFunction,Profile*%
G36*
X51846467Y-72522282D02*
G01*
X51961062Y-72598016D01*
X52029054Y-72682497D01*
X52082510Y-72818207D01*
X52083549Y-72952988D01*
X52039759Y-73077290D01*
X51958728Y-73181562D01*
X51848044Y-73256255D01*
X51715294Y-73291818D01*
X51568067Y-73278701D01*
X51557674Y-73275788D01*
X51439364Y-73213170D01*
X51344054Y-73110848D01*
X51285788Y-72987164D01*
X51274424Y-72905927D01*
X51299878Y-72758838D01*
X51368256Y-72640577D01*
X51468330Y-72554467D01*
X51588875Y-72503832D01*
X51718662Y-72491996D01*
X51846467Y-72522282D01*
G37*
%TD.AperFunction*%
%TA.AperFunction,Profile*%
G36*
X45102695Y-72509258D02*
G01*
X45219353Y-72564631D01*
X45308679Y-72655296D01*
X45365845Y-72769906D01*
X45386023Y-72897112D01*
X45364387Y-73025568D01*
X45296108Y-73143928D01*
X45254986Y-73185613D01*
X45173136Y-73246131D01*
X45091058Y-73273038D01*
X45000000Y-73278282D01*
X44893394Y-73270295D01*
X44813705Y-73238429D01*
X44744356Y-73185036D01*
X44652708Y-73070008D01*
X44611892Y-72940681D01*
X44618087Y-72808988D01*
X44667473Y-72686859D01*
X44756230Y-72586227D01*
X44880538Y-72519021D01*
X44963531Y-72500522D01*
X45102695Y-72509258D01*
G37*
%TD.AperFunction*%
%TA.AperFunction,Profile*%
G36*
X38415009Y-61288247D02*
G01*
X38574184Y-61339897D01*
X38712757Y-61432559D01*
X38820913Y-61560010D01*
X38888840Y-61716025D01*
X38907637Y-61861559D01*
X38880596Y-62041163D01*
X38805749Y-62195962D01*
X38692509Y-62319877D01*
X38550289Y-62406824D01*
X38388502Y-62450724D01*
X38216561Y-62445495D01*
X38074105Y-62400054D01*
X37910571Y-62295859D01*
X37797763Y-62158991D01*
X37736811Y-61991183D01*
X37725537Y-61866468D01*
X37752210Y-61679496D01*
X37831474Y-61522340D01*
X37962198Y-61396732D01*
X38074105Y-61332882D01*
X38245045Y-61283834D01*
X38415009Y-61288247D01*
G37*
%TD.AperFunction*%
%TA.AperFunction,Profile*%
G36*
X38417976Y-20944333D02*
G01*
X38558436Y-20994059D01*
X38681821Y-21085930D01*
X38778038Y-21219975D01*
X38819532Y-21323971D01*
X38834613Y-21470148D01*
X38798671Y-21610724D01*
X38721223Y-21736992D01*
X38611786Y-21840243D01*
X38479880Y-21911770D01*
X38335020Y-21942867D01*
X38186726Y-21924824D01*
X38169196Y-21918959D01*
X38024270Y-21841035D01*
X37909200Y-21728714D01*
X37831500Y-21594477D01*
X37798681Y-21450802D01*
X37812776Y-21326860D01*
X37887228Y-21166297D01*
X37995066Y-21047734D01*
X38126199Y-20971199D01*
X38270532Y-20936723D01*
X38417976Y-20944333D01*
G37*
%TD.AperFunction*%
%TA.AperFunction,Profile*%
G36*
X39536832Y-66905020D02*
G01*
X39680685Y-66965961D01*
X39714268Y-66989447D01*
X39814095Y-67092074D01*
X39887737Y-67219095D01*
X39925909Y-67350526D01*
X39925084Y-67443272D01*
X39870300Y-67592509D01*
X39774439Y-67713487D01*
X39649312Y-67800798D01*
X39506726Y-67849030D01*
X39358492Y-67852775D01*
X39216418Y-67806622D01*
X39180121Y-67784547D01*
X39050897Y-67671639D01*
X38975093Y-67540902D01*
X38947602Y-67407926D01*
X38960998Y-67249204D01*
X39022238Y-67112845D01*
X39120882Y-67004548D01*
X39246490Y-66930012D01*
X39388620Y-66894936D01*
X39536832Y-66905020D01*
G37*
%TD.AperFunction*%
%TA.AperFunction,Profile*%
G36*
X42869776Y-65055745D02*
G01*
X43017626Y-65116764D01*
X43080391Y-65163669D01*
X43194811Y-65288688D01*
X43256264Y-65422038D01*
X43272315Y-65558267D01*
X43243853Y-65705290D01*
X43165777Y-65839056D01*
X43049048Y-65944033D01*
X42971688Y-65984137D01*
X42828513Y-66026389D01*
X42702094Y-66024394D01*
X42566764Y-65977211D01*
X42549054Y-65968639D01*
X42413231Y-65871727D01*
X42324382Y-65745273D01*
X42284088Y-65599912D01*
X42293928Y-65446277D01*
X42355483Y-65295004D01*
X42433736Y-65192434D01*
X42564984Y-65094151D01*
X42714613Y-65048398D01*
X42869776Y-65055745D01*
G37*
%TD.AperFunction*%
%TA.AperFunction,Profile*%
G36*
X42910797Y-17288019D02*
G01*
X43053914Y-17354102D01*
X43172556Y-17462297D01*
X43255388Y-17606687D01*
X43272275Y-17658803D01*
X43289127Y-17810101D01*
X43251195Y-17949736D01*
X43172895Y-18068855D01*
X43042456Y-18184561D01*
X42889536Y-18250424D01*
X42726338Y-18263585D01*
X42565065Y-18221182D01*
X42551189Y-18214605D01*
X42423747Y-18120036D01*
X42331656Y-17987501D01*
X42282897Y-17833121D01*
X42284805Y-17676381D01*
X42330459Y-17560883D01*
X42415063Y-17444711D01*
X42520954Y-17348866D01*
X42596464Y-17305867D01*
X42754536Y-17269968D01*
X42910797Y-17288019D01*
G37*
%TD.AperFunction*%
%TA.AperFunction,Profile*%
G36*
X42923462Y-68747870D02*
G01*
X43069702Y-68825866D01*
X43090601Y-68842604D01*
X43201862Y-68969717D01*
X43261235Y-69111399D01*
X43272129Y-69257386D01*
X43237959Y-69397416D01*
X43162136Y-69521228D01*
X43048072Y-69618558D01*
X42899181Y-69679145D01*
X42807897Y-69692809D01*
X42644297Y-69684684D01*
X42551189Y-69652839D01*
X42418949Y-69554620D01*
X42328138Y-69422864D01*
X42284677Y-69270889D01*
X42294489Y-69112012D01*
X42300622Y-69089401D01*
X42374323Y-68934937D01*
X42484384Y-68820139D01*
X42619877Y-68748420D01*
X42769879Y-68723192D01*
X42923462Y-68747870D01*
G37*
%TD.AperFunction*%
%TA.AperFunction,Profile*%
G36*
X48529963Y-22815895D02*
G01*
X48659629Y-22893848D01*
X48760658Y-23016297D01*
X48776395Y-23046002D01*
X48826074Y-23209839D01*
X48820308Y-23371958D01*
X48762111Y-23520736D01*
X48654502Y-23644550D01*
X48613157Y-23675008D01*
X48467653Y-23748386D01*
X48329403Y-23766702D01*
X48202436Y-23738561D01*
X48046607Y-23653993D01*
X47928947Y-23525780D01*
X47872566Y-23422374D01*
X47831481Y-23285674D01*
X47841790Y-23160715D01*
X47905858Y-23034718D01*
X47956186Y-22970368D01*
X48084771Y-22859675D01*
X48230970Y-22797742D01*
X48383222Y-22783504D01*
X48529963Y-22815895D01*
G37*
%TD.AperFunction*%
%TA.AperFunction,Profile*%
G36*
X49528005Y-68713954D02*
G01*
X49672755Y-68767501D01*
X49798202Y-68862791D01*
X49894624Y-68986867D01*
X49952299Y-69126772D01*
X49961505Y-69269552D01*
X49958608Y-69287788D01*
X49902265Y-69442042D01*
X49803371Y-69568007D01*
X49673660Y-69658711D01*
X49524867Y-69707180D01*
X49368729Y-69706441D01*
X49290248Y-69684944D01*
X49132252Y-69598602D01*
X49020203Y-69481891D01*
X48955327Y-69344815D01*
X48938852Y-69197378D01*
X48972002Y-69049585D01*
X49056006Y-68911441D01*
X49181737Y-68799789D01*
X49308014Y-68730110D01*
X49423627Y-68705024D01*
X49528005Y-68713954D01*
G37*
%TD.AperFunction*%
%TA.AperFunction,Profile*%
G36*
X49560611Y-65049961D02*
G01*
X49701227Y-65105014D01*
X49825258Y-65210330D01*
X49827527Y-65213009D01*
X49919879Y-65364817D01*
X49953687Y-65527534D01*
X49928696Y-65695423D01*
X49855571Y-65846436D01*
X49762846Y-65937802D01*
X49632843Y-65999653D01*
X49483155Y-66028250D01*
X49331373Y-66019852D01*
X49216772Y-65982284D01*
X49092306Y-65891557D01*
X48998280Y-65765371D01*
X48946605Y-65622140D01*
X48940334Y-65554858D01*
X48966071Y-65390946D01*
X49036478Y-65253694D01*
X49141344Y-65147036D01*
X49270461Y-65074906D01*
X49413620Y-65041236D01*
X49560611Y-65049961D01*
G37*
%TD.AperFunction*%
%TA.AperFunction,Profile*%
G36*
X53953925Y-72481164D02*
G01*
X54041622Y-72514752D01*
X54175219Y-72599060D01*
X54268233Y-72710052D01*
X54314986Y-72836539D01*
X54309801Y-72967332D01*
X54294342Y-73012812D01*
X54209094Y-73150050D01*
X54094709Y-73245303D01*
X53962217Y-73293797D01*
X53822652Y-73290756D01*
X53729960Y-73257136D01*
X53613233Y-73168570D01*
X53528659Y-73048725D01*
X53488527Y-72916404D01*
X53486873Y-72885222D01*
X53512654Y-72777034D01*
X53580376Y-72664490D01*
X53675609Y-72565531D01*
X53783921Y-72498096D01*
X53804412Y-72490453D01*
X53881819Y-72472791D01*
X53953925Y-72481164D01*
G37*
%TD.AperFunction*%
%TA.AperFunction,Profile*%
G36*
X53992436Y-17298110D02*
G01*
X54134673Y-17348154D01*
X54260662Y-17441426D01*
X54358306Y-17575815D01*
X54406454Y-17687914D01*
X54418999Y-17779086D01*
X54413931Y-17822487D01*
X54355089Y-17979134D01*
X54247227Y-18112302D01*
X54124299Y-18196957D01*
X53989469Y-18249615D01*
X53865181Y-18258387D01*
X53748127Y-18233802D01*
X53613928Y-18164477D01*
X53513079Y-18054302D01*
X53450341Y-17915883D01*
X53430474Y-17761827D01*
X53458241Y-17604740D01*
X53485931Y-17539556D01*
X53580698Y-17412016D01*
X53704202Y-17329573D01*
X53845196Y-17291760D01*
X53992436Y-17298110D01*
G37*
%TD.AperFunction*%
%TA.AperFunction,Profile*%
G36*
X37405764Y-22801809D02*
G01*
X37544180Y-22893394D01*
X37653694Y-23033311D01*
X37665762Y-23055835D01*
X37718553Y-23213080D01*
X37711768Y-23363489D01*
X37676526Y-23457293D01*
X37569348Y-23616465D01*
X37438426Y-23723974D01*
X37290312Y-23777723D01*
X37131558Y-23775620D01*
X36968720Y-23715567D01*
X36933642Y-23694780D01*
X36804110Y-23582840D01*
X36715692Y-23433824D01*
X36679261Y-23320893D01*
X36680456Y-23223650D01*
X36717747Y-23106319D01*
X36781359Y-22988446D01*
X36861516Y-22889576D01*
X36917155Y-22845194D01*
X37082247Y-22774894D01*
X37248452Y-22761371D01*
X37405764Y-22801809D01*
G37*
%TD.AperFunction*%
%TA.AperFunction,Profile*%
G36*
X38450423Y-65072569D02*
G01*
X38588546Y-65139945D01*
X38702653Y-65252580D01*
X38772682Y-65382013D01*
X38807743Y-65537533D01*
X38786085Y-65680103D01*
X38706070Y-65817667D01*
X38675613Y-65853475D01*
X38541092Y-65966379D01*
X38392872Y-66020532D01*
X38227439Y-66016943D01*
X38161041Y-66001147D01*
X38063141Y-65948897D01*
X37964359Y-65858342D01*
X37881930Y-65749030D01*
X37833091Y-65640505D01*
X37829717Y-65625442D01*
X37831049Y-65491899D01*
X37874484Y-65350123D01*
X37950863Y-65224239D01*
X38001885Y-65171946D01*
X38146099Y-65085573D01*
X38299277Y-65053446D01*
X38450423Y-65072569D01*
G37*
%TD.AperFunction*%
%TA.AperFunction,Profile*%
G36*
X38550152Y-24541834D02*
G01*
X38692029Y-24621688D01*
X38804889Y-24733671D01*
X38884666Y-24869406D01*
X38927292Y-25020517D01*
X38928700Y-25178628D01*
X38884824Y-25335362D01*
X38791595Y-25482342D01*
X38706957Y-25565118D01*
X38543454Y-25669911D01*
X38377801Y-25714661D01*
X38206302Y-25699927D01*
X38089260Y-25658407D01*
X37925520Y-25562409D01*
X37811124Y-25441289D01*
X37738373Y-25290156D01*
X37705647Y-25104813D01*
X37727899Y-24928669D01*
X37799626Y-24771093D01*
X37915320Y-24641453D01*
X38069477Y-24549119D01*
X38195619Y-24512016D01*
X38383326Y-24502484D01*
X38550152Y-24541834D01*
G37*
%TD.AperFunction*%
%TA.AperFunction,Profile*%
G36*
X42828458Y-76195954D02*
G01*
X42968668Y-76232908D01*
X43071155Y-76306100D01*
X43136714Y-76404956D01*
X43166138Y-76518901D01*
X43160221Y-76637362D01*
X43119756Y-76749765D01*
X43045536Y-76845535D01*
X42938356Y-76914099D01*
X42799009Y-76944882D01*
X42772196Y-76945597D01*
X42665351Y-76930327D01*
X42565260Y-76893026D01*
X42555933Y-76887656D01*
X42465503Y-76800369D01*
X42409092Y-76694028D01*
X42379615Y-76608976D01*
X42373615Y-76548165D01*
X42392074Y-76481903D01*
X42418104Y-76420821D01*
X42497284Y-76294696D01*
X42603777Y-76219815D01*
X42743932Y-76192701D01*
X42828458Y-76195954D01*
G37*
%TD.AperFunction*%
%TA.AperFunction,Profile*%
G36*
X43927389Y-70661194D02*
G01*
X44040954Y-70699848D01*
X44146271Y-70763902D01*
X44220547Y-70842181D01*
X44227915Y-70855060D01*
X44266341Y-70984296D01*
X44265337Y-71126757D01*
X44230060Y-71241748D01*
X44172864Y-71311041D01*
X44083380Y-71379919D01*
X43984464Y-71433835D01*
X43898970Y-71458242D01*
X43889548Y-71458480D01*
X43822089Y-71445613D01*
X43742124Y-71417156D01*
X43617547Y-71334553D01*
X43538345Y-71224845D01*
X43503201Y-71099594D01*
X43510801Y-70970357D01*
X43559830Y-70848697D01*
X43648971Y-70746172D01*
X43776910Y-70674344D01*
X43828370Y-70659120D01*
X43927389Y-70661194D01*
G37*
%TD.AperFunction*%
%TA.AperFunction,Profile*%
G36*
X43991510Y-63112953D02*
G01*
X44155028Y-63169198D01*
X44300450Y-63273444D01*
X44413769Y-63417781D01*
X44480719Y-63583067D01*
X44494104Y-63746593D01*
X44460749Y-63901338D01*
X44387480Y-64040281D01*
X44281124Y-64156402D01*
X44148506Y-64242679D01*
X43996453Y-64292092D01*
X43831791Y-64297621D01*
X43661346Y-64252244D01*
X43620883Y-64233277D01*
X43465134Y-64123827D01*
X43356369Y-63984777D01*
X43295861Y-63826284D01*
X43284885Y-63658505D01*
X43324714Y-63491597D01*
X43416624Y-63335718D01*
X43497696Y-63251360D01*
X43652313Y-63152121D01*
X43820428Y-63106623D01*
X43991510Y-63112953D01*
G37*
%TD.AperFunction*%
%TA.AperFunction,Profile*%
G36*
X44130742Y-22716429D02*
G01*
X44284755Y-22815290D01*
X44360637Y-22893600D01*
X44463653Y-23058201D01*
X44507031Y-23227197D01*
X44490648Y-23396684D01*
X44414383Y-23562761D01*
X44382935Y-23607263D01*
X44241908Y-23750223D01*
X44081851Y-23839268D01*
X43909783Y-23872717D01*
X43732726Y-23848890D01*
X43603539Y-23793908D01*
X43451934Y-23678982D01*
X43347866Y-23535753D01*
X43292831Y-23374402D01*
X43288324Y-23205109D01*
X43335840Y-23038056D01*
X43436877Y-22883423D01*
X43465343Y-22853172D01*
X43618660Y-22738235D01*
X43787477Y-22677440D01*
X43961577Y-22670325D01*
X44130742Y-22716429D01*
G37*
%TD.AperFunction*%
%TA.AperFunction,Profile*%
G36*
X47319151Y-20952479D02*
G01*
X47451747Y-21009115D01*
X47486845Y-21031705D01*
X47611382Y-21136380D01*
X47683321Y-21250787D01*
X47710539Y-21388872D01*
X47711276Y-21429035D01*
X47683613Y-21595615D01*
X47610537Y-21735187D01*
X47501890Y-21841622D01*
X47367515Y-21908792D01*
X47217253Y-21930566D01*
X47060947Y-21900816D01*
X46998517Y-21872895D01*
X46863361Y-21771914D01*
X46775125Y-21644326D01*
X46733362Y-21501349D01*
X46737621Y-21354199D01*
X46787455Y-21214093D01*
X46882414Y-21092248D01*
X47022049Y-20999881D01*
X47033667Y-20994730D01*
X47185425Y-20948144D01*
X47319151Y-20952479D01*
G37*
%TD.AperFunction*%
%TA.AperFunction,Profile*%
G36*
X49537801Y-17282694D02*
G01*
X49691632Y-17344151D01*
X49809035Y-17442153D01*
X49888647Y-17566022D01*
X49929109Y-17705075D01*
X49929058Y-17848632D01*
X49887135Y-17986012D01*
X49801978Y-18106534D01*
X49672226Y-18199517D01*
X49655624Y-18207401D01*
X49494768Y-18256776D01*
X49349169Y-18249858D01*
X49258592Y-18214791D01*
X49118744Y-18119951D01*
X49023703Y-18000664D01*
X48982063Y-17911023D01*
X48951701Y-17813456D01*
X48949503Y-17733975D01*
X48967450Y-17657658D01*
X49033423Y-17524462D01*
X49137922Y-17410895D01*
X49266523Y-17326443D01*
X49404799Y-17280588D01*
X49537801Y-17282694D01*
G37*
%TD.AperFunction*%
%TA.AperFunction,Profile*%
G36*
X50755856Y-59452669D02*
G01*
X50907906Y-59524841D01*
X51030469Y-59633466D01*
X51119433Y-59769004D01*
X51170689Y-59921915D01*
X51180125Y-60082659D01*
X51143630Y-60241694D01*
X51057095Y-60389481D01*
X51013883Y-60437123D01*
X50860554Y-60551150D01*
X50686772Y-60616281D01*
X50505786Y-60629325D01*
X50353543Y-60596107D01*
X50201665Y-60511604D01*
X50077644Y-60388021D01*
X49990164Y-60238823D01*
X49947910Y-60077475D01*
X49949229Y-59969270D01*
X50002124Y-59786743D01*
X50102871Y-59633970D01*
X50243014Y-59518244D01*
X50414099Y-59446859D01*
X50578430Y-59426492D01*
X50755856Y-59452669D01*
G37*
%TD.AperFunction*%
%TA.AperFunction,Profile*%
G36*
X54001666Y-20963452D02*
G01*
X54148615Y-21020366D01*
X54273315Y-21127855D01*
X54350341Y-21247236D01*
X54395682Y-21348681D01*
X54413736Y-21421414D01*
X54408789Y-21488472D01*
X54401059Y-21519853D01*
X54328144Y-21683935D01*
X54213848Y-21811644D01*
X54111232Y-21874943D01*
X53960546Y-21923464D01*
X53824447Y-21919975D01*
X53685612Y-21864007D01*
X53684508Y-21863383D01*
X53558578Y-21762030D01*
X53475915Y-21633131D01*
X53436605Y-21488749D01*
X53440732Y-21340943D01*
X53488380Y-21201776D01*
X53579634Y-21083308D01*
X53678551Y-21014358D01*
X53841850Y-20960365D01*
X54001666Y-20963452D01*
G37*
%TD.AperFunction*%
%TA.AperFunction,Profile*%
G36*
X36259300Y-20948872D02*
G01*
X36390516Y-21021302D01*
X36500860Y-21125144D01*
X36580608Y-21251124D01*
X36620037Y-21389966D01*
X36609422Y-21532395D01*
X36607189Y-21540164D01*
X36535371Y-21694730D01*
X36427891Y-21818891D01*
X36295847Y-21906868D01*
X36150337Y-21952887D01*
X36002459Y-21951171D01*
X35891766Y-21912535D01*
X35766915Y-21832312D01*
X35679192Y-21736041D01*
X35630903Y-21653535D01*
X35579728Y-21492985D01*
X35589048Y-21331768D01*
X35648042Y-21189481D01*
X35730887Y-21074216D01*
X35830633Y-20995596D01*
X35968831Y-20936777D01*
X35973146Y-20935355D01*
X36116935Y-20917132D01*
X36259300Y-20948872D01*
G37*
%TD.AperFunction*%
%TA.AperFunction,Profile*%
G36*
X37410468Y-30017618D02*
G01*
X37571570Y-30110188D01*
X37586362Y-30122077D01*
X37711938Y-30259162D01*
X37787264Y-30414012D01*
X37815322Y-30577133D01*
X37799092Y-30739034D01*
X37741554Y-30890222D01*
X37645690Y-31021206D01*
X37514481Y-31122492D01*
X37350907Y-31184589D01*
X37248307Y-31198594D01*
X37081546Y-31192361D01*
X36967780Y-31161051D01*
X36828033Y-31072539D01*
X36711731Y-30949665D01*
X36627475Y-30806628D01*
X36583870Y-30657623D01*
X36586234Y-30531419D01*
X36647622Y-30345339D01*
X36747259Y-30194864D01*
X36865471Y-30097497D01*
X37057839Y-30011287D01*
X37239364Y-29984656D01*
X37410468Y-30017618D01*
G37*
%TD.AperFunction*%
%TA.AperFunction,Profile*%
G36*
X39530630Y-22674848D02*
G01*
X39701910Y-22732625D01*
X39852691Y-22835509D01*
X39969582Y-22975906D01*
X40002899Y-23038762D01*
X40049898Y-23205888D01*
X40043802Y-23368006D01*
X39992109Y-23518425D01*
X39902322Y-23650453D01*
X39781942Y-23757400D01*
X39638468Y-23832573D01*
X39479402Y-23869280D01*
X39312244Y-23860832D01*
X39147309Y-23802029D01*
X39000807Y-23693462D01*
X38894981Y-23550677D01*
X38833840Y-23385923D01*
X38821395Y-23211450D01*
X38861658Y-23039508D01*
X38882704Y-22993909D01*
X38978842Y-22865767D01*
X39114787Y-22759133D01*
X39270187Y-22688057D01*
X39352241Y-22669771D01*
X39530630Y-22674848D01*
G37*
%TD.AperFunction*%
%TA.AperFunction,Profile*%
G36*
X39597265Y-26353811D02*
G01*
X39760792Y-26427816D01*
X39899635Y-26547963D01*
X40001963Y-26706564D01*
X40049728Y-26876321D01*
X40041383Y-27046528D01*
X39980658Y-27207934D01*
X39871281Y-27351285D01*
X39716983Y-27467328D01*
X39689334Y-27482251D01*
X39566550Y-27522357D01*
X39420251Y-27537656D01*
X39280480Y-27526489D01*
X39216877Y-27508308D01*
X39054169Y-27415128D01*
X38934627Y-27290086D01*
X38858069Y-27142996D01*
X38824315Y-26983672D01*
X38833183Y-26821928D01*
X38884493Y-26667576D01*
X38978064Y-26530432D01*
X39113714Y-26420309D01*
X39237995Y-26363034D01*
X39419513Y-26330649D01*
X39597265Y-26353811D01*
G37*
%TD.AperFunction*%
%TA.AperFunction,Profile*%
G36*
X40746654Y-57633963D02*
G01*
X40891947Y-57708617D01*
X41015776Y-57827130D01*
X41103684Y-57978617D01*
X41144897Y-58129003D01*
X41136605Y-58277080D01*
X41077708Y-58439212D01*
X41071891Y-58451052D01*
X40968337Y-58595639D01*
X40827603Y-58702200D01*
X40663148Y-58764421D01*
X40488433Y-58775988D01*
X40407995Y-58762479D01*
X40240642Y-58693059D01*
X40105458Y-58581947D01*
X40009151Y-58439782D01*
X39958433Y-58277202D01*
X39960012Y-58104846D01*
X39968351Y-58065444D01*
X40038354Y-57892556D01*
X40145199Y-57759066D01*
X40279170Y-57665719D01*
X40430547Y-57613257D01*
X40589615Y-57602424D01*
X40746654Y-57633963D01*
G37*
%TD.AperFunction*%
%TA.AperFunction,Profile*%
G36*
X41737542Y-30002328D02*
G01*
X41888573Y-30044513D01*
X42024732Y-30121275D01*
X42138868Y-30226884D01*
X42223825Y-30355608D01*
X42272452Y-30501715D01*
X42277595Y-30659475D01*
X42232100Y-30823157D01*
X42199014Y-30887484D01*
X42090603Y-31018704D01*
X41945465Y-31118909D01*
X41779532Y-31181702D01*
X41608735Y-31200682D01*
X41474461Y-31178506D01*
X41317854Y-31099641D01*
X41196908Y-30981700D01*
X41113878Y-30835949D01*
X41071019Y-30673650D01*
X41070584Y-30506070D01*
X41114827Y-30344470D01*
X41206003Y-30200117D01*
X41266754Y-30140552D01*
X41419479Y-30044616D01*
X41578793Y-30000452D01*
X41737542Y-30002328D01*
G37*
%TD.AperFunction*%
%TA.AperFunction,Profile*%
G36*
X45124950Y-17288391D02*
G01*
X45250887Y-17350071D01*
X45361792Y-17436840D01*
X45403367Y-17484386D01*
X45477609Y-17627335D01*
X45499144Y-17773989D01*
X45474641Y-17915839D01*
X45410769Y-18044374D01*
X45314199Y-18151083D01*
X45191600Y-18227458D01*
X45049640Y-18264988D01*
X44894991Y-18255162D01*
X44818154Y-18231103D01*
X44700746Y-18158748D01*
X44597592Y-18049916D01*
X44557621Y-17986291D01*
X44520091Y-17859927D01*
X44517684Y-17713050D01*
X44548909Y-17573462D01*
X44583478Y-17504304D01*
X44667343Y-17415270D01*
X44783692Y-17336857D01*
X44908883Y-17282410D01*
X45007630Y-17264917D01*
X45124950Y-17288391D01*
G37*
%TD.AperFunction*%
%TA.AperFunction,Profile*%
G36*
X46199794Y-26342760D02*
G01*
X46367553Y-26395012D01*
X46502304Y-26485011D01*
X46618484Y-26610940D01*
X46683338Y-26747252D01*
X46705223Y-26912687D01*
X46705325Y-26940313D01*
X46677099Y-27113406D01*
X46602212Y-27266474D01*
X46490404Y-27392536D01*
X46351415Y-27484611D01*
X46194987Y-27535718D01*
X46030859Y-27538874D01*
X45913708Y-27507665D01*
X45754090Y-27415763D01*
X45630613Y-27288618D01*
X45547405Y-27137225D01*
X45508593Y-26972576D01*
X45518305Y-26805665D01*
X45580670Y-26647484D01*
X45586907Y-26637351D01*
X45710275Y-26491681D01*
X45860589Y-26392853D01*
X46027284Y-26342627D01*
X46199794Y-26342760D01*
G37*
%TD.AperFunction*%
%TA.AperFunction,Profile*%
G36*
X46337995Y-59475152D02*
G01*
X46483304Y-59554880D01*
X46602010Y-59670470D01*
X46683487Y-59818334D01*
X46710942Y-59926590D01*
X46710722Y-60106191D01*
X46660417Y-60270885D01*
X46568604Y-60413305D01*
X46443858Y-60526081D01*
X46294758Y-60601843D01*
X46129881Y-60633222D01*
X45957803Y-60612849D01*
X45924463Y-60602332D01*
X45754159Y-60514824D01*
X45625920Y-60392165D01*
X45541902Y-60244255D01*
X45504261Y-60080997D01*
X45515155Y-59912293D01*
X45576739Y-59748045D01*
X45691170Y-59598155D01*
X45703236Y-59586550D01*
X45848703Y-59486983D01*
X46010069Y-59437617D01*
X46176708Y-59434869D01*
X46337995Y-59475152D01*
G37*
%TD.AperFunction*%
%TA.AperFunction,Profile*%
G36*
X47409704Y-68754469D02*
G01*
X47422216Y-68760724D01*
X47568542Y-68863375D01*
X47666158Y-68990105D01*
X47716609Y-69131088D01*
X47721440Y-69276499D01*
X47682193Y-69416514D01*
X47600415Y-69541309D01*
X47477648Y-69641058D01*
X47315438Y-69705936D01*
X47272222Y-69714979D01*
X47176699Y-69716502D01*
X47067891Y-69683906D01*
X47015632Y-69660252D01*
X46870504Y-69561632D01*
X46772727Y-69435960D01*
X46722326Y-69293825D01*
X46719329Y-69145815D01*
X46763759Y-69002516D01*
X46855644Y-68874518D01*
X46995010Y-68772408D01*
X47013430Y-68763119D01*
X47153704Y-68712157D01*
X47278664Y-68709316D01*
X47409704Y-68754469D01*
G37*
%TD.AperFunction*%
%TA.AperFunction,Profile*%
G36*
X48514408Y-59451765D02*
G01*
X48665856Y-59521459D01*
X48786050Y-59626386D01*
X48872861Y-59757359D01*
X48924164Y-59905191D01*
X48937832Y-60060693D01*
X48911739Y-60214680D01*
X48843757Y-60357963D01*
X48731760Y-60481354D01*
X48597392Y-60565129D01*
X48437579Y-60622073D01*
X48292496Y-60632171D01*
X48175426Y-60608722D01*
X48008660Y-60531453D01*
X47871775Y-60414766D01*
X47773694Y-60269897D01*
X47723342Y-60108077D01*
X47718617Y-60033689D01*
X47749464Y-59849556D01*
X47830441Y-59688432D01*
X47952930Y-59558825D01*
X48108313Y-59469239D01*
X48287972Y-59428180D01*
X48333831Y-59426492D01*
X48514408Y-59451765D01*
G37*
%TD.AperFunction*%
%TA.AperFunction,Profile*%
G36*
X48556516Y-63134996D02*
G01*
X48713991Y-63223688D01*
X48731534Y-63237918D01*
X48838057Y-63364127D01*
X48909323Y-63524014D01*
X48940581Y-63698871D01*
X48927080Y-63869991D01*
X48908095Y-63933170D01*
X48823864Y-64075639D01*
X48697891Y-64188069D01*
X48543606Y-64265541D01*
X48374439Y-64303132D01*
X48203820Y-64295921D01*
X48056548Y-64245191D01*
X47915385Y-64142150D01*
X47806412Y-64006023D01*
X47736545Y-63850723D01*
X47712698Y-63690163D01*
X47727044Y-63582265D01*
X47801180Y-63408390D01*
X47914392Y-63269642D01*
X48056607Y-63169475D01*
X48217749Y-63111343D01*
X48387744Y-63098698D01*
X48556516Y-63134996D01*
G37*
%TD.AperFunction*%
%TA.AperFunction,Profile*%
G36*
X49527784Y-24519943D02*
G01*
X49707876Y-24569067D01*
X49856129Y-24665232D01*
X49965504Y-24800442D01*
X50028965Y-24966700D01*
X50042234Y-25104506D01*
X50012556Y-25292217D01*
X49933622Y-25450656D01*
X49811905Y-25573016D01*
X49653878Y-25652492D01*
X49493653Y-25681363D01*
X49383118Y-25681099D01*
X49286663Y-25670497D01*
X49244342Y-25659084D01*
X49099854Y-25574039D01*
X48978044Y-25457013D01*
X48907390Y-25346120D01*
X48856203Y-25169085D01*
X48859374Y-24997739D01*
X48910696Y-24840348D01*
X49003963Y-24705179D01*
X49132966Y-24600498D01*
X49291499Y-24534571D01*
X49473355Y-24515664D01*
X49527784Y-24519943D01*
G37*
%TD.AperFunction*%
%TA.AperFunction,Profile*%
G36*
X49643511Y-61294665D02*
G01*
X49796993Y-61376219D01*
X49925308Y-61495694D01*
X50005286Y-61623726D01*
X50053408Y-61797648D01*
X50046667Y-61972990D01*
X49989588Y-62139006D01*
X49886695Y-62284954D01*
X49742513Y-62400091D01*
X49661176Y-62440755D01*
X49510932Y-62482046D01*
X49363191Y-62474016D01*
X49201451Y-62415555D01*
X49187920Y-62408919D01*
X49026656Y-62300224D01*
X48913611Y-62165333D01*
X48847760Y-62013403D01*
X48828076Y-61853589D01*
X48853532Y-61695047D01*
X48923102Y-61546933D01*
X49035760Y-61418402D01*
X49190479Y-61318609D01*
X49315278Y-61272897D01*
X49478419Y-61257927D01*
X49643511Y-61294665D01*
G37*
%TD.AperFunction*%
%TA.AperFunction,Profile*%
G36*
X51760969Y-28187038D02*
G01*
X51928927Y-28236350D01*
X52078933Y-28330174D01*
X52128561Y-28377383D01*
X52225884Y-28520824D01*
X52271384Y-28677730D01*
X52269172Y-28838195D01*
X52223358Y-28992307D01*
X52138051Y-29130158D01*
X52017361Y-29241838D01*
X51865399Y-29317439D01*
X51727225Y-29345034D01*
X51618946Y-29346992D01*
X51524442Y-29337133D01*
X51487302Y-29326809D01*
X51324088Y-29228286D01*
X51198916Y-29092146D01*
X51119384Y-28929273D01*
X51093028Y-28762057D01*
X51119357Y-28578867D01*
X51199896Y-28422415D01*
X51333889Y-28293881D01*
X51432146Y-28234456D01*
X51590297Y-28185364D01*
X51760969Y-28187038D01*
G37*
%TD.AperFunction*%
%TA.AperFunction,Profile*%
G36*
X51856390Y-24539290D02*
G01*
X51925895Y-24566534D01*
X52089428Y-24670729D01*
X52202237Y-24807596D01*
X52263188Y-24975405D01*
X52274463Y-25100120D01*
X52254739Y-25271102D01*
X52191100Y-25412153D01*
X52128561Y-25490398D01*
X51983438Y-25605067D01*
X51815257Y-25670629D01*
X51637266Y-25684320D01*
X51462709Y-25643375D01*
X51440931Y-25633882D01*
X51287680Y-25535920D01*
X51178199Y-25399907D01*
X51139275Y-25320429D01*
X51095709Y-25147730D01*
X51105242Y-24982061D01*
X51160355Y-24830629D01*
X51253527Y-24700641D01*
X51377237Y-24599306D01*
X51523964Y-24533831D01*
X51686189Y-24511423D01*
X51856390Y-24539290D01*
G37*
%TD.AperFunction*%
%TA.AperFunction,Profile*%
G36*
X52910860Y-22796514D02*
G01*
X53029448Y-22848492D01*
X53141655Y-22941901D01*
X53233713Y-23060166D01*
X53291859Y-23186715D01*
X53305012Y-23271058D01*
X53291750Y-23330517D01*
X53257898Y-23418266D01*
X53232477Y-23472125D01*
X53136234Y-23604666D01*
X53009169Y-23697492D01*
X52864077Y-23746694D01*
X52713755Y-23748364D01*
X52570998Y-23698594D01*
X52544622Y-23682219D01*
X52442636Y-23587817D01*
X52360964Y-23464848D01*
X52312756Y-23335814D01*
X52305272Y-23272719D01*
X52332507Y-23120164D01*
X52408348Y-22986418D01*
X52521616Y-22880272D01*
X52661128Y-22810518D01*
X52815705Y-22785948D01*
X52910860Y-22796514D01*
G37*
%TD.AperFunction*%
%TA.AperFunction,Profile*%
G36*
X36325128Y-50191261D02*
G01*
X36498181Y-50289552D01*
X36577902Y-50359569D01*
X36700416Y-50513840D01*
X36767723Y-50681304D01*
X36785581Y-50848688D01*
X36757925Y-51042599D01*
X36680309Y-51212504D01*
X36560758Y-51352072D01*
X36407298Y-51454976D01*
X36227953Y-51514885D01*
X36030749Y-51525470D01*
X35942816Y-51513351D01*
X35755809Y-51449431D01*
X35604367Y-51343953D01*
X35491246Y-51206334D01*
X35419205Y-51045991D01*
X35390999Y-50872341D01*
X35409386Y-50694802D01*
X35477122Y-50522791D01*
X35596965Y-50365724D01*
X35604633Y-50358181D01*
X35772646Y-50232415D01*
X35954184Y-50162681D01*
X36141070Y-50148967D01*
X36325128Y-50191261D01*
G37*
%TD.AperFunction*%
%TA.AperFunction,Profile*%
G36*
X36337905Y-35422127D02*
G01*
X36497323Y-35501997D01*
X36630682Y-35618932D01*
X36731018Y-35767050D01*
X36791369Y-35940468D01*
X36804772Y-36133305D01*
X36773725Y-36309216D01*
X36695247Y-36478122D01*
X36572684Y-36619344D01*
X36417862Y-36726371D01*
X36242603Y-36792691D01*
X36058733Y-36811791D01*
X35906725Y-36786716D01*
X35718580Y-36702698D01*
X35570186Y-36582949D01*
X35462444Y-36436372D01*
X35396255Y-36271868D01*
X35372518Y-36098340D01*
X35392133Y-35924690D01*
X35456002Y-35759819D01*
X35565024Y-35612630D01*
X35720099Y-35492025D01*
X35772923Y-35463729D01*
X35968742Y-35397110D01*
X36159391Y-35385204D01*
X36337905Y-35422127D01*
G37*
%TD.AperFunction*%
%TA.AperFunction,Profile*%
G36*
X37359521Y-26343659D02*
G01*
X37513983Y-26407532D01*
X37646213Y-26508792D01*
X37746522Y-26642457D01*
X37805217Y-26803542D01*
X37816468Y-26918204D01*
X37789721Y-27110552D01*
X37714103Y-27275512D01*
X37596541Y-27406074D01*
X37443965Y-27495233D01*
X37263306Y-27535978D01*
X37203892Y-27537703D01*
X37103799Y-27533199D01*
X37024704Y-27524331D01*
X36998091Y-27518052D01*
X36844154Y-27430829D01*
X36714023Y-27302530D01*
X36635481Y-27172243D01*
X36585102Y-26986025D01*
X36593046Y-26805738D01*
X36657038Y-26638954D01*
X36774803Y-26493244D01*
X36859653Y-26426194D01*
X37022666Y-26348007D01*
X37192518Y-26322156D01*
X37359521Y-26343659D01*
G37*
%TD.AperFunction*%
%TA.AperFunction,Profile*%
G36*
X37408987Y-52021802D02*
G01*
X37580626Y-52100231D01*
X37721239Y-52220116D01*
X37824422Y-52373273D01*
X37883767Y-52551521D01*
X37892869Y-52746675D01*
X37877826Y-52842552D01*
X37843245Y-52956906D01*
X37788943Y-53050571D01*
X37699588Y-53150189D01*
X37532024Y-53278920D01*
X37348689Y-53350533D01*
X37155669Y-53364073D01*
X36959053Y-53318586D01*
X36873251Y-53279772D01*
X36708547Y-53168338D01*
X36597018Y-53031062D01*
X36534389Y-52861455D01*
X36518486Y-52741138D01*
X36530800Y-52526785D01*
X36593364Y-52341267D01*
X36701242Y-52189900D01*
X36849503Y-52077999D01*
X37033212Y-52010882D01*
X37212729Y-51993009D01*
X37408987Y-52021802D01*
G37*
%TD.AperFunction*%
%TA.AperFunction,Profile*%
G36*
X37416971Y-33588143D02*
G01*
X37598205Y-33666030D01*
X37746492Y-33787728D01*
X37854364Y-33947375D01*
X37908611Y-34108110D01*
X37923145Y-34309294D01*
X37885589Y-34493858D01*
X37803486Y-34656070D01*
X37684382Y-34790198D01*
X37535820Y-34890508D01*
X37365346Y-34951269D01*
X37180503Y-34966747D01*
X36988835Y-34931211D01*
X36882753Y-34887599D01*
X36707991Y-34770321D01*
X36581756Y-34619573D01*
X36507160Y-34441001D01*
X36487314Y-34240252D01*
X36492212Y-34178963D01*
X36543650Y-33979617D01*
X36643033Y-33812533D01*
X36783863Y-33683313D01*
X36959643Y-33597559D01*
X37163873Y-33560874D01*
X37210262Y-33559931D01*
X37416971Y-33588143D01*
G37*
%TD.AperFunction*%
%TA.AperFunction,Profile*%
G36*
X41893662Y-48351543D02*
G01*
X42054323Y-48438985D01*
X42190365Y-48563640D01*
X42292518Y-48717735D01*
X42351511Y-48893495D01*
X42362341Y-49012774D01*
X42333879Y-49203858D01*
X42256020Y-49371731D01*
X42137446Y-49510549D01*
X41986840Y-49614470D01*
X41812885Y-49677650D01*
X41624262Y-49694244D01*
X41429655Y-49658411D01*
X41412015Y-49652369D01*
X41247843Y-49563249D01*
X41114022Y-49430024D01*
X41019265Y-49265216D01*
X40972281Y-49081345D01*
X40968735Y-49015151D01*
X40996181Y-48807228D01*
X41075392Y-48627142D01*
X41201673Y-48480656D01*
X41370331Y-48373530D01*
X41535561Y-48319399D01*
X41717651Y-48309090D01*
X41893662Y-48351543D01*
G37*
%TD.AperFunction*%
%TA.AperFunction,Profile*%
G36*
X42898825Y-28173559D02*
G01*
X43067643Y-28238439D01*
X43131612Y-28280954D01*
X43273600Y-28420496D01*
X43361993Y-28577549D01*
X43395289Y-28744819D01*
X43371984Y-28915011D01*
X43295048Y-29074255D01*
X43169526Y-29221116D01*
X43023551Y-29313049D01*
X42848945Y-29354491D01*
X42772196Y-29357926D01*
X42639625Y-29349667D01*
X42534962Y-29319413D01*
X42461932Y-29281179D01*
X42319779Y-29162887D01*
X42225967Y-29009795D01*
X42183456Y-28827294D01*
X42181145Y-28769579D01*
X42202148Y-28581549D01*
X42267953Y-28428894D01*
X42382752Y-28301982D01*
X42385773Y-28299478D01*
X42545248Y-28204392D01*
X42720479Y-28162314D01*
X42898825Y-28173559D01*
G37*
%TD.AperFunction*%
%TA.AperFunction,Profile*%
G36*
X44042758Y-51998399D02*
G01*
X44211572Y-52062720D01*
X44363519Y-52171764D01*
X44489483Y-52325090D01*
X44542893Y-52424821D01*
X44596617Y-52604265D01*
X44592002Y-52782341D01*
X44534226Y-52956490D01*
X44424424Y-53127653D01*
X44278948Y-53257454D01*
X44107733Y-53341499D01*
X43920715Y-53375393D01*
X43727831Y-53354745D01*
X43671883Y-53337811D01*
X43487356Y-53245096D01*
X43343218Y-53115246D01*
X43243204Y-52957202D01*
X43191048Y-52779905D01*
X43190484Y-52592296D01*
X43245246Y-52403316D01*
X43264773Y-52363049D01*
X43381171Y-52197149D01*
X43526285Y-52078175D01*
X43690998Y-52005685D01*
X43866195Y-51979240D01*
X44042758Y-51998399D01*
G37*
%TD.AperFunction*%
%TA.AperFunction,Profile*%
G36*
X44058747Y-59453835D02*
G01*
X44219759Y-59529943D01*
X44351738Y-59645938D01*
X44445401Y-59792939D01*
X44491459Y-59962068D01*
X44494609Y-60016144D01*
X44468744Y-60198283D01*
X44393899Y-60356416D01*
X44279172Y-60483907D01*
X44133663Y-60574119D01*
X43966468Y-60620416D01*
X43786689Y-60616162D01*
X43700998Y-60594994D01*
X43546547Y-60520383D01*
X43420273Y-60401151D01*
X43358323Y-60312680D01*
X43315904Y-60201674D01*
X43297013Y-60060539D01*
X43302419Y-59915332D01*
X43332892Y-59792110D01*
X43342353Y-59771839D01*
X43443708Y-59632563D01*
X43580287Y-59521503D01*
X43735520Y-59449345D01*
X43877988Y-59426492D01*
X44058747Y-59453835D01*
G37*
%TD.AperFunction*%
%TA.AperFunction,Profile*%
G36*
X47340112Y-61269576D02*
G01*
X47482508Y-61324926D01*
X47537679Y-61354971D01*
X47671477Y-61463029D01*
X47762859Y-61601183D01*
X47812114Y-61757962D01*
X47819531Y-61921895D01*
X47785397Y-62081512D01*
X47710002Y-62225342D01*
X47593635Y-62341914D01*
X47511612Y-62390570D01*
X47345165Y-62452226D01*
X47194227Y-62474110D01*
X47091212Y-62460454D01*
X46901636Y-62374618D01*
X46755114Y-62253575D01*
X46656236Y-62102950D01*
X46609591Y-61928367D01*
X46606444Y-61866468D01*
X46635166Y-61688889D01*
X46715764Y-61529010D01*
X46839882Y-61397657D01*
X46999166Y-61305655D01*
X47053583Y-61287048D01*
X47204595Y-61257997D01*
X47340112Y-61269576D01*
G37*
%TD.AperFunction*%
%TA.AperFunction,Profile*%
G36*
X47395091Y-28199058D02*
G01*
X47539608Y-28257204D01*
X47662825Y-28352031D01*
X47755218Y-28482130D01*
X47807264Y-28646091D01*
X47811088Y-28674282D01*
X47812752Y-28862125D01*
X47769165Y-29016967D01*
X47691410Y-29133818D01*
X47541165Y-29265308D01*
X47374534Y-29340006D01*
X47197448Y-29356874D01*
X47015835Y-29314875D01*
X46920487Y-29268804D01*
X46808983Y-29192309D01*
X46731217Y-29101880D01*
X46685582Y-29020655D01*
X46624464Y-28863961D01*
X46612178Y-28724952D01*
X46648749Y-28585354D01*
X46686322Y-28507861D01*
X46794489Y-28361466D01*
X46928972Y-28258797D01*
X47080250Y-28198445D01*
X47238797Y-28179002D01*
X47395091Y-28199058D01*
G37*
%TD.AperFunction*%
%TA.AperFunction,Profile*%
G36*
X48397818Y-70652211D02*
G01*
X48477093Y-70686157D01*
X48498227Y-70697212D01*
X48587885Y-70757620D01*
X48660299Y-70828240D01*
X48676803Y-70851645D01*
X48720297Y-70978607D01*
X48720732Y-71121035D01*
X48678484Y-71252107D01*
X48671007Y-71265075D01*
X48583370Y-71360967D01*
X48465933Y-71426624D01*
X48338220Y-71454845D01*
X48219756Y-71438428D01*
X48210875Y-71434803D01*
X48077048Y-71350025D01*
X47986495Y-71237237D01*
X47942422Y-71107763D01*
X47948035Y-70972925D01*
X48006539Y-70844047D01*
X48033837Y-70809425D01*
X48129645Y-70726565D01*
X48238357Y-70669728D01*
X48249295Y-70666192D01*
X48332126Y-70646832D01*
X48397818Y-70652211D01*
G37*
%TD.AperFunction*%
%TA.AperFunction,Profile*%
G36*
X49517361Y-76177410D02*
G01*
X49648031Y-76229428D01*
X49755094Y-76321562D01*
X49826310Y-76443563D01*
X49849642Y-76572837D01*
X49843408Y-76661988D01*
X49816834Y-76729660D01*
X49758112Y-76801472D01*
X49731967Y-76828149D01*
X49655459Y-76898145D01*
X49591239Y-76932994D01*
X49512973Y-76944274D01*
X49466752Y-76944750D01*
X49364468Y-76936614D01*
X49278223Y-76917334D01*
X49253560Y-76906862D01*
X49170141Y-76838733D01*
X49092842Y-76741743D01*
X49050969Y-76661385D01*
X49040271Y-76551156D01*
X49075729Y-76432911D01*
X49147381Y-76321564D01*
X49245265Y-76232029D01*
X49359421Y-76179220D01*
X49375327Y-76175757D01*
X49517361Y-76177410D01*
G37*
%TD.AperFunction*%
%TA.AperFunction,Profile*%
G36*
X49708849Y-28235117D02*
G01*
X49712219Y-28236735D01*
X49864526Y-28339981D01*
X49971280Y-28473537D01*
X50031982Y-28627155D01*
X50046137Y-28790590D01*
X50013246Y-28953596D01*
X49932813Y-29105925D01*
X49804341Y-29237332D01*
X49762218Y-29267327D01*
X49636286Y-29322247D01*
X49483171Y-29349226D01*
X49331182Y-29344730D01*
X49264198Y-29329492D01*
X49117429Y-29253117D01*
X48992568Y-29132496D01*
X48900835Y-28983052D01*
X48853450Y-28820210D01*
X48849403Y-28759259D01*
X48877105Y-28590810D01*
X48953436Y-28443295D01*
X49068234Y-28322867D01*
X49211337Y-28235681D01*
X49372582Y-28187891D01*
X49541807Y-28185652D01*
X49708849Y-28235117D01*
G37*
%TD.AperFunction*%
%TA.AperFunction,Profile*%
G36*
X50746221Y-26358796D02*
G01*
X50857927Y-26416207D01*
X50969245Y-26507028D01*
X51064124Y-26614636D01*
X51126509Y-26722406D01*
X51139646Y-26766215D01*
X51152746Y-26946219D01*
X51127247Y-27116327D01*
X51066475Y-27257498D01*
X51049713Y-27281461D01*
X50924144Y-27401037D01*
X50766830Y-27483234D01*
X50595499Y-27521471D01*
X50432950Y-27510399D01*
X50279319Y-27444918D01*
X50145738Y-27333452D01*
X50043170Y-27189949D01*
X49982575Y-27028359D01*
X49970883Y-26922354D01*
X49998962Y-26757422D01*
X50076050Y-26609171D01*
X50191427Y-26485393D01*
X50334369Y-26393881D01*
X50494155Y-26342429D01*
X50660062Y-26338831D01*
X50746221Y-26358796D01*
G37*
%TD.AperFunction*%
%TA.AperFunction,Profile*%
G36*
X52920513Y-55748491D02*
G01*
X53039724Y-55799899D01*
X53158703Y-55871054D01*
X53256334Y-55949975D01*
X53297467Y-55998433D01*
X53384625Y-56177248D01*
X53413637Y-56357580D01*
X53385086Y-56532469D01*
X53299557Y-56694953D01*
X53232585Y-56772404D01*
X53075150Y-56891045D01*
X52898959Y-56955867D01*
X52713399Y-56964348D01*
X52602476Y-56941649D01*
X52449645Y-56865843D01*
X52326312Y-56746738D01*
X52238131Y-56596772D01*
X52190755Y-56428381D01*
X52189838Y-56253999D01*
X52227284Y-56116295D01*
X52315241Y-55977564D01*
X52446255Y-55859966D01*
X52603635Y-55774370D01*
X52770692Y-55731649D01*
X52822190Y-55728809D01*
X52920513Y-55748491D01*
G37*
%TD.AperFunction*%
%TA.AperFunction,Profile*%
G36*
X54095299Y-57603737D02*
G01*
X54250730Y-57676195D01*
X54374007Y-57785861D01*
X54461394Y-57923652D01*
X54509155Y-58080489D01*
X54513555Y-58247289D01*
X54470856Y-58414974D01*
X54377323Y-58574461D01*
X54339678Y-58618398D01*
X54199344Y-58728698D01*
X54033630Y-58793026D01*
X53858962Y-58806316D01*
X53774821Y-58792596D01*
X53588043Y-58717474D01*
X53440239Y-58597242D01*
X53335382Y-58435515D01*
X53309198Y-58368687D01*
X53279184Y-58189908D01*
X53308955Y-58015362D01*
X53397680Y-57848478D01*
X53451003Y-57782959D01*
X53581424Y-57665727D01*
X53722025Y-57600117D01*
X53891599Y-57577748D01*
X53911451Y-57577566D01*
X54095299Y-57603737D01*
G37*
%TD.AperFunction*%
%TA.AperFunction,Profile*%
G36*
X54100061Y-65061969D02*
G01*
X54238465Y-65151705D01*
X54346736Y-65285952D01*
X54366978Y-65324124D01*
X54415721Y-65487957D01*
X54408501Y-65649754D01*
X54349347Y-65798748D01*
X54242284Y-65924174D01*
X54111752Y-66006452D01*
X53976990Y-66051977D01*
X53848993Y-66055176D01*
X53740085Y-66031346D01*
X53609808Y-65964075D01*
X53497133Y-65848751D01*
X53413962Y-65697672D01*
X53411827Y-65692141D01*
X53379723Y-65594359D01*
X53373148Y-65519309D01*
X53390132Y-65435699D01*
X53394706Y-65420098D01*
X53459761Y-65287361D01*
X53563572Y-65166071D01*
X53688167Y-65074223D01*
X53776875Y-65037418D01*
X53942530Y-65022091D01*
X54100061Y-65061969D01*
G37*
%TD.AperFunction*%
%TA.AperFunction,Profile*%
G36*
X54132509Y-24555696D02*
G01*
X54279274Y-24641524D01*
X54398392Y-24770833D01*
X54453550Y-24871951D01*
X54502040Y-25010818D01*
X54512085Y-25129922D01*
X54483171Y-25254025D01*
X54443649Y-25348228D01*
X54341411Y-25506103D01*
X54204558Y-25614281D01*
X54032460Y-25673186D01*
X53946364Y-25683545D01*
X53814351Y-25682705D01*
X53706224Y-25656207D01*
X53644599Y-25628376D01*
X53495969Y-25522390D01*
X53390957Y-25384505D01*
X53331425Y-25225956D01*
X53319236Y-25057977D01*
X53356251Y-24891804D01*
X53444334Y-24738672D01*
X53488883Y-24688922D01*
X53636283Y-24579962D01*
X53800018Y-24522829D01*
X53969091Y-24515435D01*
X54132509Y-24555696D01*
G37*
%TD.AperFunction*%
%TA.AperFunction,Profile*%
G36*
X37310216Y-59446781D02*
G01*
X37397125Y-59473187D01*
X37553226Y-59553950D01*
X37670929Y-59669959D01*
X37749510Y-59810740D01*
X37788249Y-59965819D01*
X37786422Y-60124721D01*
X37743308Y-60276972D01*
X37658185Y-60412099D01*
X37530329Y-60519626D01*
X37471418Y-60550605D01*
X37330162Y-60591893D01*
X37170453Y-60603801D01*
X37020059Y-60585655D01*
X36952625Y-60563182D01*
X36807314Y-60467528D01*
X36697757Y-60332946D01*
X36630522Y-60173068D01*
X36612180Y-60001530D01*
X36629136Y-59891920D01*
X36689107Y-59732400D01*
X36778651Y-59614562D01*
X36911428Y-59521593D01*
X36943628Y-59504876D01*
X37076450Y-59448722D01*
X37189758Y-59429978D01*
X37310216Y-59446781D01*
G37*
%TD.AperFunction*%
%TA.AperFunction,Profile*%
G36*
X37405539Y-48343840D02*
G01*
X37580241Y-48421622D01*
X37726974Y-48547060D01*
X37788567Y-48629564D01*
X37870122Y-48809157D01*
X37898499Y-48996728D01*
X37876485Y-49181434D01*
X37806863Y-49352429D01*
X37692421Y-49498869D01*
X37536876Y-49609436D01*
X37383567Y-49662141D01*
X37206651Y-49684240D01*
X37036449Y-49672806D01*
X36990417Y-49662171D01*
X36880848Y-49611842D01*
X36764397Y-49527681D01*
X36657706Y-49425152D01*
X36577418Y-49319722D01*
X36544469Y-49247789D01*
X36511440Y-49032741D01*
X36532448Y-48833252D01*
X36603886Y-48656240D01*
X36722151Y-48508623D01*
X36883637Y-48397318D01*
X37014095Y-48346540D01*
X37213335Y-48317538D01*
X37405539Y-48343840D01*
G37*
%TD.AperFunction*%
%TA.AperFunction,Profile*%
G36*
X38438571Y-35398723D02*
G01*
X38595037Y-35436981D01*
X38735562Y-35518795D01*
X38795095Y-35568396D01*
X38923907Y-35720968D01*
X39001453Y-35892424D01*
X39029937Y-36073085D01*
X39011561Y-36253270D01*
X38948528Y-36423297D01*
X38843042Y-36573487D01*
X38697306Y-36694160D01*
X38520858Y-36773465D01*
X38405496Y-36803261D01*
X38312085Y-36810699D01*
X38214480Y-36794787D01*
X38094496Y-36757291D01*
X37905261Y-36663175D01*
X37759195Y-36529702D01*
X37660433Y-36363183D01*
X37613111Y-36169930D01*
X37612809Y-36022089D01*
X37658813Y-35825510D01*
X37754250Y-35657795D01*
X37892033Y-35525895D01*
X38065077Y-35436760D01*
X38248591Y-35398561D01*
X38438571Y-35398723D01*
G37*
%TD.AperFunction*%
%TA.AperFunction,Profile*%
G36*
X38469693Y-31736745D02*
G01*
X38648782Y-31793154D01*
X38802531Y-31899931D01*
X38816165Y-31912859D01*
X38941656Y-32073409D01*
X39015509Y-32253806D01*
X39037933Y-32443447D01*
X39009137Y-32631725D01*
X38929330Y-32808035D01*
X38798723Y-32961773D01*
X38795397Y-32964717D01*
X38621378Y-33080750D01*
X38431007Y-33140207D01*
X38231582Y-33141644D01*
X38084780Y-33105335D01*
X37913394Y-33015540D01*
X37775841Y-32886883D01*
X37675837Y-32729982D01*
X37617096Y-32555452D01*
X37603334Y-32373910D01*
X37638266Y-32195970D01*
X37714561Y-32047462D01*
X37853258Y-31889296D01*
X38010960Y-31786398D01*
X38194771Y-31734593D01*
X38257907Y-31728271D01*
X38469693Y-31736745D01*
G37*
%TD.AperFunction*%
%TA.AperFunction,Profile*%
G36*
X39578019Y-37238763D02*
G01*
X39742552Y-37296923D01*
X39888981Y-37390105D01*
X40010149Y-37512619D01*
X40098897Y-37658779D01*
X40148067Y-37822897D01*
X40150499Y-37999284D01*
X40103955Y-38170762D01*
X40002340Y-38345302D01*
X39864405Y-38482951D01*
X39700382Y-38579474D01*
X39520502Y-38630638D01*
X39334996Y-38632208D01*
X39154097Y-38579949D01*
X39136100Y-38571323D01*
X38955449Y-38452961D01*
X38827362Y-38304421D01*
X38751949Y-38125893D01*
X38729325Y-37917571D01*
X38730759Y-37878798D01*
X38764854Y-37679279D01*
X38845218Y-37515957D01*
X38976293Y-37381150D01*
X39047386Y-37331280D01*
X39223278Y-37250253D01*
X39402541Y-37221310D01*
X39578019Y-37238763D01*
G37*
%TD.AperFunction*%
%TA.AperFunction,Profile*%
G36*
X40717902Y-53846239D02*
G01*
X40898399Y-53922283D01*
X41051950Y-54039135D01*
X41165436Y-54188706D01*
X41184358Y-54226590D01*
X41227574Y-54377241D01*
X41238579Y-54549420D01*
X41216845Y-54714118D01*
X41194454Y-54782418D01*
X41095624Y-54945343D01*
X40956337Y-55073466D01*
X40788665Y-55161403D01*
X40604679Y-55203768D01*
X40416452Y-55195179D01*
X40324917Y-55170236D01*
X40135451Y-55074187D01*
X39991755Y-54940202D01*
X39896705Y-54773183D01*
X39853182Y-54578033D01*
X39860841Y-54379735D01*
X39912200Y-54226145D01*
X40011084Y-54082631D01*
X40144407Y-53960262D01*
X40299081Y-53870111D01*
X40462018Y-53823248D01*
X40523577Y-53819093D01*
X40717902Y-53846239D01*
G37*
%TD.AperFunction*%
%TA.AperFunction,Profile*%
G36*
X40722728Y-50174191D02*
G01*
X40893179Y-50244914D01*
X41005928Y-50327853D01*
X41137436Y-50481702D01*
X41216195Y-50651028D01*
X41245021Y-50827076D01*
X41226731Y-51001092D01*
X41164143Y-51164320D01*
X41060072Y-51308008D01*
X40917338Y-51423398D01*
X40738755Y-51501738D01*
X40620167Y-51526707D01*
X40513322Y-51528374D01*
X40392970Y-51512714D01*
X40357091Y-51504215D01*
X40174533Y-51424558D01*
X40025772Y-51299845D01*
X39917922Y-51139456D01*
X39858101Y-50952771D01*
X39848217Y-50833533D01*
X39875551Y-50643372D01*
X39950525Y-50478601D01*
X40064075Y-50343181D01*
X40207136Y-50241070D01*
X40370641Y-50176228D01*
X40545527Y-50152615D01*
X40722728Y-50174191D01*
G37*
%TD.AperFunction*%
%TA.AperFunction,Profile*%
G36*
X40732787Y-31749322D02*
G01*
X40915276Y-31823793D01*
X41069604Y-31945545D01*
X41187338Y-32111056D01*
X41192928Y-32122049D01*
X41259134Y-32316356D01*
X41266166Y-32508903D01*
X41215298Y-32693381D01*
X41107807Y-32863482D01*
X41025991Y-32947746D01*
X40851805Y-33069308D01*
X40664941Y-33131660D01*
X40464189Y-33135118D01*
X40372842Y-33118469D01*
X40195537Y-33046871D01*
X40046138Y-32929474D01*
X39931236Y-32777228D01*
X39857417Y-32601080D01*
X39831272Y-32411981D01*
X39850962Y-32251179D01*
X39906197Y-32121945D01*
X39999774Y-31990704D01*
X40116234Y-31873869D01*
X40240116Y-31787854D01*
X40317064Y-31756310D01*
X40530572Y-31725654D01*
X40732787Y-31749322D01*
G37*
%TD.AperFunction*%
%TA.AperFunction,Profile*%
G36*
X40734042Y-28194902D02*
G01*
X40898338Y-28275164D01*
X41032559Y-28400239D01*
X41128113Y-28562919D01*
X41165199Y-28684358D01*
X41165391Y-28820059D01*
X41119822Y-28966097D01*
X41037767Y-29107396D01*
X40928503Y-29228878D01*
X40801303Y-29315467D01*
X40768160Y-29329754D01*
X40660405Y-29352357D01*
X40526667Y-29355926D01*
X40394570Y-29341690D01*
X40291734Y-29310877D01*
X40286754Y-29308347D01*
X40128949Y-29195393D01*
X40017825Y-29053455D01*
X39955147Y-28892363D01*
X39942685Y-28721946D01*
X39982205Y-28552031D01*
X40075476Y-28392449D01*
X40114078Y-28348189D01*
X40244687Y-28240104D01*
X40390666Y-28182108D01*
X40548263Y-28166664D01*
X40734042Y-28194902D01*
G37*
%TD.AperFunction*%
%TA.AperFunction,Profile*%
G36*
X41876415Y-59478002D02*
G01*
X41893198Y-59485767D01*
X42029158Y-59562346D01*
X42124607Y-59648752D01*
X42199059Y-59763293D01*
X42208325Y-59781430D01*
X42262434Y-59949006D01*
X42262839Y-60113427D01*
X42216277Y-60266901D01*
X42129488Y-60401638D01*
X42009211Y-60509849D01*
X41862184Y-60583743D01*
X41695145Y-60615530D01*
X41514833Y-60597420D01*
X41504713Y-60594835D01*
X41338852Y-60524127D01*
X41211393Y-60416251D01*
X41123283Y-60281344D01*
X41075466Y-60129542D01*
X41068889Y-59970982D01*
X41104498Y-59815801D01*
X41183237Y-59674134D01*
X41306052Y-59556119D01*
X41402607Y-59500265D01*
X41572028Y-59441299D01*
X41725095Y-59434022D01*
X41876415Y-59478002D01*
G37*
%TD.AperFunction*%
%TA.AperFunction,Profile*%
G36*
X41942578Y-40838022D02*
G01*
X42123432Y-40932207D01*
X42242859Y-41032142D01*
X42377888Y-41206127D01*
X42458303Y-41397521D01*
X42484103Y-41597483D01*
X42455285Y-41797173D01*
X42371845Y-41987752D01*
X42243209Y-42151086D01*
X42070739Y-42282496D01*
X41872423Y-42363499D01*
X41659554Y-42391598D01*
X41443424Y-42364296D01*
X41374448Y-42343108D01*
X41194689Y-42248697D01*
X41043867Y-42109237D01*
X40930458Y-41936740D01*
X40862937Y-41743220D01*
X40847494Y-41596229D01*
X40874113Y-41385236D01*
X40948537Y-41200858D01*
X41062617Y-41046390D01*
X41208201Y-40925127D01*
X41377139Y-40840365D01*
X41561281Y-40795396D01*
X41752478Y-40793517D01*
X41942578Y-40838022D01*
G37*
%TD.AperFunction*%
%TA.AperFunction,Profile*%
G36*
X42892359Y-46377486D02*
G01*
X43087234Y-46435686D01*
X43269562Y-46546410D01*
X43346673Y-46615334D01*
X43482493Y-46789781D01*
X43562818Y-46979928D01*
X43587628Y-47177598D01*
X43556902Y-47374614D01*
X43470618Y-47562800D01*
X43349511Y-47713810D01*
X43170747Y-47854459D01*
X42973788Y-47939735D01*
X42765185Y-47968054D01*
X42551491Y-47937830D01*
X42495928Y-47920196D01*
X42313037Y-47825456D01*
X42164742Y-47689152D01*
X42055291Y-47521672D01*
X41988932Y-47333406D01*
X41969913Y-47134742D01*
X42002484Y-46936069D01*
X42047425Y-46823446D01*
X42168898Y-46640838D01*
X42323204Y-46503485D01*
X42501267Y-46412839D01*
X42694011Y-46370355D01*
X42892359Y-46377486D01*
G37*
%TD.AperFunction*%
%TA.AperFunction,Profile*%
G36*
X45164146Y-53836717D02*
G01*
X45335712Y-53903122D01*
X45480043Y-54010069D01*
X45613649Y-54173216D01*
X45689295Y-54352033D01*
X45708988Y-54516229D01*
X45680118Y-54703986D01*
X45599261Y-54879489D01*
X45475051Y-55030064D01*
X45316120Y-55143036D01*
X45266188Y-55166364D01*
X45115616Y-55204040D01*
X44943762Y-55208843D01*
X44779935Y-55181296D01*
X44712052Y-55156417D01*
X44541677Y-55047481D01*
X44410058Y-54899731D01*
X44324214Y-54723842D01*
X44291166Y-54530489D01*
X44291011Y-54516229D01*
X44317804Y-54323288D01*
X44392200Y-54155937D01*
X44505226Y-54017994D01*
X44647907Y-53913281D01*
X44811270Y-53845617D01*
X44986341Y-53818822D01*
X45164146Y-53836717D01*
G37*
%TD.AperFunction*%
%TA.AperFunction,Profile*%
G36*
X45171830Y-35417883D02*
G01*
X45344253Y-35486261D01*
X45453026Y-35562799D01*
X45590563Y-35715708D01*
X45675511Y-35886975D01*
X45709195Y-36067243D01*
X45692943Y-36247157D01*
X45628079Y-36417363D01*
X45515930Y-36568503D01*
X45357821Y-36691222D01*
X45287947Y-36727548D01*
X45146120Y-36768842D01*
X44980582Y-36781429D01*
X44819806Y-36764856D01*
X44727207Y-36736474D01*
X44561283Y-36634009D01*
X44428160Y-36490419D01*
X44336452Y-36318580D01*
X44294773Y-36131370D01*
X44293169Y-36087590D01*
X44320066Y-35897589D01*
X44394946Y-35732195D01*
X44508744Y-35595510D01*
X44652396Y-35491635D01*
X44816837Y-35424671D01*
X44993003Y-35398720D01*
X45171830Y-35417883D01*
G37*
%TD.AperFunction*%
%TA.AperFunction,Profile*%
G36*
X45176105Y-65083308D02*
G01*
X45211927Y-65100139D01*
X45309960Y-65165196D01*
X45395594Y-65245907D01*
X45419177Y-65276373D01*
X45459961Y-65348479D01*
X45478986Y-65422043D01*
X45481189Y-65521568D01*
X45478639Y-65571372D01*
X45466809Y-65687032D01*
X45443221Y-65765726D01*
X45399482Y-65831018D01*
X45377475Y-65855475D01*
X45237314Y-65966404D01*
X45080759Y-66024039D01*
X44917736Y-66026025D01*
X44802420Y-65991890D01*
X44664149Y-65902340D01*
X44568539Y-65780279D01*
X44516915Y-65637534D01*
X44510602Y-65485936D01*
X44550924Y-65337314D01*
X44639207Y-65203497D01*
X44707197Y-65141624D01*
X44854809Y-65064503D01*
X45014356Y-65044798D01*
X45176105Y-65083308D01*
G37*
%TD.AperFunction*%
%TA.AperFunction,Profile*%
G36*
X46213676Y-55650284D02*
G01*
X46387240Y-55700164D01*
X46542936Y-55792233D01*
X46671827Y-55920568D01*
X46764976Y-56079246D01*
X46813447Y-56262346D01*
X46818331Y-56343430D01*
X46791130Y-56539528D01*
X46714618Y-56713805D01*
X46597430Y-56859739D01*
X46448200Y-56970809D01*
X46275562Y-57040493D01*
X46088150Y-57062268D01*
X45905440Y-57032989D01*
X45793196Y-56981877D01*
X45672238Y-56901013D01*
X45569813Y-56809446D01*
X45545950Y-56781693D01*
X45445828Y-56610177D01*
X45400496Y-56428074D01*
X45407409Y-56244476D01*
X45464019Y-56068476D01*
X45567780Y-55909167D01*
X45716146Y-55775639D01*
X45848687Y-55700782D01*
X46031179Y-55648516D01*
X46213676Y-55650284D01*
G37*
%TD.AperFunction*%
%TA.AperFunction,Profile*%
G36*
X48455343Y-19124609D02*
G01*
X48540228Y-19156602D01*
X48614680Y-19206939D01*
X48695999Y-19277759D01*
X48713007Y-19294989D01*
X48762653Y-19353282D01*
X48790042Y-19409947D01*
X48801645Y-19486201D01*
X48803938Y-19593220D01*
X48787418Y-19765776D01*
X48734644Y-19895391D01*
X48640794Y-19990956D01*
X48564472Y-20034843D01*
X48423127Y-20088273D01*
X48303526Y-20098637D01*
X48185953Y-20067097D01*
X48166168Y-20058312D01*
X48018063Y-19958936D01*
X47903088Y-19820366D01*
X47849419Y-19705663D01*
X47833283Y-19569721D01*
X47867818Y-19438359D01*
X47943159Y-19319416D01*
X48049446Y-19220730D01*
X48176813Y-19150141D01*
X48315400Y-19115487D01*
X48455343Y-19124609D01*
G37*
%TD.AperFunction*%
%TA.AperFunction,Profile*%
G36*
X48517828Y-26370624D02*
G01*
X48675910Y-26444306D01*
X48802077Y-26558470D01*
X48889798Y-26704552D01*
X48932540Y-26873987D01*
X48923771Y-27058207D01*
X48912977Y-27104786D01*
X48852585Y-27230101D01*
X48749420Y-27348064D01*
X48619525Y-27446680D01*
X48478943Y-27513954D01*
X48343716Y-27537889D01*
X48334129Y-27537597D01*
X48276664Y-27527535D01*
X48192705Y-27505443D01*
X48174347Y-27499879D01*
X48013785Y-27423564D01*
X47883770Y-27310188D01*
X47789855Y-27170751D01*
X47737593Y-27016248D01*
X47732538Y-26857680D01*
X47776849Y-26712636D01*
X47891102Y-26541840D01*
X48034649Y-26423937D01*
X48206939Y-26359289D01*
X48334362Y-26345992D01*
X48517828Y-26370624D01*
G37*
%TD.AperFunction*%
%TA.AperFunction,Profile*%
G36*
X48545294Y-55788042D02*
G01*
X48701582Y-55877811D01*
X48783074Y-55953284D01*
X48887811Y-56107184D01*
X48938431Y-56274992D01*
X48936387Y-56446388D01*
X48883130Y-56611052D01*
X48780112Y-56758664D01*
X48655135Y-56862613D01*
X48512280Y-56924069D01*
X48347233Y-56946931D01*
X48181682Y-56931179D01*
X48037316Y-56876793D01*
X48015707Y-56863206D01*
X47893103Y-56767199D01*
X47811711Y-56666342D01*
X47754674Y-56538388D01*
X47743656Y-56504181D01*
X47716029Y-56381158D01*
X47720010Y-56279515D01*
X47727716Y-56246543D01*
X47803940Y-56064131D01*
X47916376Y-55920728D01*
X48055876Y-55818876D01*
X48213294Y-55761116D01*
X48379482Y-55749991D01*
X48545294Y-55788042D01*
G37*
%TD.AperFunction*%
%TA.AperFunction,Profile*%
G36*
X48550981Y-52001249D02*
G01*
X48723769Y-52090307D01*
X48871198Y-52225325D01*
X48982334Y-52393045D01*
X49039488Y-52574362D01*
X49044604Y-52759482D01*
X48999626Y-52938610D01*
X48906496Y-53101952D01*
X48767160Y-53239714D01*
X48656096Y-53309184D01*
X48536080Y-53352795D01*
X48393392Y-53378847D01*
X48254410Y-53384252D01*
X48152071Y-53368195D01*
X47955247Y-53277755D01*
X47801809Y-53147046D01*
X47685310Y-52970231D01*
X47665298Y-52927519D01*
X47617282Y-52747854D01*
X47625809Y-52563880D01*
X47688323Y-52384793D01*
X47802272Y-52219790D01*
X47884026Y-52140010D01*
X48033934Y-52038203D01*
X48197394Y-51984256D01*
X48364439Y-51971002D01*
X48550981Y-52001249D01*
G37*
%TD.AperFunction*%
%TA.AperFunction,Profile*%
G36*
X48589905Y-29953751D02*
G01*
X48756057Y-30045617D01*
X48896864Y-30184356D01*
X48973300Y-30304700D01*
X49013919Y-30428616D01*
X49030825Y-30580058D01*
X49023614Y-30733203D01*
X48991884Y-30862229D01*
X48982339Y-30883307D01*
X48871588Y-31043225D01*
X48724741Y-31167843D01*
X48553823Y-31252022D01*
X48370854Y-31290624D01*
X48187858Y-31278510D01*
X48110666Y-31255877D01*
X47933595Y-31162001D01*
X47795991Y-31032676D01*
X47699893Y-30877554D01*
X47647340Y-30706288D01*
X47640372Y-30528532D01*
X47681026Y-30353938D01*
X47771344Y-30192160D01*
X47864820Y-30092049D01*
X48035865Y-29977909D01*
X48220160Y-29918046D01*
X48408056Y-29910611D01*
X48589905Y-29953751D01*
G37*
%TD.AperFunction*%
%TA.AperFunction,Profile*%
G36*
X48599247Y-33623035D02*
G01*
X48765169Y-33712579D01*
X48902692Y-33847593D01*
X48926350Y-33880749D01*
X48990941Y-34019919D01*
X49025984Y-34186418D01*
X49028887Y-34355832D01*
X48997056Y-34503748D01*
X48993454Y-34512680D01*
X48889410Y-34688196D01*
X48746627Y-34822794D01*
X48574780Y-34911760D01*
X48383543Y-34950385D01*
X48182593Y-34933955D01*
X48146828Y-34924980D01*
X47961794Y-34845317D01*
X47815136Y-34718964D01*
X47715902Y-34566973D01*
X47649281Y-34372299D01*
X47640912Y-34179735D01*
X47689278Y-33997007D01*
X47792862Y-33831845D01*
X47876626Y-33748014D01*
X48043618Y-33641450D01*
X48227220Y-33586047D01*
X48416180Y-33580383D01*
X48599247Y-33623035D01*
G37*
%TD.AperFunction*%
%TA.AperFunction,Profile*%
G36*
X48635595Y-48257773D02*
G01*
X48820142Y-48363214D01*
X48861757Y-48397423D01*
X49013082Y-48566589D01*
X49110732Y-48755422D01*
X49154036Y-48955811D01*
X49142322Y-49159647D01*
X49074920Y-49358819D01*
X48956227Y-49539259D01*
X48812580Y-49665157D01*
X48634022Y-49753494D01*
X48436112Y-49800291D01*
X48234410Y-49801564D01*
X48074399Y-49764889D01*
X47877622Y-49666799D01*
X47723474Y-49534150D01*
X47612294Y-49375440D01*
X47544419Y-49199169D01*
X47520191Y-49013838D01*
X47539946Y-48827946D01*
X47604025Y-48649994D01*
X47712765Y-48488481D01*
X47866507Y-48351907D01*
X48014776Y-48269525D01*
X48222102Y-48209296D01*
X48432645Y-48205922D01*
X48635595Y-48257773D01*
G37*
%TD.AperFunction*%
%TA.AperFunction,Profile*%
G36*
X49720057Y-35456061D02*
G01*
X49838852Y-35514392D01*
X49976389Y-35632684D01*
X50076935Y-35786947D01*
X50136271Y-35962951D01*
X50150179Y-36146472D01*
X50114440Y-36323281D01*
X50093403Y-36372894D01*
X49979642Y-36542850D01*
X49828714Y-36670548D01*
X49650744Y-36751657D01*
X49455854Y-36781849D01*
X49254169Y-36756791D01*
X49219645Y-36746633D01*
X49097373Y-36684271D01*
X48973913Y-36583424D01*
X48868552Y-36462667D01*
X48802040Y-36344476D01*
X48764654Y-36176368D01*
X48768338Y-35994857D01*
X48810839Y-35823275D01*
X48862126Y-35722106D01*
X48991768Y-35577937D01*
X49154534Y-35476664D01*
X49338271Y-35420871D01*
X49530830Y-35413142D01*
X49720057Y-35456061D01*
G37*
%TD.AperFunction*%
%TA.AperFunction,Profile*%
G36*
X50709157Y-48312292D02*
G01*
X50884405Y-48371643D01*
X51040523Y-48475451D01*
X51167287Y-48622309D01*
X51216639Y-48711814D01*
X51256765Y-48845012D01*
X51272360Y-49002127D01*
X51262991Y-49157250D01*
X51228222Y-49284474D01*
X51226320Y-49288567D01*
X51115760Y-49455454D01*
X50965976Y-49585318D01*
X50788738Y-49672138D01*
X50595816Y-49709888D01*
X50425537Y-49698359D01*
X50236814Y-49633545D01*
X50081841Y-49526135D01*
X49963951Y-49385618D01*
X49886477Y-49221484D01*
X49852752Y-49043223D01*
X49866111Y-48860325D01*
X49929886Y-48682279D01*
X50021296Y-48547543D01*
X50170847Y-48415022D01*
X50342155Y-48332576D01*
X50524999Y-48298801D01*
X50709157Y-48312292D01*
G37*
%TD.AperFunction*%
%TA.AperFunction,Profile*%
G36*
X50765524Y-33608881D02*
G01*
X50932644Y-33672203D01*
X51073503Y-33783115D01*
X51115454Y-33830301D01*
X51220090Y-34000987D01*
X51268758Y-34184586D01*
X51261752Y-34371434D01*
X51199363Y-34551870D01*
X51088858Y-34708764D01*
X50925830Y-34847911D01*
X50747726Y-34928634D01*
X50555814Y-34950545D01*
X50386542Y-34923678D01*
X50200660Y-34843693D01*
X50051511Y-34719745D01*
X49945288Y-34559906D01*
X49888185Y-34372252D01*
X49879952Y-34263233D01*
X49896054Y-34081602D01*
X49948855Y-33935005D01*
X50045102Y-33805775D01*
X50060700Y-33789786D01*
X50181822Y-33684850D01*
X50301614Y-33622373D01*
X50442012Y-33593555D01*
X50561933Y-33588693D01*
X50765524Y-33608881D01*
G37*
%TD.AperFunction*%
%TA.AperFunction,Profile*%
G36*
X51837272Y-50153866D02*
G01*
X52012514Y-50220918D01*
X52175310Y-50339424D01*
X52204729Y-50368645D01*
X52322805Y-50531926D01*
X52386716Y-50712164D01*
X52396628Y-50899431D01*
X52352707Y-51083798D01*
X52255121Y-51255336D01*
X52188591Y-51330875D01*
X52020734Y-51457879D01*
X51831410Y-51530185D01*
X51628737Y-51546007D01*
X51420833Y-51503558D01*
X51414402Y-51501295D01*
X51250694Y-51412253D01*
X51117929Y-51278667D01*
X51023886Y-51112012D01*
X50976341Y-50923763D01*
X50972083Y-50848688D01*
X50997785Y-50647734D01*
X51070206Y-50475192D01*
X51180894Y-50334353D01*
X51321396Y-50228510D01*
X51483262Y-50160953D01*
X51658037Y-50134974D01*
X51837272Y-50153866D01*
G37*
%TD.AperFunction*%
%TA.AperFunction,Profile*%
G36*
X51868563Y-35439520D02*
G01*
X52046486Y-35513717D01*
X52193021Y-35628727D01*
X52301632Y-35777022D01*
X52365782Y-35951074D01*
X52378931Y-36143355D01*
X52368591Y-36222915D01*
X52306135Y-36403096D01*
X52197388Y-36555289D01*
X52052601Y-36673365D01*
X51882025Y-36751197D01*
X51695912Y-36782657D01*
X51504512Y-36761616D01*
X51479244Y-36754545D01*
X51304254Y-36673585D01*
X51164557Y-36552908D01*
X51063318Y-36402764D01*
X51003703Y-36233401D01*
X50988877Y-36055069D01*
X51022007Y-35878017D01*
X51106258Y-35712494D01*
X51142875Y-35665565D01*
X51294908Y-35525724D01*
X51465085Y-35442608D01*
X51658581Y-35413723D01*
X51665791Y-35413664D01*
X51868563Y-35439520D01*
G37*
%TD.AperFunction*%
%TA.AperFunction,Profile*%
G36*
X51887760Y-53828266D02*
G01*
X52066343Y-53924310D01*
X52168020Y-54010391D01*
X52288342Y-54147917D01*
X52360038Y-54286204D01*
X52391852Y-54445600D01*
X52395535Y-54539936D01*
X52367624Y-54723866D01*
X52289667Y-54889301D01*
X52171071Y-55029574D01*
X52021246Y-55138019D01*
X51849601Y-55207968D01*
X51665543Y-55232756D01*
X51478482Y-55205715D01*
X51462808Y-55200833D01*
X51279994Y-55113492D01*
X51137119Y-54989455D01*
X51035241Y-54838080D01*
X50975418Y-54668723D01*
X50958707Y-54490742D01*
X50986167Y-54313494D01*
X51058854Y-54146336D01*
X51177827Y-53998625D01*
X51315306Y-53895835D01*
X51508246Y-53813492D01*
X51700396Y-53791148D01*
X51887760Y-53828266D01*
G37*
%TD.AperFunction*%
%TA.AperFunction,Profile*%
G36*
X51892367Y-31779104D02*
G01*
X52064360Y-31855217D01*
X52213058Y-31985432D01*
X52221321Y-31994952D01*
X52325988Y-32159592D01*
X52377016Y-32337861D01*
X52376517Y-32519585D01*
X52326606Y-32694590D01*
X52229395Y-32852702D01*
X52086997Y-32983746D01*
X52005787Y-33032717D01*
X51813400Y-33103485D01*
X51621298Y-33114254D01*
X51425022Y-33065098D01*
X51374539Y-33043344D01*
X51213826Y-32938116D01*
X51094986Y-32798121D01*
X51019643Y-32633922D01*
X50989420Y-32456082D01*
X51005942Y-32275163D01*
X51070832Y-32101729D01*
X51185714Y-31946343D01*
X51203250Y-31929114D01*
X51360289Y-31821065D01*
X51550226Y-31763851D01*
X51690017Y-31753888D01*
X51892367Y-31779104D01*
G37*
%TD.AperFunction*%
%TA.AperFunction,Profile*%
G36*
X52877734Y-66867910D02*
G01*
X53011007Y-66915264D01*
X53137308Y-67008229D01*
X53241267Y-67132379D01*
X53306707Y-67270555D01*
X53327777Y-67358665D01*
X53325335Y-67430039D01*
X53297113Y-67516364D01*
X53287417Y-67540034D01*
X53193360Y-67698136D01*
X53064233Y-67807178D01*
X52901947Y-67865768D01*
X52827160Y-67874831D01*
X52706336Y-67875450D01*
X52614219Y-67855330D01*
X52532718Y-67815493D01*
X52439123Y-67742076D01*
X52358140Y-67647797D01*
X52343777Y-67624800D01*
X52287079Y-67470449D01*
X52283529Y-67315561D01*
X52326478Y-67169562D01*
X52409279Y-67041874D01*
X52525284Y-66941923D01*
X52667843Y-66879132D01*
X52830309Y-66862926D01*
X52877734Y-66867910D01*
G37*
%TD.AperFunction*%
%TA.AperFunction,Profile*%
G36*
X36224110Y-31731943D02*
G01*
X36387751Y-31776379D01*
X36532979Y-31867481D01*
X36600892Y-31929637D01*
X36724732Y-32091404D01*
X36795450Y-32266597D01*
X36816364Y-32446516D01*
X36790792Y-32622465D01*
X36722050Y-32785743D01*
X36613457Y-32927654D01*
X36468329Y-33039498D01*
X36289985Y-33112577D01*
X36140619Y-33136455D01*
X35968377Y-33133484D01*
X35831145Y-33103755D01*
X35744822Y-33057170D01*
X35644452Y-32981980D01*
X35569429Y-32912130D01*
X35448729Y-32745593D01*
X35382790Y-32561427D01*
X35372069Y-32368945D01*
X35417026Y-32177461D01*
X35518116Y-31996289D01*
X35524051Y-31988451D01*
X35665642Y-31850930D01*
X35840702Y-31763910D01*
X36026900Y-31728872D01*
X36224110Y-31731943D01*
G37*
%TD.AperFunction*%
%TA.AperFunction,Profile*%
G36*
X36247712Y-28168833D02*
G01*
X36405859Y-28235561D01*
X36541984Y-28344715D01*
X36645569Y-28492600D01*
X36685163Y-28590064D01*
X36714507Y-28698282D01*
X36721004Y-28781855D01*
X36706091Y-28871685D01*
X36699443Y-28897769D01*
X36633818Y-29055969D01*
X36531674Y-29197522D01*
X36408659Y-29300934D01*
X36403827Y-29303798D01*
X36272727Y-29353597D01*
X36116219Y-29374587D01*
X35963470Y-29364345D01*
X35895548Y-29345999D01*
X35730015Y-29256338D01*
X35605878Y-29131423D01*
X35524555Y-28981567D01*
X35487463Y-28817084D01*
X35496020Y-28648290D01*
X35551643Y-28485498D01*
X35655749Y-28339022D01*
X35746317Y-28260162D01*
X35907424Y-28177437D01*
X36078061Y-28148226D01*
X36247712Y-28168833D01*
G37*
%TD.AperFunction*%
%TA.AperFunction,Profile*%
G36*
X36281411Y-53845181D02*
G01*
X36442962Y-53916863D01*
X36459394Y-53927971D01*
X36616840Y-54065853D01*
X36719337Y-54222570D01*
X36771541Y-54405903D01*
X36777510Y-54459632D01*
X36778828Y-54627409D01*
X36751105Y-54752606D01*
X36748593Y-54758774D01*
X36646196Y-54932274D01*
X36506006Y-55067429D01*
X36338364Y-55159459D01*
X36153609Y-55203582D01*
X35962084Y-55195016D01*
X35863208Y-55168139D01*
X35681437Y-55073774D01*
X35540180Y-54939335D01*
X35443913Y-54773495D01*
X35397111Y-54584923D01*
X35404251Y-54382292D01*
X35420250Y-54309917D01*
X35493329Y-54147096D01*
X35609939Y-54012777D01*
X35758568Y-53911194D01*
X35927699Y-53846579D01*
X36105818Y-53823164D01*
X36281411Y-53845181D01*
G37*
%TD.AperFunction*%
%TA.AperFunction,Profile*%
G36*
X37248108Y-63128642D02*
G01*
X37269024Y-63130078D01*
X37450416Y-63169363D01*
X37596962Y-63257666D01*
X37706595Y-63393655D01*
X37721516Y-63421625D01*
X37780605Y-63560611D01*
X37802125Y-63679353D01*
X37788936Y-63802777D01*
X37772551Y-63866104D01*
X37696636Y-64029875D01*
X37579991Y-64160219D01*
X37433691Y-64250835D01*
X37268811Y-64295423D01*
X37096428Y-64287682D01*
X37051559Y-64276264D01*
X36879630Y-64197392D01*
X36747538Y-64082379D01*
X36657733Y-63941066D01*
X36612660Y-63783294D01*
X36614767Y-63618904D01*
X36666502Y-63457738D01*
X36770310Y-63309637D01*
X36803135Y-63277231D01*
X36904132Y-63194057D01*
X36997818Y-63146034D01*
X37105405Y-63126463D01*
X37248108Y-63128642D01*
G37*
%TD.AperFunction*%
%TA.AperFunction,Profile*%
G36*
X37342130Y-19109897D02*
G01*
X37479052Y-19181528D01*
X37599474Y-19287232D01*
X37635012Y-19331386D01*
X37706806Y-19473739D01*
X37725755Y-19618162D01*
X37698870Y-19757133D01*
X37633163Y-19883132D01*
X37535645Y-19988637D01*
X37413328Y-20066126D01*
X37273223Y-20108078D01*
X37122342Y-20106972D01*
X36967696Y-20055286D01*
X36962642Y-20052649D01*
X36831495Y-19953918D01*
X36737136Y-19812914D01*
X36694083Y-19698888D01*
X36674922Y-19622011D01*
X36675107Y-19560214D01*
X36698135Y-19489222D01*
X36735953Y-19408275D01*
X36800386Y-19297000D01*
X36875097Y-19220463D01*
X36964131Y-19164220D01*
X37066325Y-19118032D01*
X37164250Y-19088834D01*
X37207994Y-19083533D01*
X37342130Y-19109897D01*
G37*
%TD.AperFunction*%
%TA.AperFunction,Profile*%
G36*
X38353268Y-50160192D02*
G01*
X38562648Y-50202722D01*
X38737764Y-50293224D01*
X38874311Y-50428061D01*
X38967981Y-50603598D01*
X38996995Y-50703692D01*
X39011213Y-50894317D01*
X38972685Y-51072254D01*
X38889027Y-51230406D01*
X38767856Y-51361678D01*
X38616788Y-51458974D01*
X38443439Y-51515199D01*
X38255425Y-51523256D01*
X38139801Y-51502302D01*
X37952101Y-51423037D01*
X37801314Y-51300668D01*
X37692896Y-51143826D01*
X37632302Y-50961142D01*
X37624990Y-50761249D01*
X37633578Y-50701497D01*
X37695691Y-50526755D01*
X37809742Y-50373125D01*
X37968123Y-50250359D01*
X37998847Y-50233292D01*
X38104228Y-50182900D01*
X38190939Y-50159387D01*
X38290454Y-50156261D01*
X38353268Y-50160192D01*
G37*
%TD.AperFunction*%
%TA.AperFunction,Profile*%
G36*
X38425162Y-46379534D02*
G01*
X38615720Y-46428782D01*
X38792235Y-46525872D01*
X38945276Y-46671589D01*
X38973543Y-46708431D01*
X39072293Y-46892320D01*
X39117126Y-47088330D01*
X39110542Y-47286393D01*
X39055036Y-47476441D01*
X38953109Y-47648407D01*
X38807256Y-47792223D01*
X38685836Y-47868006D01*
X38546327Y-47920885D01*
X38389321Y-47952889D01*
X38238384Y-47960909D01*
X38119570Y-47942673D01*
X37910891Y-47847256D01*
X37741852Y-47715649D01*
X37616011Y-47555395D01*
X37536923Y-47374035D01*
X37508145Y-47179113D01*
X37533234Y-46978169D01*
X37591816Y-46823446D01*
X37711122Y-46645260D01*
X37863540Y-46510991D01*
X38039641Y-46421423D01*
X38229991Y-46377343D01*
X38425162Y-46379534D01*
G37*
%TD.AperFunction*%
%TA.AperFunction,Profile*%
G36*
X38433299Y-42618416D02*
G01*
X38621010Y-42670550D01*
X38794513Y-42765445D01*
X38867057Y-42824208D01*
X39017533Y-42997789D01*
X39109502Y-43186845D01*
X39142756Y-43390663D01*
X39117089Y-43608529D01*
X39106005Y-43649838D01*
X39025518Y-43828273D01*
X38901066Y-43982440D01*
X38743812Y-44105968D01*
X38564922Y-44192487D01*
X38375560Y-44235626D01*
X38186890Y-44229014D01*
X38119570Y-44212706D01*
X37903519Y-44119554D01*
X37730507Y-43987433D01*
X37604030Y-43820836D01*
X37527586Y-43624253D01*
X37504450Y-43422673D01*
X37532137Y-43204433D01*
X37611990Y-43012099D01*
X37739200Y-42850874D01*
X37908959Y-42725961D01*
X38116455Y-42642565D01*
X38250467Y-42615505D01*
X38433299Y-42618416D01*
G37*
%TD.AperFunction*%
%TA.AperFunction,Profile*%
G36*
X38467331Y-53836786D02*
G01*
X38630026Y-53895919D01*
X38773207Y-53993422D01*
X38889223Y-54123988D01*
X38970424Y-54282311D01*
X39009159Y-54463083D01*
X38997778Y-54660998D01*
X38994906Y-54675358D01*
X38966797Y-54774951D01*
X38921877Y-54857699D01*
X38846771Y-54945620D01*
X38805787Y-54986675D01*
X38634469Y-55121072D01*
X38457298Y-55195172D01*
X38274075Y-55209035D01*
X38144618Y-55183690D01*
X37950601Y-55097461D01*
X37796835Y-54971991D01*
X37687974Y-54814574D01*
X37628672Y-54632502D01*
X37623583Y-54433067D01*
X37631606Y-54379846D01*
X37692128Y-54204166D01*
X37805263Y-54052234D01*
X37938667Y-53942680D01*
X38114001Y-53854860D01*
X38292773Y-53821331D01*
X38467331Y-53836786D01*
G37*
%TD.AperFunction*%
%TA.AperFunction,Profile*%
G36*
X38520266Y-28189801D02*
G01*
X38675911Y-28274094D01*
X38715776Y-28306445D01*
X38840867Y-28452273D01*
X38912679Y-28616530D01*
X38931528Y-28789320D01*
X38897729Y-28960744D01*
X38811597Y-29120905D01*
X38685663Y-29250392D01*
X38614758Y-29300742D01*
X38545950Y-29329989D01*
X38457091Y-29344813D01*
X38352250Y-29350949D01*
X38216732Y-29351272D01*
X38119134Y-29337550D01*
X38037698Y-29306369D01*
X38024731Y-29299541D01*
X37876695Y-29187996D01*
X37768692Y-29041308D01*
X37723706Y-28927567D01*
X37701919Y-28746733D01*
X37731464Y-28580786D01*
X37804013Y-28434943D01*
X37911236Y-28314417D01*
X38044802Y-28224426D01*
X38196383Y-28170182D01*
X38357647Y-28156902D01*
X38520266Y-28189801D01*
G37*
%TD.AperFunction*%
%TA.AperFunction,Profile*%
G36*
X39502836Y-55766908D02*
G01*
X39675106Y-55813504D01*
X39817144Y-55904521D01*
X39924912Y-56029713D01*
X39994375Y-56178834D01*
X40021496Y-56341635D01*
X40002238Y-56507872D01*
X39932565Y-56667296D01*
X39883792Y-56733962D01*
X39759856Y-56838597D01*
X39603233Y-56908687D01*
X39433120Y-56939292D01*
X39268717Y-56925471D01*
X39210740Y-56907151D01*
X39122072Y-56853989D01*
X39023486Y-56768693D01*
X38935986Y-56671271D01*
X38889896Y-56601565D01*
X38859182Y-56499620D01*
X38848541Y-56366785D01*
X38858076Y-56229405D01*
X38887892Y-56113828D01*
X38887967Y-56113649D01*
X38975956Y-55976718D01*
X39106299Y-55867010D01*
X39263638Y-55793185D01*
X39432619Y-55763902D01*
X39502836Y-55766908D01*
G37*
%TD.AperFunction*%
%TA.AperFunction,Profile*%
G36*
X39537730Y-70678048D02*
G01*
X39602571Y-70705288D01*
X39672256Y-70765158D01*
X39700397Y-70794117D01*
X39770978Y-70876294D01*
X39805896Y-70945777D01*
X39816670Y-71027929D01*
X39816945Y-71050699D01*
X39805704Y-71156073D01*
X39763204Y-71241949D01*
X39724147Y-71290455D01*
X39658438Y-71357689D01*
X39592712Y-71400346D01*
X39502049Y-71432739D01*
X39453222Y-71446026D01*
X39399467Y-71441401D01*
X39317467Y-71415822D01*
X39281301Y-71400696D01*
X39149190Y-71314305D01*
X39067466Y-71201613D01*
X39039401Y-71070397D01*
X39068270Y-70928430D01*
X39075423Y-70911687D01*
X39163522Y-70784702D01*
X39288767Y-70702866D01*
X39442400Y-70671736D01*
X39453915Y-70671599D01*
X39537730Y-70678048D01*
G37*
%TD.AperFunction*%
%TA.AperFunction,Profile*%
G36*
X39540264Y-59445584D02*
G01*
X39567626Y-59452624D01*
X39748082Y-59528024D01*
X39884917Y-59645306D01*
X39976958Y-59803080D01*
X40022287Y-59993089D01*
X40011840Y-60156122D01*
X39949394Y-60311036D01*
X39843452Y-60445941D01*
X39702520Y-60548948D01*
X39592223Y-60594356D01*
X39479009Y-60625125D01*
X39397401Y-60634491D01*
X39321634Y-60620634D01*
X39225943Y-60581735D01*
X39192037Y-60566092D01*
X39030454Y-60461452D01*
X38918107Y-60322730D01*
X38856636Y-60153383D01*
X38847679Y-59956869D01*
X38860192Y-59865885D01*
X38913190Y-59733899D01*
X39013449Y-59612600D01*
X39147662Y-59515259D01*
X39260469Y-59466627D01*
X39368345Y-59437321D01*
X39451364Y-59430773D01*
X39540264Y-59445584D01*
G37*
%TD.AperFunction*%
%TA.AperFunction,Profile*%
G36*
X41732925Y-44527436D02*
G01*
X41909645Y-44573818D01*
X42082356Y-44657748D01*
X42234642Y-44771336D01*
X42345795Y-44900065D01*
X42433283Y-45084456D01*
X42468150Y-45281180D01*
X42453358Y-45479290D01*
X42391868Y-45667840D01*
X42286641Y-45835882D01*
X42140638Y-45972470D01*
X42039492Y-46032452D01*
X41853014Y-46095678D01*
X41651176Y-46117313D01*
X41454737Y-46096858D01*
X41315617Y-46049944D01*
X41147151Y-45940070D01*
X41012465Y-45793088D01*
X40915781Y-45620213D01*
X40861322Y-45432659D01*
X40853309Y-45241638D01*
X40895965Y-45058366D01*
X40921294Y-45002627D01*
X41042895Y-44827411D01*
X41205085Y-44681928D01*
X41393285Y-44576901D01*
X41568611Y-44526494D01*
X41732925Y-44527436D01*
G37*
%TD.AperFunction*%
%TA.AperFunction,Profile*%
G36*
X41783934Y-37238777D02*
G01*
X41986305Y-37305618D01*
X42153371Y-37420452D01*
X42280655Y-37579077D01*
X42363683Y-37777289D01*
X42365796Y-37785133D01*
X42381604Y-37957425D01*
X42344695Y-38131842D01*
X42261339Y-38296544D01*
X42137809Y-38439691D01*
X41980376Y-38549445D01*
X41954039Y-38562383D01*
X41779088Y-38619146D01*
X41598910Y-38624640D01*
X41418500Y-38585942D01*
X41272508Y-38512707D01*
X41140089Y-38394801D01*
X41035298Y-38248171D01*
X40972190Y-38088764D01*
X40969467Y-38076438D01*
X40955432Y-37875551D01*
X40994059Y-37689260D01*
X41078297Y-37524818D01*
X41201094Y-37389479D01*
X41355397Y-37290495D01*
X41534154Y-37235119D01*
X41730313Y-37230604D01*
X41783934Y-37238777D01*
G37*
%TD.AperFunction*%
%TA.AperFunction,Profile*%
G36*
X41793363Y-63119222D02*
G01*
X41959331Y-63187797D01*
X42049905Y-63254178D01*
X42175518Y-63399382D01*
X42247306Y-63560045D01*
X42266748Y-63726791D01*
X42235320Y-63890246D01*
X42154499Y-64041036D01*
X42025761Y-64169786D01*
X41893198Y-64248804D01*
X41716138Y-64299764D01*
X41537972Y-64290693D01*
X41390268Y-64235919D01*
X41289591Y-64165763D01*
X41194385Y-64072737D01*
X41165752Y-64036291D01*
X41115224Y-63956403D01*
X41087686Y-63882772D01*
X41076491Y-63790841D01*
X41074821Y-63700239D01*
X41078388Y-63580238D01*
X41093517Y-63496149D01*
X41126846Y-63423465D01*
X41165752Y-63364559D01*
X41295556Y-63227984D01*
X41450646Y-63140668D01*
X41620192Y-63103963D01*
X41793363Y-63119222D01*
G37*
%TD.AperFunction*%
%TA.AperFunction,Profile*%
G36*
X41817703Y-33574730D02*
G01*
X42008298Y-33642695D01*
X42162544Y-33751272D01*
X42277828Y-33891244D01*
X42351536Y-34053395D01*
X42381056Y-34228508D01*
X42363775Y-34407366D01*
X42297080Y-34580753D01*
X42178358Y-34739451D01*
X42154496Y-34762736D01*
X41981502Y-34886503D01*
X41790580Y-34954049D01*
X41588447Y-34963746D01*
X41443044Y-34934993D01*
X41282559Y-34856705D01*
X41134765Y-34724655D01*
X41057506Y-34625136D01*
X41001012Y-34535019D01*
X40970571Y-34458088D01*
X40958518Y-34367603D01*
X40956935Y-34274358D01*
X40984529Y-34066258D01*
X41061040Y-33885935D01*
X41179285Y-33739230D01*
X41332079Y-33631983D01*
X41512238Y-33570031D01*
X41712578Y-33559216D01*
X41817703Y-33574730D01*
G37*
%TD.AperFunction*%
%TA.AperFunction,Profile*%
G36*
X42918251Y-57613375D02*
G01*
X43094307Y-57688500D01*
X43123763Y-57707284D01*
X43215534Y-57793144D01*
X43299056Y-57912736D01*
X43361831Y-58043872D01*
X43391361Y-58164367D01*
X43392182Y-58183771D01*
X43364330Y-58339964D01*
X43288407Y-58491651D01*
X43176045Y-58623819D01*
X43038875Y-58721460D01*
X42947308Y-58757844D01*
X42799942Y-58785520D01*
X42667192Y-58775652D01*
X42563805Y-58745447D01*
X42433330Y-58675879D01*
X42315958Y-58572612D01*
X42230769Y-58454074D01*
X42208555Y-58402309D01*
X42183150Y-58247656D01*
X42196382Y-58079497D01*
X42244678Y-57924181D01*
X42282433Y-57857282D01*
X42412258Y-57718009D01*
X42567792Y-57629812D01*
X42739601Y-57594373D01*
X42918251Y-57613375D01*
G37*
%TD.AperFunction*%
%TA.AperFunction,Profile*%
G36*
X42984367Y-50177743D02*
G01*
X43149731Y-50251873D01*
X43287509Y-50370103D01*
X43392085Y-50520661D01*
X43457840Y-50691773D01*
X43479159Y-50871668D01*
X43450422Y-51048571D01*
X43427774Y-51106998D01*
X43317686Y-51281250D01*
X43169873Y-51412664D01*
X42993180Y-51497211D01*
X42796450Y-51530864D01*
X42588528Y-51509592D01*
X42560024Y-51502276D01*
X42405782Y-51431004D01*
X42267620Y-51314042D01*
X42159157Y-51166272D01*
X42094010Y-51002573D01*
X42091233Y-50989990D01*
X42077879Y-50785908D01*
X42120723Y-50592639D01*
X42215711Y-50420098D01*
X42358794Y-50278198D01*
X42391556Y-50255205D01*
X42527967Y-50193534D01*
X42695159Y-50160035D01*
X42868678Y-50157906D01*
X42984367Y-50177743D01*
G37*
%TD.AperFunction*%
%TA.AperFunction,Profile*%
G36*
X43046844Y-35448288D02*
G01*
X43053899Y-35451278D01*
X43226828Y-35554391D01*
X43355956Y-35689850D01*
X43441126Y-35848211D01*
X43482179Y-36020027D01*
X43478956Y-36195851D01*
X43431300Y-36366239D01*
X43339051Y-36521743D01*
X43202051Y-36652917D01*
X43075298Y-36727141D01*
X42948600Y-36765071D01*
X42794830Y-36781573D01*
X42640389Y-36775981D01*
X42511678Y-36747629D01*
X42497047Y-36741733D01*
X42333142Y-36639809D01*
X42201554Y-36497177D01*
X42110191Y-36326766D01*
X42066962Y-36141508D01*
X42066581Y-36037800D01*
X42110236Y-35847833D01*
X42201611Y-35683855D01*
X42331349Y-35551422D01*
X42490096Y-35456091D01*
X42668498Y-35403420D01*
X42857199Y-35398967D01*
X43046844Y-35448288D01*
G37*
%TD.AperFunction*%
%TA.AperFunction,Profile*%
G36*
X44009690Y-48219826D02*
G01*
X44185604Y-48261393D01*
X44343560Y-48348864D01*
X44424009Y-48414381D01*
X44561533Y-48574047D01*
X44649884Y-48754382D01*
X44690263Y-48945720D01*
X44683865Y-49138397D01*
X44631888Y-49322746D01*
X44535532Y-49489103D01*
X44395993Y-49627802D01*
X44263700Y-49707871D01*
X44064279Y-49777819D01*
X43865004Y-49802714D01*
X43726969Y-49789985D01*
X43534753Y-49722999D01*
X43367025Y-49611774D01*
X43230250Y-49466039D01*
X43130894Y-49295525D01*
X43075421Y-49109961D01*
X43070298Y-48919077D01*
X43087741Y-48827973D01*
X43171203Y-48625026D01*
X43299149Y-48455588D01*
X43463552Y-48326514D01*
X43656386Y-48244655D01*
X43800539Y-48219387D01*
X44009690Y-48219826D01*
G37*
%TD.AperFunction*%
%TA.AperFunction,Profile*%
G36*
X44099516Y-33596201D02*
G01*
X44273003Y-33670650D01*
X44417364Y-33797230D01*
X44535822Y-33977984D01*
X44536269Y-33978858D01*
X44595530Y-34155780D01*
X44600743Y-34334992D01*
X44557400Y-34507381D01*
X44470991Y-34663831D01*
X44347007Y-34795230D01*
X44190939Y-34892463D01*
X44008277Y-34946416D01*
X43949539Y-34952772D01*
X43838183Y-34955063D01*
X43740692Y-34948440D01*
X43696462Y-34939594D01*
X43500938Y-34847490D01*
X43348348Y-34716215D01*
X43242756Y-34551182D01*
X43188229Y-34357803D01*
X43181384Y-34253819D01*
X43209350Y-34058998D01*
X43288379Y-33887552D01*
X43411173Y-33746469D01*
X43570430Y-33642738D01*
X43758851Y-33583351D01*
X43893675Y-33571838D01*
X44099516Y-33596201D01*
G37*
%TD.AperFunction*%
%TA.AperFunction,Profile*%
G36*
X46270316Y-29915835D02*
G01*
X46409687Y-29960824D01*
X46534869Y-30041495D01*
X46655005Y-30159319D01*
X46749716Y-30292801D01*
X46776942Y-30348195D01*
X46815067Y-30511646D01*
X46807528Y-30691429D01*
X46758514Y-30869384D01*
X46672213Y-31027353D01*
X46601866Y-31107248D01*
X46452871Y-31208302D01*
X46272165Y-31272418D01*
X46079548Y-31294618D01*
X45924463Y-31277564D01*
X45794991Y-31222625D01*
X45664541Y-31124515D01*
X45549980Y-30997996D01*
X45484016Y-30892116D01*
X45415518Y-30718256D01*
X45397775Y-30559730D01*
X45430282Y-30399506D01*
X45466843Y-30309938D01*
X45573055Y-30149501D01*
X45718670Y-30025370D01*
X45891526Y-29942046D01*
X46079462Y-29904033D01*
X46270316Y-29915835D01*
G37*
%TD.AperFunction*%
%TA.AperFunction,Profile*%
G36*
X49624034Y-53822773D02*
G01*
X49790845Y-53889739D01*
X49936541Y-53996848D01*
X50052773Y-54139293D01*
X50131189Y-54312272D01*
X50163441Y-54510978D01*
X50163812Y-54534179D01*
X50156276Y-54665076D01*
X50127706Y-54769242D01*
X50081976Y-54858987D01*
X49955079Y-55022196D01*
X49796417Y-55141040D01*
X49615842Y-55210825D01*
X49423207Y-55226857D01*
X49334367Y-55215115D01*
X49135173Y-55148711D01*
X48973826Y-55043122D01*
X48852011Y-54907004D01*
X48771415Y-54749014D01*
X48733722Y-54577809D01*
X48740618Y-54402047D01*
X48793788Y-54230382D01*
X48894918Y-54071474D01*
X49045694Y-53933977D01*
X49080422Y-53910779D01*
X49260472Y-53828488D01*
X49444460Y-53800754D01*
X49624034Y-53822773D01*
G37*
%TD.AperFunction*%
%TA.AperFunction,Profile*%
G36*
X49671886Y-31780429D02*
G01*
X49834480Y-31847377D01*
X49892035Y-31885220D01*
X49964150Y-31958092D01*
X50037917Y-32060283D01*
X50078248Y-32132002D01*
X50142546Y-32325106D01*
X50147983Y-32515035D01*
X50096258Y-32695907D01*
X49989070Y-32861843D01*
X49828117Y-33006962D01*
X49824756Y-33009335D01*
X49677962Y-33079902D01*
X49504441Y-33113429D01*
X49326803Y-33108101D01*
X49167661Y-33062104D01*
X49000568Y-32955153D01*
X48877992Y-32818697D01*
X48798909Y-32661761D01*
X48762298Y-32493369D01*
X48767136Y-32322546D01*
X48812402Y-32158317D01*
X48897074Y-32009707D01*
X49020129Y-31885740D01*
X49180545Y-31795441D01*
X49315472Y-31756919D01*
X49490579Y-31748429D01*
X49671886Y-31780429D01*
G37*
%TD.AperFunction*%
%TA.AperFunction,Profile*%
G36*
X50697404Y-55758728D02*
G01*
X50865375Y-55826915D01*
X51004248Y-55937533D01*
X51107831Y-56079540D01*
X51169933Y-56241894D01*
X51184359Y-56413553D01*
X51151124Y-56567776D01*
X51097116Y-56661967D01*
X51010917Y-56764576D01*
X50912779Y-56853617D01*
X50849481Y-56895237D01*
X50736484Y-56933682D01*
X50595647Y-56953734D01*
X50457823Y-56952152D01*
X50400370Y-56942406D01*
X50285671Y-56892652D01*
X50165771Y-56807109D01*
X50063544Y-56703715D01*
X50024024Y-56647257D01*
X49960673Y-56485827D01*
X49950324Y-56321281D01*
X49986491Y-56162174D01*
X50062691Y-56017062D01*
X50172439Y-55894502D01*
X50309250Y-55803050D01*
X50466640Y-55751263D01*
X50638124Y-55747697D01*
X50697404Y-55758728D01*
G37*
%TD.AperFunction*%
%TA.AperFunction,Profile*%
G36*
X50716036Y-40810063D02*
G01*
X50802234Y-40831788D01*
X51005063Y-40924387D01*
X51166967Y-41058683D01*
X51283531Y-41228738D01*
X51350339Y-41428614D01*
X51365155Y-41588902D01*
X51336958Y-41805955D01*
X51255777Y-41998778D01*
X51126727Y-42160344D01*
X50954920Y-42283621D01*
X50817611Y-42341563D01*
X50638586Y-42383144D01*
X50474884Y-42381147D01*
X50300267Y-42334812D01*
X50276560Y-42325940D01*
X50094067Y-42225705D01*
X49943584Y-42082917D01*
X49832997Y-41908810D01*
X49770194Y-41714620D01*
X49758711Y-41588218D01*
X49786775Y-41385459D01*
X49865282Y-41202930D01*
X49985706Y-41046812D01*
X50139521Y-40923285D01*
X50318198Y-40838531D01*
X50513212Y-40798730D01*
X50716036Y-40810063D01*
G37*
%TD.AperFunction*%
%TA.AperFunction,Profile*%
G36*
X50727075Y-29930102D02*
G01*
X50891498Y-29987626D01*
X51037303Y-30081766D01*
X51155485Y-30209154D01*
X51237039Y-30366422D01*
X51272961Y-30550202D01*
X51273886Y-30586277D01*
X51253049Y-30757396D01*
X51186224Y-30909536D01*
X51066944Y-31056773D01*
X51049868Y-31073737D01*
X50880598Y-31205136D01*
X50702873Y-31279015D01*
X50520509Y-31294230D01*
X50395030Y-31270248D01*
X50201737Y-31183350D01*
X50048465Y-31055854D01*
X49940318Y-30894458D01*
X49882398Y-30705859D01*
X49873834Y-30586277D01*
X49885157Y-30442199D01*
X49922420Y-30325168D01*
X49995151Y-30212418D01*
X50063303Y-30133519D01*
X50212148Y-30010902D01*
X50378396Y-29938372D01*
X50553039Y-29912561D01*
X50727075Y-29930102D01*
G37*
%TD.AperFunction*%
%TA.AperFunction,Profile*%
G36*
X50768662Y-52003204D02*
G01*
X50935899Y-52071096D01*
X51081254Y-52181082D01*
X51194594Y-52332644D01*
X51217055Y-52377664D01*
X51255590Y-52506401D01*
X51272514Y-52659761D01*
X51267498Y-52813623D01*
X51240212Y-52943867D01*
X51225298Y-52979489D01*
X51111147Y-53143188D01*
X50959223Y-53268903D01*
X50781275Y-53351902D01*
X50589052Y-53387453D01*
X50394303Y-53370826D01*
X50313433Y-53346722D01*
X50141605Y-53253483D01*
X50006836Y-53120367D01*
X49912805Y-52958096D01*
X49863192Y-52777395D01*
X49861676Y-52588988D01*
X49911935Y-52403599D01*
X49958911Y-52313307D01*
X50083559Y-52162951D01*
X50236992Y-52057280D01*
X50409075Y-51995778D01*
X50589677Y-51977925D01*
X50768662Y-52003204D01*
G37*
%TD.AperFunction*%
%TA.AperFunction,Profile*%
G36*
X51835703Y-42654531D02*
G01*
X52022766Y-42715119D01*
X52191700Y-42819347D01*
X52332647Y-42965545D01*
X52415319Y-43104416D01*
X52476758Y-43298924D01*
X52484001Y-43489775D01*
X52443421Y-43670776D01*
X52361388Y-43835737D01*
X52244277Y-43978467D01*
X52098457Y-44092777D01*
X51930302Y-44172474D01*
X51746184Y-44211369D01*
X51552473Y-44203270D01*
X51355544Y-44141987D01*
X51350000Y-44139425D01*
X51167306Y-44024120D01*
X51028300Y-43874730D01*
X50934805Y-43700539D01*
X50888641Y-43510830D01*
X50891629Y-43314888D01*
X50945591Y-43121995D01*
X51052348Y-42941437D01*
X51103333Y-42882010D01*
X51264326Y-42751323D01*
X51446624Y-42670962D01*
X51640370Y-42639255D01*
X51835703Y-42654531D01*
G37*
%TD.AperFunction*%
%TA.AperFunction,Profile*%
G36*
X51917778Y-57630366D02*
G01*
X51926155Y-57634094D01*
X52086720Y-57736097D01*
X52202383Y-57869322D01*
X52272255Y-58023611D01*
X52295445Y-58188808D01*
X52271062Y-58354757D01*
X52198216Y-58511301D01*
X52076017Y-58648284D01*
X52018867Y-58691468D01*
X51917817Y-58752155D01*
X51828217Y-58781397D01*
X51717384Y-58789308D01*
X51702720Y-58789311D01*
X51560260Y-58775931D01*
X51431954Y-58741705D01*
X51410620Y-58732689D01*
X51252382Y-58629904D01*
X51140994Y-58494124D01*
X51079214Y-58333953D01*
X51069796Y-58157993D01*
X51115495Y-57974849D01*
X51146447Y-57907903D01*
X51255597Y-57759130D01*
X51399020Y-57652876D01*
X51565001Y-57593255D01*
X51741825Y-57584380D01*
X51917778Y-57630366D01*
G37*
%TD.AperFunction*%
%TA.AperFunction,Profile*%
G36*
X52881823Y-63100994D02*
G01*
X53058711Y-63146992D01*
X53209884Y-63244821D01*
X53326471Y-63388079D01*
X53355048Y-63442519D01*
X53414155Y-63628485D01*
X53413505Y-63807137D01*
X53352767Y-63982156D01*
X53298395Y-64071423D01*
X53189514Y-64180542D01*
X53043029Y-64263425D01*
X52878957Y-64312673D01*
X52717313Y-64320885D01*
X52653341Y-64309907D01*
X52539411Y-64271041D01*
X52443063Y-64211186D01*
X52339762Y-64115066D01*
X52338771Y-64114037D01*
X52233714Y-63964762D01*
X52182135Y-63798115D01*
X52183515Y-63624274D01*
X52237337Y-63453421D01*
X52343081Y-63295737D01*
X52382531Y-63254746D01*
X52499007Y-63161716D01*
X52620446Y-63110270D01*
X52765573Y-63094643D01*
X52881823Y-63100994D01*
G37*
%TD.AperFunction*%
%TA.AperFunction,Profile*%
G36*
X52926308Y-30026643D02*
G01*
X53079853Y-30083514D01*
X53213344Y-30182430D01*
X53316655Y-30321481D01*
X53369874Y-30456958D01*
X53389250Y-30637753D01*
X53350192Y-30808325D01*
X53254687Y-30963407D01*
X53137247Y-31074103D01*
X52997847Y-31145351D01*
X52832905Y-31175183D01*
X52662319Y-31162309D01*
X52522045Y-31113977D01*
X52411882Y-31037391D01*
X52318539Y-30937599D01*
X52309873Y-30925088D01*
X52265100Y-30847554D01*
X52240438Y-30770771D01*
X52230354Y-30671556D01*
X52228997Y-30586131D01*
X52231963Y-30465124D01*
X52244606Y-30382934D01*
X52272543Y-30317891D01*
X52314107Y-30257803D01*
X52446608Y-30127395D01*
X52599559Y-30046673D01*
X52762834Y-30013726D01*
X52926308Y-30026643D01*
G37*
%TD.AperFunction*%
%TA.AperFunction,Profile*%
G36*
X53973728Y-50130970D02*
G01*
X54169165Y-50179512D01*
X54332266Y-50269438D01*
X54461327Y-50392179D01*
X54554641Y-50539166D01*
X54610503Y-50701832D01*
X54627209Y-50871606D01*
X54603052Y-51039922D01*
X54536328Y-51198210D01*
X54425331Y-51337902D01*
X54268356Y-51450429D01*
X54239259Y-51465148D01*
X54069480Y-51533394D01*
X53921717Y-51559996D01*
X53776572Y-51547576D01*
X53723916Y-51534804D01*
X53532197Y-51453166D01*
X53378931Y-51329106D01*
X53268802Y-51170547D01*
X53206496Y-50985412D01*
X53196698Y-50781622D01*
X53213677Y-50671945D01*
X53282731Y-50493975D01*
X53398091Y-50342613D01*
X53548716Y-50225719D01*
X53723562Y-50151152D01*
X53911587Y-50126772D01*
X53973728Y-50130970D01*
G37*
%TD.AperFunction*%
%TA.AperFunction,Profile*%
G36*
X54040404Y-35428247D02*
G01*
X54191211Y-35463310D01*
X54321221Y-35536677D01*
X54409069Y-35614105D01*
X54529375Y-35773813D01*
X54596055Y-35951365D01*
X54609201Y-36136510D01*
X54568905Y-36318996D01*
X54475257Y-36488571D01*
X54400523Y-36573126D01*
X54236789Y-36698506D01*
X54060344Y-36766524D01*
X53865606Y-36778543D01*
X53687195Y-36747261D01*
X53564686Y-36690439D01*
X53441192Y-36593020D01*
X53333815Y-36472269D01*
X53259657Y-36345449D01*
X53243878Y-36299762D01*
X53219609Y-36122611D01*
X53234537Y-35941683D01*
X53285735Y-35779656D01*
X53318575Y-35720835D01*
X53445927Y-35574150D01*
X53602374Y-35478505D01*
X53793385Y-35430876D01*
X53852057Y-35425829D01*
X54040404Y-35428247D01*
G37*
%TD.AperFunction*%
%TA.AperFunction,Profile*%
G36*
X54066149Y-31766762D02*
G01*
X54246016Y-31830669D01*
X54402822Y-31936558D01*
X54519895Y-32075481D01*
X54569831Y-32196727D01*
X54598170Y-32349302D01*
X54602232Y-32506944D01*
X54579337Y-32643390D01*
X54578194Y-32646918D01*
X54511930Y-32776620D01*
X54407187Y-32905202D01*
X54282874Y-33012022D01*
X54199164Y-33060635D01*
X54045280Y-33104286D01*
X53869836Y-33113451D01*
X53701016Y-33088138D01*
X53623270Y-33060476D01*
X53458392Y-32955589D01*
X53335361Y-32817152D01*
X53255064Y-32655311D01*
X53218391Y-32480211D01*
X53226230Y-32301998D01*
X53279470Y-32130819D01*
X53379001Y-31976819D01*
X53517694Y-31855372D01*
X53689038Y-31776269D01*
X53876174Y-31747680D01*
X54066149Y-31766762D01*
G37*
%TD.AperFunction*%
%TA.AperFunction,Profile*%
G36*
X54175429Y-53849336D02*
G01*
X54199385Y-53860052D01*
X54375461Y-53973387D01*
X54508673Y-54126849D01*
X54591897Y-54309132D01*
X54624106Y-54429106D01*
X54635961Y-54519955D01*
X54628373Y-54609324D01*
X54605201Y-54713205D01*
X54532916Y-54884002D01*
X54415782Y-55026860D01*
X54265150Y-55136453D01*
X54092369Y-55207448D01*
X53908790Y-55234517D01*
X53725763Y-55212330D01*
X53623270Y-55174284D01*
X53444760Y-55059894D01*
X53311276Y-54914943D01*
X53224312Y-54748395D01*
X53185366Y-54569215D01*
X53195934Y-54386366D01*
X53257511Y-54208815D01*
X53371596Y-54045523D01*
X53425894Y-53991879D01*
X53602961Y-53866625D01*
X53788253Y-53800888D01*
X53979749Y-53795010D01*
X54175429Y-53849336D01*
G37*
%TD.AperFunction*%
%TA.AperFunction,Profile*%
G36*
X39596466Y-29905811D02*
G01*
X39751528Y-29963064D01*
X39919881Y-30080216D01*
X40043749Y-30229327D01*
X40121087Y-30400590D01*
X40149854Y-30584197D01*
X40128007Y-30770342D01*
X40053502Y-30949218D01*
X39978704Y-31053651D01*
X39831477Y-31181546D01*
X39654429Y-31264974D01*
X39461696Y-31300779D01*
X39267412Y-31285805D01*
X39134964Y-31242020D01*
X39031424Y-31177219D01*
X38922462Y-31081547D01*
X38826493Y-30973722D01*
X38761929Y-30872463D01*
X38754733Y-30855512D01*
X38729071Y-30733653D01*
X38725870Y-30582378D01*
X38743569Y-30427928D01*
X38780606Y-30296544D01*
X38789118Y-30277552D01*
X38897910Y-30118085D01*
X39044623Y-29997393D01*
X39217675Y-29919260D01*
X39405484Y-29887471D01*
X39596466Y-29905811D01*
G37*
%TD.AperFunction*%
%TA.AperFunction,Profile*%
G36*
X43031531Y-53871938D02*
G01*
X43075298Y-53891154D01*
X43221209Y-53975418D01*
X43326478Y-54078436D01*
X43410334Y-54219786D01*
X43421319Y-54243437D01*
X43476049Y-54433291D01*
X43470537Y-54626440D01*
X43412426Y-54804177D01*
X43328162Y-54950088D01*
X43225144Y-55055356D01*
X43083794Y-55139213D01*
X43060143Y-55150198D01*
X42865879Y-55206829D01*
X42668532Y-55203503D01*
X42472788Y-55140383D01*
X42449821Y-55128899D01*
X42286513Y-55013930D01*
X42168999Y-54869003D01*
X42097281Y-54703878D01*
X42071357Y-54528317D01*
X42091229Y-54352081D01*
X42156897Y-54184931D01*
X42268359Y-54036628D01*
X42425617Y-53916933D01*
X42449821Y-53903775D01*
X42643339Y-53832686D01*
X42836393Y-53822091D01*
X43031531Y-53871938D01*
G37*
%TD.AperFunction*%
%TA.AperFunction,Profile*%
G36*
X44001570Y-26347394D02*
G01*
X44090184Y-26365440D01*
X44170133Y-26403554D01*
X44206310Y-26426452D01*
X44357367Y-26555259D01*
X44452417Y-26705806D01*
X44493005Y-26880800D01*
X44494829Y-26931264D01*
X44467982Y-27112567D01*
X44393690Y-27268881D01*
X44281321Y-27394607D01*
X44140246Y-27484147D01*
X43979836Y-27531899D01*
X43809459Y-27532266D01*
X43638488Y-27479648D01*
X43605646Y-27462608D01*
X43453864Y-27347658D01*
X43349967Y-27205038D01*
X43294266Y-27044650D01*
X43287075Y-26876397D01*
X43328704Y-26710181D01*
X43419466Y-26555906D01*
X43559674Y-26423475D01*
X43572595Y-26414422D01*
X43648263Y-26372258D01*
X43732967Y-26350265D01*
X43849952Y-26343004D01*
X43878513Y-26342840D01*
X44001570Y-26347394D01*
G37*
%TD.AperFunction*%
%TA.AperFunction,Profile*%
G36*
X44038691Y-55780866D02*
G01*
X44181438Y-55836147D01*
X44306246Y-55925751D01*
X44404230Y-56048666D01*
X44466504Y-56203875D01*
X44484725Y-56361733D01*
X44479933Y-56474402D01*
X44459509Y-56555252D01*
X44414383Y-56632725D01*
X44386217Y-56670663D01*
X44283327Y-56792301D01*
X44188530Y-56869471D01*
X44083610Y-56912319D01*
X43950350Y-56930992D01*
X43915439Y-56932863D01*
X43782140Y-56932929D01*
X43684488Y-56916718D01*
X43599777Y-56880866D01*
X43452891Y-56768690D01*
X43349743Y-56621216D01*
X43295556Y-56449958D01*
X43295555Y-56266431D01*
X43303063Y-56226803D01*
X43366855Y-56054834D01*
X43466018Y-55923275D01*
X43591669Y-55831114D01*
X43734921Y-55777335D01*
X43886890Y-55760924D01*
X44038691Y-55780866D01*
G37*
%TD.AperFunction*%
%TA.AperFunction,Profile*%
G36*
X44043399Y-37250617D02*
G01*
X44159864Y-37280252D01*
X44318957Y-37375782D01*
X44452011Y-37511412D01*
X44549137Y-37672932D01*
X44600450Y-37846134D01*
X44605966Y-37921361D01*
X44577550Y-38096618D01*
X44499014Y-38265568D01*
X44380424Y-38414669D01*
X44231847Y-38530380D01*
X44112365Y-38585279D01*
X43964471Y-38623302D01*
X43834026Y-38626113D01*
X43689402Y-38594084D01*
X43677467Y-38590402D01*
X43503042Y-38507174D01*
X43361376Y-38382957D01*
X43257438Y-38228426D01*
X43196197Y-38054252D01*
X43182621Y-37871108D01*
X43221680Y-37689667D01*
X43238969Y-37648568D01*
X43335308Y-37499776D01*
X43469066Y-37371281D01*
X43612332Y-37286381D01*
X43739651Y-37253037D01*
X43892593Y-37241012D01*
X44043399Y-37250617D01*
G37*
%TD.AperFunction*%
%TA.AperFunction,Profile*%
G36*
X44099904Y-44554970D02*
G01*
X44295323Y-44639349D01*
X44471146Y-44779833D01*
X44477087Y-44785963D01*
X44602447Y-44957900D01*
X44674049Y-45152375D01*
X44690278Y-45360999D01*
X44649516Y-45575387D01*
X44636472Y-45612688D01*
X44541040Y-45787746D01*
X44402700Y-45934188D01*
X44233404Y-46045137D01*
X44045105Y-46113716D01*
X43849755Y-46133048D01*
X43751624Y-46121800D01*
X43542353Y-46051713D01*
X43361844Y-45931880D01*
X43217814Y-45769404D01*
X43117979Y-45571389D01*
X43102976Y-45524667D01*
X43074508Y-45324835D01*
X43100950Y-45128780D01*
X43176841Y-44945770D01*
X43296719Y-44785072D01*
X43455123Y-44655955D01*
X43646592Y-44567687D01*
X43671186Y-44560377D01*
X43890115Y-44528158D01*
X44099904Y-44554970D01*
G37*
%TD.AperFunction*%
%TA.AperFunction,Profile*%
G36*
X47391613Y-35422654D02*
G01*
X47492972Y-35449201D01*
X47573350Y-35489062D01*
X47655011Y-35555463D01*
X47715264Y-35614958D01*
X47817543Y-35732679D01*
X47879876Y-35840273D01*
X47906473Y-35920288D01*
X47928411Y-36116581D01*
X47897769Y-36298584D01*
X47822022Y-36460264D01*
X47708645Y-36595588D01*
X47565113Y-36698522D01*
X47398903Y-36763033D01*
X47217489Y-36783088D01*
X47028346Y-36752654D01*
X46924701Y-36712665D01*
X46778790Y-36628401D01*
X46673522Y-36525383D01*
X46589665Y-36384033D01*
X46578680Y-36360382D01*
X46524061Y-36171927D01*
X46529271Y-35983060D01*
X46574413Y-35840043D01*
X46686497Y-35655691D01*
X46832951Y-35519938D01*
X47008627Y-35435413D01*
X47208375Y-35404745D01*
X47391613Y-35422654D01*
G37*
%TD.AperFunction*%
%TA.AperFunction,Profile*%
G36*
X47429919Y-38988294D02*
G01*
X47597665Y-39054016D01*
X47744517Y-39154965D01*
X47865821Y-39284836D01*
X47956923Y-39437319D01*
X48013166Y-39606108D01*
X48029896Y-39784896D01*
X48002459Y-39967374D01*
X47926199Y-40147235D01*
X47796462Y-40318172D01*
X47782667Y-40332241D01*
X47621452Y-40452560D01*
X47430887Y-40528124D01*
X47226492Y-40554940D01*
X47023785Y-40529013D01*
X47020968Y-40528238D01*
X46818340Y-40444071D01*
X46651595Y-40318332D01*
X46525808Y-40159182D01*
X46446056Y-39974782D01*
X46417414Y-39773292D01*
X46437916Y-39590904D01*
X46509410Y-39390079D01*
X46624002Y-39228769D01*
X46787374Y-39099689D01*
X46847872Y-39065573D01*
X47050368Y-38987765D01*
X47245935Y-38964108D01*
X47429919Y-38988294D01*
G37*
%TD.AperFunction*%
%TA.AperFunction,Profile*%
G36*
X47455846Y-57631940D02*
G01*
X47484840Y-57645764D01*
X47644195Y-57754594D01*
X47750641Y-57892248D01*
X47805816Y-58061109D01*
X47812939Y-58122511D01*
X47816878Y-58234966D01*
X47813226Y-58333868D01*
X47806493Y-58380447D01*
X47765556Y-58465081D01*
X47689997Y-58563481D01*
X47596719Y-58657472D01*
X47502621Y-58728875D01*
X47463682Y-58749145D01*
X47306723Y-58786248D01*
X47132868Y-58781157D01*
X46967427Y-58735191D01*
X46938701Y-58721778D01*
X46797634Y-58621192D01*
X46688779Y-58484999D01*
X46622328Y-58328910D01*
X46606444Y-58209448D01*
X46633124Y-58028991D01*
X46706934Y-57871191D01*
X46818529Y-57742044D01*
X46958564Y-57647549D01*
X47117691Y-57593701D01*
X47286568Y-57586499D01*
X47455846Y-57631940D01*
G37*
%TD.AperFunction*%
%TA.AperFunction,Profile*%
G36*
X48568580Y-44560798D02*
G01*
X48751348Y-44643303D01*
X48909539Y-44765730D01*
X49034680Y-44921353D01*
X49118300Y-45103450D01*
X49151924Y-45305295D01*
X49152210Y-45327291D01*
X49124132Y-45529657D01*
X49046314Y-45714342D01*
X48927296Y-45874452D01*
X48775620Y-46003092D01*
X48599828Y-46093366D01*
X48408461Y-46138380D01*
X48210059Y-46131239D01*
X48167422Y-46122255D01*
X47985538Y-46052692D01*
X47813050Y-45940599D01*
X47763155Y-45897144D01*
X47631510Y-45736215D01*
X47551506Y-45557032D01*
X47520541Y-45368408D01*
X47536012Y-45179153D01*
X47595317Y-44998079D01*
X47695855Y-44833999D01*
X47835022Y-44695723D01*
X48010217Y-44592065D01*
X48163209Y-44542446D01*
X48369710Y-44524938D01*
X48568580Y-44560798D01*
G37*
%TD.AperFunction*%
%TA.AperFunction,Profile*%
G36*
X49667350Y-39001643D02*
G01*
X49814913Y-39060573D01*
X50003176Y-39183271D01*
X50139455Y-39336944D01*
X50223347Y-39520952D01*
X50254442Y-39734652D01*
X50254638Y-39755132D01*
X50226426Y-39973542D01*
X50144302Y-40166785D01*
X50011481Y-40329966D01*
X49831182Y-40458190D01*
X49773866Y-40486599D01*
X49612775Y-40532648D01*
X49427107Y-40542735D01*
X49240677Y-40517405D01*
X49105355Y-40471251D01*
X48943094Y-40365694D01*
X48806099Y-40218737D01*
X48704001Y-40045113D01*
X48646431Y-39859553D01*
X48637231Y-39755132D01*
X48664653Y-39571784D01*
X48741128Y-39389798D01*
X48857975Y-39229007D01*
X48875482Y-39210891D01*
X49052733Y-39072604D01*
X49247842Y-38990986D01*
X49454738Y-38967008D01*
X49667350Y-39001643D01*
G37*
%TD.AperFunction*%
%TA.AperFunction,Profile*%
G36*
X52923243Y-33584975D02*
G01*
X53074139Y-33632262D01*
X53224611Y-33721240D01*
X53352069Y-33837175D01*
X53394735Y-33892478D01*
X53448140Y-34012044D01*
X53479002Y-34164830D01*
X53484857Y-34326858D01*
X53463245Y-34474152D01*
X53456695Y-34495903D01*
X53373317Y-34656910D01*
X53245494Y-34788384D01*
X53084608Y-34884415D01*
X52902040Y-34939095D01*
X52709174Y-34946516D01*
X52617112Y-34931747D01*
X52491547Y-34879273D01*
X52354051Y-34780077D01*
X52336783Y-34764866D01*
X52206461Y-34613435D01*
X52129008Y-34448589D01*
X52100523Y-34278173D01*
X52117107Y-34110036D01*
X52174860Y-33952022D01*
X52269881Y-33811979D01*
X52398270Y-33697755D01*
X52556127Y-33617195D01*
X52739551Y-33578146D01*
X52923243Y-33584975D01*
G37*
%TD.AperFunction*%
%TA.AperFunction,Profile*%
G36*
X53018989Y-44562064D02*
G01*
X53217731Y-44639153D01*
X53380955Y-44760244D01*
X53503656Y-44920438D01*
X53580824Y-45114836D01*
X53607449Y-45333846D01*
X53581102Y-45539728D01*
X53506133Y-45725068D01*
X53390797Y-45884271D01*
X53243354Y-46011739D01*
X53072060Y-46101877D01*
X52885174Y-46149087D01*
X52690953Y-46147774D01*
X52497656Y-46092341D01*
X52492010Y-46089807D01*
X52333032Y-46006324D01*
X52216475Y-45914628D01*
X52124551Y-45799457D01*
X52093042Y-45747527D01*
X52007224Y-45543851D01*
X51976387Y-45339848D01*
X51996140Y-45143171D01*
X52062089Y-44961472D01*
X52169842Y-44802404D01*
X52315005Y-44673618D01*
X52493187Y-44582766D01*
X52699995Y-44537502D01*
X52789737Y-44533875D01*
X53018989Y-44562064D01*
G37*
%TD.AperFunction*%
%TA.AperFunction,Profile*%
G36*
X53029310Y-52011791D02*
G01*
X53117247Y-52048678D01*
X53292597Y-52166199D01*
X53418706Y-52317046D01*
X53492849Y-52496237D01*
X53512304Y-52698791D01*
X53507227Y-52762049D01*
X53456488Y-52956023D01*
X53359404Y-53120484D01*
X53225109Y-53250346D01*
X53062739Y-53340522D01*
X52881431Y-53385927D01*
X52690319Y-53381472D01*
X52500104Y-53322802D01*
X52336919Y-53219187D01*
X52205343Y-53080645D01*
X52117164Y-52921079D01*
X52094391Y-52844309D01*
X52072728Y-52736947D01*
X52065164Y-52662286D01*
X52072569Y-52593867D01*
X52095813Y-52505231D01*
X52106758Y-52468210D01*
X52188464Y-52292012D01*
X52312559Y-52150231D01*
X52468867Y-52047094D01*
X52647213Y-51986825D01*
X52837419Y-51973649D01*
X53029310Y-52011791D01*
G37*
%TD.AperFunction*%
%TA.AperFunction,Profile*%
G36*
X53031473Y-26392333D02*
G01*
X53140315Y-26458184D01*
X53241290Y-26555159D01*
X53339526Y-26701659D01*
X53385317Y-26861859D01*
X53381810Y-27025275D01*
X53332152Y-27181428D01*
X53239486Y-27319836D01*
X53106960Y-27430019D01*
X52959049Y-27495549D01*
X52857757Y-27524224D01*
X52789464Y-27535298D01*
X52729147Y-27528722D01*
X52651779Y-27504443D01*
X52624784Y-27494869D01*
X52447337Y-27405058D01*
X52318983Y-27280346D01*
X52240919Y-27122366D01*
X52214341Y-26933418D01*
X52236925Y-26752049D01*
X52309290Y-26600249D01*
X52436566Y-26467295D01*
X52437910Y-26466206D01*
X52515733Y-26412355D01*
X52597149Y-26381795D01*
X52707160Y-26366172D01*
X52745705Y-26363387D01*
X52906768Y-26363378D01*
X53031473Y-26392333D01*
G37*
%TD.AperFunction*%
%TA.AperFunction,Profile*%
G36*
X53040853Y-40841957D02*
G01*
X53229989Y-40935944D01*
X53399296Y-41082083D01*
X53403043Y-41086226D01*
X53492461Y-41197239D01*
X53547014Y-41299789D01*
X53580090Y-41415773D01*
X53597527Y-41634221D01*
X53558998Y-41838911D01*
X53468838Y-42022310D01*
X53331382Y-42176885D01*
X53150962Y-42295102D01*
X53050148Y-42336798D01*
X52871395Y-42381615D01*
X52708009Y-42381403D01*
X52539286Y-42337821D01*
X52336241Y-42237286D01*
X52180094Y-42099256D01*
X52072594Y-41926000D01*
X52015486Y-41719785D01*
X52008223Y-41648525D01*
X52018285Y-41426301D01*
X52080214Y-41233794D01*
X52195703Y-41066701D01*
X52263135Y-41000816D01*
X52443029Y-40879554D01*
X52638517Y-40813099D01*
X52840744Y-40800788D01*
X53040853Y-40841957D01*
G37*
%TD.AperFunction*%
%TA.AperFunction,Profile*%
G36*
X53093833Y-37196126D02*
G01*
X53143007Y-37218927D01*
X53326693Y-37341092D01*
X53462972Y-37491533D01*
X53552579Y-37661823D01*
X53596252Y-37843538D01*
X53594726Y-38028249D01*
X53548739Y-38207531D01*
X53459027Y-38372956D01*
X53326326Y-38516098D01*
X53151373Y-38628530D01*
X53015195Y-38681196D01*
X52852493Y-38716535D01*
X52702677Y-38714383D01*
X52544501Y-38677495D01*
X52400530Y-38609306D01*
X52257334Y-38501238D01*
X52135085Y-38370847D01*
X52064830Y-38260018D01*
X52017405Y-38108041D01*
X52001535Y-37930365D01*
X52017457Y-37753198D01*
X52058969Y-37616276D01*
X52171874Y-37434280D01*
X52321654Y-37292290D01*
X52498525Y-37193893D01*
X52692703Y-37142676D01*
X52894400Y-37142225D01*
X53093833Y-37196126D01*
G37*
%TD.AperFunction*%
%TA.AperFunction,Profile*%
G36*
X54031218Y-28195334D02*
G01*
X54115307Y-28210463D01*
X54187991Y-28243792D01*
X54246897Y-28282697D01*
X54382290Y-28411341D01*
X54467679Y-28563564D01*
X54503091Y-28728709D01*
X54488552Y-28896121D01*
X54424088Y-29055145D01*
X54309725Y-29195126D01*
X54244549Y-29247276D01*
X54112875Y-29311600D01*
X53956744Y-29346547D01*
X53803135Y-29347729D01*
X53726736Y-29331509D01*
X53567200Y-29249367D01*
X53441874Y-29123467D01*
X53358510Y-28964593D01*
X53324862Y-28783530D01*
X53324593Y-28772172D01*
X53349521Y-28585802D01*
X53429250Y-28424992D01*
X53562590Y-28292057D01*
X53575537Y-28282697D01*
X53655160Y-28232190D01*
X53728575Y-28204653D01*
X53820291Y-28193448D01*
X53911217Y-28191766D01*
X54031218Y-28195334D01*
G37*
%TD.AperFunction*%
%TA.AperFunction,Profile*%
G36*
X38580506Y-38985862D02*
G01*
X38615305Y-38998338D01*
X38787519Y-39092391D01*
X38936538Y-39230438D01*
X39052900Y-39399088D01*
X39127139Y-39584949D01*
X39150119Y-39755132D01*
X39121853Y-39940902D01*
X39043708Y-40122933D01*
X38925662Y-40287901D01*
X38777692Y-40422479D01*
X38609779Y-40513343D01*
X38573205Y-40525538D01*
X38345885Y-40568177D01*
X38138533Y-40554622D01*
X38047659Y-40529008D01*
X37869920Y-40435742D01*
X37713975Y-40296948D01*
X37592401Y-40126897D01*
X37517772Y-39939856D01*
X37513954Y-39923441D01*
X37495305Y-39707609D01*
X37532969Y-39504699D01*
X37622929Y-39321730D01*
X37761168Y-39165718D01*
X37943666Y-39043682D01*
X38042447Y-39000482D01*
X38228992Y-38948569D01*
X38400619Y-38943725D01*
X38580506Y-38985862D01*
G37*
%TD.AperFunction*%
%TA.AperFunction,Profile*%
G36*
X39593775Y-44540625D02*
G01*
X39771877Y-44614253D01*
X39938894Y-44724648D01*
X40078863Y-44861730D01*
X40158500Y-44979766D01*
X40206818Y-45119532D01*
X40227648Y-45288488D01*
X40220941Y-45462798D01*
X40186651Y-45618629D01*
X40159889Y-45680788D01*
X40034329Y-45856911D01*
X39873884Y-45991088D01*
X39688542Y-46079835D01*
X39488296Y-46119671D01*
X39283134Y-46107114D01*
X39104019Y-46048826D01*
X38909796Y-45930404D01*
X38767127Y-45780154D01*
X38676183Y-45598340D01*
X38637137Y-45385227D01*
X38635510Y-45330594D01*
X38661504Y-45111076D01*
X38740378Y-44920728D01*
X38871127Y-44760956D01*
X39052742Y-44633165D01*
X39176261Y-44576106D01*
X39281757Y-44540629D01*
X39378575Y-44518081D01*
X39420553Y-44513843D01*
X39593775Y-44540625D01*
G37*
%TD.AperFunction*%
%TA.AperFunction,Profile*%
G36*
X39620531Y-40808485D02*
G01*
X39815509Y-40883441D01*
X39991799Y-41010456D01*
X40052977Y-41073494D01*
X40165409Y-41232606D01*
X40228064Y-41404595D01*
X40246767Y-41606072D01*
X40246511Y-41625354D01*
X40225255Y-41800481D01*
X40163851Y-41953632D01*
X40054084Y-42104480D01*
X40039640Y-42120741D01*
X39878829Y-42257881D01*
X39691760Y-42348871D01*
X39490664Y-42390935D01*
X39287771Y-42381297D01*
X39120671Y-42329313D01*
X38918082Y-42212650D01*
X38769447Y-42069614D01*
X38672856Y-41897375D01*
X38626398Y-41693100D01*
X38621337Y-41588902D01*
X38637686Y-41394125D01*
X38692103Y-41233427D01*
X38791802Y-41088708D01*
X38842002Y-41035198D01*
X39017600Y-40898944D01*
X39212163Y-40815938D01*
X39416278Y-40785885D01*
X39620531Y-40808485D01*
G37*
%TD.AperFunction*%
%TA.AperFunction,Profile*%
G36*
X40729878Y-35415645D02*
G01*
X40911512Y-35487406D01*
X41065354Y-35604124D01*
X41181847Y-35761736D01*
X41199027Y-35796095D01*
X41257434Y-35984684D01*
X41261654Y-36169416D01*
X41218037Y-36343242D01*
X41132934Y-36499118D01*
X41012694Y-36629995D01*
X40863668Y-36728826D01*
X40692205Y-36788566D01*
X40504656Y-36802167D01*
X40323347Y-36767868D01*
X40174675Y-36693834D01*
X40035910Y-36577246D01*
X39926272Y-36435452D01*
X39899293Y-36385106D01*
X39863123Y-36263142D01*
X39848365Y-36112007D01*
X39855183Y-35957831D01*
X39883741Y-35826745D01*
X39895603Y-35797849D01*
X39967732Y-35688680D01*
X40073073Y-35579279D01*
X40192188Y-35486744D01*
X40305642Y-35428172D01*
X40321468Y-35423234D01*
X40530011Y-35392901D01*
X40729878Y-35415645D01*
G37*
%TD.AperFunction*%
%TA.AperFunction,Profile*%
G36*
X45185483Y-28195608D02*
G01*
X45342889Y-28267114D01*
X45466120Y-28374134D01*
X45552516Y-28507770D01*
X45599417Y-28659122D01*
X45604162Y-28819292D01*
X45564093Y-28979380D01*
X45476548Y-29130488D01*
X45338869Y-29263717D01*
X45326583Y-29272644D01*
X45201770Y-29330016D01*
X45047945Y-29355476D01*
X44888057Y-29348338D01*
X44745055Y-29307913D01*
X44712052Y-29291050D01*
X44625486Y-29224714D01*
X44535596Y-29130983D01*
X44489367Y-29070103D01*
X44432101Y-28978419D01*
X44403478Y-28904909D01*
X44395935Y-28821198D01*
X44399641Y-28733412D01*
X44432119Y-28560482D01*
X44509806Y-28416158D01*
X44639164Y-28289980D01*
X44700632Y-28246318D01*
X44792505Y-28196070D01*
X44887480Y-28172857D01*
X44996561Y-28168515D01*
X45185483Y-28195608D01*
G37*
%TD.AperFunction*%
%TA.AperFunction,Profile*%
G36*
X45198737Y-42652346D02*
G01*
X45365937Y-42710352D01*
X45520856Y-42815809D01*
X45546973Y-42838628D01*
X45677726Y-42991099D01*
X45770050Y-43171600D01*
X45815270Y-43361465D01*
X45818377Y-43422673D01*
X45789941Y-43622108D01*
X45710467Y-43804369D01*
X45588704Y-43962290D01*
X45433402Y-44088709D01*
X45253310Y-44176460D01*
X45057180Y-44218381D01*
X44858868Y-44208288D01*
X44660898Y-44142787D01*
X44486535Y-44030695D01*
X44344046Y-43881659D01*
X44241697Y-43705325D01*
X44187754Y-43511341D01*
X44181473Y-43417793D01*
X44207688Y-43244858D01*
X44279299Y-43068009D01*
X44386416Y-42908201D01*
X44456103Y-42835862D01*
X44610306Y-42722860D01*
X44775101Y-42658185D01*
X44969112Y-42634946D01*
X45000000Y-42634606D01*
X45198737Y-42652346D01*
G37*
%TD.AperFunction*%
%TA.AperFunction,Profile*%
G36*
X45205563Y-31767173D02*
G01*
X45384981Y-31843390D01*
X45531413Y-31962393D01*
X45638014Y-32117621D01*
X45697942Y-32302507D01*
X45708610Y-32420048D01*
X45682248Y-32604987D01*
X45605154Y-32782943D01*
X45486348Y-32936716D01*
X45399161Y-33009963D01*
X45321853Y-33058813D01*
X45249287Y-33087580D01*
X45159449Y-33102236D01*
X45035438Y-33108604D01*
X44917591Y-33109542D01*
X44820123Y-33105764D01*
X44761725Y-33098075D01*
X44757518Y-33096645D01*
X44605416Y-33007930D01*
X44468243Y-32881278D01*
X44372424Y-32744187D01*
X44304350Y-32554115D01*
X44291618Y-32366597D01*
X44329197Y-32189678D01*
X44412060Y-32031404D01*
X44535175Y-31899820D01*
X44693515Y-31802971D01*
X44882048Y-31748903D01*
X45000000Y-31740309D01*
X45205563Y-31767173D01*
G37*
%TD.AperFunction*%
%TA.AperFunction,Profile*%
G36*
X46228901Y-51983853D02*
G01*
X46416488Y-52042841D01*
X46579069Y-52156166D01*
X46713086Y-52322038D01*
X46720107Y-52333566D01*
X46779773Y-52445252D01*
X46809528Y-52542377D01*
X46818499Y-52656761D01*
X46818616Y-52677016D01*
X46790256Y-52878872D01*
X46709137Y-53057683D01*
X46581203Y-53205540D01*
X46412396Y-53314534D01*
X46310596Y-53353179D01*
X46167528Y-53386380D01*
X46044166Y-53387140D01*
X45908625Y-53354852D01*
X45878997Y-53344977D01*
X45709309Y-53255412D01*
X45563952Y-53114754D01*
X45467102Y-52963836D01*
X45407183Y-52785656D01*
X45401323Y-52604532D01*
X45444233Y-52429870D01*
X45530622Y-52271075D01*
X45655200Y-52137554D01*
X45812678Y-52038712D01*
X45997766Y-51983955D01*
X46019866Y-51980994D01*
X46228901Y-51983853D01*
G37*
%TD.AperFunction*%
%TA.AperFunction,Profile*%
G36*
X46266058Y-37143165D02*
G01*
X46344609Y-37163612D01*
X46539995Y-37255554D01*
X46705286Y-37394080D01*
X46832066Y-37569162D01*
X46911913Y-37770772D01*
X46929313Y-37860097D01*
X46924173Y-38026919D01*
X46871018Y-38201413D01*
X46778290Y-38369175D01*
X46654432Y-38515802D01*
X46507886Y-38626886D01*
X46467565Y-38647953D01*
X46330789Y-38690924D01*
X46163984Y-38711965D01*
X45994011Y-38709864D01*
X45847730Y-38683411D01*
X45828204Y-38676796D01*
X45649987Y-38580420D01*
X45499887Y-38439326D01*
X45386603Y-38265955D01*
X45318835Y-38072753D01*
X45303102Y-37925623D01*
X45330925Y-37716921D01*
X45408947Y-37530562D01*
X45528997Y-37372526D01*
X45682903Y-37248790D01*
X45862496Y-37165332D01*
X46059605Y-37128131D01*
X46266058Y-37143165D01*
G37*
%TD.AperFunction*%
%TA.AperFunction,Profile*%
G36*
X46278777Y-40810854D02*
G01*
X46360266Y-40832856D01*
X46536574Y-40915131D01*
X46692358Y-41045165D01*
X46817588Y-41211013D01*
X46902236Y-41400731D01*
X46927462Y-41508403D01*
X46925868Y-41669591D01*
X46877405Y-41843652D01*
X46788114Y-42013873D01*
X46706452Y-42119690D01*
X46541294Y-42260286D01*
X46349463Y-42350478D01*
X46141550Y-42387676D01*
X45928145Y-42369290D01*
X45818377Y-42336849D01*
X45720726Y-42286351D01*
X45612166Y-42209491D01*
X45543075Y-42148576D01*
X45411935Y-41980475D01*
X45333346Y-41795230D01*
X45305286Y-41602090D01*
X45325730Y-41410302D01*
X45392656Y-41229114D01*
X45504041Y-41067773D01*
X45657861Y-40935526D01*
X45827091Y-40850422D01*
X45988109Y-40801937D01*
X46129193Y-40789060D01*
X46278777Y-40810854D01*
G37*
%TD.AperFunction*%
%TA.AperFunction,Profile*%
G36*
X46314698Y-44550457D02*
G01*
X46344969Y-44559429D01*
X46539965Y-44648927D01*
X46700347Y-44778768D01*
X46821350Y-44939805D01*
X46898212Y-45122892D01*
X46926168Y-45318884D01*
X46900454Y-45518633D01*
X46879023Y-45584764D01*
X46783495Y-45777946D01*
X46656805Y-45924569D01*
X46490396Y-46034322D01*
X46475552Y-46041588D01*
X46284477Y-46113388D01*
X46105464Y-46134687D01*
X45919363Y-46106954D01*
X45858131Y-46088919D01*
X45657777Y-45995963D01*
X45499812Y-45859898D01*
X45383418Y-45679874D01*
X45330670Y-45542208D01*
X45266888Y-45332220D01*
X45329376Y-45127626D01*
X45413080Y-44924340D01*
X45528361Y-44768102D01*
X45681790Y-44650736D01*
X45735642Y-44622175D01*
X45937147Y-44545523D01*
X46125696Y-44522077D01*
X46314698Y-44550457D01*
G37*
%TD.AperFunction*%
%TA.AperFunction,Profile*%
G36*
X48593202Y-37172212D02*
G01*
X48783728Y-37272376D01*
X48860890Y-37333414D01*
X49007916Y-37493030D01*
X49100384Y-37669073D01*
X49144133Y-37872764D01*
X49144703Y-37878857D01*
X49149533Y-37983540D01*
X49138295Y-38070707D01*
X49105619Y-38166413D01*
X49068185Y-38250156D01*
X48949173Y-38439576D01*
X48795059Y-38582634D01*
X48613217Y-38676218D01*
X48411021Y-38717218D01*
X48195846Y-38702521D01*
X48074399Y-38669487D01*
X47880514Y-38574622D01*
X47728516Y-38444248D01*
X47619028Y-38287103D01*
X47552673Y-38111926D01*
X47530075Y-37927455D01*
X47551857Y-37742431D01*
X47618642Y-37565592D01*
X47731052Y-37405676D01*
X47889712Y-37271423D01*
X47971347Y-37224251D01*
X48181692Y-37147497D01*
X48390750Y-37130368D01*
X48593202Y-37172212D01*
G37*
%TD.AperFunction*%
%TA.AperFunction,Profile*%
G36*
X49604675Y-42650116D02*
G01*
X49807252Y-42710655D01*
X49980131Y-42823859D01*
X50122250Y-42989178D01*
X50160118Y-43051320D01*
X50212922Y-43158089D01*
X50240441Y-43256584D01*
X50250197Y-43377043D01*
X50250752Y-43415633D01*
X50225023Y-43636661D01*
X50146537Y-43829553D01*
X50017735Y-43990382D01*
X49841058Y-44115219D01*
X49804654Y-44133425D01*
X49622019Y-44192953D01*
X49425830Y-44211547D01*
X49237747Y-44188559D01*
X49135369Y-44153441D01*
X48951424Y-44042084D01*
X48812421Y-43901292D01*
X48717086Y-43739145D01*
X48664148Y-43563723D01*
X48652331Y-43383106D01*
X48680362Y-43205374D01*
X48746969Y-43038606D01*
X48850877Y-42890883D01*
X48990813Y-42770284D01*
X49165504Y-42684888D01*
X49373462Y-42642794D01*
X49604675Y-42650116D01*
G37*
%TD.AperFunction*%
%TA.AperFunction,Profile*%
G36*
X49610029Y-46377864D02*
G01*
X49810015Y-46439493D01*
X49981192Y-46554317D01*
X50122434Y-46721685D01*
X50185838Y-46833637D01*
X50237521Y-46945642D01*
X50264450Y-47031724D01*
X50272109Y-47118498D01*
X50266569Y-47225385D01*
X50222043Y-47434429D01*
X50129573Y-47616338D01*
X49997609Y-47766218D01*
X49834601Y-47879179D01*
X49648997Y-47950325D01*
X49449246Y-47974766D01*
X49243799Y-47947607D01*
X49105885Y-47897511D01*
X48968168Y-47811675D01*
X48839214Y-47693163D01*
X48735255Y-47559521D01*
X48672877Y-47429483D01*
X48635210Y-47208762D01*
X48653330Y-46994714D01*
X48725359Y-46796786D01*
X48828119Y-46647655D01*
X48987545Y-46502810D01*
X49167187Y-46412259D01*
X49378181Y-46370424D01*
X49382363Y-46370081D01*
X49610029Y-46377864D01*
G37*
%TD.AperFunction*%
%TA.AperFunction,Profile*%
G36*
X49613768Y-57605932D02*
G01*
X49770598Y-57684727D01*
X49905434Y-57804665D01*
X50004218Y-57956160D01*
X50004350Y-57956444D01*
X50054660Y-58127406D01*
X50051574Y-58292614D01*
X50002306Y-58445121D01*
X49914068Y-58577978D01*
X49794073Y-58684237D01*
X49649534Y-58756951D01*
X49487664Y-58789171D01*
X49315677Y-58773949D01*
X49197711Y-58733448D01*
X49053007Y-58638867D01*
X48934802Y-58505982D01*
X48853680Y-58350620D01*
X48820229Y-58188608D01*
X48819928Y-58168616D01*
X48835276Y-58094748D01*
X48873529Y-57993402D01*
X48924288Y-57887749D01*
X48977152Y-57800963D01*
X48995044Y-57778409D01*
X49071935Y-57717472D01*
X49184184Y-57656957D01*
X49307416Y-57607632D01*
X49417256Y-57580266D01*
X49449004Y-57577862D01*
X49613768Y-57605932D01*
G37*
%TD.AperFunction*%
%TA.AperFunction,Profile*%
G36*
X50683956Y-44540702D02*
G01*
X50866797Y-44583998D01*
X51013392Y-44659242D01*
X51156064Y-44777244D01*
X51276936Y-44921770D01*
X51323559Y-44998807D01*
X51359738Y-45109363D01*
X51377843Y-45254077D01*
X51377825Y-45409731D01*
X51359631Y-45553102D01*
X51325008Y-45657646D01*
X51204490Y-45830410D01*
X51048581Y-45970899D01*
X50868672Y-46073743D01*
X50676154Y-46133572D01*
X50482419Y-46145014D01*
X50345660Y-46119387D01*
X50195306Y-46050276D01*
X50044917Y-45943022D01*
X49917448Y-45815571D01*
X49866036Y-45744360D01*
X49793565Y-45577239D01*
X49759366Y-45386487D01*
X49765101Y-45194208D01*
X49811838Y-45023844D01*
X49926195Y-44834480D01*
X50078414Y-44688220D01*
X50260667Y-44588328D01*
X50465124Y-44538067D01*
X50683956Y-44540702D01*
G37*
%TD.AperFunction*%
%TA.AperFunction,Profile*%
G36*
X51809577Y-38976469D02*
G01*
X51998357Y-39030210D01*
X52170588Y-39130281D01*
X52317157Y-39275333D01*
X52423634Y-39452029D01*
X52474265Y-39623844D01*
X52485275Y-39811575D01*
X52456664Y-39991043D01*
X52423634Y-40078306D01*
X52345482Y-40198633D01*
X52234373Y-40318777D01*
X52108303Y-40422504D01*
X51985270Y-40493581D01*
X51948198Y-40507166D01*
X51797025Y-40534587D01*
X51626272Y-40538363D01*
X51465482Y-40518991D01*
X51389616Y-40497782D01*
X51207461Y-40401300D01*
X51063165Y-40265689D01*
X50959270Y-40100899D01*
X50898317Y-39916878D01*
X50882849Y-39723574D01*
X50915408Y-39530938D01*
X50998536Y-39348916D01*
X51071223Y-39251787D01*
X51235071Y-39106716D01*
X51418821Y-39013373D01*
X51613360Y-38970406D01*
X51809577Y-38976469D01*
G37*
%TD.AperFunction*%
%TA.AperFunction,Profile*%
G36*
X52890405Y-48199965D02*
G01*
X53039811Y-48224022D01*
X53123150Y-48255229D01*
X53325675Y-48387719D01*
X53472906Y-48544183D01*
X53565894Y-48726234D01*
X53605690Y-48935485D01*
X53607449Y-48998135D01*
X53579389Y-49224000D01*
X53497676Y-49422013D01*
X53363609Y-49589921D01*
X53193463Y-49716857D01*
X53046806Y-49776338D01*
X52872102Y-49807798D01*
X52694998Y-49808910D01*
X52541146Y-49777347D01*
X52538243Y-49776277D01*
X52337109Y-49673452D01*
X52179385Y-49536560D01*
X52065628Y-49373937D01*
X51996396Y-49193921D01*
X51972248Y-49004849D01*
X51993742Y-48815057D01*
X52061435Y-48632884D01*
X52175886Y-48466666D01*
X52337653Y-48324741D01*
X52437094Y-48265159D01*
X52565909Y-48220869D01*
X52724726Y-48199026D01*
X52890405Y-48199965D01*
G37*
%TD.AperFunction*%
%TA.AperFunction,Profile*%
G36*
X37374541Y-44545044D02*
G01*
X37451533Y-44571215D01*
X37658817Y-44677619D01*
X37819018Y-44819773D01*
X37929693Y-44994278D01*
X37988397Y-45197735D01*
X37997663Y-45330594D01*
X37976554Y-45535898D01*
X37910501Y-45709601D01*
X37793141Y-45866859D01*
X37757333Y-45903160D01*
X37593053Y-46022111D01*
X37400116Y-46094962D01*
X37192263Y-46118936D01*
X36983237Y-46091257D01*
X36921187Y-46072053D01*
X36749707Y-45981937D01*
X36595968Y-45845096D01*
X36490762Y-45701532D01*
X36445687Y-45614982D01*
X36420610Y-45533405D01*
X36410243Y-45432952D01*
X36408933Y-45332462D01*
X36434622Y-45111818D01*
X36510408Y-44924011D01*
X36637802Y-44766747D01*
X36818316Y-44637736D01*
X36891729Y-44600057D01*
X37062125Y-44535732D01*
X37215993Y-44517758D01*
X37374541Y-44545044D01*
G37*
%TD.AperFunction*%
%TA.AperFunction,Profile*%
G36*
X37465782Y-55719103D02*
G01*
X37633228Y-55815733D01*
X37739269Y-55917054D01*
X37834966Y-56072205D01*
X37887100Y-56252946D01*
X37893511Y-56441430D01*
X37852040Y-56619810D01*
X37830158Y-56668258D01*
X37763173Y-56762271D01*
X37662836Y-56862480D01*
X37550510Y-56948986D01*
X37492137Y-56983122D01*
X37367677Y-57020914D01*
X37213146Y-57032641D01*
X37052917Y-57018901D01*
X36911360Y-56980294D01*
X36884477Y-56968194D01*
X36717753Y-56855771D01*
X36600565Y-56708721D01*
X36533643Y-56528372D01*
X36517717Y-56316052D01*
X36518414Y-56302053D01*
X36531751Y-56171766D01*
X36559571Y-56074892D01*
X36610031Y-55984556D01*
X36618526Y-55972112D01*
X36754096Y-55825087D01*
X36917172Y-55725754D01*
X37097188Y-55674633D01*
X37283580Y-55672243D01*
X37465782Y-55719103D01*
G37*
%TD.AperFunction*%
%TA.AperFunction,Profile*%
G36*
X39703985Y-52046946D02*
G01*
X39872580Y-52146479D01*
X40008091Y-52292445D01*
X40051837Y-52364201D01*
X40091891Y-52450489D01*
X40112158Y-52533149D01*
X40116970Y-52636725D01*
X40114295Y-52718014D01*
X40104472Y-52843824D01*
X40084651Y-52933105D01*
X40047595Y-53009884D01*
X40009317Y-53066582D01*
X39870514Y-53209626D01*
X39698987Y-53307311D01*
X39505807Y-53356189D01*
X39302049Y-53352815D01*
X39180429Y-53324626D01*
X39061340Y-53262396D01*
X38942099Y-53159458D01*
X38839025Y-53033442D01*
X38768441Y-52901978D01*
X38756854Y-52867063D01*
X38733317Y-52679330D01*
X38762567Y-52495463D01*
X38838016Y-52325922D01*
X38953073Y-52181165D01*
X39101149Y-52071653D01*
X39275654Y-52007845D01*
X39301036Y-52003278D01*
X39510680Y-51997870D01*
X39703985Y-52046946D01*
G37*
%TD.AperFunction*%
%TA.AperFunction,Profile*%
G36*
X40703341Y-42632996D02*
G01*
X40909411Y-42703553D01*
X41082413Y-42817702D01*
X41217961Y-42966885D01*
X41311669Y-43142545D01*
X41359150Y-43336124D01*
X41356019Y-43539066D01*
X41297890Y-43742814D01*
X41285825Y-43769420D01*
X41183960Y-43921241D01*
X41040499Y-44050196D01*
X40869508Y-44149398D01*
X40685051Y-44211961D01*
X40501192Y-44231000D01*
X40377685Y-44214049D01*
X40205962Y-44148030D01*
X40045924Y-44048498D01*
X39943461Y-43954479D01*
X39841484Y-43825523D01*
X39779886Y-43707932D01*
X39749652Y-43577930D01*
X39741771Y-43422673D01*
X39744982Y-43292752D01*
X39759011Y-43199296D01*
X39789207Y-43118398D01*
X39824309Y-43053917D01*
X39960185Y-42875458D01*
X40128084Y-42740328D01*
X40318731Y-42652969D01*
X40522851Y-42617821D01*
X40703341Y-42632996D01*
G37*
%TD.AperFunction*%
%TA.AperFunction,Profile*%
G36*
X40817863Y-38997891D02*
G01*
X41004487Y-39090933D01*
X41127816Y-39191591D01*
X41205345Y-39277153D01*
X41270843Y-39365168D01*
X41290933Y-39399029D01*
X41329065Y-39511812D01*
X41351769Y-39658600D01*
X41357125Y-39814300D01*
X41343212Y-39953820D01*
X41335847Y-39985666D01*
X41257171Y-40166748D01*
X41132786Y-40319933D01*
X40973229Y-40439927D01*
X40789040Y-40521438D01*
X40590757Y-40559172D01*
X40388920Y-40547836D01*
X40276835Y-40517572D01*
X40092096Y-40422915D01*
X39940164Y-40288054D01*
X39825691Y-40123150D01*
X39753330Y-39938363D01*
X39727732Y-39743856D01*
X39753549Y-39549789D01*
X39789015Y-39452029D01*
X39903559Y-39264786D01*
X40053172Y-39119772D01*
X40228630Y-39018782D01*
X40420713Y-38963609D01*
X40620198Y-38956047D01*
X40817863Y-38997891D01*
G37*
%TD.AperFunction*%
%TA.AperFunction,Profile*%
G36*
X41887339Y-52024344D02*
G01*
X42050530Y-52103499D01*
X42190039Y-52226868D01*
X42284210Y-52369529D01*
X42348818Y-52557089D01*
X42359311Y-52739037D01*
X42322189Y-52909179D01*
X42243955Y-53061322D01*
X42131109Y-53189269D01*
X41990155Y-53286826D01*
X41827592Y-53347799D01*
X41649925Y-53365993D01*
X41463652Y-53335213D01*
X41328859Y-53279772D01*
X41181802Y-53179810D01*
X41075338Y-53064989D01*
X41029339Y-52994157D01*
X41001988Y-52930409D01*
X40988515Y-52853946D01*
X40984152Y-52744966D01*
X40983890Y-52685212D01*
X40986199Y-52554549D01*
X40996084Y-52464481D01*
X41017978Y-52395066D01*
X41056318Y-52326359D01*
X41067502Y-52309203D01*
X41198524Y-52159821D01*
X41356057Y-52057142D01*
X41530063Y-52000668D01*
X41710504Y-51989901D01*
X41887339Y-52024344D01*
G37*
%TD.AperFunction*%
%TA.AperFunction,Profile*%
G36*
X42981755Y-31760705D02*
G01*
X43149448Y-31833294D01*
X43295152Y-31949815D01*
X43408771Y-32109887D01*
X43412382Y-32116945D01*
X43477967Y-32271895D01*
X43501739Y-32406306D01*
X43485371Y-32541870D01*
X43453004Y-32643551D01*
X43354195Y-32830437D01*
X43217153Y-32976620D01*
X43050146Y-33077295D01*
X42861440Y-33127657D01*
X42659302Y-33122898D01*
X42635799Y-33118645D01*
X42459261Y-33058388D01*
X42304850Y-32949182D01*
X42165954Y-32786016D01*
X42134217Y-32738306D01*
X42098445Y-32659077D01*
X42080095Y-32552641D01*
X42075653Y-32432966D01*
X42079028Y-32308325D01*
X42094309Y-32218250D01*
X42127977Y-32136932D01*
X42166792Y-32070044D01*
X42292998Y-31917271D01*
X42447693Y-31810331D01*
X42620781Y-31748843D01*
X42802167Y-31732428D01*
X42981755Y-31760705D01*
G37*
%TD.AperFunction*%
%TA.AperFunction,Profile*%
G36*
X44083602Y-40812268D02*
G01*
X44271625Y-40886713D01*
X44432703Y-41001042D01*
X44561311Y-41147281D01*
X44651925Y-41317453D01*
X44699021Y-41503586D01*
X44697076Y-41697704D01*
X44640566Y-41891832D01*
X44640489Y-41892005D01*
X44527614Y-42077502D01*
X44377888Y-42223661D01*
X44200897Y-42326681D01*
X44006230Y-42382766D01*
X43803475Y-42388116D01*
X43602218Y-42338933D01*
X43559107Y-42320423D01*
X43397627Y-42216548D01*
X43254733Y-42071311D01*
X43147027Y-41903450D01*
X43110704Y-41814271D01*
X43074391Y-41685209D01*
X43063410Y-41582421D01*
X43077790Y-41477614D01*
X43111142Y-41362180D01*
X43198423Y-41180911D01*
X43329425Y-41023618D01*
X43492214Y-40899316D01*
X43674860Y-40817019D01*
X43865431Y-40785744D01*
X43874156Y-40785680D01*
X44083602Y-40812268D01*
G37*
%TD.AperFunction*%
%TA.AperFunction,Profile*%
G36*
X45130720Y-38975052D02*
G01*
X45317968Y-39028879D01*
X45488401Y-39123719D01*
X45632052Y-39257606D01*
X45738958Y-39428572D01*
X45757951Y-39474663D01*
X45808711Y-39664125D01*
X45809294Y-39842044D01*
X45759705Y-40030889D01*
X45758046Y-40035347D01*
X45658444Y-40219988D01*
X45516614Y-40369225D01*
X45342779Y-40478051D01*
X45147159Y-40541460D01*
X44939976Y-40554445D01*
X44763590Y-40522452D01*
X44588731Y-40441451D01*
X44433536Y-40316320D01*
X44307671Y-40159575D01*
X44220800Y-39983734D01*
X44182587Y-39801314D01*
X44181623Y-39768727D01*
X44200450Y-39638788D01*
X44250359Y-39488003D01*
X44321488Y-39340232D01*
X44403976Y-39219335D01*
X44412864Y-39209205D01*
X44567728Y-39079314D01*
X44745635Y-38998303D01*
X44936621Y-38964205D01*
X45130720Y-38975052D01*
G37*
%TD.AperFunction*%
%TA.AperFunction,Profile*%
G36*
X45274127Y-46411923D02*
G01*
X45444969Y-46496730D01*
X45593587Y-46624176D01*
X45711180Y-46793850D01*
X45754277Y-46890856D01*
X45804050Y-47059118D01*
X45813738Y-47206454D01*
X45783601Y-47357181D01*
X45759988Y-47425094D01*
X45674153Y-47604094D01*
X45564088Y-47739046D01*
X45415837Y-47845643D01*
X45359305Y-47875705D01*
X45146332Y-47951227D01*
X44930197Y-47966231D01*
X44709881Y-47920779D01*
X44698521Y-47916844D01*
X44558784Y-47842037D01*
X44423434Y-47725546D01*
X44309548Y-47584965D01*
X44234516Y-47438783D01*
X44187109Y-47244139D01*
X44191358Y-47063416D01*
X44248435Y-46878824D01*
X44275257Y-46821588D01*
X44394612Y-46641903D01*
X44544552Y-46507331D01*
X44716275Y-46417459D01*
X44900979Y-46371875D01*
X45089864Y-46370167D01*
X45274127Y-46411923D01*
G37*
%TD.AperFunction*%
%TA.AperFunction,Profile*%
G36*
X47455122Y-50185312D02*
G01*
X47614304Y-50253546D01*
X47693249Y-50312127D01*
X47819567Y-50454419D01*
X47893522Y-50606402D01*
X47922860Y-50785639D01*
X47924126Y-50835770D01*
X47920904Y-50960266D01*
X47905792Y-51050163D01*
X47872332Y-51131237D01*
X47833208Y-51198692D01*
X47701534Y-51358497D01*
X47536663Y-51468653D01*
X47343567Y-51526141D01*
X47283668Y-51532486D01*
X47172312Y-51534777D01*
X47074820Y-51528154D01*
X47030591Y-51519307D01*
X46834126Y-51425138D01*
X46677743Y-51286923D01*
X46565662Y-51109493D01*
X46505843Y-50918648D01*
X46506117Y-50772832D01*
X46552804Y-50616250D01*
X46637276Y-50463537D01*
X46750907Y-50329331D01*
X46885067Y-50228268D01*
X46924701Y-50208100D01*
X47091637Y-50160061D01*
X47274672Y-50153308D01*
X47455122Y-50185312D01*
G37*
%TD.AperFunction*%
%TA.AperFunction,Profile*%
G36*
X47461204Y-31783316D02*
G01*
X47625041Y-31872828D01*
X47768212Y-31997134D01*
X47854243Y-32110007D01*
X47911547Y-32254917D01*
X47928019Y-32424218D01*
X47904323Y-32598112D01*
X47841127Y-32756803D01*
X47831955Y-32772218D01*
X47753419Y-32876171D01*
X47656990Y-32973603D01*
X47611633Y-33009668D01*
X47529921Y-33060622D01*
X47451061Y-33089989D01*
X47351121Y-33104637D01*
X47263782Y-33109508D01*
X47108886Y-33107426D01*
X46990887Y-33089204D01*
X46955012Y-33076668D01*
X46790548Y-32972972D01*
X46660479Y-32832993D01*
X46569813Y-32668121D01*
X46523561Y-32489746D01*
X46526729Y-32309256D01*
X46562514Y-32184170D01*
X46660404Y-32022910D01*
X46802747Y-31886055D01*
X46974724Y-31785304D01*
X47128150Y-31737704D01*
X47290856Y-31735856D01*
X47461204Y-31783316D01*
G37*
%TD.AperFunction*%
%TA.AperFunction,Profile*%
G36*
X50814302Y-37172839D02*
G01*
X50988935Y-37253333D01*
X51144945Y-37378961D01*
X51273838Y-37550961D01*
X51274414Y-37551964D01*
X51326040Y-37652877D01*
X51353553Y-37744322D01*
X51363930Y-37854642D01*
X51364871Y-37919369D01*
X51346251Y-38121930D01*
X51285286Y-38290557D01*
X51175229Y-38440383D01*
X51100552Y-38512210D01*
X50927296Y-38629618D01*
X50734527Y-38699985D01*
X50535871Y-38720292D01*
X50344950Y-38687520D01*
X50331038Y-38682737D01*
X50126352Y-38581619D01*
X49963854Y-38443157D01*
X49847573Y-38274077D01*
X49781538Y-38081108D01*
X49769778Y-37870977D01*
X49783950Y-37769169D01*
X49851103Y-37568382D01*
X49959093Y-37404064D01*
X50099427Y-37277453D01*
X50263608Y-37189787D01*
X50443144Y-37142304D01*
X50629540Y-37136242D01*
X50814302Y-37172839D01*
G37*
%TD.AperFunction*%
%TA.AperFunction,Profile*%
G36*
X51910202Y-46386372D02*
G01*
X52083653Y-46457597D01*
X52244483Y-46583073D01*
X52254005Y-46592421D01*
X52382078Y-46743234D01*
X52459406Y-46898331D01*
X52494056Y-47076688D01*
X52497849Y-47165991D01*
X52494316Y-47295190D01*
X52476767Y-47392820D01*
X52438540Y-47487486D01*
X52410527Y-47540936D01*
X52287212Y-47709078D01*
X52126754Y-47841589D01*
X51941141Y-47933098D01*
X51742360Y-47978232D01*
X51542398Y-47971618D01*
X51480431Y-47957781D01*
X51276376Y-47873899D01*
X51106560Y-47748023D01*
X50976367Y-47588516D01*
X50891185Y-47403742D01*
X50856399Y-47202066D01*
X50872484Y-47013721D01*
X50944978Y-46803375D01*
X51063582Y-46629096D01*
X51222791Y-46495159D01*
X51417100Y-46405838D01*
X51641005Y-46365407D01*
X51709956Y-46363434D01*
X51910202Y-46386372D01*
G37*
%TD.AperFunction*%
%TA.AperFunction,Profile*%
G36*
X54110939Y-38994795D02*
G01*
X54295866Y-39071808D01*
X54461739Y-39188834D01*
X54576039Y-39314610D01*
X54630940Y-39396080D01*
X54664343Y-39465937D01*
X54682583Y-39545447D01*
X54691994Y-39655877D01*
X54694682Y-39712946D01*
X54692730Y-39894919D01*
X54664458Y-40038609D01*
X54602758Y-40163230D01*
X54500520Y-40287996D01*
X54470542Y-40318715D01*
X54312014Y-40436806D01*
X54122701Y-40512694D01*
X53918403Y-40542971D01*
X53714918Y-40524225D01*
X53630786Y-40499953D01*
X53442685Y-40403320D01*
X53293607Y-40266992D01*
X53186810Y-40100223D01*
X53125555Y-39912266D01*
X53113101Y-39712375D01*
X53152709Y-39509803D01*
X53225515Y-39349558D01*
X53354852Y-39186630D01*
X53523393Y-39065251D01*
X53721966Y-38990442D01*
X53924337Y-38967065D01*
X54110939Y-38994795D01*
G37*
%TD.AperFunction*%
%TA.AperFunction,Profile*%
G36*
X36303821Y-42636137D02*
G01*
X36499782Y-42717269D01*
X36617660Y-42798419D01*
X36761783Y-42952241D01*
X36856784Y-43130113D01*
X36903758Y-43322211D01*
X36903801Y-43518713D01*
X36858010Y-43709797D01*
X36767478Y-43885640D01*
X36633303Y-44036419D01*
X36467216Y-44147096D01*
X36312838Y-44202036D01*
X36138126Y-44229609D01*
X35967534Y-44227793D01*
X35837147Y-44199144D01*
X35630483Y-44090971D01*
X35459202Y-43936320D01*
X35384996Y-43836652D01*
X35335882Y-43755523D01*
X35306381Y-43687217D01*
X35291637Y-43611341D01*
X35286798Y-43507503D01*
X35286629Y-43423366D01*
X35294173Y-43252352D01*
X35320637Y-43121200D01*
X35374222Y-43010107D01*
X35463129Y-42899270D01*
X35533049Y-42828331D01*
X35702596Y-42703358D01*
X35894636Y-42629473D01*
X36098575Y-42606969D01*
X36303821Y-42636137D01*
G37*
%TD.AperFunction*%
%TA.AperFunction,Profile*%
G36*
X37381379Y-40787484D02*
G01*
X37563987Y-40855101D01*
X37725982Y-40963909D01*
X37859830Y-41107441D01*
X37957997Y-41279231D01*
X38012948Y-41472814D01*
X38017150Y-41681724D01*
X38016504Y-41687398D01*
X37985540Y-41846192D01*
X37927115Y-41980127D01*
X37829584Y-42114484D01*
X37808544Y-42138881D01*
X37658488Y-42266004D01*
X37476214Y-42350888D01*
X37275382Y-42390917D01*
X37069653Y-42383475D01*
X36872687Y-42325946D01*
X36860539Y-42320423D01*
X36731643Y-42240758D01*
X36607206Y-42130189D01*
X36502775Y-42005412D01*
X36433897Y-41883119D01*
X36422724Y-41850258D01*
X36390472Y-41629624D01*
X36413466Y-41416045D01*
X36486985Y-41218337D01*
X36606306Y-41045314D01*
X36766707Y-40905790D01*
X36963465Y-40808582D01*
X36984460Y-40801684D01*
X37185692Y-40767523D01*
X37381379Y-40787484D01*
G37*
%TD.AperFunction*%
%TA.AperFunction,Profile*%
G36*
X39689790Y-48360557D02*
G01*
X39857616Y-48461862D01*
X40003272Y-48618149D01*
X40012835Y-48631520D01*
X40059083Y-48702619D01*
X40086606Y-48766331D01*
X40100188Y-48842460D01*
X40104613Y-48950807D01*
X40104892Y-49012542D01*
X40102839Y-49141597D01*
X40093584Y-49229846D01*
X40072487Y-49297053D01*
X40034909Y-49362977D01*
X40016089Y-49390725D01*
X39886693Y-49528009D01*
X39723110Y-49626585D01*
X39539837Y-49681776D01*
X39351373Y-49688902D01*
X39199449Y-49654244D01*
X39014124Y-49555502D01*
X38871670Y-49415938D01*
X38776390Y-49241287D01*
X38732588Y-49037281D01*
X38732176Y-49031667D01*
X38747823Y-48845375D01*
X38816545Y-48673744D01*
X38931063Y-48525754D01*
X39084099Y-48410382D01*
X39268375Y-48336609D01*
X39301832Y-48328943D01*
X39503345Y-48315748D01*
X39689790Y-48360557D01*
G37*
%TD.AperFunction*%
%TA.AperFunction,Profile*%
G36*
X43023308Y-42658900D02*
G01*
X43208385Y-42745986D01*
X43367005Y-42875523D01*
X43489903Y-43041462D01*
X43567816Y-43237751D01*
X43574226Y-43265509D01*
X43594196Y-43381087D01*
X43594519Y-43473373D01*
X43573927Y-43575903D01*
X43560708Y-43623309D01*
X43512231Y-43748812D01*
X43445458Y-43872043D01*
X43405517Y-43928306D01*
X43266125Y-44056732D01*
X43092526Y-44152734D01*
X42902331Y-44209847D01*
X42713151Y-44221603D01*
X42635799Y-44210955D01*
X42423413Y-44136716D01*
X42240573Y-44011568D01*
X42094127Y-43840816D01*
X42042395Y-43751440D01*
X41978186Y-43562544D01*
X41968146Y-43368583D01*
X42007545Y-43178835D01*
X42091653Y-43002579D01*
X42215739Y-42849095D01*
X42375074Y-42727661D01*
X42564928Y-42647557D01*
X42610845Y-42636289D01*
X42821040Y-42620317D01*
X43023308Y-42658900D01*
G37*
%TD.AperFunction*%
%TA.AperFunction,Profile*%
G36*
X43044779Y-39004732D02*
G01*
X43215702Y-39086514D01*
X43365175Y-39209559D01*
X43484725Y-39373081D01*
X43562926Y-39565433D01*
X43589756Y-39669508D01*
X43599843Y-39746405D01*
X43593010Y-39822334D01*
X43569079Y-39923503D01*
X43560275Y-39956286D01*
X43475267Y-40161098D01*
X43342818Y-40329424D01*
X43166795Y-40457066D01*
X43051428Y-40508915D01*
X42893418Y-40556559D01*
X42757328Y-40568684D01*
X42616221Y-40545655D01*
X42520771Y-40516094D01*
X42318012Y-40417548D01*
X42157642Y-40279445D01*
X42043838Y-40107461D01*
X41980776Y-39907276D01*
X41968974Y-39765818D01*
X41978766Y-39615861D01*
X42012879Y-39491429D01*
X42043315Y-39424550D01*
X42164991Y-39242258D01*
X42316059Y-39105943D01*
X42488046Y-39014818D01*
X42672477Y-38968099D01*
X42860880Y-38964998D01*
X43044779Y-39004732D01*
G37*
%TD.AperFunction*%
%TA.AperFunction,Profile*%
G36*
X45091095Y-57591635D02*
G01*
X45201503Y-57627491D01*
X45259263Y-57653354D01*
X45413580Y-57760391D01*
X45522565Y-57895808D01*
X45586437Y-58049573D01*
X45605414Y-58211654D01*
X45579717Y-58372021D01*
X45509563Y-58520642D01*
X45395173Y-58647485D01*
X45236765Y-58742519D01*
X45235464Y-58743064D01*
X45057266Y-58785989D01*
X44873093Y-58773623D01*
X44727809Y-58721778D01*
X44623277Y-58652938D01*
X44525227Y-58564318D01*
X44501637Y-58537103D01*
X44452438Y-58469295D01*
X44424530Y-58406952D01*
X44412007Y-58328663D01*
X44408961Y-58213016D01*
X44408950Y-58201099D01*
X44412088Y-58077745D01*
X44425319Y-57992125D01*
X44454361Y-57921512D01*
X44495730Y-57856348D01*
X44597822Y-57748112D01*
X44732832Y-57657570D01*
X44878899Y-57596807D01*
X45000000Y-57577566D01*
X45091095Y-57591635D01*
G37*
%TD.AperFunction*%
%TA.AperFunction,Profile*%
G36*
X45160050Y-24534274D02*
G01*
X45285812Y-24570633D01*
X45391627Y-24642624D01*
X45496616Y-24759565D01*
X45507766Y-24774038D01*
X45552853Y-24841010D01*
X45578094Y-24907217D01*
X45588980Y-24994162D01*
X45591050Y-25100120D01*
X45588111Y-25221033D01*
X45575525Y-25303164D01*
X45547637Y-25368221D01*
X45505244Y-25429507D01*
X45361226Y-25576466D01*
X45197509Y-25668130D01*
X45018375Y-25702783D01*
X44862265Y-25687292D01*
X44707431Y-25623291D01*
X44573312Y-25512733D01*
X44470084Y-25368755D01*
X44407921Y-25204498D01*
X44394293Y-25082972D01*
X44424188Y-24918710D01*
X44508793Y-24761346D01*
X44642313Y-24621554D01*
X44646650Y-24618037D01*
X44711829Y-24569664D01*
X44771067Y-24541536D01*
X44844475Y-24528240D01*
X44952169Y-24524361D01*
X44995218Y-24524225D01*
X45160050Y-24534274D01*
G37*
%TD.AperFunction*%
%TA.AperFunction,Profile*%
G36*
X47429910Y-42657486D02*
G01*
X47622510Y-42729013D01*
X47742643Y-42807253D01*
X47870634Y-42944460D01*
X47966749Y-43118161D01*
X48021689Y-43308591D01*
X48031026Y-43420312D01*
X48017408Y-43594652D01*
X47970686Y-43739389D01*
X47882060Y-43876528D01*
X47819783Y-43948584D01*
X47663056Y-44087496D01*
X47493613Y-44171957D01*
X47297533Y-44208048D01*
X47220557Y-44210379D01*
X47092343Y-44205018D01*
X46992691Y-44184031D01*
X46890007Y-44139255D01*
X46839163Y-44111830D01*
X46656382Y-43982136D01*
X46527736Y-43825671D01*
X46452205Y-43640511D01*
X46428769Y-43424734D01*
X46432368Y-43345528D01*
X46461189Y-43169392D01*
X46523074Y-43024700D01*
X46628614Y-42889240D01*
X46669770Y-42847666D01*
X46832775Y-42729638D01*
X47022298Y-42658279D01*
X47225591Y-42634068D01*
X47429910Y-42657486D01*
G37*
%TD.AperFunction*%
%TA.AperFunction,Profile*%
G36*
X48466370Y-40803766D02*
G01*
X48619849Y-40851650D01*
X48765657Y-40919770D01*
X48836413Y-40965003D01*
X48972635Y-41099030D01*
X49072230Y-41266283D01*
X49131071Y-41452424D01*
X49145030Y-41643112D01*
X49109980Y-41824010D01*
X49094711Y-41862367D01*
X49006050Y-42031886D01*
X48904845Y-42157316D01*
X48776748Y-42255163D01*
X48729641Y-42282308D01*
X48523128Y-42361903D01*
X48308167Y-42383107D01*
X48093245Y-42345234D01*
X48066342Y-42336147D01*
X47877964Y-42240456D01*
X47728553Y-42107424D01*
X47620073Y-41946340D01*
X47554489Y-41766492D01*
X47533766Y-41577170D01*
X47559869Y-41387661D01*
X47634760Y-41207254D01*
X47760407Y-41045239D01*
X47787852Y-41019386D01*
X47930604Y-40915961D01*
X48093737Y-40837078D01*
X48254965Y-40792307D01*
X48332108Y-40785680D01*
X48466370Y-40803766D01*
G37*
%TD.AperFunction*%
%TA.AperFunction,Profile*%
G36*
X49686715Y-50171891D02*
G01*
X49862731Y-50266096D01*
X50011612Y-50412389D01*
X50039016Y-50449812D01*
X50094283Y-50539228D01*
X50126139Y-50623177D01*
X50142415Y-50727308D01*
X50147746Y-50805990D01*
X50149943Y-50939224D01*
X50137717Y-51036064D01*
X50107592Y-51119739D01*
X50097850Y-51139402D01*
X49978042Y-51311968D01*
X49824300Y-51439723D01*
X49645722Y-51518962D01*
X49451410Y-51545985D01*
X49250461Y-51517086D01*
X49205487Y-51502578D01*
X49024029Y-51407783D01*
X48879951Y-51269403D01*
X48800972Y-51140182D01*
X48737423Y-50942794D01*
X48733992Y-50753013D01*
X48790614Y-50571171D01*
X48907223Y-50397597D01*
X48956692Y-50344361D01*
X49054614Y-50253460D01*
X49139381Y-50197336D01*
X49234105Y-50162184D01*
X49280979Y-50150675D01*
X49490490Y-50132506D01*
X49686715Y-50171891D01*
G37*
%TD.AperFunction*%
%TA.AperFunction,Profile*%
G36*
X36297368Y-57641478D02*
G01*
X36453757Y-57725107D01*
X36552078Y-57817834D01*
X36630463Y-57954095D01*
X36669630Y-58118019D01*
X36667820Y-58289609D01*
X36623275Y-58448865D01*
X36609956Y-58475852D01*
X36552257Y-58552640D01*
X36466592Y-58633906D01*
X36373494Y-58702690D01*
X36293496Y-58742030D01*
X36285243Y-58744073D01*
X36161925Y-58766994D01*
X36078195Y-58774997D01*
X36015351Y-58769818D01*
X36013007Y-58769362D01*
X35931297Y-58752673D01*
X35884744Y-58742893D01*
X35782434Y-58695165D01*
X35679112Y-58604388D01*
X35586933Y-58486685D01*
X35518054Y-58358181D01*
X35484630Y-58235001D01*
X35483243Y-58210315D01*
X35499689Y-58096531D01*
X35543143Y-57966434D01*
X35602373Y-57849257D01*
X35642731Y-57795229D01*
X35785814Y-57682932D01*
X35950927Y-57620081D01*
X36125601Y-57606366D01*
X36297368Y-57641478D01*
G37*
%TD.AperFunction*%
%TA.AperFunction,Profile*%
G36*
X38515026Y-57636222D02*
G01*
X38552465Y-57649727D01*
X38659547Y-57716464D01*
X38765138Y-57815617D01*
X38847824Y-57925214D01*
X38875468Y-57981150D01*
X38906905Y-58142572D01*
X38890775Y-58312921D01*
X38832103Y-58474069D01*
X38735919Y-58607888D01*
X38690579Y-58647803D01*
X38614400Y-58692588D01*
X38513190Y-58735984D01*
X38409604Y-58769944D01*
X38326300Y-58786425D01*
X38301432Y-58785989D01*
X38264951Y-58778339D01*
X38192121Y-58762249D01*
X38163697Y-58755870D01*
X38001593Y-58691637D01*
X37874127Y-58586539D01*
X37784233Y-58451382D01*
X37734846Y-58296969D01*
X37728901Y-58134107D01*
X37769331Y-57973601D01*
X37859072Y-57826254D01*
X37899446Y-57782905D01*
X37983097Y-57711440D01*
X38065902Y-57655885D01*
X38098811Y-57639991D01*
X38227407Y-57612935D01*
X38377098Y-57611914D01*
X38515026Y-57636222D01*
G37*
%TD.AperFunction*%
%TA.AperFunction,Profile*%
G36*
X39661398Y-33594021D02*
G01*
X39835865Y-33684786D01*
X39894680Y-33731446D01*
X40035549Y-33890415D01*
X40121431Y-34067452D01*
X40150763Y-34255975D01*
X40121980Y-34449399D01*
X40087190Y-34541766D01*
X39999668Y-34696229D01*
X39890587Y-34808448D01*
X39772371Y-34882156D01*
X39649133Y-34925045D01*
X39495634Y-34950522D01*
X39339134Y-34956091D01*
X39206889Y-34939257D01*
X39192659Y-34935219D01*
X39094551Y-34885976D01*
X38983301Y-34802346D01*
X38877891Y-34701352D01*
X38797303Y-34600018D01*
X38775073Y-34560715D01*
X38742668Y-34450808D01*
X38726839Y-34301267D01*
X38725775Y-34247595D01*
X38729820Y-34123568D01*
X38746374Y-34033891D01*
X38782067Y-33952578D01*
X38815086Y-33897532D01*
X38946615Y-33741123D01*
X39107289Y-33630986D01*
X39286831Y-33568703D01*
X39474960Y-33555854D01*
X39661398Y-33594021D01*
G37*
%TD.AperFunction*%
%TA.AperFunction,Profile*%
G36*
X44068348Y-30023292D02*
G01*
X44215805Y-30097742D01*
X44341097Y-30208494D01*
X44435748Y-30344965D01*
X44491279Y-30496573D01*
X44499212Y-30652736D01*
X44486005Y-30718210D01*
X44414335Y-30883681D01*
X44306857Y-31025668D01*
X44215777Y-31101432D01*
X44126389Y-31144584D01*
X44015017Y-31178585D01*
X43904956Y-31198219D01*
X43819504Y-31198271D01*
X43802744Y-31193913D01*
X43752327Y-31179369D01*
X43689637Y-31164385D01*
X43597611Y-31123152D01*
X43495064Y-31046075D01*
X43401427Y-30950012D01*
X43341294Y-30862148D01*
X43309898Y-30765655D01*
X43293249Y-30636189D01*
X43291792Y-30586277D01*
X43297935Y-30464636D01*
X43322333Y-30372910D01*
X43373118Y-30281241D01*
X43376148Y-30276647D01*
X43491318Y-30152464D01*
X43643622Y-30058022D01*
X43812599Y-30004144D01*
X43907204Y-29995726D01*
X44068348Y-30023292D01*
G37*
%TD.AperFunction*%
%TA.AperFunction,Profile*%
G36*
X45126343Y-50168347D02*
G01*
X45215698Y-50176315D01*
X45282702Y-50195181D01*
X45346474Y-50229517D01*
X45395177Y-50262245D01*
X45543677Y-50397940D01*
X45643920Y-50558355D01*
X45696479Y-50733613D01*
X45701927Y-50913841D01*
X45660837Y-51089161D01*
X45573782Y-51249701D01*
X45441335Y-51385583D01*
X45325732Y-51458811D01*
X45203293Y-51503352D01*
X45059190Y-51529897D01*
X44919491Y-51535341D01*
X44817942Y-51519269D01*
X44622568Y-51428654D01*
X44468943Y-51302838D01*
X44360458Y-51149565D01*
X44300503Y-50976576D01*
X44292472Y-50791612D01*
X44339753Y-50602417D01*
X44379623Y-50518608D01*
X44468688Y-50389319D01*
X44575777Y-50280727D01*
X44601480Y-50260970D01*
X44670560Y-50214806D01*
X44731525Y-50186803D01*
X44803174Y-50172462D01*
X44904309Y-50167286D01*
X44995513Y-50166707D01*
X45126343Y-50168347D01*
G37*
%TD.AperFunction*%
%TA.AperFunction,Profile*%
G36*
X46174145Y-33579931D02*
G01*
X46365141Y-33618439D01*
X46526566Y-33704124D01*
X46667692Y-33842527D01*
X46711683Y-33901131D01*
X46761004Y-33978351D01*
X46788731Y-34048523D01*
X46800878Y-34134581D01*
X46803460Y-34251229D01*
X46799965Y-34376867D01*
X46785312Y-34467139D01*
X46753254Y-34547104D01*
X46711728Y-34619118D01*
X46582586Y-34773418D01*
X46418749Y-34882720D01*
X46230112Y-34943094D01*
X46026571Y-34950609D01*
X45921270Y-34933073D01*
X45775201Y-34870456D01*
X45638378Y-34761700D01*
X45522121Y-34621254D01*
X45437747Y-34463566D01*
X45396574Y-34303082D01*
X45394329Y-34260423D01*
X45422700Y-34080263D01*
X45502969Y-33910373D01*
X45626472Y-33763648D01*
X45784545Y-33652983D01*
X45811140Y-33640090D01*
X45919334Y-33596385D01*
X46013365Y-33576901D01*
X46124453Y-33576462D01*
X46174145Y-33579931D01*
G37*
%TD.AperFunction*%
%TA.AperFunction,Profile*%
G36*
X47265536Y-46369298D02*
G01*
X47481801Y-46406807D01*
X47662246Y-46488251D01*
X47809562Y-46610172D01*
X47931486Y-46777635D01*
X48004818Y-46966588D01*
X48029874Y-47165684D01*
X48006971Y-47363572D01*
X47936426Y-47548905D01*
X47818555Y-47710333D01*
X47777783Y-47749117D01*
X47637127Y-47856525D01*
X47499281Y-47921423D01*
X47339197Y-47954001D01*
X47258114Y-47960564D01*
X47128629Y-47963412D01*
X47031619Y-47951559D01*
X46939789Y-47920436D01*
X46894391Y-47899651D01*
X46706026Y-47780396D01*
X46563191Y-47631078D01*
X46466054Y-47460189D01*
X46414780Y-47276221D01*
X46409538Y-47087665D01*
X46450496Y-46903014D01*
X46537819Y-46730759D01*
X46671676Y-46579392D01*
X46852233Y-46457405D01*
X46865845Y-46450569D01*
X46977729Y-46398999D01*
X47064553Y-46372078D01*
X47153798Y-46364220D01*
X47265536Y-46369298D01*
G37*
%TD.AperFunction*%
%TA.AperFunction,Profile*%
G36*
X40743943Y-46396950D02*
G01*
X40938852Y-46473678D01*
X41109425Y-46600227D01*
X41247416Y-46772999D01*
X41278747Y-46828503D01*
X41324462Y-46963336D01*
X41345011Y-47127650D01*
X41339931Y-47296491D01*
X41308764Y-47444907D01*
X41290946Y-47488785D01*
X41203052Y-47623300D01*
X41078445Y-47754165D01*
X40938418Y-47860118D01*
X40893851Y-47885279D01*
X40742536Y-47936772D01*
X40564732Y-47957937D01*
X40387238Y-47947343D01*
X40272423Y-47918427D01*
X40128015Y-47840471D01*
X39988062Y-47721690D01*
X39869061Y-47579499D01*
X39787512Y-47431312D01*
X39773985Y-47392298D01*
X39740414Y-47265219D01*
X39729123Y-47166504D01*
X39740079Y-47068152D01*
X39773249Y-46942162D01*
X39773449Y-46941488D01*
X39853696Y-46768636D01*
X39979948Y-46612491D01*
X40137633Y-46487450D01*
X40312180Y-46407909D01*
X40314090Y-46407355D01*
X40532941Y-46373642D01*
X40743943Y-46396950D01*
G37*
%TD.AperFunction*%
%TA.AperFunction,Profile*%
G36*
X46371301Y-48361045D02*
G01*
X46544703Y-48460037D01*
X46685929Y-48603580D01*
X46736176Y-48681504D01*
X46783590Y-48776391D01*
X46807406Y-48859816D01*
X46813461Y-48959426D01*
X46811096Y-49036343D01*
X46800036Y-49162864D01*
X46775743Y-49255373D01*
X46730258Y-49340247D01*
X46710766Y-49368910D01*
X46627837Y-49467498D01*
X46528221Y-49560543D01*
X46493798Y-49586820D01*
X46412646Y-49636665D01*
X46330986Y-49666014D01*
X46225435Y-49681597D01*
X46146076Y-49686874D01*
X45973659Y-49686266D01*
X45852979Y-49664422D01*
X45833532Y-49656687D01*
X45669683Y-49551565D01*
X45536263Y-49406426D01*
X45442364Y-49234950D01*
X45397076Y-49050822D01*
X45394329Y-48995645D01*
X45422475Y-48820996D01*
X45500734Y-48654487D01*
X45618732Y-48508301D01*
X45766098Y-48394623D01*
X45932458Y-48325641D01*
X45971612Y-48317496D01*
X46176633Y-48311800D01*
X46371301Y-48361045D01*
G37*
%TD.AperFunction*%
%TA.AperFunction,Profile*%
G36*
X47400369Y-53833423D02*
G01*
X47537816Y-53875575D01*
X47543457Y-53878385D01*
X47642292Y-53943287D01*
X47733166Y-54025182D01*
X47744060Y-54037514D01*
X47863644Y-54219731D01*
X47925986Y-54409899D01*
X47932021Y-54600449D01*
X47882685Y-54783815D01*
X47778914Y-54952429D01*
X47621643Y-55098723D01*
X47611988Y-55105600D01*
X47529823Y-55156801D01*
X47450380Y-55186370D01*
X47349651Y-55201247D01*
X47263782Y-55206225D01*
X47117171Y-55205969D01*
X47006999Y-55188829D01*
X46924701Y-55158413D01*
X46772304Y-55056801D01*
X46642498Y-54912400D01*
X46549669Y-54742483D01*
X46529728Y-54684189D01*
X46502966Y-54580850D01*
X46496354Y-54503410D01*
X46509891Y-54420597D01*
X46529728Y-54348270D01*
X46606362Y-54175287D01*
X46723730Y-54022153D01*
X46867599Y-53905900D01*
X46924701Y-53875642D01*
X47068608Y-53833345D01*
X47235565Y-53819310D01*
X47400369Y-53833423D01*
G37*
%TD.AperFunction*%
%TA.AperFunction,Profile*%
G36*
X36222763Y-46390183D02*
G01*
X36361535Y-46416877D01*
X36373114Y-46420662D01*
X36507985Y-46490960D01*
X36643712Y-46603089D01*
X36762547Y-46741184D01*
X36805647Y-46807338D01*
X36865227Y-46960849D01*
X36887778Y-47140692D01*
X36872876Y-47324874D01*
X36820094Y-47491405D01*
X36818926Y-47493832D01*
X36712668Y-47655566D01*
X36568490Y-47793923D01*
X36403774Y-47893734D01*
X36328642Y-47921718D01*
X36171001Y-47958698D01*
X36035679Y-47963199D01*
X35893437Y-47934631D01*
X35821226Y-47911468D01*
X35653662Y-47826861D01*
X35502243Y-47701280D01*
X35386022Y-47551688D01*
X35358389Y-47499404D01*
X35315164Y-47353748D01*
X35299887Y-47180327D01*
X35312378Y-47004810D01*
X35352457Y-46852865D01*
X35363107Y-46828919D01*
X35452775Y-46693106D01*
X35579247Y-46563719D01*
X35720474Y-46461728D01*
X35781450Y-46431003D01*
X35906274Y-46397708D01*
X36062194Y-46383948D01*
X36222763Y-46390183D01*
G37*
%TD.AperFunction*%
%TA.AperFunction,Profile*%
G36*
X54009848Y-46344551D02*
G01*
X54141700Y-46377185D01*
X54151076Y-46379953D01*
X54309877Y-46452819D01*
X54462506Y-46568022D01*
X54589195Y-46708821D01*
X54643807Y-46797195D01*
X54701165Y-46963633D01*
X54723630Y-47156019D01*
X54708786Y-47349119D01*
X54700410Y-47388625D01*
X54628910Y-47563539D01*
X54510010Y-47716952D01*
X54355105Y-47842127D01*
X54175590Y-47932325D01*
X53982862Y-47980807D01*
X53788315Y-47980836D01*
X53720793Y-47967878D01*
X53576737Y-47920529D01*
X53456621Y-47850227D01*
X53337676Y-47742836D01*
X53308706Y-47712072D01*
X53196518Y-47572940D01*
X53129266Y-47439131D01*
X53098040Y-47288111D01*
X53092840Y-47165991D01*
X53104175Y-46995333D01*
X53143948Y-46855560D01*
X53220815Y-46725468D01*
X53320610Y-46607912D01*
X53434743Y-46501935D01*
X53553953Y-46431074D01*
X53646568Y-46395099D01*
X53787945Y-46352738D01*
X53900484Y-46336146D01*
X54009848Y-46344551D01*
G37*
%TD.AperFunction*%
%TA.AperFunction,Profile*%
G36*
X36112924Y-38943845D02*
G01*
X36119093Y-38944270D01*
X36346247Y-38986509D01*
X36542087Y-39076036D01*
X36701308Y-39207391D01*
X36818605Y-39375116D01*
X36888670Y-39573751D01*
X36907160Y-39755132D01*
X36879570Y-39968891D01*
X36802018Y-40158897D01*
X36682330Y-40319705D01*
X36528333Y-40445873D01*
X36347853Y-40531959D01*
X36148716Y-40572520D01*
X35938750Y-40562113D01*
X35799708Y-40525274D01*
X35628216Y-40435148D01*
X35474326Y-40298188D01*
X35368884Y-40154511D01*
X35327054Y-40076145D01*
X35302021Y-40003218D01*
X35289641Y-39915602D01*
X35285768Y-39793169D01*
X35285644Y-39750278D01*
X35286956Y-39621427D01*
X35294542Y-39532855D01*
X35314023Y-39464226D01*
X35351020Y-39395203D01*
X35406885Y-39311653D01*
X35496385Y-39196492D01*
X35592177Y-39112018D01*
X35720036Y-39035660D01*
X35725059Y-39033039D01*
X35835799Y-38978677D01*
X35920201Y-38949556D01*
X36003998Y-38939878D01*
X36112924Y-38943845D01*
G37*
%TD.AperFunction*%
%TA.AperFunction,Profile*%
G36*
X54159722Y-42678452D02*
G01*
X54346403Y-42765096D01*
X54503839Y-42896865D01*
X54622412Y-43069240D01*
X54625859Y-43076197D01*
X54667798Y-43169584D01*
X54690532Y-43249471D01*
X54698005Y-43339541D01*
X54694160Y-43463479D01*
X54693191Y-43480617D01*
X54682976Y-43609065D01*
X54665649Y-43699320D01*
X54634261Y-43773811D01*
X54581866Y-43854964D01*
X54573664Y-43866456D01*
X54461943Y-43990667D01*
X54315888Y-44091758D01*
X54277865Y-44112232D01*
X54082363Y-44190490D01*
X53896318Y-44213388D01*
X53706793Y-44181120D01*
X53559020Y-44122940D01*
X53374814Y-44009052D01*
X53242156Y-43864731D01*
X53159309Y-43687156D01*
X53124536Y-43473508D01*
X53123150Y-43415260D01*
X53126392Y-43289860D01*
X53140471Y-43199432D01*
X53171917Y-43118480D01*
X53221659Y-43030691D01*
X53358631Y-42856135D01*
X53526610Y-42733318D01*
X53727865Y-42660600D01*
X53737095Y-42658615D01*
X53953413Y-42641452D01*
X54159722Y-42678452D01*
G37*
%TD.AperFunction*%
%TA.AperFunction,Profile*%
G36*
X37256160Y-37124783D02*
G01*
X37396308Y-37139099D01*
X37501579Y-37165477D01*
X37597514Y-37211045D01*
X37625639Y-37227878D01*
X37799197Y-37367176D01*
X37924350Y-37534848D01*
X38000336Y-37721891D01*
X38026398Y-37919302D01*
X38001777Y-38118076D01*
X37925712Y-38309211D01*
X37797445Y-38483703D01*
X37736477Y-38542356D01*
X37647383Y-38611310D01*
X37556950Y-38667408D01*
X37528234Y-38681190D01*
X37406517Y-38716720D01*
X37262413Y-38737087D01*
X37124599Y-38739513D01*
X37043556Y-38728132D01*
X36858820Y-38655220D01*
X36686602Y-38540844D01*
X36542432Y-38397882D01*
X36441839Y-38239207D01*
X36435039Y-38223606D01*
X36406381Y-38111098D01*
X36393814Y-37965154D01*
X36397887Y-37810932D01*
X36419149Y-37673590D01*
X36422724Y-37660005D01*
X36480639Y-37537180D01*
X36580713Y-37409027D01*
X36708222Y-37291188D01*
X36848447Y-37199303D01*
X36863548Y-37191680D01*
X36959940Y-37148561D01*
X37041840Y-37125983D01*
X37134500Y-37119642D01*
X37256160Y-37124783D01*
G37*
%TD.AperFunction*%
%TA.AperFunction,Profile*%
G36*
X38390818Y-17597690D02*
G01*
X38474750Y-17659941D01*
X38508687Y-17748922D01*
X38488361Y-17851564D01*
X38479431Y-17869022D01*
X38411612Y-17936010D01*
X38320469Y-17959030D01*
X38226641Y-17935850D01*
X38180142Y-17901383D01*
X38130278Y-17815368D01*
X38135770Y-17722697D01*
X38194868Y-17637061D01*
X38216148Y-17619583D01*
X38281234Y-17580257D01*
X38338833Y-17579220D01*
X38390818Y-17597690D01*
G37*
%TD.AperFunction*%
%TA.AperFunction,Profile*%
G36*
X40615542Y-17276345D02*
G01*
X40764639Y-17331854D01*
X40786209Y-17343256D01*
X40929698Y-17449759D01*
X41019869Y-17582626D01*
X41054942Y-17738748D01*
X41052908Y-17809542D01*
X41010378Y-17968966D01*
X40923188Y-18099757D01*
X40802398Y-18196309D01*
X40659068Y-18253013D01*
X40504255Y-18264261D01*
X40349020Y-18224445D01*
X40292694Y-18195046D01*
X40158817Y-18083821D01*
X40075094Y-17949725D01*
X40040980Y-17803118D01*
X40055930Y-17654362D01*
X40119400Y-17513818D01*
X40230844Y-17391849D01*
X40338589Y-17322312D01*
X40478462Y-17273395D01*
X40615542Y-17276345D01*
G37*
%TD.AperFunction*%
%TA.AperFunction,Profile*%
G36*
X36212443Y-17275174D02*
G01*
X36354731Y-17336129D01*
X36477687Y-17444265D01*
X36569486Y-17595144D01*
X36608115Y-17696415D01*
X36620358Y-17772087D01*
X36609655Y-17849338D01*
X36604303Y-17870209D01*
X36532290Y-18027299D01*
X36413905Y-18158707D01*
X36287053Y-18238493D01*
X36150272Y-18284809D01*
X36027975Y-18285733D01*
X35907823Y-18247470D01*
X35777523Y-18174192D01*
X35683817Y-18075607D01*
X35630903Y-17985993D01*
X35579307Y-17828147D01*
X35588003Y-17673012D01*
X35655802Y-17520072D01*
X35772504Y-17383849D01*
X35911038Y-17298188D01*
X36061115Y-17262245D01*
X36212443Y-17275174D01*
G37*
%TD.AperFunction*%
%TD*%
M02*
