%TF.GenerationSoftware,KiCad,Pcbnew,7.0.5*%
%TF.CreationDate,2024-12-07T14:54:08-05:00*%
%TF.ProjectId,servo_cutout,73657276-6f5f-4637-9574-6f75742e6b69,rev?*%
%TF.SameCoordinates,Original*%
%TF.FileFunction,Legend,Top*%
%TF.FilePolarity,Positive*%
%FSLAX46Y46*%
G04 Gerber Fmt 4.6, Leading zero omitted, Abs format (unit mm)*
G04 Created by KiCad (PCBNEW 7.0.5) date 2024-12-07 14:54:08*
%MOMM*%
%LPD*%
G01*
G04 APERTURE LIST*
%ADD10C,0.100000*%
G04 APERTURE END LIST*
D10*
%TO.C,REF\u002A\u002A*%
X10096666Y-7577419D02*
X9763333Y-7101228D01*
X9525238Y-7577419D02*
X9525238Y-6577419D01*
X9525238Y-6577419D02*
X9906190Y-6577419D01*
X9906190Y-6577419D02*
X10001428Y-6625038D01*
X10001428Y-6625038D02*
X10049047Y-6672657D01*
X10049047Y-6672657D02*
X10096666Y-6767895D01*
X10096666Y-6767895D02*
X10096666Y-6910752D01*
X10096666Y-6910752D02*
X10049047Y-7005990D01*
X10049047Y-7005990D02*
X10001428Y-7053609D01*
X10001428Y-7053609D02*
X9906190Y-7101228D01*
X9906190Y-7101228D02*
X9525238Y-7101228D01*
X10525238Y-7053609D02*
X10858571Y-7053609D01*
X11001428Y-7577419D02*
X10525238Y-7577419D01*
X10525238Y-7577419D02*
X10525238Y-6577419D01*
X10525238Y-6577419D02*
X11001428Y-6577419D01*
X11763333Y-7053609D02*
X11430000Y-7053609D01*
X11430000Y-7577419D02*
X11430000Y-6577419D01*
X11430000Y-6577419D02*
X11906190Y-6577419D01*
X12430000Y-6577419D02*
X12430000Y-6815514D01*
X12191905Y-6720276D02*
X12430000Y-6815514D01*
X12430000Y-6815514D02*
X12668095Y-6720276D01*
X12287143Y-7005990D02*
X12430000Y-6815514D01*
X12430000Y-6815514D02*
X12572857Y-7005990D01*
X13191905Y-6577419D02*
X13191905Y-6815514D01*
X12953810Y-6720276D02*
X13191905Y-6815514D01*
X13191905Y-6815514D02*
X13430000Y-6720276D01*
X13049048Y-7005990D02*
X13191905Y-6815514D01*
X13191905Y-6815514D02*
X13334762Y-7005990D01*
%TD*%
M02*
