%TF.GenerationSoftware,KiCad,Pcbnew,7.0.5*%
%TF.CreationDate,2024-12-07T14:54:07-05:00*%
%TF.ProjectId,servo_cutout,73657276-6f5f-4637-9574-6f75742e6b69,rev?*%
%TF.SameCoordinates,Original*%
%TF.FileFunction,Copper,L2,Bot*%
%TF.FilePolarity,Positive*%
%FSLAX46Y46*%
G04 Gerber Fmt 4.6, Leading zero omitted, Abs format (unit mm)*
G04 Created by KiCad (PCBNEW 7.0.5) date 2024-12-07 14:54:07*
%MOMM*%
%LPD*%
G01*
G04 APERTURE LIST*
G04 APERTURE END LIST*
%TA.AperFunction,NonConductor*%
G36*
X40582539Y-2560185D02*
G01*
X40628294Y-2612989D01*
X40639500Y-2664500D01*
X40639500Y-22735500D01*
X40619815Y-22802539D01*
X40567011Y-22848294D01*
X40515500Y-22859500D01*
X2664500Y-22859500D01*
X2597461Y-22839815D01*
X2551706Y-22787011D01*
X2540500Y-22735500D01*
X2540500Y-19595889D01*
X11429416Y-19595889D01*
X11429459Y-19620001D01*
X11429544Y-19620206D01*
X11429616Y-19620382D01*
X11429618Y-19620384D01*
X11429808Y-19620462D01*
X11430000Y-19620541D01*
X11430002Y-19620539D01*
X11454616Y-19620524D01*
X11454616Y-19620528D01*
X11454760Y-19620500D01*
X33905240Y-19620500D01*
X33905383Y-19620528D01*
X33905384Y-19620524D01*
X33929997Y-19620539D01*
X33930000Y-19620541D01*
X33930383Y-19620383D01*
X33930500Y-19620099D01*
X33930541Y-19620000D01*
X33930540Y-19619997D01*
X33930583Y-19595889D01*
X33930500Y-19595467D01*
X33930500Y-13605809D01*
X34675778Y-13605809D01*
X34680410Y-13658754D01*
X34677688Y-13672296D01*
X34684651Y-13710667D01*
X34685340Y-13715569D01*
X34685668Y-13718850D01*
X34685937Y-13721926D01*
X34686207Y-13727331D01*
X34686207Y-13761038D01*
X34690740Y-13776821D01*
X34695082Y-13826455D01*
X34695085Y-13826468D01*
X34709702Y-13881023D01*
X34709341Y-13896153D01*
X34723721Y-13934466D01*
X34725562Y-13940211D01*
X34726286Y-13942913D01*
X34727224Y-13946419D01*
X34728332Y-13951366D01*
X34733962Y-13982391D01*
X34740369Y-13995471D01*
X34752408Y-14040403D01*
X34752409Y-14040405D01*
X34752410Y-14040408D01*
X34757950Y-14052288D01*
X34777697Y-14094636D01*
X34780163Y-14110875D01*
X34801794Y-14147080D01*
X34804764Y-14152683D01*
X34808125Y-14159891D01*
X34809980Y-14164307D01*
X34820282Y-14191757D01*
X34827745Y-14201964D01*
X34846018Y-14241151D01*
X34846021Y-14241155D01*
X34882262Y-14292914D01*
X34887907Y-14309655D01*
X34916327Y-14342184D01*
X34920426Y-14347417D01*
X34926401Y-14355950D01*
X34928839Y-14359714D01*
X34942444Y-14382485D01*
X34950137Y-14389850D01*
X34973056Y-14422582D01*
X34973064Y-14422591D01*
X35020127Y-14469654D01*
X35029174Y-14486223D01*
X35063593Y-14513671D01*
X35068781Y-14518308D01*
X35078547Y-14528074D01*
X35081398Y-14531123D01*
X35096546Y-14548461D01*
X35103710Y-14553237D01*
X35129683Y-14579210D01*
X35129687Y-14579213D01*
X35129690Y-14579215D01*
X35186970Y-14619324D01*
X35199489Y-14634986D01*
X35238835Y-14656159D01*
X35245021Y-14659971D01*
X35260043Y-14670489D01*
X35263141Y-14672805D01*
X35277709Y-14684423D01*
X35283652Y-14687021D01*
X35296916Y-14696308D01*
X35311122Y-14706255D01*
X35377575Y-14737242D01*
X35393477Y-14751244D01*
X35436455Y-14765208D01*
X35443496Y-14767982D01*
X35465444Y-14778216D01*
X35468608Y-14779804D01*
X35480156Y-14786018D01*
X35484331Y-14787023D01*
X35511865Y-14799863D01*
X35585962Y-14819717D01*
X35604997Y-14831319D01*
X35650160Y-14837437D01*
X35657881Y-14838987D01*
X35688523Y-14847198D01*
X35691607Y-14848112D01*
X35697435Y-14850005D01*
X35699453Y-14850126D01*
X35725813Y-14857190D01*
X35805614Y-14864171D01*
X35827375Y-14872683D01*
X35873185Y-14870626D01*
X35881370Y-14870799D01*
X35946466Y-14876495D01*
X36029650Y-14869217D01*
X36053582Y-14874026D01*
X36098470Y-14863781D01*
X36106873Y-14862461D01*
X36113399Y-14861890D01*
X36167119Y-14857190D01*
X36381067Y-14799863D01*
X36581810Y-14706255D01*
X36763249Y-14579210D01*
X36919869Y-14422590D01*
X37046914Y-14241151D01*
X37140522Y-14040408D01*
X37197849Y-13826460D01*
X37217154Y-13605807D01*
X37197849Y-13385154D01*
X37144241Y-13185087D01*
X37140524Y-13171213D01*
X37140523Y-13171211D01*
X37140522Y-13171206D01*
X37046914Y-12970463D01*
X37046912Y-12970460D01*
X37046911Y-12970458D01*
X36919872Y-12789028D01*
X36919867Y-12789022D01*
X36763250Y-12632405D01*
X36763244Y-12632400D01*
X36581814Y-12505361D01*
X36581810Y-12505359D01*
X36581809Y-12505358D01*
X36381067Y-12411751D01*
X36381063Y-12411750D01*
X36381059Y-12411748D01*
X36167124Y-12354425D01*
X36167120Y-12354424D01*
X36167119Y-12354424D01*
X36167118Y-12354423D01*
X36167113Y-12354423D01*
X36106878Y-12349153D01*
X36098475Y-12347833D01*
X36061641Y-12339426D01*
X36029652Y-12342397D01*
X35946467Y-12335119D01*
X35946461Y-12335119D01*
X35922460Y-12337218D01*
X35922437Y-12337221D01*
X35881388Y-12340812D01*
X35873194Y-12340986D01*
X35835278Y-12339283D01*
X35805616Y-12347442D01*
X35725817Y-12354423D01*
X35725804Y-12354426D01*
X35699451Y-12361487D01*
X35697913Y-12361450D01*
X35691576Y-12363509D01*
X35688466Y-12364430D01*
X35657898Y-12372621D01*
X35650167Y-12374173D01*
X35612472Y-12379280D01*
X35585964Y-12391896D01*
X35511872Y-12411748D01*
X35511863Y-12411752D01*
X35484327Y-12424592D01*
X35481108Y-12425080D01*
X35468582Y-12431821D01*
X35465406Y-12433415D01*
X35443511Y-12443625D01*
X35436461Y-12446402D01*
X35400290Y-12458155D01*
X35377574Y-12474372D01*
X35311121Y-12505359D01*
X35311119Y-12505360D01*
X35283649Y-12524595D01*
X35278996Y-12526164D01*
X35263141Y-12538807D01*
X35260050Y-12541119D01*
X35245029Y-12551638D01*
X35238839Y-12555452D01*
X35205464Y-12573411D01*
X35186976Y-12592287D01*
X35129685Y-12632402D01*
X35103708Y-12658379D01*
X35097984Y-12661504D01*
X35081389Y-12680499D01*
X35078539Y-12683548D01*
X35068786Y-12693300D01*
X35063598Y-12697937D01*
X35034161Y-12721412D01*
X35020130Y-12741956D01*
X34973060Y-12789026D01*
X34950134Y-12821769D01*
X34943830Y-12826807D01*
X34928836Y-12851903D01*
X34926398Y-12855667D01*
X34920428Y-12864193D01*
X34916330Y-12869424D01*
X34891834Y-12897462D01*
X34882264Y-12918697D01*
X34846021Y-12970458D01*
X34846017Y-12970464D01*
X34827743Y-13009652D01*
X34821413Y-13016840D01*
X34809971Y-13047330D01*
X34808112Y-13051752D01*
X34807287Y-13053521D01*
X34804750Y-13058958D01*
X34801790Y-13064540D01*
X34783007Y-13095976D01*
X34777699Y-13116972D01*
X34752412Y-13171199D01*
X34752408Y-13171211D01*
X34740369Y-13216142D01*
X34734626Y-13225562D01*
X34728331Y-13260250D01*
X34727223Y-13265197D01*
X34725936Y-13270006D01*
X34725566Y-13271389D01*
X34723721Y-13277147D01*
X34711137Y-13310677D01*
X34709703Y-13330590D01*
X34695084Y-13385148D01*
X34695082Y-13385158D01*
X34690740Y-13434791D01*
X34686207Y-13446379D01*
X34686207Y-13484410D01*
X34685926Y-13489815D01*
X34685646Y-13493008D01*
X34685291Y-13496422D01*
X34684629Y-13501070D01*
X34678519Y-13534736D01*
X34680410Y-13552858D01*
X34675778Y-13605804D01*
X34675778Y-13605809D01*
X33930500Y-13605809D01*
X33930500Y-7644759D01*
X33930528Y-7644616D01*
X33930524Y-7644616D01*
X33930539Y-7620002D01*
X33930541Y-7620000D01*
X33930462Y-7619808D01*
X33930384Y-7619618D01*
X33930383Y-7619617D01*
X33930381Y-7619616D01*
X33930090Y-7619496D01*
X33930001Y-7619459D01*
X33905446Y-7619459D01*
X33905240Y-7619500D01*
X11454760Y-7619500D01*
X11454554Y-7619459D01*
X11429998Y-7619459D01*
X11429909Y-7619496D01*
X11429619Y-7619615D01*
X11429615Y-7619618D01*
X11429459Y-7619999D01*
X11429476Y-7644616D01*
X11429471Y-7644616D01*
X11429500Y-7644759D01*
X11429500Y-19595467D01*
X11429416Y-19595889D01*
X2540500Y-19595889D01*
X2540500Y-13617694D01*
X8142853Y-13617694D01*
X8147485Y-13670639D01*
X8144763Y-13684181D01*
X8151726Y-13722552D01*
X8152415Y-13727454D01*
X8152743Y-13730735D01*
X8153012Y-13733811D01*
X8153282Y-13739216D01*
X8153282Y-13772923D01*
X8157815Y-13788706D01*
X8162157Y-13838340D01*
X8162160Y-13838353D01*
X8176777Y-13892908D01*
X8176416Y-13908038D01*
X8190796Y-13946351D01*
X8192637Y-13952096D01*
X8193361Y-13954798D01*
X8194299Y-13958304D01*
X8195407Y-13963251D01*
X8201037Y-13994276D01*
X8207444Y-14007356D01*
X8219483Y-14052288D01*
X8219484Y-14052290D01*
X8219485Y-14052293D01*
X8239230Y-14094636D01*
X8244772Y-14106521D01*
X8247238Y-14122760D01*
X8268869Y-14158965D01*
X8271839Y-14164568D01*
X8275200Y-14171776D01*
X8277055Y-14176192D01*
X8287357Y-14203642D01*
X8294820Y-14213849D01*
X8313093Y-14253036D01*
X8313096Y-14253040D01*
X8349337Y-14304799D01*
X8354982Y-14321540D01*
X8383402Y-14354069D01*
X8387501Y-14359302D01*
X8393476Y-14367835D01*
X8395914Y-14371599D01*
X8409519Y-14394370D01*
X8417212Y-14401735D01*
X8440131Y-14434467D01*
X8440139Y-14434476D01*
X8487202Y-14481539D01*
X8496249Y-14498108D01*
X8530668Y-14525556D01*
X8535856Y-14530193D01*
X8545622Y-14539959D01*
X8548473Y-14543008D01*
X8563621Y-14560346D01*
X8570785Y-14565122D01*
X8596758Y-14591095D01*
X8596762Y-14591098D01*
X8596765Y-14591100D01*
X8654045Y-14631209D01*
X8666564Y-14646871D01*
X8705910Y-14668044D01*
X8712096Y-14671856D01*
X8727118Y-14682374D01*
X8730216Y-14684690D01*
X8744784Y-14696308D01*
X8750727Y-14698906D01*
X8761219Y-14706252D01*
X8778197Y-14718140D01*
X8844650Y-14749127D01*
X8860552Y-14763129D01*
X8903530Y-14777093D01*
X8910571Y-14779867D01*
X8932519Y-14790101D01*
X8935683Y-14791689D01*
X8947231Y-14797903D01*
X8951406Y-14798908D01*
X8978940Y-14811748D01*
X9053037Y-14831602D01*
X9072072Y-14843204D01*
X9117235Y-14849322D01*
X9124956Y-14850872D01*
X9155598Y-14859083D01*
X9158682Y-14859997D01*
X9164510Y-14861890D01*
X9166528Y-14862011D01*
X9192888Y-14869075D01*
X9272689Y-14876056D01*
X9294450Y-14884568D01*
X9340260Y-14882511D01*
X9348445Y-14882684D01*
X9413541Y-14888380D01*
X9496725Y-14881102D01*
X9520657Y-14885911D01*
X9565545Y-14875666D01*
X9573948Y-14874346D01*
X9579998Y-14873816D01*
X9634194Y-14869075D01*
X9848142Y-14811748D01*
X10048885Y-14718140D01*
X10230324Y-14591095D01*
X10386944Y-14434475D01*
X10513989Y-14253036D01*
X10607597Y-14052293D01*
X10664924Y-13838345D01*
X10684229Y-13617692D01*
X10664924Y-13397039D01*
X10607597Y-13183091D01*
X10513989Y-12982348D01*
X10513987Y-12982345D01*
X10513986Y-12982343D01*
X10386947Y-12800913D01*
X10386942Y-12800907D01*
X10230325Y-12644290D01*
X10230319Y-12644285D01*
X10048889Y-12517246D01*
X10048885Y-12517244D01*
X10023400Y-12505360D01*
X9848142Y-12423636D01*
X9848138Y-12423635D01*
X9848134Y-12423633D01*
X9634199Y-12366310D01*
X9634195Y-12366309D01*
X9634194Y-12366309D01*
X9634193Y-12366308D01*
X9634188Y-12366308D01*
X9573953Y-12361038D01*
X9565550Y-12359718D01*
X9528716Y-12351311D01*
X9496727Y-12354282D01*
X9413542Y-12347004D01*
X9413536Y-12347004D01*
X9389535Y-12349103D01*
X9389512Y-12349106D01*
X9348463Y-12352697D01*
X9340269Y-12352871D01*
X9302353Y-12351168D01*
X9272691Y-12359327D01*
X9192892Y-12366308D01*
X9192879Y-12366311D01*
X9166526Y-12373372D01*
X9164988Y-12373335D01*
X9158651Y-12375394D01*
X9155541Y-12376315D01*
X9124973Y-12384506D01*
X9117242Y-12386058D01*
X9079547Y-12391165D01*
X9053039Y-12403781D01*
X8978947Y-12423633D01*
X8978938Y-12423637D01*
X8951402Y-12436477D01*
X8948183Y-12436965D01*
X8935657Y-12443706D01*
X8932481Y-12445300D01*
X8910586Y-12455510D01*
X8903536Y-12458287D01*
X8867365Y-12470040D01*
X8844649Y-12486257D01*
X8778196Y-12517244D01*
X8778194Y-12517245D01*
X8750724Y-12536480D01*
X8746071Y-12538049D01*
X8730216Y-12550692D01*
X8727125Y-12553004D01*
X8712104Y-12563523D01*
X8705914Y-12567337D01*
X8672539Y-12585296D01*
X8654051Y-12604172D01*
X8596760Y-12644287D01*
X8570783Y-12670264D01*
X8565059Y-12673389D01*
X8548464Y-12692384D01*
X8545614Y-12695433D01*
X8535861Y-12705185D01*
X8530673Y-12709822D01*
X8501236Y-12733297D01*
X8487205Y-12753841D01*
X8440135Y-12800911D01*
X8417209Y-12833654D01*
X8410905Y-12838692D01*
X8395911Y-12863788D01*
X8393473Y-12867552D01*
X8387503Y-12876078D01*
X8383405Y-12881309D01*
X8358909Y-12909347D01*
X8349339Y-12930582D01*
X8313096Y-12982343D01*
X8313092Y-12982349D01*
X8294818Y-13021537D01*
X8288488Y-13028725D01*
X8277046Y-13059215D01*
X8275187Y-13063637D01*
X8274362Y-13065406D01*
X8271825Y-13070843D01*
X8268865Y-13076425D01*
X8250082Y-13107861D01*
X8244774Y-13128857D01*
X8219487Y-13183084D01*
X8219483Y-13183096D01*
X8207444Y-13228027D01*
X8201701Y-13237447D01*
X8195406Y-13272135D01*
X8194298Y-13277082D01*
X8193011Y-13281891D01*
X8192641Y-13283274D01*
X8190796Y-13289032D01*
X8178212Y-13322562D01*
X8176778Y-13342475D01*
X8162159Y-13397033D01*
X8162157Y-13397043D01*
X8157815Y-13446676D01*
X8153282Y-13458264D01*
X8153282Y-13496295D01*
X8153001Y-13501700D01*
X8152721Y-13504893D01*
X8152366Y-13508307D01*
X8151704Y-13512955D01*
X8145594Y-13546621D01*
X8147485Y-13564743D01*
X8142853Y-13617689D01*
X8142853Y-13617694D01*
X2540500Y-13617694D01*
X2540500Y-2664500D01*
X2560185Y-2597461D01*
X2612989Y-2551706D01*
X2664500Y-2540500D01*
X40515500Y-2540500D01*
X40582539Y-2560185D01*
G37*
%TD.AperFunction*%
M02*
